solid vcg
  facet normal -9.545199e-001 -2.970673e-001 -2.535170e-002
    outer loop
      vertex  4.051645e+001 1.572239e+001 -5.217391e-001
      vertex  4.092071e+001 1.600036e+001 -1.900000e+001
      vertex  4.300575e+001 9.300835e+000 -1.900000e+001
    endloop
  endfacet
  facet normal -4.999840e-001 -8.659125e-001 -1.454321e-002
    outer loop
      vertex  1.704365e+001 4.038463e+001 -1.900000e+001
      vertex  2.713257e+001 3.455921e+001 -1.900000e+001
      vertex  2.578621e+001 3.502793e+001 -6.206896e-001
    endloop
  endfacet
  facet normal 1.502358e-001 -9.881510e-001 -3.141294e-002
    outer loop
      vertex  -6.144238e+000 4.280299e+001 -3.333333e-001
      vertex  -1.044237e+001 4.274292e+001 -1.900000e+001
      vertex  -3.505613e+000 4.379757e+001 -1.900000e+001
    endloop
  endfacet
  facet normal -2.524387e-001 9.660475e-001 5.501701e-002
    outer loop
      vertex  -1.595940e+001 4.024276e+001 -4.137931e-001
      vertex  -6.144238e+000 4.280299e+001 -3.333333e-001
      vertex  -1.044237e+001 4.274292e+001 -1.900000e+001
    endloop
  endfacet
  facet normal -7.137349e-001 -6.980686e-001 -5.729485e-002
    outer loop
      vertex  3.549542e+001 2.509912e+001 -6.000000e-001
      vertex  2.578621e+001 3.502793e+001 -6.206896e-001
      vertex  3.233006e+001 2.984572e+001 -1.900000e+001
    endloop
  endfacet
  facet normal 0.000000e+000 0.000000e+000 -1.000000e+000
    outer loop
      vertex  -4.082402e+001 -1.596255e+001 -1.900000e+001
      vertex  -2.693152e+001 -3.477652e+001 -1.900000e+001
      vertex  -3.526925e+001 -2.620297e+001 -1.900000e+001
    endloop
  endfacet
  facet normal -2.592919e-001 -3.701830e-001 -8.920383e-001
    outer loop
      vertex  6.998507e+000 2.383473e+001 9.000000e+000
      vertex  1.595940e+001 4.024277e+001 -4.137931e-001
      vertex  1.979657e+001 1.487042e+001 9.000000e+000
    endloop
  endfacet
  facet normal 2.232522e-001 3.851686e-001 -8.954349e-001
    outer loop
      vertex  -1.740165e+001 -1.752176e+001 9.000000e+000
      vertex  -1.595940e+001 -4.024277e+001 -4.137931e-001
      vertex  -2.578621e+001 -3.502793e+001 -6.206896e-001
    endloop
  endfacet
  facet normal 1.634426e-007 -5.265059e-001 -8.501714e-001
    outer loop
      vertex  -2.299626e+000 4.387949e+001 -1.000000e+000
      vertex  6.144238e+000 4.280299e+001 -3.333333e-001
      vertex  -6.144238e+000 4.280299e+001 -3.333333e-001
    endloop
  endfacet
  facet normal 0.000000e+000 0.000000e+000 1.000000e+000
    outer loop
      vertex  6.998507e+000 2.383473e+001 9.000000e+000
      vertex  -5.332197e+000 2.411217e+001 9.000000e+000
      vertex  1.979657e+001 1.487042e+001 9.000000e+000
    endloop
  endfacet
  facet normal -8.813036e-001 4.720922e-001 2.080541e-002
    outer loop
      vertex  -3.549541e+001 2.509912e+001 -6.000000e-001
      vertex  -4.082402e+001 1.596255e+001 -1.900000e+001
      vertex  -4.051645e+001 1.572239e+001 -5.217391e-001
    endloop
  endfacet
  facet normal -7.580394e-001 6.515290e-001 2.976933e-002
    outer loop
      vertex  -3.549541e+001 2.509912e+001 -6.000000e-001
      vertex  -3.069579e+001 3.152410e+001 -1.900000e+001
      vertex  -3.526926e+001 2.620297e+001 -1.900000e+001
    endloop
  endfacet
  facet normal -5.180265e-001 -8.549846e-001 -2.549026e-002
    outer loop
      vertex  5.831647e+000 4.354891e+001 -1.900000e+001
      vertex  6.144238e+000 4.280299e+001 -3.333333e-001
      vertex  4.599252e+000 4.375896e+001 -1.000000e+000
    endloop
  endfacet
  facet normal 8.811685e-001 -4.720659e-001 2.637965e-002
    outer loop
      vertex  3.549541e+001 -2.509912e+001 -6.000000e-001
      vertex  4.092071e+001 -1.600036e+001 -1.900000e+001
      vertex  4.051644e+001 -1.572239e+001 -5.217391e-001
    endloop
  endfacet
  facet normal 0.000000e+000 0.000000e+000 -1.000000e+000
    outer loop
      vertex  1.740165e+001 -1.752176e+001 9.000000e+000
      vertex  1.979657e+001 1.487042e+001 9.000000e+000
      vertex  2.409587e+001 -5.241736e+000 9.000000e+000
    endloop
  endfacet
  facet normal 0.000000e+000 0.000000e+000 -1.000000e+000
    outer loop
      vertex  -1.740165e+001 -1.752176e+001 9.000000e+000
      vertex  1.979657e+001 1.487042e+001 9.000000e+000
      vertex  -5.332197e+000 -2.411217e+001 9.000000e+000
    endloop
  endfacet
  facet normal 5.011109e-001 8.651658e-001 -1.939226e-002
    outer loop
      vertex  -2.578621e+001 -3.502793e+001 -6.206896e-001
      vertex  -1.708401e+001 -4.048027e+001 -1.900000e+001
      vertex  -2.693152e+001 -3.477652e+001 -1.900000e+001
    endloop
  endfacet
  facet normal 9.545199e-001 -2.970673e-001 2.535193e-002
    outer loop
      vertex  4.092071e+001 -1.600036e+001 -1.900000e+001
      vertex  4.300575e+001 -9.300835e+000 -1.900000e+001
      vertex  4.051644e+001 -1.572239e+001 -5.217391e-001
    endloop
  endfacet
  facet normal 2.524383e-001 9.660476e-001 -5.501674e-002
    outer loop
      vertex  -1.044237e+001 -4.274292e+001 -1.900000e+001
      vertex  -1.595940e+001 -4.024277e+001 -4.137931e-001
      vertex  -6.144238e+000 -4.280299e+001 -3.333333e-001
    endloop
  endfacet
  facet normal 4.690411e-001 -8.822856e-001 -3.965511e-002
    outer loop
      vertex  -2.578621e+001 3.502793e+001 -6.206896e-001
      vertex  -1.708401e+001 4.048027e+001 -1.900000e+001
      vertex  -1.595940e+001 4.024276e+001 -4.137931e-001
    endloop
  endfacet
  facet normal -9.317213e-001 3.630025e-001 1.115822e-002
    outer loop
      vertex  4.388670e+001 -2.125870e+000 -1.900000e+001
      vertex  4.269528e+001 -5.760241e+000 -2.500000e-001
      vertex  4.385538e+001 -2.759552e+000 -1.000000e+000
    endloop
  endfacet
  facet normal -4.372819e-001 1.337840e-001 8.893179e-001
    outer loop
      vertex  -4.051645e+001 1.572239e+001 -5.217391e-001
      vertex  -4.259370e+001 7.680321e+000 -3.333333e-001
      vertex  -2.375682e+001 7.207387e+000 9.000000e+000
    endloop
  endfacet
  facet normal 3.223154e-001 9.461050e-001 -3.159220e-002
    outer loop
      vertex  -1.044237e+001 -4.274292e+001 -1.900000e+001
      vertex  -1.708401e+001 -4.048027e+001 -1.900000e+001
      vertex  -1.595940e+001 -4.024277e+001 -4.137931e-001
    endloop
  endfacet
  facet normal -9.354198e-001 -3.535373e-001 -1.097523e-003
    outer loop
      vertex  4.375896e+001 4.599252e+000 -1.000000e+000
      vertex  4.259370e+001 7.680320e+000 -3.333333e-001
      vertex  4.375073e+001 4.676913e+000 -1.900000e+001
    endloop
  endfacet
  facet normal -0.000000e+000 0.000000e+000 -1.000000e+000
    outer loop
      vertex  4.375073e+001 4.676913e+000 -1.900000e+001
      vertex  -2.693152e+001 -3.477652e+001 -1.900000e+001
      vertex  4.300575e+001 9.300835e+000 -1.900000e+001
    endloop
  endfacet
  facet normal 0.000000e+000 0.000000e+000 -1.000000e+000
    outer loop
      vertex  4.388670e+001 -2.125870e+000 -1.900000e+001
      vertex  4.300575e+001 -9.300835e+000 -1.900000e+001
      vertex  -2.693152e+001 -3.477652e+001 -1.900000e+001
    endloop
  endfacet
  facet normal 3.954058e-001 -2.191757e-001 -8.919732e-001
    outer loop
      vertex  -3.549541e+001 2.509912e+001 -6.000000e-001
      vertex  -2.375682e+001 7.207387e+000 9.000000e+000
      vertex  -4.051645e+001 1.572239e+001 -5.217391e-001
    endloop
  endfacet
  facet normal 4.436958e-001 -1.208400e-002 -8.960960e-001
    outer loop
      vertex  -2.409587e+001 -5.241737e+000 9.000000e+000
      vertex  -4.259370e+001 7.680321e+000 -3.333333e-001
      vertex  -2.375682e+001 7.207387e+000 9.000000e+000
    endloop
  endfacet
  facet normal 0.000000e+000 -0.000000e+000 1.000000e+000
    outer loop
      vertex  6.998507e+000 -2.383473e+001 9.000000e+000
      vertex  1.979657e+001 1.487042e+001 9.000000e+000
      vertex  -5.332197e+000 -2.411217e+001 9.000000e+000
    endloop
  endfacet
  facet normal -9.766225e-001 -2.141168e-001 1.903917e-002
    outer loop
      vertex  -4.082402e+001 -1.596255e+001 -1.900000e+001
      vertex  -4.051645e+001 -1.572239e+001 -5.217391e-001
      vertex  -4.269527e+001 -5.760240e+000 -2.500000e-001
    endloop
  endfacet
  facet normal 9.917753e-001 -1.217708e-001 3.941644e-002
    outer loop
      vertex  4.388670e+001 -2.125870e+000 -1.900000e+001
      vertex  4.269528e+001 -5.760241e+000 -2.500000e-001
      vertex  4.300575e+001 -9.300835e+000 -1.900000e+001
    endloop
  endfacet
  facet normal -0.000000e+000 0.000000e+000 -1.000000e+000
    outer loop
      vertex  3.661385e+001 2.428873e+001 -1.900000e+001
      vertex  -2.693152e+001 -3.477652e+001 -1.900000e+001
      vertex  3.233006e+001 2.984572e+001 -1.900000e+001
    endloop
  endfacet
  facet normal -2.105345e-001 3.855652e-001 8.983400e-001
    outer loop
      vertex  -1.740165e+001 1.752176e+001 9.000000e+000
      vertex  -5.332197e+000 2.411217e+001 9.000000e+000
      vertex  -1.595940e+001 4.024276e+001 -4.137931e-001
    endloop
  endfacet
  facet normal -3.845567e-001 -2.134174e-001 8.980919e-001
    outer loop
      vertex  -2.409587e+001 -5.241737e+000 9.000000e+000
      vertex  -4.051645e+001 -1.572239e+001 -5.217391e-001
      vertex  -3.549541e+001 -2.509912e+001 -6.000000e-001
    endloop
  endfacet
  facet normal -5.301721e-001 -6.946418e-003 -8.478616e-001
    outer loop
      vertex  4.375896e+001 4.599252e+000 -1.000000e+000
      vertex  4.385538e+001 -2.759552e+000 -1.000000e+000
      vertex  4.269528e+001 -5.760241e+000 -2.500000e-001
    endloop
  endfacet
  facet normal 5.147971e-001 -9.205315e-003 -8.572627e-001
    outer loop
      vertex  -4.375896e+001 4.599252e+000 -1.000000e+000
      vertex  -4.259370e+001 7.680321e+000 -3.333333e-001
      vertex  -4.269527e+001 -5.760240e+000 -2.500000e-001
    endloop
  endfacet
  facet normal -9.424298e-001 -3.330033e-001 3.057630e-002
    outer loop
      vertex  -4.386853e+001 -2.508683e+000 -1.000000e+000
      vertex  -4.368873e+001 -4.670285e+000 -1.900000e+001
      vertex  -4.269527e+001 -5.760240e+000 -2.500000e-001
    endloop
  endfacet
  facet normal 8.788696e-001 -4.767300e-001 -1.779763e-002
    outer loop
      vertex  -3.549541e+001 2.509912e+001 -6.000000e-001
      vertex  -4.082402e+001 1.596255e+001 -1.900000e+001
      vertex  -3.526926e+001 2.620297e+001 -1.900000e+001
    endloop
  endfacet
  facet normal 9.941395e-003 4.418365e-001 8.970405e-001
    outer loop
      vertex  6.998507e+000 2.383473e+001 9.000000e+000
      vertex  6.144238e+000 4.280299e+001 -3.333333e-001
      vertex  -5.332197e+000 2.411217e+001 9.000000e+000
    endloop
  endfacet
  facet normal -7.106422e-001 6.946921e-001 -1.113129e-001
    outer loop
      vertex  -3.121781e+001 2.957108e+001 0.000000e+000
      vertex  -2.578621e+001 3.502793e+001 -6.206896e-001
      vertex  -3.549541e+001 2.509912e+001 -6.000000e-001
    endloop
  endfacet
  facet normal -1.502358e-001 -9.881510e-001 3.141274e-002
    outer loop
      vertex  -3.505613e+000 -4.379757e+001 -1.900000e+001
      vertex  -6.144238e+000 -4.280299e+001 -3.333333e-001
      vertex  -1.044237e+001 -4.274292e+001 -1.900000e+001
    endloop
  endfacet
  facet normal -9.679308e-001 2.504693e-001 1.936696e-002
    outer loop
      vertex  -4.051645e+001 1.572239e+001 -5.217391e-001
      vertex  -4.082402e+001 1.596255e+001 -1.900000e+001
      vertex  -4.259370e+001 7.680321e+000 -3.333333e-001
    endloop
  endfacet
  facet normal -9.941599e-003 4.418364e-001 -8.970405e-001
    outer loop
      vertex  6.998507e+000 -2.383473e+001 9.000000e+000
      vertex  6.144238e+000 -4.280299e+001 -3.333333e-001
      vertex  -5.332197e+000 -2.411217e+001 9.000000e+000
    endloop
  endfacet
  facet normal 0.000000e+000 0.000000e+000 -1.000000e+000
    outer loop
      vertex  -4.082402e+001 -1.596255e+001 -1.900000e+001
      vertex  -4.368873e+001 -4.670285e+000 -1.900000e+001
      vertex  -2.693152e+001 -3.477652e+001 -1.900000e+001
    endloop
  endfacet
  facet normal -1.746666e-002 -9.997926e-001 1.047107e-002
    outer loop
      vertex  5.831647e+000 4.354891e+001 -1.900000e+001
      vertex  4.599252e+000 4.375896e+001 -1.000000e+000
      vertex  -2.299626e+000 4.387949e+001 -1.000000e+000
    endloop
  endfacet
  facet normal 0.000000e+000 0.000000e+000 -1.000000e+000
    outer loop
      vertex  -1.708401e+001 4.048027e+001 -1.900000e+001
      vertex  -2.693152e+001 -3.477652e+001 -1.900000e+001
      vertex  -2.525480e+001 3.595429e+001 -1.900000e+001
    endloop
  endfacet
  facet normal 0.000000e+000 0.000000e+000 -1.000000e+000
    outer loop
      vertex  -1.044237e+001 -4.274292e+001 -1.900000e+001
      vertex  -1.708401e+001 -4.048027e+001 -1.900000e+001
      vertex  -2.693152e+001 -3.477652e+001 -1.900000e+001
    endloop
  endfacet
  facet normal -0.000000e+000 0.000000e+000 1.000000e+000
    outer loop
      vertex  -3.069579e+001 3.152410e+001 -1.900000e+001
      vertex  -2.693152e+001 -3.477652e+001 -1.900000e+001
      vertex  -2.525480e+001 3.595429e+001 -1.900000e+001
    endloop
  endfacet
  facet normal 7.106422e-001 -6.946921e-001 -1.113129e-001
    outer loop
      vertex  2.578621e+001 -3.502793e+001 -6.206896e-001
      vertex  3.549541e+001 -2.509912e+001 -6.000000e-001
      vertex  3.121781e+001 -2.957108e+001 0.000000e+000
    endloop
  endfacet
  facet normal -9.750121e-001 2.147931e-001 -5.670442e-002
    outer loop
      vertex  4.300575e+001 -9.300835e+000 -1.900000e+001
      vertex  4.051644e+001 -1.572239e+001 -5.217391e-001
      vertex  4.269528e+001 -5.760241e+000 -2.500000e-001
    endloop
  endfacet
  facet normal 0.000000e+000 0.000000e+000 1.000000e+000
    outer loop
      vertex  4.092071e+001 1.600036e+001 -1.900000e+001
      vertex  -2.693152e+001 -3.477652e+001 -1.900000e+001
      vertex  4.300575e+001 9.300835e+000 -1.900000e+001
    endloop
  endfacet
  facet normal -3.832062e-001 -2.471436e-001 -8.899848e-001
    outer loop
      vertex  3.121781e+001 2.957108e+001 0.000000e+000
      vertex  3.549542e+001 2.509912e+001 -6.000000e-001
      vertex  1.979657e+001 1.487042e+001 9.000000e+000
    endloop
  endfacet
  facet normal 4.454800e-001 8.917271e-003 8.952475e-001
    outer loop
      vertex  2.409587e+001 -5.241736e+000 9.000000e+000
      vertex  4.269528e+001 -5.760241e+000 -2.500000e-001
      vertex  4.259370e+001 7.680320e+000 -3.333333e-001
    endloop
  endfacet
  facet normal -1.386844e-007 4.467511e-001 8.946583e-001
    outer loop
      vertex  -5.332197e+000 2.411217e+001 9.000000e+000
      vertex  6.144238e+000 4.280299e+001 -3.333333e-001
      vertex  -6.144238e+000 4.280299e+001 -3.333333e-001
    endloop
  endfacet
  facet normal -0.000000e+000 0.000000e+000 -1.000000e+000
    outer loop
      vertex  5.831647e+000 4.354891e+001 -1.900000e+001
      vertex  -2.693152e+001 -3.477652e+001 -1.900000e+001
      vertex  -3.505613e+000 4.379757e+001 -1.900000e+001
    endloop
  endfacet
  facet normal -9.998738e-001 1.541262e-002 -3.840273e-003
    outer loop
      vertex  -4.368873e+001 4.670285e+000 -1.900000e+001
      vertex  -4.386853e+001 -2.508683e+000 -1.000000e+000
      vertex  -4.375896e+001 4.599252e+000 -1.000000e+000
    endloop
  endfacet
  facet normal 7.137233e-001 6.980574e-001 -5.757609e-002
    outer loop
      vertex  -3.549541e+001 -2.509912e+001 -6.000000e-001
      vertex  -2.578621e+001 -3.502793e+001 -6.206896e-001
      vertex  -3.069579e+001 -3.152410e+001 -1.900000e+001
    endloop
  endfacet
  facet normal 3.946721e-001 2.187861e-001 8.923938e-001
    outer loop
      vertex  4.051645e+001 1.572239e+001 -5.217391e-001
      vertex  3.549542e+001 2.509912e+001 -6.000000e-001
      vertex  2.382456e+001 6.995522e+000 9.000000e+000
    endloop
  endfacet
  facet normal -2.662026e-002 -9.996256e-001 6.332980e-003
    outer loop
      vertex  5.831647e+000 4.354891e+001 -1.900000e+001
      vertex  -2.299626e+000 4.387949e+001 -1.000000e+000
      vertex  -3.505613e+000 4.379757e+001 -1.900000e+001
    endloop
  endfacet
  facet normal 0.000000e+000 0.000000e+000 -1.000000e+000
    outer loop
      vertex  -3.505613e+000 -4.379757e+001 -1.900000e+001
      vertex  -2.693152e+001 -3.477652e+001 -1.900000e+001
      vertex  5.831647e+000 -4.354892e+001 -1.900000e+001
    endloop
  endfacet
  facet normal 0.000000e+000 -5.265082e-001 8.501701e-001
    outer loop
      vertex  -2.299626e+000 -4.387948e+001 -1.000000e+000
      vertex  6.144238e+000 -4.280299e+001 -3.333333e-001
      vertex  -6.144238e+000 -4.280299e+001 -3.333333e-001
    endloop
  endfacet
  facet normal 2.674296e-001 -9.634824e-001 -1.353264e-002
    outer loop
      vertex  -2.299626e+000 4.387949e+001 -1.000000e+000
      vertex  -6.144238e+000 4.280299e+001 -3.333333e-001
      vertex  -3.505613e+000 4.379757e+001 -1.900000e+001
    endloop
  endfacet
  facet normal 4.393680e-001 1.203766e-001 -8.902051e-001
    outer loop
      vertex  -2.409587e+001 -5.241737e+000 9.000000e+000
      vertex  -4.051645e+001 -1.572239e+001 -5.217391e-001
      vertex  -4.269527e+001 -5.760240e+000 -2.500000e-001
    endloop
  endfacet
  facet normal 4.449467e-001 9.865069e-003 8.955027e-001
    outer loop
      vertex  2.409587e+001 -5.241736e+000 9.000000e+000
      vertex  4.259370e+001 7.680320e+000 -3.333333e-001
      vertex  2.382456e+001 6.995522e+000 9.000000e+000
    endloop
  endfacet
  facet normal -8.788694e-001 -4.767304e-001 1.779738e-002
    outer loop
      vertex  -3.549541e+001 -2.509912e+001 -6.000000e-001
      vertex  -4.082402e+001 -1.596255e+001 -1.900000e+001
      vertex  -3.526925e+001 -2.620297e+001 -1.900000e+001
    endloop
  endfacet
  facet normal -3.845570e-001 2.134173e-001 -8.980919e-001
    outer loop
      vertex  2.409587e+001 -5.241736e+000 9.000000e+000
      vertex  4.051644e+001 -1.572239e+001 -5.217391e-001
      vertex  3.549541e+001 -2.509912e+001 -6.000000e-001
    endloop
  endfacet
  facet normal 0.000000e+000 0.000000e+000 1.000000e+000
    outer loop
      vertex  3.233006e+001 -2.984572e+001 -1.900000e+001
      vertex  -2.693152e+001 -3.477652e+001 -1.900000e+001
      vertex  2.713257e+001 -3.455921e+001 -1.900000e+001
    endloop
  endfacet
  facet normal 8.868507e-001 -4.608321e-001 3.361019e-002
    outer loop
      vertex  3.549541e+001 -2.509912e+001 -6.000000e-001
      vertex  3.661385e+001 -2.428873e+001 -1.900000e+001
      vertex  4.092071e+001 -1.600036e+001 -1.900000e+001
    endloop
  endfacet
  facet normal -0.000000e+000 -0.000000e+000 1.000000e+000
    outer loop
      vertex  -3.069579e+001 -3.152410e+001 -1.900000e+001
      vertex  -2.693152e+001 -3.477652e+001 -1.900000e+001
      vertex  -3.526925e+001 -2.620297e+001 -1.900000e+001
    endloop
  endfacet
  facet normal 7.580400e-001 6.515284e-001 -2.976899e-002
    outer loop
      vertex  -3.549541e+001 -2.509912e+001 -6.000000e-001
      vertex  -3.069579e+001 -3.152410e+001 -1.900000e+001
      vertex  -3.526925e+001 -2.620297e+001 -1.900000e+001
    endloop
  endfacet
  facet normal -7.106419e-001 -6.946921e-001 -1.113148e-001
    outer loop
      vertex  -3.121781e+001 -2.957108e+001 0.000000e+000
      vertex  -3.549541e+001 -2.509912e+001 -6.000000e-001
      vertex  -2.578621e+001 -3.502793e+001 -6.206896e-001
    endloop
  endfacet
  facet normal 2.714571e-001 9.618537e-001 3.388978e-002
    outer loop
      vertex  5.831647e+000 4.354891e+001 -1.900000e+001
      vertex  6.144238e+000 4.280299e+001 -3.333333e-001
      vertex  1.704365e+001 4.038463e+001 -1.900000e+001
    endloop
  endfacet
  facet normal 3.875911e-001 2.112880e-001 -8.972906e-001
    outer loop
      vertex  -2.409587e+001 -5.241737e+000 9.000000e+000
      vertex  -1.740165e+001 -1.752176e+001 9.000000e+000
      vertex  -3.549541e+001 -2.509912e+001 -6.000000e-001
    endloop
  endfacet
  facet normal 3.875912e-001 -2.112881e-001 8.972906e-001
    outer loop
      vertex  1.740165e+001 -1.752176e+001 9.000000e+000
      vertex  3.549541e+001 -2.509912e+001 -6.000000e-001
      vertex  2.409587e+001 -5.241736e+000 9.000000e+000
    endloop
  endfacet
  facet normal -3.752256e-001 2.387481e-001 -8.956590e-001
    outer loop
      vertex  1.740165e+001 -1.752176e+001 9.000000e+000
      vertex  3.549541e+001 -2.509912e+001 -6.000000e-001
      vertex  3.121781e+001 -2.957108e+001 0.000000e+000
    endloop
  endfacet
  facet normal -2.232519e-001 3.851688e-001 8.954349e-001
    outer loop
      vertex  -1.740165e+001 1.752176e+001 9.000000e+000
      vertex  -1.595940e+001 4.024276e+001 -4.137931e-001
      vertex  -2.578621e+001 3.502793e+001 -6.206896e-001
    endloop
  endfacet
  facet normal -4.690419e-001 -8.822852e-001 3.965481e-002
    outer loop
      vertex  -2.578621e+001 -3.502793e+001 -6.206896e-001
      vertex  -1.708401e+001 -4.048027e+001 -1.900000e+001
      vertex  -1.595940e+001 -4.024277e+001 -4.137931e-001
    endloop
  endfacet
  facet normal 0.000000e+000 0.000000e+000 -1.000000e+000
    outer loop
      vertex  -3.505613e+000 -4.379757e+001 -1.900000e+001
      vertex  -1.044237e+001 -4.274292e+001 -1.900000e+001
      vertex  -2.693152e+001 -3.477652e+001 -1.900000e+001
    endloop
  endfacet
  facet normal 0.000000e+000 -0.000000e+000 1.000000e+000
    outer loop
      vertex  3.661385e+001 -2.428873e+001 -1.900000e+001
      vertex  4.092071e+001 -1.600036e+001 -1.900000e+001
      vertex  -2.693152e+001 -3.477652e+001 -1.900000e+001
    endloop
  endfacet
  facet normal -2.639918e-001 -3.643514e-001 8.930601e-001
    outer loop
      vertex  -3.121781e+001 -2.957108e+001 0.000000e+000
      vertex  -2.578621e+001 -3.502793e+001 -6.206896e-001
      vertex  -1.740165e+001 -1.752176e+001 9.000000e+000
    endloop
  endfacet
  facet normal -9.999118e-001 -1.310104e-002 -2.200989e-003
    outer loop
      vertex  4.375896e+001 4.599252e+000 -1.000000e+000
      vertex  4.388670e+001 -2.125870e+000 -1.900000e+001
      vertex  4.385538e+001 -2.759552e+000 -1.000000e+000
    endloop
  endfacet
  facet normal -0.000000e+000 0.000000e+000 -1.000000e+000
    outer loop
      vertex  1.740165e+001 -1.752176e+001 9.000000e+000
      vertex  6.998507e+000 -2.383473e+001 9.000000e+000
      vertex  1.979657e+001 1.487042e+001 9.000000e+000
    endloop
  endfacet
  facet normal -3.779175e-001 2.328528e-001 8.960792e-001
    outer loop
      vertex  -1.740165e+001 1.752176e+001 9.000000e+000
      vertex  -3.549541e+001 2.509912e+001 -6.000000e-001
      vertex  -2.375682e+001 7.207387e+000 9.000000e+000
    endloop
  endfacet
  facet normal 2.143908e-001 3.681016e-001 9.047308e-001
    outer loop
      vertex  1.979657e+001 1.487042e+001 9.000000e+000
      vertex  2.578621e+001 3.502793e+001 -6.206896e-001
      vertex  1.595940e+001 4.024277e+001 -4.137931e-001
    endloop
  endfacet
  facet normal -5.226404e-001 8.056275e-003 8.525152e-001
    outer loop
      vertex  -4.386853e+001 -2.508683e+000 -1.000000e+000
      vertex  -4.269527e+001 -5.760240e+000 -2.500000e-001
      vertex  -4.375896e+001 4.599252e+000 -1.000000e+000
    endloop
  endfacet
  facet normal -6.534861e-001 -7.563288e-001 3.037636e-002
    outer loop
      vertex  -2.578621e+001 -3.502793e+001 -6.206896e-001
      vertex  -3.069579e+001 -3.152410e+001 -1.900000e+001
      vertex  -2.693152e+001 -3.477652e+001 -1.900000e+001
    endloop
  endfacet
  facet normal 5.180265e-001 -8.549847e-001 2.549044e-002
    outer loop
      vertex  4.599252e+000 -4.375896e+001 -1.000000e+000
      vertex  5.831647e+000 -4.354892e+001 -1.900000e+001
      vertex  6.144238e+000 -4.280299e+001 -3.333333e-001
    endloop
  endfacet
  facet normal -9.351782e-001 3.541704e-001 -2.251025e-003
    outer loop
      vertex  -4.368873e+001 4.670285e+000 -1.900000e+001
      vertex  -4.375896e+001 4.599252e+000 -1.000000e+000
      vertex  -4.259370e+001 7.680321e+000 -3.333333e-001
    endloop
  endfacet
  facet normal -2.232520e-001 3.851687e-001 -8.954349e-001
    outer loop
      vertex  1.740165e+001 -1.752176e+001 9.000000e+000
      vertex  2.578621e+001 -3.502793e+001 -6.206896e-001
      vertex  1.595940e+001 -4.024277e+001 -4.137931e-001
    endloop
  endfacet
  facet normal 0.000000e+000 0.000000e+000 -1.000000e+000
    outer loop
      vertex  -1.044237e+001 4.274292e+001 -1.900000e+001
      vertex  -2.693152e+001 -3.477652e+001 -1.900000e+001
      vertex  -1.708401e+001 4.048027e+001 -1.900000e+001
    endloop
  endfacet
  facet normal 0.000000e+000 0.000000e+000 -1.000000e+000
    outer loop
      vertex  1.704365e+001 -4.038463e+001 -1.900000e+001
      vertex  -2.693152e+001 -3.477652e+001 -1.900000e+001
      vertex  2.713257e+001 -3.455921e+001 -1.900000e+001
    endloop
  endfacet
  facet normal -0.000000e+000 0.000000e+000 1.000000e+000
    outer loop
      vertex  -2.409587e+001 -5.241737e+000 9.000000e+000
      vertex  -1.740165e+001 -1.752176e+001 9.000000e+000
      vertex  1.979657e+001 1.487042e+001 9.000000e+000
    endloop
  endfacet
  facet normal 2.531798e-001 3.543980e-001 9.001678e-001
    outer loop
      vertex  3.121781e+001 2.957108e+001 0.000000e+000
      vertex  2.578621e+001 3.502793e+001 -6.206896e-001
      vertex  1.979657e+001 1.487042e+001 9.000000e+000
    endloop
  endfacet
  facet normal 4.999840e-001 -8.659125e-001 1.454303e-002
    outer loop
      vertex  2.578621e+001 -3.502793e+001 -6.206896e-001
      vertex  1.704365e+001 -4.038463e+001 -1.900000e+001
      vertex  2.713257e+001 -3.455921e+001 -1.900000e+001
    endloop
  endfacet
  facet normal 8.868507e-001 4.608321e-001 3.360996e-002
    outer loop
      vertex  4.092071e+001 1.600036e+001 -1.900000e+001
      vertex  3.661385e+001 2.428873e+001 -1.900000e+001
      vertex  3.549542e+001 2.509912e+001 -6.000000e-001
    endloop
  endfacet
  facet normal 7.918128e-001 6.103943e-001 2.124598e-002
    outer loop
      vertex  3.661385e+001 2.428873e+001 -1.900000e+001
      vertex  3.233006e+001 2.984572e+001 -1.900000e+001
      vertex  3.549542e+001 2.509912e+001 -6.000000e-001
    endloop
  endfacet
  facet normal 7.918128e-001 -6.103943e-001 2.124621e-002
    outer loop
      vertex  3.549541e+001 -2.509912e+001 -6.000000e-001
      vertex  3.233006e+001 -2.984572e+001 -1.900000e+001
      vertex  3.661385e+001 -2.428873e+001 -1.900000e+001
    endloop
  endfacet
  facet normal 0.000000e+000 0.000000e+000 -1.000000e+000
    outer loop
      vertex  -1.740165e+001 1.752176e+001 9.000000e+000
      vertex  -5.332197e+000 2.411217e+001 9.000000e+000
      vertex  1.979657e+001 1.487042e+001 9.000000e+000
    endloop
  endfacet
  facet normal -1.018501e-002 5.830087e-001 -8.124021e-001
    outer loop
      vertex  -2.299626e+000 -4.387948e+001 -1.000000e+000
      vertex  6.144238e+000 -4.280299e+001 -3.333333e-001
      vertex  4.599252e+000 -4.375896e+001 -1.000000e+000
    endloop
  endfacet
  facet normal -6.714666e-001 7.404149e-001 -3.030539e-002
    outer loop
      vertex  2.578621e+001 -3.502793e+001 -6.206896e-001
      vertex  3.233006e+001 -2.984572e+001 -1.900000e+001
      vertex  2.713257e+001 -3.455921e+001 -1.900000e+001
    endloop
  endfacet
  facet normal 2.335095e-001 -3.848001e-001 8.929738e-001
    outer loop
      vertex  1.740165e+001 -1.752176e+001 9.000000e+000
      vertex  6.998507e+000 -2.383473e+001 9.000000e+000
      vertex  1.595940e+001 -4.024277e+001 -4.137931e-001
    endloop
  endfacet
  facet normal -2.639919e-001 3.643513e-001 -8.930601e-001
    outer loop
      vertex  1.740165e+001 -1.752176e+001 9.000000e+000
      vertex  3.121781e+001 -2.957108e+001 0.000000e+000
      vertex  2.578621e+001 -3.502793e+001 -6.206896e-001
    endloop
  endfacet
  facet normal 1.746611e-002 -9.997926e-001 -1.047090e-002
    outer loop
      vertex  -2.299626e+000 -4.387948e+001 -1.000000e+000
      vertex  5.831647e+000 -4.354892e+001 -1.900000e+001
      vertex  4.599252e+000 -4.375896e+001 -1.000000e+000
    endloop
  endfacet
  facet normal -2.714574e-001 9.618536e-001 -3.388996e-002
    outer loop
      vertex  1.704365e+001 -4.038463e+001 -1.900000e+001
      vertex  5.831647e+000 -4.354892e+001 -1.900000e+001
      vertex  6.144238e+000 -4.280299e+001 -3.333333e-001
    endloop
  endfacet
  facet normal -0.000000e+000 0.000000e+000 -1.000000e+000
    outer loop
      vertex  1.704365e+001 -4.038463e+001 -1.900000e+001
      vertex  5.831647e+000 -4.354892e+001 -1.900000e+001
      vertex  -2.693152e+001 -3.477652e+001 -1.900000e+001
    endloop
  endfacet
  facet normal -0.000000e+000 0.000000e+000 -1.000000e+000
    outer loop
      vertex  4.388670e+001 -2.125870e+000 -1.900000e+001
      vertex  -2.693152e+001 -3.477652e+001 -1.900000e+001
      vertex  4.375073e+001 4.676913e+000 -1.900000e+001
    endloop
  endfacet
  facet normal 0.000000e+000 0.000000e+000 1.000000e+000
    outer loop
      vertex  -2.409587e+001 -5.241737e+000 9.000000e+000
      vertex  1.979657e+001 1.487042e+001 9.000000e+000
      vertex  -2.375682e+001 7.207387e+000 9.000000e+000
    endloop
  endfacet
  facet normal 9.670767e-001 2.508052e-001 4.312029e-002
    outer loop
      vertex  4.259370e+001 7.680320e+000 -3.333333e-001
      vertex  4.300575e+001 9.300835e+000 -1.900000e+001
      vertex  4.051645e+001 1.572239e+001 -5.217391e-001
    endloop
  endfacet
  facet normal 6.312613e-001 -7.752905e-001 -2.082452e-002
    outer loop
      vertex  -2.578621e+001 3.502793e+001 -6.206896e-001
      vertex  -3.069579e+001 3.152410e+001 -1.900000e+001
      vertex  -2.525480e+001 3.595429e+001 -1.900000e+001
    endloop
  endfacet
  facet normal -4.393679e-001 1.203771e-001 -8.902051e-001
    outer loop
      vertex  2.409587e+001 -5.241736e+000 9.000000e+000
      vertex  4.269528e+001 -5.760241e+000 -2.500000e-001
      vertex  4.051644e+001 -1.572239e+001 -5.217391e-001
    endloop
  endfacet
  facet normal -4.690462e-001 8.825151e-001 -3.409820e-002
    outer loop
      vertex  2.578621e+001 -3.502793e+001 -6.206896e-001
      vertex  1.704365e+001 -4.038463e+001 -1.900000e+001
      vertex  1.595940e+001 -4.024277e+001 -4.137931e-001
    endloop
  endfacet
  facet normal -4.843316e-001 8.743677e-001 3.006650e-002
    outer loop
      vertex  -2.578621e+001 3.502793e+001 -6.206896e-001
      vertex  -1.708401e+001 4.048027e+001 -1.900000e+001
      vertex  -2.525480e+001 3.595429e+001 -1.900000e+001
    endloop
  endfacet
  facet normal 4.690465e-001 8.825150e-001 3.409824e-002
    outer loop
      vertex  1.595940e+001 4.024277e+001 -4.137931e-001
      vertex  2.578621e+001 3.502793e+001 -6.206896e-001
      vertex  1.704365e+001 4.038463e+001 -1.900000e+001
    endloop
  endfacet
  facet normal -0.000000e+000 0.000000e+000 1.000000e+000
    outer loop
      vertex  -4.368873e+001 4.670285e+000 -1.900000e+001
      vertex  -2.693152e+001 -3.477652e+001 -1.900000e+001
      vertex  -4.082402e+001 1.596255e+001 -1.900000e+001
    endloop
  endfacet
  facet normal 0.000000e+000 -0.000000e+000 1.000000e+000
    outer loop
      vertex  4.092071e+001 -1.600036e+001 -1.900000e+001
      vertex  4.300575e+001 -9.300835e+000 -1.900000e+001
      vertex  -2.693152e+001 -3.477652e+001 -1.900000e+001
    endloop
  endfacet
  facet normal 1.018533e-002 5.830091e-001 8.124018e-001
    outer loop
      vertex  4.599252e+000 4.375896e+001 -1.000000e+000
      vertex  -2.299626e+000 4.387949e+001 -1.000000e+000
      vertex  6.144238e+000 4.280299e+001 -3.333333e-001
    endloop
  endfacet
  facet normal 0.000000e+000 -0.000000e+000 -1.000000e+000
    outer loop
      vertex  -3.526926e+001 2.620297e+001 -1.900000e+001
      vertex  -2.693152e+001 -3.477652e+001 -1.900000e+001
      vertex  -4.082402e+001 1.596255e+001 -1.900000e+001
    endloop
  endfacet
  facet normal 0.000000e+000 0.000000e+000 1.000000e+000
    outer loop
      vertex  4.092071e+001 1.600036e+001 -1.900000e+001
      vertex  3.661385e+001 2.428873e+001 -1.900000e+001
      vertex  -2.693152e+001 -3.477652e+001 -1.900000e+001
    endloop
  endfacet
  facet normal 8.813036e-001 4.720922e-001 -2.080541e-002
    outer loop
      vertex  -3.549541e+001 -2.509912e+001 -6.000000e-001
      vertex  -4.082402e+001 -1.596255e+001 -1.900000e+001
      vertex  -4.051645e+001 -1.572239e+001 -5.217391e-001
    endloop
  endfacet
  facet normal 0.000000e+000 0.000000e+000 -1.000000e+000
    outer loop
      vertex  1.979657e+001 1.487042e+001 9.000000e+000
      vertex  2.382456e+001 6.995522e+000 9.000000e+000
      vertex  2.409587e+001 -5.241736e+000 9.000000e+000
    endloop
  endfacet
  facet normal -0.000000e+000 0.000000e+000 -1.000000e+000
    outer loop
      vertex  3.233006e+001 -2.984572e+001 -1.900000e+001
      vertex  -2.693152e+001 -3.477652e+001 -1.900000e+001
      vertex  3.661385e+001 -2.428873e+001 -1.900000e+001
    endloop
  endfacet
  facet normal 2.525067e-001 -9.673424e-001 2.211358e-002
    outer loop
      vertex  1.704365e+001 -4.038463e+001 -1.900000e+001
      vertex  1.595940e+001 -4.024277e+001 -4.137931e-001
      vertex  6.144238e+000 -4.280299e+001 -3.333333e-001
    endloop
  endfacet
  facet normal 9.998003e-001 1.998301e-002 -3.710322e-004
    outer loop
      vertex  4.375896e+001 4.599252e+000 -1.000000e+000
      vertex  4.388670e+001 -2.125870e+000 -1.900000e+001
      vertex  4.375073e+001 4.676913e+000 -1.900000e+001
    endloop
  endfacet
  facet normal 0.000000e+000 0.000000e+000 1.000000e+000
    outer loop
      vertex  -1.740165e+001 1.752176e+001 9.000000e+000
      vertex  -2.375682e+001 7.207387e+000 9.000000e+000
      vertex  1.979657e+001 1.487042e+001 9.000000e+000
    endloop
  endfacet
  facet normal -4.373354e-001 -1.337972e-001 -8.892896e-001
    outer loop
      vertex  4.259370e+001 7.680320e+000 -3.333333e-001
      vertex  2.382456e+001 6.995522e+000 9.000000e+000
      vertex  4.051645e+001 1.572239e+001 -5.217391e-001
    endloop
  endfacet
  facet normal -4.454800e-001 8.917019e-003 8.952475e-001
    outer loop
      vertex  -2.409587e+001 -5.241737e+000 9.000000e+000
      vertex  -4.259370e+001 7.680321e+000 -3.333333e-001
      vertex  -4.269527e+001 -5.760240e+000 -2.500000e-001
    endloop
  endfacet
  facet normal 1.218539e-001 -4.391795e-001 -8.900972e-001
    outer loop
      vertex  -5.332197e+000 2.411217e+001 9.000000e+000
      vertex  -1.595940e+001 4.024276e+001 -4.137931e-001
      vertex  -6.144238e+000 4.280299e+001 -3.333333e-001
    endloop
  endfacet
  facet normal 0.000000e+000 4.467511e-001 -8.946583e-001
    outer loop
      vertex  -5.332197e+000 -2.411217e+001 9.000000e+000
      vertex  6.144238e+000 -4.280299e+001 -3.333333e-001
      vertex  -6.144238e+000 -4.280299e+001 -3.333333e-001
    endloop
  endfacet
  facet normal -3.752256e-001 -2.387481e-001 8.956590e-001
    outer loop
      vertex  -3.121781e+001 -2.957108e+001 0.000000e+000
      vertex  -1.740165e+001 -1.752176e+001 9.000000e+000
      vertex  -3.549541e+001 -2.509912e+001 -6.000000e-001
    endloop
  endfacet
  facet normal 0.000000e+000 0.000000e+000 -1.000000e+000
    outer loop
      vertex  -4.368873e+001 4.670285e+000 -1.900000e+001
      vertex  -2.693152e+001 -3.477652e+001 -1.900000e+001
      vertex  -4.368873e+001 -4.670285e+000 -1.900000e+001
    endloop
  endfacet
  facet normal -2.661985e-002 9.996256e-001 6.332741e-003
    outer loop
      vertex  -2.299626e+000 -4.387948e+001 -1.000000e+000
      vertex  5.831647e+000 -4.354892e+001 -1.900000e+001
      vertex  -3.505613e+000 -4.379757e+001 -1.900000e+001
    endloop
  endfacet
  facet normal 0.000000e+000 -0.000000e+000 -1.000000e+000
    outer loop
      vertex  1.704365e+001 4.038463e+001 -1.900000e+001
      vertex  2.713257e+001 3.455921e+001 -1.900000e+001
      vertex  -2.693152e+001 -3.477652e+001 -1.900000e+001
    endloop
  endfacet
  facet normal 2.639919e-001 -3.643513e-001 -8.930601e-001
    outer loop
      vertex  -1.740165e+001 1.752176e+001 9.000000e+000
      vertex  -3.121781e+001 2.957108e+001 0.000000e+000
      vertex  -2.578621e+001 3.502793e+001 -6.206896e-001
    endloop
  endfacet
  facet normal 2.674279e-001 9.634829e-001 -1.353272e-002
    outer loop
      vertex  -2.299626e+000 -4.387948e+001 -1.000000e+000
      vertex  -3.505613e+000 -4.379757e+001 -1.900000e+001
      vertex  -6.144238e+000 -4.280299e+001 -3.333333e-001
    endloop
  endfacet
  facet normal -1.227324e-001 4.426046e-001 -8.882781e-001
    outer loop
      vertex  6.998507e+000 -2.383473e+001 9.000000e+000
      vertex  1.595940e+001 -4.024277e+001 -4.137931e-001
      vertex  6.144238e+000 -4.280299e+001 -3.333333e-001
    endloop
  endfacet
  facet normal 0.000000e+000 0.000000e+000 1.000000e+000
    outer loop
      vertex  5.831647e+000 4.354891e+001 -1.900000e+001
      vertex  -2.693152e+001 -3.477652e+001 -1.900000e+001
      vertex  1.704365e+001 4.038463e+001 -1.900000e+001
    endloop
  endfacet
  facet normal 9.691522e-001 -2.458619e-001 -1.720691e-002
    outer loop
      vertex  -4.368873e+001 4.670285e+000 -1.900000e+001
      vertex  -4.082402e+001 1.596255e+001 -1.900000e+001
      vertex  -4.259370e+001 7.680321e+000 -3.333333e-001
    endloop
  endfacet
  facet normal 9.999501e-001 4.083805e-007 9.988237e-003
    outer loop
      vertex  -4.368873e+001 4.670285e+000 -1.900000e+001
      vertex  -4.386853e+001 -2.508683e+000 -1.000000e+000
      vertex  -4.368873e+001 -4.670285e+000 -1.900000e+001
    endloop
  endfacet
  facet normal -3.223154e-001 9.461050e-001 3.159257e-002
    outer loop
      vertex  -1.595940e+001 4.024276e+001 -4.137931e-001
      vertex  -1.044237e+001 4.274292e+001 -1.900000e+001
      vertex  -1.708401e+001 4.048027e+001 -1.900000e+001
    endloop
  endfacet
  facet normal -0.000000e+000 0.000000e+000 -1.000000e+000
    outer loop
      vertex  3.233006e+001 2.984572e+001 -1.900000e+001
      vertex  -2.693152e+001 -3.477652e+001 -1.900000e+001
      vertex  2.713257e+001 3.455921e+001 -1.900000e+001
    endloop
  endfacet
  facet normal 9.686306e-001 2.457293e-001 -3.703786e-002
    outer loop
      vertex  -4.082402e+001 -1.596255e+001 -1.900000e+001
      vertex  -4.368873e+001 -4.670285e+000 -1.900000e+001
      vertex  -4.269527e+001 -5.760240e+000 -2.500000e-001
    endloop
  endfacet
  facet normal -5.147976e-001 -9.205610e-003 -8.572623e-001
    outer loop
      vertex  4.375896e+001 4.599252e+000 -1.000000e+000
      vertex  4.269528e+001 -5.760241e+000 -2.500000e-001
      vertex  4.259370e+001 7.680320e+000 -3.333333e-001
    endloop
  endfacet
  facet normal -6.714666e-001 -7.404149e-001 -3.030555e-002
    outer loop
      vertex  3.233006e+001 2.984572e+001 -1.900000e+001
      vertex  2.578621e+001 3.502793e+001 -6.206896e-001
      vertex  2.713257e+001 3.455921e+001 -1.900000e+001
    endloop
  endfacet
  facet normal -7.137353e-001 6.980682e-001 -5.729493e-002
    outer loop
      vertex  2.578621e+001 -3.502793e+001 -6.206896e-001
      vertex  3.549541e+001 -2.509912e+001 -6.000000e-001
      vertex  3.233006e+001 -2.984572e+001 -1.900000e+001
    endloop
  endfacet
  facet normal 0.000000e+000 -0.000000e+000 -1.000000e+000
    outer loop
      vertex  -3.069579e+001 3.152410e+001 -1.900000e+001
      vertex  -2.693152e+001 -3.477652e+001 -1.900000e+001
      vertex  -3.526926e+001 2.620297e+001 -1.900000e+001
    endloop
  endfacet
  facet normal -8.811685e-001 -4.720659e-001 -2.637942e-002
    outer loop
      vertex  4.051645e+001 1.572239e+001 -5.217391e-001
      vertex  3.549542e+001 2.509912e+001 -6.000000e-001
      vertex  4.092071e+001 1.600036e+001 -1.900000e+001
    endloop
  endfacet
  facet normal -0.000000e+000 0.000000e+000 1.000000e+000
    outer loop
      vertex  -1.044237e+001 4.274292e+001 -1.900000e+001
      vertex  -2.693152e+001 -3.477652e+001 -1.900000e+001
      vertex  -3.505613e+000 4.379757e+001 -1.900000e+001
    endloop
  endfacet
  facet normal -1.218537e-001 -4.391795e-001 8.900972e-001
    outer loop
      vertex  -5.332197e+000 -2.411217e+001 9.000000e+000
      vertex  -1.595940e+001 -4.024277e+001 -4.137931e-001
      vertex  -6.144238e+000 -4.280299e+001 -3.333333e-001
    endloop
  endfacet
  facet normal -9.866434e-001 -1.589623e-001 -3.557903e-002
    outer loop
      vertex  4.375073e+001 4.676913e+000 -1.900000e+001
      vertex  4.259370e+001 7.680320e+000 -3.333333e-001
      vertex  4.300575e+001 9.300835e+000 -1.900000e+001
    endloop
  endfacet
  facet normal 4.077288e-001 2.085520e-001 8.889676e-001
    outer loop
      vertex  1.979657e+001 1.487042e+001 9.000000e+000
      vertex  2.382456e+001 6.995522e+000 9.000000e+000
      vertex  3.549542e+001 2.509912e+001 -6.000000e-001
    endloop
  endfacet
  facet normal 3.752256e-001 -2.387481e-001 -8.956590e-001
    outer loop
      vertex  -1.740165e+001 1.752176e+001 9.000000e+000
      vertex  -3.549541e+001 2.509912e+001 -6.000000e-001
      vertex  -3.121781e+001 2.957108e+001 0.000000e+000
    endloop
  endfacet
  facet normal 1.227324e-001 4.426047e-001 8.882781e-001
    outer loop
      vertex  6.998507e+000 2.383473e+001 9.000000e+000
      vertex  1.595940e+001 4.024277e+001 -4.137931e-001
      vertex  6.144238e+000 4.280299e+001 -3.333333e-001
    endloop
  endfacet
  facet normal 2.105345e-001 3.855650e-001 -8.983400e-001
    outer loop
      vertex  -1.740165e+001 -1.752176e+001 9.000000e+000
      vertex  -5.332197e+000 -2.411217e+001 9.000000e+000
      vertex  -1.595940e+001 -4.024277e+001 -4.137931e-001
    endloop
  endfacet
  facet normal 2.525067e-001 9.673424e-001 2.211360e-002
    outer loop
      vertex  1.595940e+001 4.024277e+001 -4.137931e-001
      vertex  1.704365e+001 4.038463e+001 -1.900000e+001
      vertex  6.144238e+000 4.280299e+001 -3.333333e-001
    endloop
  endfacet
  facet normal 7.137234e-001 -6.980572e-001 -5.757601e-002
    outer loop
      vertex  -2.578621e+001 3.502793e+001 -6.206896e-001
      vertex  -3.549541e+001 2.509912e+001 -6.000000e-001
      vertex  -3.069579e+001 3.152410e+001 -1.900000e+001
    endloop
  endfacet
  facet normal 7.106419e-001 6.946926e-001 -1.113112e-001
    outer loop
      vertex  3.121781e+001 2.957108e+001 0.000000e+000
      vertex  3.549542e+001 2.509912e+001 -6.000000e-001
      vertex  2.578621e+001 3.502793e+001 -6.206896e-001
    endloop
  endfacet
endsolid vcg
