solid ascii
  facet normal 4.629059e-014 6.367899e-014 -1.000000e+000
    outer loop
      vertex   2.791101e+001 4.825508e+001 5.595524e-014
      vertex   3.112140e+001 4.504263e+001 0.000000e+000
      vertex   2.636532e+001 4.850000e+001 0.000000e+000
    endloop
  endfacet
  facet normal 1.810031e-014 3.550688e-014 -1.000000e+000
    outer loop
      vertex   2.791101e+001 4.825508e+001 5.595524e-014
      vertex   2.930529e+001 4.754433e+001 5.595524e-014
      vertex   3.112140e+001 4.504263e+001 0.000000e+000
    endloop
  endfacet
  facet normal 8.180914e-014 8.175640e-014 -1.000000e+000
    outer loop
      vertex   3.112140e+001 4.504263e+001 0.000000e+000
      vertex   2.930529e+001 4.754433e+001 5.595524e-014
      vertex   3.041154e+001 4.643736e+001 5.595524e-014
    endloop
  endfacet
  facet normal -0.000000e+000 -0.000000e+000 -1.000000e+000
    outer loop
      vertex   3.112140e+001 4.504263e+001 0.000000e+000
      vertex   4.137789e+001 1.342089e+001 0.000000e+000
      vertex   2.636532e+001 4.850000e+001 0.000000e+000
    endloop
  endfacet
  facet normal -0.000000e+000 -0.000000e+000 -1.000000e+000
    outer loop
      vertex   2.636532e+001 4.850000e+001 0.000000e+000
      vertex   4.137789e+001 1.342089e+001 0.000000e+000
      vertex   -4.137789e+001 1.342089e+001 0.000000e+000
    endloop
  endfacet
  facet normal -0.000000e+000 0.000000e+000 -1.000000e+000
    outer loop
      vertex   -2.636532e+001 4.850000e+001 0.000000e+000
      vertex   -4.137789e+001 1.342089e+001 0.000000e+000
      vertex   -3.112140e+001 4.504263e+001 0.000000e+000
    endloop
  endfacet
  facet normal -1.810031e-014 3.550688e-014 -1.000000e+000
    outer loop
      vertex   -2.791101e+001 4.825508e+001 5.595524e-014
      vertex   -3.112140e+001 4.504263e+001 0.000000e+000
      vertex   -2.930529e+001 4.754433e+001 5.595524e-014
    endloop
  endfacet
  facet normal -4.629059e-014 6.367899e-014 -1.000000e+000
    outer loop
      vertex   -2.791101e+001 4.825508e+001 5.595524e-014
      vertex   -2.636532e+001 4.850000e+001 0.000000e+000
      vertex   -3.112140e+001 4.504263e+001 0.000000e+000
    endloop
  endfacet
  facet normal -0.000000e+000 0.000000e+000 -1.000000e+000
    outer loop
      vertex   4.255253e+001 9.029524e+000 0.000000e+000
      vertex   -4.137789e+001 -1.342089e+001 0.000000e+000
      vertex   4.137789e+001 1.342089e+001 0.000000e+000
    endloop
  endfacet
  facet normal 0.000000e+000 -0.000000e+000 -1.000000e+000
    outer loop
      vertex   4.255253e+001 9.029524e+000 0.000000e+000
      vertex   4.326248e+001 4.539548e+000 0.000000e+000
      vertex   -4.137789e+001 -1.342089e+001 0.000000e+000
    endloop
  endfacet
  facet normal 0.000000e+000 0.000000e+000 -1.000000e+000
    outer loop
      vertex   -4.137789e+001 -1.342089e+001 0.000000e+000
      vertex   4.326248e+001 4.539548e+000 0.000000e+000
      vertex   4.350000e+001 -3.552714e-015 0.000000e+000
    endloop
  endfacet
  facet normal -0.000000e+000 0.000000e+000 -1.000000e+000
    outer loop
      vertex   4.326248e+001 -4.539548e+000 0.000000e+000
      vertex   -4.137789e+001 -1.342089e+001 0.000000e+000
      vertex   4.350000e+001 -3.552714e-015 0.000000e+000
    endloop
  endfacet
  facet normal 0.000000e+000 0.000000e+000 -1.000000e+000
    outer loop
      vertex   4.326248e+001 -4.539548e+000 0.000000e+000
      vertex   4.255253e+001 -9.029524e+000 0.000000e+000
      vertex   -4.137789e+001 -1.342089e+001 0.000000e+000
    endloop
  endfacet
  facet normal 0.000000e+000 -0.000000e+000 -1.000000e+000
    outer loop
      vertex   -4.137789e+001 -1.342089e+001 0.000000e+000
      vertex   4.255253e+001 -9.029524e+000 0.000000e+000
      vertex   4.137789e+001 -1.342089e+001 0.000000e+000
    endloop
  endfacet
  facet normal 0.000000e+000 -0.000000e+000 -1.000000e+000
    outer loop
      vertex   -2.636532e+001 -4.850000e+001 0.000000e+000
      vertex   4.137789e+001 -1.342089e+001 0.000000e+000
      vertex   2.636532e+001 -4.850000e+001 0.000000e+000
    endloop
  endfacet
  facet normal 0.000000e+000 0.000000e+000 -1.000000e+000
    outer loop
      vertex   -2.636532e+001 -4.850000e+001 0.000000e+000
      vertex   -4.137789e+001 -1.342089e+001 0.000000e+000
      vertex   4.137789e+001 -1.342089e+001 0.000000e+000
    endloop
  endfacet
  facet normal 0.000000e+000 0.000000e+000 -1.000000e+000
    outer loop
      vertex   -2.636532e+001 -4.850000e+001 0.000000e+000
      vertex   -3.112140e+001 -4.504263e+001 0.000000e+000
      vertex   -4.137789e+001 -1.342089e+001 0.000000e+000
    endloop
  endfacet
  facet normal -4.629059e-014 -6.367899e-014 -1.000000e+000
    outer loop
      vertex   -2.636532e+001 -4.850000e+001 0.000000e+000
      vertex   -2.791101e+001 -4.825508e+001 5.595524e-014
      vertex   -3.112140e+001 -4.504263e+001 0.000000e+000
    endloop
  endfacet
  facet normal -1.810031e-014 -3.550688e-014 -1.000000e+000
    outer loop
      vertex   -3.112140e+001 -4.504263e+001 0.000000e+000
      vertex   -2.791101e+001 -4.825508e+001 5.595524e-014
      vertex   -2.930529e+001 -4.754433e+001 5.595524e-014
    endloop
  endfacet
  facet normal -8.180914e-014 -8.175640e-014 -1.000000e+000
    outer loop
      vertex   -3.041154e+001 -4.643736e+001 5.595524e-014
      vertex   -3.112140e+001 -4.504263e+001 0.000000e+000
      vertex   -2.930529e+001 -4.754433e+001 5.595524e-014
    endloop
  endfacet
  facet normal 0.000000e+000 0.000000e+000 -1.000000e+000
    outer loop
      vertex   4.137789e+001 -1.342089e+001 0.000000e+000
      vertex   3.112140e+001 -4.504263e+001 0.000000e+000
      vertex   2.636532e+001 -4.850000e+001 0.000000e+000
    endloop
  endfacet
  facet normal 4.629059e-014 -6.367899e-014 -1.000000e+000
    outer loop
      vertex   2.636532e+001 -4.850000e+001 0.000000e+000
      vertex   3.112140e+001 -4.504263e+001 0.000000e+000
      vertex   2.791101e+001 -4.825508e+001 5.595524e-014
    endloop
  endfacet
  facet normal 1.810031e-014 -3.550688e-014 -1.000000e+000
    outer loop
      vertex   2.791101e+001 -4.825508e+001 5.595524e-014
      vertex   3.112140e+001 -4.504263e+001 0.000000e+000
      vertex   2.930529e+001 -4.754433e+001 5.595524e-014
    endloop
  endfacet
  facet normal 8.180914e-014 -8.175640e-014 -1.000000e+000
    outer loop
      vertex   2.930529e+001 -4.754433e+001 5.595524e-014
      vertex   3.112140e+001 -4.504263e+001 0.000000e+000
      vertex   3.041154e+001 -4.643736e+001 5.595524e-014
    endloop
  endfacet
  facet normal 0.000000e+000 0.000000e+000 -1.000000e+000
    outer loop
      vertex   -4.137789e+001 -1.342089e+001 0.000000e+000
      vertex   -4.255253e+001 -9.029524e+000 0.000000e+000
      vertex   4.137789e+001 1.342089e+001 0.000000e+000
    endloop
  endfacet
  facet normal -0.000000e+000 0.000000e+000 -1.000000e+000
    outer loop
      vertex   4.137789e+001 1.342089e+001 0.000000e+000
      vertex   -4.255253e+001 -9.029524e+000 0.000000e+000
      vertex   -4.326248e+001 -4.539548e+000 0.000000e+000
    endloop
  endfacet
  facet normal 0.000000e+000 -0.000000e+000 -1.000000e+000
    outer loop
      vertex   -4.350000e+001 3.552714e-015 0.000000e+000
      vertex   4.137789e+001 1.342089e+001 0.000000e+000
      vertex   -4.326248e+001 -4.539548e+000 0.000000e+000
    endloop
  endfacet
  facet normal 0.000000e+000 0.000000e+000 -1.000000e+000
    outer loop
      vertex   -4.350000e+001 3.552714e-015 0.000000e+000
      vertex   -4.326248e+001 4.539548e+000 0.000000e+000
      vertex   4.137789e+001 1.342089e+001 0.000000e+000
    endloop
  endfacet
  facet normal -0.000000e+000 0.000000e+000 -1.000000e+000
    outer loop
      vertex   4.137789e+001 1.342089e+001 0.000000e+000
      vertex   -4.326248e+001 4.539548e+000 0.000000e+000
      vertex   -4.255253e+001 9.029524e+000 0.000000e+000
    endloop
  endfacet
  facet normal 0.000000e+000 -0.000000e+000 -1.000000e+000
    outer loop
      vertex   -4.137789e+001 1.342089e+001 0.000000e+000
      vertex   4.137789e+001 1.342089e+001 0.000000e+000
      vertex   -4.255253e+001 9.029524e+000 0.000000e+000
    endloop
  endfacet
  facet normal -0.000000e+000 0.000000e+000 -1.000000e+000
    outer loop
      vertex   2.636532e+001 4.850000e+001 0.000000e+000
      vertex   -4.137789e+001 1.342089e+001 0.000000e+000
      vertex   -2.636532e+001 4.850000e+001 0.000000e+000
    endloop
  endfacet
  facet normal -8.180914e-014 8.175640e-014 -1.000000e+000
    outer loop
      vertex   -3.112140e+001 4.504263e+001 0.000000e+000
      vertex   -3.041154e+001 4.643736e+001 5.595524e-014
      vertex   -2.930529e+001 4.754433e+001 5.595524e-014
    endloop
  endfacet
  facet normal 8.912114e-001 4.535882e-001 0.000000e+000
    outer loop
      vertex   3.112140e+001 4.504263e+001 6.000000e+000
      vertex   3.112140e+001 4.504263e+001 0.000000e+000
      vertex   3.041154e+001 4.643736e+001 6.000000e+000
    endloop
  endfacet
  facet normal 8.912114e-001 4.535882e-001 0.000000e+000
    outer loop
      vertex   3.041154e+001 4.643736e+001 6.000000e+000
      vertex   3.112140e+001 4.504263e+001 0.000000e+000
      vertex   3.041154e+001 4.643736e+001 5.595524e-014
    endloop
  endfacet
  facet normal 7.073347e-001 7.068787e-001 0.000000e+000
    outer loop
      vertex   2.930529e+001 4.754433e+001 6.000000e+000
      vertex   3.041154e+001 4.643736e+001 5.595524e-014
      vertex   2.930529e+001 4.754433e+001 5.595524e-014
    endloop
  endfacet
  facet normal 4.541629e-001 8.909187e-001 0.000000e+000
    outer loop
      vertex   2.791101e+001 4.825508e+001 6.000000e+000
      vertex   2.930529e+001 4.754433e+001 5.595524e-014
      vertex   2.791101e+001 4.825508e+001 5.595524e-014
    endloop
  endfacet
  facet normal 1.564982e-001 9.876783e-001 0.000000e+000
    outer loop
      vertex   2.636532e+001 4.850000e+001 6.000000e+000
      vertex   2.791101e+001 4.825508e+001 5.595524e-014
      vertex   2.636532e+001 4.850000e+001 0.000000e+000
    endloop
  endfacet
  facet normal 1.564982e-001 9.876783e-001 0.000000e+000
    outer loop
      vertex   2.636532e+001 4.850000e+001 6.000000e+000
      vertex   2.791101e+001 4.825508e+001 6.000000e+000
      vertex   2.791101e+001 4.825508e+001 5.595524e-014
    endloop
  endfacet
  facet normal 7.073347e-001 7.068787e-001 0.000000e+000
    outer loop
      vertex   3.041154e+001 4.643736e+001 6.000000e+000
      vertex   3.041154e+001 4.643736e+001 5.595524e-014
      vertex   2.930529e+001 4.754433e+001 6.000000e+000
    endloop
  endfacet
  facet normal 4.541629e-001 8.909187e-001 0.000000e+000
    outer loop
      vertex   2.930529e+001 4.754433e+001 6.000000e+000
      vertex   2.930529e+001 4.754433e+001 5.595524e-014
      vertex   2.791101e+001 4.825508e+001 6.000000e+000
    endloop
  endfacet
  facet normal 9.512158e-001 3.085263e-001 -0.000000e+000
    outer loop
      vertex   3.112140e+001 4.504263e+001 0.000000e+000
      vertex   3.112140e+001 4.504263e+001 6.000000e+000
      vertex   4.137789e+001 1.342089e+001 0.000000e+000
    endloop
  endfacet
  facet normal 9.512158e-001 3.085263e-001 0.000000e+000
    outer loop
      vertex   4.137789e+001 1.342089e+001 0.000000e+000
      vertex   3.112140e+001 4.504263e+001 6.000000e+000
      vertex   4.137789e+001 1.342089e+001 6.000000e+000
    endloop
  endfacet
  facet normal 9.660370e-001 -2.584038e-001 0.000000e+000
    outer loop
      vertex   4.137789e+001 -1.342089e+001 0.000000e+000
      vertex   4.255253e+001 -9.029524e+000 0.000000e+000
      vertex   4.137789e+001 -1.342089e+001 6.000000e+000
    endloop
  endfacet
  facet normal 9.660370e-001 -2.584038e-001 0.000000e+000
    outer loop
      vertex   4.137789e+001 -1.342089e+001 6.000000e+000
      vertex   4.255253e+001 -9.029524e+000 0.000000e+000
      vertex   4.255253e+001 -9.029524e+000 6.000000e+000
    endloop
  endfacet
  facet normal 9.877287e-001 -1.561797e-001 0.000000e+000
    outer loop
      vertex   4.255253e+001 -9.029524e+000 6.000000e+000
      vertex   4.255253e+001 -9.029524e+000 0.000000e+000
      vertex   4.326248e+001 -4.539548e+000 0.000000e+000
    endloop
  endfacet
  facet normal 9.986340e-001 -5.225009e-002 0.000000e+000
    outer loop
      vertex   4.326248e+001 -4.539548e+000 6.000000e+000
      vertex   4.326248e+001 -4.539548e+000 0.000000e+000
      vertex   4.350000e+001 -3.552714e-015 6.000000e+000
    endloop
  endfacet
  facet normal 9.877287e-001 -1.561797e-001 0.000000e+000
    outer loop
      vertex   4.326248e+001 -4.539548e+000 6.000000e+000
      vertex   4.255253e+001 -9.029524e+000 6.000000e+000
      vertex   4.326248e+001 -4.539548e+000 0.000000e+000
    endloop
  endfacet
  facet normal 9.986340e-001 -5.225009e-002 0.000000e+000
    outer loop
      vertex   4.326248e+001 -4.539548e+000 0.000000e+000
      vertex   4.350000e+001 -3.552714e-015 0.000000e+000
      vertex   4.350000e+001 -3.552714e-015 6.000000e+000
    endloop
  endfacet
  facet normal 9.986340e-001 5.225009e-002 0.000000e+000
    outer loop
      vertex   4.350000e+001 -3.552714e-015 6.000000e+000
      vertex   4.350000e+001 -3.552714e-015 0.000000e+000
      vertex   4.326248e+001 4.539548e+000 6.000000e+000
    endloop
  endfacet
  facet normal 9.986340e-001 5.225009e-002 0.000000e+000
    outer loop
      vertex   4.326248e+001 4.539548e+000 6.000000e+000
      vertex   4.350000e+001 -3.552714e-015 0.000000e+000
      vertex   4.326248e+001 4.539548e+000 0.000000e+000
    endloop
  endfacet
  facet normal 9.877287e-001 1.561797e-001 0.000000e+000
    outer loop
      vertex   4.255253e+001 9.029524e+000 0.000000e+000
      vertex   4.326248e+001 4.539548e+000 6.000000e+000
      vertex   4.326248e+001 4.539548e+000 0.000000e+000
    endloop
  endfacet
  facet normal 9.877287e-001 1.561797e-001 -0.000000e+000
    outer loop
      vertex   4.255253e+001 9.029524e+000 0.000000e+000
      vertex   4.255253e+001 9.029524e+000 6.000000e+000
      vertex   4.326248e+001 4.539548e+000 6.000000e+000
    endloop
  endfacet
  facet normal 9.660370e-001 2.584038e-001 0.000000e+000
    outer loop
      vertex   4.255253e+001 9.029524e+000 0.000000e+000
      vertex   4.137789e+001 1.342089e+001 0.000000e+000
      vertex   4.255253e+001 9.029524e+000 6.000000e+000
    endloop
  endfacet
  facet normal 9.660370e-001 2.584038e-001 -0.000000e+000
    outer loop
      vertex   4.255253e+001 9.029524e+000 6.000000e+000
      vertex   4.137789e+001 1.342089e+001 0.000000e+000
      vertex   4.137789e+001 1.342089e+001 6.000000e+000
    endloop
  endfacet
  facet normal 9.512158e-001 -3.085263e-001 0.000000e+000
    outer loop
      vertex   3.112140e+001 -4.504263e+001 6.000000e+000
      vertex   3.112140e+001 -4.504263e+001 0.000000e+000
      vertex   4.137789e+001 -1.342089e+001 6.000000e+000
    endloop
  endfacet
  facet normal 9.512158e-001 -3.085263e-001 0.000000e+000
    outer loop
      vertex   4.137789e+001 -1.342089e+001 6.000000e+000
      vertex   3.112140e+001 -4.504263e+001 0.000000e+000
      vertex   4.137789e+001 -1.342089e+001 0.000000e+000
    endloop
  endfacet
  facet normal 1.564982e-001 -9.876783e-001 0.000000e+000
    outer loop
      vertex   2.636532e+001 -4.850000e+001 6.000000e+000
      vertex   2.636532e+001 -4.850000e+001 0.000000e+000
      vertex   2.791101e+001 -4.825508e+001 6.000000e+000
    endloop
  endfacet
  facet normal 1.564982e-001 -9.876783e-001 0.000000e+000
    outer loop
      vertex   2.791101e+001 -4.825508e+001 6.000000e+000
      vertex   2.636532e+001 -4.850000e+001 0.000000e+000
      vertex   2.791101e+001 -4.825508e+001 5.595524e-014
    endloop
  endfacet
  facet normal 4.541629e-001 -8.909187e-001 0.000000e+000
    outer loop
      vertex   2.930529e+001 -4.754433e+001 6.000000e+000
      vertex   2.791101e+001 -4.825508e+001 5.595524e-014
      vertex   2.930529e+001 -4.754433e+001 5.595524e-014
    endloop
  endfacet
  facet normal 7.073347e-001 -7.068787e-001 0.000000e+000
    outer loop
      vertex   3.041154e+001 -4.643736e+001 6.000000e+000
      vertex   2.930529e+001 -4.754433e+001 5.595524e-014
      vertex   3.041154e+001 -4.643736e+001 5.595524e-014
    endloop
  endfacet
  facet normal 8.912114e-001 -4.535882e-001 0.000000e+000
    outer loop
      vertex   3.112140e+001 -4.504263e+001 6.000000e+000
      vertex   3.041154e+001 -4.643736e+001 5.595524e-014
      vertex   3.112140e+001 -4.504263e+001 0.000000e+000
    endloop
  endfacet
  facet normal 8.912114e-001 -4.535882e-001 0.000000e+000
    outer loop
      vertex   3.112140e+001 -4.504263e+001 6.000000e+000
      vertex   3.041154e+001 -4.643736e+001 6.000000e+000
      vertex   3.041154e+001 -4.643736e+001 5.595524e-014
    endloop
  endfacet
  facet normal 4.541629e-001 -8.909187e-001 0.000000e+000
    outer loop
      vertex   2.791101e+001 -4.825508e+001 6.000000e+000
      vertex   2.791101e+001 -4.825508e+001 5.595524e-014
      vertex   2.930529e+001 -4.754433e+001 6.000000e+000
    endloop
  endfacet
  facet normal 7.073347e-001 -7.068787e-001 0.000000e+000
    outer loop
      vertex   2.930529e+001 -4.754433e+001 6.000000e+000
      vertex   2.930529e+001 -4.754433e+001 5.595524e-014
      vertex   3.041154e+001 -4.643736e+001 6.000000e+000
    endloop
  endfacet
  facet normal -0.000000e+000 -1.000000e+000 0.000000e+000
    outer loop
      vertex   2.636532e+001 -4.850000e+001 0.000000e+000
      vertex   2.636532e+001 -4.850000e+001 6.000000e+000
      vertex   -2.636532e+001 -4.850000e+001 0.000000e+000
    endloop
  endfacet
  facet normal 0.000000e+000 -1.000000e+000 0.000000e+000
    outer loop
      vertex   -2.636532e+001 -4.850000e+001 0.000000e+000
      vertex   2.636532e+001 -4.850000e+001 6.000000e+000
      vertex   -2.636532e+001 -4.850000e+001 6.000000e+000
    endloop
  endfacet
  facet normal -8.912114e-001 -4.535882e-001 -0.000000e+000
    outer loop
      vertex   -3.112140e+001 -4.504263e+001 6.000000e+000
      vertex   -3.112140e+001 -4.504263e+001 0.000000e+000
      vertex   -3.041154e+001 -4.643736e+001 6.000000e+000
    endloop
  endfacet
  facet normal -8.912114e-001 -4.535882e-001 0.000000e+000
    outer loop
      vertex   -3.041154e+001 -4.643736e+001 6.000000e+000
      vertex   -3.112140e+001 -4.504263e+001 0.000000e+000
      vertex   -3.041154e+001 -4.643736e+001 5.595524e-014
    endloop
  endfacet
  facet normal -7.073347e-001 -7.068787e-001 0.000000e+000
    outer loop
      vertex   -2.930529e+001 -4.754433e+001 6.000000e+000
      vertex   -3.041154e+001 -4.643736e+001 5.595524e-014
      vertex   -2.930529e+001 -4.754433e+001 5.595524e-014
    endloop
  endfacet
  facet normal -4.541629e-001 -8.909187e-001 0.000000e+000
    outer loop
      vertex   -2.791101e+001 -4.825508e+001 6.000000e+000
      vertex   -2.930529e+001 -4.754433e+001 5.595524e-014
      vertex   -2.791101e+001 -4.825508e+001 5.595524e-014
    endloop
  endfacet
  facet normal -1.564982e-001 -9.876783e-001 0.000000e+000
    outer loop
      vertex   -2.636532e+001 -4.850000e+001 6.000000e+000
      vertex   -2.791101e+001 -4.825508e+001 5.595524e-014
      vertex   -2.636532e+001 -4.850000e+001 0.000000e+000
    endloop
  endfacet
  facet normal -1.564982e-001 -9.876783e-001 -0.000000e+000
    outer loop
      vertex   -2.636532e+001 -4.850000e+001 6.000000e+000
      vertex   -2.791101e+001 -4.825508e+001 6.000000e+000
      vertex   -2.791101e+001 -4.825508e+001 5.595524e-014
    endloop
  endfacet
  facet normal -7.073347e-001 -7.068787e-001 -0.000000e+000
    outer loop
      vertex   -3.041154e+001 -4.643736e+001 6.000000e+000
      vertex   -3.041154e+001 -4.643736e+001 5.595524e-014
      vertex   -2.930529e+001 -4.754433e+001 6.000000e+000
    endloop
  endfacet
  facet normal -4.541629e-001 -8.909187e-001 -0.000000e+000
    outer loop
      vertex   -2.930529e+001 -4.754433e+001 6.000000e+000
      vertex   -2.930529e+001 -4.754433e+001 5.595524e-014
      vertex   -2.791101e+001 -4.825508e+001 6.000000e+000
    endloop
  endfacet
  facet normal -9.512158e-001 -3.085263e-001 0.000000e+000
    outer loop
      vertex   -3.112140e+001 -4.504263e+001 0.000000e+000
      vertex   -3.112140e+001 -4.504263e+001 6.000000e+000
      vertex   -4.137789e+001 -1.342089e+001 0.000000e+000
    endloop
  endfacet
  facet normal -9.512158e-001 -3.085263e-001 0.000000e+000
    outer loop
      vertex   -4.137789e+001 -1.342089e+001 0.000000e+000
      vertex   -3.112140e+001 -4.504263e+001 6.000000e+000
      vertex   -4.137789e+001 -1.342089e+001 6.000000e+000
    endloop
  endfacet
  facet normal -9.660370e-001 2.584038e-001 0.000000e+000
    outer loop
      vertex   -4.137789e+001 1.342089e+001 0.000000e+000
      vertex   -4.255253e+001 9.029524e+000 0.000000e+000
      vertex   -4.137789e+001 1.342089e+001 6.000000e+000
    endloop
  endfacet
  facet normal -9.660370e-001 2.584038e-001 0.000000e+000
    outer loop
      vertex   -4.137789e+001 1.342089e+001 6.000000e+000
      vertex   -4.255253e+001 9.029524e+000 0.000000e+000
      vertex   -4.255253e+001 9.029524e+000 6.000000e+000
    endloop
  endfacet
  facet normal -9.877287e-001 1.561797e-001 0.000000e+000
    outer loop
      vertex   -4.255253e+001 9.029524e+000 6.000000e+000
      vertex   -4.255253e+001 9.029524e+000 0.000000e+000
      vertex   -4.326248e+001 4.539548e+000 0.000000e+000
    endloop
  endfacet
  facet normal -9.986340e-001 5.225009e-002 0.000000e+000
    outer loop
      vertex   -4.326248e+001 4.539548e+000 6.000000e+000
      vertex   -4.326248e+001 4.539548e+000 0.000000e+000
      vertex   -4.350000e+001 3.552714e-015 6.000000e+000
    endloop
  endfacet
  facet normal -9.877287e-001 1.561797e-001 0.000000e+000
    outer loop
      vertex   -4.326248e+001 4.539548e+000 6.000000e+000
      vertex   -4.255253e+001 9.029524e+000 6.000000e+000
      vertex   -4.326248e+001 4.539548e+000 0.000000e+000
    endloop
  endfacet
  facet normal -9.986340e-001 5.225009e-002 0.000000e+000
    outer loop
      vertex   -4.326248e+001 4.539548e+000 0.000000e+000
      vertex   -4.350000e+001 3.552714e-015 0.000000e+000
      vertex   -4.350000e+001 3.552714e-015 6.000000e+000
    endloop
  endfacet
  facet normal -9.986340e-001 -5.225009e-002 -0.000000e+000
    outer loop
      vertex   -4.350000e+001 3.552714e-015 6.000000e+000
      vertex   -4.350000e+001 3.552714e-015 0.000000e+000
      vertex   -4.326248e+001 -4.539548e+000 6.000000e+000
    endloop
  endfacet
  facet normal -9.986340e-001 -5.225009e-002 0.000000e+000
    outer loop
      vertex   -4.326248e+001 -4.539548e+000 6.000000e+000
      vertex   -4.350000e+001 3.552714e-015 0.000000e+000
      vertex   -4.326248e+001 -4.539548e+000 0.000000e+000
    endloop
  endfacet
  facet normal -9.877287e-001 -1.561797e-001 -0.000000e+000
    outer loop
      vertex   -4.255253e+001 -9.029524e+000 0.000000e+000
      vertex   -4.326248e+001 -4.539548e+000 6.000000e+000
      vertex   -4.326248e+001 -4.539548e+000 0.000000e+000
    endloop
  endfacet
  facet normal -9.877287e-001 -1.561797e-001 0.000000e+000
    outer loop
      vertex   -4.255253e+001 -9.029524e+000 0.000000e+000
      vertex   -4.255253e+001 -9.029524e+000 6.000000e+000
      vertex   -4.326248e+001 -4.539548e+000 6.000000e+000
    endloop
  endfacet
  facet normal -9.660370e-001 -2.584038e-001 0.000000e+000
    outer loop
      vertex   -4.255253e+001 -9.029524e+000 0.000000e+000
      vertex   -4.137789e+001 -1.342089e+001 0.000000e+000
      vertex   -4.255253e+001 -9.029524e+000 6.000000e+000
    endloop
  endfacet
  facet normal -9.660370e-001 -2.584038e-001 0.000000e+000
    outer loop
      vertex   -4.255253e+001 -9.029524e+000 6.000000e+000
      vertex   -4.137789e+001 -1.342089e+001 0.000000e+000
      vertex   -4.137789e+001 -1.342089e+001 6.000000e+000
    endloop
  endfacet
  facet normal -9.512158e-001 3.085263e-001 0.000000e+000
    outer loop
      vertex   -3.112140e+001 4.504263e+001 6.000000e+000
      vertex   -3.112140e+001 4.504263e+001 0.000000e+000
      vertex   -4.137789e+001 1.342089e+001 6.000000e+000
    endloop
  endfacet
  facet normal -9.512158e-001 3.085263e-001 0.000000e+000
    outer loop
      vertex   -4.137789e+001 1.342089e+001 6.000000e+000
      vertex   -3.112140e+001 4.504263e+001 0.000000e+000
      vertex   -4.137789e+001 1.342089e+001 0.000000e+000
    endloop
  endfacet
  facet normal -1.564982e-001 9.876783e-001 0.000000e+000
    outer loop
      vertex   -2.636532e+001 4.850000e+001 6.000000e+000
      vertex   -2.636532e+001 4.850000e+001 0.000000e+000
      vertex   -2.791101e+001 4.825508e+001 6.000000e+000
    endloop
  endfacet
  facet normal -1.564982e-001 9.876783e-001 0.000000e+000
    outer loop
      vertex   -2.791101e+001 4.825508e+001 6.000000e+000
      vertex   -2.636532e+001 4.850000e+001 0.000000e+000
      vertex   -2.791101e+001 4.825508e+001 5.595524e-014
    endloop
  endfacet
  facet normal -4.541629e-001 8.909187e-001 0.000000e+000
    outer loop
      vertex   -2.930529e+001 4.754433e+001 6.000000e+000
      vertex   -2.791101e+001 4.825508e+001 5.595524e-014
      vertex   -2.930529e+001 4.754433e+001 5.595524e-014
    endloop
  endfacet
  facet normal -7.073347e-001 7.068787e-001 0.000000e+000
    outer loop
      vertex   -3.041154e+001 4.643736e+001 6.000000e+000
      vertex   -2.930529e+001 4.754433e+001 5.595524e-014
      vertex   -3.041154e+001 4.643736e+001 5.595524e-014
    endloop
  endfacet
  facet normal -8.912114e-001 4.535882e-001 0.000000e+000
    outer loop
      vertex   -3.112140e+001 4.504263e+001 6.000000e+000
      vertex   -3.041154e+001 4.643736e+001 5.595524e-014
      vertex   -3.112140e+001 4.504263e+001 0.000000e+000
    endloop
  endfacet
  facet normal -8.912114e-001 4.535882e-001 0.000000e+000
    outer loop
      vertex   -3.112140e+001 4.504263e+001 6.000000e+000
      vertex   -3.041154e+001 4.643736e+001 6.000000e+000
      vertex   -3.041154e+001 4.643736e+001 5.595524e-014
    endloop
  endfacet
  facet normal -4.541629e-001 8.909187e-001 0.000000e+000
    outer loop
      vertex   -2.791101e+001 4.825508e+001 6.000000e+000
      vertex   -2.791101e+001 4.825508e+001 5.595524e-014
      vertex   -2.930529e+001 4.754433e+001 6.000000e+000
    endloop
  endfacet
  facet normal -7.073347e-001 7.068787e-001 0.000000e+000
    outer loop
      vertex   -2.930529e+001 4.754433e+001 6.000000e+000
      vertex   -2.930529e+001 4.754433e+001 5.595524e-014
      vertex   -3.041154e+001 4.643736e+001 6.000000e+000
    endloop
  endfacet
  facet normal 0.000000e+000 1.000000e+000 0.000000e+000
    outer loop
      vertex   2.636532e+001 4.850000e+001 6.000000e+000
      vertex   2.636532e+001 4.850000e+001 0.000000e+000
      vertex   -2.636532e+001 4.850000e+001 6.000000e+000
    endloop
  endfacet
  facet normal 0.000000e+000 1.000000e+000 0.000000e+000
    outer loop
      vertex   -2.636532e+001 4.850000e+001 6.000000e+000
      vertex   2.636532e+001 4.850000e+001 0.000000e+000
      vertex   -2.636532e+001 4.850000e+001 0.000000e+000
    endloop
  endfacet
  facet normal 0.000000e+000 -0.000000e+000 1.000000e+000
    outer loop
      vertex   -4.137789e+001 1.342089e+001 6.000000e+000
      vertex   -2.636532e+001 4.850000e+001 6.000000e+000
      vertex   -3.112140e+001 4.504263e+001 6.000000e+000
    endloop
  endfacet
  facet normal 0.000000e+000 -0.000000e+000 1.000000e+000
    outer loop
      vertex   -4.137789e+001 1.342089e+001 6.000000e+000
      vertex   4.137789e+001 1.342089e+001 6.000000e+000
      vertex   -2.636532e+001 4.850000e+001 6.000000e+000
    endloop
  endfacet
  facet normal -0.000000e+000 -0.000000e+000 1.000000e+000
    outer loop
      vertex   -4.137789e+001 1.342089e+001 6.000000e+000
      vertex   4.255253e+001 9.029524e+000 6.000000e+000
      vertex   4.137789e+001 1.342089e+001 6.000000e+000
    endloop
  endfacet
  facet normal -0.000000e+000 -0.000000e+000 1.000000e+000
    outer loop
      vertex   -4.137789e+001 1.342089e+001 6.000000e+000
      vertex   4.326248e+001 4.539548e+000 6.000000e+000
      vertex   4.255253e+001 9.029524e+000 6.000000e+000
    endloop
  endfacet
  facet normal -0.000000e+000 -0.000000e+000 1.000000e+000
    outer loop
      vertex   -4.137789e+001 1.342089e+001 6.000000e+000
      vertex   4.350000e+001 -3.552714e-015 6.000000e+000
      vertex   4.326248e+001 4.539548e+000 6.000000e+000
    endloop
  endfacet
  facet normal -0.000000e+000 0.000000e+000 1.000000e+000
    outer loop
      vertex   -4.137789e+001 1.342089e+001 6.000000e+000
      vertex   4.326248e+001 -4.539548e+000 6.000000e+000
      vertex   4.350000e+001 -3.552714e-015 6.000000e+000
    endloop
  endfacet
  facet normal -0.000000e+000 0.000000e+000 1.000000e+000
    outer loop
      vertex   -4.137789e+001 1.342089e+001 6.000000e+000
      vertex   4.255253e+001 -9.029524e+000 6.000000e+000
      vertex   4.326248e+001 -4.539548e+000 6.000000e+000
    endloop
  endfacet
  facet normal -0.000000e+000 0.000000e+000 1.000000e+000
    outer loop
      vertex   -4.137789e+001 1.342089e+001 6.000000e+000
      vertex   4.137789e+001 -1.342089e+001 6.000000e+000
      vertex   4.255253e+001 -9.029524e+000 6.000000e+000
    endloop
  endfacet
  facet normal 0.000000e+000 0.000000e+000 1.000000e+000
    outer loop
      vertex   -4.137789e+001 1.342089e+001 6.000000e+000
      vertex   -4.255253e+001 9.029524e+000 6.000000e+000
      vertex   4.137789e+001 -1.342089e+001 6.000000e+000
    endloop
  endfacet
  facet normal 0.000000e+000 0.000000e+000 1.000000e+000
    outer loop
      vertex   4.137789e+001 -1.342089e+001 6.000000e+000
      vertex   -4.255253e+001 9.029524e+000 6.000000e+000
      vertex   -4.326248e+001 4.539548e+000 6.000000e+000
    endloop
  endfacet
  facet normal -0.000000e+000 -0.000000e+000 1.000000e+000
    outer loop
      vertex   -4.350000e+001 3.552714e-015 6.000000e+000
      vertex   4.137789e+001 -1.342089e+001 6.000000e+000
      vertex   -4.326248e+001 4.539548e+000 6.000000e+000
    endloop
  endfacet
  facet normal 0.000000e+000 0.000000e+000 1.000000e+000
    outer loop
      vertex   -4.350000e+001 3.552714e-015 6.000000e+000
      vertex   -4.326248e+001 -4.539548e+000 6.000000e+000
      vertex   4.137789e+001 -1.342089e+001 6.000000e+000
    endloop
  endfacet
  facet normal 0.000000e+000 0.000000e+000 1.000000e+000
    outer loop
      vertex   4.137789e+001 -1.342089e+001 6.000000e+000
      vertex   -4.326248e+001 -4.539548e+000 6.000000e+000
      vertex   -4.255253e+001 -9.029524e+000 6.000000e+000
    endloop
  endfacet
  facet normal 0.000000e+000 -0.000000e+000 1.000000e+000
    outer loop
      vertex   -4.137789e+001 -1.342089e+001 6.000000e+000
      vertex   4.137789e+001 -1.342089e+001 6.000000e+000
      vertex   -4.255253e+001 -9.029524e+000 6.000000e+000
    endloop
  endfacet
  facet normal -0.000000e+000 0.000000e+000 1.000000e+000
    outer loop
      vertex   -4.137789e+001 -1.342089e+001 6.000000e+000
      vertex   2.636532e+001 -4.850000e+001 6.000000e+000
      vertex   4.137789e+001 -1.342089e+001 6.000000e+000
    endloop
  endfacet
  facet normal -0.000000e+000 0.000000e+000 1.000000e+000
    outer loop
      vertex   -4.137789e+001 -1.342089e+001 6.000000e+000
      vertex   -2.636532e+001 -4.850000e+001 6.000000e+000
      vertex   2.636532e+001 -4.850000e+001 6.000000e+000
    endloop
  endfacet
  facet normal 0.000000e+000 0.000000e+000 1.000000e+000
    outer loop
      vertex   -4.137789e+001 -1.342089e+001 6.000000e+000
      vertex   -3.112140e+001 -4.504263e+001 6.000000e+000
      vertex   -2.636532e+001 -4.850000e+001 6.000000e+000
    endloop
  endfacet
  facet normal 0.000000e+000 0.000000e+000 1.000000e+000
    outer loop
      vertex   -2.636532e+001 -4.850000e+001 6.000000e+000
      vertex   -3.112140e+001 -4.504263e+001 6.000000e+000
      vertex   -2.791101e+001 -4.825508e+001 6.000000e+000
    endloop
  endfacet
  facet normal 0.000000e+000 0.000000e+000 1.000000e+000
    outer loop
      vertex   -2.791101e+001 -4.825508e+001 6.000000e+000
      vertex   -3.112140e+001 -4.504263e+001 6.000000e+000
      vertex   -2.930529e+001 -4.754433e+001 6.000000e+000
    endloop
  endfacet
  facet normal 0.000000e+000 0.000000e+000 1.000000e+000
    outer loop
      vertex   -2.930529e+001 -4.754433e+001 6.000000e+000
      vertex   -3.112140e+001 -4.504263e+001 6.000000e+000
      vertex   -3.041154e+001 -4.643736e+001 6.000000e+000
    endloop
  endfacet
  facet normal -0.000000e+000 0.000000e+000 1.000000e+000
    outer loop
      vertex   4.137789e+001 -1.342089e+001 6.000000e+000
      vertex   2.636532e+001 -4.850000e+001 6.000000e+000
      vertex   3.112140e+001 -4.504263e+001 6.000000e+000
    endloop
  endfacet
  facet normal -0.000000e+000 0.000000e+000 1.000000e+000
    outer loop
      vertex   3.112140e+001 -4.504263e+001 6.000000e+000
      vertex   2.636532e+001 -4.850000e+001 6.000000e+000
      vertex   2.791101e+001 -4.825508e+001 6.000000e+000
    endloop
  endfacet
  facet normal 0.000000e+000 -0.000000e+000 1.000000e+000
    outer loop
      vertex   2.930529e+001 -4.754433e+001 6.000000e+000
      vertex   3.112140e+001 -4.504263e+001 6.000000e+000
      vertex   2.791101e+001 -4.825508e+001 6.000000e+000
    endloop
  endfacet
  facet normal 0.000000e+000 0.000000e+000 1.000000e+000
    outer loop
      vertex   2.930529e+001 -4.754433e+001 6.000000e+000
      vertex   3.041154e+001 -4.643736e+001 6.000000e+000
      vertex   3.112140e+001 -4.504263e+001 6.000000e+000
    endloop
  endfacet
  facet normal -0.000000e+000 -0.000000e+000 1.000000e+000
    outer loop
      vertex   -2.636532e+001 4.850000e+001 6.000000e+000
      vertex   4.137789e+001 1.342089e+001 6.000000e+000
      vertex   2.636532e+001 4.850000e+001 6.000000e+000
    endloop
  endfacet
  facet normal -0.000000e+000 -0.000000e+000 1.000000e+000
    outer loop
      vertex   2.636532e+001 4.850000e+001 6.000000e+000
      vertex   4.137789e+001 1.342089e+001 6.000000e+000
      vertex   3.112140e+001 4.504263e+001 6.000000e+000
    endloop
  endfacet
  facet normal -0.000000e+000 -0.000000e+000 1.000000e+000
    outer loop
      vertex   2.791101e+001 4.825508e+001 6.000000e+000
      vertex   3.112140e+001 4.504263e+001 6.000000e+000
      vertex   2.930529e+001 4.754433e+001 6.000000e+000
    endloop
  endfacet
  facet normal 0.000000e+000 0.000000e+000 1.000000e+000
    outer loop
      vertex   2.791101e+001 4.825508e+001 6.000000e+000
      vertex   2.636532e+001 4.850000e+001 6.000000e+000
      vertex   3.112140e+001 4.504263e+001 6.000000e+000
    endloop
  endfacet
  facet normal 0.000000e+000 0.000000e+000 1.000000e+000
    outer loop
      vertex   3.112140e+001 4.504263e+001 6.000000e+000
      vertex   3.041154e+001 4.643736e+001 6.000000e+000
      vertex   2.930529e+001 4.754433e+001 6.000000e+000
    endloop
  endfacet
  facet normal 0.000000e+000 0.000000e+000 1.000000e+000
    outer loop
      vertex   -2.636532e+001 4.850000e+001 6.000000e+000
      vertex   -2.791101e+001 4.825508e+001 6.000000e+000
      vertex   -3.112140e+001 4.504263e+001 6.000000e+000
    endloop
  endfacet
  facet normal 0.000000e+000 -0.000000e+000 1.000000e+000
    outer loop
      vertex   -3.112140e+001 4.504263e+001 6.000000e+000
      vertex   -2.791101e+001 4.825508e+001 6.000000e+000
      vertex   -2.930529e+001 4.754433e+001 6.000000e+000
    endloop
  endfacet
  facet normal -0.000000e+000 0.000000e+000 1.000000e+000
    outer loop
      vertex   -3.041154e+001 4.643736e+001 6.000000e+000
      vertex   -3.112140e+001 4.504263e+001 6.000000e+000
      vertex   -2.930529e+001 4.754433e+001 6.000000e+000
    endloop
  endfacet
endsolid