solid ascii
  facet normal -0.000000e+000 -0.000000e+000 -1.000000e+000
    outer loop
      vertex   1.700001e+001 8.944668e+001 1.965000e+003
      vertex   2.944489e+001 7.700182e+001 1.965000e+003
      vertex   8.073244e-006 9.400180e+001 1.965000e+003
    endloop
  endfacet
  facet normal 0.000000e+000 0.000000e+000 -1.000000e+000
    outer loop
      vertex   8.073244e-006 9.400180e+001 1.965000e+003
      vertex   2.944489e+001 7.700182e+001 1.965000e+003
      vertex   3.400004e+001 6.000180e+001 1.965000e+003
    endloop
  endfacet
  facet normal 0.000000e+000 0.000000e+000 -1.000000e+000
    outer loop
      vertex   2.944490e+001 4.300179e+001 1.965000e+003
      vertex   8.073244e-006 9.400180e+001 1.965000e+003
      vertex   3.400004e+001 6.000180e+001 1.965000e+003
    endloop
  endfacet
  facet normal 0.000000e+000 0.000000e+000 -1.000000e+000
    outer loop
      vertex   2.944490e+001 4.300179e+001 1.965000e+003
      vertex   -1.699997e+001 8.944666e+001 1.965000e+003
      vertex   8.073244e-006 9.400180e+001 1.965000e+003
    endloop
  endfacet
  facet normal 0.000000e+000 0.000000e+000 -1.000000e+000
    outer loop
      vertex   2.944490e+001 4.300179e+001 1.965000e+003
      vertex   -2.944483e+001 7.700179e+001 1.965000e+003
      vertex   -1.699997e+001 8.944666e+001 1.965000e+003
    endloop
  endfacet
  facet normal 0.000000e+000 0.000000e+000 -1.000000e+000
    outer loop
      vertex   2.944490e+001 4.300179e+001 1.965000e+003
      vertex   -3.399996e+001 6.000179e+001 1.965000e+003
      vertex   -2.944483e+001 7.700179e+001 1.965000e+003
    endloop
  endfacet
  facet normal -0.000000e+000 0.000000e+000 -1.000000e+000
    outer loop
      vertex   2.944490e+001 4.300179e+001 1.965000e+003
      vertex   1.700004e+001 3.055693e+001 1.965000e+003
      vertex   -3.399996e+001 6.000179e+001 1.965000e+003
    endloop
  endfacet
  facet normal -0.000000e+000 -0.000000e+000 -1.000000e+000
    outer loop
      vertex   -3.399996e+001 6.000179e+001 1.965000e+003
      vertex   1.700004e+001 3.055693e+001 1.965000e+003
      vertex   -2.944482e+001 4.300179e+001 1.965000e+003
    endloop
  endfacet
  facet normal -6.687461e-015 -2.495796e-014 -1.000000e+000
    outer loop
      vertex   -2.944482e+001 4.300179e+001 1.965000e+003
      vertex   1.700004e+001 3.055693e+001 1.965000e+003
      vertex   -1.699996e+001 3.055693e+001 1.965000e+003
    endloop
  endfacet
  facet normal -6.687461e-015 2.495792e-014 -1.000000e+000
    outer loop
      vertex   -1.699996e+001 3.055693e+001 1.965000e+003
      vertex   1.700004e+001 3.055693e+001 1.965000e+003
      vertex   3.799997e-005 2.600179e+001 1.965000e+003
    endloop
  endfacet
  facet normal 0.000000e+000 -0.000000e+000 1.000000e+000
    outer loop
      vertex   2.381574e+001 4.625180e+001 1.980000e+003
      vertex   2.750004e+001 6.000180e+001 1.980000e+003
      vertex   -2.381566e+001 7.375178e+001 1.980000e+003
    endloop
  endfacet
  facet normal -0.000000e+000 -0.000000e+000 1.000000e+000
    outer loop
      vertex   -2.749996e+001 6.000179e+001 1.980000e+003
      vertex   2.381574e+001 4.625180e+001 1.980000e+003
      vertex   -2.381566e+001 7.375178e+001 1.980000e+003
    endloop
  endfacet
  facet normal -0.000000e+000 0.000000e+000 1.000000e+000
    outer loop
      vertex   -2.749996e+001 6.000179e+001 1.980000e+003
      vertex   1.375004e+001 3.618610e+001 1.980000e+003
      vertex   2.381574e+001 4.625180e+001 1.980000e+003
    endloop
  endfacet
  facet normal -0.000000e+000 0.000000e+000 1.000000e+000
    outer loop
      vertex   -2.749996e+001 6.000179e+001 1.980000e+003
      vertex   3.999856e-005 3.250179e+001 1.980000e+003
      vertex   1.375004e+001 3.618610e+001 1.980000e+003
    endloop
  endfacet
  facet normal 0.000000e+000 0.000000e+000 1.000000e+000
    outer loop
      vertex   -2.749996e+001 6.000179e+001 1.980000e+003
      vertex   -1.374995e+001 3.618609e+001 1.980000e+003
      vertex   3.999856e-005 3.250179e+001 1.980000e+003
    endloop
  endfacet
  facet normal 0.000000e+000 0.000000e+000 1.000000e+000
    outer loop
      vertex   -2.749996e+001 6.000179e+001 1.980000e+003
      vertex   -2.381566e+001 4.625179e+001 1.980000e+003
      vertex   -1.374995e+001 3.618609e+001 1.980000e+003
    endloop
  endfacet
  facet normal 0.000000e+000 0.000000e+000 1.000000e+000
    outer loop
      vertex   2.750004e+001 6.000180e+001 1.980000e+003
      vertex   2.381572e+001 7.375183e+001 1.980000e+003
      vertex   -2.381566e+001 7.375178e+001 1.980000e+003
    endloop
  endfacet
  facet normal 0.000000e+000 -0.000000e+000 1.000000e+000
    outer loop
      vertex   -2.381566e+001 7.375178e+001 1.980000e+003
      vertex   2.381572e+001 7.375183e+001 1.980000e+003
      vertex   1.375003e+001 8.381750e+001 1.980000e+003
    endloop
  endfacet
  facet normal -0.000000e+000 0.000000e+000 1.000000e+000
    outer loop
      vertex   2.416502e-005 8.750179e+001 1.980000e+003
      vertex   -2.381566e+001 7.375178e+001 1.980000e+003
      vertex   1.375003e+001 8.381750e+001 1.980000e+003
    endloop
  endfacet
  facet normal 0.000000e+000 0.000000e+000 1.000000e+000
    outer loop
      vertex   2.416502e-005 8.750179e+001 1.980000e+003
      vertex   -1.374996e+001 8.381750e+001 1.980000e+003
      vertex   -2.381566e+001 7.375178e+001 1.980000e+003
    endloop
  endfacet
  facet normal 9.659257e-001 2.588193e-001 6.670294e-011
    outer loop
      vertex   2.750004e+001 6.000180e+001 1.980000e+003
      vertex   2.750004e+001 6.000180e+001 1.975000e+003
      vertex   2.381572e+001 7.375183e+001 1.980000e+003
    endloop
  endfacet
  facet normal 9.659257e-001 2.588193e-001 4.041310e-012
    outer loop
      vertex   2.381572e+001 7.375183e+001 1.980000e+003
      vertex   2.750004e+001 6.000180e+001 1.975000e+003
      vertex   2.381572e+001 7.375183e+001 1.975000e+003
    endloop
  endfacet
  facet normal 7.071058e-001 7.071077e-001 -3.819490e-012
    outer loop
      vertex   2.381572e+001 7.375183e+001 1.980000e+003
      vertex   2.381572e+001 7.375183e+001 1.975000e+003
      vertex   1.375003e+001 8.381750e+001 1.980000e+003
    endloop
  endfacet
  facet normal 7.071058e-001 7.071077e-001 -9.824325e-009
    outer loop
      vertex   1.375003e+001 8.381750e+001 1.980000e+003
      vertex   2.381572e+001 7.375183e+001 1.975000e+003
      vertex   1.375003e+001 8.381750e+001 1.975000e+003
    endloop
  endfacet
  facet normal 2.588186e-001 9.659259e-001 -5.118990e-009
    outer loop
      vertex   1.375003e+001 8.381750e+001 1.980000e+003
      vertex   1.375003e+001 8.381750e+001 1.975000e+003
      vertex   2.416502e-005 8.750179e+001 1.980000e+003
    endloop
  endfacet
  facet normal 2.588186e-001 9.659259e-001 -6.810468e-010
    outer loop
      vertex   2.416502e-005 8.750179e+001 1.980000e+003
      vertex   1.375003e+001 8.381750e+001 1.975000e+003
      vertex   2.415187e-005 8.750179e+001 1.975000e+003
    endloop
  endfacet
  facet normal -2.588187e-001 9.659259e-001 6.804706e-010
    outer loop
      vertex   2.416502e-005 8.750179e+001 1.980000e+003
      vertex   2.415187e-005 8.750179e+001 1.975000e+003
      vertex   -1.374996e+001 8.381750e+001 1.980000e+003
    endloop
  endfacet
  facet normal -2.588187e-001 9.659259e-001 -1.564249e-011
    outer loop
      vertex   -1.374996e+001 8.381750e+001 1.980000e+003
      vertex   2.415187e-005 8.750179e+001 1.975000e+003
      vertex   -1.374996e+001 8.381750e+001 1.975000e+003
    endloop
  endfacet
  facet normal -7.071074e-001 7.071062e-001 -2.568200e-009
    outer loop
      vertex   -2.381566e+001 7.375178e+001 1.980000e+003
      vertex   -1.374996e+001 8.381750e+001 1.980000e+003
      vertex   -2.381566e+001 7.375179e+001 1.975000e+003
    endloop
  endfacet
  facet normal -7.071074e-001 7.071062e-001 1.511338e-011
    outer loop
      vertex   -2.381566e+001 7.375179e+001 1.975000e+003
      vertex   -1.374996e+001 8.381750e+001 1.980000e+003
      vertex   -1.374996e+001 8.381750e+001 1.975000e+003
    endloop
  endfacet
  facet normal -9.659258e-001 2.588191e-001 1.248746e-009
    outer loop
      vertex   -2.749996e+001 6.000179e+001 1.980000e+003
      vertex   -2.381566e+001 7.375178e+001 1.980000e+003
      vertex   -2.749996e+001 6.000179e+001 1.975000e+003
    endloop
  endfacet
  facet normal -9.659258e-001 2.588191e-001 -1.069224e-007
    outer loop
      vertex   -2.749996e+001 6.000179e+001 1.975000e+003
      vertex   -2.381566e+001 7.375178e+001 1.980000e+003
      vertex   -2.381566e+001 7.375179e+001 1.975000e+003
    endloop
  endfacet
  facet normal -9.659259e-001 -2.588189e-001 3.070107e-009
    outer loop
      vertex   -2.381566e+001 4.625179e+001 1.980000e+003
      vertex   -2.749996e+001 6.000179e+001 1.980000e+003
      vertex   -2.381566e+001 4.625179e+001 1.975000e+003
    endloop
  endfacet
  facet normal -9.659259e-001 -2.588189e-001 -1.249124e-009
    outer loop
      vertex   -2.381566e+001 4.625179e+001 1.975000e+003
      vertex   -2.749996e+001 6.000179e+001 1.980000e+003
      vertex   -2.749996e+001 6.000179e+001 1.975000e+003
    endloop
  endfacet
  facet normal -7.071067e-001 -7.071069e-001 -1.673989e-011
    outer loop
      vertex   -1.374995e+001 3.618609e+001 1.980000e+003
      vertex   -2.381566e+001 4.625179e+001 1.980000e+003
      vertex   -1.374995e+001 3.618609e+001 1.975000e+003
    endloop
  endfacet
  facet normal -7.071067e-001 -7.071069e-001 -2.730417e-009
    outer loop
      vertex   -1.374995e+001 3.618609e+001 1.975000e+003
      vertex   -2.381566e+001 4.625179e+001 1.980000e+003
      vertex   -2.381566e+001 4.625179e+001 1.975000e+003
    endloop
  endfacet
  facet normal -2.588187e-001 -9.659259e-001 1.617663e-011
    outer loop
      vertex   -1.374995e+001 3.618609e+001 1.980000e+003
      vertex   -1.374995e+001 3.618609e+001 1.975000e+003
      vertex   3.999856e-005 3.250179e+001 1.980000e+003
    endloop
  endfacet
  facet normal -2.588187e-001 -9.659259e-001 -7.387617e-011
    outer loop
      vertex   3.999856e-005 3.250179e+001 1.980000e+003
      vertex   -1.374995e+001 3.618609e+001 1.975000e+003
      vertex   4.000000e-005 3.250179e+001 1.975000e+003
    endloop
  endfacet
  facet normal 2.588192e-001 -9.659258e-001 7.488370e-011
    outer loop
      vertex   3.999856e-005 3.250179e+001 1.980000e+003
      vertex   4.000000e-005 3.250179e+001 1.975000e+003
      vertex   1.375004e+001 3.618610e+001 1.980000e+003
    endloop
  endfacet
  facet normal 2.588192e-001 -9.659258e-001 -6.873834e-010
    outer loop
      vertex   1.375004e+001 3.618610e+001 1.980000e+003
      vertex   4.000000e-005 3.250179e+001 1.975000e+003
      vertex   1.375004e+001 3.618610e+001 1.975000e+003
    endloop
  endfacet
  facet normal 7.071068e-001 -7.071067e-001 1.649415e-009
    outer loop
      vertex   2.381574e+001 4.625180e+001 1.980000e+003
      vertex   1.375004e+001 3.618610e+001 1.980000e+003
      vertex   2.381574e+001 4.625180e+001 1.975000e+003
    endloop
  endfacet
  facet normal 7.071068e-001 -7.071067e-001 6.875567e-010
    outer loop
      vertex   2.381574e+001 4.625180e+001 1.975000e+003
      vertex   1.375004e+001 3.618610e+001 1.980000e+003
      vertex   1.375004e+001 3.618610e+001 1.975000e+003
    endloop
  endfacet
  facet normal 9.659259e-001 -2.588189e-001 -6.723953e-011
    outer loop
      vertex   2.750004e+001 6.000180e+001 1.980000e+003
      vertex   2.381574e+001 4.625180e+001 1.980000e+003
      vertex   2.750004e+001 6.000180e+001 1.975000e+003
    endloop
  endfacet
  facet normal 9.659259e-001 -2.588189e-001 -6.863400e-009
    outer loop
      vertex   2.750004e+001 6.000180e+001 1.975000e+003
      vertex   2.381574e+001 4.625180e+001 1.980000e+003
      vertex   2.381574e+001 4.625180e+001 1.975000e+003
    endloop
  endfacet
  facet normal -0.000000e+000 0.000000e+000 1.000000e+000
    outer loop
      vertex   1.700001e+001 8.944668e+001 1.975000e+003
      vertex   2.381572e+001 7.375183e+001 1.975000e+003
      vertex   2.944489e+001 7.700182e+001 1.975000e+003
    endloop
  endfacet
  facet normal 0.000000e+000 0.000000e+000 1.000000e+000
    outer loop
      vertex   1.700001e+001 8.944668e+001 1.975000e+003
      vertex   1.375003e+001 8.381750e+001 1.975000e+003
      vertex   2.381572e+001 7.375183e+001 1.975000e+003
    endloop
  endfacet
  facet normal 0.000000e+000 0.000000e+000 1.000000e+000
    outer loop
      vertex   1.700001e+001 8.944668e+001 1.975000e+003
      vertex   2.415187e-005 8.750179e+001 1.975000e+003
      vertex   1.375003e+001 8.381750e+001 1.975000e+003
    endloop
  endfacet
  facet normal 0.000000e+000 0.000000e+000 1.000000e+000
    outer loop
      vertex   1.700001e+001 8.944668e+001 1.975000e+003
      vertex   8.072954e-006 9.400180e+001 1.975000e+003
      vertex   2.415187e-005 8.750179e+001 1.975000e+003
    endloop
  endfacet
  facet normal 0.000000e+000 0.000000e+000 1.000000e+000
    outer loop
      vertex   2.415187e-005 8.750179e+001 1.975000e+003
      vertex   8.072954e-006 9.400180e+001 1.975000e+003
      vertex   -1.374996e+001 8.381750e+001 1.975000e+003
    endloop
  endfacet
  facet normal 0.000000e+000 -0.000000e+000 1.000000e+000
    outer loop
      vertex   -1.374996e+001 8.381750e+001 1.975000e+003
      vertex   8.072954e-006 9.400180e+001 1.975000e+003
      vertex   -1.699997e+001 8.944666e+001 1.975000e+003
    endloop
  endfacet
  facet normal 0.000000e+000 -0.000000e+000 1.000000e+000
    outer loop
      vertex   -2.944483e+001 7.700179e+001 1.975000e+003
      vertex   -1.374996e+001 8.381750e+001 1.975000e+003
      vertex   -1.699997e+001 8.944666e+001 1.975000e+003
    endloop
  endfacet
  facet normal -0.000000e+000 0.000000e+000 1.000000e+000
    outer loop
      vertex   -2.944483e+001 7.700179e+001 1.975000e+003
      vertex   -2.381566e+001 7.375179e+001 1.975000e+003
      vertex   -1.374996e+001 8.381750e+001 1.975000e+003
    endloop
  endfacet
  facet normal -0.000000e+000 0.000000e+000 1.000000e+000
    outer loop
      vertex   -2.944483e+001 7.700179e+001 1.975000e+003
      vertex   -2.749996e+001 6.000179e+001 1.975000e+003
      vertex   -2.381566e+001 7.375179e+001 1.975000e+003
    endloop
  endfacet
  facet normal -0.000000e+000 0.000000e+000 1.000000e+000
    outer loop
      vertex   -2.944483e+001 7.700179e+001 1.975000e+003
      vertex   -3.399996e+001 6.000179e+001 1.975000e+003
      vertex   -2.749996e+001 6.000179e+001 1.975000e+003
    endloop
  endfacet
  facet normal 0.000000e+000 0.000000e+000 1.000000e+000
    outer loop
      vertex   -2.749996e+001 6.000179e+001 1.975000e+003
      vertex   -3.399996e+001 6.000179e+001 1.975000e+003
      vertex   -2.381566e+001 4.625179e+001 1.975000e+003
    endloop
  endfacet
  facet normal 0.000000e+000 0.000000e+000 1.000000e+000
    outer loop
      vertex   -2.381566e+001 4.625179e+001 1.975000e+003
      vertex   -3.399996e+001 6.000179e+001 1.975000e+003
      vertex   -2.944482e+001 4.300179e+001 1.975000e+003
    endloop
  endfacet
  facet normal 0.000000e+000 0.000000e+000 1.000000e+000
    outer loop
      vertex   -1.699996e+001 3.055693e+001 1.975000e+003
      vertex   -2.381566e+001 4.625179e+001 1.975000e+003
      vertex   -2.944482e+001 4.300179e+001 1.975000e+003
    endloop
  endfacet
  facet normal 0.000000e+000 -0.000000e+000 1.000000e+000
    outer loop
      vertex   -1.699996e+001 3.055693e+001 1.975000e+003
      vertex   -1.374995e+001 3.618609e+001 1.975000e+003
      vertex   -2.381566e+001 4.625179e+001 1.975000e+003
    endloop
  endfacet
  facet normal -0.000000e+000 -0.000000e+000 1.000000e+000
    outer loop
      vertex   -1.699996e+001 3.055693e+001 1.975000e+003
      vertex   3.800003e-005 2.600179e+001 1.975000e+003
      vertex   -1.374995e+001 3.618609e+001 1.975000e+003
    endloop
  endfacet
  facet normal -0.000000e+000 0.000000e+000 1.000000e+000
    outer loop
      vertex   -1.374995e+001 3.618609e+001 1.975000e+003
      vertex   3.800003e-005 2.600179e+001 1.975000e+003
      vertex   4.000000e-005 3.250179e+001 1.975000e+003
    endloop
  endfacet
  facet normal -0.000000e+000 0.000000e+000 1.000000e+000
    outer loop
      vertex   4.000000e-005 3.250179e+001 1.975000e+003
      vertex   3.800003e-005 2.600179e+001 1.975000e+003
      vertex   1.700004e+001 3.055693e+001 1.975000e+003
    endloop
  endfacet
  facet normal -0.000000e+000 0.000000e+000 1.000000e+000
    outer loop
      vertex   1.375004e+001 3.618610e+001 1.975000e+003
      vertex   1.700004e+001 3.055693e+001 1.975000e+003
      vertex   2.944490e+001 4.300179e+001 1.975000e+003
    endloop
  endfacet
  facet normal -0.000000e+000 0.000000e+000 1.000000e+000
    outer loop
      vertex   2.381574e+001 4.625180e+001 1.975000e+003
      vertex   2.944490e+001 4.300179e+001 1.975000e+003
      vertex   3.400004e+001 6.000180e+001 1.975000e+003
    endloop
  endfacet
  facet normal -0.000000e+000 -0.000000e+000 1.000000e+000
    outer loop
      vertex   2.750004e+001 6.000180e+001 1.975000e+003
      vertex   3.400004e+001 6.000180e+001 1.975000e+003
      vertex   2.944489e+001 7.700182e+001 1.975000e+003
    endloop
  endfacet
  facet normal -0.000000e+000 0.000000e+000 1.000000e+000
    outer loop
      vertex   2.381572e+001 7.375183e+001 1.975000e+003
      vertex   2.750004e+001 6.000180e+001 1.975000e+003
      vertex   2.944489e+001 7.700182e+001 1.975000e+003
    endloop
  endfacet
  facet normal -0.000000e+000 -0.000000e+000 1.000000e+000
    outer loop
      vertex   4.000000e-005 3.250179e+001 1.975000e+003
      vertex   1.700004e+001 3.055693e+001 1.975000e+003
      vertex   1.375004e+001 3.618610e+001 1.975000e+003
    endloop
  endfacet
  facet normal 0.000000e+000 -0.000000e+000 1.000000e+000
    outer loop
      vertex   1.375004e+001 3.618610e+001 1.975000e+003
      vertex   2.944490e+001 4.300179e+001 1.975000e+003
      vertex   2.381574e+001 4.625180e+001 1.975000e+003
    endloop
  endfacet
  facet normal 0.000000e+000 -0.000000e+000 1.000000e+000
    outer loop
      vertex   2.381574e+001 4.625180e+001 1.975000e+003
      vertex   3.400004e+001 6.000180e+001 1.975000e+003
      vertex   2.750004e+001 6.000180e+001 1.975000e+003
    endloop
  endfacet
  facet normal 7.071064e-001 7.071072e-001 9.661491e-012
    outer loop
      vertex   2.944489e+001 7.700182e+001 1.975000e+003
      vertex   2.944489e+001 7.700182e+001 1.965000e+003
      vertex   1.700001e+001 8.944668e+001 1.975000e+003
    endloop
  endfacet
  facet normal 7.071064e-001 7.071072e-001 -2.102434e-012
    outer loop
      vertex   1.700001e+001 8.944668e+001 1.975000e+003
      vertex   2.944489e+001 7.700182e+001 1.965000e+003
      vertex   1.700001e+001 8.944668e+001 1.965000e+003
    endloop
  endfacet
  facet normal 9.659257e-001 2.588195e-001 2.330478e-010
    outer loop
      vertex   3.400004e+001 6.000180e+001 1.975000e+003
      vertex   3.400004e+001 6.000180e+001 1.965000e+003
      vertex   2.944489e+001 7.700182e+001 1.975000e+003
    endloop
  endfacet
  facet normal 9.659257e-001 2.588195e-001 -9.661679e-012
    outer loop
      vertex   2.944489e+001 7.700182e+001 1.975000e+003
      vertex   3.400004e+001 6.000180e+001 1.965000e+003
      vertex   2.944489e+001 7.700182e+001 1.965000e+003
    endloop
  endfacet
  facet normal 9.659258e-001 -2.588192e-001 -1.641914e-015
    outer loop
      vertex   2.944490e+001 4.300179e+001 1.975000e+003
      vertex   2.944490e+001 4.300179e+001 1.965000e+003
      vertex   3.400004e+001 6.000180e+001 1.975000e+003
    endloop
  endfacet
  facet normal 9.659258e-001 -2.588192e-001 -2.330420e-010
    outer loop
      vertex   3.400004e+001 6.000180e+001 1.975000e+003
      vertex   2.944490e+001 4.300179e+001 1.965000e+003
      vertex   3.400004e+001 6.000180e+001 1.965000e+003
    endloop
  endfacet
  facet normal 7.071068e-001 -7.071068e-001 -4.575701e-011
    outer loop
      vertex   1.700004e+001 3.055693e+001 1.975000e+003
      vertex   1.700004e+001 3.055693e+001 1.965000e+003
      vertex   2.944490e+001 4.300179e+001 1.975000e+003
    endloop
  endfacet
  facet normal 7.071068e-001 -7.071068e-001 9.689390e-016
    outer loop
      vertex   2.944490e+001 4.300179e+001 1.975000e+003
      vertex   1.700004e+001 3.055693e+001 1.965000e+003
      vertex   2.944490e+001 4.300179e+001 1.965000e+003
    endloop
  endfacet
  facet normal 2.588193e-001 -9.659258e-001 -1.785874e-012
    outer loop
      vertex   3.800003e-005 2.600179e+001 1.975000e+003
      vertex   3.799997e-005 2.600179e+001 1.965000e+003
      vertex   1.700004e+001 3.055693e+001 1.975000e+003
    endloop
  endfacet
  facet normal 2.588193e-001 -9.659258e-001 4.575570e-011
    outer loop
      vertex   1.700004e+001 3.055693e+001 1.975000e+003
      vertex   3.799997e-005 2.600179e+001 1.965000e+003
      vertex   1.700004e+001 3.055693e+001 1.965000e+003
    endloop
  endfacet
  facet normal -2.588193e-001 -9.659258e-001 -1.047533e-015
    outer loop
      vertex   -1.699996e+001 3.055693e+001 1.975000e+003
      vertex   -1.699996e+001 3.055693e+001 1.965000e+003
      vertex   3.800003e-005 2.600179e+001 1.975000e+003
    endloop
  endfacet
  facet normal -2.588193e-001 -9.659258e-001 1.785835e-012
    outer loop
      vertex   3.800003e-005 2.600179e+001 1.975000e+003
      vertex   -1.699996e+001 3.055693e+001 1.965000e+003
      vertex   3.799997e-005 2.600179e+001 1.965000e+003
    endloop
  endfacet
  facet normal -7.071067e-001 -7.071068e-001 -1.661786e-012
    outer loop
      vertex   -2.944482e+001 4.300179e+001 1.975000e+003
      vertex   -2.944482e+001 4.300179e+001 1.965000e+003
      vertex   -1.699996e+001 3.055693e+001 1.975000e+003
    endloop
  endfacet
  facet normal -7.071067e-001 -7.071068e-001 1.130429e-015
    outer loop
      vertex   -1.699996e+001 3.055693e+001 1.975000e+003
      vertex   -2.944482e+001 4.300179e+001 1.965000e+003
      vertex   -1.699996e+001 3.055693e+001 1.965000e+003
    endloop
  endfacet
  facet normal -9.659257e-001 -2.588193e-001 -0.000000e+000
    outer loop
      vertex   -3.399996e+001 6.000179e+001 1.975000e+003
      vertex   -3.399996e+001 6.000179e+001 1.965000e+003
      vertex   -2.944482e+001 4.300179e+001 1.975000e+003
    endloop
  endfacet
  facet normal -9.659257e-001 -2.588193e-001 1.661406e-012
    outer loop
      vertex   -2.944482e+001 4.300179e+001 1.975000e+003
      vertex   -3.399996e+001 6.000179e+001 1.965000e+003
      vertex   -2.944482e+001 4.300179e+001 1.965000e+003
    endloop
  endfacet
  facet normal -9.659259e-001 2.588189e-001 4.316748e-012
    outer loop
      vertex   -2.944483e+001 7.700179e+001 1.975000e+003
      vertex   -2.944483e+001 7.700179e+001 1.965000e+003
      vertex   -3.399996e+001 6.000179e+001 1.975000e+003
    endloop
  endfacet
  facet normal -9.659259e-001 2.588189e-001 0.000000e+000
    outer loop
      vertex   -3.399996e+001 6.000179e+001 1.975000e+003
      vertex   -2.944483e+001 7.700179e+001 1.965000e+003
      vertex   -3.399996e+001 6.000179e+001 1.965000e+003
    endloop
  endfacet
  facet normal -7.071070e-001 7.071066e-001 -4.317429e-012
    outer loop
      vertex   -2.944483e+001 7.700179e+001 1.975000e+003
      vertex   -1.699997e+001 8.944666e+001 1.975000e+003
      vertex   -2.944483e+001 7.700179e+001 1.965000e+003
    endloop
  endfacet
  facet normal -7.071070e-001 7.071066e-001 -7.190818e-010
    outer loop
      vertex   -2.944483e+001 7.700179e+001 1.965000e+003
      vertex   -1.699997e+001 8.944666e+001 1.975000e+003
      vertex   -1.699997e+001 8.944666e+001 1.965000e+003
    endloop
  endfacet
  facet normal -2.588197e-001 9.659257e-001 7.190864e-010
    outer loop
      vertex   -1.699997e+001 8.944666e+001 1.975000e+003
      vertex   8.072954e-006 9.400180e+001 1.975000e+003
      vertex   -1.699997e+001 8.944666e+001 1.965000e+003
    endloop
  endfacet
  facet normal -2.588197e-001 9.659257e-001 -7.521053e-012
    outer loop
      vertex   -1.699997e+001 8.944666e+001 1.965000e+003
      vertex   8.072954e-006 9.400180e+001 1.975000e+003
      vertex   8.073244e-006 9.400180e+001 1.965000e+003
    endloop
  endfacet
  facet normal 2.588180e-001 9.659261e-001 2.103363e-012
    outer loop
      vertex   1.700001e+001 8.944668e+001 1.975000e+003
      vertex   1.700001e+001 8.944668e+001 1.965000e+003
      vertex   8.072954e-006 9.400180e+001 1.975000e+003
    endloop
  endfacet
  facet normal 2.588180e-001 9.659261e-001 7.520985e-012
    outer loop
      vertex   8.072954e-006 9.400180e+001 1.975000e+003
      vertex   1.700001e+001 8.944668e+001 1.965000e+003
      vertex   8.073244e-006 9.400180e+001 1.965000e+003
    endloop
  endfacet
endsolid