ply
format ascii 1.0
comment VCGLIB generated
element vertex 48
property float x
property float y
property float z
property float nx
property float ny
property float nz
element face 92
property list uchar int vertex_indices
end_header
17 30.5569 1965 0.124344 -0.176898 -0.976343 
-23.8157 73.7518 1980 -0.0619471 0.0287497 0.997665 
13.75 36.1861 1980 0.1178 -0.204036 0.97185 
23.8157 46.2518 1980 0.0862667 -0.0400365 0.995467 
-27.5 60.0018 1980 -0.0905328 -0.00808606 0.995861 
-13.75 36.1861 1980 -0.170872 -0.295958 0.939793 
27.5 60.0018 1980 0.0969768 7.39874e-008 0.995287 
13.75 83.8175 1980 0.151869 0.216057 0.964498 
23.8157 73.7518 1980 0.162887 0.0755963 0.983744 
23.8157 73.7518 1975 0.476223 0.334744 0.813116 
13.75 83.8175 1975 0.318666 0.686632 0.653444 
2.4165e-005 87.5018 1980 0.0427302 0.478415 0.877094 
-13.75 83.8175 1980 -0.46917 0.812626 0.345714 
-13.75 83.8175 1975 -0.162631 0.281685 0.945624 
-23.8157 73.7518 1975 -0.619289 0.435306 0.653444 
-23.8157 46.2518 1980 -0.73486 -0.516544 0.439503 
-13.75 36.1861 1975 -0.344515 -0.596717 0.724733 
3.99986e-005 32.5018 1980 -0.0234941 -0.263045 0.964498 
13.75 36.1861 1975 0.214664 -0.371808 0.903149 
17 89.4467 1975 0.453279 0.644859 0.615382 
8.07295e-006 94.0018 1975 -4.08271e-007 0.909718 0.415226 
2.41519e-005 87.5018 1975 -0.0517849 0.579793 0.813117 
-17 89.4467 1975 -0.527981 0.751132 0.396279 
-27.5 60.0018 1975 -0.579793 0.051785 0.813116 
-29.4448 77.0018 1975 -0.561083 0.323941 0.76174 
-34 60.0018 1975 -0.851767 0.0760766 0.518367 
-23.8157 46.2518 1975 -0.417213 -0.193629 0.887942 
3.8e-005 26.0018 1975 -0.0760769 -0.851767 0.518367 
4e-005 32.5018 1975 0.0517853 -0.579793 0.813116 
27.5 60.0018 1975 0.689029 5.25687e-007 0.724734 
29.4449 77.0018 1975 0.77569 0.36 0.518367 
17 30.5569 1975 0.359999 -0.77569 0.518367 
23.8157 46.2518 1975 0.476223 -0.334744 0.813116 
34 60.0018 1975 0.851768 -0.0760766 0.518367 
29.4449 77.0018 1965 0.542487 0.381322 -0.748532 
34 60.0018 1965 0.403378 0.0360284 -0.914324 
29.4449 43.0018 1975 0.699614 -0.491768 0.518367 
29.4449 43.0018 1965 0.0915525 -0.0424897 -0.994893 
3.8e-005 26.0018 1965 0.0851523 -0.953377 -0.289518 
-17 30.5569 1965 -0.279147 -0.601479 -0.748532 
-29.4448 43.0018 1975 -0.832811 -0.386509 0.396279 
-17 30.5569 1975 -0.491768 -0.699614 0.518367 
-34 60.0018 1965 -0.173764 -0.0155201 -0.984665 
-29.4448 43.0018 1965 -0.331322 -0.232891 -0.914324 
-29.4448 77.0018 1965 -0.244363 0.141083 -0.959365 
-17 89.4467 1965 -0.0972239 0.209488 -0.972966 
8.07324e-006 94.0018 1965 -6.52959e-008 0.145494 -0.989359 
17 89.4467 1965 0.402944 0.868226 -0.289518 
3 47 34 46 
3 46 34 35 
3 37 46 35 
3 37 45 46 
3 37 44 45 
3 37 42 44 
3 37 0 42 
3 42 0 43 
3 43 0 39 
3 39 0 38 
3 3 6 1 
3 4 3 1 
3 4 2 3 
3 4 17 2 
3 4 5 17 
3 4 15 5 
3 6 8 1 
3 1 8 7 
3 11 1 7 
3 11 12 1 
3 6 29 8 
3 8 29 9 
3 8 9 7 
3 7 9 10 
3 7 10 11 
3 11 10 21 
3 11 21 12 
3 12 21 13 
3 1 12 14 
3 14 12 13 
3 4 1 23 
3 23 1 14 
3 15 4 26 
3 26 4 23 
3 5 15 16 
3 16 15 26 
3 5 16 17 
3 17 16 28 
3 17 28 2 
3 2 28 18 
3 3 2 32 
3 32 2 18 
3 6 3 29 
3 29 3 32 
3 19 9 30 
3 19 10 9 
3 19 21 10 
3 19 20 21 
3 21 20 13 
3 13 20 22 
3 24 13 22 
3 24 14 13 
3 24 23 14 
3 24 25 23 
3 23 25 26 
3 26 25 40 
3 41 26 40 
3 41 16 26 
3 41 27 16 
3 16 27 28 
3 28 27 31 
3 18 31 36 
3 32 36 33 
3 29 33 30 
3 9 29 30 
3 28 31 18 
3 18 36 32 
3 32 33 29 
3 30 34 19 
3 19 34 47 
3 33 35 30 
3 30 35 34 
3 36 37 33 
3 33 37 35 
3 31 0 36 
3 36 0 37 
3 27 38 31 
3 31 38 0 
3 41 39 27 
3 27 39 38 
3 40 43 41 
3 41 43 39 
3 25 42 40 
3 40 42 43 
3 24 44 25 
3 25 44 42 
3 24 22 44 
3 44 22 45 
3 22 20 45 
3 45 20 46 
3 19 47 20 
3 20 47 46 
