ply
format ascii 1.0
comment VCGLIB generated
element vertex 135
property float x
property float y
property float z
property float nx
property float ny
property float nz
element face 272
property list uchar int vertex_indices
end_header
-9.33009 130 1355 -0.113547 0.984347 0.134787 
9.33009 130 1325 0.00842021 0.999951 -0.00523743 
3.72111e-011 132.5 1325 0 0.999261 -0.0384331 
9.33009 130 1355 0.0798566 0.983102 0.164719 
7.30012e-011 132.5 1360 6.17332e-009 0.821777 0.569809 
36.25 122.787 1355 0.0893427 0.14151 0.985897 
80 130 1355 0.752395 0.548869 0.364203 
80 130 1305 0.739628 0.653733 0.159945 
-9.33009 130 1325 -0.0191929 0.999745 -0.0119381 
-62.7869 96.2501 1325 -0.908581 0.40756 -0.091521 
-62.7869 96.2501 1360 -0.1216 0.0605167 0.990733 
-50 109.037 1355 -0.840265 0.522211 0.145774 
-36.25 122.787 1355 -0.167711 0.32537 0.930595 
36.25 122.787 1360 0.0583436 0.0968868 0.993584 
62.7868 96.2501 1355 0.188607 0.132575 0.973063 
44.0369 5.00014 1355 0.292573 -0.850944 0.436227 
80 5.00014 1355 0.521207 -0.149954 0.840153 
80 25.0001 1280 0.191947 0.81786 -0.542458 
80 146.112 1250 0.00268368 0.753744 0.657163 
80 142.5 1253.61 0.878194 0.147958 0.454844 
80 5.00014 1343 0.989825 -0.0378946 0.137148 
80 -59.9999 1343 0.798669 -0.135599 0.586294 
80 -59.9999 1285 0.860927 -0.508729 0 
80 20.0001 1290 0.290914 -0.302551 -0.907652 
80 -44.9999 1273 0.972605 -0.232244 -0.0100684 
80 -44.9999 1100 0.982099 -0.182299 -0.0474189 
80 25.0001 1273 0.497468 0.497468 -0.710669 
80 5.00014 1290 0.970302 0.0764944 -0.229483 
80 20.0001 1285 0.0731507 -0.163959 0.983751 
80 15.0001 1273 0.983582 0.180057 -0.0121104 
-50 130 1355 -0.452487 0.877856 0.156923 
-50 130 1305 -0.459131 0.841934 0.283454 
-50 146.112 1250 -0.997151 0.0711143 0.025147 
-50 155 1250 -0.0654704 0.95761 0.280529 
-50 142.5 1106.39 -0.441445 0.458844 -0.771095 
-50 30.0001 1133.89 -0.965392 -0.260051 -0.0197758 
-50 0.000137101 1100 -0.889684 -0.238444 -0.389366 
-50 15.0001 1180 -0.999439 0.0334939 1.53904e-008 
-50 0.000139552 1273 -0.980336 -0.18644 -0.0646612 
-50 5.00014 1343 -0.830956 -0.0837219 0.550003 
-50 5.00014 1290 -0.904352 0.134962 -0.404885 
-50 10.9633 1325 -0.95491 -0.0442341 -0.293581 
-50 109.037 1325 -0.957598 0.0429252 -0.284893 
-50 26.388 1222.5 0.209007 -0.862258 0.461331 
-62.7868 23.7501 1325 -0.864793 -0.482292 -0.139742 
-72.5 60.0001 1325 -0.794902 -0.0709981 -0.60257 
72.5 60.0001 1355 0.197718 0.0176595 0.9801 
44.0368 5.00014 1343 0.155139 -0.871643 0.464941 
62.7868 23.7501 1355 0.292311 -0.122294 0.948471 
62.7868 23.7501 1360 0.0415131 -0.0280023 0.998746 
-50 30.0001 1280 0.167582 -0.981642 -0.0910818 
80 30.0001 1280 0.464551 -0.881759 -0.0818141 
80 30.0001 1226.11 0.143713 -0.951475 0.272108 
-50 30.0001 1226.11 0.0134341 -0.999384 0.0324086 
80 57.5001 1253.61 0.6194 -0.320317 0.716757 
110 100 1265 0.983234 -0.0162221 0.181623 
110 142.5 1253.61 0.938575 0.149393 0.31106 
80 100 1265 0.962636 0.024091 0.269724 
80 155 1250 0.0421947 0.958814 0.280882 
-44.0368 5.00014 1343 -0.478639 -0.845181 0.23785 
-50 -59.9999 1343 -0.901614 -0.176615 0.39484 
67 -66.9999 1343 0.0274907 -0.885662 0.463517 
67 -66.9999 1285 0.122954 -0.992412 0 
80 -59.9999 1273 0.49509 -0.443873 -0.746902 
65 -44.9999 1273 0.896509 -0.432746 -0.0948872 
-20 -44.9999 1100 -0.146745 -0.459816 -0.875806 
80 0.0001405 1100 0.319219 0 -0.947681 
-50 15.0001 1100 -0.353667 0.178785 -0.918126 
80 15.0001 1100 0.572687 0.289505 -0.766953 
70 25.0001 1273 0.0658892 0.997757 -0.0118335 
-50 25.0001 1280 0.529295 0.681078 -0.505944 
80 5.00014 1285 0.440519 0.497978 0.746967 
-50 5.00014 1285 -0.0517794 0.164178 0.985071 
-50 20.0001 1290 -0.906116 -0.133774 -0.401322 
-50 20.0001 1285 -0.99566 -0.0516227 0.077434 
-50 185 1180 -0.0472082 0.994924 -0.0888635 
-50 173.612 1222.5 -0.298397 0.840329 0.452556 
-50 173.612 1137.5 -0.256722 0.837 -0.483243 
-50 100 1095 -0.963083 0.121015 -0.24047 
-50 100 1090 -0.0383356 0.0711947 -0.996725 
80 100 1090 0.0743105 0.07105 -0.994701 
-50 30.0001 1090 -0.157324 -0.524584 -0.836696 
80 57.5 1106.39 0.730085 -0.331861 -0.597365 
80 30.0001 1133.89 0.0829996 -0.97769 -0.192962 
-50 26.388 1137.5 -0.0344975 -0.881187 -0.471507 
70 25.0001 1142.68 0.514551 0.714505 -0.474046 
-40 25.0001 1142.68 -0.126434 0.991595 -0.0274695 
-35 -44.9999 1273 -0.889125 -0.444562 -0.108728 
-50 -59.9999 1273 -0.97048 -0.145732 -0.192174 
-50 5.00014 1355 -0.66712 -0.667122 0.331512 
-36.25 -2.78671 1343 -0.15827 -0.415072 0.895916 
-44.0368 5.00014 1355 -0.538189 -0.839493 0.0748628 
-36.25 -2.78671 1360 -0.163158 -0.323168 0.932171 
-62.7868 23.7501 1360 -0.499643 -0.20195 0.842361 
-50 10.9633 1355 -0.781174 -0.623914 0.0223278 
-50 15.0001 1273 -0.387724 0.919698 -0.0618576 
-50 25.0001 1273 -0.497468 0.497468 -0.710669 
-40 25.0001 1273 -0.040767 0.999142 -0.00732164 
80 15.0001 1180 0.999744 -0.0226367 0 
110 15.0001 1180 0.169174 -0.985586 2.88017e-007 
70 25.0001 1217.32 0.153283 0.981288 0.116523 
110 26.388 1222.5 0.618051 -0.69121 0.374489 
-40 25.0001 1217.32 -0.219064 0.97492 0.0392723 
36.25 -2.7867 1343 0.0686002 -0.147761 0.986641 
1.09988e-005 -12.4999 1360 -0.0831769 -0.931263 0.354726 
110 26.388 1137.5 0.8722 -0.43008 -0.233022 
110 57.5 1106.39 0.909543 -0.204916 -0.361582 
110 57.5001 1253.61 0.984496 -0.0998425 0.144218 
110 142.5 1106.39 0.812095 0.280083 -0.511914 
110 185 1180 0.0472082 0.994925 0.0888614 
110 173.612 1222.5 0.502775 0.744583 0.439105 
110 173.612 1137.5 0.131656 0.858487 -0.495648 
-37 -66.9999 1273 -0.302799 -0.930024 -0.208251 
-37 -66.9999 1343 -0.042608 -0.815639 0.576991 
67 -66.9999 1273 0.211464 -0.453137 -0.865996 
-20 -66.9999 1273 -0.106082 -0.993955 -0.0282886 
-20 -66.9998 1153 -0.192287 -0.980666 -0.036321 
65 -66.9998 1153 0.0777158 -0.990878 -0.110097 
1.1e-005 -12.4999 1343 0.0130468 -0.146073 0.989188 
65 -66.9999 1273 0.205375 -0.978681 -0.00200823 
65 -56.9999 1123 0.680702 -0.668695 -0.299152 
65 -44.9999 1100 0.224081 -0.771222 -0.595822 
-35 -44.9999 1100 -0.705782 -0.705781 -0.0611948 
-20 -44.9999 1273 -0.784366 -0.619048 -0.0393614 
70 25.0001 1100 0.0421966 0.970523 -0.237288 
-40 25.0001 1100 -0.0812062 0.974474 -0.209299 
110 100 1095 0.992503 0 -0.122223 
80 30.0001 1090 0.214092 -0.518883 -0.827602 
80 100 1095 0.0128398 0.218178 -0.975825 
-20 -56.9999 1123 -0.461739 -0.827635 -0.319088 
-36.25 122.787 1360 -0.106195 0.192029 0.975627 
72.5 60.0001 1360 0.036071 -0.00322173 0.999344 
62.7868 96.2501 1360 0.0626558 0.0290787 0.997611 
-72.5 60.0001 1360 -0.202572 0.018093 0.9791 
36.25 -2.7867 1360 0.0559747 -0.14081 0.988453 
3 8 2 1 
3 130 4 0 
3 12 130 0 
3 8 0 2 
3 2 0 4 
3 1 2 3 
3 3 2 4 
3 13 3 4 
3 13 5 3 
3 3 6 1 
3 1 6 7 
3 31 1 7 
3 31 8 1 
3 31 30 8 
3 8 30 0 
3 0 30 12 
3 12 30 11 
3 42 9 11 
3 11 9 10 
3 130 11 10 
3 130 12 11 
3 132 14 13 
3 13 14 5 
3 15 16 48 
3 48 16 46 
3 46 16 6 
3 14 6 5 
3 14 46 6 
3 6 3 5 
3 51 23 17 
3 51 20 23 
3 51 57 20 
3 51 54 57 
3 51 52 54 
3 20 57 7 
3 6 20 7 
3 6 16 20 
3 18 58 19 
3 19 58 7 
3 57 19 7 
3 23 20 27 
3 27 20 21 
3 24 21 22 
3 63 24 22 
3 27 21 24 
3 71 24 29 
3 28 29 17 
3 23 28 17 
3 29 24 98 
3 98 24 25 
3 66 98 25 
3 66 68 98 
3 29 26 17 
3 71 27 24 
3 28 71 29 
3 33 31 58 
3 58 31 7 
3 11 30 42 
3 42 30 31 
3 74 31 32 
3 37 32 35 
3 84 37 35 
3 31 33 32 
3 76 34 32 
3 76 77 34 
3 76 75 77 
3 34 78 32 
3 32 78 35 
3 35 78 81 
3 81 78 79 
3 67 36 37 
3 37 36 38 
3 74 38 72 
3 74 37 38 
3 74 32 37 
3 72 38 40 
3 40 38 88 
3 60 40 88 
3 60 41 40 
3 60 39 41 
3 41 39 94 
3 94 39 89 
3 40 41 73 
3 73 41 42 
3 74 42 31 
3 74 73 42 
3 96 95 70 
3 70 95 37 
3 50 37 43 
3 53 50 43 
3 70 37 50 
3 44 45 41 
3 41 45 42 
3 42 45 9 
3 10 9 133 
3 133 9 45 
3 131 46 132 
3 132 46 14 
3 47 20 15 
3 15 20 16 
3 49 48 131 
3 131 48 46 
3 49 134 15 
3 48 49 15 
3 47 15 103 
3 103 15 134 
3 50 51 70 
3 70 51 17 
3 52 51 53 
3 53 51 50 
3 53 43 52 
3 52 43 101 
3 107 52 101 
3 107 54 52 
3 107 55 54 
3 54 55 57 
3 55 56 57 
3 57 56 19 
3 19 56 18 
3 18 56 110 
3 76 18 110 
3 76 32 18 
3 33 58 32 
3 32 58 18 
3 59 39 90 
3 90 39 60 
3 118 60 113 
3 61 118 113 
3 61 21 118 
3 118 21 103 
3 103 21 20 
3 47 103 20 
3 90 60 118 
3 61 62 21 
3 21 62 22 
3 22 62 63 
3 63 62 114 
3 24 63 64 
3 64 63 114 
3 119 64 114 
3 25 24 121 
3 121 24 64 
3 25 121 66 
3 66 121 65 
3 36 65 122 
3 36 66 65 
3 36 67 66 
3 66 67 68 
3 68 67 124 
3 124 67 125 
3 98 68 85 
3 85 68 124 
3 69 29 100 
3 100 29 98 
3 69 26 29 
3 102 97 100 
3 100 97 69 
3 69 97 70 
3 17 69 70 
3 17 26 69 
3 97 96 70 
3 27 71 40 
3 40 71 72 
3 73 23 40 
3 40 23 27 
3 28 23 74 
3 74 23 73 
3 71 28 72 
3 72 28 74 
3 75 76 109 
3 109 76 110 
3 77 75 111 
3 111 75 109 
3 77 111 34 
3 34 111 108 
3 78 34 128 
3 128 34 108 
3 126 128 108 
3 128 80 78 
3 78 80 79 
3 79 80 81 
3 81 80 127 
3 35 81 83 
3 83 81 127 
3 82 106 83 
3 83 106 105 
3 84 83 105 
3 84 35 83 
3 37 84 86 
3 86 84 85 
3 85 84 105 
3 99 85 105 
3 99 98 85 
3 125 67 86 
3 86 67 37 
3 38 36 87 
3 87 36 122 
3 123 115 87 
3 87 115 112 
3 88 87 112 
3 88 38 87 
3 88 112 60 
3 60 112 113 
3 89 39 91 
3 91 39 59 
3 94 89 91 
3 59 90 91 
3 91 90 92 
3 94 92 93 
3 44 94 93 
3 44 41 94 
3 91 92 94 
3 95 96 97 
3 37 95 102 
3 102 95 97 
3 98 99 100 
3 100 99 101 
3 43 100 101 
3 43 102 100 
3 43 37 102 
3 133 45 93 
3 93 45 44 
3 103 134 118 
3 118 134 104 
3 99 105 101 
3 101 105 107 
3 107 105 106 
3 126 107 106 
3 126 55 107 
3 126 108 55 
3 55 108 56 
3 56 108 110 
3 110 108 111 
3 109 110 111 
3 112 115 113 
3 113 115 61 
3 61 115 62 
3 62 115 119 
3 114 62 119 
3 115 116 119 
3 119 116 117 
3 118 104 90 
3 90 104 92 
3 117 120 119 
3 119 120 64 
3 64 120 121 
3 129 65 120 
3 120 65 121 
3 87 122 123 
3 123 122 65 
3 85 124 86 
3 86 124 125 
3 126 106 128 
3 128 106 82 
3 83 127 82 
3 82 127 80 
3 128 82 80 
3 115 123 116 
3 116 123 129 
3 129 123 65 
3 116 129 117 
3 117 129 120 
3 4 130 13 
3 13 130 10 
3 132 10 131 
3 132 13 10 
3 10 133 131 
3 131 133 49 
3 49 133 134 
3 134 133 93 
3 92 134 93 
3 92 104 134 
