solid ascii
  facet normal 1.000000e+000 1.730788e-017 -6.459478e-017
    outer loop
      vertex   1.150000e+002 1.550000e+002 3.347370e+002
      vertex   1.150000e+002 9.999994e+001 5.400000e+002
      vertex   1.150000e+002 1.000001e+002 3.200000e+002
    endloop
  endfacet
  facet normal 1.000000e+000 2.583782e-016 -1.685715e-022
    outer loop
      vertex   1.150000e+002 1.550000e+002 3.347370e+002
      vertex   1.150000e+002 1.550001e+002 5.252629e+002
      vertex   1.150000e+002 9.999994e+001 5.400000e+002
    endloop
  endfacet
  facet normal 1.000000e+000 0.000000e+000 -0.000000e+000
    outer loop
      vertex   1.150000e+002 1.550000e+002 3.347370e+002
      vertex   1.150000e+002 1.952629e+002 4.849999e+002
      vertex   1.150000e+002 1.550001e+002 5.252629e+002
    endloop
  endfacet
  facet normal 1.000000e+000 0.000000e+000 0.000000e+000
    outer loop
      vertex   1.150000e+002 1.550000e+002 3.347370e+002
      vertex   1.150000e+002 1.952628e+002 3.750000e+002
      vertex   1.150000e+002 1.952629e+002 4.849999e+002
    endloop
  endfacet
  facet normal 1.000000e+000 -0.000000e+000 0.000000e+000
    outer loop
      vertex   1.150000e+002 1.952629e+002 4.849999e+002
      vertex   1.150000e+002 1.952628e+002 3.750000e+002
      vertex   1.150000e+002 2.100001e+002 4.300000e+002
    endloop
  endfacet
  facet normal 1.000000e+000 -2.410714e-016 -6.459492e-017
    outer loop
      vertex   1.150000e+002 9.999994e+001 5.400000e+002
      vertex   1.150000e+002 4.499999e+001 5.252629e+002
      vertex   1.150000e+002 1.000001e+002 3.200000e+002
    endloop
  endfacet
  facet normal 1.000000e+000 0.000000e+000 0.000000e+000
    outer loop
      vertex   1.150000e+002 1.000001e+002 3.200000e+002
      vertex   1.150000e+002 4.499999e+001 5.252629e+002
      vertex   1.150000e+002 4.500007e+001 3.347370e+002
    endloop
  endfacet
  facet normal 1.000000e+000 0.000000e+000 0.000000e+000
    outer loop
      vertex   1.150000e+002 4.500007e+001 3.347370e+002
      vertex   1.150000e+002 4.499999e+001 5.252629e+002
      vertex   1.150000e+002 4.737282e+000 3.750000e+002
    endloop
  endfacet
  facet normal 1.000000e+000 0.000000e+000 -0.000000e+000
    outer loop
      vertex   1.150000e+002 4.737282e+000 3.750000e+002
      vertex   1.150000e+002 4.499999e+001 5.252629e+002
      vertex   1.150000e+002 4.737230e+000 4.850000e+002
    endloop
  endfacet
  facet normal 1.000000e+000 -0.000000e+000 -0.000000e+000
    outer loop
      vertex   1.150000e+002 -9.999945e+000 4.300000e+002
      vertex   1.150000e+002 4.737282e+000 3.750000e+002
      vertex   1.150000e+002 4.737230e+000 4.850000e+002
    endloop
  endfacet
  facet normal 1.988163e-011 7.071087e-001 7.071049e-001
    outer loop
      vertex   1.000000e+002 1.550001e+002 5.252629e+002
      vertex   1.150000e+002 1.550001e+002 5.252629e+002
      vertex   1.000000e+002 1.802629e+002 5.000000e+002
    endloop
  endfacet
  facet normal 2.856988e-011 7.071087e-001 7.071049e-001
    outer loop
      vertex   1.000000e+002 1.802629e+002 5.000000e+002
      vertex   1.150000e+002 1.550001e+002 5.252629e+002
      vertex   1.150000e+002 1.952629e+002 4.849999e+002
    endloop
  endfacet
  facet normal -7.495690e-015 7.071087e-001 7.071049e-001
    outer loop
      vertex   -7.000000e+001 1.952629e+002 4.849999e+002
      vertex   1.000000e+002 1.802629e+002 5.000000e+002
      vertex   1.150000e+002 1.952629e+002 4.849999e+002
    endloop
  endfacet
  facet normal 1.235164e-012 7.071087e-001 7.071049e-001
    outer loop
      vertex   -7.000000e+001 1.952629e+002 4.849999e+002
      vertex   -7.000000e+001 1.802629e+002 5.000000e+002
      vertex   1.000000e+002 1.802629e+002 5.000000e+002
    endloop
  endfacet
  facet normal 4.178321e-012 2.588166e-001 9.659265e-001
    outer loop
      vertex   1.000000e+002 9.999994e+001 5.400000e+002
      vertex   1.150000e+002 9.999994e+001 5.400000e+002
      vertex   1.000000e+002 1.550001e+002 5.252629e+002
    endloop
  endfacet
  facet normal -1.293274e-011 2.588166e-001 9.659265e-001
    outer loop
      vertex   1.000000e+002 1.550001e+002 5.252629e+002
      vertex   1.150000e+002 9.999994e+001 5.400000e+002
      vertex   1.150000e+002 1.550001e+002 5.252629e+002
    endloop
  endfacet
  facet normal -4.760528e-010 -2.588164e-001 9.659265e-001
    outer loop
      vertex   1.000000e+002 4.499999e+001 5.252629e+002
      vertex   1.150000e+002 4.499999e+001 5.252629e+002
      vertex   1.000000e+002 9.999994e+001 5.400000e+002
    endloop
  endfacet
  facet normal -4.324778e-012 -2.588164e-001 9.659265e-001
    outer loop
      vertex   1.000000e+002 9.999994e+001 5.400000e+002
      vertex   1.150000e+002 4.499999e+001 5.252629e+002
      vertex   1.150000e+002 9.999994e+001 5.400000e+002
    endloop
  endfacet
  facet normal 2.165500e-012 -7.071086e-001 7.071050e-001
    outer loop
      vertex   -7.000000e+001 1.973718e+001 5.000000e+002
      vertex   -7.000000e+001 4.737230e+000 4.850000e+002
      vertex   1.000000e+002 1.973718e+001 5.000000e+002
    endloop
  endfacet
  facet normal 0.000000e+000 -7.071086e-001 7.071050e-001
    outer loop
      vertex   1.000000e+002 1.973718e+001 5.000000e+002
      vertex   -7.000000e+001 4.737230e+000 4.850000e+002
      vertex   1.150000e+002 4.737230e+000 4.850000e+002
    endloop
  endfacet
  facet normal 1.314595e-008 -7.071086e-001 7.071050e-001
    outer loop
      vertex   1.150000e+002 4.499999e+001 5.252629e+002
      vertex   1.000000e+002 1.973718e+001 5.000000e+002
      vertex   1.150000e+002 4.737230e+000 4.850000e+002
    endloop
  endfacet
  facet normal 4.789456e-010 -7.071086e-001 7.071050e-001
    outer loop
      vertex   1.150000e+002 4.499999e+001 5.252629e+002
      vertex   1.000000e+002 4.499999e+001 5.252629e+002
      vertex   1.000000e+002 1.973718e+001 5.000000e+002
    endloop
  endfacet
  facet normal 1.000000e+000 -0.000000e+000 -0.000000e+000
    outer loop
      vertex   -5.000000e+001 2.500005e+001 1.180000e+003
      vertex   -5.000000e+001 3.504816e+001 1.142500e+003
      vertex   -5.000000e+001 3.504813e+001 1.217500e+003
    endloop
  endfacet
  facet normal 1.000000e+000 -0.000000e+000 0.000000e+000
    outer loop
      vertex   -5.000000e+001 3.504813e+001 1.217500e+003
      vertex   -5.000000e+001 3.504816e+001 1.142500e+003
      vertex   -5.000000e+001 6.250018e+001 1.244952e+003
    endloop
  endfacet
  facet normal 1.000000e+000 0.000000e+000 0.000000e+000
    outer loop
      vertex   -5.000000e+001 6.250018e+001 1.244952e+003
      vertex   -5.000000e+001 3.504816e+001 1.142500e+003
      vertex   -5.000000e+001 6.250016e+001 1.115048e+003
    endloop
  endfacet
  facet normal 1.000000e+000 0.000000e+000 0.000000e+000
    outer loop
      vertex   -5.000000e+001 9.999994e+001 1.105000e+003
      vertex   -5.000000e+001 6.250018e+001 1.244952e+003
      vertex   -5.000000e+001 6.250016e+001 1.115048e+003
    endloop
  endfacet
  facet normal 1.000000e+000 0.000000e+000 0.000000e+000
    outer loop
      vertex   -5.000000e+001 9.999994e+001 1.105000e+003
      vertex   -5.000000e+001 9.999983e+001 1.255000e+003
      vertex   -5.000000e+001 6.250018e+001 1.244952e+003
    endloop
  endfacet
  facet normal 1.000000e+000 0.000000e+000 -0.000000e+000
    outer loop
      vertex   -5.000000e+001 9.999994e+001 1.105000e+003
      vertex   -5.000000e+001 1.375000e+002 1.115048e+003
      vertex   -5.000000e+001 9.999983e+001 1.255000e+003
    endloop
  endfacet
  facet normal 1.000000e+000 -0.000000e+000 0.000000e+000
    outer loop
      vertex   -5.000000e+001 9.999983e+001 1.255000e+003
      vertex   -5.000000e+001 1.375000e+002 1.115048e+003
      vertex   -5.000000e+001 1.375002e+002 1.244952e+003
    endloop
  endfacet
  facet normal 1.000000e+000 -0.000000e+000 0.000000e+000
    outer loop
      vertex   -5.000000e+001 1.375002e+002 1.244952e+003
      vertex   -5.000000e+001 1.375000e+002 1.115048e+003
      vertex   -5.000000e+001 1.649519e+002 1.217500e+003
    endloop
  endfacet
  facet normal 1.000000e+000 -0.000000e+000 0.000000e+000
    outer loop
      vertex   -5.000000e+001 1.649519e+002 1.217500e+003
      vertex   -5.000000e+001 1.375000e+002 1.115048e+003
      vertex   -5.000000e+001 1.649520e+002 1.142500e+003
    endloop
  endfacet
  facet normal 1.000000e+000 0.000000e+000 0.000000e+000
    outer loop
      vertex   -5.000000e+001 1.750001e+002 1.180000e+003
      vertex   -5.000000e+001 1.649519e+002 1.217500e+003
      vertex   -5.000000e+001 1.649520e+002 1.142500e+003
    endloop
  endfacet
  facet normal -4.637604e-010 -9.659260e-001 2.588185e-001
    outer loop
      vertex   -5.000000e+001 2.500005e+001 1.180000e+003
      vertex   -5.000000e+001 3.504813e+001 1.217500e+003
      vertex   -1.350000e+002 2.500005e+001 1.180000e+003
    endloop
  endfacet
  facet normal -1.263210e-007 -9.659259e-001 2.588188e-001
    outer loop
      vertex   -1.350000e+002 2.500005e+001 1.180000e+003
      vertex   -5.000000e+001 3.504813e+001 1.217500e+003
      vertex   -1.350000e+002 3.504814e+001 1.217500e+003
    endloop
  endfacet
  facet normal -2.237829e-011 -9.659257e-001 -2.588194e-001
    outer loop
      vertex   -6.688889e+001 3.504816e+001 1.142500e+003
      vertex   -5.000000e+001 3.504816e+001 1.142500e+003
      vertex   -7.107551e+001 3.000005e+001 1.161340e+003
    endloop
  endfacet
  facet normal 8.655582e-009 -9.659257e-001 -2.588194e-001
    outer loop
      vertex   -7.107551e+001 3.000005e+001 1.161340e+003
      vertex   -5.000000e+001 3.504816e+001 1.142500e+003
      vertex   -5.000000e+001 2.500005e+001 1.180000e+003
    endloop
  endfacet
  facet normal -1.458183e-009 -9.659257e-001 -2.588194e-001
    outer loop
      vertex   -1.350000e+002 2.500005e+001 1.180000e+003
      vertex   -7.107551e+001 3.000005e+001 1.161340e+003
      vertex   -5.000000e+001 2.500005e+001 1.180000e+003
    endloop
  endfacet
  facet normal -1.212494e-011 -9.659257e-001 -2.588194e-001
    outer loop
      vertex   -1.350000e+002 2.500005e+001 1.180000e+003
      vertex   -1.230000e+002 3.000007e+001 1.161340e+003
      vertex   -7.107551e+001 3.000005e+001 1.161340e+003
    endloop
  endfacet
  facet normal 2.679372e-008 -9.659257e-001 -2.588194e-001
    outer loop
      vertex   -1.350000e+002 2.500005e+001 1.180000e+003
      vertex   -1.350000e+002 3.504816e+001 1.142500e+003
      vertex   -1.230000e+002 3.000007e+001 1.161340e+003
    endloop
  endfacet
  facet normal 9.474905e-008 -9.659257e-001 -2.588194e-001
    outer loop
      vertex   -1.230000e+002 3.000007e+001 1.161340e+003
      vertex   -1.350000e+002 3.504816e+001 1.142500e+003
      vertex   -1.230000e+002 3.504816e+001 1.142500e+003
    endloop
  endfacet
  facet normal 1.353446e-011 -7.071075e-001 -7.071061e-001
    outer loop
      vertex   -5.000000e+001 6.250016e+001 1.115048e+003
      vertex   -5.000000e+001 3.504816e+001 1.142500e+003
      vertex   -6.078843e+001 6.250016e+001 1.115048e+003
    endloop
  endfacet
  facet normal 2.288770e-011 -7.071075e-001 -7.071061e-001
    outer loop
      vertex   -6.078843e+001 6.250016e+001 1.115048e+003
      vertex   -5.000000e+001 3.504816e+001 1.142500e+003
      vertex   -6.688889e+001 3.504816e+001 1.142500e+003
    endloop
  endfacet
  facet normal 7.181131e-012 -2.588162e-001 -9.659266e-001
    outer loop
      vertex   -5.000000e+001 9.999994e+001 1.105000e+003
      vertex   -5.000000e+001 6.250016e+001 1.115048e+003
      vertex   -5.855556e+001 9.999994e+001 1.105000e+003
    endloop
  endfacet
  facet normal -1.436016e-011 -2.588162e-001 -9.659266e-001
    outer loop
      vertex   -5.855556e+001 9.999994e+001 1.105000e+003
      vertex   -5.000000e+001 6.250016e+001 1.115048e+003
      vertex   -6.078843e+001 6.250016e+001 1.115048e+003
    endloop
  endfacet
  facet normal 8.580360e-012 2.588161e-001 -9.659266e-001
    outer loop
      vertex   -6.078845e+001 1.375000e+002 1.115048e+003
      vertex   -5.000000e+001 1.375000e+002 1.115048e+003
      vertex   -5.855556e+001 9.999994e+001 1.105000e+003
    endloop
  endfacet
  facet normal -5.589499e-012 2.588161e-001 -9.659266e-001
    outer loop
      vertex   -5.855556e+001 9.999994e+001 1.105000e+003
      vertex   -5.000000e+001 1.375000e+002 1.115048e+003
      vertex   -5.000000e+001 9.999994e+001 1.105000e+003
    endloop
  endfacet
  facet normal 2.009254e-011 7.071076e-001 -7.071060e-001
    outer loop
      vertex   -6.688889e+001 1.649520e+002 1.142500e+003
      vertex   -5.000000e+001 1.649520e+002 1.142500e+003
      vertex   -6.078845e+001 1.375000e+002 1.115048e+003
    endloop
  endfacet
  facet normal -9.211895e-012 7.071076e-001 -7.071060e-001
    outer loop
      vertex   -6.078845e+001 1.375000e+002 1.115048e+003
      vertex   -5.000000e+001 1.649520e+002 1.142500e+003
      vertex   -5.000000e+001 1.375000e+002 1.115048e+003
    endloop
  endfacet
  facet normal -1.084706e-007 9.659258e-001 -2.588190e-001
    outer loop
      vertex   -5.000000e+001 1.750001e+002 1.180000e+003
      vertex   -7.107549e+001 1.700000e+002 1.161340e+003
      vertex   -1.350000e+002 1.750000e+002 1.180000e+003
    endloop
  endfacet
  facet normal 8.824521e-012 9.659258e-001 -2.588191e-001
    outer loop
      vertex   -5.000000e+001 1.750001e+002 1.180000e+003
      vertex   -5.000000e+001 1.649520e+002 1.142500e+003
      vertex   -7.107549e+001 1.700000e+002 1.161340e+003
    endloop
  endfacet
  facet normal 1.255810e-011 9.659258e-001 -2.588191e-001
    outer loop
      vertex   -7.107549e+001 1.700000e+002 1.161340e+003
      vertex   -5.000000e+001 1.649520e+002 1.142500e+003
      vertex   -6.688889e+001 1.649520e+002 1.142500e+003
    endloop
  endfacet
  facet normal 9.101479e-014 9.659259e-001 -2.588186e-001
    outer loop
      vertex   -7.107549e+001 1.700000e+002 1.161340e+003
      vertex   -1.230000e+002 1.700000e+002 1.161340e+003
      vertex   -1.350000e+002 1.750000e+002 1.180000e+003
    endloop
  endfacet
  facet normal -1.029859e-006 9.659258e-001 -2.588192e-001
    outer loop
      vertex   -1.350000e+002 1.750000e+002 1.180000e+003
      vertex   -1.230000e+002 1.700000e+002 1.161340e+003
      vertex   -1.350000e+002 1.649519e+002 1.142500e+003
    endloop
  endfacet
  facet normal -1.293866e-006 9.659258e-001 -2.588191e-001
    outer loop
      vertex   -1.350000e+002 1.649519e+002 1.142500e+003
      vertex   -1.230000e+002 1.700000e+002 1.161340e+003
      vertex   -1.230000e+002 1.649520e+002 1.142500e+003
    endloop
  endfacet
  facet normal 5.151521e-007 9.659258e-001 2.588191e-001
    outer loop
      vertex   -5.000000e+001 1.649519e+002 1.217500e+003
      vertex   -5.000000e+001 1.750001e+002 1.180000e+003
      vertex   -1.350000e+002 1.649520e+002 1.217500e+003
    endloop
  endfacet
  facet normal -1.789593e-008 9.659261e-001 2.588179e-001
    outer loop
      vertex   -1.350000e+002 1.649520e+002 1.217500e+003
      vertex   -5.000000e+001 1.750001e+002 1.180000e+003
      vertex   -1.350000e+002 1.750000e+002 1.180000e+003
    endloop
  endfacet
  facet normal -8.936303e-008 7.071068e-001 7.071068e-001
    outer loop
      vertex   -5.000000e+001 1.375002e+002 1.244952e+003
      vertex   -5.000000e+001 1.649519e+002 1.217500e+003
      vertex   -1.350000e+002 1.375001e+002 1.244952e+003
    endloop
  endfacet
  facet normal -1.663284e-007 7.071069e-001 7.071067e-001
    outer loop
      vertex   -1.350000e+002 1.375001e+002 1.244952e+003
      vertex   -5.000000e+001 1.649519e+002 1.217500e+003
      vertex   -1.350000e+002 1.649520e+002 1.217500e+003
    endloop
  endfacet
  facet normal 7.576677e-007 2.588190e-001 9.659258e-001
    outer loop
      vertex   -5.000000e+001 9.999983e+001 1.255000e+003
      vertex   -5.000000e+001 1.375002e+002 1.244952e+003
      vertex   -1.350000e+002 9.999996e+001 1.255000e+003
    endloop
  endfacet
  facet normal 5.386648e-007 2.588195e-001 9.659257e-001
    outer loop
      vertex   -1.350000e+002 9.999996e+001 1.255000e+003
      vertex   -5.000000e+001 1.375002e+002 1.244952e+003
      vertex   -1.350000e+002 1.375001e+002 1.244952e+003
    endloop
  endfacet
  facet normal -2.481577e-008 -2.588188e-001 9.659259e-001
    outer loop
      vertex   -5.000000e+001 9.999983e+001 1.255000e+003
      vertex   -1.350000e+002 9.999996e+001 1.255000e+003
      vertex   -5.000000e+001 6.250018e+001 1.244952e+003
    endloop
  endfacet
  facet normal -2.116116e-007 -2.588192e-001 9.659258e-001
    outer loop
      vertex   -5.000000e+001 6.250018e+001 1.244952e+003
      vertex   -1.350000e+002 9.999996e+001 1.255000e+003
      vertex   -1.350000e+002 6.250005e+001 1.244952e+003
    endloop
  endfacet
  facet normal 6.489973e-007 -7.071070e-001 7.071066e-001
    outer loop
      vertex   -5.000000e+001 6.250018e+001 1.244952e+003
      vertex   -1.350000e+002 6.250005e+001 1.244952e+003
      vertex   -5.000000e+001 3.504813e+001 1.217500e+003
    endloop
  endfacet
  facet normal 3.708901e-012 -7.071080e-001 7.071056e-001
    outer loop
      vertex   -5.000000e+001 3.504813e+001 1.217500e+003
      vertex   -1.350000e+002 6.250005e+001 1.244952e+003
      vertex   -1.350000e+002 3.504814e+001 1.217500e+003
    endloop
  endfacet
  facet normal -8.494590e-001 -5.096753e-001 1.365669e-001
    outer loop
      vertex   -1.350000e+002 3.504814e+001 1.217500e+003
      vertex   -1.620000e+002 7.401929e+001 1.195000e+003
      vertex   -1.350000e+002 2.500005e+001 1.180000e+003
    endloop
  endfacet
  facet normal -8.494589e-001 -5.096754e-001 1.365671e-001
    outer loop
      vertex   -1.350000e+002 2.500005e+001 1.180000e+003
      vertex   -1.620000e+002 7.401929e+001 1.195000e+003
      vertex   -1.620000e+002 7.000005e+001 1.180000e+003
    endloop
  endfacet
  facet normal -8.494589e-001 -5.096753e-001 -1.365671e-001
    outer loop
      vertex   -1.350000e+002 3.504816e+001 1.142500e+003
      vertex   -1.350000e+002 2.500005e+001 1.180000e+003
      vertex   -1.620000e+002 7.401930e+001 1.165000e+003
    endloop
  endfacet
  facet normal -8.494589e-001 -5.096753e-001 -1.365672e-001
    outer loop
      vertex   -1.620000e+002 7.401930e+001 1.165000e+003
      vertex   -1.350000e+002 2.500005e+001 1.180000e+003
      vertex   -1.620000e+002 7.000005e+001 1.180000e+003
    endloop
  endfacet
  facet normal 4.014662e-006 -7.071075e-001 -7.071061e-001
    outer loop
      vertex   -1.230000e+002 6.250016e+001 1.115048e+003
      vertex   -1.230000e+002 3.504816e+001 1.142500e+003
      vertex   -1.350000e+002 6.250005e+001 1.115048e+003
    endloop
  endfacet
  facet normal -1.883079e-008 -7.071083e-001 -7.071052e-001
    outer loop
      vertex   -1.350000e+002 6.250005e+001 1.115048e+003
      vertex   -1.230000e+002 3.504816e+001 1.142500e+003
      vertex   -1.350000e+002 3.504816e+001 1.142500e+003
    endloop
  endfacet
  facet normal -1.000000e+000 1.427288e-006 -3.824407e-007
    outer loop
      vertex   -1.230000e+002 1.700000e+002 1.161340e+003
      vertex   -1.229999e+002 1.700000e+002 9.500000e+002
      vertex   -1.230000e+002 1.649520e+002 1.142500e+003
    endloop
  endfacet
  facet normal -1.000000e+000 4.091413e-007 -4.091403e-007
    outer loop
      vertex   -1.230000e+002 1.649520e+002 1.142500e+003
      vertex   -1.229999e+002 1.700000e+002 9.500000e+002
      vertex   -1.230000e+002 1.375000e+002 1.115048e+003
    endloop
  endfacet
  facet normal -1.000000e+000 1.246384e-007 -4.651625e-007
    outer loop
      vertex   -1.230000e+002 1.375000e+002 1.115048e+003
      vertex   -1.229999e+002 1.700000e+002 9.500000e+002
      vertex   -1.230000e+002 9.999994e+001 1.105000e+003
    endloop
  endfacet
  facet normal -1.000000e+000 2.886602e-007 -3.910880e-007
    outer loop
      vertex   -1.230000e+002 9.999994e+001 1.105000e+003
      vertex   -1.229999e+002 1.700000e+002 9.500000e+002
      vertex   -1.230000e+002 3.000005e+001 9.500000e+002
    endloop
  endfacet
  facet normal -1.000000e+000 -2.045707e-007 -2.045703e-007
    outer loop
      vertex   -1.230000e+002 6.250016e+001 1.115048e+003
      vertex   -1.230000e+002 3.000005e+001 9.500000e+002
      vertex   -1.230000e+002 3.504816e+001 1.142500e+003
    endloop
  endfacet
  facet normal -1.000000e+000 -6.231929e-008 -2.325815e-007
    outer loop
      vertex   -1.230000e+002 6.250016e+001 1.115048e+003
      vertex   -1.230000e+002 9.999994e+001 1.105000e+003
      vertex   -1.230000e+002 3.000005e+001 9.500000e+002
    endloop
  endfacet
  facet normal -1.000000e+000 -7.136431e-007 -1.912204e-007
    outer loop
      vertex   -1.230000e+002 3.000005e+001 9.500000e+002
      vertex   -1.230000e+002 3.000007e+001 1.161340e+003
      vertex   -1.230000e+002 3.504816e+001 1.142500e+003
    endloop
  endfacet
  facet normal -2.529328e-007 -1.000000e+000 6.214597e-008
    outer loop
      vertex   -1.230000e+002 3.000007e+001 1.161340e+003
      vertex   -1.230000e+002 3.000005e+001 9.500000e+002
      vertex   -7.107551e+001 3.000005e+001 1.161340e+003
    endloop
  endfacet
  facet normal -1.229036e-012 -1.000000e+000 2.765332e-012
    outer loop
      vertex   -7.107551e+001 3.000005e+001 1.161340e+003
      vertex   -1.230000e+002 3.000005e+001 9.500000e+002
      vertex   -3.300000e+001 3.000005e+001 9.900000e+002
    endloop
  endfacet
  facet normal -3.947455e-017 -1.000000e+000 8.881775e-017
    outer loop
      vertex   -3.300000e+001 3.000005e+001 9.900000e+002
      vertex   -1.230000e+002 3.000005e+001 9.500000e+002
      vertex   -3.300000e+001 3.000005e+001 9.499999e+002
    endloop
  endfacet
  facet normal 9.761871e-001 8.173469e-011 2.169305e-001
    outer loop
      vertex   -7.107551e+001 3.000005e+001 1.161340e+003
      vertex   -3.300000e+001 3.000005e+001 9.900000e+002
      vertex   -6.688889e+001 3.504816e+001 1.142500e+003
    endloop
  endfacet
  facet normal 9.761871e-001 1.882846e-011 2.169305e-001
    outer loop
      vertex   -6.688889e+001 3.504816e+001 1.142500e+003
      vertex   -3.300000e+001 3.000005e+001 9.900000e+002
      vertex   -6.078843e+001 6.250016e+001 1.115048e+003
    endloop
  endfacet
  facet normal 9.761871e-001 -1.276238e-011 2.169305e-001
    outer loop
      vertex   -6.078843e+001 6.250016e+001 1.115048e+003
      vertex   -3.300000e+001 3.000005e+001 9.900000e+002
      vertex   -5.855556e+001 9.999994e+001 1.105000e+003
    endloop
  endfacet
  facet normal 9.761871e-001 -8.254257e-009 2.169305e-001
    outer loop
      vertex   -5.855556e+001 9.999994e+001 1.105000e+003
      vertex   -3.300000e+001 3.000005e+001 9.900000e+002
      vertex   -3.300000e+001 1.600001e+002 9.900000e+002
    endloop
  endfacet
  facet normal 9.761871e-001 1.122165e-007 2.169305e-001
    outer loop
      vertex   -6.078845e+001 1.375000e+002 1.115048e+003
      vertex   -3.300000e+001 1.600001e+002 9.900000e+002
      vertex   -3.300000e+001 1.700001e+002 9.900000e+002
    endloop
  endfacet
  facet normal 9.761871e-001 1.052336e-009 2.169305e-001
    outer loop
      vertex   -6.688889e+001 1.649520e+002 1.142500e+003
      vertex   -3.300000e+001 1.700001e+002 9.900000e+002
      vertex   -7.107549e+001 1.700000e+002 1.161340e+003
    endloop
  endfacet
  facet normal 9.761871e-001 3.076337e-010 2.169305e-001
    outer loop
      vertex   -6.688889e+001 1.649520e+002 1.142500e+003
      vertex   -6.078845e+001 1.375000e+002 1.115048e+003
      vertex   -3.300000e+001 1.700001e+002 9.900000e+002
    endloop
  endfacet
  facet normal 9.761871e-001 -2.190345e-009 2.169305e-001
    outer loop
      vertex   -5.855556e+001 9.999994e+001 1.105000e+003
      vertex   -3.300000e+001 1.600001e+002 9.900000e+002
      vertex   -6.078845e+001 1.375000e+002 1.115048e+003
    endloop
  endfacet
  facet normal -1.020290e-011 1.000000e+000 1.069409e-012
    outer loop
      vertex   -1.230000e+002 1.700000e+002 1.161340e+003
      vertex   -7.107549e+001 1.700000e+002 1.161340e+003
      vertex   -1.229999e+002 1.700000e+002 9.500000e+002
    endloop
  endfacet
  facet normal -9.355928e-008 1.000000e+000 2.298531e-008
    outer loop
      vertex   -1.229999e+002 1.700000e+002 9.500000e+002
      vertex   -7.107549e+001 1.700000e+002 1.161340e+003
      vertex   -3.300000e+001 1.700001e+002 9.900000e+002
    endloop
  endfacet
  facet normal -1.111112e-007 1.000000e+000 6.247711e-008
    outer loop
      vertex   -3.300000e+001 1.700001e+002 9.500000e+002
      vertex   -1.229999e+002 1.700000e+002 9.500000e+002
      vertex   -3.300000e+001 1.700001e+002 9.900000e+002
    endloop
  endfacet
  facet normal 8.749082e-007 7.071076e-001 -7.071060e-001
    outer loop
      vertex   -1.230000e+002 1.375000e+002 1.115048e+003
      vertex   -1.350000e+002 1.375001e+002 1.115048e+003
      vertex   -1.230000e+002 1.649520e+002 1.142500e+003
    endloop
  endfacet
  facet normal -2.994406e-011 7.071078e-001 -7.071058e-001
    outer loop
      vertex   -1.230000e+002 1.649520e+002 1.142500e+003
      vertex   -1.350000e+002 1.375001e+002 1.115048e+003
      vertex   -1.350000e+002 1.649519e+002 1.142500e+003
    endloop
  endfacet
  facet normal -8.494589e-001 5.096753e-001 -1.365673e-001
    outer loop
      vertex   -1.620000e+002 1.300001e+002 1.180000e+003
      vertex   -1.350000e+002 1.750000e+002 1.180000e+003
      vertex   -1.485000e+002 1.489832e+002 1.166875e+003
    endloop
  endfacet
  facet normal -8.494588e-001 5.096755e-001 -1.365670e-001
    outer loop
      vertex   -1.620000e+002 1.259808e+002 1.165000e+003
      vertex   -1.485000e+002 1.489832e+002 1.166875e+003
      vertex   -1.350000e+002 1.649519e+002 1.142500e+003
    endloop
  endfacet
  facet normal -8.494589e-001 5.096755e-001 -1.365668e-001
    outer loop
      vertex   -1.620000e+002 1.259808e+002 1.165000e+003
      vertex   -1.620000e+002 1.300001e+002 1.180000e+003
      vertex   -1.485000e+002 1.489832e+002 1.166875e+003
    endloop
  endfacet
  facet normal -8.494589e-001 5.096753e-001 -1.365673e-001
    outer loop
      vertex   -1.350000e+002 1.750000e+002 1.180000e+003
      vertex   -1.350000e+002 1.649519e+002 1.142500e+003
      vertex   -1.485000e+002 1.489832e+002 1.166875e+003
    endloop
  endfacet
  facet normal -8.494590e-001 5.096754e-001 1.365665e-001
    outer loop
      vertex   -1.350000e+002 1.649520e+002 1.217500e+003
      vertex   -1.350000e+002 1.750000e+002 1.180000e+003
      vertex   -1.620000e+002 1.259808e+002 1.195000e+003
    endloop
  endfacet
  facet normal -8.494590e-001 5.096754e-001 1.365667e-001
    outer loop
      vertex   -1.620000e+002 1.259808e+002 1.195000e+003
      vertex   -1.350000e+002 1.750000e+002 1.180000e+003
      vertex   -1.620000e+002 1.300001e+002 1.180000e+003
    endloop
  endfacet
  facet normal -8.494594e-001 3.731086e-001 3.731067e-001
    outer loop
      vertex   -1.620000e+002 1.150000e+002 1.205981e+003
      vertex   -1.350000e+002 1.375001e+002 1.244952e+003
      vertex   -1.485000e+002 1.358582e+002 1.215858e+003
    endloop
  endfacet
  facet normal -8.494591e-001 3.731066e-001 3.731096e-001
    outer loop
      vertex   -1.620000e+002 1.259808e+002 1.195000e+003
      vertex   -1.485000e+002 1.358582e+002 1.215858e+003
      vertex   -1.350000e+002 1.649520e+002 1.217500e+003
    endloop
  endfacet
  facet normal -8.494590e-001 3.731071e-001 3.731093e-001
    outer loop
      vertex   -1.620000e+002 1.259808e+002 1.195000e+003
      vertex   -1.620000e+002 1.150000e+002 1.205981e+003
      vertex   -1.485000e+002 1.358582e+002 1.215858e+003
    endloop
  endfacet
  facet normal -8.494599e-001 3.731072e-001 3.731071e-001
    outer loop
      vertex   -1.350000e+002 1.375001e+002 1.244952e+003
      vertex   -1.350000e+002 1.649520e+002 1.217500e+003
      vertex   -1.485000e+002 1.358582e+002 1.215858e+003
    endloop
  endfacet
  facet normal -8.494591e-001 1.365687e-001 5.096747e-001
    outer loop
      vertex   -1.620000e+002 1.000001e+002 1.210000e+003
      vertex   -1.350000e+002 9.999996e+001 1.255000e+003
      vertex   -1.485000e+002 1.131251e+002 1.228983e+003
    endloop
  endfacet
  facet normal -8.494594e-001 1.365665e-001 5.096747e-001
    outer loop
      vertex   -1.620000e+002 1.150000e+002 1.205981e+003
      vertex   -1.485000e+002 1.131251e+002 1.228983e+003
      vertex   -1.350000e+002 1.375001e+002 1.244952e+003
    endloop
  endfacet
  facet normal -8.494591e-001 1.365686e-001 5.096747e-001
    outer loop
      vertex   -1.620000e+002 1.150000e+002 1.205981e+003
      vertex   -1.620000e+002 1.000001e+002 1.210000e+003
      vertex   -1.485000e+002 1.131251e+002 1.228983e+003
    endloop
  endfacet
  facet normal -8.494597e-001 1.365670e-001 5.096742e-001
    outer loop
      vertex   -1.350000e+002 9.999996e+001 1.255000e+003
      vertex   -1.350000e+002 1.375001e+002 1.244952e+003
      vertex   -1.485000e+002 1.131251e+002 1.228983e+003
    endloop
  endfacet
  facet normal -8.494596e-001 -1.365652e-001 5.096748e-001
    outer loop
      vertex   -1.620000e+002 8.500005e+001 1.205981e+003
      vertex   -1.350000e+002 6.250005e+001 1.244952e+003
      vertex   -1.485000e+002 8.687505e+001 1.228983e+003
    endloop
  endfacet
  facet normal -8.494592e-001 -1.365696e-001 5.096742e-001
    outer loop
      vertex   -1.620000e+002 1.000001e+002 1.210000e+003
      vertex   -1.485000e+002 8.687505e+001 1.228983e+003
      vertex   -1.350000e+002 9.999996e+001 1.255000e+003
    endloop
  endfacet
  facet normal -8.494590e-001 -1.365686e-001 5.096747e-001
    outer loop
      vertex   -1.620000e+002 1.000001e+002 1.210000e+003
      vertex   -1.620000e+002 8.500005e+001 1.205981e+003
      vertex   -1.485000e+002 8.687505e+001 1.228983e+003
    endloop
  endfacet
  facet normal -8.494603e-001 -1.365666e-001 5.096733e-001
    outer loop
      vertex   -1.350000e+002 6.250005e+001 1.244952e+003
      vertex   -1.350000e+002 9.999996e+001 1.255000e+003
      vertex   -1.485000e+002 8.687505e+001 1.228983e+003
    endloop
  endfacet
  facet normal -8.494589e-001 -3.731077e-001 3.731088e-001
    outer loop
      vertex   -1.620000e+002 7.401929e+001 1.195000e+003
      vertex   -1.350000e+002 3.504814e+001 1.217500e+003
      vertex   -1.485000e+002 6.414189e+001 1.215858e+003
    endloop
  endfacet
  facet normal -8.494594e-001 -3.731086e-001 3.731068e-001
    outer loop
      vertex   -1.620000e+002 8.500005e+001 1.205981e+003
      vertex   -1.485000e+002 6.414189e+001 1.215858e+003
      vertex   -1.350000e+002 6.250005e+001 1.244952e+003
    endloop
  endfacet
  facet normal -8.494590e-001 -3.731073e-001 3.731090e-001
    outer loop
      vertex   -1.620000e+002 8.500005e+001 1.205981e+003
      vertex   -1.620000e+002 7.401929e+001 1.195000e+003
      vertex   -1.485000e+002 6.414189e+001 1.215858e+003
    endloop
  endfacet
  facet normal -8.494596e-001 -3.731081e-001 3.731069e-001
    outer loop
      vertex   -1.350000e+002 3.504814e+001 1.217500e+003
      vertex   -1.350000e+002 6.250005e+001 1.244952e+003
      vertex   -1.485000e+002 6.414189e+001 1.215858e+003
    endloop
  endfacet
  facet normal -1.000000e+000 1.640569e-008 -6.121408e-009
    outer loop
      vertex   -1.620000e+002 1.000000e+002 1.150000e+003
      vertex   -1.620000e+002 8.500005e+001 1.154019e+003
      vertex   -1.620000e+002 1.150000e+002 1.205981e+003
    endloop
  endfacet
  facet normal -1.000000e+000 -2.161749e-008 -1.621660e-008
    outer loop
      vertex   -1.620000e+002 1.150001e+002 1.154019e+003
      vertex   -1.620000e+002 1.150000e+002 1.205981e+003
      vertex   -1.620000e+002 1.259808e+002 1.165000e+003
    endloop
  endfacet
  facet normal -1.000000e+000 5.408136e-008 -1.621658e-008
    outer loop
      vertex   -1.620000e+002 1.150001e+002 1.154019e+003
      vertex   -1.620000e+002 1.000000e+002 1.150000e+003
      vertex   -1.620000e+002 1.150000e+002 1.205981e+003
    endloop
  endfacet
  facet normal -1.000000e+000 -1.475549e-008 1.186953e-008
    outer loop
      vertex   -1.620000e+002 8.500005e+001 1.154019e+003
      vertex   -1.620000e+002 7.401930e+001 1.165000e+003
      vertex   -1.620000e+002 1.150000e+002 1.205981e+003
    endloop
  endfacet
  facet normal -1.000000e+000 1.309582e-008 -1.598179e-008
    outer loop
      vertex   -1.620000e+002 1.150000e+002 1.205981e+003
      vertex   -1.620000e+002 7.401930e+001 1.165000e+003
      vertex   -1.620000e+002 7.000005e+001 1.180000e+003
    endloop
  endfacet
  facet normal -1.000000e+000 4.576770e-009 -1.226343e-009
    outer loop
      vertex   -1.620000e+002 7.401929e+001 1.195000e+003
      vertex   -1.620000e+002 1.150000e+002 1.205981e+003
      vertex   -1.620000e+002 7.000005e+001 1.180000e+003
    endloop
  endfacet
  facet normal -1.000000e+000 5.803113e-009 -5.803137e-009
    outer loop
      vertex   -1.620000e+002 7.401929e+001 1.195000e+003
      vertex   -1.620000e+002 8.500005e+001 1.205981e+003
      vertex   -1.620000e+002 1.150000e+002 1.205981e+003
    endloop
  endfacet
  facet normal -1.000000e+000 5.803113e-009 -2.166087e-008
    outer loop
      vertex   -1.620000e+002 1.150000e+002 1.205981e+003
      vertex   -1.620000e+002 8.500005e+001 1.205981e+003
      vertex   -1.620000e+002 1.000001e+002 1.210000e+003
    endloop
  endfacet
  facet normal -1.000000e+000 -2.158188e-007 -1.999656e-007
    outer loop
      vertex   -1.620000e+002 1.259808e+002 1.195000e+003
      vertex   -1.620000e+002 1.300001e+002 1.180000e+003
      vertex   -1.620000e+002 1.150000e+002 1.205981e+003
    endloop
  endfacet
  facet normal -1.000000e+000 2.098826e-007 4.581383e-008
    outer loop
      vertex   -1.620000e+002 1.150000e+002 1.205981e+003
      vertex   -1.620000e+002 1.300001e+002 1.180000e+003
      vertex   -1.620000e+002 1.259808e+002 1.165000e+003
    endloop
  endfacet
  facet normal -8.494594e-001 -3.731085e-001 -3.731070e-001
    outer loop
      vertex   -1.620000e+002 8.500005e+001 1.154019e+003
      vertex   -1.350000e+002 6.250005e+001 1.115048e+003
      vertex   -1.485000e+002 6.414189e+001 1.144142e+003
    endloop
  endfacet
  facet normal -8.494589e-001 -3.731081e-001 -3.731086e-001
    outer loop
      vertex   -1.620000e+002 7.401930e+001 1.165000e+003
      vertex   -1.485000e+002 6.414189e+001 1.144142e+003
      vertex   -1.350000e+002 3.504816e+001 1.142500e+003
    endloop
  endfacet
  facet normal -8.494590e-001 -3.731073e-001 -3.731090e-001
    outer loop
      vertex   -1.620000e+002 7.401930e+001 1.165000e+003
      vertex   -1.620000e+002 8.500005e+001 1.154019e+003
      vertex   -1.485000e+002 6.414189e+001 1.144142e+003
    endloop
  endfacet
  facet normal -8.494594e-001 -3.731084e-001 -3.731070e-001
    outer loop
      vertex   -1.350000e+002 6.250005e+001 1.115048e+003
      vertex   -1.350000e+002 3.504816e+001 1.142500e+003
      vertex   -1.485000e+002 6.414189e+001 1.144142e+003
    endloop
  endfacet
  facet normal -5.810276e-007 -2.588162e-001 -9.659266e-001
    outer loop
      vertex   -1.230000e+002 9.999994e+001 1.105000e+003
      vertex   -1.230000e+002 6.250016e+001 1.115048e+003
      vertex   -1.350000e+002 1.000000e+002 1.105000e+003
    endloop
  endfacet
  facet normal -1.238396e-006 -2.588164e-001 -9.659265e-001
    outer loop
      vertex   -1.350000e+002 1.000000e+002 1.105000e+003
      vertex   -1.230000e+002 6.250016e+001 1.115048e+003
      vertex   -1.350000e+002 6.250005e+001 1.115048e+003
    endloop
  endfacet
  facet normal -6.024078e-001 0.000000e+000 -7.981885e-001
    outer loop
      vertex   -7.000000e+001 3.000005e+001 9.099999e+002
      vertex   -1.230000e+002 3.000005e+001 9.500000e+002
      vertex   -7.000000e+001 5.000005e+001 9.099999e+002
    endloop
  endfacet
  facet normal -6.024078e-001 1.738912e-007 -7.981885e-001
    outer loop
      vertex   -7.000000e+001 5.000005e+001 9.099999e+002
      vertex   -1.230000e+002 3.000005e+001 9.500000e+002
      vertex   -1.229999e+002 1.700000e+002 9.500000e+002
    endloop
  endfacet
  facet normal -6.024081e-001 -1.421081e-013 -7.981883e-001
    outer loop
      vertex   -7.000000e+001 1.500001e+002 9.099999e+002
      vertex   -1.229999e+002 1.700000e+002 9.500000e+002
      vertex   -7.000000e+001 1.700000e+002 9.099999e+002
    endloop
  endfacet
  facet normal -6.024081e-001 1.814870e-015 -7.981883e-001
    outer loop
      vertex   -7.000000e+001 1.500001e+002 9.099999e+002
      vertex   -7.000000e+001 5.000005e+001 9.099999e+002
      vertex   -1.229999e+002 1.700000e+002 9.500000e+002
    endloop
  endfacet
  facet normal 2.912621e-006 2.588161e-001 -9.659266e-001
    outer loop
      vertex   -1.230000e+002 9.999994e+001 1.105000e+003
      vertex   -1.350000e+002 1.000000e+002 1.105000e+003
      vertex   -1.230000e+002 1.375000e+002 1.115048e+003
    endloop
  endfacet
  facet normal -6.189876e-007 2.588172e-001 -9.659263e-001
    outer loop
      vertex   -1.230000e+002 1.375000e+002 1.115048e+003
      vertex   -1.350000e+002 1.000000e+002 1.105000e+003
      vertex   -1.350000e+002 1.375001e+002 1.115048e+003
    endloop
  endfacet
  facet normal -2.499998e-008 -1.000000e+000 3.749996e-008
    outer loop
      vertex   1.100001e+002 3.000005e+001 9.500000e+002
      vertex   9.000000e+001 3.000005e+001 9.500000e+002
      vertex   7.000000e+001 3.000005e+001 9.099999e+002
    endloop
  endfacet
  facet normal 8.130076e-009 -1.000000e+000 2.093495e-008
    outer loop
      vertex   7.000000e+001 3.000005e+001 9.099999e+002
      vertex   9.000000e+001 3.000005e+001 9.500000e+002
      vertex   -3.300000e+001 3.000005e+001 9.499999e+002
    endloop
  endfacet
  facet normal -3.947465e-017 -1.000000e+000 -5.230379e-017
    outer loop
      vertex   -7.000000e+001 3.000005e+001 9.099999e+002
      vertex   -3.300000e+001 3.000005e+001 9.499999e+002
      vertex   -1.230000e+002 3.000005e+001 9.500000e+002
    endloop
  endfacet
  facet normal 0.000000e+000 -1.000000e+000 -8.881784e-017
    outer loop
      vertex   -7.000000e+001 3.000005e+001 9.099999e+002
      vertex   7.000000e+001 3.000005e+001 9.099999e+002
      vertex   -3.300000e+001 3.000005e+001 9.499999e+002
    endloop
  endfacet
  facet normal 1.000000e+000 1.217552e-008 3.956653e-008
    outer loop
      vertex   -3.300000e+001 1.600001e+002 9.900000e+002
      vertex   -3.300000e+001 3.000005e+001 9.900000e+002
      vertex   -3.300000e+001 1.600001e+002 9.500000e+002
    endloop
  endfacet
  facet normal 1.000000e+000 5.557199e-017 -3.899454e-012
    outer loop
      vertex   -3.300000e+001 1.600001e+002 9.500000e+002
      vertex   -3.300000e+001 3.000005e+001 9.900000e+002
      vertex   -3.300000e+001 3.000005e+001 9.499999e+002
    endloop
  endfacet
  facet normal -1.210544e-001 -6.304740e-007 9.926459e-001
    outer loop
      vertex   -3.300000e+001 1.600001e+002 9.900000e+002
      vertex   9.000000e+001 1.600001e+002 1.005000e+003
      vertex   -3.300000e+001 1.700001e+002 9.900000e+002
    endloop
  endfacet
  facet normal -1.210544e-001 1.210737e-012 9.926459e-001
    outer loop
      vertex   -3.300000e+001 1.700001e+002 9.900000e+002
      vertex   9.000000e+001 1.600001e+002 1.005000e+003
      vertex   9.000000e+001 1.700001e+002 1.005000e+003
    endloop
  endfacet
  facet normal 2.032522e-008 1.000000e+000 6.247711e-008
    outer loop
      vertex   -3.300000e+001 1.700001e+002 9.500000e+002
      vertex   -3.300000e+001 1.700001e+002 9.900000e+002
      vertex   9.000000e+001 1.700001e+002 9.500000e+002
    endloop
  endfacet
  facet normal -4.433846e-008 1.000000e+000 -1.363636e-007
    outer loop
      vertex   9.000000e+001 1.700001e+002 9.500000e+002
      vertex   -3.300000e+001 1.700001e+002 9.900000e+002
      vertex   9.000000e+001 1.700001e+002 1.005000e+003
    endloop
  endfacet
  facet normal -4.869222e-021 1.000000e+000 -2.499871e-007
    outer loop
      vertex   -7.000000e+001 1.700000e+002 9.099999e+002
      vertex   -3.300000e+001 1.700001e+002 9.500000e+002
      vertex   7.000000e+001 1.700000e+002 9.099999e+002
    endloop
  endfacet
  facet normal -1.111112e-007 1.000000e+000 -1.472094e-007
    outer loop
      vertex   -7.000000e+001 1.700000e+002 9.099999e+002
      vertex   -1.229999e+002 1.700000e+002 9.500000e+002
      vertex   -3.300000e+001 1.700001e+002 9.500000e+002
    endloop
  endfacet
  facet normal 2.032515e-008 1.000000e+000 -1.976499e-007
    outer loop
      vertex   -3.300000e+001 1.700001e+002 9.500000e+002
      vertex   9.000000e+001 1.700001e+002 9.500000e+002
      vertex   7.000000e+001 1.700000e+002 9.099999e+002
    endloop
  endfacet
  facet normal 2.045595e-007 1.000000e+000 -2.897670e-007
    outer loop
      vertex   7.000000e+001 1.700000e+002 9.099999e+002
      vertex   9.000000e+001 1.700001e+002 9.500000e+002
      vertex   1.100001e+002 1.700000e+002 9.500000e+002
    endloop
  endfacet
  facet normal -8.494589e-001 3.731083e-001 -3.731084e-001
    outer loop
      vertex   -1.620000e+002 1.259808e+002 1.165000e+003
      vertex   -1.350000e+002 1.649519e+002 1.142500e+003
      vertex   -1.485000e+002 1.358582e+002 1.144142e+003
    endloop
  endfacet
  facet normal -8.494593e-001 3.731081e-001 -3.731075e-001
    outer loop
      vertex   -1.620000e+002 1.150001e+002 1.154019e+003
      vertex   -1.485000e+002 1.358582e+002 1.144142e+003
      vertex   -1.350000e+002 1.375001e+002 1.115048e+003
    endloop
  endfacet
  facet normal -8.494590e-001 3.731072e-001 -3.731090e-001
    outer loop
      vertex   -1.620000e+002 1.150001e+002 1.154019e+003
      vertex   -1.620000e+002 1.259808e+002 1.165000e+003
      vertex   -1.485000e+002 1.358582e+002 1.144142e+003
    endloop
  endfacet
  facet normal -8.494592e-001 3.731085e-001 -3.731074e-001
    outer loop
      vertex   -1.350000e+002 1.649519e+002 1.142500e+003
      vertex   -1.350000e+002 1.375001e+002 1.115048e+003
      vertex   -1.485000e+002 1.358582e+002 1.144142e+003
    endloop
  endfacet
  facet normal -8.494594e-001 1.365663e-001 -5.096748e-001
    outer loop
      vertex   -1.620000e+002 1.150001e+002 1.154019e+003
      vertex   -1.350000e+002 1.375001e+002 1.115048e+003
      vertex   -1.485000e+002 1.131250e+002 1.131017e+003
    endloop
  endfacet
  facet normal -8.494588e-001 1.365672e-001 -5.096755e-001
    outer loop
      vertex   -1.620000e+002 1.000000e+002 1.150000e+003
      vertex   -1.485000e+002 1.131250e+002 1.131017e+003
      vertex   -1.350000e+002 1.000000e+002 1.105000e+003
    endloop
  endfacet
  facet normal -8.494590e-001 1.365685e-001 -5.096748e-001
    outer loop
      vertex   -1.620000e+002 1.000000e+002 1.150000e+003
      vertex   -1.620000e+002 1.150001e+002 1.154019e+003
      vertex   -1.485000e+002 1.131250e+002 1.131017e+003
    endloop
  endfacet
  facet normal -8.494592e-001 1.365660e-001 -5.096751e-001
    outer loop
      vertex   -1.350000e+002 1.375001e+002 1.115048e+003
      vertex   -1.350000e+002 1.000000e+002 1.105000e+003
      vertex   -1.485000e+002 1.131250e+002 1.131017e+003
    endloop
  endfacet
  facet normal -8.494588e-001 -1.365674e-001 -5.096754e-001
    outer loop
      vertex   -1.620000e+002 1.000000e+002 1.150000e+003
      vertex   -1.350000e+002 1.000000e+002 1.105000e+003
      vertex   -1.485000e+002 8.687505e+001 1.131017e+003
    endloop
  endfacet
  facet normal -8.494595e-001 -1.365654e-001 -5.096748e-001
    outer loop
      vertex   -1.620000e+002 8.500005e+001 1.154019e+003
      vertex   -1.485000e+002 8.687505e+001 1.131017e+003
      vertex   -1.350000e+002 6.250005e+001 1.115048e+003
    endloop
  endfacet
  facet normal -8.494590e-001 -1.365686e-001 -5.096747e-001
    outer loop
      vertex   -1.620000e+002 8.500005e+001 1.154019e+003
      vertex   -1.620000e+002 1.000000e+002 1.150000e+003
      vertex   -1.485000e+002 8.687505e+001 1.131017e+003
    endloop
  endfacet
  facet normal -8.494595e-001 -1.365655e-001 -5.096748e-001
    outer loop
      vertex   -1.350000e+002 1.000000e+002 1.105000e+003
      vertex   -1.350000e+002 6.250005e+001 1.115048e+003
      vertex   -1.485000e+002 8.687505e+001 1.131017e+003
    endloop
  endfacet
  facet normal -1.948917e-014 1.250556e-013 -1.000000e+000
    outer loop
      vertex   -7.000000e+001 1.700000e+002 9.099999e+002
      vertex   7.000000e+001 1.700000e+002 9.099999e+002
      vertex   -7.000000e+001 1.500001e+002 9.099999e+002
    endloop
  endfacet
  facet normal -2.436147e-015 5.684346e-015 -1.000000e+000
    outer loop
      vertex   -7.000000e+001 1.500001e+002 9.099999e+002
      vertex   7.000000e+001 1.700000e+002 9.099999e+002
      vertex   7.000000e+001 1.500001e+002 9.099999e+002
    endloop
  endfacet
  facet normal -1.000000e+000 -1.184773e-022 5.210689e-008
    outer loop
      vertex   -7.000000e+001 5.000005e+001 9.099999e+002
      vertex   -7.000000e+001 1.500001e+002 9.099999e+002
      vertex   -7.000000e+001 5.000005e+001 8.950001e+002
    endloop
  endfacet
  facet normal -1.000000e+000 -2.622754e-009 6.959213e-008
    outer loop
      vertex   -7.000000e+001 5.000005e+001 8.950001e+002
      vertex   -7.000000e+001 1.500001e+002 9.099999e+002
      vertex   -7.000000e+001 1.500001e+002 8.950001e+002
    endloop
  endfacet
  facet normal -0.000000e+000 -5.684343e-015 -1.000000e+000
    outer loop
      vertex   7.000000e+001 3.000005e+001 9.099999e+002
      vertex   -7.000000e+001 3.000005e+001 9.099999e+002
      vertex   7.000000e+001 5.000005e+001 9.099999e+002
    endloop
  endfacet
  facet normal -8.120488e-016 0.000000e+000 -1.000000e+000
    outer loop
      vertex   7.000000e+001 5.000005e+001 9.099999e+002
      vertex   -7.000000e+001 3.000005e+001 9.099999e+002
      vertex   -7.000000e+001 5.000005e+001 9.099999e+002
    endloop
  endfacet
  facet normal 7.071068e-001 -4.019437e-015 -7.071068e-001
    outer loop
      vertex   7.000000e+001 3.000005e+001 9.099999e+002
      vertex   7.000000e+001 5.000005e+001 9.099999e+002
      vertex   1.100001e+002 3.000005e+001 9.500000e+002
    endloop
  endfacet
  facet normal 7.071068e-001 4.306533e-016 -7.071068e-001
    outer loop
      vertex   1.100001e+002 3.000005e+001 9.500000e+002
      vertex   7.000000e+001 5.000005e+001 9.099999e+002
      vertex   1.100001e+002 1.700000e+002 9.500000e+002
    endloop
  endfacet
  facet normal 7.071068e-001 0.000000e+000 -7.071068e-001
    outer loop
      vertex   1.100001e+002 1.700000e+002 9.500000e+002
      vertex   7.000000e+001 5.000005e+001 9.099999e+002
      vertex   7.000000e+001 1.500001e+002 9.099999e+002
    endloop
  endfacet
  facet normal 7.071068e-001 4.019434e-015 -7.071068e-001
    outer loop
      vertex   7.000000e+001 1.700000e+002 9.099999e+002
      vertex   1.100001e+002 1.700000e+002 9.500000e+002
      vertex   7.000000e+001 1.500001e+002 9.099999e+002
    endloop
  endfacet
  facet normal -2.499995e-008 -1.000000e+000 1.538461e-008
    outer loop
      vertex   9.000000e+001 3.000005e+001 9.500000e+002
      vertex   1.100001e+002 3.000005e+001 9.500000e+002
      vertex   9.000000e+001 3.000006e+001 1.015000e+003
    endloop
  endfacet
  facet normal -5.539555e-008 -1.000000e+000 6.032090e-009
    outer loop
      vertex   9.000000e+001 3.000006e+001 1.015000e+003
      vertex   1.100001e+002 3.000005e+001 9.500000e+002
      vertex   1.100000e+002 3.000005e+001 1.040000e+003
    endloop
  endfacet
  facet normal -7.444179e-008 -1.000000e+000 2.126908e-008
    outer loop
      vertex   1.100000e+002 3.000006e+001 1.085000e+003
      vertex   9.000000e+001 3.000006e+001 1.015000e+003
      vertex   1.100000e+002 3.000005e+001 1.040000e+003
    endloop
  endfacet
  facet normal -2.479644e-007 -2.346125e-007 1.000000e+000
    outer loop
      vertex   -3.300000e+001 3.000005e+001 9.499999e+002
      vertex   9.000000e+001 3.000005e+001 9.500000e+002
      vertex   -3.300000e+001 1.600001e+002 9.500000e+002
    endloop
  endfacet
  facet normal -0.000000e+000 0.000000e+000 1.000000e+000
    outer loop
      vertex   -3.300000e+001 1.600001e+002 9.500000e+002
      vertex   9.000000e+001 3.000005e+001 9.500000e+002
      vertex   9.000000e+001 1.600001e+002 9.500000e+002
    endloop
  endfacet
  facet normal 0.000000e+000 -1.000000e+000 -0.000000e+000
    outer loop
      vertex   9.000000e+001 1.600001e+002 1.005000e+003
      vertex   -3.300000e+001 1.600001e+002 9.900000e+002
      vertex   9.000000e+001 1.600001e+002 9.500000e+002
    endloop
  endfacet
  facet normal -0.000000e+000 -1.000000e+000 -0.000000e+000
    outer loop
      vertex   9.000000e+001 1.600001e+002 9.500000e+002
      vertex   -3.300000e+001 1.600001e+002 9.900000e+002
      vertex   -3.300000e+001 1.600001e+002 9.500000e+002
    endloop
  endfacet
  facet normal -1.000000e+000 0.000000e+000 0.000000e+000
    outer loop
      vertex   9.000000e+001 1.600001e+002 9.500000e+002
      vertex   9.000000e+001 3.000005e+001 9.500000e+002
      vertex   9.000000e+001 1.600001e+002 1.005000e+003
    endloop
  endfacet
  facet normal -1.000000e+000 -0.000000e+000 0.000000e+000
    outer loop
      vertex   9.000000e+001 1.600001e+002 1.005000e+003
      vertex   9.000000e+001 3.000005e+001 9.500000e+002
      vertex   9.000000e+001 3.000006e+001 1.015000e+003
    endloop
  endfacet
  facet normal -1.000000e+000 -0.000000e+000 0.000000e+000
    outer loop
      vertex   9.000000e+001 1.700001e+002 1.015000e+003
      vertex   9.000000e+001 1.600001e+002 1.005000e+003
      vertex   9.000000e+001 3.000006e+001 1.015000e+003
    endloop
  endfacet
  facet normal -1.000000e+000 1.000160e-011 -1.000160e-011
    outer loop
      vertex   9.000000e+001 1.700001e+002 1.015000e+003
      vertex   9.000000e+001 1.700001e+002 1.005000e+003
      vertex   9.000000e+001 1.600001e+002 1.005000e+003
    endloop
  endfacet
  facet normal 2.045593e-007 1.000000e+000 -1.363636e-007
    outer loop
      vertex   9.000000e+001 1.700001e+002 9.500000e+002
      vertex   9.000000e+001 1.700001e+002 1.005000e+003
      vertex   1.100001e+002 1.700000e+002 9.500000e+002
    endloop
  endfacet
  facet normal 3.230033e-007 1.000000e+000 -9.329290e-008
    outer loop
      vertex   1.100001e+002 1.700000e+002 9.500000e+002
      vertex   9.000000e+001 1.700001e+002 1.005000e+003
      vertex   1.100000e+002 1.700001e+002 1.040000e+003
    endloop
  endfacet
  facet normal 1.597407e-007 1.000000e+000 1.597662e-018
    outer loop
      vertex   1.100000e+002 1.700001e+002 1.040000e+003
      vertex   9.000000e+001 1.700001e+002 1.005000e+003
      vertex   9.000000e+001 1.700001e+002 1.015000e+003
    endloop
  endfacet
  facet normal 2.484856e-007 1.000000e+000 -7.099588e-008
    outer loop
      vertex   1.100000e+002 1.700001e+002 1.085000e+003
      vertex   1.100000e+002 1.700001e+002 1.040000e+003
      vertex   9.000000e+001 1.700001e+002 1.015000e+003
    endloop
  endfacet
  facet normal 2.030132e-016 1.000000e+000 4.208476e-007
    outer loop
      vertex   -7.000000e+001 1.500001e+002 9.099999e+002
      vertex   7.000000e+001 1.500001e+002 9.099999e+002
      vertex   -7.000000e+001 1.500001e+002 8.950001e+002
    endloop
  endfacet
  facet normal -1.502938e-008 1.000000e+000 5.611235e-007
    outer loop
      vertex   -7.000000e+001 1.500001e+002 8.950001e+002
      vertex   7.000000e+001 1.500001e+002 9.099999e+002
      vertex   7.000000e+001 1.500001e+002 8.950001e+002
    endloop
  endfacet
  facet normal -1.000000e+000 1.000160e-012 -3.356493e-009
    outer loop
      vertex   -7.000000e+001 1.500001e+002 5.840001e+002
      vertex   -7.000000e+001 5.000004e+001 5.840001e+002
      vertex   -7.000000e+001 1.500001e+002 8.950001e+002
    endloop
  endfacet
  facet normal -1.000000e+000 -2.622754e-009 -2.512842e-009
    outer loop
      vertex   -7.000000e+001 1.500001e+002 8.950001e+002
      vertex   -7.000000e+001 5.000004e+001 5.840001e+002
      vertex   -7.000000e+001 5.000005e+001 8.950001e+002
    endloop
  endfacet
  facet normal -1.522589e-016 -1.000000e+000 3.150045e-007
    outer loop
      vertex   -7.000000e+001 5.000005e+001 9.099999e+002
      vertex   -7.000000e+001 5.000005e+001 8.950001e+002
      vertex   7.000000e+001 5.000005e+001 9.099999e+002
    endloop
  endfacet
  facet normal -6.473689e-009 -1.000000e+000 3.754263e-007
    outer loop
      vertex   7.000000e+001 5.000005e+001 9.099999e+002
      vertex   -7.000000e+001 5.000005e+001 8.950001e+002
      vertex   7.000000e+001 5.000004e+001 8.950001e+002
    endloop
  endfacet
  facet normal 1.000000e+000 0.000000e+000 6.210267e-008
    outer loop
      vertex   7.000000e+001 5.000005e+001 9.099999e+002
      vertex   7.000000e+001 5.000004e+001 8.950001e+002
      vertex   7.000000e+001 1.500001e+002 9.099999e+002
    endloop
  endfacet
  facet normal 1.000000e+000 -4.603966e-009 9.279616e-008
    outer loop
      vertex   7.000000e+001 1.500001e+002 9.099999e+002
      vertex   7.000000e+001 5.000004e+001 8.950001e+002
      vertex   7.000000e+001 1.500001e+002 8.950001e+002
    endloop
  endfacet
  facet normal 4.299339e-001 0.000000e+000 -9.028603e-001
    outer loop
      vertex   1.730000e+002 3.000006e+001 9.800000e+002
      vertex   1.100001e+002 3.000005e+001 9.500000e+002
      vertex   1.730000e+002 1.700001e+002 9.800000e+002
    endloop
  endfacet
  facet normal 4.299340e-001 -1.789624e-008 -9.028603e-001
    outer loop
      vertex   1.730000e+002 1.700001e+002 9.800000e+002
      vertex   1.100001e+002 3.000005e+001 9.500000e+002
      vertex   1.100001e+002 1.700000e+002 9.500000e+002
    endloop
  endfacet
  facet normal 2.093710e-008 -1.000000e+000 6.032139e-009
    outer loop
      vertex   1.100001e+002 3.000005e+001 9.500000e+002
      vertex   1.730000e+002 3.000006e+001 9.800000e+002
      vertex   1.100000e+002 3.000005e+001 1.040000e+003
    endloop
  endfacet
  facet normal -4.006965e-009 -1.000000e+000 -2.015913e-008
    outer loop
      vertex   1.100000e+002 3.000005e+001 1.040000e+003
      vertex   1.730000e+002 3.000006e+001 9.800000e+002
      vertex   1.730000e+002 3.000005e+001 1.040000e+003
    endloop
  endfacet
  facet normal -1.000000e+000 0.000000e+000 0.000000e+000
    outer loop
      vertex   1.100000e+002 3.000005e+001 1.040000e+003
      vertex   1.100000e+002 2.000005e+001 1.090000e+003
      vertex   1.100000e+002 3.000006e+001 1.085000e+003
    endloop
  endfacet
  facet normal -1.000000e+000 0.000000e+000 0.000000e+000
    outer loop
      vertex   1.100000e+002 3.000006e+001 1.085000e+003
      vertex   1.100000e+002 2.000005e+001 1.090000e+003
      vertex   1.100000e+002 2.000005e+001 1.180000e+003
    endloop
  endfacet
  facet normal -1.000000e+000 -0.000000e+000 0.000000e+000
    outer loop
      vertex   1.100000e+002 6.000005e+001 1.249280e+003
      vertex   1.100000e+002 2.000005e+001 1.180000e+003
      vertex   1.100000e+002 3.072005e+001 1.220000e+003
    endloop
  endfacet
  facet normal -1.000000e+000 -0.000000e+000 0.000000e+000
    outer loop
      vertex   1.100000e+002 6.000005e+001 1.249280e+003
      vertex   1.100000e+002 3.000006e+001 1.085000e+003
      vertex   1.100000e+002 2.000005e+001 1.180000e+003
    endloop
  endfacet
  facet normal -1.000000e+000 0.000000e+000 -0.000000e+000
    outer loop
      vertex   1.100000e+002 6.000005e+001 1.249280e+003
      vertex   1.100000e+002 1.000000e+002 1.260000e+003
      vertex   1.100000e+002 3.000006e+001 1.085000e+003
    endloop
  endfacet
  facet normal -1.000000e+000 0.000000e+000 0.000000e+000
    outer loop
      vertex   1.100000e+002 3.000006e+001 1.085000e+003
      vertex   1.100000e+002 1.000000e+002 1.260000e+003
      vertex   1.100000e+002 1.400000e+002 1.249280e+003
    endloop
  endfacet
  facet normal -1.000000e+000 0.000000e+000 0.000000e+000
    outer loop
      vertex   1.100000e+002 1.800000e+002 1.180000e+003
      vertex   1.100000e+002 1.400000e+002 1.249280e+003
      vertex   1.100000e+002 1.692800e+002 1.220000e+003
    endloop
  endfacet
  facet normal -1.000000e+000 -0.000000e+000 0.000000e+000
    outer loop
      vertex   1.100000e+002 1.800000e+002 1.180000e+003
      vertex   1.100000e+002 3.000006e+001 1.085000e+003
      vertex   1.100000e+002 1.400000e+002 1.249280e+003
    endloop
  endfacet
  facet normal -1.000000e+000 -0.000000e+000 0.000000e+000
    outer loop
      vertex   1.100000e+002 1.800000e+002 1.180000e+003
      vertex   1.100000e+002 1.700001e+002 1.085000e+003
      vertex   1.100000e+002 3.000006e+001 1.085000e+003
    endloop
  endfacet
  facet normal -1.000000e+000 0.000000e+000 -0.000000e+000
    outer loop
      vertex   1.100000e+002 1.800000e+002 1.180000e+003
      vertex   1.100000e+002 1.800000e+002 1.090000e+003
      vertex   1.100000e+002 1.700001e+002 1.085000e+003
    endloop
  endfacet
  facet normal -1.000000e+000 -7.047186e-011 1.409427e-010
    outer loop
      vertex   1.100000e+002 1.700001e+002 1.085000e+003
      vertex   1.100000e+002 1.800000e+002 1.090000e+003
      vertex   1.100000e+002 1.700001e+002 1.040000e+003
    endloop
  endfacet
  facet normal -9.615239e-001 0.000000e+000 2.747211e-001
    outer loop
      vertex   9.000000e+001 3.000006e+001 1.015000e+003
      vertex   1.100000e+002 3.000006e+001 1.085000e+003
      vertex   9.000000e+001 1.700001e+002 1.015000e+003
    endloop
  endfacet
  facet normal -9.615239e-001 0.000000e+000 2.747211e-001
    outer loop
      vertex   9.000000e+001 1.700001e+002 1.015000e+003
      vertex   1.100000e+002 3.000006e+001 1.085000e+003
      vertex   1.100000e+002 1.700001e+002 1.085000e+003
    endloop
  endfacet
  facet normal 1.696979e-008 1.000000e+000 7.106517e-008
    outer loop
      vertex   1.730000e+002 1.700001e+002 1.040000e+003
      vertex   1.730000e+002 1.700001e+002 9.800000e+002
      vertex   1.100000e+002 1.700001e+002 1.040000e+003
    endloop
  endfacet
  facet normal -1.395620e-007 1.000000e+000 -9.329317e-008
    outer loop
      vertex   1.100000e+002 1.700001e+002 1.040000e+003
      vertex   1.730000e+002 1.700001e+002 9.800000e+002
      vertex   1.100001e+002 1.700000e+002 9.500000e+002
    endloop
  endfacet
  facet normal 0.000000e+000 -0.000000e+000 1.000000e+000
    outer loop
      vertex   -7.000000e+001 1.500001e+002 8.950001e+002
      vertex   7.000000e+001 1.500001e+002 8.950001e+002
      vertex   -3.800005e+001 1.700001e+002 8.950001e+002
    endloop
  endfacet
  facet normal -0.000000e+000 -0.000000e+000 1.000000e+000
    outer loop
      vertex   -3.800005e+001 1.700001e+002 8.950001e+002
      vertex   7.000000e+001 1.500001e+002 8.950001e+002
      vertex   3.800005e+001 1.700001e+002 8.950001e+002
    endloop
  endfacet
  facet normal -5.299992e-001 8.479981e-001 0.000000e+000
    outer loop
      vertex   -3.800005e+001 1.700001e+002 5.840001e+002
      vertex   -7.000000e+001 1.500001e+002 5.840001e+002
      vertex   -3.800005e+001 1.700001e+002 8.950001e+002
    endloop
  endfacet
  facet normal -5.299993e-001 8.479981e-001 1.899048e-008
    outer loop
      vertex   -3.800005e+001 1.700001e+002 8.950001e+002
      vertex   -7.000000e+001 1.500001e+002 5.840001e+002
      vertex   -7.000000e+001 1.500001e+002 8.950001e+002
    endloop
  endfacet
  facet normal -5.299994e-001 -8.479980e-001 1.421791e-008
    outer loop
      vertex   -7.000000e+001 5.000005e+001 8.950001e+002
      vertex   -7.000000e+001 5.000004e+001 5.840001e+002
      vertex   -3.800005e+001 3.000005e+001 8.950001e+002
    endloop
  endfacet
  facet normal -5.299993e-001 -8.479981e-001 0.000000e+000
    outer loop
      vertex   -3.800005e+001 3.000005e+001 8.950001e+002
      vertex   -7.000000e+001 5.000004e+001 5.840001e+002
      vertex   -3.800005e+001 3.000005e+001 5.840001e+002
    endloop
  endfacet
  facet normal 0.000000e+000 0.000000e+000 1.000000e+000
    outer loop
      vertex   7.000000e+001 5.000004e+001 8.950001e+002
      vertex   -7.000000e+001 5.000005e+001 8.950001e+002
      vertex   3.800005e+001 3.000005e+001 8.950001e+002
    endloop
  endfacet
  facet normal 0.000000e+000 0.000000e+000 1.000000e+000
    outer loop
      vertex   3.800005e+001 3.000005e+001 8.950001e+002
      vertex   -7.000000e+001 5.000005e+001 8.950001e+002
      vertex   -3.800005e+001 3.000005e+001 8.950001e+002
    endloop
  endfacet
  facet normal 1.000000e+000 -4.603966e-009 -2.995269e-009
    outer loop
      vertex   7.000000e+001 5.000004e+001 8.950001e+002
      vertex   7.000000e+001 5.000004e+001 5.840001e+002
      vertex   7.000000e+001 1.500001e+002 8.950001e+002
    endloop
  endfacet
  facet normal 1.000000e+000 -3.974632e-012 -4.474366e-009
    outer loop
      vertex   7.000000e+001 1.500001e+002 8.950001e+002
      vertex   7.000000e+001 5.000004e+001 5.840001e+002
      vertex   7.000000e+001 1.500001e+002 5.840001e+002
    endloop
  endfacet
  facet normal 1.000000e+000 -0.000000e+000 0.000000e+000
    outer loop
      vertex   1.730000e+002 2.000005e+001 1.090000e+003
      vertex   1.730000e+002 3.000005e+001 1.040000e+003
      vertex   1.730000e+002 1.700001e+002 1.040000e+003
    endloop
  endfacet
  facet normal 1.000000e+000 0.000000e+000 0.000000e+000
    outer loop
      vertex   1.730000e+002 1.800000e+002 1.090000e+003
      vertex   1.730000e+002 2.000005e+001 1.090000e+003
      vertex   1.730000e+002 1.700001e+002 1.040000e+003
    endloop
  endfacet
  facet normal 1.000000e+000 0.000000e+000 0.000000e+000
    outer loop
      vertex   1.730000e+002 1.800000e+002 1.090000e+003
      vertex   1.730000e+002 1.000000e+002 1.260000e+003
      vertex   1.730000e+002 2.000005e+001 1.090000e+003
    endloop
  endfacet
  facet normal 1.000000e+000 0.000000e+000 0.000000e+000
    outer loop
      vertex   1.730000e+002 1.800000e+002 1.090000e+003
      vertex   1.730000e+002 1.400000e+002 1.249280e+003
      vertex   1.730000e+002 1.000000e+002 1.260000e+003
    endloop
  endfacet
  facet normal 1.000000e+000 0.000000e+000 0.000000e+000
    outer loop
      vertex   1.730000e+002 1.800000e+002 1.090000e+003
      vertex   1.730000e+002 1.800000e+002 1.180000e+003
      vertex   1.730000e+002 1.400000e+002 1.249280e+003
    endloop
  endfacet
  facet normal 1.000000e+000 -0.000000e+000 -0.000000e+000
    outer loop
      vertex   1.730000e+002 1.400000e+002 1.249280e+003
      vertex   1.730000e+002 1.800000e+002 1.180000e+003
      vertex   1.730000e+002 1.692800e+002 1.220000e+003
    endloop
  endfacet
  facet normal 1.000000e+000 0.000000e+000 0.000000e+000
    outer loop
      vertex   1.730000e+002 1.700001e+002 9.800000e+002
      vertex   1.730000e+002 1.700001e+002 1.040000e+003
      vertex   1.730000e+002 3.000006e+001 9.800000e+002
    endloop
  endfacet
  facet normal 1.000000e+000 0.000000e+000 -0.000000e+000
    outer loop
      vertex   1.730000e+002 3.000006e+001 9.800000e+002
      vertex   1.730000e+002 1.700001e+002 1.040000e+003
      vertex   1.730000e+002 3.000005e+001 1.040000e+003
    endloop
  endfacet
  facet normal 1.000000e+000 0.000000e+000 0.000000e+000
    outer loop
      vertex   1.730000e+002 1.000000e+002 1.260000e+003
      vertex   1.730000e+002 6.000005e+001 1.249280e+003
      vertex   1.730000e+002 2.000005e+001 1.090000e+003
    endloop
  endfacet
  facet normal 1.000000e+000 0.000000e+000 -0.000000e+000
    outer loop
      vertex   1.730000e+002 2.000005e+001 1.090000e+003
      vertex   1.730000e+002 6.000005e+001 1.249280e+003
      vertex   1.730000e+002 2.000005e+001 1.180000e+003
    endloop
  endfacet
  facet normal 1.000000e+000 0.000000e+000 -0.000000e+000
    outer loop
      vertex   1.730000e+002 2.000005e+001 1.180000e+003
      vertex   1.730000e+002 6.000005e+001 1.249280e+003
      vertex   1.730000e+002 3.072005e+001 1.220000e+003
    endloop
  endfacet
  facet normal -6.097787e-009 -9.805807e-001 -1.961161e-001
    outer loop
      vertex   1.730000e+002 3.000005e+001 1.040000e+003
      vertex   1.730000e+002 2.000005e+001 1.090000e+003
      vertex   1.100000e+002 3.000005e+001 1.040000e+003
    endloop
  endfacet
  facet normal -9.337827e-008 -9.805807e-001 -1.961160e-001
    outer loop
      vertex   1.100000e+002 3.000005e+001 1.040000e+003
      vertex   1.730000e+002 2.000005e+001 1.090000e+003
      vertex   1.100000e+002 2.000005e+001 1.090000e+003
    endloop
  endfacet
  facet normal -1.037732e-011 -1.000000e+000 -1.246649e-008
    outer loop
      vertex   1.730000e+002 2.000005e+001 1.090000e+003
      vertex   1.730000e+002 2.000005e+001 1.180000e+003
      vertex   1.100000e+002 2.000005e+001 1.090000e+003
    endloop
  endfacet
  facet normal 4.772626e-011 -1.000000e+000 -1.250717e-008
    outer loop
      vertex   1.100000e+002 2.000005e+001 1.090000e+003
      vertex   1.730000e+002 2.000005e+001 1.180000e+003
      vertex   1.100000e+002 2.000005e+001 1.180000e+003
    endloop
  endfacet
  facet normal 9.982006e-010 -9.659136e-001 2.588648e-001
    outer loop
      vertex   1.730000e+002 3.072005e+001 1.220000e+003
      vertex   1.100000e+002 3.072005e+001 1.220000e+003
      vertex   1.730000e+002 2.000005e+001 1.180000e+003
    endloop
  endfacet
  facet normal -1.611928e-010 -9.659136e-001 2.588648e-001
    outer loop
      vertex   1.730000e+002 2.000005e+001 1.180000e+003
      vertex   1.100000e+002 3.072005e+001 1.220000e+003
      vertex   1.100000e+002 2.000005e+001 1.180000e+003
    endloop
  endfacet
  facet normal 8.556479e-011 -7.071071e-001 7.071064e-001
    outer loop
      vertex   1.730000e+002 6.000005e+001 1.249280e+003
      vertex   1.100000e+002 6.000005e+001 1.249280e+003
      vertex   1.730000e+002 3.072005e+001 1.220000e+003
    endloop
  endfacet
  facet normal -9.975964e-010 -7.071071e-001 7.071064e-001
    outer loop
      vertex   1.730000e+002 3.072005e+001 1.220000e+003
      vertex   1.100000e+002 6.000005e+001 1.249280e+003
      vertex   1.100000e+002 3.072005e+001 1.220000e+003
    endloop
  endfacet
  facet normal 4.810623e-011 -2.588642e-001 9.659137e-001
    outer loop
      vertex   1.730000e+002 1.000000e+002 1.260000e+003
      vertex   1.100000e+002 1.000000e+002 1.260000e+003
      vertex   1.730000e+002 6.000005e+001 1.249280e+003
    endloop
  endfacet
  facet normal -8.589850e-011 -2.588642e-001 9.659137e-001
    outer loop
      vertex   1.730000e+002 6.000005e+001 1.249280e+003
      vertex   1.100000e+002 1.000000e+002 1.260000e+003
      vertex   1.100000e+002 6.000005e+001 1.249280e+003
    endloop
  endfacet
  facet normal 1.092596e-012 2.588641e-001 9.659137e-001
    outer loop
      vertex   1.730000e+002 1.400000e+002 1.249280e+003
      vertex   1.100000e+002 1.400000e+002 1.249280e+003
      vertex   1.730000e+002 1.000000e+002 1.260000e+003
    endloop
  endfacet
  facet normal -4.887316e-011 2.588641e-001 9.659137e-001
    outer loop
      vertex   1.730000e+002 1.000000e+002 1.260000e+003
      vertex   1.100000e+002 1.400000e+002 1.249280e+003
      vertex   1.100000e+002 1.000000e+002 1.260000e+003
    endloop
  endfacet
  facet normal -1.107257e-012 7.071071e-001 7.071064e-001
    outer loop
      vertex   1.730000e+002 1.692800e+002 1.220000e+003
      vertex   1.100000e+002 1.692800e+002 1.220000e+003
      vertex   1.730000e+002 1.400000e+002 1.249280e+003
    endloop
  endfacet
  facet normal -1.093238e-012 7.071071e-001 7.071064e-001
    outer loop
      vertex   1.730000e+002 1.400000e+002 1.249280e+003
      vertex   1.100000e+002 1.692800e+002 1.220000e+003
      vertex   1.100000e+002 1.400000e+002 1.249280e+003
    endloop
  endfacet
  facet normal 1.108204e-012 9.659136e-001 2.588649e-001
    outer loop
      vertex   1.730000e+002 1.692800e+002 1.220000e+003
      vertex   1.730000e+002 1.800000e+002 1.180000e+003
      vertex   1.100000e+002 1.692800e+002 1.220000e+003
    endloop
  endfacet
  facet normal -1.372914e-011 9.659136e-001 2.588649e-001
    outer loop
      vertex   1.100000e+002 1.692800e+002 1.220000e+003
      vertex   1.730000e+002 1.800000e+002 1.180000e+003
      vertex   1.100000e+002 1.800000e+002 1.180000e+003
    endloop
  endfacet
  facet normal -1.035045e-011 1.000000e+000 2.629355e-011
    outer loop
      vertex   1.730000e+002 1.800000e+002 1.090000e+003
      vertex   1.100000e+002 1.800000e+002 1.090000e+003
      vertex   1.730000e+002 1.800000e+002 1.180000e+003
    endloop
  endfacet
  facet normal 1.372994e-011 1.000000e+000 9.437274e-012
    outer loop
      vertex   1.730000e+002 1.800000e+002 1.180000e+003
      vertex   1.100000e+002 1.800000e+002 1.090000e+003
      vertex   1.100000e+002 1.800000e+002 1.180000e+003
    endloop
  endfacet
  facet normal 1.495658e-008 9.805807e-001 -1.961160e-001
    outer loop
      vertex   1.730000e+002 1.700001e+002 1.040000e+003
      vertex   1.100000e+002 1.700001e+002 1.040000e+003
      vertex   1.730000e+002 1.800000e+002 1.090000e+003
    endloop
  endfacet
  facet normal -9.337814e-008 9.805807e-001 -1.961158e-001
    outer loop
      vertex   1.730000e+002 1.800000e+002 1.090000e+003
      vertex   1.100000e+002 1.700001e+002 1.040000e+003
      vertex   1.100000e+002 1.800000e+002 1.090000e+003
    endloop
  endfacet
  facet normal 0.000000e+000 1.000000e+000 0.000000e+000
    outer loop
      vertex   3.800005e+001 1.700001e+002 8.950001e+002
      vertex   3.800005e+001 1.700001e+002 5.840001e+002
      vertex   -3.800005e+001 1.700001e+002 8.950001e+002
    endloop
  endfacet
  facet normal 0.000000e+000 1.000000e+000 0.000000e+000
    outer loop
      vertex   -3.800005e+001 1.700001e+002 8.950001e+002
      vertex   3.800005e+001 1.700001e+002 5.840001e+002
      vertex   -3.800005e+001 1.700001e+002 5.840001e+002
    endloop
  endfacet
  facet normal 5.299993e-001 8.479981e-001 2.531742e-008
    outer loop
      vertex   7.000000e+001 1.500001e+002 8.950001e+002
      vertex   7.000000e+001 1.500001e+002 5.840001e+002
      vertex   3.800005e+001 1.700001e+002 8.950001e+002
    endloop
  endfacet
  facet normal 5.299991e-001 8.479982e-001 0.000000e+000
    outer loop
      vertex   3.800005e+001 1.700001e+002 8.950001e+002
      vertex   7.000000e+001 1.500001e+002 5.840001e+002
      vertex   3.800005e+001 1.700001e+002 5.840001e+002
    endloop
  endfacet
  facet normal -2.030125e-015 -3.248198e-015 1.000000e+000
    outer loop
      vertex   7.000000e+001 1.500001e+002 5.840001e+002
      vertex   7.000000e+001 1.850000e+002 5.840001e+002
      vertex   3.800005e+001 1.700001e+002 5.840001e+002
    endloop
  endfacet
  facet normal -8.120488e-016 -5.846760e-015 1.000000e+000
    outer loop
      vertex   3.800005e+001 1.700001e+002 5.840001e+002
      vertex   7.000000e+001 1.850000e+002 5.840001e+002
      vertex   -7.000000e+001 1.850000e+002 5.840001e+002
    endloop
  endfacet
  facet normal 0.000000e+000 0.000000e+000 1.000000e+000
    outer loop
      vertex   -3.800005e+001 1.700001e+002 5.840001e+002
      vertex   -7.000000e+001 1.850000e+002 5.840001e+002
      vertex   -7.000000e+001 1.500001e+002 5.840001e+002
    endloop
  endfacet
  facet normal 0.000000e+000 -0.000000e+000 1.000000e+000
    outer loop
      vertex   -3.800005e+001 1.700001e+002 5.840001e+002
      vertex   3.800005e+001 1.700001e+002 5.840001e+002
      vertex   -7.000000e+001 1.850000e+002 5.840001e+002
    endloop
  endfacet
  facet normal 0.000000e+000 0.000000e+000 -1.000000e+000
    outer loop
      vertex   1.000000e+002 1.500005e+001 5.000000e+002
      vertex   -7.000000e+001 1.500005e+001 5.000000e+002
      vertex   1.000000e+002 1.973718e+001 5.000000e+002
    endloop
  endfacet
  facet normal 1.767162e-012 -6.341762e-011 -1.000000e+000
    outer loop
      vertex   1.000000e+002 1.973718e+001 5.000000e+002
      vertex   -7.000000e+001 1.500005e+001 5.000000e+002
      vertex   -7.000000e+001 1.973718e+001 5.000000e+002
    endloop
  endfacet
  facet normal -0.000000e+000 -1.000000e+000 -3.093790e-013
    outer loop
      vertex   7.000000e+001 1.500005e+001 5.840001e+002
      vertex   -7.000000e+001 1.500005e+001 5.840001e+002
      vertex   7.000000e+001 1.500005e+001 5.720000e+002
    endloop
  endfacet
  facet normal -4.913213e-013 -1.000000e+000 -6.041402e-012
    outer loop
      vertex   7.000000e+001 1.500005e+001 5.720000e+002
      vertex   -7.000000e+001 1.500005e+001 5.840001e+002
      vertex   -7.000000e+001 1.500005e+001 5.000000e+002
    endloop
  endfacet
  facet normal -5.638669e-012 -1.000000e+000 3.967329e-012
    outer loop
      vertex   1.000000e+002 1.500005e+001 5.000000e+002
      vertex   7.000000e+001 1.500005e+001 5.720000e+002
      vertex   -7.000000e+001 1.500005e+001 5.000000e+002
    endloop
  endfacet
  facet normal -1.516008e-011 -1.000000e+000 7.401487e-017
    outer loop
      vertex   1.000000e+002 1.500005e+001 5.000000e+002
      vertex   1.000000e+002 1.500005e+001 5.720000e+002
      vertex   7.000000e+001 1.500005e+001 5.720000e+002
    endloop
  endfacet
  facet normal -0.000000e+000 0.000000e+000 1.000000e+000
    outer loop
      vertex   -7.000000e+001 5.000004e+001 5.840001e+002
      vertex   -7.000000e+001 1.500005e+001 5.840001e+002
      vertex   -3.800005e+001 3.000005e+001 5.840001e+002
    endloop
  endfacet
  facet normal -0.000000e+000 0.000000e+000 1.000000e+000
    outer loop
      vertex   -3.800005e+001 3.000005e+001 5.840001e+002
      vertex   -7.000000e+001 1.500005e+001 5.840001e+002
      vertex   7.000000e+001 1.500005e+001 5.840001e+002
    endloop
  endfacet
  facet normal -0.000000e+000 -0.000000e+000 1.000000e+000
    outer loop
      vertex   3.800005e+001 3.000005e+001 5.840001e+002
      vertex   7.000000e+001 1.500005e+001 5.840001e+002
      vertex   7.000000e+001 5.000004e+001 5.840001e+002
    endloop
  endfacet
  facet normal 0.000000e+000 0.000000e+000 1.000000e+000
    outer loop
      vertex   3.800005e+001 3.000005e+001 5.840001e+002
      vertex   -3.800005e+001 3.000005e+001 5.840001e+002
      vertex   7.000000e+001 1.500005e+001 5.840001e+002
    endloop
  endfacet
  facet normal -0.000000e+000 1.000000e+000 6.961339e-012
    outer loop
      vertex   -7.000000e+001 1.850000e+002 5.000000e+002
      vertex   -7.000000e+001 1.850000e+002 5.720001e+002
      vertex   7.000000e+001 1.850000e+002 5.720001e+002
    endloop
  endfacet
  facet normal -1.670723e-011 1.000000e+000 3.101315e-023
    outer loop
      vertex   1.000000e+002 1.850000e+002 5.000000e+002
      vertex   7.000000e+001 1.850000e+002 5.720001e+002
      vertex   1.000000e+002 1.850000e+002 5.720000e+002
    endloop
  endfacet
  facet normal 0.000000e+000 1.000000e+000 6.961339e-012
    outer loop
      vertex   1.000000e+002 1.850000e+002 5.000000e+002
      vertex   -7.000000e+001 1.850000e+002 5.000000e+002
      vertex   7.000000e+001 1.850000e+002 5.720001e+002
    endloop
  endfacet
  facet normal -3.580120e-012 1.000000e+000 -4.176786e-011
    outer loop
      vertex   7.000000e+001 1.850000e+002 5.840001e+002
      vertex   7.000000e+001 1.850000e+002 5.720001e+002
      vertex   -7.000000e+001 1.850000e+002 5.840001e+002
    endloop
  endfacet
  facet normal 0.000000e+000 1.000000e+000 0.000000e+000
    outer loop
      vertex   -7.000000e+001 1.850000e+002 5.840001e+002
      vertex   7.000000e+001 1.850000e+002 5.720001e+002
      vertex   -7.000000e+001 1.850000e+002 5.720001e+002
    endloop
  endfacet
  facet normal 0.000000e+000 1.058349e-010 -1.000000e+000
    outer loop
      vertex   -7.000000e+001 1.850000e+002 5.000000e+002
      vertex   1.000000e+002 1.850000e+002 5.000000e+002
      vertex   -7.000000e+001 1.802629e+002 5.000000e+002
    endloop
  endfacet
  facet normal 2.949170e-012 0.000000e+000 -1.000000e+000
    outer loop
      vertex   -7.000000e+001 1.802629e+002 5.000000e+002
      vertex   1.000000e+002 1.850000e+002 5.000000e+002
      vertex   1.000000e+002 1.802629e+002 5.000000e+002
    endloop
  endfacet
  facet normal 0.000000e+000 -1.000000e+000 0.000000e+000
    outer loop
      vertex   -3.800005e+001 3.000005e+001 8.950001e+002
      vertex   -3.800005e+001 3.000005e+001 5.840001e+002
      vertex   3.800005e+001 3.000005e+001 8.950001e+002
    endloop
  endfacet
  facet normal 0.000000e+000 -1.000000e+000 -0.000000e+000
    outer loop
      vertex   3.800005e+001 3.000005e+001 8.950001e+002
      vertex   -3.800005e+001 3.000005e+001 5.840001e+002
      vertex   3.800005e+001 3.000005e+001 5.840001e+002
    endloop
  endfacet
  facet normal 5.299992e-001 -8.479981e-001 0.000000e+000
    outer loop
      vertex   3.800005e+001 3.000005e+001 5.840001e+002
      vertex   7.000000e+001 5.000004e+001 5.840001e+002
      vertex   3.800005e+001 3.000005e+001 8.950001e+002
    endloop
  endfacet
  facet normal 5.299993e-001 -8.479981e-001 1.694435e-008
    outer loop
      vertex   3.800005e+001 3.000005e+001 8.950001e+002
      vertex   7.000000e+001 5.000004e+001 5.840001e+002
      vertex   7.000000e+001 5.000004e+001 8.950001e+002
    endloop
  endfacet
  facet normal 1.000000e+000 1.188477e-017 -3.312175e-011
    outer loop
      vertex   7.000000e+001 1.850000e+002 5.720001e+002
      vertex   7.000000e+001 1.500001e+002 5.840001e+002
      vertex   7.000000e+001 1.500005e+001 5.720000e+002
    endloop
  endfacet
  facet normal 1.000000e+000 1.135611e-011 -4.743203e-022
    outer loop
      vertex   7.000000e+001 1.850000e+002 5.720001e+002
      vertex   7.000000e+001 1.850000e+002 5.840001e+002
      vertex   7.000000e+001 1.500001e+002 5.840001e+002
    endloop
  endfacet
  facet normal 1.000000e+000 -3.974632e-012 1.159255e-011
    outer loop
      vertex   7.000000e+001 1.500001e+002 5.840001e+002
      vertex   7.000000e+001 5.000004e+001 5.840001e+002
      vertex   7.000000e+001 1.500005e+001 5.720000e+002
    endloop
  endfacet
  facet normal 1.000000e+000 2.857601e-012 -8.334582e-012
    outer loop
      vertex   7.000000e+001 1.500005e+001 5.720000e+002
      vertex   7.000000e+001 5.000004e+001 5.840001e+002
      vertex   7.000000e+001 1.500005e+001 5.840001e+002
    endloop
  endfacet
  facet normal 1.000000e+000 0.000000e+000 -0.000000e+000
    outer loop
      vertex   1.000000e+002 1.802629e+002 5.000000e+002
      vertex   1.000000e+002 1.850000e+002 5.000000e+002
      vertex   1.000000e+002 1.550001e+002 5.252629e+002
    endloop
  endfacet
  facet normal 1.000000e+000 -1.563180e-012 -1.856293e-012
    outer loop
      vertex   1.000000e+002 1.550001e+002 5.252629e+002
      vertex   1.000000e+002 1.850000e+002 5.000000e+002
      vertex   1.000000e+002 1.850000e+002 5.720000e+002
    endloop
  endfacet
  facet normal 1.000000e+000 -7.861947e-013 -2.088325e-012
    outer loop
      vertex   1.000000e+002 9.999994e+001 5.400000e+002
      vertex   1.000000e+002 1.850000e+002 5.720000e+002
      vertex   1.000000e+002 1.500005e+001 5.720000e+002
    endloop
  endfacet
  facet normal 1.000000e+000 0.000000e+000 0.000000e+000
    outer loop
      vertex   1.000000e+002 4.499999e+001 5.252629e+002
      vertex   1.000000e+002 1.500005e+001 5.720000e+002
      vertex   1.000000e+002 1.500005e+001 5.000000e+002
    endloop
  endfacet
  facet normal 1.000000e+000 0.000000e+000 -0.000000e+000
    outer loop
      vertex   1.000000e+002 1.973718e+001 5.000000e+002
      vertex   1.000000e+002 4.499999e+001 5.252629e+002
      vertex   1.000000e+002 1.500005e+001 5.000000e+002
    endloop
  endfacet
  facet normal 1.000000e+000 -6.537936e-013 -2.440015e-012
    outer loop
      vertex   1.000000e+002 1.550001e+002 5.252629e+002
      vertex   1.000000e+002 1.850000e+002 5.720000e+002
      vertex   1.000000e+002 9.999994e+001 5.400000e+002
    endloop
  endfacet
  facet normal 1.000000e+000 0.000000e+000 0.000000e+000
    outer loop
      vertex   1.000000e+002 9.999994e+001 5.400000e+002
      vertex   1.000000e+002 1.500005e+001 5.720000e+002
      vertex   1.000000e+002 4.499999e+001 5.252629e+002
    endloop
  endfacet
  facet normal 1.509382e-011 -3.588209e-007 1.000000e+000
    outer loop
      vertex   7.000000e+001 1.500005e+001 5.720000e+002
      vertex   1.000000e+002 1.500005e+001 5.720000e+002
      vertex   7.000000e+001 1.850000e+002 5.720001e+002
    endloop
  endfacet
  facet normal 2.033333e-006 -1.598596e-018 1.000000e+000
    outer loop
      vertex   7.000000e+001 1.850000e+002 5.720001e+002
      vertex   1.000000e+002 1.500005e+001 5.720000e+002
      vertex   1.000000e+002 1.850000e+002 5.720000e+002
    endloop
  endfacet
  facet normal 4.649514e-014 7.071084e-001 -7.071052e-001
    outer loop
      vertex   1.150000e+002 1.550000e+002 3.347370e+002
      vertex   -7.000000e+001 1.550000e+002 3.347370e+002
      vertex   1.150000e+002 1.952628e+002 3.750000e+002
    endloop
  endfacet
  facet normal 0.000000e+000 7.071084e-001 -7.071052e-001
    outer loop
      vertex   1.150000e+002 1.952628e+002 3.750000e+002
      vertex   -7.000000e+001 1.550000e+002 3.347370e+002
      vertex   -7.000000e+001 1.952628e+002 3.750000e+002
    endloop
  endfacet
  facet normal 5.284616e-014 2.588157e-001 -9.659267e-001
    outer loop
      vertex   1.150000e+002 1.000001e+002 3.200000e+002
      vertex   -7.000000e+001 1.000001e+002 3.200000e+002
      vertex   1.150000e+002 1.550000e+002 3.347370e+002
    endloop
  endfacet
  facet normal 3.244212e-014 2.588157e-001 -9.659267e-001
    outer loop
      vertex   1.150000e+002 1.550000e+002 3.347370e+002
      vertex   -7.000000e+001 1.000001e+002 3.200000e+002
      vertex   -7.000000e+001 1.550000e+002 3.347370e+002
    endloop
  endfacet
  facet normal 0.000000e+000 9.659258e-001 -2.588192e-001
    outer loop
      vertex   1.150000e+002 2.100001e+002 4.300000e+002
      vertex   1.150000e+002 1.952628e+002 3.750000e+002
      vertex   -7.000000e+001 2.100001e+002 4.300000e+002
    endloop
  endfacet
  facet normal 0.000000e+000 9.659258e-001 -2.588192e-001
    outer loop
      vertex   -7.000000e+001 2.100001e+002 4.300000e+002
      vertex   1.150000e+002 1.952628e+002 3.750000e+002
      vertex   -7.000000e+001 1.952628e+002 3.750000e+002
    endloop
  endfacet
  facet normal -5.029280e-015 9.659258e-001 2.588192e-001
    outer loop
      vertex   1.150000e+002 1.952629e+002 4.849999e+002
      vertex   1.150000e+002 2.100001e+002 4.300000e+002
      vertex   -7.000000e+001 1.952629e+002 4.849999e+002
    endloop
  endfacet
  facet normal 0.000000e+000 9.659258e-001 2.588192e-001
    outer loop
      vertex   -7.000000e+001 1.952629e+002 4.849999e+002
      vertex   1.150000e+002 2.100001e+002 4.300000e+002
      vertex   -7.000000e+001 2.100001e+002 4.300000e+002
    endloop
  endfacet
  facet normal 3.317596e-014 -9.659260e-001 2.588186e-001
    outer loop
      vertex   1.150000e+002 -9.999945e+000 4.300000e+002
      vertex   1.150000e+002 4.737230e+000 4.850000e+002
      vertex   -7.000000e+001 -9.999945e+000 4.300000e+002
    endloop
  endfacet
  facet normal 0.000000e+000 -9.659260e-001 2.588186e-001
    outer loop
      vertex   -7.000000e+001 -9.999945e+000 4.300000e+002
      vertex   1.150000e+002 4.737230e+000 4.850000e+002
      vertex   -7.000000e+001 4.737230e+000 4.850000e+002
    endloop
  endfacet
  facet normal 0.000000e+000 -9.659257e-001 -2.588194e-001
    outer loop
      vertex   1.150000e+002 4.737282e+000 3.750000e+002
      vertex   1.150000e+002 -9.999945e+000 4.300000e+002
      vertex   -7.000000e+001 4.737282e+000 3.750000e+002
    endloop
  endfacet
  facet normal 4.351096e-014 -9.659257e-001 -2.588194e-001
    outer loop
      vertex   -7.000000e+001 4.737282e+000 3.750000e+002
      vertex   1.150000e+002 -9.999945e+000 4.300000e+002
      vertex   -7.000000e+001 -9.999945e+000 4.300000e+002
    endloop
  endfacet
  facet normal -0.000000e+000 -7.071086e-001 -7.071049e-001
    outer loop
      vertex   1.150000e+002 4.737282e+000 3.750000e+002
      vertex   -7.000000e+001 4.737282e+000 3.750000e+002
      vertex   1.150000e+002 4.500007e+001 3.347370e+002
    endloop
  endfacet
  facet normal 5.732928e-014 -7.071086e-001 -7.071049e-001
    outer loop
      vertex   1.150000e+002 4.500007e+001 3.347370e+002
      vertex   -7.000000e+001 4.737282e+000 3.750000e+002
      vertex   -7.000000e+001 4.500007e+001 3.347370e+002
    endloop
  endfacet
  facet normal 7.573601e-014 -2.588157e-001 -9.659267e-001
    outer loop
      vertex   1.150000e+002 4.500007e+001 3.347370e+002
      vertex   -7.000000e+001 4.500007e+001 3.347370e+002
      vertex   1.150000e+002 1.000001e+002 3.200000e+002
    endloop
  endfacet
  facet normal 3.737425e-014 -2.588157e-001 -9.659267e-001
    outer loop
      vertex   1.150000e+002 1.000001e+002 3.200000e+002
      vertex   -7.000000e+001 4.500007e+001 3.347370e+002
      vertex   -7.000000e+001 1.000001e+002 3.200000e+002
    endloop
  endfacet
  facet normal -1.000000e+000 2.485394e-012 2.484434e-012
    outer loop
      vertex   -7.000000e+001 1.952629e+002 4.849999e+002
      vertex   -7.000000e+001 2.100001e+002 4.300000e+002
      vertex   -7.000000e+001 1.802629e+002 5.000000e+002
    endloop
  endfacet
  facet normal -1.000000e+000 -2.062162e-012 5.525550e-013
    outer loop
      vertex   -7.000000e+001 1.802629e+002 5.000000e+002
      vertex   -7.000000e+001 2.100001e+002 4.300000e+002
      vertex   -7.000000e+001 1.952628e+002 3.750000e+002
    endloop
  endfacet
  facet normal -1.000000e+000 -5.149523e-012 1.820723e-013
    outer loop
      vertex   -7.000000e+001 1.550000e+002 3.347370e+002
      vertex   -7.000000e+001 1.802629e+002 5.000000e+002
      vertex   -7.000000e+001 1.952628e+002 3.750000e+002
    endloop
  endfacet
  facet normal -1.000000e+000 1.690602e-013 -6.309501e-013
    outer loop
      vertex   -7.000000e+001 1.550000e+002 3.347370e+002
      vertex   -7.000000e+001 1.000001e+002 3.200000e+002
      vertex   -7.000000e+001 1.802629e+002 5.000000e+002
    endloop
  endfacet
  facet normal -1.000000e+000 -6.954189e-025 -5.555654e-013
    outer loop
      vertex   -7.000000e+001 1.802629e+002 5.000000e+002
      vertex   -7.000000e+001 1.000001e+002 3.200000e+002
      vertex   -7.000000e+001 1.973718e+001 5.000000e+002
    endloop
  endfacet
  facet normal -1.000000e+000 -2.857601e-012 1.029343e-012
    outer loop
      vertex   -7.000000e+001 5.000004e+001 5.840001e+002
      vertex   -7.000000e+001 1.973718e+001 5.000000e+002
      vertex   -7.000000e+001 1.500005e+001 5.840001e+002
    endloop
  endfacet
  facet normal -1.000000e+000 -2.117705e-028 -1.691766e-016
    outer loop
      vertex   -7.000000e+001 5.000004e+001 5.840001e+002
      vertex   -7.000000e+001 1.802629e+002 5.000000e+002
      vertex   -7.000000e+001 1.973718e+001 5.000000e+002
    endloop
  endfacet
  facet normal -1.000000e+000 1.000160e-012 1.550824e-012
    outer loop
      vertex   -7.000000e+001 5.000004e+001 5.840001e+002
      vertex   -7.000000e+001 1.500001e+002 5.840001e+002
      vertex   -7.000000e+001 1.802629e+002 5.000000e+002
    endloop
  endfacet
  facet normal -1.000000e+000 4.656962e-013 1.358272e-012
    outer loop
      vertex   -7.000000e+001 1.802629e+002 5.000000e+002
      vertex   -7.000000e+001 1.500001e+002 5.840001e+002
      vertex   -7.000000e+001 1.850000e+002 5.720001e+002
    endloop
  endfacet
  facet normal -1.000000e+000 2.110998e-011 1.469538e-022
    outer loop
      vertex   -7.000000e+001 1.850000e+002 5.000000e+002
      vertex   -7.000000e+001 1.802629e+002 5.000000e+002
      vertex   -7.000000e+001 1.850000e+002 5.720001e+002
    endloop
  endfacet
  facet normal -1.000000e+000 -1.690603e-013 -6.309502e-013
    outer loop
      vertex   -7.000000e+001 1.000001e+002 3.200000e+002
      vertex   -7.000000e+001 4.500007e+001 3.347370e+002
      vertex   -7.000000e+001 1.973718e+001 5.000000e+002
    endloop
  endfacet
  facet normal -1.000000e+000 5.149530e-012 1.820747e-013
    outer loop
      vertex   -7.000000e+001 1.973718e+001 5.000000e+002
      vertex   -7.000000e+001 4.500007e+001 3.347370e+002
      vertex   -7.000000e+001 4.737282e+000 3.750000e+002
    endloop
  endfacet
  facet normal -1.000000e+000 -7.311312e-012 1.677366e-012
    outer loop
      vertex   -7.000000e+001 -9.999945e+000 4.300000e+002
      vertex   -7.000000e+001 1.973718e+001 5.000000e+002
      vertex   -7.000000e+001 4.737282e+000 3.750000e+002
    endloop
  endfacet
  facet normal -1.000000e+000 1.407452e-011 -7.407678e-012
    outer loop
      vertex   -7.000000e+001 -9.999945e+000 4.300000e+002
      vertex   -7.000000e+001 4.737230e+000 4.850000e+002
      vertex   -7.000000e+001 1.973718e+001 5.000000e+002
    endloop
  endfacet
  facet normal -1.000000e+000 -2.111021e-011 -1.275352e-022
    outer loop
      vertex   -7.000000e+001 1.973718e+001 5.000000e+002
      vertex   -7.000000e+001 1.500005e+001 5.000000e+002
      vertex   -7.000000e+001 1.500005e+001 5.840001e+002
    endloop
  endfacet
  facet normal -1.000000e+000 -2.857602e-012 -8.334624e-012
    outer loop
      vertex   -7.000000e+001 1.500001e+002 5.840001e+002
      vertex   -7.000000e+001 1.850000e+002 5.840001e+002
      vertex   -7.000000e+001 1.850000e+002 5.720001e+002
    endloop
  endfacet
endsolid