ply
format ascii 1.0
comment VCGLIB generated
element vertex 98
property float x
property float y
property float z
property float nx
property float ny
property float nz
element face 192
property list uchar int vertex_indices
end_header
22.5 95.5579 1935 0.418081 0.204405 -0.885114 
36.8061 38.7518 1935 0.221024 -0.124324 -0.967312 
22.5 102.502 1935 0.192371 0.623327 0.757929 
22.5 17.5018 1930 0.107157 -0.0844962 -0.990645 
22.5 102.502 1930 0.0953913 0.042414 -0.994536 
-27.5 102.502 1930 0.511193 0.371547 -0.775006 
22.5 17.5018 1935 0.192371 -0.623328 0.757929 
-27.5 96.8118 1858.75 -0.0741993 0.79508 -0.601949 
-42.5 96.8118 1858.75 -0.95968 0.252841 -0.122827 
-27.5 102.502 1880 0.442123 0.896607 -0.0249583 
-42.5 102.502 1880 -0.873161 0.486701 -0.0266965 
-27.5 81.2516 1843.19 -0.21968 0.410621 -0.884947 
-27.5 80.5018 1838.49 -0.143965 0.56907 -0.809589 
-27.5 60.002 1837.5 -0.364323 -0.0827902 -0.927585 
-27.5 60.0018 1833 -0.0815457 0 -0.99667 
-27.5 38.7516 1843.19 -0.219652 -0.561001 -0.798142 
-27.5 24.4947 1853.5 -0.108249 -0.860936 -0.497062 
-27.5 95.5088 1853.5 -0.108253 0.860936 -0.497063 
-21.25 96.8079 1935 -0.43583 0.620033 0.652388 
-36.806 81.2518 1935 -0.52896 0.305395 0.791792 
20.5 95.5088 1947 0.420331 0.905687 0.0552509 
3.8e-005 101.002 1965 0.0709567 0.794438 0.603186 
-20.5 95.5088 1965 -0.412589 0.889004 0.1986 
-41 60.0018 1947 -0.98977 -0.0884033 0.111986 
-41 60.0018 1965 -0.332646 0.0297106 0.942584 
-35.507 39.5018 1965 -0.284706 -0.132133 0.949465 
-35.507 39.5018 1947 -0.816861 -0.574183 0.0552507 
-20.5 24.4947 1947 -0.418326 -0.901367 0.111985 
35.5071 39.5018 1965 0.151857 -0.106743 0.982622 
20.5 24.4947 1947 0.573042 -0.815238 0.0837205 
41 60.0018 1965 0.332646 -0.0297107 0.942584 
35.5071 39.5018 1947 0.903888 -0.419496 0.0837206 
35.5071 80.5018 1965 0.36585 0.169792 0.915054 
41 60.0018 1947 0.992538 0.0886499 0.0837202 
-42.5 60.0018 1947 -0.992621 -0.0886579 0.0827185 
-21.25 23.1957 1947 -0.419532 -0.903964 0.0827176 
-36.806 38.7518 1947 -0.807444 -0.567564 0.16095 
-36.806 38.7518 1935 -0.687456 -0.31905 0.652388 
-27.5 95.5088 1894.5 0.527295 0.694573 0.489417 
-27.5 60.0016 1915 0.811372 -0.0520023 0.582213 
2.9e-005 60.0016 1915 0.943138 0.0295715 0.331084 
2.9e-005 80.5019 1909.51 0.829464 0.321205 0.456964 
2.9e-005 39.502 1909.51 0.943139 -0.139933 0.301509 
2.9e-005 24.4947 1894.5 0.350004 -0.81094 0.468907 
-27.5 39.502 1909.51 0.57023 -0.472403 0.672066 
-42.5 60.002 1837.5 -0.974195 0.0200656 -0.224813 
-42.5 38.7516 1843.19 -0.970004 -0.102315 -0.220507 
-42.5 23.1918 1858.75 -0.928669 -0.317524 -0.191708 
-27.5 23.1918 1858.75 -0.117483 -0.838265 -0.532455 
-27.5 19.0551 1874.2 0.0346946 -0.996639 0.0742033 
-27.5 19.0018 1874 -0.00321954 -0.966543 -0.256483 
2.9e-005 19.0018 1874 0.194964 -0.98081 0.001268 
2.9e-005 39.5018 1838.49 0.829463 -0.235141 -0.506656 
-27.5 39.5018 1838.49 -0.143965 -0.56907 -0.809589 
2.9e-005 80.5018 1838.49 0.943139 0.139932 -0.30151 
-27.5 101.002 1874 -0.0032189 0.966543 -0.256483 
2.9e-005 101.002 1874 0.194965 0.980809 0.00126922 
-42.5 102.502 1935 -0.861851 0.382533 0.332988 
21.25 96.8079 1935 0.269213 0.931964 0.242831 
5.69123e-005 102.502 1935 -0.049091 0.962747 0.265909 
4.19989e-005 17.5018 1947 0.0882963 -0.98858 0.122118 
4.13908e-005 17.5018 1935 -0.049091 -0.962747 0.265909 
42.5 60.0018 1947 0.98858 0.0882963 0.122119 
35.5071 80.5018 1947 0.815238 0.573042 0.0837202 
36.8061 81.2518 1947 0.814418 0.566549 0.12548 
21.25 96.8079 1947 0.495319 0.837773 0.229773 
3.8e-005 101.002 1947 -0.0884027 0.98977 0.111986 
5.84266e-005 102.502 1947 0.0886574 0.992622 0.0827185 
-21.25 96.8079 1947 -0.415486 0.895247 0.16095 
-20.5 95.5088 1947 -0.574183 0.81686 0.055251 
-35.507 80.5018 1947 -0.903888 0.419496 0.0837204 
-36.806 81.2518 1947 -0.862333 0.497867 0.092252 
4.72076e-005 19.0018 1947 0.0886501 -0.992538 0.0837202 
-21.25 23.1957 1935 -0.43583 -0.620034 0.652388 
-27.5 17.5018 1880 0.44212 -0.896608 -0.0249584 
-27.5 24.4947 1894.5 0.683433 -0.631731 0.365836 
-27.5 80.5019 1909.51 0.570227 0.345823 0.745149 
-27.5 100.949 1874.2 0.0346949 0.996639 0.0742055 
-27.5 17.5018 1930 0.305392 -0.221967 -0.925995 
36.8061 81.2518 1935 0.601992 0.272287 -0.750643 
42.5 60.0018 1935 0.949997 -0.0848502 -0.300511 
36.8061 38.7518 1947 0.864902 -0.493037 0.0941256 
21.25 23.1957 1935 0.269212 -0.931965 0.242831 
22.5 24.4457 1935 0.741501 -0.232905 -0.629231 
21.25 23.1957 1947 0.501049 -0.847465 0.175367 
2.9e-005 24.4947 1853.5 0.645577 -0.66138 -0.381848 
2.9e-005 60.0018 1833 0.973691 0 -0.227873 
2.9e-005 95.5088 1894.5 0.747799 0.602068 0.279841 
2.9e-005 95.5088 1853.5 0.349257 0.811489 -0.468514 
-42.5 81.2516 1843.19 -0.969998 0.1398 -0.198895 
-42.5 60.0018 1935 -0.999505 0.00439624 0.0311404 
-42.5 17.5018 1880 -0.873161 -0.486701 -0.0266967 
-42.5 17.5018 1935 -0.861851 -0.382533 0.332988 
-35.507 80.5018 1965 -0.133415 0.0937791 0.986613 
20.5 95.5088 1965 0.317154 0.4512 0.834165 
4.72076e-005 19.0018 1965 -0.0709562 -0.794439 0.603185 
20.5 24.4947 1965 0.232174 -0.500264 0.834165 
-20.5 24.4947 1965 -0.563606 -0.801814 0.1986 
3 83 0 1 
3 1 0 79 
3 80 1 79 
3 2 0 4 
3 4 0 83 
3 3 83 6 
3 3 4 83 
3 3 78 4 
3 4 78 5 
3 6 61 3 
3 3 61 78 
3 78 61 92 
3 91 78 92 
3 91 74 78 
3 7 8 77 
3 77 8 10 
3 9 77 10 
3 77 55 7 
3 7 55 17 
3 11 17 12 
3 13 12 14 
3 53 13 14 
3 53 15 13 
3 53 16 15 
3 15 16 48 
3 48 16 50 
3 49 48 50 
3 7 17 11 
3 11 12 13 
3 8 7 89 
3 89 7 11 
3 67 59 68 
3 68 59 18 
3 68 18 71 
3 71 18 19 
3 34 71 90 
3 90 71 19 
3 32 63 94 
3 94 63 20 
3 94 20 21 
3 21 20 66 
3 21 66 22 
3 22 66 69 
3 22 69 93 
3 93 69 70 
3 93 70 24 
3 24 70 23 
3 24 23 25 
3 25 23 26 
3 25 26 97 
3 97 26 27 
3 97 27 95 
3 95 27 72 
3 95 72 96 
3 96 72 29 
3 96 29 28 
3 28 29 31 
3 28 31 30 
3 30 31 33 
3 30 33 32 
3 32 33 63 
3 90 37 34 
3 34 37 36 
3 35 36 73 
3 73 36 37 
3 60 35 61 
3 61 35 73 
3 76 41 38 
3 38 41 87 
3 39 40 76 
3 76 40 41 
3 44 42 39 
3 39 42 40 
3 75 43 44 
3 44 43 42 
3 89 11 45 
3 45 11 13 
3 45 13 46 
3 46 13 15 
3 46 15 47 
3 47 15 48 
3 75 49 43 
3 43 49 51 
3 51 49 50 
3 16 85 50 
3 50 85 51 
3 16 53 85 
3 85 53 52 
3 53 14 52 
3 52 14 86 
3 12 54 14 
3 14 54 86 
3 17 88 12 
3 12 88 54 
3 17 55 88 
3 88 55 56 
3 55 77 56 
3 56 77 87 
3 87 77 38 
3 59 57 18 
3 18 57 19 
3 19 57 90 
3 65 58 67 
3 67 58 59 
3 84 60 82 
3 82 60 61 
3 64 33 62 
3 64 63 33 
3 64 65 63 
3 63 65 20 
3 20 65 66 
3 66 65 67 
3 68 66 67 
3 68 69 66 
3 68 70 69 
3 68 71 70 
3 70 71 23 
3 23 71 34 
3 36 23 34 
3 36 26 23 
3 36 27 26 
3 36 35 27 
3 27 35 60 
3 72 60 84 
3 29 84 81 
3 31 81 62 
3 33 31 62 
3 27 60 72 
3 72 84 29 
3 29 81 31 
3 74 91 49 
3 49 91 47 
3 48 49 47 
3 90 92 37 
3 37 92 73 
3 73 92 61 
3 74 75 78 
3 74 49 75 
3 75 44 78 
3 78 44 39 
3 5 39 76 
3 38 5 76 
3 38 9 5 
3 38 77 9 
3 78 39 5 
3 2 4 59 
3 59 4 5 
3 57 5 10 
3 57 59 5 
3 5 9 10 
3 59 58 2 
3 2 58 0 
3 83 82 6 
3 6 82 61 
3 58 65 0 
3 0 65 64 
3 79 0 64 
3 64 62 79 
3 79 62 80 
3 62 81 80 
3 80 81 1 
3 1 81 83 
3 83 81 84 
3 82 83 84 
3 42 86 40 
3 42 52 86 
3 42 85 52 
3 42 43 85 
3 85 43 51 
3 86 54 40 
3 40 54 41 
3 41 54 87 
3 87 54 88 
3 56 87 88 
3 57 10 90 
3 90 10 8 
3 89 90 8 
3 89 45 90 
3 90 45 46 
3 47 90 46 
3 47 91 90 
3 90 91 92 
3 32 94 93 
3 30 93 28 
3 30 32 93 
3 22 93 21 
3 21 93 94 
3 93 24 28 
3 28 24 25 
3 96 25 95 
3 96 28 25 
3 25 97 95 
