ply
format ascii 1.0
comment VCGLIB generated
element vertex 167
property float x
property float y
property float z
property float nx
property float ny
property float nz
element face 330
property list uchar int vertex_indices
end_header
115 155 525.263 0.992915 0.0658628 0.098902 
115 100 320 0.749329 -0.0589098 -0.659573 
115 45.0001 334.737 0.509576 -0.494798 -0.703923 
115 -9.99994 430 0.0528226 -0.994644 -0.0888385 
100 155 525.263 0.924088 0.143364 0.354272 
100 180.263 500 0.0142953 0.753497 0.657296 
115 195.263 485 0.678255 0.669992 0.301796 
115 99.9999 540 0.997443 0.00635808 0.0711866 
-70 4.73723 485 -0.0345566 -0.886889 0.460688 
115 4.73723 485 0.232406 -0.911531 0.339263 
115 45 525.263 0.996294 -0.040939 0.0756404 
-50 25 1180 0.134119 -0.99021 0.0386759 
-50 35.0482 1142.5 0.947775 -0.277605 -0.157029 
-50 62.5002 1244.95 0.859188 -0.215396 0.464113 
-50 137.5 1244.95 0.660144 0.316209 0.681339 
-50 164.952 1142.5 0.794935 0.528066 -0.298703 
-50 35.0481 1217.5 0.21541 -0.845694 0.488262 
-71.0755 30 1161.34 0.0273692 -0.999313 -0.0249802 
-60.7884 62.5002 1115.05 0.991042 -0.0921141 0.0966954 
-66.8889 35.0482 1142.5 0.982351 -0.147981 0.114406 
-50 99.9999 1105 0.999209 0 -0.0397708 
-50 62.5002 1115.05 0.991101 -0.0576198 -0.119996 
-50 137.5 1115.05 0.997539 0.0303524 -0.0632109 
-58.5556 99.9999 1105 0.986831 9.45608e-008 0.161755 
-50 175 1180 0.0851633 0.988983 0.121077 
-71.0755 170 1161.34 0.0273679 0.999313 -0.0249803 
-50 164.952 1217.5 0.553392 0.681423 0.478979 
-135 164.952 1217.5 -0.262611 0.870718 0.415796 
-135 175 1180 -0.408935 0.912314 0.0213346 
-135 137.5 1244.95 -0.24574 0.546646 0.800494 
-50 99.9998 1255 0.929933 0 0.36773 
-162 74.0193 1195 -0.903507 -0.393508 0.169782 
-135 35.0482 1142.5 -0.720936 -0.611509 -0.32605 
-135 25 1180 -0.359914 -0.930447 0.0687816 
-123 35.0482 1142.5 -0.984908 -0.134296 -0.109179 
-123 170 1161.34 -0.0841931 0.995842 -0.0347851 
-123 30.0001 1161.34 -0.0841948 -0.995842 -0.0347852 
-123 30 950 -0.751134 -0.641706 -0.154957 
-66.8889 164.952 1142.5 0.982351 0.147981 0.114406 
-60.7884 137.5 1115.05 0.990525 0.0819736 0.11018 
-123 164.952 1142.5 -0.984908 0.134297 -0.109179 
-148.5 148.983 1166.88 -0.849459 0.509676 -0.136568 
-162 130 1180 -0.905402 0.424175 -0.0179457 
-162 125.981 1195 -0.864007 0.462287 0.199457 
-162 115 1205.98 -0.988425 0.0758557 0.131386 
-148.5 135.858 1215.86 -0.849459 0.37311 0.373107 
-148.5 113.125 1228.98 -0.849459 0.136564 0.509677 
-162 100 1210 -0.871238 0 0.490861 
-135 100 1255 -0.194455 0 0.980911 
-148.5 86.8751 1228.98 -0.849459 -0.136564 0.509676 
-148.5 64.1419 1215.86 -0.849459 -0.37311 0.373107 
-135 62.5 1244.95 -0.245739 -0.546646 0.800494 
-135 35.0481 1217.5 -0.353984 -0.812249 0.463624 
-162 100 1150 -0.953798 0 -0.30045 
-162 70.0001 1180 -0.957826 -0.287348 -1.46153e-007 
-162 85.0001 1205.98 -0.900492 -0.217436 0.376611 
-162 125.981 1165 -0.927166 0.324457 -0.187325 
-162 74.0193 1165 -0.928491 -0.340971 -0.147115 
-148.5 64.1419 1144.14 -0.849459 -0.37311 -0.373107 
-123 99.9999 1105 -0.999664 4.71247e-007 -0.0259045 
-123 62.5002 1115.05 -0.993618 -0.0474862 -0.102319 
-135 62.5 1115.05 -0.682324 -0.39008 -0.61828 
-70 50 910 -0.580029 -0.102356 -0.80814 
-123 137.5 1115.05 -0.993618 0.0474864 -0.102319 
90 30 950 -0.430133 -0.193561 0.881771 
-33 30 990 0.857949 -0.49571 0.134889 
-33 160 990 0.894192 -0.399323 0.202392 
-33 170 990 0.185857 0.975492 0.117779 
90 170 1005 -0.0251385 0.992003 0.123686 
-123 170 950 -0.767083 0.597215 -0.234346 
-33 170 950 -3.77426e-007 1 -1.49083e-006 
90 170 950 5.48343e-007 1 -9.40841e-007 
-148.5 135.858 1144.14 -0.849459 0.373111 -0.373106 
-162 115 1154.02 -0.944631 0.164067 -0.284173 
-135 164.952 1142.5 -0.709672 0.617498 -0.339207 
-148.5 113.125 1131.02 -0.849459 0.136564 -0.509677 
-135 137.5 1115.05 -0.682325 0.39008 -0.61828 
-148.5 86.8751 1131.02 -0.849459 -0.136565 -0.509676 
-162 85.0001 1154.02 -0.956603 -0.145698 -0.252356 
-135 100 1105 -0.631619 0 -0.775279 
-70 170 910 -0.0799283 0.919175 -0.385653 
70 170 910 0.0614038 0.868864 -0.491229 
70 150 910 0.668255 0.359825 -0.651123 
-70 150 910 -0.540454 0.145505 -0.828696 
70 30 910 0.0671956 -0.950816 -0.302379 
-70 30 910 -0.0702634 -0.808027 -0.584941 
70 50 910 0.583972 -0.206104 -0.785173 
-33 30 950 0.212872 -0.725403 0.654581 
-33 160 950 0.306003 -0.144763 0.94096 
90 160 950 -0.339576 -0.554957 0.759415 
90 160 1005 -0.924047 -0.359263 0.130641 
90 30.0001 1015 -0.970489 -0.197555 0.138288 
110 170 950 0.563894 0.361896 -0.742331 
90 170 1015 -0.965314 0.0503244 0.256197 
110 170 1085 -0.992843 0.0365464 0.1137 
-70 150 895 -0.979371 0.198226 0.0392197 
-70 50 895 -0.938781 -0.329503 0.100584 
70 50 895 0.956 -0.285756 0.066389 
110 30 950 0.496503 -0.32105 -0.806481 
173 30.0001 980 0.851596 -0.383218 -0.35767 
110 30 1040 -0.0243264 -0.997381 -0.0681139 
110 20 1180 -0.605365 -0.793255 0.0654131 
110 100 1260 -0.879114 -0.0424084 0.474721 
110 30.0001 1085 -0.996429 -0.0133979 0.0833648 
110 180 1180 -0.962724 0.269569 0.0222291 
173 170 980 0.64297 0.36167 -0.675118 
70 150 895 0.983646 0.169549 0.0607745 
-38 170 895 -0.181726 0.981322 0.0631075 
-38 170 584 -0.181692 0.981137 0.0660163 
-70 50 584 -0.9805 -0.19621 0.0110407 
-38 30 584 -0.10775 -0.991305 0.0755292 
173 30 1040 0.911288 -0.410079 -0.03728 
173 170 1040 0.976885 0.212887 -0.0193532 
173 140 1249.28 0.80776 0.339008 0.482283 
173 100 1260 0.981661 0.0169624 0.189878 
173 169.28 1220 0.167698 0.853755 0.49293 
173 20 1090 0.973996 -0.225323 -0.0237182 
110 20 1090 -0.0926792 -0.994756 -0.0432503 
173 20 1180 0.261744 -0.961872 0.0793175 
173 30.7201 1220 0.112243 -0.812938 0.571432 
110 60 1249.28 -0.836792 -0.314861 0.447931 
110 30.7201 1220 -0.112239 -0.901332 0.418334 
173 60 1249.28 0.807752 -0.248185 0.534734 
110 140 1249.28 -0.948806 0.132974 0.286503 
110 169.28 1220 -0.0847473 0.862904 0.498212 
173 180 1090 0.965669 0.258347 -0.0271941 
110 180 1090 -0.0926782 0.994756 -0.0432498 
173 180 1180 0.261744 0.961872 0.0793175 
110 170 1040 -0.0240667 0.997437 -0.0673869 
38 170 584 0.10775 0.991305 0.0755288 
38 170 895 0.274566 0.960983 0.0335484 
70 185 584 0.114876 0.459506 0.880714 
-70 19.7372 500 -0.998812 -0.04021 0.0275112 
38 30 584 0.181692 -0.981137 0.0660167 
70 50 584 0.967488 -0.252516 0.0142091 
70 15 584 0.089528 -0.358112 0.929376 
-38 30 895 -0.274566 -0.960983 0.0335484 
38 30 895 0.181726 -0.981322 0.0631075 
70 150 584 0.921204 0.388466 0.021859 
100 185 500 0.155417 0.981727 -0.109804 
100 99.9999 540 0.977311 -0.018843 0.210971 
100 45 525.263 0.969183 -0.109878 0.220478 
100 15 572 0.713346 -0.145188 0.685608 
100 19.7372 500 0.0152148 -0.801958 0.597187 
100 15 500 0.156125 -0.986196 -0.0551525 
70 15 572 0.128246 -0.975509 0.178703 
70 185 572 0.0826853 0.935748 0.342838 
100 185 572 0.886533 0.180436 0.42603 
115 195.263 375 0.147033 0.856613 -0.494566 
-70 155 334.737 -0.424152 0.520771 -0.740873 
-70 195.263 375 -0.377812 0.801838 -0.462941 
115 155 334.737 0.74933 0.278767 -0.600661 
115 210 430 0.0528228 0.994644 0.0888377 
-70 -9.99994 430 -0.106133 -0.990409 0.0884593 
115 4.73728 375 0.559048 -0.718053 -0.414567 
-70 195.263 485 -0.0216839 0.921839 0.386967 
-70 210 430 -0.106134 0.990409 -0.088461 
-70 100 320 -0.834035 0.0490809 -0.549524 
-70 15 584 -0.234771 -0.945299 0.226477 
-70 180.263 500 -0.999275 0.0357277 0.0131615 
-70 185 500 -0.0152693 0.999233 -0.0360524 
-70 185 572 -0.27305 0.962 0 
-70 45.0001 334.737 -0.424153 -0.381229 -0.821437 
-70 4.73728 375 -0.199909 -0.848545 -0.489907 
-70 15 500 -0.0165405 -0.997619 -0.0669495 
-70 150 584 -0.940022 0.340576 0.0191642 
-70 185 584 -0.0760805 0.608646 0.789786 
3 151 7 1 
3 151 0 7 
3 151 6 0 
3 151 148 6 
3 6 148 152 
3 7 10 1 
3 1 10 2 
3 2 10 154 
3 154 10 9 
3 3 154 9 
3 4 0 5 
3 5 0 6 
3 155 5 6 
3 155 159 5 
3 140 7 4 
3 4 7 0 
3 141 10 140 
3 140 10 7 
3 132 8 143 
3 143 8 9 
3 10 143 9 
3 10 141 143 
3 11 12 16 
3 16 12 13 
3 13 12 21 
3 20 13 21 
3 20 30 13 
3 20 22 30 
3 30 22 14 
3 14 22 26 
3 26 22 15 
3 24 26 15 
3 11 16 33 
3 33 16 52 
3 19 12 17 
3 17 12 11 
3 33 17 11 
3 33 36 17 
3 33 32 36 
3 36 32 34 
3 21 12 18 
3 18 12 19 
3 20 21 23 
3 23 21 18 
3 39 22 23 
3 23 22 20 
3 38 15 39 
3 39 15 22 
3 24 25 28 
3 24 15 25 
3 25 15 38 
3 25 35 28 
3 28 35 74 
3 74 35 40 
3 26 24 27 
3 27 24 28 
3 14 26 29 
3 29 26 27 
3 30 14 48 
3 48 14 29 
3 30 48 13 
3 13 48 51 
3 13 51 16 
3 16 51 52 
3 52 31 33 
3 33 31 54 
3 32 33 57 
3 57 33 54 
3 60 34 61 
3 61 34 32 
3 35 69 40 
3 40 69 63 
3 63 69 59 
3 59 69 37 
3 60 37 34 
3 60 59 37 
3 37 36 34 
3 36 37 17 
3 17 37 65 
3 65 37 87 
3 17 65 19 
3 19 65 18 
3 18 65 23 
3 23 65 66 
3 39 66 67 
3 38 67 25 
3 38 39 67 
3 23 66 39 
3 35 25 69 
3 69 25 67 
3 70 69 67 
3 63 76 40 
3 40 76 74 
3 42 28 41 
3 56 41 74 
3 56 42 41 
3 28 74 41 
3 27 28 43 
3 43 28 42 
3 44 29 45 
3 43 45 27 
3 43 44 45 
3 29 27 45 
3 47 48 46 
3 44 46 29 
3 44 47 46 
3 48 29 46 
3 55 51 49 
3 47 49 48 
3 47 55 49 
3 51 48 49 
3 31 52 50 
3 55 50 51 
3 55 31 50 
3 52 51 50 
3 53 78 44 
3 73 44 56 
3 73 53 44 
3 78 57 44 
3 44 57 54 
3 31 44 54 
3 31 55 44 
3 44 55 47 
3 43 42 44 
3 44 42 56 
3 78 61 58 
3 57 58 32 
3 57 78 58 
3 61 32 58 
3 59 60 79 
3 79 60 61 
3 85 37 62 
3 62 37 69 
3 83 69 80 
3 83 62 69 
3 59 79 63 
3 63 79 76 
3 98 64 84 
3 84 64 87 
3 85 87 37 
3 85 84 87 
3 66 65 88 
3 88 65 87 
3 66 90 67 
3 67 90 68 
3 70 67 71 
3 71 67 68 
3 80 70 81 
3 80 69 70 
3 70 71 81 
3 81 71 92 
3 56 74 72 
3 73 72 76 
3 73 56 72 
3 74 76 72 
3 73 76 75 
3 53 75 79 
3 53 73 75 
3 76 79 75 
3 53 79 77 
3 78 77 61 
3 78 53 77 
3 79 61 77 
3 80 81 83 
3 83 81 82 
3 62 83 96 
3 96 83 95 
3 84 85 86 
3 86 85 62 
3 84 86 98 
3 98 86 92 
3 92 86 82 
3 81 92 82 
3 64 98 91 
3 91 98 100 
3 103 91 100 
3 87 64 88 
3 88 64 89 
3 90 66 89 
3 89 66 88 
3 89 64 90 
3 90 64 91 
3 93 90 91 
3 93 68 90 
3 71 68 92 
3 92 68 128 
3 128 68 93 
3 94 128 93 
3 83 82 95 
3 95 82 106 
3 165 109 95 
3 95 109 96 
3 62 96 86 
3 86 96 97 
3 86 97 82 
3 82 97 106 
3 99 98 105 
3 105 98 92 
3 98 99 100 
3 100 99 111 
3 100 117 103 
3 103 117 101 
3 120 101 121 
3 120 103 101 
3 120 102 103 
3 103 102 123 
3 104 123 124 
3 104 103 123 
3 104 94 103 
3 104 126 94 
3 94 126 128 
3 91 103 93 
3 93 103 94 
3 112 105 128 
3 128 105 92 
3 95 106 107 
3 107 106 130 
3 108 165 107 
3 107 165 95 
3 96 109 136 
3 136 109 110 
3 97 96 137 
3 137 96 136 
3 97 134 106 
3 106 134 138 
3 116 111 112 
3 125 116 112 
3 125 114 116 
3 125 113 114 
3 125 127 113 
3 113 127 115 
3 105 112 99 
3 99 112 111 
3 114 122 116 
3 116 122 118 
3 118 122 119 
3 111 116 100 
3 100 116 117 
3 116 118 117 
3 117 118 101 
3 119 121 118 
3 118 121 101 
3 122 120 119 
3 119 120 121 
3 114 102 122 
3 122 102 120 
3 113 123 114 
3 114 123 102 
3 115 124 113 
3 113 124 123 
3 115 127 124 
3 124 127 104 
3 125 126 127 
3 127 126 104 
3 112 128 125 
3 125 128 126 
3 130 129 107 
3 107 129 108 
3 106 138 130 
3 130 138 129 
3 138 131 129 
3 129 131 166 
3 108 166 165 
3 108 129 166 
3 144 164 143 
3 143 164 132 
3 135 158 145 
3 145 158 164 
3 144 145 164 
3 144 142 145 
3 109 158 110 
3 110 158 135 
3 133 135 134 
3 133 110 135 
3 160 161 146 
3 139 146 147 
3 139 160 146 
3 131 146 166 
3 166 146 161 
3 160 139 159 
3 159 139 5 
3 136 110 137 
3 137 110 133 
3 133 134 137 
3 137 134 97 
3 146 138 145 
3 146 131 138 
3 138 134 145 
3 145 134 135 
3 5 139 4 
3 4 139 147 
3 140 147 142 
3 141 142 144 
3 143 141 144 
3 4 147 140 
3 140 142 141 
3 145 142 146 
3 146 142 147 
3 151 149 148 
3 148 149 150 
3 1 157 151 
3 151 157 149 
3 152 148 156 
3 156 148 150 
3 6 152 155 
3 155 152 156 
3 3 9 153 
3 153 9 8 
3 154 3 163 
3 163 3 153 
3 154 163 2 
3 2 163 162 
3 2 162 1 
3 1 162 157 
3 155 156 159 
3 159 156 150 
3 149 159 150 
3 149 157 159 
3 159 157 132 
3 109 132 158 
3 109 159 132 
3 109 165 159 
3 159 165 161 
3 160 159 161 
3 157 162 132 
3 132 162 163 
3 153 132 163 
3 153 8 132 
3 132 164 158 
3 165 166 161 
