ply
format ascii 1.0
comment VCGLIB generated
element vertex 184
property float x
property float y
property float z
property float nx
property float ny
property float nz
element face 368
property list uchar int vertex_indices
end_header
135 -58.1782 282 0.0126226 -0.937533 0.347666 
135 -70 255 0.617708 -0.75198 0.230138 
135 135 237 0.60235 0.60235 -0.523783 
135 115 237 0.99953 0.0226814 -0.0206195 
110 -70 282 0.0416667 -0.959627 -0.278172 
135 -70 282 0.379545 -0.696027 0.609501 
-115 -80 255 -0.1405 0.888572 0.436692 
135 -105 255 0.69056 -0.436143 0.576981 
100 -80 255 0.0877383 0.821659 0.563186 
135 115 215 0.786796 0.121046 -0.605228 
115 135 237 0.0507148 0.998447 -0.0230522 
110 135 260 -0.00105515 0.999999 -0.00119904 
110 136 260 -0.0964136 0.913592 -0.395037 
135 135 260 0.445929 0.0908001 -0.890451 
160 -65.9981 260 -0.0599137 -0.000776084 -0.998203 
135 -66 260 0.776406 -0.0713138 -0.626185 
160 6.60003 464.2 0.14284 -0.924719 0.352832 
110 -80 282 0.497402 -0.497402 0.710762 
110 -58.1782 282 0.172836 -0.365503 0.914623 
-70 -70 282 -0.0173853 -0.990144 -0.138968 
-70 -58 282 -0.104149 -0.564139 0.819085 
-135 135 237 -0.60235 0.60235 -0.523783 
-135 135 260 -0.294952 0.752679 -0.588623 
-135 -70 255 -0.704527 -0.604884 0.371156 
-135 -70 282 -0.188672 -0.89959 0.393879 
-135 -66 260 -0.776408 -0.0713125 -0.626182 
-135 115 237 -0.998814 0.0443246 -0.0201475 
-135 -105 255 -0.77474 -0.357572 0.52146 
-105 -135 255 -0.153313 -0.689908 0.707475 
105 -135 255 0.0629609 -0.944414 0.322675 
-115 -110 265 -0.333381 -0.421626 -0.843261 
100 -110 265 0.174105 -0.44038 -0.880768 
100 -110 255 0.0235089 -0.168481 0.985425 
-115 -110 255 -0.0387747 -0.55577 0.830431 
-115 -80 282 -0.484209 0.251414 0.838053 
-115 135 215 -0.0145183 0.181479 -0.983288 
-115 135 237 -0.0260425 0.99938 -0.023675 
-135 135 282 0.118235 0.768528 -0.628796 
-135 193.97 395.8 0.00655345 0.952737 -0.303725 
-135 144 282 0.046395 0.886918 -0.459592 
-70 135 282 0.302777 0.679151 0.66864 
110 135 282 -0.576654 0.524455 0.626432 
110 -26.25 305 -0.374475 -0.240629 0.89547 
110 -54.2627 293.013 -0.254656 -0.586193 0.769109 
110 35.72 506.6 -0.927089 -0.216912 0.305704 
110 82.6399 528.48 -0.945335 -0.0545719 0.321503 
110 176.6 494.28 -0.176999 0.802679 0.569542 
160 134.719 257 0.682946 0.0057063 -0.730447 
160 136 260 0.023658 0.729234 -0.683855 
160 -65.9996 260 0.193839 -0.924352 0.328634 
160 -57.7802 257 -0.792199 -0.00912021 -0.610195 
162.612 -64.9391 259.612 0.709228 -0.0105373 -0.7049 
183 -48.3334 280 0.975171 -0.191945 -0.110452 
110 6.59998 464.2 -0.944015 -0.302615 0.131376 
-70 -80 282 -0.00450494 0.185235 0.982684 
-135 6.53431 464.015 0.00111194 -0.942463 0.334308 
-135 -58 282 0.00243509 -0.942235 0.334944 
-135 -58.1782 282 -0.0198767 -0.891238 0.453101 
-160 6.59998 464.2 -0.220523 -0.909245 0.353049 
-135 136 260 0.0552336 0.91708 -0.394858 
-115 -130 270 -0.0431516 -0.306814 0.950791 
100 -130 270 0.0289014 -0.331632 0.942966 
100 -130 265 0.0225557 -0.242474 -0.969896 
-115 -130 265 -0.01128 -0.24252 -0.970081 
-160 136 260 -0.96788 0.116053 -0.223023 
-70 144 282 0.0613528 0.886201 -0.45922 
-70 81.25 305 0.799672 0.15471 0.580163 
-70 193.97 395.8 0.983619 0.17121 -0.0564073 
-70 35.72 506.6 0.885485 -0.266652 0.380542 
-70 6.6 464.2 0.948115 -0.288331 0.13395 
-70 -54.0653 293.098 0.0898051 -0.753942 0.650774 
-70 -26.25 305 0.627943 -0.201832 0.751633 
110 81.25 305 -0.793093 0.199825 0.57539 
-70 27.5 315 0.482949 -0.0541997 0.873969 
110 27.5 315 -0.482949 0.0541997 0.87397 
160 37.0481 507.219 0.00411277 -0.441117 0.89744 
160 35.72 506.6 0.00850745 -0.667501 0.74456 
110 134.2 523.4 -0.754214 0.22457 0.617033 
160 176.6 494.28 0.00851043 0.744561 0.667501 
160 175.113 495.301 0.0321365 0.59007 0.806712 
160 197.859 448.692 -0.0191915 0.910548 0.412959 
160 198.316 445.488 0.0328455 0.997733 -0.058739 
110 193.97 395.8 -0.980923 0.187106 -0.0527471 
110 198.48 447.36 -0.696445 0.706829 0.123923 
160 193.97 395.8 0.119659 0.926952 -0.355586 
183 133.678 280 0.990067 0.0930713 -0.105383 
183 184.57 399.22 0.992707 0.111716 -0.0452992 
183 15.9399 460.78 0.9986 -0.0498888 0.0176019 
183 15.5058 460.938 0.405228 -0.83448 0.373408 
160 6.11505 464.377 0.380435 -0.844176 0.377672 
160 34.6991 505.113 0.0178402 -0.807001 0.590281 
-135 6.59998 464.2 -9.88516e-007 -0.82475 0.565497 
-135 35.72 506.6 -5.22385e-007 -0.67591 0.736984 
-160 35.72 506.6 -0.150925 -0.704005 0.693973 
-160 52.5 512.272 -0.790192 -0.306429 0.530752 
-160 82.6399 528.48 -0.152011 -0.254096 0.955159 
-160 198.48 447.36 -0.0510968 0.983512 0.173473 
-160 193.97 395.8 -0.149657 0.926475 -0.345321 
-160 134.2 523.4 -0.106412 0.340089 0.934353 
-160 147.5 512.272 -0.786844 0.308576 0.534469 
-160 182.272 477.5 -0.790192 0.530752 0.30643 
-160 182.272 382.5 -0.915584 0.348252 -0.201063 
-160 5 430 -0.92766 -0.373427 1.8906e-008 
-160 -66 260 -0.957224 -0.166125 -0.236908 
-70 198.48 447.36 0.307529 0.937074 0.165282 
-160 176.6 494.28 -0.223861 0.74431 0.629198 
-135 176.6 494.28 -3.99683e-007 0.801023 0.598634 
-70 176.6 494.28 0.137561 0.695341 0.705392 
-135 134.2 523.4 -3.16501e-007 0.405287 0.914189 
-70 134.2 523.4 0.755123 0.170845 0.63293 
-70 82.6399 528.48 0.917082 -0.0670464 0.393021 
160 40.8672 510.643 0.105283 -0.540914 0.834463 
160 57.7362 520.63 0.315495 -0.427138 0.847358 
160 84.4258 528.304 0.0315709 0.0683574 0.997161 
160 82.6399 528.48 0.0085311 -0.141341 0.989924 
160 81.3082 527.859 -0.0230763 -0.413021 0.910429 
160 134.2 523.4 -0.094509 0.340447 0.935502 
160 167.557 503.729 0.128031 0.650492 0.748644 
160 177.22 492.951 -0.0379081 0.896801 0.440807 
160 197.134 453.771 0.382137 0.878777 0.285873 
160 198.48 447.36 0.00853109 0.989924 0.141342 
160 199.905 434.364 0.146735 0.989034 0.0167596 
160 198.837 414.79 0.352854 0.928707 -0.114003 
183 188.95 416.311 0.983282 0.178885 -0.0340102 
183 189.911 433.927 0.97556 0.219628 0.00685225 
183 187.418 451.392 0.987278 0.155129 0.0348731 
183 181.565 468.036 0.963314 0.243228 0.113425 
183 160.8 496.354 0.957269 0.192733 0.215614 
183 96.0732 519.911 0.914719 -0.0272847 0.403169 
183 46.7828 502.577 0.629628 -0.448269 0.634526 
183 23.0596 476.687 0.443797 -0.749092 0.491839 
160 14.5077 481.875 0.251317 -0.842224 0.476967 
160 26.2708 497.557 0.367708 -0.717679 0.591378 
183 33.6462 490.8 0.558106 -0.598198 0.575045 
-135 82.64 528.48 -5.11039e-007 -0.147989 0.988989 
-195 100 370 -0.928277 0 -0.37189 
-160 147.5 347.728 -0.954743 0.148716 -0.257583 
-177.5 119.375 357.691 -0.694747 0.186157 -0.694746 
-195 151.962 400 -0.966938 0.220845 -0.127505 
-195 130 378.039 -0.95563 0.147285 -0.255105 
-177.5 152.934 377.066 -0.694747 0.50859 -0.50859 
-177.5 172.309 410.625 -0.694747 0.694746 -0.186157 
-160 195 430 -0.790212 0.612834 0 
-177.5 172.309 449.375 -0.694747 0.694746 0.186157 
-195 160 430 -0.982584 0.185818 0 
-177.5 152.934 482.934 -0.694747 0.50859 0.50859 
-195 100 490 -0.768336 -8.52334e-007 0.640046 
-177.5 119.375 502.309 -0.694746 0.186156 0.694747 
-195 70 481.961 -0.937604 -0.173853 0.301122 
-177.5 80.625 502.308 -0.694746 -0.186156 0.694747 
-160 100 525 -0.787368 -6.54386e-007 0.616484 
-177.5 47.0665 482.934 -0.694747 -0.50859 0.50859 
-160 17.7276 477.5 -0.783668 -0.54193 0.303606 
-195 40 430 -0.991998 -0.126254 1.65128e-008 
-195 48.0385 400 -0.745118 -0.608785 -0.27236 
-177.5 47.0665 377.066 -0.694747 -0.50859 -0.50859 
-160 17.7276 382.5 -0.980624 -0.170905 -0.0957463 
-160 52.5 347.728 -0.995297 -0.048437 -0.0838953 
-177.5 80.625 357.691 -0.694747 -0.186157 -0.694746 
-160 100 335 -0.958458 0 -0.285234 
183 78.6077 517.418 0.879422 -0.104483 0.464435 
160 76.2293 527.134 0.382138 -0.285873 0.878776 
183 61.9645 511.565 0.762068 -0.252856 0.596084 
160 95.6358 529.905 0.22968 0.0086278 0.973228 
160 115.21 528.836 0.338907 0.171443 0.925067 
183 113.689 518.95 0.926165 0.044223 0.374517 
160 151.875 515.492 0.340803 0.512031 0.788466 
160 134.2 523.97 0.38617 0.341806 0.856762 
183 130.78 514.57 0.946854 0.0993156 0.305947 
183 146.687 506.94 0.960065 0.136638 0.24414 
160 190.63 472.264 0.201384 0.88773 0.413981 
160 180.643 489.133 0.382138 0.783842 0.489451 
183 172.577 483.217 0.982969 0.146138 0.111423 
-195 70 378.039 -0.868005 -0.248278 -0.43003 
-195 48.0385 460 -0.956558 -0.266124 0.119059 
-195 130 481.961 -0.868005 0.248278 0.43003 
-195 151.962 460 -0.966938 0.220845 0.127505 
-135 115 215 -0.766652 0.0638877 -0.638877 
135 -105 215 0.181941 -0.014113 -0.983208 
-135 -105 215 -0.124807 -0.0179686 -0.992018 
115 135 215 0.0035335 0.0441688 -0.999018 
105 -135 215 0.188509 -0.848293 -0.494837 
-105 -135 215 -0.0519875 -0.779813 -0.62385 
100 -80 282 0.0907071 -0.0997761 0.990867 
3 0 5 15 
3 15 5 1 
3 3 1 178 
3 9 3 178 
3 1 7 178 
3 2 13 3 
3 3 13 15 
3 1 3 15 
3 4 5 18 
3 18 5 0 
3 5 4 1 
3 1 4 19 
3 23 19 24 
3 23 1 19 
3 1 8 7 
3 1 23 8 
3 8 23 6 
3 6 23 27 
3 33 27 28 
3 32 28 29 
3 7 32 29 
3 7 8 32 
3 6 27 33 
3 33 28 32 
3 29 181 7 
3 7 181 178 
3 3 9 10 
3 10 9 180 
3 10 2 3 
3 2 10 13 
3 13 10 11 
3 11 10 36 
3 22 36 21 
3 22 11 36 
3 22 40 11 
3 22 37 40 
3 180 35 10 
3 10 35 36 
3 40 41 11 
3 11 12 13 
3 13 12 48 
3 14 13 48 
3 14 15 13 
3 14 49 15 
3 15 49 0 
3 0 49 16 
3 53 0 16 
3 53 43 0 
3 0 43 18 
3 17 4 43 
3 43 4 18 
3 17 183 4 
3 4 183 19 
3 19 183 54 
3 24 19 57 
3 57 19 20 
3 56 57 20 
3 21 26 22 
3 22 26 25 
3 25 26 23 
3 24 25 23 
3 24 57 25 
3 177 179 26 
3 26 179 23 
3 23 179 27 
3 27 179 28 
3 28 179 182 
3 28 182 29 
3 29 182 181 
3 30 33 31 
3 31 33 32 
3 33 30 6 
3 6 30 34 
3 34 30 60 
3 60 30 63 
3 36 35 26 
3 26 35 177 
3 26 21 36 
3 22 59 37 
3 37 59 39 
3 39 59 38 
3 39 65 37 
3 37 65 40 
3 66 72 40 
3 40 72 41 
3 72 82 41 
3 72 53 82 
3 72 74 53 
3 53 74 42 
3 43 53 42 
3 53 44 82 
3 82 44 45 
3 77 82 45 
3 77 83 82 
3 77 46 83 
3 82 12 41 
3 41 12 11 
3 82 84 12 
3 12 84 48 
3 47 50 48 
3 48 50 14 
3 49 14 51 
3 51 14 50 
3 51 52 49 
3 49 52 16 
3 16 52 87 
3 76 44 90 
3 90 44 53 
3 16 90 53 
3 71 70 42 
3 42 70 43 
3 43 70 183 
3 17 43 183 
3 70 54 183 
3 20 19 70 
3 70 19 54 
3 91 55 69 
3 69 55 70 
3 70 55 56 
3 20 70 56 
3 56 55 57 
3 103 57 58 
3 103 25 57 
3 57 55 58 
3 58 55 91 
3 25 103 22 
3 22 103 64 
3 59 22 64 
3 60 63 61 
3 61 63 62 
3 30 31 63 
3 63 31 62 
3 64 97 59 
3 59 97 38 
3 39 38 65 
3 65 38 67 
3 65 67 40 
3 40 67 66 
3 66 67 69 
3 73 69 71 
3 73 66 69 
3 104 109 67 
3 104 107 109 
3 109 110 67 
3 67 110 68 
3 69 67 68 
3 69 70 71 
3 73 74 66 
3 66 74 72 
3 71 42 73 
3 73 42 74 
3 114 45 115 
3 115 45 44 
3 75 44 76 
3 75 115 44 
3 116 77 113 
3 113 77 45 
3 114 113 45 
3 78 46 79 
3 79 46 77 
3 116 79 77 
3 120 83 80 
3 80 83 46 
3 118 46 78 
3 118 80 46 
3 84 82 81 
3 81 82 83 
3 120 81 83 
3 47 48 85 
3 85 48 84 
3 86 85 84 
3 50 47 51 
3 51 47 52 
3 52 47 85 
3 52 85 87 
3 87 85 86 
3 87 88 16 
3 16 88 89 
3 89 131 16 
3 16 131 90 
3 90 131 132 
3 75 76 90 
3 91 69 92 
3 92 69 68 
3 58 102 103 
3 58 152 102 
3 58 93 152 
3 152 93 94 
3 94 93 95 
3 150 95 98 
3 99 98 105 
3 100 105 96 
3 142 96 97 
3 101 97 64 
3 136 64 159 
3 136 101 64 
3 94 95 150 
3 150 98 99 
3 99 105 100 
3 100 96 142 
3 142 97 101 
3 159 64 157 
3 157 64 103 
3 156 103 102 
3 156 157 103 
3 58 91 93 
3 93 91 92 
3 97 96 38 
3 38 96 104 
3 67 38 104 
3 107 104 106 
3 106 104 96 
3 105 106 96 
3 106 108 107 
3 107 108 109 
3 108 134 109 
3 109 134 110 
3 92 68 134 
3 134 68 110 
3 75 111 115 
3 115 111 112 
3 161 115 112 
3 113 114 115 
3 113 163 116 
3 116 163 164 
3 167 116 164 
3 167 166 116 
3 116 166 117 
3 79 116 117 
3 118 78 79 
3 171 170 118 
3 118 170 80 
3 80 170 119 
3 81 120 80 
3 81 121 84 
3 84 121 122 
3 122 123 84 
3 84 123 86 
3 123 124 87 
3 86 123 87 
3 124 125 87 
3 87 125 126 
3 172 87 126 
3 172 127 87 
3 87 127 169 
3 168 87 169 
3 168 165 87 
3 87 165 128 
3 160 87 128 
3 160 162 87 
3 87 162 129 
3 133 87 129 
3 133 130 87 
3 87 130 88 
3 130 131 88 
3 88 131 89 
3 133 132 130 
3 130 132 131 
3 111 75 129 
3 129 75 90 
3 133 90 132 
3 133 129 90 
3 93 92 95 
3 95 92 134 
3 95 134 98 
3 98 134 108 
3 105 98 106 
3 106 98 108 
3 139 136 137 
3 135 137 159 
3 135 139 137 
3 136 159 137 
3 138 101 140 
3 139 140 136 
3 139 138 140 
3 101 136 140 
3 144 142 141 
3 138 141 101 
3 138 144 141 
3 142 101 141 
3 176 100 143 
3 144 143 142 
3 144 176 143 
3 100 142 143 
3 175 99 145 
3 176 145 100 
3 176 175 145 
3 99 100 145 
3 146 150 147 
3 175 147 99 
3 175 146 147 
3 150 99 147 
3 148 94 149 
3 146 149 150 
3 146 148 149 
3 94 150 149 
3 174 152 151 
3 148 151 94 
3 148 174 151 
3 152 94 151 
3 152 174 102 
3 102 174 153 
3 156 102 154 
3 154 102 153 
3 173 157 155 
3 154 155 156 
3 154 173 155 
3 157 156 155 
3 135 159 158 
3 173 158 157 
3 173 135 158 
3 159 157 158 
3 162 112 129 
3 129 112 111 
3 160 161 162 
3 162 161 112 
3 163 113 128 
3 128 113 160 
3 160 113 115 
3 161 160 115 
3 164 163 165 
3 165 163 128 
3 167 164 168 
3 168 164 165 
3 166 167 169 
3 169 167 168 
3 117 166 127 
3 127 166 169 
3 171 118 172 
3 172 118 79 
3 127 79 117 
3 127 172 79 
3 170 171 126 
3 126 171 172 
3 125 119 126 
3 126 119 170 
3 121 81 124 
3 124 81 125 
3 125 81 80 
3 119 125 80 
3 123 122 124 
3 124 122 121 
3 154 153 173 
3 173 153 135 
3 135 153 139 
3 139 153 138 
3 138 153 144 
3 144 153 174 
3 176 174 148 
3 175 148 146 
3 175 176 148 
3 144 174 176 
3 177 35 179 
3 179 35 180 
3 178 180 9 
3 178 179 180 
3 178 182 179 
3 178 181 182 
3 32 8 31 
3 31 8 183 
3 61 31 183 
3 61 62 31 
3 34 54 6 
3 6 54 8 
3 8 54 183 
3 34 60 54 
3 54 60 61 
3 183 54 61 
