ply
format ascii 1.0
comment VCGLIB generated
element vertex 241
property float x
property float y
property float z
property float nx
property float ny
property float nz
element face 482
property list uchar int vertex_indices
end_header
42.5 17.5018 1935 0.39659 -0.631909 0.665888 
22.5 42.502 1910.31 -0.707078 -0.297687 0.641423 
22.5 60.0016 1915 -0.920736 0.0347104 0.388638 
22.5 17.5018 1935 -0.723698 -0.283228 0.629319 
22.5 96.8118 1858.75 -0.467997 0.765352 -0.441832 
22.5 90.3127 1862.5 -0.258861 0.836507 -0.482956 
22.5 60.002 1837.5 -0.41353 0.0809436 -0.906885 
22.5 60.0018 1845 -0.216111 -0.0868572 -0.972498 
22.5 95.0018 1880 -0.335202 0.938411 0.0838161 
22.5 81.2516 1843.19 -0.331746 0.542479 -0.771791 
22.5 42.5018 1849.69 -0.335237 -0.541786 -0.770768 
22.5 25.0018 1880 -0.335201 -0.938411 0.0838146 
22.5 17.5018 1880 -0.328028 -0.941468 -0.0776871 
22.5 29.6909 1862.5 -0.335308 -0.854562 -0.396602 
22.5 23.1918 1858.75 -0.467996 -0.765355 -0.441827 
42.5 102.502 1880 -0.877747 0.477098 -0.0440286 
42.5 65.0001 1803 -0.941459 0.238385 0.238385 
42.5 113 1798 -0.840058 0.535126 0.0891166 
42.5 23.1918 1858.75 -0.742925 -0.579712 -0.334658 
42.5 55.0001 1798 -0.487016 -0.862424 0.137988 
42.5 7.00014 1798 -0.840071 -0.535106 0.0891127 
42.5 7.00014 1908 -0.540731 -0.838117 0.0719005 
42.5 17.5018 1880 -0.877789 -0.477021 -0.0440189 
42.5 60.002 1837.5 -0.824923 -0.0502504 -0.563008 
42.5 55.0001 1803 -0.870202 -0.22034 0.44068 
42.5 29.0001 1934 0.396542 -0.631878 0.665947 
42.5 32.8753 1935 -0.13613 -0.119543 0.983452 
22.5 102.502 1935 -0.824267 0.322605 0.465306 
42.5 87.125 1935 -0.0835797 0.0734013 0.993794 
42.5 102.502 1935 0.396687 0.6319 0.665839 
42.5 102.502 1920.41 -0.0761424 0.962244 0.261322 
22.5 102.502 1880 -0.328038 0.941465 -0.0776886 
42.5 96.8118 1858.75 -0.742905 0.579729 -0.334673 
42.5 81.2516 1843.19 -0.951726 0.129195 -0.278435 
42.5 38.7516 1843.19 -0.977826 -0.104701 -0.181368 
22.5 38.7516 1843.19 -0.25599 -0.483299 -0.837192 
22.5 29.6909 1897.5 -0.771523 -0.520482 0.365856 
3.9e-005 25.0018 1880 -0.840199 -0.540128 -0.0482424 
3.9e-005 29.6909 1862.5 -0.718465 -0.569049 -0.399989 
3.9e-005 42.5018 1849.69 -0.458877 -0.374033 -0.805935 
22.5 77.5018 1849.69 -0.335232 0.396612 -0.854587 
3.9e-005 90.3127 1862.5 -0.20402 0.847811 -0.489482 
22.5 90.3127 1897.5 -0.877119 0.41593 0.240134 
3.9e-005 90.3127 1897.5 -0.613939 0.683603 0.394673 
3.9e-005 95.0018 1880 -0.458877 0.884977 -0.0790428 
22.5 77.502 1910.31 -0.707075 0.406649 0.578517 
3.9e-005 77.502 1910.31 -0.8402 0.228281 0.491886 
42.5 113 1908 -0.540579 0.838213 0.0719269 
62.5 113 1908 0.000112851 0.892542 0.450964 
-62.5 113 1610 -4.28289e-006 0.991774 -0.128002 
34 113 1773 -0.273579 0.920481 0.27905 
42.5 65.0001 1798 -0.487015 0.862424 0.137988 
34 55.0001 1773 -0.511794 -0.785461 0.34802 
62.5 7.00012 1610 2.08425e-005 -0.991772 -0.128015 
3.8414e-005 7.00014 1748 0.0397577 -0.985955 0.162211 
-62.5 7.00014 1798 1.18188e-005 -1 1.09594e-007 
62.5 7.00014 1798 -1.2056e-005 -1 -3.16953e-009 
62.5 7.00012 1908 0.0466188 -0.997347 0.0559158 
42.5 17.5018 1920.41 -0.0762164 -0.962231 0.261347 
42.5 60.0001 1942 -0.330348 0 0.943859 
42.5 91.0001 1934 0.396693 0.631898 0.665837 
3.9e-005 29.6909 1897.5 -0.887647 -0.417728 0.193869 
3.9e-005 42.502 1910.31 -0.900091 -0.250556 0.356452 
3.9e-005 60.0016 1915 -0.887648 -0.0409681 0.458696 
3.9e-005 77.5018 1849.69 -0.987231 0.0916038 -0.13032 
3.9e-005 60.0018 1845 -0.137075 0.0881198 -0.986633 
62.4998 91.0001 1934 0.212858 0.554167 0.80473 
62.5 113 1907.99 2.49174e-006 1 1.89601e-009 
62.4999 112.993 1908.01 0.324861 0.751541 0.574153 
62.5 113 1798 5.329e-006 1 -3.5078e-007 
-62.5 7.00011 1610 -2.0832e-005 -0.991772 -0.128015 
-25 16.6989 1610 -0.153691 -0.218649 -0.963624 
-43.3012 35.0001 1610 -0.216564 -0.100508 -0.971081 
-43.3012 85.0001 1610 -0.195324 0.137296 -0.971081 
43.3013 85.0002 1610 0.216564 0.100508 -0.971081 
25 103.301 1610 0.153692 0.21865 -0.963624 
1.61519e-005 110 1610 0.0236973 0.26532 -0.963869 
50 60.0001 1610 0.139583 -0.012467 -0.990132 
62.5 113 1610 3.72738e-006 0.991774 -0.128002 
25 16.6989 1610 0.11251 -0.242425 -0.963624 
-62.5 113 1798 -3.97539e-006 1 -1.04626e-007 
-62.5013 113 1610 -0.693762 0.678529 -0.241438 
-62.5006 113 1907.99 -0.376373 0.926468 6.99325e-006 
-62.5 113 1907.99 -0.000324305 0.999924 -0.0122856 
-62.4998 112.994 1908.01 -0.226329 0.760733 0.608325 
-62.5 113 1908 -0.00013261 0.896321 0.443406 
-42.5 113 1908 0.954668 0.293851 0.0475416 
-42.5 91.0001 1934 0.971185 0.14888 0.186105 
-42.5 55.0001 1803 0.997927 -0.0287792 0.0575584 
-42.5 7.00014 1908 0.934819 -0.34271 0.0930799 
-42.5 7.00014 1798 0.807041 -0.58846 0.0489989 
-42.5 55.0001 1798 0.486137 -0.860867 0.150261 
-42.5 65.0001 1803 0.993005 0.0286373 0.114549 
-42.5 65.0001 1798 0.486137 0.860868 0.150261 
-34 113 1773 0.279694 0.941062 0.190193 
-42.5 113 1798 0.807041 0.588459 0.0489991 
3.84138e-005 65.0001 1748 -0.22557 0.319558 0.920326 
-33.9999 65.0001 1773 0.583969 0.551527 0.595649 
3.84113e-005 113 1748 0.0397575 0.985955 0.16221 
34 65.0001 1773 -0.511794 0.785461 0.34802 
-33.9999 55.0001 1773 0.58397 -0.551527 0.595649 
-34 7.00014 1773 0.279696 -0.941061 0.190194 
3.84138e-005 55.0001 1748 -0.22557 -0.319558 0.920327 
34 7.00014 1773 -0.27358 -0.920481 0.279051 
-62.5 29.0001 1934 -9.40133e-005 -0.763369 0.645962 
-62.5 7.00014 1908 -9.85562e-005 -0.763424 0.645898 
-62.5 7.00014 1908 -0.0241842 -0.999287 0.0289916 
-62.502 6.99996 1907.99 -0.721851 -0.618918 0.309633 
-62.5043 6.99998 1610.01 -0.690526 -0.684247 -0.234477 
62.5 29.0001 1934 0.000121586 -0.763364 0.645968 
62.5 7.00014 1908 6.5496e-005 -0.763411 0.645913 
62.5049 29.0076 1934 0.627814 -0.194584 0.753649 
62.5 29.0033 1934 0.19936 -0.446089 0.872502 
74.499 90.9977 1924 0.632175 0.191267 0.750848 
68.7166 74.3795 1933 0.700584 0.135604 0.700566 
74.5 59.9999 1930 0.999881 -8.90619e-005 0.0154297 
62.5013 113 1907.99 0.554699 0.832051 1.07616e-005 
74.5 105.001 1895.99 0.870649 0.491376 0.0228032 
74.5 90.9971 1924 0.999906 0.00261777 0.0134897 
74.4964 91 1924 0.617961 0.654182 0.436085 
62.5043 6.99997 1610.01 0.693605 -0.67871 -0.241382 
62.5013 113 1610 0.741892 0.560209 -0.368461 
74.5 14.9976 1622 0.988665 -0.14203 -0.0486761 
3.66038e-005 10.0001 1610 -0.023697 -0.265316 -0.96387 
3.66038e-005 10.0001 1605 0.0238548 -0.267082 0.963378 
43.3013 35.0001 1610 0.195324 -0.137296 -0.971081 
43.3013 35.0001 1605 0.219489 -0.101865 0.970282 
50 60.0001 1605 0.143713 0.012836 0.989536 
43.3013 85.0002 1605 0.197962 0.139151 0.970282 
-25 103.301 1610 -0.11251 0.242426 -0.963624 
-25 103.301 1605 -0.155016 0.220534 0.962982 
-43.3012 85.0001 1605 -0.219489 0.101865 0.970282 
-50 60.0001 1610 -0.139583 0.012467 -0.990132 
-50 60.0001 1605 -0.143713 -0.0128359 0.989536 
-74.5 105.001 1622 -0.988284 0.144384 -0.0494687 
-74.4966 90.9999 1924 -0.713345 0.615061 0.335915 
-74.5 105.001 1895.99 -0.975296 0.220776 0.00752567 
-69.9822 103.269 1910 -0.721987 0.618859 0.309431 
-73.923 90.9998 1924.48 -0.519173 0.585185 0.622911 
-68.3694 90.9998 1929.11 -0.565437 0.468387 0.678892 
-66.1119 90.9998 1930.99 -0.585806 0.403294 0.702983 
-62.5 29.0033 1934 -0.0756863 -0.326947 0.942007 
-42.5 29.0001 1934 0.9873 -0.0857778 0.133717 
-42.5 60.0001 1942 0.97019 1.75357e-006 0.242345 
-74.4733 29.0075 1924.03 -0.646816 -0.264636 0.71526 
-62.5047 29.0076 1934 -0.597441 -0.358897 0.717117 
-68.5071 18.0094 1916 -0.536237 -0.667868 0.516141 
-62.5043 6.99996 1907.99 -0.561066 -0.827716 0.00950129 
-74.5 14.9976 1895.99 -0.929875 -0.367817 0.00651373 
-68.5015 14.4996 1909 -0.721992 -0.618856 0.309427 
-74.5 28.9963 1923.99 -0.721725 -0.618929 0.309903 
-74.5 14.9976 1622 -0.996827 -0.0756272 -0.0248423 
63.2523 7.71734 1907.68 0.722061 -0.61871 0.309558 
64.0021 8.43598 1907.37 0.722054 -0.618739 0.309516 
65.5018 9.87327 1906.74 0.721988 -0.618879 0.30939 
68.5012 12.7478 1905.49 0.72199 -0.61887 0.309402 
65.5014 10.7479 1908.49 0.72198 -0.618859 0.309448 
68.5009 14.4975 1908.99 0.721994 -0.618853 0.309427 
62.502 6.99997 1907.99 0.721866 -0.618912 0.309608 
62.5043 6.99997 1907.99 0.554678 -0.832065 8.07903e-005 
62.6899 7.17836 1907.91 0.721868 -0.619174 0.309079 
63.2517 7.93572 1908.12 0.722 -0.618823 0.309474 
64.0016 8.87312 1908.24 0.722002 -0.618857 0.3094 
62.8768 7.46702 1908.06 0.721826 -0.618862 0.3098 
62.6893 7.23267 1908.02 0.721691 -0.618793 0.310253 
62.8773 7.35802 1907.84 0.721902 -0.619085 0.309178 
74.4733 29.0075 1924.03 0.628446 -0.334662 0.70218 
62.5048 59.9263 1941.98 0.666539 -0.164132 0.727177 
62.5002 60.0002 1942 0.171451 0.0453178 0.98415 
74.5 105.001 1622 0.989017 0.146002 -0.0229738 
-43.3012 35.0001 1605 -0.197962 -0.13915 0.970283 
-25 16.6989 1605 -0.11348 -0.244515 0.962982 
25 16.6989 1605 0.155016 -0.220534 0.962982 
62 7.00014 1605 0.514271 -0.822834 0.241806 
25 103.301 1605 0.11348 0.244516 0.962982 
1.61519e-005 110 1605 -0.0238548 0.267083 0.963378 
-62.4998 90.9999 1934 -0.0755881 0.456141 0.886691 
-66.1265 69.37 1936.56 -0.668847 0.162328 0.725461 
-68.3931 75.2258 1933.16 -0.676373 0.156141 0.719819 
-67.9179 90.9998 1929.48 -0.578171 0.429267 0.693864 
-67.9398 74.0546 1933.84 -0.674131 0.157988 0.721518 
-68.6851 90.9998 1928.85 -0.519138 0.585194 0.622931 
-69.1013 90.9998 1928.5 -0.519219 0.585173 0.622883 
-69.6844 90.9998 1928.01 -0.519113 0.585201 0.622946 
-72.6979 90.9998 1925.5 -0.519105 0.585203 0.622951 
-74.2924 90.9998 1924.17 -0.518974 0.585236 0.623029 
-68.5027 83.1736 1931.02 -0.627965 0.194473 0.753551 
-74.2796 90.4336 1924.33 -0.687722 0.146714 0.710994 
-73.9576 89.6017 1924.81 -0.687643 0.146726 0.711069 
-73.4489 88.2876 1925.58 -0.687635 0.146724 0.711077 
-69.2057 77.3251 1931.94 -0.687509 0.146686 0.711206 
-68.7548 76.1601 1932.62 -0.687572 0.146705 0.711142 
-62.5 60.0003 1942 -0.17339 0.0450814 0.983821 
-62.5047 59.9265 1941.98 -0.666535 -0.164132 0.727181 
-74.5 59.9999 1930 -0.999907 -4.76483e-006 0.0136293 
-74.5 29.0031 1924 -0.999999 -0.000204656 0.00105374 
74.5 14.9976 1895.99 0.872933 -0.487577 0.0160046 
74.5 28.9963 1923.99 0.721373 -0.619124 0.310334 
74.5 29.002 1924 1 -1.75687e-007 8.14388e-009 
74.5 29.003 1924 0.769192 -0.12155 0.627351 
-68.507 75.52 1932.99 -0.687961 0.146823 0.710741 
-69.8111 78.8892 1931.03 -0.687616 0.146718 0.711096 
-72.8023 86.6171 1926.55 -0.687619 0.146719 0.711094 
-74.4992 90.9977 1924 -0.988138 0.134658 0.0738284 
-62 64.0001 1555 -0.97939 0.195891 -0.0492238 
-62 7.00014 1555 -0.475907 -0.878594 -0.0398174 
-62 7.00014 1605 -0.733022 -0.586418 0.344663 
-62 113 1555 -0.475906 0.878594 -0.0398174 
62 64.0001 1555 0.983817 0.173886 -0.0432149 
62 56.0001 1555 0.990067 -0.136446 -0.0339101 
62 113 1555 0.237503 0.971061 -0.0251461 
62 113 1605 0.533396 0.811548 0.23849 
-62 113 1605 -0.74982 0.570415 0.335257 
-62 64.0001 1360 -0.732872 0.679993 -0.0225499 
-62 56.0001 1555 -0.991655 -0.125031 -0.031418 
-62 56.0001 1360 -0.47358 -0.87882 -0.0582868 
-50 56.0001 1406.24 -0.98367 -0.161517 -0.0794046 
-49.8999 9.00014 1405 -0.166412 -0.985778 -0.0234263 
-49.8999 111 1405 -0.166188 0.985816 -0.0234272 
62 7.00014 1555 0.237503 -0.971061 -0.0251462 
62 64.0001 1360 0.475467 0.877785 -0.058519 
50 64.0001 1360 0.312952 0.0799027 -0.946402 
56 87.9624 1480 0.996815 1.1883e-007 -0.0797453 
50 64.0001 1405 0.968134 0.245674 -0.0485841 
50 9.00014 1405 0.50348 -0.863332 -0.0341359 
50 56.0001 1405 0.952998 -0.297221 -0.0587781 
56 32.0379 1480 0.996815 -1.1883e-007 -0.0797453 
62 56.0001 1360 0.734616 -0.678107 -0.0226036 
-50 111 1360 -0.54485 0.580209 -0.605389 
-50 64.0001 1360 -0.199175 0.0508533 -0.978643 
-50 64.0001 1406.24 -0.983872 0.160248 -0.0794752 
-50 64.0001 1405 -0.991459 0.130363 0.00369115 
-50 56.0001 1405 -0.96667 -0.256012 0.0025394 
-50 9.00014 1405 -0.999999 -0.00106458 0.0011119 
-50 9.00014 1360 -0.198854 -0.423516 -0.883794 
50 9.00014 1360 0.204006 -0.867675 -0.453346 
50 111 1360 0.309186 0.657514 -0.68708 
50 111 1405 0.428497 0.902838 -0.0356979 
-50 111 1405 -0.999995 0.00212916 0.00222379 
-50 56.0001 1360 -0.550264 -0.0702465 -0.832031 
50 56.0001 1360 0.376572 -0.0480731 -0.925139 
3 0 3 58 
3 58 3 12 
3 22 58 12 
3 3 36 12 
3 3 1 36 
3 3 2 1 
3 3 27 2 
3 2 27 45 
3 45 27 42 
3 42 27 31 
3 8 31 4 
3 5 4 9 
3 40 9 6 
3 7 6 10 
3 7 40 6 
3 42 31 8 
3 8 4 5 
3 5 9 40 
3 6 35 10 
3 10 35 13 
3 13 35 14 
3 11 14 12 
3 36 11 12 
3 13 14 11 
3 14 18 12 
3 12 18 22 
3 30 47 15 
3 15 47 17 
3 32 17 33 
3 32 15 17 
3 51 16 17 
3 17 16 33 
3 33 16 23 
3 23 16 24 
3 34 24 20 
3 18 20 22 
3 18 34 20 
3 24 19 20 
3 20 21 22 
3 22 21 58 
3 34 23 24 
3 26 0 25 
3 25 0 58 
3 0 26 3 
3 3 26 28 
3 27 28 29 
3 27 3 28 
3 29 30 27 
3 27 30 31 
3 31 30 15 
3 4 31 32 
3 32 31 15 
3 4 32 9 
3 9 32 33 
3 9 33 6 
3 6 33 23 
3 6 23 35 
3 35 23 34 
3 14 35 18 
3 18 35 34 
3 61 36 62 
3 62 36 1 
3 37 11 61 
3 61 11 36 
3 38 13 37 
3 37 13 11 
3 39 10 38 
3 38 10 13 
3 65 7 39 
3 39 7 10 
3 64 40 65 
3 65 40 7 
3 41 5 64 
3 64 5 40 
3 8 5 44 
3 44 5 41 
3 42 8 43 
3 43 8 44 
3 46 45 43 
3 43 45 42 
3 63 2 46 
3 46 2 45 
3 62 1 63 
3 63 1 2 
3 60 66 30 
3 30 66 68 
3 47 68 48 
3 47 30 68 
3 78 50 69 
3 78 98 50 
3 78 49 98 
3 98 49 94 
3 94 49 80 
3 95 80 82 
3 86 82 83 
3 85 86 83 
3 94 80 95 
3 95 82 86 
3 50 17 69 
3 69 17 67 
3 67 17 47 
3 48 67 47 
3 51 17 99 
3 99 17 50 
3 96 97 99 
3 99 97 93 
3 51 93 16 
3 51 99 93 
3 93 92 16 
3 88 24 92 
3 92 24 16 
3 19 91 52 
3 19 24 91 
3 91 24 88 
3 91 100 52 
3 52 100 102 
3 103 20 52 
3 52 20 19 
3 103 56 20 
3 103 53 56 
3 103 54 53 
3 53 54 70 
3 70 54 101 
3 55 101 90 
3 106 90 89 
3 105 106 89 
3 70 101 55 
3 55 90 106 
3 56 57 20 
3 20 57 21 
3 21 57 110 
3 21 110 58 
3 58 110 109 
3 25 58 109 
3 109 112 25 
3 25 112 26 
3 26 112 168 
3 59 26 168 
3 26 59 28 
3 30 29 60 
3 60 29 28 
3 37 61 64 
3 38 64 39 
3 38 37 64 
3 61 62 64 
3 64 62 63 
3 46 64 63 
3 46 43 64 
3 64 43 44 
3 41 64 44 
3 64 65 39 
3 59 168 28 
3 28 168 66 
3 60 28 66 
3 66 119 68 
3 67 48 68 
3 78 69 121 
3 121 69 116 
3 116 69 67 
3 70 123 53 
3 70 71 123 
3 70 72 71 
3 70 132 72 
3 70 49 132 
3 132 49 73 
3 73 49 129 
3 129 49 76 
3 76 49 78 
3 75 78 74 
3 75 76 78 
3 74 78 77 
3 77 78 53 
3 125 53 79 
3 125 77 53 
3 123 79 53 
3 82 80 81 
3 81 80 49 
3 82 84 83 
3 84 85 83 
3 176 87 84 
3 84 87 86 
3 85 84 86 
3 95 86 92 
3 93 95 92 
3 86 87 92 
3 92 87 143 
3 88 143 142 
3 89 88 142 
3 89 90 88 
3 88 90 91 
3 92 143 88 
3 97 94 93 
3 93 94 95 
3 96 98 97 
3 97 98 94 
3 99 50 96 
3 96 50 98 
3 90 101 91 
3 91 101 100 
3 101 54 100 
3 100 54 102 
3 54 103 102 
3 102 103 52 
3 142 104 89 
3 89 104 105 
3 105 104 106 
3 106 104 141 
3 107 147 106 
3 106 147 55 
3 55 147 108 
3 70 55 108 
3 53 120 56 
3 56 120 159 
3 57 159 158 
3 57 56 159 
3 112 109 57 
3 57 109 110 
3 111 167 112 
3 112 167 168 
3 168 113 66 
3 66 113 119 
3 113 168 114 
3 118 114 115 
3 118 113 114 
3 168 115 114 
3 67 68 116 
3 116 68 117 
3 117 68 119 
3 118 119 113 
3 118 117 119 
3 78 121 53 
3 53 121 120 
3 120 121 122 
3 122 121 169 
3 121 116 169 
3 169 116 117 
3 151 134 108 
3 108 134 81 
3 70 81 49 
3 70 108 81 
3 132 133 72 
3 72 133 170 
3 72 170 71 
3 71 170 171 
3 71 171 123 
3 123 171 124 
3 123 124 79 
3 79 124 172 
3 79 172 125 
3 125 172 126 
3 125 126 77 
3 77 126 127 
3 77 127 74 
3 74 127 128 
3 74 128 75 
3 75 128 174 
3 75 174 76 
3 76 174 175 
3 76 175 129 
3 129 175 130 
3 129 130 73 
3 73 130 131 
3 73 131 132 
3 132 131 133 
3 136 82 134 
3 134 82 81 
3 82 136 84 
3 84 136 137 
3 135 137 203 
3 135 84 137 
3 136 203 137 
3 135 185 84 
3 84 185 138 
3 184 84 138 
3 184 183 84 
3 84 183 182 
3 181 84 182 
3 181 139 84 
3 84 139 179 
3 140 84 179 
3 140 176 84 
3 87 176 143 
3 143 176 192 
3 104 142 141 
3 141 142 143 
3 192 141 143 
3 141 145 146 
3 106 146 107 
3 106 141 146 
3 195 150 144 
3 144 150 146 
3 145 144 146 
3 147 107 149 
3 148 149 150 
3 148 147 149 
3 107 146 149 
3 149 146 150 
3 147 148 108 
3 108 148 151 
3 120 122 159 
3 159 122 196 
3 196 160 159 
3 196 165 160 
3 196 152 165 
3 196 153 152 
3 196 154 153 
3 196 155 154 
3 196 157 155 
3 196 197 157 
3 157 197 158 
3 156 158 162 
3 154 162 153 
3 154 156 162 
3 154 155 156 
3 156 155 157 
3 158 156 157 
3 159 164 158 
3 159 160 164 
3 164 160 165 
3 163 165 152 
3 161 152 153 
3 162 161 153 
3 162 158 161 
3 161 158 163 
3 152 161 163 
3 164 165 163 
3 158 164 163 
3 111 112 166 
3 166 112 57 
3 197 57 158 
3 197 166 57 
3 197 199 166 
3 167 111 166 
3 199 115 166 
3 166 115 167 
3 167 115 168 
3 169 115 122 
3 169 118 115 
3 169 117 118 
3 115 198 122 
3 122 198 196 
3 150 195 148 
3 148 195 194 
3 151 194 134 
3 151 148 194 
3 203 136 194 
3 194 136 134 
3 206 133 212 
3 206 170 133 
3 206 171 170 
3 206 124 171 
3 206 173 124 
3 124 173 172 
3 172 173 126 
3 126 173 127 
3 127 173 211 
3 128 211 174 
3 128 127 211 
3 174 211 175 
3 175 211 212 
3 130 212 131 
3 130 175 212 
3 133 131 212 
3 176 140 192 
3 192 140 177 
3 177 140 179 
3 180 179 139 
3 178 139 186 
3 200 186 191 
3 200 178 186 
3 177 179 180 
3 139 181 186 
3 186 181 182 
3 183 186 182 
3 183 184 186 
3 186 184 138 
3 185 186 138 
3 185 135 186 
3 186 135 187 
3 188 186 187 
3 188 189 186 
3 186 189 202 
3 201 186 202 
3 201 190 186 
3 186 190 191 
3 135 203 187 
3 178 180 139 
3 192 193 141 
3 141 193 145 
3 145 193 144 
3 192 194 193 
3 193 194 144 
3 144 194 195 
3 196 198 197 
3 197 198 115 
3 199 197 115 
3 192 177 194 
3 194 177 180 
3 178 194 180 
3 178 200 194 
3 194 200 191 
3 190 194 191 
3 190 201 194 
3 194 201 202 
3 189 194 202 
3 189 188 194 
3 194 188 187 
3 203 194 187 
3 213 214 204 
3 213 215 214 
3 205 206 214 
3 214 206 212 
3 204 212 207 
3 204 214 212 
3 219 173 205 
3 205 173 206 
3 220 208 227 
3 227 208 209 
3 209 208 211 
3 173 209 211 
3 173 219 209 
3 208 210 211 
3 210 207 211 
3 211 207 212 
3 204 230 213 
3 213 230 231 
3 229 213 231 
3 214 215 216 
3 216 215 232 
3 232 215 239 
3 214 216 205 
3 205 216 217 
3 217 216 230 
3 218 230 207 
3 218 217 230 
3 230 204 207 
3 224 219 217 
3 217 219 205 
3 208 220 223 
3 223 220 221 
3 210 208 222 
3 237 222 223 
3 237 210 222 
3 208 223 222 
3 224 225 226 
3 219 226 209 
3 219 224 226 
3 225 209 226 
3 209 225 227 
3 227 225 240 
3 207 210 218 
3 218 210 237 
3 238 228 231 
3 231 228 229 
3 231 230 232 
3 232 230 216 
3 234 233 239 
3 239 233 232 
3 238 231 218 
3 218 231 217 
3 217 231 232 
3 233 217 232 
3 233 234 217 
3 217 234 235 
3 224 217 235 
3 221 236 223 
3 223 236 237 
3 225 224 240 
3 240 224 235 
3 237 236 218 
3 218 236 228 
3 238 218 228 
3 235 234 240 
3 240 234 239 
3 221 239 229 
3 236 229 228 
3 236 221 229 
3 239 215 229 
3 229 215 213 
3 239 221 240 
3 240 221 220 
3 227 240 220 
