ply
format ascii 1.0
comment VCGLIB generated
element vertex 56
property float x
property float y
property float z
property float nx
property float ny
property float nz
element face 108
property list uchar int vertex_indices
end_header
67.4999 -116.913 215 0.417538 -0.873495 0.250337 
116.913 -67.5001 215 0.817769 -0.489558 0.302634 
135 -1.08089e-005 215 0.908912 -0.0811808 0.40901 
-7.34556e-005 -135 215 -1.20575e-007 -0.164399 0.986394 
-116.913 -67.5 215 -0.413161 -0.247339 0.876426 
-67.5 -116.913 215 -0.115385 -0.241386 0.963545 
67.5 116.913 215 0.34317 0.488211 0.802424 
-116.913 67.5 215 -0.820552 0.473746 0.319779 
-67.5 116.913 215 -0.410785 0.885118 0.218684 
-85 -192 -7.9992e-006 -0.162536 -0.9404 -0.298715 
85 -192 -9e-006 0.312909 -0.905213 -0.287538 
-85 -112 15.0001 -0.604944 0.292852 0.74046 
85 -138 15.0001 0.999295 -0.0283676 0.0245852 
-67.5001 -116.913 170 -0.135243 -0.425799 0.894653 
-7.34556e-005 -135 170 -3.74489e-007 -0.510602 0.859817 
85 -192 170 0.337933 -0.905121 0.257989 
67.4999 -116.913 170 0.135243 -0.425799 0.894653 
85 -112 170 0.98917 0.117455 0.088011 
-85 -192 170 -0.544227 -0.72883 0.41548 
-85 -112 170 -0.969315 0.230195 0.0862436 
-72.4134 -112 15.0001 -0.914695 -0.397262 0.0742766 
110 -138 15.0001 0.329477 -0.476566 0.815064 
135 -1.08089e-005 15.0001 0.988459 0.0882857 0.123107 
72.4134 -112 15.0001 0.810865 -0.581517 0.0658453 
85 -112 15.0001 0.539508 0.522351 0.660364 
138 -110 15.0001 0.491686 -0.0555129 0.869001 
3.35284e-006 135 15.0001 -0.0882857 0.988459 0.123107 
-67.5 116.913 15.0001 -0.570176 0.811161 0.130069 
110 138 15.0001 0.0498742 0.833612 0.550095 
-138 110 15.0001 -0.845025 0.095406 0.526147 
-138 -110 15.0001 -0.491685 -0.0555129 0.869002 
-116.913 -67.5 15.0001 -0.875871 -0.471363 0.103285 
-110 -138 15.0001 -0.329477 -0.476566 0.815064 
-85 -138 15.0001 -0.999295 -0.0283676 0.0245852 
-110 -138 6.1e-005 -0.294399 -0.82011 -0.490662 
-138 -110 6.1e-005 -0.514847 -0.0581279 -0.855309 
-110 138 6.1e-005 -0.0120773 0.10697 -0.994189 
-85 -138 -8.5e-006 -0.00588633 -0.00272489 -0.999979 
85 -138 -9e-006 0.00941092 -0.00435667 -0.999946 
110 138 6.1e-005 0.00723236 0.0356454 -0.999338 
110 -138 6.1e-005 0.294399 -0.82011 -0.490662 
116.913 -67.5001 15.0001 0.87587 -0.471363 0.103285 
72.4134 -112 170 0.786164 -0.618012 0.00266525 
-72.4134 -112 170 -0.745863 -0.666095 0.00252859 
138 110 6.1e-005 0.182052 0.0205542 -0.983074 
138 110 15.0001 0.689297 0.0778239 0.720286 
138 -110 6.1e-005 0.514847 -0.0581279 -0.855309 
-110 138 15.0001 -0.0486738 0.431111 0.900985 
-138 110 6.1e-005 -0.182052 0.0205542 -0.983074 
-135 3.01618e-005 15.0001 -0.988459 0.0882857 0.123107 
-135 3.01122e-005 215 -0.826587 -0.0738279 0.557946 
-116.913 67.5 15.0001 -0.837441 0.483497 0.254802 
3.35284e-006 135 215 0.0888024 0.994244 0.0599417 
67.5 116.913 15.0001 0.414674 0.893499 0.172351 
116.913 67.5 15.0001 0.811161 0.570176 0.130069 
116.913 67.5 215 0.487575 0.226285 0.843247 
3 0 1 3 
3 3 1 2 
3 55 3 2 
3 55 5 3 
3 55 4 5 
3 55 6 4 
3 4 6 50 
3 50 6 7 
3 7 6 8 
3 8 6 52 
3 18 9 15 
3 15 9 10 
3 37 9 33 
3 33 9 18 
3 19 33 18 
3 19 11 33 
3 10 9 38 
3 38 9 37 
3 24 17 12 
3 12 17 15 
3 10 12 15 
3 10 38 12 
3 43 19 13 
3 13 19 18 
3 14 18 15 
3 16 15 17 
3 42 16 17 
3 13 18 14 
3 14 15 16 
3 11 19 20 
3 20 19 43 
3 12 21 24 
3 24 21 25 
3 41 25 22 
3 41 24 25 
3 41 23 24 
3 25 45 22 
3 22 45 54 
3 54 45 53 
3 53 45 28 
3 26 28 47 
3 27 47 51 
3 27 26 47 
3 53 28 26 
3 47 29 51 
3 51 29 49 
3 49 29 30 
3 31 30 11 
3 20 31 11 
3 30 32 11 
3 11 32 33 
3 31 49 30 
3 32 34 33 
3 33 34 37 
3 34 35 37 
3 37 35 48 
3 36 37 48 
3 36 39 37 
3 37 39 38 
3 38 39 44 
3 46 38 44 
3 46 40 38 
3 17 24 42 
3 42 24 23 
3 38 40 12 
3 12 40 21 
3 23 41 42 
3 42 41 1 
3 0 42 1 
3 0 16 42 
3 16 0 14 
3 14 0 3 
3 3 5 14 
3 14 5 13 
3 13 5 43 
3 43 5 4 
3 31 43 4 
3 31 20 43 
3 40 46 21 
3 21 46 25 
3 44 45 46 
3 46 45 25 
3 44 39 45 
3 45 39 28 
3 39 36 28 
3 28 36 47 
3 48 29 36 
3 36 29 47 
3 48 35 29 
3 29 35 30 
3 34 32 35 
3 35 32 30 
3 49 31 50 
3 50 31 4 
3 51 49 7 
3 7 49 50 
3 51 7 27 
3 27 7 8 
3 27 8 26 
3 26 8 52 
3 26 52 53 
3 53 52 6 
3 53 6 54 
3 54 6 55 
3 54 55 22 
3 22 55 2 
3 22 2 41 
3 41 2 1 
