solid ascii
  facet normal 0.000000e+000 -0.000000e+000 1.000000e+000
    outer loop
      vertex   6.749991e+001 -1.169135e+002 2.150000e+002
      vertex   1.169134e+002 -6.750009e+001 2.150000e+002
      vertex   -7.345562e-005 -1.350000e+002 2.150000e+002
    endloop
  endfacet
  facet normal 0.000000e+000 0.000000e+000 1.000000e+000
    outer loop
      vertex   -7.345562e-005 -1.350000e+002 2.150000e+002
      vertex   1.169134e+002 -6.750009e+001 2.150000e+002
      vertex   1.350000e+002 -1.080894e-005 2.150000e+002
    endloop
  endfacet
  facet normal -0.000000e+000 0.000000e+000 1.000000e+000
    outer loop
      vertex   1.169134e+002 6.749999e+001 2.150000e+002
      vertex   -7.345562e-005 -1.350000e+002 2.150000e+002
      vertex   1.350000e+002 -1.080894e-005 2.150000e+002
    endloop
  endfacet
  facet normal 0.000000e+000 0.000000e+000 1.000000e+000
    outer loop
      vertex   1.169134e+002 6.749999e+001 2.150000e+002
      vertex   -6.750002e+001 -1.169134e+002 2.150000e+002
      vertex   -7.345562e-005 -1.350000e+002 2.150000e+002
    endloop
  endfacet
  facet normal 0.000000e+000 0.000000e+000 1.000000e+000
    outer loop
      vertex   1.169134e+002 6.749999e+001 2.150000e+002
      vertex   -1.169134e+002 -6.749996e+001 2.150000e+002
      vertex   -6.750002e+001 -1.169134e+002 2.150000e+002
    endloop
  endfacet
  facet normal 0.000000e+000 0.000000e+000 1.000000e+000
    outer loop
      vertex   1.169134e+002 6.749999e+001 2.150000e+002
      vertex   6.750002e+001 1.169134e+002 2.150000e+002
      vertex   -1.169134e+002 -6.749996e+001 2.150000e+002
    endloop
  endfacet
  facet normal 0.000000e+000 -0.000000e+000 1.000000e+000
    outer loop
      vertex   -1.169134e+002 -6.749996e+001 2.150000e+002
      vertex   6.750002e+001 1.169134e+002 2.150000e+002
      vertex   -1.350000e+002 3.011221e-005 2.150000e+002
    endloop
  endfacet
  facet normal 0.000000e+000 -0.000000e+000 1.000000e+000
    outer loop
      vertex   -1.350000e+002 3.011221e-005 2.150000e+002
      vertex   6.750002e+001 1.169134e+002 2.150000e+002
      vertex   -1.169134e+002 6.750000e+001 2.150000e+002
    endloop
  endfacet
  facet normal 0.000000e+000 -0.000000e+000 1.000000e+000
    outer loop
      vertex   -1.169134e+002 6.750000e+001 2.150000e+002
      vertex   6.750002e+001 1.169134e+002 2.150000e+002
      vertex   -6.750000e+001 1.169134e+002 2.150000e+002
    endloop
  endfacet
  facet normal -0.000000e+000 -0.000000e+000 1.000000e+000
    outer loop
      vertex   -6.750000e+001 1.169134e+002 2.150000e+002
      vertex   6.750002e+001 1.169134e+002 2.150000e+002
      vertex   3.352841e-006 1.350000e+002 2.150000e+002
    endloop
  endfacet
  facet normal 0.000000e+000 -1.000000e+000 0.000000e+000
    outer loop
      vertex   -8.500000e+001 -1.920000e+002 1.700000e+002
      vertex   -8.500000e+001 -1.920000e+002 -7.999198e-006
      vertex   8.500000e+001 -1.920000e+002 1.700000e+002
    endloop
  endfacet
  facet normal 0.000000e+000 -1.000000e+000 -0.000000e+000
    outer loop
      vertex   8.500000e+001 -1.920000e+002 1.700000e+002
      vertex   -8.500000e+001 -1.920000e+002 -7.999198e-006
      vertex   8.500000e+001 -1.920000e+002 -9.000000e-006
    endloop
  endfacet
  facet normal -1.000000e+000 7.894917e-016 -1.894772e-015
    outer loop
      vertex   -8.500000e+001 -1.380000e+002 -8.500000e-006
      vertex   -8.500000e+001 -1.920000e+002 -7.999198e-006
      vertex   -8.500000e+001 -1.380000e+002 1.500006e+001
    endloop
  endfacet
  facet normal -1.000000e+000 3.270446e-013 -1.176408e-012
    outer loop
      vertex   -8.500000e+001 -1.380000e+002 1.500006e+001
      vertex   -8.500000e+001 -1.920000e+002 -7.999198e-006
      vertex   -8.500000e+001 -1.920000e+002 1.700000e+002
    endloop
  endfacet
  facet normal -1.000000e+000 2.500045e-012 -4.193622e-013
    outer loop
      vertex   -8.500000e+001 -1.120000e+002 1.700000e+002
      vertex   -8.500000e+001 -1.380000e+002 1.500006e+001
      vertex   -8.500000e+001 -1.920000e+002 1.700000e+002
    endloop
  endfacet
  facet normal -1.000000e+000 0.000000e+000 -0.000000e+000
    outer loop
      vertex   -8.500000e+001 -1.120000e+002 1.700000e+002
      vertex   -8.500000e+001 -1.120000e+002 1.500006e+001
      vertex   -8.500000e+001 -1.380000e+002 1.500006e+001
    endloop
  endfacet
  facet normal -5.887070e-009 -6.832033e-016 -1.000000e+000
    outer loop
      vertex   8.500000e+001 -1.920000e+002 -9.000000e-006
      vertex   -8.500000e+001 -1.920000e+002 -7.999198e-006
      vertex   8.500000e+001 -1.380000e+002 -9.000000e-006
    endloop
  endfacet
  facet normal -2.941176e-009 -9.274107e-009 -1.000000e+000
    outer loop
      vertex   8.500000e+001 -1.380000e+002 -9.000000e-006
      vertex   -8.500000e+001 -1.920000e+002 -7.999198e-006
      vertex   -8.500000e+001 -1.380000e+002 -8.500000e-006
    endloop
  endfacet
  facet normal 1.000000e+000 0.000000e+000 -1.290346e-012
    outer loop
      vertex   8.500000e+001 -1.120000e+002 1.500006e+001
      vertex   8.500000e+001 -1.120000e+002 1.700000e+002
      vertex   8.500000e+001 -1.380000e+002 1.500006e+001
    endloop
  endfacet
  facet normal 1.000000e+000 -2.500045e-012 -8.709839e-013
    outer loop
      vertex   8.500000e+001 -1.380000e+002 1.500006e+001
      vertex   8.500000e+001 -1.120000e+002 1.700000e+002
      vertex   8.500000e+001 -1.920000e+002 1.700000e+002
    endloop
  endfacet
  facet normal 1.000000e+000 0.000000e+000 -0.000000e+000
    outer loop
      vertex   8.500000e+001 -1.920000e+002 -9.000000e-006
      vertex   8.500000e+001 -1.380000e+002 1.500006e+001
      vertex   8.500000e+001 -1.920000e+002 1.700000e+002
    endloop
  endfacet
  facet normal 1.000000e+000 -5.555916e-012 2.000121e-011
    outer loop
      vertex   8.500000e+001 -1.920000e+002 -9.000000e-006
      vertex   8.500000e+001 -1.380000e+002 -9.000000e-006
      vertex   8.500000e+001 -1.380000e+002 1.500006e+001
    endloop
  endfacet
  facet normal 0.000000e+000 0.000000e+000 1.000000e+000
    outer loop
      vertex   -7.241344e+001 -1.120000e+002 1.700000e+002
      vertex   -8.500000e+001 -1.120000e+002 1.700000e+002
      vertex   -6.750006e+001 -1.169134e+002 1.700000e+002
    endloop
  endfacet
  facet normal 0.000000e+000 0.000000e+000 1.000000e+000
    outer loop
      vertex   -6.750006e+001 -1.169134e+002 1.700000e+002
      vertex   -8.500000e+001 -1.120000e+002 1.700000e+002
      vertex   -8.500000e+001 -1.920000e+002 1.700000e+002
    endloop
  endfacet
  facet normal -0.000000e+000 0.000000e+000 1.000000e+000
    outer loop
      vertex   -7.345561e-005 -1.350000e+002 1.700000e+002
      vertex   -8.500000e+001 -1.920000e+002 1.700000e+002
      vertex   8.500000e+001 -1.920000e+002 1.700000e+002
    endloop
  endfacet
  facet normal -0.000000e+000 0.000000e+000 1.000000e+000
    outer loop
      vertex   6.749991e+001 -1.169135e+002 1.700000e+002
      vertex   8.500000e+001 -1.920000e+002 1.700000e+002
      vertex   8.500000e+001 -1.120000e+002 1.700000e+002
    endloop
  endfacet
  facet normal -0.000000e+000 0.000000e+000 1.000000e+000
    outer loop
      vertex   7.241342e+001 -1.120000e+002 1.700000e+002
      vertex   6.749991e+001 -1.169135e+002 1.700000e+002
      vertex   8.500000e+001 -1.120000e+002 1.700000e+002
    endloop
  endfacet
  facet normal -0.000000e+000 0.000000e+000 1.000000e+000
    outer loop
      vertex   -6.750006e+001 -1.169134e+002 1.700000e+002
      vertex   -8.500000e+001 -1.920000e+002 1.700000e+002
      vertex   -7.345561e-005 -1.350000e+002 1.700000e+002
    endloop
  endfacet
  facet normal -0.000000e+000 -0.000000e+000 1.000000e+000
    outer loop
      vertex   -7.345561e-005 -1.350000e+002 1.700000e+002
      vertex   8.500000e+001 -1.920000e+002 1.700000e+002
      vertex   6.749991e+001 -1.169135e+002 1.700000e+002
    endloop
  endfacet
  facet normal -2.632944e-011 1.000000e+000 0.000000e+000
    outer loop
      vertex   -8.500000e+001 -1.120000e+002 1.500006e+001
      vertex   -8.500000e+001 -1.120000e+002 1.700000e+002
      vertex   -7.241344e+001 -1.120000e+002 1.500006e+001
    endloop
  endfacet
  facet normal -0.000000e+000 1.000000e+000 2.138047e-012
    outer loop
      vertex   -7.241344e+001 -1.120000e+002 1.500006e+001
      vertex   -8.500000e+001 -1.120000e+002 1.700000e+002
      vertex   -7.241344e+001 -1.120000e+002 1.700000e+002
    endloop
  endfacet
  facet normal 0.000000e+000 -0.000000e+000 1.000000e+000
    outer loop
      vertex   8.500000e+001 -1.380000e+002 1.500006e+001
      vertex   1.100000e+002 -1.380000e+002 1.500006e+001
      vertex   8.500000e+001 -1.120000e+002 1.500006e+001
    endloop
  endfacet
  facet normal -0.000000e+000 0.000000e+000 1.000000e+000
    outer loop
      vertex   8.500000e+001 -1.120000e+002 1.500006e+001
      vertex   1.100000e+002 -1.380000e+002 1.500006e+001
      vertex   1.380000e+002 -1.100000e+002 1.500006e+001
    endloop
  endfacet
  facet normal 1.317236e-011 6.535801e-012 1.000000e+000
    outer loop
      vertex   1.169134e+002 -6.750009e+001 1.500006e+001
      vertex   1.380000e+002 -1.100000e+002 1.500006e+001
      vertex   1.350000e+002 -1.080894e-005 1.500006e+001
    endloop
  endfacet
  facet normal -9.289551e-018 2.461713e-016 1.000000e+000
    outer loop
      vertex   1.169134e+002 -6.750009e+001 1.500006e+001
      vertex   8.500000e+001 -1.120000e+002 1.500006e+001
      vertex   1.380000e+002 -1.100000e+002 1.500006e+001
    endloop
  endfacet
  facet normal 7.750164e-027 2.395092e-016 1.000000e+000
    outer loop
      vertex   1.169134e+002 -6.750009e+001 1.500006e+001
      vertex   7.241342e+001 -1.120000e+002 1.500006e+001
      vertex   8.500000e+001 -1.120000e+002 1.500006e+001
    endloop
  endfacet
  facet normal -2.264737e-010 0.000000e+000 1.000000e+000
    outer loop
      vertex   1.380000e+002 -1.100000e+002 1.500006e+001
      vertex   1.380000e+002 1.100000e+002 1.500006e+001
      vertex   1.350000e+002 -1.080894e-005 1.500006e+001
    endloop
  endfacet
  facet normal -2.092171e-011 -5.605962e-012 1.000000e+000
    outer loop
      vertex   1.350000e+002 -1.080894e-005 1.500006e+001
      vertex   1.380000e+002 1.100000e+002 1.500006e+001
      vertex   1.169134e+002 6.749999e+001 1.500006e+001
    endloop
  endfacet
  facet normal -1.494927e-012 -1.524466e-011 1.000000e+000
    outer loop
      vertex   1.169134e+002 6.749999e+001 1.500006e+001
      vertex   1.380000e+002 1.100000e+002 1.500006e+001
      vertex   6.750002e+001 1.169134e+002 1.500006e+001
    endloop
  endfacet
  facet normal -0.000000e+000 -0.000000e+000 1.000000e+000
    outer loop
      vertex   6.750002e+001 1.169134e+002 1.500006e+001
      vertex   1.380000e+002 1.100000e+002 1.500006e+001
      vertex   1.100000e+002 1.380000e+002 1.500006e+001
    endloop
  endfacet
  facet normal 0.000000e+000 -2.264736e-010 1.000000e+000
    outer loop
      vertex   3.352841e-006 1.350000e+002 1.500006e+001
      vertex   1.100000e+002 1.380000e+002 1.500006e+001
      vertex   -1.100000e+002 1.380000e+002 1.500006e+001
    endloop
  endfacet
  facet normal 1.524466e-011 -1.494929e-012 1.000000e+000
    outer loop
      vertex   -6.750000e+001 1.169134e+002 1.500006e+001
      vertex   -1.100000e+002 1.380000e+002 1.500006e+001
      vertex   -1.169134e+002 6.750000e+001 1.500006e+001
    endloop
  endfacet
  facet normal 5.605962e-012 -2.092171e-011 1.000000e+000
    outer loop
      vertex   -6.750000e+001 1.169134e+002 1.500006e+001
      vertex   3.352841e-006 1.350000e+002 1.500006e+001
      vertex   -1.100000e+002 1.380000e+002 1.500006e+001
    endloop
  endfacet
  facet normal -6.535816e-012 1.317292e-011 1.000000e+000
    outer loop
      vertex   6.750002e+001 1.169134e+002 1.500006e+001
      vertex   1.100000e+002 1.380000e+002 1.500006e+001
      vertex   3.352841e-006 1.350000e+002 1.500006e+001
    endloop
  endfacet
  facet normal 0.000000e+000 0.000000e+000 1.000000e+000
    outer loop
      vertex   -1.100000e+002 1.380000e+002 1.500006e+001
      vertex   -1.380000e+002 1.100000e+002 1.500006e+001
      vertex   -1.169134e+002 6.750000e+001 1.500006e+001
    endloop
  endfacet
  facet normal -1.317293e-011 -6.535818e-012 1.000000e+000
    outer loop
      vertex   -1.169134e+002 6.750000e+001 1.500006e+001
      vertex   -1.380000e+002 1.100000e+002 1.500006e+001
      vertex   -1.350000e+002 3.016180e-005 1.500006e+001
    endloop
  endfacet
  facet normal 2.264737e-010 0.000000e+000 1.000000e+000
    outer loop
      vertex   -1.350000e+002 3.016180e-005 1.500006e+001
      vertex   -1.380000e+002 1.100000e+002 1.500006e+001
      vertex   -1.380000e+002 -1.100000e+002 1.500006e+001
    endloop
  endfacet
  facet normal -7.977860e-012 1.994461e-011 1.000000e+000
    outer loop
      vertex   -1.169134e+002 -6.749996e+001 1.500006e+001
      vertex   -1.380000e+002 -1.100000e+002 1.500006e+001
      vertex   -8.500000e+001 -1.120000e+002 1.500006e+001
    endloop
  endfacet
  facet normal 3.676270e-011 5.203050e-011 1.000000e+000
    outer loop
      vertex   -7.241344e+001 -1.120000e+002 1.500006e+001
      vertex   -1.169134e+002 -6.749996e+001 1.500006e+001
      vertex   -8.500000e+001 -1.120000e+002 1.500006e+001
    endloop
  endfacet
  facet normal -9.072867e-012 -9.072867e-012 1.000000e+000
    outer loop
      vertex   -1.380000e+002 -1.100000e+002 1.500006e+001
      vertex   -1.100000e+002 -1.380000e+002 1.500006e+001
      vertex   -8.500000e+001 -1.120000e+002 1.500006e+001
    endloop
  endfacet
  facet normal -2.961850e-022 -1.779678e-011 1.000000e+000
    outer loop
      vertex   -8.500000e+001 -1.120000e+002 1.500006e+001
      vertex   -1.100000e+002 -1.380000e+002 1.500006e+001
      vertex   -8.500000e+001 -1.380000e+002 1.500006e+001
    endloop
  endfacet
  facet normal 2.092170e-011 5.605961e-012 1.000000e+000
    outer loop
      vertex   -1.169134e+002 -6.749996e+001 1.500006e+001
      vertex   -1.350000e+002 3.016180e-005 1.500006e+001
      vertex   -1.380000e+002 -1.100000e+002 1.500006e+001
    endloop
  endfacet
  facet normal -1.664262e-011 -1.000000e+000 -1.266639e-006
    outer loop
      vertex   -1.100000e+002 -1.380000e+002 1.500006e+001
      vertex   -1.100000e+002 -1.380000e+002 6.100000e-005
      vertex   -8.500000e+001 -1.380000e+002 1.500006e+001
    endloop
  endfacet
  facet normal -7.599994e-007 -1.000000e+000 -1.445595e-021
    outer loop
      vertex   -8.500000e+001 -1.380000e+002 1.500006e+001
      vertex   -1.100000e+002 -1.380000e+002 6.100000e-005
      vertex   -8.500000e+001 -1.380000e+002 -8.500000e-006
    endloop
  endfacet
  facet normal -2.780000e-006 -2.780000e-006 -1.000000e+000
    outer loop
      vertex   -1.100000e+002 -1.380000e+002 6.100000e-005
      vertex   -1.380000e+002 -1.100000e+002 6.100000e-005
      vertex   -8.500000e+001 -1.380000e+002 -8.500000e-006
    endloop
  endfacet
  facet normal -1.311321e-006 0.000000e+000 -1.000000e+000
    outer loop
      vertex   -8.500000e+001 -1.380000e+002 -8.500000e-006
      vertex   -1.380000e+002 -1.100000e+002 6.100000e-005
      vertex   -1.380000e+002 1.100000e+002 6.100000e-005
    endloop
  endfacet
  facet normal -2.308970e-007 2.308970e-007 -1.000000e+000
    outer loop
      vertex   -1.100000e+002 1.380000e+002 6.100000e-005
      vertex   -8.500000e+001 -1.380000e+002 -8.500000e-006
      vertex   -1.380000e+002 1.100000e+002 6.100000e-005
    endloop
  endfacet
  facet normal 0.000000e+000 2.518116e-007 -1.000000e+000
    outer loop
      vertex   -1.100000e+002 1.380000e+002 6.100000e-005
      vertex   1.100000e+002 1.380000e+002 6.100000e-005
      vertex   -8.500000e+001 -1.380000e+002 -8.500000e-006
    endloop
  endfacet
  facet normal -2.941176e-009 2.538896e-007 -1.000000e+000
    outer loop
      vertex   -8.500000e+001 -1.380000e+002 -8.500000e-006
      vertex   1.100000e+002 1.380000e+002 6.100000e-005
      vertex   8.500000e+001 -1.380000e+002 -9.000000e-006
    endloop
  endfacet
  facet normal 2.325581e-007 2.325581e-007 -1.000000e+000
    outer loop
      vertex   8.500000e+001 -1.380000e+002 -9.000000e-006
      vertex   1.100000e+002 1.380000e+002 6.100000e-005
      vertex   1.380000e+002 1.100000e+002 6.100000e-005
    endloop
  endfacet
  facet normal 1.320755e-006 0.000000e+000 -1.000000e+000
    outer loop
      vertex   1.380000e+002 -1.100000e+002 6.100000e-005
      vertex   8.500000e+001 -1.380000e+002 -9.000000e-006
      vertex   1.380000e+002 1.100000e+002 6.100000e-005
    endloop
  endfacet
  facet normal 2.800000e-006 -2.800000e-006 -1.000000e+000
    outer loop
      vertex   1.380000e+002 -1.100000e+002 6.100000e-005
      vertex   1.100000e+002 -1.380000e+002 6.100000e-005
      vertex   8.500000e+001 -1.380000e+002 -9.000000e-006
    endloop
  endfacet
  facet normal 0.000000e+000 1.000000e+000 0.000000e+000
    outer loop
      vertex   8.500000e+001 -1.120000e+002 1.700000e+002
      vertex   8.500000e+001 -1.120000e+002 1.500006e+001
      vertex   7.241342e+001 -1.120000e+002 1.700000e+002
    endloop
  endfacet
  facet normal 3.235852e-011 1.000000e+000 2.627634e-012
    outer loop
      vertex   7.241342e+001 -1.120000e+002 1.700000e+002
      vertex   8.500000e+001 -1.120000e+002 1.500006e+001
      vertex   7.241342e+001 -1.120000e+002 1.500006e+001
    endloop
  endfacet
  facet normal 7.599994e-007 -1.000000e+000 1.520087e-017
    outer loop
      vertex   8.500000e+001 -1.380000e+002 -9.000000e-006
      vertex   1.100000e+002 -1.380000e+002 6.100000e-005
      vertex   8.500000e+001 -1.380000e+002 1.500006e+001
    endloop
  endfacet
  facet normal 1.664262e-011 -1.000000e+000 -1.266639e-006
    outer loop
      vertex   8.500000e+001 -1.380000e+002 1.500006e+001
      vertex   1.100000e+002 -1.380000e+002 6.100000e-005
      vertex   1.100000e+002 -1.380000e+002 1.500006e+001
    endloop
  endfacet
  facet normal 7.071064e-001 -7.071072e-001 3.500607e-012
    outer loop
      vertex   7.241342e+001 -1.120000e+002 1.500006e+001
      vertex   1.169134e+002 -6.750009e+001 1.500006e+001
      vertex   7.241342e+001 -1.120000e+002 1.700000e+002
    endloop
  endfacet
  facet normal 7.071064e-001 -7.071072e-001 6.697454e-012
    outer loop
      vertex   7.241342e+001 -1.120000e+002 1.700000e+002
      vertex   1.169134e+002 -6.750009e+001 1.500006e+001
      vertex   1.169134e+002 -6.750009e+001 2.150000e+002
    endloop
  endfacet
  facet normal 7.071064e-001 -7.071072e-001 -9.095002e-012
    outer loop
      vertex   6.749991e+001 -1.169135e+002 2.150000e+002
      vertex   7.241342e+001 -1.120000e+002 1.700000e+002
      vertex   1.169134e+002 -6.750009e+001 2.150000e+002
    endloop
  endfacet
  facet normal 7.071064e-001 -7.071072e-001 7.759745e-013
    outer loop
      vertex   6.749991e+001 -1.169135e+002 2.150000e+002
      vertex   6.749991e+001 -1.169135e+002 1.700000e+002
      vertex   7.241342e+001 -1.120000e+002 1.700000e+002
    endloop
  endfacet
  facet normal 2.588179e-001 -9.659261e-001 6.357266e-013
    outer loop
      vertex   6.749991e+001 -1.169135e+002 1.700000e+002
      vertex   6.749991e+001 -1.169135e+002 2.150000e+002
      vertex   -7.345561e-005 -1.350000e+002 1.700000e+002
    endloop
  endfacet
  facet normal 2.588179e-001 -9.659261e-001 2.986193e-014
    outer loop
      vertex   -7.345561e-005 -1.350000e+002 1.700000e+002
      vertex   6.749991e+001 -1.169135e+002 2.150000e+002
      vertex   -7.345562e-005 -1.350000e+002 2.150000e+002
    endloop
  endfacet
  facet normal -2.588195e-001 -9.659257e-001 -9.696092e-014
    outer loop
      vertex   -7.345562e-005 -1.350000e+002 2.150000e+002
      vertex   -6.750002e+001 -1.169134e+002 2.150000e+002
      vertex   -7.345561e-005 -1.350000e+002 1.700000e+002
    endloop
  endfacet
  facet normal -2.588195e-001 -9.659257e-001 -1.124740e-013
    outer loop
      vertex   -7.345561e-005 -1.350000e+002 1.700000e+002
      vertex   -6.750002e+001 -1.169134e+002 2.150000e+002
      vertex   -6.750006e+001 -1.169134e+002 1.700000e+002
    endloop
  endfacet
  facet normal -7.071074e-001 -7.071061e-001 4.869479e-007
    outer loop
      vertex   -6.750006e+001 -1.169134e+002 1.700000e+002
      vertex   -6.750002e+001 -1.169134e+002 2.150000e+002
      vertex   -7.241344e+001 -1.120000e+002 1.700000e+002
    endloop
  endfacet
  facet normal -7.071072e-001 -7.071063e-001 4.385306e-007
    outer loop
      vertex   -7.241344e+001 -1.120000e+002 1.700000e+002
      vertex   -6.750002e+001 -1.169134e+002 2.150000e+002
      vertex   -1.169134e+002 -6.749996e+001 2.150000e+002
    endloop
  endfacet
  facet normal -7.071074e-001 -7.071061e-001 -3.466651e-014
    outer loop
      vertex   -1.169134e+002 -6.749996e+001 1.500006e+001
      vertex   -7.241344e+001 -1.120000e+002 1.700000e+002
      vertex   -1.169134e+002 -6.749996e+001 2.150000e+002
    endloop
  endfacet
  facet normal -7.071074e-001 -7.071061e-001 1.529271e-012
    outer loop
      vertex   -1.169134e+002 -6.749996e+001 1.500006e+001
      vertex   -7.241344e+001 -1.120000e+002 1.500006e+001
      vertex   -7.241344e+001 -1.120000e+002 1.700000e+002
    endloop
  endfacet
  facet normal 7.071068e-001 -7.071068e-001 -2.773951e-011
    outer loop
      vertex   1.100000e+002 -1.380000e+002 6.100000e-005
      vertex   1.380000e+002 -1.100000e+002 6.100000e-005
      vertex   1.100000e+002 -1.380000e+002 1.500006e+001
    endloop
  endfacet
  facet normal 7.071068e-001 -7.071068e-001 -2.773947e-011
    outer loop
      vertex   1.100000e+002 -1.380000e+002 1.500006e+001
      vertex   1.380000e+002 -1.100000e+002 6.100000e-005
      vertex   1.380000e+002 -1.100000e+002 1.500006e+001
    endloop
  endfacet
  facet normal 1.000000e+000 0.000000e+000 -1.266639e-006
    outer loop
      vertex   1.380000e+002 1.100000e+002 6.100000e-005
      vertex   1.380000e+002 1.100000e+002 1.500006e+001
      vertex   1.380000e+002 -1.100000e+002 6.100000e-005
    endloop
  endfacet
  facet normal 1.000000e+000 0.000000e+000 -1.266639e-006
    outer loop
      vertex   1.380000e+002 -1.100000e+002 6.100000e-005
      vertex   1.380000e+002 1.100000e+002 1.500006e+001
      vertex   1.380000e+002 -1.100000e+002 1.500006e+001
    endloop
  endfacet
  facet normal 7.071068e-001 7.071068e-001 -2.773951e-011
    outer loop
      vertex   1.380000e+002 1.100000e+002 6.100000e-005
      vertex   1.100000e+002 1.380000e+002 6.100000e-005
      vertex   1.380000e+002 1.100000e+002 1.500006e+001
    endloop
  endfacet
  facet normal 7.071068e-001 7.071068e-001 -2.773947e-011
    outer loop
      vertex   1.380000e+002 1.100000e+002 1.500006e+001
      vertex   1.100000e+002 1.380000e+002 6.100000e-005
      vertex   1.100000e+002 1.380000e+002 1.500006e+001
    endloop
  endfacet
  facet normal 0.000000e+000 1.000000e+000 -1.266639e-006
    outer loop
      vertex   1.100000e+002 1.380000e+002 6.100000e-005
      vertex   -1.100000e+002 1.380000e+002 6.100000e-005
      vertex   1.100000e+002 1.380000e+002 1.500006e+001
    endloop
  endfacet
  facet normal 0.000000e+000 1.000000e+000 -1.266639e-006
    outer loop
      vertex   1.100000e+002 1.380000e+002 1.500006e+001
      vertex   -1.100000e+002 1.380000e+002 6.100000e-005
      vertex   -1.100000e+002 1.380000e+002 1.500006e+001
    endloop
  endfacet
  facet normal -7.071068e-001 7.071068e-001 -2.773947e-011
    outer loop
      vertex   -1.380000e+002 1.100000e+002 6.100000e-005
      vertex   -1.380000e+002 1.100000e+002 1.500006e+001
      vertex   -1.100000e+002 1.380000e+002 6.100000e-005
    endloop
  endfacet
  facet normal -7.071068e-001 7.071068e-001 -2.773947e-011
    outer loop
      vertex   -1.100000e+002 1.380000e+002 6.100000e-005
      vertex   -1.380000e+002 1.100000e+002 1.500006e+001
      vertex   -1.100000e+002 1.380000e+002 1.500006e+001
    endloop
  endfacet
  facet normal -1.000000e+000 -0.000000e+000 -1.266639e-006
    outer loop
      vertex   -1.380000e+002 1.100000e+002 6.100000e-005
      vertex   -1.380000e+002 -1.100000e+002 6.100000e-005
      vertex   -1.380000e+002 1.100000e+002 1.500006e+001
    endloop
  endfacet
  facet normal -1.000000e+000 0.000000e+000 -1.266639e-006
    outer loop
      vertex   -1.380000e+002 1.100000e+002 1.500006e+001
      vertex   -1.380000e+002 -1.100000e+002 6.100000e-005
      vertex   -1.380000e+002 -1.100000e+002 1.500006e+001
    endloop
  endfacet
  facet normal -7.071068e-001 -7.071068e-001 -2.773947e-011
    outer loop
      vertex   -1.100000e+002 -1.380000e+002 6.100000e-005
      vertex   -1.100000e+002 -1.380000e+002 1.500006e+001
      vertex   -1.380000e+002 -1.100000e+002 6.100000e-005
    endloop
  endfacet
  facet normal -7.071068e-001 -7.071068e-001 -2.773947e-011
    outer loop
      vertex   -1.380000e+002 -1.100000e+002 6.100000e-005
      vertex   -1.100000e+002 -1.380000e+002 1.500006e+001
      vertex   -1.380000e+002 -1.100000e+002 1.500006e+001
    endloop
  endfacet
  facet normal -9.659257e-001 -2.588194e-001 -6.419576e-011
    outer loop
      vertex   -1.350000e+002 3.016180e-005 1.500006e+001
      vertex   -1.169134e+002 -6.749996e+001 1.500006e+001
      vertex   -1.350000e+002 3.011221e-005 2.150000e+002
    endloop
  endfacet
  facet normal -9.659257e-001 -2.588194e-001 -7.358371e-014
    outer loop
      vertex   -1.350000e+002 3.011221e-005 2.150000e+002
      vertex   -1.169134e+002 -6.749996e+001 1.500006e+001
      vertex   -1.169134e+002 -6.749996e+001 2.150000e+002
    endloop
  endfacet
  facet normal -9.659257e-001 2.588195e-001 0.000000e+000
    outer loop
      vertex   -1.169134e+002 6.750000e+001 1.500006e+001
      vertex   -1.350000e+002 3.016180e-005 1.500006e+001
      vertex   -1.169134e+002 6.750000e+001 2.150000e+002
    endloop
  endfacet
  facet normal -9.659257e-001 2.588195e-001 6.416094e-011
    outer loop
      vertex   -1.169134e+002 6.750000e+001 2.150000e+002
      vertex   -1.350000e+002 3.016180e-005 1.500006e+001
      vertex   -1.350000e+002 3.011221e-005 2.150000e+002
    endloop
  endfacet
  facet normal -7.071068e-001 7.071068e-001 0.000000e+000
    outer loop
      vertex   -1.169134e+002 6.750000e+001 1.500006e+001
      vertex   -1.169134e+002 6.750000e+001 2.150000e+002
      vertex   -6.750000e+001 1.169134e+002 1.500006e+001
    endloop
  endfacet
  facet normal -7.071068e-001 7.071068e-001 2.794948e-014
    outer loop
      vertex   -6.750000e+001 1.169134e+002 1.500006e+001
      vertex   -1.169134e+002 6.750000e+001 2.150000e+002
      vertex   -6.750000e+001 1.169134e+002 2.150000e+002
    endloop
  endfacet
  facet normal -2.588193e-001 9.659257e-001 5.936257e-014
    outer loop
      vertex   -6.750000e+001 1.169134e+002 1.500006e+001
      vertex   -6.750000e+001 1.169134e+002 2.150000e+002
      vertex   3.352841e-006 1.350000e+002 1.500006e+001
    endloop
  endfacet
  facet normal -2.588193e-001 9.659257e-001 0.000000e+000
    outer loop
      vertex   3.352841e-006 1.350000e+002 1.500006e+001
      vertex   -6.750000e+001 1.169134e+002 2.150000e+002
      vertex   3.352841e-006 1.350000e+002 2.150000e+002
    endloop
  endfacet
  facet normal 2.588194e-001 9.659257e-001 2.891715e-018
    outer loop
      vertex   3.352841e-006 1.350000e+002 1.500006e+001
      vertex   3.352841e-006 1.350000e+002 2.150000e+002
      vertex   6.750002e+001 1.169134e+002 1.500006e+001
    endloop
  endfacet
  facet normal 2.588194e-001 9.659257e-001 1.626860e-017
    outer loop
      vertex   6.750002e+001 1.169134e+002 1.500006e+001
      vertex   3.352841e-006 1.350000e+002 2.150000e+002
      vertex   6.750002e+001 1.169134e+002 2.150000e+002
    endloop
  endfacet
  facet normal 7.071069e-001 7.071067e-001 5.024298e-017
    outer loop
      vertex   6.750002e+001 1.169134e+002 1.500006e+001
      vertex   6.750002e+001 1.169134e+002 2.150000e+002
      vertex   1.169134e+002 6.749999e+001 1.500006e+001
    endloop
  endfacet
  facet normal 7.071069e-001 7.071067e-001 0.000000e+000
    outer loop
      vertex   1.169134e+002 6.749999e+001 1.500006e+001
      vertex   6.750002e+001 1.169134e+002 2.150000e+002
      vertex   1.169134e+002 6.749999e+001 2.150000e+002
    endloop
  endfacet
  facet normal 9.659257e-001 2.588194e-001 -0.000000e+000
    outer loop
      vertex   1.169134e+002 6.749999e+001 1.500006e+001
      vertex   1.169134e+002 6.749999e+001 2.150000e+002
      vertex   1.350000e+002 -1.080894e-005 1.500006e+001
    endloop
  endfacet
  facet normal 9.659257e-001 2.588194e-001 0.000000e+000
    outer loop
      vertex   1.350000e+002 -1.080894e-005 1.500006e+001
      vertex   1.169134e+002 6.749999e+001 2.150000e+002
      vertex   1.350000e+002 -1.080894e-005 2.150000e+002
    endloop
  endfacet
  facet normal 9.659258e-001 -2.588192e-001 1.315206e-018
    outer loop
      vertex   1.350000e+002 -1.080894e-005 1.500006e+001
      vertex   1.350000e+002 -1.080894e-005 2.150000e+002
      vertex   1.169134e+002 -6.750009e+001 1.500006e+001
    endloop
  endfacet
  facet normal 9.659258e-001 -2.588192e-001 -6.697419e-012
    outer loop
      vertex   1.169134e+002 -6.750009e+001 1.500006e+001
      vertex   1.350000e+002 -1.080894e-005 2.150000e+002
      vertex   1.169134e+002 -6.750009e+001 2.150000e+002
    endloop
  endfacet
endsolid