solid ascii
  facet normal 1.000000e+000 0.000000e+000 0.000000e+000
    outer loop
      vertex   1.350000e+002 -5.817824e+001 2.820000e+002
      vertex   1.350000e+002 -7.000000e+001 2.820000e+002
      vertex   1.350000e+002 -6.599999e+001 2.600000e+002
    endloop
  endfacet
  facet normal 1.000000e+000 0.000000e+000 0.000000e+000
    outer loop
      vertex   1.350000e+002 -6.599999e+001 2.600000e+002
      vertex   1.350000e+002 -7.000000e+001 2.820000e+002
      vertex   1.350000e+002 -7.000000e+001 2.550000e+002
    endloop
  endfacet
  facet normal 1.000000e+000 1.037516e-012 -8.123388e-012
    outer loop
      vertex   1.350000e+002 1.150000e+002 2.370000e+002
      vertex   1.350000e+002 -7.000000e+001 2.550000e+002
      vertex   1.350000e+002 -1.050000e+002 2.150000e+002
    endloop
  endfacet
  facet normal 1.000000e+000 3.875688e-014 1.864206e-012
    outer loop
      vertex   1.350000e+002 1.150000e+002 2.150000e+002
      vertex   1.350000e+002 1.150000e+002 2.370000e+002
      vertex   1.350000e+002 -1.050000e+002 2.150000e+002
    endloop
  endfacet
  facet normal 1.000000e+000 -8.246356e-012 0.000000e+000
    outer loop
      vertex   1.350000e+002 -7.000000e+001 2.550000e+002
      vertex   1.350000e+002 -1.050000e+002 2.550000e+002
      vertex   1.350000e+002 -1.050000e+002 2.150000e+002
    endloop
  endfacet
  facet normal 1.000000e+000 -1.690807e-011 0.000000e+000
    outer loop
      vertex   1.350000e+002 1.350000e+002 2.370000e+002
      vertex   1.350000e+002 1.350000e+002 2.600000e+002
      vertex   1.350000e+002 1.150000e+002 2.370000e+002
    endloop
  endfacet
  facet normal 1.000000e+000 1.913081e-023 -1.470269e-011
    outer loop
      vertex   1.350000e+002 1.150000e+002 2.370000e+002
      vertex   1.350000e+002 1.350000e+002 2.600000e+002
      vertex   1.350000e+002 -6.599999e+001 2.600000e+002
    endloop
  endfacet
  facet normal 1.000000e+000 1.695894e-012 -1.356727e-012
    outer loop
      vertex   1.350000e+002 -7.000000e+001 2.550000e+002
      vertex   1.350000e+002 1.150000e+002 2.370000e+002
      vertex   1.350000e+002 -6.599999e+001 2.600000e+002
    endloop
  endfacet
  facet normal 0.000000e+000 -2.656144e-011 1.000000e+000
    outer loop
      vertex   1.100000e+002 -7.000000e+001 2.820000e+002
      vertex   1.350000e+002 -7.000000e+001 2.820000e+002
      vertex   1.100000e+002 -5.817824e+001 2.820000e+002
    endloop
  endfacet
  facet normal 1.256012e-011 -0.000000e+000 1.000000e+000
    outer loop
      vertex   1.100000e+002 -5.817824e+001 2.820000e+002
      vertex   1.350000e+002 -7.000000e+001 2.820000e+002
      vertex   1.350000e+002 -5.817824e+001 2.820000e+002
    endloop
  endfacet
  facet normal 0.000000e+000 -1.000000e+000 7.407540e-012
    outer loop
      vertex   1.350000e+002 -7.000000e+001 2.820000e+002
      vertex   1.100000e+002 -7.000000e+001 2.820000e+002
      vertex   1.350000e+002 -7.000000e+001 2.550000e+002
    endloop
  endfacet
  facet normal 0.000000e+000 -1.000000e+000 7.407540e-012
    outer loop
      vertex   1.350000e+002 -7.000000e+001 2.550000e+002
      vertex   1.100000e+002 -7.000000e+001 2.820000e+002
      vertex   -7.000000e+001 -7.000000e+001 2.820000e+002
    endloop
  endfacet
  facet normal 0.000000e+000 -1.000000e+000 0.000000e+000
    outer loop
      vertex   -1.350000e+002 -7.000000e+001 2.550000e+002
      vertex   -7.000000e+001 -7.000000e+001 2.820000e+002
      vertex   -1.350000e+002 -7.000000e+001 2.820000e+002
    endloop
  endfacet
  facet normal -7.407540e-013 -1.000000e+000 1.783297e-012
    outer loop
      vertex   -1.350000e+002 -7.000000e+001 2.550000e+002
      vertex   1.350000e+002 -7.000000e+001 2.550000e+002
      vertex   -7.000000e+001 -7.000000e+001 2.820000e+002
    endloop
  endfacet
  facet normal -1.941203e-011 1.600773e-022 1.000000e+000
    outer loop
      vertex   1.350000e+002 -7.000000e+001 2.550000e+002
      vertex   1.000000e+002 -8.000000e+001 2.550000e+002
      vertex   1.350000e+002 -1.050000e+002 2.550000e+002
    endloop
  endfacet
  facet normal -5.032838e-023 -6.794210e-011 1.000000e+000
    outer loop
      vertex   1.350000e+002 -7.000000e+001 2.550000e+002
      vertex   -1.350000e+002 -7.000000e+001 2.550000e+002
      vertex   1.000000e+002 -8.000000e+001 2.550000e+002
    endloop
  endfacet
  facet normal 0.000000e+000 -6.794210e-011 1.000000e+000
    outer loop
      vertex   1.000000e+002 -8.000000e+001 2.550000e+002
      vertex   -1.350000e+002 -7.000000e+001 2.550000e+002
      vertex   -1.150000e+002 -8.000000e+001 2.550000e+002
    endloop
  endfacet
  facet normal 3.397105e-011 2.801374e-022 1.000000e+000
    outer loop
      vertex   -1.150000e+002 -8.000000e+001 2.550000e+002
      vertex   -1.350000e+002 -7.000000e+001 2.550000e+002
      vertex   -1.350000e+002 -1.050000e+002 2.550000e+002
    endloop
  endfacet
  facet normal 4.529473e-011 4.529473e-011 1.000000e+000
    outer loop
      vertex   -1.150000e+002 -1.100000e+002 2.550000e+002
      vertex   -1.350000e+002 -1.050000e+002 2.550000e+002
      vertex   -1.050000e+002 -1.350000e+002 2.550000e+002
    endloop
  endfacet
  facet normal -0.000000e+000 2.717684e-011 1.000000e+000
    outer loop
      vertex   1.000000e+002 -1.100000e+002 2.550000e+002
      vertex   -1.050000e+002 -1.350000e+002 2.550000e+002
      vertex   1.050000e+002 -1.350000e+002 2.550000e+002
    endloop
  endfacet
  facet normal -2.264737e-011 2.264737e-011 1.000000e+000
    outer loop
      vertex   1.350000e+002 -1.050000e+002 2.550000e+002
      vertex   1.000000e+002 -1.100000e+002 2.550000e+002
      vertex   1.050000e+002 -1.350000e+002 2.550000e+002
    endloop
  endfacet
  facet normal -1.941203e-011 0.000000e+000 1.000000e+000
    outer loop
      vertex   1.350000e+002 -1.050000e+002 2.550000e+002
      vertex   1.000000e+002 -8.000000e+001 2.550000e+002
      vertex   1.000000e+002 -1.100000e+002 2.550000e+002
    endloop
  endfacet
  facet normal 3.397105e-011 0.000000e+000 1.000000e+000
    outer loop
      vertex   -1.150000e+002 -8.000000e+001 2.550000e+002
      vertex   -1.350000e+002 -1.050000e+002 2.550000e+002
      vertex   -1.150000e+002 -1.100000e+002 2.550000e+002
    endloop
  endfacet
  facet normal 0.000000e+000 2.717684e-011 1.000000e+000
    outer loop
      vertex   -1.150000e+002 -1.100000e+002 2.550000e+002
      vertex   -1.050000e+002 -1.350000e+002 2.550000e+002
      vertex   1.000000e+002 -1.100000e+002 2.550000e+002
    endloop
  endfacet
  facet normal 7.071068e-001 -7.071068e-001 3.926738e-012
    outer loop
      vertex   1.050000e+002 -1.350000e+002 2.550000e+002
      vertex   1.050000e+002 -1.350000e+002 2.150000e+002
      vertex   1.350000e+002 -1.050000e+002 2.550000e+002
    endloop
  endfacet
  facet normal 7.071068e-001 -7.071068e-001 0.000000e+000
    outer loop
      vertex   1.350000e+002 -1.050000e+002 2.550000e+002
      vertex   1.050000e+002 -1.350000e+002 2.150000e+002
      vertex   1.350000e+002 -1.050000e+002 2.150000e+002
    endloop
  endfacet
  facet normal 7.071068e-001 7.071068e-001 -1.863557e-012
    outer loop
      vertex   1.350000e+002 1.150000e+002 2.370000e+002
      vertex   1.350000e+002 1.150000e+002 2.150000e+002
      vertex   1.150000e+002 1.350000e+002 2.370000e+002
    endloop
  endfacet
  facet normal 7.071068e-001 7.071068e-001 0.000000e+000
    outer loop
      vertex   1.150000e+002 1.350000e+002 2.370000e+002
      vertex   1.350000e+002 1.150000e+002 2.150000e+002
      vertex   1.150000e+002 1.350000e+002 2.150000e+002
    endloop
  endfacet
  facet normal 0.000000e+000 -0.000000e+000 -1.000000e+000
    outer loop
      vertex   1.150000e+002 1.350000e+002 2.370000e+002
      vertex   1.350000e+002 1.350000e+002 2.370000e+002
      vertex   1.350000e+002 1.150000e+002 2.370000e+002
    endloop
  endfacet
  facet normal -1.690807e-011 1.000000e+000 0.000000e+000
    outer loop
      vertex   1.350000e+002 1.350000e+002 2.370000e+002
      vertex   1.150000e+002 1.350000e+002 2.370000e+002
      vertex   1.350000e+002 1.350000e+002 2.600000e+002
    endloop
  endfacet
  facet normal 0.000000e+000 1.000000e+000 -1.470269e-011
    outer loop
      vertex   1.350000e+002 1.350000e+002 2.600000e+002
      vertex   1.150000e+002 1.350000e+002 2.370000e+002
      vertex   1.100000e+002 1.350000e+002 2.600000e+002
    endloop
  endfacet
  facet normal 0.000000e+000 1.000000e+000 -1.470269e-011
    outer loop
      vertex   1.100000e+002 1.350000e+002 2.600000e+002
      vertex   1.150000e+002 1.350000e+002 2.370000e+002
      vertex   -1.150000e+002 1.350000e+002 2.370000e+002
    endloop
  endfacet
  facet normal 1.690807e-011 1.000000e+000 0.000000e+000
    outer loop
      vertex   -1.350000e+002 1.350000e+002 2.600000e+002
      vertex   -1.150000e+002 1.350000e+002 2.370000e+002
      vertex   -1.350000e+002 1.350000e+002 2.370000e+002
    endloop
  endfacet
  facet normal 0.000000e+000 1.000000e+000 -1.470269e-011
    outer loop
      vertex   -1.350000e+002 1.350000e+002 2.600000e+002
      vertex   1.100000e+002 1.350000e+002 2.600000e+002
      vertex   -1.150000e+002 1.350000e+002 2.370000e+002
    endloop
  endfacet
  facet normal 0.000000e+000 1.000000e+000 1.250841e-007
    outer loop
      vertex   -1.350000e+002 1.350000e+002 2.600000e+002
      vertex   -7.000000e+001 1.350000e+002 2.820000e+002
      vertex   1.100000e+002 1.350000e+002 2.600000e+002
    endloop
  endfacet
  facet normal 4.233624e-008 1.000000e+000 -0.000000e+000
    outer loop
      vertex   -1.350000e+002 1.350000e+002 2.600000e+002
      vertex   -1.350000e+002 1.350000e+002 2.820000e+002
      vertex   -7.000000e+001 1.350000e+002 2.820000e+002
    endloop
  endfacet
  facet normal 1.783153e-013 1.000000e+000 0.000000e+000
    outer loop
      vertex   1.150000e+002 1.350000e+002 2.150000e+002
      vertex   -1.150000e+002 1.350000e+002 2.150000e+002
      vertex   1.150000e+002 1.350000e+002 2.370000e+002
    endloop
  endfacet
  facet normal 0.000000e+000 1.000000e+000 1.864206e-012
    outer loop
      vertex   1.150000e+002 1.350000e+002 2.370000e+002
      vertex   -1.150000e+002 1.350000e+002 2.150000e+002
      vertex   -1.150000e+002 1.350000e+002 2.370000e+002
    endloop
  endfacet
  facet normal -1.528809e-008 1.000000e+000 0.000000e+000
    outer loop
      vertex   -7.000000e+001 1.350000e+002 2.820000e+002
      vertex   1.100000e+002 1.350000e+002 2.820000e+002
      vertex   1.100000e+002 1.350000e+002 2.600000e+002
    endloop
  endfacet
  facet normal 0.000000e+000 4.161507e-010 -1.000000e+000
    outer loop
      vertex   1.100000e+002 1.350000e+002 2.600000e+002
      vertex   1.100000e+002 1.360000e+002 2.600000e+002
      vertex   1.350000e+002 1.350000e+002 2.600000e+002
    endloop
  endfacet
  facet normal 2.090089e-008 5.229385e-007 -1.000000e+000
    outer loop
      vertex   1.350000e+002 1.350000e+002 2.600000e+002
      vertex   1.100000e+002 1.360000e+002 2.600000e+002
      vertex   1.600000e+002 1.360000e+002 2.600000e+002
    endloop
  endfacet
  facet normal 4.161094e-008 5.189940e-009 -1.000000e+000
    outer loop
      vertex   1.600000e+002 -6.599812e+001 2.600000e+002
      vertex   1.350000e+002 1.350000e+002 2.600000e+002
      vertex   1.600000e+002 1.360000e+002 2.600000e+002
    endloop
  endfacet
  facet normal -1.053241e-010 1.301177e-012 -1.000000e+000
    outer loop
      vertex   1.600000e+002 -6.599812e+001 2.600000e+002
      vertex   1.350000e+002 -6.599999e+001 2.600000e+002
      vertex   1.350000e+002 1.350000e+002 2.600000e+002
    endloop
  endfacet
  facet normal 2.278005e-005 -3.047012e-001 -9.524480e-001
    outer loop
      vertex   1.600000e+002 -6.599812e+001 2.600000e+002
      vertex   1.600000e+002 -6.599964e+001 2.600005e+002
      vertex   1.350000e+002 -6.599999e+001 2.600000e+002
    endloop
  endfacet
  facet normal 6.797488e-006 -9.422212e-001 3.349914e-001
    outer loop
      vertex   1.350000e+002 -6.599999e+001 2.600000e+002
      vertex   1.600000e+002 -6.599964e+001 2.600005e+002
      vertex   1.350000e+002 -5.817824e+001 2.820000e+002
    endloop
  endfacet
  facet normal 6.073062e-006 -9.422214e-001 3.349907e-001
    outer loop
      vertex   1.350000e+002 -5.817824e+001 2.820000e+002
      vertex   1.600000e+002 -6.599964e+001 2.600005e+002
      vertex   1.600000e+002 6.600032e+000 4.642000e+002
    endloop
  endfacet
  facet normal 3.666308e-008 -9.422212e-001 3.349914e-001
    outer loop
      vertex   1.100000e+002 6.599978e+000 4.641999e+002
      vertex   1.350000e+002 -5.817824e+001 2.820000e+002
      vertex   1.600000e+002 6.600032e+000 4.642000e+002
    endloop
  endfacet
  facet normal -1.192608e-009 -9.422212e-001 3.349914e-001
    outer loop
      vertex   1.100000e+002 6.599978e+000 4.641999e+002
      vertex   1.100000e+002 -5.426268e+001 2.930132e+002
      vertex   1.350000e+002 -5.817824e+001 2.820000e+002
    endloop
  endfacet
  facet normal -1.825246e-011 -9.422212e-001 3.349914e-001
    outer loop
      vertex   1.350000e+002 -5.817824e+001 2.820000e+002
      vertex   1.100000e+002 -5.426268e+001 2.930132e+002
      vertex   1.100000e+002 -5.817824e+001 2.820000e+002
    endloop
  endfacet
  facet normal 1.000000e+000 0.000000e+000 0.000000e+000
    outer loop
      vertex   1.100000e+002 -8.000000e+001 2.820000e+002
      vertex   1.100000e+002 -7.000000e+001 2.820000e+002
      vertex   1.100000e+002 -5.426268e+001 2.930132e+002
    endloop
  endfacet
  facet normal 1.000000e+000 -0.000000e+000 0.000000e+000
    outer loop
      vertex   1.100000e+002 -5.426268e+001 2.930132e+002
      vertex   1.100000e+002 -7.000000e+001 2.820000e+002
      vertex   1.100000e+002 -5.817824e+001 2.820000e+002
    endloop
  endfacet
  facet normal 3.050000e-006 0.000000e+000 -1.000000e+000
    outer loop
      vertex   1.100000e+002 -8.000000e+001 2.820000e+002
      vertex   1.000000e+002 -8.000000e+001 2.820000e+002
      vertex   1.100000e+002 -7.000000e+001 2.820000e+002
    endloop
  endfacet
  facet normal 0.000000e+000 3.050000e-006 -1.000000e+000
    outer loop
      vertex   1.100000e+002 -7.000000e+001 2.820000e+002
      vertex   1.000000e+002 -8.000000e+001 2.820000e+002
      vertex   -7.000000e+001 -7.000000e+001 2.820000e+002
    endloop
  endfacet
  facet normal 0.000000e+000 3.050000e-006 -1.000000e+000
    outer loop
      vertex   -7.000000e+001 -7.000000e+001 2.820000e+002
      vertex   1.000000e+002 -8.000000e+001 2.820000e+002
      vertex   -7.000000e+001 -8.000000e+001 2.820000e+002
    endloop
  endfacet
  facet normal -0.000000e+000 1.392552e-010 1.000000e+000
    outer loop
      vertex   -1.350000e+002 -7.000000e+001 2.820000e+002
      vertex   -7.000000e+001 -7.000000e+001 2.820000e+002
      vertex   -1.350000e+002 -5.817824e+001 2.820000e+002
    endloop
  endfacet
  facet normal -2.532680e-011 8.442421e-022 1.000000e+000
    outer loop
      vertex   -1.350000e+002 -5.817824e+001 2.820000e+002
      vertex   -7.000000e+001 -7.000000e+001 2.820000e+002
      vertex   -7.000000e+001 -5.800000e+001 2.820000e+002
    endloop
  endfacet
  facet normal 0.000000e+000 -9.236534e-009 1.000000e+000
    outer loop
      vertex   -1.350000e+002 -5.800000e+001 2.820000e+002
      vertex   -1.350000e+002 -5.817824e+001 2.820000e+002
      vertex   -7.000000e+001 -5.800000e+001 2.820000e+002
    endloop
  endfacet
  facet normal -1.000000e+000 -1.690807e-011 0.000000e+000
    outer loop
      vertex   -1.350000e+002 1.350000e+002 2.370000e+002
      vertex   -1.350000e+002 1.150000e+002 2.370000e+002
      vertex   -1.350000e+002 1.350000e+002 2.600000e+002
    endloop
  endfacet
  facet normal -1.000000e+000 1.900174e-023 -1.470269e-011
    outer loop
      vertex   -1.350000e+002 1.350000e+002 2.600000e+002
      vertex   -1.350000e+002 1.150000e+002 2.370000e+002
      vertex   -1.350000e+002 -6.599999e+001 2.600000e+002
    endloop
  endfacet
  facet normal -1.000000e+000 1.695894e-012 -1.356727e-012
    outer loop
      vertex   -1.350000e+002 -6.599999e+001 2.600000e+002
      vertex   -1.350000e+002 1.150000e+002 2.370000e+002
      vertex   -1.350000e+002 -7.000000e+001 2.550000e+002
    endloop
  endfacet
  facet normal -1.000000e+000 0.000000e+000 -0.000000e+000
    outer loop
      vertex   -1.350000e+002 -7.000000e+001 2.820000e+002
      vertex   -1.350000e+002 -6.599999e+001 2.600000e+002
      vertex   -1.350000e+002 -7.000000e+001 2.550000e+002
    endloop
  endfacet
  facet normal -1.000000e+000 0.000000e+000 -0.000000e+000
    outer loop
      vertex   -1.350000e+002 -7.000000e+001 2.820000e+002
      vertex   -1.350000e+002 -5.817824e+001 2.820000e+002
      vertex   -1.350000e+002 -6.599999e+001 2.600000e+002
    endloop
  endfacet
  facet normal -1.000000e+000 1.537098e-012 0.000000e+000
    outer loop
      vertex   -1.350000e+002 1.150000e+002 2.150000e+002
      vertex   -1.350000e+002 -1.050000e+002 2.150000e+002
      vertex   -1.350000e+002 1.150000e+002 2.370000e+002
    endloop
  endfacet
  facet normal -1.000000e+000 1.684491e-012 -1.473929e-012
    outer loop
      vertex   -1.350000e+002 1.150000e+002 2.370000e+002
      vertex   -1.350000e+002 -1.050000e+002 2.150000e+002
      vertex   -1.350000e+002 -7.000000e+001 2.550000e+002
    endloop
  endfacet
  facet normal -1.000000e+000 -8.246356e-012 7.215561e-012
    outer loop
      vertex   -1.350000e+002 -7.000000e+001 2.550000e+002
      vertex   -1.350000e+002 -1.050000e+002 2.150000e+002
      vertex   -1.350000e+002 -1.050000e+002 2.550000e+002
    endloop
  endfacet
  facet normal -7.071068e-001 -7.071068e-001 -7.216145e-012
    outer loop
      vertex   -1.350000e+002 -1.050000e+002 2.550000e+002
      vertex   -1.350000e+002 -1.050000e+002 2.150000e+002
      vertex   -1.050000e+002 -1.350000e+002 2.550000e+002
    endloop
  endfacet
  facet normal -7.071068e-001 -7.071068e-001 0.000000e+000
    outer loop
      vertex   -1.050000e+002 -1.350000e+002 2.550000e+002
      vertex   -1.350000e+002 -1.050000e+002 2.150000e+002
      vertex   -1.050000e+002 -1.350000e+002 2.150000e+002
    endloop
  endfacet
  facet normal 0.000000e+000 -1.000000e+000 0.000000e+000
    outer loop
      vertex   -1.050000e+002 -1.350000e+002 2.550000e+002
      vertex   -1.050000e+002 -1.350000e+002 2.150000e+002
      vertex   1.050000e+002 -1.350000e+002 2.550000e+002
    endloop
  endfacet
  facet normal 7.480323e-013 -1.000000e+000 -3.927170e-012
    outer loop
      vertex   1.050000e+002 -1.350000e+002 2.550000e+002
      vertex   -1.050000e+002 -1.350000e+002 2.150000e+002
      vertex   1.050000e+002 -1.350000e+002 2.150000e+002
    endloop
  endfacet
  facet normal 0.000000e+000 -1.000000e+000 0.000000e+000
    outer loop
      vertex   -1.150000e+002 -1.100000e+002 2.649999e+002
      vertex   -1.150000e+002 -1.100000e+002 2.550000e+002
      vertex   1.000000e+002 -1.100000e+002 2.649999e+002
    endloop
  endfacet
  facet normal 0.000000e+000 -1.000000e+000 -0.000000e+000
    outer loop
      vertex   1.000000e+002 -1.100000e+002 2.649999e+002
      vertex   -1.150000e+002 -1.100000e+002 2.550000e+002
      vertex   1.000000e+002 -1.100000e+002 2.550000e+002
    endloop
  endfacet
  facet normal -1.000000e+000 0.000000e+000 0.000000e+000
    outer loop
      vertex   -1.150000e+002 -1.100000e+002 2.550000e+002
      vertex   -1.150000e+002 -1.100000e+002 2.649999e+002
      vertex   -1.150000e+002 -8.000000e+001 2.550000e+002
    endloop
  endfacet
  facet normal -1.000000e+000 0.000000e+000 0.000000e+000
    outer loop
      vertex   -1.150000e+002 -8.000000e+001 2.550000e+002
      vertex   -1.150000e+002 -1.100000e+002 2.649999e+002
      vertex   -1.150000e+002 -8.000000e+001 2.819999e+002
    endloop
  endfacet
  facet normal -1.000000e+000 -0.000000e+000 0.000000e+000
    outer loop
      vertex   -1.150000e+002 -8.000000e+001 2.819999e+002
      vertex   -1.150000e+002 -1.100000e+002 2.649999e+002
      vertex   -1.150000e+002 -1.300000e+002 2.699999e+002
    endloop
  endfacet
  facet normal -1.000000e+000 -0.000000e+000 -0.000000e+000
    outer loop
      vertex   -1.150000e+002 -1.300000e+002 2.699999e+002
      vertex   -1.150000e+002 -1.100000e+002 2.649999e+002
      vertex   -1.150000e+002 -1.300000e+002 2.649999e+002
    endloop
  endfacet
  facet normal -7.071068e-001 7.071068e-001 -1.863557e-012
    outer loop
      vertex   -1.150000e+002 1.350000e+002 2.370000e+002
      vertex   -1.150000e+002 1.350000e+002 2.150000e+002
      vertex   -1.350000e+002 1.150000e+002 2.370000e+002
    endloop
  endfacet
  facet normal -7.071068e-001 7.071068e-001 0.000000e+000
    outer loop
      vertex   -1.350000e+002 1.150000e+002 2.370000e+002
      vertex   -1.150000e+002 1.350000e+002 2.150000e+002
      vertex   -1.350000e+002 1.150000e+002 2.150000e+002
    endloop
  endfacet
  facet normal 0.000000e+000 0.000000e+000 -1.000000e+000
    outer loop
      vertex   -1.350000e+002 1.150000e+002 2.370000e+002
      vertex   -1.350000e+002 1.350000e+002 2.370000e+002
      vertex   -1.150000e+002 1.350000e+002 2.370000e+002
    endloop
  endfacet
  facet normal 1.000000e+000 0.000000e+000 -0.000000e+000
    outer loop
      vertex   -1.350000e+002 1.350000e+002 2.600000e+002
      vertex   -1.350000e+002 1.360000e+002 2.600000e+002
      vertex   -1.350000e+002 1.350000e+002 2.820000e+002
    endloop
  endfacet
  facet normal 1.000000e+000 -0.000000e+000 0.000000e+000
    outer loop
      vertex   -1.350000e+002 1.350000e+002 2.820000e+002
      vertex   -1.350000e+002 1.360000e+002 2.600000e+002
      vertex   -1.350000e+002 1.440000e+002 2.820000e+002
    endloop
  endfacet
  facet normal 1.000000e+000 -0.000000e+000 0.000000e+000
    outer loop
      vertex   -1.350000e+002 1.440000e+002 2.820000e+002
      vertex   -1.350000e+002 1.360000e+002 2.600000e+002
      vertex   -1.350000e+002 1.939700e+002 3.958000e+002
    endloop
  endfacet
  facet normal 0.000000e+000 -0.000000e+000 -1.000000e+000
    outer loop
      vertex   -1.350000e+002 1.440000e+002 2.820000e+002
      vertex   -7.000000e+001 1.440000e+002 2.820000e+002
      vertex   -1.350000e+002 1.350000e+002 2.820000e+002
    endloop
  endfacet
  facet normal -2.248781e-007 1.624120e-006 -1.000000e+000
    outer loop
      vertex   -1.350000e+002 1.350000e+002 2.820000e+002
      vertex   -7.000000e+001 1.440000e+002 2.820000e+002
      vertex   -7.000000e+001 1.350000e+002 2.820000e+002
    endloop
  endfacet
  facet normal -0.000000e+000 3.934029e-001 9.193662e-001
    outer loop
      vertex   -7.000000e+001 8.125000e+001 3.050000e+002
      vertex   1.100000e+002 8.125000e+001 3.050000e+002
      vertex   -7.000000e+001 1.350000e+002 2.820000e+002
    endloop
  endfacet
  facet normal 7.766284e-008 3.934032e-001 9.193661e-001
    outer loop
      vertex   -7.000000e+001 1.350000e+002 2.820000e+002
      vertex   1.100000e+002 8.125000e+001 3.050000e+002
      vertex   1.100000e+002 1.350000e+002 2.820000e+002
    endloop
  endfacet
  facet normal -1.000000e+000 0.000000e+000 -0.000000e+000
    outer loop
      vertex   1.100000e+002 8.125000e+001 3.050000e+002
      vertex   1.100000e+002 1.939700e+002 3.958000e+002
      vertex   1.100000e+002 1.350000e+002 2.820000e+002
    endloop
  endfacet
  facet normal -1.000000e+000 0.000000e+000 0.000000e+000
    outer loop
      vertex   1.100000e+002 8.125000e+001 3.050000e+002
      vertex   1.100000e+002 6.599978e+000 4.641999e+002
      vertex   1.100000e+002 1.939700e+002 3.958000e+002
    endloop
  endfacet
  facet normal -1.000000e+000 0.000000e+000 0.000000e+000
    outer loop
      vertex   1.100000e+002 8.125000e+001 3.050000e+002
      vertex   1.100000e+002 2.750000e+001 3.150000e+002
      vertex   1.100000e+002 6.599978e+000 4.641999e+002
    endloop
  endfacet
  facet normal -1.000000e+000 0.000000e+000 -0.000000e+000
    outer loop
      vertex   1.100000e+002 6.599978e+000 4.641999e+002
      vertex   1.100000e+002 2.750000e+001 3.150000e+002
      vertex   1.100000e+002 -2.625000e+001 3.050000e+002
    endloop
  endfacet
  facet normal -1.000000e+000 0.000000e+000 -0.000000e+000
    outer loop
      vertex   1.100000e+002 -5.426268e+001 2.930132e+002
      vertex   1.100000e+002 6.599978e+000 4.641999e+002
      vertex   1.100000e+002 -2.625000e+001 3.050000e+002
    endloop
  endfacet
  facet normal -1.000000e+000 0.000000e+000 0.000000e+000
    outer loop
      vertex   1.100000e+002 6.599978e+000 4.641999e+002
      vertex   1.100000e+002 3.572003e+001 5.066000e+002
      vertex   1.100000e+002 1.939700e+002 3.958000e+002
    endloop
  endfacet
  facet normal -1.000000e+000 0.000000e+000 0.000000e+000
    outer loop
      vertex   1.100000e+002 1.939700e+002 3.958000e+002
      vertex   1.100000e+002 3.572003e+001 5.066000e+002
      vertex   1.100000e+002 8.263989e+001 5.284799e+002
    endloop
  endfacet
  facet normal -1.000000e+000 -0.000000e+000 -0.000000e+000
    outer loop
      vertex   1.100000e+002 1.342000e+002 5.234000e+002
      vertex   1.100000e+002 1.939700e+002 3.958000e+002
      vertex   1.100000e+002 8.263989e+001 5.284799e+002
    endloop
  endfacet
  facet normal -1.000000e+000 0.000000e+000 -0.000000e+000
    outer loop
      vertex   1.100000e+002 1.342000e+002 5.234000e+002
      vertex   1.100000e+002 1.984800e+002 4.473599e+002
      vertex   1.100000e+002 1.939700e+002 3.958000e+002
    endloop
  endfacet
  facet normal -1.000000e+000 0.000000e+000 0.000000e+000
    outer loop
      vertex   1.100000e+002 1.342000e+002 5.234000e+002
      vertex   1.100000e+002 1.766000e+002 4.942800e+002
      vertex   1.100000e+002 1.984800e+002 4.473599e+002
    endloop
  endfacet
  facet normal -1.000000e+000 -0.000000e+000 0.000000e+000
    outer loop
      vertex   1.100000e+002 1.939700e+002 3.958000e+002
      vertex   1.100000e+002 1.360000e+002 2.600000e+002
      vertex   1.100000e+002 1.350000e+002 2.820000e+002
    endloop
  endfacet
  facet normal -1.000000e+000 0.000000e+000 -0.000000e+000
    outer loop
      vertex   1.100000e+002 1.350000e+002 2.820000e+002
      vertex   1.100000e+002 1.360000e+002 2.600000e+002
      vertex   1.100000e+002 1.350000e+002 2.600000e+002
    endloop
  endfacet
  facet normal 1.369659e-006 9.197081e-001 -3.926030e-001
    outer loop
      vertex   1.100000e+002 1.939700e+002 3.958000e+002
      vertex   1.600000e+002 1.939699e+002 3.957999e+002
      vertex   1.100000e+002 1.360000e+002 2.600000e+002
    endloop
  endfacet
  facet normal -1.058691e-007 9.197083e-001 -3.926025e-001
    outer loop
      vertex   1.100000e+002 1.360000e+002 2.600000e+002
      vertex   1.600000e+002 1.939699e+002 3.957999e+002
      vertex   1.600000e+002 1.360000e+002 2.600000e+002
    endloop
  endfacet
  facet normal -1.000000e+000 -1.774667e-008 1.369828e-005
    outer loop
      vertex   1.600000e+002 1.347194e+002 2.570000e+002
      vertex   1.600000e+002 -5.778024e+001 2.570000e+002
      vertex   1.600000e+002 1.360000e+002 2.600000e+002
    endloop
  endfacet
  facet normal -1.000000e+000 1.290730e-007 4.214679e-006
    outer loop
      vertex   1.600000e+002 1.360000e+002 2.600000e+002
      vertex   1.600000e+002 -5.778024e+001 2.570000e+002
      vertex   1.600000e+002 -6.599812e+001 2.600000e+002
    endloop
  endfacet
  facet normal -1.783928e-002 -3.047650e-001 -9.522605e-001
    outer loop
      vertex   1.600000e+002 -6.599964e+001 2.600005e+002
      vertex   1.600000e+002 -6.599812e+001 2.600000e+002
      vertex   1.626121e+002 -6.493908e+001 2.596121e+002
    endloop
  endfacet
  facet normal -4.544431e-004 -3.429213e-001 -9.393640e-001
    outer loop
      vertex   1.626121e+002 -6.493908e+001 2.596121e+002
      vertex   1.600000e+002 -6.599812e+001 2.600000e+002
      vertex   1.600000e+002 -5.778024e+001 2.570000e+002
    endloop
  endfacet
  facet normal 3.968572e-001 -8.648278e-001 3.075341e-001
    outer loop
      vertex   1.626121e+002 -6.493908e+001 2.596121e+002
      vertex   1.830000e+002 -4.833341e+001 2.800000e+002
      vertex   1.600000e+002 -6.599964e+001 2.600005e+002
    endloop
  endfacet
  facet normal 3.969079e-001 -8.648259e-001 3.074741e-001
    outer loop
      vertex   1.600000e+002 -6.599964e+001 2.600005e+002
      vertex   1.830000e+002 -4.833341e+001 2.800000e+002
      vertex   1.600000e+002 6.600032e+000 4.642000e+002
    endloop
  endfacet
  facet normal 3.969137e-001 -8.648233e-001 3.074740e-001
    outer loop
      vertex   1.600000e+002 6.600032e+000 4.642000e+002
      vertex   1.830000e+002 -4.833341e+001 2.800000e+002
      vertex   1.830000e+002 1.593986e+001 4.607796e+002
    endloop
  endfacet
  facet normal -1.240454e-011 -8.243206e-001 5.661232e-001
    outer loop
      vertex   1.600000e+002 3.572003e+001 5.066000e+002
      vertex   1.100000e+002 3.572003e+001 5.066000e+002
      vertex   1.600000e+002 3.469907e+001 5.051134e+002
    endloop
  endfacet
  facet normal 4.057878e-007 -8.243143e-001 5.661325e-001
    outer loop
      vertex   1.600000e+002 3.469907e+001 5.051134e+002
      vertex   1.100000e+002 3.572003e+001 5.066000e+002
      vertex   1.100000e+002 6.599978e+000 4.641999e+002
    endloop
  endfacet
  facet normal -7.620977e-007 -8.243136e-001 5.661335e-001
    outer loop
      vertex   1.600000e+002 6.600032e+000 4.642000e+002
      vertex   1.600000e+002 3.469907e+001 5.051134e+002
      vertex   1.100000e+002 6.599978e+000 4.641999e+002
    endloop
  endfacet
  facet normal 0.000000e+000 -3.934032e-001 9.193661e-001
    outer loop
      vertex   -7.000000e+001 -2.625000e+001 3.050000e+002
      vertex   -7.000000e+001 -5.406527e+001 2.930977e+002
      vertex   1.100000e+002 -2.625000e+001 3.050000e+002
    endloop
  endfacet
  facet normal -3.964996e-010 -3.934032e-001 9.193661e-001
    outer loop
      vertex   1.100000e+002 -2.625000e+001 3.050000e+002
      vertex   -7.000000e+001 -5.406527e+001 2.930977e+002
      vertex   1.100000e+002 -5.426268e+001 2.930132e+002
    endloop
  endfacet
  facet normal -1.592961e-009 -3.934041e-001 9.193657e-001
    outer loop
      vertex   1.100000e+002 -5.426268e+001 2.930132e+002
      vertex   -7.000000e+001 -5.406527e+001 2.930977e+002
      vertex   1.000000e+002 -8.000000e+001 2.820000e+002
    endloop
  endfacet
  facet normal -2.804070e-006 -3.934032e-001 9.193661e-001
    outer loop
      vertex   1.100000e+002 -8.000000e+001 2.820000e+002
      vertex   1.100000e+002 -5.426268e+001 2.930132e+002
      vertex   1.000000e+002 -8.000000e+001 2.820000e+002
    endloop
  endfacet
  facet normal 0.000000e+000 -3.934041e-001 9.193657e-001
    outer loop
      vertex   -7.000000e+001 -5.406527e+001 2.930977e+002
      vertex   -7.000000e+001 -8.000000e+001 2.820000e+002
      vertex   1.000000e+002 -8.000000e+001 2.820000e+002
    endloop
  endfacet
  facet normal -1.000000e+000 3.333394e-011 -1.857608e-011
    outer loop
      vertex   -7.000000e+001 -5.800000e+001 2.820000e+002
      vertex   -7.000000e+001 -7.000000e+001 2.820000e+002
      vertex   -7.000000e+001 -5.406527e+001 2.930977e+002
    endloop
  endfacet
  facet normal -1.000000e+000 -3.000076e-011 7.236399e-011
    outer loop
      vertex   -7.000000e+001 -5.406527e+001 2.930977e+002
      vertex   -7.000000e+001 -7.000000e+001 2.820000e+002
      vertex   -7.000000e+001 -8.000000e+001 2.820000e+002
    endloop
  endfacet
  facet normal -5.776552e-009 -9.425119e-001 3.341727e-001
    outer loop
      vertex   -1.350000e+002 6.599977e+000 4.642000e+002
      vertex   -1.350000e+002 6.534308e+000 4.640147e+002
      vertex   -7.000000e+001 6.599996e+000 4.642000e+002
    endloop
  endfacet
  facet normal -5.768166e-009 -9.425119e-001 3.341727e-001
    outer loop
      vertex   -7.000000e+001 6.599996e+000 4.642000e+002
      vertex   -1.350000e+002 6.534308e+000 4.640147e+002
      vertex   -7.000000e+001 -5.406527e+001 2.930977e+002
    endloop
  endfacet
  facet normal -6.684921e-010 -9.425119e-001 3.341727e-001
    outer loop
      vertex   -7.000000e+001 -5.406527e+001 2.930977e+002
      vertex   -1.350000e+002 6.534308e+000 4.640147e+002
      vertex   -1.350000e+002 -5.800000e+001 2.820000e+002
    endloop
  endfacet
  facet normal 0.000000e+000 -9.425119e-001 3.341727e-001
    outer loop
      vertex   -7.000000e+001 -5.800000e+001 2.820000e+002
      vertex   -7.000000e+001 -5.406527e+001 2.930977e+002
      vertex   -1.350000e+002 -5.800000e+001 2.820000e+002
    endloop
  endfacet
  facet normal 1.000000e+000 0.000000e+000 -0.000000e+000
    outer loop
      vertex   -1.350000e+002 -5.800000e+001 2.820000e+002
      vertex   -1.350000e+002 6.534308e+000 4.640147e+002
      vertex   -1.350000e+002 -5.817824e+001 2.820000e+002
    endloop
  endfacet
  facet normal -5.586886e-011 -9.422212e-001 3.349914e-001
    outer loop
      vertex   -1.600000e+002 -6.599999e+001 2.600000e+002
      vertex   -1.350000e+002 -5.817824e+001 2.820000e+002
      vertex   -1.600000e+002 6.599978e+000 4.641999e+002
    endloop
  endfacet
  facet normal 4.167808e-012 -9.422212e-001 3.349914e-001
    outer loop
      vertex   -1.600000e+002 -6.599999e+001 2.600000e+002
      vertex   -1.350000e+002 -6.599999e+001 2.600000e+002
      vertex   -1.350000e+002 -5.817824e+001 2.820000e+002
    endloop
  endfacet
  facet normal 5.944625e-006 -9.422209e-001 3.349922e-001
    outer loop
      vertex   -1.350000e+002 -5.817824e+001 2.820000e+002
      vertex   -1.350000e+002 6.534308e+000 4.640147e+002
      vertex   -1.600000e+002 6.599978e+000 4.641999e+002
    endloop
  endfacet
  facet normal -8.887389e-007 -9.425119e-001 3.341727e-001
    outer loop
      vertex   -1.600000e+002 6.599978e+000 4.641999e+002
      vertex   -1.350000e+002 6.534308e+000 4.640147e+002
      vertex   -1.350000e+002 6.599977e+000 4.642000e+002
    endloop
  endfacet
  facet normal 3.276455e-012 1.292410e-012 -1.000000e+000
    outer loop
      vertex   -1.350000e+002 -6.599999e+001 2.600000e+002
      vertex   -1.600000e+002 -6.599999e+001 2.600000e+002
      vertex   -1.350000e+002 1.350000e+002 2.600000e+002
    endloop
  endfacet
  facet normal 6.766056e-014 1.691514e-012 -1.000000e+000
    outer loop
      vertex   -1.350000e+002 1.350000e+002 2.600000e+002
      vertex   -1.600000e+002 -6.599999e+001 2.600000e+002
      vertex   -1.600000e+002 1.360000e+002 2.600000e+002
    endloop
  endfacet
  facet normal -0.000000e+000 -0.000000e+000 -1.000000e+000
    outer loop
      vertex   -1.350000e+002 1.360000e+002 2.600000e+002
      vertex   -1.350000e+002 1.350000e+002 2.600000e+002
      vertex   -1.600000e+002 1.360000e+002 2.600000e+002
    endloop
  endfacet
  facet normal -2.111403e-012 -1.000000e+000 9.079031e-011
    outer loop
      vertex   -1.150000e+002 -1.300000e+002 2.699999e+002
      vertex   -1.150000e+002 -1.300000e+002 2.649999e+002
      vertex   1.000000e+002 -1.300000e+002 2.699999e+002
    endloop
  endfacet
  facet normal 0.000000e+000 -1.000000e+000 -0.000000e+000
    outer loop
      vertex   1.000000e+002 -1.300000e+002 2.699999e+002
      vertex   -1.150000e+002 -1.300000e+002 2.649999e+002
      vertex   1.000000e+002 -1.300000e+002 2.649999e+002
    endloop
  endfacet
  facet normal 1.554073e-012 0.000000e+000 -1.000000e+000
    outer loop
      vertex   -1.150000e+002 -1.100000e+002 2.649999e+002
      vertex   1.000000e+002 -1.100000e+002 2.649999e+002
      vertex   -1.150000e+002 -1.300000e+002 2.649999e+002
    endloop
  endfacet
  facet normal 1.554073e-012 0.000000e+000 -1.000000e+000
    outer loop
      vertex   -1.150000e+002 -1.300000e+002 2.649999e+002
      vertex   1.000000e+002 -1.100000e+002 2.649999e+002
      vertex   1.000000e+002 -1.300000e+002 2.649999e+002
    endloop
  endfacet
  facet normal 0.000000e+000 9.197081e-001 -3.926030e-001
    outer loop
      vertex   -1.600000e+002 1.360000e+002 2.600000e+002
      vertex   -1.600000e+002 1.939700e+002 3.957999e+002
      vertex   -1.350000e+002 1.360000e+002 2.600000e+002
    endloop
  endfacet
  facet normal 4.827346e-007 9.197081e-001 -3.926029e-001
    outer loop
      vertex   -1.350000e+002 1.360000e+002 2.600000e+002
      vertex   -1.600000e+002 1.939700e+002 3.957999e+002
      vertex   -1.350000e+002 1.939700e+002 3.958000e+002
    endloop
  endfacet
  facet normal 0.000000e+000 9.156172e-001 -4.020511e-001
    outer loop
      vertex   -1.350000e+002 1.440000e+002 2.820000e+002
      vertex   -1.350000e+002 1.939700e+002 3.958000e+002
      vertex   -7.000000e+001 1.440000e+002 2.820000e+002
    endloop
  endfacet
  facet normal 4.006289e-007 9.156173e-001 -4.020509e-001
    outer loop
      vertex   -7.000000e+001 1.440000e+002 2.820000e+002
      vertex   -1.350000e+002 1.939700e+002 3.958000e+002
      vertex   -7.000000e+001 1.939700e+002 3.958001e+002
    endloop
  endfacet
  facet normal 1.000000e+000 -1.111131e-011 5.318331e-012
    outer loop
      vertex   -7.000000e+001 1.440000e+002 2.820000e+002
      vertex   -7.000000e+001 1.939700e+002 3.958001e+002
      vertex   -7.000000e+001 1.350000e+002 2.820000e+002
    endloop
  endfacet
  facet normal 1.000000e+000 -1.539106e-013 -3.596826e-013
    outer loop
      vertex   -7.000000e+001 1.350000e+002 2.820000e+002
      vertex   -7.000000e+001 1.939700e+002 3.958001e+002
      vertex   -7.000000e+001 8.125000e+001 3.050000e+002
    endloop
  endfacet
  facet normal 1.000000e+000 -3.219113e-013 -1.511250e-013
    outer loop
      vertex   -7.000000e+001 8.125000e+001 3.050000e+002
      vertex   -7.000000e+001 1.939700e+002 3.958001e+002
      vertex   -7.000000e+001 6.599996e+000 4.642000e+002
    endloop
  endfacet
  facet normal 1.000000e+000 3.454057e-017 -1.856556e-016
    outer loop
      vertex   -7.000000e+001 2.750000e+001 3.150000e+002
      vertex   -7.000000e+001 6.599996e+000 4.642000e+002
      vertex   -7.000000e+001 -2.625000e+001 3.050000e+002
    endloop
  endfacet
  facet normal 1.000000e+000 -3.638910e-017 -1.955914e-016
    outer loop
      vertex   -7.000000e+001 2.750000e+001 3.150000e+002
      vertex   -7.000000e+001 8.125000e+001 3.050000e+002
      vertex   -7.000000e+001 6.599996e+000 4.642000e+002
    endloop
  endfacet
  facet normal 1.000000e+000 1.039756e-012 8.789518e-013
    outer loop
      vertex   -7.000000e+001 1.984800e+002 4.473600e+002
      vertex   -7.000000e+001 1.342000e+002 5.234000e+002
      vertex   -7.000000e+001 1.939700e+002 3.958001e+002
    endloop
  endfacet
  facet normal 1.000000e+000 0.000000e+000 0.000000e+000
    outer loop
      vertex   -7.000000e+001 1.984800e+002 4.473600e+002
      vertex   -7.000000e+001 1.766000e+002 4.942801e+002
      vertex   -7.000000e+001 1.342000e+002 5.234000e+002
    endloop
  endfacet
  facet normal 1.000000e+000 4.048147e-014 4.108745e-013
    outer loop
      vertex   -7.000000e+001 1.342000e+002 5.234000e+002
      vertex   -7.000000e+001 8.263989e+001 5.284800e+002
      vertex   -7.000000e+001 1.939700e+002 3.958001e+002
    endloop
  endfacet
  facet normal 1.000000e+000 -1.263300e-013 2.709051e-013
    outer loop
      vertex   -7.000000e+001 1.939700e+002 3.958001e+002
      vertex   -7.000000e+001 8.263989e+001 5.284800e+002
      vertex   -7.000000e+001 3.572004e+001 5.066001e+002
    endloop
  endfacet
  facet normal 1.000000e+000 -2.130764e-013 1.470096e-013
    outer loop
      vertex   -7.000000e+001 6.599996e+000 4.642000e+002
      vertex   -7.000000e+001 1.939700e+002 3.958001e+002
      vertex   -7.000000e+001 3.572004e+001 5.066001e+002
    endloop
  endfacet
  facet normal 1.000000e+000 9.863536e-013 -2.037069e-013
    outer loop
      vertex   -7.000000e+001 6.599996e+000 4.642000e+002
      vertex   -7.000000e+001 -5.406527e+001 2.930977e+002
      vertex   -7.000000e+001 -2.625000e+001 3.050000e+002
    endloop
  endfacet
  facet normal -0.000000e+000 1.829079e-001 9.831300e-001
    outer loop
      vertex   -7.000000e+001 2.750000e+001 3.150000e+002
      vertex   1.100000e+002 2.750000e+001 3.150000e+002
      vertex   -7.000000e+001 8.125000e+001 3.050000e+002
    endloop
  endfacet
  facet normal 0.000000e+000 1.829079e-001 9.831300e-001
    outer loop
      vertex   -7.000000e+001 8.125000e+001 3.050000e+002
      vertex   1.100000e+002 2.750000e+001 3.150000e+002
      vertex   1.100000e+002 8.125000e+001 3.050000e+002
    endloop
  endfacet
  facet normal 0.000000e+000 -1.829079e-001 9.831300e-001
    outer loop
      vertex   -7.000000e+001 -2.625000e+001 3.050000e+002
      vertex   1.100000e+002 -2.625000e+001 3.050000e+002
      vertex   -7.000000e+001 2.750000e+001 3.150000e+002
    endloop
  endfacet
  facet normal 0.000000e+000 -1.829079e-001 9.831300e-001
    outer loop
      vertex   -7.000000e+001 2.750000e+001 3.150000e+002
      vertex   1.100000e+002 -2.625000e+001 3.050000e+002
      vertex   1.100000e+002 2.750000e+001 3.150000e+002
    endloop
  endfacet
  facet normal 2.072987e-011 -4.226478e-001 9.062940e-001
    outer loop
      vertex   1.600000e+002 8.263989e+001 5.284799e+002
      vertex   1.100000e+002 8.263989e+001 5.284799e+002
      vertex   1.600000e+002 8.130821e+001 5.278589e+002
    endloop
  endfacet
  facet normal 5.201194e-007 -4.226317e-001 9.063015e-001
    outer loop
      vertex   1.600000e+002 8.130821e+001 5.278589e+002
      vertex   1.100000e+002 8.263989e+001 5.284799e+002
      vertex   1.100000e+002 3.572003e+001 5.066000e+002
    endloop
  endfacet
  facet normal 1.240638e-011 -4.226194e-001 9.063073e-001
    outer loop
      vertex   1.600000e+002 3.704808e+001 5.072193e+002
      vertex   1.100000e+002 3.572003e+001 5.066000e+002
      vertex   1.600000e+002 3.572003e+001 5.066000e+002
    endloop
  endfacet
  facet normal 3.967055e-007 -4.226316e-001 9.063016e-001
    outer loop
      vertex   1.600000e+002 3.704808e+001 5.072193e+002
      vertex   1.600000e+002 8.130821e+001 5.278589e+002
      vertex   1.100000e+002 3.572003e+001 5.066000e+002
    endloop
  endfacet
  facet normal 8.020024e-012 9.805092e-002 9.951814e-001
    outer loop
      vertex   1.600000e+002 1.342000e+002 5.234000e+002
      vertex   1.100000e+002 1.342000e+002 5.234000e+002
      vertex   1.600000e+002 8.442582e+001 5.283040e+002
    endloop
  endfacet
  facet normal -5.277927e-007 9.805039e-002 9.951815e-001
    outer loop
      vertex   1.600000e+002 8.442582e+001 5.283040e+002
      vertex   1.100000e+002 1.342000e+002 5.234000e+002
      vertex   1.100000e+002 8.263989e+001 5.284799e+002
    endloop
  endfacet
  facet normal -2.072955e-011 9.803576e-002 9.951829e-001
    outer loop
      vertex   1.600000e+002 8.263989e+001 5.284799e+002
      vertex   1.600000e+002 8.442582e+001 5.283040e+002
      vertex   1.100000e+002 8.263989e+001 5.284799e+002
    endloop
  endfacet
  facet normal -1.169736e-011 5.661351e-001 8.243124e-001
    outer loop
      vertex   1.600000e+002 1.766000e+002 4.942800e+002
      vertex   1.100000e+002 1.766000e+002 4.942800e+002
      vertex   1.600000e+002 1.751129e+002 4.953013e+002
    endloop
  endfacet
  facet normal -1.071331e-007 5.661327e-001 8.243141e-001
    outer loop
      vertex   1.600000e+002 1.751129e+002 4.953013e+002
      vertex   1.100000e+002 1.766000e+002 4.942800e+002
      vertex   1.100000e+002 1.342000e+002 5.234000e+002
    endloop
  endfacet
  facet normal -8.069110e-012 5.661326e-001 8.243142e-001
    outer loop
      vertex   1.600000e+002 1.342000e+002 5.234000e+002
      vertex   1.600000e+002 1.751129e+002 4.953013e+002
      vertex   1.100000e+002 1.342000e+002 5.234000e+002
    endloop
  endfacet
  facet normal 1.819330e-011 9.063052e-001 4.226238e-001
    outer loop
      vertex   1.600000e+002 1.984800e+002 4.473599e+002
      vertex   1.100000e+002 1.984800e+002 4.473599e+002
      vertex   1.600000e+002 1.978589e+002 4.486920e+002
    endloop
  endfacet
  facet normal -2.624554e-007 9.063014e-001 4.226319e-001
    outer loop
      vertex   1.600000e+002 1.978589e+002 4.486920e+002
      vertex   1.100000e+002 1.984800e+002 4.473599e+002
      vertex   1.100000e+002 1.766000e+002 4.942800e+002
    endloop
  endfacet
  facet normal 1.169717e-011 9.062913e-001 4.226536e-001
    outer loop
      vertex   1.600000e+002 1.772196e+002 4.929514e+002
      vertex   1.100000e+002 1.766000e+002 4.942800e+002
      vertex   1.600000e+002 1.766000e+002 4.942800e+002
    endloop
  endfacet
  facet normal -7.166018e-007 9.063016e-001 4.226315e-001
    outer loop
      vertex   1.600000e+002 1.772196e+002 4.929514e+002
      vertex   1.600000e+002 1.978589e+002 4.486920e+002
      vertex   1.100000e+002 1.766000e+002 4.942800e+002
    endloop
  endfacet
  facet normal 1.993279e-006 9.961961e-001 -8.714009e-002
    outer loop
      vertex   1.600000e+002 1.939699e+002 3.957999e+002
      vertex   1.100000e+002 1.939700e+002 3.958000e+002
      vertex   1.600000e+002 1.983163e+002 4.454885e+002
    endloop
  endfacet
  facet normal 2.806716e-007 9.961962e-001 -8.713838e-002
    outer loop
      vertex   1.600000e+002 1.983163e+002 4.454885e+002
      vertex   1.100000e+002 1.939700e+002 3.958000e+002
      vertex   1.100000e+002 1.984800e+002 4.473599e+002
    endloop
  endfacet
  facet normal -1.822978e-011 9.961956e-001 -8.714583e-002
    outer loop
      vertex   1.600000e+002 1.984800e+002 4.473599e+002
      vertex   1.600000e+002 1.983163e+002 4.454885e+002
      vertex   1.100000e+002 1.984800e+002 4.473599e+002
    endloop
  endfacet
  facet normal 3.983199e-001 8.436005e-001 -3.601103e-001
    outer loop
      vertex   1.600000e+002 1.347194e+002 2.570000e+002
      vertex   1.600000e+002 1.360000e+002 2.600000e+002
      vertex   1.830000e+002 1.336777e+002 2.800000e+002
    endloop
  endfacet
  facet normal 3.983219e-001 8.435985e-001 -3.601129e-001
    outer loop
      vertex   1.830000e+002 1.336777e+002 2.800000e+002
      vertex   1.600000e+002 1.360000e+002 2.600000e+002
      vertex   1.600000e+002 1.939699e+002 3.957999e+002
    endloop
  endfacet
  facet normal 3.983235e-001 8.435980e-001 -3.601123e-001
    outer loop
      vertex   1.829999e+002 1.845700e+002 3.992202e+002
      vertex   1.830000e+002 1.336777e+002 2.800000e+002
      vertex   1.600000e+002 1.939699e+002 3.957999e+002
    endloop
  endfacet
  facet normal 7.071063e-001 -1.351108e-008 -7.071073e-001
    outer loop
      vertex   1.600000e+002 -5.778024e+001 2.570000e+002
      vertex   1.600000e+002 1.347194e+002 2.570000e+002
      vertex   1.626121e+002 -6.493908e+001 2.596121e+002
    endloop
  endfacet
  facet normal 7.071068e-001 -6.722404e-010 -7.071068e-001
    outer loop
      vertex   1.626121e+002 -6.493908e+001 2.596121e+002
      vertex   1.600000e+002 1.347194e+002 2.570000e+002
      vertex   1.830000e+002 -4.833341e+001 2.800000e+002
    endloop
  endfacet
  facet normal 7.071068e-001 5.536065e-009 -7.071068e-001
    outer loop
      vertex   1.830000e+002 -4.833341e+001 2.800000e+002
      vertex   1.600000e+002 1.347194e+002 2.570000e+002
      vertex   1.830000e+002 1.336777e+002 2.800000e+002
    endloop
  endfacet
  facet normal 1.000000e+000 -1.037681e-008 -6.547119e-009
    outer loop
      vertex   1.830000e+002 -4.833341e+001 2.800000e+002
      vertex   1.830000e+002 1.336777e+002 2.800000e+002
      vertex   1.830000e+002 1.593986e+001 4.607796e+002
    endloop
  endfacet
  facet normal 1.000000e+000 5.089487e-007 3.316783e-007
    outer loop
      vertex   1.830000e+002 1.593986e+001 4.607796e+002
      vertex   1.830000e+002 1.336777e+002 2.800000e+002
      vertex   1.829999e+002 1.845700e+002 3.992202e+002
    endloop
  endfacet
  facet normal -4.538550e-004 -3.429040e-001 -9.393703e-001
    outer loop
      vertex   1.830000e+002 1.593986e+001 4.607796e+002
      vertex   1.830000e+002 1.550581e+001 4.609380e+002
      vertex   1.600000e+002 6.600032e+000 4.642000e+002
    endloop
  endfacet
  facet normal -3.222365e-004 -3.432038e-001 -9.392609e-001
    outer loop
      vertex   1.600000e+002 6.600032e+000 4.642000e+002
      vertex   1.830000e+002 1.550581e+001 4.609380e+002
      vertex   1.600000e+002 6.115054e+000 4.643772e+002
    endloop
  endfacet
  facet normal -1.000000e+000 5.293555e-006 -3.018731e-006
    outer loop
      vertex   1.600000e+002 6.115054e+000 4.643772e+002
      vertex   1.600000e+002 1.450775e+001 4.818754e+002
      vertex   1.600000e+002 6.600032e+000 4.642000e+002
    endloop
  endfacet
  facet normal -1.000000e+000 2.416211e-006 -1.731444e-006
    outer loop
      vertex   1.600000e+002 6.600032e+000 4.642000e+002
      vertex   1.600000e+002 1.450775e+001 4.818754e+002
      vertex   1.600000e+002 3.469907e+001 5.051134e+002
    endloop
  endfacet
  facet normal -1.000000e+000 1.108670e-005 -9.265158e-006
    outer loop
      vertex   1.600000e+002 3.469907e+001 5.051134e+002
      vertex   1.600000e+002 1.450775e+001 4.818754e+002
      vertex   1.600000e+002 2.627075e+001 4.975573e+002
    endloop
  endfacet
  facet normal 1.000000e+000 -3.014928e-007 6.465513e-007
    outer loop
      vertex   1.600000e+002 3.704808e+001 5.072193e+002
      vertex   1.600000e+002 3.572003e+001 5.066000e+002
      vertex   1.600000e+002 3.469907e+001 5.051134e+002
    endloop
  endfacet
  facet normal -2.325635e-007 -8.243146e-001 5.661320e-001
    outer loop
      vertex   -1.350000e+002 6.599977e+000 4.642000e+002
      vertex   -7.000000e+001 6.599996e+000 4.642000e+002
      vertex   -1.350000e+002 3.571996e+001 5.066000e+002
    endloop
  endfacet
  facet normal 5.812871e-007 -8.243140e-001 5.661329e-001
    outer loop
      vertex   -1.350000e+002 3.571996e+001 5.066000e+002
      vertex   -7.000000e+001 6.599996e+000 4.642000e+002
      vertex   -7.000000e+001 3.572004e+001 5.066001e+002
    endloop
  endfacet
  facet normal -1.000000e+000 0.000000e+000 0.000000e+000
    outer loop
      vertex   -1.600000e+002 6.599978e+000 4.641999e+002
      vertex   -1.600000e+002 5.000000e+000 4.300000e+002
      vertex   -1.600000e+002 -6.599999e+001 2.600000e+002
    endloop
  endfacet
  facet normal -1.000000e+000 0.000000e+000 -0.000000e+000
    outer loop
      vertex   -1.600000e+002 6.599978e+000 4.641999e+002
      vertex   -1.600000e+002 1.772759e+001 4.775000e+002
      vertex   -1.600000e+002 5.000000e+000 4.300000e+002
    endloop
  endfacet
  facet normal -1.000000e+000 0.000000e+000 -0.000000e+000
    outer loop
      vertex   -1.600000e+002 6.599978e+000 4.641999e+002
      vertex   -1.600000e+002 3.572003e+001 5.066000e+002
      vertex   -1.600000e+002 1.772759e+001 4.775000e+002
    endloop
  endfacet
  facet normal -1.000000e+000 0.000000e+000 0.000000e+000
    outer loop
      vertex   -1.600000e+002 1.772759e+001 4.775000e+002
      vertex   -1.600000e+002 3.572003e+001 5.066000e+002
      vertex   -1.600000e+002 5.250001e+001 5.122724e+002
    endloop
  endfacet
  facet normal -1.000000e+000 -0.000000e+000 0.000000e+000
    outer loop
      vertex   -1.600000e+002 5.250001e+001 5.122724e+002
      vertex   -1.600000e+002 3.572003e+001 5.066000e+002
      vertex   -1.600000e+002 8.263989e+001 5.284799e+002
    endloop
  endfacet
  facet normal -1.000000e+000 7.238512e-008 7.346868e-007
    outer loop
      vertex   -1.600000e+002 1.000000e+002 5.249999e+002
      vertex   -1.600000e+002 8.263989e+001 5.284799e+002
      vertex   -1.600000e+002 1.342000e+002 5.234000e+002
    endloop
  endfacet
  facet normal -1.000000e+000 0.000000e+000 0.000000e+000
    outer loop
      vertex   -1.600000e+002 1.475000e+002 5.122724e+002
      vertex   -1.600000e+002 1.342000e+002 5.234000e+002
      vertex   -1.600000e+002 1.766000e+002 4.942800e+002
    endloop
  endfacet
  facet normal -1.000000e+000 8.638517e-007 4.028364e-007
    outer loop
      vertex   -1.600000e+002 1.822724e+002 4.775000e+002
      vertex   -1.600000e+002 1.766000e+002 4.942800e+002
      vertex   -1.600000e+002 1.984800e+002 4.473600e+002
    endloop
  endfacet
  facet normal -1.000000e+000 8.568724e-007 -7.495157e-008
    outer loop
      vertex   -1.600000e+002 1.950000e+002 4.300000e+002
      vertex   -1.600000e+002 1.984800e+002 4.473600e+002
      vertex   -1.600000e+002 1.939700e+002 3.957999e+002
    endloop
  endfacet
  facet normal -1.000000e+000 0.000000e+000 -0.000000e+000
    outer loop
      vertex   -1.600000e+002 1.822724e+002 3.825000e+002
      vertex   -1.600000e+002 1.939700e+002 3.957999e+002
      vertex   -1.600000e+002 1.360000e+002 2.600000e+002
    endloop
  endfacet
  facet normal -1.000000e+000 -0.000000e+000 0.000000e+000
    outer loop
      vertex   -1.600000e+002 1.475000e+002 3.477276e+002
      vertex   -1.600000e+002 1.360000e+002 2.600000e+002
      vertex   -1.600000e+002 1.000000e+002 3.350000e+002
    endloop
  endfacet
  facet normal -1.000000e+000 0.000000e+000 -0.000000e+000
    outer loop
      vertex   -1.600000e+002 1.475000e+002 3.477276e+002
      vertex   -1.600000e+002 1.822724e+002 3.825000e+002
      vertex   -1.600000e+002 1.360000e+002 2.600000e+002
    endloop
  endfacet
  facet normal -1.000000e+000 -5.455302e-008 1.014480e-007
    outer loop
      vertex   -1.600000e+002 5.250001e+001 5.122724e+002
      vertex   -1.600000e+002 8.263989e+001 5.284799e+002
      vertex   -1.600000e+002 1.000000e+002 5.249999e+002
    endloop
  endfacet
  facet normal -1.000000e+000 4.026569e-008 4.812680e-008
    outer loop
      vertex   -1.600000e+002 1.000000e+002 5.249999e+002
      vertex   -1.600000e+002 1.342000e+002 5.234000e+002
      vertex   -1.600000e+002 1.475000e+002 5.122724e+002
    endloop
  endfacet
  facet normal -1.000000e+000 8.662168e-008 1.400972e-007
    outer loop
      vertex   -1.600000e+002 1.475000e+002 5.122724e+002
      vertex   -1.600000e+002 1.766000e+002 4.942800e+002
      vertex   -1.600000e+002 1.822724e+002 4.775000e+002
    endloop
  endfacet
  facet normal -1.000000e+000 2.147270e-007 5.377363e-008
    outer loop
      vertex   -1.600000e+002 1.822724e+002 4.775000e+002
      vertex   -1.600000e+002 1.984800e+002 4.473600e+002
      vertex   -1.600000e+002 1.950000e+002 4.300000e+002
    endloop
  endfacet
  facet normal -1.000000e+000 5.785811e-008 -5.088748e-008
    outer loop
      vertex   -1.600000e+002 1.950000e+002 4.300000e+002
      vertex   -1.600000e+002 1.939700e+002 3.957999e+002
      vertex   -1.600000e+002 1.822724e+002 3.825000e+002
    endloop
  endfacet
  facet normal -1.000000e+000 -0.000000e+000 -0.000000e+000
    outer loop
      vertex   -1.600000e+002 1.000000e+002 3.350000e+002
      vertex   -1.600000e+002 1.360000e+002 2.600000e+002
      vertex   -1.600000e+002 5.250001e+001 3.477276e+002
    endloop
  endfacet
  facet normal -1.000000e+000 0.000000e+000 -0.000000e+000
    outer loop
      vertex   -1.600000e+002 5.250001e+001 3.477276e+002
      vertex   -1.600000e+002 1.360000e+002 2.600000e+002
      vertex   -1.600000e+002 -6.599999e+001 2.600000e+002
    endloop
  endfacet
  facet normal -1.000000e+000 -0.000000e+000 0.000000e+000
    outer loop
      vertex   -1.600000e+002 1.772759e+001 3.825000e+002
      vertex   -1.600000e+002 -6.599999e+001 2.600000e+002
      vertex   -1.600000e+002 5.000000e+000 4.300000e+002
    endloop
  endfacet
  facet normal -1.000000e+000 0.000000e+000 -0.000000e+000
    outer loop
      vertex   -1.600000e+002 1.772759e+001 3.825000e+002
      vertex   -1.600000e+002 5.250001e+001 3.477276e+002
      vertex   -1.600000e+002 -6.599999e+001 2.600000e+002
    endloop
  endfacet
  facet normal -1.473982e-006 -8.243143e-001 5.661325e-001
    outer loop
      vertex   -1.600000e+002 6.599978e+000 4.641999e+002
      vertex   -1.350000e+002 6.599977e+000 4.642000e+002
      vertex   -1.600000e+002 3.572003e+001 5.066000e+002
    endloop
  endfacet
  facet normal -2.710703e-006 -8.243146e-001 5.661320e-001
    outer loop
      vertex   -1.600000e+002 3.572003e+001 5.066000e+002
      vertex   -1.350000e+002 6.599977e+000 4.642000e+002
      vertex   -1.350000e+002 3.571996e+001 5.066000e+002
    endloop
  endfacet
  facet normal 4.243866e-009 9.961962e-001 -8.713838e-002
    outer loop
      vertex   -1.600000e+002 1.939700e+002 3.957999e+002
      vertex   -1.600000e+002 1.984800e+002 4.473600e+002
      vertex   -1.350000e+002 1.939700e+002 3.958000e+002
    endloop
  endfacet
  facet normal -4.909237e-012 9.961962e-001 -8.713839e-002
    outer loop
      vertex   -1.350000e+002 1.939700e+002 3.958000e+002
      vertex   -1.600000e+002 1.984800e+002 4.473600e+002
      vertex   -7.000000e+001 1.984800e+002 4.473600e+002
    endloop
  endfacet
  facet normal -1.627173e-009 9.961962e-001 -8.713838e-002
    outer loop
      vertex   -7.000000e+001 1.939700e+002 3.958001e+002
      vertex   -1.350000e+002 1.939700e+002 3.958000e+002
      vertex   -7.000000e+001 1.984800e+002 4.473600e+002
    endloop
  endfacet
  facet normal 4.402498e-007 9.063014e-001 4.226319e-001
    outer loop
      vertex   -7.000000e+001 1.766000e+002 4.942801e+002
      vertex   -7.000000e+001 1.984800e+002 4.473600e+002
      vertex   -1.350000e+002 1.766000e+002 4.942800e+002
    endloop
  endfacet
  facet normal 4.909065e-012 9.063017e-001 4.226314e-001
    outer loop
      vertex   -1.350000e+002 1.766000e+002 4.942800e+002
      vertex   -7.000000e+001 1.984800e+002 4.473600e+002
      vertex   -1.600000e+002 1.984800e+002 4.473600e+002
    endloop
  endfacet
  facet normal -1.096309e-006 9.063015e-001 4.226318e-001
    outer loop
      vertex   -1.600000e+002 1.766000e+002 4.942800e+002
      vertex   -1.350000e+002 1.766000e+002 4.942800e+002
      vertex   -1.600000e+002 1.984800e+002 4.473600e+002
    endloop
  endfacet
  facet normal -8.331907e-008 5.661328e-001 8.243141e-001
    outer loop
      vertex   -1.350000e+002 1.766000e+002 4.942800e+002
      vertex   -1.350000e+002 1.342000e+002 5.234000e+002
      vertex   -7.000000e+001 1.766000e+002 4.942801e+002
    endloop
  endfacet
  facet normal 1.129285e-008 5.661327e-001 8.243141e-001
    outer loop
      vertex   -7.000000e+001 1.766000e+002 4.942801e+002
      vertex   -1.350000e+002 1.342000e+002 5.234000e+002
      vertex   -7.000000e+001 1.342000e+002 5.234000e+002
    endloop
  endfacet
  facet normal 4.891415e-008 9.805057e-002 9.951814e-001
    outer loop
      vertex   -1.350000e+002 1.342000e+002 5.234000e+002
      vertex   -1.350000e+002 8.263996e+001 5.284800e+002
      vertex   -7.000000e+001 1.342000e+002 5.234000e+002
    endloop
  endfacet
  facet normal 1.967913e-007 9.805039e-002 9.951815e-001
    outer loop
      vertex   -7.000000e+001 1.342000e+002 5.234000e+002
      vertex   -1.350000e+002 8.263996e+001 5.284800e+002
      vertex   -7.000000e+001 8.263989e+001 5.284800e+002
    endloop
  endfacet
  facet normal -5.405016e-008 -4.226314e-001 9.063017e-001
    outer loop
      vertex   -1.350000e+002 3.571996e+001 5.066000e+002
      vertex   -7.000000e+001 3.572004e+001 5.066001e+002
      vertex   -1.350000e+002 8.263996e+001 5.284800e+002
    endloop
  endfacet
  facet normal -3.695458e-007 -4.226317e-001 9.063015e-001
    outer loop
      vertex   -1.350000e+002 8.263996e+001 5.284800e+002
      vertex   -7.000000e+001 3.572004e+001 5.066001e+002
      vertex   -7.000000e+001 8.263989e+001 5.284800e+002
    endloop
  endfacet
  facet normal -1.000000e+000 4.457506e-006 -9.545672e-006
    outer loop
      vertex   1.600000e+002 3.704808e+001 5.072193e+002
      vertex   1.600000e+002 4.086716e+001 5.106430e+002
      vertex   1.600000e+002 8.130821e+001 5.278589e+002
    endloop
  endfacet
  facet normal -1.000000e+000 -5.074779e-008 1.044479e-006
    outer loop
      vertex   1.600000e+002 8.130821e+001 5.278589e+002
      vertex   1.600000e+002 4.086716e+001 5.106430e+002
      vertex   1.600000e+002 5.773618e+001 5.206297e+002
    endloop
  endfacet
  facet normal -1.000000e+000 6.480811e-006 -2.025280e-005
    outer loop
      vertex   1.600000e+002 7.622931e+001 5.271336e+002
      vertex   1.600000e+002 8.130821e+001 5.278589e+002
      vertex   1.600000e+002 5.773618e+001 5.206297e+002
    endloop
  endfacet
  facet normal 1.000000e+000 3.544331e-008 3.597929e-007
    outer loop
      vertex   1.600000e+002 8.442582e+001 5.283040e+002
      vertex   1.600000e+002 8.263989e+001 5.284799e+002
      vertex   1.600000e+002 8.130821e+001 5.278589e+002
    endloop
  endfacet
  facet normal -1.000000e+000 -5.431660e-007 -5.551891e-006
    outer loop
      vertex   1.600000e+002 8.442582e+001 5.283040e+002
      vertex   1.600000e+002 9.563577e+001 5.299046e+002
      vertex   1.600000e+002 1.342000e+002 5.234000e+002
    endloop
  endfacet
  facet normal -1.000000e+000 -7.917429e-008 -2.801029e-006
    outer loop
      vertex   1.600000e+002 1.342000e+002 5.234000e+002
      vertex   1.600000e+002 9.563577e+001 5.299046e+002
      vertex   1.600000e+002 1.152101e+002 5.288364e+002
    endloop
  endfacet
  facet normal -1.000000e+000 -6.726642e-006 -2.602129e-005
    outer loop
      vertex   1.600000e+002 1.342000e+002 5.239700e+002
      vertex   1.600000e+002 1.342000e+002 5.234000e+002
      vertex   1.600000e+002 1.152101e+002 5.288364e+002
    endloop
  endfacet
  facet normal -1.000000e+000 -1.223507e-005 -2.602156e-005
    outer loop
      vertex   1.600000e+002 1.342000e+002 5.239700e+002
      vertex   1.600000e+002 1.518753e+002 5.154923e+002
      vertex   1.600000e+002 1.342000e+002 5.234000e+002
    endloop
  endfacet
  facet normal -1.000000e+000 -1.010196e-006 -9.315330e-007
    outer loop
      vertex   1.600000e+002 1.342000e+002 5.234000e+002
      vertex   1.600000e+002 1.518753e+002 5.154923e+002
      vertex   1.600000e+002 1.675573e+002 5.037292e+002
    endloop
  endfacet
  facet normal -1.000000e+000 -3.212346e-006 -4.665889e-006
    outer loop
      vertex   1.600000e+002 1.751129e+002 4.953013e+002
      vertex   1.600000e+002 1.342000e+002 5.234000e+002
      vertex   1.600000e+002 1.675573e+002 5.037292e+002
    endloop
  endfacet
  facet normal 1.000000e+000 -2.390138e-007 -2.205821e-007
    outer loop
      vertex   1.600000e+002 1.772196e+002 4.929514e+002
      vertex   1.600000e+002 1.766000e+002 4.942800e+002
      vertex   1.600000e+002 1.751129e+002 4.953013e+002
    endloop
  endfacet
  facet normal -1.000000e+000 -5.945542e-006 -2.942358e-006
    outer loop
      vertex   1.600000e+002 1.806430e+002 4.891327e+002
      vertex   1.600000e+002 1.906297e+002 4.722638e+002
      vertex   1.600000e+002 1.772196e+002 4.929514e+002
    endloop
  endfacet
  facet normal -1.000000e+000 -4.984124e-006 -2.319147e-006
    outer loop
      vertex   1.600000e+002 1.772196e+002 4.929514e+002
      vertex   1.600000e+002 1.906297e+002 4.722638e+002
      vertex   1.600000e+002 1.978589e+002 4.486920e+002
    endloop
  endfacet
  facet normal -1.000000e+000 -1.418938e-005 -5.142273e-006
    outer loop
      vertex   1.600000e+002 1.978589e+002 4.486920e+002
      vertex   1.600000e+002 1.906297e+002 4.722638e+002
      vertex   1.600000e+002 1.971336e+002 4.537707e+002
    endloop
  endfacet
  facet normal 1.000000e+000 -8.704988e-007 -1.284053e-007
    outer loop
      vertex   1.600000e+002 1.983163e+002 4.454885e+002
      vertex   1.600000e+002 1.984800e+002 4.473599e+002
      vertex   1.600000e+002 1.978589e+002 4.486920e+002
    endloop
  endfacet
  facet normal -1.000000e+000 -7.197385e-006 4.182853e-007
    outer loop
      vertex   1.600000e+002 1.983163e+002 4.454885e+002
      vertex   1.600000e+002 1.999047e+002 4.343641e+002
      vertex   1.600000e+002 1.939699e+002 3.957999e+002
    endloop
  endfacet
  facet normal -1.000000e+000 1.683217e-005 -3.279695e-006
    outer loop
      vertex   1.600000e+002 1.939699e+002 3.957999e+002
      vertex   1.600000e+002 1.999047e+002 4.343641e+002
      vertex   1.600000e+002 1.988365e+002 4.147898e+002
    endloop
  endfacet
  facet normal 3.972063e-001 8.890002e-001 -2.278284e-001
    outer loop
      vertex   1.600000e+002 1.988365e+002 4.147898e+002
      vertex   1.830000e+002 1.889499e+002 4.163106e+002
      vertex   1.600000e+002 1.939699e+002 3.957999e+002
    endloop
  endfacet
  facet normal 3.972067e-001 8.889999e-001 -2.278290e-001
    outer loop
      vertex   1.600000e+002 1.939699e+002 3.957999e+002
      vertex   1.830000e+002 1.889499e+002 4.163106e+002
      vertex   1.829999e+002 1.845700e+002 3.992202e+002
    endloop
  endfacet
  facet normal 1.000000e+000 -5.229689e-007 -2.737982e-006
    outer loop
      vertex   1.830000e+002 1.889499e+002 4.163106e+002
      vertex   1.830000e+002 1.899115e+002 4.339269e+002
      vertex   1.830000e+002 1.593986e+001 4.607796e+002
    endloop
  endfacet
  facet normal 1.000000e+000 -3.119703e-007 -1.917075e-006
    outer loop
      vertex   1.829999e+002 1.845700e+002 3.992202e+002
      vertex   1.830000e+002 1.889499e+002 4.163106e+002
      vertex   1.830000e+002 1.593986e+001 4.607796e+002
    endloop
  endfacet
  facet normal 1.000000e+000 -9.997787e-008 2.467347e-009
    outer loop
      vertex   1.830000e+002 1.899115e+002 4.339269e+002
      vertex   1.830000e+002 1.874178e+002 4.513923e+002
      vertex   1.830000e+002 1.593986e+001 4.607796e+002
    endloop
  endfacet
  facet normal 1.000000e+000 -1.119758e-007 -2.167001e-007
    outer loop
      vertex   1.830000e+002 1.593986e+001 4.607796e+002
      vertex   1.830000e+002 1.874178e+002 4.513923e+002
      vertex   1.830000e+002 1.815647e+002 4.680356e+002
    endloop
  endfacet
  facet normal 1.000000e+000 -1.558684e-007 7.851791e-007
    outer loop
      vertex   1.830000e+002 1.725771e+002 4.832173e+002
      vertex   1.830000e+002 1.593986e+001 4.607796e+002
      vertex   1.830000e+002 1.815647e+002 4.680356e+002
    endloop
  endfacet
  facet normal 1.000000e+000 4.915310e-008 -6.460709e-007
    outer loop
      vertex   1.830000e+002 1.725771e+002 4.832173e+002
      vertex   1.830000e+002 1.608003e+002 4.963538e+002
      vertex   1.830000e+002 1.593986e+001 4.607796e+002
    endloop
  endfacet
  facet normal 1.000000e+000 -2.128657e-007 4.208856e-007
    outer loop
      vertex   1.830000e+002 1.593986e+001 4.607796e+002
      vertex   1.830000e+002 1.608003e+002 4.963538e+002
      vertex   1.830000e+002 1.466871e+002 5.069404e+002
    endloop
  endfacet
  facet normal 1.000000e+000 1.462316e-007 -5.962327e-007
    outer loop
      vertex   1.830000e+002 1.307797e+002 5.145702e+002
      vertex   1.830000e+002 1.593986e+001 4.607796e+002
      vertex   1.830000e+002 1.466871e+002 5.069404e+002
    endloop
  endfacet
  facet normal 1.000000e+000 -8.415313e-008 -1.043750e-007
    outer loop
      vertex   1.830000e+002 1.307797e+002 5.145702e+002
      vertex   1.830000e+002 1.136894e+002 5.189500e+002
      vertex   1.830000e+002 1.593986e+001 4.607796e+002
    endloop
  endfacet
  facet normal 1.000000e+000 -1.302538e-007 -2.690751e-008
    outer loop
      vertex   1.830000e+002 1.593986e+001 4.607796e+002
      vertex   1.830000e+002 1.136894e+002 5.189500e+002
      vertex   1.830000e+002 9.607317e+001 5.199115e+002
    endloop
  endfacet
  facet normal 1.000000e+000 1.989772e-007 -4.730682e-007
    outer loop
      vertex   1.830000e+002 7.860773e+001 5.174178e+002
      vertex   1.830000e+002 1.593986e+001 4.607796e+002
      vertex   1.830000e+002 9.607317e+001 5.199115e+002
    endloop
  endfacet
  facet normal 1.000000e+000 -7.411940e-007 5.671918e-007
    outer loop
      vertex   1.830000e+002 7.860773e+001 5.174178e+002
      vertex   1.830000e+002 6.196447e+001 5.115646e+002
      vertex   1.830000e+002 1.593986e+001 4.607796e+002
    endloop
  endfacet
  facet normal 1.000000e+000 2.171388e-006 -2.072373e-006
    outer loop
      vertex   1.830000e+002 1.593986e+001 4.607796e+002
      vertex   1.830000e+002 6.196447e+001 5.115646e+002
      vertex   1.830000e+002 4.678279e+001 5.025770e+002
    endloop
  endfacet
  facet normal 1.000000e+000 2.231751e-006 -2.116915e-006
    outer loop
      vertex   1.830000e+002 3.364623e+001 4.908003e+002
      vertex   1.830000e+002 1.593986e+001 4.607796e+002
      vertex   1.830000e+002 4.678279e+001 5.025770e+002
    endloop
  endfacet
  facet normal 1.000000e+000 -3.213634e-006 1.094792e-006
    outer loop
      vertex   1.830000e+002 3.364623e+001 4.908003e+002
      vertex   1.830000e+002 2.305962e+001 4.766871e+002
      vertex   1.830000e+002 1.593986e+001 4.607796e+002
    endloop
  endfacet
  facet normal 1.000000e+000 -6.336629e-007 -5.993098e-008
    outer loop
      vertex   1.830000e+002 1.593986e+001 4.607796e+002
      vertex   1.830000e+002 2.305962e+001 4.766871e+002
      vertex   1.830000e+002 1.550581e+001 4.609380e+002
    endloop
  endfacet
  facet normal 3.972004e-001 -8.274744e-001 3.968854e-001
    outer loop
      vertex   1.830000e+002 2.305962e+001 4.766871e+002
      vertex   1.600000e+002 1.450775e+001 4.818754e+002
      vertex   1.830000e+002 1.550581e+001 4.609380e+002
    endloop
  endfacet
  facet normal 3.972002e-001 -8.274746e-001 3.968851e-001
    outer loop
      vertex   1.830000e+002 1.550581e+001 4.609380e+002
      vertex   1.600000e+002 1.450775e+001 4.818754e+002
      vertex   1.600000e+002 6.115054e+000 4.643772e+002
    endloop
  endfacet
  facet normal 3.972015e-001 -7.341441e-001 5.506936e-001
    outer loop
      vertex   1.830000e+002 3.364623e+001 4.908003e+002
      vertex   1.600000e+002 2.627075e+001 4.975573e+002
      vertex   1.830000e+002 2.305962e+001 4.766871e+002
    endloop
  endfacet
  facet normal 3.971955e-001 -7.341515e-001 5.506881e-001
    outer loop
      vertex   1.830000e+002 2.305962e+001 4.766871e+002
      vertex   1.600000e+002 2.627075e+001 4.975573e+002
      vertex   1.600000e+002 1.450775e+001 4.818754e+002
    endloop
  endfacet
  facet normal 3.972045e-001 -6.126027e-001 6.833349e-001
    outer loop
      vertex   1.600000e+002 4.086716e+001 5.106430e+002
      vertex   1.600000e+002 3.704808e+001 5.072193e+002
      vertex   1.830000e+002 4.678279e+001 5.025770e+002
    endloop
  endfacet
  facet normal 3.972049e-001 -6.126046e-001 6.833329e-001
    outer loop
      vertex   1.830000e+002 4.678279e+001 5.025770e+002
      vertex   1.600000e+002 3.704808e+001 5.072193e+002
      vertex   1.600000e+002 3.469907e+001 5.051134e+002
    endloop
  endfacet
  facet normal 3.971959e-001 -6.126162e-001 6.833278e-001
    outer loop
      vertex   1.830000e+002 3.364623e+001 4.908003e+002
      vertex   1.600000e+002 3.469907e+001 5.051134e+002
      vertex   1.600000e+002 2.627075e+001 4.975573e+002
    endloop
  endfacet
  facet normal 3.972031e-001 -6.126000e-001 6.833381e-001
    outer loop
      vertex   1.830000e+002 3.364623e+001 4.908003e+002
      vertex   1.830000e+002 4.678279e+001 5.025770e+002
      vertex   1.600000e+002 3.469907e+001 5.051134e+002
    endloop
  endfacet
  facet normal -2.127665e-006 -4.226317e-001 9.063015e-001
    outer loop
      vertex   -1.600000e+002 3.572003e+001 5.066000e+002
      vertex   -1.350000e+002 3.571996e+001 5.066000e+002
      vertex   -1.600000e+002 8.263989e+001 5.284799e+002
    endloop
  endfacet
  facet normal -1.286810e-006 -4.226314e-001 9.063017e-001
    outer loop
      vertex   -1.600000e+002 8.263989e+001 5.284799e+002
      vertex   -1.350000e+002 3.571996e+001 5.066000e+002
      vertex   -1.350000e+002 8.263996e+001 5.284800e+002
    endloop
  endfacet
  facet normal -2.939901e-006 9.805039e-002 9.951815e-001
    outer loop
      vertex   -1.600000e+002 8.263989e+001 5.284799e+002
      vertex   -1.350000e+002 8.263996e+001 5.284800e+002
      vertex   -1.600000e+002 1.342000e+002 5.234000e+002
    endloop
  endfacet
  facet normal -2.566865e-006 9.805057e-002 9.951814e-001
    outer loop
      vertex   -1.600000e+002 1.342000e+002 5.234000e+002
      vertex   -1.350000e+002 8.263996e+001 5.284800e+002
      vertex   -1.350000e+002 1.342000e+002 5.234000e+002
    endloop
  endfacet
  facet normal -2.152367e-006 5.661327e-001 8.243141e-001
    outer loop
      vertex   -1.600000e+002 1.766000e+002 4.942800e+002
      vertex   -1.600000e+002 1.342000e+002 5.234000e+002
      vertex   -1.350000e+002 1.766000e+002 4.942800e+002
    endloop
  endfacet
  facet normal -2.351006e-006 5.661328e-001 8.243141e-001
    outer loop
      vertex   -1.350000e+002 1.766000e+002 4.942800e+002
      vertex   -1.600000e+002 1.342000e+002 5.234000e+002
      vertex   -1.350000e+002 1.342000e+002 5.234000e+002
    endloop
  endfacet
  facet normal -6.947469e-001 1.861572e-001 -6.947462e-001
    outer loop
      vertex   -1.950000e+002 1.300000e+002 3.780385e+002
      vertex   -1.600000e+002 1.475000e+002 3.477276e+002
      vertex   -1.775000e+002 1.193750e+002 3.576915e+002
    endloop
  endfacet
  facet normal -6.947465e-001 1.861572e-001 -6.947465e-001
    outer loop
      vertex   -1.950000e+002 1.000000e+002 3.700000e+002
      vertex   -1.775000e+002 1.193750e+002 3.576915e+002
      vertex   -1.600000e+002 1.000000e+002 3.350000e+002
    endloop
  endfacet
  facet normal -6.947467e-001 1.861576e-001 -6.947463e-001
    outer loop
      vertex   -1.950000e+002 1.000000e+002 3.700000e+002
      vertex   -1.950000e+002 1.300000e+002 3.780385e+002
      vertex   -1.775000e+002 1.193750e+002 3.576915e+002
    endloop
  endfacet
  facet normal -6.947467e-001 1.861570e-001 -6.947464e-001
    outer loop
      vertex   -1.600000e+002 1.475000e+002 3.477276e+002
      vertex   -1.600000e+002 1.000000e+002 3.350000e+002
      vertex   -1.775000e+002 1.193750e+002 3.576915e+002
    endloop
  endfacet
  facet normal -6.947466e-001 5.085898e-001 -5.085898e-001
    outer loop
      vertex   -1.950000e+002 1.519615e+002 4.000000e+002
      vertex   -1.600000e+002 1.822724e+002 3.825000e+002
      vertex   -1.775000e+002 1.529335e+002 3.770665e+002
    endloop
  endfacet
  facet normal -6.947469e-001 5.085892e-001 -5.085900e-001
    outer loop
      vertex   -1.950000e+002 1.300000e+002 3.780385e+002
      vertex   -1.775000e+002 1.529335e+002 3.770665e+002
      vertex   -1.600000e+002 1.475000e+002 3.477276e+002
    endloop
  endfacet
  facet normal -6.947469e-001 5.085892e-001 -5.085900e-001
    outer loop
      vertex   -1.950000e+002 1.300000e+002 3.780385e+002
      vertex   -1.950000e+002 1.519615e+002 4.000000e+002
      vertex   -1.775000e+002 1.529335e+002 3.770665e+002
    endloop
  endfacet
  facet normal -6.947466e-001 5.085897e-001 -5.085899e-001
    outer loop
      vertex   -1.600000e+002 1.822724e+002 3.825000e+002
      vertex   -1.600000e+002 1.475000e+002 3.477276e+002
      vertex   -1.775000e+002 1.529335e+002 3.770665e+002
    endloop
  endfacet
  facet normal -6.947466e-001 6.947465e-001 -1.861572e-001
    outer loop
      vertex   -1.950000e+002 1.600000e+002 4.300000e+002
      vertex   -1.600000e+002 1.950000e+002 4.300000e+002
      vertex   -1.775000e+002 1.723085e+002 4.106250e+002
    endloop
  endfacet
  facet normal -6.947466e-001 6.947465e-001 -1.861569e-001
    outer loop
      vertex   -1.950000e+002 1.519615e+002 4.000000e+002
      vertex   -1.775000e+002 1.723085e+002 4.106250e+002
      vertex   -1.600000e+002 1.822724e+002 3.825000e+002
    endloop
  endfacet
  facet normal -6.947465e-001 6.947465e-001 -1.861571e-001
    outer loop
      vertex   -1.950000e+002 1.519615e+002 4.000000e+002
      vertex   -1.950000e+002 1.600000e+002 4.300000e+002
      vertex   -1.775000e+002 1.723085e+002 4.106250e+002
    endloop
  endfacet
  facet normal -6.947467e-001 6.947464e-001 -1.861570e-001
    outer loop
      vertex   -1.600000e+002 1.950000e+002 4.300000e+002
      vertex   -1.600000e+002 1.822724e+002 3.825000e+002
      vertex   -1.775000e+002 1.723085e+002 4.106250e+002
    endloop
  endfacet
  facet normal -6.947466e-001 6.947465e-001 1.861571e-001
    outer loop
      vertex   -1.950000e+002 1.519615e+002 4.600000e+002
      vertex   -1.600000e+002 1.822724e+002 4.775000e+002
      vertex   -1.775000e+002 1.723085e+002 4.493750e+002
    endloop
  endfacet
  facet normal -6.947467e-001 6.947465e-001 1.861567e-001
    outer loop
      vertex   -1.950000e+002 1.600000e+002 4.300000e+002
      vertex   -1.775000e+002 1.723085e+002 4.493750e+002
      vertex   -1.600000e+002 1.950000e+002 4.300000e+002
    endloop
  endfacet
  facet normal -6.947467e-001 6.947465e-001 1.861568e-001
    outer loop
      vertex   -1.950000e+002 1.600000e+002 4.300000e+002
      vertex   -1.950000e+002 1.519615e+002 4.600000e+002
      vertex   -1.775000e+002 1.723085e+002 4.493750e+002
    endloop
  endfacet
  facet normal -6.947465e-001 6.947467e-001 1.861570e-001
    outer loop
      vertex   -1.600000e+002 1.822724e+002 4.775000e+002
      vertex   -1.600000e+002 1.950000e+002 4.300000e+002
      vertex   -1.775000e+002 1.723085e+002 4.493750e+002
    endloop
  endfacet
  facet normal -6.947468e-001 5.085896e-001 5.085897e-001
    outer loop
      vertex   -1.950000e+002 1.300000e+002 4.819615e+002
      vertex   -1.600000e+002 1.475000e+002 5.122724e+002
      vertex   -1.775000e+002 1.529335e+002 4.829335e+002
    endloop
  endfacet
  facet normal -6.947465e-001 5.085896e-001 5.085902e-001
    outer loop
      vertex   -1.950000e+002 1.519615e+002 4.600000e+002
      vertex   -1.775000e+002 1.529335e+002 4.829335e+002
      vertex   -1.600000e+002 1.822724e+002 4.775000e+002
    endloop
  endfacet
  facet normal -6.947465e-001 5.085894e-001 5.085903e-001
    outer loop
      vertex   -1.950000e+002 1.519615e+002 4.600000e+002
      vertex   -1.950000e+002 1.300000e+002 4.819615e+002
      vertex   -1.775000e+002 1.529335e+002 4.829335e+002
    endloop
  endfacet
  facet normal -6.947468e-001 5.085897e-001 5.085897e-001
    outer loop
      vertex   -1.600000e+002 1.475000e+002 5.122724e+002
      vertex   -1.600000e+002 1.822724e+002 4.775000e+002
      vertex   -1.775000e+002 1.529335e+002 4.829335e+002
    endloop
  endfacet
  facet normal -6.947466e-001 1.861551e-001 6.947470e-001
    outer loop
      vertex   -1.950000e+002 1.000000e+002 4.900000e+002
      vertex   -1.600000e+002 1.000000e+002 5.249999e+002
      vertex   -1.775000e+002 1.193750e+002 5.023085e+002
    endloop
  endfacet
  facet normal -6.947470e-001 1.861578e-001 6.947459e-001
    outer loop
      vertex   -1.950000e+002 1.300000e+002 4.819615e+002
      vertex   -1.775000e+002 1.193750e+002 5.023085e+002
      vertex   -1.600000e+002 1.475000e+002 5.122724e+002
    endloop
  endfacet
  facet normal -6.947475e-001 1.861567e-001 6.947457e-001
    outer loop
      vertex   -1.950000e+002 1.300000e+002 4.819615e+002
      vertex   -1.950000e+002 1.000000e+002 4.900000e+002
      vertex   -1.775000e+002 1.193750e+002 5.023085e+002
    endloop
  endfacet
  facet normal -6.947458e-001 1.861564e-001 6.947475e-001
    outer loop
      vertex   -1.600000e+002 1.000000e+002 5.249999e+002
      vertex   -1.600000e+002 1.475000e+002 5.122724e+002
      vertex   -1.775000e+002 1.193750e+002 5.023085e+002
    endloop
  endfacet
  facet normal -6.947468e-001 -1.861564e-001 6.947465e-001
    outer loop
      vertex   -1.950000e+002 7.000000e+001 4.819615e+002
      vertex   -1.600000e+002 5.250001e+001 5.122724e+002
      vertex   -1.775000e+002 8.062500e+001 5.023084e+002
    endloop
  endfacet
  facet normal -6.947464e-001 -1.861566e-001 6.947468e-001
    outer loop
      vertex   -1.950000e+002 1.000000e+002 4.900000e+002
      vertex   -1.775000e+002 8.062500e+001 5.023084e+002
      vertex   -1.600000e+002 1.000000e+002 5.249999e+002
    endloop
  endfacet
  facet normal -6.947466e-001 -1.861569e-001 6.947466e-001
    outer loop
      vertex   -1.950000e+002 1.000000e+002 4.900000e+002
      vertex   -1.950000e+002 7.000000e+001 4.819615e+002
      vertex   -1.775000e+002 8.062500e+001 5.023084e+002
    endloop
  endfacet
  facet normal -6.947466e-001 -1.861563e-001 6.947467e-001
    outer loop
      vertex   -1.600000e+002 5.250001e+001 5.122724e+002
      vertex   -1.600000e+002 1.000000e+002 5.249999e+002
      vertex   -1.775000e+002 8.062500e+001 5.023084e+002
    endloop
  endfacet
  facet normal -6.947466e-001 -5.085896e-001 5.085900e-001
    outer loop
      vertex   -1.950000e+002 4.803848e+001 4.600000e+002
      vertex   -1.600000e+002 1.772759e+001 4.775000e+002
      vertex   -1.775000e+002 4.706652e+001 4.829335e+002
    endloop
  endfacet
  facet normal -6.947468e-001 -5.085894e-001 5.085900e-001
    outer loop
      vertex   -1.950000e+002 7.000000e+001 4.819615e+002
      vertex   -1.775000e+002 4.706652e+001 4.829335e+002
      vertex   -1.600000e+002 5.250001e+001 5.122724e+002
    endloop
  endfacet
  facet normal -6.947467e-001 -5.085893e-001 5.085901e-001
    outer loop
      vertex   -1.950000e+002 7.000000e+001 4.819615e+002
      vertex   -1.950000e+002 4.803848e+001 4.600000e+002
      vertex   -1.775000e+002 4.706652e+001 4.829335e+002
    endloop
  endfacet
  facet normal -6.947466e-001 -5.085896e-001 5.085900e-001
    outer loop
      vertex   -1.600000e+002 1.772759e+001 4.775000e+002
      vertex   -1.600000e+002 5.250001e+001 5.122724e+002
      vertex   -1.775000e+002 4.706652e+001 4.829335e+002
    endloop
  endfacet
  facet normal -6.947466e-001 -6.947466e-001 1.861568e-001
    outer loop
      vertex   -1.600000e+002 1.772759e+001 4.775000e+002
      vertex   -1.950000e+002 4.803848e+001 4.600000e+002
      vertex   -1.600000e+002 5.000000e+000 4.300000e+002
    endloop
  endfacet
  facet normal -6.947466e-001 -6.947466e-001 1.861568e-001
    outer loop
      vertex   -1.600000e+002 5.000000e+000 4.300000e+002
      vertex   -1.950000e+002 4.803848e+001 4.600000e+002
      vertex   -1.950000e+002 4.000000e+001 4.300000e+002
    endloop
  endfacet
  facet normal -6.947466e-001 -6.947466e-001 -1.861568e-001
    outer loop
      vertex   -1.600000e+002 1.772759e+001 3.825000e+002
      vertex   -1.600000e+002 5.000000e+000 4.300000e+002
      vertex   -1.950000e+002 4.803847e+001 4.000000e+002
    endloop
  endfacet
  facet normal -6.947466e-001 -6.947466e-001 -1.861567e-001
    outer loop
      vertex   -1.950000e+002 4.803847e+001 4.000000e+002
      vertex   -1.600000e+002 5.000000e+000 4.300000e+002
      vertex   -1.950000e+002 4.000000e+001 4.300000e+002
    endloop
  endfacet
  facet normal -6.947468e-001 -5.085893e-001 -5.085900e-001
    outer loop
      vertex   -1.950000e+002 7.000000e+001 3.780385e+002
      vertex   -1.600000e+002 5.250001e+001 3.477276e+002
      vertex   -1.775000e+002 4.706651e+001 3.770665e+002
    endloop
  endfacet
  facet normal -6.947465e-001 -5.085896e-001 -5.085901e-001
    outer loop
      vertex   -1.950000e+002 4.803847e+001 4.000000e+002
      vertex   -1.775000e+002 4.706651e+001 3.770665e+002
      vertex   -1.600000e+002 1.772759e+001 3.825000e+002
    endloop
  endfacet
  facet normal -6.947467e-001 -5.085893e-001 -5.085902e-001
    outer loop
      vertex   -1.950000e+002 4.803847e+001 4.000000e+002
      vertex   -1.950000e+002 7.000000e+001 3.780385e+002
      vertex   -1.775000e+002 4.706651e+001 3.770665e+002
    endloop
  endfacet
  facet normal -6.947466e-001 -5.085896e-001 -5.085900e-001
    outer loop
      vertex   -1.600000e+002 5.250001e+001 3.477276e+002
      vertex   -1.600000e+002 1.772759e+001 3.825000e+002
      vertex   -1.775000e+002 4.706651e+001 3.770665e+002
    endloop
  endfacet
  facet normal -6.947465e-001 -1.861572e-001 -6.947465e-001
    outer loop
      vertex   -1.950000e+002 1.000000e+002 3.700000e+002
      vertex   -1.600000e+002 1.000000e+002 3.350000e+002
      vertex   -1.775000e+002 8.062500e+001 3.576915e+002
    endloop
  endfacet
  facet normal -6.947469e-001 -1.861572e-001 -6.947462e-001
    outer loop
      vertex   -1.950000e+002 7.000000e+001 3.780385e+002
      vertex   -1.775000e+002 8.062500e+001 3.576915e+002
      vertex   -1.600000e+002 5.250001e+001 3.477276e+002
    endloop
  endfacet
  facet normal -6.947467e-001 -1.861576e-001 -6.947463e-001
    outer loop
      vertex   -1.950000e+002 7.000000e+001 3.780385e+002
      vertex   -1.950000e+002 1.000000e+002 3.700000e+002
      vertex   -1.775000e+002 8.062500e+001 3.576915e+002
    endloop
  endfacet
  facet normal -6.947467e-001 -1.861570e-001 -6.947464e-001
    outer loop
      vertex   -1.600000e+002 1.000000e+002 3.350000e+002
      vertex   -1.600000e+002 5.250001e+001 3.477276e+002
      vertex   -1.775000e+002 8.062500e+001 3.576915e+002
    endloop
  endfacet
  facet normal 3.972033e-001 -4.675160e-001 7.897204e-001
    outer loop
      vertex   1.830000e+002 6.196447e+001 5.115646e+002
      vertex   1.600000e+002 5.773618e+001 5.206297e+002
      vertex   1.830000e+002 4.678279e+001 5.025770e+002
    endloop
  endfacet
  facet normal 3.971983e-001 -4.675233e-001 7.897186e-001
    outer loop
      vertex   1.830000e+002 4.678279e+001 5.025770e+002
      vertex   1.600000e+002 5.773618e+001 5.206297e+002
      vertex   1.600000e+002 4.086716e+001 5.106430e+002
    endloop
  endfacet
  facet normal 3.972016e-001 -3.044729e-001 8.657524e-001
    outer loop
      vertex   1.830000e+002 7.860773e+001 5.174178e+002
      vertex   1.600000e+002 7.622931e+001 5.271336e+002
      vertex   1.830000e+002 6.196447e+001 5.115646e+002
    endloop
  endfacet
  facet normal 3.971975e-001 -3.044792e-001 8.657521e-001
    outer loop
      vertex   1.830000e+002 6.196447e+001 5.115646e+002
      vertex   1.600000e+002 7.622931e+001 5.271336e+002
      vertex   1.600000e+002 5.773618e+001 5.206297e+002
    endloop
  endfacet
  facet normal 3.972019e-001 -1.297246e-001 9.085165e-001
    outer loop
      vertex   1.600000e+002 9.563577e+001 5.299046e+002
      vertex   1.600000e+002 8.442582e+001 5.283040e+002
      vertex   1.830000e+002 9.607317e+001 5.199115e+002
    endloop
  endfacet
  facet normal 3.971992e-001 -1.297178e-001 9.085186e-001
    outer loop
      vertex   1.830000e+002 9.607317e+001 5.199115e+002
      vertex   1.600000e+002 8.442582e+001 5.283040e+002
      vertex   1.830000e+002 7.860773e+001 5.174178e+002
    endloop
  endfacet
  facet normal 3.972020e-001 -1.297073e-001 9.085189e-001
    outer loop
      vertex   1.830000e+002 7.860773e+001 5.174178e+002
      vertex   1.600000e+002 8.442582e+001 5.283040e+002
      vertex   1.600000e+002 8.130821e+001 5.278589e+002
    endloop
  endfacet
  facet normal 3.971971e-001 -1.297392e-001 9.085165e-001
    outer loop
      vertex   1.600000e+002 7.622931e+001 5.271336e+002
      vertex   1.830000e+002 7.860773e+001 5.174178e+002
      vertex   1.600000e+002 8.130821e+001 5.278589e+002
    endloop
  endfacet
  facet normal 3.972005e-001 5.001159e-002 9.163682e-001
    outer loop
      vertex   1.600000e+002 1.152101e+002 5.288364e+002
      vertex   1.600000e+002 9.563577e+001 5.299046e+002
      vertex   1.830000e+002 1.136894e+002 5.189500e+002
    endloop
  endfacet
  facet normal 3.971958e-001 5.001851e-002 9.163698e-001
    outer loop
      vertex   1.830000e+002 1.136894e+002 5.189500e+002
      vertex   1.600000e+002 9.563577e+001 5.299046e+002
      vertex   1.830000e+002 9.607317e+001 5.199115e+002
    endloop
  endfacet
  facet normal 3.972014e-001 2.278187e-001 8.890049e-001
    outer loop
      vertex   1.600000e+002 1.342000e+002 5.239700e+002
      vertex   1.600000e+002 1.152101e+002 5.288364e+002
      vertex   1.830000e+002 1.307797e+002 5.145702e+002
    endloop
  endfacet
  facet normal 3.971957e-001 2.278275e-001 8.890052e-001
    outer loop
      vertex   1.830000e+002 1.307797e+002 5.145702e+002
      vertex   1.600000e+002 1.152101e+002 5.288364e+002
      vertex   1.830000e+002 1.136894e+002 5.189500e+002
    endloop
  endfacet
  facet normal 3.972010e-001 3.968834e-001 8.274751e-001
    outer loop
      vertex   1.600000e+002 1.518753e+002 5.154923e+002
      vertex   1.600000e+002 1.342000e+002 5.239700e+002
      vertex   1.830000e+002 1.466871e+002 5.069404e+002
    endloop
  endfacet
  facet normal 3.971967e-001 3.968899e-001 8.274740e-001
    outer loop
      vertex   1.830000e+002 1.466871e+002 5.069404e+002
      vertex   1.600000e+002 1.342000e+002 5.239700e+002
      vertex   1.830000e+002 1.307797e+002 5.145702e+002
    endloop
  endfacet
  facet normal 3.971997e-001 5.506899e-001 7.341478e-001
    outer loop
      vertex   1.600000e+002 1.675573e+002 5.037292e+002
      vertex   1.600000e+002 1.518753e+002 5.154923e+002
      vertex   1.830000e+002 1.608003e+002 4.963538e+002
    endloop
  endfacet
  facet normal 3.971949e-001 5.506968e-001 7.341452e-001
    outer loop
      vertex   1.830000e+002 1.608003e+002 4.963538e+002
      vertex   1.600000e+002 1.518753e+002 5.154923e+002
      vertex   1.830000e+002 1.466871e+002 5.069404e+002
    endloop
  endfacet
  facet normal 3.971986e-001 6.833299e-001 6.126120e-001
    outer loop
      vertex   1.600000e+002 1.806430e+002 4.891327e+002
      vertex   1.600000e+002 1.772196e+002 4.929514e+002
      vertex   1.830000e+002 1.725771e+002 4.832173e+002
    endloop
  endfacet
  facet normal 3.971965e-001 6.833398e-001 6.126024e-001
    outer loop
      vertex   1.830000e+002 1.725771e+002 4.832173e+002
      vertex   1.600000e+002 1.772196e+002 4.929514e+002
      vertex   1.600000e+002 1.751129e+002 4.953013e+002
    endloop
  endfacet
  facet normal 3.971948e-001 6.833322e-001 6.126120e-001
    outer loop
      vertex   1.830000e+002 1.608003e+002 4.963538e+002
      vertex   1.600000e+002 1.751129e+002 4.953013e+002
      vertex   1.600000e+002 1.675573e+002 5.037292e+002
    endloop
  endfacet
  facet normal 3.971977e-001 6.833364e-001 6.126054e-001
    outer loop
      vertex   1.830000e+002 1.608003e+002 4.963538e+002
      vertex   1.830000e+002 1.725771e+002 4.832173e+002
      vertex   1.600000e+002 1.751129e+002 4.953013e+002
    endloop
  endfacet
  facet normal 3.971986e-001 7.897175e-001 4.675248e-001
    outer loop
      vertex   1.600000e+002 1.906297e+002 4.722638e+002
      vertex   1.600000e+002 1.806430e+002 4.891327e+002
      vertex   1.830000e+002 1.815647e+002 4.680356e+002
    endloop
  endfacet
  facet normal 3.971934e-001 7.897234e-001 4.675194e-001
    outer loop
      vertex   1.830000e+002 1.815647e+002 4.680356e+002
      vertex   1.600000e+002 1.806430e+002 4.891327e+002
      vertex   1.830000e+002 1.725771e+002 4.832173e+002
    endloop
  endfacet
  facet normal 3.972007e-001 8.657540e-001 3.044692e-001
    outer loop
      vertex   1.830000e+002 1.874178e+002 4.513923e+002
      vertex   1.600000e+002 1.971336e+002 4.537707e+002
      vertex   1.830000e+002 1.815647e+002 4.680356e+002
    endloop
  endfacet
  facet normal 3.971936e-001 8.657535e-001 3.044801e-001
    outer loop
      vertex   1.830000e+002 1.815647e+002 4.680356e+002
      vertex   1.600000e+002 1.971336e+002 4.537707e+002
      vertex   1.600000e+002 1.906297e+002 4.722638e+002
    endloop
  endfacet
  facet normal 3.972027e-001 9.085167e-001 1.297204e-001
    outer loop
      vertex   1.600000e+002 1.999047e+002 4.343641e+002
      vertex   1.600000e+002 1.983163e+002 4.454885e+002
      vertex   1.830000e+002 1.899115e+002 4.339269e+002
    endloop
  endfacet
  facet normal 3.972010e-001 9.085180e-001 1.297162e-001
    outer loop
      vertex   1.830000e+002 1.899115e+002 4.339269e+002
      vertex   1.600000e+002 1.983163e+002 4.454885e+002
      vertex   1.830000e+002 1.874178e+002 4.513923e+002
    endloop
  endfacet
  facet normal 3.971975e-001 9.085177e-001 1.297296e-001
    outer loop
      vertex   1.830000e+002 1.874178e+002 4.513923e+002
      vertex   1.600000e+002 1.983163e+002 4.454885e+002
      vertex   1.600000e+002 1.978589e+002 4.486920e+002
    endloop
  endfacet
  facet normal 3.971963e-001 9.085171e-001 1.297369e-001
    outer loop
      vertex   1.600000e+002 1.971336e+002 4.537707e+002
      vertex   1.830000e+002 1.874178e+002 4.513923e+002
      vertex   1.600000e+002 1.978589e+002 4.486920e+002
    endloop
  endfacet
  facet normal 3.972115e-001 9.163627e-001 -5.002340e-002
    outer loop
      vertex   1.830000e+002 1.889499e+002 4.163106e+002
      vertex   1.600000e+002 1.988365e+002 4.147898e+002
      vertex   1.830000e+002 1.899115e+002 4.339269e+002
    endloop
  endfacet
  facet normal 3.971978e-001 9.163697e-001 -5.000371e-002
    outer loop
      vertex   1.830000e+002 1.899115e+002 4.339269e+002
      vertex   1.600000e+002 1.988365e+002 4.147898e+002
      vertex   1.600000e+002 1.999047e+002 4.343641e+002
    endloop
  endfacet
  facet normal -1.000000e+000 -1.996651e-008 1.291277e-009
    outer loop
      vertex   -1.950000e+002 4.803847e+001 4.000000e+002
      vertex   -1.950000e+002 4.000000e+001 4.300000e+002
      vertex   -1.950000e+002 7.000000e+001 3.780385e+002
    endloop
  endfacet
  facet normal -1.000000e+000 4.040145e-009 1.515153e-008
    outer loop
      vertex   -1.950000e+002 7.000000e+001 3.780385e+002
      vertex   -1.950000e+002 4.000000e+001 4.300000e+002
      vertex   -1.950000e+002 1.000000e+002 3.700000e+002
    endloop
  endfacet
  facet normal -1.000000e+000 4.492356e-007 4.603470e-007
    outer loop
      vertex   -1.950000e+002 1.000000e+002 3.700000e+002
      vertex   -1.950000e+002 4.000000e+001 4.300000e+002
      vertex   -1.950000e+002 1.300000e+002 3.780385e+002
    endloop
  endfacet
  facet normal -1.000000e+000 -2.190857e-008 -3.556988e-007
    outer loop
      vertex   -1.950000e+002 1.300000e+002 3.780385e+002
      vertex   -1.950000e+002 4.000000e+001 4.300000e+002
      vertex   -1.950000e+002 1.519615e+002 4.000000e+002
    endloop
  endfacet
  facet normal -1.000000e+000 -5.555695e-009 -2.946691e-007
    outer loop
      vertex   -1.950000e+002 1.519615e+002 4.000000e+002
      vertex   -1.950000e+002 4.000000e+001 4.300000e+002
      vertex   -1.950000e+002 1.600000e+002 4.300000e+002
    endloop
  endfacet
  facet normal -1.000000e+000 -5.555694e-009 -2.073414e-008
    outer loop
      vertex   -1.950000e+002 1.600000e+002 4.300000e+002
      vertex   -1.950000e+002 4.000000e+001 4.300000e+002
      vertex   -1.950000e+002 4.803848e+001 4.600000e+002
    endloop
  endfacet
  facet normal -1.000000e+000 1.045020e-007 -1.044752e-007
    outer loop
      vertex   -1.950000e+002 1.519615e+002 4.600000e+002
      vertex   -1.950000e+002 4.803848e+001 4.600000e+002
      vertex   -1.950000e+002 7.000000e+001 4.819615e+002
    endloop
  endfacet
  facet normal -1.000000e+000 5.486919e-007 -1.195931e-007
    outer loop
      vertex   -1.950000e+002 1.300000e+002 4.819615e+002
      vertex   -1.950000e+002 7.000000e+001 4.819615e+002
      vertex   -1.950000e+002 1.000000e+002 4.900000e+002
    endloop
  endfacet
  facet normal -1.000000e+000 5.486911e-007 1.553265e-006
    outer loop
      vertex   -1.950000e+002 1.300000e+002 4.819615e+002
      vertex   -1.950000e+002 1.519615e+002 4.600000e+002
      vertex   -1.950000e+002 7.000000e+001 4.819615e+002
    endloop
  endfacet
  facet normal -1.000000e+000 1.045019e-007 3.900066e-007
    outer loop
      vertex   -1.950000e+002 1.600000e+002 4.300000e+002
      vertex   -1.950000e+002 4.803848e+001 4.600000e+002
      vertex   -1.950000e+002 1.519615e+002 4.600000e+002
    endloop
  endfacet
  facet normal 0.000000e+000 -0.000000e+000 -1.000000e+000
    outer loop
      vertex   -1.350000e+002 1.150000e+002 2.150000e+002
      vertex   -1.150000e+002 1.350000e+002 2.150000e+002
      vertex   -1.350000e+002 -1.050000e+002 2.150000e+002
    endloop
  endfacet
  facet normal 0.000000e+000 0.000000e+000 -1.000000e+000
    outer loop
      vertex   -1.350000e+002 -1.050000e+002 2.150000e+002
      vertex   -1.150000e+002 1.350000e+002 2.150000e+002
      vertex   1.150000e+002 1.350000e+002 2.150000e+002
    endloop
  endfacet
  facet normal 0.000000e+000 0.000000e+000 -1.000000e+000
    outer loop
      vertex   1.350000e+002 -1.050000e+002 2.150000e+002
      vertex   1.150000e+002 1.350000e+002 2.150000e+002
      vertex   1.350000e+002 1.150000e+002 2.150000e+002
    endloop
  endfacet
  facet normal 0.000000e+000 0.000000e+000 -1.000000e+000
    outer loop
      vertex   1.350000e+002 -1.050000e+002 2.150000e+002
      vertex   -1.350000e+002 -1.050000e+002 2.150000e+002
      vertex   1.150000e+002 1.350000e+002 2.150000e+002
    endloop
  endfacet
  facet normal -0.000000e+000 0.000000e+000 -1.000000e+000
    outer loop
      vertex   1.350000e+002 -1.050000e+002 2.150000e+002
      vertex   -1.050000e+002 -1.350000e+002 2.150000e+002
      vertex   -1.350000e+002 -1.050000e+002 2.150000e+002
    endloop
  endfacet
  facet normal 0.000000e+000 0.000000e+000 -1.000000e+000
    outer loop
      vertex   1.350000e+002 -1.050000e+002 2.150000e+002
      vertex   1.050000e+002 -1.350000e+002 2.150000e+002
      vertex   -1.050000e+002 -1.350000e+002 2.150000e+002
    endloop
  endfacet
  facet normal 1.000000e+000 0.000000e+000 -0.000000e+000
    outer loop
      vertex   1.000000e+002 -1.100000e+002 2.550000e+002
      vertex   1.000000e+002 -8.000000e+001 2.550000e+002
      vertex   1.000000e+002 -1.100000e+002 2.649999e+002
    endloop
  endfacet
  facet normal 1.000000e+000 -0.000000e+000 -0.000000e+000
    outer loop
      vertex   1.000000e+002 -1.100000e+002 2.649999e+002
      vertex   1.000000e+002 -8.000000e+001 2.550000e+002
      vertex   1.000000e+002 -8.000000e+001 2.820000e+002
    endloop
  endfacet
  facet normal 1.000000e+000 -0.000000e+000 0.000000e+000
    outer loop
      vertex   1.000000e+002 -1.300000e+002 2.699999e+002
      vertex   1.000000e+002 -1.100000e+002 2.649999e+002
      vertex   1.000000e+002 -8.000000e+001 2.820000e+002
    endloop
  endfacet
  facet normal 1.000000e+000 -0.000000e+000 0.000000e+000
    outer loop
      vertex   1.000000e+002 -1.300000e+002 2.699999e+002
      vertex   1.000000e+002 -1.300000e+002 2.649999e+002
      vertex   1.000000e+002 -1.100000e+002 2.649999e+002
    endloop
  endfacet
  facet normal -1.208615e-018 1.000000e+000 1.783203e-012
    outer loop
      vertex   -1.150000e+002 -8.000000e+001 2.819999e+002
      vertex   -7.000000e+001 -8.000000e+001 2.820000e+002
      vertex   -1.150000e+002 -8.000000e+001 2.550000e+002
    endloop
  endfacet
  facet normal 0.000000e+000 1.000000e+000 1.783201e-012
    outer loop
      vertex   -1.150000e+002 -8.000000e+001 2.550000e+002
      vertex   -7.000000e+001 -8.000000e+001 2.820000e+002
      vertex   1.000000e+002 -8.000000e+001 2.550000e+002
    endloop
  endfacet
  facet normal -0.000000e+000 1.000000e+000 1.783201e-012
    outer loop
      vertex   1.000000e+002 -8.000000e+001 2.550000e+002
      vertex   -7.000000e+001 -8.000000e+001 2.820000e+002
      vertex   1.000000e+002 -8.000000e+001 2.820000e+002
    endloop
  endfacet
  facet normal -6.590625e-007 -2.333730e-001 9.723873e-001
    outer loop
      vertex   -1.150000e+002 -8.000000e+001 2.819999e+002
      vertex   -1.150000e+002 -1.300000e+002 2.699999e+002
      vertex   -7.000000e+001 -8.000000e+001 2.820000e+002
    endloop
  endfacet
  facet normal 2.173766e-012 -2.333735e-001 9.723872e-001
    outer loop
      vertex   -7.000000e+001 -8.000000e+001 2.820000e+002
      vertex   -1.150000e+002 -1.300000e+002 2.699999e+002
      vertex   1.000000e+002 -1.300000e+002 2.699999e+002
    endloop
  endfacet
  facet normal 0.000000e+000 -2.333735e-001 9.723872e-001
    outer loop
      vertex   1.000000e+002 -8.000000e+001 2.820000e+002
      vertex   -7.000000e+001 -8.000000e+001 2.820000e+002
      vertex   1.000000e+002 -1.300000e+002 2.699999e+002
    endloop
  endfacet
endsolid