solid 09.025.00.00.000 - 09.025.00.01.000-1 09.025.00.01.001-1 09.025.00.01.0AA-1
   facet normal 0.000000e+000 0.000000e+000 1.000000e+000
      outer loop
         vertex 2.388246e+003 1.450308e+003 2.607390e+003
         vertex 2.388380e+003 1.450226e+003 2.607390e+003
         vertex 2.391649e+003 1.454014e+003 2.607390e+003
      endloop
   endfacet
   facet normal 0.000000e+000 0.000000e+000 1.000000e+000
      outer loop
         vertex 2.391649e+003 1.454014e+003 2.607390e+003
         vertex 2.388380e+003 1.450226e+003 2.607390e+003
         vertex 2.388499e+003 1.450124e+003 2.607390e+003
      endloop
   endfacet
   facet normal 0.000000e+000 0.000000e+000 1.000000e+000
      outer loop
         vertex 2.391649e+003 1.454014e+003 2.607390e+003
         vertex 2.388499e+003 1.450124e+003 2.607390e+003
         vertex 2.392389e+003 1.453274e+003 2.607390e+003
      endloop
   endfacet
   facet normal 0.000000e+000 0.000000e+000 1.000000e+000
      outer loop
         vertex 2.392389e+003 1.453274e+003 2.607390e+003
         vertex 2.388499e+003 1.450124e+003 2.607390e+003
         vertex 2.388601e+003 1.450005e+003 2.607390e+003
      endloop
   endfacet
   facet normal 0.000000e+000 0.000000e+000 1.000000e+000
      outer loop
         vertex 2.392389e+003 1.453274e+003 2.607390e+003
         vertex 2.388601e+003 1.450005e+003 2.607390e+003
         vertex 2.392989e+003 1.452417e+003 2.607390e+003
      endloop
   endfacet
   facet normal 0.000000e+000 0.000000e+000 1.000000e+000
      outer loop
         vertex 2.392989e+003 1.452417e+003 2.607390e+003
         vertex 2.388601e+003 1.450005e+003 2.607390e+003
         vertex 2.388683e+003 1.449871e+003 2.607390e+003
      endloop
   endfacet
   facet normal 0.000000e+000 0.000000e+000 1.000000e+000
      outer loop
         vertex 2.392989e+003 1.452417e+003 2.607390e+003
         vertex 2.388683e+003 1.449871e+003 2.607390e+003
         vertex 2.393430e+003 1.451469e+003 2.607390e+003
      endloop
   endfacet
   facet normal 0.000000e+000 0.000000e+000 1.000000e+000
      outer loop
         vertex 2.393430e+003 1.451469e+003 2.607390e+003
         vertex 2.388683e+003 1.449871e+003 2.607390e+003
         vertex 2.388743e+003 1.449726e+003 2.607390e+003
      endloop
   endfacet
   facet normal 0.000000e+000 0.000000e+000 1.000000e+000
      outer loop
         vertex 2.393430e+003 1.451469e+003 2.607390e+003
         vertex 2.388743e+003 1.449726e+003 2.607390e+003
         vertex 2.393701e+003 1.450459e+003 2.607390e+003
      endloop
   endfacet
   facet normal 0.000000e+000 0.000000e+000 1.000000e+000
      outer loop
         vertex 2.393701e+003 1.450459e+003 2.607390e+003
         vertex 2.388743e+003 1.449726e+003 2.607390e+003
         vertex 2.388780e+003 1.449574e+003 2.607390e+003
      endloop
   endfacet
   facet normal 0.000000e+000 0.000000e+000 1.000000e+000
      outer loop
         vertex 2.393701e+003 1.450459e+003 2.607390e+003
         vertex 2.388780e+003 1.449574e+003 2.607390e+003
         vertex 2.393792e+003 1.449417e+003 2.607390e+003
      endloop
   endfacet
   facet normal 0.000000e+000 0.000000e+000 1.000000e+000
      outer loop
         vertex 2.393792e+003 1.449417e+003 2.607390e+003
         vertex 2.388780e+003 1.449574e+003 2.607390e+003
         vertex 2.388792e+003 1.449417e+003 2.607390e+003
      endloop
   endfacet
   facet normal 0.000000e+000 0.000000e+000 1.000000e+000
      outer loop
         vertex 2.393792e+003 1.449417e+003 2.607390e+003
         vertex 2.388792e+003 1.449417e+003 2.607390e+003
         vertex 2.393792e+003 1.401417e+003 2.607390e+003
      endloop
   endfacet
   facet normal 0.000000e+000 0.000000e+000 1.000000e+000
      outer loop
         vertex 2.393792e+003 1.401417e+003 2.607390e+003
         vertex 2.388792e+003 1.449417e+003 2.607390e+003
         vertex 2.388792e+003 1.401417e+003 2.607390e+003
      endloop
   endfacet
   facet normal 0.000000e+000 0.000000e+000 1.000000e+000
      outer loop
         vertex 2.393792e+003 1.401417e+003 2.607390e+003
         vertex 2.388792e+003 1.401417e+003 2.607390e+003
         vertex 2.393701e+003 1.400375e+003 2.607390e+003
      endloop
   endfacet
   facet normal 0.000000e+000 0.000000e+000 1.000000e+000
      outer loop
         vertex 2.393701e+003 1.400375e+003 2.607390e+003
         vertex 2.388792e+003 1.401417e+003 2.607390e+003
         vertex 2.388777e+003 1.401244e+003 2.607390e+003
      endloop
   endfacet
   facet normal 0.000000e+000 0.000000e+000 1.000000e+000
      outer loop
         vertex 2.393701e+003 1.400375e+003 2.607390e+003
         vertex 2.388777e+003 1.401244e+003 2.607390e+003
         vertex 2.393430e+003 1.399365e+003 2.607390e+003
      endloop
   endfacet
   facet normal 0.000000e+000 0.000000e+000 1.000000e+000
      outer loop
         vertex 2.393430e+003 1.399365e+003 2.607390e+003
         vertex 2.388777e+003 1.401244e+003 2.607390e+003
         vertex 2.388732e+003 1.401075e+003 2.607390e+003
      endloop
   endfacet
   facet normal 0.000000e+000 0.000000e+000 1.000000e+000
      outer loop
         vertex 2.393430e+003 1.399365e+003 2.607390e+003
         vertex 2.388732e+003 1.401075e+003 2.607390e+003
         vertex 2.392989e+003 1.398417e+003 2.607390e+003
      endloop
   endfacet
   facet normal 0.000000e+000 0.000000e+000 1.000000e+000
      outer loop
         vertex 2.392989e+003 1.398417e+003 2.607390e+003
         vertex 2.388732e+003 1.401075e+003 2.607390e+003
         vertex 2.388658e+003 1.400917e+003 2.607390e+003
      endloop
   endfacet
   facet normal 0.000000e+000 0.000000e+000 1.000000e+000
      outer loop
         vertex 2.392989e+003 1.398417e+003 2.607390e+003
         vertex 2.388658e+003 1.400917e+003 2.607390e+003
         vertex 2.392389e+003 1.397561e+003 2.607390e+003
      endloop
   endfacet
   facet normal 0.000000e+000 0.000000e+000 1.000000e+000
      outer loop
         vertex 2.392389e+003 1.397561e+003 2.607390e+003
         vertex 2.388658e+003 1.400917e+003 2.607390e+003
         vertex 2.388558e+003 1.400775e+003 2.607390e+003
      endloop
   endfacet
   facet normal 0.000000e+000 0.000000e+000 1.000000e+000
      outer loop
         vertex 2.392389e+003 1.397561e+003 2.607390e+003
         vertex 2.388558e+003 1.400775e+003 2.607390e+003
         vertex 2.391649e+003 1.396821e+003 2.607390e+003
      endloop
   endfacet
   facet normal 0.000000e+000 0.000000e+000 1.000000e+000
      outer loop
         vertex 2.391649e+003 1.396821e+003 2.607390e+003
         vertex 2.388558e+003 1.400775e+003 2.607390e+003
         vertex 2.388435e+003 1.400651e+003 2.607390e+003
      endloop
   endfacet
   facet normal 0.000000e+000 0.000000e+000 1.000000e+000
      outer loop
         vertex 2.391649e+003 1.396821e+003 2.607390e+003
         vertex 2.388435e+003 1.400651e+003 2.607390e+003
         vertex 2.390792e+003 1.396221e+003 2.607390e+003
      endloop
   endfacet
   facet normal 0.000000e+000 0.000000e+000 1.000000e+000
      outer loop
         vertex 2.390792e+003 1.396221e+003 2.607390e+003
         vertex 2.388435e+003 1.400651e+003 2.607390e+003
         vertex 2.388292e+003 1.400551e+003 2.607390e+003
      endloop
   endfacet
   facet normal 0.000000e+000 0.000000e+000 1.000000e+000
      outer loop
         vertex 2.390792e+003 1.396221e+003 2.607390e+003
         vertex 2.388292e+003 1.400551e+003 2.607390e+003
         vertex 2.389844e+003 1.395779e+003 2.607390e+003
      endloop
   endfacet
   facet normal 0.000000e+000 0.000000e+000 1.000000e+000
      outer loop
         vertex 2.389844e+003 1.395779e+003 2.607390e+003
         vertex 2.388292e+003 1.400551e+003 2.607390e+003
         vertex 2.388134e+003 1.400478e+003 2.607390e+003
      endloop
   endfacet
   facet normal 0.000000e+000 0.000000e+000 1.000000e+000
      outer loop
         vertex 2.389844e+003 1.395779e+003 2.607390e+003
         vertex 2.388134e+003 1.400478e+003 2.607390e+003
         vertex 2.388834e+003 1.395509e+003 2.607390e+003
      endloop
   endfacet
   facet normal 0.000000e+000 0.000000e+000 1.000000e+000
      outer loop
         vertex 2.388834e+003 1.395509e+003 2.607390e+003
         vertex 2.388134e+003 1.400478e+003 2.607390e+003
         vertex 2.387966e+003 1.400432e+003 2.607390e+003
      endloop
   endfacet
   facet normal 0.000000e+000 0.000000e+000 1.000000e+000
      outer loop
         vertex 2.388834e+003 1.395509e+003 2.607390e+003
         vertex 2.387966e+003 1.400432e+003 2.607390e+003
         vertex 2.387792e+003 1.395417e+003 2.607390e+003
      endloop
   endfacet
   facet normal 0.000000e+000 0.000000e+000 1.000000e+000
      outer loop
         vertex 2.387792e+003 1.395417e+003 2.607390e+003
         vertex 2.387966e+003 1.400432e+003 2.607390e+003
         vertex 2.387792e+003 1.400417e+003 2.607390e+003
      endloop
   endfacet
   facet normal 0.000000e+000 0.000000e+000 1.000000e+000
      outer loop
         vertex 2.387792e+003 1.395417e+003 2.607390e+003
         vertex 2.387792e+003 1.400417e+003 2.607390e+003
         vertex 2.339792e+003 1.395417e+003 2.607390e+003
      endloop
   endfacet
   facet normal 0.000000e+000 0.000000e+000 1.000000e+000
      outer loop
         vertex 2.339792e+003 1.395417e+003 2.607390e+003
         vertex 2.387792e+003 1.400417e+003 2.607390e+003
         vertex 2.339792e+003 1.400417e+003 2.607390e+003
      endloop
   endfacet
   facet normal 0.000000e+000 0.000000e+000 1.000000e+000
      outer loop
         vertex 2.339792e+003 1.395417e+003 2.607390e+003
         vertex 2.339792e+003 1.400417e+003 2.607390e+003
         vertex 2.338750e+003 1.395509e+003 2.607390e+003
      endloop
   endfacet
   facet normal 0.000000e+000 0.000000e+000 1.000000e+000
      outer loop
         vertex 2.338750e+003 1.395509e+003 2.607390e+003
         vertex 2.339792e+003 1.400417e+003 2.607390e+003
         vertex 2.339618e+003 1.400432e+003 2.607390e+003
      endloop
   endfacet
   facet normal 0.000000e+000 0.000000e+000 1.000000e+000
      outer loop
         vertex 2.338750e+003 1.395509e+003 2.607390e+003
         vertex 2.339618e+003 1.400432e+003 2.607390e+003
         vertex 2.337740e+003 1.395779e+003 2.607390e+003
      endloop
   endfacet
   facet normal 0.000000e+000 0.000000e+000 1.000000e+000
      outer loop
         vertex 2.337740e+003 1.395779e+003 2.607390e+003
         vertex 2.339618e+003 1.400432e+003 2.607390e+003
         vertex 2.339450e+003 1.400478e+003 2.607390e+003
      endloop
   endfacet
   facet normal 0.000000e+000 0.000000e+000 1.000000e+000
      outer loop
         vertex 2.337740e+003 1.395779e+003 2.607390e+003
         vertex 2.339450e+003 1.400478e+003 2.607390e+003
         vertex 2.336792e+003 1.396221e+003 2.607390e+003
      endloop
   endfacet
   facet normal 0.000000e+000 0.000000e+000 1.000000e+000
      outer loop
         vertex 2.336792e+003 1.396221e+003 2.607390e+003
         vertex 2.339450e+003 1.400478e+003 2.607390e+003
         vertex 2.339292e+003 1.400551e+003 2.607390e+003
      endloop
   endfacet
   facet normal 0.000000e+000 0.000000e+000 1.000000e+000
      outer loop
         vertex 2.336792e+003 1.396221e+003 2.607390e+003
         vertex 2.339292e+003 1.400551e+003 2.607390e+003
         vertex 2.335936e+003 1.396821e+003 2.607390e+003
      endloop
   endfacet
   facet normal 0.000000e+000 0.000000e+000 1.000000e+000
      outer loop
         vertex 2.335936e+003 1.396821e+003 2.607390e+003
         vertex 2.339292e+003 1.400551e+003 2.607390e+003
         vertex 2.339149e+003 1.400651e+003 2.607390e+003
      endloop
   endfacet
   facet normal 0.000000e+000 0.000000e+000 1.000000e+000
      outer loop
         vertex 2.335936e+003 1.396821e+003 2.607390e+003
         vertex 2.339149e+003 1.400651e+003 2.607390e+003
         vertex 2.335196e+003 1.397561e+003 2.607390e+003
      endloop
   endfacet
   facet normal 0.000000e+000 0.000000e+000 1.000000e+000
      outer loop
         vertex 2.335196e+003 1.397561e+003 2.607390e+003
         vertex 2.339149e+003 1.400651e+003 2.607390e+003
         vertex 2.339026e+003 1.400775e+003 2.607390e+003
      endloop
   endfacet
   facet normal 0.000000e+000 0.000000e+000 1.000000e+000
      outer loop
         vertex 2.335196e+003 1.397561e+003 2.607390e+003
         vertex 2.339026e+003 1.400775e+003 2.607390e+003
         vertex 2.334596e+003 1.398417e+003 2.607390e+003
      endloop
   endfacet
   facet normal 0.000000e+000 0.000000e+000 1.000000e+000
      outer loop
         vertex 2.334596e+003 1.398417e+003 2.607390e+003
         vertex 2.339026e+003 1.400775e+003 2.607390e+003
         vertex 2.338926e+003 1.400917e+003 2.607390e+003
      endloop
   endfacet
   facet normal 0.000000e+000 0.000000e+000 1.000000e+000
      outer loop
         vertex 2.334596e+003 1.398417e+003 2.607390e+003
         vertex 2.338926e+003 1.400917e+003 2.607390e+003
         vertex 2.334154e+003 1.399365e+003 2.607390e+003
      endloop
   endfacet
   facet normal 0.000000e+000 0.000000e+000 1.000000e+000
      outer loop
         vertex 2.334154e+003 1.399365e+003 2.607390e+003
         vertex 2.338926e+003 1.400917e+003 2.607390e+003
         vertex 2.338852e+003 1.401075e+003 2.607390e+003
      endloop
   endfacet
   facet normal 0.000000e+000 0.000000e+000 1.000000e+000
      outer loop
         vertex 2.334154e+003 1.399365e+003 2.607390e+003
         vertex 2.338852e+003 1.401075e+003 2.607390e+003
         vertex 2.333883e+003 1.400375e+003 2.607390e+003
      endloop
   endfacet
   facet normal 0.000000e+000 0.000000e+000 1.000000e+000
      outer loop
         vertex 2.333883e+003 1.400375e+003 2.607390e+003
         vertex 2.338852e+003 1.401075e+003 2.607390e+003
         vertex 2.338807e+003 1.401244e+003 2.607390e+003
      endloop
   endfacet
   facet normal 0.000000e+000 0.000000e+000 1.000000e+000
      outer loop
         vertex 2.333883e+003 1.400375e+003 2.607390e+003
         vertex 2.338807e+003 1.401244e+003 2.607390e+003
         vertex 2.333792e+003 1.401417e+003 2.607390e+003
      endloop
   endfacet
   facet normal 0.000000e+000 0.000000e+000 1.000000e+000
      outer loop
         vertex 2.333792e+003 1.401417e+003 2.607390e+003
         vertex 2.338807e+003 1.401244e+003 2.607390e+003
         vertex 2.338792e+003 1.401417e+003 2.607390e+003
      endloop
   endfacet
   facet normal 0.000000e+000 0.000000e+000 1.000000e+000
      outer loop
         vertex 2.333792e+003 1.401417e+003 2.607390e+003
         vertex 2.338792e+003 1.401417e+003 2.607390e+003
         vertex 2.333792e+003 1.449417e+003 2.607390e+003
      endloop
   endfacet
   facet normal 0.000000e+000 0.000000e+000 1.000000e+000
      outer loop
         vertex 2.333792e+003 1.449417e+003 2.607390e+003
         vertex 2.338792e+003 1.401417e+003 2.607390e+003
         vertex 2.338792e+003 1.449417e+003 2.607390e+003
      endloop
   endfacet
   facet normal 0.000000e+000 0.000000e+000 1.000000e+000
      outer loop
         vertex 2.333792e+003 1.449417e+003 2.607390e+003
         vertex 2.338792e+003 1.449417e+003 2.607390e+003
         vertex 2.333883e+003 1.450459e+003 2.607390e+003
      endloop
   endfacet
   facet normal 0.000000e+000 0.000000e+000 1.000000e+000
      outer loop
         vertex 2.333883e+003 1.450459e+003 2.607390e+003
         vertex 2.338792e+003 1.449417e+003 2.607390e+003
         vertex 2.338807e+003 1.449591e+003 2.607390e+003
      endloop
   endfacet
   facet normal 0.000000e+000 0.000000e+000 1.000000e+000
      outer loop
         vertex 2.333883e+003 1.450459e+003 2.607390e+003
         vertex 2.338807e+003 1.449591e+003 2.607390e+003
         vertex 2.334154e+003 1.451469e+003 2.607390e+003
      endloop
   endfacet
   facet normal 0.000000e+000 0.000000e+000 1.000000e+000
      outer loop
         vertex 2.334154e+003 1.451469e+003 2.607390e+003
         vertex 2.338807e+003 1.449591e+003 2.607390e+003
         vertex 2.338852e+003 1.449759e+003 2.607390e+003
      endloop
   endfacet
   facet normal 0.000000e+000 0.000000e+000 1.000000e+000
      outer loop
         vertex 2.334154e+003 1.451469e+003 2.607390e+003
         vertex 2.338852e+003 1.449759e+003 2.607390e+003
         vertex 2.334596e+003 1.452417e+003 2.607390e+003
      endloop
   endfacet
   facet normal 0.000000e+000 0.000000e+000 1.000000e+000
      outer loop
         vertex 2.334596e+003 1.452417e+003 2.607390e+003
         vertex 2.338852e+003 1.449759e+003 2.607390e+003
         vertex 2.338926e+003 1.449917e+003 2.607390e+003
      endloop
   endfacet
   facet normal 0.000000e+000 0.000000e+000 1.000000e+000
      outer loop
         vertex 2.334596e+003 1.452417e+003 2.607390e+003
         vertex 2.338926e+003 1.449917e+003 2.607390e+003
         vertex 2.335196e+003 1.453274e+003 2.607390e+003
      endloop
   endfacet
   facet normal 0.000000e+000 0.000000e+000 1.000000e+000
      outer loop
         vertex 2.335196e+003 1.453274e+003 2.607390e+003
         vertex 2.338926e+003 1.449917e+003 2.607390e+003
         vertex 2.339026e+003 1.450060e+003 2.607390e+003
      endloop
   endfacet
   facet normal 0.000000e+000 0.000000e+000 1.000000e+000
      outer loop
         vertex 2.335196e+003 1.453274e+003 2.607390e+003
         vertex 2.339026e+003 1.450060e+003 2.607390e+003
         vertex 2.335936e+003 1.454014e+003 2.607390e+003
      endloop
   endfacet
   facet normal 0.000000e+000 0.000000e+000 1.000000e+000
      outer loop
         vertex 2.335936e+003 1.454014e+003 2.607390e+003
         vertex 2.339026e+003 1.450060e+003 2.607390e+003
         vertex 2.339149e+003 1.450183e+003 2.607390e+003
      endloop
   endfacet
   facet normal 0.000000e+000 0.000000e+000 1.000000e+000
      outer loop
         vertex 2.335936e+003 1.454014e+003 2.607390e+003
         vertex 2.339149e+003 1.450183e+003 2.607390e+003
         vertex 2.336792e+003 1.454613e+003 2.607390e+003
      endloop
   endfacet
   facet normal 0.000000e+000 0.000000e+000 1.000000e+000
      outer loop
         vertex 2.336792e+003 1.454613e+003 2.607390e+003
         vertex 2.339149e+003 1.450183e+003 2.607390e+003
         vertex 2.339292e+003 1.450283e+003 2.607390e+003
      endloop
   endfacet
   facet normal 0.000000e+000 0.000000e+000 1.000000e+000
      outer loop
         vertex 2.336792e+003 1.454613e+003 2.607390e+003
         vertex 2.339292e+003 1.450283e+003 2.607390e+003
         vertex 2.337740e+003 1.455055e+003 2.607390e+003
      endloop
   endfacet
   facet normal 0.000000e+000 0.000000e+000 1.000000e+000
      outer loop
         vertex 2.337740e+003 1.455055e+003 2.607390e+003
         vertex 2.339292e+003 1.450283e+003 2.607390e+003
         vertex 2.339450e+003 1.450357e+003 2.607390e+003
      endloop
   endfacet
   facet normal 0.000000e+000 0.000000e+000 1.000000e+000
      outer loop
         vertex 2.337740e+003 1.455055e+003 2.607390e+003
         vertex 2.339450e+003 1.450357e+003 2.607390e+003
         vertex 2.338750e+003 1.455326e+003 2.607390e+003
      endloop
   endfacet
   facet normal 0.000000e+000 0.000000e+000 1.000000e+000
      outer loop
         vertex 2.338750e+003 1.455326e+003 2.607390e+003
         vertex 2.339450e+003 1.450357e+003 2.607390e+003
         vertex 2.339618e+003 1.450402e+003 2.607390e+003
      endloop
   endfacet
   facet normal 0.000000e+000 0.000000e+000 1.000000e+000
      outer loop
         vertex 2.338750e+003 1.455326e+003 2.607390e+003
         vertex 2.339618e+003 1.450402e+003 2.607390e+003
         vertex 2.339792e+003 1.455417e+003 2.607390e+003
      endloop
   endfacet
   facet normal 0.000000e+000 0.000000e+000 1.000000e+000
      outer loop
         vertex 2.339792e+003 1.455417e+003 2.607390e+003
         vertex 2.339618e+003 1.450402e+003 2.607390e+003
         vertex 2.339792e+003 1.450417e+003 2.607390e+003
      endloop
   endfacet
   facet normal 0.000000e+000 0.000000e+000 1.000000e+000
      outer loop
         vertex 2.339792e+003 1.455417e+003 2.607390e+003
         vertex 2.339792e+003 1.450417e+003 2.607390e+003
         vertex 2.387792e+003 1.455417e+003 2.607390e+003
      endloop
   endfacet
   facet normal 0.000000e+000 0.000000e+000 1.000000e+000
      outer loop
         vertex 2.387792e+003 1.455417e+003 2.607390e+003
         vertex 2.339792e+003 1.450417e+003 2.607390e+003
         vertex 2.387792e+003 1.450417e+003 2.607390e+003
      endloop
   endfacet
   facet normal 0.000000e+000 0.000000e+000 1.000000e+000
      outer loop
         vertex 2.387792e+003 1.455417e+003 2.607390e+003
         vertex 2.387792e+003 1.450417e+003 2.607390e+003
         vertex 2.388834e+003 1.455326e+003 2.607390e+003
      endloop
   endfacet
   facet normal 0.000000e+000 0.000000e+000 1.000000e+000
      outer loop
         vertex 2.388834e+003 1.455326e+003 2.607390e+003
         vertex 2.387792e+003 1.450417e+003 2.607390e+003
         vertex 2.387949e+003 1.450405e+003 2.607390e+003
      endloop
   endfacet
   facet normal 0.000000e+000 0.000000e+000 1.000000e+000
      outer loop
         vertex 2.388834e+003 1.455326e+003 2.607390e+003
         vertex 2.387949e+003 1.450405e+003 2.607390e+003
         vertex 2.389844e+003 1.455055e+003 2.607390e+003
      endloop
   endfacet
   facet normal 0.000000e+000 0.000000e+000 1.000000e+000
      outer loop
         vertex 2.389844e+003 1.455055e+003 2.607390e+003
         vertex 2.387949e+003 1.450405e+003 2.607390e+003
         vertex 2.388101e+003 1.450368e+003 2.607390e+003
      endloop
   endfacet
   facet normal 0.000000e+000 0.000000e+000 1.000000e+000
      outer loop
         vertex 2.389844e+003 1.455055e+003 2.607390e+003
         vertex 2.388101e+003 1.450368e+003 2.607390e+003
         vertex 2.390792e+003 1.454613e+003 2.607390e+003
      endloop
   endfacet
   facet normal 0.000000e+000 0.000000e+000 1.000000e+000
      outer loop
         vertex 2.390792e+003 1.454613e+003 2.607390e+003
         vertex 2.388101e+003 1.450368e+003 2.607390e+003
         vertex 2.388246e+003 1.450308e+003 2.607390e+003
      endloop
   endfacet
   facet normal 0.000000e+000 0.000000e+000 1.000000e+000
      outer loop
         vertex 2.390792e+003 1.454613e+003 2.607390e+003
         vertex 2.388246e+003 1.450308e+003 2.607390e+003
         vertex 2.391649e+003 1.454014e+003 2.607390e+003
      endloop
   endfacet
   facet normal 0.000000e+000 0.000000e+000 -1.000000e+000
      outer loop
         vertex 2.388601e+003 1.450005e+003 1.857390e+003
         vertex 2.388499e+003 1.450124e+003 1.857390e+003
         vertex 2.391649e+003 1.454014e+003 1.857390e+003
      endloop
   endfacet
   facet normal 0.000000e+000 0.000000e+000 -1.000000e+000
      outer loop
         vertex 2.391649e+003 1.454014e+003 1.857390e+003
         vertex 2.388499e+003 1.450124e+003 1.857390e+003
         vertex 2.388380e+003 1.450226e+003 1.857390e+003
      endloop
   endfacet
   facet normal 0.000000e+000 0.000000e+000 -1.000000e+000
      outer loop
         vertex 2.391649e+003 1.454014e+003 1.857390e+003
         vertex 2.388380e+003 1.450226e+003 1.857390e+003
         vertex 2.390792e+003 1.454613e+003 1.857390e+003
      endloop
   endfacet
   facet normal 0.000000e+000 0.000000e+000 -1.000000e+000
      outer loop
         vertex 2.390792e+003 1.454613e+003 1.857390e+003
         vertex 2.388380e+003 1.450226e+003 1.857390e+003
         vertex 2.388246e+003 1.450308e+003 1.857390e+003
      endloop
   endfacet
   facet normal 0.000000e+000 0.000000e+000 -1.000000e+000
      outer loop
         vertex 2.390792e+003 1.454613e+003 1.857390e+003
         vertex 2.388246e+003 1.450308e+003 1.857390e+003
         vertex 2.389844e+003 1.455055e+003 1.857390e+003
      endloop
   endfacet
   facet normal 0.000000e+000 0.000000e+000 -1.000000e+000
      outer loop
         vertex 2.389844e+003 1.455055e+003 1.857390e+003
         vertex 2.388246e+003 1.450308e+003 1.857390e+003
         vertex 2.388101e+003 1.450368e+003 1.857390e+003
      endloop
   endfacet
   facet normal 0.000000e+000 0.000000e+000 -1.000000e+000
      outer loop
         vertex 2.389844e+003 1.455055e+003 1.857390e+003
         vertex 2.388101e+003 1.450368e+003 1.857390e+003
         vertex 2.388834e+003 1.455326e+003 1.857390e+003
      endloop
   endfacet
   facet normal 0.000000e+000 0.000000e+000 -1.000000e+000
      outer loop
         vertex 2.388834e+003 1.455326e+003 1.857390e+003
         vertex 2.388101e+003 1.450368e+003 1.857390e+003
         vertex 2.387949e+003 1.450405e+003 1.857390e+003
      endloop
   endfacet
   facet normal 0.000000e+000 0.000000e+000 -1.000000e+000
      outer loop
         vertex 2.388834e+003 1.455326e+003 1.857390e+003
         vertex 2.387949e+003 1.450405e+003 1.857390e+003
         vertex 2.387792e+003 1.455417e+003 1.857390e+003
      endloop
   endfacet
   facet normal 0.000000e+000 0.000000e+000 -1.000000e+000
      outer loop
         vertex 2.387792e+003 1.455417e+003 1.857390e+003
         vertex 2.387949e+003 1.450405e+003 1.857390e+003
         vertex 2.387792e+003 1.450417e+003 1.857390e+003
      endloop
   endfacet
   facet normal 0.000000e+000 0.000000e+000 -1.000000e+000
      outer loop
         vertex 2.387792e+003 1.455417e+003 1.857390e+003
         vertex 2.387792e+003 1.450417e+003 1.857390e+003
         vertex 2.339792e+003 1.455417e+003 1.857390e+003
      endloop
   endfacet
   facet normal 0.000000e+000 0.000000e+000 -1.000000e+000
      outer loop
         vertex 2.339792e+003 1.455417e+003 1.857390e+003
         vertex 2.387792e+003 1.450417e+003 1.857390e+003
         vertex 2.339792e+003 1.450417e+003 1.857390e+003
      endloop
   endfacet
   facet normal 0.000000e+000 0.000000e+000 -1.000000e+000
      outer loop
         vertex 2.339792e+003 1.455417e+003 1.857390e+003
         vertex 2.339792e+003 1.450417e+003 1.857390e+003
         vertex 2.338750e+003 1.455326e+003 1.857390e+003
      endloop
   endfacet
   facet normal 0.000000e+000 0.000000e+000 -1.000000e+000
      outer loop
         vertex 2.338750e+003 1.455326e+003 1.857390e+003
         vertex 2.339792e+003 1.450417e+003 1.857390e+003
         vertex 2.339618e+003 1.450402e+003 1.857390e+003
      endloop
   endfacet
   facet normal 0.000000e+000 0.000000e+000 -1.000000e+000
      outer loop
         vertex 2.338750e+003 1.455326e+003 1.857390e+003
         vertex 2.339618e+003 1.450402e+003 1.857390e+003
         vertex 2.337740e+003 1.455055e+003 1.857390e+003
      endloop
   endfacet
   facet normal 0.000000e+000 0.000000e+000 -1.000000e+000
      outer loop
         vertex 2.337740e+003 1.455055e+003 1.857390e+003
         vertex 2.339618e+003 1.450402e+003 1.857390e+003
         vertex 2.339450e+003 1.450357e+003 1.857390e+003
      endloop
   endfacet
   facet normal 0.000000e+000 0.000000e+000 -1.000000e+000
      outer loop
         vertex 2.337740e+003 1.455055e+003 1.857390e+003
         vertex 2.339450e+003 1.450357e+003 1.857390e+003
         vertex 2.336792e+003 1.454613e+003 1.857390e+003
      endloop
   endfacet
   facet normal 0.000000e+000 0.000000e+000 -1.000000e+000
      outer loop
         vertex 2.336792e+003 1.454613e+003 1.857390e+003
         vertex 2.339450e+003 1.450357e+003 1.857390e+003
         vertex 2.339292e+003 1.450283e+003 1.857390e+003
      endloop
   endfacet
   facet normal 0.000000e+000 0.000000e+000 -1.000000e+000
      outer loop
         vertex 2.336792e+003 1.454613e+003 1.857390e+003
         vertex 2.339292e+003 1.450283e+003 1.857390e+003
         vertex 2.335936e+003 1.454014e+003 1.857390e+003
      endloop
   endfacet
   facet normal 0.000000e+000 0.000000e+000 -1.000000e+000
      outer loop
         vertex 2.335936e+003 1.454014e+003 1.857390e+003
         vertex 2.339292e+003 1.450283e+003 1.857390e+003
         vertex 2.339149e+003 1.450183e+003 1.857390e+003
      endloop
   endfacet
   facet normal 0.000000e+000 0.000000e+000 -1.000000e+000
      outer loop
         vertex 2.335936e+003 1.454014e+003 1.857390e+003
         vertex 2.339149e+003 1.450183e+003 1.857390e+003
         vertex 2.335196e+003 1.453274e+003 1.857390e+003
      endloop
   endfacet
   facet normal 0.000000e+000 0.000000e+000 -1.000000e+000
      outer loop
         vertex 2.335196e+003 1.453274e+003 1.857390e+003
         vertex 2.339149e+003 1.450183e+003 1.857390e+003
         vertex 2.339026e+003 1.450060e+003 1.857390e+003
      endloop
   endfacet
   facet normal 0.000000e+000 0.000000e+000 -1.000000e+000
      outer loop
         vertex 2.335196e+003 1.453274e+003 1.857390e+003
         vertex 2.339026e+003 1.450060e+003 1.857390e+003
         vertex 2.334596e+003 1.452417e+003 1.857390e+003
      endloop
   endfacet
   facet normal 0.000000e+000 0.000000e+000 -1.000000e+000
      outer loop
         vertex 2.334596e+003 1.452417e+003 1.857390e+003
         vertex 2.339026e+003 1.450060e+003 1.857390e+003
         vertex 2.338926e+003 1.449917e+003 1.857390e+003
      endloop
   endfacet
   facet normal 0.000000e+000 0.000000e+000 -1.000000e+000
      outer loop
         vertex 2.334596e+003 1.452417e+003 1.857390e+003
         vertex 2.338926e+003 1.449917e+003 1.857390e+003
         vertex 2.334154e+003 1.451469e+003 1.857390e+003
      endloop
   endfacet
   facet normal 0.000000e+000 0.000000e+000 -1.000000e+000
      outer loop
         vertex 2.334154e+003 1.451469e+003 1.857390e+003
         vertex 2.338926e+003 1.449917e+003 1.857390e+003
         vertex 2.338852e+003 1.449759e+003 1.857390e+003
      endloop
   endfacet
   facet normal 0.000000e+000 0.000000e+000 -1.000000e+000
      outer loop
         vertex 2.334154e+003 1.451469e+003 1.857390e+003
         vertex 2.338852e+003 1.449759e+003 1.857390e+003
         vertex 2.333883e+003 1.450459e+003 1.857390e+003
      endloop
   endfacet
   facet normal 0.000000e+000 0.000000e+000 -1.000000e+000
      outer loop
         vertex 2.333883e+003 1.450459e+003 1.857390e+003
         vertex 2.338852e+003 1.449759e+003 1.857390e+003
         vertex 2.338807e+003 1.449591e+003 1.857390e+003
      endloop
   endfacet
   facet normal 0.000000e+000 0.000000e+000 -1.000000e+000
      outer loop
         vertex 2.333883e+003 1.450459e+003 1.857390e+003
         vertex 2.338807e+003 1.449591e+003 1.857390e+003
         vertex 2.333792e+003 1.449417e+003 1.857390e+003
      endloop
   endfacet
   facet normal 0.000000e+000 0.000000e+000 -1.000000e+000
      outer loop
         vertex 2.333792e+003 1.449417e+003 1.857390e+003
         vertex 2.338807e+003 1.449591e+003 1.857390e+003
         vertex 2.338792e+003 1.449417e+003 1.857390e+003
      endloop
   endfacet
   facet normal 0.000000e+000 0.000000e+000 -1.000000e+000
      outer loop
         vertex 2.333792e+003 1.449417e+003 1.857390e+003
         vertex 2.338792e+003 1.449417e+003 1.857390e+003
         vertex 2.333792e+003 1.401417e+003 1.857390e+003
      endloop
   endfacet
   facet normal 0.000000e+000 0.000000e+000 -1.000000e+000
      outer loop
         vertex 2.333792e+003 1.401417e+003 1.857390e+003
         vertex 2.338792e+003 1.449417e+003 1.857390e+003
         vertex 2.338792e+003 1.401417e+003 1.857390e+003
      endloop
   endfacet
   facet normal 0.000000e+000 0.000000e+000 -1.000000e+000
      outer loop
         vertex 2.333792e+003 1.401417e+003 1.857390e+003
         vertex 2.338792e+003 1.401417e+003 1.857390e+003
         vertex 2.333883e+003 1.400375e+003 1.857390e+003
      endloop
   endfacet
   facet normal 0.000000e+000 0.000000e+000 -1.000000e+000
      outer loop
         vertex 2.333883e+003 1.400375e+003 1.857390e+003
         vertex 2.338792e+003 1.401417e+003 1.857390e+003
         vertex 2.338807e+003 1.401244e+003 1.857390e+003
      endloop
   endfacet
   facet normal 0.000000e+000 0.000000e+000 -1.000000e+000
      outer loop
         vertex 2.333883e+003 1.400375e+003 1.857390e+003
         vertex 2.338807e+003 1.401244e+003 1.857390e+003
         vertex 2.334154e+003 1.399365e+003 1.857390e+003
      endloop
   endfacet
   facet normal 0.000000e+000 0.000000e+000 -1.000000e+000
      outer loop
         vertex 2.334154e+003 1.399365e+003 1.857390e+003
         vertex 2.338807e+003 1.401244e+003 1.857390e+003
         vertex 2.338852e+003 1.401075e+003 1.857390e+003
      endloop
   endfacet
   facet normal 0.000000e+000 0.000000e+000 -1.000000e+000
      outer loop
         vertex 2.334154e+003 1.399365e+003 1.857390e+003
         vertex 2.338852e+003 1.401075e+003 1.857390e+003
         vertex 2.334596e+003 1.398417e+003 1.857390e+003
      endloop
   endfacet
   facet normal 0.000000e+000 0.000000e+000 -1.000000e+000
      outer loop
         vertex 2.334596e+003 1.398417e+003 1.857390e+003
         vertex 2.338852e+003 1.401075e+003 1.857390e+003
         vertex 2.338926e+003 1.400917e+003 1.857390e+003
      endloop
   endfacet
   facet normal 0.000000e+000 0.000000e+000 -1.000000e+000
      outer loop
         vertex 2.334596e+003 1.398417e+003 1.857390e+003
         vertex 2.338926e+003 1.400917e+003 1.857390e+003
         vertex 2.335196e+003 1.397561e+003 1.857390e+003
      endloop
   endfacet
   facet normal 0.000000e+000 0.000000e+000 -1.000000e+000
      outer loop
         vertex 2.335196e+003 1.397561e+003 1.857390e+003
         vertex 2.338926e+003 1.400917e+003 1.857390e+003
         vertex 2.339026e+003 1.400775e+003 1.857390e+003
      endloop
   endfacet
   facet normal 0.000000e+000 0.000000e+000 -1.000000e+000
      outer loop
         vertex 2.335196e+003 1.397561e+003 1.857390e+003
         vertex 2.339026e+003 1.400775e+003 1.857390e+003
         vertex 2.335936e+003 1.396821e+003 1.857390e+003
      endloop
   endfacet
   facet normal 0.000000e+000 0.000000e+000 -1.000000e+000
      outer loop
         vertex 2.335936e+003 1.396821e+003 1.857390e+003
         vertex 2.339026e+003 1.400775e+003 1.857390e+003
         vertex 2.339149e+003 1.400651e+003 1.857390e+003
      endloop
   endfacet
   facet normal 0.000000e+000 0.000000e+000 -1.000000e+000
      outer loop
         vertex 2.335936e+003 1.396821e+003 1.857390e+003
         vertex 2.339149e+003 1.400651e+003 1.857390e+003
         vertex 2.336792e+003 1.396221e+003 1.857390e+003
      endloop
   endfacet
   facet normal 0.000000e+000 0.000000e+000 -1.000000e+000
      outer loop
         vertex 2.336792e+003 1.396221e+003 1.857390e+003
         vertex 2.339149e+003 1.400651e+003 1.857390e+003
         vertex 2.339292e+003 1.400551e+003 1.857390e+003
      endloop
   endfacet
   facet normal 0.000000e+000 0.000000e+000 -1.000000e+000
      outer loop
         vertex 2.336792e+003 1.396221e+003 1.857390e+003
         vertex 2.339292e+003 1.400551e+003 1.857390e+003
         vertex 2.337740e+003 1.395779e+003 1.857390e+003
      endloop
   endfacet
   facet normal 0.000000e+000 0.000000e+000 -1.000000e+000
      outer loop
         vertex 2.337740e+003 1.395779e+003 1.857390e+003
         vertex 2.339292e+003 1.400551e+003 1.857390e+003
         vertex 2.339450e+003 1.400478e+003 1.857390e+003
      endloop
   endfacet
   facet normal 0.000000e+000 0.000000e+000 -1.000000e+000
      outer loop
         vertex 2.337740e+003 1.395779e+003 1.857390e+003
         vertex 2.339450e+003 1.400478e+003 1.857390e+003
         vertex 2.338750e+003 1.395509e+003 1.857390e+003
      endloop
   endfacet
   facet normal 0.000000e+000 0.000000e+000 -1.000000e+000
      outer loop
         vertex 2.338750e+003 1.395509e+003 1.857390e+003
         vertex 2.339450e+003 1.400478e+003 1.857390e+003
         vertex 2.339618e+003 1.400432e+003 1.857390e+003
      endloop
   endfacet
   facet normal 0.000000e+000 0.000000e+000 -1.000000e+000
      outer loop
         vertex 2.338750e+003 1.395509e+003 1.857390e+003
         vertex 2.339618e+003 1.400432e+003 1.857390e+003
         vertex 2.339792e+003 1.395417e+003 1.857390e+003
      endloop
   endfacet
   facet normal 0.000000e+000 0.000000e+000 -1.000000e+000
      outer loop
         vertex 2.339792e+003 1.395417e+003 1.857390e+003
         vertex 2.339618e+003 1.400432e+003 1.857390e+003
         vertex 2.339792e+003 1.400417e+003 1.857390e+003
      endloop
   endfacet
   facet normal 0.000000e+000 0.000000e+000 -1.000000e+000
      outer loop
         vertex 2.339792e+003 1.395417e+003 1.857390e+003
         vertex 2.339792e+003 1.400417e+003 1.857390e+003
         vertex 2.387792e+003 1.395417e+003 1.857390e+003
      endloop
   endfacet
   facet normal 0.000000e+000 0.000000e+000 -1.000000e+000
      outer loop
         vertex 2.387792e+003 1.395417e+003 1.857390e+003
         vertex 2.339792e+003 1.400417e+003 1.857390e+003
         vertex 2.387792e+003 1.400417e+003 1.857390e+003
      endloop
   endfacet
   facet normal 0.000000e+000 0.000000e+000 -1.000000e+000
      outer loop
         vertex 2.387792e+003 1.395417e+003 1.857390e+003
         vertex 2.387792e+003 1.400417e+003 1.857390e+003
         vertex 2.388834e+003 1.395509e+003 1.857390e+003
      endloop
   endfacet
   facet normal 0.000000e+000 0.000000e+000 -1.000000e+000
      outer loop
         vertex 2.388834e+003 1.395509e+003 1.857390e+003
         vertex 2.387792e+003 1.400417e+003 1.857390e+003
         vertex 2.387966e+003 1.400432e+003 1.857390e+003
      endloop
   endfacet
   facet normal 0.000000e+000 0.000000e+000 -1.000000e+000
      outer loop
         vertex 2.388834e+003 1.395509e+003 1.857390e+003
         vertex 2.387966e+003 1.400432e+003 1.857390e+003
         vertex 2.389844e+003 1.395779e+003 1.857390e+003
      endloop
   endfacet
   facet normal 0.000000e+000 0.000000e+000 -1.000000e+000
      outer loop
         vertex 2.389844e+003 1.395779e+003 1.857390e+003
         vertex 2.387966e+003 1.400432e+003 1.857390e+003
         vertex 2.388134e+003 1.400478e+003 1.857390e+003
      endloop
   endfacet
   facet normal 0.000000e+000 0.000000e+000 -1.000000e+000
      outer loop
         vertex 2.389844e+003 1.395779e+003 1.857390e+003
         vertex 2.388134e+003 1.400478e+003 1.857390e+003
         vertex 2.390792e+003 1.396221e+003 1.857390e+003
      endloop
   endfacet
   facet normal 0.000000e+000 0.000000e+000 -1.000000e+000
      outer loop
         vertex 2.390792e+003 1.396221e+003 1.857390e+003
         vertex 2.388134e+003 1.400478e+003 1.857390e+003
         vertex 2.388292e+003 1.400551e+003 1.857390e+003
      endloop
   endfacet
   facet normal 0.000000e+000 0.000000e+000 -1.000000e+000
      outer loop
         vertex 2.390792e+003 1.396221e+003 1.857390e+003
         vertex 2.388292e+003 1.400551e+003 1.857390e+003
         vertex 2.391649e+003 1.396821e+003 1.857390e+003
      endloop
   endfacet
   facet normal 0.000000e+000 0.000000e+000 -1.000000e+000
      outer loop
         vertex 2.391649e+003 1.396821e+003 1.857390e+003
         vertex 2.388292e+003 1.400551e+003 1.857390e+003
         vertex 2.388435e+003 1.400651e+003 1.857390e+003
      endloop
   endfacet
   facet normal 0.000000e+000 0.000000e+000 -1.000000e+000
      outer loop
         vertex 2.391649e+003 1.396821e+003 1.857390e+003
         vertex 2.388435e+003 1.400651e+003 1.857390e+003
         vertex 2.392389e+003 1.397561e+003 1.857390e+003
      endloop
   endfacet
   facet normal 0.000000e+000 0.000000e+000 -1.000000e+000
      outer loop
         vertex 2.392389e+003 1.397561e+003 1.857390e+003
         vertex 2.388435e+003 1.400651e+003 1.857390e+003
         vertex 2.388558e+003 1.400775e+003 1.857390e+003
      endloop
   endfacet
   facet normal 0.000000e+000 0.000000e+000 -1.000000e+000
      outer loop
         vertex 2.392389e+003 1.397561e+003 1.857390e+003
         vertex 2.388558e+003 1.400775e+003 1.857390e+003
         vertex 2.392989e+003 1.398417e+003 1.857390e+003
      endloop
   endfacet
   facet normal 0.000000e+000 0.000000e+000 -1.000000e+000
      outer loop
         vertex 2.392989e+003 1.398417e+003 1.857390e+003
         vertex 2.388558e+003 1.400775e+003 1.857390e+003
         vertex 2.388658e+003 1.400917e+003 1.857390e+003
      endloop
   endfacet
   facet normal 0.000000e+000 0.000000e+000 -1.000000e+000
      outer loop
         vertex 2.392989e+003 1.398417e+003 1.857390e+003
         vertex 2.388658e+003 1.400917e+003 1.857390e+003
         vertex 2.393430e+003 1.399365e+003 1.857390e+003
      endloop
   endfacet
   facet normal 0.000000e+000 0.000000e+000 -1.000000e+000
      outer loop
         vertex 2.393430e+003 1.399365e+003 1.857390e+003
         vertex 2.388658e+003 1.400917e+003 1.857390e+003
         vertex 2.388732e+003 1.401075e+003 1.857390e+003
      endloop
   endfacet
   facet normal 0.000000e+000 0.000000e+000 -1.000000e+000
      outer loop
         vertex 2.393430e+003 1.399365e+003 1.857390e+003
         vertex 2.388732e+003 1.401075e+003 1.857390e+003
         vertex 2.393701e+003 1.400375e+003 1.857390e+003
      endloop
   endfacet
   facet normal 0.000000e+000 0.000000e+000 -1.000000e+000
      outer loop
         vertex 2.393701e+003 1.400375e+003 1.857390e+003
         vertex 2.388732e+003 1.401075e+003 1.857390e+003
         vertex 2.388777e+003 1.401244e+003 1.857390e+003
      endloop
   endfacet
   facet normal 0.000000e+000 0.000000e+000 -1.000000e+000
      outer loop
         vertex 2.393701e+003 1.400375e+003 1.857390e+003
         vertex 2.388777e+003 1.401244e+003 1.857390e+003
         vertex 2.393792e+003 1.401417e+003 1.857390e+003
      endloop
   endfacet
   facet normal 0.000000e+000 0.000000e+000 -1.000000e+000
      outer loop
         vertex 2.393792e+003 1.401417e+003 1.857390e+003
         vertex 2.388777e+003 1.401244e+003 1.857390e+003
         vertex 2.388792e+003 1.401417e+003 1.857390e+003
      endloop
   endfacet
   facet normal 0.000000e+000 0.000000e+000 -1.000000e+000
      outer loop
         vertex 2.393792e+003 1.401417e+003 1.857390e+003
         vertex 2.388792e+003 1.401417e+003 1.857390e+003
         vertex 2.393792e+003 1.449417e+003 1.857390e+003
      endloop
   endfacet
   facet normal 0.000000e+000 0.000000e+000 -1.000000e+000
      outer loop
         vertex 2.393792e+003 1.449417e+003 1.857390e+003
         vertex 2.388792e+003 1.401417e+003 1.857390e+003
         vertex 2.388792e+003 1.449417e+003 1.857390e+003
      endloop
   endfacet
   facet normal 0.000000e+000 0.000000e+000 -1.000000e+000
      outer loop
         vertex 2.393792e+003 1.449417e+003 1.857390e+003
         vertex 2.388792e+003 1.449417e+003 1.857390e+003
         vertex 2.393701e+003 1.450459e+003 1.857390e+003
      endloop
   endfacet
   facet normal 0.000000e+000 0.000000e+000 -1.000000e+000
      outer loop
         vertex 2.393701e+003 1.450459e+003 1.857390e+003
         vertex 2.388792e+003 1.449417e+003 1.857390e+003
         vertex 2.388780e+003 1.449574e+003 1.857390e+003
      endloop
   endfacet
   facet normal 0.000000e+000 0.000000e+000 -1.000000e+000
      outer loop
         vertex 2.393701e+003 1.450459e+003 1.857390e+003
         vertex 2.388780e+003 1.449574e+003 1.857390e+003
         vertex 2.393430e+003 1.451469e+003 1.857390e+003
      endloop
   endfacet
   facet normal 0.000000e+000 0.000000e+000 -1.000000e+000
      outer loop
         vertex 2.393430e+003 1.451469e+003 1.857390e+003
         vertex 2.388780e+003 1.449574e+003 1.857390e+003
         vertex 2.388743e+003 1.449726e+003 1.857390e+003
      endloop
   endfacet
   facet normal 0.000000e+000 0.000000e+000 -1.000000e+000
      outer loop
         vertex 2.393430e+003 1.451469e+003 1.857390e+003
         vertex 2.388743e+003 1.449726e+003 1.857390e+003
         vertex 2.392989e+003 1.452417e+003 1.857390e+003
      endloop
   endfacet
   facet normal 0.000000e+000 0.000000e+000 -1.000000e+000
      outer loop
         vertex 2.392989e+003 1.452417e+003 1.857390e+003
         vertex 2.388743e+003 1.449726e+003 1.857390e+003
         vertex 2.388683e+003 1.449871e+003 1.857390e+003
      endloop
   endfacet
   facet normal 0.000000e+000 0.000000e+000 -1.000000e+000
      outer loop
         vertex 2.392989e+003 1.452417e+003 1.857390e+003
         vertex 2.388683e+003 1.449871e+003 1.857390e+003
         vertex 2.392389e+003 1.453274e+003 1.857390e+003
      endloop
   endfacet
   facet normal 0.000000e+000 0.000000e+000 -1.000000e+000
      outer loop
         vertex 2.392389e+003 1.453274e+003 1.857390e+003
         vertex 2.388683e+003 1.449871e+003 1.857390e+003
         vertex 2.388601e+003 1.450005e+003 1.857390e+003
      endloop
   endfacet
   facet normal 0.000000e+000 0.000000e+000 -1.000000e+000
      outer loop
         vertex 2.392389e+003 1.453274e+003 1.857390e+003
         vertex 2.388601e+003 1.450005e+003 1.857390e+003
         vertex 2.391649e+003 1.454014e+003 1.857390e+003
      endloop
   endfacet
   facet normal 0.000000e+000 -1.000000e+000 0.000000e+000
      outer loop
         vertex 2.387792e+003 1.395417e+003 2.607390e+003
         vertex 2.339792e+003 1.395417e+003 2.607390e+003
         vertex 2.387792e+003 1.395417e+003 1.857390e+003
      endloop
   endfacet
   facet normal 0.000000e+000 -1.000000e+000 0.000000e+000
      outer loop
         vertex 2.387792e+003 1.395417e+003 1.857390e+003
         vertex 2.339792e+003 1.395417e+003 2.607390e+003
         vertex 2.339792e+003 1.395417e+003 1.857390e+003
      endloop
   endfacet
   facet normal 1.000000e+000 3.469447e-016 0.000000e+000
      outer loop
         vertex 2.393792e+003 1.401417e+003 1.857390e+003
         vertex 2.393792e+003 1.449417e+003 1.857390e+003
         vertex 2.393792e+003 1.401417e+003 2.607390e+003
      endloop
   endfacet
   facet normal 1.000000e+000 3.469447e-016 0.000000e+000
      outer loop
         vertex 2.393792e+003 1.401417e+003 2.607390e+003
         vertex 2.393792e+003 1.449417e+003 1.857390e+003
         vertex 2.393792e+003 1.449417e+003 2.607390e+003
      endloop
   endfacet
   facet normal 0.000000e+000 1.000000e+000 0.000000e+000
      outer loop
         vertex 2.387792e+003 1.455417e+003 1.857390e+003
         vertex 2.339792e+003 1.455417e+003 1.857390e+003
         vertex 2.387792e+003 1.455417e+003 2.607390e+003
      endloop
   endfacet
   facet normal 0.000000e+000 1.000000e+000 0.000000e+000
      outer loop
         vertex 2.387792e+003 1.455417e+003 2.607390e+003
         vertex 2.339792e+003 1.455417e+003 1.857390e+003
         vertex 2.339792e+003 1.455417e+003 2.607390e+003
      endloop
   endfacet
   facet normal -1.000000e+000 0.000000e+000 0.000000e+000
      outer loop
         vertex 2.333792e+003 1.401417e+003 2.607390e+003
         vertex 2.333792e+003 1.449417e+003 2.607390e+003
         vertex 2.333792e+003 1.401417e+003 1.857390e+003
      endloop
   endfacet
   facet normal -1.000000e+000 0.000000e+000 0.000000e+000
      outer loop
         vertex 2.333792e+003 1.401417e+003 1.857390e+003
         vertex 2.333792e+003 1.449417e+003 2.607390e+003
         vertex 2.333792e+003 1.449417e+003 1.857390e+003
      endloop
   endfacet
   facet normal 5.807914e-002 -9.983120e-001 0.000000e+000
      outer loop
         vertex 2.387792e+003 1.395417e+003 2.607390e+003
         vertex 2.387792e+003 1.395417e+003 1.857390e+003
         vertex 2.388834e+003 1.395509e+003 1.857390e+003
      endloop
   endfacet
   facet normal 1.161583e-001 -9.932307e-001 0.000000e+000
      outer loop
         vertex 2.387792e+003 1.395417e+003 2.607390e+003
         vertex 2.388834e+003 1.395509e+003 1.857390e+003
         vertex 2.388834e+003 1.395509e+003 2.607390e+003
      endloop
   endfacet
   facet normal 2.305518e-001 -9.730601e-001 0.000000e+000
      outer loop
         vertex 2.388834e+003 1.395509e+003 2.607390e+003
         vertex 2.388834e+003 1.395509e+003 1.857390e+003
         vertex 2.389844e+003 1.395779e+003 1.857390e+003
      endloop
   endfacet
   facet normal 2.868663e-001 -9.579706e-001 0.000000e+000
      outer loop
         vertex 2.388834e+003 1.395509e+003 2.607390e+003
         vertex 2.389844e+003 1.395779e+003 1.857390e+003
         vertex 2.389844e+003 1.395779e+003 2.607390e+003
      endloop
   endfacet
   facet normal 3.960194e-001 -9.182422e-001 0.000000e+000
      outer loop
         vertex 2.389844e+003 1.395779e+003 2.607390e+003
         vertex 2.389844e+003 1.395779e+003 1.857390e+003
         vertex 2.390792e+003 1.396221e+003 1.857390e+003
      endloop
   endfacet
   facet normal 4.488580e-001 -8.936031e-001 0.000000e+000
      outer loop
         vertex 2.389844e+003 1.395779e+003 2.607390e+003
         vertex 2.390792e+003 1.396221e+003 1.857390e+003
         vertex 2.390792e+003 1.396221e+003 2.607390e+003
      endloop
   endfacet
   facet normal 5.494540e-001 -8.355240e-001 0.000000e+000
      outer loop
         vertex 2.390792e+003 1.396221e+003 2.607390e+003
         vertex 2.390792e+003 1.396221e+003 1.857390e+003
         vertex 2.391649e+003 1.396821e+003 1.857390e+003
      endloop
   endfacet
   facet normal 5.972114e-001 -8.020839e-001 0.000000e+000
      outer loop
         vertex 2.390792e+003 1.396221e+003 2.607390e+003
         vertex 2.391649e+003 1.396821e+003 1.857390e+003
         vertex 2.391649e+003 1.396821e+003 2.607390e+003
      endloop
   endfacet
   facet normal 6.861938e-001 -7.274188e-001 0.000000e+000
      outer loop
         vertex 2.391649e+003 1.396821e+003 2.607390e+003
         vertex 2.391649e+003 1.396821e+003 1.857390e+003
         vertex 2.392389e+003 1.397561e+003 1.857390e+003
      endloop
   endfacet
   facet normal 7.274188e-001 -6.861938e-001 0.000000e+000
      outer loop
         vertex 2.391649e+003 1.396821e+003 2.607390e+003
         vertex 2.392389e+003 1.397561e+003 1.857390e+003
         vertex 2.392389e+003 1.397561e+003 2.607390e+003
      endloop
   endfacet
   facet normal 8.020839e-001 -5.972114e-001 0.000000e+000
      outer loop
         vertex 2.392389e+003 1.397561e+003 2.607390e+003
         vertex 2.392389e+003 1.397561e+003 1.857390e+003
         vertex 2.392989e+003 1.398417e+003 1.857390e+003
      endloop
   endfacet
   facet normal 8.355240e-001 -5.494540e-001 0.000000e+000
      outer loop
         vertex 2.392389e+003 1.397561e+003 2.607390e+003
         vertex 2.392989e+003 1.398417e+003 1.857390e+003
         vertex 2.392989e+003 1.398417e+003 2.607390e+003
      endloop
   endfacet
   facet normal 8.936031e-001 -4.488580e-001 0.000000e+000
      outer loop
         vertex 2.392989e+003 1.398417e+003 2.607390e+003
         vertex 2.392989e+003 1.398417e+003 1.857390e+003
         vertex 2.393430e+003 1.399365e+003 1.857390e+003
      endloop
   endfacet
   facet normal 9.182422e-001 -3.960194e-001 0.000000e+000
      outer loop
         vertex 2.392989e+003 1.398417e+003 2.607390e+003
         vertex 2.393430e+003 1.399365e+003 1.857390e+003
         vertex 2.393430e+003 1.399365e+003 2.607390e+003
      endloop
   endfacet
   facet normal 9.579706e-001 -2.868663e-001 0.000000e+000
      outer loop
         vertex 2.393430e+003 1.399365e+003 2.607390e+003
         vertex 2.393430e+003 1.399365e+003 1.857390e+003
         vertex 2.393701e+003 1.400375e+003 1.857390e+003
      endloop
   endfacet
   facet normal 9.730601e-001 -2.305518e-001 0.000000e+000
      outer loop
         vertex 2.393430e+003 1.399365e+003 2.607390e+003
         vertex 2.393701e+003 1.400375e+003 1.857390e+003
         vertex 2.393701e+003 1.400375e+003 2.607390e+003
      endloop
   endfacet
   facet normal 9.932307e-001 -1.161583e-001 0.000000e+000
      outer loop
         vertex 2.393701e+003 1.400375e+003 2.607390e+003
         vertex 2.393701e+003 1.400375e+003 1.857390e+003
         vertex 2.393792e+003 1.401417e+003 1.857390e+003
      endloop
   endfacet
   facet normal 9.983120e-001 -5.807914e-002 0.000000e+000
      outer loop
         vertex 2.393701e+003 1.400375e+003 2.607390e+003
         vertex 2.393792e+003 1.401417e+003 1.857390e+003
         vertex 2.393792e+003 1.401417e+003 2.607390e+003
      endloop
   endfacet
   facet normal -9.983120e-001 -5.807914e-002 0.000000e+000
      outer loop
         vertex 2.333792e+003 1.401417e+003 2.607390e+003
         vertex 2.333792e+003 1.401417e+003 1.857390e+003
         vertex 2.333883e+003 1.400375e+003 1.857390e+003
      endloop
   endfacet
   facet normal -9.932307e-001 -1.161583e-001 0.000000e+000
      outer loop
         vertex 2.333792e+003 1.401417e+003 2.607390e+003
         vertex 2.333883e+003 1.400375e+003 1.857390e+003
         vertex 2.333883e+003 1.400375e+003 2.607390e+003
      endloop
   endfacet
   facet normal -9.730601e-001 -2.305518e-001 0.000000e+000
      outer loop
         vertex 2.333883e+003 1.400375e+003 2.607390e+003
         vertex 2.333883e+003 1.400375e+003 1.857390e+003
         vertex 2.334154e+003 1.399365e+003 1.857390e+003
      endloop
   endfacet
   facet normal -9.579706e-001 -2.868663e-001 0.000000e+000
      outer loop
         vertex 2.333883e+003 1.400375e+003 2.607390e+003
         vertex 2.334154e+003 1.399365e+003 1.857390e+003
         vertex 2.334154e+003 1.399365e+003 2.607390e+003
      endloop
   endfacet
   facet normal -9.182422e-001 -3.960194e-001 0.000000e+000
      outer loop
         vertex 2.334154e+003 1.399365e+003 2.607390e+003
         vertex 2.334154e+003 1.399365e+003 1.857390e+003
         vertex 2.334596e+003 1.398417e+003 1.857390e+003
      endloop
   endfacet
   facet normal -8.936031e-001 -4.488580e-001 0.000000e+000
      outer loop
         vertex 2.334154e+003 1.399365e+003 2.607390e+003
         vertex 2.334596e+003 1.398417e+003 1.857390e+003
         vertex 2.334596e+003 1.398417e+003 2.607390e+003
      endloop
   endfacet
   facet normal -8.355240e-001 -5.494540e-001 0.000000e+000
      outer loop
         vertex 2.334596e+003 1.398417e+003 2.607390e+003
         vertex 2.334596e+003 1.398417e+003 1.857390e+003
         vertex 2.335196e+003 1.397561e+003 1.857390e+003
      endloop
   endfacet
   facet normal -8.020839e-001 -5.972114e-001 0.000000e+000
      outer loop
         vertex 2.334596e+003 1.398417e+003 2.607390e+003
         vertex 2.335196e+003 1.397561e+003 1.857390e+003
         vertex 2.335196e+003 1.397561e+003 2.607390e+003
      endloop
   endfacet
   facet normal -7.274188e-001 -6.861938e-001 0.000000e+000
      outer loop
         vertex 2.335196e+003 1.397561e+003 2.607390e+003
         vertex 2.335196e+003 1.397561e+003 1.857390e+003
         vertex 2.335936e+003 1.396821e+003 1.857390e+003
      endloop
   endfacet
   facet normal -6.861938e-001 -7.274188e-001 0.000000e+000
      outer loop
         vertex 2.335196e+003 1.397561e+003 2.607390e+003
         vertex 2.335936e+003 1.396821e+003 1.857390e+003
         vertex 2.335936e+003 1.396821e+003 2.607390e+003
      endloop
   endfacet
   facet normal -5.972114e-001 -8.020839e-001 0.000000e+000
      outer loop
         vertex 2.335936e+003 1.396821e+003 2.607390e+003
         vertex 2.335936e+003 1.396821e+003 1.857390e+003
         vertex 2.336792e+003 1.396221e+003 1.857390e+003
      endloop
   endfacet
   facet normal -5.494540e-001 -8.355240e-001 0.000000e+000
      outer loop
         vertex 2.335936e+003 1.396821e+003 2.607390e+003
         vertex 2.336792e+003 1.396221e+003 1.857390e+003
         vertex 2.336792e+003 1.396221e+003 2.607390e+003
      endloop
   endfacet
   facet normal -4.488580e-001 -8.936031e-001 0.000000e+000
      outer loop
         vertex 2.336792e+003 1.396221e+003 2.607390e+003
         vertex 2.336792e+003 1.396221e+003 1.857390e+003
         vertex 2.337740e+003 1.395779e+003 1.857390e+003
      endloop
   endfacet
   facet normal -3.960194e-001 -9.182422e-001 0.000000e+000
      outer loop
         vertex 2.336792e+003 1.396221e+003 2.607390e+003
         vertex 2.337740e+003 1.395779e+003 1.857390e+003
         vertex 2.337740e+003 1.395779e+003 2.607390e+003
      endloop
   endfacet
   facet normal -2.868663e-001 -9.579706e-001 0.000000e+000
      outer loop
         vertex 2.337740e+003 1.395779e+003 2.607390e+003
         vertex 2.337740e+003 1.395779e+003 1.857390e+003
         vertex 2.338750e+003 1.395509e+003 1.857390e+003
      endloop
   endfacet
   facet normal -2.305518e-001 -9.730601e-001 0.000000e+000
      outer loop
         vertex 2.337740e+003 1.395779e+003 2.607390e+003
         vertex 2.338750e+003 1.395509e+003 1.857390e+003
         vertex 2.338750e+003 1.395509e+003 2.607390e+003
      endloop
   endfacet
   facet normal -1.161583e-001 -9.932307e-001 0.000000e+000
      outer loop
         vertex 2.338750e+003 1.395509e+003 2.607390e+003
         vertex 2.338750e+003 1.395509e+003 1.857390e+003
         vertex 2.339792e+003 1.395417e+003 1.857390e+003
      endloop
   endfacet
   facet normal -5.807914e-002 -9.983120e-001 0.000000e+000
      outer loop
         vertex 2.338750e+003 1.395509e+003 2.607390e+003
         vertex 2.339792e+003 1.395417e+003 1.857390e+003
         vertex 2.339792e+003 1.395417e+003 2.607390e+003
      endloop
   endfacet
   facet normal 9.983120e-001 5.807914e-002 0.000000e+000
      outer loop
         vertex 2.393792e+003 1.449417e+003 2.607390e+003
         vertex 2.393792e+003 1.449417e+003 1.857390e+003
         vertex 2.393701e+003 1.450459e+003 1.857390e+003
      endloop
   endfacet
   facet normal 9.932307e-001 1.161583e-001 0.000000e+000
      outer loop
         vertex 2.393792e+003 1.449417e+003 2.607390e+003
         vertex 2.393701e+003 1.450459e+003 1.857390e+003
         vertex 2.393701e+003 1.450459e+003 2.607390e+003
      endloop
   endfacet
   facet normal 9.730601e-001 2.305518e-001 0.000000e+000
      outer loop
         vertex 2.393701e+003 1.450459e+003 2.607390e+003
         vertex 2.393701e+003 1.450459e+003 1.857390e+003
         vertex 2.393430e+003 1.451469e+003 1.857390e+003
      endloop
   endfacet
   facet normal 9.579706e-001 2.868663e-001 0.000000e+000
      outer loop
         vertex 2.393701e+003 1.450459e+003 2.607390e+003
         vertex 2.393430e+003 1.451469e+003 1.857390e+003
         vertex 2.393430e+003 1.451469e+003 2.607390e+003
      endloop
   endfacet
   facet normal 9.182422e-001 3.960194e-001 0.000000e+000
      outer loop
         vertex 2.393430e+003 1.451469e+003 2.607390e+003
         vertex 2.393430e+003 1.451469e+003 1.857390e+003
         vertex 2.392989e+003 1.452417e+003 1.857390e+003
      endloop
   endfacet
   facet normal 8.936031e-001 4.488580e-001 0.000000e+000
      outer loop
         vertex 2.393430e+003 1.451469e+003 2.607390e+003
         vertex 2.392989e+003 1.452417e+003 1.857390e+003
         vertex 2.392989e+003 1.452417e+003 2.607390e+003
      endloop
   endfacet
   facet normal 8.355240e-001 5.494540e-001 0.000000e+000
      outer loop
         vertex 2.392989e+003 1.452417e+003 2.607390e+003
         vertex 2.392989e+003 1.452417e+003 1.857390e+003
         vertex 2.392389e+003 1.453274e+003 1.857390e+003
      endloop
   endfacet
   facet normal 8.020839e-001 5.972114e-001 0.000000e+000
      outer loop
         vertex 2.392989e+003 1.452417e+003 2.607390e+003
         vertex 2.392389e+003 1.453274e+003 1.857390e+003
         vertex 2.392389e+003 1.453274e+003 2.607390e+003
      endloop
   endfacet
   facet normal 7.274188e-001 6.861938e-001 0.000000e+000
      outer loop
         vertex 2.392389e+003 1.453274e+003 2.607390e+003
         vertex 2.392389e+003 1.453274e+003 1.857390e+003
         vertex 2.391649e+003 1.454014e+003 1.857390e+003
      endloop
   endfacet
   facet normal 6.861938e-001 7.274188e-001 0.000000e+000
      outer loop
         vertex 2.392389e+003 1.453274e+003 2.607390e+003
         vertex 2.391649e+003 1.454014e+003 1.857390e+003
         vertex 2.391649e+003 1.454014e+003 2.607390e+003
      endloop
   endfacet
   facet normal 5.972114e-001 8.020839e-001 0.000000e+000
      outer loop
         vertex 2.391649e+003 1.454014e+003 2.607390e+003
         vertex 2.391649e+003 1.454014e+003 1.857390e+003
         vertex 2.390792e+003 1.454613e+003 1.857390e+003
      endloop
   endfacet
   facet normal 5.494540e-001 8.355240e-001 0.000000e+000
      outer loop
         vertex 2.391649e+003 1.454014e+003 2.607390e+003
         vertex 2.390792e+003 1.454613e+003 1.857390e+003
         vertex 2.390792e+003 1.454613e+003 2.607390e+003
      endloop
   endfacet
   facet normal 4.488580e-001 8.936031e-001 0.000000e+000
      outer loop
         vertex 2.390792e+003 1.454613e+003 2.607390e+003
         vertex 2.390792e+003 1.454613e+003 1.857390e+003
         vertex 2.389844e+003 1.455055e+003 1.857390e+003
      endloop
   endfacet
   facet normal 3.960194e-001 9.182422e-001 0.000000e+000
      outer loop
         vertex 2.390792e+003 1.454613e+003 2.607390e+003
         vertex 2.389844e+003 1.455055e+003 1.857390e+003
         vertex 2.389844e+003 1.455055e+003 2.607390e+003
      endloop
   endfacet
   facet normal 2.868663e-001 9.579706e-001 0.000000e+000
      outer loop
         vertex 2.389844e+003 1.455055e+003 2.607390e+003
         vertex 2.389844e+003 1.455055e+003 1.857390e+003
         vertex 2.388834e+003 1.455326e+003 1.857390e+003
      endloop
   endfacet
   facet normal 2.305518e-001 9.730601e-001 0.000000e+000
      outer loop
         vertex 2.389844e+003 1.455055e+003 2.607390e+003
         vertex 2.388834e+003 1.455326e+003 1.857390e+003
         vertex 2.388834e+003 1.455326e+003 2.607390e+003
      endloop
   endfacet
   facet normal 1.161583e-001 9.932307e-001 0.000000e+000
      outer loop
         vertex 2.388834e+003 1.455326e+003 2.607390e+003
         vertex 2.388834e+003 1.455326e+003 1.857390e+003
         vertex 2.387792e+003 1.455417e+003 1.857390e+003
      endloop
   endfacet
   facet normal 5.807914e-002 9.983120e-001 0.000000e+000
      outer loop
         vertex 2.388834e+003 1.455326e+003 2.607390e+003
         vertex 2.387792e+003 1.455417e+003 1.857390e+003
         vertex 2.387792e+003 1.455417e+003 2.607390e+003
      endloop
   endfacet
   facet normal -5.807914e-002 9.983120e-001 0.000000e+000
      outer loop
         vertex 2.339792e+003 1.455417e+003 2.607390e+003
         vertex 2.339792e+003 1.455417e+003 1.857390e+003
         vertex 2.338750e+003 1.455326e+003 1.857390e+003
      endloop
   endfacet
   facet normal -1.161583e-001 9.932307e-001 0.000000e+000
      outer loop
         vertex 2.339792e+003 1.455417e+003 2.607390e+003
         vertex 2.338750e+003 1.455326e+003 1.857390e+003
         vertex 2.338750e+003 1.455326e+003 2.607390e+003
      endloop
   endfacet
   facet normal -2.305518e-001 9.730601e-001 0.000000e+000
      outer loop
         vertex 2.338750e+003 1.455326e+003 2.607390e+003
         vertex 2.338750e+003 1.455326e+003 1.857390e+003
         vertex 2.337740e+003 1.455055e+003 1.857390e+003
      endloop
   endfacet
   facet normal -2.868663e-001 9.579706e-001 0.000000e+000
      outer loop
         vertex 2.338750e+003 1.455326e+003 2.607390e+003
         vertex 2.337740e+003 1.455055e+003 1.857390e+003
         vertex 2.337740e+003 1.455055e+003 2.607390e+003
      endloop
   endfacet
   facet normal -3.960194e-001 9.182422e-001 0.000000e+000
      outer loop
         vertex 2.337740e+003 1.455055e+003 2.607390e+003
         vertex 2.337740e+003 1.455055e+003 1.857390e+003
         vertex 2.336792e+003 1.454613e+003 1.857390e+003
      endloop
   endfacet
   facet normal -4.488580e-001 8.936031e-001 0.000000e+000
      outer loop
         vertex 2.337740e+003 1.455055e+003 2.607390e+003
         vertex 2.336792e+003 1.454613e+003 1.857390e+003
         vertex 2.336792e+003 1.454613e+003 2.607390e+003
      endloop
   endfacet
   facet normal -5.494540e-001 8.355240e-001 0.000000e+000
      outer loop
         vertex 2.336792e+003 1.454613e+003 2.607390e+003
         vertex 2.336792e+003 1.454613e+003 1.857390e+003
         vertex 2.335936e+003 1.454014e+003 1.857390e+003
      endloop
   endfacet
   facet normal -5.972114e-001 8.020839e-001 0.000000e+000
      outer loop
         vertex 2.336792e+003 1.454613e+003 2.607390e+003
         vertex 2.335936e+003 1.454014e+003 1.857390e+003
         vertex 2.335936e+003 1.454014e+003 2.607390e+003
      endloop
   endfacet
   facet normal -6.861938e-001 7.274188e-001 0.000000e+000
      outer loop
         vertex 2.335936e+003 1.454014e+003 2.607390e+003
         vertex 2.335936e+003 1.454014e+003 1.857390e+003
         vertex 2.335196e+003 1.453274e+003 1.857390e+003
      endloop
   endfacet
   facet normal -7.274188e-001 6.861938e-001 0.000000e+000
      outer loop
         vertex 2.335936e+003 1.454014e+003 2.607390e+003
         vertex 2.335196e+003 1.453274e+003 1.857390e+003
         vertex 2.335196e+003 1.453274e+003 2.607390e+003
      endloop
   endfacet
   facet normal -8.020839e-001 5.972114e-001 0.000000e+000
      outer loop
         vertex 2.335196e+003 1.453274e+003 2.607390e+003
         vertex 2.335196e+003 1.453274e+003 1.857390e+003
         vertex 2.334596e+003 1.452417e+003 1.857390e+003
      endloop
   endfacet
   facet normal -8.355240e-001 5.494540e-001 0.000000e+000
      outer loop
         vertex 2.335196e+003 1.453274e+003 2.607390e+003
         vertex 2.334596e+003 1.452417e+003 1.857390e+003
         vertex 2.334596e+003 1.452417e+003 2.607390e+003
      endloop
   endfacet
   facet normal -8.936031e-001 4.488580e-001 0.000000e+000
      outer loop
         vertex 2.334596e+003 1.452417e+003 2.607390e+003
         vertex 2.334596e+003 1.452417e+003 1.857390e+003
         vertex 2.334154e+003 1.451469e+003 1.857390e+003
      endloop
   endfacet
   facet normal -9.182422e-001 3.960194e-001 0.000000e+000
      outer loop
         vertex 2.334596e+003 1.452417e+003 2.607390e+003
         vertex 2.334154e+003 1.451469e+003 1.857390e+003
         vertex 2.334154e+003 1.451469e+003 2.607390e+003
      endloop
   endfacet
   facet normal -9.579706e-001 2.868663e-001 0.000000e+000
      outer loop
         vertex 2.334154e+003 1.451469e+003 2.607390e+003
         vertex 2.334154e+003 1.451469e+003 1.857390e+003
         vertex 2.333883e+003 1.450459e+003 1.857390e+003
      endloop
   endfacet
   facet normal -9.730601e-001 2.305518e-001 0.000000e+000
      outer loop
         vertex 2.334154e+003 1.451469e+003 2.607390e+003
         vertex 2.333883e+003 1.450459e+003 1.857390e+003
         vertex 2.333883e+003 1.450459e+003 2.607390e+003
      endloop
   endfacet
   facet normal -9.932307e-001 1.161583e-001 0.000000e+000
      outer loop
         vertex 2.333883e+003 1.450459e+003 2.607390e+003
         vertex 2.333883e+003 1.450459e+003 1.857390e+003
         vertex 2.333792e+003 1.449417e+003 1.857390e+003
      endloop
   endfacet
   facet normal -9.983120e-001 5.807914e-002 0.000000e+000
      outer loop
         vertex 2.333883e+003 1.450459e+003 2.607390e+003
         vertex 2.333792e+003 1.449417e+003 1.857390e+003
         vertex 2.333792e+003 1.449417e+003 2.607390e+003
      endloop
   endfacet
   facet normal 0.000000e+000 1.000000e+000 0.000000e+000
      outer loop
         vertex 2.339792e+003 1.400417e+003 2.607390e+003
         vertex 2.387792e+003 1.400417e+003 2.607390e+003
         vertex 2.339792e+003 1.400417e+003 1.857390e+003
      endloop
   endfacet
   facet normal 0.000000e+000 1.000000e+000 0.000000e+000
      outer loop
         vertex 2.339792e+003 1.400417e+003 1.857390e+003
         vertex 2.387792e+003 1.400417e+003 2.607390e+003
         vertex 2.387792e+003 1.400417e+003 1.857390e+003
      endloop
   endfacet
   facet normal -1.000000e+000 -3.469447e-016 0.000000e+000
      outer loop
         vertex 2.388792e+003 1.449417e+003 1.857390e+003
         vertex 2.388792e+003 1.401417e+003 1.857390e+003
         vertex 2.388792e+003 1.449417e+003 2.607390e+003
      endloop
   endfacet
   facet normal -1.000000e+000 -3.469447e-016 0.000000e+000
      outer loop
         vertex 2.388792e+003 1.449417e+003 2.607390e+003
         vertex 2.388792e+003 1.401417e+003 1.857390e+003
         vertex 2.388792e+003 1.401417e+003 2.607390e+003
      endloop
   endfacet
   facet normal 0.000000e+000 -1.000000e+000 0.000000e+000
      outer loop
         vertex 2.339792e+003 1.450417e+003 1.857390e+003
         vertex 2.387792e+003 1.450417e+003 1.857390e+003
         vertex 2.339792e+003 1.450417e+003 2.607390e+003
      endloop
   endfacet
   facet normal 0.000000e+000 -1.000000e+000 0.000000e+000
      outer loop
         vertex 2.339792e+003 1.450417e+003 2.607390e+003
         vertex 2.387792e+003 1.450417e+003 1.857390e+003
         vertex 2.387792e+003 1.450417e+003 2.607390e+003
      endloop
   endfacet
   facet normal 1.000000e+000 0.000000e+000 0.000000e+000
      outer loop
         vertex 2.338792e+003 1.449417e+003 2.607390e+003
         vertex 2.338792e+003 1.401417e+003 2.607390e+003
         vertex 2.338792e+003 1.449417e+003 1.857390e+003
      endloop
   endfacet
   facet normal 1.000000e+000 0.000000e+000 0.000000e+000
      outer loop
         vertex 2.338792e+003 1.449417e+003 1.857390e+003
         vertex 2.338792e+003 1.401417e+003 2.607390e+003
         vertex 2.338792e+003 1.401417e+003 1.857390e+003
      endloop
   endfacet
   facet normal -9.983120e-001 5.807914e-002 0.000000e+000
      outer loop
         vertex 2.388792e+003 1.401417e+003 2.607390e+003
         vertex 2.388792e+003 1.401417e+003 1.857390e+003
         vertex 2.388777e+003 1.401244e+003 1.857390e+003
      endloop
   endfacet
   facet normal -9.932307e-001 1.161583e-001 0.000000e+000
      outer loop
         vertex 2.388792e+003 1.401417e+003 2.607390e+003
         vertex 2.388777e+003 1.401244e+003 1.857390e+003
         vertex 2.388777e+003 1.401244e+003 2.607390e+003
      endloop
   endfacet
   facet normal -9.730601e-001 2.305518e-001 0.000000e+000
      outer loop
         vertex 2.388777e+003 1.401244e+003 2.607390e+003
         vertex 2.388777e+003 1.401244e+003 1.857390e+003
         vertex 2.388732e+003 1.401075e+003 1.857390e+003
      endloop
   endfacet
   facet normal -9.579706e-001 2.868663e-001 0.000000e+000
      outer loop
         vertex 2.388777e+003 1.401244e+003 2.607390e+003
         vertex 2.388732e+003 1.401075e+003 1.857390e+003
         vertex 2.388732e+003 1.401075e+003 2.607390e+003
      endloop
   endfacet
   facet normal -9.182422e-001 3.960194e-001 0.000000e+000
      outer loop
         vertex 2.388732e+003 1.401075e+003 2.607390e+003
         vertex 2.388732e+003 1.401075e+003 1.857390e+003
         vertex 2.388658e+003 1.400917e+003 1.857390e+003
      endloop
   endfacet
   facet normal -8.936031e-001 4.488580e-001 0.000000e+000
      outer loop
         vertex 2.388732e+003 1.401075e+003 2.607390e+003
         vertex 2.388658e+003 1.400917e+003 1.857390e+003
         vertex 2.388658e+003 1.400917e+003 2.607390e+003
      endloop
   endfacet
   facet normal -8.355240e-001 5.494540e-001 0.000000e+000
      outer loop
         vertex 2.388658e+003 1.400917e+003 2.607390e+003
         vertex 2.388658e+003 1.400917e+003 1.857390e+003
         vertex 2.388558e+003 1.400775e+003 1.857390e+003
      endloop
   endfacet
   facet normal -8.020839e-001 5.972114e-001 0.000000e+000
      outer loop
         vertex 2.388658e+003 1.400917e+003 2.607390e+003
         vertex 2.388558e+003 1.400775e+003 1.857390e+003
         vertex 2.388558e+003 1.400775e+003 2.607390e+003
      endloop
   endfacet
   facet normal -7.274188e-001 6.861938e-001 0.000000e+000
      outer loop
         vertex 2.388558e+003 1.400775e+003 2.607390e+003
         vertex 2.388558e+003 1.400775e+003 1.857390e+003
         vertex 2.388435e+003 1.400651e+003 1.857390e+003
      endloop
   endfacet
   facet normal -6.861938e-001 7.274188e-001 0.000000e+000
      outer loop
         vertex 2.388558e+003 1.400775e+003 2.607390e+003
         vertex 2.388435e+003 1.400651e+003 1.857390e+003
         vertex 2.388435e+003 1.400651e+003 2.607390e+003
      endloop
   endfacet
   facet normal -5.972114e-001 8.020839e-001 0.000000e+000
      outer loop
         vertex 2.388435e+003 1.400651e+003 2.607390e+003
         vertex 2.388435e+003 1.400651e+003 1.857390e+003
         vertex 2.388292e+003 1.400551e+003 1.857390e+003
      endloop
   endfacet
   facet normal -5.494540e-001 8.355240e-001 0.000000e+000
      outer loop
         vertex 2.388435e+003 1.400651e+003 2.607390e+003
         vertex 2.388292e+003 1.400551e+003 1.857390e+003
         vertex 2.388292e+003 1.400551e+003 2.607390e+003
      endloop
   endfacet
   facet normal -4.488580e-001 8.936031e-001 0.000000e+000
      outer loop
         vertex 2.388292e+003 1.400551e+003 2.607390e+003
         vertex 2.388292e+003 1.400551e+003 1.857390e+003
         vertex 2.388134e+003 1.400478e+003 1.857390e+003
      endloop
   endfacet
   facet normal -3.960194e-001 9.182422e-001 0.000000e+000
      outer loop
         vertex 2.388292e+003 1.400551e+003 2.607390e+003
         vertex 2.388134e+003 1.400478e+003 1.857390e+003
         vertex 2.388134e+003 1.400478e+003 2.607390e+003
      endloop
   endfacet
   facet normal -2.868663e-001 9.579706e-001 0.000000e+000
      outer loop
         vertex 2.388134e+003 1.400478e+003 2.607390e+003
         vertex 2.388134e+003 1.400478e+003 1.857390e+003
         vertex 2.387966e+003 1.400432e+003 1.857390e+003
      endloop
   endfacet
   facet normal -2.305518e-001 9.730601e-001 0.000000e+000
      outer loop
         vertex 2.388134e+003 1.400478e+003 2.607390e+003
         vertex 2.387966e+003 1.400432e+003 1.857390e+003
         vertex 2.387966e+003 1.400432e+003 2.607390e+003
      endloop
   endfacet
   facet normal -1.161583e-001 9.932307e-001 0.000000e+000
      outer loop
         vertex 2.387966e+003 1.400432e+003 2.607390e+003
         vertex 2.387966e+003 1.400432e+003 1.857390e+003
         vertex 2.387792e+003 1.400417e+003 1.857390e+003
      endloop
   endfacet
   facet normal -5.807914e-002 9.983120e-001 0.000000e+000
      outer loop
         vertex 2.387966e+003 1.400432e+003 2.607390e+003
         vertex 2.387792e+003 1.400417e+003 1.857390e+003
         vertex 2.387792e+003 1.400417e+003 2.607390e+003
      endloop
   endfacet
   facet normal 5.807914e-002 9.983120e-001 0.000000e+000
      outer loop
         vertex 2.339792e+003 1.400417e+003 2.607390e+003
         vertex 2.339792e+003 1.400417e+003 1.857390e+003
         vertex 2.339618e+003 1.400432e+003 1.857390e+003
      endloop
   endfacet
   facet normal 1.161583e-001 9.932307e-001 0.000000e+000
      outer loop
         vertex 2.339792e+003 1.400417e+003 2.607390e+003
         vertex 2.339618e+003 1.400432e+003 1.857390e+003
         vertex 2.339618e+003 1.400432e+003 2.607390e+003
      endloop
   endfacet
   facet normal 2.305518e-001 9.730601e-001 0.000000e+000
      outer loop
         vertex 2.339618e+003 1.400432e+003 2.607390e+003
         vertex 2.339618e+003 1.400432e+003 1.857390e+003
         vertex 2.339450e+003 1.400478e+003 1.857390e+003
      endloop
   endfacet
   facet normal 2.868663e-001 9.579706e-001 0.000000e+000
      outer loop
         vertex 2.339618e+003 1.400432e+003 2.607390e+003
         vertex 2.339450e+003 1.400478e+003 1.857390e+003
         vertex 2.339450e+003 1.400478e+003 2.607390e+003
      endloop
   endfacet
   facet normal 3.960194e-001 9.182422e-001 0.000000e+000
      outer loop
         vertex 2.339450e+003 1.400478e+003 2.607390e+003
         vertex 2.339450e+003 1.400478e+003 1.857390e+003
         vertex 2.339292e+003 1.400551e+003 1.857390e+003
      endloop
   endfacet
   facet normal 4.488580e-001 8.936031e-001 0.000000e+000
      outer loop
         vertex 2.339450e+003 1.400478e+003 2.607390e+003
         vertex 2.339292e+003 1.400551e+003 1.857390e+003
         vertex 2.339292e+003 1.400551e+003 2.607390e+003
      endloop
   endfacet
   facet normal 5.494540e-001 8.355240e-001 0.000000e+000
      outer loop
         vertex 2.339292e+003 1.400551e+003 2.607390e+003
         vertex 2.339292e+003 1.400551e+003 1.857390e+003
         vertex 2.339149e+003 1.400651e+003 1.857390e+003
      endloop
   endfacet
   facet normal 5.972114e-001 8.020839e-001 0.000000e+000
      outer loop
         vertex 2.339292e+003 1.400551e+003 2.607390e+003
         vertex 2.339149e+003 1.400651e+003 1.857390e+003
         vertex 2.339149e+003 1.400651e+003 2.607390e+003
      endloop
   endfacet
   facet normal 6.861938e-001 7.274188e-001 0.000000e+000
      outer loop
         vertex 2.339149e+003 1.400651e+003 2.607390e+003
         vertex 2.339149e+003 1.400651e+003 1.857390e+003
         vertex 2.339026e+003 1.400775e+003 1.857390e+003
      endloop
   endfacet
   facet normal 7.274188e-001 6.861938e-001 0.000000e+000
      outer loop
         vertex 2.339149e+003 1.400651e+003 2.607390e+003
         vertex 2.339026e+003 1.400775e+003 1.857390e+003
         vertex 2.339026e+003 1.400775e+003 2.607390e+003
      endloop
   endfacet
   facet normal 8.020839e-001 5.972114e-001 0.000000e+000
      outer loop
         vertex 2.339026e+003 1.400775e+003 2.607390e+003
         vertex 2.339026e+003 1.400775e+003 1.857390e+003
         vertex 2.338926e+003 1.400917e+003 1.857390e+003
      endloop
   endfacet
   facet normal 8.355240e-001 5.494540e-001 0.000000e+000
      outer loop
         vertex 2.339026e+003 1.400775e+003 2.607390e+003
         vertex 2.338926e+003 1.400917e+003 1.857390e+003
         vertex 2.338926e+003 1.400917e+003 2.607390e+003
      endloop
   endfacet
   facet normal 8.936031e-001 4.488580e-001 0.000000e+000
      outer loop
         vertex 2.338926e+003 1.400917e+003 2.607390e+003
         vertex 2.338926e+003 1.400917e+003 1.857390e+003
         vertex 2.338852e+003 1.401075e+003 1.857390e+003
      endloop
   endfacet
   facet normal 9.182422e-001 3.960194e-001 0.000000e+000
      outer loop
         vertex 2.338926e+003 1.400917e+003 2.607390e+003
         vertex 2.338852e+003 1.401075e+003 1.857390e+003
         vertex 2.338852e+003 1.401075e+003 2.607390e+003
      endloop
   endfacet
   facet normal 9.579706e-001 2.868663e-001 0.000000e+000
      outer loop
         vertex 2.338852e+003 1.401075e+003 2.607390e+003
         vertex 2.338852e+003 1.401075e+003 1.857390e+003
         vertex 2.338807e+003 1.401244e+003 1.857390e+003
      endloop
   endfacet
   facet normal 9.730601e-001 2.305518e-001 0.000000e+000
      outer loop
         vertex 2.338852e+003 1.401075e+003 2.607390e+003
         vertex 2.338807e+003 1.401244e+003 1.857390e+003
         vertex 2.338807e+003 1.401244e+003 2.607390e+003
      endloop
   endfacet
   facet normal 9.932307e-001 1.161583e-001 0.000000e+000
      outer loop
         vertex 2.338807e+003 1.401244e+003 2.607390e+003
         vertex 2.338807e+003 1.401244e+003 1.857390e+003
         vertex 2.338792e+003 1.401417e+003 1.857390e+003
      endloop
   endfacet
   facet normal 9.983120e-001 5.807914e-002 0.000000e+000
      outer loop
         vertex 2.338807e+003 1.401244e+003 2.607390e+003
         vertex 2.338792e+003 1.401417e+003 1.857390e+003
         vertex 2.338792e+003 1.401417e+003 2.607390e+003
      endloop
   endfacet
   facet normal -5.228807e-002 -9.986320e-001 0.000000e+000
      outer loop
         vertex 2.387792e+003 1.450417e+003 2.607390e+003
         vertex 2.387792e+003 1.450417e+003 1.857390e+003
         vertex 2.387949e+003 1.450405e+003 1.857390e+003
      endloop
   endfacet
   facet normal -1.045761e-001 -9.945169e-001 0.000000e+000
      outer loop
         vertex 2.387792e+003 1.450417e+003 2.607390e+003
         vertex 2.387949e+003 1.450405e+003 1.857390e+003
         vertex 2.387949e+003 1.450405e+003 2.607390e+003
      endloop
   endfacet
   facet normal -2.078648e-001 -9.781576e-001 0.000000e+000
      outer loop
         vertex 2.387949e+003 1.450405e+003 2.607390e+003
         vertex 2.387949e+003 1.450405e+003 1.857390e+003
         vertex 2.388101e+003 1.450368e+003 1.857390e+003
      endloop
   endfacet
   facet normal -2.588654e-001 -9.659134e-001 0.000000e+000
      outer loop
         vertex 2.387949e+003 1.450405e+003 2.607390e+003
         vertex 2.388101e+003 1.450368e+003 1.857390e+003
         vertex 2.388101e+003 1.450368e+003 2.607390e+003
      endloop
   endfacet
   facet normal -3.583232e-001 -9.335976e-001 0.000000e+000
      outer loop
         vertex 2.388101e+003 1.450368e+003 2.607390e+003
         vertex 2.388101e+003 1.450368e+003 1.857390e+003
         vertex 2.388246e+003 1.450308e+003 1.857390e+003
      endloop
   endfacet
   facet normal -4.067805e-001 -9.135259e-001 0.000000e+000
      outer loop
         vertex 2.388101e+003 1.450368e+003 2.607390e+003
         vertex 2.388246e+003 1.450308e+003 1.857390e+003
         vertex 2.388246e+003 1.450308e+003 2.607390e+003
      endloop
   endfacet
   facet normal -4.999585e-001 -8.660493e-001 0.000000e+000
      outer loop
         vertex 2.388246e+003 1.450308e+003 2.607390e+003
         vertex 2.388246e+003 1.450308e+003 1.857390e+003
         vertex 2.388380e+003 1.450226e+003 1.857390e+003
      endloop
   endfacet
   facet normal -5.446792e-001 -8.386444e-001 0.000000e+000
      outer loop
         vertex 2.388246e+003 1.450308e+003 2.607390e+003
         vertex 2.388380e+003 1.450226e+003 1.857390e+003
         vertex 2.388380e+003 1.450226e+003 2.607390e+003
      endloop
   endfacet
   facet normal -6.292831e-001 -7.771761e-001 0.000000e+000
      outer loop
         vertex 2.388380e+003 1.450226e+003 2.607390e+003
         vertex 2.388380e+003 1.450226e+003 1.857390e+003
         vertex 2.388499e+003 1.450124e+003 1.857390e+003
      endloop
   endfacet
   facet normal -6.691663e-001 -7.431127e-001 0.000000e+000
      outer loop
         vertex 2.388380e+003 1.450226e+003 2.607390e+003
         vertex 2.388499e+003 1.450124e+003 1.857390e+003
         vertex 2.388499e+003 1.450124e+003 2.607390e+003
      endloop
   endfacet
   facet normal -7.431127e-001 -6.691663e-001 0.000000e+000
      outer loop
         vertex 2.388499e+003 1.450124e+003 2.607390e+003
         vertex 2.388499e+003 1.450124e+003 1.857390e+003
         vertex 2.388601e+003 1.450005e+003 1.857390e+003
      endloop
   endfacet
   facet normal -7.771761e-001 -6.292831e-001 0.000000e+000
      outer loop
         vertex 2.388499e+003 1.450124e+003 2.607390e+003
         vertex 2.388601e+003 1.450005e+003 1.857390e+003
         vertex 2.388601e+003 1.450005e+003 2.607390e+003
      endloop
   endfacet
   facet normal -8.386444e-001 -5.446792e-001 0.000000e+000
      outer loop
         vertex 2.388601e+003 1.450005e+003 2.607390e+003
         vertex 2.388601e+003 1.450005e+003 1.857390e+003
         vertex 2.388683e+003 1.449871e+003 1.857390e+003
      endloop
   endfacet
   facet normal -8.660493e-001 -4.999585e-001 0.000000e+000
      outer loop
         vertex 2.388601e+003 1.450005e+003 2.607390e+003
         vertex 2.388683e+003 1.449871e+003 1.857390e+003
         vertex 2.388683e+003 1.449871e+003 2.607390e+003
      endloop
   endfacet
   facet normal -9.135259e-001 -4.067805e-001 0.000000e+000
      outer loop
         vertex 2.388683e+003 1.449871e+003 2.607390e+003
         vertex 2.388683e+003 1.449871e+003 1.857390e+003
         vertex 2.388743e+003 1.449726e+003 1.857390e+003
      endloop
   endfacet
   facet normal -9.335976e-001 -3.583232e-001 0.000000e+000
      outer loop
         vertex 2.388683e+003 1.449871e+003 2.607390e+003
         vertex 2.388743e+003 1.449726e+003 1.857390e+003
         vertex 2.388743e+003 1.449726e+003 2.607390e+003
      endloop
   endfacet
   facet normal -9.659134e-001 -2.588654e-001 0.000000e+000
      outer loop
         vertex 2.388743e+003 1.449726e+003 2.607390e+003
         vertex 2.388743e+003 1.449726e+003 1.857390e+003
         vertex 2.388780e+003 1.449574e+003 1.857390e+003
      endloop
   endfacet
   facet normal -9.781576e-001 -2.078648e-001 0.000000e+000
      outer loop
         vertex 2.388743e+003 1.449726e+003 2.607390e+003
         vertex 2.388780e+003 1.449574e+003 1.857390e+003
         vertex 2.388780e+003 1.449574e+003 2.607390e+003
      endloop
   endfacet
   facet normal -9.945169e-001 -1.045761e-001 0.000000e+000
      outer loop
         vertex 2.388780e+003 1.449574e+003 2.607390e+003
         vertex 2.388780e+003 1.449574e+003 1.857390e+003
         vertex 2.388792e+003 1.449417e+003 1.857390e+003
      endloop
   endfacet
   facet normal -9.986320e-001 -5.228807e-002 0.000000e+000
      outer loop
         vertex 2.388780e+003 1.449574e+003 2.607390e+003
         vertex 2.388792e+003 1.449417e+003 1.857390e+003
         vertex 2.388792e+003 1.449417e+003 2.607390e+003
      endloop
   endfacet
   facet normal 9.983120e-001 -5.807914e-002 0.000000e+000
      outer loop
         vertex 2.338792e+003 1.449417e+003 2.607390e+003
         vertex 2.338792e+003 1.449417e+003 1.857390e+003
         vertex 2.338807e+003 1.449591e+003 1.857390e+003
      endloop
   endfacet
   facet normal 9.932307e-001 -1.161583e-001 0.000000e+000
      outer loop
         vertex 2.338792e+003 1.449417e+003 2.607390e+003
         vertex 2.338807e+003 1.449591e+003 1.857390e+003
         vertex 2.338807e+003 1.449591e+003 2.607390e+003
      endloop
   endfacet
   facet normal 9.730601e-001 -2.305518e-001 0.000000e+000
      outer loop
         vertex 2.338807e+003 1.449591e+003 2.607390e+003
         vertex 2.338807e+003 1.449591e+003 1.857390e+003
         vertex 2.338852e+003 1.449759e+003 1.857390e+003
      endloop
   endfacet
   facet normal 9.579706e-001 -2.868663e-001 0.000000e+000
      outer loop
         vertex 2.338807e+003 1.449591e+003 2.607390e+003
         vertex 2.338852e+003 1.449759e+003 1.857390e+003
         vertex 2.338852e+003 1.449759e+003 2.607390e+003
      endloop
   endfacet
   facet normal 9.182422e-001 -3.960194e-001 0.000000e+000
      outer loop
         vertex 2.338852e+003 1.449759e+003 2.607390e+003
         vertex 2.338852e+003 1.449759e+003 1.857390e+003
         vertex 2.338926e+003 1.449917e+003 1.857390e+003
      endloop
   endfacet
   facet normal 8.936031e-001 -4.488580e-001 0.000000e+000
      outer loop
         vertex 2.338852e+003 1.449759e+003 2.607390e+003
         vertex 2.338926e+003 1.449917e+003 1.857390e+003
         vertex 2.338926e+003 1.449917e+003 2.607390e+003
      endloop
   endfacet
   facet normal 8.355240e-001 -5.494540e-001 0.000000e+000
      outer loop
         vertex 2.338926e+003 1.449917e+003 2.607390e+003
         vertex 2.338926e+003 1.449917e+003 1.857390e+003
         vertex 2.339026e+003 1.450060e+003 1.857390e+003
      endloop
   endfacet
   facet normal 8.020839e-001 -5.972114e-001 0.000000e+000
      outer loop
         vertex 2.338926e+003 1.449917e+003 2.607390e+003
         vertex 2.339026e+003 1.450060e+003 1.857390e+003
         vertex 2.339026e+003 1.450060e+003 2.607390e+003
      endloop
   endfacet
   facet normal 7.274188e-001 -6.861938e-001 0.000000e+000
      outer loop
         vertex 2.339026e+003 1.450060e+003 2.607390e+003
         vertex 2.339026e+003 1.450060e+003 1.857390e+003
         vertex 2.339149e+003 1.450183e+003 1.857390e+003
      endloop
   endfacet
   facet normal 6.861938e-001 -7.274188e-001 0.000000e+000
      outer loop
         vertex 2.339026e+003 1.450060e+003 2.607390e+003
         vertex 2.339149e+003 1.450183e+003 1.857390e+003
         vertex 2.339149e+003 1.450183e+003 2.607390e+003
      endloop
   endfacet
   facet normal 5.972114e-001 -8.020839e-001 0.000000e+000
      outer loop
         vertex 2.339149e+003 1.450183e+003 2.607390e+003
         vertex 2.339149e+003 1.450183e+003 1.857390e+003
         vertex 2.339292e+003 1.450283e+003 1.857390e+003
      endloop
   endfacet
   facet normal 5.494540e-001 -8.355240e-001 0.000000e+000
      outer loop
         vertex 2.339149e+003 1.450183e+003 2.607390e+003
         vertex 2.339292e+003 1.450283e+003 1.857390e+003
         vertex 2.339292e+003 1.450283e+003 2.607390e+003
      endloop
   endfacet
   facet normal 4.488580e-001 -8.936031e-001 0.000000e+000
      outer loop
         vertex 2.339292e+003 1.450283e+003 2.607390e+003
         vertex 2.339292e+003 1.450283e+003 1.857390e+003
         vertex 2.339450e+003 1.450357e+003 1.857390e+003
      endloop
   endfacet
   facet normal 3.960194e-001 -9.182422e-001 0.000000e+000
      outer loop
         vertex 2.339292e+003 1.450283e+003 2.607390e+003
         vertex 2.339450e+003 1.450357e+003 1.857390e+003
         vertex 2.339450e+003 1.450357e+003 2.607390e+003
      endloop
   endfacet
   facet normal 2.868663e-001 -9.579706e-001 0.000000e+000
      outer loop
         vertex 2.339450e+003 1.450357e+003 2.607390e+003
         vertex 2.339450e+003 1.450357e+003 1.857390e+003
         vertex 2.339618e+003 1.450402e+003 1.857390e+003
      endloop
   endfacet
   facet normal 2.305518e-001 -9.730601e-001 0.000000e+000
      outer loop
         vertex 2.339450e+003 1.450357e+003 2.607390e+003
         vertex 2.339618e+003 1.450402e+003 1.857390e+003
         vertex 2.339618e+003 1.450402e+003 2.607390e+003
      endloop
   endfacet
   facet normal 1.161583e-001 -9.932307e-001 0.000000e+000
      outer loop
         vertex 2.339618e+003 1.450402e+003 2.607390e+003
         vertex 2.339618e+003 1.450402e+003 1.857390e+003
         vertex 2.339792e+003 1.450417e+003 1.857390e+003
      endloop
   endfacet
   facet normal 5.807914e-002 -9.983120e-001 0.000000e+000
      outer loop
         vertex 2.339618e+003 1.450402e+003 2.607390e+003
         vertex 2.339792e+003 1.450417e+003 1.857390e+003
         vertex 2.339792e+003 1.450417e+003 2.607390e+003
      endloop
   endfacet
endsolid