solid 09.025.00.00.000 - 09.025.00.01.000-1 09.025.00.01.001-1 09.025.00.01.0AA-3
   facet normal 2.689313e-017 1.283282e-017 1.000000e+000
      outer loop
         vertex 8.789012e+002 1.449871e+003 2.607390e+003
         vertex 8.789832e+002 1.450005e+003 2.607390e+003
         vertex 8.751959e+002 1.453274e+003 2.607390e+003
      endloop
   endfacet
   facet normal 2.689313e-017 1.283282e-017 1.000000e+000
      outer loop
         vertex 8.751959e+002 1.453274e+003 2.607390e+003
         vertex 8.789832e+002 1.450005e+003 2.607390e+003
         vertex 8.790851e+002 1.450124e+003 2.607390e+003
      endloop
   endfacet
   facet normal 2.689313e-017 1.283282e-017 1.000000e+000
      outer loop
         vertex 8.751959e+002 1.453274e+003 2.607390e+003
         vertex 8.790851e+002 1.450124e+003 2.607390e+003
         vertex 8.759355e+002 1.454014e+003 2.607390e+003
      endloop
   endfacet
   facet normal 2.689313e-017 1.283282e-017 1.000000e+000
      outer loop
         vertex 8.759355e+002 1.454014e+003 2.607390e+003
         vertex 8.790851e+002 1.450124e+003 2.607390e+003
         vertex 8.792045e+002 1.450226e+003 2.607390e+003
      endloop
   endfacet
   facet normal 2.689313e-017 1.283282e-017 1.000000e+000
      outer loop
         vertex 8.759355e+002 1.454014e+003 2.607390e+003
         vertex 8.792045e+002 1.450226e+003 2.607390e+003
         vertex 8.767922e+002 1.454613e+003 2.607390e+003
      endloop
   endfacet
   facet normal 2.689313e-017 1.283282e-017 1.000000e+000
      outer loop
         vertex 8.767922e+002 1.454613e+003 2.607390e+003
         vertex 8.792045e+002 1.450226e+003 2.607390e+003
         vertex 8.793382e+002 1.450308e+003 2.607390e+003
      endloop
   endfacet
   facet normal 2.689313e-017 1.283282e-017 1.000000e+000
      outer loop
         vertex 8.767922e+002 1.454613e+003 2.607390e+003
         vertex 8.793382e+002 1.450308e+003 2.607390e+003
         vertex 8.777401e+002 1.455055e+003 2.607390e+003
      endloop
   endfacet
   facet normal 2.689313e-017 1.283282e-017 1.000000e+000
      outer loop
         vertex 8.777401e+002 1.455055e+003 2.607390e+003
         vertex 8.793382e+002 1.450308e+003 2.607390e+003
         vertex 8.794832e+002 1.450368e+003 2.607390e+003
      endloop
   endfacet
   facet normal 2.689313e-017 1.283282e-017 1.000000e+000
      outer loop
         vertex 8.777401e+002 1.455055e+003 2.607390e+003
         vertex 8.794832e+002 1.450368e+003 2.607390e+003
         vertex 8.787503e+002 1.455326e+003 2.607390e+003
      endloop
   endfacet
   facet normal 2.689313e-017 1.283282e-017 1.000000e+000
      outer loop
         vertex 8.787503e+002 1.455326e+003 2.607390e+003
         vertex 8.794832e+002 1.450368e+003 2.607390e+003
         vertex 8.796357e+002 1.450405e+003 2.607390e+003
      endloop
   endfacet
   facet normal 2.689313e-017 1.283282e-017 1.000000e+000
      outer loop
         vertex 8.787503e+002 1.455326e+003 2.607390e+003
         vertex 8.796357e+002 1.450405e+003 2.607390e+003
         vertex 8.797922e+002 1.455417e+003 2.607390e+003
      endloop
   endfacet
   facet normal 2.689313e-017 1.283282e-017 1.000000e+000
      outer loop
         vertex 8.797922e+002 1.455417e+003 2.607390e+003
         vertex 8.796357e+002 1.450405e+003 2.607390e+003
         vertex 8.797922e+002 1.450417e+003 2.607390e+003
      endloop
   endfacet
   facet normal 2.689313e-017 1.283282e-017 1.000000e+000
      outer loop
         vertex 8.797922e+002 1.455417e+003 2.607390e+003
         vertex 8.797922e+002 1.450417e+003 2.607390e+003
         vertex 9.277922e+002 1.455417e+003 2.607390e+003
      endloop
   endfacet
   facet normal 2.689313e-017 1.283282e-017 1.000000e+000
      outer loop
         vertex 9.277922e+002 1.455417e+003 2.607390e+003
         vertex 8.797922e+002 1.450417e+003 2.607390e+003
         vertex 9.277922e+002 1.450417e+003 2.607390e+003
      endloop
   endfacet
   facet normal 2.689313e-017 1.283282e-017 1.000000e+000
      outer loop
         vertex 9.277922e+002 1.455417e+003 2.607390e+003
         vertex 9.277922e+002 1.450417e+003 2.607390e+003
         vertex 9.288341e+002 1.455326e+003 2.607390e+003
      endloop
   endfacet
   facet normal 2.689313e-017 1.283282e-017 1.000000e+000
      outer loop
         vertex 9.288341e+002 1.455326e+003 2.607390e+003
         vertex 9.277922e+002 1.450417e+003 2.607390e+003
         vertex 9.279659e+002 1.450402e+003 2.607390e+003
      endloop
   endfacet
   facet normal 2.689313e-017 1.283282e-017 1.000000e+000
      outer loop
         vertex 9.288341e+002 1.455326e+003 2.607390e+003
         vertex 9.279659e+002 1.450402e+003 2.607390e+003
         vertex 9.298443e+002 1.455055e+003 2.607390e+003
      endloop
   endfacet
   facet normal 2.689313e-017 1.283282e-017 1.000000e+000
      outer loop
         vertex 9.298443e+002 1.455055e+003 2.607390e+003
         vertex 9.279659e+002 1.450402e+003 2.607390e+003
         vertex 9.281342e+002 1.450357e+003 2.607390e+003
      endloop
   endfacet
   facet normal 2.689313e-017 1.283282e-017 1.000000e+000
      outer loop
         vertex 9.298443e+002 1.455055e+003 2.607390e+003
         vertex 9.281342e+002 1.450357e+003 2.607390e+003
         vertex 9.307922e+002 1.454613e+003 2.607390e+003
      endloop
   endfacet
   facet normal 2.689313e-017 1.283282e-017 1.000000e+000
      outer loop
         vertex 9.307922e+002 1.454613e+003 2.607390e+003
         vertex 9.281342e+002 1.450357e+003 2.607390e+003
         vertex 9.282922e+002 1.450283e+003 2.607390e+003
      endloop
   endfacet
   facet normal 2.689313e-017 1.283282e-017 1.000000e+000
      outer loop
         vertex 9.307922e+002 1.454613e+003 2.607390e+003
         vertex 9.282922e+002 1.450283e+003 2.607390e+003
         vertex 9.316489e+002 1.454014e+003 2.607390e+003
      endloop
   endfacet
   facet normal 2.689313e-017 1.283282e-017 1.000000e+000
      outer loop
         vertex 9.316489e+002 1.454014e+003 2.607390e+003
         vertex 9.282922e+002 1.450283e+003 2.607390e+003
         vertex 9.284350e+002 1.450183e+003 2.607390e+003
      endloop
   endfacet
   facet normal 2.689313e-017 1.283282e-017 1.000000e+000
      outer loop
         vertex 9.316489e+002 1.454014e+003 2.607390e+003
         vertex 9.284350e+002 1.450183e+003 2.607390e+003
         vertex 9.323885e+002 1.453274e+003 2.607390e+003
      endloop
   endfacet
   facet normal 2.689313e-017 1.283282e-017 1.000000e+000
      outer loop
         vertex 9.323885e+002 1.453274e+003 2.607390e+003
         vertex 9.284350e+002 1.450183e+003 2.607390e+003
         vertex 9.285582e+002 1.450060e+003 2.607390e+003
      endloop
   endfacet
   facet normal 2.689313e-017 1.283282e-017 1.000000e+000
      outer loop
         vertex 9.323885e+002 1.453274e+003 2.607390e+003
         vertex 9.285582e+002 1.450060e+003 2.607390e+003
         vertex 9.329883e+002 1.452417e+003 2.607390e+003
      endloop
   endfacet
   facet normal 2.689313e-017 1.283282e-017 1.000000e+000
      outer loop
         vertex 9.329883e+002 1.452417e+003 2.607390e+003
         vertex 9.285582e+002 1.450060e+003 2.607390e+003
         vertex 9.286583e+002 1.449917e+003 2.607390e+003
      endloop
   endfacet
   facet normal 2.689313e-017 1.283282e-017 1.000000e+000
      outer loop
         vertex 9.329883e+002 1.452417e+003 2.607390e+003
         vertex 9.286583e+002 1.449917e+003 2.607390e+003
         vertex 9.334304e+002 1.451469e+003 2.607390e+003
      endloop
   endfacet
   facet normal 2.689313e-017 1.283282e-017 1.000000e+000
      outer loop
         vertex 9.334304e+002 1.451469e+003 2.607390e+003
         vertex 9.286583e+002 1.449917e+003 2.607390e+003
         vertex 9.287319e+002 1.449759e+003 2.607390e+003
      endloop
   endfacet
   facet normal 2.689313e-017 1.283282e-017 1.000000e+000
      outer loop
         vertex 9.334304e+002 1.451469e+003 2.607390e+003
         vertex 9.287319e+002 1.449759e+003 2.607390e+003
         vertex 9.337010e+002 1.450459e+003 2.607390e+003
      endloop
   endfacet
   facet normal 2.689313e-017 1.283282e-017 1.000000e+000
      outer loop
         vertex 9.337010e+002 1.450459e+003 2.607390e+003
         vertex 9.287319e+002 1.449759e+003 2.607390e+003
         vertex 9.287770e+002 1.449591e+003 2.607390e+003
      endloop
   endfacet
   facet normal 2.689313e-017 1.283282e-017 1.000000e+000
      outer loop
         vertex 9.337010e+002 1.450459e+003 2.607390e+003
         vertex 9.287770e+002 1.449591e+003 2.607390e+003
         vertex 9.337922e+002 1.449417e+003 2.607390e+003
      endloop
   endfacet
   facet normal 2.689313e-017 1.283282e-017 1.000000e+000
      outer loop
         vertex 9.337922e+002 1.449417e+003 2.607390e+003
         vertex 9.287770e+002 1.449591e+003 2.607390e+003
         vertex 9.287922e+002 1.449417e+003 2.607390e+003
      endloop
   endfacet
   facet normal 2.689313e-017 1.283282e-017 1.000000e+000
      outer loop
         vertex 9.337922e+002 1.449417e+003 2.607390e+003
         vertex 9.287922e+002 1.449417e+003 2.607390e+003
         vertex 9.337922e+002 1.401417e+003 2.607390e+003
      endloop
   endfacet
   facet normal 2.689313e-017 1.283282e-017 1.000000e+000
      outer loop
         vertex 9.337922e+002 1.401417e+003 2.607390e+003
         vertex 9.287922e+002 1.449417e+003 2.607390e+003
         vertex 9.287922e+002 1.401417e+003 2.607390e+003
      endloop
   endfacet
   facet normal 2.689313e-017 1.283282e-017 1.000000e+000
      outer loop
         vertex 9.337922e+002 1.401417e+003 2.607390e+003
         vertex 9.287922e+002 1.401417e+003 2.607390e+003
         vertex 9.337010e+002 1.400375e+003 2.607390e+003
      endloop
   endfacet
   facet normal 2.689313e-017 1.283282e-017 1.000000e+000
      outer loop
         vertex 9.337010e+002 1.400375e+003 2.607390e+003
         vertex 9.287922e+002 1.401417e+003 2.607390e+003
         vertex 9.287770e+002 1.401244e+003 2.607390e+003
      endloop
   endfacet
   facet normal 2.689313e-017 1.283282e-017 1.000000e+000
      outer loop
         vertex 9.337010e+002 1.400375e+003 2.607390e+003
         vertex 9.287770e+002 1.401244e+003 2.607390e+003
         vertex 9.334304e+002 1.399365e+003 2.607390e+003
      endloop
   endfacet
   facet normal 2.689313e-017 1.283282e-017 1.000000e+000
      outer loop
         vertex 9.334304e+002 1.399365e+003 2.607390e+003
         vertex 9.287770e+002 1.401244e+003 2.607390e+003
         vertex 9.287319e+002 1.401075e+003 2.607390e+003
      endloop
   endfacet
   facet normal 2.689313e-017 1.283282e-017 1.000000e+000
      outer loop
         vertex 9.334304e+002 1.399365e+003 2.607390e+003
         vertex 9.287319e+002 1.401075e+003 2.607390e+003
         vertex 9.329883e+002 1.398417e+003 2.607390e+003
      endloop
   endfacet
   facet normal 2.689313e-017 1.283282e-017 1.000000e+000
      outer loop
         vertex 9.329883e+002 1.398417e+003 2.607390e+003
         vertex 9.287319e+002 1.401075e+003 2.607390e+003
         vertex 9.286583e+002 1.400917e+003 2.607390e+003
      endloop
   endfacet
   facet normal 2.689313e-017 1.283282e-017 1.000000e+000
      outer loop
         vertex 9.329883e+002 1.398417e+003 2.607390e+003
         vertex 9.286583e+002 1.400917e+003 2.607390e+003
         vertex 9.323885e+002 1.397561e+003 2.607390e+003
      endloop
   endfacet
   facet normal 2.689313e-017 1.283282e-017 1.000000e+000
      outer loop
         vertex 9.323885e+002 1.397561e+003 2.607390e+003
         vertex 9.286583e+002 1.400917e+003 2.607390e+003
         vertex 9.285582e+002 1.400775e+003 2.607390e+003
      endloop
   endfacet
   facet normal 2.689313e-017 1.283282e-017 1.000000e+000
      outer loop
         vertex 9.323885e+002 1.397561e+003 2.607390e+003
         vertex 9.285582e+002 1.400775e+003 2.607390e+003
         vertex 9.316489e+002 1.396821e+003 2.607390e+003
      endloop
   endfacet
   facet normal 2.689313e-017 1.283282e-017 1.000000e+000
      outer loop
         vertex 9.316489e+002 1.396821e+003 2.607390e+003
         vertex 9.285582e+002 1.400775e+003 2.607390e+003
         vertex 9.284350e+002 1.400651e+003 2.607390e+003
      endloop
   endfacet
   facet normal 2.689313e-017 1.283282e-017 1.000000e+000
      outer loop
         vertex 9.316489e+002 1.396821e+003 2.607390e+003
         vertex 9.284350e+002 1.400651e+003 2.607390e+003
         vertex 9.307922e+002 1.396221e+003 2.607390e+003
      endloop
   endfacet
   facet normal 2.689313e-017 1.283282e-017 1.000000e+000
      outer loop
         vertex 9.307922e+002 1.396221e+003 2.607390e+003
         vertex 9.284350e+002 1.400651e+003 2.607390e+003
         vertex 9.282922e+002 1.400551e+003 2.607390e+003
      endloop
   endfacet
   facet normal 2.689313e-017 1.283282e-017 1.000000e+000
      outer loop
         vertex 9.307922e+002 1.396221e+003 2.607390e+003
         vertex 9.282922e+002 1.400551e+003 2.607390e+003
         vertex 9.298443e+002 1.395779e+003 2.607390e+003
      endloop
   endfacet
   facet normal 2.689313e-017 1.283282e-017 1.000000e+000
      outer loop
         vertex 9.298443e+002 1.395779e+003 2.607390e+003
         vertex 9.282922e+002 1.400551e+003 2.607390e+003
         vertex 9.281342e+002 1.400478e+003 2.607390e+003
      endloop
   endfacet
   facet normal 2.689313e-017 1.283282e-017 1.000000e+000
      outer loop
         vertex 9.298443e+002 1.395779e+003 2.607390e+003
         vertex 9.281342e+002 1.400478e+003 2.607390e+003
         vertex 9.288341e+002 1.395509e+003 2.607390e+003
      endloop
   endfacet
   facet normal 2.689313e-017 1.283282e-017 1.000000e+000
      outer loop
         vertex 9.288341e+002 1.395509e+003 2.607390e+003
         vertex 9.281342e+002 1.400478e+003 2.607390e+003
         vertex 9.279659e+002 1.400432e+003 2.607390e+003
      endloop
   endfacet
   facet normal 2.689313e-017 1.283282e-017 1.000000e+000
      outer loop
         vertex 9.288341e+002 1.395509e+003 2.607390e+003
         vertex 9.279659e+002 1.400432e+003 2.607390e+003
         vertex 9.277922e+002 1.395417e+003 2.607390e+003
      endloop
   endfacet
   facet normal 2.689313e-017 1.283282e-017 1.000000e+000
      outer loop
         vertex 9.277922e+002 1.395417e+003 2.607390e+003
         vertex 9.279659e+002 1.400432e+003 2.607390e+003
         vertex 9.277922e+002 1.400417e+003 2.607390e+003
      endloop
   endfacet
   facet normal 2.689313e-017 1.283282e-017 1.000000e+000
      outer loop
         vertex 9.277922e+002 1.395417e+003 2.607390e+003
         vertex 9.277922e+002 1.400417e+003 2.607390e+003
         vertex 8.797922e+002 1.395417e+003 2.607390e+003
      endloop
   endfacet
   facet normal 2.689313e-017 1.283282e-017 1.000000e+000
      outer loop
         vertex 8.797922e+002 1.395417e+003 2.607390e+003
         vertex 9.277922e+002 1.400417e+003 2.607390e+003
         vertex 8.797922e+002 1.400417e+003 2.607390e+003
      endloop
   endfacet
   facet normal 2.689313e-017 1.283282e-017 1.000000e+000
      outer loop
         vertex 8.797922e+002 1.395417e+003 2.607390e+003
         vertex 8.797922e+002 1.400417e+003 2.607390e+003
         vertex 8.787503e+002 1.395509e+003 2.607390e+003
      endloop
   endfacet
   facet normal 2.689313e-017 1.283282e-017 1.000000e+000
      outer loop
         vertex 8.787503e+002 1.395509e+003 2.607390e+003
         vertex 8.797922e+002 1.400417e+003 2.607390e+003
         vertex 8.796186e+002 1.400432e+003 2.607390e+003
      endloop
   endfacet
   facet normal 2.689313e-017 1.283282e-017 1.000000e+000
      outer loop
         vertex 8.787503e+002 1.395509e+003 2.607390e+003
         vertex 8.796186e+002 1.400432e+003 2.607390e+003
         vertex 8.777401e+002 1.395779e+003 2.607390e+003
      endloop
   endfacet
   facet normal 2.689313e-017 1.283282e-017 1.000000e+000
      outer loop
         vertex 8.777401e+002 1.395779e+003 2.607390e+003
         vertex 8.796186e+002 1.400432e+003 2.607390e+003
         vertex 8.794502e+002 1.400478e+003 2.607390e+003
      endloop
   endfacet
   facet normal 2.689313e-017 1.283282e-017 1.000000e+000
      outer loop
         vertex 8.777401e+002 1.395779e+003 2.607390e+003
         vertex 8.794502e+002 1.400478e+003 2.607390e+003
         vertex 8.767922e+002 1.396221e+003 2.607390e+003
      endloop
   endfacet
   facet normal 2.689313e-017 1.283282e-017 1.000000e+000
      outer loop
         vertex 8.767922e+002 1.396221e+003 2.607390e+003
         vertex 8.794502e+002 1.400478e+003 2.607390e+003
         vertex 8.792922e+002 1.400551e+003 2.607390e+003
      endloop
   endfacet
   facet normal 2.689313e-017 1.283282e-017 1.000000e+000
      outer loop
         vertex 8.767922e+002 1.396221e+003 2.607390e+003
         vertex 8.792922e+002 1.400551e+003 2.607390e+003
         vertex 8.759355e+002 1.396821e+003 2.607390e+003
      endloop
   endfacet
   facet normal 2.689313e-017 1.283282e-017 1.000000e+000
      outer loop
         vertex 8.759355e+002 1.396821e+003 2.607390e+003
         vertex 8.792922e+002 1.400551e+003 2.607390e+003
         vertex 8.791494e+002 1.400651e+003 2.607390e+003
      endloop
   endfacet
   facet normal 2.689313e-017 1.283282e-017 1.000000e+000
      outer loop
         vertex 8.759355e+002 1.396821e+003 2.607390e+003
         vertex 8.791494e+002 1.400651e+003 2.607390e+003
         vertex 8.751959e+002 1.397561e+003 2.607390e+003
      endloop
   endfacet
   facet normal 2.689313e-017 1.283282e-017 1.000000e+000
      outer loop
         vertex 8.751959e+002 1.397561e+003 2.607390e+003
         vertex 8.791494e+002 1.400651e+003 2.607390e+003
         vertex 8.790262e+002 1.400775e+003 2.607390e+003
      endloop
   endfacet
   facet normal 2.689313e-017 1.283282e-017 1.000000e+000
      outer loop
         vertex 8.751959e+002 1.397561e+003 2.607390e+003
         vertex 8.790262e+002 1.400775e+003 2.607390e+003
         vertex 8.745961e+002 1.398417e+003 2.607390e+003
      endloop
   endfacet
   facet normal 2.689313e-017 1.283282e-017 1.000000e+000
      outer loop
         vertex 8.745961e+002 1.398417e+003 2.607390e+003
         vertex 8.790262e+002 1.400775e+003 2.607390e+003
         vertex 8.789261e+002 1.400917e+003 2.607390e+003
      endloop
   endfacet
   facet normal 2.689313e-017 1.283282e-017 1.000000e+000
      outer loop
         vertex 8.745961e+002 1.398417e+003 2.607390e+003
         vertex 8.789261e+002 1.400917e+003 2.607390e+003
         vertex 8.741541e+002 1.399365e+003 2.607390e+003
      endloop
   endfacet
   facet normal 2.689313e-017 1.283282e-017 1.000000e+000
      outer loop
         vertex 8.741541e+002 1.399365e+003 2.607390e+003
         vertex 8.789261e+002 1.400917e+003 2.607390e+003
         vertex 8.788525e+002 1.401075e+003 2.607390e+003
      endloop
   endfacet
   facet normal 2.689313e-017 1.283282e-017 1.000000e+000
      outer loop
         vertex 8.741541e+002 1.399365e+003 2.607390e+003
         vertex 8.788525e+002 1.401075e+003 2.607390e+003
         vertex 8.738834e+002 1.400375e+003 2.607390e+003
      endloop
   endfacet
   facet normal 2.689313e-017 1.283282e-017 1.000000e+000
      outer loop
         vertex 8.738834e+002 1.400375e+003 2.607390e+003
         vertex 8.788525e+002 1.401075e+003 2.607390e+003
         vertex 8.788074e+002 1.401244e+003 2.607390e+003
      endloop
   endfacet
   facet normal 2.689313e-017 1.283282e-017 1.000000e+000
      outer loop
         vertex 8.738834e+002 1.400375e+003 2.607390e+003
         vertex 8.788074e+002 1.401244e+003 2.607390e+003
         vertex 8.737922e+002 1.401417e+003 2.607390e+003
      endloop
   endfacet
   facet normal 2.689313e-017 1.283282e-017 1.000000e+000
      outer loop
         vertex 8.737922e+002 1.401417e+003 2.607390e+003
         vertex 8.788074e+002 1.401244e+003 2.607390e+003
         vertex 8.787922e+002 1.401417e+003 2.607390e+003
      endloop
   endfacet
   facet normal 2.689313e-017 1.283282e-017 1.000000e+000
      outer loop
         vertex 8.737922e+002 1.401417e+003 2.607390e+003
         vertex 8.787922e+002 1.401417e+003 2.607390e+003
         vertex 8.737922e+002 1.449417e+003 2.607390e+003
      endloop
   endfacet
   facet normal 2.689313e-017 1.283282e-017 1.000000e+000
      outer loop
         vertex 8.737922e+002 1.449417e+003 2.607390e+003
         vertex 8.787922e+002 1.401417e+003 2.607390e+003
         vertex 8.787922e+002 1.449417e+003 2.607390e+003
      endloop
   endfacet
   facet normal 2.689313e-017 1.283282e-017 1.000000e+000
      outer loop
         vertex 8.737922e+002 1.449417e+003 2.607390e+003
         vertex 8.787922e+002 1.449417e+003 2.607390e+003
         vertex 8.738834e+002 1.450459e+003 2.607390e+003
      endloop
   endfacet
   facet normal 2.689313e-017 1.283282e-017 1.000000e+000
      outer loop
         vertex 8.738834e+002 1.450459e+003 2.607390e+003
         vertex 8.787922e+002 1.449417e+003 2.607390e+003
         vertex 8.788045e+002 1.449574e+003 2.607390e+003
      endloop
   endfacet
   facet normal 2.689313e-017 1.283282e-017 1.000000e+000
      outer loop
         vertex 8.738834e+002 1.450459e+003 2.607390e+003
         vertex 8.788045e+002 1.449574e+003 2.607390e+003
         vertex 8.741541e+002 1.451469e+003 2.607390e+003
      endloop
   endfacet
   facet normal 2.689313e-017 1.283282e-017 1.000000e+000
      outer loop
         vertex 8.741541e+002 1.451469e+003 2.607390e+003
         vertex 8.788045e+002 1.449574e+003 2.607390e+003
         vertex 8.788412e+002 1.449726e+003 2.607390e+003
      endloop
   endfacet
   facet normal 2.689313e-017 1.283282e-017 1.000000e+000
      outer loop
         vertex 8.741541e+002 1.451469e+003 2.607390e+003
         vertex 8.788412e+002 1.449726e+003 2.607390e+003
         vertex 8.745961e+002 1.452417e+003 2.607390e+003
      endloop
   endfacet
   facet normal 2.689313e-017 1.283282e-017 1.000000e+000
      outer loop
         vertex 8.745961e+002 1.452417e+003 2.607390e+003
         vertex 8.788412e+002 1.449726e+003 2.607390e+003
         vertex 8.789012e+002 1.449871e+003 2.607390e+003
      endloop
   endfacet
   facet normal 2.689313e-017 1.283282e-017 1.000000e+000
      outer loop
         vertex 8.745961e+002 1.452417e+003 2.607390e+003
         vertex 8.789012e+002 1.449871e+003 2.607390e+003
         vertex 8.751959e+002 1.453274e+003 2.607390e+003
      endloop
   endfacet
   facet normal -2.689313e-017 -1.283282e-017 -1.000000e+000
      outer loop
         vertex 8.792045e+002 1.450226e+003 1.857390e+003
         vertex 8.790851e+002 1.450124e+003 1.857390e+003
         vertex 8.751959e+002 1.453274e+003 1.857390e+003
      endloop
   endfacet
   facet normal -2.689313e-017 -1.283282e-017 -1.000000e+000
      outer loop
         vertex 8.751959e+002 1.453274e+003 1.857390e+003
         vertex 8.790851e+002 1.450124e+003 1.857390e+003
         vertex 8.789832e+002 1.450005e+003 1.857390e+003
      endloop
   endfacet
   facet normal -2.689313e-017 -1.283282e-017 -1.000000e+000
      outer loop
         vertex 8.751959e+002 1.453274e+003 1.857390e+003
         vertex 8.789832e+002 1.450005e+003 1.857390e+003
         vertex 8.745961e+002 1.452417e+003 1.857390e+003
      endloop
   endfacet
   facet normal -2.689313e-017 -1.283282e-017 -1.000000e+000
      outer loop
         vertex 8.745961e+002 1.452417e+003 1.857390e+003
         vertex 8.789832e+002 1.450005e+003 1.857390e+003
         vertex 8.789012e+002 1.449871e+003 1.857390e+003
      endloop
   endfacet
   facet normal -2.689313e-017 -1.283282e-017 -1.000000e+000
      outer loop
         vertex 8.745961e+002 1.452417e+003 1.857390e+003
         vertex 8.789012e+002 1.449871e+003 1.857390e+003
         vertex 8.741541e+002 1.451469e+003 1.857390e+003
      endloop
   endfacet
   facet normal -2.689313e-017 -1.283282e-017 -1.000000e+000
      outer loop
         vertex 8.741541e+002 1.451469e+003 1.857390e+003
         vertex 8.789012e+002 1.449871e+003 1.857390e+003
         vertex 8.788412e+002 1.449726e+003 1.857390e+003
      endloop
   endfacet
   facet normal -2.689313e-017 -1.283282e-017 -1.000000e+000
      outer loop
         vertex 8.741541e+002 1.451469e+003 1.857390e+003
         vertex 8.788412e+002 1.449726e+003 1.857390e+003
         vertex 8.738834e+002 1.450459e+003 1.857390e+003
      endloop
   endfacet
   facet normal -2.689313e-017 -1.283282e-017 -1.000000e+000
      outer loop
         vertex 8.738834e+002 1.450459e+003 1.857390e+003
         vertex 8.788412e+002 1.449726e+003 1.857390e+003
         vertex 8.788045e+002 1.449574e+003 1.857390e+003
      endloop
   endfacet
   facet normal -2.689313e-017 -1.283282e-017 -1.000000e+000
      outer loop
         vertex 8.738834e+002 1.450459e+003 1.857390e+003
         vertex 8.788045e+002 1.449574e+003 1.857390e+003
         vertex 8.737922e+002 1.449417e+003 1.857390e+003
      endloop
   endfacet
   facet normal -2.689313e-017 -1.283282e-017 -1.000000e+000
      outer loop
         vertex 8.737922e+002 1.449417e+003 1.857390e+003
         vertex 8.788045e+002 1.449574e+003 1.857390e+003
         vertex 8.787922e+002 1.449417e+003 1.857390e+003
      endloop
   endfacet
   facet normal -2.689313e-017 -1.283282e-017 -1.000000e+000
      outer loop
         vertex 8.737922e+002 1.449417e+003 1.857390e+003
         vertex 8.787922e+002 1.449417e+003 1.857390e+003
         vertex 8.737922e+002 1.401417e+003 1.857390e+003
      endloop
   endfacet
   facet normal -2.689313e-017 -1.283282e-017 -1.000000e+000
      outer loop
         vertex 8.737922e+002 1.401417e+003 1.857390e+003
         vertex 8.787922e+002 1.449417e+003 1.857390e+003
         vertex 8.787922e+002 1.401417e+003 1.857390e+003
      endloop
   endfacet
   facet normal -2.689313e-017 -1.283282e-017 -1.000000e+000
      outer loop
         vertex 8.737922e+002 1.401417e+003 1.857390e+003
         vertex 8.787922e+002 1.401417e+003 1.857390e+003
         vertex 8.738834e+002 1.400375e+003 1.857390e+003
      endloop
   endfacet
   facet normal -2.689313e-017 -1.283282e-017 -1.000000e+000
      outer loop
         vertex 8.738834e+002 1.400375e+003 1.857390e+003
         vertex 8.787922e+002 1.401417e+003 1.857390e+003
         vertex 8.788074e+002 1.401244e+003 1.857390e+003
      endloop
   endfacet
   facet normal -2.689313e-017 -1.283282e-017 -1.000000e+000
      outer loop
         vertex 8.738834e+002 1.400375e+003 1.857390e+003
         vertex 8.788074e+002 1.401244e+003 1.857390e+003
         vertex 8.741541e+002 1.399365e+003 1.857390e+003
      endloop
   endfacet
   facet normal -2.689313e-017 -1.283282e-017 -1.000000e+000
      outer loop
         vertex 8.741541e+002 1.399365e+003 1.857390e+003
         vertex 8.788074e+002 1.401244e+003 1.857390e+003
         vertex 8.788525e+002 1.401075e+003 1.857390e+003
      endloop
   endfacet
   facet normal -2.689313e-017 -1.283282e-017 -1.000000e+000
      outer loop
         vertex 8.741541e+002 1.399365e+003 1.857390e+003
         vertex 8.788525e+002 1.401075e+003 1.857390e+003
         vertex 8.745961e+002 1.398417e+003 1.857390e+003
      endloop
   endfacet
   facet normal -2.689313e-017 -1.283282e-017 -1.000000e+000
      outer loop
         vertex 8.745961e+002 1.398417e+003 1.857390e+003
         vertex 8.788525e+002 1.401075e+003 1.857390e+003
         vertex 8.789261e+002 1.400917e+003 1.857390e+003
      endloop
   endfacet
   facet normal -2.689313e-017 -1.283282e-017 -1.000000e+000
      outer loop
         vertex 8.745961e+002 1.398417e+003 1.857390e+003
         vertex 8.789261e+002 1.400917e+003 1.857390e+003
         vertex 8.751959e+002 1.397561e+003 1.857390e+003
      endloop
   endfacet
   facet normal -2.689313e-017 -1.283282e-017 -1.000000e+000
      outer loop
         vertex 8.751959e+002 1.397561e+003 1.857390e+003
         vertex 8.789261e+002 1.400917e+003 1.857390e+003
         vertex 8.790262e+002 1.400775e+003 1.857390e+003
      endloop
   endfacet
   facet normal -2.689313e-017 -1.283282e-017 -1.000000e+000
      outer loop
         vertex 8.751959e+002 1.397561e+003 1.857390e+003
         vertex 8.790262e+002 1.400775e+003 1.857390e+003
         vertex 8.759355e+002 1.396821e+003 1.857390e+003
      endloop
   endfacet
   facet normal -2.689313e-017 -1.283282e-017 -1.000000e+000
      outer loop
         vertex 8.759355e+002 1.396821e+003 1.857390e+003
         vertex 8.790262e+002 1.400775e+003 1.857390e+003
         vertex 8.791494e+002 1.400651e+003 1.857390e+003
      endloop
   endfacet
   facet normal -2.689313e-017 -1.283282e-017 -1.000000e+000
      outer loop
         vertex 8.759355e+002 1.396821e+003 1.857390e+003
         vertex 8.791494e+002 1.400651e+003 1.857390e+003
         vertex 8.767922e+002 1.396221e+003 1.857390e+003
      endloop
   endfacet
   facet normal -2.689313e-017 -1.283282e-017 -1.000000e+000
      outer loop
         vertex 8.767922e+002 1.396221e+003 1.857390e+003
         vertex 8.791494e+002 1.400651e+003 1.857390e+003
         vertex 8.792922e+002 1.400551e+003 1.857390e+003
      endloop
   endfacet
   facet normal -2.689313e-017 -1.283282e-017 -1.000000e+000
      outer loop
         vertex 8.767922e+002 1.396221e+003 1.857390e+003
         vertex 8.792922e+002 1.400551e+003 1.857390e+003
         vertex 8.777401e+002 1.395779e+003 1.857390e+003
      endloop
   endfacet
   facet normal -2.689313e-017 -1.283282e-017 -1.000000e+000
      outer loop
         vertex 8.777401e+002 1.395779e+003 1.857390e+003
         vertex 8.792922e+002 1.400551e+003 1.857390e+003
         vertex 8.794502e+002 1.400478e+003 1.857390e+003
      endloop
   endfacet
   facet normal -2.689313e-017 -1.283282e-017 -1.000000e+000
      outer loop
         vertex 8.777401e+002 1.395779e+003 1.857390e+003
         vertex 8.794502e+002 1.400478e+003 1.857390e+003
         vertex 8.787503e+002 1.395509e+003 1.857390e+003
      endloop
   endfacet
   facet normal -2.689313e-017 -1.283282e-017 -1.000000e+000
      outer loop
         vertex 8.787503e+002 1.395509e+003 1.857390e+003
         vertex 8.794502e+002 1.400478e+003 1.857390e+003
         vertex 8.796186e+002 1.400432e+003 1.857390e+003
      endloop
   endfacet
   facet normal -2.689313e-017 -1.283282e-017 -1.000000e+000
      outer loop
         vertex 8.787503e+002 1.395509e+003 1.857390e+003
         vertex 8.796186e+002 1.400432e+003 1.857390e+003
         vertex 8.797922e+002 1.395417e+003 1.857390e+003
      endloop
   endfacet
   facet normal -2.689313e-017 -1.283282e-017 -1.000000e+000
      outer loop
         vertex 8.797922e+002 1.395417e+003 1.857390e+003
         vertex 8.796186e+002 1.400432e+003 1.857390e+003
         vertex 8.797922e+002 1.400417e+003 1.857390e+003
      endloop
   endfacet
   facet normal -2.689313e-017 -1.283282e-017 -1.000000e+000
      outer loop
         vertex 8.797922e+002 1.395417e+003 1.857390e+003
         vertex 8.797922e+002 1.400417e+003 1.857390e+003
         vertex 9.277922e+002 1.395417e+003 1.857390e+003
      endloop
   endfacet
   facet normal -2.689313e-017 -1.283282e-017 -1.000000e+000
      outer loop
         vertex 9.277922e+002 1.395417e+003 1.857390e+003
         vertex 8.797922e+002 1.400417e+003 1.857390e+003
         vertex 9.277922e+002 1.400417e+003 1.857390e+003
      endloop
   endfacet
   facet normal -2.689313e-017 -1.283282e-017 -1.000000e+000
      outer loop
         vertex 9.277922e+002 1.395417e+003 1.857390e+003
         vertex 9.277922e+002 1.400417e+003 1.857390e+003
         vertex 9.288341e+002 1.395509e+003 1.857390e+003
      endloop
   endfacet
   facet normal -2.689313e-017 -1.283282e-017 -1.000000e+000
      outer loop
         vertex 9.288341e+002 1.395509e+003 1.857390e+003
         vertex 9.277922e+002 1.400417e+003 1.857390e+003
         vertex 9.279659e+002 1.400432e+003 1.857390e+003
      endloop
   endfacet
   facet normal -2.689313e-017 -1.283282e-017 -1.000000e+000
      outer loop
         vertex 9.288341e+002 1.395509e+003 1.857390e+003
         vertex 9.279659e+002 1.400432e+003 1.857390e+003
         vertex 9.298443e+002 1.395779e+003 1.857390e+003
      endloop
   endfacet
   facet normal -2.689313e-017 -1.283282e-017 -1.000000e+000
      outer loop
         vertex 9.298443e+002 1.395779e+003 1.857390e+003
         vertex 9.279659e+002 1.400432e+003 1.857390e+003
         vertex 9.281342e+002 1.400478e+003 1.857390e+003
      endloop
   endfacet
   facet normal -2.689313e-017 -1.283282e-017 -1.000000e+000
      outer loop
         vertex 9.298443e+002 1.395779e+003 1.857390e+003
         vertex 9.281342e+002 1.400478e+003 1.857390e+003
         vertex 9.307922e+002 1.396221e+003 1.857390e+003
      endloop
   endfacet
   facet normal -2.689313e-017 -1.283282e-017 -1.000000e+000
      outer loop
         vertex 9.307922e+002 1.396221e+003 1.857390e+003
         vertex 9.281342e+002 1.400478e+003 1.857390e+003
         vertex 9.282922e+002 1.400551e+003 1.857390e+003
      endloop
   endfacet
   facet normal -2.689313e-017 -1.283282e-017 -1.000000e+000
      outer loop
         vertex 9.307922e+002 1.396221e+003 1.857390e+003
         vertex 9.282922e+002 1.400551e+003 1.857390e+003
         vertex 9.316489e+002 1.396821e+003 1.857390e+003
      endloop
   endfacet
   facet normal -2.689313e-017 -1.283282e-017 -1.000000e+000
      outer loop
         vertex 9.316489e+002 1.396821e+003 1.857390e+003
         vertex 9.282922e+002 1.400551e+003 1.857390e+003
         vertex 9.284350e+002 1.400651e+003 1.857390e+003
      endloop
   endfacet
   facet normal -2.689313e-017 -1.283282e-017 -1.000000e+000
      outer loop
         vertex 9.316489e+002 1.396821e+003 1.857390e+003
         vertex 9.284350e+002 1.400651e+003 1.857390e+003
         vertex 9.323885e+002 1.397561e+003 1.857390e+003
      endloop
   endfacet
   facet normal -2.689313e-017 -1.283282e-017 -1.000000e+000
      outer loop
         vertex 9.323885e+002 1.397561e+003 1.857390e+003
         vertex 9.284350e+002 1.400651e+003 1.857390e+003
         vertex 9.285582e+002 1.400775e+003 1.857390e+003
      endloop
   endfacet
   facet normal -2.689313e-017 -1.283282e-017 -1.000000e+000
      outer loop
         vertex 9.323885e+002 1.397561e+003 1.857390e+003
         vertex 9.285582e+002 1.400775e+003 1.857390e+003
         vertex 9.329883e+002 1.398417e+003 1.857390e+003
      endloop
   endfacet
   facet normal -2.689313e-017 -1.283282e-017 -1.000000e+000
      outer loop
         vertex 9.329883e+002 1.398417e+003 1.857390e+003
         vertex 9.285582e+002 1.400775e+003 1.857390e+003
         vertex 9.286583e+002 1.400917e+003 1.857390e+003
      endloop
   endfacet
   facet normal -2.689313e-017 -1.283282e-017 -1.000000e+000
      outer loop
         vertex 9.329883e+002 1.398417e+003 1.857390e+003
         vertex 9.286583e+002 1.400917e+003 1.857390e+003
         vertex 9.334304e+002 1.399365e+003 1.857390e+003
      endloop
   endfacet
   facet normal -2.689313e-017 -1.283282e-017 -1.000000e+000
      outer loop
         vertex 9.334304e+002 1.399365e+003 1.857390e+003
         vertex 9.286583e+002 1.400917e+003 1.857390e+003
         vertex 9.287319e+002 1.401075e+003 1.857390e+003
      endloop
   endfacet
   facet normal -2.689313e-017 -1.283282e-017 -1.000000e+000
      outer loop
         vertex 9.334304e+002 1.399365e+003 1.857390e+003
         vertex 9.287319e+002 1.401075e+003 1.857390e+003
         vertex 9.337010e+002 1.400375e+003 1.857390e+003
      endloop
   endfacet
   facet normal -2.689313e-017 -1.283282e-017 -1.000000e+000
      outer loop
         vertex 9.337010e+002 1.400375e+003 1.857390e+003
         vertex 9.287319e+002 1.401075e+003 1.857390e+003
         vertex 9.287770e+002 1.401244e+003 1.857390e+003
      endloop
   endfacet
   facet normal -2.689313e-017 -1.283282e-017 -1.000000e+000
      outer loop
         vertex 9.337010e+002 1.400375e+003 1.857390e+003
         vertex 9.287770e+002 1.401244e+003 1.857390e+003
         vertex 9.337922e+002 1.401417e+003 1.857390e+003
      endloop
   endfacet
   facet normal -2.689313e-017 -1.283282e-017 -1.000000e+000
      outer loop
         vertex 9.337922e+002 1.401417e+003 1.857390e+003
         vertex 9.287770e+002 1.401244e+003 1.857390e+003
         vertex 9.287922e+002 1.401417e+003 1.857390e+003
      endloop
   endfacet
   facet normal -2.689313e-017 -1.283282e-017 -1.000000e+000
      outer loop
         vertex 9.337922e+002 1.401417e+003 1.857390e+003
         vertex 9.287922e+002 1.401417e+003 1.857390e+003
         vertex 9.337922e+002 1.449417e+003 1.857390e+003
      endloop
   endfacet
   facet normal -2.689313e-017 -1.283282e-017 -1.000000e+000
      outer loop
         vertex 9.337922e+002 1.449417e+003 1.857390e+003
         vertex 9.287922e+002 1.401417e+003 1.857390e+003
         vertex 9.287922e+002 1.449417e+003 1.857390e+003
      endloop
   endfacet
   facet normal -2.689313e-017 -1.283282e-017 -1.000000e+000
      outer loop
         vertex 9.337922e+002 1.449417e+003 1.857390e+003
         vertex 9.287922e+002 1.449417e+003 1.857390e+003
         vertex 9.337010e+002 1.450459e+003 1.857390e+003
      endloop
   endfacet
   facet normal -2.689313e-017 -1.283282e-017 -1.000000e+000
      outer loop
         vertex 9.337010e+002 1.450459e+003 1.857390e+003
         vertex 9.287922e+002 1.449417e+003 1.857390e+003
         vertex 9.287770e+002 1.449591e+003 1.857390e+003
      endloop
   endfacet
   facet normal -2.689313e-017 -1.283282e-017 -1.000000e+000
      outer loop
         vertex 9.337010e+002 1.450459e+003 1.857390e+003
         vertex 9.287770e+002 1.449591e+003 1.857390e+003
         vertex 9.334304e+002 1.451469e+003 1.857390e+003
      endloop
   endfacet
   facet normal -2.689313e-017 -1.283282e-017 -1.000000e+000
      outer loop
         vertex 9.334304e+002 1.451469e+003 1.857390e+003
         vertex 9.287770e+002 1.449591e+003 1.857390e+003
         vertex 9.287319e+002 1.449759e+003 1.857390e+003
      endloop
   endfacet
   facet normal -2.689313e-017 -1.283282e-017 -1.000000e+000
      outer loop
         vertex 9.334304e+002 1.451469e+003 1.857390e+003
         vertex 9.287319e+002 1.449759e+003 1.857390e+003
         vertex 9.329883e+002 1.452417e+003 1.857390e+003
      endloop
   endfacet
   facet normal -2.689313e-017 -1.283282e-017 -1.000000e+000
      outer loop
         vertex 9.329883e+002 1.452417e+003 1.857390e+003
         vertex 9.287319e+002 1.449759e+003 1.857390e+003
         vertex 9.286583e+002 1.449917e+003 1.857390e+003
      endloop
   endfacet
   facet normal -2.689313e-017 -1.283282e-017 -1.000000e+000
      outer loop
         vertex 9.329883e+002 1.452417e+003 1.857390e+003
         vertex 9.286583e+002 1.449917e+003 1.857390e+003
         vertex 9.323885e+002 1.453274e+003 1.857390e+003
      endloop
   endfacet
   facet normal -2.689313e-017 -1.283282e-017 -1.000000e+000
      outer loop
         vertex 9.323885e+002 1.453274e+003 1.857390e+003
         vertex 9.286583e+002 1.449917e+003 1.857390e+003
         vertex 9.285582e+002 1.450060e+003 1.857390e+003
      endloop
   endfacet
   facet normal -2.689313e-017 -1.283282e-017 -1.000000e+000
      outer loop
         vertex 9.323885e+002 1.453274e+003 1.857390e+003
         vertex 9.285582e+002 1.450060e+003 1.857390e+003
         vertex 9.316489e+002 1.454014e+003 1.857390e+003
      endloop
   endfacet
   facet normal -2.689313e-017 -1.283282e-017 -1.000000e+000
      outer loop
         vertex 9.316489e+002 1.454014e+003 1.857390e+003
         vertex 9.285582e+002 1.450060e+003 1.857390e+003
         vertex 9.284350e+002 1.450183e+003 1.857390e+003
      endloop
   endfacet
   facet normal -2.689313e-017 -1.283282e-017 -1.000000e+000
      outer loop
         vertex 9.316489e+002 1.454014e+003 1.857390e+003
         vertex 9.284350e+002 1.450183e+003 1.857390e+003
         vertex 9.307922e+002 1.454613e+003 1.857390e+003
      endloop
   endfacet
   facet normal -2.689313e-017 -1.283282e-017 -1.000000e+000
      outer loop
         vertex 9.307922e+002 1.454613e+003 1.857390e+003
         vertex 9.284350e+002 1.450183e+003 1.857390e+003
         vertex 9.282922e+002 1.450283e+003 1.857390e+003
      endloop
   endfacet
   facet normal -2.689313e-017 -1.283282e-017 -1.000000e+000
      outer loop
         vertex 9.307922e+002 1.454613e+003 1.857390e+003
         vertex 9.282922e+002 1.450283e+003 1.857390e+003
         vertex 9.298443e+002 1.455055e+003 1.857390e+003
      endloop
   endfacet
   facet normal -2.689313e-017 -1.283282e-017 -1.000000e+000
      outer loop
         vertex 9.298443e+002 1.455055e+003 1.857390e+003
         vertex 9.282922e+002 1.450283e+003 1.857390e+003
         vertex 9.281342e+002 1.450357e+003 1.857390e+003
      endloop
   endfacet
   facet normal -2.689313e-017 -1.283282e-017 -1.000000e+000
      outer loop
         vertex 9.298443e+002 1.455055e+003 1.857390e+003
         vertex 9.281342e+002 1.450357e+003 1.857390e+003
         vertex 9.288341e+002 1.455326e+003 1.857390e+003
      endloop
   endfacet
   facet normal -2.689313e-017 -1.283282e-017 -1.000000e+000
      outer loop
         vertex 9.288341e+002 1.455326e+003 1.857390e+003
         vertex 9.281342e+002 1.450357e+003 1.857390e+003
         vertex 9.279659e+002 1.450402e+003 1.857390e+003
      endloop
   endfacet
   facet normal -2.689313e-017 -1.283282e-017 -1.000000e+000
      outer loop
         vertex 9.288341e+002 1.455326e+003 1.857390e+003
         vertex 9.279659e+002 1.450402e+003 1.857390e+003
         vertex 9.277922e+002 1.455417e+003 1.857390e+003
      endloop
   endfacet
   facet normal -2.689313e-017 -1.283282e-017 -1.000000e+000
      outer loop
         vertex 9.277922e+002 1.455417e+003 1.857390e+003
         vertex 9.279659e+002 1.450402e+003 1.857390e+003
         vertex 9.277922e+002 1.450417e+003 1.857390e+003
      endloop
   endfacet
   facet normal -2.689313e-017 -1.283282e-017 -1.000000e+000
      outer loop
         vertex 9.277922e+002 1.455417e+003 1.857390e+003
         vertex 9.277922e+002 1.450417e+003 1.857390e+003
         vertex 8.797922e+002 1.455417e+003 1.857390e+003
      endloop
   endfacet
   facet normal -2.689313e-017 -1.283282e-017 -1.000000e+000
      outer loop
         vertex 8.797922e+002 1.455417e+003 1.857390e+003
         vertex 9.277922e+002 1.450417e+003 1.857390e+003
         vertex 8.797922e+002 1.450417e+003 1.857390e+003
      endloop
   endfacet
   facet normal -2.689313e-017 -1.283282e-017 -1.000000e+000
      outer loop
         vertex 8.797922e+002 1.455417e+003 1.857390e+003
         vertex 8.797922e+002 1.450417e+003 1.857390e+003
         vertex 8.787503e+002 1.455326e+003 1.857390e+003
      endloop
   endfacet
   facet normal -2.689313e-017 -1.283282e-017 -1.000000e+000
      outer loop
         vertex 8.787503e+002 1.455326e+003 1.857390e+003
         vertex 8.797922e+002 1.450417e+003 1.857390e+003
         vertex 8.796357e+002 1.450405e+003 1.857390e+003
      endloop
   endfacet
   facet normal -2.689313e-017 -1.283282e-017 -1.000000e+000
      outer loop
         vertex 8.787503e+002 1.455326e+003 1.857390e+003
         vertex 8.796357e+002 1.450405e+003 1.857390e+003
         vertex 8.777401e+002 1.455055e+003 1.857390e+003
      endloop
   endfacet
   facet normal -2.689313e-017 -1.283282e-017 -1.000000e+000
      outer loop
         vertex 8.777401e+002 1.455055e+003 1.857390e+003
         vertex 8.796357e+002 1.450405e+003 1.857390e+003
         vertex 8.794832e+002 1.450368e+003 1.857390e+003
      endloop
   endfacet
   facet normal -2.689313e-017 -1.283282e-017 -1.000000e+000
      outer loop
         vertex 8.777401e+002 1.455055e+003 1.857390e+003
         vertex 8.794832e+002 1.450368e+003 1.857390e+003
         vertex 8.767922e+002 1.454613e+003 1.857390e+003
      endloop
   endfacet
   facet normal -2.689313e-017 -1.283282e-017 -1.000000e+000
      outer loop
         vertex 8.767922e+002 1.454613e+003 1.857390e+003
         vertex 8.794832e+002 1.450368e+003 1.857390e+003
         vertex 8.793382e+002 1.450308e+003 1.857390e+003
      endloop
   endfacet
   facet normal -2.689313e-017 -1.283282e-017 -1.000000e+000
      outer loop
         vertex 8.767922e+002 1.454613e+003 1.857390e+003
         vertex 8.793382e+002 1.450308e+003 1.857390e+003
         vertex 8.759355e+002 1.454014e+003 1.857390e+003
      endloop
   endfacet
   facet normal -2.689313e-017 -1.283282e-017 -1.000000e+000
      outer loop
         vertex 8.759355e+002 1.454014e+003 1.857390e+003
         vertex 8.793382e+002 1.450308e+003 1.857390e+003
         vertex 8.792045e+002 1.450226e+003 1.857390e+003
      endloop
   endfacet
   facet normal -2.689313e-017 -1.283282e-017 -1.000000e+000
      outer loop
         vertex 8.759355e+002 1.454014e+003 1.857390e+003
         vertex 8.792045e+002 1.450226e+003 1.857390e+003
         vertex 8.751959e+002 1.453274e+003 1.857390e+003
      endloop
   endfacet
   facet normal 1.000000e+000 1.387779e-017 3.642919e-017
      outer loop
         vertex 9.337922e+002 1.449417e+003 2.607390e+003
         vertex 9.337922e+002 1.401417e+003 2.607390e+003
         vertex 9.337922e+002 1.449417e+003 1.857390e+003
      endloop
   endfacet
   facet normal 1.000000e+000 1.387779e-017 3.642919e-017
      outer loop
         vertex 9.337922e+002 1.449417e+003 1.857390e+003
         vertex 9.337922e+002 1.401417e+003 2.607390e+003
         vertex 9.337922e+002 1.401417e+003 1.857390e+003
      endloop
   endfacet
   facet normal -3.469447e-016 1.000000e+000 -2.775558e-017
      outer loop
         vertex 9.277922e+002 1.455417e+003 1.857390e+003
         vertex 8.797922e+002 1.455417e+003 1.857390e+003
         vertex 9.277922e+002 1.455417e+003 2.607390e+003
      endloop
   endfacet
   facet normal -3.469447e-016 1.000000e+000 -2.775558e-017
      outer loop
         vertex 9.277922e+002 1.455417e+003 2.607390e+003
         vertex 8.797922e+002 1.455417e+003 1.857390e+003
         vertex 8.797922e+002 1.455417e+003 2.607390e+003
      endloop
   endfacet
   facet normal -1.000000e+000 -1.387779e-017 -3.642919e-017
      outer loop
         vertex 8.737922e+002 1.449417e+003 1.857390e+003
         vertex 8.737922e+002 1.401417e+003 1.857390e+003
         vertex 8.737922e+002 1.449417e+003 2.607390e+003
      endloop
   endfacet
   facet normal -1.000000e+000 -1.387779e-017 -3.642919e-017
      outer loop
         vertex 8.737922e+002 1.449417e+003 2.607390e+003
         vertex 8.737922e+002 1.401417e+003 1.857390e+003
         vertex 8.737922e+002 1.401417e+003 2.607390e+003
      endloop
   endfacet
   facet normal 0.000000e+000 -1.000000e+000 2.775558e-017
      outer loop
         vertex 9.277922e+002 1.395417e+003 2.607390e+003
         vertex 8.797922e+002 1.395417e+003 2.607390e+003
         vertex 9.277922e+002 1.395417e+003 1.857390e+003
      endloop
   endfacet
   facet normal 0.000000e+000 -1.000000e+000 2.775558e-017
      outer loop
         vertex 9.277922e+002 1.395417e+003 1.857390e+003
         vertex 8.797922e+002 1.395417e+003 2.607390e+003
         vertex 8.797922e+002 1.395417e+003 1.857390e+003
      endloop
   endfacet
   facet normal 9.983120e-001 5.807914e-002 3.475568e-017
      outer loop
         vertex 9.337922e+002 1.449417e+003 2.607390e+003
         vertex 9.337922e+002 1.449417e+003 1.857390e+003
         vertex 9.337010e+002 1.450459e+003 1.857390e+003
      endloop
   endfacet
   facet normal 9.932307e-001 1.161583e-001 3.295855e-017
      outer loop
         vertex 9.337922e+002 1.449417e+003 2.607390e+003
         vertex 9.337010e+002 1.450459e+003 1.857390e+003
         vertex 9.337010e+002 1.450459e+003 2.607390e+003
      endloop
   endfacet
   facet normal 9.730601e-001 2.305518e-001 2.904869e-017
      outer loop
         vertex 9.337010e+002 1.450459e+003 2.607390e+003
         vertex 9.337010e+002 1.450459e+003 1.857390e+003
         vertex 9.334304e+002 1.451469e+003 1.857390e+003
      endloop
   endfacet
   facet normal 9.579706e-001 2.868663e-001 2.693596e-017
      outer loop
         vertex 9.337010e+002 1.450459e+003 2.607390e+003
         vertex 9.334304e+002 1.451469e+003 1.857390e+003
         vertex 9.334304e+002 1.451469e+003 2.607390e+003
      endloop
   endfacet
   facet normal 9.182422e-001 3.960194e-001 2.245908e-017
      outer loop
         vertex 9.334304e+002 1.451469e+003 2.607390e+003
         vertex 9.334304e+002 1.451469e+003 1.857390e+003
         vertex 9.329883e+002 1.452417e+003 1.857390e+003
      endloop
   endfacet
   facet normal 8.936031e-001 4.488580e-001 2.009493e-017
      outer loop
         vertex 9.334304e+002 1.451469e+003 2.607390e+003
         vertex 9.329883e+002 1.452417e+003 1.857390e+003
         vertex 9.329883e+002 1.452417e+003 2.607390e+003
      endloop
   endfacet
   facet normal 8.355240e-001 5.494540e-001 1.518705e-017
      outer loop
         vertex 9.329883e+002 1.452417e+003 2.607390e+003
         vertex 9.329883e+002 1.452417e+003 1.857390e+003
         vertex 9.323885e+002 1.453274e+003 1.857390e+003
      endloop
   endfacet
   facet normal 8.020839e-001 5.972114e-001 1.264332e-017
      outer loop
         vertex 9.329883e+002 1.452417e+003 2.607390e+003
         vertex 9.323885e+002 1.453274e+003 1.857390e+003
         vertex 9.323885e+002 1.453274e+003 2.607390e+003
      endloop
   endfacet
   facet normal 7.274188e-001 6.861938e-001 7.453576e-018
      outer loop
         vertex 9.323885e+002 1.453274e+003 2.607390e+003
         vertex 9.323885e+002 1.453274e+003 1.857390e+003
         vertex 9.316489e+002 1.454014e+003 1.857390e+003
      endloop
   endfacet
   facet normal 6.861938e-001 7.274188e-001 4.807558e-018
      outer loop
         vertex 9.323885e+002 1.453274e+003 2.607390e+003
         vertex 9.316489e+002 1.454014e+003 1.857390e+003
         vertex 9.316489e+002 1.454014e+003 2.607390e+003
      endloop
   endfacet
   facet normal 5.972114e-001 8.020839e-001 -5.063710e-019
      outer loop
         vertex 9.316489e+002 1.454014e+003 2.607390e+003
         vertex 9.316489e+002 1.454014e+003 1.857390e+003
         vertex 9.307922e+002 1.454613e+003 1.857390e+003
      endloop
   endfacet
   facet normal 5.494540e-001 8.355240e-001 -3.174284e-018
      outer loop
         vertex 9.316489e+002 1.454014e+003 2.607390e+003
         vertex 9.307922e+002 1.454613e+003 1.857390e+003
         vertex 9.307922e+002 1.454613e+003 2.607390e+003
      endloop
   endfacet
   facet normal 4.488580e-001 8.936031e-001 -8.450934e-018
      outer loop
         vertex 9.307922e+002 1.454613e+003 2.607390e+003
         vertex 9.307922e+002 1.454613e+003 1.857390e+003
         vertex 9.298443e+002 1.455055e+003 1.857390e+003
      endloop
   endfacet
   facet normal 3.960194e-001 9.182422e-001 -1.105967e-017
      outer loop
         vertex 9.307922e+002 1.454613e+003 2.607390e+003
         vertex 9.298443e+002 1.455055e+003 1.857390e+003
         vertex 9.298443e+002 1.455055e+003 2.607390e+003
      endloop
   endfacet
   facet normal 2.868663e-001 9.579706e-001 -1.613872e-017
      outer loop
         vertex 9.298443e+002 1.455055e+003 2.607390e+003
         vertex 9.298443e+002 1.455055e+003 1.857390e+003
         vertex 9.288341e+002 1.455326e+003 1.857390e+003
      endloop
   endfacet
   facet normal 2.305518e-001 9.730601e-001 -1.860902e-017
      outer loop
         vertex 9.298443e+002 1.455055e+003 2.607390e+003
         vertex 9.288341e+002 1.455326e+003 1.857390e+003
         vertex 9.288341e+002 1.455326e+003 2.607390e+003
      endloop
   endfacet
   facet normal 1.161583e-001 9.932307e-001 -2.333614e-017
      outer loop
         vertex 9.288341e+002 1.455326e+003 2.607390e+003
         vertex 9.288341e+002 1.455326e+003 1.857390e+003
         vertex 9.277922e+002 1.455417e+003 1.857390e+003
      endloop
   endfacet
   facet normal 5.807914e-002 9.983120e-001 -2.559295e-017
      outer loop
         vertex 9.288341e+002 1.455326e+003 2.607390e+003
         vertex 9.277922e+002 1.455417e+003 1.857390e+003
         vertex 9.277922e+002 1.455417e+003 2.607390e+003
      endloop
   endfacet
   facet normal 5.807914e-002 -9.983120e-001 2.982450e-017
      outer loop
         vertex 9.277922e+002 1.395417e+003 2.607390e+003
         vertex 9.277922e+002 1.395417e+003 1.857390e+003
         vertex 9.288341e+002 1.395509e+003 1.857390e+003
      endloop
   endfacet
   facet normal 1.161583e-001 -9.932307e-001 3.179924e-017
      outer loop
         vertex 9.277922e+002 1.395417e+003 2.607390e+003
         vertex 9.288341e+002 1.395509e+003 1.857390e+003
         vertex 9.288341e+002 1.395509e+003 2.607390e+003
      endloop
   endfacet
   facet normal 2.305518e-001 -9.730601e-001 3.540666e-017
      outer loop
         vertex 9.288341e+002 1.395509e+003 2.607390e+003
         vertex 9.288341e+002 1.395509e+003 1.857390e+003
         vertex 9.298443e+002 1.395779e+003 1.857390e+003
      endloop
   endfacet
   facet normal 2.868663e-001 -9.579706e-001 3.703933e-017
      outer loop
         vertex 9.288341e+002 1.395509e+003 2.607390e+003
         vertex 9.298443e+002 1.395779e+003 1.857390e+003
         vertex 9.298443e+002 1.395779e+003 2.607390e+003
      endloop
   endfacet
   facet normal 3.960194e-001 -9.182422e-001 3.991301e-017
      outer loop
         vertex 9.298443e+002 1.395779e+003 2.607390e+003
         vertex 9.298443e+002 1.395779e+003 1.857390e+003
         vertex 9.307922e+002 1.396221e+003 1.857390e+003
      endloop
   endfacet
   facet normal 4.488580e-001 -8.936031e-001 4.115400e-017
      outer loop
         vertex 9.298443e+002 1.395779e+003 2.607390e+003
         vertex 9.307922e+002 1.396221e+003 1.857390e+003
         vertex 9.307922e+002 1.396221e+003 2.607390e+003
      endloop
   endfacet
   facet normal 5.494540e-001 -8.355240e-001 4.320661e-017
      outer loop
         vertex 9.307922e+002 1.396221e+003 2.607390e+003
         vertex 9.307922e+002 1.396221e+003 1.857390e+003
         vertex 9.316489e+002 1.396821e+003 1.857390e+003
      endloop
   endfacet
   facet normal 5.972114e-001 -8.020839e-001 4.401823e-017
      outer loop
         vertex 9.307922e+002 1.396221e+003 2.607390e+003
         vertex 9.316489e+002 1.396821e+003 1.857390e+003
         vertex 9.316489e+002 1.396821e+003 2.607390e+003
      endloop
   endfacet
   facet normal 6.861938e-001 -7.274188e-001 4.518741e-017
      outer loop
         vertex 9.316489e+002 1.396821e+003 2.607390e+003
         vertex 9.316489e+002 1.396821e+003 1.857390e+003
         vertex 9.323885e+002 1.397561e+003 1.857390e+003
      endloop
   endfacet
   facet normal 7.274188e-001 -6.861938e-001 4.554498e-017
      outer loop
         vertex 9.316489e+002 1.396821e+003 2.607390e+003
         vertex 9.323885e+002 1.397561e+003 1.857390e+003
         vertex 9.323885e+002 1.397561e+003 2.607390e+003
      endloop
   endfacet
   facet normal 8.020839e-001 -5.972114e-001 4.579521e-017
      outer loop
         vertex 9.323885e+002 1.397561e+003 2.607390e+003
         vertex 9.323885e+002 1.397561e+003 1.857390e+003
         vertex 9.329883e+002 1.398417e+003 1.857390e+003
      endloop
   endfacet
   facet normal 8.355240e-001 -5.494540e-001 4.568788e-017
      outer loop
         vertex 9.323885e+002 1.397561e+003 2.607390e+003
         vertex 9.329883e+002 1.398417e+003 1.857390e+003
         vertex 9.329883e+002 1.398417e+003 2.607390e+003
      endloop
   endfacet
   facet normal 8.936031e-001 -4.488580e-001 4.501155e-017
      outer loop
         vertex 9.329883e+002 1.398417e+003 2.607390e+003
         vertex 9.329883e+002 1.398417e+003 1.857390e+003
         vertex 9.334304e+002 1.399365e+003 1.857390e+003
      endloop
   endfacet
   facet normal 9.182422e-001 -3.960194e-001 4.444256e-017
      outer loop
         vertex 9.329883e+002 1.398417e+003 2.607390e+003
         vertex 9.334304e+002 1.399365e+003 1.857390e+003
         vertex 9.334304e+002 1.399365e+003 2.607390e+003
      endloop
   endfacet
   facet normal 9.579706e-001 -2.868663e-001 4.286023e-017
      outer loop
         vertex 9.334304e+002 1.399365e+003 2.607390e+003
         vertex 9.334304e+002 1.399365e+003 1.857390e+003
         vertex 9.337010e+002 1.400375e+003 1.857390e+003
      endloop
   endfacet
   facet normal 9.730601e-001 -2.305518e-001 4.184689e-017
      outer loop
         vertex 9.334304e+002 1.399365e+003 2.607390e+003
         vertex 9.337010e+002 1.400375e+003 1.857390e+003
         vertex 9.337010e+002 1.400375e+003 2.607390e+003
      endloop
   endfacet
   facet normal 9.932307e-001 -1.161583e-001 3.940663e-017
      outer loop
         vertex 9.337010e+002 1.400375e+003 2.607390e+003
         vertex 9.337010e+002 1.400375e+003 1.857390e+003
         vertex 9.337922e+002 1.401417e+003 1.857390e+003
      endloop
   endfacet
   facet normal 9.983120e-001 -5.807914e-002 3.797972e-017
      outer loop
         vertex 9.337010e+002 1.400375e+003 2.607390e+003
         vertex 9.337922e+002 1.401417e+003 1.857390e+003
         vertex 9.337922e+002 1.401417e+003 2.607390e+003
      endloop
   endfacet
   facet normal -5.807914e-002 9.983120e-001 -2.982450e-017
      outer loop
         vertex 8.797922e+002 1.455417e+003 2.607390e+003
         vertex 8.797922e+002 1.455417e+003 1.857390e+003
         vertex 8.787503e+002 1.455326e+003 1.857390e+003
      endloop
   endfacet
   facet normal -1.161583e-001 9.932307e-001 -3.179924e-017
      outer loop
         vertex 8.797922e+002 1.455417e+003 2.607390e+003
         vertex 8.787503e+002 1.455326e+003 1.857390e+003
         vertex 8.787503e+002 1.455326e+003 2.607390e+003
      endloop
   endfacet
   facet normal -2.305518e-001 9.730601e-001 -3.540666e-017
      outer loop
         vertex 8.787503e+002 1.455326e+003 2.607390e+003
         vertex 8.787503e+002 1.455326e+003 1.857390e+003
         vertex 8.777401e+002 1.455055e+003 1.857390e+003
      endloop
   endfacet
   facet normal -2.868663e-001 9.579706e-001 -3.703933e-017
      outer loop
         vertex 8.787503e+002 1.455326e+003 2.607390e+003
         vertex 8.777401e+002 1.455055e+003 1.857390e+003
         vertex 8.777401e+002 1.455055e+003 2.607390e+003
      endloop
   endfacet
   facet normal -3.960194e-001 9.182422e-001 -3.991301e-017
      outer loop
         vertex 8.777401e+002 1.455055e+003 2.607390e+003
         vertex 8.777401e+002 1.455055e+003 1.857390e+003
         vertex 8.767922e+002 1.454613e+003 1.857390e+003
      endloop
   endfacet
   facet normal -4.488580e-001 8.936031e-001 -4.115400e-017
      outer loop
         vertex 8.777401e+002 1.455055e+003 2.607390e+003
         vertex 8.767922e+002 1.454613e+003 1.857390e+003
         vertex 8.767922e+002 1.454613e+003 2.607390e+003
      endloop
   endfacet
   facet normal -5.494540e-001 8.355240e-001 -4.320661e-017
      outer loop
         vertex 8.767922e+002 1.454613e+003 2.607390e+003
         vertex 8.767922e+002 1.454613e+003 1.857390e+003
         vertex 8.759355e+002 1.454014e+003 1.857390e+003
      endloop
   endfacet
   facet normal -5.972114e-001 8.020839e-001 -4.401823e-017
      outer loop
         vertex 8.767922e+002 1.454613e+003 2.607390e+003
         vertex 8.759355e+002 1.454014e+003 1.857390e+003
         vertex 8.759355e+002 1.454014e+003 2.607390e+003
      endloop
   endfacet
   facet normal -6.861938e-001 7.274188e-001 -4.518741e-017
      outer loop
         vertex 8.759355e+002 1.454014e+003 2.607390e+003
         vertex 8.759355e+002 1.454014e+003 1.857390e+003
         vertex 8.751959e+002 1.453274e+003 1.857390e+003
      endloop
   endfacet
   facet normal -7.274188e-001 6.861938e-001 -4.554498e-017
      outer loop
         vertex 8.759355e+002 1.454014e+003 2.607390e+003
         vertex 8.751959e+002 1.453274e+003 1.857390e+003
         vertex 8.751959e+002 1.453274e+003 2.607390e+003
      endloop
   endfacet
   facet normal -8.020839e-001 5.972114e-001 -4.579521e-017
      outer loop
         vertex 8.751959e+002 1.453274e+003 2.607390e+003
         vertex 8.751959e+002 1.453274e+003 1.857390e+003
         vertex 8.745961e+002 1.452417e+003 1.857390e+003
      endloop
   endfacet
   facet normal -8.355240e-001 5.494540e-001 -4.568788e-017
      outer loop
         vertex 8.751959e+002 1.453274e+003 2.607390e+003
         vertex 8.745961e+002 1.452417e+003 1.857390e+003
         vertex 8.745961e+002 1.452417e+003 2.607390e+003
      endloop
   endfacet
   facet normal -8.936031e-001 4.488580e-001 -4.501155e-017
      outer loop
         vertex 8.745961e+002 1.452417e+003 2.607390e+003
         vertex 8.745961e+002 1.452417e+003 1.857390e+003
         vertex 8.741541e+002 1.451469e+003 1.857390e+003
      endloop
   endfacet
   facet normal -9.182422e-001 3.960194e-001 -4.444256e-017
      outer loop
         vertex 8.745961e+002 1.452417e+003 2.607390e+003
         vertex 8.741541e+002 1.451469e+003 1.857390e+003
         vertex 8.741541e+002 1.451469e+003 2.607390e+003
      endloop
   endfacet
   facet normal -9.579706e-001 2.868663e-001 -4.286023e-017
      outer loop
         vertex 8.741541e+002 1.451469e+003 2.607390e+003
         vertex 8.741541e+002 1.451469e+003 1.857390e+003
         vertex 8.738834e+002 1.450459e+003 1.857390e+003
      endloop
   endfacet
   facet normal -9.730601e-001 2.305518e-001 -4.184689e-017
      outer loop
         vertex 8.741541e+002 1.451469e+003 2.607390e+003
         vertex 8.738834e+002 1.450459e+003 1.857390e+003
         vertex 8.738834e+002 1.450459e+003 2.607390e+003
      endloop
   endfacet
   facet normal -9.932307e-001 1.161583e-001 -3.940663e-017
      outer loop
         vertex 8.738834e+002 1.450459e+003 2.607390e+003
         vertex 8.738834e+002 1.450459e+003 1.857390e+003
         vertex 8.737922e+002 1.449417e+003 1.857390e+003
      endloop
   endfacet
   facet normal -9.983120e-001 5.807914e-002 -3.797972e-017
      outer loop
         vertex 8.738834e+002 1.450459e+003 2.607390e+003
         vertex 8.737922e+002 1.449417e+003 1.857390e+003
         vertex 8.737922e+002 1.449417e+003 2.607390e+003
      endloop
   endfacet
   facet normal -9.983120e-001 -5.807914e-002 -3.475568e-017
      outer loop
         vertex 8.737922e+002 1.401417e+003 2.607390e+003
         vertex 8.737922e+002 1.401417e+003 1.857390e+003
         vertex 8.738834e+002 1.400375e+003 1.857390e+003
      endloop
   endfacet
   facet normal -9.932307e-001 -1.161583e-001 -3.295855e-017
      outer loop
         vertex 8.737922e+002 1.401417e+003 2.607390e+003
         vertex 8.738834e+002 1.400375e+003 1.857390e+003
         vertex 8.738834e+002 1.400375e+003 2.607390e+003
      endloop
   endfacet
   facet normal -9.730601e-001 -2.305518e-001 -2.904869e-017
      outer loop
         vertex 8.738834e+002 1.400375e+003 2.607390e+003
         vertex 8.738834e+002 1.400375e+003 1.857390e+003
         vertex 8.741541e+002 1.399365e+003 1.857390e+003
      endloop
   endfacet
   facet normal -9.579706e-001 -2.868663e-001 -2.693596e-017
      outer loop
         vertex 8.738834e+002 1.400375e+003 2.607390e+003
         vertex 8.741541e+002 1.399365e+003 1.857390e+003
         vertex 8.741541e+002 1.399365e+003 2.607390e+003
      endloop
   endfacet
   facet normal -9.182422e-001 -3.960194e-001 -2.245908e-017
      outer loop
         vertex 8.741541e+002 1.399365e+003 2.607390e+003
         vertex 8.741541e+002 1.399365e+003 1.857390e+003
         vertex 8.745961e+002 1.398417e+003 1.857390e+003
      endloop
   endfacet
   facet normal -8.936031e-001 -4.488580e-001 -2.009493e-017
      outer loop
         vertex 8.741541e+002 1.399365e+003 2.607390e+003
         vertex 8.745961e+002 1.398417e+003 1.857390e+003
         vertex 8.745961e+002 1.398417e+003 2.607390e+003
      endloop
   endfacet
   facet normal -8.355240e-001 -5.494540e-001 -1.518705e-017
      outer loop
         vertex 8.745961e+002 1.398417e+003 2.607390e+003
         vertex 8.745961e+002 1.398417e+003 1.857390e+003
         vertex 8.751959e+002 1.397561e+003 1.857390e+003
      endloop
   endfacet
   facet normal -8.020839e-001 -5.972114e-001 -1.264332e-017
      outer loop
         vertex 8.745961e+002 1.398417e+003 2.607390e+003
         vertex 8.751959e+002 1.397561e+003 1.857390e+003
         vertex 8.751959e+002 1.397561e+003 2.607390e+003
      endloop
   endfacet
   facet normal -7.274188e-001 -6.861938e-001 -7.453576e-018
      outer loop
         vertex 8.751959e+002 1.397561e+003 2.607390e+003
         vertex 8.751959e+002 1.397561e+003 1.857390e+003
         vertex 8.759355e+002 1.396821e+003 1.857390e+003
      endloop
   endfacet
   facet normal -6.861938e-001 -7.274188e-001 -4.807558e-018
      outer loop
         vertex 8.751959e+002 1.397561e+003 2.607390e+003
         vertex 8.759355e+002 1.396821e+003 1.857390e+003
         vertex 8.759355e+002 1.396821e+003 2.607390e+003
      endloop
   endfacet
   facet normal -5.972114e-001 -8.020839e-001 5.063710e-019
      outer loop
         vertex 8.759355e+002 1.396821e+003 2.607390e+003
         vertex 8.759355e+002 1.396821e+003 1.857390e+003
         vertex 8.767922e+002 1.396221e+003 1.857390e+003
      endloop
   endfacet
   facet normal -5.494540e-001 -8.355240e-001 3.174284e-018
      outer loop
         vertex 8.759355e+002 1.396821e+003 2.607390e+003
         vertex 8.767922e+002 1.396221e+003 1.857390e+003
         vertex 8.767922e+002 1.396221e+003 2.607390e+003
      endloop
   endfacet
   facet normal -4.488580e-001 -8.936031e-001 8.450934e-018
      outer loop
         vertex 8.767922e+002 1.396221e+003 2.607390e+003
         vertex 8.767922e+002 1.396221e+003 1.857390e+003
         vertex 8.777401e+002 1.395779e+003 1.857390e+003
      endloop
   endfacet
   facet normal -3.960194e-001 -9.182422e-001 1.105967e-017
      outer loop
         vertex 8.767922e+002 1.396221e+003 2.607390e+003
         vertex 8.777401e+002 1.395779e+003 1.857390e+003
         vertex 8.777401e+002 1.395779e+003 2.607390e+003
      endloop
   endfacet
   facet normal -2.868663e-001 -9.579706e-001 1.613872e-017
      outer loop
         vertex 8.777401e+002 1.395779e+003 2.607390e+003
         vertex 8.777401e+002 1.395779e+003 1.857390e+003
         vertex 8.787503e+002 1.395509e+003 1.857390e+003
      endloop
   endfacet
   facet normal -2.305518e-001 -9.730601e-001 1.860902e-017
      outer loop
         vertex 8.777401e+002 1.395779e+003 2.607390e+003
         vertex 8.787503e+002 1.395509e+003 1.857390e+003
         vertex 8.787503e+002 1.395509e+003 2.607390e+003
      endloop
   endfacet
   facet normal -1.161583e-001 -9.932307e-001 2.333614e-017
      outer loop
         vertex 8.787503e+002 1.395509e+003 2.607390e+003
         vertex 8.787503e+002 1.395509e+003 1.857390e+003
         vertex 8.797922e+002 1.395417e+003 1.857390e+003
      endloop
   endfacet
   facet normal -5.807914e-002 -9.983120e-001 2.559295e-017
      outer loop
         vertex 8.787503e+002 1.395509e+003 2.607390e+003
         vertex 8.797922e+002 1.395417e+003 1.857390e+003
         vertex 8.797922e+002 1.395417e+003 2.607390e+003
      endloop
   endfacet
   facet normal -1.000000e+000 -1.387779e-017 -3.642919e-017
      outer loop
         vertex 9.287922e+002 1.401417e+003 2.607390e+003
         vertex 9.287922e+002 1.449417e+003 2.607390e+003
         vertex 9.287922e+002 1.401417e+003 1.857390e+003
      endloop
   endfacet
   facet normal -1.000000e+000 -1.387779e-017 -3.642919e-017
      outer loop
         vertex 9.287922e+002 1.401417e+003 1.857390e+003
         vertex 9.287922e+002 1.449417e+003 2.607390e+003
         vertex 9.287922e+002 1.449417e+003 1.857390e+003
      endloop
   endfacet
   facet normal 3.469447e-016 -1.000000e+000 2.775558e-017
      outer loop
         vertex 8.797922e+002 1.450417e+003 1.857390e+003
         vertex 9.277922e+002 1.450417e+003 1.857390e+003
         vertex 8.797922e+002 1.450417e+003 2.607390e+003
      endloop
   endfacet
   facet normal 3.469447e-016 -1.000000e+000 2.775558e-017
      outer loop
         vertex 8.797922e+002 1.450417e+003 2.607390e+003
         vertex 9.277922e+002 1.450417e+003 1.857390e+003
         vertex 9.277922e+002 1.450417e+003 2.607390e+003
      endloop
   endfacet
   facet normal 1.000000e+000 1.387779e-017 3.642919e-017
      outer loop
         vertex 8.787922e+002 1.401417e+003 1.857390e+003
         vertex 8.787922e+002 1.449417e+003 1.857390e+003
         vertex 8.787922e+002 1.401417e+003 2.607390e+003
      endloop
   endfacet
   facet normal 1.000000e+000 1.387779e-017 3.642919e-017
      outer loop
         vertex 8.787922e+002 1.401417e+003 2.607390e+003
         vertex 8.787922e+002 1.449417e+003 1.857390e+003
         vertex 8.787922e+002 1.449417e+003 2.607390e+003
      endloop
   endfacet
   facet normal 0.000000e+000 1.000000e+000 -2.775558e-017
      outer loop
         vertex 8.797922e+002 1.400417e+003 2.607390e+003
         vertex 9.277922e+002 1.400417e+003 2.607390e+003
         vertex 8.797922e+002 1.400417e+003 1.857390e+003
      endloop
   endfacet
   facet normal 0.000000e+000 1.000000e+000 -2.775558e-017
      outer loop
         vertex 8.797922e+002 1.400417e+003 1.857390e+003
         vertex 9.277922e+002 1.400417e+003 2.607390e+003
         vertex 9.277922e+002 1.400417e+003 1.857390e+003
      endloop
   endfacet
   facet normal -5.807914e-002 -9.983120e-001 2.559295e-017
      outer loop
         vertex 9.277922e+002 1.450417e+003 2.607390e+003
         vertex 9.277922e+002 1.450417e+003 1.857390e+003
         vertex 9.279659e+002 1.450402e+003 1.857390e+003
      endloop
   endfacet
   facet normal -1.161583e-001 -9.932307e-001 2.333614e-017
      outer loop
         vertex 9.277922e+002 1.450417e+003 2.607390e+003
         vertex 9.279659e+002 1.450402e+003 1.857390e+003
         vertex 9.279659e+002 1.450402e+003 2.607390e+003
      endloop
   endfacet
   facet normal -2.305518e-001 -9.730601e-001 1.860902e-017
      outer loop
         vertex 9.279659e+002 1.450402e+003 2.607390e+003
         vertex 9.279659e+002 1.450402e+003 1.857390e+003
         vertex 9.281342e+002 1.450357e+003 1.857390e+003
      endloop
   endfacet
   facet normal -2.868663e-001 -9.579706e-001 1.613872e-017
      outer loop
         vertex 9.279659e+002 1.450402e+003 2.607390e+003
         vertex 9.281342e+002 1.450357e+003 1.857390e+003
         vertex 9.281342e+002 1.450357e+003 2.607390e+003
      endloop
   endfacet
   facet normal -3.960194e-001 -9.182422e-001 1.105967e-017
      outer loop
         vertex 9.281342e+002 1.450357e+003 2.607390e+003
         vertex 9.281342e+002 1.450357e+003 1.857390e+003
         vertex 9.282922e+002 1.450283e+003 1.857390e+003
      endloop
   endfacet
   facet normal -4.488580e-001 -8.936031e-001 8.450934e-018
      outer loop
         vertex 9.281342e+002 1.450357e+003 2.607390e+003
         vertex 9.282922e+002 1.450283e+003 1.857390e+003
         vertex 9.282922e+002 1.450283e+003 2.607390e+003
      endloop
   endfacet
   facet normal -5.494540e-001 -8.355240e-001 3.174284e-018
      outer loop
         vertex 9.282922e+002 1.450283e+003 2.607390e+003
         vertex 9.282922e+002 1.450283e+003 1.857390e+003
         vertex 9.284350e+002 1.450183e+003 1.857390e+003
      endloop
   endfacet
   facet normal -5.972114e-001 -8.020839e-001 5.063710e-019
      outer loop
         vertex 9.282922e+002 1.450283e+003 2.607390e+003
         vertex 9.284350e+002 1.450183e+003 1.857390e+003
         vertex 9.284350e+002 1.450183e+003 2.607390e+003
      endloop
   endfacet
   facet normal -6.861938e-001 -7.274188e-001 -4.807558e-018
      outer loop
         vertex 9.284350e+002 1.450183e+003 2.607390e+003
         vertex 9.284350e+002 1.450183e+003 1.857390e+003
         vertex 9.285582e+002 1.450060e+003 1.857390e+003
      endloop
   endfacet
   facet normal -7.274188e-001 -6.861938e-001 -7.453576e-018
      outer loop
         vertex 9.284350e+002 1.450183e+003 2.607390e+003
         vertex 9.285582e+002 1.450060e+003 1.857390e+003
         vertex 9.285582e+002 1.450060e+003 2.607390e+003
      endloop
   endfacet
   facet normal -8.020839e-001 -5.972114e-001 -1.264332e-017
      outer loop
         vertex 9.285582e+002 1.450060e+003 2.607390e+003
         vertex 9.285582e+002 1.450060e+003 1.857390e+003
         vertex 9.286583e+002 1.449917e+003 1.857390e+003
      endloop
   endfacet
   facet normal -8.355240e-001 -5.494540e-001 -1.518705e-017
      outer loop
         vertex 9.285582e+002 1.450060e+003 2.607390e+003
         vertex 9.286583e+002 1.449917e+003 1.857390e+003
         vertex 9.286583e+002 1.449917e+003 2.607390e+003
      endloop
   endfacet
   facet normal -8.936031e-001 -4.488580e-001 -2.009493e-017
      outer loop
         vertex 9.286583e+002 1.449917e+003 2.607390e+003
         vertex 9.286583e+002 1.449917e+003 1.857390e+003
         vertex 9.287319e+002 1.449759e+003 1.857390e+003
      endloop
   endfacet
   facet normal -9.182422e-001 -3.960194e-001 -2.245908e-017
      outer loop
         vertex 9.286583e+002 1.449917e+003 2.607390e+003
         vertex 9.287319e+002 1.449759e+003 1.857390e+003
         vertex 9.287319e+002 1.449759e+003 2.607390e+003
      endloop
   endfacet
   facet normal -9.579706e-001 -2.868663e-001 -2.693596e-017
      outer loop
         vertex 9.287319e+002 1.449759e+003 2.607390e+003
         vertex 9.287319e+002 1.449759e+003 1.857390e+003
         vertex 9.287770e+002 1.449591e+003 1.857390e+003
      endloop
   endfacet
   facet normal -9.730601e-001 -2.305518e-001 -2.904869e-017
      outer loop
         vertex 9.287319e+002 1.449759e+003 2.607390e+003
         vertex 9.287770e+002 1.449591e+003 1.857390e+003
         vertex 9.287770e+002 1.449591e+003 2.607390e+003
      endloop
   endfacet
   facet normal -9.932307e-001 -1.161583e-001 -3.295855e-017
      outer loop
         vertex 9.287770e+002 1.449591e+003 2.607390e+003
         vertex 9.287770e+002 1.449591e+003 1.857390e+003
         vertex 9.287922e+002 1.449417e+003 1.857390e+003
      endloop
   endfacet
   facet normal -9.983120e-001 -5.807914e-002 -3.475568e-017
      outer loop
         vertex 9.287770e+002 1.449591e+003 2.607390e+003
         vertex 9.287922e+002 1.449417e+003 1.857390e+003
         vertex 9.287922e+002 1.449417e+003 2.607390e+003
      endloop
   endfacet
   facet normal -9.983120e-001 5.807914e-002 -3.797972e-017
      outer loop
         vertex 9.287922e+002 1.401417e+003 2.607390e+003
         vertex 9.287922e+002 1.401417e+003 1.857390e+003
         vertex 9.287770e+002 1.401244e+003 1.857390e+003
      endloop
   endfacet
   facet normal -9.932307e-001 1.161583e-001 -3.940663e-017
      outer loop
         vertex 9.287922e+002 1.401417e+003 2.607390e+003
         vertex 9.287770e+002 1.401244e+003 1.857390e+003
         vertex 9.287770e+002 1.401244e+003 2.607390e+003
      endloop
   endfacet
   facet normal -9.730601e-001 2.305518e-001 -4.184689e-017
      outer loop
         vertex 9.287770e+002 1.401244e+003 2.607390e+003
         vertex 9.287770e+002 1.401244e+003 1.857390e+003
         vertex 9.287319e+002 1.401075e+003 1.857390e+003
      endloop
   endfacet
   facet normal -9.579706e-001 2.868663e-001 -4.286023e-017
      outer loop
         vertex 9.287770e+002 1.401244e+003 2.607390e+003
         vertex 9.287319e+002 1.401075e+003 1.857390e+003
         vertex 9.287319e+002 1.401075e+003 2.607390e+003
      endloop
   endfacet
   facet normal -9.182422e-001 3.960194e-001 -4.444256e-017
      outer loop
         vertex 9.287319e+002 1.401075e+003 2.607390e+003
         vertex 9.287319e+002 1.401075e+003 1.857390e+003
         vertex 9.286583e+002 1.400917e+003 1.857390e+003
      endloop
   endfacet
   facet normal -8.936031e-001 4.488580e-001 -4.501155e-017
      outer loop
         vertex 9.287319e+002 1.401075e+003 2.607390e+003
         vertex 9.286583e+002 1.400917e+003 1.857390e+003
         vertex 9.286583e+002 1.400917e+003 2.607390e+003
      endloop
   endfacet
   facet normal -8.355240e-001 5.494540e-001 -4.568788e-017
      outer loop
         vertex 9.286583e+002 1.400917e+003 2.607390e+003
         vertex 9.286583e+002 1.400917e+003 1.857390e+003
         vertex 9.285582e+002 1.400775e+003 1.857390e+003
      endloop
   endfacet
   facet normal -8.020839e-001 5.972114e-001 -4.579521e-017
      outer loop
         vertex 9.286583e+002 1.400917e+003 2.607390e+003
         vertex 9.285582e+002 1.400775e+003 1.857390e+003
         vertex 9.285582e+002 1.400775e+003 2.607390e+003
      endloop
   endfacet
   facet normal -7.274188e-001 6.861938e-001 -4.554498e-017
      outer loop
         vertex 9.285582e+002 1.400775e+003 2.607390e+003
         vertex 9.285582e+002 1.400775e+003 1.857390e+003
         vertex 9.284350e+002 1.400651e+003 1.857390e+003
      endloop
   endfacet
   facet normal -6.861938e-001 7.274188e-001 -4.518741e-017
      outer loop
         vertex 9.285582e+002 1.400775e+003 2.607390e+003
         vertex 9.284350e+002 1.400651e+003 1.857390e+003
         vertex 9.284350e+002 1.400651e+003 2.607390e+003
      endloop
   endfacet
   facet normal -5.972114e-001 8.020839e-001 -4.401823e-017
      outer loop
         vertex 9.284350e+002 1.400651e+003 2.607390e+003
         vertex 9.284350e+002 1.400651e+003 1.857390e+003
         vertex 9.282922e+002 1.400551e+003 1.857390e+003
      endloop
   endfacet
   facet normal -5.494540e-001 8.355240e-001 -4.320661e-017
      outer loop
         vertex 9.284350e+002 1.400651e+003 2.607390e+003
         vertex 9.282922e+002 1.400551e+003 1.857390e+003
         vertex 9.282922e+002 1.400551e+003 2.607390e+003
      endloop
   endfacet
   facet normal -4.488580e-001 8.936031e-001 -4.115400e-017
      outer loop
         vertex 9.282922e+002 1.400551e+003 2.607390e+003
         vertex 9.282922e+002 1.400551e+003 1.857390e+003
         vertex 9.281342e+002 1.400478e+003 1.857390e+003
      endloop
   endfacet
   facet normal -3.960194e-001 9.182422e-001 -3.991301e-017
      outer loop
         vertex 9.282922e+002 1.400551e+003 2.607390e+003
         vertex 9.281342e+002 1.400478e+003 1.857390e+003
         vertex 9.281342e+002 1.400478e+003 2.607390e+003
      endloop
   endfacet
   facet normal -2.868663e-001 9.579706e-001 -3.703933e-017
      outer loop
         vertex 9.281342e+002 1.400478e+003 2.607390e+003
         vertex 9.281342e+002 1.400478e+003 1.857390e+003
         vertex 9.279659e+002 1.400432e+003 1.857390e+003
      endloop
   endfacet
   facet normal -2.305518e-001 9.730601e-001 -3.540666e-017
      outer loop
         vertex 9.281342e+002 1.400478e+003 2.607390e+003
         vertex 9.279659e+002 1.400432e+003 1.857390e+003
         vertex 9.279659e+002 1.400432e+003 2.607390e+003
      endloop
   endfacet
   facet normal -1.161583e-001 9.932307e-001 -3.179924e-017
      outer loop
         vertex 9.279659e+002 1.400432e+003 2.607390e+003
         vertex 9.279659e+002 1.400432e+003 1.857390e+003
         vertex 9.277922e+002 1.400417e+003 1.857390e+003
      endloop
   endfacet
   facet normal -5.807914e-002 9.983120e-001 -2.982450e-017
      outer loop
         vertex 9.279659e+002 1.400432e+003 2.607390e+003
         vertex 9.277922e+002 1.400417e+003 1.857390e+003
         vertex 9.277922e+002 1.400417e+003 2.607390e+003
      endloop
   endfacet
   facet normal 9.986320e-001 -5.228807e-002 3.783065e-017
      outer loop
         vertex 8.787922e+002 1.449417e+003 2.607390e+003
         vertex 8.787922e+002 1.449417e+003 1.857390e+003
         vertex 8.788045e+002 1.449574e+003 1.857390e+003
      endloop
   endfacet
   facet normal 9.945169e-001 -1.045761e-001 3.913202e-017
      outer loop
         vertex 8.787922e+002 1.449417e+003 2.607390e+003
         vertex 8.788045e+002 1.449574e+003 1.857390e+003
         vertex 8.788045e+002 1.449574e+003 2.607390e+003
      endloop
   endfacet
   facet normal 9.781576e-001 -2.078648e-001 4.140290e-017
      outer loop
         vertex 8.788045e+002 1.449574e+003 2.607390e+003
         vertex 8.788045e+002 1.449574e+003 1.857390e+003
         vertex 8.788412e+002 1.449726e+003 1.857390e+003
      endloop
   endfacet
   facet normal 9.659134e-001 -2.588654e-001 4.237240e-017
      outer loop
         vertex 8.788045e+002 1.449574e+003 2.607390e+003
         vertex 8.788412e+002 1.449726e+003 1.857390e+003
         vertex 8.788412e+002 1.449726e+003 2.607390e+003
      endloop
   endfacet
   facet normal 9.335976e-001 -3.583232e-001 4.395567e-017
      outer loop
         vertex 8.788412e+002 1.449726e+003 2.607390e+003
         vertex 8.788412e+002 1.449726e+003 1.857390e+003
         vertex 8.789012e+002 1.449871e+003 1.857390e+003
      endloop
   endfacet
   facet normal 9.135259e-001 -4.067805e-001 4.456944e-017
      outer loop
         vertex 8.788412e+002 1.449726e+003 2.607390e+003
         vertex 8.789012e+002 1.449871e+003 1.857390e+003
         vertex 8.789012e+002 1.449871e+003 2.607390e+003
      endloop
   endfacet
   facet normal 8.660493e-001 -4.999585e-001 4.542612e-017
      outer loop
         vertex 8.789012e+002 1.449871e+003 2.607390e+003
         vertex 8.789012e+002 1.449871e+003 1.857390e+003
         vertex 8.789832e+002 1.450005e+003 1.857390e+003
      endloop
   endfacet
   facet normal 8.386444e-001 -5.446792e-001 4.566903e-017
      outer loop
         vertex 8.789012e+002 1.449871e+003 2.607390e+003
         vertex 8.789832e+002 1.450005e+003 1.857390e+003
         vertex 8.789832e+002 1.450005e+003 2.607390e+003
      endloop
   endfacet
   facet normal 7.771761e-001 -6.292831e-001 4.577801e-017
      outer loop
         vertex 8.789832e+002 1.450005e+003 2.607390e+003
         vertex 8.789832e+002 1.450005e+003 1.857390e+003
         vertex 8.790851e+002 1.450124e+003 1.857390e+003
      endloop
   endfacet
   facet normal 7.431127e-001 -6.691663e-001 4.564409e-017
      outer loop
         vertex 8.789832e+002 1.450005e+003 2.607390e+003
         vertex 8.790851e+002 1.450124e+003 1.857390e+003
         vertex 8.790851e+002 1.450124e+003 2.607390e+003
      endloop
   endfacet
   facet normal 6.691663e-001 -7.431127e-001 4.500271e-017
      outer loop
         vertex 8.790851e+002 1.450124e+003 2.607390e+003
         vertex 8.790851e+002 1.450124e+003 1.857390e+003
         vertex 8.792045e+002 1.450226e+003 1.857390e+003
      endloop
   endfacet
   facet normal 6.292831e-001 -7.771761e-001 4.449525e-017
      outer loop
         vertex 8.790851e+002 1.450124e+003 2.607390e+003
         vertex 8.792045e+002 1.450226e+003 1.857390e+003
         vertex 8.792045e+002 1.450226e+003 2.607390e+003
      endloop
   endfacet
   facet normal 5.446792e-001 -8.386444e-001 4.311928e-017
      outer loop
         vertex 8.792045e+002 1.450226e+003 2.607390e+003
         vertex 8.792045e+002 1.450226e+003 1.857390e+003
         vertex 8.793382e+002 1.450308e+003 1.857390e+003
      endloop
   endfacet
   facet normal 4.999585e-001 -8.660493e-001 4.225078e-017
      outer loop
         vertex 8.792045e+002 1.450226e+003 2.607390e+003
         vertex 8.793382e+002 1.450308e+003 1.857390e+003
         vertex 8.793382e+002 1.450308e+003 2.607390e+003
      endloop
   endfacet
   facet normal 4.067805e-001 -9.135259e-001 4.017412e-017
      outer loop
         vertex 8.793382e+002 1.450308e+003 2.607390e+003
         vertex 8.793382e+002 1.450308e+003 1.857390e+003
         vertex 8.794832e+002 1.450368e+003 1.857390e+003
      endloop
   endfacet
   facet normal 3.583232e-001 -9.335976e-001 3.896596e-017
      outer loop
         vertex 8.793382e+002 1.450308e+003 2.607390e+003
         vertex 8.794832e+002 1.450368e+003 1.857390e+003
         vertex 8.794832e+002 1.450368e+003 2.607390e+003
      endloop
   endfacet
   facet normal 2.588654e-001 -9.659134e-001 3.623974e-017
      outer loop
         vertex 8.794832e+002 1.450368e+003 2.607390e+003
         vertex 8.794832e+002 1.450368e+003 1.857390e+003
         vertex 8.796357e+002 1.450405e+003 1.857390e+003
      endloop
   endfacet
   facet normal 2.078648e-001 -9.781576e-001 3.472167e-017
      outer loop
         vertex 8.794832e+002 1.450368e+003 2.607390e+003
         vertex 8.796357e+002 1.450405e+003 1.857390e+003
         vertex 8.796357e+002 1.450405e+003 2.607390e+003
      endloop
   endfacet
   facet normal 1.045761e-001 -9.945169e-001 3.141301e-017
      outer loop
         vertex 8.796357e+002 1.450405e+003 2.607390e+003
         vertex 8.796357e+002 1.450405e+003 1.857390e+003
         vertex 8.797922e+002 1.450417e+003 1.857390e+003
      endloop
   endfacet
   facet normal 5.228807e-002 -9.986320e-001 2.962242e-017
      outer loop
         vertex 8.796357e+002 1.450405e+003 2.607390e+003
         vertex 8.797922e+002 1.450417e+003 1.857390e+003
         vertex 8.797922e+002 1.450417e+003 2.607390e+003
      endloop
   endfacet
   facet normal 5.807914e-002 9.983120e-001 -2.559295e-017
      outer loop
         vertex 8.797922e+002 1.400417e+003 2.607390e+003
         vertex 8.797922e+002 1.400417e+003 1.857390e+003
         vertex 8.796186e+002 1.400432e+003 1.857390e+003
      endloop
   endfacet
   facet normal 1.161583e-001 9.932307e-001 -2.333614e-017
      outer loop
         vertex 8.797922e+002 1.400417e+003 2.607390e+003
         vertex 8.796186e+002 1.400432e+003 1.857390e+003
         vertex 8.796186e+002 1.400432e+003 2.607390e+003
      endloop
   endfacet
   facet normal 2.305518e-001 9.730601e-001 -1.860902e-017
      outer loop
         vertex 8.796186e+002 1.400432e+003 2.607390e+003
         vertex 8.796186e+002 1.400432e+003 1.857390e+003
         vertex 8.794502e+002 1.400478e+003 1.857390e+003
      endloop
   endfacet
   facet normal 2.868663e-001 9.579706e-001 -1.613872e-017
      outer loop
         vertex 8.796186e+002 1.400432e+003 2.607390e+003
         vertex 8.794502e+002 1.400478e+003 1.857390e+003
         vertex 8.794502e+002 1.400478e+003 2.607390e+003
      endloop
   endfacet
   facet normal 3.960194e-001 9.182422e-001 -1.105967e-017
      outer loop
         vertex 8.794502e+002 1.400478e+003 2.607390e+003
         vertex 8.794502e+002 1.400478e+003 1.857390e+003
         vertex 8.792922e+002 1.400551e+003 1.857390e+003
      endloop
   endfacet
   facet normal 4.488580e-001 8.936031e-001 -8.450934e-018
      outer loop
         vertex 8.794502e+002 1.400478e+003 2.607390e+003
         vertex 8.792922e+002 1.400551e+003 1.857390e+003
         vertex 8.792922e+002 1.400551e+003 2.607390e+003
      endloop
   endfacet
   facet normal 5.494540e-001 8.355240e-001 -3.174284e-018
      outer loop
         vertex 8.792922e+002 1.400551e+003 2.607390e+003
         vertex 8.792922e+002 1.400551e+003 1.857390e+003
         vertex 8.791494e+002 1.400651e+003 1.857390e+003
      endloop
   endfacet
   facet normal 5.972114e-001 8.020839e-001 -5.063710e-019
      outer loop
         vertex 8.792922e+002 1.400551e+003 2.607390e+003
         vertex 8.791494e+002 1.400651e+003 1.857390e+003
         vertex 8.791494e+002 1.400651e+003 2.607390e+003
      endloop
   endfacet
   facet normal 6.861938e-001 7.274188e-001 4.807558e-018
      outer loop
         vertex 8.791494e+002 1.400651e+003 2.607390e+003
         vertex 8.791494e+002 1.400651e+003 1.857390e+003
         vertex 8.790262e+002 1.400775e+003 1.857390e+003
      endloop
   endfacet
   facet normal 7.274188e-001 6.861938e-001 7.453576e-018
      outer loop
         vertex 8.791494e+002 1.400651e+003 2.607390e+003
         vertex 8.790262e+002 1.400775e+003 1.857390e+003
         vertex 8.790262e+002 1.400775e+003 2.607390e+003
      endloop
   endfacet
   facet normal 8.020839e-001 5.972114e-001 1.264332e-017
      outer loop
         vertex 8.790262e+002 1.400775e+003 2.607390e+003
         vertex 8.790262e+002 1.400775e+003 1.857390e+003
         vertex 8.789261e+002 1.400917e+003 1.857390e+003
      endloop
   endfacet
   facet normal 8.355240e-001 5.494540e-001 1.518705e-017
      outer loop
         vertex 8.790262e+002 1.400775e+003 2.607390e+003
         vertex 8.789261e+002 1.400917e+003 1.857390e+003
         vertex 8.789261e+002 1.400917e+003 2.607390e+003
      endloop
   endfacet
   facet normal 8.936031e-001 4.488580e-001 2.009493e-017
      outer loop
         vertex 8.789261e+002 1.400917e+003 2.607390e+003
         vertex 8.789261e+002 1.400917e+003 1.857390e+003
         vertex 8.788525e+002 1.401075e+003 1.857390e+003
      endloop
   endfacet
   facet normal 9.182422e-001 3.960194e-001 2.245908e-017
      outer loop
         vertex 8.789261e+002 1.400917e+003 2.607390e+003
         vertex 8.788525e+002 1.401075e+003 1.857390e+003
         vertex 8.788525e+002 1.401075e+003 2.607390e+003
      endloop
   endfacet
   facet normal 9.579706e-001 2.868663e-001 2.693596e-017
      outer loop
         vertex 8.788525e+002 1.401075e+003 2.607390e+003
         vertex 8.788525e+002 1.401075e+003 1.857390e+003
         vertex 8.788074e+002 1.401244e+003 1.857390e+003
      endloop
   endfacet
   facet normal 9.730601e-001 2.305518e-001 2.904869e-017
      outer loop
         vertex 8.788525e+002 1.401075e+003 2.607390e+003
         vertex 8.788074e+002 1.401244e+003 1.857390e+003
         vertex 8.788074e+002 1.401244e+003 2.607390e+003
      endloop
   endfacet
   facet normal 9.932307e-001 1.161583e-001 3.295855e-017
      outer loop
         vertex 8.788074e+002 1.401244e+003 2.607390e+003
         vertex 8.788074e+002 1.401244e+003 1.857390e+003
         vertex 8.787922e+002 1.401417e+003 1.857390e+003
      endloop
   endfacet
   facet normal 9.983120e-001 5.807914e-002 3.475568e-017
      outer loop
         vertex 8.788074e+002 1.401244e+003 2.607390e+003
         vertex 8.787922e+002 1.401417e+003 1.857390e+003
         vertex 8.787922e+002 1.401417e+003 2.607390e+003
      endloop
   endfacet
endsolid