solid 09.025.00.00.000 - 09.025.00.01.000-1 09.025.00.01.001-1 09.025.00.01.0AA-2
   facet normal -2.007953e-018 -8.000485e-019 1.000000e+000
      outer loop
         vertex 2.388683e+003 4.369633e+002 2.607390e+003
         vertex 2.388601e+003 4.368295e+002 2.607390e+003
         vertex 2.392389e+003 4.335606e+002 2.607390e+003
      endloop
   endfacet
   facet normal -2.007953e-018 -8.000485e-019 1.000000e+000
      outer loop
         vertex 2.392389e+003 4.335606e+002 2.607390e+003
         vertex 2.388601e+003 4.368295e+002 2.607390e+003
         vertex 2.388499e+003 4.367102e+002 2.607390e+003
      endloop
   endfacet
   facet normal -2.007953e-018 -8.000485e-019 1.000000e+000
      outer loop
         vertex 2.392389e+003 4.335606e+002 2.607390e+003
         vertex 2.388499e+003 4.367102e+002 2.607390e+003
         vertex 2.391649e+003 4.328211e+002 2.607390e+003
      endloop
   endfacet
   facet normal -2.007953e-018 -8.000485e-019 1.000000e+000
      outer loop
         vertex 2.391649e+003 4.328211e+002 2.607390e+003
         vertex 2.388499e+003 4.367102e+002 2.607390e+003
         vertex 2.388380e+003 4.366083e+002 2.607390e+003
      endloop
   endfacet
   facet normal -2.007953e-018 -8.000485e-019 1.000000e+000
      outer loop
         vertex 2.391649e+003 4.328211e+002 2.607390e+003
         vertex 2.388380e+003 4.366083e+002 2.607390e+003
         vertex 2.390792e+003 4.322212e+002 2.607390e+003
      endloop
   endfacet
   facet normal -2.007953e-018 -8.000485e-019 1.000000e+000
      outer loop
         vertex 2.390792e+003 4.322212e+002 2.607390e+003
         vertex 2.388380e+003 4.366083e+002 2.607390e+003
         vertex 2.388246e+003 4.365263e+002 2.607390e+003
      endloop
   endfacet
   facet normal -2.007953e-018 -8.000485e-019 1.000000e+000
      outer loop
         vertex 2.390792e+003 4.322212e+002 2.607390e+003
         vertex 2.388246e+003 4.365263e+002 2.607390e+003
         vertex 2.389844e+003 4.317792e+002 2.607390e+003
      endloop
   endfacet
   facet normal -2.007953e-018 -8.000485e-019 1.000000e+000
      outer loop
         vertex 2.389844e+003 4.317792e+002 2.607390e+003
         vertex 2.388246e+003 4.365263e+002 2.607390e+003
         vertex 2.388101e+003 4.364663e+002 2.607390e+003
      endloop
   endfacet
   facet normal -2.007953e-018 -8.000485e-019 1.000000e+000
      outer loop
         vertex 2.389844e+003 4.317792e+002 2.607390e+003
         vertex 2.388101e+003 4.364663e+002 2.607390e+003
         vertex 2.388834e+003 4.315085e+002 2.607390e+003
      endloop
   endfacet
   facet normal -2.007953e-018 -8.000485e-019 1.000000e+000
      outer loop
         vertex 2.388834e+003 4.315085e+002 2.607390e+003
         vertex 2.388101e+003 4.364663e+002 2.607390e+003
         vertex 2.387949e+003 4.364297e+002 2.607390e+003
      endloop
   endfacet
   facet normal -2.007953e-018 -8.000485e-019 1.000000e+000
      outer loop
         vertex 2.388834e+003 4.315085e+002 2.607390e+003
         vertex 2.387949e+003 4.364297e+002 2.607390e+003
         vertex 2.387792e+003 4.314174e+002 2.607390e+003
      endloop
   endfacet
   facet normal -2.007953e-018 -8.000485e-019 1.000000e+000
      outer loop
         vertex 2.387792e+003 4.314174e+002 2.607390e+003
         vertex 2.387949e+003 4.364297e+002 2.607390e+003
         vertex 2.387792e+003 4.364173e+002 2.607390e+003
      endloop
   endfacet
   facet normal -2.007953e-018 -8.000485e-019 1.000000e+000
      outer loop
         vertex 2.387792e+003 4.314174e+002 2.607390e+003
         vertex 2.387792e+003 4.364173e+002 2.607390e+003
         vertex 2.339792e+003 4.314174e+002 2.607390e+003
      endloop
   endfacet
   facet normal -2.007953e-018 -8.000485e-019 1.000000e+000
      outer loop
         vertex 2.339792e+003 4.314174e+002 2.607390e+003
         vertex 2.387792e+003 4.364173e+002 2.607390e+003
         vertex 2.339792e+003 4.364173e+002 2.607390e+003
      endloop
   endfacet
   facet normal -2.007953e-018 -8.000485e-019 1.000000e+000
      outer loop
         vertex 2.339792e+003 4.314174e+002 2.607390e+003
         vertex 2.339792e+003 4.364173e+002 2.607390e+003
         vertex 2.338750e+003 4.315085e+002 2.607390e+003
      endloop
   endfacet
   facet normal -2.007953e-018 -8.000485e-019 1.000000e+000
      outer loop
         vertex 2.338750e+003 4.315085e+002 2.607390e+003
         vertex 2.339792e+003 4.364173e+002 2.607390e+003
         vertex 2.339618e+003 4.364325e+002 2.607390e+003
      endloop
   endfacet
   facet normal -2.007953e-018 -8.000485e-019 1.000000e+000
      outer loop
         vertex 2.338750e+003 4.315085e+002 2.607390e+003
         vertex 2.339618e+003 4.364325e+002 2.607390e+003
         vertex 2.337740e+003 4.317792e+002 2.607390e+003
      endloop
   endfacet
   facet normal -2.007953e-018 -8.000485e-019 1.000000e+000
      outer loop
         vertex 2.337740e+003 4.317792e+002 2.607390e+003
         vertex 2.339618e+003 4.364325e+002 2.607390e+003
         vertex 2.339450e+003 4.364776e+002 2.607390e+003
      endloop
   endfacet
   facet normal -2.007953e-018 -8.000485e-019 1.000000e+000
      outer loop
         vertex 2.337740e+003 4.317792e+002 2.607390e+003
         vertex 2.339450e+003 4.364776e+002 2.607390e+003
         vertex 2.336792e+003 4.322212e+002 2.607390e+003
      endloop
   endfacet
   facet normal -2.007953e-018 -8.000485e-019 1.000000e+000
      outer loop
         vertex 2.336792e+003 4.322212e+002 2.607390e+003
         vertex 2.339450e+003 4.364776e+002 2.607390e+003
         vertex 2.339292e+003 4.365513e+002 2.607390e+003
      endloop
   endfacet
   facet normal -2.007953e-018 -8.000485e-019 1.000000e+000
      outer loop
         vertex 2.336792e+003 4.322212e+002 2.607390e+003
         vertex 2.339292e+003 4.365513e+002 2.607390e+003
         vertex 2.335936e+003 4.328211e+002 2.607390e+003
      endloop
   endfacet
   facet normal -2.007953e-018 -8.000485e-019 1.000000e+000
      outer loop
         vertex 2.335936e+003 4.328211e+002 2.607390e+003
         vertex 2.339292e+003 4.365513e+002 2.607390e+003
         vertex 2.339149e+003 4.366513e+002 2.607390e+003
      endloop
   endfacet
   facet normal -2.007953e-018 -8.000485e-019 1.000000e+000
      outer loop
         vertex 2.335936e+003 4.328211e+002 2.607390e+003
         vertex 2.339149e+003 4.366513e+002 2.607390e+003
         vertex 2.335196e+003 4.335606e+002 2.607390e+003
      endloop
   endfacet
   facet normal -2.007953e-018 -8.000485e-019 1.000000e+000
      outer loop
         vertex 2.335196e+003 4.335606e+002 2.607390e+003
         vertex 2.339149e+003 4.366513e+002 2.607390e+003
         vertex 2.339026e+003 4.367746e+002 2.607390e+003
      endloop
   endfacet
   facet normal -2.007953e-018 -8.000485e-019 1.000000e+000
      outer loop
         vertex 2.335196e+003 4.335606e+002 2.607390e+003
         vertex 2.339026e+003 4.367746e+002 2.607390e+003
         vertex 2.334596e+003 4.344173e+002 2.607390e+003
      endloop
   endfacet
   facet normal -2.007953e-018 -8.000485e-019 1.000000e+000
      outer loop
         vertex 2.334596e+003 4.344173e+002 2.607390e+003
         vertex 2.339026e+003 4.367746e+002 2.607390e+003
         vertex 2.338926e+003 4.369173e+002 2.607390e+003
      endloop
   endfacet
   facet normal -2.007953e-018 -8.000485e-019 1.000000e+000
      outer loop
         vertex 2.334596e+003 4.344173e+002 2.607390e+003
         vertex 2.338926e+003 4.369173e+002 2.607390e+003
         vertex 2.334154e+003 4.353652e+002 2.607390e+003
      endloop
   endfacet
   facet normal -2.007953e-018 -8.000485e-019 1.000000e+000
      outer loop
         vertex 2.334154e+003 4.353652e+002 2.607390e+003
         vertex 2.338926e+003 4.369173e+002 2.607390e+003
         vertex 2.338852e+003 4.370753e+002 2.607390e+003
      endloop
   endfacet
   facet normal -2.007953e-018 -8.000485e-019 1.000000e+000
      outer loop
         vertex 2.334154e+003 4.353652e+002 2.607390e+003
         vertex 2.338852e+003 4.370753e+002 2.607390e+003
         vertex 2.333883e+003 4.363754e+002 2.607390e+003
      endloop
   endfacet
   facet normal -2.007953e-018 -8.000485e-019 1.000000e+000
      outer loop
         vertex 2.333883e+003 4.363754e+002 2.607390e+003
         vertex 2.338852e+003 4.370753e+002 2.607390e+003
         vertex 2.338807e+003 4.372437e+002 2.607390e+003
      endloop
   endfacet
   facet normal -2.007953e-018 -8.000485e-019 1.000000e+000
      outer loop
         vertex 2.333883e+003 4.363754e+002 2.607390e+003
         vertex 2.338807e+003 4.372437e+002 2.607390e+003
         vertex 2.333792e+003 4.374173e+002 2.607390e+003
      endloop
   endfacet
   facet normal -2.007953e-018 -8.000485e-019 1.000000e+000
      outer loop
         vertex 2.333792e+003 4.374173e+002 2.607390e+003
         vertex 2.338807e+003 4.372437e+002 2.607390e+003
         vertex 2.338792e+003 4.374173e+002 2.607390e+003
      endloop
   endfacet
   facet normal -2.007953e-018 -8.000485e-019 1.000000e+000
      outer loop
         vertex 2.333792e+003 4.374173e+002 2.607390e+003
         vertex 2.338792e+003 4.374173e+002 2.607390e+003
         vertex 2.333792e+003 4.854173e+002 2.607390e+003
      endloop
   endfacet
   facet normal -2.007953e-018 -8.000485e-019 1.000000e+000
      outer loop
         vertex 2.333792e+003 4.854173e+002 2.607390e+003
         vertex 2.338792e+003 4.374173e+002 2.607390e+003
         vertex 2.338792e+003 4.854173e+002 2.607390e+003
      endloop
   endfacet
   facet normal -2.007953e-018 -8.000485e-019 1.000000e+000
      outer loop
         vertex 2.333792e+003 4.854173e+002 2.607390e+003
         vertex 2.338792e+003 4.854173e+002 2.607390e+003
         vertex 2.333883e+003 4.864592e+002 2.607390e+003
      endloop
   endfacet
   facet normal -2.007953e-018 -8.000485e-019 1.000000e+000
      outer loop
         vertex 2.333883e+003 4.864592e+002 2.607390e+003
         vertex 2.338792e+003 4.854173e+002 2.607390e+003
         vertex 2.338807e+003 4.855910e+002 2.607390e+003
      endloop
   endfacet
   facet normal -2.007953e-018 -8.000485e-019 1.000000e+000
      outer loop
         vertex 2.333883e+003 4.864592e+002 2.607390e+003
         vertex 2.338807e+003 4.855910e+002 2.607390e+003
         vertex 2.334154e+003 4.874695e+002 2.607390e+003
      endloop
   endfacet
   facet normal -2.007953e-018 -8.000485e-019 1.000000e+000
      outer loop
         vertex 2.334154e+003 4.874695e+002 2.607390e+003
         vertex 2.338807e+003 4.855910e+002 2.607390e+003
         vertex 2.338852e+003 4.857593e+002 2.607390e+003
      endloop
   endfacet
   facet normal -2.007953e-018 -8.000485e-019 1.000000e+000
      outer loop
         vertex 2.334154e+003 4.874695e+002 2.607390e+003
         vertex 2.338852e+003 4.857593e+002 2.607390e+003
         vertex 2.334596e+003 4.884173e+002 2.607390e+003
      endloop
   endfacet
   facet normal -2.007953e-018 -8.000485e-019 1.000000e+000
      outer loop
         vertex 2.334596e+003 4.884173e+002 2.607390e+003
         vertex 2.338852e+003 4.857593e+002 2.607390e+003
         vertex 2.338926e+003 4.859173e+002 2.607390e+003
      endloop
   endfacet
   facet normal -2.007953e-018 -8.000485e-019 1.000000e+000
      outer loop
         vertex 2.334596e+003 4.884173e+002 2.607390e+003
         vertex 2.338926e+003 4.859173e+002 2.607390e+003
         vertex 2.335196e+003 4.892740e+002 2.607390e+003
      endloop
   endfacet
   facet normal -2.007953e-018 -8.000485e-019 1.000000e+000
      outer loop
         vertex 2.335196e+003 4.892740e+002 2.607390e+003
         vertex 2.338926e+003 4.859173e+002 2.607390e+003
         vertex 2.339026e+003 4.860601e+002 2.607390e+003
      endloop
   endfacet
   facet normal -2.007953e-018 -8.000485e-019 1.000000e+000
      outer loop
         vertex 2.335196e+003 4.892740e+002 2.607390e+003
         vertex 2.339026e+003 4.860601e+002 2.607390e+003
         vertex 2.335936e+003 4.900136e+002 2.607390e+003
      endloop
   endfacet
   facet normal -2.007953e-018 -8.000485e-019 1.000000e+000
      outer loop
         vertex 2.335936e+003 4.900136e+002 2.607390e+003
         vertex 2.339026e+003 4.860601e+002 2.607390e+003
         vertex 2.339149e+003 4.861834e+002 2.607390e+003
      endloop
   endfacet
   facet normal -2.007953e-018 -8.000485e-019 1.000000e+000
      outer loop
         vertex 2.335936e+003 4.900136e+002 2.607390e+003
         vertex 2.339149e+003 4.861834e+002 2.607390e+003
         vertex 2.336792e+003 4.906135e+002 2.607390e+003
      endloop
   endfacet
   facet normal -2.007953e-018 -8.000485e-019 1.000000e+000
      outer loop
         vertex 2.336792e+003 4.906135e+002 2.607390e+003
         vertex 2.339149e+003 4.861834e+002 2.607390e+003
         vertex 2.339292e+003 4.862834e+002 2.607390e+003
      endloop
   endfacet
   facet normal -2.007953e-018 -8.000485e-019 1.000000e+000
      outer loop
         vertex 2.336792e+003 4.906135e+002 2.607390e+003
         vertex 2.339292e+003 4.862834e+002 2.607390e+003
         vertex 2.337740e+003 4.910555e+002 2.607390e+003
      endloop
   endfacet
   facet normal -2.007953e-018 -8.000485e-019 1.000000e+000
      outer loop
         vertex 2.337740e+003 4.910555e+002 2.607390e+003
         vertex 2.339292e+003 4.862834e+002 2.607390e+003
         vertex 2.339450e+003 4.863570e+002 2.607390e+003
      endloop
   endfacet
   facet normal -2.007953e-018 -8.000485e-019 1.000000e+000
      outer loop
         vertex 2.337740e+003 4.910555e+002 2.607390e+003
         vertex 2.339450e+003 4.863570e+002 2.607390e+003
         vertex 2.338750e+003 4.913262e+002 2.607390e+003
      endloop
   endfacet
   facet normal -2.007953e-018 -8.000485e-019 1.000000e+000
      outer loop
         vertex 2.338750e+003 4.913262e+002 2.607390e+003
         vertex 2.339450e+003 4.863570e+002 2.607390e+003
         vertex 2.339618e+003 4.864022e+002 2.607390e+003
      endloop
   endfacet
   facet normal -2.007953e-018 -8.000485e-019 1.000000e+000
      outer loop
         vertex 2.338750e+003 4.913262e+002 2.607390e+003
         vertex 2.339618e+003 4.864022e+002 2.607390e+003
         vertex 2.339792e+003 4.914173e+002 2.607390e+003
      endloop
   endfacet
   facet normal -2.007953e-018 -8.000485e-019 1.000000e+000
      outer loop
         vertex 2.339792e+003 4.914173e+002 2.607390e+003
         vertex 2.339618e+003 4.864022e+002 2.607390e+003
         vertex 2.339792e+003 4.864173e+002 2.607390e+003
      endloop
   endfacet
   facet normal -2.007953e-018 -8.000485e-019 1.000000e+000
      outer loop
         vertex 2.339792e+003 4.914173e+002 2.607390e+003
         vertex 2.339792e+003 4.864173e+002 2.607390e+003
         vertex 2.387792e+003 4.914173e+002 2.607390e+003
      endloop
   endfacet
   facet normal -2.007953e-018 -8.000485e-019 1.000000e+000
      outer loop
         vertex 2.387792e+003 4.914173e+002 2.607390e+003
         vertex 2.339792e+003 4.864173e+002 2.607390e+003
         vertex 2.387792e+003 4.864173e+002 2.607390e+003
      endloop
   endfacet
   facet normal -2.007953e-018 -8.000485e-019 1.000000e+000
      outer loop
         vertex 2.387792e+003 4.914173e+002 2.607390e+003
         vertex 2.387792e+003 4.864173e+002 2.607390e+003
         vertex 2.388834e+003 4.913262e+002 2.607390e+003
      endloop
   endfacet
   facet normal -2.007953e-018 -8.000485e-019 1.000000e+000
      outer loop
         vertex 2.388834e+003 4.913262e+002 2.607390e+003
         vertex 2.387792e+003 4.864173e+002 2.607390e+003
         vertex 2.387966e+003 4.864022e+002 2.607390e+003
      endloop
   endfacet
   facet normal -2.007953e-018 -8.000485e-019 1.000000e+000
      outer loop
         vertex 2.388834e+003 4.913262e+002 2.607390e+003
         vertex 2.387966e+003 4.864022e+002 2.607390e+003
         vertex 2.389844e+003 4.910555e+002 2.607390e+003
      endloop
   endfacet
   facet normal -2.007953e-018 -8.000485e-019 1.000000e+000
      outer loop
         vertex 2.389844e+003 4.910555e+002 2.607390e+003
         vertex 2.387966e+003 4.864022e+002 2.607390e+003
         vertex 2.388134e+003 4.863570e+002 2.607390e+003
      endloop
   endfacet
   facet normal -2.007953e-018 -8.000485e-019 1.000000e+000
      outer loop
         vertex 2.389844e+003 4.910555e+002 2.607390e+003
         vertex 2.388134e+003 4.863570e+002 2.607390e+003
         vertex 2.390792e+003 4.906135e+002 2.607390e+003
      endloop
   endfacet
   facet normal -2.007953e-018 -8.000485e-019 1.000000e+000
      outer loop
         vertex 2.390792e+003 4.906135e+002 2.607390e+003
         vertex 2.388134e+003 4.863570e+002 2.607390e+003
         vertex 2.388292e+003 4.862834e+002 2.607390e+003
      endloop
   endfacet
   facet normal -2.007953e-018 -8.000485e-019 1.000000e+000
      outer loop
         vertex 2.390792e+003 4.906135e+002 2.607390e+003
         vertex 2.388292e+003 4.862834e+002 2.607390e+003
         vertex 2.391649e+003 4.900136e+002 2.607390e+003
      endloop
   endfacet
   facet normal -2.007953e-018 -8.000485e-019 1.000000e+000
      outer loop
         vertex 2.391649e+003 4.900136e+002 2.607390e+003
         vertex 2.388292e+003 4.862834e+002 2.607390e+003
         vertex 2.388435e+003 4.861834e+002 2.607390e+003
      endloop
   endfacet
   facet normal -2.007953e-018 -8.000485e-019 1.000000e+000
      outer loop
         vertex 2.391649e+003 4.900136e+002 2.607390e+003
         vertex 2.388435e+003 4.861834e+002 2.607390e+003
         vertex 2.392389e+003 4.892740e+002 2.607390e+003
      endloop
   endfacet
   facet normal -2.007953e-018 -8.000485e-019 1.000000e+000
      outer loop
         vertex 2.392389e+003 4.892740e+002 2.607390e+003
         vertex 2.388435e+003 4.861834e+002 2.607390e+003
         vertex 2.388558e+003 4.860601e+002 2.607390e+003
      endloop
   endfacet
   facet normal -2.007953e-018 -8.000485e-019 1.000000e+000
      outer loop
         vertex 2.392389e+003 4.892740e+002 2.607390e+003
         vertex 2.388558e+003 4.860601e+002 2.607390e+003
         vertex 2.392989e+003 4.884173e+002 2.607390e+003
      endloop
   endfacet
   facet normal -2.007953e-018 -8.000485e-019 1.000000e+000
      outer loop
         vertex 2.392989e+003 4.884173e+002 2.607390e+003
         vertex 2.388558e+003 4.860601e+002 2.607390e+003
         vertex 2.388658e+003 4.859173e+002 2.607390e+003
      endloop
   endfacet
   facet normal -2.007953e-018 -8.000485e-019 1.000000e+000
      outer loop
         vertex 2.392989e+003 4.884173e+002 2.607390e+003
         vertex 2.388658e+003 4.859173e+002 2.607390e+003
         vertex 2.393430e+003 4.874695e+002 2.607390e+003
      endloop
   endfacet
   facet normal -2.007953e-018 -8.000485e-019 1.000000e+000
      outer loop
         vertex 2.393430e+003 4.874695e+002 2.607390e+003
         vertex 2.388658e+003 4.859173e+002 2.607390e+003
         vertex 2.388732e+003 4.857593e+002 2.607390e+003
      endloop
   endfacet
   facet normal -2.007953e-018 -8.000485e-019 1.000000e+000
      outer loop
         vertex 2.393430e+003 4.874695e+002 2.607390e+003
         vertex 2.388732e+003 4.857593e+002 2.607390e+003
         vertex 2.393701e+003 4.864592e+002 2.607390e+003
      endloop
   endfacet
   facet normal -2.007953e-018 -8.000485e-019 1.000000e+000
      outer loop
         vertex 2.393701e+003 4.864592e+002 2.607390e+003
         vertex 2.388732e+003 4.857593e+002 2.607390e+003
         vertex 2.388777e+003 4.855910e+002 2.607390e+003
      endloop
   endfacet
   facet normal -2.007953e-018 -8.000485e-019 1.000000e+000
      outer loop
         vertex 2.393701e+003 4.864592e+002 2.607390e+003
         vertex 2.388777e+003 4.855910e+002 2.607390e+003
         vertex 2.393792e+003 4.854173e+002 2.607390e+003
      endloop
   endfacet
   facet normal -2.007953e-018 -8.000485e-019 1.000000e+000
      outer loop
         vertex 2.393792e+003 4.854173e+002 2.607390e+003
         vertex 2.388777e+003 4.855910e+002 2.607390e+003
         vertex 2.388792e+003 4.854173e+002 2.607390e+003
      endloop
   endfacet
   facet normal -2.007953e-018 -8.000485e-019 1.000000e+000
      outer loop
         vertex 2.393792e+003 4.854173e+002 2.607390e+003
         vertex 2.388792e+003 4.854173e+002 2.607390e+003
         vertex 2.393792e+003 4.374173e+002 2.607390e+003
      endloop
   endfacet
   facet normal -2.007953e-018 -8.000485e-019 1.000000e+000
      outer loop
         vertex 2.393792e+003 4.374173e+002 2.607390e+003
         vertex 2.388792e+003 4.854173e+002 2.607390e+003
         vertex 2.388792e+003 4.374173e+002 2.607390e+003
      endloop
   endfacet
   facet normal -2.007953e-018 -8.000485e-019 1.000000e+000
      outer loop
         vertex 2.393792e+003 4.374173e+002 2.607390e+003
         vertex 2.388792e+003 4.374173e+002 2.607390e+003
         vertex 2.393701e+003 4.363754e+002 2.607390e+003
      endloop
   endfacet
   facet normal -2.007953e-018 -8.000485e-019 1.000000e+000
      outer loop
         vertex 2.393701e+003 4.363754e+002 2.607390e+003
         vertex 2.388792e+003 4.374173e+002 2.607390e+003
         vertex 2.388780e+003 4.372609e+002 2.607390e+003
      endloop
   endfacet
   facet normal -2.007953e-018 -8.000485e-019 1.000000e+000
      outer loop
         vertex 2.393701e+003 4.363754e+002 2.607390e+003
         vertex 2.388780e+003 4.372609e+002 2.607390e+003
         vertex 2.393430e+003 4.353652e+002 2.607390e+003
      endloop
   endfacet
   facet normal -2.007953e-018 -8.000485e-019 1.000000e+000
      outer loop
         vertex 2.393430e+003 4.353652e+002 2.607390e+003
         vertex 2.388780e+003 4.372609e+002 2.607390e+003
         vertex 2.388743e+003 4.371083e+002 2.607390e+003
      endloop
   endfacet
   facet normal -2.007953e-018 -8.000485e-019 1.000000e+000
      outer loop
         vertex 2.393430e+003 4.353652e+002 2.607390e+003
         vertex 2.388743e+003 4.371083e+002 2.607390e+003
         vertex 2.392989e+003 4.344173e+002 2.607390e+003
      endloop
   endfacet
   facet normal -2.007953e-018 -8.000485e-019 1.000000e+000
      outer loop
         vertex 2.392989e+003 4.344173e+002 2.607390e+003
         vertex 2.388743e+003 4.371083e+002 2.607390e+003
         vertex 2.388683e+003 4.369633e+002 2.607390e+003
      endloop
   endfacet
   facet normal -2.007953e-018 -8.000485e-019 1.000000e+000
      outer loop
         vertex 2.392989e+003 4.344173e+002 2.607390e+003
         vertex 2.388683e+003 4.369633e+002 2.607390e+003
         vertex 2.392389e+003 4.335606e+002 2.607390e+003
      endloop
   endfacet
   facet normal 2.007953e-018 8.000485e-019 -1.000000e+000
      outer loop
         vertex 2.388380e+003 4.366083e+002 1.857390e+003
         vertex 2.388499e+003 4.367102e+002 1.857390e+003
         vertex 2.392389e+003 4.335606e+002 1.857390e+003
      endloop
   endfacet
   facet normal 2.007953e-018 8.000485e-019 -1.000000e+000
      outer loop
         vertex 2.392389e+003 4.335606e+002 1.857390e+003
         vertex 2.388499e+003 4.367102e+002 1.857390e+003
         vertex 2.388601e+003 4.368295e+002 1.857390e+003
      endloop
   endfacet
   facet normal 2.007953e-018 8.000485e-019 -1.000000e+000
      outer loop
         vertex 2.392389e+003 4.335606e+002 1.857390e+003
         vertex 2.388601e+003 4.368295e+002 1.857390e+003
         vertex 2.392989e+003 4.344173e+002 1.857390e+003
      endloop
   endfacet
   facet normal 2.007953e-018 8.000485e-019 -1.000000e+000
      outer loop
         vertex 2.392989e+003 4.344173e+002 1.857390e+003
         vertex 2.388601e+003 4.368295e+002 1.857390e+003
         vertex 2.388683e+003 4.369633e+002 1.857390e+003
      endloop
   endfacet
   facet normal 2.007953e-018 8.000485e-019 -1.000000e+000
      outer loop
         vertex 2.392989e+003 4.344173e+002 1.857390e+003
         vertex 2.388683e+003 4.369633e+002 1.857390e+003
         vertex 2.393430e+003 4.353652e+002 1.857390e+003
      endloop
   endfacet
   facet normal 2.007953e-018 8.000485e-019 -1.000000e+000
      outer loop
         vertex 2.393430e+003 4.353652e+002 1.857390e+003
         vertex 2.388683e+003 4.369633e+002 1.857390e+003
         vertex 2.388743e+003 4.371083e+002 1.857390e+003
      endloop
   endfacet
   facet normal 2.007953e-018 8.000485e-019 -1.000000e+000
      outer loop
         vertex 2.393430e+003 4.353652e+002 1.857390e+003
         vertex 2.388743e+003 4.371083e+002 1.857390e+003
         vertex 2.393701e+003 4.363754e+002 1.857390e+003
      endloop
   endfacet
   facet normal 2.007953e-018 8.000485e-019 -1.000000e+000
      outer loop
         vertex 2.393701e+003 4.363754e+002 1.857390e+003
         vertex 2.388743e+003 4.371083e+002 1.857390e+003
         vertex 2.388780e+003 4.372609e+002 1.857390e+003
      endloop
   endfacet
   facet normal 2.007953e-018 8.000485e-019 -1.000000e+000
      outer loop
         vertex 2.393701e+003 4.363754e+002 1.857390e+003
         vertex 2.388780e+003 4.372609e+002 1.857390e+003
         vertex 2.393792e+003 4.374173e+002 1.857390e+003
      endloop
   endfacet
   facet normal 2.007953e-018 8.000485e-019 -1.000000e+000
      outer loop
         vertex 2.393792e+003 4.374173e+002 1.857390e+003
         vertex 2.388780e+003 4.372609e+002 1.857390e+003
         vertex 2.388792e+003 4.374173e+002 1.857390e+003
      endloop
   endfacet
   facet normal 2.007953e-018 8.000485e-019 -1.000000e+000
      outer loop
         vertex 2.393792e+003 4.374173e+002 1.857390e+003
         vertex 2.388792e+003 4.374173e+002 1.857390e+003
         vertex 2.393792e+003 4.854173e+002 1.857390e+003
      endloop
   endfacet
   facet normal 2.007953e-018 8.000485e-019 -1.000000e+000
      outer loop
         vertex 2.393792e+003 4.854173e+002 1.857390e+003
         vertex 2.388792e+003 4.374173e+002 1.857390e+003
         vertex 2.388792e+003 4.854173e+002 1.857390e+003
      endloop
   endfacet
   facet normal 2.007953e-018 8.000485e-019 -1.000000e+000
      outer loop
         vertex 2.393792e+003 4.854173e+002 1.857390e+003
         vertex 2.388792e+003 4.854173e+002 1.857390e+003
         vertex 2.393701e+003 4.864592e+002 1.857390e+003
      endloop
   endfacet
   facet normal 2.007953e-018 8.000485e-019 -1.000000e+000
      outer loop
         vertex 2.393701e+003 4.864592e+002 1.857390e+003
         vertex 2.388792e+003 4.854173e+002 1.857390e+003
         vertex 2.388777e+003 4.855910e+002 1.857390e+003
      endloop
   endfacet
   facet normal 2.007953e-018 8.000485e-019 -1.000000e+000
      outer loop
         vertex 2.393701e+003 4.864592e+002 1.857390e+003
         vertex 2.388777e+003 4.855910e+002 1.857390e+003
         vertex 2.393430e+003 4.874695e+002 1.857390e+003
      endloop
   endfacet
   facet normal 2.007953e-018 8.000485e-019 -1.000000e+000
      outer loop
         vertex 2.393430e+003 4.874695e+002 1.857390e+003
         vertex 2.388777e+003 4.855910e+002 1.857390e+003
         vertex 2.388732e+003 4.857593e+002 1.857390e+003
      endloop
   endfacet
   facet normal 2.007953e-018 8.000485e-019 -1.000000e+000
      outer loop
         vertex 2.393430e+003 4.874695e+002 1.857390e+003
         vertex 2.388732e+003 4.857593e+002 1.857390e+003
         vertex 2.392989e+003 4.884173e+002 1.857390e+003
      endloop
   endfacet
   facet normal 2.007953e-018 8.000485e-019 -1.000000e+000
      outer loop
         vertex 2.392989e+003 4.884173e+002 1.857390e+003
         vertex 2.388732e+003 4.857593e+002 1.857390e+003
         vertex 2.388658e+003 4.859173e+002 1.857390e+003
      endloop
   endfacet
   facet normal 2.007953e-018 8.000485e-019 -1.000000e+000
      outer loop
         vertex 2.392989e+003 4.884173e+002 1.857390e+003
         vertex 2.388658e+003 4.859173e+002 1.857390e+003
         vertex 2.392389e+003 4.892740e+002 1.857390e+003
      endloop
   endfacet
   facet normal 2.007953e-018 8.000485e-019 -1.000000e+000
      outer loop
         vertex 2.392389e+003 4.892740e+002 1.857390e+003
         vertex 2.388658e+003 4.859173e+002 1.857390e+003
         vertex 2.388558e+003 4.860601e+002 1.857390e+003
      endloop
   endfacet
   facet normal 2.007953e-018 8.000485e-019 -1.000000e+000
      outer loop
         vertex 2.392389e+003 4.892740e+002 1.857390e+003
         vertex 2.388558e+003 4.860601e+002 1.857390e+003
         vertex 2.391649e+003 4.900136e+002 1.857390e+003
      endloop
   endfacet
   facet normal 2.007953e-018 8.000485e-019 -1.000000e+000
      outer loop
         vertex 2.391649e+003 4.900136e+002 1.857390e+003
         vertex 2.388558e+003 4.860601e+002 1.857390e+003
         vertex 2.388435e+003 4.861834e+002 1.857390e+003
      endloop
   endfacet
   facet normal 2.007953e-018 8.000485e-019 -1.000000e+000
      outer loop
         vertex 2.391649e+003 4.900136e+002 1.857390e+003
         vertex 2.388435e+003 4.861834e+002 1.857390e+003
         vertex 2.390792e+003 4.906135e+002 1.857390e+003
      endloop
   endfacet
   facet normal 2.007953e-018 8.000485e-019 -1.000000e+000
      outer loop
         vertex 2.390792e+003 4.906135e+002 1.857390e+003
         vertex 2.388435e+003 4.861834e+002 1.857390e+003
         vertex 2.388292e+003 4.862834e+002 1.857390e+003
      endloop
   endfacet
   facet normal 2.007953e-018 8.000485e-019 -1.000000e+000
      outer loop
         vertex 2.390792e+003 4.906135e+002 1.857390e+003
         vertex 2.388292e+003 4.862834e+002 1.857390e+003
         vertex 2.389844e+003 4.910555e+002 1.857390e+003
      endloop
   endfacet
   facet normal 2.007953e-018 8.000485e-019 -1.000000e+000
      outer loop
         vertex 2.389844e+003 4.910555e+002 1.857390e+003
         vertex 2.388292e+003 4.862834e+002 1.857390e+003
         vertex 2.388134e+003 4.863570e+002 1.857390e+003
      endloop
   endfacet
   facet normal 2.007953e-018 8.000485e-019 -1.000000e+000
      outer loop
         vertex 2.389844e+003 4.910555e+002 1.857390e+003
         vertex 2.388134e+003 4.863570e+002 1.857390e+003
         vertex 2.388834e+003 4.913262e+002 1.857390e+003
      endloop
   endfacet
   facet normal 2.007953e-018 8.000485e-019 -1.000000e+000
      outer loop
         vertex 2.388834e+003 4.913262e+002 1.857390e+003
         vertex 2.388134e+003 4.863570e+002 1.857390e+003
         vertex 2.387966e+003 4.864022e+002 1.857390e+003
      endloop
   endfacet
   facet normal 2.007953e-018 8.000485e-019 -1.000000e+000
      outer loop
         vertex 2.388834e+003 4.913262e+002 1.857390e+003
         vertex 2.387966e+003 4.864022e+002 1.857390e+003
         vertex 2.387792e+003 4.914173e+002 1.857390e+003
      endloop
   endfacet
   facet normal 2.007953e-018 8.000485e-019 -1.000000e+000
      outer loop
         vertex 2.387792e+003 4.914173e+002 1.857390e+003
         vertex 2.387966e+003 4.864022e+002 1.857390e+003
         vertex 2.387792e+003 4.864173e+002 1.857390e+003
      endloop
   endfacet
   facet normal 2.007953e-018 8.000485e-019 -1.000000e+000
      outer loop
         vertex 2.387792e+003 4.914173e+002 1.857390e+003
         vertex 2.387792e+003 4.864173e+002 1.857390e+003
         vertex 2.339792e+003 4.914173e+002 1.857390e+003
      endloop
   endfacet
   facet normal 2.007953e-018 8.000485e-019 -1.000000e+000
      outer loop
         vertex 2.339792e+003 4.914173e+002 1.857390e+003
         vertex 2.387792e+003 4.864173e+002 1.857390e+003
         vertex 2.339792e+003 4.864173e+002 1.857390e+003
      endloop
   endfacet
   facet normal 2.007953e-018 8.000485e-019 -1.000000e+000
      outer loop
         vertex 2.339792e+003 4.914173e+002 1.857390e+003
         vertex 2.339792e+003 4.864173e+002 1.857390e+003
         vertex 2.338750e+003 4.913262e+002 1.857390e+003
      endloop
   endfacet
   facet normal 2.007953e-018 8.000485e-019 -1.000000e+000
      outer loop
         vertex 2.338750e+003 4.913262e+002 1.857390e+003
         vertex 2.339792e+003 4.864173e+002 1.857390e+003
         vertex 2.339618e+003 4.864022e+002 1.857390e+003
      endloop
   endfacet
   facet normal 2.007953e-018 8.000485e-019 -1.000000e+000
      outer loop
         vertex 2.338750e+003 4.913262e+002 1.857390e+003
         vertex 2.339618e+003 4.864022e+002 1.857390e+003
         vertex 2.337740e+003 4.910555e+002 1.857390e+003
      endloop
   endfacet
   facet normal 2.007953e-018 8.000485e-019 -1.000000e+000
      outer loop
         vertex 2.337740e+003 4.910555e+002 1.857390e+003
         vertex 2.339618e+003 4.864022e+002 1.857390e+003
         vertex 2.339450e+003 4.863570e+002 1.857390e+003
      endloop
   endfacet
   facet normal 2.007953e-018 8.000485e-019 -1.000000e+000
      outer loop
         vertex 2.337740e+003 4.910555e+002 1.857390e+003
         vertex 2.339450e+003 4.863570e+002 1.857390e+003
         vertex 2.336792e+003 4.906135e+002 1.857390e+003
      endloop
   endfacet
   facet normal 2.007953e-018 8.000485e-019 -1.000000e+000
      outer loop
         vertex 2.336792e+003 4.906135e+002 1.857390e+003
         vertex 2.339450e+003 4.863570e+002 1.857390e+003
         vertex 2.339292e+003 4.862834e+002 1.857390e+003
      endloop
   endfacet
   facet normal 2.007953e-018 8.000485e-019 -1.000000e+000
      outer loop
         vertex 2.336792e+003 4.906135e+002 1.857390e+003
         vertex 2.339292e+003 4.862834e+002 1.857390e+003
         vertex 2.335936e+003 4.900136e+002 1.857390e+003
      endloop
   endfacet
   facet normal 2.007953e-018 8.000485e-019 -1.000000e+000
      outer loop
         vertex 2.335936e+003 4.900136e+002 1.857390e+003
         vertex 2.339292e+003 4.862834e+002 1.857390e+003
         vertex 2.339149e+003 4.861834e+002 1.857390e+003
      endloop
   endfacet
   facet normal 2.007953e-018 8.000485e-019 -1.000000e+000
      outer loop
         vertex 2.335936e+003 4.900136e+002 1.857390e+003
         vertex 2.339149e+003 4.861834e+002 1.857390e+003
         vertex 2.335196e+003 4.892740e+002 1.857390e+003
      endloop
   endfacet
   facet normal 2.007953e-018 8.000485e-019 -1.000000e+000
      outer loop
         vertex 2.335196e+003 4.892740e+002 1.857390e+003
         vertex 2.339149e+003 4.861834e+002 1.857390e+003
         vertex 2.339026e+003 4.860601e+002 1.857390e+003
      endloop
   endfacet
   facet normal 2.007953e-018 8.000485e-019 -1.000000e+000
      outer loop
         vertex 2.335196e+003 4.892740e+002 1.857390e+003
         vertex 2.339026e+003 4.860601e+002 1.857390e+003
         vertex 2.334596e+003 4.884173e+002 1.857390e+003
      endloop
   endfacet
   facet normal 2.007953e-018 8.000485e-019 -1.000000e+000
      outer loop
         vertex 2.334596e+003 4.884173e+002 1.857390e+003
         vertex 2.339026e+003 4.860601e+002 1.857390e+003
         vertex 2.338926e+003 4.859173e+002 1.857390e+003
      endloop
   endfacet
   facet normal 2.007953e-018 8.000485e-019 -1.000000e+000
      outer loop
         vertex 2.334596e+003 4.884173e+002 1.857390e+003
         vertex 2.338926e+003 4.859173e+002 1.857390e+003
         vertex 2.334154e+003 4.874695e+002 1.857390e+003
      endloop
   endfacet
   facet normal 2.007953e-018 8.000485e-019 -1.000000e+000
      outer loop
         vertex 2.334154e+003 4.874695e+002 1.857390e+003
         vertex 2.338926e+003 4.859173e+002 1.857390e+003
         vertex 2.338852e+003 4.857593e+002 1.857390e+003
      endloop
   endfacet
   facet normal 2.007953e-018 8.000485e-019 -1.000000e+000
      outer loop
         vertex 2.334154e+003 4.874695e+002 1.857390e+003
         vertex 2.338852e+003 4.857593e+002 1.857390e+003
         vertex 2.333883e+003 4.864592e+002 1.857390e+003
      endloop
   endfacet
   facet normal 2.007953e-018 8.000485e-019 -1.000000e+000
      outer loop
         vertex 2.333883e+003 4.864592e+002 1.857390e+003
         vertex 2.338852e+003 4.857593e+002 1.857390e+003
         vertex 2.338807e+003 4.855910e+002 1.857390e+003
      endloop
   endfacet
   facet normal 2.007953e-018 8.000485e-019 -1.000000e+000
      outer loop
         vertex 2.333883e+003 4.864592e+002 1.857390e+003
         vertex 2.338807e+003 4.855910e+002 1.857390e+003
         vertex 2.333792e+003 4.854173e+002 1.857390e+003
      endloop
   endfacet
   facet normal 2.007953e-018 8.000485e-019 -1.000000e+000
      outer loop
         vertex 2.333792e+003 4.854173e+002 1.857390e+003
         vertex 2.338807e+003 4.855910e+002 1.857390e+003
         vertex 2.338792e+003 4.854173e+002 1.857390e+003
      endloop
   endfacet
   facet normal 2.007953e-018 8.000485e-019 -1.000000e+000
      outer loop
         vertex 2.333792e+003 4.854173e+002 1.857390e+003
         vertex 2.338792e+003 4.854173e+002 1.857390e+003
         vertex 2.333792e+003 4.374173e+002 1.857390e+003
      endloop
   endfacet
   facet normal 2.007953e-018 8.000485e-019 -1.000000e+000
      outer loop
         vertex 2.333792e+003 4.374173e+002 1.857390e+003
         vertex 2.338792e+003 4.854173e+002 1.857390e+003
         vertex 2.338792e+003 4.374173e+002 1.857390e+003
      endloop
   endfacet
   facet normal 2.007953e-018 8.000485e-019 -1.000000e+000
      outer loop
         vertex 2.333792e+003 4.374173e+002 1.857390e+003
         vertex 2.338792e+003 4.374173e+002 1.857390e+003
         vertex 2.333883e+003 4.363754e+002 1.857390e+003
      endloop
   endfacet
   facet normal 2.007953e-018 8.000485e-019 -1.000000e+000
      outer loop
         vertex 2.333883e+003 4.363754e+002 1.857390e+003
         vertex 2.338792e+003 4.374173e+002 1.857390e+003
         vertex 2.338807e+003 4.372437e+002 1.857390e+003
      endloop
   endfacet
   facet normal 2.007953e-018 8.000485e-019 -1.000000e+000
      outer loop
         vertex 2.333883e+003 4.363754e+002 1.857390e+003
         vertex 2.338807e+003 4.372437e+002 1.857390e+003
         vertex 2.334154e+003 4.353652e+002 1.857390e+003
      endloop
   endfacet
   facet normal 2.007953e-018 8.000485e-019 -1.000000e+000
      outer loop
         vertex 2.334154e+003 4.353652e+002 1.857390e+003
         vertex 2.338807e+003 4.372437e+002 1.857390e+003
         vertex 2.338852e+003 4.370753e+002 1.857390e+003
      endloop
   endfacet
   facet normal 2.007953e-018 8.000485e-019 -1.000000e+000
      outer loop
         vertex 2.334154e+003 4.353652e+002 1.857390e+003
         vertex 2.338852e+003 4.370753e+002 1.857390e+003
         vertex 2.334596e+003 4.344173e+002 1.857390e+003
      endloop
   endfacet
   facet normal 2.007953e-018 8.000485e-019 -1.000000e+000
      outer loop
         vertex 2.334596e+003 4.344173e+002 1.857390e+003
         vertex 2.338852e+003 4.370753e+002 1.857390e+003
         vertex 2.338926e+003 4.369173e+002 1.857390e+003
      endloop
   endfacet
   facet normal 2.007953e-018 8.000485e-019 -1.000000e+000
      outer loop
         vertex 2.334596e+003 4.344173e+002 1.857390e+003
         vertex 2.338926e+003 4.369173e+002 1.857390e+003
         vertex 2.335196e+003 4.335606e+002 1.857390e+003
      endloop
   endfacet
   facet normal 2.007953e-018 8.000485e-019 -1.000000e+000
      outer loop
         vertex 2.335196e+003 4.335606e+002 1.857390e+003
         vertex 2.338926e+003 4.369173e+002 1.857390e+003
         vertex 2.339026e+003 4.367746e+002 1.857390e+003
      endloop
   endfacet
   facet normal 2.007953e-018 8.000485e-019 -1.000000e+000
      outer loop
         vertex 2.335196e+003 4.335606e+002 1.857390e+003
         vertex 2.339026e+003 4.367746e+002 1.857390e+003
         vertex 2.335936e+003 4.328211e+002 1.857390e+003
      endloop
   endfacet
   facet normal 2.007953e-018 8.000485e-019 -1.000000e+000
      outer loop
         vertex 2.335936e+003 4.328211e+002 1.857390e+003
         vertex 2.339026e+003 4.367746e+002 1.857390e+003
         vertex 2.339149e+003 4.366513e+002 1.857390e+003
      endloop
   endfacet
   facet normal 2.007953e-018 8.000485e-019 -1.000000e+000
      outer loop
         vertex 2.335936e+003 4.328211e+002 1.857390e+003
         vertex 2.339149e+003 4.366513e+002 1.857390e+003
         vertex 2.336792e+003 4.322212e+002 1.857390e+003
      endloop
   endfacet
   facet normal 2.007953e-018 8.000485e-019 -1.000000e+000
      outer loop
         vertex 2.336792e+003 4.322212e+002 1.857390e+003
         vertex 2.339149e+003 4.366513e+002 1.857390e+003
         vertex 2.339292e+003 4.365513e+002 1.857390e+003
      endloop
   endfacet
   facet normal 2.007953e-018 8.000485e-019 -1.000000e+000
      outer loop
         vertex 2.336792e+003 4.322212e+002 1.857390e+003
         vertex 2.339292e+003 4.365513e+002 1.857390e+003
         vertex 2.337740e+003 4.317792e+002 1.857390e+003
      endloop
   endfacet
   facet normal 2.007953e-018 8.000485e-019 -1.000000e+000
      outer loop
         vertex 2.337740e+003 4.317792e+002 1.857390e+003
         vertex 2.339292e+003 4.365513e+002 1.857390e+003
         vertex 2.339450e+003 4.364776e+002 1.857390e+003
      endloop
   endfacet
   facet normal 2.007953e-018 8.000485e-019 -1.000000e+000
      outer loop
         vertex 2.337740e+003 4.317792e+002 1.857390e+003
         vertex 2.339450e+003 4.364776e+002 1.857390e+003
         vertex 2.338750e+003 4.315085e+002 1.857390e+003
      endloop
   endfacet
   facet normal 2.007953e-018 8.000485e-019 -1.000000e+000
      outer loop
         vertex 2.338750e+003 4.315085e+002 1.857390e+003
         vertex 2.339450e+003 4.364776e+002 1.857390e+003
         vertex 2.339618e+003 4.364325e+002 1.857390e+003
      endloop
   endfacet
   facet normal 2.007953e-018 8.000485e-019 -1.000000e+000
      outer loop
         vertex 2.338750e+003 4.315085e+002 1.857390e+003
         vertex 2.339618e+003 4.364325e+002 1.857390e+003
         vertex 2.339792e+003 4.314174e+002 1.857390e+003
      endloop
   endfacet
   facet normal 2.007953e-018 8.000485e-019 -1.000000e+000
      outer loop
         vertex 2.339792e+003 4.314174e+002 1.857390e+003
         vertex 2.339618e+003 4.364325e+002 1.857390e+003
         vertex 2.339792e+003 4.364173e+002 1.857390e+003
      endloop
   endfacet
   facet normal 2.007953e-018 8.000485e-019 -1.000000e+000
      outer loop
         vertex 2.339792e+003 4.314174e+002 1.857390e+003
         vertex 2.339792e+003 4.364173e+002 1.857390e+003
         vertex 2.387792e+003 4.314174e+002 1.857390e+003
      endloop
   endfacet
   facet normal 2.007953e-018 8.000485e-019 -1.000000e+000
      outer loop
         vertex 2.387792e+003 4.314174e+002 1.857390e+003
         vertex 2.339792e+003 4.364173e+002 1.857390e+003
         vertex 2.387792e+003 4.364173e+002 1.857390e+003
      endloop
   endfacet
   facet normal 2.007953e-018 8.000485e-019 -1.000000e+000
      outer loop
         vertex 2.387792e+003 4.314174e+002 1.857390e+003
         vertex 2.387792e+003 4.364173e+002 1.857390e+003
         vertex 2.388834e+003 4.315085e+002 1.857390e+003
      endloop
   endfacet
   facet normal 2.007953e-018 8.000485e-019 -1.000000e+000
      outer loop
         vertex 2.388834e+003 4.315085e+002 1.857390e+003
         vertex 2.387792e+003 4.364173e+002 1.857390e+003
         vertex 2.387949e+003 4.364297e+002 1.857390e+003
      endloop
   endfacet
   facet normal 2.007953e-018 8.000485e-019 -1.000000e+000
      outer loop
         vertex 2.388834e+003 4.315085e+002 1.857390e+003
         vertex 2.387949e+003 4.364297e+002 1.857390e+003
         vertex 2.389844e+003 4.317792e+002 1.857390e+003
      endloop
   endfacet
   facet normal 2.007953e-018 8.000485e-019 -1.000000e+000
      outer loop
         vertex 2.389844e+003 4.317792e+002 1.857390e+003
         vertex 2.387949e+003 4.364297e+002 1.857390e+003
         vertex 2.388101e+003 4.364663e+002 1.857390e+003
      endloop
   endfacet
   facet normal 2.007953e-018 8.000485e-019 -1.000000e+000
      outer loop
         vertex 2.389844e+003 4.317792e+002 1.857390e+003
         vertex 2.388101e+003 4.364663e+002 1.857390e+003
         vertex 2.390792e+003 4.322212e+002 1.857390e+003
      endloop
   endfacet
   facet normal 2.007953e-018 8.000485e-019 -1.000000e+000
      outer loop
         vertex 2.390792e+003 4.322212e+002 1.857390e+003
         vertex 2.388101e+003 4.364663e+002 1.857390e+003
         vertex 2.388246e+003 4.365263e+002 1.857390e+003
      endloop
   endfacet
   facet normal 2.007953e-018 8.000485e-019 -1.000000e+000
      outer loop
         vertex 2.390792e+003 4.322212e+002 1.857390e+003
         vertex 2.388246e+003 4.365263e+002 1.857390e+003
         vertex 2.391649e+003 4.328211e+002 1.857390e+003
      endloop
   endfacet
   facet normal 2.007953e-018 8.000485e-019 -1.000000e+000
      outer loop
         vertex 2.391649e+003 4.328211e+002 1.857390e+003
         vertex 2.388246e+003 4.365263e+002 1.857390e+003
         vertex 2.388380e+003 4.366083e+002 1.857390e+003
      endloop
   endfacet
   facet normal 2.007953e-018 8.000485e-019 -1.000000e+000
      outer loop
         vertex 2.391649e+003 4.328211e+002 1.857390e+003
         vertex 2.388380e+003 4.366083e+002 1.857390e+003
         vertex 2.392389e+003 4.335606e+002 1.857390e+003
      endloop
   endfacet
   facet normal -1.000000e+000 -0.000000e+000 1.203706e-035
      outer loop
         vertex 2.333792e+003 4.374173e+002 2.607390e+003
         vertex 2.333792e+003 4.854173e+002 2.607390e+003
         vertex 2.333792e+003 4.374173e+002 1.857390e+003
      endloop
   endfacet
   facet normal -1.000000e+000 -0.000000e+000 1.203706e-035
      outer loop
         vertex 2.333792e+003 4.374173e+002 1.857390e+003
         vertex 2.333792e+003 4.854173e+002 2.607390e+003
         vertex 2.333792e+003 4.854173e+002 1.857390e+003
      endloop
   endfacet
   facet normal 2.914335e-016 -1.000000e+000 4.336809e-019
      outer loop
         vertex 2.339792e+003 4.314174e+002 1.857390e+003
         vertex 2.387792e+003 4.314174e+002 1.857390e+003
         vertex 2.339792e+003 4.314174e+002 2.607390e+003
      endloop
   endfacet
   facet normal 2.914335e-016 -1.000000e+000 4.336809e-019
      outer loop
         vertex 2.339792e+003 4.314174e+002 2.607390e+003
         vertex 2.387792e+003 4.314174e+002 1.857390e+003
         vertex 2.387792e+003 4.314174e+002 2.607390e+003
      endloop
   endfacet
   facet normal 1.000000e+000 0.000000e+000 -1.203706e-035
      outer loop
         vertex 2.393792e+003 4.374173e+002 1.857390e+003
         vertex 2.393792e+003 4.854173e+002 1.857390e+003
         vertex 2.393792e+003 4.374173e+002 2.607390e+003
      endloop
   endfacet
   facet normal 1.000000e+000 0.000000e+000 -1.203706e-035
      outer loop
         vertex 2.393792e+003 4.374173e+002 2.607390e+003
         vertex 2.393792e+003 4.854173e+002 1.857390e+003
         vertex 2.393792e+003 4.854173e+002 2.607390e+003
      endloop
   endfacet
   facet normal 5.551115e-017 1.000000e+000 -4.336809e-019
      outer loop
         vertex 2.339792e+003 4.914173e+002 2.607390e+003
         vertex 2.387792e+003 4.914173e+002 2.607390e+003
         vertex 2.339792e+003 4.914173e+002 1.857390e+003
      endloop
   endfacet
   facet normal 5.551115e-017 1.000000e+000 -4.336809e-019
      outer loop
         vertex 2.339792e+003 4.914173e+002 1.857390e+003
         vertex 2.387792e+003 4.914173e+002 2.607390e+003
         vertex 2.387792e+003 4.914173e+002 1.857390e+003
      endloop
   endfacet
   facet normal -9.983120e-001 -5.807914e-002 2.518781e-020
      outer loop
         vertex 2.333792e+003 4.374173e+002 2.607390e+003
         vertex 2.333792e+003 4.374173e+002 1.857390e+003
         vertex 2.333883e+003 4.363754e+002 1.857390e+003
      endloop
   endfacet
   facet normal -9.932307e-001 -1.161583e-001 5.037562e-020
      outer loop
         vertex 2.333792e+003 4.374173e+002 2.607390e+003
         vertex 2.333883e+003 4.363754e+002 1.857390e+003
         vertex 2.333883e+003 4.363754e+002 2.607390e+003
      endloop
   endfacet
   facet normal -9.730601e-001 -2.305518e-001 9.998592e-020
      outer loop
         vertex 2.333883e+003 4.363754e+002 2.607390e+003
         vertex 2.333883e+003 4.363754e+002 1.857390e+003
         vertex 2.334154e+003 4.353652e+002 1.857390e+003
      endloop
   endfacet
   facet normal -9.579706e-001 -2.868663e-001 1.244084e-019
      outer loop
         vertex 2.333883e+003 4.363754e+002 2.607390e+003
         vertex 2.334154e+003 4.353652e+002 1.857390e+003
         vertex 2.334154e+003 4.353652e+002 2.607390e+003
      endloop
   endfacet
   facet normal -9.182422e-001 -3.960194e-001 1.717460e-019
      outer loop
         vertex 2.334154e+003 4.353652e+002 2.607390e+003
         vertex 2.334154e+003 4.353652e+002 1.857390e+003
         vertex 2.334596e+003 4.344173e+002 1.857390e+003
      endloop
   endfacet
   facet normal -8.936031e-001 -4.488580e-001 1.946611e-019
      outer loop
         vertex 2.334154e+003 4.353652e+002 2.607390e+003
         vertex 2.334596e+003 4.344173e+002 1.857390e+003
         vertex 2.334596e+003 4.344173e+002 2.607390e+003
      endloop
   endfacet
   facet normal -8.355240e-001 -5.494540e-001 2.382877e-019
      outer loop
         vertex 2.334596e+003 4.344173e+002 2.607390e+003
         vertex 2.334596e+003 4.344173e+002 1.857390e+003
         vertex 2.335196e+003 4.335606e+002 1.857390e+003
      endloop
   endfacet
   facet normal -8.020839e-001 -5.972114e-001 2.589991e-019
      outer loop
         vertex 2.334596e+003 4.344173e+002 2.607390e+003
         vertex 2.335196e+003 4.335606e+002 1.857390e+003
         vertex 2.335196e+003 4.335606e+002 2.607390e+003
      endloop
   endfacet
   facet normal -7.274188e-001 -6.861938e-001 2.975891e-019
      outer loop
         vertex 2.335196e+003 4.335606e+002 2.607390e+003
         vertex 2.335196e+003 4.335606e+002 1.857390e+003
         vertex 2.335936e+003 4.328211e+002 1.857390e+003
      endloop
   endfacet
   facet normal -6.861938e-001 -7.274188e-001 3.154676e-019
      outer loop
         vertex 2.335196e+003 4.335606e+002 2.607390e+003
         vertex 2.335936e+003 4.328211e+002 1.857390e+003
         vertex 2.335936e+003 4.328211e+002 2.607390e+003
      endloop
   endfacet
   facet normal -5.972114e-001 -8.020839e-001 3.478484e-019
      outer loop
         vertex 2.335936e+003 4.328211e+002 2.607390e+003
         vertex 2.335936e+003 4.328211e+002 1.857390e+003
         vertex 2.336792e+003 4.322212e+002 1.857390e+003
      endloop
   endfacet
   facet normal -5.494540e-001 -8.355240e-001 3.623508e-019
      outer loop
         vertex 2.335936e+003 4.328211e+002 2.607390e+003
         vertex 2.336792e+003 4.322212e+002 1.857390e+003
         vertex 2.336792e+003 4.322212e+002 2.607390e+003
      endloop
   endfacet
   facet normal -4.488580e-001 -8.936031e-001 3.875386e-019
      outer loop
         vertex 2.336792e+003 4.322212e+002 2.607390e+003
         vertex 2.336792e+003 4.322212e+002 1.857390e+003
         vertex 2.337740e+003 4.317792e+002 1.857390e+003
      endloop
   endfacet
   facet normal -3.960194e-001 -9.182422e-001 3.982241e-019
      outer loop
         vertex 2.336792e+003 4.322212e+002 2.607390e+003
         vertex 2.337740e+003 4.317792e+002 1.857390e+003
         vertex 2.337740e+003 4.317792e+002 2.607390e+003
      endloop
   endfacet
   facet normal -2.868663e-001 -9.579706e-001 4.154535e-019
      outer loop
         vertex 2.337740e+003 4.317792e+002 2.607390e+003
         vertex 2.337740e+003 4.317792e+002 1.857390e+003
         vertex 2.338750e+003 4.315085e+002 1.857390e+003
      endloop
   endfacet
   facet normal -2.305518e-001 -9.730601e-001 4.219975e-019
      outer loop
         vertex 2.337740e+003 4.317792e+002 2.607390e+003
         vertex 2.338750e+003 4.315085e+002 1.857390e+003
         vertex 2.338750e+003 4.315085e+002 2.607390e+003
      endloop
   endfacet
   facet normal -1.161583e-001 -9.932307e-001 4.307452e-019
      outer loop
         vertex 2.338750e+003 4.315085e+002 2.607390e+003
         vertex 2.338750e+003 4.315085e+002 1.857390e+003
         vertex 2.339792e+003 4.314174e+002 1.857390e+003
      endloop
   endfacet
   facet normal -5.807914e-002 -9.983120e-001 4.329488e-019
      outer loop
         vertex 2.338750e+003 4.315085e+002 2.607390e+003
         vertex 2.339792e+003 4.314174e+002 1.857390e+003
         vertex 2.339792e+003 4.314174e+002 2.607390e+003
      endloop
   endfacet
   facet normal -5.807914e-002 9.983120e-001 -4.329488e-019
      outer loop
         vertex 2.339792e+003 4.914173e+002 2.607390e+003
         vertex 2.339792e+003 4.914173e+002 1.857390e+003
         vertex 2.338750e+003 4.913262e+002 1.857390e+003
      endloop
   endfacet
   facet normal -1.161583e-001 9.932307e-001 -4.307452e-019
      outer loop
         vertex 2.339792e+003 4.914173e+002 2.607390e+003
         vertex 2.338750e+003 4.913262e+002 1.857390e+003
         vertex 2.338750e+003 4.913262e+002 2.607390e+003
      endloop
   endfacet
   facet normal -2.305518e-001 9.730601e-001 -4.219975e-019
      outer loop
         vertex 2.338750e+003 4.913262e+002 2.607390e+003
         vertex 2.338750e+003 4.913262e+002 1.857390e+003
         vertex 2.337740e+003 4.910555e+002 1.857390e+003
      endloop
   endfacet
   facet normal -2.868663e-001 9.579706e-001 -4.154535e-019
      outer loop
         vertex 2.338750e+003 4.913262e+002 2.607390e+003
         vertex 2.337740e+003 4.910555e+002 1.857390e+003
         vertex 2.337740e+003 4.910555e+002 2.607390e+003
      endloop
   endfacet
   facet normal -3.960194e-001 9.182422e-001 -3.982241e-019
      outer loop
         vertex 2.337740e+003 4.910555e+002 2.607390e+003
         vertex 2.337740e+003 4.910555e+002 1.857390e+003
         vertex 2.336792e+003 4.906135e+002 1.857390e+003
      endloop
   endfacet
   facet normal -4.488580e-001 8.936031e-001 -3.875386e-019
      outer loop
         vertex 2.337740e+003 4.910555e+002 2.607390e+003
         vertex 2.336792e+003 4.906135e+002 1.857390e+003
         vertex 2.336792e+003 4.906135e+002 2.607390e+003
      endloop
   endfacet
   facet normal -5.494540e-001 8.355240e-001 -3.623508e-019
      outer loop
         vertex 2.336792e+003 4.906135e+002 2.607390e+003
         vertex 2.336792e+003 4.906135e+002 1.857390e+003
         vertex 2.335936e+003 4.900136e+002 1.857390e+003
      endloop
   endfacet
   facet normal -5.972114e-001 8.020839e-001 -3.478484e-019
      outer loop
         vertex 2.336792e+003 4.906135e+002 2.607390e+003
         vertex 2.335936e+003 4.900136e+002 1.857390e+003
         vertex 2.335936e+003 4.900136e+002 2.607390e+003
      endloop
   endfacet
   facet normal -6.861938e-001 7.274188e-001 -3.154676e-019
      outer loop
         vertex 2.335936e+003 4.900136e+002 2.607390e+003
         vertex 2.335936e+003 4.900136e+002 1.857390e+003
         vertex 2.335196e+003 4.892740e+002 1.857390e+003
      endloop
   endfacet
   facet normal -7.274188e-001 6.861938e-001 -2.975891e-019
      outer loop
         vertex 2.335936e+003 4.900136e+002 2.607390e+003
         vertex 2.335196e+003 4.892740e+002 1.857390e+003
         vertex 2.335196e+003 4.892740e+002 2.607390e+003
      endloop
   endfacet
   facet normal -8.020839e-001 5.972114e-001 -2.589991e-019
      outer loop
         vertex 2.335196e+003 4.892740e+002 2.607390e+003
         vertex 2.335196e+003 4.892740e+002 1.857390e+003
         vertex 2.334596e+003 4.884173e+002 1.857390e+003
      endloop
   endfacet
   facet normal -8.355240e-001 5.494540e-001 -2.382877e-019
      outer loop
         vertex 2.335196e+003 4.892740e+002 2.607390e+003
         vertex 2.334596e+003 4.884173e+002 1.857390e+003
         vertex 2.334596e+003 4.884173e+002 2.607390e+003
      endloop
   endfacet
   facet normal -8.936031e-001 4.488580e-001 -1.946611e-019
      outer loop
         vertex 2.334596e+003 4.884173e+002 2.607390e+003
         vertex 2.334596e+003 4.884173e+002 1.857390e+003
         vertex 2.334154e+003 4.874695e+002 1.857390e+003
      endloop
   endfacet
   facet normal -9.182422e-001 3.960194e-001 -1.717460e-019
      outer loop
         vertex 2.334596e+003 4.884173e+002 2.607390e+003
         vertex 2.334154e+003 4.874695e+002 1.857390e+003
         vertex 2.334154e+003 4.874695e+002 2.607390e+003
      endloop
   endfacet
   facet normal -9.579706e-001 2.868663e-001 -1.244084e-019
      outer loop
         vertex 2.334154e+003 4.874695e+002 2.607390e+003
         vertex 2.334154e+003 4.874695e+002 1.857390e+003
         vertex 2.333883e+003 4.864592e+002 1.857390e+003
      endloop
   endfacet
   facet normal -9.730601e-001 2.305518e-001 -9.998592e-020
      outer loop
         vertex 2.334154e+003 4.874695e+002 2.607390e+003
         vertex 2.333883e+003 4.864592e+002 1.857390e+003
         vertex 2.333883e+003 4.864592e+002 2.607390e+003
      endloop
   endfacet
   facet normal -9.932307e-001 1.161583e-001 -5.037562e-020
      outer loop
         vertex 2.333883e+003 4.864592e+002 2.607390e+003
         vertex 2.333883e+003 4.864592e+002 1.857390e+003
         vertex 2.333792e+003 4.854173e+002 1.857390e+003
      endloop
   endfacet
   facet normal -9.983120e-001 5.807914e-002 -2.518781e-020
      outer loop
         vertex 2.333883e+003 4.864592e+002 2.607390e+003
         vertex 2.333792e+003 4.854173e+002 1.857390e+003
         vertex 2.333792e+003 4.854173e+002 2.607390e+003
      endloop
   endfacet
   facet normal 5.807914e-002 -9.983120e-001 4.329488e-019
      outer loop
         vertex 2.387792e+003 4.314174e+002 2.607390e+003
         vertex 2.387792e+003 4.314174e+002 1.857390e+003
         vertex 2.388834e+003 4.315085e+002 1.857390e+003
      endloop
   endfacet
   facet normal 1.161583e-001 -9.932307e-001 4.307452e-019
      outer loop
         vertex 2.387792e+003 4.314174e+002 2.607390e+003
         vertex 2.388834e+003 4.315085e+002 1.857390e+003
         vertex 2.388834e+003 4.315085e+002 2.607390e+003
      endloop
   endfacet
   facet normal 2.305518e-001 -9.730601e-001 4.219975e-019
      outer loop
         vertex 2.388834e+003 4.315085e+002 2.607390e+003
         vertex 2.388834e+003 4.315085e+002 1.857390e+003
         vertex 2.389844e+003 4.317792e+002 1.857390e+003
      endloop
   endfacet
   facet normal 2.868663e-001 -9.579706e-001 4.154535e-019
      outer loop
         vertex 2.388834e+003 4.315085e+002 2.607390e+003
         vertex 2.389844e+003 4.317792e+002 1.857390e+003
         vertex 2.389844e+003 4.317792e+002 2.607390e+003
      endloop
   endfacet
   facet normal 3.960194e-001 -9.182422e-001 3.982241e-019
      outer loop
         vertex 2.389844e+003 4.317792e+002 2.607390e+003
         vertex 2.389844e+003 4.317792e+002 1.857390e+003
         vertex 2.390792e+003 4.322212e+002 1.857390e+003
      endloop
   endfacet
   facet normal 4.488580e-001 -8.936031e-001 3.875386e-019
      outer loop
         vertex 2.389844e+003 4.317792e+002 2.607390e+003
         vertex 2.390792e+003 4.322212e+002 1.857390e+003
         vertex 2.390792e+003 4.322212e+002 2.607390e+003
      endloop
   endfacet
   facet normal 5.494540e-001 -8.355240e-001 3.623508e-019
      outer loop
         vertex 2.390792e+003 4.322212e+002 2.607390e+003
         vertex 2.390792e+003 4.322212e+002 1.857390e+003
         vertex 2.391649e+003 4.328211e+002 1.857390e+003
      endloop
   endfacet
   facet normal 5.972114e-001 -8.020839e-001 3.478484e-019
      outer loop
         vertex 2.390792e+003 4.322212e+002 2.607390e+003
         vertex 2.391649e+003 4.328211e+002 1.857390e+003
         vertex 2.391649e+003 4.328211e+002 2.607390e+003
      endloop
   endfacet
   facet normal 6.861938e-001 -7.274188e-001 3.154676e-019
      outer loop
         vertex 2.391649e+003 4.328211e+002 2.607390e+003
         vertex 2.391649e+003 4.328211e+002 1.857390e+003
         vertex 2.392389e+003 4.335606e+002 1.857390e+003
      endloop
   endfacet
   facet normal 7.274188e-001 -6.861938e-001 2.975891e-019
      outer loop
         vertex 2.391649e+003 4.328211e+002 2.607390e+003
         vertex 2.392389e+003 4.335606e+002 1.857390e+003
         vertex 2.392389e+003 4.335606e+002 2.607390e+003
      endloop
   endfacet
   facet normal 8.020839e-001 -5.972114e-001 2.589991e-019
      outer loop
         vertex 2.392389e+003 4.335606e+002 2.607390e+003
         vertex 2.392389e+003 4.335606e+002 1.857390e+003
         vertex 2.392989e+003 4.344173e+002 1.857390e+003
      endloop
   endfacet
   facet normal 8.355240e-001 -5.494540e-001 2.382877e-019
      outer loop
         vertex 2.392389e+003 4.335606e+002 2.607390e+003
         vertex 2.392989e+003 4.344173e+002 1.857390e+003
         vertex 2.392989e+003 4.344173e+002 2.607390e+003
      endloop
   endfacet
   facet normal 8.936031e-001 -4.488580e-001 1.946611e-019
      outer loop
         vertex 2.392989e+003 4.344173e+002 2.607390e+003
         vertex 2.392989e+003 4.344173e+002 1.857390e+003
         vertex 2.393430e+003 4.353652e+002 1.857390e+003
      endloop
   endfacet
   facet normal 9.182422e-001 -3.960194e-001 1.717460e-019
      outer loop
         vertex 2.392989e+003 4.344173e+002 2.607390e+003
         vertex 2.393430e+003 4.353652e+002 1.857390e+003
         vertex 2.393430e+003 4.353652e+002 2.607390e+003
      endloop
   endfacet
   facet normal 9.579706e-001 -2.868663e-001 1.244084e-019
      outer loop
         vertex 2.393430e+003 4.353652e+002 2.607390e+003
         vertex 2.393430e+003 4.353652e+002 1.857390e+003
         vertex 2.393701e+003 4.363754e+002 1.857390e+003
      endloop
   endfacet
   facet normal 9.730601e-001 -2.305518e-001 9.998592e-020
      outer loop
         vertex 2.393430e+003 4.353652e+002 2.607390e+003
         vertex 2.393701e+003 4.363754e+002 1.857390e+003
         vertex 2.393701e+003 4.363754e+002 2.607390e+003
      endloop
   endfacet
   facet normal 9.932307e-001 -1.161583e-001 5.037562e-020
      outer loop
         vertex 2.393701e+003 4.363754e+002 2.607390e+003
         vertex 2.393701e+003 4.363754e+002 1.857390e+003
         vertex 2.393792e+003 4.374173e+002 1.857390e+003
      endloop
   endfacet
   facet normal 9.983120e-001 -5.807914e-002 2.518781e-020
      outer loop
         vertex 2.393701e+003 4.363754e+002 2.607390e+003
         vertex 2.393792e+003 4.374173e+002 1.857390e+003
         vertex 2.393792e+003 4.374173e+002 2.607390e+003
      endloop
   endfacet
   facet normal 9.983120e-001 5.807914e-002 -2.518781e-020
      outer loop
         vertex 2.393792e+003 4.854173e+002 2.607390e+003
         vertex 2.393792e+003 4.854173e+002 1.857390e+003
         vertex 2.393701e+003 4.864592e+002 1.857390e+003
      endloop
   endfacet
   facet normal 9.932307e-001 1.161583e-001 -5.037562e-020
      outer loop
         vertex 2.393792e+003 4.854173e+002 2.607390e+003
         vertex 2.393701e+003 4.864592e+002 1.857390e+003
         vertex 2.393701e+003 4.864592e+002 2.607390e+003
      endloop
   endfacet
   facet normal 9.730601e-001 2.305518e-001 -9.998592e-020
      outer loop
         vertex 2.393701e+003 4.864592e+002 2.607390e+003
         vertex 2.393701e+003 4.864592e+002 1.857390e+003
         vertex 2.393430e+003 4.874695e+002 1.857390e+003
      endloop
   endfacet
   facet normal 9.579706e-001 2.868663e-001 -1.244084e-019
      outer loop
         vertex 2.393701e+003 4.864592e+002 2.607390e+003
         vertex 2.393430e+003 4.874695e+002 1.857390e+003
         vertex 2.393430e+003 4.874695e+002 2.607390e+003
      endloop
   endfacet
   facet normal 9.182422e-001 3.960194e-001 -1.717460e-019
      outer loop
         vertex 2.393430e+003 4.874695e+002 2.607390e+003
         vertex 2.393430e+003 4.874695e+002 1.857390e+003
         vertex 2.392989e+003 4.884173e+002 1.857390e+003
      endloop
   endfacet
   facet normal 8.936031e-001 4.488580e-001 -1.946611e-019
      outer loop
         vertex 2.393430e+003 4.874695e+002 2.607390e+003
         vertex 2.392989e+003 4.884173e+002 1.857390e+003
         vertex 2.392989e+003 4.884173e+002 2.607390e+003
      endloop
   endfacet
   facet normal 8.355240e-001 5.494540e-001 -2.382877e-019
      outer loop
         vertex 2.392989e+003 4.884173e+002 2.607390e+003
         vertex 2.392989e+003 4.884173e+002 1.857390e+003
         vertex 2.392389e+003 4.892740e+002 1.857390e+003
      endloop
   endfacet
   facet normal 8.020839e-001 5.972114e-001 -2.589991e-019
      outer loop
         vertex 2.392989e+003 4.884173e+002 2.607390e+003
         vertex 2.392389e+003 4.892740e+002 1.857390e+003
         vertex 2.392389e+003 4.892740e+002 2.607390e+003
      endloop
   endfacet
   facet normal 7.274188e-001 6.861938e-001 -2.975891e-019
      outer loop
         vertex 2.392389e+003 4.892740e+002 2.607390e+003
         vertex 2.392389e+003 4.892740e+002 1.857390e+003
         vertex 2.391649e+003 4.900136e+002 1.857390e+003
      endloop
   endfacet
   facet normal 6.861938e-001 7.274188e-001 -3.154676e-019
      outer loop
         vertex 2.392389e+003 4.892740e+002 2.607390e+003
         vertex 2.391649e+003 4.900136e+002 1.857390e+003
         vertex 2.391649e+003 4.900136e+002 2.607390e+003
      endloop
   endfacet
   facet normal 5.972114e-001 8.020839e-001 -3.478484e-019
      outer loop
         vertex 2.391649e+003 4.900136e+002 2.607390e+003
         vertex 2.391649e+003 4.900136e+002 1.857390e+003
         vertex 2.390792e+003 4.906135e+002 1.857390e+003
      endloop
   endfacet
   facet normal 5.494540e-001 8.355240e-001 -3.623508e-019
      outer loop
         vertex 2.391649e+003 4.900136e+002 2.607390e+003
         vertex 2.390792e+003 4.906135e+002 1.857390e+003
         vertex 2.390792e+003 4.906135e+002 2.607390e+003
      endloop
   endfacet
   facet normal 4.488580e-001 8.936031e-001 -3.875386e-019
      outer loop
         vertex 2.390792e+003 4.906135e+002 2.607390e+003
         vertex 2.390792e+003 4.906135e+002 1.857390e+003
         vertex 2.389844e+003 4.910555e+002 1.857390e+003
      endloop
   endfacet
   facet normal 3.960194e-001 9.182422e-001 -3.982241e-019
      outer loop
         vertex 2.390792e+003 4.906135e+002 2.607390e+003
         vertex 2.389844e+003 4.910555e+002 1.857390e+003
         vertex 2.389844e+003 4.910555e+002 2.607390e+003
      endloop
   endfacet
   facet normal 2.868663e-001 9.579706e-001 -4.154535e-019
      outer loop
         vertex 2.389844e+003 4.910555e+002 2.607390e+003
         vertex 2.389844e+003 4.910555e+002 1.857390e+003
         vertex 2.388834e+003 4.913262e+002 1.857390e+003
      endloop
   endfacet
   facet normal 2.305518e-001 9.730601e-001 -4.219975e-019
      outer loop
         vertex 2.389844e+003 4.910555e+002 2.607390e+003
         vertex 2.388834e+003 4.913262e+002 1.857390e+003
         vertex 2.388834e+003 4.913262e+002 2.607390e+003
      endloop
   endfacet
   facet normal 1.161583e-001 9.932307e-001 -4.307452e-019
      outer loop
         vertex 2.388834e+003 4.913262e+002 2.607390e+003
         vertex 2.388834e+003 4.913262e+002 1.857390e+003
         vertex 2.387792e+003 4.914173e+002 1.857390e+003
      endloop
   endfacet
   facet normal 5.807914e-002 9.983120e-001 -4.329488e-019
      outer loop
         vertex 2.388834e+003 4.913262e+002 2.607390e+003
         vertex 2.387792e+003 4.914173e+002 1.857390e+003
         vertex 2.387792e+003 4.914173e+002 2.607390e+003
      endloop
   endfacet
   facet normal 1.000000e+000 0.000000e+000 -1.203706e-035
      outer loop
         vertex 2.338792e+003 4.854173e+002 2.607390e+003
         vertex 2.338792e+003 4.374173e+002 2.607390e+003
         vertex 2.338792e+003 4.854173e+002 1.857390e+003
      endloop
   endfacet
   facet normal 1.000000e+000 0.000000e+000 -1.203706e-035
      outer loop
         vertex 2.338792e+003 4.854173e+002 1.857390e+003
         vertex 2.338792e+003 4.374173e+002 2.607390e+003
         vertex 2.338792e+003 4.374173e+002 1.857390e+003
      endloop
   endfacet
   facet normal -2.914335e-016 1.000000e+000 -4.336809e-019
      outer loop
         vertex 2.387792e+003 4.364173e+002 1.857390e+003
         vertex 2.339792e+003 4.364173e+002 1.857390e+003
         vertex 2.387792e+003 4.364173e+002 2.607390e+003
      endloop
   endfacet
   facet normal -2.914335e-016 1.000000e+000 -4.336809e-019
      outer loop
         vertex 2.387792e+003 4.364173e+002 2.607390e+003
         vertex 2.339792e+003 4.364173e+002 1.857390e+003
         vertex 2.339792e+003 4.364173e+002 2.607390e+003
      endloop
   endfacet
   facet normal -1.000000e+000 -0.000000e+000 1.203706e-035
      outer loop
         vertex 2.388792e+003 4.854173e+002 1.857390e+003
         vertex 2.388792e+003 4.374173e+002 1.857390e+003
         vertex 2.388792e+003 4.854173e+002 2.607390e+003
      endloop
   endfacet
   facet normal -1.000000e+000 -0.000000e+000 1.203706e-035
      outer loop
         vertex 2.388792e+003 4.854173e+002 2.607390e+003
         vertex 2.388792e+003 4.374173e+002 1.857390e+003
         vertex 2.388792e+003 4.374173e+002 2.607390e+003
      endloop
   endfacet
   facet normal -5.551115e-017 -1.000000e+000 4.336809e-019
      outer loop
         vertex 2.387792e+003 4.864173e+002 2.607390e+003
         vertex 2.339792e+003 4.864173e+002 2.607390e+003
         vertex 2.387792e+003 4.864173e+002 1.857390e+003
      endloop
   endfacet
   facet normal -5.551115e-017 -1.000000e+000 4.336809e-019
      outer loop
         vertex 2.387792e+003 4.864173e+002 1.857390e+003
         vertex 2.339792e+003 4.864173e+002 2.607390e+003
         vertex 2.339792e+003 4.864173e+002 1.857390e+003
      endloop
   endfacet
   facet normal 5.807914e-002 9.983120e-001 -4.329488e-019
      outer loop
         vertex 2.339792e+003 4.364173e+002 2.607390e+003
         vertex 2.339792e+003 4.364173e+002 1.857390e+003
         vertex 2.339618e+003 4.364325e+002 1.857390e+003
      endloop
   endfacet
   facet normal 1.161583e-001 9.932307e-001 -4.307452e-019
      outer loop
         vertex 2.339792e+003 4.364173e+002 2.607390e+003
         vertex 2.339618e+003 4.364325e+002 1.857390e+003
         vertex 2.339618e+003 4.364325e+002 2.607390e+003
      endloop
   endfacet
   facet normal 2.305518e-001 9.730601e-001 -4.219975e-019
      outer loop
         vertex 2.339618e+003 4.364325e+002 2.607390e+003
         vertex 2.339618e+003 4.364325e+002 1.857390e+003
         vertex 2.339450e+003 4.364776e+002 1.857390e+003
      endloop
   endfacet
   facet normal 2.868663e-001 9.579706e-001 -4.154535e-019
      outer loop
         vertex 2.339618e+003 4.364325e+002 2.607390e+003
         vertex 2.339450e+003 4.364776e+002 1.857390e+003
         vertex 2.339450e+003 4.364776e+002 2.607390e+003
      endloop
   endfacet
   facet normal 3.960194e-001 9.182422e-001 -3.982241e-019
      outer loop
         vertex 2.339450e+003 4.364776e+002 2.607390e+003
         vertex 2.339450e+003 4.364776e+002 1.857390e+003
         vertex 2.339292e+003 4.365513e+002 1.857390e+003
      endloop
   endfacet
   facet normal 4.488580e-001 8.936031e-001 -3.875386e-019
      outer loop
         vertex 2.339450e+003 4.364776e+002 2.607390e+003
         vertex 2.339292e+003 4.365513e+002 1.857390e+003
         vertex 2.339292e+003 4.365513e+002 2.607390e+003
      endloop
   endfacet
   facet normal 5.494540e-001 8.355240e-001 -3.623508e-019
      outer loop
         vertex 2.339292e+003 4.365513e+002 2.607390e+003
         vertex 2.339292e+003 4.365513e+002 1.857390e+003
         vertex 2.339149e+003 4.366513e+002 1.857390e+003
      endloop
   endfacet
   facet normal 5.972114e-001 8.020839e-001 -3.478484e-019
      outer loop
         vertex 2.339292e+003 4.365513e+002 2.607390e+003
         vertex 2.339149e+003 4.366513e+002 1.857390e+003
         vertex 2.339149e+003 4.366513e+002 2.607390e+003
      endloop
   endfacet
   facet normal 6.861938e-001 7.274188e-001 -3.154676e-019
      outer loop
         vertex 2.339149e+003 4.366513e+002 2.607390e+003
         vertex 2.339149e+003 4.366513e+002 1.857390e+003
         vertex 2.339026e+003 4.367746e+002 1.857390e+003
      endloop
   endfacet
   facet normal 7.274188e-001 6.861938e-001 -2.975891e-019
      outer loop
         vertex 2.339149e+003 4.366513e+002 2.607390e+003
         vertex 2.339026e+003 4.367746e+002 1.857390e+003
         vertex 2.339026e+003 4.367746e+002 2.607390e+003
      endloop
   endfacet
   facet normal 8.020839e-001 5.972114e-001 -2.589991e-019
      outer loop
         vertex 2.339026e+003 4.367746e+002 2.607390e+003
         vertex 2.339026e+003 4.367746e+002 1.857390e+003
         vertex 2.338926e+003 4.369173e+002 1.857390e+003
      endloop
   endfacet
   facet normal 8.355240e-001 5.494540e-001 -2.382877e-019
      outer loop
         vertex 2.339026e+003 4.367746e+002 2.607390e+003
         vertex 2.338926e+003 4.369173e+002 1.857390e+003
         vertex 2.338926e+003 4.369173e+002 2.607390e+003
      endloop
   endfacet
   facet normal 8.936031e-001 4.488580e-001 -1.946611e-019
      outer loop
         vertex 2.338926e+003 4.369173e+002 2.607390e+003
         vertex 2.338926e+003 4.369173e+002 1.857390e+003
         vertex 2.338852e+003 4.370753e+002 1.857390e+003
      endloop
   endfacet
   facet normal 9.182422e-001 3.960194e-001 -1.717460e-019
      outer loop
         vertex 2.338926e+003 4.369173e+002 2.607390e+003
         vertex 2.338852e+003 4.370753e+002 1.857390e+003
         vertex 2.338852e+003 4.370753e+002 2.607390e+003
      endloop
   endfacet
   facet normal 9.579706e-001 2.868663e-001 -1.244084e-019
      outer loop
         vertex 2.338852e+003 4.370753e+002 2.607390e+003
         vertex 2.338852e+003 4.370753e+002 1.857390e+003
         vertex 2.338807e+003 4.372437e+002 1.857390e+003
      endloop
   endfacet
   facet normal 9.730601e-001 2.305518e-001 -9.998592e-020
      outer loop
         vertex 2.338852e+003 4.370753e+002 2.607390e+003
         vertex 2.338807e+003 4.372437e+002 1.857390e+003
         vertex 2.338807e+003 4.372437e+002 2.607390e+003
      endloop
   endfacet
   facet normal 9.932307e-001 1.161583e-001 -5.037562e-020
      outer loop
         vertex 2.338807e+003 4.372437e+002 2.607390e+003
         vertex 2.338807e+003 4.372437e+002 1.857390e+003
         vertex 2.338792e+003 4.374173e+002 1.857390e+003
      endloop
   endfacet
   facet normal 9.983120e-001 5.807914e-002 -2.518781e-020
      outer loop
         vertex 2.338807e+003 4.372437e+002 2.607390e+003
         vertex 2.338792e+003 4.374173e+002 1.857390e+003
         vertex 2.338792e+003 4.374173e+002 2.607390e+003
      endloop
   endfacet
   facet normal 9.983120e-001 -5.807914e-002 2.518781e-020
      outer loop
         vertex 2.338792e+003 4.854173e+002 2.607390e+003
         vertex 2.338792e+003 4.854173e+002 1.857390e+003
         vertex 2.338807e+003 4.855910e+002 1.857390e+003
      endloop
   endfacet
   facet normal 9.932307e-001 -1.161583e-001 5.037562e-020
      outer loop
         vertex 2.338792e+003 4.854173e+002 2.607390e+003
         vertex 2.338807e+003 4.855910e+002 1.857390e+003
         vertex 2.338807e+003 4.855910e+002 2.607390e+003
      endloop
   endfacet
   facet normal 9.730601e-001 -2.305518e-001 9.998592e-020
      outer loop
         vertex 2.338807e+003 4.855910e+002 2.607390e+003
         vertex 2.338807e+003 4.855910e+002 1.857390e+003
         vertex 2.338852e+003 4.857593e+002 1.857390e+003
      endloop
   endfacet
   facet normal 9.579706e-001 -2.868663e-001 1.244084e-019
      outer loop
         vertex 2.338807e+003 4.855910e+002 2.607390e+003
         vertex 2.338852e+003 4.857593e+002 1.857390e+003
         vertex 2.338852e+003 4.857593e+002 2.607390e+003
      endloop
   endfacet
   facet normal 9.182422e-001 -3.960194e-001 1.717460e-019
      outer loop
         vertex 2.338852e+003 4.857593e+002 2.607390e+003
         vertex 2.338852e+003 4.857593e+002 1.857390e+003
         vertex 2.338926e+003 4.859173e+002 1.857390e+003
      endloop
   endfacet
   facet normal 8.936031e-001 -4.488580e-001 1.946611e-019
      outer loop
         vertex 2.338852e+003 4.857593e+002 2.607390e+003
         vertex 2.338926e+003 4.859173e+002 1.857390e+003
         vertex 2.338926e+003 4.859173e+002 2.607390e+003
      endloop
   endfacet
   facet normal 8.355240e-001 -5.494540e-001 2.382877e-019
      outer loop
         vertex 2.338926e+003 4.859173e+002 2.607390e+003
         vertex 2.338926e+003 4.859173e+002 1.857390e+003
         vertex 2.339026e+003 4.860601e+002 1.857390e+003
      endloop
   endfacet
   facet normal 8.020839e-001 -5.972114e-001 2.589991e-019
      outer loop
         vertex 2.338926e+003 4.859173e+002 2.607390e+003
         vertex 2.339026e+003 4.860601e+002 1.857390e+003
         vertex 2.339026e+003 4.860601e+002 2.607390e+003
      endloop
   endfacet
   facet normal 7.274188e-001 -6.861938e-001 2.975891e-019
      outer loop
         vertex 2.339026e+003 4.860601e+002 2.607390e+003
         vertex 2.339026e+003 4.860601e+002 1.857390e+003
         vertex 2.339149e+003 4.861834e+002 1.857390e+003
      endloop
   endfacet
   facet normal 6.861938e-001 -7.274188e-001 3.154676e-019
      outer loop
         vertex 2.339026e+003 4.860601e+002 2.607390e+003
         vertex 2.339149e+003 4.861834e+002 1.857390e+003
         vertex 2.339149e+003 4.861834e+002 2.607390e+003
      endloop
   endfacet
   facet normal 5.972114e-001 -8.020839e-001 3.478484e-019
      outer loop
         vertex 2.339149e+003 4.861834e+002 2.607390e+003
         vertex 2.339149e+003 4.861834e+002 1.857390e+003
         vertex 2.339292e+003 4.862834e+002 1.857390e+003
      endloop
   endfacet
   facet normal 5.494540e-001 -8.355240e-001 3.623508e-019
      outer loop
         vertex 2.339149e+003 4.861834e+002 2.607390e+003
         vertex 2.339292e+003 4.862834e+002 1.857390e+003
         vertex 2.339292e+003 4.862834e+002 2.607390e+003
      endloop
   endfacet
   facet normal 4.488580e-001 -8.936031e-001 3.875386e-019
      outer loop
         vertex 2.339292e+003 4.862834e+002 2.607390e+003
         vertex 2.339292e+003 4.862834e+002 1.857390e+003
         vertex 2.339450e+003 4.863570e+002 1.857390e+003
      endloop
   endfacet
   facet normal 3.960194e-001 -9.182422e-001 3.982241e-019
      outer loop
         vertex 2.339292e+003 4.862834e+002 2.607390e+003
         vertex 2.339450e+003 4.863570e+002 1.857390e+003
         vertex 2.339450e+003 4.863570e+002 2.607390e+003
      endloop
   endfacet
   facet normal 2.868663e-001 -9.579706e-001 4.154535e-019
      outer loop
         vertex 2.339450e+003 4.863570e+002 2.607390e+003
         vertex 2.339450e+003 4.863570e+002 1.857390e+003
         vertex 2.339618e+003 4.864022e+002 1.857390e+003
      endloop
   endfacet
   facet normal 2.305518e-001 -9.730601e-001 4.219975e-019
      outer loop
         vertex 2.339450e+003 4.863570e+002 2.607390e+003
         vertex 2.339618e+003 4.864022e+002 1.857390e+003
         vertex 2.339618e+003 4.864022e+002 2.607390e+003
      endloop
   endfacet
   facet normal 1.161583e-001 -9.932307e-001 4.307452e-019
      outer loop
         vertex 2.339618e+003 4.864022e+002 2.607390e+003
         vertex 2.339618e+003 4.864022e+002 1.857390e+003
         vertex 2.339792e+003 4.864173e+002 1.857390e+003
      endloop
   endfacet
   facet normal 5.807914e-002 -9.983120e-001 4.329488e-019
      outer loop
         vertex 2.339618e+003 4.864022e+002 2.607390e+003
         vertex 2.339792e+003 4.864173e+002 1.857390e+003
         vertex 2.339792e+003 4.864173e+002 2.607390e+003
      endloop
   endfacet
   facet normal -9.986320e-001 5.228807e-002 -2.267634e-020
      outer loop
         vertex 2.388792e+003 4.374173e+002 2.607390e+003
         vertex 2.388792e+003 4.374173e+002 1.857390e+003
         vertex 2.388780e+003 4.372609e+002 1.857390e+003
      endloop
   endfacet
   facet normal -9.945169e-001 1.045761e-001 -4.535267e-020
      outer loop
         vertex 2.388792e+003 4.374173e+002 2.607390e+003
         vertex 2.388780e+003 4.372609e+002 1.857390e+003
         vertex 2.388780e+003 4.372609e+002 2.607390e+003
      endloop
   endfacet
   facet normal -9.781576e-001 2.078648e-001 -9.014698e-020
      outer loop
         vertex 2.388780e+003 4.372609e+002 2.607390e+003
         vertex 2.388780e+003 4.372609e+002 1.857390e+003
         vertex 2.388743e+003 4.371083e+002 1.857390e+003
      endloop
   endfacet
   facet normal -9.659134e-001 2.588654e-001 -1.122650e-019
      outer loop
         vertex 2.388780e+003 4.372609e+002 2.607390e+003
         vertex 2.388743e+003 4.371083e+002 1.857390e+003
         vertex 2.388743e+003 4.371083e+002 2.607390e+003
      endloop
   endfacet
   facet normal -9.335976e-001 3.583232e-001 -1.553979e-019
      outer loop
         vertex 2.388743e+003 4.371083e+002 2.607390e+003
         vertex 2.388743e+003 4.371083e+002 1.857390e+003
         vertex 2.388683e+003 4.369633e+002 1.857390e+003
      endloop
   endfacet
   facet normal -9.135259e-001 4.067805e-001 -1.764129e-019
      outer loop
         vertex 2.388743e+003 4.371083e+002 2.607390e+003
         vertex 2.388683e+003 4.369633e+002 1.857390e+003
         vertex 2.388683e+003 4.369633e+002 2.607390e+003
      endloop
   endfacet
   facet normal -8.660493e-001 4.999585e-001 -2.168224e-019
      outer loop
         vertex 2.388683e+003 4.369633e+002 2.607390e+003
         vertex 2.388683e+003 4.369633e+002 1.857390e+003
         vertex 2.388601e+003 4.368295e+002 1.857390e+003
      endloop
   endfacet
   facet normal -8.386444e-001 5.446792e-001 -2.362170e-019
      outer loop
         vertex 2.388683e+003 4.369633e+002 2.607390e+003
         vertex 2.388601e+003 4.368295e+002 1.857390e+003
         vertex 2.388601e+003 4.368295e+002 2.607390e+003
      endloop
   endfacet
   facet normal -7.771761e-001 6.292831e-001 -2.729080e-019
      outer loop
         vertex 2.388601e+003 4.368295e+002 2.607390e+003
         vertex 2.388601e+003 4.368295e+002 1.857390e+003
         vertex 2.388499e+003 4.367102e+002 1.857390e+003
      endloop
   endfacet
   facet normal -7.431127e-001 6.691663e-001 -2.902046e-019
      outer loop
         vertex 2.388601e+003 4.368295e+002 2.607390e+003
         vertex 2.388499e+003 4.367102e+002 1.857390e+003
         vertex 2.388499e+003 4.367102e+002 2.607390e+003
      endloop
   endfacet
   facet normal -6.691663e-001 7.431127e-001 -3.222738e-019
      outer loop
         vertex 2.388499e+003 4.367102e+002 2.607390e+003
         vertex 2.388499e+003 4.367102e+002 1.857390e+003
         vertex 2.388380e+003 4.366083e+002 1.857390e+003
      endloop
   endfacet
   facet normal -6.292831e-001 7.771761e-001 -3.370464e-019
      outer loop
         vertex 2.388499e+003 4.367102e+002 2.607390e+003
         vertex 2.388380e+003 4.366083e+002 1.857390e+003
         vertex 2.388380e+003 4.366083e+002 2.607390e+003
      endloop
   endfacet
   facet normal -5.446792e-001 8.386444e-001 -3.637041e-019
      outer loop
         vertex 2.388380e+003 4.366083e+002 2.607390e+003
         vertex 2.388380e+003 4.366083e+002 1.857390e+003
         vertex 2.388246e+003 4.365263e+002 1.857390e+003
      endloop
   endfacet
   facet normal -4.999585e-001 8.660493e-001 -3.755890e-019
      outer loop
         vertex 2.388380e+003 4.366083e+002 2.607390e+003
         vertex 2.388246e+003 4.365263e+002 1.857390e+003
         vertex 2.388246e+003 4.365263e+002 2.607390e+003
      endloop
   endfacet
   facet normal -4.067805e-001 9.135259e-001 -3.961787e-019
      outer loop
         vertex 2.388246e+003 4.365263e+002 2.607390e+003
         vertex 2.388246e+003 4.365263e+002 1.857390e+003
         vertex 2.388101e+003 4.364663e+002 1.857390e+003
      endloop
   endfacet
   facet normal -3.583232e-001 9.335976e-001 -4.048834e-019
      outer loop
         vertex 2.388246e+003 4.365263e+002 2.607390e+003
         vertex 2.388101e+003 4.364663e+002 1.857390e+003
         vertex 2.388101e+003 4.364663e+002 2.607390e+003
      endloop
   endfacet
   facet normal -2.588654e-001 9.659134e-001 -4.188982e-019
      outer loop
         vertex 2.388101e+003 4.364663e+002 2.607390e+003
         vertex 2.388101e+003 4.364663e+002 1.857390e+003
         vertex 2.387949e+003 4.364297e+002 1.857390e+003
      endloop
   endfacet
   facet normal -2.078648e-001 9.781576e-001 -4.242082e-019
      outer loop
         vertex 2.388101e+003 4.364663e+002 2.607390e+003
         vertex 2.387949e+003 4.364297e+002 1.857390e+003
         vertex 2.387949e+003 4.364297e+002 2.607390e+003
      endloop
   endfacet
   facet normal -1.045761e-001 9.945169e-001 -4.313030e-019
      outer loop
         vertex 2.387949e+003 4.364297e+002 2.607390e+003
         vertex 2.387949e+003 4.364297e+002 1.857390e+003
         vertex 2.387792e+003 4.364173e+002 1.857390e+003
      endloop
   endfacet
   facet normal -5.228807e-002 9.986320e-001 -4.330876e-019
      outer loop
         vertex 2.387949e+003 4.364297e+002 2.607390e+003
         vertex 2.387792e+003 4.364173e+002 1.857390e+003
         vertex 2.387792e+003 4.364173e+002 2.607390e+003
      endloop
   endfacet
   facet normal -5.807914e-002 -9.983120e-001 4.329488e-019
      outer loop
         vertex 2.387792e+003 4.864173e+002 2.607390e+003
         vertex 2.387792e+003 4.864173e+002 1.857390e+003
         vertex 2.387966e+003 4.864022e+002 1.857390e+003
      endloop
   endfacet
   facet normal -1.161583e-001 -9.932307e-001 4.307452e-019
      outer loop
         vertex 2.387792e+003 4.864173e+002 2.607390e+003
         vertex 2.387966e+003 4.864022e+002 1.857390e+003
         vertex 2.387966e+003 4.864022e+002 2.607390e+003
      endloop
   endfacet
   facet normal -2.305518e-001 -9.730601e-001 4.219975e-019
      outer loop
         vertex 2.387966e+003 4.864022e+002 2.607390e+003
         vertex 2.387966e+003 4.864022e+002 1.857390e+003
         vertex 2.388134e+003 4.863570e+002 1.857390e+003
      endloop
   endfacet
   facet normal -2.868663e-001 -9.579706e-001 4.154535e-019
      outer loop
         vertex 2.387966e+003 4.864022e+002 2.607390e+003
         vertex 2.388134e+003 4.863570e+002 1.857390e+003
         vertex 2.388134e+003 4.863570e+002 2.607390e+003
      endloop
   endfacet
   facet normal -3.960194e-001 -9.182422e-001 3.982241e-019
      outer loop
         vertex 2.388134e+003 4.863570e+002 2.607390e+003
         vertex 2.388134e+003 4.863570e+002 1.857390e+003
         vertex 2.388292e+003 4.862834e+002 1.857390e+003
      endloop
   endfacet
   facet normal -4.488580e-001 -8.936031e-001 3.875386e-019
      outer loop
         vertex 2.388134e+003 4.863570e+002 2.607390e+003
         vertex 2.388292e+003 4.862834e+002 1.857390e+003
         vertex 2.388292e+003 4.862834e+002 2.607390e+003
      endloop
   endfacet
   facet normal -5.494540e-001 -8.355240e-001 3.623508e-019
      outer loop
         vertex 2.388292e+003 4.862834e+002 2.607390e+003
         vertex 2.388292e+003 4.862834e+002 1.857390e+003
         vertex 2.388435e+003 4.861834e+002 1.857390e+003
      endloop
   endfacet
   facet normal -5.972114e-001 -8.020839e-001 3.478484e-019
      outer loop
         vertex 2.388292e+003 4.862834e+002 2.607390e+003
         vertex 2.388435e+003 4.861834e+002 1.857390e+003
         vertex 2.388435e+003 4.861834e+002 2.607390e+003
      endloop
   endfacet
   facet normal -6.861938e-001 -7.274188e-001 3.154676e-019
      outer loop
         vertex 2.388435e+003 4.861834e+002 2.607390e+003
         vertex 2.388435e+003 4.861834e+002 1.857390e+003
         vertex 2.388558e+003 4.860601e+002 1.857390e+003
      endloop
   endfacet
   facet normal -7.274188e-001 -6.861938e-001 2.975891e-019
      outer loop
         vertex 2.388435e+003 4.861834e+002 2.607390e+003
         vertex 2.388558e+003 4.860601e+002 1.857390e+003
         vertex 2.388558e+003 4.860601e+002 2.607390e+003
      endloop
   endfacet
   facet normal -8.020839e-001 -5.972114e-001 2.589991e-019
      outer loop
         vertex 2.388558e+003 4.860601e+002 2.607390e+003
         vertex 2.388558e+003 4.860601e+002 1.857390e+003
         vertex 2.388658e+003 4.859173e+002 1.857390e+003
      endloop
   endfacet
   facet normal -8.355240e-001 -5.494540e-001 2.382877e-019
      outer loop
         vertex 2.388558e+003 4.860601e+002 2.607390e+003
         vertex 2.388658e+003 4.859173e+002 1.857390e+003
         vertex 2.388658e+003 4.859173e+002 2.607390e+003
      endloop
   endfacet
   facet normal -8.936031e-001 -4.488580e-001 1.946611e-019
      outer loop
         vertex 2.388658e+003 4.859173e+002 2.607390e+003
         vertex 2.388658e+003 4.859173e+002 1.857390e+003
         vertex 2.388732e+003 4.857593e+002 1.857390e+003
      endloop
   endfacet
   facet normal -9.182422e-001 -3.960194e-001 1.717460e-019
      outer loop
         vertex 2.388658e+003 4.859173e+002 2.607390e+003
         vertex 2.388732e+003 4.857593e+002 1.857390e+003
         vertex 2.388732e+003 4.857593e+002 2.607390e+003
      endloop
   endfacet
   facet normal -9.579706e-001 -2.868663e-001 1.244084e-019
      outer loop
         vertex 2.388732e+003 4.857593e+002 2.607390e+003
         vertex 2.388732e+003 4.857593e+002 1.857390e+003
         vertex 2.388777e+003 4.855910e+002 1.857390e+003
      endloop
   endfacet
   facet normal -9.730601e-001 -2.305518e-001 9.998592e-020
      outer loop
         vertex 2.388732e+003 4.857593e+002 2.607390e+003
         vertex 2.388777e+003 4.855910e+002 1.857390e+003
         vertex 2.388777e+003 4.855910e+002 2.607390e+003
      endloop
   endfacet
   facet normal -9.932307e-001 -1.161583e-001 5.037562e-020
      outer loop
         vertex 2.388777e+003 4.855910e+002 2.607390e+003
         vertex 2.388777e+003 4.855910e+002 1.857390e+003
         vertex 2.388792e+003 4.854173e+002 1.857390e+003
      endloop
   endfacet
   facet normal -9.983120e-001 -5.807914e-002 2.518781e-020
      outer loop
         vertex 2.388777e+003 4.855910e+002 2.607390e+003
         vertex 2.388792e+003 4.854173e+002 1.857390e+003
         vertex 2.388792e+003 4.854173e+002 2.607390e+003
      endloop
   endfacet
endsolid