solid 09.025.00.00.000 - 09.025.00.01.000-1 09.025.00.01.001-1 09.025.00.01.0AC-1
   facet normal -3.149380e-018 1.000000e+000 -2.114702e-017
      outer loop
         vertex 8.977922e+002 1.395417e+003 1.868390e+003
         vertex 8.937922e+002 1.395417e+003 1.868390e+003
         vertex 8.977922e+002 1.395417e+003 1.916390e+003
      endloop
   endfacet
   facet normal -3.149380e-018 1.000000e+000 -2.114702e-017
      outer loop
         vertex 8.977922e+002 1.395417e+003 1.916390e+003
         vertex 8.937922e+002 1.395417e+003 1.868390e+003
         vertex 8.937922e+002 1.395417e+003 1.916390e+003
      endloop
   endfacet
   facet normal -3.149380e-018 1.000000e+000 -2.114702e-017
      outer loop
         vertex 8.977922e+002 1.395417e+003 1.916390e+003
         vertex 8.937922e+002 1.395417e+003 1.916390e+003
         vertex 8.978226e+002 1.395417e+003 1.916737e+003
      endloop
   endfacet
   facet normal -3.149380e-018 1.000000e+000 -2.114702e-017
      outer loop
         vertex 8.978226e+002 1.395417e+003 1.916737e+003
         vertex 8.937922e+002 1.395417e+003 1.916390e+003
         vertex 8.938834e+002 1.395417e+003 1.917432e+003
      endloop
   endfacet
   facet normal -3.149380e-018 1.000000e+000 -2.114702e-017
      outer loop
         vertex 8.978226e+002 1.395417e+003 1.916737e+003
         vertex 8.938834e+002 1.395417e+003 1.917432e+003
         vertex 8.979128e+002 1.395417e+003 1.917074e+003
      endloop
   endfacet
   facet normal -3.149380e-018 1.000000e+000 -2.114702e-017
      outer loop
         vertex 8.979128e+002 1.395417e+003 1.917074e+003
         vertex 8.938834e+002 1.395417e+003 1.917432e+003
         vertex 8.941541e+002 1.395417e+003 1.918442e+003
      endloop
   endfacet
   facet normal -3.149380e-018 1.000000e+000 -2.114702e-017
      outer loop
         vertex 8.979128e+002 1.395417e+003 1.917074e+003
         vertex 8.941541e+002 1.395417e+003 1.918442e+003
         vertex 8.980601e+002 1.395417e+003 1.917390e+003
      endloop
   endfacet
   facet normal -3.149380e-018 1.000000e+000 -2.114702e-017
      outer loop
         vertex 8.980601e+002 1.395417e+003 1.917390e+003
         vertex 8.941541e+002 1.395417e+003 1.918442e+003
         vertex 8.945961e+002 1.395417e+003 1.919390e+003
      endloop
   endfacet
   facet normal -3.149380e-018 1.000000e+000 -2.114702e-017
      outer loop
         vertex 8.980601e+002 1.395417e+003 1.917390e+003
         vertex 8.945961e+002 1.395417e+003 1.919390e+003
         vertex 8.982601e+002 1.395417e+003 1.917676e+003
      endloop
   endfacet
   facet normal -3.149380e-018 1.000000e+000 -2.114702e-017
      outer loop
         vertex 8.982601e+002 1.395417e+003 1.917676e+003
         vertex 8.945961e+002 1.395417e+003 1.919390e+003
         vertex 8.951960e+002 1.395417e+003 1.920247e+003
      endloop
   endfacet
   facet normal -3.149380e-018 1.000000e+000 -2.114702e-017
      outer loop
         vertex 8.982601e+002 1.395417e+003 1.917676e+003
         vertex 8.951960e+002 1.395417e+003 1.920247e+003
         vertex 8.985067e+002 1.395417e+003 1.917922e+003
      endloop
   endfacet
   facet normal -3.149380e-018 1.000000e+000 -2.114702e-017
      outer loop
         vertex 8.985067e+002 1.395417e+003 1.917922e+003
         vertex 8.951960e+002 1.395417e+003 1.920247e+003
         vertex 8.959355e+002 1.395417e+003 1.920986e+003
      endloop
   endfacet
   facet normal -3.149380e-018 1.000000e+000 -2.114702e-017
      outer loop
         vertex 8.985067e+002 1.395417e+003 1.917922e+003
         vertex 8.959355e+002 1.395417e+003 1.920986e+003
         vertex 8.987922e+002 1.395417e+003 1.918122e+003
      endloop
   endfacet
   facet normal -3.149380e-018 1.000000e+000 -2.114702e-017
      outer loop
         vertex 8.987922e+002 1.395417e+003 1.918122e+003
         vertex 8.959355e+002 1.395417e+003 1.920986e+003
         vertex 8.967922e+002 1.395417e+003 1.921586e+003
      endloop
   endfacet
   facet normal -3.149380e-018 1.000000e+000 -2.114702e-017
      outer loop
         vertex 8.987922e+002 1.395417e+003 1.918122e+003
         vertex 8.967922e+002 1.395417e+003 1.921586e+003
         vertex 8.991082e+002 1.395417e+003 1.918269e+003
      endloop
   endfacet
   facet normal -3.149380e-018 1.000000e+000 -2.114702e-017
      outer loop
         vertex 8.991082e+002 1.395417e+003 1.918269e+003
         vertex 8.967922e+002 1.395417e+003 1.921586e+003
         vertex 8.977401e+002 1.395417e+003 1.922028e+003
      endloop
   endfacet
   facet normal -3.149380e-018 1.000000e+000 -2.114702e-017
      outer loop
         vertex 8.991082e+002 1.395417e+003 1.918269e+003
         vertex 8.977401e+002 1.395417e+003 1.922028e+003
         vertex 8.994449e+002 1.395417e+003 1.918359e+003
      endloop
   endfacet
   facet normal -3.149380e-018 1.000000e+000 -2.114702e-017
      outer loop
         vertex 8.994449e+002 1.395417e+003 1.918359e+003
         vertex 8.977401e+002 1.395417e+003 1.922028e+003
         vertex 8.987503e+002 1.395417e+003 1.922299e+003
      endloop
   endfacet
   facet normal -3.149380e-018 1.000000e+000 -2.114702e-017
      outer loop
         vertex 8.994449e+002 1.395417e+003 1.918359e+003
         vertex 8.987503e+002 1.395417e+003 1.922299e+003
         vertex 8.997922e+002 1.395417e+003 1.918390e+003
      endloop
   endfacet
   facet normal -3.149380e-018 1.000000e+000 -2.114702e-017
      outer loop
         vertex 8.997922e+002 1.395417e+003 1.918390e+003
         vertex 8.987503e+002 1.395417e+003 1.922299e+003
         vertex 8.997922e+002 1.395417e+003 1.922390e+003
      endloop
   endfacet
   facet normal -3.149380e-018 1.000000e+000 -2.114702e-017
      outer loop
         vertex 8.997922e+002 1.395417e+003 1.918390e+003
         vertex 8.997922e+002 1.395417e+003 1.922390e+003
         vertex 9.277922e+002 1.395417e+003 1.918390e+003
      endloop
   endfacet
   facet normal -3.149380e-018 1.000000e+000 -2.114702e-017
      outer loop
         vertex 9.277922e+002 1.395417e+003 1.918390e+003
         vertex 8.997922e+002 1.395417e+003 1.922390e+003
         vertex 9.277922e+002 1.395417e+003 1.922390e+003
      endloop
   endfacet
   facet normal -3.149380e-018 1.000000e+000 -2.114702e-017
      outer loop
         vertex 9.277922e+002 1.395417e+003 1.918390e+003
         vertex 9.277922e+002 1.395417e+003 1.922390e+003
         vertex 9.281395e+002 1.395417e+003 1.918359e+003
      endloop
   endfacet
   facet normal -3.149380e-018 1.000000e+000 -2.114702e-017
      outer loop
         vertex 9.281395e+002 1.395417e+003 1.918359e+003
         vertex 9.277922e+002 1.395417e+003 1.922390e+003
         vertex 9.288341e+002 1.395417e+003 1.922299e+003
      endloop
   endfacet
   facet normal -3.149380e-018 1.000000e+000 -2.114702e-017
      outer loop
         vertex 9.281395e+002 1.395417e+003 1.918359e+003
         vertex 9.288341e+002 1.395417e+003 1.922299e+003
         vertex 9.284763e+002 1.395417e+003 1.918269e+003
      endloop
   endfacet
   facet normal -3.149380e-018 1.000000e+000 -2.114702e-017
      outer loop
         vertex 9.284763e+002 1.395417e+003 1.918269e+003
         vertex 9.288341e+002 1.395417e+003 1.922299e+003
         vertex 9.298443e+002 1.395417e+003 1.922028e+003
      endloop
   endfacet
   facet normal -3.149380e-018 1.000000e+000 -2.114702e-017
      outer loop
         vertex 9.284763e+002 1.395417e+003 1.918269e+003
         vertex 9.298443e+002 1.395417e+003 1.922028e+003
         vertex 9.287922e+002 1.395417e+003 1.918122e+003
      endloop
   endfacet
   facet normal -3.149380e-018 1.000000e+000 -2.114702e-017
      outer loop
         vertex 9.287922e+002 1.395417e+003 1.918122e+003
         vertex 9.298443e+002 1.395417e+003 1.922028e+003
         vertex 9.307922e+002 1.395417e+003 1.921586e+003
      endloop
   endfacet
   facet normal -3.149380e-018 1.000000e+000 -2.114702e-017
      outer loop
         vertex 9.287922e+002 1.395417e+003 1.918122e+003
         vertex 9.307922e+002 1.395417e+003 1.921586e+003
         vertex 9.290778e+002 1.395417e+003 1.917922e+003
      endloop
   endfacet
   facet normal -3.149380e-018 1.000000e+000 -2.114702e-017
      outer loop
         vertex 9.290778e+002 1.395417e+003 1.917922e+003
         vertex 9.307922e+002 1.395417e+003 1.921586e+003
         vertex 9.316489e+002 1.395417e+003 1.920986e+003
      endloop
   endfacet
   facet normal -3.149380e-018 1.000000e+000 -2.114702e-017
      outer loop
         vertex 9.290778e+002 1.395417e+003 1.917922e+003
         vertex 9.316489e+002 1.395417e+003 1.920986e+003
         vertex 9.293243e+002 1.395417e+003 1.917676e+003
      endloop
   endfacet
   facet normal -3.149380e-018 1.000000e+000 -2.114702e-017
      outer loop
         vertex 9.293243e+002 1.395417e+003 1.917676e+003
         vertex 9.316489e+002 1.395417e+003 1.920986e+003
         vertex 9.323885e+002 1.395417e+003 1.920247e+003
      endloop
   endfacet
   facet normal -3.149380e-018 1.000000e+000 -2.114702e-017
      outer loop
         vertex 9.293243e+002 1.395417e+003 1.917676e+003
         vertex 9.323885e+002 1.395417e+003 1.920247e+003
         vertex 9.295242e+002 1.395417e+003 1.917390e+003
      endloop
   endfacet
   facet normal -3.149380e-018 1.000000e+000 -2.114702e-017
      outer loop
         vertex 9.295242e+002 1.395417e+003 1.917390e+003
         vertex 9.323885e+002 1.395417e+003 1.920247e+003
         vertex 9.329883e+002 1.395417e+003 1.919390e+003
      endloop
   endfacet
   facet normal -3.149380e-018 1.000000e+000 -2.114702e-017
      outer loop
         vertex 9.295242e+002 1.395417e+003 1.917390e+003
         vertex 9.329883e+002 1.395417e+003 1.919390e+003
         vertex 9.296716e+002 1.395417e+003 1.917074e+003
      endloop
   endfacet
   facet normal -3.149380e-018 1.000000e+000 -2.114702e-017
      outer loop
         vertex 9.296716e+002 1.395417e+003 1.917074e+003
         vertex 9.329883e+002 1.395417e+003 1.919390e+003
         vertex 9.334304e+002 1.395417e+003 1.918442e+003
      endloop
   endfacet
   facet normal -3.149380e-018 1.000000e+000 -2.114702e-017
      outer loop
         vertex 9.296716e+002 1.395417e+003 1.917074e+003
         vertex 9.334304e+002 1.395417e+003 1.918442e+003
         vertex 9.297618e+002 1.395417e+003 1.916737e+003
      endloop
   endfacet
   facet normal -3.149380e-018 1.000000e+000 -2.114702e-017
      outer loop
         vertex 9.297618e+002 1.395417e+003 1.916737e+003
         vertex 9.334304e+002 1.395417e+003 1.918442e+003
         vertex 9.337010e+002 1.395417e+003 1.917432e+003
      endloop
   endfacet
   facet normal -3.149380e-018 1.000000e+000 -2.114702e-017
      outer loop
         vertex 9.297618e+002 1.395417e+003 1.916737e+003
         vertex 9.337010e+002 1.395417e+003 1.917432e+003
         vertex 9.297922e+002 1.395417e+003 1.916390e+003
      endloop
   endfacet
   facet normal -3.149380e-018 1.000000e+000 -2.114702e-017
      outer loop
         vertex 9.297922e+002 1.395417e+003 1.916390e+003
         vertex 9.337010e+002 1.395417e+003 1.917432e+003
         vertex 9.337922e+002 1.395417e+003 1.916390e+003
      endloop
   endfacet
   facet normal -3.149380e-018 1.000000e+000 -2.114702e-017
      outer loop
         vertex 9.297922e+002 1.395417e+003 1.916390e+003
         vertex 9.337922e+002 1.395417e+003 1.916390e+003
         vertex 9.297922e+002 1.395417e+003 1.868390e+003
      endloop
   endfacet
   facet normal -3.149380e-018 1.000000e+000 -2.114702e-017
      outer loop
         vertex 9.297922e+002 1.395417e+003 1.868390e+003
         vertex 9.337922e+002 1.395417e+003 1.916390e+003
         vertex 9.337922e+002 1.395417e+003 1.868390e+003
      endloop
   endfacet
   facet normal -3.149380e-018 1.000000e+000 -2.114702e-017
      outer loop
         vertex 9.297922e+002 1.395417e+003 1.868390e+003
         vertex 9.337922e+002 1.395417e+003 1.868390e+003
         vertex 9.297618e+002 1.395417e+003 1.868043e+003
      endloop
   endfacet
   facet normal -3.149380e-018 1.000000e+000 -2.114702e-017
      outer loop
         vertex 9.297618e+002 1.395417e+003 1.868043e+003
         vertex 9.337922e+002 1.395417e+003 1.868390e+003
         vertex 9.337010e+002 1.395417e+003 1.867348e+003
      endloop
   endfacet
   facet normal -3.149380e-018 1.000000e+000 -2.114702e-017
      outer loop
         vertex 9.297618e+002 1.395417e+003 1.868043e+003
         vertex 9.337010e+002 1.395417e+003 1.867348e+003
         vertex 9.296716e+002 1.395417e+003 1.867706e+003
      endloop
   endfacet
   facet normal -3.149380e-018 1.000000e+000 -2.114702e-017
      outer loop
         vertex 9.296716e+002 1.395417e+003 1.867706e+003
         vertex 9.337010e+002 1.395417e+003 1.867348e+003
         vertex 9.334304e+002 1.395417e+003 1.866338e+003
      endloop
   endfacet
   facet normal -3.149380e-018 1.000000e+000 -2.114702e-017
      outer loop
         vertex 9.296716e+002 1.395417e+003 1.867706e+003
         vertex 9.334304e+002 1.395417e+003 1.866338e+003
         vertex 9.295242e+002 1.395417e+003 1.867390e+003
      endloop
   endfacet
   facet normal -3.149380e-018 1.000000e+000 -2.114702e-017
      outer loop
         vertex 9.295242e+002 1.395417e+003 1.867390e+003
         vertex 9.334304e+002 1.395417e+003 1.866338e+003
         vertex 9.329883e+002 1.395417e+003 1.865390e+003
      endloop
   endfacet
   facet normal -3.149380e-018 1.000000e+000 -2.114702e-017
      outer loop
         vertex 9.295242e+002 1.395417e+003 1.867390e+003
         vertex 9.329883e+002 1.395417e+003 1.865390e+003
         vertex 9.293243e+002 1.395417e+003 1.867104e+003
      endloop
   endfacet
   facet normal -3.149380e-018 1.000000e+000 -2.114702e-017
      outer loop
         vertex 9.293243e+002 1.395417e+003 1.867104e+003
         vertex 9.329883e+002 1.395417e+003 1.865390e+003
         vertex 9.323885e+002 1.395417e+003 1.864533e+003
      endloop
   endfacet
   facet normal -3.149380e-018 1.000000e+000 -2.114702e-017
      outer loop
         vertex 9.293243e+002 1.395417e+003 1.867104e+003
         vertex 9.323885e+002 1.395417e+003 1.864533e+003
         vertex 9.290778e+002 1.395417e+003 1.866858e+003
      endloop
   endfacet
   facet normal -3.149380e-018 1.000000e+000 -2.114702e-017
      outer loop
         vertex 9.290778e+002 1.395417e+003 1.866858e+003
         vertex 9.323885e+002 1.395417e+003 1.864533e+003
         vertex 9.316489e+002 1.395417e+003 1.863794e+003
      endloop
   endfacet
   facet normal -3.149380e-018 1.000000e+000 -2.114702e-017
      outer loop
         vertex 9.290778e+002 1.395417e+003 1.866858e+003
         vertex 9.316489e+002 1.395417e+003 1.863794e+003
         vertex 9.287922e+002 1.395417e+003 1.866658e+003
      endloop
   endfacet
   facet normal -3.149380e-018 1.000000e+000 -2.114702e-017
      outer loop
         vertex 9.287922e+002 1.395417e+003 1.866658e+003
         vertex 9.316489e+002 1.395417e+003 1.863794e+003
         vertex 9.307922e+002 1.395417e+003 1.863194e+003
      endloop
   endfacet
   facet normal -3.149380e-018 1.000000e+000 -2.114702e-017
      outer loop
         vertex 9.287922e+002 1.395417e+003 1.866658e+003
         vertex 9.307922e+002 1.395417e+003 1.863194e+003
         vertex 9.284763e+002 1.395417e+003 1.866510e+003
      endloop
   endfacet
   facet normal -3.149380e-018 1.000000e+000 -2.114702e-017
      outer loop
         vertex 9.284763e+002 1.395417e+003 1.866510e+003
         vertex 9.307922e+002 1.395417e+003 1.863194e+003
         vertex 9.298443e+002 1.395417e+003 1.862752e+003
      endloop
   endfacet
   facet normal -3.149380e-018 1.000000e+000 -2.114702e-017
      outer loop
         vertex 9.284763e+002 1.395417e+003 1.866510e+003
         vertex 9.298443e+002 1.395417e+003 1.862752e+003
         vertex 9.281395e+002 1.395417e+003 1.866420e+003
      endloop
   endfacet
   facet normal -3.149380e-018 1.000000e+000 -2.114702e-017
      outer loop
         vertex 9.281395e+002 1.395417e+003 1.866420e+003
         vertex 9.298443e+002 1.395417e+003 1.862752e+003
         vertex 9.288341e+002 1.395417e+003 1.862481e+003
      endloop
   endfacet
   facet normal -3.149380e-018 1.000000e+000 -2.114702e-017
      outer loop
         vertex 9.281395e+002 1.395417e+003 1.866420e+003
         vertex 9.288341e+002 1.395417e+003 1.862481e+003
         vertex 9.277922e+002 1.395417e+003 1.866390e+003
      endloop
   endfacet
   facet normal -3.149380e-018 1.000000e+000 -2.114702e-017
      outer loop
         vertex 9.277922e+002 1.395417e+003 1.866390e+003
         vertex 9.288341e+002 1.395417e+003 1.862481e+003
         vertex 9.277922e+002 1.395417e+003 1.862390e+003
      endloop
   endfacet
   facet normal -3.149380e-018 1.000000e+000 -2.114702e-017
      outer loop
         vertex 9.277922e+002 1.395417e+003 1.866390e+003
         vertex 9.277922e+002 1.395417e+003 1.862390e+003
         vertex 8.997922e+002 1.395417e+003 1.866390e+003
      endloop
   endfacet
   facet normal -3.149380e-018 1.000000e+000 -2.114702e-017
      outer loop
         vertex 8.997922e+002 1.395417e+003 1.866390e+003
         vertex 9.277922e+002 1.395417e+003 1.862390e+003
         vertex 8.997922e+002 1.395417e+003 1.862390e+003
      endloop
   endfacet
   facet normal -3.149380e-018 1.000000e+000 -2.114702e-017
      outer loop
         vertex 8.997922e+002 1.395417e+003 1.866390e+003
         vertex 8.997922e+002 1.395417e+003 1.862390e+003
         vertex 8.994449e+002 1.395417e+003 1.866420e+003
      endloop
   endfacet
   facet normal -3.149380e-018 1.000000e+000 -2.114702e-017
      outer loop
         vertex 8.994449e+002 1.395417e+003 1.866420e+003
         vertex 8.997922e+002 1.395417e+003 1.862390e+003
         vertex 8.987503e+002 1.395417e+003 1.862481e+003
      endloop
   endfacet
   facet normal -3.149380e-018 1.000000e+000 -2.114702e-017
      outer loop
         vertex 8.994449e+002 1.395417e+003 1.866420e+003
         vertex 8.987503e+002 1.395417e+003 1.862481e+003
         vertex 8.991082e+002 1.395417e+003 1.866510e+003
      endloop
   endfacet
   facet normal -3.149380e-018 1.000000e+000 -2.114702e-017
      outer loop
         vertex 8.991082e+002 1.395417e+003 1.866510e+003
         vertex 8.987503e+002 1.395417e+003 1.862481e+003
         vertex 8.977401e+002 1.395417e+003 1.862752e+003
      endloop
   endfacet
   facet normal -3.149380e-018 1.000000e+000 -2.114702e-017
      outer loop
         vertex 8.991082e+002 1.395417e+003 1.866510e+003
         vertex 8.977401e+002 1.395417e+003 1.862752e+003
         vertex 8.987922e+002 1.395417e+003 1.866658e+003
      endloop
   endfacet
   facet normal -3.149380e-018 1.000000e+000 -2.114702e-017
      outer loop
         vertex 8.987922e+002 1.395417e+003 1.866658e+003
         vertex 8.977401e+002 1.395417e+003 1.862752e+003
         vertex 8.967922e+002 1.395417e+003 1.863194e+003
      endloop
   endfacet
   facet normal -3.149380e-018 1.000000e+000 -2.114702e-017
      outer loop
         vertex 8.987922e+002 1.395417e+003 1.866658e+003
         vertex 8.967922e+002 1.395417e+003 1.863194e+003
         vertex 8.985067e+002 1.395417e+003 1.866858e+003
      endloop
   endfacet
   facet normal -3.149380e-018 1.000000e+000 -2.114702e-017
      outer loop
         vertex 8.985067e+002 1.395417e+003 1.866858e+003
         vertex 8.967922e+002 1.395417e+003 1.863194e+003
         vertex 8.959355e+002 1.395417e+003 1.863794e+003
      endloop
   endfacet
   facet normal -3.149380e-018 1.000000e+000 -2.114702e-017
      outer loop
         vertex 8.985067e+002 1.395417e+003 1.866858e+003
         vertex 8.959355e+002 1.395417e+003 1.863794e+003
         vertex 8.982601e+002 1.395417e+003 1.867104e+003
      endloop
   endfacet
   facet normal -3.149380e-018 1.000000e+000 -2.114702e-017
      outer loop
         vertex 8.982601e+002 1.395417e+003 1.867104e+003
         vertex 8.959355e+002 1.395417e+003 1.863794e+003
         vertex 8.951960e+002 1.395417e+003 1.864533e+003
      endloop
   endfacet
   facet normal -3.149380e-018 1.000000e+000 -2.114702e-017
      outer loop
         vertex 8.982601e+002 1.395417e+003 1.867104e+003
         vertex 8.951960e+002 1.395417e+003 1.864533e+003
         vertex 8.980601e+002 1.395417e+003 1.867390e+003
      endloop
   endfacet
   facet normal -3.149380e-018 1.000000e+000 -2.114702e-017
      outer loop
         vertex 8.980601e+002 1.395417e+003 1.867390e+003
         vertex 8.951960e+002 1.395417e+003 1.864533e+003
         vertex 8.945961e+002 1.395417e+003 1.865390e+003
      endloop
   endfacet
   facet normal -3.149380e-018 1.000000e+000 -2.114702e-017
      outer loop
         vertex 8.980601e+002 1.395417e+003 1.867390e+003
         vertex 8.945961e+002 1.395417e+003 1.865390e+003
         vertex 8.979128e+002 1.395417e+003 1.867706e+003
      endloop
   endfacet
   facet normal -3.149380e-018 1.000000e+000 -2.114702e-017
      outer loop
         vertex 8.979128e+002 1.395417e+003 1.867706e+003
         vertex 8.945961e+002 1.395417e+003 1.865390e+003
         vertex 8.941541e+002 1.395417e+003 1.866338e+003
      endloop
   endfacet
   facet normal -3.149380e-018 1.000000e+000 -2.114702e-017
      outer loop
         vertex 8.979128e+002 1.395417e+003 1.867706e+003
         vertex 8.941541e+002 1.395417e+003 1.866338e+003
         vertex 8.978226e+002 1.395417e+003 1.868043e+003
      endloop
   endfacet
   facet normal -3.149380e-018 1.000000e+000 -2.114702e-017
      outer loop
         vertex 8.978226e+002 1.395417e+003 1.868043e+003
         vertex 8.941541e+002 1.395417e+003 1.866338e+003
         vertex 8.938834e+002 1.395417e+003 1.867348e+003
      endloop
   endfacet
   facet normal -3.149380e-018 1.000000e+000 -2.114702e-017
      outer loop
         vertex 8.978226e+002 1.395417e+003 1.868043e+003
         vertex 8.938834e+002 1.395417e+003 1.867348e+003
         vertex 8.977922e+002 1.395417e+003 1.868390e+003
      endloop
   endfacet
   facet normal -3.149380e-018 1.000000e+000 -2.114702e-017
      outer loop
         vertex 8.977922e+002 1.395417e+003 1.868390e+003
         vertex 8.938834e+002 1.395417e+003 1.867348e+003
         vertex 8.937922e+002 1.395417e+003 1.868390e+003
      endloop
   endfacet
   facet normal 3.149380e-018 -1.000000e+000 2.114702e-017
      outer loop
         vertex 8.979128e+002 4.914173e+002 1.867706e+003
         vertex 8.941541e+002 4.914173e+002 1.866338e+003
         vertex 8.980601e+002 4.914173e+002 1.867390e+003
      endloop
   endfacet
   facet normal 3.149380e-018 -1.000000e+000 2.114702e-017
      outer loop
         vertex 8.980601e+002 4.914173e+002 1.867390e+003
         vertex 8.941541e+002 4.914173e+002 1.866338e+003
         vertex 8.945961e+002 4.914173e+002 1.865390e+003
      endloop
   endfacet
   facet normal 3.149380e-018 -1.000000e+000 2.114702e-017
      outer loop
         vertex 8.980601e+002 4.914173e+002 1.867390e+003
         vertex 8.945961e+002 4.914173e+002 1.865390e+003
         vertex 8.982601e+002 4.914173e+002 1.867104e+003
      endloop
   endfacet
   facet normal 3.149380e-018 -1.000000e+000 2.114702e-017
      outer loop
         vertex 8.982601e+002 4.914173e+002 1.867104e+003
         vertex 8.945961e+002 4.914173e+002 1.865390e+003
         vertex 8.951960e+002 4.914173e+002 1.864533e+003
      endloop
   endfacet
   facet normal 3.149380e-018 -1.000000e+000 2.114702e-017
      outer loop
         vertex 8.982601e+002 4.914173e+002 1.867104e+003
         vertex 8.951960e+002 4.914173e+002 1.864533e+003
         vertex 8.985067e+002 4.914173e+002 1.866858e+003
      endloop
   endfacet
   facet normal 3.149380e-018 -1.000000e+000 2.114702e-017
      outer loop
         vertex 8.985067e+002 4.914173e+002 1.866858e+003
         vertex 8.951960e+002 4.914173e+002 1.864533e+003
         vertex 8.959355e+002 4.914173e+002 1.863794e+003
      endloop
   endfacet
   facet normal 3.149380e-018 -1.000000e+000 2.114702e-017
      outer loop
         vertex 8.985067e+002 4.914173e+002 1.866858e+003
         vertex 8.959355e+002 4.914173e+002 1.863794e+003
         vertex 8.987922e+002 4.914173e+002 1.866658e+003
      endloop
   endfacet
   facet normal 3.149380e-018 -1.000000e+000 2.114702e-017
      outer loop
         vertex 8.987922e+002 4.914173e+002 1.866658e+003
         vertex 8.959355e+002 4.914173e+002 1.863794e+003
         vertex 8.967922e+002 4.914173e+002 1.863194e+003
      endloop
   endfacet
   facet normal 3.149380e-018 -1.000000e+000 2.114702e-017
      outer loop
         vertex 8.987922e+002 4.914173e+002 1.866658e+003
         vertex 8.967922e+002 4.914173e+002 1.863194e+003
         vertex 8.991082e+002 4.914173e+002 1.866510e+003
      endloop
   endfacet
   facet normal 3.149380e-018 -1.000000e+000 2.114702e-017
      outer loop
         vertex 8.991082e+002 4.914173e+002 1.866510e+003
         vertex 8.967922e+002 4.914173e+002 1.863194e+003
         vertex 8.977401e+002 4.914173e+002 1.862752e+003
      endloop
   endfacet
   facet normal 3.149380e-018 -1.000000e+000 2.114702e-017
      outer loop
         vertex 8.991082e+002 4.914173e+002 1.866510e+003
         vertex 8.977401e+002 4.914173e+002 1.862752e+003
         vertex 8.994449e+002 4.914173e+002 1.866420e+003
      endloop
   endfacet
   facet normal 3.149380e-018 -1.000000e+000 2.114702e-017
      outer loop
         vertex 8.994449e+002 4.914173e+002 1.866420e+003
         vertex 8.977401e+002 4.914173e+002 1.862752e+003
         vertex 8.987503e+002 4.914173e+002 1.862481e+003
      endloop
   endfacet
   facet normal 3.149380e-018 -1.000000e+000 2.114702e-017
      outer loop
         vertex 8.994449e+002 4.914173e+002 1.866420e+003
         vertex 8.987503e+002 4.914173e+002 1.862481e+003
         vertex 8.997922e+002 4.914173e+002 1.866390e+003
      endloop
   endfacet
   facet normal 3.149380e-018 -1.000000e+000 2.114702e-017
      outer loop
         vertex 8.997922e+002 4.914173e+002 1.866390e+003
         vertex 8.987503e+002 4.914173e+002 1.862481e+003
         vertex 8.997922e+002 4.914173e+002 1.862390e+003
      endloop
   endfacet
   facet normal 3.149380e-018 -1.000000e+000 2.114702e-017
      outer loop
         vertex 8.997922e+002 4.914173e+002 1.866390e+003
         vertex 8.997922e+002 4.914173e+002 1.862390e+003
         vertex 9.277922e+002 4.914173e+002 1.866390e+003
      endloop
   endfacet
   facet normal 3.149380e-018 -1.000000e+000 2.114702e-017
      outer loop
         vertex 9.277922e+002 4.914173e+002 1.866390e+003
         vertex 8.997922e+002 4.914173e+002 1.862390e+003
         vertex 9.277922e+002 4.914173e+002 1.862390e+003
      endloop
   endfacet
   facet normal 3.149380e-018 -1.000000e+000 2.114702e-017
      outer loop
         vertex 9.277922e+002 4.914173e+002 1.866390e+003
         vertex 9.277922e+002 4.914173e+002 1.862390e+003
         vertex 9.281395e+002 4.914173e+002 1.866420e+003
      endloop
   endfacet
   facet normal 3.149380e-018 -1.000000e+000 2.114702e-017
      outer loop
         vertex 9.281395e+002 4.914173e+002 1.866420e+003
         vertex 9.277922e+002 4.914173e+002 1.862390e+003
         vertex 9.288341e+002 4.914173e+002 1.862481e+003
      endloop
   endfacet
   facet normal 3.149380e-018 -1.000000e+000 2.114702e-017
      outer loop
         vertex 9.281395e+002 4.914173e+002 1.866420e+003
         vertex 9.288341e+002 4.914173e+002 1.862481e+003
         vertex 9.284763e+002 4.914173e+002 1.866510e+003
      endloop
   endfacet
   facet normal 3.149380e-018 -1.000000e+000 2.114702e-017
      outer loop
         vertex 9.284763e+002 4.914173e+002 1.866510e+003
         vertex 9.288341e+002 4.914173e+002 1.862481e+003
         vertex 9.298443e+002 4.914173e+002 1.862752e+003
      endloop
   endfacet
   facet normal 3.149380e-018 -1.000000e+000 2.114702e-017
      outer loop
         vertex 9.284763e+002 4.914173e+002 1.866510e+003
         vertex 9.298443e+002 4.914173e+002 1.862752e+003
         vertex 9.287922e+002 4.914173e+002 1.866658e+003
      endloop
   endfacet
   facet normal 3.149380e-018 -1.000000e+000 2.114702e-017
      outer loop
         vertex 9.287922e+002 4.914173e+002 1.866658e+003
         vertex 9.298443e+002 4.914173e+002 1.862752e+003
         vertex 9.307922e+002 4.914173e+002 1.863194e+003
      endloop
   endfacet
   facet normal 3.149380e-018 -1.000000e+000 2.114702e-017
      outer loop
         vertex 9.287922e+002 4.914173e+002 1.866658e+003
         vertex 9.307922e+002 4.914173e+002 1.863194e+003
         vertex 9.290778e+002 4.914173e+002 1.866858e+003
      endloop
   endfacet
   facet normal 3.149380e-018 -1.000000e+000 2.114702e-017
      outer loop
         vertex 9.290778e+002 4.914173e+002 1.866858e+003
         vertex 9.307922e+002 4.914173e+002 1.863194e+003
         vertex 9.316489e+002 4.914173e+002 1.863794e+003
      endloop
   endfacet
   facet normal 3.149380e-018 -1.000000e+000 2.114702e-017
      outer loop
         vertex 9.290778e+002 4.914173e+002 1.866858e+003
         vertex 9.316489e+002 4.914173e+002 1.863794e+003
         vertex 9.293243e+002 4.914173e+002 1.867104e+003
      endloop
   endfacet
   facet normal 3.149380e-018 -1.000000e+000 2.114702e-017
      outer loop
         vertex 9.293243e+002 4.914173e+002 1.867104e+003
         vertex 9.316489e+002 4.914173e+002 1.863794e+003
         vertex 9.323885e+002 4.914173e+002 1.864533e+003
      endloop
   endfacet
   facet normal 3.149380e-018 -1.000000e+000 2.114702e-017
      outer loop
         vertex 9.293243e+002 4.914173e+002 1.867104e+003
         vertex 9.323885e+002 4.914173e+002 1.864533e+003
         vertex 9.295242e+002 4.914173e+002 1.867390e+003
      endloop
   endfacet
   facet normal 3.149380e-018 -1.000000e+000 2.114702e-017
      outer loop
         vertex 9.295242e+002 4.914173e+002 1.867390e+003
         vertex 9.323885e+002 4.914173e+002 1.864533e+003
         vertex 9.329883e+002 4.914173e+002 1.865390e+003
      endloop
   endfacet
   facet normal 3.149380e-018 -1.000000e+000 2.114702e-017
      outer loop
         vertex 9.295242e+002 4.914173e+002 1.867390e+003
         vertex 9.329883e+002 4.914173e+002 1.865390e+003
         vertex 9.296716e+002 4.914173e+002 1.867706e+003
      endloop
   endfacet
   facet normal 3.149380e-018 -1.000000e+000 2.114702e-017
      outer loop
         vertex 9.296716e+002 4.914173e+002 1.867706e+003
         vertex 9.329883e+002 4.914173e+002 1.865390e+003
         vertex 9.334304e+002 4.914173e+002 1.866338e+003
      endloop
   endfacet
   facet normal 3.149380e-018 -1.000000e+000 2.114702e-017
      outer loop
         vertex 9.296716e+002 4.914173e+002 1.867706e+003
         vertex 9.334304e+002 4.914173e+002 1.866338e+003
         vertex 9.297618e+002 4.914173e+002 1.868043e+003
      endloop
   endfacet
   facet normal 3.149380e-018 -1.000000e+000 2.114702e-017
      outer loop
         vertex 9.297618e+002 4.914173e+002 1.868043e+003
         vertex 9.334304e+002 4.914173e+002 1.866338e+003
         vertex 9.337010e+002 4.914173e+002 1.867348e+003
      endloop
   endfacet
   facet normal 3.149380e-018 -1.000000e+000 2.114702e-017
      outer loop
         vertex 9.297618e+002 4.914173e+002 1.868043e+003
         vertex 9.337010e+002 4.914173e+002 1.867348e+003
         vertex 9.297922e+002 4.914173e+002 1.868390e+003
      endloop
   endfacet
   facet normal 3.149380e-018 -1.000000e+000 2.114702e-017
      outer loop
         vertex 9.297922e+002 4.914173e+002 1.868390e+003
         vertex 9.337010e+002 4.914173e+002 1.867348e+003
         vertex 9.337922e+002 4.914173e+002 1.868390e+003
      endloop
   endfacet
   facet normal 3.149380e-018 -1.000000e+000 2.114702e-017
      outer loop
         vertex 9.297922e+002 4.914173e+002 1.868390e+003
         vertex 9.337922e+002 4.914173e+002 1.868390e+003
         vertex 9.297922e+002 4.914173e+002 1.916390e+003
      endloop
   endfacet
   facet normal 3.149380e-018 -1.000000e+000 2.114702e-017
      outer loop
         vertex 9.297922e+002 4.914173e+002 1.916390e+003
         vertex 9.337922e+002 4.914173e+002 1.868390e+003
         vertex 9.337922e+002 4.914173e+002 1.916390e+003
      endloop
   endfacet
   facet normal 3.149380e-018 -1.000000e+000 2.114702e-017
      outer loop
         vertex 9.297922e+002 4.914173e+002 1.916390e+003
         vertex 9.337922e+002 4.914173e+002 1.916390e+003
         vertex 9.297618e+002 4.914173e+002 1.916737e+003
      endloop
   endfacet
   facet normal 3.149380e-018 -1.000000e+000 2.114702e-017
      outer loop
         vertex 9.297618e+002 4.914173e+002 1.916737e+003
         vertex 9.337922e+002 4.914173e+002 1.916390e+003
         vertex 9.337010e+002 4.914173e+002 1.917432e+003
      endloop
   endfacet
   facet normal 3.149380e-018 -1.000000e+000 2.114702e-017
      outer loop
         vertex 9.297618e+002 4.914173e+002 1.916737e+003
         vertex 9.337010e+002 4.914173e+002 1.917432e+003
         vertex 9.296716e+002 4.914173e+002 1.917074e+003
      endloop
   endfacet
   facet normal 3.149380e-018 -1.000000e+000 2.114702e-017
      outer loop
         vertex 9.296716e+002 4.914173e+002 1.917074e+003
         vertex 9.337010e+002 4.914173e+002 1.917432e+003
         vertex 9.334304e+002 4.914173e+002 1.918442e+003
      endloop
   endfacet
   facet normal 3.149380e-018 -1.000000e+000 2.114702e-017
      outer loop
         vertex 9.296716e+002 4.914173e+002 1.917074e+003
         vertex 9.334304e+002 4.914173e+002 1.918442e+003
         vertex 9.295242e+002 4.914173e+002 1.917390e+003
      endloop
   endfacet
   facet normal 3.149380e-018 -1.000000e+000 2.114702e-017
      outer loop
         vertex 9.295242e+002 4.914173e+002 1.917390e+003
         vertex 9.334304e+002 4.914173e+002 1.918442e+003
         vertex 9.329883e+002 4.914173e+002 1.919390e+003
      endloop
   endfacet
   facet normal 3.149380e-018 -1.000000e+000 2.114702e-017
      outer loop
         vertex 9.295242e+002 4.914173e+002 1.917390e+003
         vertex 9.329883e+002 4.914173e+002 1.919390e+003
         vertex 9.293243e+002 4.914173e+002 1.917676e+003
      endloop
   endfacet
   facet normal 3.149380e-018 -1.000000e+000 2.114702e-017
      outer loop
         vertex 9.293243e+002 4.914173e+002 1.917676e+003
         vertex 9.329883e+002 4.914173e+002 1.919390e+003
         vertex 9.323885e+002 4.914173e+002 1.920247e+003
      endloop
   endfacet
   facet normal 3.149380e-018 -1.000000e+000 2.114702e-017
      outer loop
         vertex 9.293243e+002 4.914173e+002 1.917676e+003
         vertex 9.323885e+002 4.914173e+002 1.920247e+003
         vertex 9.290778e+002 4.914173e+002 1.917922e+003
      endloop
   endfacet
   facet normal 3.149380e-018 -1.000000e+000 2.114702e-017
      outer loop
         vertex 9.290778e+002 4.914173e+002 1.917922e+003
         vertex 9.323885e+002 4.914173e+002 1.920247e+003
         vertex 9.316489e+002 4.914173e+002 1.920986e+003
      endloop
   endfacet
   facet normal 3.149380e-018 -1.000000e+000 2.114702e-017
      outer loop
         vertex 9.290778e+002 4.914173e+002 1.917922e+003
         vertex 9.316489e+002 4.914173e+002 1.920986e+003
         vertex 9.287922e+002 4.914173e+002 1.918122e+003
      endloop
   endfacet
   facet normal 3.149380e-018 -1.000000e+000 2.114702e-017
      outer loop
         vertex 9.287922e+002 4.914173e+002 1.918122e+003
         vertex 9.316489e+002 4.914173e+002 1.920986e+003
         vertex 9.307922e+002 4.914173e+002 1.921586e+003
      endloop
   endfacet
   facet normal 3.149380e-018 -1.000000e+000 2.114702e-017
      outer loop
         vertex 9.287922e+002 4.914173e+002 1.918122e+003
         vertex 9.307922e+002 4.914173e+002 1.921586e+003
         vertex 9.284763e+002 4.914173e+002 1.918269e+003
      endloop
   endfacet
   facet normal 3.149380e-018 -1.000000e+000 2.114702e-017
      outer loop
         vertex 9.284763e+002 4.914173e+002 1.918269e+003
         vertex 9.307922e+002 4.914173e+002 1.921586e+003
         vertex 9.298443e+002 4.914173e+002 1.922028e+003
      endloop
   endfacet
   facet normal 3.149380e-018 -1.000000e+000 2.114702e-017
      outer loop
         vertex 9.284763e+002 4.914173e+002 1.918269e+003
         vertex 9.298443e+002 4.914173e+002 1.922028e+003
         vertex 9.281395e+002 4.914173e+002 1.918359e+003
      endloop
   endfacet
   facet normal 3.149380e-018 -1.000000e+000 2.114702e-017
      outer loop
         vertex 9.281395e+002 4.914173e+002 1.918359e+003
         vertex 9.298443e+002 4.914173e+002 1.922028e+003
         vertex 9.288341e+002 4.914173e+002 1.922299e+003
      endloop
   endfacet
   facet normal 3.149380e-018 -1.000000e+000 2.114702e-017
      outer loop
         vertex 9.281395e+002 4.914173e+002 1.918359e+003
         vertex 9.288341e+002 4.914173e+002 1.922299e+003
         vertex 9.277922e+002 4.914173e+002 1.918390e+003
      endloop
   endfacet
   facet normal 3.149380e-018 -1.000000e+000 2.114702e-017
      outer loop
         vertex 9.277922e+002 4.914173e+002 1.918390e+003
         vertex 9.288341e+002 4.914173e+002 1.922299e+003
         vertex 9.277922e+002 4.914173e+002 1.922390e+003
      endloop
   endfacet
   facet normal 3.149380e-018 -1.000000e+000 2.114702e-017
      outer loop
         vertex 9.277922e+002 4.914173e+002 1.918390e+003
         vertex 9.277922e+002 4.914173e+002 1.922390e+003
         vertex 8.997922e+002 4.914173e+002 1.918390e+003
      endloop
   endfacet
   facet normal 3.149380e-018 -1.000000e+000 2.114702e-017
      outer loop
         vertex 8.997922e+002 4.914173e+002 1.918390e+003
         vertex 9.277922e+002 4.914173e+002 1.922390e+003
         vertex 8.997922e+002 4.914173e+002 1.922390e+003
      endloop
   endfacet
   facet normal 3.149380e-018 -1.000000e+000 2.114702e-017
      outer loop
         vertex 8.997922e+002 4.914173e+002 1.918390e+003
         vertex 8.997922e+002 4.914173e+002 1.922390e+003
         vertex 8.994449e+002 4.914173e+002 1.918359e+003
      endloop
   endfacet
   facet normal 3.149380e-018 -1.000000e+000 2.114702e-017
      outer loop
         vertex 8.994449e+002 4.914173e+002 1.918359e+003
         vertex 8.997922e+002 4.914173e+002 1.922390e+003
         vertex 8.987503e+002 4.914173e+002 1.922299e+003
      endloop
   endfacet
   facet normal 3.149380e-018 -1.000000e+000 2.114702e-017
      outer loop
         vertex 8.994449e+002 4.914173e+002 1.918359e+003
         vertex 8.987503e+002 4.914173e+002 1.922299e+003
         vertex 8.991082e+002 4.914173e+002 1.918269e+003
      endloop
   endfacet
   facet normal 3.149380e-018 -1.000000e+000 2.114702e-017
      outer loop
         vertex 8.991082e+002 4.914173e+002 1.918269e+003
         vertex 8.987503e+002 4.914173e+002 1.922299e+003
         vertex 8.977401e+002 4.914173e+002 1.922028e+003
      endloop
   endfacet
   facet normal 3.149380e-018 -1.000000e+000 2.114702e-017
      outer loop
         vertex 8.991082e+002 4.914173e+002 1.918269e+003
         vertex 8.977401e+002 4.914173e+002 1.922028e+003
         vertex 8.987922e+002 4.914173e+002 1.918122e+003
      endloop
   endfacet
   facet normal 3.149380e-018 -1.000000e+000 2.114702e-017
      outer loop
         vertex 8.987922e+002 4.914173e+002 1.918122e+003
         vertex 8.977401e+002 4.914173e+002 1.922028e+003
         vertex 8.967922e+002 4.914173e+002 1.921586e+003
      endloop
   endfacet
   facet normal 3.149380e-018 -1.000000e+000 2.114702e-017
      outer loop
         vertex 8.987922e+002 4.914173e+002 1.918122e+003
         vertex 8.967922e+002 4.914173e+002 1.921586e+003
         vertex 8.985067e+002 4.914173e+002 1.917922e+003
      endloop
   endfacet
   facet normal 3.149380e-018 -1.000000e+000 2.114702e-017
      outer loop
         vertex 8.985067e+002 4.914173e+002 1.917922e+003
         vertex 8.967922e+002 4.914173e+002 1.921586e+003
         vertex 8.959355e+002 4.914173e+002 1.920986e+003
      endloop
   endfacet
   facet normal 3.149380e-018 -1.000000e+000 2.114702e-017
      outer loop
         vertex 8.985067e+002 4.914173e+002 1.917922e+003
         vertex 8.959355e+002 4.914173e+002 1.920986e+003
         vertex 8.982601e+002 4.914173e+002 1.917676e+003
      endloop
   endfacet
   facet normal 3.149380e-018 -1.000000e+000 2.114702e-017
      outer loop
         vertex 8.982601e+002 4.914173e+002 1.917676e+003
         vertex 8.959355e+002 4.914173e+002 1.920986e+003
         vertex 8.951960e+002 4.914173e+002 1.920247e+003
      endloop
   endfacet
   facet normal 3.149380e-018 -1.000000e+000 2.114702e-017
      outer loop
         vertex 8.982601e+002 4.914173e+002 1.917676e+003
         vertex 8.951960e+002 4.914173e+002 1.920247e+003
         vertex 8.980601e+002 4.914173e+002 1.917390e+003
      endloop
   endfacet
   facet normal 3.149380e-018 -1.000000e+000 2.114702e-017
      outer loop
         vertex 8.980601e+002 4.914173e+002 1.917390e+003
         vertex 8.951960e+002 4.914173e+002 1.920247e+003
         vertex 8.945961e+002 4.914173e+002 1.919390e+003
      endloop
   endfacet
   facet normal 3.149380e-018 -1.000000e+000 2.114702e-017
      outer loop
         vertex 8.980601e+002 4.914173e+002 1.917390e+003
         vertex 8.945961e+002 4.914173e+002 1.919390e+003
         vertex 8.979128e+002 4.914173e+002 1.917074e+003
      endloop
   endfacet
   facet normal 3.149380e-018 -1.000000e+000 2.114702e-017
      outer loop
         vertex 8.979128e+002 4.914173e+002 1.917074e+003
         vertex 8.945961e+002 4.914173e+002 1.919390e+003
         vertex 8.941541e+002 4.914173e+002 1.918442e+003
      endloop
   endfacet
   facet normal 3.149380e-018 -1.000000e+000 2.114702e-017
      outer loop
         vertex 8.979128e+002 4.914173e+002 1.917074e+003
         vertex 8.941541e+002 4.914173e+002 1.918442e+003
         vertex 8.978226e+002 4.914173e+002 1.916737e+003
      endloop
   endfacet
   facet normal 3.149380e-018 -1.000000e+000 2.114702e-017
      outer loop
         vertex 8.978226e+002 4.914173e+002 1.916737e+003
         vertex 8.941541e+002 4.914173e+002 1.918442e+003
         vertex 8.938834e+002 4.914173e+002 1.917432e+003
      endloop
   endfacet
   facet normal 3.149380e-018 -1.000000e+000 2.114702e-017
      outer loop
         vertex 8.978226e+002 4.914173e+002 1.916737e+003
         vertex 8.938834e+002 4.914173e+002 1.917432e+003
         vertex 8.977922e+002 4.914173e+002 1.916390e+003
      endloop
   endfacet
   facet normal 3.149380e-018 -1.000000e+000 2.114702e-017
      outer loop
         vertex 8.977922e+002 4.914173e+002 1.916390e+003
         vertex 8.938834e+002 4.914173e+002 1.917432e+003
         vertex 8.937922e+002 4.914173e+002 1.916390e+003
      endloop
   endfacet
   facet normal 3.149380e-018 -1.000000e+000 2.114702e-017
      outer loop
         vertex 8.977922e+002 4.914173e+002 1.916390e+003
         vertex 8.937922e+002 4.914173e+002 1.916390e+003
         vertex 8.977922e+002 4.914173e+002 1.868390e+003
      endloop
   endfacet
   facet normal 3.149380e-018 -1.000000e+000 2.114702e-017
      outer loop
         vertex 8.977922e+002 4.914173e+002 1.868390e+003
         vertex 8.937922e+002 4.914173e+002 1.916390e+003
         vertex 8.937922e+002 4.914173e+002 1.868390e+003
      endloop
   endfacet
   facet normal 3.149380e-018 -1.000000e+000 2.114702e-017
      outer loop
         vertex 8.977922e+002 4.914173e+002 1.868390e+003
         vertex 8.937922e+002 4.914173e+002 1.868390e+003
         vertex 8.978226e+002 4.914173e+002 1.868043e+003
      endloop
   endfacet
   facet normal 3.149380e-018 -1.000000e+000 2.114702e-017
      outer loop
         vertex 8.978226e+002 4.914173e+002 1.868043e+003
         vertex 8.937922e+002 4.914173e+002 1.868390e+003
         vertex 8.938834e+002 4.914173e+002 1.867348e+003
      endloop
   endfacet
   facet normal 3.149380e-018 -1.000000e+000 2.114702e-017
      outer loop
         vertex 8.978226e+002 4.914173e+002 1.868043e+003
         vertex 8.938834e+002 4.914173e+002 1.867348e+003
         vertex 8.979128e+002 4.914173e+002 1.867706e+003
      endloop
   endfacet
   facet normal 3.149380e-018 -1.000000e+000 2.114702e-017
      outer loop
         vertex 8.979128e+002 4.914173e+002 1.867706e+003
         vertex 8.938834e+002 4.914173e+002 1.867348e+003
         vertex 8.941541e+002 4.914173e+002 1.866338e+003
      endloop
   endfacet
   facet normal -1.000000e+000 0.000000e+000 -2.775558e-017
      outer loop
         vertex 8.937922e+002 1.395417e+003 1.916390e+003
         vertex 8.937922e+002 1.395417e+003 1.868390e+003
         vertex 8.937922e+002 4.914173e+002 1.916390e+003
      endloop
   endfacet
   facet normal -1.000000e+000 0.000000e+000 -2.775558e-017
      outer loop
         vertex 8.937922e+002 4.914173e+002 1.916390e+003
         vertex 8.937922e+002 1.395417e+003 1.868390e+003
         vertex 8.937922e+002 4.914173e+002 1.868390e+003
      endloop
   endfacet
   facet normal -2.775558e-017 2.324116e-017 1.000000e+000
      outer loop
         vertex 8.997922e+002 4.914173e+002 1.922390e+003
         vertex 9.277922e+002 4.914173e+002 1.922390e+003
         vertex 8.997922e+002 1.395417e+003 1.922390e+003
      endloop
   endfacet
   facet normal -2.775558e-017 2.324116e-017 1.000000e+000
      outer loop
         vertex 8.997922e+002 1.395417e+003 1.922390e+003
         vertex 9.277922e+002 4.914173e+002 1.922390e+003
         vertex 9.277922e+002 1.395417e+003 1.922390e+003
      endloop
   endfacet
   facet normal 1.000000e+000 0.000000e+000 2.775558e-017
      outer loop
         vertex 9.337922e+002 4.914173e+002 1.916390e+003
         vertex 9.337922e+002 4.914173e+002 1.868390e+003
         vertex 9.337922e+002 1.395417e+003 1.916390e+003
      endloop
   endfacet
   facet normal 1.000000e+000 0.000000e+000 2.775558e-017
      outer loop
         vertex 9.337922e+002 1.395417e+003 1.916390e+003
         vertex 9.337922e+002 4.914173e+002 1.868390e+003
         vertex 9.337922e+002 1.395417e+003 1.868390e+003
      endloop
   endfacet
   facet normal 2.775558e-017 -2.324116e-017 -1.000000e+000
      outer loop
         vertex 8.997922e+002 1.395417e+003 1.862390e+003
         vertex 9.277922e+002 1.395417e+003 1.862390e+003
         vertex 8.997922e+002 4.914173e+002 1.862390e+003
      endloop
   endfacet
   facet normal 2.775558e-017 -2.324116e-017 -1.000000e+000
      outer loop
         vertex 8.997922e+002 4.914173e+002 1.862390e+003
         vertex 9.277922e+002 1.395417e+003 1.862390e+003
         vertex 9.277922e+002 4.914173e+002 1.862390e+003
      endloop
   endfacet
   facet normal -9.983120e-001 1.349826e-018 5.807914e-002
      outer loop
         vertex 8.937922e+002 1.395417e+003 1.916390e+003
         vertex 8.937922e+002 4.914173e+002 1.916390e+003
         vertex 8.938834e+002 4.914173e+002 1.917432e+003
      endloop
   endfacet
   facet normal -9.932307e-001 2.699653e-018 1.161583e-001
      outer loop
         vertex 8.937922e+002 1.395417e+003 1.916390e+003
         vertex 8.938834e+002 4.914173e+002 1.917432e+003
         vertex 8.938834e+002 1.395417e+003 1.917432e+003
      endloop
   endfacet
   facet normal -9.730601e-001 5.358292e-018 2.305518e-001
      outer loop
         vertex 8.938834e+002 1.395417e+003 1.917432e+003
         vertex 8.938834e+002 4.914173e+002 1.917432e+003
         vertex 8.941541e+002 4.914173e+002 1.918442e+003
      endloop
   endfacet
   facet normal -9.579706e-001 6.667104e-018 2.868663e-001
      outer loop
         vertex 8.938834e+002 1.395417e+003 1.917432e+003
         vertex 8.941541e+002 4.914173e+002 1.918442e+003
         vertex 8.941541e+002 1.395417e+003 1.918442e+003
      endloop
   endfacet
   facet normal -9.182422e-001 9.203949e-018 3.960194e-001
      outer loop
         vertex 8.941541e+002 1.395417e+003 1.918442e+003
         vertex 8.941541e+002 4.914173e+002 1.918442e+003
         vertex 8.945961e+002 4.914173e+002 1.919390e+003
      endloop
   endfacet
   facet normal -8.936031e-001 1.043198e-017 4.488580e-001
      outer loop
         vertex 8.941541e+002 1.395417e+003 1.918442e+003
         vertex 8.945961e+002 4.914173e+002 1.919390e+003
         vertex 8.945961e+002 1.395417e+003 1.919390e+003
      endloop
   endfacet
   facet normal -8.355240e-001 1.276995e-017 5.494540e-001
      outer loop
         vertex 8.945961e+002 1.395417e+003 1.919390e+003
         vertex 8.945961e+002 4.914173e+002 1.919390e+003
         vertex 8.951960e+002 4.914173e+002 1.920247e+003
      endloop
   endfacet
   facet normal -8.020839e-001 1.387988e-017 5.972114e-001
      outer loop
         vertex 8.945961e+002 1.395417e+003 1.919390e+003
         vertex 8.951960e+002 4.914173e+002 1.920247e+003
         vertex 8.951960e+002 1.395417e+003 1.920247e+003
      endloop
   endfacet
   facet normal -7.274188e-001 1.594794e-017 6.861938e-001
      outer loop
         vertex 8.951960e+002 1.395417e+003 1.920247e+003
         vertex 8.951960e+002 4.914173e+002 1.920247e+003
         vertex 8.959355e+002 4.914173e+002 1.920986e+003
      endloop
   endfacet
   facet normal -6.861938e-001 1.690605e-017 7.274188e-001
      outer loop
         vertex 8.951960e+002 1.395417e+003 1.920247e+003
         vertex 8.959355e+002 4.914173e+002 1.920986e+003
         vertex 8.959355e+002 1.395417e+003 1.920986e+003
      endloop
   endfacet
   facet normal -5.972114e-001 1.864136e-017 8.020839e-001
      outer loop
         vertex 8.959355e+002 1.395417e+003 1.920986e+003
         vertex 8.959355e+002 4.914173e+002 1.920986e+003
         vertex 8.967922e+002 4.914173e+002 1.921586e+003
      endloop
   endfacet
   facet normal -5.494540e-001 1.941854e-017 8.355240e-001
      outer loop
         vertex 8.959355e+002 1.395417e+003 1.920986e+003
         vertex 8.967922e+002 4.914173e+002 1.921586e+003
         vertex 8.967922e+002 1.395417e+003 1.921586e+003
      endloop
   endfacet
   facet normal -4.488580e-001 2.076837e-017 8.936031e-001
      outer loop
         vertex 8.967922e+002 1.395417e+003 1.921586e+003
         vertex 8.967922e+002 4.914173e+002 1.921586e+003
         vertex 8.977401e+002 4.914173e+002 1.922028e+003
      endloop
   endfacet
   facet normal -3.960194e-001 2.134101e-017 9.182422e-001
      outer loop
         vertex 8.967922e+002 1.395417e+003 1.921586e+003
         vertex 8.977401e+002 4.914173e+002 1.922028e+003
         vertex 8.977401e+002 1.395417e+003 1.922028e+003
      endloop
   endfacet
   facet normal -2.868663e-001 2.226435e-017 9.579706e-001
      outer loop
         vertex 8.977401e+002 1.395417e+003 1.922028e+003
         vertex 8.977401e+002 4.914173e+002 1.922028e+003
         vertex 8.987503e+002 4.914173e+002 1.922299e+003
      endloop
   endfacet
   facet normal -2.305518e-001 2.261504e-017 9.730601e-001
      outer loop
         vertex 8.977401e+002 1.395417e+003 1.922028e+003
         vertex 8.987503e+002 4.914173e+002 1.922299e+003
         vertex 8.987503e+002 1.395417e+003 1.922299e+003
      endloop
   endfacet
   facet normal -1.161583e-001 2.308383e-017 9.932307e-001
      outer loop
         vertex 8.987503e+002 1.395417e+003 1.922299e+003
         vertex 8.987503e+002 4.914173e+002 1.922299e+003
         vertex 8.997922e+002 4.914173e+002 1.922390e+003
      endloop
   endfacet
   facet normal -5.807914e-002 2.320193e-017 9.983120e-001
      outer loop
         vertex 8.987503e+002 1.395417e+003 1.922299e+003
         vertex 8.997922e+002 4.914173e+002 1.922390e+003
         vertex 8.997922e+002 1.395417e+003 1.922390e+003
      endloop
   endfacet
   facet normal 5.807914e-002 2.320193e-017 9.983120e-001
      outer loop
         vertex 9.277922e+002 1.395417e+003 1.922390e+003
         vertex 9.277922e+002 4.914173e+002 1.922390e+003
         vertex 9.288341e+002 4.914173e+002 1.922299e+003
      endloop
   endfacet
   facet normal 1.161583e-001 2.308383e-017 9.932307e-001
      outer loop
         vertex 9.277922e+002 1.395417e+003 1.922390e+003
         vertex 9.288341e+002 4.914173e+002 1.922299e+003
         vertex 9.288341e+002 1.395417e+003 1.922299e+003
      endloop
   endfacet
   facet normal 2.305518e-001 2.261504e-017 9.730601e-001
      outer loop
         vertex 9.288341e+002 1.395417e+003 1.922299e+003
         vertex 9.288341e+002 4.914173e+002 1.922299e+003
         vertex 9.298443e+002 4.914173e+002 1.922028e+003
      endloop
   endfacet
   facet normal 2.868663e-001 2.226435e-017 9.579706e-001
      outer loop
         vertex 9.288341e+002 1.395417e+003 1.922299e+003
         vertex 9.298443e+002 4.914173e+002 1.922028e+003
         vertex 9.298443e+002 1.395417e+003 1.922028e+003
      endloop
   endfacet
   facet normal 3.960194e-001 2.134101e-017 9.182422e-001
      outer loop
         vertex 9.298443e+002 1.395417e+003 1.922028e+003
         vertex 9.298443e+002 4.914173e+002 1.922028e+003
         vertex 9.307922e+002 4.914173e+002 1.921586e+003
      endloop
   endfacet
   facet normal 4.488580e-001 2.076837e-017 8.936031e-001
      outer loop
         vertex 9.298443e+002 1.395417e+003 1.922028e+003
         vertex 9.307922e+002 4.914173e+002 1.921586e+003
         vertex 9.307922e+002 1.395417e+003 1.921586e+003
      endloop
   endfacet
   facet normal 5.494540e-001 1.941854e-017 8.355240e-001
      outer loop
         vertex 9.307922e+002 1.395417e+003 1.921586e+003
         vertex 9.307922e+002 4.914173e+002 1.921586e+003
         vertex 9.316489e+002 4.914173e+002 1.920986e+003
      endloop
   endfacet
   facet normal 5.972114e-001 1.864136e-017 8.020839e-001
      outer loop
         vertex 9.307922e+002 1.395417e+003 1.921586e+003
         vertex 9.316489e+002 4.914173e+002 1.920986e+003
         vertex 9.316489e+002 1.395417e+003 1.920986e+003
      endloop
   endfacet
   facet normal 6.861938e-001 1.690605e-017 7.274188e-001
      outer loop
         vertex 9.316489e+002 1.395417e+003 1.920986e+003
         vertex 9.316489e+002 4.914173e+002 1.920986e+003
         vertex 9.323885e+002 4.914173e+002 1.920247e+003
      endloop
   endfacet
   facet normal 7.274188e-001 1.594794e-017 6.861938e-001
      outer loop
         vertex 9.316489e+002 1.395417e+003 1.920986e+003
         vertex 9.323885e+002 4.914173e+002 1.920247e+003
         vertex 9.323885e+002 1.395417e+003 1.920247e+003
      endloop
   endfacet
   facet normal 8.020839e-001 1.387988e-017 5.972114e-001
      outer loop
         vertex 9.323885e+002 1.395417e+003 1.920247e+003
         vertex 9.323885e+002 4.914173e+002 1.920247e+003
         vertex 9.329883e+002 4.914173e+002 1.919390e+003
      endloop
   endfacet
   facet normal 8.355240e-001 1.276995e-017 5.494540e-001
      outer loop
         vertex 9.323885e+002 1.395417e+003 1.920247e+003
         vertex 9.329883e+002 4.914173e+002 1.919390e+003
         vertex 9.329883e+002 1.395417e+003 1.919390e+003
      endloop
   endfacet
   facet normal 8.936031e-001 1.043198e-017 4.488580e-001
      outer loop
         vertex 9.329883e+002 1.395417e+003 1.919390e+003
         vertex 9.329883e+002 4.914173e+002 1.919390e+003
         vertex 9.334304e+002 4.914173e+002 1.918442e+003
      endloop
   endfacet
   facet normal 9.182422e-001 9.203949e-018 3.960194e-001
      outer loop
         vertex 9.329883e+002 1.395417e+003 1.919390e+003
         vertex 9.334304e+002 4.914173e+002 1.918442e+003
         vertex 9.334304e+002 1.395417e+003 1.918442e+003
      endloop
   endfacet
   facet normal 9.579706e-001 6.667104e-018 2.868663e-001
      outer loop
         vertex 9.334304e+002 1.395417e+003 1.918442e+003
         vertex 9.334304e+002 4.914173e+002 1.918442e+003
         vertex 9.337010e+002 4.914173e+002 1.917432e+003
      endloop
   endfacet
   facet normal 9.730601e-001 5.358292e-018 2.305518e-001
      outer loop
         vertex 9.334304e+002 1.395417e+003 1.918442e+003
         vertex 9.337010e+002 4.914173e+002 1.917432e+003
         vertex 9.337010e+002 1.395417e+003 1.917432e+003
      endloop
   endfacet
   facet normal 9.932307e-001 2.699653e-018 1.161583e-001
      outer loop
         vertex 9.337010e+002 1.395417e+003 1.917432e+003
         vertex 9.337010e+002 4.914173e+002 1.917432e+003
         vertex 9.337922e+002 4.914173e+002 1.916390e+003
      endloop
   endfacet
   facet normal 9.983120e-001 1.349826e-018 5.807914e-002
      outer loop
         vertex 9.337010e+002 1.395417e+003 1.917432e+003
         vertex 9.337922e+002 4.914173e+002 1.916390e+003
         vertex 9.337922e+002 1.395417e+003 1.916390e+003
      endloop
   endfacet
   facet normal -5.807914e-002 -2.320193e-017 -9.983120e-001
      outer loop
         vertex 8.997922e+002 1.395417e+003 1.862390e+003
         vertex 8.997922e+002 4.914173e+002 1.862390e+003
         vertex 8.987503e+002 4.914173e+002 1.862481e+003
      endloop
   endfacet
   facet normal -1.161583e-001 -2.308383e-017 -9.932307e-001
      outer loop
         vertex 8.997922e+002 1.395417e+003 1.862390e+003
         vertex 8.987503e+002 4.914173e+002 1.862481e+003
         vertex 8.987503e+002 1.395417e+003 1.862481e+003
      endloop
   endfacet
   facet normal -2.305518e-001 -2.261504e-017 -9.730601e-001
      outer loop
         vertex 8.987503e+002 1.395417e+003 1.862481e+003
         vertex 8.987503e+002 4.914173e+002 1.862481e+003
         vertex 8.977401e+002 4.914173e+002 1.862752e+003
      endloop
   endfacet
   facet normal -2.868663e-001 -2.226435e-017 -9.579706e-001
      outer loop
         vertex 8.987503e+002 1.395417e+003 1.862481e+003
         vertex 8.977401e+002 4.914173e+002 1.862752e+003
         vertex 8.977401e+002 1.395417e+003 1.862752e+003
      endloop
   endfacet
   facet normal -3.960194e-001 -2.134101e-017 -9.182422e-001
      outer loop
         vertex 8.977401e+002 1.395417e+003 1.862752e+003
         vertex 8.977401e+002 4.914173e+002 1.862752e+003
         vertex 8.967922e+002 4.914173e+002 1.863194e+003
      endloop
   endfacet
   facet normal -4.488580e-001 -2.076837e-017 -8.936031e-001
      outer loop
         vertex 8.977401e+002 1.395417e+003 1.862752e+003
         vertex 8.967922e+002 4.914173e+002 1.863194e+003
         vertex 8.967922e+002 1.395417e+003 1.863194e+003
      endloop
   endfacet
   facet normal -5.494540e-001 -1.941854e-017 -8.355240e-001
      outer loop
         vertex 8.967922e+002 1.395417e+003 1.863194e+003
         vertex 8.967922e+002 4.914173e+002 1.863194e+003
         vertex 8.959355e+002 4.914173e+002 1.863794e+003
      endloop
   endfacet
   facet normal -5.972114e-001 -1.864136e-017 -8.020839e-001
      outer loop
         vertex 8.967922e+002 1.395417e+003 1.863194e+003
         vertex 8.959355e+002 4.914173e+002 1.863794e+003
         vertex 8.959355e+002 1.395417e+003 1.863794e+003
      endloop
   endfacet
   facet normal -6.861938e-001 -1.690605e-017 -7.274188e-001
      outer loop
         vertex 8.959355e+002 1.395417e+003 1.863794e+003
         vertex 8.959355e+002 4.914173e+002 1.863794e+003
         vertex 8.951960e+002 4.914173e+002 1.864533e+003
      endloop
   endfacet
   facet normal -7.274188e-001 -1.594794e-017 -6.861938e-001
      outer loop
         vertex 8.959355e+002 1.395417e+003 1.863794e+003
         vertex 8.951960e+002 4.914173e+002 1.864533e+003
         vertex 8.951960e+002 1.395417e+003 1.864533e+003
      endloop
   endfacet
   facet normal -8.020839e-001 -1.387988e-017 -5.972114e-001
      outer loop
         vertex 8.951960e+002 1.395417e+003 1.864533e+003
         vertex 8.951960e+002 4.914173e+002 1.864533e+003
         vertex 8.945961e+002 4.914173e+002 1.865390e+003
      endloop
   endfacet
   facet normal -8.355240e-001 -1.276995e-017 -5.494540e-001
      outer loop
         vertex 8.951960e+002 1.395417e+003 1.864533e+003
         vertex 8.945961e+002 4.914173e+002 1.865390e+003
         vertex 8.945961e+002 1.395417e+003 1.865390e+003
      endloop
   endfacet
   facet normal -8.936031e-001 -1.043198e-017 -4.488580e-001
      outer loop
         vertex 8.945961e+002 1.395417e+003 1.865390e+003
         vertex 8.945961e+002 4.914173e+002 1.865390e+003
         vertex 8.941541e+002 4.914173e+002 1.866338e+003
      endloop
   endfacet
   facet normal -9.182422e-001 -9.203949e-018 -3.960194e-001
      outer loop
         vertex 8.945961e+002 1.395417e+003 1.865390e+003
         vertex 8.941541e+002 4.914173e+002 1.866338e+003
         vertex 8.941541e+002 1.395417e+003 1.866338e+003
      endloop
   endfacet
   facet normal -9.579706e-001 -6.667104e-018 -2.868663e-001
      outer loop
         vertex 8.941541e+002 1.395417e+003 1.866338e+003
         vertex 8.941541e+002 4.914173e+002 1.866338e+003
         vertex 8.938834e+002 4.914173e+002 1.867348e+003
      endloop
   endfacet
   facet normal -9.730601e-001 -5.358292e-018 -2.305518e-001
      outer loop
         vertex 8.941541e+002 1.395417e+003 1.866338e+003
         vertex 8.938834e+002 4.914173e+002 1.867348e+003
         vertex 8.938834e+002 1.395417e+003 1.867348e+003
      endloop
   endfacet
   facet normal -9.932307e-001 -2.699653e-018 -1.161583e-001
      outer loop
         vertex 8.938834e+002 1.395417e+003 1.867348e+003
         vertex 8.938834e+002 4.914173e+002 1.867348e+003
         vertex 8.937922e+002 4.914173e+002 1.868390e+003
      endloop
   endfacet
   facet normal -9.983120e-001 -1.349826e-018 -5.807914e-002
      outer loop
         vertex 8.938834e+002 1.395417e+003 1.867348e+003
         vertex 8.937922e+002 4.914173e+002 1.868390e+003
         vertex 8.937922e+002 1.395417e+003 1.868390e+003
      endloop
   endfacet
   facet normal 9.983120e-001 -1.349826e-018 -5.807914e-002
      outer loop
         vertex 9.337922e+002 1.395417e+003 1.868390e+003
         vertex 9.337922e+002 4.914173e+002 1.868390e+003
         vertex 9.337010e+002 4.914173e+002 1.867348e+003
      endloop
   endfacet
   facet normal 9.932307e-001 -2.699653e-018 -1.161583e-001
      outer loop
         vertex 9.337922e+002 1.395417e+003 1.868390e+003
         vertex 9.337010e+002 4.914173e+002 1.867348e+003
         vertex 9.337010e+002 1.395417e+003 1.867348e+003
      endloop
   endfacet
   facet normal 9.730601e-001 -5.358292e-018 -2.305518e-001
      outer loop
         vertex 9.337010e+002 1.395417e+003 1.867348e+003
         vertex 9.337010e+002 4.914173e+002 1.867348e+003
         vertex 9.334304e+002 4.914173e+002 1.866338e+003
      endloop
   endfacet
   facet normal 9.579706e-001 -6.667104e-018 -2.868663e-001
      outer loop
         vertex 9.337010e+002 1.395417e+003 1.867348e+003
         vertex 9.334304e+002 4.914173e+002 1.866338e+003
         vertex 9.334304e+002 1.395417e+003 1.866338e+003
      endloop
   endfacet
   facet normal 9.182422e-001 -9.203949e-018 -3.960194e-001
      outer loop
         vertex 9.334304e+002 1.395417e+003 1.866338e+003
         vertex 9.334304e+002 4.914173e+002 1.866338e+003
         vertex 9.329883e+002 4.914173e+002 1.865390e+003
      endloop
   endfacet
   facet normal 8.936031e-001 -1.043198e-017 -4.488580e-001
      outer loop
         vertex 9.334304e+002 1.395417e+003 1.866338e+003
         vertex 9.329883e+002 4.914173e+002 1.865390e+003
         vertex 9.329883e+002 1.395417e+003 1.865390e+003
      endloop
   endfacet
   facet normal 8.355240e-001 -1.276995e-017 -5.494540e-001
      outer loop
         vertex 9.329883e+002 1.395417e+003 1.865390e+003
         vertex 9.329883e+002 4.914173e+002 1.865390e+003
         vertex 9.323885e+002 4.914173e+002 1.864533e+003
      endloop
   endfacet
   facet normal 8.020839e-001 -1.387988e-017 -5.972114e-001
      outer loop
         vertex 9.329883e+002 1.395417e+003 1.865390e+003
         vertex 9.323885e+002 4.914173e+002 1.864533e+003
         vertex 9.323885e+002 1.395417e+003 1.864533e+003
      endloop
   endfacet
   facet normal 7.274188e-001 -1.594794e-017 -6.861938e-001
      outer loop
         vertex 9.323885e+002 1.395417e+003 1.864533e+003
         vertex 9.323885e+002 4.914173e+002 1.864533e+003
         vertex 9.316489e+002 4.914173e+002 1.863794e+003
      endloop
   endfacet
   facet normal 6.861938e-001 -1.690605e-017 -7.274188e-001
      outer loop
         vertex 9.323885e+002 1.395417e+003 1.864533e+003
         vertex 9.316489e+002 4.914173e+002 1.863794e+003
         vertex 9.316489e+002 1.395417e+003 1.863794e+003
      endloop
   endfacet
   facet normal 5.972114e-001 -1.864136e-017 -8.020839e-001
      outer loop
         vertex 9.316489e+002 1.395417e+003 1.863794e+003
         vertex 9.316489e+002 4.914173e+002 1.863794e+003
         vertex 9.307922e+002 4.914173e+002 1.863194e+003
      endloop
   endfacet
   facet normal 5.494540e-001 -1.941854e-017 -8.355240e-001
      outer loop
         vertex 9.316489e+002 1.395417e+003 1.863794e+003
         vertex 9.307922e+002 4.914173e+002 1.863194e+003
         vertex 9.307922e+002 1.395417e+003 1.863194e+003
      endloop
   endfacet
   facet normal 4.488580e-001 -2.076837e-017 -8.936031e-001
      outer loop
         vertex 9.307922e+002 1.395417e+003 1.863194e+003
         vertex 9.307922e+002 4.914173e+002 1.863194e+003
         vertex 9.298443e+002 4.914173e+002 1.862752e+003
      endloop
   endfacet
   facet normal 3.960194e-001 -2.134101e-017 -9.182422e-001
      outer loop
         vertex 9.307922e+002 1.395417e+003 1.863194e+003
         vertex 9.298443e+002 4.914173e+002 1.862752e+003
         vertex 9.298443e+002 1.395417e+003 1.862752e+003
      endloop
   endfacet
   facet normal 2.868663e-001 -2.226435e-017 -9.579706e-001
      outer loop
         vertex 9.298443e+002 1.395417e+003 1.862752e+003
         vertex 9.298443e+002 4.914173e+002 1.862752e+003
         vertex 9.288341e+002 4.914173e+002 1.862481e+003
      endloop
   endfacet
   facet normal 2.305518e-001 -2.261504e-017 -9.730601e-001
      outer loop
         vertex 9.298443e+002 1.395417e+003 1.862752e+003
         vertex 9.288341e+002 4.914173e+002 1.862481e+003
         vertex 9.288341e+002 1.395417e+003 1.862481e+003
      endloop
   endfacet
   facet normal 1.161583e-001 -2.308383e-017 -9.932307e-001
      outer loop
         vertex 9.288341e+002 1.395417e+003 1.862481e+003
         vertex 9.288341e+002 4.914173e+002 1.862481e+003
         vertex 9.277922e+002 4.914173e+002 1.862390e+003
      endloop
   endfacet
   facet normal 5.807914e-002 -2.320193e-017 -9.983120e-001
      outer loop
         vertex 9.288341e+002 1.395417e+003 1.862481e+003
         vertex 9.277922e+002 4.914173e+002 1.862390e+003
         vertex 9.277922e+002 1.395417e+003 1.862390e+003
      endloop
   endfacet
   facet normal 1.000000e+000 0.000000e+000 2.775558e-017
      outer loop
         vertex 8.977922e+002 1.395417e+003 1.868390e+003
         vertex 8.977922e+002 1.395417e+003 1.916390e+003
         vertex 8.977922e+002 4.914173e+002 1.868390e+003
      endloop
   endfacet
   facet normal 1.000000e+000 0.000000e+000 2.775558e-017
      outer loop
         vertex 8.977922e+002 4.914173e+002 1.868390e+003
         vertex 8.977922e+002 1.395417e+003 1.916390e+003
         vertex 8.977922e+002 4.914173e+002 1.916390e+003
      endloop
   endfacet
   facet normal 2.775558e-017 -2.324116e-017 -1.000000e+000
      outer loop
         vertex 9.277922e+002 4.914173e+002 1.918390e+003
         vertex 8.997922e+002 4.914173e+002 1.918390e+003
         vertex 9.277922e+002 1.395417e+003 1.918390e+003
      endloop
   endfacet
   facet normal 2.775558e-017 -2.324116e-017 -1.000000e+000
      outer loop
         vertex 9.277922e+002 1.395417e+003 1.918390e+003
         vertex 8.997922e+002 4.914173e+002 1.918390e+003
         vertex 8.997922e+002 1.395417e+003 1.918390e+003
      endloop
   endfacet
   facet normal -1.000000e+000 0.000000e+000 -2.775558e-017
      outer loop
         vertex 9.297922e+002 4.914173e+002 1.868390e+003
         vertex 9.297922e+002 4.914173e+002 1.916390e+003
         vertex 9.297922e+002 1.395417e+003 1.868390e+003
      endloop
   endfacet
   facet normal -1.000000e+000 0.000000e+000 -2.775558e-017
      outer loop
         vertex 9.297922e+002 1.395417e+003 1.868390e+003
         vertex 9.297922e+002 4.914173e+002 1.916390e+003
         vertex 9.297922e+002 1.395417e+003 1.916390e+003
      endloop
   endfacet
   facet normal -2.775558e-017 2.324116e-017 1.000000e+000
      outer loop
         vertex 9.277922e+002 1.395417e+003 1.866390e+003
         vertex 8.997922e+002 1.395417e+003 1.866390e+003
         vertex 9.277922e+002 4.914173e+002 1.866390e+003
      endloop
   endfacet
   facet normal -2.775558e-017 2.324116e-017 1.000000e+000
      outer loop
         vertex 9.277922e+002 4.914173e+002 1.866390e+003
         vertex 8.997922e+002 1.395417e+003 1.866390e+003
         vertex 8.997922e+002 4.914173e+002 1.866390e+003
      endloop
   endfacet
   facet normal 5.807914e-002 -2.320193e-017 -9.983120e-001
      outer loop
         vertex 8.997922e+002 1.395417e+003 1.918390e+003
         vertex 8.997922e+002 4.914173e+002 1.918390e+003
         vertex 8.994449e+002 4.914173e+002 1.918359e+003
      endloop
   endfacet
   facet normal 1.161583e-001 -2.308383e-017 -9.932307e-001
      outer loop
         vertex 8.997922e+002 1.395417e+003 1.918390e+003
         vertex 8.994449e+002 4.914173e+002 1.918359e+003
         vertex 8.994449e+002 1.395417e+003 1.918359e+003
      endloop
   endfacet
   facet normal 2.305518e-001 -2.261504e-017 -9.730601e-001
      outer loop
         vertex 8.994449e+002 1.395417e+003 1.918359e+003
         vertex 8.994449e+002 4.914173e+002 1.918359e+003
         vertex 8.991082e+002 4.914173e+002 1.918269e+003
      endloop
   endfacet
   facet normal 2.868663e-001 -2.226435e-017 -9.579706e-001
      outer loop
         vertex 8.994449e+002 1.395417e+003 1.918359e+003
         vertex 8.991082e+002 4.914173e+002 1.918269e+003
         vertex 8.991082e+002 1.395417e+003 1.918269e+003
      endloop
   endfacet
   facet normal 3.960194e-001 -2.134101e-017 -9.182422e-001
      outer loop
         vertex 8.991082e+002 1.395417e+003 1.918269e+003
         vertex 8.991082e+002 4.914173e+002 1.918269e+003
         vertex 8.987922e+002 4.914173e+002 1.918122e+003
      endloop
   endfacet
   facet normal 4.488580e-001 -2.076837e-017 -8.936031e-001
      outer loop
         vertex 8.991082e+002 1.395417e+003 1.918269e+003
         vertex 8.987922e+002 4.914173e+002 1.918122e+003
         vertex 8.987922e+002 1.395417e+003 1.918122e+003
      endloop
   endfacet
   facet normal 5.494540e-001 -1.941854e-017 -8.355240e-001
      outer loop
         vertex 8.987922e+002 1.395417e+003 1.918122e+003
         vertex 8.987922e+002 4.914173e+002 1.918122e+003
         vertex 8.985067e+002 4.914173e+002 1.917922e+003
      endloop
   endfacet
   facet normal 5.972114e-001 -1.864136e-017 -8.020839e-001
      outer loop
         vertex 8.987922e+002 1.395417e+003 1.918122e+003
         vertex 8.985067e+002 4.914173e+002 1.917922e+003
         vertex 8.985067e+002 1.395417e+003 1.917922e+003
      endloop
   endfacet
   facet normal 6.861938e-001 -1.690605e-017 -7.274188e-001
      outer loop
         vertex 8.985067e+002 1.395417e+003 1.917922e+003
         vertex 8.985067e+002 4.914173e+002 1.917922e+003
         vertex 8.982601e+002 4.914173e+002 1.917676e+003
      endloop
   endfacet
   facet normal 7.274188e-001 -1.594794e-017 -6.861938e-001
      outer loop
         vertex 8.985067e+002 1.395417e+003 1.917922e+003
         vertex 8.982601e+002 4.914173e+002 1.917676e+003
         vertex 8.982601e+002 1.395417e+003 1.917676e+003
      endloop
   endfacet
   facet normal 8.020839e-001 -1.387988e-017 -5.972114e-001
      outer loop
         vertex 8.982601e+002 1.395417e+003 1.917676e+003
         vertex 8.982601e+002 4.914173e+002 1.917676e+003
         vertex 8.980601e+002 4.914173e+002 1.917390e+003
      endloop
   endfacet
   facet normal 8.355240e-001 -1.276995e-017 -5.494540e-001
      outer loop
         vertex 8.982601e+002 1.395417e+003 1.917676e+003
         vertex 8.980601e+002 4.914173e+002 1.917390e+003
         vertex 8.980601e+002 1.395417e+003 1.917390e+003
      endloop
   endfacet
   facet normal 8.936031e-001 -1.043198e-017 -4.488580e-001
      outer loop
         vertex 8.980601e+002 1.395417e+003 1.917390e+003
         vertex 8.980601e+002 4.914173e+002 1.917390e+003
         vertex 8.979128e+002 4.914173e+002 1.917074e+003
      endloop
   endfacet
   facet normal 9.182422e-001 -9.203949e-018 -3.960194e-001
      outer loop
         vertex 8.980601e+002 1.395417e+003 1.917390e+003
         vertex 8.979128e+002 4.914173e+002 1.917074e+003
         vertex 8.979128e+002 1.395417e+003 1.917074e+003
      endloop
   endfacet
   facet normal 9.579706e-001 -6.667104e-018 -2.868663e-001
      outer loop
         vertex 8.979128e+002 1.395417e+003 1.917074e+003
         vertex 8.979128e+002 4.914173e+002 1.917074e+003
         vertex 8.978226e+002 4.914173e+002 1.916737e+003
      endloop
   endfacet
   facet normal 9.730601e-001 -5.358292e-018 -2.305518e-001
      outer loop
         vertex 8.979128e+002 1.395417e+003 1.917074e+003
         vertex 8.978226e+002 4.914173e+002 1.916737e+003
         vertex 8.978226e+002 1.395417e+003 1.916737e+003
      endloop
   endfacet
   facet normal 9.932307e-001 -2.699653e-018 -1.161583e-001
      outer loop
         vertex 8.978226e+002 1.395417e+003 1.916737e+003
         vertex 8.978226e+002 4.914173e+002 1.916737e+003
         vertex 8.977922e+002 4.914173e+002 1.916390e+003
      endloop
   endfacet
   facet normal 9.983120e-001 -1.349826e-018 -5.807914e-002
      outer loop
         vertex 8.978226e+002 1.395417e+003 1.916737e+003
         vertex 8.977922e+002 4.914173e+002 1.916390e+003
         vertex 8.977922e+002 1.395417e+003 1.916390e+003
      endloop
   endfacet
   facet normal -9.983120e-001 -1.349826e-018 -5.807914e-002
      outer loop
         vertex 9.297922e+002 1.395417e+003 1.916390e+003
         vertex 9.297922e+002 4.914173e+002 1.916390e+003
         vertex 9.297618e+002 4.914173e+002 1.916737e+003
      endloop
   endfacet
   facet normal -9.932307e-001 -2.699653e-018 -1.161583e-001
      outer loop
         vertex 9.297922e+002 1.395417e+003 1.916390e+003
         vertex 9.297618e+002 4.914173e+002 1.916737e+003
         vertex 9.297618e+002 1.395417e+003 1.916737e+003
      endloop
   endfacet
   facet normal -9.730601e-001 -5.358292e-018 -2.305518e-001
      outer loop
         vertex 9.297618e+002 1.395417e+003 1.916737e+003
         vertex 9.297618e+002 4.914173e+002 1.916737e+003
         vertex 9.296716e+002 4.914173e+002 1.917074e+003
      endloop
   endfacet
   facet normal -9.579706e-001 -6.667104e-018 -2.868663e-001
      outer loop
         vertex 9.297618e+002 1.395417e+003 1.916737e+003
         vertex 9.296716e+002 4.914173e+002 1.917074e+003
         vertex 9.296716e+002 1.395417e+003 1.917074e+003
      endloop
   endfacet
   facet normal -9.182422e-001 -9.203949e-018 -3.960194e-001
      outer loop
         vertex 9.296716e+002 1.395417e+003 1.917074e+003
         vertex 9.296716e+002 4.914173e+002 1.917074e+003
         vertex 9.295242e+002 4.914173e+002 1.917390e+003
      endloop
   endfacet
   facet normal -8.936031e-001 -1.043198e-017 -4.488580e-001
      outer loop
         vertex 9.296716e+002 1.395417e+003 1.917074e+003
         vertex 9.295242e+002 4.914173e+002 1.917390e+003
         vertex 9.295242e+002 1.395417e+003 1.917390e+003
      endloop
   endfacet
   facet normal -8.355240e-001 -1.276995e-017 -5.494540e-001
      outer loop
         vertex 9.295242e+002 1.395417e+003 1.917390e+003
         vertex 9.295242e+002 4.914173e+002 1.917390e+003
         vertex 9.293243e+002 4.914173e+002 1.917676e+003
      endloop
   endfacet
   facet normal -8.020839e-001 -1.387988e-017 -5.972114e-001
      outer loop
         vertex 9.295242e+002 1.395417e+003 1.917390e+003
         vertex 9.293243e+002 4.914173e+002 1.917676e+003
         vertex 9.293243e+002 1.395417e+003 1.917676e+003
      endloop
   endfacet
   facet normal -7.274188e-001 -1.594794e-017 -6.861938e-001
      outer loop
         vertex 9.293243e+002 1.395417e+003 1.917676e+003
         vertex 9.293243e+002 4.914173e+002 1.917676e+003
         vertex 9.290778e+002 4.914173e+002 1.917922e+003
      endloop
   endfacet
   facet normal -6.861938e-001 -1.690605e-017 -7.274188e-001
      outer loop
         vertex 9.293243e+002 1.395417e+003 1.917676e+003
         vertex 9.290778e+002 4.914173e+002 1.917922e+003
         vertex 9.290778e+002 1.395417e+003 1.917922e+003
      endloop
   endfacet
   facet normal -5.972114e-001 -1.864136e-017 -8.020839e-001
      outer loop
         vertex 9.290778e+002 1.395417e+003 1.917922e+003
         vertex 9.290778e+002 4.914173e+002 1.917922e+003
         vertex 9.287922e+002 4.914173e+002 1.918122e+003
      endloop
   endfacet
   facet normal -5.494540e-001 -1.941854e-017 -8.355240e-001
      outer loop
         vertex 9.290778e+002 1.395417e+003 1.917922e+003
         vertex 9.287922e+002 4.914173e+002 1.918122e+003
         vertex 9.287922e+002 1.395417e+003 1.918122e+003
      endloop
   endfacet
   facet normal -4.488580e-001 -2.076837e-017 -8.936031e-001
      outer loop
         vertex 9.287922e+002 1.395417e+003 1.918122e+003
         vertex 9.287922e+002 4.914173e+002 1.918122e+003
         vertex 9.284763e+002 4.914173e+002 1.918269e+003
      endloop
   endfacet
   facet normal -3.960194e-001 -2.134101e-017 -9.182422e-001
      outer loop
         vertex 9.287922e+002 1.395417e+003 1.918122e+003
         vertex 9.284763e+002 4.914173e+002 1.918269e+003
         vertex 9.284763e+002 1.395417e+003 1.918269e+003
      endloop
   endfacet
   facet normal -2.868663e-001 -2.226435e-017 -9.579706e-001
      outer loop
         vertex 9.284763e+002 1.395417e+003 1.918269e+003
         vertex 9.284763e+002 4.914173e+002 1.918269e+003
         vertex 9.281395e+002 4.914173e+002 1.918359e+003
      endloop
   endfacet
   facet normal -2.305518e-001 -2.261504e-017 -9.730601e-001
      outer loop
         vertex 9.284763e+002 1.395417e+003 1.918269e+003
         vertex 9.281395e+002 4.914173e+002 1.918359e+003
         vertex 9.281395e+002 1.395417e+003 1.918359e+003
      endloop
   endfacet
   facet normal -1.161583e-001 -2.308383e-017 -9.932307e-001
      outer loop
         vertex 9.281395e+002 1.395417e+003 1.918359e+003
         vertex 9.281395e+002 4.914173e+002 1.918359e+003
         vertex 9.277922e+002 4.914173e+002 1.918390e+003
      endloop
   endfacet
   facet normal -5.807914e-002 -2.320193e-017 -9.983120e-001
      outer loop
         vertex 9.281395e+002 1.395417e+003 1.918359e+003
         vertex 9.277922e+002 4.914173e+002 1.918390e+003
         vertex 9.277922e+002 1.395417e+003 1.918390e+003
      endloop
   endfacet
   facet normal 9.983120e-001 1.349826e-018 5.807914e-002
      outer loop
         vertex 8.977922e+002 1.395417e+003 1.868390e+003
         vertex 8.977922e+002 4.914173e+002 1.868390e+003
         vertex 8.978226e+002 4.914173e+002 1.868043e+003
      endloop
   endfacet
   facet normal 9.932307e-001 2.699653e-018 1.161583e-001
      outer loop
         vertex 8.977922e+002 1.395417e+003 1.868390e+003
         vertex 8.978226e+002 4.914173e+002 1.868043e+003
         vertex 8.978226e+002 1.395417e+003 1.868043e+003
      endloop
   endfacet
   facet normal 9.730601e-001 5.358292e-018 2.305518e-001
      outer loop
         vertex 8.978226e+002 1.395417e+003 1.868043e+003
         vertex 8.978226e+002 4.914173e+002 1.868043e+003
         vertex 8.979128e+002 4.914173e+002 1.867706e+003
      endloop
   endfacet
   facet normal 9.579706e-001 6.667104e-018 2.868663e-001
      outer loop
         vertex 8.978226e+002 1.395417e+003 1.868043e+003
         vertex 8.979128e+002 4.914173e+002 1.867706e+003
         vertex 8.979128e+002 1.395417e+003 1.867706e+003
      endloop
   endfacet
   facet normal 9.182422e-001 9.203949e-018 3.960194e-001
      outer loop
         vertex 8.979128e+002 1.395417e+003 1.867706e+003
         vertex 8.979128e+002 4.914173e+002 1.867706e+003
         vertex 8.980601e+002 4.914173e+002 1.867390e+003
      endloop
   endfacet
   facet normal 8.936031e-001 1.043198e-017 4.488580e-001
      outer loop
         vertex 8.979128e+002 1.395417e+003 1.867706e+003
         vertex 8.980601e+002 4.914173e+002 1.867390e+003
         vertex 8.980601e+002 1.395417e+003 1.867390e+003
      endloop
   endfacet
   facet normal 8.355240e-001 1.276995e-017 5.494540e-001
      outer loop
         vertex 8.980601e+002 1.395417e+003 1.867390e+003
         vertex 8.980601e+002 4.914173e+002 1.867390e+003
         vertex 8.982601e+002 4.914173e+002 1.867104e+003
      endloop
   endfacet
   facet normal 8.020839e-001 1.387988e-017 5.972114e-001
      outer loop
         vertex 8.980601e+002 1.395417e+003 1.867390e+003
         vertex 8.982601e+002 4.914173e+002 1.867104e+003
         vertex 8.982601e+002 1.395417e+003 1.867104e+003
      endloop
   endfacet
   facet normal 7.274188e-001 1.594794e-017 6.861938e-001
      outer loop
         vertex 8.982601e+002 1.395417e+003 1.867104e+003
         vertex 8.982601e+002 4.914173e+002 1.867104e+003
         vertex 8.985067e+002 4.914173e+002 1.866858e+003
      endloop
   endfacet
   facet normal 6.861938e-001 1.690605e-017 7.274188e-001
      outer loop
         vertex 8.982601e+002 1.395417e+003 1.867104e+003
         vertex 8.985067e+002 4.914173e+002 1.866858e+003
         vertex 8.985067e+002 1.395417e+003 1.866858e+003
      endloop
   endfacet
   facet normal 5.972114e-001 1.864136e-017 8.020839e-001
      outer loop
         vertex 8.985067e+002 1.395417e+003 1.866858e+003
         vertex 8.985067e+002 4.914173e+002 1.866858e+003
         vertex 8.987922e+002 4.914173e+002 1.866658e+003
      endloop
   endfacet
   facet normal 5.494540e-001 1.941854e-017 8.355240e-001
      outer loop
         vertex 8.985067e+002 1.395417e+003 1.866858e+003
         vertex 8.987922e+002 4.914173e+002 1.866658e+003
         vertex 8.987922e+002 1.395417e+003 1.866658e+003
      endloop
   endfacet
   facet normal 4.488580e-001 2.076837e-017 8.936031e-001
      outer loop
         vertex 8.987922e+002 1.395417e+003 1.866658e+003
         vertex 8.987922e+002 4.914173e+002 1.866658e+003
         vertex 8.991082e+002 4.914173e+002 1.866510e+003
      endloop
   endfacet
   facet normal 3.960194e-001 2.134101e-017 9.182422e-001
      outer loop
         vertex 8.987922e+002 1.395417e+003 1.866658e+003
         vertex 8.991082e+002 4.914173e+002 1.866510e+003
         vertex 8.991082e+002 1.395417e+003 1.866510e+003
      endloop
   endfacet
   facet normal 2.868663e-001 2.226435e-017 9.579706e-001
      outer loop
         vertex 8.991082e+002 1.395417e+003 1.866510e+003
         vertex 8.991082e+002 4.914173e+002 1.866510e+003
         vertex 8.994449e+002 4.914173e+002 1.866420e+003
      endloop
   endfacet
   facet normal 2.305518e-001 2.261504e-017 9.730601e-001
      outer loop
         vertex 8.991082e+002 1.395417e+003 1.866510e+003
         vertex 8.994449e+002 4.914173e+002 1.866420e+003
         vertex 8.994449e+002 1.395417e+003 1.866420e+003
      endloop
   endfacet
   facet normal 1.161583e-001 2.308383e-017 9.932307e-001
      outer loop
         vertex 8.994449e+002 1.395417e+003 1.866420e+003
         vertex 8.994449e+002 4.914173e+002 1.866420e+003
         vertex 8.997922e+002 4.914173e+002 1.866390e+003
      endloop
   endfacet
   facet normal 5.807914e-002 2.320193e-017 9.983120e-001
      outer loop
         vertex 8.994449e+002 1.395417e+003 1.866420e+003
         vertex 8.997922e+002 4.914173e+002 1.866390e+003
         vertex 8.997922e+002 1.395417e+003 1.866390e+003
      endloop
   endfacet
   facet normal -5.807914e-002 2.320193e-017 9.983120e-001
      outer loop
         vertex 9.277922e+002 1.395417e+003 1.866390e+003
         vertex 9.277922e+002 4.914173e+002 1.866390e+003
         vertex 9.281395e+002 4.914173e+002 1.866420e+003
      endloop
   endfacet
   facet normal -1.161583e-001 2.308383e-017 9.932307e-001
      outer loop
         vertex 9.277922e+002 1.395417e+003 1.866390e+003
         vertex 9.281395e+002 4.914173e+002 1.866420e+003
         vertex 9.281395e+002 1.395417e+003 1.866420e+003
      endloop
   endfacet
   facet normal -2.305518e-001 2.261504e-017 9.730601e-001
      outer loop
         vertex 9.281395e+002 1.395417e+003 1.866420e+003
         vertex 9.281395e+002 4.914173e+002 1.866420e+003
         vertex 9.284763e+002 4.914173e+002 1.866510e+003
      endloop
   endfacet
   facet normal -2.868663e-001 2.226435e-017 9.579706e-001
      outer loop
         vertex 9.281395e+002 1.395417e+003 1.866420e+003
         vertex 9.284763e+002 4.914173e+002 1.866510e+003
         vertex 9.284763e+002 1.395417e+003 1.866510e+003
      endloop
   endfacet
   facet normal -3.960194e-001 2.134101e-017 9.182422e-001
      outer loop
         vertex 9.284763e+002 1.395417e+003 1.866510e+003
         vertex 9.284763e+002 4.914173e+002 1.866510e+003
         vertex 9.287922e+002 4.914173e+002 1.866658e+003
      endloop
   endfacet
   facet normal -4.488580e-001 2.076837e-017 8.936031e-001
      outer loop
         vertex 9.284763e+002 1.395417e+003 1.866510e+003
         vertex 9.287922e+002 4.914173e+002 1.866658e+003
         vertex 9.287922e+002 1.395417e+003 1.866658e+003
      endloop
   endfacet
   facet normal -5.494540e-001 1.941854e-017 8.355240e-001
      outer loop
         vertex 9.287922e+002 1.395417e+003 1.866658e+003
         vertex 9.287922e+002 4.914173e+002 1.866658e+003
         vertex 9.290778e+002 4.914173e+002 1.866858e+003
      endloop
   endfacet
   facet normal -5.972114e-001 1.864136e-017 8.020839e-001
      outer loop
         vertex 9.287922e+002 1.395417e+003 1.866658e+003
         vertex 9.290778e+002 4.914173e+002 1.866858e+003
         vertex 9.290778e+002 1.395417e+003 1.866858e+003
      endloop
   endfacet
   facet normal -6.861938e-001 1.690605e-017 7.274188e-001
      outer loop
         vertex 9.290778e+002 1.395417e+003 1.866858e+003
         vertex 9.290778e+002 4.914173e+002 1.866858e+003
         vertex 9.293243e+002 4.914173e+002 1.867104e+003
      endloop
   endfacet
   facet normal -7.274188e-001 1.594794e-017 6.861938e-001
      outer loop
         vertex 9.290778e+002 1.395417e+003 1.866858e+003
         vertex 9.293243e+002 4.914173e+002 1.867104e+003
         vertex 9.293243e+002 1.395417e+003 1.867104e+003
      endloop
   endfacet
   facet normal -8.020839e-001 1.387988e-017 5.972114e-001
      outer loop
         vertex 9.293243e+002 1.395417e+003 1.867104e+003
         vertex 9.293243e+002 4.914173e+002 1.867104e+003
         vertex 9.295242e+002 4.914173e+002 1.867390e+003
      endloop
   endfacet
   facet normal -8.355240e-001 1.276995e-017 5.494540e-001
      outer loop
         vertex 9.293243e+002 1.395417e+003 1.867104e+003
         vertex 9.295242e+002 4.914173e+002 1.867390e+003
         vertex 9.295242e+002 1.395417e+003 1.867390e+003
      endloop
   endfacet
   facet normal -8.936031e-001 1.043198e-017 4.488580e-001
      outer loop
         vertex 9.295242e+002 1.395417e+003 1.867390e+003
         vertex 9.295242e+002 4.914173e+002 1.867390e+003
         vertex 9.296716e+002 4.914173e+002 1.867706e+003
      endloop
   endfacet
   facet normal -9.182422e-001 9.203949e-018 3.960194e-001
      outer loop
         vertex 9.295242e+002 1.395417e+003 1.867390e+003
         vertex 9.296716e+002 4.914173e+002 1.867706e+003
         vertex 9.296716e+002 1.395417e+003 1.867706e+003
      endloop
   endfacet
   facet normal -9.579706e-001 6.667104e-018 2.868663e-001
      outer loop
         vertex 9.296716e+002 1.395417e+003 1.867706e+003
         vertex 9.296716e+002 4.914173e+002 1.867706e+003
         vertex 9.297618e+002 4.914173e+002 1.868043e+003
      endloop
   endfacet
   facet normal -9.730601e-001 5.358292e-018 2.305518e-001
      outer loop
         vertex 9.296716e+002 1.395417e+003 1.867706e+003
         vertex 9.297618e+002 4.914173e+002 1.868043e+003
         vertex 9.297618e+002 1.395417e+003 1.868043e+003
      endloop
   endfacet
   facet normal -9.932307e-001 2.699653e-018 1.161583e-001
      outer loop
         vertex 9.297618e+002 1.395417e+003 1.868043e+003
         vertex 9.297618e+002 4.914173e+002 1.868043e+003
         vertex 9.297922e+002 4.914173e+002 1.868390e+003
      endloop
   endfacet
   facet normal -9.983120e-001 1.349826e-018 5.807914e-002
      outer loop
         vertex 9.297618e+002 1.395417e+003 1.868043e+003
         vertex 9.297922e+002 4.914173e+002 1.868390e+003
         vertex 9.297922e+002 1.395417e+003 1.868390e+003
      endloop
   endfacet
endsolid