solid 09.025.00.00.000 - 09.025.00.01.000-1 09.025.00.01.001-1 09.025.00.01.0AC-2
   facet normal 0.000000e+000 1.000000e+000 -1.040834e-017
      outer loop
         vertex 2.337792e+003 1.395417e+003 1.868390e+003
         vertex 2.333792e+003 1.395417e+003 1.868390e+003
         vertex 2.337792e+003 1.395417e+003 1.916390e+003
      endloop
   endfacet
   facet normal 0.000000e+000 1.000000e+000 -1.040834e-017
      outer loop
         vertex 2.337792e+003 1.395417e+003 1.916390e+003
         vertex 2.333792e+003 1.395417e+003 1.868390e+003
         vertex 2.333792e+003 1.395417e+003 1.916390e+003
      endloop
   endfacet
   facet normal 0.000000e+000 1.000000e+000 -1.040834e-017
      outer loop
         vertex 2.337792e+003 1.395417e+003 1.916390e+003
         vertex 2.333792e+003 1.395417e+003 1.916390e+003
         vertex 2.337823e+003 1.395417e+003 1.916737e+003
      endloop
   endfacet
   facet normal 0.000000e+000 1.000000e+000 -1.040834e-017
      outer loop
         vertex 2.337823e+003 1.395417e+003 1.916737e+003
         vertex 2.333792e+003 1.395417e+003 1.916390e+003
         vertex 2.333883e+003 1.395417e+003 1.917432e+003
      endloop
   endfacet
   facet normal 0.000000e+000 1.000000e+000 -1.040834e-017
      outer loop
         vertex 2.337823e+003 1.395417e+003 1.916737e+003
         vertex 2.333883e+003 1.395417e+003 1.917432e+003
         vertex 2.337913e+003 1.395417e+003 1.917074e+003
      endloop
   endfacet
   facet normal 0.000000e+000 1.000000e+000 -1.040834e-017
      outer loop
         vertex 2.337913e+003 1.395417e+003 1.917074e+003
         vertex 2.333883e+003 1.395417e+003 1.917432e+003
         vertex 2.334154e+003 1.395417e+003 1.918442e+003
      endloop
   endfacet
   facet normal 0.000000e+000 1.000000e+000 -1.040834e-017
      outer loop
         vertex 2.337913e+003 1.395417e+003 1.917074e+003
         vertex 2.334154e+003 1.395417e+003 1.918442e+003
         vertex 2.338060e+003 1.395417e+003 1.917390e+003
      endloop
   endfacet
   facet normal 0.000000e+000 1.000000e+000 -1.040834e-017
      outer loop
         vertex 2.338060e+003 1.395417e+003 1.917390e+003
         vertex 2.334154e+003 1.395417e+003 1.918442e+003
         vertex 2.334596e+003 1.395417e+003 1.919390e+003
      endloop
   endfacet
   facet normal 0.000000e+000 1.000000e+000 -1.040834e-017
      outer loop
         vertex 2.338060e+003 1.395417e+003 1.917390e+003
         vertex 2.334596e+003 1.395417e+003 1.919390e+003
         vertex 2.338260e+003 1.395417e+003 1.917676e+003
      endloop
   endfacet
   facet normal 0.000000e+000 1.000000e+000 -1.040834e-017
      outer loop
         vertex 2.338260e+003 1.395417e+003 1.917676e+003
         vertex 2.334596e+003 1.395417e+003 1.919390e+003
         vertex 2.335196e+003 1.395417e+003 1.920247e+003
      endloop
   endfacet
   facet normal 0.000000e+000 1.000000e+000 -1.040834e-017
      outer loop
         vertex 2.338260e+003 1.395417e+003 1.917676e+003
         vertex 2.335196e+003 1.395417e+003 1.920247e+003
         vertex 2.338507e+003 1.395417e+003 1.917922e+003
      endloop
   endfacet
   facet normal 0.000000e+000 1.000000e+000 -1.040834e-017
      outer loop
         vertex 2.338507e+003 1.395417e+003 1.917922e+003
         vertex 2.335196e+003 1.395417e+003 1.920247e+003
         vertex 2.335936e+003 1.395417e+003 1.920986e+003
      endloop
   endfacet
   facet normal 0.000000e+000 1.000000e+000 -1.040834e-017
      outer loop
         vertex 2.338507e+003 1.395417e+003 1.917922e+003
         vertex 2.335936e+003 1.395417e+003 1.920986e+003
         vertex 2.338792e+003 1.395417e+003 1.918122e+003
      endloop
   endfacet
   facet normal 0.000000e+000 1.000000e+000 -1.040834e-017
      outer loop
         vertex 2.338792e+003 1.395417e+003 1.918122e+003
         vertex 2.335936e+003 1.395417e+003 1.920986e+003
         vertex 2.336792e+003 1.395417e+003 1.921586e+003
      endloop
   endfacet
   facet normal 0.000000e+000 1.000000e+000 -1.040834e-017
      outer loop
         vertex 2.338792e+003 1.395417e+003 1.918122e+003
         vertex 2.336792e+003 1.395417e+003 1.921586e+003
         vertex 2.339108e+003 1.395417e+003 1.918269e+003
      endloop
   endfacet
   facet normal 0.000000e+000 1.000000e+000 -1.040834e-017
      outer loop
         vertex 2.339108e+003 1.395417e+003 1.918269e+003
         vertex 2.336792e+003 1.395417e+003 1.921586e+003
         vertex 2.337740e+003 1.395417e+003 1.922028e+003
      endloop
   endfacet
   facet normal 0.000000e+000 1.000000e+000 -1.040834e-017
      outer loop
         vertex 2.339108e+003 1.395417e+003 1.918269e+003
         vertex 2.337740e+003 1.395417e+003 1.922028e+003
         vertex 2.339445e+003 1.395417e+003 1.918359e+003
      endloop
   endfacet
   facet normal 0.000000e+000 1.000000e+000 -1.040834e-017
      outer loop
         vertex 2.339445e+003 1.395417e+003 1.918359e+003
         vertex 2.337740e+003 1.395417e+003 1.922028e+003
         vertex 2.338750e+003 1.395417e+003 1.922299e+003
      endloop
   endfacet
   facet normal 0.000000e+000 1.000000e+000 -1.040834e-017
      outer loop
         vertex 2.339445e+003 1.395417e+003 1.918359e+003
         vertex 2.338750e+003 1.395417e+003 1.922299e+003
         vertex 2.339792e+003 1.395417e+003 1.918390e+003
      endloop
   endfacet
   facet normal 0.000000e+000 1.000000e+000 -1.040834e-017
      outer loop
         vertex 2.339792e+003 1.395417e+003 1.918390e+003
         vertex 2.338750e+003 1.395417e+003 1.922299e+003
         vertex 2.339792e+003 1.395417e+003 1.922390e+003
      endloop
   endfacet
   facet normal 0.000000e+000 1.000000e+000 -1.040834e-017
      outer loop
         vertex 2.339792e+003 1.395417e+003 1.918390e+003
         vertex 2.339792e+003 1.395417e+003 1.922390e+003
         vertex 2.367792e+003 1.395417e+003 1.918390e+003
      endloop
   endfacet
   facet normal 0.000000e+000 1.000000e+000 -1.040834e-017
      outer loop
         vertex 2.367792e+003 1.395417e+003 1.918390e+003
         vertex 2.339792e+003 1.395417e+003 1.922390e+003
         vertex 2.367792e+003 1.395417e+003 1.922390e+003
      endloop
   endfacet
   facet normal 0.000000e+000 1.000000e+000 -1.040834e-017
      outer loop
         vertex 2.367792e+003 1.395417e+003 1.918390e+003
         vertex 2.367792e+003 1.395417e+003 1.922390e+003
         vertex 2.368139e+003 1.395417e+003 1.918359e+003
      endloop
   endfacet
   facet normal 0.000000e+000 1.000000e+000 -1.040834e-017
      outer loop
         vertex 2.368139e+003 1.395417e+003 1.918359e+003
         vertex 2.367792e+003 1.395417e+003 1.922390e+003
         vertex 2.368834e+003 1.395417e+003 1.922299e+003
      endloop
   endfacet
   facet normal 0.000000e+000 1.000000e+000 -1.040834e-017
      outer loop
         vertex 2.368139e+003 1.395417e+003 1.918359e+003
         vertex 2.368834e+003 1.395417e+003 1.922299e+003
         vertex 2.368476e+003 1.395417e+003 1.918269e+003
      endloop
   endfacet
   facet normal 0.000000e+000 1.000000e+000 -1.040834e-017
      outer loop
         vertex 2.368476e+003 1.395417e+003 1.918269e+003
         vertex 2.368834e+003 1.395417e+003 1.922299e+003
         vertex 2.369844e+003 1.395417e+003 1.922028e+003
      endloop
   endfacet
   facet normal 0.000000e+000 1.000000e+000 -1.040834e-017
      outer loop
         vertex 2.368476e+003 1.395417e+003 1.918269e+003
         vertex 2.369844e+003 1.395417e+003 1.922028e+003
         vertex 2.368792e+003 1.395417e+003 1.918122e+003
      endloop
   endfacet
   facet normal 0.000000e+000 1.000000e+000 -1.040834e-017
      outer loop
         vertex 2.368792e+003 1.395417e+003 1.918122e+003
         vertex 2.369844e+003 1.395417e+003 1.922028e+003
         vertex 2.370792e+003 1.395417e+003 1.921586e+003
      endloop
   endfacet
   facet normal 0.000000e+000 1.000000e+000 -1.040834e-017
      outer loop
         vertex 2.368792e+003 1.395417e+003 1.918122e+003
         vertex 2.370792e+003 1.395417e+003 1.921586e+003
         vertex 2.369078e+003 1.395417e+003 1.917922e+003
      endloop
   endfacet
   facet normal 0.000000e+000 1.000000e+000 -1.040834e-017
      outer loop
         vertex 2.369078e+003 1.395417e+003 1.917922e+003
         vertex 2.370792e+003 1.395417e+003 1.921586e+003
         vertex 2.371649e+003 1.395417e+003 1.920986e+003
      endloop
   endfacet
   facet normal 0.000000e+000 1.000000e+000 -1.040834e-017
      outer loop
         vertex 2.369078e+003 1.395417e+003 1.917922e+003
         vertex 2.371649e+003 1.395417e+003 1.920986e+003
         vertex 2.369324e+003 1.395417e+003 1.917676e+003
      endloop
   endfacet
   facet normal 0.000000e+000 1.000000e+000 -1.040834e-017
      outer loop
         vertex 2.369324e+003 1.395417e+003 1.917676e+003
         vertex 2.371649e+003 1.395417e+003 1.920986e+003
         vertex 2.372388e+003 1.395417e+003 1.920247e+003
      endloop
   endfacet
   facet normal 0.000000e+000 1.000000e+000 -1.040834e-017
      outer loop
         vertex 2.369324e+003 1.395417e+003 1.917676e+003
         vertex 2.372388e+003 1.395417e+003 1.920247e+003
         vertex 2.369524e+003 1.395417e+003 1.917390e+003
      endloop
   endfacet
   facet normal 0.000000e+000 1.000000e+000 -1.040834e-017
      outer loop
         vertex 2.369524e+003 1.395417e+003 1.917390e+003
         vertex 2.372388e+003 1.395417e+003 1.920247e+003
         vertex 2.372989e+003 1.395417e+003 1.919390e+003
      endloop
   endfacet
   facet normal 0.000000e+000 1.000000e+000 -1.040834e-017
      outer loop
         vertex 2.369524e+003 1.395417e+003 1.917390e+003
         vertex 2.372989e+003 1.395417e+003 1.919390e+003
         vertex 2.369672e+003 1.395417e+003 1.917074e+003
      endloop
   endfacet
   facet normal 0.000000e+000 1.000000e+000 -1.040834e-017
      outer loop
         vertex 2.369672e+003 1.395417e+003 1.917074e+003
         vertex 2.372989e+003 1.395417e+003 1.919390e+003
         vertex 2.373430e+003 1.395417e+003 1.918442e+003
      endloop
   endfacet
   facet normal 0.000000e+000 1.000000e+000 -1.040834e-017
      outer loop
         vertex 2.369672e+003 1.395417e+003 1.917074e+003
         vertex 2.373430e+003 1.395417e+003 1.918442e+003
         vertex 2.369762e+003 1.395417e+003 1.916737e+003
      endloop
   endfacet
   facet normal 0.000000e+000 1.000000e+000 -1.040834e-017
      outer loop
         vertex 2.369762e+003 1.395417e+003 1.916737e+003
         vertex 2.373430e+003 1.395417e+003 1.918442e+003
         vertex 2.373701e+003 1.395417e+003 1.917432e+003
      endloop
   endfacet
   facet normal 0.000000e+000 1.000000e+000 -1.040834e-017
      outer loop
         vertex 2.369762e+003 1.395417e+003 1.916737e+003
         vertex 2.373701e+003 1.395417e+003 1.917432e+003
         vertex 2.369792e+003 1.395417e+003 1.916390e+003
      endloop
   endfacet
   facet normal 0.000000e+000 1.000000e+000 -1.040834e-017
      outer loop
         vertex 2.369792e+003 1.395417e+003 1.916390e+003
         vertex 2.373701e+003 1.395417e+003 1.917432e+003
         vertex 2.373792e+003 1.395417e+003 1.916390e+003
      endloop
   endfacet
   facet normal 0.000000e+000 1.000000e+000 -1.040834e-017
      outer loop
         vertex 2.369792e+003 1.395417e+003 1.916390e+003
         vertex 2.373792e+003 1.395417e+003 1.916390e+003
         vertex 2.369792e+003 1.395417e+003 1.868390e+003
      endloop
   endfacet
   facet normal 0.000000e+000 1.000000e+000 -1.040834e-017
      outer loop
         vertex 2.369792e+003 1.395417e+003 1.868390e+003
         vertex 2.373792e+003 1.395417e+003 1.916390e+003
         vertex 2.373792e+003 1.395417e+003 1.868390e+003
      endloop
   endfacet
   facet normal 0.000000e+000 1.000000e+000 -1.040834e-017
      outer loop
         vertex 2.369792e+003 1.395417e+003 1.868390e+003
         vertex 2.373792e+003 1.395417e+003 1.868390e+003
         vertex 2.369762e+003 1.395417e+003 1.868043e+003
      endloop
   endfacet
   facet normal 0.000000e+000 1.000000e+000 -1.040834e-017
      outer loop
         vertex 2.369762e+003 1.395417e+003 1.868043e+003
         vertex 2.373792e+003 1.395417e+003 1.868390e+003
         vertex 2.373701e+003 1.395417e+003 1.867348e+003
      endloop
   endfacet
   facet normal 0.000000e+000 1.000000e+000 -1.040834e-017
      outer loop
         vertex 2.369762e+003 1.395417e+003 1.868043e+003
         vertex 2.373701e+003 1.395417e+003 1.867348e+003
         vertex 2.369672e+003 1.395417e+003 1.867706e+003
      endloop
   endfacet
   facet normal 0.000000e+000 1.000000e+000 -1.040834e-017
      outer loop
         vertex 2.369672e+003 1.395417e+003 1.867706e+003
         vertex 2.373701e+003 1.395417e+003 1.867348e+003
         vertex 2.373430e+003 1.395417e+003 1.866338e+003
      endloop
   endfacet
   facet normal 0.000000e+000 1.000000e+000 -1.040834e-017
      outer loop
         vertex 2.369672e+003 1.395417e+003 1.867706e+003
         vertex 2.373430e+003 1.395417e+003 1.866338e+003
         vertex 2.369524e+003 1.395417e+003 1.867390e+003
      endloop
   endfacet
   facet normal 0.000000e+000 1.000000e+000 -1.040834e-017
      outer loop
         vertex 2.369524e+003 1.395417e+003 1.867390e+003
         vertex 2.373430e+003 1.395417e+003 1.866338e+003
         vertex 2.372989e+003 1.395417e+003 1.865390e+003
      endloop
   endfacet
   facet normal 0.000000e+000 1.000000e+000 -1.040834e-017
      outer loop
         vertex 2.369524e+003 1.395417e+003 1.867390e+003
         vertex 2.372989e+003 1.395417e+003 1.865390e+003
         vertex 2.369324e+003 1.395417e+003 1.867104e+003
      endloop
   endfacet
   facet normal 0.000000e+000 1.000000e+000 -1.040834e-017
      outer loop
         vertex 2.369324e+003 1.395417e+003 1.867104e+003
         vertex 2.372989e+003 1.395417e+003 1.865390e+003
         vertex 2.372388e+003 1.395417e+003 1.864533e+003
      endloop
   endfacet
   facet normal 0.000000e+000 1.000000e+000 -1.040834e-017
      outer loop
         vertex 2.369324e+003 1.395417e+003 1.867104e+003
         vertex 2.372388e+003 1.395417e+003 1.864533e+003
         vertex 2.369078e+003 1.395417e+003 1.866858e+003
      endloop
   endfacet
   facet normal 0.000000e+000 1.000000e+000 -1.040834e-017
      outer loop
         vertex 2.369078e+003 1.395417e+003 1.866858e+003
         vertex 2.372388e+003 1.395417e+003 1.864533e+003
         vertex 2.371649e+003 1.395417e+003 1.863794e+003
      endloop
   endfacet
   facet normal 0.000000e+000 1.000000e+000 -1.040834e-017
      outer loop
         vertex 2.369078e+003 1.395417e+003 1.866858e+003
         vertex 2.371649e+003 1.395417e+003 1.863794e+003
         vertex 2.368792e+003 1.395417e+003 1.866658e+003
      endloop
   endfacet
   facet normal 0.000000e+000 1.000000e+000 -1.040834e-017
      outer loop
         vertex 2.368792e+003 1.395417e+003 1.866658e+003
         vertex 2.371649e+003 1.395417e+003 1.863794e+003
         vertex 2.370792e+003 1.395417e+003 1.863194e+003
      endloop
   endfacet
   facet normal 0.000000e+000 1.000000e+000 -1.040834e-017
      outer loop
         vertex 2.368792e+003 1.395417e+003 1.866658e+003
         vertex 2.370792e+003 1.395417e+003 1.863194e+003
         vertex 2.368476e+003 1.395417e+003 1.866510e+003
      endloop
   endfacet
   facet normal 0.000000e+000 1.000000e+000 -1.040834e-017
      outer loop
         vertex 2.368476e+003 1.395417e+003 1.866510e+003
         vertex 2.370792e+003 1.395417e+003 1.863194e+003
         vertex 2.369844e+003 1.395417e+003 1.862752e+003
      endloop
   endfacet
   facet normal 0.000000e+000 1.000000e+000 -1.040834e-017
      outer loop
         vertex 2.368476e+003 1.395417e+003 1.866510e+003
         vertex 2.369844e+003 1.395417e+003 1.862752e+003
         vertex 2.368139e+003 1.395417e+003 1.866420e+003
      endloop
   endfacet
   facet normal 0.000000e+000 1.000000e+000 -1.040834e-017
      outer loop
         vertex 2.368139e+003 1.395417e+003 1.866420e+003
         vertex 2.369844e+003 1.395417e+003 1.862752e+003
         vertex 2.368834e+003 1.395417e+003 1.862481e+003
      endloop
   endfacet
   facet normal 0.000000e+000 1.000000e+000 -1.040834e-017
      outer loop
         vertex 2.368139e+003 1.395417e+003 1.866420e+003
         vertex 2.368834e+003 1.395417e+003 1.862481e+003
         vertex 2.367792e+003 1.395417e+003 1.866390e+003
      endloop
   endfacet
   facet normal 0.000000e+000 1.000000e+000 -1.040834e-017
      outer loop
         vertex 2.367792e+003 1.395417e+003 1.866390e+003
         vertex 2.368834e+003 1.395417e+003 1.862481e+003
         vertex 2.367792e+003 1.395417e+003 1.862390e+003
      endloop
   endfacet
   facet normal 0.000000e+000 1.000000e+000 -1.040834e-017
      outer loop
         vertex 2.367792e+003 1.395417e+003 1.866390e+003
         vertex 2.367792e+003 1.395417e+003 1.862390e+003
         vertex 2.339792e+003 1.395417e+003 1.866390e+003
      endloop
   endfacet
   facet normal 0.000000e+000 1.000000e+000 -1.040834e-017
      outer loop
         vertex 2.339792e+003 1.395417e+003 1.866390e+003
         vertex 2.367792e+003 1.395417e+003 1.862390e+003
         vertex 2.339792e+003 1.395417e+003 1.862390e+003
      endloop
   endfacet
   facet normal 0.000000e+000 1.000000e+000 -1.040834e-017
      outer loop
         vertex 2.339792e+003 1.395417e+003 1.866390e+003
         vertex 2.339792e+003 1.395417e+003 1.862390e+003
         vertex 2.339445e+003 1.395417e+003 1.866420e+003
      endloop
   endfacet
   facet normal 0.000000e+000 1.000000e+000 -1.040834e-017
      outer loop
         vertex 2.339445e+003 1.395417e+003 1.866420e+003
         vertex 2.339792e+003 1.395417e+003 1.862390e+003
         vertex 2.338750e+003 1.395417e+003 1.862481e+003
      endloop
   endfacet
   facet normal 0.000000e+000 1.000000e+000 -1.040834e-017
      outer loop
         vertex 2.339445e+003 1.395417e+003 1.866420e+003
         vertex 2.338750e+003 1.395417e+003 1.862481e+003
         vertex 2.339108e+003 1.395417e+003 1.866510e+003
      endloop
   endfacet
   facet normal 0.000000e+000 1.000000e+000 -1.040834e-017
      outer loop
         vertex 2.339108e+003 1.395417e+003 1.866510e+003
         vertex 2.338750e+003 1.395417e+003 1.862481e+003
         vertex 2.337740e+003 1.395417e+003 1.862752e+003
      endloop
   endfacet
   facet normal 0.000000e+000 1.000000e+000 -1.040834e-017
      outer loop
         vertex 2.339108e+003 1.395417e+003 1.866510e+003
         vertex 2.337740e+003 1.395417e+003 1.862752e+003
         vertex 2.338792e+003 1.395417e+003 1.866658e+003
      endloop
   endfacet
   facet normal 0.000000e+000 1.000000e+000 -1.040834e-017
      outer loop
         vertex 2.338792e+003 1.395417e+003 1.866658e+003
         vertex 2.337740e+003 1.395417e+003 1.862752e+003
         vertex 2.336792e+003 1.395417e+003 1.863194e+003
      endloop
   endfacet
   facet normal 0.000000e+000 1.000000e+000 -1.040834e-017
      outer loop
         vertex 2.338792e+003 1.395417e+003 1.866658e+003
         vertex 2.336792e+003 1.395417e+003 1.863194e+003
         vertex 2.338507e+003 1.395417e+003 1.866858e+003
      endloop
   endfacet
   facet normal 0.000000e+000 1.000000e+000 -1.040834e-017
      outer loop
         vertex 2.338507e+003 1.395417e+003 1.866858e+003
         vertex 2.336792e+003 1.395417e+003 1.863194e+003
         vertex 2.335936e+003 1.395417e+003 1.863794e+003
      endloop
   endfacet
   facet normal 0.000000e+000 1.000000e+000 -1.040834e-017
      outer loop
         vertex 2.338507e+003 1.395417e+003 1.866858e+003
         vertex 2.335936e+003 1.395417e+003 1.863794e+003
         vertex 2.338260e+003 1.395417e+003 1.867104e+003
      endloop
   endfacet
   facet normal 0.000000e+000 1.000000e+000 -1.040834e-017
      outer loop
         vertex 2.338260e+003 1.395417e+003 1.867104e+003
         vertex 2.335936e+003 1.395417e+003 1.863794e+003
         vertex 2.335196e+003 1.395417e+003 1.864533e+003
      endloop
   endfacet
   facet normal 0.000000e+000 1.000000e+000 -1.040834e-017
      outer loop
         vertex 2.338260e+003 1.395417e+003 1.867104e+003
         vertex 2.335196e+003 1.395417e+003 1.864533e+003
         vertex 2.338060e+003 1.395417e+003 1.867390e+003
      endloop
   endfacet
   facet normal 0.000000e+000 1.000000e+000 -1.040834e-017
      outer loop
         vertex 2.338060e+003 1.395417e+003 1.867390e+003
         vertex 2.335196e+003 1.395417e+003 1.864533e+003
         vertex 2.334596e+003 1.395417e+003 1.865390e+003
      endloop
   endfacet
   facet normal 0.000000e+000 1.000000e+000 -1.040834e-017
      outer loop
         vertex 2.338060e+003 1.395417e+003 1.867390e+003
         vertex 2.334596e+003 1.395417e+003 1.865390e+003
         vertex 2.337913e+003 1.395417e+003 1.867706e+003
      endloop
   endfacet
   facet normal 0.000000e+000 1.000000e+000 -1.040834e-017
      outer loop
         vertex 2.337913e+003 1.395417e+003 1.867706e+003
         vertex 2.334596e+003 1.395417e+003 1.865390e+003
         vertex 2.334154e+003 1.395417e+003 1.866338e+003
      endloop
   endfacet
   facet normal 0.000000e+000 1.000000e+000 -1.040834e-017
      outer loop
         vertex 2.337913e+003 1.395417e+003 1.867706e+003
         vertex 2.334154e+003 1.395417e+003 1.866338e+003
         vertex 2.337823e+003 1.395417e+003 1.868043e+003
      endloop
   endfacet
   facet normal 0.000000e+000 1.000000e+000 -1.040834e-017
      outer loop
         vertex 2.337823e+003 1.395417e+003 1.868043e+003
         vertex 2.334154e+003 1.395417e+003 1.866338e+003
         vertex 2.333883e+003 1.395417e+003 1.867348e+003
      endloop
   endfacet
   facet normal 0.000000e+000 1.000000e+000 -1.040834e-017
      outer loop
         vertex 2.337823e+003 1.395417e+003 1.868043e+003
         vertex 2.333883e+003 1.395417e+003 1.867348e+003
         vertex 2.337792e+003 1.395417e+003 1.868390e+003
      endloop
   endfacet
   facet normal 0.000000e+000 1.000000e+000 -1.040834e-017
      outer loop
         vertex 2.337792e+003 1.395417e+003 1.868390e+003
         vertex 2.333883e+003 1.395417e+003 1.867348e+003
         vertex 2.333792e+003 1.395417e+003 1.868390e+003
      endloop
   endfacet
   facet normal 0.000000e+000 -1.000000e+000 1.040834e-017
      outer loop
         vertex 2.337913e+003 4.914173e+002 1.867706e+003
         vertex 2.334154e+003 4.914173e+002 1.866338e+003
         vertex 2.338060e+003 4.914173e+002 1.867390e+003
      endloop
   endfacet
   facet normal 0.000000e+000 -1.000000e+000 1.040834e-017
      outer loop
         vertex 2.338060e+003 4.914173e+002 1.867390e+003
         vertex 2.334154e+003 4.914173e+002 1.866338e+003
         vertex 2.334596e+003 4.914173e+002 1.865390e+003
      endloop
   endfacet
   facet normal 0.000000e+000 -1.000000e+000 1.040834e-017
      outer loop
         vertex 2.338060e+003 4.914173e+002 1.867390e+003
         vertex 2.334596e+003 4.914173e+002 1.865390e+003
         vertex 2.338260e+003 4.914173e+002 1.867104e+003
      endloop
   endfacet
   facet normal 0.000000e+000 -1.000000e+000 1.040834e-017
      outer loop
         vertex 2.338260e+003 4.914173e+002 1.867104e+003
         vertex 2.334596e+003 4.914173e+002 1.865390e+003
         vertex 2.335196e+003 4.914173e+002 1.864533e+003
      endloop
   endfacet
   facet normal 0.000000e+000 -1.000000e+000 1.040834e-017
      outer loop
         vertex 2.338260e+003 4.914173e+002 1.867104e+003
         vertex 2.335196e+003 4.914173e+002 1.864533e+003
         vertex 2.338507e+003 4.914173e+002 1.866858e+003
      endloop
   endfacet
   facet normal 0.000000e+000 -1.000000e+000 1.040834e-017
      outer loop
         vertex 2.338507e+003 4.914173e+002 1.866858e+003
         vertex 2.335196e+003 4.914173e+002 1.864533e+003
         vertex 2.335936e+003 4.914173e+002 1.863794e+003
      endloop
   endfacet
   facet normal 0.000000e+000 -1.000000e+000 1.040834e-017
      outer loop
         vertex 2.338507e+003 4.914173e+002 1.866858e+003
         vertex 2.335936e+003 4.914173e+002 1.863794e+003
         vertex 2.338792e+003 4.914173e+002 1.866658e+003
      endloop
   endfacet
   facet normal 0.000000e+000 -1.000000e+000 1.040834e-017
      outer loop
         vertex 2.338792e+003 4.914173e+002 1.866658e+003
         vertex 2.335936e+003 4.914173e+002 1.863794e+003
         vertex 2.336792e+003 4.914173e+002 1.863194e+003
      endloop
   endfacet
   facet normal 0.000000e+000 -1.000000e+000 1.040834e-017
      outer loop
         vertex 2.338792e+003 4.914173e+002 1.866658e+003
         vertex 2.336792e+003 4.914173e+002 1.863194e+003
         vertex 2.339108e+003 4.914173e+002 1.866510e+003
      endloop
   endfacet
   facet normal 0.000000e+000 -1.000000e+000 1.040834e-017
      outer loop
         vertex 2.339108e+003 4.914173e+002 1.866510e+003
         vertex 2.336792e+003 4.914173e+002 1.863194e+003
         vertex 2.337740e+003 4.914173e+002 1.862752e+003
      endloop
   endfacet
   facet normal 0.000000e+000 -1.000000e+000 1.040834e-017
      outer loop
         vertex 2.339108e+003 4.914173e+002 1.866510e+003
         vertex 2.337740e+003 4.914173e+002 1.862752e+003
         vertex 2.339445e+003 4.914173e+002 1.866420e+003
      endloop
   endfacet
   facet normal 0.000000e+000 -1.000000e+000 1.040834e-017
      outer loop
         vertex 2.339445e+003 4.914173e+002 1.866420e+003
         vertex 2.337740e+003 4.914173e+002 1.862752e+003
         vertex 2.338750e+003 4.914173e+002 1.862481e+003
      endloop
   endfacet
   facet normal 0.000000e+000 -1.000000e+000 1.040834e-017
      outer loop
         vertex 2.339445e+003 4.914173e+002 1.866420e+003
         vertex 2.338750e+003 4.914173e+002 1.862481e+003
         vertex 2.339792e+003 4.914173e+002 1.866390e+003
      endloop
   endfacet
   facet normal 0.000000e+000 -1.000000e+000 1.040834e-017
      outer loop
         vertex 2.339792e+003 4.914173e+002 1.866390e+003
         vertex 2.338750e+003 4.914173e+002 1.862481e+003
         vertex 2.339792e+003 4.914173e+002 1.862390e+003
      endloop
   endfacet
   facet normal 0.000000e+000 -1.000000e+000 1.040834e-017
      outer loop
         vertex 2.339792e+003 4.914173e+002 1.866390e+003
         vertex 2.339792e+003 4.914173e+002 1.862390e+003
         vertex 2.367792e+003 4.914173e+002 1.866390e+003
      endloop
   endfacet
   facet normal 0.000000e+000 -1.000000e+000 1.040834e-017
      outer loop
         vertex 2.367792e+003 4.914173e+002 1.866390e+003
         vertex 2.339792e+003 4.914173e+002 1.862390e+003
         vertex 2.367792e+003 4.914173e+002 1.862390e+003
      endloop
   endfacet
   facet normal 0.000000e+000 -1.000000e+000 1.040834e-017
      outer loop
         vertex 2.367792e+003 4.914173e+002 1.866390e+003
         vertex 2.367792e+003 4.914173e+002 1.862390e+003
         vertex 2.368139e+003 4.914173e+002 1.866420e+003
      endloop
   endfacet
   facet normal 0.000000e+000 -1.000000e+000 1.040834e-017
      outer loop
         vertex 2.368139e+003 4.914173e+002 1.866420e+003
         vertex 2.367792e+003 4.914173e+002 1.862390e+003
         vertex 2.368834e+003 4.914173e+002 1.862481e+003
      endloop
   endfacet
   facet normal 0.000000e+000 -1.000000e+000 1.040834e-017
      outer loop
         vertex 2.368139e+003 4.914173e+002 1.866420e+003
         vertex 2.368834e+003 4.914173e+002 1.862481e+003
         vertex 2.368476e+003 4.914173e+002 1.866510e+003
      endloop
   endfacet
   facet normal 0.000000e+000 -1.000000e+000 1.040834e-017
      outer loop
         vertex 2.368476e+003 4.914173e+002 1.866510e+003
         vertex 2.368834e+003 4.914173e+002 1.862481e+003
         vertex 2.369844e+003 4.914173e+002 1.862752e+003
      endloop
   endfacet
   facet normal 0.000000e+000 -1.000000e+000 1.040834e-017
      outer loop
         vertex 2.368476e+003 4.914173e+002 1.866510e+003
         vertex 2.369844e+003 4.914173e+002 1.862752e+003
         vertex 2.368792e+003 4.914173e+002 1.866658e+003
      endloop
   endfacet
   facet normal 0.000000e+000 -1.000000e+000 1.040834e-017
      outer loop
         vertex 2.368792e+003 4.914173e+002 1.866658e+003
         vertex 2.369844e+003 4.914173e+002 1.862752e+003
         vertex 2.370792e+003 4.914173e+002 1.863194e+003
      endloop
   endfacet
   facet normal 0.000000e+000 -1.000000e+000 1.040834e-017
      outer loop
         vertex 2.368792e+003 4.914173e+002 1.866658e+003
         vertex 2.370792e+003 4.914173e+002 1.863194e+003
         vertex 2.369078e+003 4.914173e+002 1.866858e+003
      endloop
   endfacet
   facet normal 0.000000e+000 -1.000000e+000 1.040834e-017
      outer loop
         vertex 2.369078e+003 4.914173e+002 1.866858e+003
         vertex 2.370792e+003 4.914173e+002 1.863194e+003
         vertex 2.371649e+003 4.914173e+002 1.863794e+003
      endloop
   endfacet
   facet normal 0.000000e+000 -1.000000e+000 1.040834e-017
      outer loop
         vertex 2.369078e+003 4.914173e+002 1.866858e+003
         vertex 2.371649e+003 4.914173e+002 1.863794e+003
         vertex 2.369324e+003 4.914173e+002 1.867104e+003
      endloop
   endfacet
   facet normal 0.000000e+000 -1.000000e+000 1.040834e-017
      outer loop
         vertex 2.369324e+003 4.914173e+002 1.867104e+003
         vertex 2.371649e+003 4.914173e+002 1.863794e+003
         vertex 2.372388e+003 4.914173e+002 1.864533e+003
      endloop
   endfacet
   facet normal 0.000000e+000 -1.000000e+000 1.040834e-017
      outer loop
         vertex 2.369324e+003 4.914173e+002 1.867104e+003
         vertex 2.372388e+003 4.914173e+002 1.864533e+003
         vertex 2.369524e+003 4.914173e+002 1.867390e+003
      endloop
   endfacet
   facet normal 0.000000e+000 -1.000000e+000 1.040834e-017
      outer loop
         vertex 2.369524e+003 4.914173e+002 1.867390e+003
         vertex 2.372388e+003 4.914173e+002 1.864533e+003
         vertex 2.372989e+003 4.914173e+002 1.865390e+003
      endloop
   endfacet
   facet normal 0.000000e+000 -1.000000e+000 1.040834e-017
      outer loop
         vertex 2.369524e+003 4.914173e+002 1.867390e+003
         vertex 2.372989e+003 4.914173e+002 1.865390e+003
         vertex 2.369672e+003 4.914173e+002 1.867706e+003
      endloop
   endfacet
   facet normal 0.000000e+000 -1.000000e+000 1.040834e-017
      outer loop
         vertex 2.369672e+003 4.914173e+002 1.867706e+003
         vertex 2.372989e+003 4.914173e+002 1.865390e+003
         vertex 2.373430e+003 4.914173e+002 1.866338e+003
      endloop
   endfacet
   facet normal 0.000000e+000 -1.000000e+000 1.040834e-017
      outer loop
         vertex 2.369672e+003 4.914173e+002 1.867706e+003
         vertex 2.373430e+003 4.914173e+002 1.866338e+003
         vertex 2.369762e+003 4.914173e+002 1.868043e+003
      endloop
   endfacet
   facet normal 0.000000e+000 -1.000000e+000 1.040834e-017
      outer loop
         vertex 2.369762e+003 4.914173e+002 1.868043e+003
         vertex 2.373430e+003 4.914173e+002 1.866338e+003
         vertex 2.373701e+003 4.914173e+002 1.867348e+003
      endloop
   endfacet
   facet normal 0.000000e+000 -1.000000e+000 1.040834e-017
      outer loop
         vertex 2.369762e+003 4.914173e+002 1.868043e+003
         vertex 2.373701e+003 4.914173e+002 1.867348e+003
         vertex 2.369792e+003 4.914173e+002 1.868390e+003
      endloop
   endfacet
   facet normal 0.000000e+000 -1.000000e+000 1.040834e-017
      outer loop
         vertex 2.369792e+003 4.914173e+002 1.868390e+003
         vertex 2.373701e+003 4.914173e+002 1.867348e+003
         vertex 2.373792e+003 4.914173e+002 1.868390e+003
      endloop
   endfacet
   facet normal 0.000000e+000 -1.000000e+000 1.040834e-017
      outer loop
         vertex 2.369792e+003 4.914173e+002 1.868390e+003
         vertex 2.373792e+003 4.914173e+002 1.868390e+003
         vertex 2.369792e+003 4.914173e+002 1.916390e+003
      endloop
   endfacet
   facet normal 0.000000e+000 -1.000000e+000 1.040834e-017
      outer loop
         vertex 2.369792e+003 4.914173e+002 1.916390e+003
         vertex 2.373792e+003 4.914173e+002 1.868390e+003
         vertex 2.373792e+003 4.914173e+002 1.916390e+003
      endloop
   endfacet
   facet normal 0.000000e+000 -1.000000e+000 1.040834e-017
      outer loop
         vertex 2.369792e+003 4.914173e+002 1.916390e+003
         vertex 2.373792e+003 4.914173e+002 1.916390e+003
         vertex 2.369762e+003 4.914173e+002 1.916737e+003
      endloop
   endfacet
   facet normal 0.000000e+000 -1.000000e+000 1.040834e-017
      outer loop
         vertex 2.369762e+003 4.914173e+002 1.916737e+003
         vertex 2.373792e+003 4.914173e+002 1.916390e+003
         vertex 2.373701e+003 4.914173e+002 1.917432e+003
      endloop
   endfacet
   facet normal 0.000000e+000 -1.000000e+000 1.040834e-017
      outer loop
         vertex 2.369762e+003 4.914173e+002 1.916737e+003
         vertex 2.373701e+003 4.914173e+002 1.917432e+003
         vertex 2.369672e+003 4.914173e+002 1.917074e+003
      endloop
   endfacet
   facet normal 0.000000e+000 -1.000000e+000 1.040834e-017
      outer loop
         vertex 2.369672e+003 4.914173e+002 1.917074e+003
         vertex 2.373701e+003 4.914173e+002 1.917432e+003
         vertex 2.373430e+003 4.914173e+002 1.918442e+003
      endloop
   endfacet
   facet normal 0.000000e+000 -1.000000e+000 1.040834e-017
      outer loop
         vertex 2.369672e+003 4.914173e+002 1.917074e+003
         vertex 2.373430e+003 4.914173e+002 1.918442e+003
         vertex 2.369524e+003 4.914173e+002 1.917390e+003
      endloop
   endfacet
   facet normal 0.000000e+000 -1.000000e+000 1.040834e-017
      outer loop
         vertex 2.369524e+003 4.914173e+002 1.917390e+003
         vertex 2.373430e+003 4.914173e+002 1.918442e+003
         vertex 2.372989e+003 4.914173e+002 1.919390e+003
      endloop
   endfacet
   facet normal 0.000000e+000 -1.000000e+000 1.040834e-017
      outer loop
         vertex 2.369524e+003 4.914173e+002 1.917390e+003
         vertex 2.372989e+003 4.914173e+002 1.919390e+003
         vertex 2.369324e+003 4.914173e+002 1.917676e+003
      endloop
   endfacet
   facet normal 0.000000e+000 -1.000000e+000 1.040834e-017
      outer loop
         vertex 2.369324e+003 4.914173e+002 1.917676e+003
         vertex 2.372989e+003 4.914173e+002 1.919390e+003
         vertex 2.372388e+003 4.914173e+002 1.920247e+003
      endloop
   endfacet
   facet normal 0.000000e+000 -1.000000e+000 1.040834e-017
      outer loop
         vertex 2.369324e+003 4.914173e+002 1.917676e+003
         vertex 2.372388e+003 4.914173e+002 1.920247e+003
         vertex 2.369078e+003 4.914173e+002 1.917922e+003
      endloop
   endfacet
   facet normal 0.000000e+000 -1.000000e+000 1.040834e-017
      outer loop
         vertex 2.369078e+003 4.914173e+002 1.917922e+003
         vertex 2.372388e+003 4.914173e+002 1.920247e+003
         vertex 2.371649e+003 4.914173e+002 1.920986e+003
      endloop
   endfacet
   facet normal 0.000000e+000 -1.000000e+000 1.040834e-017
      outer loop
         vertex 2.369078e+003 4.914173e+002 1.917922e+003
         vertex 2.371649e+003 4.914173e+002 1.920986e+003
         vertex 2.368792e+003 4.914173e+002 1.918122e+003
      endloop
   endfacet
   facet normal 0.000000e+000 -1.000000e+000 1.040834e-017
      outer loop
         vertex 2.368792e+003 4.914173e+002 1.918122e+003
         vertex 2.371649e+003 4.914173e+002 1.920986e+003
         vertex 2.370792e+003 4.914173e+002 1.921586e+003
      endloop
   endfacet
   facet normal 0.000000e+000 -1.000000e+000 1.040834e-017
      outer loop
         vertex 2.368792e+003 4.914173e+002 1.918122e+003
         vertex 2.370792e+003 4.914173e+002 1.921586e+003
         vertex 2.368476e+003 4.914173e+002 1.918269e+003
      endloop
   endfacet
   facet normal 0.000000e+000 -1.000000e+000 1.040834e-017
      outer loop
         vertex 2.368476e+003 4.914173e+002 1.918269e+003
         vertex 2.370792e+003 4.914173e+002 1.921586e+003
         vertex 2.369844e+003 4.914173e+002 1.922028e+003
      endloop
   endfacet
   facet normal 0.000000e+000 -1.000000e+000 1.040834e-017
      outer loop
         vertex 2.368476e+003 4.914173e+002 1.918269e+003
         vertex 2.369844e+003 4.914173e+002 1.922028e+003
         vertex 2.368139e+003 4.914173e+002 1.918359e+003
      endloop
   endfacet
   facet normal 0.000000e+000 -1.000000e+000 1.040834e-017
      outer loop
         vertex 2.368139e+003 4.914173e+002 1.918359e+003
         vertex 2.369844e+003 4.914173e+002 1.922028e+003
         vertex 2.368834e+003 4.914173e+002 1.922299e+003
      endloop
   endfacet
   facet normal 0.000000e+000 -1.000000e+000 1.040834e-017
      outer loop
         vertex 2.368139e+003 4.914173e+002 1.918359e+003
         vertex 2.368834e+003 4.914173e+002 1.922299e+003
         vertex 2.367792e+003 4.914173e+002 1.918390e+003
      endloop
   endfacet
   facet normal 0.000000e+000 -1.000000e+000 1.040834e-017
      outer loop
         vertex 2.367792e+003 4.914173e+002 1.918390e+003
         vertex 2.368834e+003 4.914173e+002 1.922299e+003
         vertex 2.367792e+003 4.914173e+002 1.922390e+003
      endloop
   endfacet
   facet normal 0.000000e+000 -1.000000e+000 1.040834e-017
      outer loop
         vertex 2.367792e+003 4.914173e+002 1.918390e+003
         vertex 2.367792e+003 4.914173e+002 1.922390e+003
         vertex 2.339792e+003 4.914173e+002 1.918390e+003
      endloop
   endfacet
   facet normal 0.000000e+000 -1.000000e+000 1.040834e-017
      outer loop
         vertex 2.339792e+003 4.914173e+002 1.918390e+003
         vertex 2.367792e+003 4.914173e+002 1.922390e+003
         vertex 2.339792e+003 4.914173e+002 1.922390e+003
      endloop
   endfacet
   facet normal 0.000000e+000 -1.000000e+000 1.040834e-017
      outer loop
         vertex 2.339792e+003 4.914173e+002 1.918390e+003
         vertex 2.339792e+003 4.914173e+002 1.922390e+003
         vertex 2.339445e+003 4.914173e+002 1.918359e+003
      endloop
   endfacet
   facet normal 0.000000e+000 -1.000000e+000 1.040834e-017
      outer loop
         vertex 2.339445e+003 4.914173e+002 1.918359e+003
         vertex 2.339792e+003 4.914173e+002 1.922390e+003
         vertex 2.338750e+003 4.914173e+002 1.922299e+003
      endloop
   endfacet
   facet normal 0.000000e+000 -1.000000e+000 1.040834e-017
      outer loop
         vertex 2.339445e+003 4.914173e+002 1.918359e+003
         vertex 2.338750e+003 4.914173e+002 1.922299e+003
         vertex 2.339108e+003 4.914173e+002 1.918269e+003
      endloop
   endfacet
   facet normal 0.000000e+000 -1.000000e+000 1.040834e-017
      outer loop
         vertex 2.339108e+003 4.914173e+002 1.918269e+003
         vertex 2.338750e+003 4.914173e+002 1.922299e+003
         vertex 2.337740e+003 4.914173e+002 1.922028e+003
      endloop
   endfacet
   facet normal 0.000000e+000 -1.000000e+000 1.040834e-017
      outer loop
         vertex 2.339108e+003 4.914173e+002 1.918269e+003
         vertex 2.337740e+003 4.914173e+002 1.922028e+003
         vertex 2.338792e+003 4.914173e+002 1.918122e+003
      endloop
   endfacet
   facet normal 0.000000e+000 -1.000000e+000 1.040834e-017
      outer loop
         vertex 2.338792e+003 4.914173e+002 1.918122e+003
         vertex 2.337740e+003 4.914173e+002 1.922028e+003
         vertex 2.336792e+003 4.914173e+002 1.921586e+003
      endloop
   endfacet
   facet normal 0.000000e+000 -1.000000e+000 1.040834e-017
      outer loop
         vertex 2.338792e+003 4.914173e+002 1.918122e+003
         vertex 2.336792e+003 4.914173e+002 1.921586e+003
         vertex 2.338507e+003 4.914173e+002 1.917922e+003
      endloop
   endfacet
   facet normal 0.000000e+000 -1.000000e+000 1.040834e-017
      outer loop
         vertex 2.338507e+003 4.914173e+002 1.917922e+003
         vertex 2.336792e+003 4.914173e+002 1.921586e+003
         vertex 2.335936e+003 4.914173e+002 1.920986e+003
      endloop
   endfacet
   facet normal 0.000000e+000 -1.000000e+000 1.040834e-017
      outer loop
         vertex 2.338507e+003 4.914173e+002 1.917922e+003
         vertex 2.335936e+003 4.914173e+002 1.920986e+003
         vertex 2.338260e+003 4.914173e+002 1.917676e+003
      endloop
   endfacet
   facet normal 0.000000e+000 -1.000000e+000 1.040834e-017
      outer loop
         vertex 2.338260e+003 4.914173e+002 1.917676e+003
         vertex 2.335936e+003 4.914173e+002 1.920986e+003
         vertex 2.335196e+003 4.914173e+002 1.920247e+003
      endloop
   endfacet
   facet normal 0.000000e+000 -1.000000e+000 1.040834e-017
      outer loop
         vertex 2.338260e+003 4.914173e+002 1.917676e+003
         vertex 2.335196e+003 4.914173e+002 1.920247e+003
         vertex 2.338060e+003 4.914173e+002 1.917390e+003
      endloop
   endfacet
   facet normal 0.000000e+000 -1.000000e+000 1.040834e-017
      outer loop
         vertex 2.338060e+003 4.914173e+002 1.917390e+003
         vertex 2.335196e+003 4.914173e+002 1.920247e+003
         vertex 2.334596e+003 4.914173e+002 1.919390e+003
      endloop
   endfacet
   facet normal 0.000000e+000 -1.000000e+000 1.040834e-017
      outer loop
         vertex 2.338060e+003 4.914173e+002 1.917390e+003
         vertex 2.334596e+003 4.914173e+002 1.919390e+003
         vertex 2.337913e+003 4.914173e+002 1.917074e+003
      endloop
   endfacet
   facet normal 0.000000e+000 -1.000000e+000 1.040834e-017
      outer loop
         vertex 2.337913e+003 4.914173e+002 1.917074e+003
         vertex 2.334596e+003 4.914173e+002 1.919390e+003
         vertex 2.334154e+003 4.914173e+002 1.918442e+003
      endloop
   endfacet
   facet normal 0.000000e+000 -1.000000e+000 1.040834e-017
      outer loop
         vertex 2.337913e+003 4.914173e+002 1.917074e+003
         vertex 2.334154e+003 4.914173e+002 1.918442e+003
         vertex 2.337823e+003 4.914173e+002 1.916737e+003
      endloop
   endfacet
   facet normal 0.000000e+000 -1.000000e+000 1.040834e-017
      outer loop
         vertex 2.337823e+003 4.914173e+002 1.916737e+003
         vertex 2.334154e+003 4.914173e+002 1.918442e+003
         vertex 2.333883e+003 4.914173e+002 1.917432e+003
      endloop
   endfacet
   facet normal 0.000000e+000 -1.000000e+000 1.040834e-017
      outer loop
         vertex 2.337823e+003 4.914173e+002 1.916737e+003
         vertex 2.333883e+003 4.914173e+002 1.917432e+003
         vertex 2.337792e+003 4.914173e+002 1.916390e+003
      endloop
   endfacet
   facet normal 0.000000e+000 -1.000000e+000 1.040834e-017
      outer loop
         vertex 2.337792e+003 4.914173e+002 1.916390e+003
         vertex 2.333883e+003 4.914173e+002 1.917432e+003
         vertex 2.333792e+003 4.914173e+002 1.916390e+003
      endloop
   endfacet
   facet normal 0.000000e+000 -1.000000e+000 1.040834e-017
      outer loop
         vertex 2.337792e+003 4.914173e+002 1.916390e+003
         vertex 2.333792e+003 4.914173e+002 1.916390e+003
         vertex 2.337792e+003 4.914173e+002 1.868390e+003
      endloop
   endfacet
   facet normal 0.000000e+000 -1.000000e+000 1.040834e-017
      outer loop
         vertex 2.337792e+003 4.914173e+002 1.868390e+003
         vertex 2.333792e+003 4.914173e+002 1.916390e+003
         vertex 2.333792e+003 4.914173e+002 1.868390e+003
      endloop
   endfacet
   facet normal 0.000000e+000 -1.000000e+000 1.040834e-017
      outer loop
         vertex 2.337792e+003 4.914173e+002 1.868390e+003
         vertex 2.333792e+003 4.914173e+002 1.868390e+003
         vertex 2.337823e+003 4.914173e+002 1.868043e+003
      endloop
   endfacet
   facet normal 0.000000e+000 -1.000000e+000 1.040834e-017
      outer loop
         vertex 2.337823e+003 4.914173e+002 1.868043e+003
         vertex 2.333792e+003 4.914173e+002 1.868390e+003
         vertex 2.333883e+003 4.914173e+002 1.867348e+003
      endloop
   endfacet
   facet normal 0.000000e+000 -1.000000e+000 1.040834e-017
      outer loop
         vertex 2.337823e+003 4.914173e+002 1.868043e+003
         vertex 2.333883e+003 4.914173e+002 1.867348e+003
         vertex 2.337913e+003 4.914173e+002 1.867706e+003
      endloop
   endfacet
   facet normal 0.000000e+000 -1.000000e+000 1.040834e-017
      outer loop
         vertex 2.337913e+003 4.914173e+002 1.867706e+003
         vertex 2.333883e+003 4.914173e+002 1.867348e+003
         vertex 2.334154e+003 4.914173e+002 1.866338e+003
      endloop
   endfacet
   facet normal -1.000000e+000 0.000000e+000 -0.000000e+000
      outer loop
         vertex 2.333792e+003 1.395417e+003 1.916390e+003
         vertex 2.333792e+003 1.395417e+003 1.868390e+003
         vertex 2.333792e+003 4.914173e+002 1.916390e+003
      endloop
   endfacet
   facet normal -1.000000e+000 0.000000e+000 -0.000000e+000
      outer loop
         vertex 2.333792e+003 4.914173e+002 1.916390e+003
         vertex 2.333792e+003 1.395417e+003 1.868390e+003
         vertex 2.333792e+003 4.914173e+002 1.868390e+003
      endloop
   endfacet
   facet normal 0.000000e+000 1.040834e-017 1.000000e+000
      outer loop
         vertex 2.339792e+003 4.914173e+002 1.922390e+003
         vertex 2.367792e+003 4.914173e+002 1.922390e+003
         vertex 2.339792e+003 1.395417e+003 1.922390e+003
      endloop
   endfacet
   facet normal 0.000000e+000 1.040834e-017 1.000000e+000
      outer loop
         vertex 2.339792e+003 1.395417e+003 1.922390e+003
         vertex 2.367792e+003 4.914173e+002 1.922390e+003
         vertex 2.367792e+003 1.395417e+003 1.922390e+003
      endloop
   endfacet
   facet normal 1.000000e+000 0.000000e+000 0.000000e+000
      outer loop
         vertex 2.373792e+003 4.914173e+002 1.916390e+003
         vertex 2.373792e+003 4.914173e+002 1.868390e+003
         vertex 2.373792e+003 1.395417e+003 1.916390e+003
      endloop
   endfacet
   facet normal 1.000000e+000 0.000000e+000 0.000000e+000
      outer loop
         vertex 2.373792e+003 1.395417e+003 1.916390e+003
         vertex 2.373792e+003 4.914173e+002 1.868390e+003
         vertex 2.373792e+003 1.395417e+003 1.868390e+003
      endloop
   endfacet
   facet normal 0.000000e+000 -1.040834e-017 -1.000000e+000
      outer loop
         vertex 2.339792e+003 1.395417e+003 1.862390e+003
         vertex 2.367792e+003 1.395417e+003 1.862390e+003
         vertex 2.339792e+003 4.914173e+002 1.862390e+003
      endloop
   endfacet
   facet normal 0.000000e+000 -1.040834e-017 -1.000000e+000
      outer loop
         vertex 2.339792e+003 4.914173e+002 1.862390e+003
         vertex 2.367792e+003 1.395417e+003 1.862390e+003
         vertex 2.367792e+003 4.914173e+002 1.862390e+003
      endloop
   endfacet
   facet normal -9.983120e-001 6.045075e-019 5.807914e-002
      outer loop
         vertex 2.333792e+003 1.395417e+003 1.916390e+003
         vertex 2.333792e+003 4.914173e+002 1.916390e+003
         vertex 2.333883e+003 4.914173e+002 1.917432e+003
      endloop
   endfacet
   facet normal -9.932307e-001 1.209015e-018 1.161583e-001
      outer loop
         vertex 2.333792e+003 1.395417e+003 1.916390e+003
         vertex 2.333883e+003 4.914173e+002 1.917432e+003
         vertex 2.333883e+003 1.395417e+003 1.917432e+003
      endloop
   endfacet
   facet normal -9.730601e-001 2.399662e-018 2.305518e-001
      outer loop
         vertex 2.333883e+003 1.395417e+003 1.917432e+003
         vertex 2.333883e+003 4.914173e+002 1.917432e+003
         vertex 2.334154e+003 4.914173e+002 1.918442e+003
      endloop
   endfacet
   facet normal -9.579706e-001 2.985802e-018 2.868663e-001
      outer loop
         vertex 2.333883e+003 1.395417e+003 1.917432e+003
         vertex 2.334154e+003 4.914173e+002 1.918442e+003
         vertex 2.334154e+003 1.395417e+003 1.918442e+003
      endloop
   endfacet
   facet normal -9.182422e-001 4.121905e-018 3.960194e-001
      outer loop
         vertex 2.334154e+003 1.395417e+003 1.918442e+003
         vertex 2.334154e+003 4.914173e+002 1.918442e+003
         vertex 2.334596e+003 4.914173e+002 1.919390e+003
      endloop
   endfacet
   facet normal -8.936031e-001 4.671867e-018 4.488580e-001
      outer loop
         vertex 2.334154e+003 1.395417e+003 1.918442e+003
         vertex 2.334596e+003 4.914173e+002 1.919390e+003
         vertex 2.334596e+003 1.395417e+003 1.919390e+003
      endloop
   endfacet
   facet normal -8.355240e-001 5.718904e-018 5.494540e-001
      outer loop
         vertex 2.334596e+003 1.395417e+003 1.919390e+003
         vertex 2.334596e+003 4.914173e+002 1.919390e+003
         vertex 2.335196e+003 4.914173e+002 1.920247e+003
      endloop
   endfacet
   facet normal -8.020839e-001 6.215980e-018 5.972114e-001
      outer loop
         vertex 2.334596e+003 1.395417e+003 1.919390e+003
         vertex 2.335196e+003 4.914173e+002 1.920247e+003
         vertex 2.335196e+003 1.395417e+003 1.920247e+003
      endloop
   endfacet
   facet normal -7.274188e-001 7.142139e-018 6.861938e-001
      outer loop
         vertex 2.335196e+003 1.395417e+003 1.920247e+003
         vertex 2.335196e+003 4.914173e+002 1.920247e+003
         vertex 2.335936e+003 4.914173e+002 1.920986e+003
      endloop
   endfacet
   facet normal -6.861938e-001 7.571223e-018 7.274188e-001
      outer loop
         vertex 2.335196e+003 1.395417e+003 1.920247e+003
         vertex 2.335936e+003 4.914173e+002 1.920986e+003
         vertex 2.335936e+003 1.395417e+003 1.920986e+003
      endloop
   endfacet
   facet normal -5.972114e-001 8.348363e-018 8.020839e-001
      outer loop
         vertex 2.335936e+003 1.395417e+003 1.920986e+003
         vertex 2.335936e+003 4.914173e+002 1.920986e+003
         vertex 2.336792e+003 4.914173e+002 1.921586e+003
      endloop
   endfacet
   facet normal -5.494540e-001 8.696419e-018 8.355240e-001
      outer loop
         vertex 2.335936e+003 1.395417e+003 1.920986e+003
         vertex 2.336792e+003 4.914173e+002 1.921586e+003
         vertex 2.336792e+003 1.395417e+003 1.921586e+003
      endloop
   endfacet
   facet normal -4.488580e-001 9.300926e-018 8.936031e-001
      outer loop
         vertex 2.336792e+003 1.395417e+003 1.921586e+003
         vertex 2.336792e+003 4.914173e+002 1.921586e+003
         vertex 2.337740e+003 4.914173e+002 1.922028e+003
      endloop
   endfacet
   facet normal -3.960194e-001 9.557377e-018 9.182422e-001
      outer loop
         vertex 2.336792e+003 1.395417e+003 1.921586e+003
         vertex 2.337740e+003 4.914173e+002 1.922028e+003
         vertex 2.337740e+003 1.395417e+003 1.922028e+003
      endloop
   endfacet
   facet normal -2.868663e-001 9.970885e-018 9.579706e-001
      outer loop
         vertex 2.337740e+003 1.395417e+003 1.922028e+003
         vertex 2.337740e+003 4.914173e+002 1.922028e+003
         vertex 2.338750e+003 4.914173e+002 1.922299e+003
      endloop
   endfacet
   facet normal -2.305518e-001 1.012794e-017 9.730601e-001
      outer loop
         vertex 2.337740e+003 1.395417e+003 1.922028e+003
         vertex 2.338750e+003 4.914173e+002 1.922299e+003
         vertex 2.338750e+003 1.395417e+003 1.922299e+003
      endloop
   endfacet
   facet normal -1.161583e-001 1.033788e-017 9.932307e-001
      outer loop
         vertex 2.338750e+003 1.395417e+003 1.922299e+003
         vertex 2.338750e+003 4.914173e+002 1.922299e+003
         vertex 2.339792e+003 4.914173e+002 1.922390e+003
      endloop
   endfacet
   facet normal -5.807914e-002 1.039077e-017 9.983120e-001
      outer loop
         vertex 2.338750e+003 1.395417e+003 1.922299e+003
         vertex 2.339792e+003 4.914173e+002 1.922390e+003
         vertex 2.339792e+003 1.395417e+003 1.922390e+003
      endloop
   endfacet
   facet normal 5.807914e-002 1.039077e-017 9.983120e-001
      outer loop
         vertex 2.367792e+003 1.395417e+003 1.922390e+003
         vertex 2.367792e+003 4.914173e+002 1.922390e+003
         vertex 2.368834e+003 4.914173e+002 1.922299e+003
      endloop
   endfacet
   facet normal 1.161583e-001 1.033788e-017 9.932307e-001
      outer loop
         vertex 2.367792e+003 1.395417e+003 1.922390e+003
         vertex 2.368834e+003 4.914173e+002 1.922299e+003
         vertex 2.368834e+003 1.395417e+003 1.922299e+003
      endloop
   endfacet
   facet normal 2.305518e-001 1.012794e-017 9.730601e-001
      outer loop
         vertex 2.368834e+003 1.395417e+003 1.922299e+003
         vertex 2.368834e+003 4.914173e+002 1.922299e+003
         vertex 2.369844e+003 4.914173e+002 1.922028e+003
      endloop
   endfacet
   facet normal 2.868663e-001 9.970885e-018 9.579706e-001
      outer loop
         vertex 2.368834e+003 1.395417e+003 1.922299e+003
         vertex 2.369844e+003 4.914173e+002 1.922028e+003
         vertex 2.369844e+003 1.395417e+003 1.922028e+003
      endloop
   endfacet
   facet normal 3.960194e-001 9.557377e-018 9.182422e-001
      outer loop
         vertex 2.369844e+003 1.395417e+003 1.922028e+003
         vertex 2.369844e+003 4.914173e+002 1.922028e+003
         vertex 2.370792e+003 4.914173e+002 1.921586e+003
      endloop
   endfacet
   facet normal 4.488580e-001 9.300926e-018 8.936031e-001
      outer loop
         vertex 2.369844e+003 1.395417e+003 1.922028e+003
         vertex 2.370792e+003 4.914173e+002 1.921586e+003
         vertex 2.370792e+003 1.395417e+003 1.921586e+003
      endloop
   endfacet
   facet normal 5.494540e-001 8.696419e-018 8.355240e-001
      outer loop
         vertex 2.370792e+003 1.395417e+003 1.921586e+003
         vertex 2.370792e+003 4.914173e+002 1.921586e+003
         vertex 2.371649e+003 4.914173e+002 1.920986e+003
      endloop
   endfacet
   facet normal 5.972114e-001 8.348363e-018 8.020839e-001
      outer loop
         vertex 2.370792e+003 1.395417e+003 1.921586e+003
         vertex 2.371649e+003 4.914173e+002 1.920986e+003
         vertex 2.371649e+003 1.395417e+003 1.920986e+003
      endloop
   endfacet
   facet normal 6.861938e-001 7.571223e-018 7.274188e-001
      outer loop
         vertex 2.371649e+003 1.395417e+003 1.920986e+003
         vertex 2.371649e+003 4.914173e+002 1.920986e+003
         vertex 2.372388e+003 4.914173e+002 1.920247e+003
      endloop
   endfacet
   facet normal 7.274188e-001 7.142139e-018 6.861938e-001
      outer loop
         vertex 2.371649e+003 1.395417e+003 1.920986e+003
         vertex 2.372388e+003 4.914173e+002 1.920247e+003
         vertex 2.372388e+003 1.395417e+003 1.920247e+003
      endloop
   endfacet
   facet normal 8.020839e-001 6.215980e-018 5.972114e-001
      outer loop
         vertex 2.372388e+003 1.395417e+003 1.920247e+003
         vertex 2.372388e+003 4.914173e+002 1.920247e+003
         vertex 2.372989e+003 4.914173e+002 1.919390e+003
      endloop
   endfacet
   facet normal 8.355240e-001 5.718904e-018 5.494540e-001
      outer loop
         vertex 2.372388e+003 1.395417e+003 1.920247e+003
         vertex 2.372989e+003 4.914173e+002 1.919390e+003
         vertex 2.372989e+003 1.395417e+003 1.919390e+003
      endloop
   endfacet
   facet normal 8.936031e-001 4.671867e-018 4.488580e-001
      outer loop
         vertex 2.372989e+003 1.395417e+003 1.919390e+003
         vertex 2.372989e+003 4.914173e+002 1.919390e+003
         vertex 2.373430e+003 4.914173e+002 1.918442e+003
      endloop
   endfacet
   facet normal 9.182422e-001 4.121905e-018 3.960194e-001
      outer loop
         vertex 2.372989e+003 1.395417e+003 1.919390e+003
         vertex 2.373430e+003 4.914173e+002 1.918442e+003
         vertex 2.373430e+003 1.395417e+003 1.918442e+003
      endloop
   endfacet
   facet normal 9.579706e-001 2.985802e-018 2.868663e-001
      outer loop
         vertex 2.373430e+003 1.395417e+003 1.918442e+003
         vertex 2.373430e+003 4.914173e+002 1.918442e+003
         vertex 2.373701e+003 4.914173e+002 1.917432e+003
      endloop
   endfacet
   facet normal 9.730601e-001 2.399662e-018 2.305518e-001
      outer loop
         vertex 2.373430e+003 1.395417e+003 1.918442e+003
         vertex 2.373701e+003 4.914173e+002 1.917432e+003
         vertex 2.373701e+003 1.395417e+003 1.917432e+003
      endloop
   endfacet
   facet normal 9.932307e-001 1.209015e-018 1.161583e-001
      outer loop
         vertex 2.373701e+003 1.395417e+003 1.917432e+003
         vertex 2.373701e+003 4.914173e+002 1.917432e+003
         vertex 2.373792e+003 4.914173e+002 1.916390e+003
      endloop
   endfacet
   facet normal 9.983120e-001 6.045075e-019 5.807914e-002
      outer loop
         vertex 2.373701e+003 1.395417e+003 1.917432e+003
         vertex 2.373792e+003 4.914173e+002 1.916390e+003
         vertex 2.373792e+003 1.395417e+003 1.916390e+003
      endloop
   endfacet
   facet normal -5.807914e-002 -1.039077e-017 -9.983120e-001
      outer loop
         vertex 2.339792e+003 1.395417e+003 1.862390e+003
         vertex 2.339792e+003 4.914173e+002 1.862390e+003
         vertex 2.338750e+003 4.914173e+002 1.862481e+003
      endloop
   endfacet
   facet normal -1.161583e-001 -1.033788e-017 -9.932307e-001
      outer loop
         vertex 2.339792e+003 1.395417e+003 1.862390e+003
         vertex 2.338750e+003 4.914173e+002 1.862481e+003
         vertex 2.338750e+003 1.395417e+003 1.862481e+003
      endloop
   endfacet
   facet normal -2.305518e-001 -1.012794e-017 -9.730601e-001
      outer loop
         vertex 2.338750e+003 1.395417e+003 1.862481e+003
         vertex 2.338750e+003 4.914173e+002 1.862481e+003
         vertex 2.337740e+003 4.914173e+002 1.862752e+003
      endloop
   endfacet
   facet normal -2.868663e-001 -9.970885e-018 -9.579706e-001
      outer loop
         vertex 2.338750e+003 1.395417e+003 1.862481e+003
         vertex 2.337740e+003 4.914173e+002 1.862752e+003
         vertex 2.337740e+003 1.395417e+003 1.862752e+003
      endloop
   endfacet
   facet normal -3.960194e-001 -9.557377e-018 -9.182422e-001
      outer loop
         vertex 2.337740e+003 1.395417e+003 1.862752e+003
         vertex 2.337740e+003 4.914173e+002 1.862752e+003
         vertex 2.336792e+003 4.914173e+002 1.863194e+003
      endloop
   endfacet
   facet normal -4.488580e-001 -9.300926e-018 -8.936031e-001
      outer loop
         vertex 2.337740e+003 1.395417e+003 1.862752e+003
         vertex 2.336792e+003 4.914173e+002 1.863194e+003
         vertex 2.336792e+003 1.395417e+003 1.863194e+003
      endloop
   endfacet
   facet normal -5.494540e-001 -8.696419e-018 -8.355240e-001
      outer loop
         vertex 2.336792e+003 1.395417e+003 1.863194e+003
         vertex 2.336792e+003 4.914173e+002 1.863194e+003
         vertex 2.335936e+003 4.914173e+002 1.863794e+003
      endloop
   endfacet
   facet normal -5.972114e-001 -8.348363e-018 -8.020839e-001
      outer loop
         vertex 2.336792e+003 1.395417e+003 1.863194e+003
         vertex 2.335936e+003 4.914173e+002 1.863794e+003
         vertex 2.335936e+003 1.395417e+003 1.863794e+003
      endloop
   endfacet
   facet normal -6.861938e-001 -7.571223e-018 -7.274188e-001
      outer loop
         vertex 2.335936e+003 1.395417e+003 1.863794e+003
         vertex 2.335936e+003 4.914173e+002 1.863794e+003
         vertex 2.335196e+003 4.914173e+002 1.864533e+003
      endloop
   endfacet
   facet normal -7.274188e-001 -7.142139e-018 -6.861938e-001
      outer loop
         vertex 2.335936e+003 1.395417e+003 1.863794e+003
         vertex 2.335196e+003 4.914173e+002 1.864533e+003
         vertex 2.335196e+003 1.395417e+003 1.864533e+003
      endloop
   endfacet
   facet normal -8.020839e-001 -6.215980e-018 -5.972114e-001
      outer loop
         vertex 2.335196e+003 1.395417e+003 1.864533e+003
         vertex 2.335196e+003 4.914173e+002 1.864533e+003
         vertex 2.334596e+003 4.914173e+002 1.865390e+003
      endloop
   endfacet
   facet normal -8.355240e-001 -5.718904e-018 -5.494540e-001
      outer loop
         vertex 2.335196e+003 1.395417e+003 1.864533e+003
         vertex 2.334596e+003 4.914173e+002 1.865390e+003
         vertex 2.334596e+003 1.395417e+003 1.865390e+003
      endloop
   endfacet
   facet normal -8.936031e-001 -4.671867e-018 -4.488580e-001
      outer loop
         vertex 2.334596e+003 1.395417e+003 1.865390e+003
         vertex 2.334596e+003 4.914173e+002 1.865390e+003
         vertex 2.334154e+003 4.914173e+002 1.866338e+003
      endloop
   endfacet
   facet normal -9.182422e-001 -4.121905e-018 -3.960194e-001
      outer loop
         vertex 2.334596e+003 1.395417e+003 1.865390e+003
         vertex 2.334154e+003 4.914173e+002 1.866338e+003
         vertex 2.334154e+003 1.395417e+003 1.866338e+003
      endloop
   endfacet
   facet normal -9.579706e-001 -2.985802e-018 -2.868663e-001
      outer loop
         vertex 2.334154e+003 1.395417e+003 1.866338e+003
         vertex 2.334154e+003 4.914173e+002 1.866338e+003
         vertex 2.333883e+003 4.914173e+002 1.867348e+003
      endloop
   endfacet
   facet normal -9.730601e-001 -2.399662e-018 -2.305518e-001
      outer loop
         vertex 2.334154e+003 1.395417e+003 1.866338e+003
         vertex 2.333883e+003 4.914173e+002 1.867348e+003
         vertex 2.333883e+003 1.395417e+003 1.867348e+003
      endloop
   endfacet
   facet normal -9.932307e-001 -1.209015e-018 -1.161583e-001
      outer loop
         vertex 2.333883e+003 1.395417e+003 1.867348e+003
         vertex 2.333883e+003 4.914173e+002 1.867348e+003
         vertex 2.333792e+003 4.914173e+002 1.868390e+003
      endloop
   endfacet
   facet normal -9.983120e-001 -6.045075e-019 -5.807914e-002
      outer loop
         vertex 2.333883e+003 1.395417e+003 1.867348e+003
         vertex 2.333792e+003 4.914173e+002 1.868390e+003
         vertex 2.333792e+003 1.395417e+003 1.868390e+003
      endloop
   endfacet
   facet normal 9.983120e-001 -6.045075e-019 -5.807914e-002
      outer loop
         vertex 2.373792e+003 1.395417e+003 1.868390e+003
         vertex 2.373792e+003 4.914173e+002 1.868390e+003
         vertex 2.373701e+003 4.914173e+002 1.867348e+003
      endloop
   endfacet
   facet normal 9.932307e-001 -1.209015e-018 -1.161583e-001
      outer loop
         vertex 2.373792e+003 1.395417e+003 1.868390e+003
         vertex 2.373701e+003 4.914173e+002 1.867348e+003
         vertex 2.373701e+003 1.395417e+003 1.867348e+003
      endloop
   endfacet
   facet normal 9.730601e-001 -2.399662e-018 -2.305518e-001
      outer loop
         vertex 2.373701e+003 1.395417e+003 1.867348e+003
         vertex 2.373701e+003 4.914173e+002 1.867348e+003
         vertex 2.373430e+003 4.914173e+002 1.866338e+003
      endloop
   endfacet
   facet normal 9.579706e-001 -2.985802e-018 -2.868663e-001
      outer loop
         vertex 2.373701e+003 1.395417e+003 1.867348e+003
         vertex 2.373430e+003 4.914173e+002 1.866338e+003
         vertex 2.373430e+003 1.395417e+003 1.866338e+003
      endloop
   endfacet
   facet normal 9.182422e-001 -4.121905e-018 -3.960194e-001
      outer loop
         vertex 2.373430e+003 1.395417e+003 1.866338e+003
         vertex 2.373430e+003 4.914173e+002 1.866338e+003
         vertex 2.372989e+003 4.914173e+002 1.865390e+003
      endloop
   endfacet
   facet normal 8.936031e-001 -4.671867e-018 -4.488580e-001
      outer loop
         vertex 2.373430e+003 1.395417e+003 1.866338e+003
         vertex 2.372989e+003 4.914173e+002 1.865390e+003
         vertex 2.372989e+003 1.395417e+003 1.865390e+003
      endloop
   endfacet
   facet normal 8.355240e-001 -5.718904e-018 -5.494540e-001
      outer loop
         vertex 2.372989e+003 1.395417e+003 1.865390e+003
         vertex 2.372989e+003 4.914173e+002 1.865390e+003
         vertex 2.372388e+003 4.914173e+002 1.864533e+003
      endloop
   endfacet
   facet normal 8.020839e-001 -6.215980e-018 -5.972114e-001
      outer loop
         vertex 2.372989e+003 1.395417e+003 1.865390e+003
         vertex 2.372388e+003 4.914173e+002 1.864533e+003
         vertex 2.372388e+003 1.395417e+003 1.864533e+003
      endloop
   endfacet
   facet normal 7.274188e-001 -7.142139e-018 -6.861938e-001
      outer loop
         vertex 2.372388e+003 1.395417e+003 1.864533e+003
         vertex 2.372388e+003 4.914173e+002 1.864533e+003
         vertex 2.371649e+003 4.914173e+002 1.863794e+003
      endloop
   endfacet
   facet normal 6.861938e-001 -7.571223e-018 -7.274188e-001
      outer loop
         vertex 2.372388e+003 1.395417e+003 1.864533e+003
         vertex 2.371649e+003 4.914173e+002 1.863794e+003
         vertex 2.371649e+003 1.395417e+003 1.863794e+003
      endloop
   endfacet
   facet normal 5.972114e-001 -8.348363e-018 -8.020839e-001
      outer loop
         vertex 2.371649e+003 1.395417e+003 1.863794e+003
         vertex 2.371649e+003 4.914173e+002 1.863794e+003
         vertex 2.370792e+003 4.914173e+002 1.863194e+003
      endloop
   endfacet
   facet normal 5.494540e-001 -8.696419e-018 -8.355240e-001
      outer loop
         vertex 2.371649e+003 1.395417e+003 1.863794e+003
         vertex 2.370792e+003 4.914173e+002 1.863194e+003
         vertex 2.370792e+003 1.395417e+003 1.863194e+003
      endloop
   endfacet
   facet normal 4.488580e-001 -9.300926e-018 -8.936031e-001
      outer loop
         vertex 2.370792e+003 1.395417e+003 1.863194e+003
         vertex 2.370792e+003 4.914173e+002 1.863194e+003
         vertex 2.369844e+003 4.914173e+002 1.862752e+003
      endloop
   endfacet
   facet normal 3.960194e-001 -9.557377e-018 -9.182422e-001
      outer loop
         vertex 2.370792e+003 1.395417e+003 1.863194e+003
         vertex 2.369844e+003 4.914173e+002 1.862752e+003
         vertex 2.369844e+003 1.395417e+003 1.862752e+003
      endloop
   endfacet
   facet normal 2.868663e-001 -9.970885e-018 -9.579706e-001
      outer loop
         vertex 2.369844e+003 1.395417e+003 1.862752e+003
         vertex 2.369844e+003 4.914173e+002 1.862752e+003
         vertex 2.368834e+003 4.914173e+002 1.862481e+003
      endloop
   endfacet
   facet normal 2.305518e-001 -1.012794e-017 -9.730601e-001
      outer loop
         vertex 2.369844e+003 1.395417e+003 1.862752e+003
         vertex 2.368834e+003 4.914173e+002 1.862481e+003
         vertex 2.368834e+003 1.395417e+003 1.862481e+003
      endloop
   endfacet
   facet normal 1.161583e-001 -1.033788e-017 -9.932307e-001
      outer loop
         vertex 2.368834e+003 1.395417e+003 1.862481e+003
         vertex 2.368834e+003 4.914173e+002 1.862481e+003
         vertex 2.367792e+003 4.914173e+002 1.862390e+003
      endloop
   endfacet
   facet normal 5.807914e-002 -1.039077e-017 -9.983120e-001
      outer loop
         vertex 2.368834e+003 1.395417e+003 1.862481e+003
         vertex 2.367792e+003 4.914173e+002 1.862390e+003
         vertex 2.367792e+003 1.395417e+003 1.862390e+003
      endloop
   endfacet
   facet normal 1.000000e+000 0.000000e+000 0.000000e+000
      outer loop
         vertex 2.337792e+003 1.395417e+003 1.868390e+003
         vertex 2.337792e+003 1.395417e+003 1.916390e+003
         vertex 2.337792e+003 4.914173e+002 1.868390e+003
      endloop
   endfacet
   facet normal 1.000000e+000 0.000000e+000 0.000000e+000
      outer loop
         vertex 2.337792e+003 4.914173e+002 1.868390e+003
         vertex 2.337792e+003 1.395417e+003 1.916390e+003
         vertex 2.337792e+003 4.914173e+002 1.916390e+003
      endloop
   endfacet
   facet normal 0.000000e+000 -1.040834e-017 -1.000000e+000
      outer loop
         vertex 2.367792e+003 4.914173e+002 1.918390e+003
         vertex 2.339792e+003 4.914173e+002 1.918390e+003
         vertex 2.367792e+003 1.395417e+003 1.918390e+003
      endloop
   endfacet
   facet normal 0.000000e+000 -1.040834e-017 -1.000000e+000
      outer loop
         vertex 2.367792e+003 1.395417e+003 1.918390e+003
         vertex 2.339792e+003 4.914173e+002 1.918390e+003
         vertex 2.339792e+003 1.395417e+003 1.918390e+003
      endloop
   endfacet
   facet normal -1.000000e+000 0.000000e+000 -0.000000e+000
      outer loop
         vertex 2.369792e+003 4.914173e+002 1.868390e+003
         vertex 2.369792e+003 4.914173e+002 1.916390e+003
         vertex 2.369792e+003 1.395417e+003 1.868390e+003
      endloop
   endfacet
   facet normal -1.000000e+000 0.000000e+000 -0.000000e+000
      outer loop
         vertex 2.369792e+003 1.395417e+003 1.868390e+003
         vertex 2.369792e+003 4.914173e+002 1.916390e+003
         vertex 2.369792e+003 1.395417e+003 1.916390e+003
      endloop
   endfacet
   facet normal 0.000000e+000 1.040834e-017 1.000000e+000
      outer loop
         vertex 2.367792e+003 1.395417e+003 1.866390e+003
         vertex 2.339792e+003 1.395417e+003 1.866390e+003
         vertex 2.367792e+003 4.914173e+002 1.866390e+003
      endloop
   endfacet
   facet normal 0.000000e+000 1.040834e-017 1.000000e+000
      outer loop
         vertex 2.367792e+003 4.914173e+002 1.866390e+003
         vertex 2.339792e+003 1.395417e+003 1.866390e+003
         vertex 2.339792e+003 4.914173e+002 1.866390e+003
      endloop
   endfacet
   facet normal 5.807914e-002 -1.039077e-017 -9.983120e-001
      outer loop
         vertex 2.339792e+003 1.395417e+003 1.918390e+003
         vertex 2.339792e+003 4.914173e+002 1.918390e+003
         vertex 2.339445e+003 4.914173e+002 1.918359e+003
      endloop
   endfacet
   facet normal 1.161583e-001 -1.033788e-017 -9.932307e-001
      outer loop
         vertex 2.339792e+003 1.395417e+003 1.918390e+003
         vertex 2.339445e+003 4.914173e+002 1.918359e+003
         vertex 2.339445e+003 1.395417e+003 1.918359e+003
      endloop
   endfacet
   facet normal 2.305518e-001 -1.012794e-017 -9.730601e-001
      outer loop
         vertex 2.339445e+003 1.395417e+003 1.918359e+003
         vertex 2.339445e+003 4.914173e+002 1.918359e+003
         vertex 2.339108e+003 4.914173e+002 1.918269e+003
      endloop
   endfacet
   facet normal 2.868663e-001 -9.970885e-018 -9.579706e-001
      outer loop
         vertex 2.339445e+003 1.395417e+003 1.918359e+003
         vertex 2.339108e+003 4.914173e+002 1.918269e+003
         vertex 2.339108e+003 1.395417e+003 1.918269e+003
      endloop
   endfacet
   facet normal 3.960194e-001 -9.557377e-018 -9.182422e-001
      outer loop
         vertex 2.339108e+003 1.395417e+003 1.918269e+003
         vertex 2.339108e+003 4.914173e+002 1.918269e+003
         vertex 2.338792e+003 4.914173e+002 1.918122e+003
      endloop
   endfacet
   facet normal 4.488580e-001 -9.300926e-018 -8.936031e-001
      outer loop
         vertex 2.339108e+003 1.395417e+003 1.918269e+003
         vertex 2.338792e+003 4.914173e+002 1.918122e+003
         vertex 2.338792e+003 1.395417e+003 1.918122e+003
      endloop
   endfacet
   facet normal 5.494540e-001 -8.696419e-018 -8.355240e-001
      outer loop
         vertex 2.338792e+003 1.395417e+003 1.918122e+003
         vertex 2.338792e+003 4.914173e+002 1.918122e+003
         vertex 2.338507e+003 4.914173e+002 1.917922e+003
      endloop
   endfacet
   facet normal 5.972114e-001 -8.348363e-018 -8.020839e-001
      outer loop
         vertex 2.338792e+003 1.395417e+003 1.918122e+003
         vertex 2.338507e+003 4.914173e+002 1.917922e+003
         vertex 2.338507e+003 1.395417e+003 1.917922e+003
      endloop
   endfacet
   facet normal 6.861938e-001 -7.571223e-018 -7.274188e-001
      outer loop
         vertex 2.338507e+003 1.395417e+003 1.917922e+003
         vertex 2.338507e+003 4.914173e+002 1.917922e+003
         vertex 2.338260e+003 4.914173e+002 1.917676e+003
      endloop
   endfacet
   facet normal 7.274188e-001 -7.142139e-018 -6.861938e-001
      outer loop
         vertex 2.338507e+003 1.395417e+003 1.917922e+003
         vertex 2.338260e+003 4.914173e+002 1.917676e+003
         vertex 2.338260e+003 1.395417e+003 1.917676e+003
      endloop
   endfacet
   facet normal 8.020839e-001 -6.215980e-018 -5.972114e-001
      outer loop
         vertex 2.338260e+003 1.395417e+003 1.917676e+003
         vertex 2.338260e+003 4.914173e+002 1.917676e+003
         vertex 2.338060e+003 4.914173e+002 1.917390e+003
      endloop
   endfacet
   facet normal 8.355240e-001 -5.718904e-018 -5.494540e-001
      outer loop
         vertex 2.338260e+003 1.395417e+003 1.917676e+003
         vertex 2.338060e+003 4.914173e+002 1.917390e+003
         vertex 2.338060e+003 1.395417e+003 1.917390e+003
      endloop
   endfacet
   facet normal 8.936031e-001 -4.671867e-018 -4.488580e-001
      outer loop
         vertex 2.338060e+003 1.395417e+003 1.917390e+003
         vertex 2.338060e+003 4.914173e+002 1.917390e+003
         vertex 2.337913e+003 4.914173e+002 1.917074e+003
      endloop
   endfacet
   facet normal 9.182422e-001 -4.121905e-018 -3.960194e-001
      outer loop
         vertex 2.338060e+003 1.395417e+003 1.917390e+003
         vertex 2.337913e+003 4.914173e+002 1.917074e+003
         vertex 2.337913e+003 1.395417e+003 1.917074e+003
      endloop
   endfacet
   facet normal 9.579706e-001 -2.985802e-018 -2.868663e-001
      outer loop
         vertex 2.337913e+003 1.395417e+003 1.917074e+003
         vertex 2.337913e+003 4.914173e+002 1.917074e+003
         vertex 2.337823e+003 4.914173e+002 1.916737e+003
      endloop
   endfacet
   facet normal 9.730601e-001 -2.399662e-018 -2.305518e-001
      outer loop
         vertex 2.337913e+003 1.395417e+003 1.917074e+003
         vertex 2.337823e+003 4.914173e+002 1.916737e+003
         vertex 2.337823e+003 1.395417e+003 1.916737e+003
      endloop
   endfacet
   facet normal 9.932307e-001 -1.209015e-018 -1.161583e-001
      outer loop
         vertex 2.337823e+003 1.395417e+003 1.916737e+003
         vertex 2.337823e+003 4.914173e+002 1.916737e+003
         vertex 2.337792e+003 4.914173e+002 1.916390e+003
      endloop
   endfacet
   facet normal 9.983120e-001 -6.045075e-019 -5.807914e-002
      outer loop
         vertex 2.337823e+003 1.395417e+003 1.916737e+003
         vertex 2.337792e+003 4.914173e+002 1.916390e+003
         vertex 2.337792e+003 1.395417e+003 1.916390e+003
      endloop
   endfacet
   facet normal -9.983120e-001 -6.045075e-019 -5.807914e-002
      outer loop
         vertex 2.369792e+003 1.395417e+003 1.916390e+003
         vertex 2.369792e+003 4.914173e+002 1.916390e+003
         vertex 2.369762e+003 4.914173e+002 1.916737e+003
      endloop
   endfacet
   facet normal -9.932307e-001 -1.209015e-018 -1.161583e-001
      outer loop
         vertex 2.369792e+003 1.395417e+003 1.916390e+003
         vertex 2.369762e+003 4.914173e+002 1.916737e+003
         vertex 2.369762e+003 1.395417e+003 1.916737e+003
      endloop
   endfacet
   facet normal -9.730601e-001 -2.399662e-018 -2.305518e-001
      outer loop
         vertex 2.369762e+003 1.395417e+003 1.916737e+003
         vertex 2.369762e+003 4.914173e+002 1.916737e+003
         vertex 2.369672e+003 4.914173e+002 1.917074e+003
      endloop
   endfacet
   facet normal -9.579706e-001 -2.985802e-018 -2.868663e-001
      outer loop
         vertex 2.369762e+003 1.395417e+003 1.916737e+003
         vertex 2.369672e+003 4.914173e+002 1.917074e+003
         vertex 2.369672e+003 1.395417e+003 1.917074e+003
      endloop
   endfacet
   facet normal -9.182422e-001 -4.121905e-018 -3.960194e-001
      outer loop
         vertex 2.369672e+003 1.395417e+003 1.917074e+003
         vertex 2.369672e+003 4.914173e+002 1.917074e+003
         vertex 2.369524e+003 4.914173e+002 1.917390e+003
      endloop
   endfacet
   facet normal -8.936031e-001 -4.671867e-018 -4.488580e-001
      outer loop
         vertex 2.369672e+003 1.395417e+003 1.917074e+003
         vertex 2.369524e+003 4.914173e+002 1.917390e+003
         vertex 2.369524e+003 1.395417e+003 1.917390e+003
      endloop
   endfacet
   facet normal -8.355240e-001 -5.718904e-018 -5.494540e-001
      outer loop
         vertex 2.369524e+003 1.395417e+003 1.917390e+003
         vertex 2.369524e+003 4.914173e+002 1.917390e+003
         vertex 2.369324e+003 4.914173e+002 1.917676e+003
      endloop
   endfacet
   facet normal -8.020839e-001 -6.215980e-018 -5.972114e-001
      outer loop
         vertex 2.369524e+003 1.395417e+003 1.917390e+003
         vertex 2.369324e+003 4.914173e+002 1.917676e+003
         vertex 2.369324e+003 1.395417e+003 1.917676e+003
      endloop
   endfacet
   facet normal -7.274188e-001 -7.142139e-018 -6.861938e-001
      outer loop
         vertex 2.369324e+003 1.395417e+003 1.917676e+003
         vertex 2.369324e+003 4.914173e+002 1.917676e+003
         vertex 2.369078e+003 4.914173e+002 1.917922e+003
      endloop
   endfacet
   facet normal -6.861938e-001 -7.571223e-018 -7.274188e-001
      outer loop
         vertex 2.369324e+003 1.395417e+003 1.917676e+003
         vertex 2.369078e+003 4.914173e+002 1.917922e+003
         vertex 2.369078e+003 1.395417e+003 1.917922e+003
      endloop
   endfacet
   facet normal -5.972114e-001 -8.348363e-018 -8.020839e-001
      outer loop
         vertex 2.369078e+003 1.395417e+003 1.917922e+003
         vertex 2.369078e+003 4.914173e+002 1.917922e+003
         vertex 2.368792e+003 4.914173e+002 1.918122e+003
      endloop
   endfacet
   facet normal -5.494540e-001 -8.696419e-018 -8.355240e-001
      outer loop
         vertex 2.369078e+003 1.395417e+003 1.917922e+003
         vertex 2.368792e+003 4.914173e+002 1.918122e+003
         vertex 2.368792e+003 1.395417e+003 1.918122e+003
      endloop
   endfacet
   facet normal -4.488580e-001 -9.300926e-018 -8.936031e-001
      outer loop
         vertex 2.368792e+003 1.395417e+003 1.918122e+003
         vertex 2.368792e+003 4.914173e+002 1.918122e+003
         vertex 2.368476e+003 4.914173e+002 1.918269e+003
      endloop
   endfacet
   facet normal -3.960194e-001 -9.557377e-018 -9.182422e-001
      outer loop
         vertex 2.368792e+003 1.395417e+003 1.918122e+003
         vertex 2.368476e+003 4.914173e+002 1.918269e+003
         vertex 2.368476e+003 1.395417e+003 1.918269e+003
      endloop
   endfacet
   facet normal -2.868663e-001 -9.970885e-018 -9.579706e-001
      outer loop
         vertex 2.368476e+003 1.395417e+003 1.918269e+003
         vertex 2.368476e+003 4.914173e+002 1.918269e+003
         vertex 2.368139e+003 4.914173e+002 1.918359e+003
      endloop
   endfacet
   facet normal -2.305518e-001 -1.012794e-017 -9.730601e-001
      outer loop
         vertex 2.368476e+003 1.395417e+003 1.918269e+003
         vertex 2.368139e+003 4.914173e+002 1.918359e+003
         vertex 2.368139e+003 1.395417e+003 1.918359e+003
      endloop
   endfacet
   facet normal -1.161583e-001 -1.033788e-017 -9.932307e-001
      outer loop
         vertex 2.368139e+003 1.395417e+003 1.918359e+003
         vertex 2.368139e+003 4.914173e+002 1.918359e+003
         vertex 2.367792e+003 4.914173e+002 1.918390e+003
      endloop
   endfacet
   facet normal -5.807914e-002 -1.039077e-017 -9.983120e-001
      outer loop
         vertex 2.368139e+003 1.395417e+003 1.918359e+003
         vertex 2.367792e+003 4.914173e+002 1.918390e+003
         vertex 2.367792e+003 1.395417e+003 1.918390e+003
      endloop
   endfacet
   facet normal 9.983120e-001 6.045075e-019 5.807914e-002
      outer loop
         vertex 2.337792e+003 1.395417e+003 1.868390e+003
         vertex 2.337792e+003 4.914173e+002 1.868390e+003
         vertex 2.337823e+003 4.914173e+002 1.868043e+003
      endloop
   endfacet
   facet normal 9.932307e-001 1.209015e-018 1.161583e-001
      outer loop
         vertex 2.337792e+003 1.395417e+003 1.868390e+003
         vertex 2.337823e+003 4.914173e+002 1.868043e+003
         vertex 2.337823e+003 1.395417e+003 1.868043e+003
      endloop
   endfacet
   facet normal 9.730601e-001 2.399662e-018 2.305518e-001
      outer loop
         vertex 2.337823e+003 1.395417e+003 1.868043e+003
         vertex 2.337823e+003 4.914173e+002 1.868043e+003
         vertex 2.337913e+003 4.914173e+002 1.867706e+003
      endloop
   endfacet
   facet normal 9.579706e-001 2.985802e-018 2.868663e-001
      outer loop
         vertex 2.337823e+003 1.395417e+003 1.868043e+003
         vertex 2.337913e+003 4.914173e+002 1.867706e+003
         vertex 2.337913e+003 1.395417e+003 1.867706e+003
      endloop
   endfacet
   facet normal 9.182422e-001 4.121905e-018 3.960194e-001
      outer loop
         vertex 2.337913e+003 1.395417e+003 1.867706e+003
         vertex 2.337913e+003 4.914173e+002 1.867706e+003
         vertex 2.338060e+003 4.914173e+002 1.867390e+003
      endloop
   endfacet
   facet normal 8.936031e-001 4.671867e-018 4.488580e-001
      outer loop
         vertex 2.337913e+003 1.395417e+003 1.867706e+003
         vertex 2.338060e+003 4.914173e+002 1.867390e+003
         vertex 2.338060e+003 1.395417e+003 1.867390e+003
      endloop
   endfacet
   facet normal 8.355240e-001 5.718904e-018 5.494540e-001
      outer loop
         vertex 2.338060e+003 1.395417e+003 1.867390e+003
         vertex 2.338060e+003 4.914173e+002 1.867390e+003
         vertex 2.338260e+003 4.914173e+002 1.867104e+003
      endloop
   endfacet
   facet normal 8.020839e-001 6.215980e-018 5.972114e-001
      outer loop
         vertex 2.338060e+003 1.395417e+003 1.867390e+003
         vertex 2.338260e+003 4.914173e+002 1.867104e+003
         vertex 2.338260e+003 1.395417e+003 1.867104e+003
      endloop
   endfacet
   facet normal 7.274188e-001 7.142139e-018 6.861938e-001
      outer loop
         vertex 2.338260e+003 1.395417e+003 1.867104e+003
         vertex 2.338260e+003 4.914173e+002 1.867104e+003
         vertex 2.338507e+003 4.914173e+002 1.866858e+003
      endloop
   endfacet
   facet normal 6.861938e-001 7.571223e-018 7.274188e-001
      outer loop
         vertex 2.338260e+003 1.395417e+003 1.867104e+003
         vertex 2.338507e+003 4.914173e+002 1.866858e+003
         vertex 2.338507e+003 1.395417e+003 1.866858e+003
      endloop
   endfacet
   facet normal 5.972114e-001 8.348363e-018 8.020839e-001
      outer loop
         vertex 2.338507e+003 1.395417e+003 1.866858e+003
         vertex 2.338507e+003 4.914173e+002 1.866858e+003
         vertex 2.338792e+003 4.914173e+002 1.866658e+003
      endloop
   endfacet
   facet normal 5.494540e-001 8.696419e-018 8.355240e-001
      outer loop
         vertex 2.338507e+003 1.395417e+003 1.866858e+003
         vertex 2.338792e+003 4.914173e+002 1.866658e+003
         vertex 2.338792e+003 1.395417e+003 1.866658e+003
      endloop
   endfacet
   facet normal 4.488580e-001 9.300926e-018 8.936031e-001
      outer loop
         vertex 2.338792e+003 1.395417e+003 1.866658e+003
         vertex 2.338792e+003 4.914173e+002 1.866658e+003
         vertex 2.339108e+003 4.914173e+002 1.866510e+003
      endloop
   endfacet
   facet normal 3.960194e-001 9.557377e-018 9.182422e-001
      outer loop
         vertex 2.338792e+003 1.395417e+003 1.866658e+003
         vertex 2.339108e+003 4.914173e+002 1.866510e+003
         vertex 2.339108e+003 1.395417e+003 1.866510e+003
      endloop
   endfacet
   facet normal 2.868663e-001 9.970885e-018 9.579706e-001
      outer loop
         vertex 2.339108e+003 1.395417e+003 1.866510e+003
         vertex 2.339108e+003 4.914173e+002 1.866510e+003
         vertex 2.339445e+003 4.914173e+002 1.866420e+003
      endloop
   endfacet
   facet normal 2.305518e-001 1.012794e-017 9.730601e-001
      outer loop
         vertex 2.339108e+003 1.395417e+003 1.866510e+003
         vertex 2.339445e+003 4.914173e+002 1.866420e+003
         vertex 2.339445e+003 1.395417e+003 1.866420e+003
      endloop
   endfacet
   facet normal 1.161583e-001 1.033788e-017 9.932307e-001
      outer loop
         vertex 2.339445e+003 1.395417e+003 1.866420e+003
         vertex 2.339445e+003 4.914173e+002 1.866420e+003
         vertex 2.339792e+003 4.914173e+002 1.866390e+003
      endloop
   endfacet
   facet normal 5.807914e-002 1.039077e-017 9.983120e-001
      outer loop
         vertex 2.339445e+003 1.395417e+003 1.866420e+003
         vertex 2.339792e+003 4.914173e+002 1.866390e+003
         vertex 2.339792e+003 1.395417e+003 1.866390e+003
      endloop
   endfacet
   facet normal -5.807914e-002 1.039077e-017 9.983120e-001
      outer loop
         vertex 2.367792e+003 1.395417e+003 1.866390e+003
         vertex 2.367792e+003 4.914173e+002 1.866390e+003
         vertex 2.368139e+003 4.914173e+002 1.866420e+003
      endloop
   endfacet
   facet normal -1.161583e-001 1.033788e-017 9.932307e-001
      outer loop
         vertex 2.367792e+003 1.395417e+003 1.866390e+003
         vertex 2.368139e+003 4.914173e+002 1.866420e+003
         vertex 2.368139e+003 1.395417e+003 1.866420e+003
      endloop
   endfacet
   facet normal -2.305518e-001 1.012794e-017 9.730601e-001
      outer loop
         vertex 2.368139e+003 1.395417e+003 1.866420e+003
         vertex 2.368139e+003 4.914173e+002 1.866420e+003
         vertex 2.368476e+003 4.914173e+002 1.866510e+003
      endloop
   endfacet
   facet normal -2.868663e-001 9.970885e-018 9.579706e-001
      outer loop
         vertex 2.368139e+003 1.395417e+003 1.866420e+003
         vertex 2.368476e+003 4.914173e+002 1.866510e+003
         vertex 2.368476e+003 1.395417e+003 1.866510e+003
      endloop
   endfacet
   facet normal -3.960194e-001 9.557377e-018 9.182422e-001
      outer loop
         vertex 2.368476e+003 1.395417e+003 1.866510e+003
         vertex 2.368476e+003 4.914173e+002 1.866510e+003
         vertex 2.368792e+003 4.914173e+002 1.866658e+003
      endloop
   endfacet
   facet normal -4.488580e-001 9.300926e-018 8.936031e-001
      outer loop
         vertex 2.368476e+003 1.395417e+003 1.866510e+003
         vertex 2.368792e+003 4.914173e+002 1.866658e+003
         vertex 2.368792e+003 1.395417e+003 1.866658e+003
      endloop
   endfacet
   facet normal -5.494540e-001 8.696419e-018 8.355240e-001
      outer loop
         vertex 2.368792e+003 1.395417e+003 1.866658e+003
         vertex 2.368792e+003 4.914173e+002 1.866658e+003
         vertex 2.369078e+003 4.914173e+002 1.866858e+003
      endloop
   endfacet
   facet normal -5.972114e-001 8.348363e-018 8.020839e-001
      outer loop
         vertex 2.368792e+003 1.395417e+003 1.866658e+003
         vertex 2.369078e+003 4.914173e+002 1.866858e+003
         vertex 2.369078e+003 1.395417e+003 1.866858e+003
      endloop
   endfacet
   facet normal -6.861938e-001 7.571223e-018 7.274188e-001
      outer loop
         vertex 2.369078e+003 1.395417e+003 1.866858e+003
         vertex 2.369078e+003 4.914173e+002 1.866858e+003
         vertex 2.369324e+003 4.914173e+002 1.867104e+003
      endloop
   endfacet
   facet normal -7.274188e-001 7.142139e-018 6.861938e-001
      outer loop
         vertex 2.369078e+003 1.395417e+003 1.866858e+003
         vertex 2.369324e+003 4.914173e+002 1.867104e+003
         vertex 2.369324e+003 1.395417e+003 1.867104e+003
      endloop
   endfacet
   facet normal -8.020839e-001 6.215980e-018 5.972114e-001
      outer loop
         vertex 2.369324e+003 1.395417e+003 1.867104e+003
         vertex 2.369324e+003 4.914173e+002 1.867104e+003
         vertex 2.369524e+003 4.914173e+002 1.867390e+003
      endloop
   endfacet
   facet normal -8.355240e-001 5.718904e-018 5.494540e-001
      outer loop
         vertex 2.369324e+003 1.395417e+003 1.867104e+003
         vertex 2.369524e+003 4.914173e+002 1.867390e+003
         vertex 2.369524e+003 1.395417e+003 1.867390e+003
      endloop
   endfacet
   facet normal -8.936031e-001 4.671867e-018 4.488580e-001
      outer loop
         vertex 2.369524e+003 1.395417e+003 1.867390e+003
         vertex 2.369524e+003 4.914173e+002 1.867390e+003
         vertex 2.369672e+003 4.914173e+002 1.867706e+003
      endloop
   endfacet
   facet normal -9.182422e-001 4.121905e-018 3.960194e-001
      outer loop
         vertex 2.369524e+003 1.395417e+003 1.867390e+003
         vertex 2.369672e+003 4.914173e+002 1.867706e+003
         vertex 2.369672e+003 1.395417e+003 1.867706e+003
      endloop
   endfacet
   facet normal -9.579706e-001 2.985802e-018 2.868663e-001
      outer loop
         vertex 2.369672e+003 1.395417e+003 1.867706e+003
         vertex 2.369672e+003 4.914173e+002 1.867706e+003
         vertex 2.369762e+003 4.914173e+002 1.868043e+003
      endloop
   endfacet
   facet normal -9.730601e-001 2.399662e-018 2.305518e-001
      outer loop
         vertex 2.369672e+003 1.395417e+003 1.867706e+003
         vertex 2.369762e+003 4.914173e+002 1.868043e+003
         vertex 2.369762e+003 1.395417e+003 1.868043e+003
      endloop
   endfacet
   facet normal -9.932307e-001 1.209015e-018 1.161583e-001
      outer loop
         vertex 2.369762e+003 1.395417e+003 1.868043e+003
         vertex 2.369762e+003 4.914173e+002 1.868043e+003
         vertex 2.369792e+003 4.914173e+002 1.868390e+003
      endloop
   endfacet
   facet normal -9.983120e-001 6.045075e-019 5.807914e-002
      outer loop
         vertex 2.369762e+003 1.395417e+003 1.868043e+003
         vertex 2.369792e+003 4.914173e+002 1.868390e+003
         vertex 2.369792e+003 1.395417e+003 1.868390e+003
      endloop
   endfacet
endsolid