solid 09.025.00.00.000 - 09.025.00.01.000-1 09.025.00.01.006-2
   facet normal 1.000000e+000 -7.344578e-017 -1.110223e-016
      outer loop
         vertex 2.330792e+003 4.354287e+002 2.112564e+003
         vertex 2.330792e+003 4.364249e+002 2.112477e+003
         vertex 2.330792e+003 4.510366e+002 2.290963e+003
      endloop
   endfacet
   facet normal 1.000000e+000 -7.344578e-017 -1.110223e-016
      outer loop
         vertex 2.330792e+003 4.510366e+002 2.290963e+003
         vertex 2.330792e+003 4.364249e+002 2.112477e+003
         vertex 2.330792e+003 4.520328e+002 2.290875e+003
      endloop
   endfacet
   facet normal -1.000000e+000 7.344578e-017 1.110223e-016
      outer loop
         vertex 9.347922e+002 4.364249e+002 2.112477e+003
         vertex 9.347922e+002 4.354287e+002 2.112564e+003
         vertex 9.347922e+002 4.520328e+002 2.290875e+003
      endloop
   endfacet
   facet normal -1.000000e+000 7.344578e-017 1.110223e-016
      outer loop
         vertex 9.347922e+002 4.520328e+002 2.290875e+003
         vertex 9.347922e+002 4.354287e+002 2.112564e+003
         vertex 9.347922e+002 4.510366e+002 2.290963e+003
      endloop
   endfacet
   facet normal -6.159331e-017 -9.961947e-001 8.715574e-002
      outer loop
         vertex 9.347922e+002 4.354287e+002 2.112564e+003
         vertex 2.330792e+003 4.354287e+002 2.112564e+003
         vertex 9.347922e+002 4.510366e+002 2.290963e+003
      endloop
   endfacet
   facet normal -6.159331e-017 -9.961947e-001 8.715574e-002
      outer loop
         vertex 9.347922e+002 4.510366e+002 2.290963e+003
         vertex 2.330792e+003 4.354287e+002 2.112564e+003
         vertex 2.330792e+003 4.510366e+002 2.290963e+003
      endloop
   endfacet
   facet normal 6.159331e-017 9.961947e-001 -8.715574e-002
      outer loop
         vertex 2.330792e+003 4.520328e+002 2.290875e+003
         vertex 2.330792e+003 4.364249e+002 2.112477e+003
         vertex 9.347922e+002 4.520328e+002 2.290875e+003
      endloop
   endfacet
   facet normal 6.159331e-017 9.961947e-001 -8.715574e-002
      outer loop
         vertex 9.347922e+002 4.520328e+002 2.290875e+003
         vertex 2.330792e+003 4.364249e+002 2.112477e+003
         vertex 9.347922e+002 4.364249e+002 2.112477e+003
      endloop
   endfacet
   facet normal 1.000000e+000 -7.344578e-017 -1.110223e-016
      outer loop
         vertex 2.330792e+003 4.354173e+002 1.864390e+003
         vertex 2.330792e+003 4.364173e+002 1.864390e+003
         vertex 2.330792e+003 4.354173e+002 2.112302e+003
      endloop
   endfacet
   facet normal 1.000000e+000 -7.344578e-017 -1.110223e-016
      outer loop
         vertex 2.330792e+003 4.354173e+002 2.112302e+003
         vertex 2.330792e+003 4.364173e+002 1.864390e+003
         vertex 2.330792e+003 4.364173e+002 2.112302e+003
      endloop
   endfacet
   facet normal -1.000000e+000 7.344578e-017 1.110223e-016
      outer loop
         vertex 9.347922e+002 4.364173e+002 1.864390e+003
         vertex 9.347922e+002 4.354173e+002 1.864390e+003
         vertex 9.347922e+002 4.364173e+002 2.112302e+003
      endloop
   endfacet
   facet normal -1.000000e+000 7.344578e-017 1.110223e-016
      outer loop
         vertex 9.347922e+002 4.364173e+002 2.112302e+003
         vertex 9.347922e+002 4.354173e+002 1.864390e+003
         vertex 9.347922e+002 4.354173e+002 2.112302e+003
      endloop
   endfacet
   facet normal -6.668518e-017 -1.000000e+000 -3.519206e-015
      outer loop
         vertex 9.347922e+002 4.354173e+002 1.864390e+003
         vertex 2.330792e+003 4.354173e+002 1.864390e+003
         vertex 9.347922e+002 4.354173e+002 2.112302e+003
      endloop
   endfacet
   facet normal -6.668518e-017 -1.000000e+000 -3.519206e-015
      outer loop
         vertex 9.347922e+002 4.354173e+002 2.112302e+003
         vertex 2.330792e+003 4.354173e+002 1.864390e+003
         vertex 2.330792e+003 4.354173e+002 2.112302e+003
      endloop
   endfacet
   facet normal 6.668518e-017 1.000000e+000 3.519206e-015
      outer loop
         vertex 2.330792e+003 4.364173e+002 2.112302e+003
         vertex 2.330792e+003 4.364173e+002 1.864390e+003
         vertex 9.347922e+002 4.364173e+002 2.112302e+003
      endloop
   endfacet
   facet normal 6.668518e-017 1.000000e+000 3.519206e-015
      outer loop
         vertex 9.347922e+002 4.364173e+002 2.112302e+003
         vertex 2.330792e+003 4.364173e+002 1.864390e+003
         vertex 9.347922e+002 4.364173e+002 1.864390e+003
      endloop
   endfacet
   facet normal -1.000000e+000 7.344578e-017 1.110223e-016
      outer loop
         vertex 9.347922e+002 4.384174e+002 1.861390e+003
         vertex 9.347922e+002 4.384174e+002 1.862390e+003
         vertex 9.347922e+002 4.974173e+002 1.861390e+003
      endloop
   endfacet
   facet normal -1.000000e+000 7.344578e-017 1.110223e-016
      outer loop
         vertex 9.347922e+002 4.974173e+002 1.861390e+003
         vertex 9.347922e+002 4.384174e+002 1.862390e+003
         vertex 9.347922e+002 4.974173e+002 1.862390e+003
      endloop
   endfacet
   facet normal 1.000000e+000 -7.344578e-017 -1.110223e-016
      outer loop
         vertex 2.330792e+003 4.384174e+002 1.862390e+003
         vertex 2.330792e+003 4.384174e+002 1.861390e+003
         vertex 2.330792e+003 4.974173e+002 1.862390e+003
      endloop
   endfacet
   facet normal 1.000000e+000 -7.344578e-017 -1.110223e-016
      outer loop
         vertex 2.330792e+003 4.974173e+002 1.862390e+003
         vertex 2.330792e+003 4.384174e+002 1.861390e+003
         vertex 2.330792e+003 4.974173e+002 1.861390e+003
      endloop
   endfacet
   facet normal -5.551115e-017 6.591803e-018 -1.000000e+000
      outer loop
         vertex 2.330792e+003 4.384174e+002 1.861390e+003
         vertex 9.347922e+002 4.384174e+002 1.861390e+003
         vertex 2.330792e+003 4.974173e+002 1.861390e+003
      endloop
   endfacet
   facet normal -5.551115e-017 6.591803e-018 -1.000000e+000
      outer loop
         vertex 2.330792e+003 4.974173e+002 1.861390e+003
         vertex 9.347922e+002 4.384174e+002 1.861390e+003
         vertex 9.347922e+002 4.974173e+002 1.861390e+003
      endloop
   endfacet
   facet normal 5.551115e-017 -6.591803e-018 1.000000e+000
      outer loop
         vertex 9.347922e+002 4.974173e+002 1.862390e+003
         vertex 9.347922e+002 4.384174e+002 1.862390e+003
         vertex 2.330792e+003 4.974173e+002 1.862390e+003
      endloop
   endfacet
   facet normal 5.551115e-017 -6.591803e-018 1.000000e+000
      outer loop
         vertex 2.330792e+003 4.974173e+002 1.862390e+003
         vertex 9.347922e+002 4.384174e+002 1.862390e+003
         vertex 2.330792e+003 4.384174e+002 1.862390e+003
      endloop
   endfacet
   facet normal 1.000000e+000 -7.344578e-017 -1.110223e-016
      outer loop
         vertex 2.330792e+003 4.364173e+002 1.864390e+003
         vertex 2.330792e+003 4.354173e+002 1.864390e+003
         vertex 2.330792e+003 4.364477e+002 1.864043e+003
      endloop
   endfacet
   facet normal 1.000000e+000 -7.344578e-017 -1.110223e-016
      outer loop
         vertex 2.330792e+003 4.364477e+002 1.864043e+003
         vertex 2.330792e+003 4.354173e+002 1.864390e+003
         vertex 2.330792e+003 4.354629e+002 1.863869e+003
      endloop
   endfacet
   facet normal 1.000000e+000 -7.344578e-017 -1.110223e-016
      outer loop
         vertex 2.330792e+003 4.364477e+002 1.864043e+003
         vertex 2.330792e+003 4.354629e+002 1.863869e+003
         vertex 2.330792e+003 4.365380e+002 1.863706e+003
      endloop
   endfacet
   facet normal 1.000000e+000 -7.344578e-017 -1.110223e-016
      outer loop
         vertex 2.330792e+003 4.365380e+002 1.863706e+003
         vertex 2.330792e+003 4.354629e+002 1.863869e+003
         vertex 2.330792e+003 4.355983e+002 1.863364e+003
      endloop
   endfacet
   facet normal 1.000000e+000 -7.344578e-017 -1.110223e-016
      outer loop
         vertex 2.330792e+003 4.365380e+002 1.863706e+003
         vertex 2.330792e+003 4.355983e+002 1.863364e+003
         vertex 2.330792e+003 4.366853e+002 1.863390e+003
      endloop
   endfacet
   facet normal 1.000000e+000 -7.344578e-017 -1.110223e-016
      outer loop
         vertex 2.330792e+003 4.366853e+002 1.863390e+003
         vertex 2.330792e+003 4.355983e+002 1.863364e+003
         vertex 2.330792e+003 4.358193e+002 1.862890e+003
      endloop
   endfacet
   facet normal 1.000000e+000 -7.344578e-017 -1.110223e-016
      outer loop
         vertex 2.330792e+003 4.366853e+002 1.863390e+003
         vertex 2.330792e+003 4.358193e+002 1.862890e+003
         vertex 2.330792e+003 4.368852e+002 1.863104e+003
      endloop
   endfacet
   facet normal 1.000000e+000 -7.344578e-017 -1.110223e-016
      outer loop
         vertex 2.330792e+003 4.368852e+002 1.863104e+003
         vertex 2.330792e+003 4.358193e+002 1.862890e+003
         vertex 2.330792e+003 4.361192e+002 1.862462e+003
      endloop
   endfacet
   facet normal 1.000000e+000 -7.344578e-017 -1.110223e-016
      outer loop
         vertex 2.330792e+003 4.368852e+002 1.863104e+003
         vertex 2.330792e+003 4.361192e+002 1.862462e+003
         vertex 2.330792e+003 4.371318e+002 1.862858e+003
      endloop
   endfacet
   facet normal 1.000000e+000 -7.344578e-017 -1.110223e-016
      outer loop
         vertex 2.330792e+003 4.371318e+002 1.862858e+003
         vertex 2.330792e+003 4.361192e+002 1.862462e+003
         vertex 2.330792e+003 4.364890e+002 1.862092e+003
      endloop
   endfacet
   facet normal 1.000000e+000 -7.344578e-017 -1.110223e-016
      outer loop
         vertex 2.330792e+003 4.371318e+002 1.862858e+003
         vertex 2.330792e+003 4.364890e+002 1.862092e+003
         vertex 2.330792e+003 4.374173e+002 1.862658e+003
      endloop
   endfacet
   facet normal 1.000000e+000 -7.344578e-017 -1.110223e-016
      outer loop
         vertex 2.330792e+003 4.374173e+002 1.862658e+003
         vertex 2.330792e+003 4.364890e+002 1.862092e+003
         vertex 2.330792e+003 4.369173e+002 1.861792e+003
      endloop
   endfacet
   facet normal 1.000000e+000 -7.344578e-017 -1.110223e-016
      outer loop
         vertex 2.330792e+003 4.374173e+002 1.862658e+003
         vertex 2.330792e+003 4.369173e+002 1.861792e+003
         vertex 2.330792e+003 4.377333e+002 1.862511e+003
      endloop
   endfacet
   facet normal 1.000000e+000 -7.344578e-017 -1.110223e-016
      outer loop
         vertex 2.330792e+003 4.377333e+002 1.862511e+003
         vertex 2.330792e+003 4.369173e+002 1.861792e+003
         vertex 2.330792e+003 4.373913e+002 1.861571e+003
      endloop
   endfacet
   facet normal 1.000000e+000 -7.344578e-017 -1.110223e-016
      outer loop
         vertex 2.330792e+003 4.377333e+002 1.862511e+003
         vertex 2.330792e+003 4.373913e+002 1.861571e+003
         vertex 2.330792e+003 4.380700e+002 1.862420e+003
      endloop
   endfacet
   facet normal 1.000000e+000 -7.344578e-017 -1.110223e-016
      outer loop
         vertex 2.330792e+003 4.380700e+002 1.862420e+003
         vertex 2.330792e+003 4.373913e+002 1.861571e+003
         vertex 2.330792e+003 4.378964e+002 1.861436e+003
      endloop
   endfacet
   facet normal 1.000000e+000 -7.344578e-017 -1.110223e-016
      outer loop
         vertex 2.330792e+003 4.380700e+002 1.862420e+003
         vertex 2.330792e+003 4.378964e+002 1.861436e+003
         vertex 2.330792e+003 4.384174e+002 1.862390e+003
      endloop
   endfacet
   facet normal 1.000000e+000 -7.344578e-017 -1.110223e-016
      outer loop
         vertex 2.330792e+003 4.384174e+002 1.862390e+003
         vertex 2.330792e+003 4.378964e+002 1.861436e+003
         vertex 2.330792e+003 4.384174e+002 1.861390e+003
      endloop
   endfacet
   facet normal -1.000000e+000 7.344578e-017 1.110223e-016
      outer loop
         vertex 9.347922e+002 4.384174e+002 1.862390e+003
         vertex 9.347922e+002 4.384174e+002 1.861390e+003
         vertex 9.347922e+002 4.380700e+002 1.862420e+003
      endloop
   endfacet
   facet normal -1.000000e+000 7.344578e-017 1.110223e-016
      outer loop
         vertex 9.347922e+002 4.380700e+002 1.862420e+003
         vertex 9.347922e+002 4.384174e+002 1.861390e+003
         vertex 9.347922e+002 4.378964e+002 1.861436e+003
      endloop
   endfacet
   facet normal -1.000000e+000 7.344578e-017 1.110223e-016
      outer loop
         vertex 9.347922e+002 4.380700e+002 1.862420e+003
         vertex 9.347922e+002 4.378964e+002 1.861436e+003
         vertex 9.347922e+002 4.377333e+002 1.862511e+003
      endloop
   endfacet
   facet normal -1.000000e+000 7.344578e-017 1.110223e-016
      outer loop
         vertex 9.347922e+002 4.377333e+002 1.862511e+003
         vertex 9.347922e+002 4.378964e+002 1.861436e+003
         vertex 9.347922e+002 4.373913e+002 1.861571e+003
      endloop
   endfacet
   facet normal -1.000000e+000 7.344578e-017 1.110223e-016
      outer loop
         vertex 9.347922e+002 4.377333e+002 1.862511e+003
         vertex 9.347922e+002 4.373913e+002 1.861571e+003
         vertex 9.347922e+002 4.374173e+002 1.862658e+003
      endloop
   endfacet
   facet normal -1.000000e+000 7.344578e-017 1.110223e-016
      outer loop
         vertex 9.347922e+002 4.374173e+002 1.862658e+003
         vertex 9.347922e+002 4.373913e+002 1.861571e+003
         vertex 9.347922e+002 4.369173e+002 1.861792e+003
      endloop
   endfacet
   facet normal -1.000000e+000 7.344578e-017 1.110223e-016
      outer loop
         vertex 9.347922e+002 4.374173e+002 1.862658e+003
         vertex 9.347922e+002 4.369173e+002 1.861792e+003
         vertex 9.347922e+002 4.371318e+002 1.862858e+003
      endloop
   endfacet
   facet normal -1.000000e+000 7.344578e-017 1.110223e-016
      outer loop
         vertex 9.347922e+002 4.371318e+002 1.862858e+003
         vertex 9.347922e+002 4.369173e+002 1.861792e+003
         vertex 9.347922e+002 4.364890e+002 1.862092e+003
      endloop
   endfacet
   facet normal -1.000000e+000 7.344578e-017 1.110223e-016
      outer loop
         vertex 9.347922e+002 4.371318e+002 1.862858e+003
         vertex 9.347922e+002 4.364890e+002 1.862092e+003
         vertex 9.347922e+002 4.368852e+002 1.863104e+003
      endloop
   endfacet
   facet normal -1.000000e+000 7.344578e-017 1.110223e-016
      outer loop
         vertex 9.347922e+002 4.368852e+002 1.863104e+003
         vertex 9.347922e+002 4.364890e+002 1.862092e+003
         vertex 9.347922e+002 4.361192e+002 1.862462e+003
      endloop
   endfacet
   facet normal -1.000000e+000 7.344578e-017 1.110223e-016
      outer loop
         vertex 9.347922e+002 4.368852e+002 1.863104e+003
         vertex 9.347922e+002 4.361192e+002 1.862462e+003
         vertex 9.347922e+002 4.366853e+002 1.863390e+003
      endloop
   endfacet
   facet normal -1.000000e+000 7.344578e-017 1.110223e-016
      outer loop
         vertex 9.347922e+002 4.366853e+002 1.863390e+003
         vertex 9.347922e+002 4.361192e+002 1.862462e+003
         vertex 9.347922e+002 4.358193e+002 1.862890e+003
      endloop
   endfacet
   facet normal -1.000000e+000 7.344578e-017 1.110223e-016
      outer loop
         vertex 9.347922e+002 4.366853e+002 1.863390e+003
         vertex 9.347922e+002 4.358193e+002 1.862890e+003
         vertex 9.347922e+002 4.365380e+002 1.863706e+003
      endloop
   endfacet
   facet normal -1.000000e+000 7.344578e-017 1.110223e-016
      outer loop
         vertex 9.347922e+002 4.365380e+002 1.863706e+003
         vertex 9.347922e+002 4.358193e+002 1.862890e+003
         vertex 9.347922e+002 4.355983e+002 1.863364e+003
      endloop
   endfacet
   facet normal -1.000000e+000 7.344578e-017 1.110223e-016
      outer loop
         vertex 9.347922e+002 4.365380e+002 1.863706e+003
         vertex 9.347922e+002 4.355983e+002 1.863364e+003
         vertex 9.347922e+002 4.364477e+002 1.864043e+003
      endloop
   endfacet
   facet normal -1.000000e+000 7.344578e-017 1.110223e-016
      outer loop
         vertex 9.347922e+002 4.364477e+002 1.864043e+003
         vertex 9.347922e+002 4.355983e+002 1.863364e+003
         vertex 9.347922e+002 4.354629e+002 1.863869e+003
      endloop
   endfacet
   facet normal -1.000000e+000 7.344578e-017 1.110223e-016
      outer loop
         vertex 9.347922e+002 4.364477e+002 1.864043e+003
         vertex 9.347922e+002 4.354629e+002 1.863869e+003
         vertex 9.347922e+002 4.364173e+002 1.864390e+003
      endloop
   endfacet
   facet normal -1.000000e+000 7.344578e-017 1.110223e-016
      outer loop
         vertex 9.347922e+002 4.364173e+002 1.864390e+003
         vertex 9.347922e+002 4.354629e+002 1.863869e+003
         vertex 9.347922e+002 4.354173e+002 1.864390e+003
      endloop
   endfacet
   facet normal -6.979666e-017 -9.983120e-001 -5.807914e-002
      outer loop
         vertex 2.330792e+003 4.354173e+002 1.864390e+003
         vertex 9.347922e+002 4.354173e+002 1.864390e+003
         vertex 9.347922e+002 4.354629e+002 1.863869e+003
      endloop
   endfacet
   facet normal -7.268185e-017 -9.932307e-001 -1.161583e-001
      outer loop
         vertex 2.330792e+003 4.354173e+002 1.864390e+003
         vertex 9.347922e+002 4.354629e+002 1.863869e+003
         vertex 2.330792e+003 4.354629e+002 1.863869e+003
      endloop
   endfacet
   facet normal -7.768688e-017 -9.730601e-001 -2.305518e-001
      outer loop
         vertex 2.330792e+003 4.354629e+002 1.863869e+003
         vertex 9.347922e+002 4.354629e+002 1.863869e+003
         vertex 9.347922e+002 4.355983e+002 1.863364e+003
      endloop
   endfacet
   facet normal -7.980672e-017 -9.579706e-001 -2.868663e-001
      outer loop
         vertex 2.330792e+003 4.354629e+002 1.863869e+003
         vertex 9.347922e+002 4.355983e+002 1.863364e+003
         vertex 2.330792e+003 4.355983e+002 1.863364e+003
      endloop
   endfacet
   facet normal -8.321664e-017 -9.182422e-001 -3.960194e-001
      outer loop
         vertex 2.330792e+003 4.355983e+002 1.863364e+003
         vertex 9.347922e+002 4.355983e+002 1.863364e+003
         vertex 9.347922e+002 4.358193e+002 1.862890e+003
      endloop
   endfacet
   facet normal -8.450671e-017 -8.936031e-001 -4.488580e-001
      outer loop
         vertex 2.330792e+003 4.355983e+002 1.863364e+003
         vertex 9.347922e+002 4.358193e+002 1.862890e+003
         vertex 2.330792e+003 4.358193e+002 1.862890e+003
      endloop
   endfacet
   facet normal -8.621790e-017 -8.355240e-001 -5.494540e-001
      outer loop
         vertex 2.330792e+003 4.358193e+002 1.862890e+003
         vertex 9.347922e+002 4.358193e+002 1.862890e+003
         vertex 9.347922e+002 4.361192e+002 1.862462e+003
      endloop
   endfacet
   facet normal -8.663900e-017 -8.020839e-001 -5.972114e-001
      outer loop
         vertex 2.330792e+003 4.358193e+002 1.862890e+003
         vertex 9.347922e+002 4.361192e+002 1.862462e+003
         vertex 2.330792e+003 4.361192e+002 1.862462e+003
      endloop
   endfacet
   facet normal -8.659946e-017 -7.274188e-001 -6.861938e-001
      outer loop
         vertex 2.330792e+003 4.361192e+002 1.862462e+003
         vertex 9.347922e+002 4.361192e+002 1.862462e+003
         vertex 9.347922e+002 4.364890e+002 1.862092e+003
      endloop
   endfacet
   facet normal -8.613881e-017 -6.861938e-001 -7.274188e-001
      outer loop
         vertex 2.330792e+003 4.361192e+002 1.862462e+003
         vertex 9.347922e+002 4.364890e+002 1.862092e+003
         vertex 2.330792e+003 4.364890e+002 1.862092e+003
      endloop
   endfacet
   facet normal -8.434975e-017 -5.972114e-001 -8.020839e-001
      outer loop
         vertex 2.330792e+003 4.364890e+002 1.862092e+003
         vertex 9.347922e+002 4.364890e+002 1.862092e+003
         vertex 9.347922e+002 4.369173e+002 1.861792e+003
      endloop
   endfacet
   facet normal -8.302134e-017 -5.494540e-001 -8.355240e-001
      outer loop
         vertex 2.330792e+003 4.364890e+002 1.862092e+003
         vertex 9.347922e+002 4.369173e+002 1.861792e+003
         vertex 2.330792e+003 4.369173e+002 1.861792e+003
      endloop
   endfacet
   facet normal -7.953712e-017 -4.488580e-001 -8.936031e-001
      outer loop
         vertex 2.330792e+003 4.369173e+002 1.861792e+003
         vertex 9.347922e+002 4.369173e+002 1.861792e+003
         vertex 9.347922e+002 4.373913e+002 1.861571e+003
      endloop
   endfacet
   facet normal -7.738130e-017 -3.960194e-001 -9.182422e-001
      outer loop
         vertex 2.330792e+003 4.369173e+002 1.861792e+003
         vertex 9.347922e+002 4.373913e+002 1.861571e+003
         vertex 2.330792e+003 4.373913e+002 1.861571e+003
      endloop
   endfacet
   facet normal -7.230778e-017 -2.868663e-001 -9.579706e-001
      outer loop
         vertex 2.330792e+003 4.373913e+002 1.861571e+003
         vertex 9.347922e+002 4.373913e+002 1.861571e+003
         vertex 9.347922e+002 4.378964e+002 1.861436e+003
      endloop
   endfacet
   facet normal -6.939008e-017 -2.305518e-001 -9.730601e-001
      outer loop
         vertex 2.330792e+003 4.373913e+002 1.861571e+003
         vertex 9.347922e+002 4.378964e+002 1.861436e+003
         vertex 2.330792e+003 4.378964e+002 1.861436e+003
      endloop
   endfacet
   facet normal -6.288142e-017 -1.161583e-001 -9.932307e-001
      outer loop
         vertex 2.330792e+003 4.378964e+002 1.861436e+003
         vertex 9.347922e+002 4.378964e+002 1.861436e+003
         vertex 9.347922e+002 4.384174e+002 1.861390e+003
      endloop
   endfacet
   facet normal -5.929047e-017 -5.807914e-002 -9.983120e-001
      outer loop
         vertex 2.330792e+003 4.378964e+002 1.861436e+003
         vertex 9.347922e+002 4.384174e+002 1.861390e+003
         vertex 2.330792e+003 4.384174e+002 1.861390e+003
      endloop
   endfacet
   facet normal 5.929047e-017 5.807914e-002 9.983120e-001
      outer loop
         vertex 2.330792e+003 4.384174e+002 1.862390e+003
         vertex 9.347922e+002 4.384174e+002 1.862390e+003
         vertex 9.347922e+002 4.380700e+002 1.862420e+003
      endloop
   endfacet
   facet normal 6.288142e-017 1.161583e-001 9.932307e-001
      outer loop
         vertex 2.330792e+003 4.384174e+002 1.862390e+003
         vertex 9.347922e+002 4.380700e+002 1.862420e+003
         vertex 2.330792e+003 4.380700e+002 1.862420e+003
      endloop
   endfacet
   facet normal 6.939008e-017 2.305518e-001 9.730601e-001
      outer loop
         vertex 2.330792e+003 4.380700e+002 1.862420e+003
         vertex 9.347922e+002 4.380700e+002 1.862420e+003
         vertex 9.347922e+002 4.377333e+002 1.862511e+003
      endloop
   endfacet
   facet normal 7.230778e-017 2.868663e-001 9.579706e-001
      outer loop
         vertex 2.330792e+003 4.380700e+002 1.862420e+003
         vertex 9.347922e+002 4.377333e+002 1.862511e+003
         vertex 2.330792e+003 4.377333e+002 1.862511e+003
      endloop
   endfacet
   facet normal 7.738130e-017 3.960194e-001 9.182422e-001
      outer loop
         vertex 2.330792e+003 4.377333e+002 1.862511e+003
         vertex 9.347922e+002 4.377333e+002 1.862511e+003
         vertex 9.347922e+002 4.374173e+002 1.862658e+003
      endloop
   endfacet
   facet normal 7.953712e-017 4.488580e-001 8.936031e-001
      outer loop
         vertex 2.330792e+003 4.377333e+002 1.862511e+003
         vertex 9.347922e+002 4.374173e+002 1.862658e+003
         vertex 2.330792e+003 4.374173e+002 1.862658e+003
      endloop
   endfacet
   facet normal 8.302134e-017 5.494540e-001 8.355240e-001
      outer loop
         vertex 2.330792e+003 4.374173e+002 1.862658e+003
         vertex 9.347922e+002 4.374173e+002 1.862658e+003
         vertex 9.347922e+002 4.371318e+002 1.862858e+003
      endloop
   endfacet
   facet normal 8.434975e-017 5.972114e-001 8.020839e-001
      outer loop
         vertex 2.330792e+003 4.374173e+002 1.862658e+003
         vertex 9.347922e+002 4.371318e+002 1.862858e+003
         vertex 2.330792e+003 4.371318e+002 1.862858e+003
      endloop
   endfacet
   facet normal 8.613881e-017 6.861938e-001 7.274188e-001
      outer loop
         vertex 2.330792e+003 4.371318e+002 1.862858e+003
         vertex 9.347922e+002 4.371318e+002 1.862858e+003
         vertex 9.347922e+002 4.368852e+002 1.863104e+003
      endloop
   endfacet
   facet normal 8.659946e-017 7.274188e-001 6.861938e-001
      outer loop
         vertex 2.330792e+003 4.371318e+002 1.862858e+003
         vertex 9.347922e+002 4.368852e+002 1.863104e+003
         vertex 2.330792e+003 4.368852e+002 1.863104e+003
      endloop
   endfacet
   facet normal 8.663900e-017 8.020839e-001 5.972114e-001
      outer loop
         vertex 2.330792e+003 4.368852e+002 1.863104e+003
         vertex 9.347922e+002 4.368852e+002 1.863104e+003
         vertex 9.347922e+002 4.366853e+002 1.863390e+003
      endloop
   endfacet
   facet normal 8.621790e-017 8.355240e-001 5.494540e-001
      outer loop
         vertex 2.330792e+003 4.368852e+002 1.863104e+003
         vertex 9.347922e+002 4.366853e+002 1.863390e+003
         vertex 2.330792e+003 4.366853e+002 1.863390e+003
      endloop
   endfacet
   facet normal 8.450671e-017 8.936031e-001 4.488580e-001
      outer loop
         vertex 2.330792e+003 4.366853e+002 1.863390e+003
         vertex 9.347922e+002 4.366853e+002 1.863390e+003
         vertex 9.347922e+002 4.365380e+002 1.863706e+003
      endloop
   endfacet
   facet normal 8.321664e-017 9.182422e-001 3.960194e-001
      outer loop
         vertex 2.330792e+003 4.366853e+002 1.863390e+003
         vertex 9.347922e+002 4.365380e+002 1.863706e+003
         vertex 2.330792e+003 4.365380e+002 1.863706e+003
      endloop
   endfacet
   facet normal 7.980672e-017 9.579706e-001 2.868663e-001
      outer loop
         vertex 2.330792e+003 4.365380e+002 1.863706e+003
         vertex 9.347922e+002 4.365380e+002 1.863706e+003
         vertex 9.347922e+002 4.364477e+002 1.864043e+003
      endloop
   endfacet
   facet normal 7.768688e-017 9.730601e-001 2.305518e-001
      outer loop
         vertex 2.330792e+003 4.365380e+002 1.863706e+003
         vertex 9.347922e+002 4.364477e+002 1.864043e+003
         vertex 2.330792e+003 4.364477e+002 1.864043e+003
      endloop
   endfacet
   facet normal 7.268185e-017 9.932307e-001 1.161583e-001
      outer loop
         vertex 2.330792e+003 4.364477e+002 1.864043e+003
         vertex 9.347922e+002 4.364477e+002 1.864043e+003
         vertex 9.347922e+002 4.364173e+002 1.864390e+003
      endloop
   endfacet
   facet normal 6.979666e-017 9.983120e-001 5.807914e-002
      outer loop
         vertex 2.330792e+003 4.364477e+002 1.864043e+003
         vertex 9.347922e+002 4.364173e+002 1.864390e+003
         vertex 2.330792e+003 4.364173e+002 1.864390e+003
      endloop
   endfacet
   facet normal 1.000000e+000 -7.344578e-017 -1.110223e-016
      outer loop
         vertex 2.330792e+003 4.974173e+002 1.862390e+003
         vertex 2.330792e+003 4.974173e+002 1.861390e+003
         vertex 2.330792e+003 4.977646e+002 1.862420e+003
      endloop
   endfacet
   facet normal 1.000000e+000 -7.344578e-017 -1.110223e-016
      outer loop
         vertex 2.330792e+003 4.977646e+002 1.862420e+003
         vertex 2.330792e+003 4.974173e+002 1.861390e+003
         vertex 2.330792e+003 4.979383e+002 1.861436e+003
      endloop
   endfacet
   facet normal 1.000000e+000 -7.344578e-017 -1.110223e-016
      outer loop
         vertex 2.330792e+003 4.977646e+002 1.862420e+003
         vertex 2.330792e+003 4.979383e+002 1.861436e+003
         vertex 2.330792e+003 4.981014e+002 1.862511e+003
      endloop
   endfacet
   facet normal 1.000000e+000 -7.344578e-017 -1.110223e-016
      outer loop
         vertex 2.330792e+003 4.981014e+002 1.862511e+003
         vertex 2.330792e+003 4.979383e+002 1.861436e+003
         vertex 2.330792e+003 4.984434e+002 1.861571e+003
      endloop
   endfacet
   facet normal 1.000000e+000 -7.344578e-017 -1.110223e-016
      outer loop
         vertex 2.330792e+003 4.981014e+002 1.862511e+003
         vertex 2.330792e+003 4.984434e+002 1.861571e+003
         vertex 2.330792e+003 4.984173e+002 1.862658e+003
      endloop
   endfacet
   facet normal 1.000000e+000 -7.344578e-017 -1.110223e-016
      outer loop
         vertex 2.330792e+003 4.984173e+002 1.862658e+003
         vertex 2.330792e+003 4.984434e+002 1.861571e+003
         vertex 2.330792e+003 4.989173e+002 1.861792e+003
      endloop
   endfacet
   facet normal 1.000000e+000 -7.344578e-017 -1.110223e-016
      outer loop
         vertex 2.330792e+003 4.984173e+002 1.862658e+003
         vertex 2.330792e+003 4.989173e+002 1.861792e+003
         vertex 2.330792e+003 4.987029e+002 1.862858e+003
      endloop
   endfacet
   facet normal 1.000000e+000 -7.344578e-017 -1.110223e-016
      outer loop
         vertex 2.330792e+003 4.987029e+002 1.862858e+003
         vertex 2.330792e+003 4.989173e+002 1.861792e+003
         vertex 2.330792e+003 4.993457e+002 1.862092e+003
      endloop
   endfacet
   facet normal 1.000000e+000 -7.344578e-017 -1.110223e-016
      outer loop
         vertex 2.330792e+003 4.987029e+002 1.862858e+003
         vertex 2.330792e+003 4.993457e+002 1.862092e+003
         vertex 2.330792e+003 4.989494e+002 1.863104e+003
      endloop
   endfacet
   facet normal 1.000000e+000 -7.344578e-017 -1.110223e-016
      outer loop
         vertex 2.330792e+003 4.989494e+002 1.863104e+003
         vertex 2.330792e+003 4.993457e+002 1.862092e+003
         vertex 2.330792e+003 4.997155e+002 1.862462e+003
      endloop
   endfacet
   facet normal 1.000000e+000 -7.344578e-017 -1.110223e-016
      outer loop
         vertex 2.330792e+003 4.989494e+002 1.863104e+003
         vertex 2.330792e+003 4.997155e+002 1.862462e+003
         vertex 2.330792e+003 4.991494e+002 1.863390e+003
      endloop
   endfacet
   facet normal 1.000000e+000 -7.344578e-017 -1.110223e-016
      outer loop
         vertex 2.330792e+003 4.991494e+002 1.863390e+003
         vertex 2.330792e+003 4.997155e+002 1.862462e+003
         vertex 2.330792e+003 5.000154e+002 1.862890e+003
      endloop
   endfacet
   facet normal 1.000000e+000 -7.344578e-017 -1.110223e-016
      outer loop
         vertex 2.330792e+003 4.991494e+002 1.863390e+003
         vertex 2.330792e+003 5.000154e+002 1.862890e+003
         vertex 2.330792e+003 4.992967e+002 1.863706e+003
      endloop
   endfacet
   facet normal 1.000000e+000 -7.344578e-017 -1.110223e-016
      outer loop
         vertex 2.330792e+003 4.992967e+002 1.863706e+003
         vertex 2.330792e+003 5.000154e+002 1.862890e+003
         vertex 2.330792e+003 5.002364e+002 1.863364e+003
      endloop
   endfacet
   facet normal 1.000000e+000 -7.344578e-017 -1.110223e-016
      outer loop
         vertex 2.330792e+003 4.992967e+002 1.863706e+003
         vertex 2.330792e+003 5.002364e+002 1.863364e+003
         vertex 2.330792e+003 4.993869e+002 1.864043e+003
      endloop
   endfacet
   facet normal 1.000000e+000 -7.344578e-017 -1.110223e-016
      outer loop
         vertex 2.330792e+003 4.993869e+002 1.864043e+003
         vertex 2.330792e+003 5.002364e+002 1.863364e+003
         vertex 2.330792e+003 5.003718e+002 1.863869e+003
      endloop
   endfacet
   facet normal 1.000000e+000 -7.344578e-017 -1.110223e-016
      outer loop
         vertex 2.330792e+003 4.993869e+002 1.864043e+003
         vertex 2.330792e+003 5.003718e+002 1.863869e+003
         vertex 2.330792e+003 4.994173e+002 1.864390e+003
      endloop
   endfacet
   facet normal 1.000000e+000 -7.344578e-017 -1.110223e-016
      outer loop
         vertex 2.330792e+003 4.994173e+002 1.864390e+003
         vertex 2.330792e+003 5.003718e+002 1.863869e+003
         vertex 2.330792e+003 5.004174e+002 1.864390e+003
      endloop
   endfacet
   facet normal -1.000000e+000 7.344578e-017 1.110223e-016
      outer loop
         vertex 9.347922e+002 4.994173e+002 1.864390e+003
         vertex 9.347922e+002 5.004174e+002 1.864390e+003
         vertex 9.347922e+002 4.993869e+002 1.864043e+003
      endloop
   endfacet
   facet normal -1.000000e+000 7.344578e-017 1.110223e-016
      outer loop
         vertex 9.347922e+002 4.993869e+002 1.864043e+003
         vertex 9.347922e+002 5.004174e+002 1.864390e+003
         vertex 9.347922e+002 5.003718e+002 1.863869e+003
      endloop
   endfacet
   facet normal -1.000000e+000 7.344578e-017 1.110223e-016
      outer loop
         vertex 9.347922e+002 4.993869e+002 1.864043e+003
         vertex 9.347922e+002 5.003718e+002 1.863869e+003
         vertex 9.347922e+002 4.992967e+002 1.863706e+003
      endloop
   endfacet
   facet normal -1.000000e+000 7.344578e-017 1.110223e-016
      outer loop
         vertex 9.347922e+002 4.992967e+002 1.863706e+003
         vertex 9.347922e+002 5.003718e+002 1.863869e+003
         vertex 9.347922e+002 5.002364e+002 1.863364e+003
      endloop
   endfacet
   facet normal -1.000000e+000 7.344578e-017 1.110223e-016
      outer loop
         vertex 9.347922e+002 4.992967e+002 1.863706e+003
         vertex 9.347922e+002 5.002364e+002 1.863364e+003
         vertex 9.347922e+002 4.991494e+002 1.863390e+003
      endloop
   endfacet
   facet normal -1.000000e+000 7.344578e-017 1.110223e-016
      outer loop
         vertex 9.347922e+002 4.991494e+002 1.863390e+003
         vertex 9.347922e+002 5.002364e+002 1.863364e+003
         vertex 9.347922e+002 5.000154e+002 1.862890e+003
      endloop
   endfacet
   facet normal -1.000000e+000 7.344578e-017 1.110223e-016
      outer loop
         vertex 9.347922e+002 4.991494e+002 1.863390e+003
         vertex 9.347922e+002 5.000154e+002 1.862890e+003
         vertex 9.347922e+002 4.989494e+002 1.863104e+003
      endloop
   endfacet
   facet normal -1.000000e+000 7.344578e-017 1.110223e-016
      outer loop
         vertex 9.347922e+002 4.989494e+002 1.863104e+003
         vertex 9.347922e+002 5.000154e+002 1.862890e+003
         vertex 9.347922e+002 4.997155e+002 1.862462e+003
      endloop
   endfacet
   facet normal -1.000000e+000 7.344578e-017 1.110223e-016
      outer loop
         vertex 9.347922e+002 4.989494e+002 1.863104e+003
         vertex 9.347922e+002 4.997155e+002 1.862462e+003
         vertex 9.347922e+002 4.987029e+002 1.862858e+003
      endloop
   endfacet
   facet normal -1.000000e+000 7.344578e-017 1.110223e-016
      outer loop
         vertex 9.347922e+002 4.987029e+002 1.862858e+003
         vertex 9.347922e+002 4.997155e+002 1.862462e+003
         vertex 9.347922e+002 4.993457e+002 1.862092e+003
      endloop
   endfacet
   facet normal -1.000000e+000 7.344578e-017 1.110223e-016
      outer loop
         vertex 9.347922e+002 4.987029e+002 1.862858e+003
         vertex 9.347922e+002 4.993457e+002 1.862092e+003
         vertex 9.347922e+002 4.984173e+002 1.862658e+003
      endloop
   endfacet
   facet normal -1.000000e+000 7.344578e-017 1.110223e-016
      outer loop
         vertex 9.347922e+002 4.984173e+002 1.862658e+003
         vertex 9.347922e+002 4.993457e+002 1.862092e+003
         vertex 9.347922e+002 4.989173e+002 1.861792e+003
      endloop
   endfacet
   facet normal -1.000000e+000 7.344578e-017 1.110223e-016
      outer loop
         vertex 9.347922e+002 4.984173e+002 1.862658e+003
         vertex 9.347922e+002 4.989173e+002 1.861792e+003
         vertex 9.347922e+002 4.981014e+002 1.862511e+003
      endloop
   endfacet
   facet normal -1.000000e+000 7.344578e-017 1.110223e-016
      outer loop
         vertex 9.347922e+002 4.981014e+002 1.862511e+003
         vertex 9.347922e+002 4.989173e+002 1.861792e+003
         vertex 9.347922e+002 4.984434e+002 1.861571e+003
      endloop
   endfacet
   facet normal -1.000000e+000 7.344578e-017 1.110223e-016
      outer loop
         vertex 9.347922e+002 4.981014e+002 1.862511e+003
         vertex 9.347922e+002 4.984434e+002 1.861571e+003
         vertex 9.347922e+002 4.977646e+002 1.862420e+003
      endloop
   endfacet
   facet normal -1.000000e+000 7.344578e-017 1.110223e-016
      outer loop
         vertex 9.347922e+002 4.977646e+002 1.862420e+003
         vertex 9.347922e+002 4.984434e+002 1.861571e+003
         vertex 9.347922e+002 4.979383e+002 1.861436e+003
      endloop
   endfacet
   facet normal -1.000000e+000 7.344578e-017 1.110223e-016
      outer loop
         vertex 9.347922e+002 4.977646e+002 1.862420e+003
         vertex 9.347922e+002 4.979383e+002 1.861436e+003
         vertex 9.347922e+002 4.974173e+002 1.862390e+003
      endloop
   endfacet
   facet normal -1.000000e+000 7.344578e-017 1.110223e-016
      outer loop
         vertex 9.347922e+002 4.974173e+002 1.862390e+003
         vertex 9.347922e+002 4.979383e+002 1.861436e+003
         vertex 9.347922e+002 4.974173e+002 1.861390e+003
      endloop
   endfacet
   facet normal -5.154443e-017 5.807914e-002 -9.983120e-001
      outer loop
         vertex 2.330792e+003 4.974173e+002 1.861390e+003
         vertex 9.347922e+002 4.974173e+002 1.861390e+003
         vertex 9.347922e+002 4.979383e+002 1.861436e+003
      endloop
   endfacet
   facet normal -4.738935e-017 1.161583e-001 -9.932307e-001
      outer loop
         vertex 2.330792e+003 4.974173e+002 1.861390e+003
         vertex 9.347922e+002 4.979383e+002 1.861436e+003
         vertex 2.330792e+003 4.979383e+002 1.861436e+003
      endloop
   endfacet
   facet normal -3.864129e-017 2.305518e-001 -9.730601e-001
      outer loop
         vertex 2.330792e+003 4.979383e+002 1.861436e+003
         vertex 9.347922e+002 4.979383e+002 1.861436e+003
         vertex 9.347922e+002 4.984434e+002 1.861571e+003
      endloop
   endfacet
   facet normal -3.404832e-017 2.868663e-001 -9.579706e-001
      outer loop
         vertex 2.330792e+003 4.979383e+002 1.861436e+003
         vertex 9.347922e+002 4.984434e+002 1.861571e+003
         vertex 2.330792e+003 4.984434e+002 1.861571e+003
      endloop
   endfacet
   facet normal -2.456405e-017 3.960194e-001 -9.182422e-001
      outer loop
         vertex 2.330792e+003 4.984434e+002 1.861571e+003
         vertex 9.347922e+002 4.984434e+002 1.861571e+003
         vertex 9.347922e+002 4.989173e+002 1.861792e+003
      endloop
   endfacet
   facet normal -1.967276e-017 4.488580e-001 -8.936031e-001
      outer loop
         vertex 2.330792e+003 4.984434e+002 1.861571e+003
         vertex 9.347922e+002 4.989173e+002 1.861792e+003
         vertex 2.330792e+003 4.989173e+002 1.861792e+003
      endloop
   endfacet
   facet normal -9.740459e-018 5.494540e-001 -8.355240e-001
      outer loop
         vertex 2.330792e+003 4.989173e+002 1.861792e+003
         vertex 9.347922e+002 4.989173e+002 1.861792e+003
         vertex 9.347922e+002 4.993457e+002 1.862092e+003
      endloop
   endfacet
   facet normal -4.699449e-018 5.972114e-001 -8.020839e-001
      outer loop
         vertex 2.330792e+003 4.989173e+002 1.861792e+003
         vertex 9.347922e+002 4.993457e+002 1.862092e+003
         vertex 2.330792e+003 4.993457e+002 1.862092e+003
      endloop
   endfacet
   facet normal 5.379103e-018 6.861938e-001 -7.274188e-001
      outer loop
         vertex 2.330792e+003 4.993457e+002 1.862092e+003
         vertex 9.347922e+002 4.993457e+002 1.862092e+003
         vertex 9.347922e+002 4.997155e+002 1.862462e+003
      endloop
   endfacet
   facet normal 1.041665e-017 7.274188e-001 -6.861938e-001
      outer loop
         vertex 2.330792e+003 4.993457e+002 1.862092e+003
         vertex 9.347922e+002 4.997155e+002 1.862462e+003
         vertex 2.330792e+003 4.997155e+002 1.862462e+003
      endloop
   endfacet
   facet normal 2.033522e-017 8.020839e-001 -5.972114e-001
      outer loop
         vertex 2.330792e+003 4.997155e+002 1.862462e+003
         vertex 9.347922e+002 4.997155e+002 1.862462e+003
         vertex 9.347922e+002 5.000154e+002 1.862890e+003
      endloop
   endfacet
   facet normal 2.521625e-017 8.355240e-001 -5.494540e-001
      outer loop
         vertex 2.330792e+003 4.997155e+002 1.862462e+003
         vertex 9.347922e+002 5.000154e+002 1.862890e+003
         vertex 2.330792e+003 5.000154e+002 1.862890e+003
      endloop
   endfacet
   facet normal 3.467346e-017 8.936031e-001 -4.488580e-001
      outer loop
         vertex 2.330792e+003 5.000154e+002 1.862890e+003
         vertex 9.347922e+002 5.000154e+002 1.862890e+003
         vertex 9.347922e+002 5.002364e+002 1.863364e+003
      endloop
   endfacet
   facet normal 3.924965e-017 9.182422e-001 -3.960194e-001
      outer loop
         vertex 2.330792e+003 5.000154e+002 1.862890e+003
         vertex 9.347922e+002 5.002364e+002 1.863364e+003
         vertex 2.330792e+003 5.002364e+002 1.863364e+003
      endloop
   endfacet
   facet normal 4.795817e-017 9.579706e-001 -2.868663e-001
      outer loop
         vertex 2.330792e+003 5.002364e+002 1.863364e+003
         vertex 9.347922e+002 5.002364e+002 1.863364e+003
         vertex 9.347922e+002 5.003718e+002 1.863869e+003
      endloop
   endfacet
   facet normal 5.209049e-017 9.730601e-001 -2.305518e-001
      outer loop
         vertex 2.330792e+003 5.002364e+002 1.863364e+003
         vertex 9.347922e+002 5.003718e+002 1.863869e+003
         vertex 2.330792e+003 5.003718e+002 1.863869e+003
      endloop
   endfacet
   facet normal 5.978569e-017 9.932307e-001 -1.161583e-001
      outer loop
         vertex 2.330792e+003 5.003718e+002 1.863869e+003
         vertex 9.347922e+002 5.003718e+002 1.863869e+003
         vertex 9.347922e+002 5.004174e+002 1.864390e+003
      endloop
   endfacet
   facet normal 6.334858e-017 9.983120e-001 -5.807914e-002
      outer loop
         vertex 2.330792e+003 5.003718e+002 1.863869e+003
         vertex 9.347922e+002 5.004174e+002 1.864390e+003
         vertex 2.330792e+003 5.004174e+002 1.864390e+003
      endloop
   endfacet
   facet normal -6.334858e-017 -9.983120e-001 5.807914e-002
      outer loop
         vertex 2.330792e+003 4.994173e+002 1.864390e+003
         vertex 9.347922e+002 4.994173e+002 1.864390e+003
         vertex 9.347922e+002 4.993869e+002 1.864043e+003
      endloop
   endfacet
   facet normal -5.978569e-017 -9.932307e-001 1.161583e-001
      outer loop
         vertex 2.330792e+003 4.994173e+002 1.864390e+003
         vertex 9.347922e+002 4.993869e+002 1.864043e+003
         vertex 2.330792e+003 4.993869e+002 1.864043e+003
      endloop
   endfacet
   facet normal -5.209049e-017 -9.730601e-001 2.305518e-001
      outer loop
         vertex 2.330792e+003 4.993869e+002 1.864043e+003
         vertex 9.347922e+002 4.993869e+002 1.864043e+003
         vertex 9.347922e+002 4.992967e+002 1.863706e+003
      endloop
   endfacet
   facet normal -4.795817e-017 -9.579706e-001 2.868663e-001
      outer loop
         vertex 2.330792e+003 4.993869e+002 1.864043e+003
         vertex 9.347922e+002 4.992967e+002 1.863706e+003
         vertex 2.330792e+003 4.992967e+002 1.863706e+003
      endloop
   endfacet
   facet normal -3.924965e-017 -9.182422e-001 3.960194e-001
      outer loop
         vertex 2.330792e+003 4.992967e+002 1.863706e+003
         vertex 9.347922e+002 4.992967e+002 1.863706e+003
         vertex 9.347922e+002 4.991494e+002 1.863390e+003
      endloop
   endfacet
   facet normal -3.467346e-017 -8.936031e-001 4.488580e-001
      outer loop
         vertex 2.330792e+003 4.992967e+002 1.863706e+003
         vertex 9.347922e+002 4.991494e+002 1.863390e+003
         vertex 2.330792e+003 4.991494e+002 1.863390e+003
      endloop
   endfacet
   facet normal -2.521625e-017 -8.355240e-001 5.494540e-001
      outer loop
         vertex 2.330792e+003 4.991494e+002 1.863390e+003
         vertex 9.347922e+002 4.991494e+002 1.863390e+003
         vertex 9.347922e+002 4.989494e+002 1.863104e+003
      endloop
   endfacet
   facet normal -2.033522e-017 -8.020839e-001 5.972114e-001
      outer loop
         vertex 2.330792e+003 4.991494e+002 1.863390e+003
         vertex 9.347922e+002 4.989494e+002 1.863104e+003
         vertex 2.330792e+003 4.989494e+002 1.863104e+003
      endloop
   endfacet
   facet normal -1.041665e-017 -7.274188e-001 6.861938e-001
      outer loop
         vertex 2.330792e+003 4.989494e+002 1.863104e+003
         vertex 9.347922e+002 4.989494e+002 1.863104e+003
         vertex 9.347922e+002 4.987029e+002 1.862858e+003
      endloop
   endfacet
   facet normal -5.379103e-018 -6.861938e-001 7.274188e-001
      outer loop
         vertex 2.330792e+003 4.989494e+002 1.863104e+003
         vertex 9.347922e+002 4.987029e+002 1.862858e+003
         vertex 2.330792e+003 4.987029e+002 1.862858e+003
      endloop
   endfacet
   facet normal 4.699449e-018 -5.972114e-001 8.020839e-001
      outer loop
         vertex 2.330792e+003 4.987029e+002 1.862858e+003
         vertex 9.347922e+002 4.987029e+002 1.862858e+003
         vertex 9.347922e+002 4.984173e+002 1.862658e+003
      endloop
   endfacet
   facet normal 9.740459e-018 -5.494540e-001 8.355240e-001
      outer loop
         vertex 2.330792e+003 4.987029e+002 1.862858e+003
         vertex 9.347922e+002 4.984173e+002 1.862658e+003
         vertex 2.330792e+003 4.984173e+002 1.862658e+003
      endloop
   endfacet
   facet normal 1.967276e-017 -4.488580e-001 8.936031e-001
      outer loop
         vertex 2.330792e+003 4.984173e+002 1.862658e+003
         vertex 9.347922e+002 4.984173e+002 1.862658e+003
         vertex 9.347922e+002 4.981014e+002 1.862511e+003
      endloop
   endfacet
   facet normal 2.456405e-017 -3.960194e-001 9.182422e-001
      outer loop
         vertex 2.330792e+003 4.984173e+002 1.862658e+003
         vertex 9.347922e+002 4.981014e+002 1.862511e+003
         vertex 2.330792e+003 4.981014e+002 1.862511e+003
      endloop
   endfacet
   facet normal 3.404832e-017 -2.868663e-001 9.579706e-001
      outer loop
         vertex 2.330792e+003 4.981014e+002 1.862511e+003
         vertex 9.347922e+002 4.981014e+002 1.862511e+003
         vertex 9.347922e+002 4.977646e+002 1.862420e+003
      endloop
   endfacet
   facet normal 3.864129e-017 -2.305518e-001 9.730601e-001
      outer loop
         vertex 2.330792e+003 4.981014e+002 1.862511e+003
         vertex 9.347922e+002 4.977646e+002 1.862420e+003
         vertex 2.330792e+003 4.977646e+002 1.862420e+003
      endloop
   endfacet
   facet normal 4.738935e-017 -1.161583e-001 9.932307e-001
      outer loop
         vertex 2.330792e+003 4.977646e+002 1.862420e+003
         vertex 9.347922e+002 4.977646e+002 1.862420e+003
         vertex 9.347922e+002 4.974173e+002 1.862390e+003
      endloop
   endfacet
   facet normal 5.154443e-017 -5.807914e-002 9.983120e-001
      outer loop
         vertex 2.330792e+003 4.977646e+002 1.862420e+003
         vertex 9.347922e+002 4.974173e+002 1.862390e+003
         vertex 2.330792e+003 4.974173e+002 1.862390e+003
      endloop
   endfacet
   facet normal -1.000000e+000 7.344578e-017 1.110223e-016
      outer loop
         vertex 9.347922e+002 4.994173e+002 1.885390e+003
         vertex 9.347922e+002 5.004174e+002 1.885390e+003
         vertex 9.347922e+002 4.994173e+002 1.864390e+003
      endloop
   endfacet
   facet normal -1.000000e+000 7.344578e-017 1.110223e-016
      outer loop
         vertex 9.347922e+002 4.994173e+002 1.864390e+003
         vertex 9.347922e+002 5.004174e+002 1.885390e+003
         vertex 9.347922e+002 5.004174e+002 1.864390e+003
      endloop
   endfacet
   facet normal 1.000000e+000 -7.344578e-017 -1.110223e-016
      outer loop
         vertex 2.330792e+003 5.004174e+002 1.885390e+003
         vertex 2.330792e+003 4.994173e+002 1.885390e+003
         vertex 2.330792e+003 5.004174e+002 1.864390e+003
      endloop
   endfacet
   facet normal 1.000000e+000 -7.344578e-017 -1.110223e-016
      outer loop
         vertex 2.330792e+003 5.004174e+002 1.864390e+003
         vertex 2.330792e+003 4.994173e+002 1.885390e+003
         vertex 2.330792e+003 4.994173e+002 1.864390e+003
      endloop
   endfacet
   facet normal 6.668518e-017 1.000000e+000 -3.721379e-015
      outer loop
         vertex 9.347922e+002 5.004174e+002 1.885390e+003
         vertex 2.330792e+003 5.004174e+002 1.885390e+003
         vertex 9.347922e+002 5.004174e+002 1.864390e+003
      endloop
   endfacet
   facet normal 6.668518e-017 1.000000e+000 -3.721379e-015
      outer loop
         vertex 9.347922e+002 5.004174e+002 1.864390e+003
         vertex 2.330792e+003 5.004174e+002 1.885390e+003
         vertex 2.330792e+003 5.004174e+002 1.864390e+003
      endloop
   endfacet
   facet normal -6.668518e-017 -1.000000e+000 3.721379e-015
      outer loop
         vertex 2.330792e+003 4.994173e+002 1.864390e+003
         vertex 2.330792e+003 4.994173e+002 1.885390e+003
         vertex 9.347922e+002 4.994173e+002 1.864390e+003
      endloop
   endfacet
   facet normal -6.668518e-017 -1.000000e+000 3.721379e-015
      outer loop
         vertex 9.347922e+002 4.994173e+002 1.864390e+003
         vertex 2.330792e+003 4.994173e+002 1.885390e+003
         vertex 9.347922e+002 4.994173e+002 1.885390e+003
      endloop
   endfacet
   facet normal 5.551115e-017 3.484892e-015 1.000000e+000
      outer loop
         vertex 2.330792e+003 5.004174e+002 1.885390e+003
         vertex 9.347922e+002 5.004174e+002 1.885390e+003
         vertex 2.330792e+003 4.994173e+002 1.885390e+003
      endloop
   endfacet
   facet normal 5.551115e-017 3.484892e-015 1.000000e+000
      outer loop
         vertex 2.330792e+003 4.994173e+002 1.885390e+003
         vertex 9.347922e+002 5.004174e+002 1.885390e+003
         vertex 9.347922e+002 4.994173e+002 1.885390e+003
      endloop
   endfacet
   facet normal -1.000000e+000 -3.497365e-017 1.110223e-016
      outer loop
         vertex 9.347922e+002 4.364173e+002 2.112302e+003
         vertex 9.347922e+002 4.354173e+002 2.112302e+003
         vertex 9.347922e+002 4.364249e+002 2.112477e+003
      endloop
   endfacet
   facet normal -1.000000e+000 -3.497365e-017 1.110223e-016
      outer loop
         vertex 9.347922e+002 4.364249e+002 2.112477e+003
         vertex 9.347922e+002 4.354173e+002 2.112302e+003
         vertex 9.347922e+002 4.354287e+002 2.112564e+003
      endloop
   endfacet
   facet normal 1.000000e+000 3.497365e-017 -1.110223e-016
      outer loop
         vertex 2.330792e+003 4.354287e+002 2.112564e+003
         vertex 2.330792e+003 4.354173e+002 2.112302e+003
         vertex 2.330792e+003 4.364249e+002 2.112477e+003
      endloop
   endfacet
   facet normal 1.000000e+000 3.497365e-017 -1.110223e-016
      outer loop
         vertex 2.330792e+003 4.364249e+002 2.112477e+003
         vertex 2.330792e+003 4.354173e+002 2.112302e+003
         vertex 2.330792e+003 4.364173e+002 2.112302e+003
      endloop
   endfacet
   facet normal 4.489176e-017 -9.983077e-001 5.815303e-002
      outer loop
         vertex 9.347922e+002 4.354287e+002 2.112564e+003
         vertex 9.347922e+002 4.354173e+002 2.112302e+003
         vertex 2.330792e+003 4.354287e+002 2.112564e+003
      endloop
   endfacet
   facet normal 4.333067e-017 -9.995772e-001 2.907651e-002
      outer loop
         vertex 2.330792e+003 4.354287e+002 2.112564e+003
         vertex 9.347922e+002 4.354173e+002 2.112302e+003
         vertex 2.330792e+003 4.354173e+002 2.112302e+003
      endloop
   endfacet
   facet normal -4.333067e-017 9.995772e-001 -2.907651e-002
      outer loop
         vertex 9.347922e+002 4.364173e+002 2.112302e+003
         vertex 9.347922e+002 4.364249e+002 2.112477e+003
         vertex 2.330792e+003 4.364173e+002 2.112302e+003
      endloop
   endfacet
   facet normal -4.489176e-017 9.983077e-001 -5.815303e-002
      outer loop
         vertex 2.330792e+003 4.364173e+002 2.112302e+003
         vertex 9.347922e+002 4.364249e+002 2.112477e+003
         vertex 2.330792e+003 4.364249e+002 2.112477e+003
      endloop
   endfacet
   facet normal -1.000000e+000 7.344578e-017 1.110223e-016
      outer loop
         vertex 9.347922e+002 4.520328e+002 2.290875e+003
         vertex 9.347922e+002 4.510366e+002 2.290963e+003
         vertex 9.347922e+002 4.520884e+002 2.291200e+003
      endloop
   endfacet
   facet normal -1.000000e+000 7.344578e-017 1.110223e-016
      outer loop
         vertex 9.347922e+002 4.520884e+002 2.291200e+003
         vertex 9.347922e+002 4.510366e+002 2.290963e+003
         vertex 9.347922e+002 4.511200e+002 2.291449e+003
      endloop
   endfacet
   facet normal -1.000000e+000 7.344578e-017 1.110223e-016
      outer loop
         vertex 9.347922e+002 4.520884e+002 2.291200e+003
         vertex 9.347922e+002 4.511200e+002 2.291449e+003
         vertex 9.347922e+002 4.521965e+002 2.291511e+003
      endloop
   endfacet
   facet normal -1.000000e+000 7.344578e-017 1.110223e-016
      outer loop
         vertex 9.347922e+002 4.521965e+002 2.291511e+003
         vertex 9.347922e+002 4.511200e+002 2.291449e+003
         vertex 9.347922e+002 4.512822e+002 2.291916e+003
      endloop
   endfacet
   facet normal -1.000000e+000 7.344578e-017 1.110223e-016
      outer loop
         vertex 9.347922e+002 4.521965e+002 2.291511e+003
         vertex 9.347922e+002 4.512822e+002 2.291916e+003
         vertex 9.347922e+002 4.523542e+002 2.291800e+003
      endloop
   endfacet
   facet normal -1.000000e+000 7.344578e-017 1.110223e-016
      outer loop
         vertex 9.347922e+002 4.523542e+002 2.291800e+003
         vertex 9.347922e+002 4.512822e+002 2.291916e+003
         vertex 9.347922e+002 4.515187e+002 2.292350e+003
      endloop
   endfacet
   facet normal -1.000000e+000 7.344578e-017 1.110223e-016
      outer loop
         vertex 9.347922e+002 4.523542e+002 2.291800e+003
         vertex 9.347922e+002 4.515187e+002 2.292350e+003
         vertex 9.347922e+002 4.525572e+002 2.292059e+003
      endloop
   endfacet
   facet normal -1.000000e+000 7.344578e-017 1.110223e-016
      outer loop
         vertex 9.347922e+002 4.525572e+002 2.292059e+003
         vertex 9.347922e+002 4.515187e+002 2.292350e+003
         vertex 9.347922e+002 4.518232e+002 2.292739e+003
      endloop
   endfacet
   facet normal -1.000000e+000 7.344578e-017 1.110223e-016
      outer loop
         vertex 9.347922e+002 4.525572e+002 2.292059e+003
         vertex 9.347922e+002 4.518232e+002 2.292739e+003
         vertex 9.347922e+002 4.528000e+002 2.292282e+003
      endloop
   endfacet
   facet normal -1.000000e+000 7.344578e-017 1.110223e-016
      outer loop
         vertex 9.347922e+002 4.528000e+002 2.292282e+003
         vertex 9.347922e+002 4.518232e+002 2.292739e+003
         vertex 9.347922e+002 4.521874e+002 2.293073e+003
      endloop
   endfacet
   facet normal -1.000000e+000 7.344578e-017 1.110223e-016
      outer loop
         vertex 9.347922e+002 4.528000e+002 2.292282e+003
         vertex 9.347922e+002 4.521874e+002 2.293073e+003
         vertex 9.347922e+002 4.530760e+002 2.292462e+003
      endloop
   endfacet
   facet normal -1.000000e+000 7.344578e-017 1.110223e-016
      outer loop
         vertex 9.347922e+002 4.530760e+002 2.292462e+003
         vertex 9.347922e+002 4.521874e+002 2.293073e+003
         vertex 9.347922e+002 4.526014e+002 2.293342e+003
      endloop
   endfacet
   facet normal -1.000000e+000 7.344578e-017 1.110223e-016
      outer loop
         vertex 9.347922e+002 4.530760e+002 2.292462e+003
         vertex 9.347922e+002 4.526014e+002 2.293342e+003
         vertex 9.347922e+002 4.533777e+002 2.292594e+003
      endloop
   endfacet
   facet normal -1.000000e+000 7.344578e-017 1.110223e-016
      outer loop
         vertex 9.347922e+002 4.533777e+002 2.292594e+003
         vertex 9.347922e+002 4.526014e+002 2.293342e+003
         vertex 9.347922e+002 4.530540e+002 2.293540e+003
      endloop
   endfacet
   facet normal -1.000000e+000 7.344578e-017 1.110223e-016
      outer loop
         vertex 9.347922e+002 4.533777e+002 2.292594e+003
         vertex 9.347922e+002 4.530540e+002 2.293540e+003
         vertex 9.347922e+002 4.536970e+002 2.292674e+003
      endloop
   endfacet
   facet normal -1.000000e+000 7.344578e-017 1.110223e-016
      outer loop
         vertex 9.347922e+002 4.536970e+002 2.292674e+003
         vertex 9.347922e+002 4.530540e+002 2.293540e+003
         vertex 9.347922e+002 4.535329e+002 2.293660e+003
      endloop
   endfacet
   facet normal -1.000000e+000 7.344578e-017 1.110223e-016
      outer loop
         vertex 9.347922e+002 4.536970e+002 2.292674e+003
         vertex 9.347922e+002 4.535329e+002 2.293660e+003
         vertex 9.347922e+002 4.540252e+002 2.292701e+003
      endloop
   endfacet
   facet normal -1.000000e+000 7.344578e-017 1.110223e-016
      outer loop
         vertex 9.347922e+002 4.540252e+002 2.292701e+003
         vertex 9.347922e+002 4.535329e+002 2.293660e+003
         vertex 9.347922e+002 4.540252e+002 2.293701e+003
      endloop
   endfacet
   facet normal 1.000000e+000 -7.344578e-017 -1.110223e-016
      outer loop
         vertex 2.330792e+003 4.540252e+002 2.292701e+003
         vertex 2.330792e+003 4.540252e+002 2.293701e+003
         vertex 2.330792e+003 4.536970e+002 2.292674e+003
      endloop
   endfacet
   facet normal 1.000000e+000 -7.344578e-017 -1.110223e-016
      outer loop
         vertex 2.330792e+003 4.536970e+002 2.292674e+003
         vertex 2.330792e+003 4.540252e+002 2.293701e+003
         vertex 2.330792e+003 4.535329e+002 2.293660e+003
      endloop
   endfacet
   facet normal 1.000000e+000 -7.344578e-017 -1.110223e-016
      outer loop
         vertex 2.330792e+003 4.536970e+002 2.292674e+003
         vertex 2.330792e+003 4.535329e+002 2.293660e+003
         vertex 2.330792e+003 4.533777e+002 2.292594e+003
      endloop
   endfacet
   facet normal 1.000000e+000 -7.344578e-017 -1.110223e-016
      outer loop
         vertex 2.330792e+003 4.533777e+002 2.292594e+003
         vertex 2.330792e+003 4.535329e+002 2.293660e+003
         vertex 2.330792e+003 4.530540e+002 2.293540e+003
      endloop
   endfacet
   facet normal 1.000000e+000 -7.344578e-017 -1.110223e-016
      outer loop
         vertex 2.330792e+003 4.533777e+002 2.292594e+003
         vertex 2.330792e+003 4.530540e+002 2.293540e+003
         vertex 2.330792e+003 4.530760e+002 2.292462e+003
      endloop
   endfacet
   facet normal 1.000000e+000 -7.344578e-017 -1.110223e-016
      outer loop
         vertex 2.330792e+003 4.530760e+002 2.292462e+003
         vertex 2.330792e+003 4.530540e+002 2.293540e+003
         vertex 2.330792e+003 4.526014e+002 2.293342e+003
      endloop
   endfacet
   facet normal 1.000000e+000 -7.344578e-017 -1.110223e-016
      outer loop
         vertex 2.330792e+003 4.530760e+002 2.292462e+003
         vertex 2.330792e+003 4.526014e+002 2.293342e+003
         vertex 2.330792e+003 4.528000e+002 2.292282e+003
      endloop
   endfacet
   facet normal 1.000000e+000 -7.344578e-017 -1.110223e-016
      outer loop
         vertex 2.330792e+003 4.528000e+002 2.292282e+003
         vertex 2.330792e+003 4.526014e+002 2.293342e+003
         vertex 2.330792e+003 4.521874e+002 2.293073e+003
      endloop
   endfacet
   facet normal 1.000000e+000 -7.344578e-017 -1.110223e-016
      outer loop
         vertex 2.330792e+003 4.528000e+002 2.292282e+003
         vertex 2.330792e+003 4.521874e+002 2.293073e+003
         vertex 2.330792e+003 4.525572e+002 2.292059e+003
      endloop
   endfacet
   facet normal 1.000000e+000 -7.344578e-017 -1.110223e-016
      outer loop
         vertex 2.330792e+003 4.525572e+002 2.292059e+003
         vertex 2.330792e+003 4.521874e+002 2.293073e+003
         vertex 2.330792e+003 4.518232e+002 2.292739e+003
      endloop
   endfacet
   facet normal 1.000000e+000 -7.344578e-017 -1.110223e-016
      outer loop
         vertex 2.330792e+003 4.525572e+002 2.292059e+003
         vertex 2.330792e+003 4.518232e+002 2.292739e+003
         vertex 2.330792e+003 4.523542e+002 2.291800e+003
      endloop
   endfacet
   facet normal 1.000000e+000 -7.344578e-017 -1.110223e-016
      outer loop
         vertex 2.330792e+003 4.523542e+002 2.291800e+003
         vertex 2.330792e+003 4.518232e+002 2.292739e+003
         vertex 2.330792e+003 4.515187e+002 2.292350e+003
      endloop
   endfacet
   facet normal 1.000000e+000 -7.344578e-017 -1.110223e-016
      outer loop
         vertex 2.330792e+003 4.523542e+002 2.291800e+003
         vertex 2.330792e+003 4.515187e+002 2.292350e+003
         vertex 2.330792e+003 4.521965e+002 2.291511e+003
      endloop
   endfacet
   facet normal 1.000000e+000 -7.344578e-017 -1.110223e-016
      outer loop
         vertex 2.330792e+003 4.521965e+002 2.291511e+003
         vertex 2.330792e+003 4.515187e+002 2.292350e+003
         vertex 2.330792e+003 4.512822e+002 2.291916e+003
      endloop
   endfacet
   facet normal 1.000000e+000 -7.344578e-017 -1.110223e-016
      outer loop
         vertex 2.330792e+003 4.521965e+002 2.291511e+003
         vertex 2.330792e+003 4.512822e+002 2.291916e+003
         vertex 2.330792e+003 4.520884e+002 2.291200e+003
      endloop
   endfacet
   facet normal 1.000000e+000 -7.344578e-017 -1.110223e-016
      outer loop
         vertex 2.330792e+003 4.520884e+002 2.291200e+003
         vertex 2.330792e+003 4.512822e+002 2.291916e+003
         vertex 2.330792e+003 4.511200e+002 2.291449e+003
      endloop
   endfacet
   facet normal 1.000000e+000 -7.344578e-017 -1.110223e-016
      outer loop
         vertex 2.330792e+003 4.520884e+002 2.291200e+003
         vertex 2.330792e+003 4.511200e+002 2.291449e+003
         vertex 2.330792e+003 4.520328e+002 2.290875e+003
      endloop
   endfacet
   facet normal 1.000000e+000 -7.344578e-017 -1.110223e-016
      outer loop
         vertex 2.330792e+003 4.520328e+002 2.290875e+003
         vertex 2.330792e+003 4.511200e+002 2.291449e+003
         vertex 2.330792e+003 4.510366e+002 2.290963e+003
      endloop
   endfacet
   facet normal -5.814779e-017 -9.899127e-001 1.416783e-001
      outer loop
         vertex 9.347922e+002 4.510366e+002 2.290963e+003
         vertex 2.330792e+003 4.510366e+002 2.290963e+003
         vertex 2.330792e+003 4.511200e+002 2.291449e+003
      endloop
   endfacet
   facet normal -5.451589e-017 -9.806165e-001 1.959371e-001
      outer loop
         vertex 9.347922e+002 4.510366e+002 2.290963e+003
         vertex 2.330792e+003 4.511200e+002 2.291449e+003
         vertex 9.347922e+002 4.511200e+002 2.291449e+003
      endloop
   endfacet
   facet normal -4.679229e-017 -9.532465e-001 3.021938e-001
      outer loop
         vertex 9.347922e+002 4.511200e+002 2.291449e+003
         vertex 2.330792e+003 4.511200e+002 2.291449e+003
         vertex 2.330792e+003 4.512822e+002 2.291916e+003
      endloop
   endfacet
   facet normal -4.270058e-017 -9.351729e-001 3.541917e-001
      outer loop
         vertex 9.347922e+002 4.511200e+002 2.291449e+003
         vertex 2.330792e+003 4.512822e+002 2.291916e+003
         vertex 9.347922e+002 4.512822e+002 2.291916e+003
      endloop
   endfacet
   facet normal -3.416827e-017 -8.907381e-001 4.545170e-001
      outer loop
         vertex 9.347922e+002 4.512822e+002 2.291916e+003
         vertex 2.330792e+003 4.512822e+002 2.291916e+003
         vertex 2.330792e+003 4.515187e+002 2.292350e+003
      endloop
   endfacet
   facet normal -2.972767e-017 -8.643770e-001 5.028443e-001
      outer loop
         vertex 9.347922e+002 4.512822e+002 2.291916e+003
         vertex 2.330792e+003 4.515187e+002 2.292350e+003
         vertex 9.347922e+002 4.515187e+002 2.292350e+003
      endloop
   endfacet
   facet normal -2.061796e-017 -8.040820e-001 5.945184e-001
      outer loop
         vertex 9.347922e+002 4.515187e+002 2.292350e+003
         vertex 2.330792e+003 4.515187e+002 2.292350e+003
         vertex 2.330792e+003 4.518232e+002 2.292739e+003
      endloop
   endfacet
   facet normal -1.594885e-017 -7.701482e-001 6.378651e-001
      outer loop
         vertex 9.347922e+002 4.515187e+002 2.292350e+003
         vertex 2.330792e+003 4.518232e+002 2.292739e+003
         vertex 9.347922e+002 4.518232e+002 2.292739e+003
      endloop
   endfacet
   facet normal -6.508698e-018 -6.956276e-001 7.184026e-001
      outer loop
         vertex 9.347922e+002 4.518232e+002 2.292739e+003
         vertex 2.330792e+003 4.518232e+002 2.292739e+003
         vertex 2.330792e+003 4.521874e+002 2.293073e+003
      endloop
   endfacet
   facet normal -1.737663e-018 -6.550409e-001 7.555934e-001
      outer loop
         vertex 9.347922e+002 4.518232e+002 2.292739e+003
         vertex 2.330792e+003 4.521874e+002 2.293073e+003
         vertex 9.347922e+002 4.521874e+002 2.293073e+003
      endloop
   endfacet
   facet normal 7.777005e-018 -5.683150e-001 8.228111e-001
      outer loop
         vertex 9.347922e+002 4.521874e+002 2.293073e+003
         vertex 2.330792e+003 4.521874e+002 2.293073e+003
         vertex 2.330792e+003 4.526014e+002 2.293342e+003
      endloop
   endfacet
   facet normal 1.252064e-017 -5.221757e-001 8.528379e-001
      outer loop
         vertex 9.347922e+002 4.521874e+002 2.293073e+003
         vertex 2.330792e+003 4.526014e+002 2.293342e+003
         vertex 9.347922e+002 4.526014e+002 2.293342e+003
      endloop
   endfacet
   facet normal 2.185188e-017 -4.255955e-001 9.049135e-001
      outer loop
         vertex 9.347922e+002 4.526014e+002 2.293342e+003
         vertex 2.330792e+003 4.526014e+002 2.293342e+003
         vertex 2.330792e+003 4.530540e+002 2.293540e+003
      endloop
   endfacet
   facet normal 2.643950e-017 -3.751545e-001 9.269623e-001
      outer loop
         vertex 9.347922e+002 4.526014e+002 2.293342e+003
         vertex 2.330792e+003 4.530540e+002 2.293540e+003
         vertex 9.347922e+002 4.530540e+002 2.293540e+003
      endloop
   endfacet
   facet normal 3.533436e-017 -2.713383e-001 9.624841e-001
      outer loop
         vertex 9.347922e+002 4.530540e+002 2.293540e+003
         vertex 2.330792e+003 4.530540e+002 2.293540e+003
         vertex 2.330792e+003 4.535329e+002 2.293660e+003
      endloop
   endfacet
   facet normal 3.964160e-017 -2.179630e-001 9.759570e-001
      outer loop
         vertex 9.347922e+002 4.530540e+002 2.293540e+003
         vertex 2.330792e+003 4.535329e+002 2.293660e+003
         vertex 9.347922e+002 4.535329e+002 2.293660e+003
      endloop
   endfacet
   facet normal 4.785893e-017 -1.097251e-001 9.939620e-001
      outer loop
         vertex 9.347922e+002 4.535329e+002 2.293660e+003
         vertex 2.330792e+003 4.535329e+002 2.293660e+003
         vertex 2.330792e+003 4.540252e+002 2.293701e+003
      endloop
   endfacet
   facet normal 5.176903e-017 -5.486257e-002 9.984939e-001
      outer loop
         vertex 9.347922e+002 4.535329e+002 2.293660e+003
         vertex 2.330792e+003 4.540252e+002 2.293701e+003
         vertex 9.347922e+002 4.540252e+002 2.293701e+003
      endloop
   endfacet
   facet normal -5.176903e-017 5.486257e-002 -9.984939e-001
      outer loop
         vertex 9.347922e+002 4.540252e+002 2.292701e+003
         vertex 2.330792e+003 4.540252e+002 2.292701e+003
         vertex 2.330792e+003 4.536970e+002 2.292674e+003
      endloop
   endfacet
   facet normal -4.785893e-017 1.097251e-001 -9.939620e-001
      outer loop
         vertex 9.347922e+002 4.540252e+002 2.292701e+003
         vertex 2.330792e+003 4.536970e+002 2.292674e+003
         vertex 9.347922e+002 4.536970e+002 2.292674e+003
      endloop
   endfacet
   facet normal -3.964160e-017 2.179630e-001 -9.759570e-001
      outer loop
         vertex 9.347922e+002 4.536970e+002 2.292674e+003
         vertex 2.330792e+003 4.536970e+002 2.292674e+003
         vertex 2.330792e+003 4.533777e+002 2.292594e+003
      endloop
   endfacet
   facet normal -3.533436e-017 2.713383e-001 -9.624841e-001
      outer loop
         vertex 9.347922e+002 4.536970e+002 2.292674e+003
         vertex 2.330792e+003 4.533777e+002 2.292594e+003
         vertex 9.347922e+002 4.533777e+002 2.292594e+003
      endloop
   endfacet
   facet normal -2.643950e-017 3.751545e-001 -9.269623e-001
      outer loop
         vertex 9.347922e+002 4.533777e+002 2.292594e+003
         vertex 2.330792e+003 4.533777e+002 2.292594e+003
         vertex 2.330792e+003 4.530760e+002 2.292462e+003
      endloop
   endfacet
   facet normal -2.185188e-017 4.255955e-001 -9.049135e-001
      outer loop
         vertex 9.347922e+002 4.533777e+002 2.292594e+003
         vertex 2.330792e+003 4.530760e+002 2.292462e+003
         vertex 9.347922e+002 4.530760e+002 2.292462e+003
      endloop
   endfacet
   facet normal -1.252064e-017 5.221757e-001 -8.528379e-001
      outer loop
         vertex 9.347922e+002 4.530760e+002 2.292462e+003
         vertex 2.330792e+003 4.530760e+002 2.292462e+003
         vertex 2.330792e+003 4.528000e+002 2.292282e+003
      endloop
   endfacet
   facet normal -7.777005e-018 5.683150e-001 -8.228111e-001
      outer loop
         vertex 9.347922e+002 4.530760e+002 2.292462e+003
         vertex 2.330792e+003 4.528000e+002 2.292282e+003
         vertex 9.347922e+002 4.528000e+002 2.292282e+003
      endloop
   endfacet
   facet normal 1.737663e-018 6.550409e-001 -7.555934e-001
      outer loop
         vertex 9.347922e+002 4.528000e+002 2.292282e+003
         vertex 2.330792e+003 4.528000e+002 2.292282e+003
         vertex 2.330792e+003 4.525572e+002 2.292059e+003
      endloop
   endfacet
   facet normal 6.508698e-018 6.956276e-001 -7.184026e-001
      outer loop
         vertex 9.347922e+002 4.528000e+002 2.292282e+003
         vertex 2.330792e+003 4.525572e+002 2.292059e+003
         vertex 9.347922e+002 4.525572e+002 2.292059e+003
      endloop
   endfacet
   facet normal 1.594885e-017 7.701482e-001 -6.378651e-001
      outer loop
         vertex 9.347922e+002 4.525572e+002 2.292059e+003
         vertex 2.330792e+003 4.525572e+002 2.292059e+003
         vertex 2.330792e+003 4.523542e+002 2.291800e+003
      endloop
   endfacet
   facet normal 2.061796e-017 8.040820e-001 -5.945184e-001
      outer loop
         vertex 9.347922e+002 4.525572e+002 2.292059e+003
         vertex 2.330792e+003 4.523542e+002 2.291800e+003
         vertex 9.347922e+002 4.523542e+002 2.291800e+003
      endloop
   endfacet
   facet normal 2.972767e-017 8.643770e-001 -5.028443e-001
      outer loop
         vertex 9.347922e+002 4.523542e+002 2.291800e+003
         vertex 2.330792e+003 4.523542e+002 2.291800e+003
         vertex 2.330792e+003 4.521965e+002 2.291511e+003
      endloop
   endfacet
   facet normal 3.416827e-017 8.907381e-001 -4.545170e-001
      outer loop
         vertex 9.347922e+002 4.523542e+002 2.291800e+003
         vertex 2.330792e+003 4.521965e+002 2.291511e+003
         vertex 9.347922e+002 4.521965e+002 2.291511e+003
      endloop
   endfacet
   facet normal 4.270058e-017 9.351729e-001 -3.541917e-001
      outer loop
         vertex 9.347922e+002 4.521965e+002 2.291511e+003
         vertex 2.330792e+003 4.521965e+002 2.291511e+003
         vertex 2.330792e+003 4.520884e+002 2.291200e+003
      endloop
   endfacet
   facet normal 4.679229e-017 9.532465e-001 -3.021938e-001
      outer loop
         vertex 9.347922e+002 4.521965e+002 2.291511e+003
         vertex 2.330792e+003 4.520884e+002 2.291200e+003
         vertex 9.347922e+002 4.520884e+002 2.291200e+003
      endloop
   endfacet
   facet normal 5.451589e-017 9.806165e-001 -1.959371e-001
      outer loop
         vertex 9.347922e+002 4.520884e+002 2.291200e+003
         vertex 2.330792e+003 4.520884e+002 2.291200e+003
         vertex 2.330792e+003 4.520328e+002 2.290875e+003
      endloop
   endfacet
   facet normal 5.814779e-017 9.899127e-001 -1.416783e-001
      outer loop
         vertex 9.347922e+002 4.520884e+002 2.291200e+003
         vertex 2.330792e+003 4.520328e+002 2.290875e+003
         vertex 9.347922e+002 4.520328e+002 2.290875e+003
      endloop
   endfacet
   facet normal 1.000000e+000 -7.344578e-017 -1.110223e-016
      outer loop
         vertex 2.330792e+003 4.721925e+002 2.292701e+003
         vertex 2.330792e+003 4.721925e+002 2.293701e+003
         vertex 2.330792e+003 4.540252e+002 2.292701e+003
      endloop
   endfacet
   facet normal 1.000000e+000 -7.344578e-017 -1.110223e-016
      outer loop
         vertex 2.330792e+003 4.540252e+002 2.292701e+003
         vertex 2.330792e+003 4.721925e+002 2.293701e+003
         vertex 2.330792e+003 4.540252e+002 2.293701e+003
      endloop
   endfacet
   facet normal -1.000000e+000 7.344578e-017 1.110223e-016
      outer loop
         vertex 9.347922e+002 4.721925e+002 2.293701e+003
         vertex 9.347922e+002 4.721925e+002 2.292701e+003
         vertex 9.347922e+002 4.540252e+002 2.293701e+003
      endloop
   endfacet
   facet normal -1.000000e+000 7.344578e-017 1.110223e-016
      outer loop
         vertex 9.347922e+002 4.540252e+002 2.293701e+003
         vertex 9.347922e+002 4.721925e+002 2.292701e+003
         vertex 9.347922e+002 4.540252e+002 2.292701e+003
      endloop
   endfacet
   facet normal 5.551115e-017 -1.463334e-014 1.000000e+000
      outer loop
         vertex 2.330792e+003 4.721925e+002 2.293701e+003
         vertex 9.347922e+002 4.721925e+002 2.293701e+003
         vertex 2.330792e+003 4.540252e+002 2.293701e+003
      endloop
   endfacet
   facet normal 5.551115e-017 -1.463334e-014 1.000000e+000
      outer loop
         vertex 2.330792e+003 4.540252e+002 2.293701e+003
         vertex 9.347922e+002 4.721925e+002 2.293701e+003
         vertex 9.347922e+002 4.540252e+002 2.293701e+003
      endloop
   endfacet
   facet normal -5.551115e-017 1.463334e-014 -1.000000e+000
      outer loop
         vertex 9.347922e+002 4.540252e+002 2.292701e+003
         vertex 9.347922e+002 4.721925e+002 2.292701e+003
         vertex 2.330792e+003 4.540252e+002 2.292701e+003
      endloop
   endfacet
   facet normal -5.551115e-017 1.463334e-014 -1.000000e+000
      outer loop
         vertex 2.330792e+003 4.540252e+002 2.292701e+003
         vertex 9.347922e+002 4.721925e+002 2.292701e+003
         vertex 2.330792e+003 4.721925e+002 2.292701e+003
      endloop
   endfacet
   facet normal 6.668518e-017 1.000000e+000 1.399694e-014
      outer loop
         vertex 9.347922e+002 4.721925e+002 2.293701e+003
         vertex 2.330792e+003 4.721925e+002 2.293701e+003
         vertex 9.347922e+002 4.721925e+002 2.292701e+003
      endloop
   endfacet
   facet normal 6.668518e-017 1.000000e+000 1.399694e-014
      outer loop
         vertex 9.347922e+002 4.721925e+002 2.292701e+003
         vertex 2.330792e+003 4.721925e+002 2.293701e+003
         vertex 2.330792e+003 4.721925e+002 2.292701e+003
      endloop
   endfacet
endsolid