solid 09.025.00.00.000 - 09.025.00.01.000-1 09.025.00.01.006-1
   facet normal -1.000000e+000 -4.042391e-017 -8.326673e-017
      outer loop
         vertex 9.367922e+002 1.451406e+003 2.112564e+003
         vertex 9.367922e+002 1.450410e+003 2.112477e+003
         vertex 9.367922e+002 1.435798e+003 2.290963e+003
      endloop
   endfacet
   facet normal -1.000000e+000 -4.042391e-017 -8.326673e-017
      outer loop
         vertex 9.367922e+002 1.435798e+003 2.290963e+003
         vertex 9.367922e+002 1.450410e+003 2.112477e+003
         vertex 9.367922e+002 1.434802e+003 2.290875e+003
      endloop
   endfacet
   facet normal 1.000000e+000 4.042391e-017 8.326673e-017
      outer loop
         vertex 2.332792e+003 1.450410e+003 2.112477e+003
         vertex 2.332792e+003 1.451406e+003 2.112564e+003
         vertex 2.332792e+003 1.434802e+003 2.290875e+003
      endloop
   endfacet
   facet normal 1.000000e+000 4.042391e-017 8.326673e-017
      outer loop
         vertex 2.332792e+003 1.434802e+003 2.290875e+003
         vertex 2.332792e+003 1.451406e+003 2.112564e+003
         vertex 2.332792e+003 1.435798e+003 2.290963e+003
      endloop
   endfacet
   facet normal -4.752725e-017 9.961947e-001 8.715574e-002
      outer loop
         vertex 2.332792e+003 1.451406e+003 2.112564e+003
         vertex 9.367922e+002 1.451406e+003 2.112564e+003
         vertex 2.332792e+003 1.435798e+003 2.290963e+003
      endloop
   endfacet
   facet normal -4.752725e-017 9.961947e-001 8.715574e-002
      outer loop
         vertex 2.332792e+003 1.435798e+003 2.290963e+003
         vertex 9.367922e+002 1.451406e+003 2.112564e+003
         vertex 9.367922e+002 1.435798e+003 2.290963e+003
      endloop
   endfacet
   facet normal 4.752725e-017 -9.961947e-001 -8.715574e-002
      outer loop
         vertex 9.367922e+002 1.434802e+003 2.290875e+003
         vertex 9.367922e+002 1.450410e+003 2.112477e+003
         vertex 2.332792e+003 1.434802e+003 2.290875e+003
      endloop
   endfacet
   facet normal 4.752725e-017 -9.961947e-001 -8.715574e-002
      outer loop
         vertex 2.332792e+003 1.434802e+003 2.290875e+003
         vertex 9.367922e+002 1.450410e+003 2.112477e+003
         vertex 2.332792e+003 1.450410e+003 2.112477e+003
      endloop
   endfacet
   facet normal -1.000000e+000 -4.042391e-017 -8.326673e-017
      outer loop
         vertex 9.367922e+002 1.451417e+003 1.864390e+003
         vertex 9.367922e+002 1.450417e+003 1.864390e+003
         vertex 9.367922e+002 1.451417e+003 2.112302e+003
      endloop
   endfacet
   facet normal -1.000000e+000 -4.042391e-017 -8.326673e-017
      outer loop
         vertex 9.367922e+002 1.451417e+003 2.112302e+003
         vertex 9.367922e+002 1.450417e+003 1.864390e+003
         vertex 9.367922e+002 1.450417e+003 2.112302e+003
      endloop
   endfacet
   facet normal 1.000000e+000 4.042391e-017 8.326673e-017
      outer loop
         vertex 2.332792e+003 1.450417e+003 1.864390e+003
         vertex 2.332792e+003 1.451417e+003 1.864390e+003
         vertex 2.332792e+003 1.450417e+003 2.112302e+003
      endloop
   endfacet
   facet normal 1.000000e+000 4.042391e-017 8.326673e-017
      outer loop
         vertex 2.332792e+003 1.450417e+003 2.112302e+003
         vertex 2.332792e+003 1.451417e+003 1.864390e+003
         vertex 2.332792e+003 1.451417e+003 2.112302e+003
      endloop
   endfacet
   facet normal -4.042391e-017 1.000000e+000 -3.529722e-015
      outer loop
         vertex 2.332792e+003 1.451417e+003 1.864390e+003
         vertex 9.367922e+002 1.451417e+003 1.864390e+003
         vertex 2.332792e+003 1.451417e+003 2.112302e+003
      endloop
   endfacet
   facet normal -4.042391e-017 1.000000e+000 -3.529722e-015
      outer loop
         vertex 2.332792e+003 1.451417e+003 2.112302e+003
         vertex 9.367922e+002 1.451417e+003 1.864390e+003
         vertex 9.367922e+002 1.451417e+003 2.112302e+003
      endloop
   endfacet
   facet normal 4.042391e-017 -1.000000e+000 3.529722e-015
      outer loop
         vertex 9.367922e+002 1.450417e+003 2.112302e+003
         vertex 9.367922e+002 1.450417e+003 1.864390e+003
         vertex 2.332792e+003 1.450417e+003 2.112302e+003
      endloop
   endfacet
   facet normal 4.042391e-017 -1.000000e+000 3.529722e-015
      outer loop
         vertex 2.332792e+003 1.450417e+003 2.112302e+003
         vertex 9.367922e+002 1.450417e+003 1.864390e+003
         vertex 2.332792e+003 1.450417e+003 1.864390e+003
      endloop
   endfacet
   facet normal 1.000000e+000 4.042391e-017 8.326673e-017
      outer loop
         vertex 2.332792e+003 1.448417e+003 1.861390e+003
         vertex 2.332792e+003 1.448417e+003 1.862390e+003
         vertex 2.332792e+003 1.389417e+003 1.861390e+003
      endloop
   endfacet
   facet normal 1.000000e+000 4.042391e-017 8.326673e-017
      outer loop
         vertex 2.332792e+003 1.389417e+003 1.861390e+003
         vertex 2.332792e+003 1.448417e+003 1.862390e+003
         vertex 2.332792e+003 1.389417e+003 1.862390e+003
      endloop
   endfacet
   facet normal -1.000000e+000 -4.042391e-017 -8.326673e-017
      outer loop
         vertex 9.367922e+002 1.448417e+003 1.862390e+003
         vertex 9.367922e+002 1.448417e+003 1.861390e+003
         vertex 9.367922e+002 1.389417e+003 1.862390e+003
      endloop
   endfacet
   facet normal -1.000000e+000 -4.042391e-017 -8.326673e-017
      outer loop
         vertex 9.367922e+002 1.389417e+003 1.862390e+003
         vertex 9.367922e+002 1.448417e+003 1.861390e+003
         vertex 9.367922e+002 1.389417e+003 1.861390e+003
      endloop
   endfacet
   facet normal 8.326673e-017 -5.204275e-018 -1.000000e+000
      outer loop
         vertex 9.367922e+002 1.448417e+003 1.861390e+003
         vertex 2.332792e+003 1.448417e+003 1.861390e+003
         vertex 9.367922e+002 1.389417e+003 1.861390e+003
      endloop
   endfacet
   facet normal 8.326673e-017 -5.204275e-018 -1.000000e+000
      outer loop
         vertex 9.367922e+002 1.389417e+003 1.861390e+003
         vertex 2.332792e+003 1.448417e+003 1.861390e+003
         vertex 2.332792e+003 1.389417e+003 1.861390e+003
      endloop
   endfacet
   facet normal -8.326673e-017 5.204275e-018 1.000000e+000
      outer loop
         vertex 2.332792e+003 1.389417e+003 1.862390e+003
         vertex 2.332792e+003 1.448417e+003 1.862390e+003
         vertex 9.367922e+002 1.389417e+003 1.862390e+003
      endloop
   endfacet
   facet normal -8.326673e-017 5.204275e-018 1.000000e+000
      outer loop
         vertex 9.367922e+002 1.389417e+003 1.862390e+003
         vertex 2.332792e+003 1.448417e+003 1.862390e+003
         vertex 9.367922e+002 1.448417e+003 1.862390e+003
      endloop
   endfacet
   facet normal -1.000000e+000 -4.042391e-017 -8.326673e-017
      outer loop
         vertex 9.367922e+002 1.450417e+003 1.864390e+003
         vertex 9.367922e+002 1.451417e+003 1.864390e+003
         vertex 9.367922e+002 1.450387e+003 1.864043e+003
      endloop
   endfacet
   facet normal -1.000000e+000 -4.042391e-017 -8.326673e-017
      outer loop
         vertex 9.367922e+002 1.450387e+003 1.864043e+003
         vertex 9.367922e+002 1.451417e+003 1.864390e+003
         vertex 9.367922e+002 1.451372e+003 1.863869e+003
      endloop
   endfacet
   facet normal -1.000000e+000 -4.042391e-017 -8.326673e-017
      outer loop
         vertex 9.367922e+002 1.450387e+003 1.864043e+003
         vertex 9.367922e+002 1.451372e+003 1.863869e+003
         vertex 9.367922e+002 1.450297e+003 1.863706e+003
      endloop
   endfacet
   facet normal -1.000000e+000 -4.042391e-017 -8.326673e-017
      outer loop
         vertex 9.367922e+002 1.450297e+003 1.863706e+003
         vertex 9.367922e+002 1.451372e+003 1.863869e+003
         vertex 9.367922e+002 1.451236e+003 1.863364e+003
      endloop
   endfacet
   facet normal -1.000000e+000 -4.042391e-017 -8.326673e-017
      outer loop
         vertex 9.367922e+002 1.450297e+003 1.863706e+003
         vertex 9.367922e+002 1.451236e+003 1.863364e+003
         vertex 9.367922e+002 1.450149e+003 1.863390e+003
      endloop
   endfacet
   facet normal -1.000000e+000 -4.042391e-017 -8.326673e-017
      outer loop
         vertex 9.367922e+002 1.450149e+003 1.863390e+003
         vertex 9.367922e+002 1.451236e+003 1.863364e+003
         vertex 9.367922e+002 1.451015e+003 1.862890e+003
      endloop
   endfacet
   facet normal -1.000000e+000 -4.042391e-017 -8.326673e-017
      outer loop
         vertex 9.367922e+002 1.450149e+003 1.863390e+003
         vertex 9.367922e+002 1.451015e+003 1.862890e+003
         vertex 9.367922e+002 1.449949e+003 1.863104e+003
      endloop
   endfacet
   facet normal -1.000000e+000 -4.042391e-017 -8.326673e-017
      outer loop
         vertex 9.367922e+002 1.449949e+003 1.863104e+003
         vertex 9.367922e+002 1.451015e+003 1.862890e+003
         vertex 9.367922e+002 1.450715e+003 1.862462e+003
      endloop
   endfacet
   facet normal -1.000000e+000 -4.042391e-017 -8.326673e-017
      outer loop
         vertex 9.367922e+002 1.449949e+003 1.863104e+003
         vertex 9.367922e+002 1.450715e+003 1.862462e+003
         vertex 9.367922e+002 1.449703e+003 1.862858e+003
      endloop
   endfacet
   facet normal -1.000000e+000 -4.042391e-017 -8.326673e-017
      outer loop
         vertex 9.367922e+002 1.449703e+003 1.862858e+003
         vertex 9.367922e+002 1.450715e+003 1.862462e+003
         vertex 9.367922e+002 1.450346e+003 1.862092e+003
      endloop
   endfacet
   facet normal -1.000000e+000 -4.042391e-017 -8.326673e-017
      outer loop
         vertex 9.367922e+002 1.449703e+003 1.862858e+003
         vertex 9.367922e+002 1.450346e+003 1.862092e+003
         vertex 9.367922e+002 1.449417e+003 1.862658e+003
      endloop
   endfacet
   facet normal -1.000000e+000 -4.042391e-017 -8.326673e-017
      outer loop
         vertex 9.367922e+002 1.449417e+003 1.862658e+003
         vertex 9.367922e+002 1.450346e+003 1.862092e+003
         vertex 9.367922e+002 1.449917e+003 1.861792e+003
      endloop
   endfacet
   facet normal -1.000000e+000 -4.042391e-017 -8.326673e-017
      outer loop
         vertex 9.367922e+002 1.449417e+003 1.862658e+003
         vertex 9.367922e+002 1.449917e+003 1.861792e+003
         vertex 9.367922e+002 1.449101e+003 1.862511e+003
      endloop
   endfacet
   facet normal -1.000000e+000 -4.042391e-017 -8.326673e-017
      outer loop
         vertex 9.367922e+002 1.449101e+003 1.862511e+003
         vertex 9.367922e+002 1.449917e+003 1.861792e+003
         vertex 9.367922e+002 1.449443e+003 1.861571e+003
      endloop
   endfacet
   facet normal -1.000000e+000 -4.042391e-017 -8.326673e-017
      outer loop
         vertex 9.367922e+002 1.449101e+003 1.862511e+003
         vertex 9.367922e+002 1.449443e+003 1.861571e+003
         vertex 9.367922e+002 1.448765e+003 1.862420e+003
      endloop
   endfacet
   facet normal -1.000000e+000 -4.042391e-017 -8.326673e-017
      outer loop
         vertex 9.367922e+002 1.448765e+003 1.862420e+003
         vertex 9.367922e+002 1.449443e+003 1.861571e+003
         vertex 9.367922e+002 1.448938e+003 1.861436e+003
      endloop
   endfacet
   facet normal -1.000000e+000 -4.042391e-017 -8.326673e-017
      outer loop
         vertex 9.367922e+002 1.448765e+003 1.862420e+003
         vertex 9.367922e+002 1.448938e+003 1.861436e+003
         vertex 9.367922e+002 1.448417e+003 1.862390e+003
      endloop
   endfacet
   facet normal -1.000000e+000 -4.042391e-017 -8.326673e-017
      outer loop
         vertex 9.367922e+002 1.448417e+003 1.862390e+003
         vertex 9.367922e+002 1.448938e+003 1.861436e+003
         vertex 9.367922e+002 1.448417e+003 1.861390e+003
      endloop
   endfacet
   facet normal 1.000000e+000 4.042391e-017 8.326673e-017
      outer loop
         vertex 2.332792e+003 1.448417e+003 1.862390e+003
         vertex 2.332792e+003 1.448417e+003 1.861390e+003
         vertex 2.332792e+003 1.448765e+003 1.862420e+003
      endloop
   endfacet
   facet normal 1.000000e+000 4.042391e-017 8.326673e-017
      outer loop
         vertex 2.332792e+003 1.448765e+003 1.862420e+003
         vertex 2.332792e+003 1.448417e+003 1.861390e+003
         vertex 2.332792e+003 1.448938e+003 1.861436e+003
      endloop
   endfacet
   facet normal 1.000000e+000 4.042391e-017 8.326673e-017
      outer loop
         vertex 2.332792e+003 1.448765e+003 1.862420e+003
         vertex 2.332792e+003 1.448938e+003 1.861436e+003
         vertex 2.332792e+003 1.449101e+003 1.862511e+003
      endloop
   endfacet
   facet normal 1.000000e+000 4.042391e-017 8.326673e-017
      outer loop
         vertex 2.332792e+003 1.449101e+003 1.862511e+003
         vertex 2.332792e+003 1.448938e+003 1.861436e+003
         vertex 2.332792e+003 1.449443e+003 1.861571e+003
      endloop
   endfacet
   facet normal 1.000000e+000 4.042391e-017 8.326673e-017
      outer loop
         vertex 2.332792e+003 1.449101e+003 1.862511e+003
         vertex 2.332792e+003 1.449443e+003 1.861571e+003
         vertex 2.332792e+003 1.449417e+003 1.862658e+003
      endloop
   endfacet
   facet normal 1.000000e+000 4.042391e-017 8.326673e-017
      outer loop
         vertex 2.332792e+003 1.449417e+003 1.862658e+003
         vertex 2.332792e+003 1.449443e+003 1.861571e+003
         vertex 2.332792e+003 1.449917e+003 1.861792e+003
      endloop
   endfacet
   facet normal 1.000000e+000 4.042391e-017 8.326673e-017
      outer loop
         vertex 2.332792e+003 1.449417e+003 1.862658e+003
         vertex 2.332792e+003 1.449917e+003 1.861792e+003
         vertex 2.332792e+003 1.449703e+003 1.862858e+003
      endloop
   endfacet
   facet normal 1.000000e+000 4.042391e-017 8.326673e-017
      outer loop
         vertex 2.332792e+003 1.449703e+003 1.862858e+003
         vertex 2.332792e+003 1.449917e+003 1.861792e+003
         vertex 2.332792e+003 1.450346e+003 1.862092e+003
      endloop
   endfacet
   facet normal 1.000000e+000 4.042391e-017 8.326673e-017
      outer loop
         vertex 2.332792e+003 1.449703e+003 1.862858e+003
         vertex 2.332792e+003 1.450346e+003 1.862092e+003
         vertex 2.332792e+003 1.449949e+003 1.863104e+003
      endloop
   endfacet
   facet normal 1.000000e+000 4.042391e-017 8.326673e-017
      outer loop
         vertex 2.332792e+003 1.449949e+003 1.863104e+003
         vertex 2.332792e+003 1.450346e+003 1.862092e+003
         vertex 2.332792e+003 1.450715e+003 1.862462e+003
      endloop
   endfacet
   facet normal 1.000000e+000 4.042391e-017 8.326673e-017
      outer loop
         vertex 2.332792e+003 1.449949e+003 1.863104e+003
         vertex 2.332792e+003 1.450715e+003 1.862462e+003
         vertex 2.332792e+003 1.450149e+003 1.863390e+003
      endloop
   endfacet
   facet normal 1.000000e+000 4.042391e-017 8.326673e-017
      outer loop
         vertex 2.332792e+003 1.450149e+003 1.863390e+003
         vertex 2.332792e+003 1.450715e+003 1.862462e+003
         vertex 2.332792e+003 1.451015e+003 1.862890e+003
      endloop
   endfacet
   facet normal 1.000000e+000 4.042391e-017 8.326673e-017
      outer loop
         vertex 2.332792e+003 1.450149e+003 1.863390e+003
         vertex 2.332792e+003 1.451015e+003 1.862890e+003
         vertex 2.332792e+003 1.450297e+003 1.863706e+003
      endloop
   endfacet
   facet normal 1.000000e+000 4.042391e-017 8.326673e-017
      outer loop
         vertex 2.332792e+003 1.450297e+003 1.863706e+003
         vertex 2.332792e+003 1.451015e+003 1.862890e+003
         vertex 2.332792e+003 1.451236e+003 1.863364e+003
      endloop
   endfacet
   facet normal 1.000000e+000 4.042391e-017 8.326673e-017
      outer loop
         vertex 2.332792e+003 1.450297e+003 1.863706e+003
         vertex 2.332792e+003 1.451236e+003 1.863364e+003
         vertex 2.332792e+003 1.450387e+003 1.864043e+003
      endloop
   endfacet
   facet normal 1.000000e+000 4.042391e-017 8.326673e-017
      outer loop
         vertex 2.332792e+003 1.450387e+003 1.864043e+003
         vertex 2.332792e+003 1.451236e+003 1.863364e+003
         vertex 2.332792e+003 1.451372e+003 1.863869e+003
      endloop
   endfacet
   facet normal 1.000000e+000 4.042391e-017 8.326673e-017
      outer loop
         vertex 2.332792e+003 1.450387e+003 1.864043e+003
         vertex 2.332792e+003 1.451372e+003 1.863869e+003
         vertex 2.332792e+003 1.450417e+003 1.864390e+003
      endloop
   endfacet
   facet normal 1.000000e+000 4.042391e-017 8.326673e-017
      outer loop
         vertex 2.332792e+003 1.450417e+003 1.864390e+003
         vertex 2.332792e+003 1.451372e+003 1.863869e+003
         vertex 2.332792e+003 1.451417e+003 1.864390e+003
      endloop
   endfacet
   facet normal -3.551961e-017 9.983120e-001 -5.807914e-002
      outer loop
         vertex 9.367922e+002 1.451417e+003 1.864390e+003
         vertex 2.332792e+003 1.451417e+003 1.864390e+003
         vertex 2.332792e+003 1.451372e+003 1.863869e+003
      endloop
   endfacet
   facet normal -3.047814e-017 9.932307e-001 -1.161583e-001
      outer loop
         vertex 9.367922e+002 1.451417e+003 1.864390e+003
         vertex 2.332792e+003 1.451372e+003 1.863869e+003
         vertex 9.367922e+002 1.451372e+003 1.863869e+003
      endloop
   endfacet
   facet normal -2.013759e-017 9.730601e-001 -2.305518e-001
      outer loop
         vertex 9.367922e+002 1.451372e+003 1.863869e+003
         vertex 2.332792e+003 1.451372e+003 1.863869e+003
         vertex 2.332792e+003 1.451236e+003 1.863364e+003
      endloop
   endfacet
   facet normal -1.483850e-017 9.579706e-001 -2.868663e-001
      outer loop
         vertex 9.367922e+002 1.451372e+003 1.863869e+003
         vertex 2.332792e+003 1.451236e+003 1.863364e+003
         vertex 9.367922e+002 1.451236e+003 1.863364e+003
      endloop
   endfacet
   facet normal -4.143698e-018 9.182422e-001 -3.960194e-001
      outer loop
         vertex 9.367922e+002 1.451236e+003 1.863364e+003
         vertex 2.332792e+003 1.451236e+003 1.863364e+003
         vertex 2.332792e+003 1.451015e+003 1.862890e+003
      endloop
   endfacet
   facet normal 1.252008e-018 8.936031e-001 -4.488580e-001
      outer loop
         vertex 9.367922e+002 1.451236e+003 1.863364e+003
         vertex 2.332792e+003 1.451015e+003 1.862890e+003
         vertex 9.367922e+002 1.451015e+003 1.862890e+003
      endloop
   endfacet
   facet normal 1.197609e-017 8.355240e-001 -5.494540e-001
      outer loop
         vertex 9.367922e+002 1.451015e+003 1.862890e+003
         vertex 2.332792e+003 1.451015e+003 1.862890e+003
         vertex 2.332792e+003 1.450715e+003 1.862462e+003
      endloop
   endfacet
   facet normal 1.730447e-017 8.020839e-001 -5.972114e-001
      outer loop
         vertex 9.367922e+002 1.451015e+003 1.862890e+003
         vertex 2.332792e+003 1.450715e+003 1.862462e+003
         vertex 9.367922e+002 1.450715e+003 1.862462e+003
      endloop
   endfacet
   facet normal 2.773200e-017 7.274188e-001 -6.861938e-001
      outer loop
         vertex 9.367922e+002 1.450715e+003 1.862462e+003
         vertex 2.332792e+003 1.450715e+003 1.862462e+003
         vertex 2.332792e+003 1.450346e+003 1.862092e+003
      endloop
   endfacet
   facet normal 3.283115e-017 6.861938e-001 -7.274188e-001
      outer loop
         vertex 9.367922e+002 1.450715e+003 1.862462e+003
         vertex 2.332792e+003 1.450346e+003 1.862092e+003
         vertex 9.367922e+002 1.450346e+003 1.862092e+003
      endloop
   endfacet
   facet normal 4.264528e-017 5.972114e-001 -8.020839e-001
      outer loop
         vertex 9.367922e+002 1.450346e+003 1.862092e+003
         vertex 2.332792e+003 1.450346e+003 1.862092e+003
         vertex 2.332792e+003 1.449917e+003 1.861792e+003
      endloop
   endfacet
   facet normal 4.736027e-017 5.494540e-001 -8.355240e-001
      outer loop
         vertex 9.367922e+002 1.450346e+003 1.862092e+003
         vertex 2.332792e+003 1.449917e+003 1.861792e+003
         vertex 9.367922e+002 1.449917e+003 1.861792e+003
      endloop
   endfacet
   facet normal 5.626281e-017 4.488580e-001 -8.936031e-001
      outer loop
         vertex 9.367922e+002 1.449917e+003 1.861792e+003
         vertex 2.332792e+003 1.449917e+003 1.861792e+003
         vertex 2.332792e+003 1.449443e+003 1.861571e+003
      endloop
   endfacet
   facet normal 6.045037e-017 3.960194e-001 -9.182422e-001
      outer loop
         vertex 9.367922e+002 1.449917e+003 1.861792e+003
         vertex 2.332792e+003 1.449443e+003 1.861571e+003
         vertex 9.367922e+002 1.449443e+003 1.861571e+003
      endloop
   endfacet
   facet normal 6.817083e-017 2.868663e-001 -9.579706e-001
      outer loop
         vertex 9.367922e+002 1.449443e+003 1.861571e+003
         vertex 2.332792e+003 1.449443e+003 1.861571e+003
         vertex 2.332792e+003 1.448938e+003 1.861436e+003
      endloop
   endfacet
   facet normal 7.170372e-017 2.305518e-001 -9.730601e-001
      outer loop
         vertex 9.367922e+002 1.449443e+003 1.861571e+003
         vertex 2.332792e+003 1.448938e+003 1.861436e+003
         vertex 9.367922e+002 1.448938e+003 1.861436e+003
      endloop
   endfacet
   facet normal 7.800750e-017 1.161583e-001 -9.932307e-001
      outer loop
         vertex 9.367922e+002 1.448938e+003 1.861436e+003
         vertex 2.332792e+003 1.448938e+003 1.861436e+003
         vertex 2.332792e+003 1.448417e+003 1.861390e+003
      endloop
   endfacet
   facet normal 8.077838e-017 5.807914e-002 -9.983120e-001
      outer loop
         vertex 9.367922e+002 1.448938e+003 1.861436e+003
         vertex 2.332792e+003 1.448417e+003 1.861390e+003
         vertex 9.367922e+002 1.448417e+003 1.861390e+003
      endloop
   endfacet
   facet normal -8.077838e-017 -5.807914e-002 9.983120e-001
      outer loop
         vertex 9.367922e+002 1.448417e+003 1.862390e+003
         vertex 2.332792e+003 1.448417e+003 1.862390e+003
         vertex 2.332792e+003 1.448765e+003 1.862420e+003
      endloop
   endfacet
   facet normal -7.800750e-017 -1.161583e-001 9.932307e-001
      outer loop
         vertex 9.367922e+002 1.448417e+003 1.862390e+003
         vertex 2.332792e+003 1.448765e+003 1.862420e+003
         vertex 9.367922e+002 1.448765e+003 1.862420e+003
      endloop
   endfacet
   facet normal -7.170372e-017 -2.305518e-001 9.730601e-001
      outer loop
         vertex 9.367922e+002 1.448765e+003 1.862420e+003
         vertex 2.332792e+003 1.448765e+003 1.862420e+003
         vertex 2.332792e+003 1.449101e+003 1.862511e+003
      endloop
   endfacet
   facet normal -6.817083e-017 -2.868663e-001 9.579706e-001
      outer loop
         vertex 9.367922e+002 1.448765e+003 1.862420e+003
         vertex 2.332792e+003 1.449101e+003 1.862511e+003
         vertex 9.367922e+002 1.449101e+003 1.862511e+003
      endloop
   endfacet
   facet normal -6.045037e-017 -3.960194e-001 9.182422e-001
      outer loop
         vertex 9.367922e+002 1.449101e+003 1.862511e+003
         vertex 2.332792e+003 1.449101e+003 1.862511e+003
         vertex 2.332792e+003 1.449417e+003 1.862658e+003
      endloop
   endfacet
   facet normal -5.626281e-017 -4.488580e-001 8.936031e-001
      outer loop
         vertex 9.367922e+002 1.449101e+003 1.862511e+003
         vertex 2.332792e+003 1.449417e+003 1.862658e+003
         vertex 9.367922e+002 1.449417e+003 1.862658e+003
      endloop
   endfacet
   facet normal -4.736027e-017 -5.494540e-001 8.355240e-001
      outer loop
         vertex 9.367922e+002 1.449417e+003 1.862658e+003
         vertex 2.332792e+003 1.449417e+003 1.862658e+003
         vertex 2.332792e+003 1.449703e+003 1.862858e+003
      endloop
   endfacet
   facet normal -4.264528e-017 -5.972114e-001 8.020839e-001
      outer loop
         vertex 9.367922e+002 1.449417e+003 1.862658e+003
         vertex 2.332792e+003 1.449703e+003 1.862858e+003
         vertex 9.367922e+002 1.449703e+003 1.862858e+003
      endloop
   endfacet
   facet normal -3.283115e-017 -6.861938e-001 7.274188e-001
      outer loop
         vertex 9.367922e+002 1.449703e+003 1.862858e+003
         vertex 2.332792e+003 1.449703e+003 1.862858e+003
         vertex 2.332792e+003 1.449949e+003 1.863104e+003
      endloop
   endfacet
   facet normal -2.773200e-017 -7.274188e-001 6.861938e-001
      outer loop
         vertex 9.367922e+002 1.449703e+003 1.862858e+003
         vertex 2.332792e+003 1.449949e+003 1.863104e+003
         vertex 9.367922e+002 1.449949e+003 1.863104e+003
      endloop
   endfacet
   facet normal -1.730447e-017 -8.020839e-001 5.972114e-001
      outer loop
         vertex 9.367922e+002 1.449949e+003 1.863104e+003
         vertex 2.332792e+003 1.449949e+003 1.863104e+003
         vertex 2.332792e+003 1.450149e+003 1.863390e+003
      endloop
   endfacet
   facet normal -1.197609e-017 -8.355240e-001 5.494540e-001
      outer loop
         vertex 9.367922e+002 1.449949e+003 1.863104e+003
         vertex 2.332792e+003 1.450149e+003 1.863390e+003
         vertex 9.367922e+002 1.450149e+003 1.863390e+003
      endloop
   endfacet
   facet normal -1.252008e-018 -8.936031e-001 4.488580e-001
      outer loop
         vertex 9.367922e+002 1.450149e+003 1.863390e+003
         vertex 2.332792e+003 1.450149e+003 1.863390e+003
         vertex 2.332792e+003 1.450297e+003 1.863706e+003
      endloop
   endfacet
   facet normal 4.143698e-018 -9.182422e-001 3.960194e-001
      outer loop
         vertex 9.367922e+002 1.450149e+003 1.863390e+003
         vertex 2.332792e+003 1.450297e+003 1.863706e+003
         vertex 9.367922e+002 1.450297e+003 1.863706e+003
      endloop
   endfacet
   facet normal 1.483850e-017 -9.579706e-001 2.868663e-001
      outer loop
         vertex 9.367922e+002 1.450297e+003 1.863706e+003
         vertex 2.332792e+003 1.450297e+003 1.863706e+003
         vertex 2.332792e+003 1.450387e+003 1.864043e+003
      endloop
   endfacet
   facet normal 2.013759e-017 -9.730601e-001 2.305518e-001
      outer loop
         vertex 9.367922e+002 1.450297e+003 1.863706e+003
         vertex 2.332792e+003 1.450387e+003 1.864043e+003
         vertex 9.367922e+002 1.450387e+003 1.864043e+003
      endloop
   endfacet
   facet normal 3.047814e-017 -9.932307e-001 1.161583e-001
      outer loop
         vertex 9.367922e+002 1.450387e+003 1.864043e+003
         vertex 2.332792e+003 1.450387e+003 1.864043e+003
         vertex 2.332792e+003 1.450417e+003 1.864390e+003
      endloop
   endfacet
   facet normal 3.551961e-017 -9.983120e-001 5.807914e-002
      outer loop
         vertex 9.367922e+002 1.450387e+003 1.864043e+003
         vertex 2.332792e+003 1.450417e+003 1.864390e+003
         vertex 9.367922e+002 1.450417e+003 1.864390e+003
      endloop
   endfacet
   facet normal -1.000000e+000 -4.042391e-017 -8.326673e-017
      outer loop
         vertex 9.367922e+002 1.389417e+003 1.862390e+003
         vertex 9.367922e+002 1.389417e+003 1.861390e+003
         vertex 9.367922e+002 1.389070e+003 1.862420e+003
      endloop
   endfacet
   facet normal -1.000000e+000 -4.042391e-017 -8.326673e-017
      outer loop
         vertex 9.367922e+002 1.389070e+003 1.862420e+003
         vertex 9.367922e+002 1.389417e+003 1.861390e+003
         vertex 9.367922e+002 1.388896e+003 1.861436e+003
      endloop
   endfacet
   facet normal -1.000000e+000 -4.042391e-017 -8.326673e-017
      outer loop
         vertex 9.367922e+002 1.389070e+003 1.862420e+003
         vertex 9.367922e+002 1.388896e+003 1.861436e+003
         vertex 9.367922e+002 1.388733e+003 1.862511e+003
      endloop
   endfacet
   facet normal -1.000000e+000 -4.042391e-017 -8.326673e-017
      outer loop
         vertex 9.367922e+002 1.388733e+003 1.862511e+003
         vertex 9.367922e+002 1.388896e+003 1.861436e+003
         vertex 9.367922e+002 1.388391e+003 1.861571e+003
      endloop
   endfacet
   facet normal -1.000000e+000 -4.042391e-017 -8.326673e-017
      outer loop
         vertex 9.367922e+002 1.388733e+003 1.862511e+003
         vertex 9.367922e+002 1.388391e+003 1.861571e+003
         vertex 9.367922e+002 1.388417e+003 1.862658e+003
      endloop
   endfacet
   facet normal -1.000000e+000 -4.042391e-017 -8.326673e-017
      outer loop
         vertex 9.367922e+002 1.388417e+003 1.862658e+003
         vertex 9.367922e+002 1.388391e+003 1.861571e+003
         vertex 9.367922e+002 1.387917e+003 1.861792e+003
      endloop
   endfacet
   facet normal -1.000000e+000 -4.042391e-017 -8.326673e-017
      outer loop
         vertex 9.367922e+002 1.388417e+003 1.862658e+003
         vertex 9.367922e+002 1.387917e+003 1.861792e+003
         vertex 9.367922e+002 1.388132e+003 1.862858e+003
      endloop
   endfacet
   facet normal -1.000000e+000 -4.042391e-017 -8.326673e-017
      outer loop
         vertex 9.367922e+002 1.388132e+003 1.862858e+003
         vertex 9.367922e+002 1.387917e+003 1.861792e+003
         vertex 9.367922e+002 1.387489e+003 1.862092e+003
      endloop
   endfacet
   facet normal -1.000000e+000 -4.042391e-017 -8.326673e-017
      outer loop
         vertex 9.367922e+002 1.388132e+003 1.862858e+003
         vertex 9.367922e+002 1.387489e+003 1.862092e+003
         vertex 9.367922e+002 1.387885e+003 1.863104e+003
      endloop
   endfacet
   facet normal -1.000000e+000 -4.042391e-017 -8.326673e-017
      outer loop
         vertex 9.367922e+002 1.387885e+003 1.863104e+003
         vertex 9.367922e+002 1.387489e+003 1.862092e+003
         vertex 9.367922e+002 1.387119e+003 1.862462e+003
      endloop
   endfacet
   facet normal -1.000000e+000 -4.042391e-017 -8.326673e-017
      outer loop
         vertex 9.367922e+002 1.387885e+003 1.863104e+003
         vertex 9.367922e+002 1.387119e+003 1.862462e+003
         vertex 9.367922e+002 1.387685e+003 1.863390e+003
      endloop
   endfacet
   facet normal -1.000000e+000 -4.042391e-017 -8.326673e-017
      outer loop
         vertex 9.367922e+002 1.387685e+003 1.863390e+003
         vertex 9.367922e+002 1.387119e+003 1.862462e+003
         vertex 9.367922e+002 1.386819e+003 1.862890e+003
      endloop
   endfacet
   facet normal -1.000000e+000 -4.042391e-017 -8.326673e-017
      outer loop
         vertex 9.367922e+002 1.387685e+003 1.863390e+003
         vertex 9.367922e+002 1.386819e+003 1.862890e+003
         vertex 9.367922e+002 1.387538e+003 1.863706e+003
      endloop
   endfacet
   facet normal -1.000000e+000 -4.042391e-017 -8.326673e-017
      outer loop
         vertex 9.367922e+002 1.387538e+003 1.863706e+003
         vertex 9.367922e+002 1.386819e+003 1.862890e+003
         vertex 9.367922e+002 1.386598e+003 1.863364e+003
      endloop
   endfacet
   facet normal -1.000000e+000 -4.042391e-017 -8.326673e-017
      outer loop
         vertex 9.367922e+002 1.387538e+003 1.863706e+003
         vertex 9.367922e+002 1.386598e+003 1.863364e+003
         vertex 9.367922e+002 1.387448e+003 1.864043e+003
      endloop
   endfacet
   facet normal -1.000000e+000 -4.042391e-017 -8.326673e-017
      outer loop
         vertex 9.367922e+002 1.387448e+003 1.864043e+003
         vertex 9.367922e+002 1.386598e+003 1.863364e+003
         vertex 9.367922e+002 1.386463e+003 1.863869e+003
      endloop
   endfacet
   facet normal -1.000000e+000 -4.042391e-017 -8.326673e-017
      outer loop
         vertex 9.367922e+002 1.387448e+003 1.864043e+003
         vertex 9.367922e+002 1.386463e+003 1.863869e+003
         vertex 9.367922e+002 1.387417e+003 1.864390e+003
      endloop
   endfacet
   facet normal -1.000000e+000 -4.042391e-017 -8.326673e-017
      outer loop
         vertex 9.367922e+002 1.387417e+003 1.864390e+003
         vertex 9.367922e+002 1.386463e+003 1.863869e+003
         vertex 9.367922e+002 1.386417e+003 1.864390e+003
      endloop
   endfacet
   facet normal 1.000000e+000 4.042391e-017 8.326673e-017
      outer loop
         vertex 2.332792e+003 1.387417e+003 1.864390e+003
         vertex 2.332792e+003 1.386417e+003 1.864390e+003
         vertex 2.332792e+003 1.387448e+003 1.864043e+003
      endloop
   endfacet
   facet normal 1.000000e+000 4.042391e-017 8.326673e-017
      outer loop
         vertex 2.332792e+003 1.387448e+003 1.864043e+003
         vertex 2.332792e+003 1.386417e+003 1.864390e+003
         vertex 2.332792e+003 1.386463e+003 1.863869e+003
      endloop
   endfacet
   facet normal 1.000000e+000 4.042391e-017 8.326673e-017
      outer loop
         vertex 2.332792e+003 1.387448e+003 1.864043e+003
         vertex 2.332792e+003 1.386463e+003 1.863869e+003
         vertex 2.332792e+003 1.387538e+003 1.863706e+003
      endloop
   endfacet
   facet normal 1.000000e+000 4.042391e-017 8.326673e-017
      outer loop
         vertex 2.332792e+003 1.387538e+003 1.863706e+003
         vertex 2.332792e+003 1.386463e+003 1.863869e+003
         vertex 2.332792e+003 1.386598e+003 1.863364e+003
      endloop
   endfacet
   facet normal 1.000000e+000 4.042391e-017 8.326673e-017
      outer loop
         vertex 2.332792e+003 1.387538e+003 1.863706e+003
         vertex 2.332792e+003 1.386598e+003 1.863364e+003
         vertex 2.332792e+003 1.387685e+003 1.863390e+003
      endloop
   endfacet
   facet normal 1.000000e+000 4.042391e-017 8.326673e-017
      outer loop
         vertex 2.332792e+003 1.387685e+003 1.863390e+003
         vertex 2.332792e+003 1.386598e+003 1.863364e+003
         vertex 2.332792e+003 1.386819e+003 1.862890e+003
      endloop
   endfacet
   facet normal 1.000000e+000 4.042391e-017 8.326673e-017
      outer loop
         vertex 2.332792e+003 1.387685e+003 1.863390e+003
         vertex 2.332792e+003 1.386819e+003 1.862890e+003
         vertex 2.332792e+003 1.387885e+003 1.863104e+003
      endloop
   endfacet
   facet normal 1.000000e+000 4.042391e-017 8.326673e-017
      outer loop
         vertex 2.332792e+003 1.387885e+003 1.863104e+003
         vertex 2.332792e+003 1.386819e+003 1.862890e+003
         vertex 2.332792e+003 1.387119e+003 1.862462e+003
      endloop
   endfacet
   facet normal 1.000000e+000 4.042391e-017 8.326673e-017
      outer loop
         vertex 2.332792e+003 1.387885e+003 1.863104e+003
         vertex 2.332792e+003 1.387119e+003 1.862462e+003
         vertex 2.332792e+003 1.388132e+003 1.862858e+003
      endloop
   endfacet
   facet normal 1.000000e+000 4.042391e-017 8.326673e-017
      outer loop
         vertex 2.332792e+003 1.388132e+003 1.862858e+003
         vertex 2.332792e+003 1.387119e+003 1.862462e+003
         vertex 2.332792e+003 1.387489e+003 1.862092e+003
      endloop
   endfacet
   facet normal 1.000000e+000 4.042391e-017 8.326673e-017
      outer loop
         vertex 2.332792e+003 1.388132e+003 1.862858e+003
         vertex 2.332792e+003 1.387489e+003 1.862092e+003
         vertex 2.332792e+003 1.388417e+003 1.862658e+003
      endloop
   endfacet
   facet normal 1.000000e+000 4.042391e-017 8.326673e-017
      outer loop
         vertex 2.332792e+003 1.388417e+003 1.862658e+003
         vertex 2.332792e+003 1.387489e+003 1.862092e+003
         vertex 2.332792e+003 1.387917e+003 1.861792e+003
      endloop
   endfacet
   facet normal 1.000000e+000 4.042391e-017 8.326673e-017
      outer loop
         vertex 2.332792e+003 1.388417e+003 1.862658e+003
         vertex 2.332792e+003 1.387917e+003 1.861792e+003
         vertex 2.332792e+003 1.388733e+003 1.862511e+003
      endloop
   endfacet
   facet normal 1.000000e+000 4.042391e-017 8.326673e-017
      outer loop
         vertex 2.332792e+003 1.388733e+003 1.862511e+003
         vertex 2.332792e+003 1.387917e+003 1.861792e+003
         vertex 2.332792e+003 1.388391e+003 1.861571e+003
      endloop
   endfacet
   facet normal 1.000000e+000 4.042391e-017 8.326673e-017
      outer loop
         vertex 2.332792e+003 1.388733e+003 1.862511e+003
         vertex 2.332792e+003 1.388391e+003 1.861571e+003
         vertex 2.332792e+003 1.389070e+003 1.862420e+003
      endloop
   endfacet
   facet normal 1.000000e+000 4.042391e-017 8.326673e-017
      outer loop
         vertex 2.332792e+003 1.389070e+003 1.862420e+003
         vertex 2.332792e+003 1.388391e+003 1.861571e+003
         vertex 2.332792e+003 1.388896e+003 1.861436e+003
      endloop
   endfacet
   facet normal 1.000000e+000 4.042391e-017 8.326673e-017
      outer loop
         vertex 2.332792e+003 1.389070e+003 1.862420e+003
         vertex 2.332792e+003 1.388896e+003 1.861436e+003
         vertex 2.332792e+003 1.389417e+003 1.862390e+003
      endloop
   endfacet
   facet normal 1.000000e+000 4.042391e-017 8.326673e-017
      outer loop
         vertex 2.332792e+003 1.389417e+003 1.862390e+003
         vertex 2.332792e+003 1.388896e+003 1.861436e+003
         vertex 2.332792e+003 1.389417e+003 1.861390e+003
      endloop
   endfacet
   facet normal 8.547396e-017 -5.807914e-002 -9.983120e-001
      outer loop
         vertex 9.367922e+002 1.389417e+003 1.861390e+003
         vertex 2.332792e+003 1.389417e+003 1.861390e+003
         vertex 2.332792e+003 1.388896e+003 1.861436e+003
      endloop
   endfacet
   facet normal 8.739864e-017 -1.161583e-001 -9.932307e-001
      outer loop
         vertex 9.367922e+002 1.389417e+003 1.861390e+003
         vertex 2.332792e+003 1.388896e+003 1.861436e+003
         vertex 9.367922e+002 1.388896e+003 1.861436e+003
      endloop
   endfacet
   facet normal 9.034333e-017 -2.305518e-001 -9.730601e-001
      outer loop
         vertex 9.367922e+002 1.388896e+003 1.861436e+003
         vertex 2.332792e+003 1.388896e+003 1.861436e+003
         vertex 2.332792e+003 1.388391e+003 1.861571e+003
      endloop
   endfacet
   facet normal 9.136334e-017 -2.868663e-001 -9.579706e-001
      outer loop
         vertex 9.367922e+002 1.388896e+003 1.861436e+003
         vertex 2.332792e+003 1.388391e+003 1.861571e+003
         vertex 9.367922e+002 1.388391e+003 1.861571e+003
      endloop
   endfacet
   facet normal 9.246767e-017 -3.960194e-001 -9.182422e-001
      outer loop
         vertex 9.367922e+002 1.388391e+003 1.861571e+003
         vertex 2.332792e+003 1.388391e+003 1.861571e+003
         vertex 2.332792e+003 1.387917e+003 1.861792e+003
      endloop
   endfacet
   facet normal 9.255200e-017 -4.488580e-001 -8.936031e-001
      outer loop
         vertex 9.367922e+002 1.388391e+003 1.861571e+003
         vertex 2.332792e+003 1.387917e+003 1.861792e+003
         vertex 9.367922e+002 1.387917e+003 1.861792e+003
      endloop
   endfacet
   facet normal 9.178243e-017 -5.494540e-001 -8.355240e-001
      outer loop
         vertex 9.367922e+002 1.387917e+003 1.861792e+003
         vertex 2.332792e+003 1.387917e+003 1.861792e+003
         vertex 2.332792e+003 1.387489e+003 1.862092e+003
      endloop
   endfacet
   facet normal 9.092852e-017 -5.972114e-001 -8.020839e-001
      outer loop
         vertex 9.367922e+002 1.387917e+003 1.861792e+003
         vertex 2.332792e+003 1.387489e+003 1.862092e+003
         vertex 9.367922e+002 1.387489e+003 1.862092e+003
      endloop
   endfacet
   facet normal 8.830841e-017 -6.861938e-001 -7.274188e-001
      outer loop
         vertex 9.367922e+002 1.387489e+003 1.862092e+003
         vertex 2.332792e+003 1.387489e+003 1.862092e+003
         vertex 2.332792e+003 1.387119e+003 1.862462e+003
      endloop
   endfacet
   facet normal 8.654222e-017 -7.274188e-001 -6.861938e-001
      outer loop
         vertex 9.367922e+002 1.387489e+003 1.862092e+003
         vertex 2.332792e+003 1.387119e+003 1.862462e+003
         vertex 9.367922e+002 1.387119e+003 1.862462e+003
      endloop
   endfacet
   facet normal 8.215120e-017 -8.020839e-001 -5.972114e-001
      outer loop
         vertex 9.367922e+002 1.387119e+003 1.862462e+003
         vertex 2.332792e+003 1.387119e+003 1.862462e+003
         vertex 2.332792e+003 1.386819e+003 1.862890e+003
      endloop
   endfacet
   facet normal 7.952637e-017 -8.355240e-001 -5.494540e-001
      outer loop
         vertex 9.367922e+002 1.387119e+003 1.862462e+003
         vertex 2.332792e+003 1.386819e+003 1.862890e+003
         vertex 9.367922e+002 1.386819e+003 1.862890e+003
      endloop
   endfacet
   facet normal 7.349786e-017 -8.936031e-001 -4.488580e-001
      outer loop
         vertex 9.367922e+002 1.386819e+003 1.862890e+003
         vertex 2.332792e+003 1.386819e+003 1.862890e+003
         vertex 2.332792e+003 1.386598e+003 1.863364e+003
      endloop
   endfacet
   facet normal 7.009417e-017 -9.182422e-001 -3.960194e-001
      outer loop
         vertex 9.367922e+002 1.386819e+003 1.862890e+003
         vertex 2.332792e+003 1.386598e+003 1.863364e+003
         vertex 9.367922e+002 1.386598e+003 1.863364e+003
      endloop
   endfacet
   facet normal 6.261133e-017 -9.579706e-001 -2.868663e-001
      outer loop
         vertex 9.367922e+002 1.386598e+003 1.863364e+003
         vertex 2.332792e+003 1.386598e+003 1.863364e+003
         vertex 2.332792e+003 1.386463e+003 1.863869e+003
      endloop
   endfacet
   facet normal 5.853219e-017 -9.730601e-001 -2.305518e-001
      outer loop
         vertex 9.367922e+002 1.386598e+003 1.863364e+003
         vertex 2.332792e+003 1.386463e+003 1.863869e+003
         vertex 9.367922e+002 1.386463e+003 1.863869e+003
      endloop
   endfacet
   facet normal 4.982239e-017 -9.932307e-001 -1.161583e-001
      outer loop
         vertex 9.367922e+002 1.386463e+003 1.863869e+003
         vertex 2.332792e+003 1.386463e+003 1.863869e+003
         vertex 2.332792e+003 1.386417e+003 1.864390e+003
      endloop
   endfacet
   facet normal 4.519173e-017 -9.983120e-001 -5.807914e-002
      outer loop
         vertex 9.367922e+002 1.386463e+003 1.863869e+003
         vertex 2.332792e+003 1.386417e+003 1.864390e+003
         vertex 9.367922e+002 1.386417e+003 1.864390e+003
      endloop
   endfacet
   facet normal -4.519173e-017 9.983120e-001 5.807914e-002
      outer loop
         vertex 9.367922e+002 1.387417e+003 1.864390e+003
         vertex 2.332792e+003 1.387417e+003 1.864390e+003
         vertex 2.332792e+003 1.387448e+003 1.864043e+003
      endloop
   endfacet
   facet normal -4.982239e-017 9.932307e-001 1.161583e-001
      outer loop
         vertex 9.367922e+002 1.387417e+003 1.864390e+003
         vertex 2.332792e+003 1.387448e+003 1.864043e+003
         vertex 9.367922e+002 1.387448e+003 1.864043e+003
      endloop
   endfacet
   facet normal -5.853219e-017 9.730601e-001 2.305518e-001
      outer loop
         vertex 9.367922e+002 1.387448e+003 1.864043e+003
         vertex 2.332792e+003 1.387448e+003 1.864043e+003
         vertex 2.332792e+003 1.387538e+003 1.863706e+003
      endloop
   endfacet
   facet normal -6.261133e-017 9.579706e-001 2.868663e-001
      outer loop
         vertex 9.367922e+002 1.387448e+003 1.864043e+003
         vertex 2.332792e+003 1.387538e+003 1.863706e+003
         vertex 9.367922e+002 1.387538e+003 1.863706e+003
      endloop
   endfacet
   facet normal -7.009417e-017 9.182422e-001 3.960194e-001
      outer loop
         vertex 9.367922e+002 1.387538e+003 1.863706e+003
         vertex 2.332792e+003 1.387538e+003 1.863706e+003
         vertex 2.332792e+003 1.387685e+003 1.863390e+003
      endloop
   endfacet
   facet normal -7.349786e-017 8.936031e-001 4.488580e-001
      outer loop
         vertex 9.367922e+002 1.387538e+003 1.863706e+003
         vertex 2.332792e+003 1.387685e+003 1.863390e+003
         vertex 9.367922e+002 1.387685e+003 1.863390e+003
      endloop
   endfacet
   facet normal -7.952637e-017 8.355240e-001 5.494540e-001
      outer loop
         vertex 9.367922e+002 1.387685e+003 1.863390e+003
         vertex 2.332792e+003 1.387685e+003 1.863390e+003
         vertex 2.332792e+003 1.387885e+003 1.863104e+003
      endloop
   endfacet
   facet normal -8.215120e-017 8.020839e-001 5.972114e-001
      outer loop
         vertex 9.367922e+002 1.387685e+003 1.863390e+003
         vertex 2.332792e+003 1.387885e+003 1.863104e+003
         vertex 9.367922e+002 1.387885e+003 1.863104e+003
      endloop
   endfacet
   facet normal -8.654222e-017 7.274188e-001 6.861938e-001
      outer loop
         vertex 9.367922e+002 1.387885e+003 1.863104e+003
         vertex 2.332792e+003 1.387885e+003 1.863104e+003
         vertex 2.332792e+003 1.388132e+003 1.862858e+003
      endloop
   endfacet
   facet normal -8.830841e-017 6.861938e-001 7.274188e-001
      outer loop
         vertex 9.367922e+002 1.387885e+003 1.863104e+003
         vertex 2.332792e+003 1.388132e+003 1.862858e+003
         vertex 9.367922e+002 1.388132e+003 1.862858e+003
      endloop
   endfacet
   facet normal -9.092852e-017 5.972114e-001 8.020839e-001
      outer loop
         vertex 9.367922e+002 1.388132e+003 1.862858e+003
         vertex 2.332792e+003 1.388132e+003 1.862858e+003
         vertex 2.332792e+003 1.388417e+003 1.862658e+003
      endloop
   endfacet
   facet normal -9.178243e-017 5.494540e-001 8.355240e-001
      outer loop
         vertex 9.367922e+002 1.388132e+003 1.862858e+003
         vertex 2.332792e+003 1.388417e+003 1.862658e+003
         vertex 9.367922e+002 1.388417e+003 1.862658e+003
      endloop
   endfacet
   facet normal -9.255200e-017 4.488580e-001 8.936031e-001
      outer loop
         vertex 9.367922e+002 1.388417e+003 1.862658e+003
         vertex 2.332792e+003 1.388417e+003 1.862658e+003
         vertex 2.332792e+003 1.388733e+003 1.862511e+003
      endloop
   endfacet
   facet normal -9.246767e-017 3.960194e-001 9.182422e-001
      outer loop
         vertex 9.367922e+002 1.388417e+003 1.862658e+003
         vertex 2.332792e+003 1.388733e+003 1.862511e+003
         vertex 9.367922e+002 1.388733e+003 1.862511e+003
      endloop
   endfacet
   facet normal -9.136334e-017 2.868663e-001 9.579706e-001
      outer loop
         vertex 9.367922e+002 1.388733e+003 1.862511e+003
         vertex 2.332792e+003 1.388733e+003 1.862511e+003
         vertex 2.332792e+003 1.389070e+003 1.862420e+003
      endloop
   endfacet
   facet normal -9.034333e-017 2.305518e-001 9.730601e-001
      outer loop
         vertex 9.367922e+002 1.388733e+003 1.862511e+003
         vertex 2.332792e+003 1.389070e+003 1.862420e+003
         vertex 9.367922e+002 1.389070e+003 1.862420e+003
      endloop
   endfacet
   facet normal -8.739864e-017 1.161583e-001 9.932307e-001
      outer loop
         vertex 9.367922e+002 1.389070e+003 1.862420e+003
         vertex 2.332792e+003 1.389070e+003 1.862420e+003
         vertex 2.332792e+003 1.389417e+003 1.862390e+003
      endloop
   endfacet
   facet normal -8.547396e-017 5.807914e-002 9.983120e-001
      outer loop
         vertex 9.367922e+002 1.389070e+003 1.862420e+003
         vertex 2.332792e+003 1.389417e+003 1.862390e+003
         vertex 9.367922e+002 1.389417e+003 1.862390e+003
      endloop
   endfacet
   facet normal 1.000000e+000 4.042391e-017 8.326673e-017
      outer loop
         vertex 2.332792e+003 1.387417e+003 1.885390e+003
         vertex 2.332792e+003 1.386417e+003 1.885390e+003
         vertex 2.332792e+003 1.387417e+003 1.864390e+003
      endloop
   endfacet
   facet normal 1.000000e+000 4.042391e-017 8.326673e-017
      outer loop
         vertex 2.332792e+003 1.387417e+003 1.864390e+003
         vertex 2.332792e+003 1.386417e+003 1.885390e+003
         vertex 2.332792e+003 1.386417e+003 1.864390e+003
      endloop
   endfacet
   facet normal -1.000000e+000 -4.042391e-017 -8.326673e-017
      outer loop
         vertex 9.367922e+002 1.386417e+003 1.885390e+003
         vertex 9.367922e+002 1.387417e+003 1.885390e+003
         vertex 9.367922e+002 1.386417e+003 1.864390e+003
      endloop
   endfacet
   facet normal -1.000000e+000 -4.042391e-017 -8.326673e-017
      outer loop
         vertex 9.367922e+002 1.386417e+003 1.864390e+003
         vertex 9.367922e+002 1.387417e+003 1.885390e+003
         vertex 9.367922e+002 1.387417e+003 1.864390e+003
      endloop
   endfacet
   facet normal 4.042391e-017 -1.000000e+000 -3.710863e-015
      outer loop
         vertex 2.332792e+003 1.386417e+003 1.885390e+003
         vertex 9.367922e+002 1.386417e+003 1.885390e+003
         vertex 2.332792e+003 1.386417e+003 1.864390e+003
      endloop
   endfacet
   facet normal 4.042391e-017 -1.000000e+000 -3.710863e-015
      outer loop
         vertex 2.332792e+003 1.386417e+003 1.864390e+003
         vertex 9.367922e+002 1.386417e+003 1.885390e+003
         vertex 9.367922e+002 1.386417e+003 1.864390e+003
      endloop
   endfacet
   facet normal -4.042391e-017 1.000000e+000 3.710863e-015
      outer loop
         vertex 9.367922e+002 1.387417e+003 1.864390e+003
         vertex 9.367922e+002 1.387417e+003 1.885390e+003
         vertex 2.332792e+003 1.387417e+003 1.864390e+003
      endloop
   endfacet
   facet normal -4.042391e-017 1.000000e+000 3.710863e-015
      outer loop
         vertex 2.332792e+003 1.387417e+003 1.864390e+003
         vertex 9.367922e+002 1.387417e+003 1.885390e+003
         vertex 2.332792e+003 1.387417e+003 1.885390e+003
      endloop
   endfacet
   facet normal -8.326673e-017 -3.486279e-015 1.000000e+000
      outer loop
         vertex 9.367922e+002 1.386417e+003 1.885390e+003
         vertex 2.332792e+003 1.386417e+003 1.885390e+003
         vertex 9.367922e+002 1.387417e+003 1.885390e+003
      endloop
   endfacet
   facet normal -8.326673e-017 -3.486279e-015 1.000000e+000
      outer loop
         vertex 9.367922e+002 1.387417e+003 1.885390e+003
         vertex 2.332792e+003 1.386417e+003 1.885390e+003
         vertex 2.332792e+003 1.387417e+003 1.885390e+003
      endloop
   endfacet
   facet normal 1.000000e+000 1.488433e-016 8.326673e-017
      outer loop
         vertex 2.332792e+003 1.450417e+003 2.112302e+003
         vertex 2.332792e+003 1.451417e+003 2.112302e+003
         vertex 2.332792e+003 1.450410e+003 2.112477e+003
      endloop
   endfacet
   facet normal 1.000000e+000 1.488433e-016 8.326673e-017
      outer loop
         vertex 2.332792e+003 1.450410e+003 2.112477e+003
         vertex 2.332792e+003 1.451417e+003 2.112302e+003
         vertex 2.332792e+003 1.451406e+003 2.112564e+003
      endloop
   endfacet
   facet normal -1.000000e+000 -1.488433e-016 -8.326673e-017
      outer loop
         vertex 9.367922e+002 1.451406e+003 2.112564e+003
         vertex 9.367922e+002 1.451417e+003 2.112302e+003
         vertex 9.367922e+002 1.450410e+003 2.112477e+003
      endloop
   endfacet
   facet normal -1.000000e+000 -1.488433e-016 -8.326673e-017
      outer loop
         vertex 9.367922e+002 1.450410e+003 2.112477e+003
         vertex 9.367922e+002 1.451417e+003 2.112302e+003
         vertex 9.367922e+002 1.450417e+003 2.112302e+003
      endloop
   endfacet
   facet normal -1.534337e-016 9.983077e-001 5.815303e-002
      outer loop
         vertex 2.332792e+003 1.451406e+003 2.112564e+003
         vertex 2.332792e+003 1.451417e+003 2.112302e+003
         vertex 9.367922e+002 1.451406e+003 2.112564e+003
      endloop
   endfacet
   facet normal -1.512015e-016 9.995772e-001 2.907651e-002
      outer loop
         vertex 9.367922e+002 1.451406e+003 2.112564e+003
         vertex 2.332792e+003 1.451417e+003 2.112302e+003
         vertex 9.367922e+002 1.451417e+003 2.112302e+003
      endloop
   endfacet
   facet normal 1.512015e-016 -9.995772e-001 -2.907651e-002
      outer loop
         vertex 2.332792e+003 1.450417e+003 2.112302e+003
         vertex 2.332792e+003 1.450410e+003 2.112477e+003
         vertex 9.367922e+002 1.450417e+003 2.112302e+003
      endloop
   endfacet
   facet normal 1.534337e-016 -9.983077e-001 -5.815303e-002
      outer loop
         vertex 9.367922e+002 1.450417e+003 2.112302e+003
         vertex 2.332792e+003 1.450410e+003 2.112477e+003
         vertex 9.367922e+002 1.450410e+003 2.112477e+003
      endloop
   endfacet
   facet normal 1.000000e+000 4.042391e-017 8.326673e-017
      outer loop
         vertex 2.332792e+003 1.434802e+003 2.290875e+003
         vertex 2.332792e+003 1.435798e+003 2.290963e+003
         vertex 2.332792e+003 1.434746e+003 2.291200e+003
      endloop
   endfacet
   facet normal 1.000000e+000 4.042391e-017 8.326673e-017
      outer loop
         vertex 2.332792e+003 1.434746e+003 2.291200e+003
         vertex 2.332792e+003 1.435798e+003 2.290963e+003
         vertex 2.332792e+003 1.435715e+003 2.291449e+003
      endloop
   endfacet
   facet normal 1.000000e+000 4.042391e-017 8.326673e-017
      outer loop
         vertex 2.332792e+003 1.434746e+003 2.291200e+003
         vertex 2.332792e+003 1.435715e+003 2.291449e+003
         vertex 2.332792e+003 1.434638e+003 2.291511e+003
      endloop
   endfacet
   facet normal 1.000000e+000 4.042391e-017 8.326673e-017
      outer loop
         vertex 2.332792e+003 1.434638e+003 2.291511e+003
         vertex 2.332792e+003 1.435715e+003 2.291449e+003
         vertex 2.332792e+003 1.435552e+003 2.291916e+003
      endloop
   endfacet
   facet normal 1.000000e+000 4.042391e-017 8.326673e-017
      outer loop
         vertex 2.332792e+003 1.434638e+003 2.291511e+003
         vertex 2.332792e+003 1.435552e+003 2.291916e+003
         vertex 2.332792e+003 1.434480e+003 2.291800e+003
      endloop
   endfacet
   facet normal 1.000000e+000 4.042391e-017 8.326673e-017
      outer loop
         vertex 2.332792e+003 1.434480e+003 2.291800e+003
         vertex 2.332792e+003 1.435552e+003 2.291916e+003
         vertex 2.332792e+003 1.435316e+003 2.292350e+003
      endloop
   endfacet
   facet normal 1.000000e+000 4.042391e-017 8.326673e-017
      outer loop
         vertex 2.332792e+003 1.434480e+003 2.291800e+003
         vertex 2.332792e+003 1.435316e+003 2.292350e+003
         vertex 2.332792e+003 1.434277e+003 2.292059e+003
      endloop
   endfacet
   facet normal 1.000000e+000 4.042391e-017 8.326673e-017
      outer loop
         vertex 2.332792e+003 1.434277e+003 2.292059e+003
         vertex 2.332792e+003 1.435316e+003 2.292350e+003
         vertex 2.332792e+003 1.435011e+003 2.292739e+003
      endloop
   endfacet
   facet normal 1.000000e+000 4.042391e-017 8.326673e-017
      outer loop
         vertex 2.332792e+003 1.434277e+003 2.292059e+003
         vertex 2.332792e+003 1.435011e+003 2.292739e+003
         vertex 2.332792e+003 1.434035e+003 2.292282e+003
      endloop
   endfacet
   facet normal 1.000000e+000 4.042391e-017 8.326673e-017
      outer loop
         vertex 2.332792e+003 1.434035e+003 2.292282e+003
         vertex 2.332792e+003 1.435011e+003 2.292739e+003
         vertex 2.332792e+003 1.434647e+003 2.293073e+003
      endloop
   endfacet
   facet normal 1.000000e+000 4.042391e-017 8.326673e-017
      outer loop
         vertex 2.332792e+003 1.434035e+003 2.292282e+003
         vertex 2.332792e+003 1.434647e+003 2.293073e+003
         vertex 2.332792e+003 1.433759e+003 2.292462e+003
      endloop
   endfacet
   facet normal 1.000000e+000 4.042391e-017 8.326673e-017
      outer loop
         vertex 2.332792e+003 1.433759e+003 2.292462e+003
         vertex 2.332792e+003 1.434647e+003 2.293073e+003
         vertex 2.332792e+003 1.434233e+003 2.293342e+003
      endloop
   endfacet
   facet normal 1.000000e+000 4.042391e-017 8.326673e-017
      outer loop
         vertex 2.332792e+003 1.433759e+003 2.292462e+003
         vertex 2.332792e+003 1.434233e+003 2.293342e+003
         vertex 2.332792e+003 1.433457e+003 2.292594e+003
      endloop
   endfacet
   facet normal 1.000000e+000 4.042391e-017 8.326673e-017
      outer loop
         vertex 2.332792e+003 1.433457e+003 2.292594e+003
         vertex 2.332792e+003 1.434233e+003 2.293342e+003
         vertex 2.332792e+003 1.433781e+003 2.293540e+003
      endloop
   endfacet
   facet normal 1.000000e+000 4.042391e-017 8.326673e-017
      outer loop
         vertex 2.332792e+003 1.433457e+003 2.292594e+003
         vertex 2.332792e+003 1.433781e+003 2.293540e+003
         vertex 2.332792e+003 1.433138e+003 2.292674e+003
      endloop
   endfacet
   facet normal 1.000000e+000 4.042391e-017 8.326673e-017
      outer loop
         vertex 2.332792e+003 1.433138e+003 2.292674e+003
         vertex 2.332792e+003 1.433781e+003 2.293540e+003
         vertex 2.332792e+003 1.433302e+003 2.293660e+003
      endloop
   endfacet
   facet normal 1.000000e+000 4.042391e-017 8.326673e-017
      outer loop
         vertex 2.332792e+003 1.433138e+003 2.292674e+003
         vertex 2.332792e+003 1.433302e+003 2.293660e+003
         vertex 2.332792e+003 1.432809e+003 2.292701e+003
      endloop
   endfacet
   facet normal 1.000000e+000 4.042391e-017 8.326673e-017
      outer loop
         vertex 2.332792e+003 1.432809e+003 2.292701e+003
         vertex 2.332792e+003 1.433302e+003 2.293660e+003
         vertex 2.332792e+003 1.432809e+003 2.293701e+003
      endloop
   endfacet
   facet normal -1.000000e+000 -4.042391e-017 -8.326673e-017
      outer loop
         vertex 9.367922e+002 1.432809e+003 2.292701e+003
         vertex 9.367922e+002 1.432809e+003 2.293701e+003
         vertex 9.367922e+002 1.433138e+003 2.292674e+003
      endloop
   endfacet
   facet normal -1.000000e+000 -4.042391e-017 -8.326673e-017
      outer loop
         vertex 9.367922e+002 1.433138e+003 2.292674e+003
         vertex 9.367922e+002 1.432809e+003 2.293701e+003
         vertex 9.367922e+002 1.433302e+003 2.293660e+003
      endloop
   endfacet
   facet normal -1.000000e+000 -4.042391e-017 -8.326673e-017
      outer loop
         vertex 9.367922e+002 1.433138e+003 2.292674e+003
         vertex 9.367922e+002 1.433302e+003 2.293660e+003
         vertex 9.367922e+002 1.433457e+003 2.292594e+003
      endloop
   endfacet
   facet normal -1.000000e+000 -4.042391e-017 -8.326673e-017
      outer loop
         vertex 9.367922e+002 1.433457e+003 2.292594e+003
         vertex 9.367922e+002 1.433302e+003 2.293660e+003
         vertex 9.367922e+002 1.433781e+003 2.293540e+003
      endloop
   endfacet
   facet normal -1.000000e+000 -4.042391e-017 -8.326673e-017
      outer loop
         vertex 9.367922e+002 1.433457e+003 2.292594e+003
         vertex 9.367922e+002 1.433781e+003 2.293540e+003
         vertex 9.367922e+002 1.433759e+003 2.292462e+003
      endloop
   endfacet
   facet normal -1.000000e+000 -4.042391e-017 -8.326673e-017
      outer loop
         vertex 9.367922e+002 1.433759e+003 2.292462e+003
         vertex 9.367922e+002 1.433781e+003 2.293540e+003
         vertex 9.367922e+002 1.434233e+003 2.293342e+003
      endloop
   endfacet
   facet normal -1.000000e+000 -4.042391e-017 -8.326673e-017
      outer loop
         vertex 9.367922e+002 1.433759e+003 2.292462e+003
         vertex 9.367922e+002 1.434233e+003 2.293342e+003
         vertex 9.367922e+002 1.434035e+003 2.292282e+003
      endloop
   endfacet
   facet normal -1.000000e+000 -4.042391e-017 -8.326673e-017
      outer loop
         vertex 9.367922e+002 1.434035e+003 2.292282e+003
         vertex 9.367922e+002 1.434233e+003 2.293342e+003
         vertex 9.367922e+002 1.434647e+003 2.293073e+003
      endloop
   endfacet
   facet normal -1.000000e+000 -4.042391e-017 -8.326673e-017
      outer loop
         vertex 9.367922e+002 1.434035e+003 2.292282e+003
         vertex 9.367922e+002 1.434647e+003 2.293073e+003
         vertex 9.367922e+002 1.434277e+003 2.292059e+003
      endloop
   endfacet
   facet normal -1.000000e+000 -4.042391e-017 -8.326673e-017
      outer loop
         vertex 9.367922e+002 1.434277e+003 2.292059e+003
         vertex 9.367922e+002 1.434647e+003 2.293073e+003
         vertex 9.367922e+002 1.435011e+003 2.292739e+003
      endloop
   endfacet
   facet normal -1.000000e+000 -4.042391e-017 -8.326673e-017
      outer loop
         vertex 9.367922e+002 1.434277e+003 2.292059e+003
         vertex 9.367922e+002 1.435011e+003 2.292739e+003
         vertex 9.367922e+002 1.434480e+003 2.291800e+003
      endloop
   endfacet
   facet normal -1.000000e+000 -4.042391e-017 -8.326673e-017
      outer loop
         vertex 9.367922e+002 1.434480e+003 2.291800e+003
         vertex 9.367922e+002 1.435011e+003 2.292739e+003
         vertex 9.367922e+002 1.435316e+003 2.292350e+003
      endloop
   endfacet
   facet normal -1.000000e+000 -4.042391e-017 -8.326673e-017
      outer loop
         vertex 9.367922e+002 1.434480e+003 2.291800e+003
         vertex 9.367922e+002 1.435316e+003 2.292350e+003
         vertex 9.367922e+002 1.434638e+003 2.291511e+003
      endloop
   endfacet
   facet normal -1.000000e+000 -4.042391e-017 -8.326673e-017
      outer loop
         vertex 9.367922e+002 1.434638e+003 2.291511e+003
         vertex 9.367922e+002 1.435316e+003 2.292350e+003
         vertex 9.367922e+002 1.435552e+003 2.291916e+003
      endloop
   endfacet
   facet normal -1.000000e+000 -4.042391e-017 -8.326673e-017
      outer loop
         vertex 9.367922e+002 1.434638e+003 2.291511e+003
         vertex 9.367922e+002 1.435552e+003 2.291916e+003
         vertex 9.367922e+002 1.434746e+003 2.291200e+003
      endloop
   endfacet
   facet normal -1.000000e+000 -4.042391e-017 -8.326673e-017
      outer loop
         vertex 9.367922e+002 1.434746e+003 2.291200e+003
         vertex 9.367922e+002 1.435552e+003 2.291916e+003
         vertex 9.367922e+002 1.435715e+003 2.291449e+003
      endloop
   endfacet
   facet normal -1.000000e+000 -4.042391e-017 -8.326673e-017
      outer loop
         vertex 9.367922e+002 1.434746e+003 2.291200e+003
         vertex 9.367922e+002 1.435715e+003 2.291449e+003
         vertex 9.367922e+002 1.434802e+003 2.290875e+003
      endloop
   endfacet
   facet normal -1.000000e+000 -4.042391e-017 -8.326673e-017
      outer loop
         vertex 9.367922e+002 1.434802e+003 2.290875e+003
         vertex 9.367922e+002 1.435715e+003 2.291449e+003
         vertex 9.367922e+002 1.435798e+003 2.290963e+003
      endloop
   endfacet
   facet normal -5.181323e-017 9.899127e-001 1.416783e-001
      outer loop
         vertex 2.332792e+003 1.435798e+003 2.290963e+003
         vertex 9.367922e+002 1.435798e+003 2.290963e+003
         vertex 9.367922e+002 1.435715e+003 2.291449e+003
      endloop
   endfacet
   facet normal -5.595539e-017 9.806165e-001 1.959371e-001
      outer loop
         vertex 2.332792e+003 1.435798e+003 2.290963e+003
         vertex 9.367922e+002 1.435715e+003 2.291449e+003
         vertex 2.332792e+003 1.435715e+003 2.291449e+003
      endloop
   endfacet
   facet normal -6.369664e-017 9.532465e-001 3.021938e-001
      outer loop
         vertex 2.332792e+003 1.435715e+003 2.291449e+003
         vertex 9.367922e+002 1.435715e+003 2.291449e+003
         vertex 9.367922e+002 1.435552e+003 2.291916e+003
      endloop
   endfacet
   facet normal -6.729572e-017 9.351729e-001 3.541917e-001
      outer loop
         vertex 2.332792e+003 1.435715e+003 2.291449e+003
         vertex 9.367922e+002 1.435552e+003 2.291916e+003
         vertex 2.332792e+003 1.435552e+003 2.291916e+003
      endloop
   endfacet
   facet normal -7.385325e-017 8.907381e-001 4.545170e-001
      outer loop
         vertex 2.332792e+003 1.435552e+003 2.291916e+003
         vertex 9.367922e+002 1.435552e+003 2.291916e+003
         vertex 9.367922e+002 1.435316e+003 2.292350e+003
      endloop
   endfacet
   facet normal -7.681169e-017 8.643770e-001 5.028443e-001
      outer loop
         vertex 2.332792e+003 1.435552e+003 2.291916e+003
         vertex 9.367922e+002 1.435316e+003 2.292350e+003
         vertex 2.332792e+003 1.435316e+003 2.292350e+003
      endloop
   endfacet
   facet normal -8.200774e-017 8.040820e-001 5.945184e-001
      outer loop
         vertex 2.332792e+003 1.435316e+003 2.292350e+003
         vertex 9.367922e+002 1.435316e+003 2.292350e+003
         vertex 9.367922e+002 1.435011e+003 2.292739e+003
      endloop
   endfacet
   facet normal -8.424533e-017 7.701482e-001 6.378651e-001
      outer loop
         vertex 2.332792e+003 1.435316e+003 2.292350e+003
         vertex 9.367922e+002 1.435011e+003 2.292739e+003
         vertex 2.332792e+003 1.435011e+003 2.292739e+003
      endloop
   endfacet
   facet normal -8.793901e-017 6.956276e-001 7.184026e-001
      outer loop
         vertex 2.332792e+003 1.435011e+003 2.292739e+003
         vertex 9.367922e+002 1.435011e+003 2.292739e+003
         vertex 9.367922e+002 1.434647e+003 2.293073e+003
      endloop
   endfacet
   facet normal -8.939510e-017 6.550409e-001 7.555934e-001
      outer loop
         vertex 2.332792e+003 1.435011e+003 2.292739e+003
         vertex 9.367922e+002 1.434647e+003 2.293073e+003
         vertex 2.332792e+003 1.434647e+003 2.293073e+003
      endloop
   endfacet
   facet normal -9.148629e-017 5.683150e-001 8.228111e-001
      outer loop
         vertex 2.332792e+003 1.434647e+003 2.293073e+003
         vertex 9.367922e+002 1.434647e+003 2.293073e+003
         vertex 9.367922e+002 1.434233e+003 2.293342e+003
      endloop
   endfacet
   facet normal -9.212140e-017 5.221757e-001 8.528379e-001
      outer loop
         vertex 2.332792e+003 1.434647e+003 2.293073e+003
         vertex 9.367922e+002 1.434233e+003 2.293342e+003
         vertex 2.332792e+003 1.434233e+003 2.293342e+003
      endloop
   endfacet
   facet normal -9.255342e-017 4.255955e-001 9.049135e-001
      outer loop
         vertex 2.332792e+003 1.434233e+003 2.293342e+003
         vertex 9.367922e+002 1.434233e+003 2.293342e+003
         vertex 9.367922e+002 1.433781e+003 2.293540e+003
      endloop
   endfacet
   facet normal -9.235033e-017 3.751545e-001 9.269623e-001
      outer loop
         vertex 2.332792e+003 1.434233e+003 2.293342e+003
         vertex 9.367922e+002 1.433781e+003 2.293540e+003
         vertex 2.332792e+003 1.433781e+003 2.293540e+003
      endloop
   endfacet
   facet normal -9.111145e-017 2.713383e-001 9.624841e-001
      outer loop
         vertex 2.332792e+003 1.433781e+003 2.293540e+003
         vertex 9.367922e+002 1.433781e+003 2.293540e+003
         vertex 9.367922e+002 1.433302e+003 2.293660e+003
      endloop
   endfacet
   facet normal -9.007566e-017 2.179630e-001 9.759570e-001
      outer loop
         vertex 2.332792e+003 1.433781e+003 2.293540e+003
         vertex 9.367922e+002 1.433302e+003 2.293660e+003
         vertex 2.332792e+003 1.433302e+003 2.293660e+003
      endloop
   endfacet
   facet normal -8.719948e-017 1.097251e-001 9.939620e-001
      outer loop
         vertex 2.332792e+003 1.433302e+003 2.293660e+003
         vertex 9.367922e+002 1.433302e+003 2.293660e+003
         vertex 9.367922e+002 1.432809e+003 2.293701e+003
      endloop
   endfacet
   facet normal -8.535908e-017 5.486257e-002 9.984939e-001
      outer loop
         vertex 2.332792e+003 1.433302e+003 2.293660e+003
         vertex 9.367922e+002 1.432809e+003 2.293701e+003
         vertex 2.332792e+003 1.432809e+003 2.293701e+003
      endloop
   endfacet
   facet normal 8.535908e-017 -5.486257e-002 -9.984939e-001
      outer loop
         vertex 2.332792e+003 1.432809e+003 2.292701e+003
         vertex 9.367922e+002 1.432809e+003 2.292701e+003
         vertex 9.367922e+002 1.433138e+003 2.292674e+003
      endloop
   endfacet
   facet normal 8.719948e-017 -1.097251e-001 -9.939620e-001
      outer loop
         vertex 2.332792e+003 1.432809e+003 2.292701e+003
         vertex 9.367922e+002 1.433138e+003 2.292674e+003
         vertex 2.332792e+003 1.433138e+003 2.292674e+003
      endloop
   endfacet
   facet normal 9.007566e-017 -2.179630e-001 -9.759570e-001
      outer loop
         vertex 2.332792e+003 1.433138e+003 2.292674e+003
         vertex 9.367922e+002 1.433138e+003 2.292674e+003
         vertex 9.367922e+002 1.433457e+003 2.292594e+003
      endloop
   endfacet
   facet normal 9.111145e-017 -2.713383e-001 -9.624841e-001
      outer loop
         vertex 2.332792e+003 1.433138e+003 2.292674e+003
         vertex 9.367922e+002 1.433457e+003 2.292594e+003
         vertex 2.332792e+003 1.433457e+003 2.292594e+003
      endloop
   endfacet
   facet normal 9.235033e-017 -3.751545e-001 -9.269623e-001
      outer loop
         vertex 2.332792e+003 1.433457e+003 2.292594e+003
         vertex 9.367922e+002 1.433457e+003 2.292594e+003
         vertex 9.367922e+002 1.433759e+003 2.292462e+003
      endloop
   endfacet
   facet normal 9.255342e-017 -4.255955e-001 -9.049135e-001
      outer loop
         vertex 2.332792e+003 1.433457e+003 2.292594e+003
         vertex 9.367922e+002 1.433759e+003 2.292462e+003
         vertex 2.332792e+003 1.433759e+003 2.292462e+003
      endloop
   endfacet
   facet normal 9.212140e-017 -5.221757e-001 -8.528379e-001
      outer loop
         vertex 2.332792e+003 1.433759e+003 2.292462e+003
         vertex 9.367922e+002 1.433759e+003 2.292462e+003
         vertex 9.367922e+002 1.434035e+003 2.292282e+003
      endloop
   endfacet
   facet normal 9.148629e-017 -5.683150e-001 -8.228111e-001
      outer loop
         vertex 2.332792e+003 1.433759e+003 2.292462e+003
         vertex 9.367922e+002 1.434035e+003 2.292282e+003
         vertex 2.332792e+003 1.434035e+003 2.292282e+003
      endloop
   endfacet
   facet normal 8.939510e-017 -6.550409e-001 -7.555934e-001
      outer loop
         vertex 2.332792e+003 1.434035e+003 2.292282e+003
         vertex 9.367922e+002 1.434035e+003 2.292282e+003
         vertex 9.367922e+002 1.434277e+003 2.292059e+003
      endloop
   endfacet
   facet normal 8.793901e-017 -6.956276e-001 -7.184026e-001
      outer loop
         vertex 2.332792e+003 1.434035e+003 2.292282e+003
         vertex 9.367922e+002 1.434277e+003 2.292059e+003
         vertex 2.332792e+003 1.434277e+003 2.292059e+003
      endloop
   endfacet
   facet normal 8.424533e-017 -7.701482e-001 -6.378651e-001
      outer loop
         vertex 2.332792e+003 1.434277e+003 2.292059e+003
         vertex 9.367922e+002 1.434277e+003 2.292059e+003
         vertex 9.367922e+002 1.434480e+003 2.291800e+003
      endloop
   endfacet
   facet normal 8.200774e-017 -8.040820e-001 -5.945184e-001
      outer loop
         vertex 2.332792e+003 1.434277e+003 2.292059e+003
         vertex 9.367922e+002 1.434480e+003 2.291800e+003
         vertex 2.332792e+003 1.434480e+003 2.291800e+003
      endloop
   endfacet
   facet normal 7.681169e-017 -8.643770e-001 -5.028443e-001
      outer loop
         vertex 2.332792e+003 1.434480e+003 2.291800e+003
         vertex 9.367922e+002 1.434480e+003 2.291800e+003
         vertex 9.367922e+002 1.434638e+003 2.291511e+003
      endloop
   endfacet
   facet normal 7.385325e-017 -8.907381e-001 -4.545170e-001
      outer loop
         vertex 2.332792e+003 1.434480e+003 2.291800e+003
         vertex 9.367922e+002 1.434638e+003 2.291511e+003
         vertex 2.332792e+003 1.434638e+003 2.291511e+003
      endloop
   endfacet
   facet normal 6.729572e-017 -9.351729e-001 -3.541917e-001
      outer loop
         vertex 2.332792e+003 1.434638e+003 2.291511e+003
         vertex 9.367922e+002 1.434638e+003 2.291511e+003
         vertex 9.367922e+002 1.434746e+003 2.291200e+003
      endloop
   endfacet
   facet normal 6.369664e-017 -9.532465e-001 -3.021938e-001
      outer loop
         vertex 2.332792e+003 1.434638e+003 2.291511e+003
         vertex 9.367922e+002 1.434746e+003 2.291200e+003
         vertex 2.332792e+003 1.434746e+003 2.291200e+003
      endloop
   endfacet
   facet normal 5.595539e-017 -9.806165e-001 -1.959371e-001
      outer loop
         vertex 2.332792e+003 1.434746e+003 2.291200e+003
         vertex 9.367922e+002 1.434746e+003 2.291200e+003
         vertex 9.367922e+002 1.434802e+003 2.290875e+003
      endloop
   endfacet
   facet normal 5.181323e-017 -9.899127e-001 -1.416783e-001
      outer loop
         vertex 2.332792e+003 1.434746e+003 2.291200e+003
         vertex 9.367922e+002 1.434802e+003 2.290875e+003
         vertex 2.332792e+003 1.434802e+003 2.290875e+003
      endloop
   endfacet
   facet normal -1.000000e+000 -4.042391e-017 -8.326673e-017
      outer loop
         vertex 9.367922e+002 1.414642e+003 2.292701e+003
         vertex 9.367922e+002 1.414642e+003 2.293701e+003
         vertex 9.367922e+002 1.432809e+003 2.292701e+003
      endloop
   endfacet
   facet normal -1.000000e+000 -4.042391e-017 -8.326673e-017
      outer loop
         vertex 9.367922e+002 1.432809e+003 2.292701e+003
         vertex 9.367922e+002 1.414642e+003 2.293701e+003
         vertex 9.367922e+002 1.432809e+003 2.293701e+003
      endloop
   endfacet
   facet normal 1.000000e+000 4.042391e-017 8.326673e-017
      outer loop
         vertex 2.332792e+003 1.414642e+003 2.293701e+003
         vertex 2.332792e+003 1.414642e+003 2.292701e+003
         vertex 2.332792e+003 1.432809e+003 2.293701e+003
      endloop
   endfacet
   facet normal 1.000000e+000 4.042391e-017 8.326673e-017
      outer loop
         vertex 2.332792e+003 1.432809e+003 2.293701e+003
         vertex 2.332792e+003 1.414642e+003 2.292701e+003
         vertex 2.332792e+003 1.432809e+003 2.292701e+003
      endloop
   endfacet
   facet normal -8.326673e-017 1.463195e-014 1.000000e+000
      outer loop
         vertex 9.367922e+002 1.414642e+003 2.293701e+003
         vertex 2.332792e+003 1.414642e+003 2.293701e+003
         vertex 9.367922e+002 1.432809e+003 2.293701e+003
      endloop
   endfacet
   facet normal -8.326673e-017 1.463195e-014 1.000000e+000
      outer loop
         vertex 9.367922e+002 1.432809e+003 2.293701e+003
         vertex 2.332792e+003 1.414642e+003 2.293701e+003
         vertex 2.332792e+003 1.432809e+003 2.293701e+003
      endloop
   endfacet
   facet normal 8.326673e-017 -1.463195e-014 -1.000000e+000
      outer loop
         vertex 2.332792e+003 1.432809e+003 2.292701e+003
         vertex 2.332792e+003 1.414642e+003 2.292701e+003
         vertex 9.367922e+002 1.432809e+003 2.292701e+003
      endloop
   endfacet
   facet normal 8.326673e-017 -1.463195e-014 -1.000000e+000
      outer loop
         vertex 9.367922e+002 1.432809e+003 2.292701e+003
         vertex 2.332792e+003 1.414642e+003 2.292701e+003
         vertex 9.367922e+002 1.414642e+003 2.292701e+003
      endloop
   endfacet
   facet normal 4.042391e-017 -1.000000e+000 1.400745e-014
      outer loop
         vertex 2.332792e+003 1.414642e+003 2.293701e+003
         vertex 9.367922e+002 1.414642e+003 2.293701e+003
         vertex 2.332792e+003 1.414642e+003 2.292701e+003
      endloop
   endfacet
   facet normal 4.042391e-017 -1.000000e+000 1.400745e-014
      outer loop
         vertex 2.332792e+003 1.414642e+003 2.292701e+003
         vertex 9.367922e+002 1.414642e+003 2.293701e+003
         vertex 9.367922e+002 1.414642e+003 2.292701e+003
      endloop
   endfacet
endsolid