solid 09.025.00.00.000 - 09.025.00.03.000-1 09.025.00.03.001-1 09.025.00.03.0AD-3
   facet normal 7.249843e-016 -1.000000e+000 3.093630e-016
      outer loop
         vertex 9.077922e+002 9.744174e+002 1.812390e+003
         vertex 9.077922e+002 9.744174e+002 1.762390e+003
         vertex 9.197922e+002 9.744174e+002 1.812390e+003
      endloop
   endfacet
   facet normal 7.249843e-016 -1.000000e+000 3.093630e-016
      outer loop
         vertex 9.197922e+002 9.744174e+002 1.812390e+003
         vertex 9.077922e+002 9.744174e+002 1.762390e+003
         vertex 9.197922e+002 9.744174e+002 1.762390e+003
      endloop
   endfacet
   facet normal 7.534588e-015 2.662394e-016 1.000000e+000
      outer loop
         vertex 9.197922e+002 9.844173e+002 1.822390e+003
         vertex 9.197922e+002 1.034417e+003 1.822390e+003
         vertex 9.077922e+002 9.844173e+002 1.822390e+003
      endloop
   endfacet
   facet normal 7.534588e-015 2.662394e-016 1.000000e+000
      outer loop
         vertex 9.077922e+002 9.844173e+002 1.822390e+003
         vertex 9.197922e+002 1.034417e+003 1.822390e+003
         vertex 9.077922e+002 1.034417e+003 1.822390e+003
      endloop
   endfacet
   facet normal -7.249843e-016 1.000000e+000 -3.093630e-016
      outer loop
         vertex 9.077922e+002 1.034417e+003 1.797390e+003
         vertex 9.077922e+002 1.034417e+003 1.822390e+003
         vertex 9.197922e+002 1.034417e+003 1.797390e+003
      endloop
   endfacet
   facet normal -7.249843e-016 1.000000e+000 -3.093630e-016
      outer loop
         vertex 9.197922e+002 1.034417e+003 1.797390e+003
         vertex 9.077922e+002 1.034417e+003 1.822390e+003
         vertex 9.197922e+002 1.034417e+003 1.822390e+003
      endloop
   endfacet
   facet normal -7.534588e-015 -3.818877e-016 -1.000000e+000
      outer loop
         vertex 9.197922e+002 9.994173e+002 1.762390e+003
         vertex 9.197922e+002 9.744174e+002 1.762390e+003
         vertex 9.077922e+002 9.994173e+002 1.762390e+003
      endloop
   endfacet
   facet normal -7.534588e-015 -3.818877e-016 -1.000000e+000
      outer loop
         vertex 9.077922e+002 9.994173e+002 1.762390e+003
         vertex 9.197922e+002 9.744174e+002 1.762390e+003
         vertex 9.077922e+002 9.744174e+002 1.762390e+003
      endloop
   endfacet
   facet normal -1.000000e+000 -6.417176e-016 7.537762e-015
      outer loop
         vertex 9.077922e+002 9.942212e+002 1.800390e+003
         vertex 9.077922e+002 9.937792e+002 1.799442e+003
         vertex 9.077922e+002 9.744174e+002 1.812390e+003
      endloop
   endfacet
   facet normal -1.000000e+000 -6.417176e-016 7.537762e-015
      outer loop
         vertex 9.077922e+002 9.744174e+002 1.812390e+003
         vertex 9.077922e+002 9.937792e+002 1.799442e+003
         vertex 9.077922e+002 9.935085e+002 1.798432e+003
      endloop
   endfacet
   facet normal -1.000000e+000 -6.417176e-016 7.537762e-015
      outer loop
         vertex 9.077922e+002 9.937792e+002 1.795338e+003
         vertex 9.077922e+002 9.744174e+002 1.762390e+003
         vertex 9.077922e+002 9.935085e+002 1.796348e+003
      endloop
   endfacet
   facet normal -1.000000e+000 -6.417176e-016 7.537762e-015
      outer loop
         vertex 9.077922e+002 9.935085e+002 1.796348e+003
         vertex 9.077922e+002 9.744174e+002 1.762390e+003
         vertex 9.077922e+002 9.744174e+002 1.812390e+003
      endloop
   endfacet
   facet normal -1.000000e+000 -6.417176e-016 7.537762e-015
      outer loop
         vertex 9.077922e+002 9.935085e+002 1.796348e+003
         vertex 9.077922e+002 9.744174e+002 1.812390e+003
         vertex 9.077922e+002 9.934173e+002 1.797390e+003
      endloop
   endfacet
   facet normal -1.000000e+000 -6.417176e-016 7.537762e-015
      outer loop
         vertex 9.077922e+002 9.934173e+002 1.797390e+003
         vertex 9.077922e+002 9.744174e+002 1.812390e+003
         vertex 9.077922e+002 9.935085e+002 1.798432e+003
      endloop
   endfacet
   facet normal -1.000000e+000 -6.417176e-016 7.537762e-015
      outer loop
         vertex 9.077922e+002 9.937792e+002 1.795338e+003
         vertex 9.077922e+002 9.942212e+002 1.794390e+003
         vertex 9.077922e+002 9.744174e+002 1.762390e+003
      endloop
   endfacet
   facet normal -1.000000e+000 -6.417176e-016 7.537762e-015
      outer loop
         vertex 9.077922e+002 9.744174e+002 1.762390e+003
         vertex 9.077922e+002 9.942212e+002 1.794390e+003
         vertex 9.077922e+002 9.948210e+002 1.793533e+003
      endloop
   endfacet
   facet normal -1.000000e+000 -6.417176e-016 7.537762e-015
      outer loop
         vertex 9.077922e+002 9.744174e+002 1.762390e+003
         vertex 9.077922e+002 9.948210e+002 1.793533e+003
         vertex 9.077922e+002 9.955606e+002 1.792794e+003
      endloop
   endfacet
   facet normal -1.000000e+000 -6.417176e-016 7.537762e-015
      outer loop
         vertex 9.077922e+002 1.004614e+003 1.794390e+003
         vertex 9.077922e+002 1.005056e+003 1.795338e+003
         vertex 9.077922e+002 1.034417e+003 1.797390e+003
      endloop
   endfacet
   facet normal -1.000000e+000 -6.417176e-016 7.537762e-015
      outer loop
         vertex 9.077922e+002 1.034417e+003 1.797390e+003
         vertex 9.077922e+002 1.005056e+003 1.795338e+003
         vertex 9.077922e+002 1.005326e+003 1.796348e+003
      endloop
   endfacet
   facet normal -1.000000e+000 -6.417176e-016 7.537762e-015
      outer loop
         vertex 9.077922e+002 9.994173e+002 1.803390e+003
         vertex 9.077922e+002 9.983754e+002 1.803299e+003
         vertex 9.077922e+002 9.844173e+002 1.822390e+003
      endloop
   endfacet
   facet normal -1.000000e+000 -6.417176e-016 7.537762e-015
      outer loop
         vertex 9.077922e+002 9.844173e+002 1.822390e+003
         vertex 9.077922e+002 9.983754e+002 1.803299e+003
         vertex 9.077922e+002 9.973652e+002 1.803028e+003
      endloop
   endfacet
   facet normal -1.000000e+000 -6.417176e-016 7.537762e-015
      outer loop
         vertex 9.077922e+002 9.983754e+002 1.791481e+003
         vertex 9.077922e+002 9.994173e+002 1.762390e+003
         vertex 9.077922e+002 9.973652e+002 1.791752e+003
      endloop
   endfacet
   facet normal -1.000000e+000 -6.417176e-016 7.537762e-015
      outer loop
         vertex 9.077922e+002 9.973652e+002 1.791752e+003
         vertex 9.077922e+002 9.994173e+002 1.762390e+003
         vertex 9.077922e+002 9.744174e+002 1.762390e+003
      endloop
   endfacet
   facet normal -1.000000e+000 -6.417176e-016 7.537762e-015
      outer loop
         vertex 9.077922e+002 9.973652e+002 1.791752e+003
         vertex 9.077922e+002 9.744174e+002 1.762390e+003
         vertex 9.077922e+002 9.964174e+002 1.792194e+003
      endloop
   endfacet
   facet normal -1.000000e+000 -6.417176e-016 7.537762e-015
      outer loop
         vertex 9.077922e+002 9.964174e+002 1.792194e+003
         vertex 9.077922e+002 9.744174e+002 1.762390e+003
         vertex 9.077922e+002 9.955606e+002 1.792794e+003
      endloop
   endfacet
   facet normal -1.000000e+000 -6.417176e-016 7.537762e-015
      outer loop
         vertex 9.077922e+002 9.983754e+002 1.791481e+003
         vertex 9.077922e+002 9.994173e+002 1.791390e+003
         vertex 9.077922e+002 9.994173e+002 1.762390e+003
      endloop
   endfacet
   facet normal -1.000000e+000 -6.417176e-016 7.537762e-015
      outer loop
         vertex 9.077922e+002 9.994173e+002 1.762390e+003
         vertex 9.077922e+002 9.994173e+002 1.791390e+003
         vertex 9.077922e+002 1.000459e+003 1.791481e+003
      endloop
   endfacet
   facet normal -1.000000e+000 -6.417176e-016 7.537762e-015
      outer loop
         vertex 9.077922e+002 9.994173e+002 1.762390e+003
         vertex 9.077922e+002 1.000459e+003 1.791481e+003
         vertex 9.077922e+002 1.001469e+003 1.791752e+003
      endloop
   endfacet
   facet normal -1.000000e+000 -6.417176e-016 7.537762e-015
      outer loop
         vertex 9.077922e+002 1.005326e+003 1.796348e+003
         vertex 9.077922e+002 1.005417e+003 1.797390e+003
         vertex 9.077922e+002 1.034417e+003 1.797390e+003
      endloop
   endfacet
   facet normal -1.000000e+000 -6.417176e-016 7.537762e-015
      outer loop
         vertex 9.077922e+002 1.034417e+003 1.797390e+003
         vertex 9.077922e+002 1.005417e+003 1.797390e+003
         vertex 9.077922e+002 1.005326e+003 1.798432e+003
      endloop
   endfacet
   facet normal -1.000000e+000 -6.417176e-016 7.537762e-015
      outer loop
         vertex 9.077922e+002 1.034417e+003 1.797390e+003
         vertex 9.077922e+002 1.005326e+003 1.798432e+003
         vertex 9.077922e+002 1.034417e+003 1.822390e+003
      endloop
   endfacet
   facet normal -1.000000e+000 -6.417176e-016 7.537762e-015
      outer loop
         vertex 9.077922e+002 1.034417e+003 1.822390e+003
         vertex 9.077922e+002 1.005326e+003 1.798432e+003
         vertex 9.077922e+002 1.005056e+003 1.799442e+003
      endloop
   endfacet
   facet normal -1.000000e+000 -6.417176e-016 7.537762e-015
      outer loop
         vertex 9.077922e+002 1.001469e+003 1.791752e+003
         vertex 9.077922e+002 1.002417e+003 1.792194e+003
         vertex 9.077922e+002 9.994173e+002 1.762390e+003
      endloop
   endfacet
   facet normal -1.000000e+000 -6.417176e-016 7.537762e-015
      outer loop
         vertex 9.077922e+002 9.994173e+002 1.762390e+003
         vertex 9.077922e+002 1.002417e+003 1.792194e+003
         vertex 9.077922e+002 1.003274e+003 1.792794e+003
      endloop
   endfacet
   facet normal -1.000000e+000 -6.417176e-016 7.537762e-015
      outer loop
         vertex 9.077922e+002 9.994173e+002 1.762390e+003
         vertex 9.077922e+002 1.003274e+003 1.792794e+003
         vertex 9.077922e+002 1.034417e+003 1.797390e+003
      endloop
   endfacet
   facet normal -1.000000e+000 -6.417176e-016 7.537762e-015
      outer loop
         vertex 9.077922e+002 1.034417e+003 1.797390e+003
         vertex 9.077922e+002 1.003274e+003 1.792794e+003
         vertex 9.077922e+002 1.004014e+003 1.793533e+003
      endloop
   endfacet
   facet normal -1.000000e+000 -6.417176e-016 7.537762e-015
      outer loop
         vertex 9.077922e+002 1.034417e+003 1.797390e+003
         vertex 9.077922e+002 1.004014e+003 1.793533e+003
         vertex 9.077922e+002 1.004614e+003 1.794390e+003
      endloop
   endfacet
   facet normal -1.000000e+000 -6.417176e-016 7.537762e-015
      outer loop
         vertex 9.077922e+002 1.005056e+003 1.799442e+003
         vertex 9.077922e+002 1.004614e+003 1.800390e+003
         vertex 9.077922e+002 1.034417e+003 1.822390e+003
      endloop
   endfacet
   facet normal -1.000000e+000 -6.417176e-016 7.537762e-015
      outer loop
         vertex 9.077922e+002 1.034417e+003 1.822390e+003
         vertex 9.077922e+002 1.004614e+003 1.800390e+003
         vertex 9.077922e+002 1.004014e+003 1.801247e+003
      endloop
   endfacet
   facet normal -1.000000e+000 -6.417176e-016 7.537762e-015
      outer loop
         vertex 9.077922e+002 1.034417e+003 1.822390e+003
         vertex 9.077922e+002 1.004014e+003 1.801247e+003
         vertex 9.077922e+002 1.003274e+003 1.801986e+003
      endloop
   endfacet
   facet normal -1.000000e+000 -6.417176e-016 7.537762e-015
      outer loop
         vertex 9.077922e+002 1.003274e+003 1.801986e+003
         vertex 9.077922e+002 1.002417e+003 1.802586e+003
         vertex 9.077922e+002 1.034417e+003 1.822390e+003
      endloop
   endfacet
   facet normal -1.000000e+000 -6.417176e-016 7.537762e-015
      outer loop
         vertex 9.077922e+002 1.034417e+003 1.822390e+003
         vertex 9.077922e+002 1.002417e+003 1.802586e+003
         vertex 9.077922e+002 1.001469e+003 1.803028e+003
      endloop
   endfacet
   facet normal -1.000000e+000 -6.417176e-016 7.537762e-015
      outer loop
         vertex 9.077922e+002 1.034417e+003 1.822390e+003
         vertex 9.077922e+002 1.001469e+003 1.803028e+003
         vertex 9.077922e+002 9.844173e+002 1.822390e+003
      endloop
   endfacet
   facet normal -1.000000e+000 -6.417176e-016 7.537762e-015
      outer loop
         vertex 9.077922e+002 9.844173e+002 1.822390e+003
         vertex 9.077922e+002 1.001469e+003 1.803028e+003
         vertex 9.077922e+002 1.000459e+003 1.803299e+003
      endloop
   endfacet
   facet normal -1.000000e+000 -6.417176e-016 7.537762e-015
      outer loop
         vertex 9.077922e+002 9.844173e+002 1.822390e+003
         vertex 9.077922e+002 1.000459e+003 1.803299e+003
         vertex 9.077922e+002 9.994173e+002 1.803390e+003
      endloop
   endfacet
   facet normal -1.000000e+000 -6.417176e-016 7.537762e-015
      outer loop
         vertex 9.077922e+002 9.973652e+002 1.803028e+003
         vertex 9.077922e+002 9.964174e+002 1.802586e+003
         vertex 9.077922e+002 9.844173e+002 1.822390e+003
      endloop
   endfacet
   facet normal -1.000000e+000 -6.417176e-016 7.537762e-015
      outer loop
         vertex 9.077922e+002 9.844173e+002 1.822390e+003
         vertex 9.077922e+002 9.964174e+002 1.802586e+003
         vertex 9.077922e+002 9.955606e+002 1.801986e+003
      endloop
   endfacet
   facet normal -1.000000e+000 -6.417176e-016 7.537762e-015
      outer loop
         vertex 9.077922e+002 9.844173e+002 1.822390e+003
         vertex 9.077922e+002 9.955606e+002 1.801986e+003
         vertex 9.077922e+002 9.744174e+002 1.812390e+003
      endloop
   endfacet
   facet normal -1.000000e+000 -6.417176e-016 7.537762e-015
      outer loop
         vertex 9.077922e+002 9.744174e+002 1.812390e+003
         vertex 9.077922e+002 9.955606e+002 1.801986e+003
         vertex 9.077922e+002 9.948210e+002 1.801247e+003
      endloop
   endfacet
   facet normal -1.000000e+000 -6.417176e-016 7.537762e-015
      outer loop
         vertex 9.077922e+002 9.744174e+002 1.812390e+003
         vertex 9.077922e+002 9.948210e+002 1.801247e+003
         vertex 9.077922e+002 9.942212e+002 1.800390e+003
      endloop
   endfacet
   facet normal 1.000000e+000 6.417176e-016 -7.537762e-015
      outer loop
         vertex 9.197922e+002 9.934173e+002 1.797390e+003
         vertex 9.197922e+002 9.935085e+002 1.798432e+003
         vertex 9.197922e+002 9.744174e+002 1.812390e+003
      endloop
   endfacet
   facet normal 1.000000e+000 6.417176e-016 -7.537762e-015
      outer loop
         vertex 9.197922e+002 9.744174e+002 1.812390e+003
         vertex 9.197922e+002 9.935085e+002 1.798432e+003
         vertex 9.197922e+002 9.937792e+002 1.799442e+003
      endloop
   endfacet
   facet normal 1.000000e+000 6.417176e-016 -7.537762e-015
      outer loop
         vertex 9.197922e+002 9.973652e+002 1.803028e+003
         vertex 9.197922e+002 9.983754e+002 1.803299e+003
         vertex 9.197922e+002 9.844173e+002 1.822390e+003
      endloop
   endfacet
   facet normal 1.000000e+000 6.417176e-016 -7.537762e-015
      outer loop
         vertex 9.197922e+002 9.973652e+002 1.803028e+003
         vertex 9.197922e+002 9.844173e+002 1.822390e+003
         vertex 9.197922e+002 9.964174e+002 1.802586e+003
      endloop
   endfacet
   facet normal 1.000000e+000 6.417176e-016 -7.537762e-015
      outer loop
         vertex 9.197922e+002 1.002417e+003 1.792194e+003
         vertex 9.197922e+002 1.001469e+003 1.791752e+003
         vertex 9.197922e+002 9.994173e+002 1.762390e+003
      endloop
   endfacet
   facet normal 1.000000e+000 6.417176e-016 -7.537762e-015
      outer loop
         vertex 9.197922e+002 9.994173e+002 1.762390e+003
         vertex 9.197922e+002 1.001469e+003 1.791752e+003
         vertex 9.197922e+002 1.000459e+003 1.791481e+003
      endloop
   endfacet
   facet normal 1.000000e+000 6.417176e-016 -7.537762e-015
      outer loop
         vertex 9.197922e+002 9.964174e+002 1.792194e+003
         vertex 9.197922e+002 9.955606e+002 1.792794e+003
         vertex 9.197922e+002 9.744174e+002 1.762390e+003
      endloop
   endfacet
   facet normal 1.000000e+000 6.417176e-016 -7.537762e-015
      outer loop
         vertex 9.197922e+002 9.744174e+002 1.762390e+003
         vertex 9.197922e+002 9.955606e+002 1.792794e+003
         vertex 9.197922e+002 9.948210e+002 1.793533e+003
      endloop
   endfacet
   facet normal 1.000000e+000 6.417176e-016 -7.537762e-015
      outer loop
         vertex 9.197922e+002 1.000459e+003 1.791481e+003
         vertex 9.197922e+002 9.994173e+002 1.791390e+003
         vertex 9.197922e+002 9.994173e+002 1.762390e+003
      endloop
   endfacet
   facet normal 1.000000e+000 6.417176e-016 -7.537762e-015
      outer loop
         vertex 9.197922e+002 9.994173e+002 1.762390e+003
         vertex 9.197922e+002 9.994173e+002 1.791390e+003
         vertex 9.197922e+002 9.983754e+002 1.791481e+003
      endloop
   endfacet
   facet normal 1.000000e+000 6.417176e-016 -7.537762e-015
      outer loop
         vertex 9.197922e+002 9.994173e+002 1.762390e+003
         vertex 9.197922e+002 9.983754e+002 1.791481e+003
         vertex 9.197922e+002 9.744174e+002 1.762390e+003
      endloop
   endfacet
   facet normal 1.000000e+000 6.417176e-016 -7.537762e-015
      outer loop
         vertex 9.197922e+002 9.744174e+002 1.762390e+003
         vertex 9.197922e+002 9.983754e+002 1.791481e+003
         vertex 9.197922e+002 9.973652e+002 1.791752e+003
      endloop
   endfacet
   facet normal 1.000000e+000 6.417176e-016 -7.537762e-015
      outer loop
         vertex 9.197922e+002 9.744174e+002 1.762390e+003
         vertex 9.197922e+002 9.973652e+002 1.791752e+003
         vertex 9.197922e+002 9.964174e+002 1.792194e+003
      endloop
   endfacet
   facet normal 1.000000e+000 6.417176e-016 -7.537762e-015
      outer loop
         vertex 9.197922e+002 9.948210e+002 1.793533e+003
         vertex 9.197922e+002 9.942212e+002 1.794390e+003
         vertex 9.197922e+002 9.744174e+002 1.762390e+003
      endloop
   endfacet
   facet normal 1.000000e+000 6.417176e-016 -7.537762e-015
      outer loop
         vertex 9.197922e+002 9.744174e+002 1.762390e+003
         vertex 9.197922e+002 9.942212e+002 1.794390e+003
         vertex 9.197922e+002 9.937792e+002 1.795338e+003
      endloop
   endfacet
   facet normal 1.000000e+000 6.417176e-016 -7.537762e-015
      outer loop
         vertex 9.197922e+002 9.744174e+002 1.762390e+003
         vertex 9.197922e+002 9.937792e+002 1.795338e+003
         vertex 9.197922e+002 9.744174e+002 1.812390e+003
      endloop
   endfacet
   facet normal 1.000000e+000 6.417176e-016 -7.537762e-015
      outer loop
         vertex 9.197922e+002 9.744174e+002 1.812390e+003
         vertex 9.197922e+002 9.937792e+002 1.795338e+003
         vertex 9.197922e+002 9.935085e+002 1.796348e+003
      endloop
   endfacet
   facet normal 1.000000e+000 6.417176e-016 -7.537762e-015
      outer loop
         vertex 9.197922e+002 9.744174e+002 1.812390e+003
         vertex 9.197922e+002 9.935085e+002 1.796348e+003
         vertex 9.197922e+002 9.934173e+002 1.797390e+003
      endloop
   endfacet
   facet normal 1.000000e+000 6.417176e-016 -7.537762e-015
      outer loop
         vertex 9.197922e+002 9.937792e+002 1.799442e+003
         vertex 9.197922e+002 9.942212e+002 1.800390e+003
         vertex 9.197922e+002 9.744174e+002 1.812390e+003
      endloop
   endfacet
   facet normal 1.000000e+000 6.417176e-016 -7.537762e-015
      outer loop
         vertex 9.197922e+002 9.744174e+002 1.812390e+003
         vertex 9.197922e+002 9.942212e+002 1.800390e+003
         vertex 9.197922e+002 9.948210e+002 1.801247e+003
      endloop
   endfacet
   facet normal 1.000000e+000 6.417176e-016 -7.537762e-015
      outer loop
         vertex 9.197922e+002 9.744174e+002 1.812390e+003
         vertex 9.197922e+002 9.948210e+002 1.801247e+003
         vertex 9.197922e+002 9.844173e+002 1.822390e+003
      endloop
   endfacet
   facet normal 1.000000e+000 6.417176e-016 -7.537762e-015
      outer loop
         vertex 9.197922e+002 9.844173e+002 1.822390e+003
         vertex 9.197922e+002 9.948210e+002 1.801247e+003
         vertex 9.197922e+002 9.955606e+002 1.801986e+003
      endloop
   endfacet
   facet normal 1.000000e+000 6.417176e-016 -7.537762e-015
      outer loop
         vertex 9.197922e+002 9.844173e+002 1.822390e+003
         vertex 9.197922e+002 9.955606e+002 1.801986e+003
         vertex 9.197922e+002 9.964174e+002 1.802586e+003
      endloop
   endfacet
   facet normal 1.000000e+000 6.417176e-016 -7.537762e-015
      outer loop
         vertex 9.197922e+002 1.001469e+003 1.803028e+003
         vertex 9.197922e+002 1.034417e+003 1.822390e+003
         vertex 9.197922e+002 1.000459e+003 1.803299e+003
      endloop
   endfacet
   facet normal 1.000000e+000 6.417176e-016 -7.537762e-015
      outer loop
         vertex 9.197922e+002 1.000459e+003 1.803299e+003
         vertex 9.197922e+002 1.034417e+003 1.822390e+003
         vertex 9.197922e+002 9.844173e+002 1.822390e+003
      endloop
   endfacet
   facet normal 1.000000e+000 6.417176e-016 -7.537762e-015
      outer loop
         vertex 9.197922e+002 1.000459e+003 1.803299e+003
         vertex 9.197922e+002 9.844173e+002 1.822390e+003
         vertex 9.197922e+002 9.994173e+002 1.803390e+003
      endloop
   endfacet
   facet normal 1.000000e+000 6.417176e-016 -7.537762e-015
      outer loop
         vertex 9.197922e+002 9.994173e+002 1.803390e+003
         vertex 9.197922e+002 9.844173e+002 1.822390e+003
         vertex 9.197922e+002 9.983754e+002 1.803299e+003
      endloop
   endfacet
   facet normal 1.000000e+000 6.417176e-016 -7.537762e-015
      outer loop
         vertex 9.197922e+002 1.001469e+003 1.803028e+003
         vertex 9.197922e+002 1.002417e+003 1.802586e+003
         vertex 9.197922e+002 1.034417e+003 1.822390e+003
      endloop
   endfacet
   facet normal 1.000000e+000 6.417176e-016 -7.537762e-015
      outer loop
         vertex 9.197922e+002 1.034417e+003 1.822390e+003
         vertex 9.197922e+002 1.002417e+003 1.802586e+003
         vertex 9.197922e+002 1.003274e+003 1.801986e+003
      endloop
   endfacet
   facet normal 1.000000e+000 6.417176e-016 -7.537762e-015
      outer loop
         vertex 9.197922e+002 1.034417e+003 1.822390e+003
         vertex 9.197922e+002 1.003274e+003 1.801986e+003
         vertex 9.197922e+002 1.004014e+003 1.801247e+003
      endloop
   endfacet
   facet normal 1.000000e+000 6.417176e-016 -7.537762e-015
      outer loop
         vertex 9.197922e+002 1.005056e+003 1.795338e+003
         vertex 9.197922e+002 1.034417e+003 1.797390e+003
         vertex 9.197922e+002 1.005326e+003 1.796348e+003
      endloop
   endfacet
   facet normal 1.000000e+000 6.417176e-016 -7.537762e-015
      outer loop
         vertex 9.197922e+002 1.005326e+003 1.796348e+003
         vertex 9.197922e+002 1.034417e+003 1.797390e+003
         vertex 9.197922e+002 1.005417e+003 1.797390e+003
      endloop
   endfacet
   facet normal 1.000000e+000 6.417176e-016 -7.537762e-015
      outer loop
         vertex 9.197922e+002 1.005056e+003 1.795338e+003
         vertex 9.197922e+002 1.004614e+003 1.794390e+003
         vertex 9.197922e+002 1.034417e+003 1.797390e+003
      endloop
   endfacet
   facet normal 1.000000e+000 6.417176e-016 -7.537762e-015
      outer loop
         vertex 9.197922e+002 1.034417e+003 1.797390e+003
         vertex 9.197922e+002 1.004614e+003 1.794390e+003
         vertex 9.197922e+002 1.004014e+003 1.793533e+003
      endloop
   endfacet
   facet normal 1.000000e+000 6.417176e-016 -7.537762e-015
      outer loop
         vertex 9.197922e+002 1.034417e+003 1.797390e+003
         vertex 9.197922e+002 1.004014e+003 1.793533e+003
         vertex 9.197922e+002 9.994173e+002 1.762390e+003
      endloop
   endfacet
   facet normal 1.000000e+000 6.417176e-016 -7.537762e-015
      outer loop
         vertex 9.197922e+002 9.994173e+002 1.762390e+003
         vertex 9.197922e+002 1.004014e+003 1.793533e+003
         vertex 9.197922e+002 1.003274e+003 1.792794e+003
      endloop
   endfacet
   facet normal 1.000000e+000 6.417176e-016 -7.537762e-015
      outer loop
         vertex 9.197922e+002 9.994173e+002 1.762390e+003
         vertex 9.197922e+002 1.003274e+003 1.792794e+003
         vertex 9.197922e+002 1.002417e+003 1.792194e+003
      endloop
   endfacet
   facet normal 1.000000e+000 6.417176e-016 -7.537762e-015
      outer loop
         vertex 9.197922e+002 1.004014e+003 1.801247e+003
         vertex 9.197922e+002 1.004614e+003 1.800390e+003
         vertex 9.197922e+002 1.034417e+003 1.822390e+003
      endloop
   endfacet
   facet normal 1.000000e+000 6.417176e-016 -7.537762e-015
      outer loop
         vertex 9.197922e+002 1.034417e+003 1.822390e+003
         vertex 9.197922e+002 1.004614e+003 1.800390e+003
         vertex 9.197922e+002 1.005056e+003 1.799442e+003
      endloop
   endfacet
   facet normal 1.000000e+000 6.417176e-016 -7.537762e-015
      outer loop
         vertex 9.197922e+002 1.034417e+003 1.822390e+003
         vertex 9.197922e+002 1.005056e+003 1.799442e+003
         vertex 9.197922e+002 1.034417e+003 1.797390e+003
      endloop
   endfacet
   facet normal 1.000000e+000 6.417176e-016 -7.537762e-015
      outer loop
         vertex 9.197922e+002 1.034417e+003 1.797390e+003
         vertex 9.197922e+002 1.005056e+003 1.799442e+003
         vertex 9.197922e+002 1.005326e+003 1.798432e+003
      endloop
   endfacet
   facet normal 1.000000e+000 6.417176e-016 -7.537762e-015
      outer loop
         vertex 9.197922e+002 1.034417e+003 1.797390e+003
         vertex 9.197922e+002 1.005326e+003 1.798432e+003
         vertex 9.197922e+002 1.005417e+003 1.797390e+003
      endloop
   endfacet
   facet normal -5.840400e-015 7.071068e-001 -7.071068e-001
      outer loop
         vertex 9.197922e+002 1.034417e+003 1.797390e+003
         vertex 9.197922e+002 9.994173e+002 1.762390e+003
         vertex 9.077922e+002 1.034417e+003 1.797390e+003
      endloop
   endfacet
   facet normal -5.840400e-015 7.071068e-001 -7.071068e-001
      outer loop
         vertex 9.077922e+002 1.034417e+003 1.797390e+003
         vertex 9.197922e+002 9.994173e+002 1.762390e+003
         vertex 9.077922e+002 9.994173e+002 1.762390e+003
      endloop
   endfacet
   facet normal 5.840400e-015 -7.071068e-001 7.071068e-001
      outer loop
         vertex 9.197922e+002 9.744174e+002 1.812390e+003
         vertex 9.197922e+002 9.844173e+002 1.822390e+003
         vertex 9.077922e+002 9.744174e+002 1.812390e+003
      endloop
   endfacet
   facet normal 5.840400e-015 -7.071068e-001 7.071068e-001
      outer loop
         vertex 9.077922e+002 9.744174e+002 1.812390e+003
         vertex 9.197922e+002 9.844173e+002 1.822390e+003
         vertex 9.077922e+002 9.844173e+002 1.822390e+003
      endloop
   endfacet
   facet normal -1.161363e-015 9.983120e-001 -5.807914e-002
      outer loop
         vertex 9.077922e+002 9.935085e+002 1.798432e+003
         vertex 9.197922e+002 9.934173e+002 1.797390e+003
         vertex 9.077922e+002 9.934173e+002 1.797390e+003
      endloop
   endfacet
   facet normal -2.861582e-016 9.983120e-001 5.807914e-002
      outer loop
         vertex 9.077922e+002 9.934173e+002 1.797390e+003
         vertex 9.197922e+002 9.934173e+002 1.797390e+003
         vertex 9.197922e+002 9.935085e+002 1.796348e+003
      endloop
   endfacet
   facet normal 1.551281e-016 9.932307e-001 1.161583e-001
      outer loop
         vertex 9.077922e+002 9.934173e+002 1.797390e+003
         vertex 9.197922e+002 9.935085e+002 1.796348e+003
         vertex 9.077922e+002 9.935085e+002 1.796348e+003
      endloop
   endfacet
   facet normal 1.031660e-015 9.730601e-001 2.305518e-001
      outer loop
         vertex 9.077922e+002 9.935085e+002 1.796348e+003
         vertex 9.197922e+002 9.935085e+002 1.796348e+003
         vertex 9.197922e+002 9.937792e+002 1.795338e+003
      endloop
   endfacet
   facet normal 1.466906e-015 9.579706e-001 2.868663e-001
      outer loop
         vertex 9.077922e+002 9.935085e+002 1.796348e+003
         vertex 9.197922e+002 9.937792e+002 1.795338e+003
         vertex 9.077922e+002 9.937792e+002 1.795338e+003
      endloop
   endfacet
   facet normal 2.318132e-015 9.182422e-001 3.960194e-001
      outer loop
         vertex 9.077922e+002 9.937792e+002 1.795338e+003
         vertex 9.197922e+002 9.937792e+002 1.795338e+003
         vertex 9.197922e+002 9.942212e+002 1.794390e+003
      endloop
   endfacet
   facet normal 2.734112e-015 8.936031e-001 4.488580e-001
      outer loop
         vertex 9.077922e+002 9.937792e+002 1.795338e+003
         vertex 9.197922e+002 9.942212e+002 1.794390e+003
         vertex 9.077922e+002 9.942212e+002 1.794390e+003
      endloop
   endfacet
   facet normal 3.534168e-015 8.355240e-001 5.494540e-001
      outer loop
         vertex 9.077922e+002 9.942212e+002 1.794390e+003
         vertex 9.197922e+002 9.942212e+002 1.794390e+003
         vertex 9.197922e+002 9.948210e+002 1.793533e+003
      endloop
   endfacet
   facet normal 3.918244e-015 8.020839e-001 5.972114e-001
      outer loop
         vertex 9.077922e+002 9.942212e+002 1.794390e+003
         vertex 9.197922e+002 9.948210e+002 1.793533e+003
         vertex 9.077922e+002 9.948210e+002 1.793533e+003
      endloop
   endfacet
   facet normal 4.642820e-015 7.274188e-001 6.861938e-001
      outer loop
         vertex 9.077922e+002 9.948210e+002 1.793533e+003
         vertex 9.197922e+002 9.948210e+002 1.793533e+003
         vertex 9.197922e+002 9.955606e+002 1.792794e+003
      endloop
   endfacet
   facet normal 4.983321e-015 6.861938e-001 7.274188e-001
      outer loop
         vertex 9.077922e+002 9.948210e+002 1.793533e+003
         vertex 9.197922e+002 9.955606e+002 1.792794e+003
         vertex 9.077922e+002 9.955606e+002 1.792794e+003
      endloop
   endfacet
   facet normal 5.610403e-015 5.972114e-001 8.020839e-001
      outer loop
         vertex 9.077922e+002 9.955606e+002 1.792794e+003
         vertex 9.197922e+002 9.955606e+002 1.792794e+003
         vertex 9.197922e+002 9.964174e+002 1.792194e+003
      endloop
   endfacet
   facet normal 5.896984e-015 5.494540e-001 8.355240e-001
      outer loop
         vertex 9.077922e+002 9.955606e+002 1.792794e+003
         vertex 9.197922e+002 9.964174e+002 1.792194e+003
         vertex 9.077922e+002 9.964174e+002 1.792194e+003
      endloop
   endfacet
   facet normal 6.407516e-015 4.488580e-001 8.936031e-001
      outer loop
         vertex 9.077922e+002 9.964174e+002 1.792194e+003
         vertex 9.197922e+002 9.964174e+002 1.792194e+003
         vertex 9.197922e+002 9.973652e+002 1.791752e+003
      endloop
   endfacet
   facet normal 6.631469e-015 3.960194e-001 9.182422e-001
      outer loop
         vertex 9.077922e+002 9.964174e+002 1.792194e+003
         vertex 9.197922e+002 9.973652e+002 1.791752e+003
         vertex 9.077922e+002 9.973652e+002 1.791752e+003
      endloop
   endfacet
   facet normal 7.009940e-015 2.868663e-001 9.579706e-001
      outer loop
         vertex 9.077922e+002 9.973652e+002 1.791752e+003
         vertex 9.197922e+002 9.973652e+002 1.791752e+003
         vertex 9.197922e+002 9.983754e+002 1.791481e+003
      endloop
   endfacet
   facet normal 7.164460e-015 2.305518e-001 9.730601e-001
      outer loop
         vertex 9.077922e+002 9.973652e+002 1.791752e+003
         vertex 9.197922e+002 9.983754e+002 1.791481e+003
         vertex 9.077922e+002 9.983754e+002 1.791481e+003
      endloop
   endfacet
   facet normal 7.399372e-015 1.161583e-001 9.932307e-001
      outer loop
         vertex 9.077922e+002 9.983754e+002 1.791481e+003
         vertex 9.197922e+002 9.983754e+002 1.791481e+003
         vertex 9.197922e+002 9.994173e+002 1.791390e+003
      endloop
   endfacet
   facet normal 7.479763e-015 5.807914e-002 9.983120e-001
      outer loop
         vertex 9.077922e+002 9.983754e+002 1.791481e+003
         vertex 9.197922e+002 9.994173e+002 1.791390e+003
         vertex 9.077922e+002 9.994173e+002 1.791390e+003
      endloop
   endfacet
   facet normal 7.563976e-015 -5.807914e-002 9.983120e-001
      outer loop
         vertex 9.077922e+002 9.994173e+002 1.791390e+003
         vertex 9.197922e+002 9.994173e+002 1.791390e+003
         vertex 9.197922e+002 1.000459e+003 1.791481e+003
      endloop
   endfacet
   facet normal 7.567797e-015 -1.161583e-001 9.932307e-001
      outer loop
         vertex 9.077922e+002 9.994173e+002 1.791390e+003
         vertex 9.197922e+002 1.000459e+003 1.791481e+003
         vertex 9.077922e+002 1.000459e+003 1.791481e+003
      endloop
   endfacet
   facet normal 7.498753e-015 -2.305518e-001 9.730601e-001
      outer loop
         vertex 9.077922e+002 1.000459e+003 1.791481e+003
         vertex 9.197922e+002 1.000459e+003 1.791481e+003
         vertex 9.197922e+002 1.001469e+003 1.791752e+003
      endloop
   endfacet
   facet normal 7.425888e-015 -2.868663e-001 9.579706e-001
      outer loop
         vertex 9.077922e+002 1.000459e+003 1.791481e+003
         vertex 9.197922e+002 1.001469e+003 1.791752e+003
         vertex 9.077922e+002 1.001469e+003 1.791752e+003
      endloop
   endfacet
   facet normal 7.205685e-015 -3.960194e-001 9.182422e-001
      outer loop
         vertex 9.077922e+002 1.001469e+003 1.791752e+003
         vertex 9.197922e+002 1.001469e+003 1.791752e+003
         vertex 9.197922e+002 1.002417e+003 1.792194e+003
      endloop
   endfacet
   facet normal 7.058346e-015 -4.488580e-001 8.936031e-001
      outer loop
         vertex 9.077922e+002 1.001469e+003 1.791752e+003
         vertex 9.197922e+002 1.002417e+003 1.792194e+003
         vertex 9.077922e+002 1.002417e+003 1.792194e+003
      endloop
   endfacet
   facet normal 6.693674e-015 -5.494540e-001 8.355240e-001
      outer loop
         vertex 9.077922e+002 1.002417e+003 1.792194e+003
         vertex 9.197922e+002 1.002417e+003 1.792194e+003
         vertex 9.197922e+002 1.003274e+003 1.792794e+003
      endloop
   endfacet
   facet normal 6.476341e-015 -5.972114e-001 8.020839e-001
      outer loop
         vertex 9.077922e+002 1.002417e+003 1.792194e+003
         vertex 9.197922e+002 1.003274e+003 1.792794e+003
         vertex 9.077922e+002 1.003274e+003 1.792794e+003
      endloop
   endfacet
   facet normal 5.978281e-015 -6.861938e-001 7.274188e-001
      outer loop
         vertex 9.077922e+002 1.003274e+003 1.792794e+003
         vertex 9.197922e+002 1.003274e+003 1.792794e+003
         vertex 9.197922e+002 1.004014e+003 1.793533e+003
      endloop
   endfacet
   facet normal 5.697555e-015 -7.274188e-001 6.861938e-001
      outer loop
         vertex 9.077922e+002 1.003274e+003 1.792794e+003
         vertex 9.197922e+002 1.004014e+003 1.793533e+003
         vertex 9.077922e+002 1.004014e+003 1.793533e+003
      endloop
   endfacet
   facet normal 5.081240e-015 -8.020839e-001 5.972114e-001
      outer loop
         vertex 9.077922e+002 1.004014e+003 1.793533e+003
         vertex 9.197922e+002 1.004014e+003 1.793533e+003
         vertex 9.197922e+002 1.004614e+003 1.794390e+003
      endloop
   endfacet
   facet normal 4.745651e-015 -8.355240e-001 5.494540e-001
      outer loop
         vertex 9.077922e+002 1.004014e+003 1.793533e+003
         vertex 9.197922e+002 1.004614e+003 1.794390e+003
         vertex 9.077922e+002 1.004614e+003 1.794390e+003
      endloop
   endfacet
   facet normal 4.029808e-015 -8.936031e-001 4.488580e-001
      outer loop
         vertex 9.077922e+002 1.004614e+003 1.794390e+003
         vertex 9.197922e+002 1.004614e+003 1.794390e+003
         vertex 9.197922e+002 1.005056e+003 1.795338e+003
      endloop
   endfacet
   facet normal 3.649554e-015 -9.182422e-001 3.960194e-001
      outer loop
         vertex 9.077922e+002 1.004614e+003 1.794390e+003
         vertex 9.197922e+002 1.005056e+003 1.795338e+003
         vertex 9.077922e+002 1.005056e+003 1.795338e+003
      endloop
   endfacet
   facet normal 2.855933e-015 -9.579706e-001 2.868663e-001
      outer loop
         vertex 9.077922e+002 1.005056e+003 1.795338e+003
         vertex 9.197922e+002 1.005056e+003 1.795338e+003
         vertex 9.197922e+002 1.005326e+003 1.796348e+003
      endloop
   endfacet
   facet normal 2.442566e-015 -9.730601e-001 2.305518e-001
      outer loop
         vertex 9.077922e+002 1.005056e+003 1.795338e+003
         vertex 9.197922e+002 1.005326e+003 1.796348e+003
         vertex 9.077922e+002 1.005326e+003 1.796348e+003
      endloop
   endfacet
   facet normal 1.595282e-015 -9.932307e-001 1.161583e-001
      outer loop
         vertex 9.077922e+002 1.005326e+003 1.796348e+003
         vertex 9.197922e+002 1.005326e+003 1.796348e+003
         vertex 9.197922e+002 1.005417e+003 1.797390e+003
      endloop
   endfacet
   facet normal 1.161363e-015 -9.983120e-001 5.807914e-002
      outer loop
         vertex 9.077922e+002 1.005326e+003 1.796348e+003
         vertex 9.197922e+002 1.005417e+003 1.797390e+003
         vertex 9.077922e+002 1.005417e+003 1.797390e+003
      endloop
   endfacet
   facet normal 2.861582e-016 -9.983120e-001 -5.807914e-002
      outer loop
         vertex 9.077922e+002 1.005417e+003 1.797390e+003
         vertex 9.197922e+002 1.005417e+003 1.797390e+003
         vertex 9.197922e+002 1.005326e+003 1.798432e+003
      endloop
   endfacet
   facet normal -1.551281e-016 -9.932307e-001 -1.161583e-001
      outer loop
         vertex 9.077922e+002 1.005417e+003 1.797390e+003
         vertex 9.197922e+002 1.005326e+003 1.798432e+003
         vertex 9.077922e+002 1.005326e+003 1.798432e+003
      endloop
   endfacet
   facet normal -1.031660e-015 -9.730601e-001 -2.305518e-001
      outer loop
         vertex 9.077922e+002 1.005326e+003 1.798432e+003
         vertex 9.197922e+002 1.005326e+003 1.798432e+003
         vertex 9.197922e+002 1.005056e+003 1.799442e+003
      endloop
   endfacet
   facet normal -1.466906e-015 -9.579706e-001 -2.868663e-001
      outer loop
         vertex 9.077922e+002 1.005326e+003 1.798432e+003
         vertex 9.197922e+002 1.005056e+003 1.799442e+003
         vertex 9.077922e+002 1.005056e+003 1.799442e+003
      endloop
   endfacet
   facet normal -2.318132e-015 -9.182422e-001 -3.960194e-001
      outer loop
         vertex 9.077922e+002 1.005056e+003 1.799442e+003
         vertex 9.197922e+002 1.005056e+003 1.799442e+003
         vertex 9.197922e+002 1.004614e+003 1.800390e+003
      endloop
   endfacet
   facet normal -2.734112e-015 -8.936031e-001 -4.488580e-001
      outer loop
         vertex 9.077922e+002 1.005056e+003 1.799442e+003
         vertex 9.197922e+002 1.004614e+003 1.800390e+003
         vertex 9.077922e+002 1.004614e+003 1.800390e+003
      endloop
   endfacet
   facet normal -3.534168e-015 -8.355240e-001 -5.494540e-001
      outer loop
         vertex 9.077922e+002 1.004614e+003 1.800390e+003
         vertex 9.197922e+002 1.004614e+003 1.800390e+003
         vertex 9.197922e+002 1.004014e+003 1.801247e+003
      endloop
   endfacet
   facet normal -3.918244e-015 -8.020839e-001 -5.972114e-001
      outer loop
         vertex 9.077922e+002 1.004614e+003 1.800390e+003
         vertex 9.197922e+002 1.004014e+003 1.801247e+003
         vertex 9.077922e+002 1.004014e+003 1.801247e+003
      endloop
   endfacet
   facet normal -4.642820e-015 -7.274188e-001 -6.861938e-001
      outer loop
         vertex 9.077922e+002 1.004014e+003 1.801247e+003
         vertex 9.197922e+002 1.004014e+003 1.801247e+003
         vertex 9.197922e+002 1.003274e+003 1.801986e+003
      endloop
   endfacet
   facet normal -4.983321e-015 -6.861938e-001 -7.274188e-001
      outer loop
         vertex 9.077922e+002 1.004014e+003 1.801247e+003
         vertex 9.197922e+002 1.003274e+003 1.801986e+003
         vertex 9.077922e+002 1.003274e+003 1.801986e+003
      endloop
   endfacet
   facet normal -5.610403e-015 -5.972114e-001 -8.020839e-001
      outer loop
         vertex 9.077922e+002 1.003274e+003 1.801986e+003
         vertex 9.197922e+002 1.003274e+003 1.801986e+003
         vertex 9.197922e+002 1.002417e+003 1.802586e+003
      endloop
   endfacet
   facet normal -5.896984e-015 -5.494540e-001 -8.355240e-001
      outer loop
         vertex 9.077922e+002 1.003274e+003 1.801986e+003
         vertex 9.197922e+002 1.002417e+003 1.802586e+003
         vertex 9.077922e+002 1.002417e+003 1.802586e+003
      endloop
   endfacet
   facet normal -6.407516e-015 -4.488580e-001 -8.936031e-001
      outer loop
         vertex 9.077922e+002 1.002417e+003 1.802586e+003
         vertex 9.197922e+002 1.002417e+003 1.802586e+003
         vertex 9.197922e+002 1.001469e+003 1.803028e+003
      endloop
   endfacet
   facet normal -6.631469e-015 -3.960194e-001 -9.182422e-001
      outer loop
         vertex 9.077922e+002 1.002417e+003 1.802586e+003
         vertex 9.197922e+002 1.001469e+003 1.803028e+003
         vertex 9.077922e+002 1.001469e+003 1.803028e+003
      endloop
   endfacet
   facet normal -7.009940e-015 -2.868663e-001 -9.579706e-001
      outer loop
         vertex 9.077922e+002 1.001469e+003 1.803028e+003
         vertex 9.197922e+002 1.001469e+003 1.803028e+003
         vertex 9.197922e+002 1.000459e+003 1.803299e+003
      endloop
   endfacet
   facet normal -7.164460e-015 -2.305518e-001 -9.730601e-001
      outer loop
         vertex 9.077922e+002 1.001469e+003 1.803028e+003
         vertex 9.197922e+002 1.000459e+003 1.803299e+003
         vertex 9.077922e+002 1.000459e+003 1.803299e+003
      endloop
   endfacet
   facet normal -7.399372e-015 -1.161583e-001 -9.932307e-001
      outer loop
         vertex 9.077922e+002 1.000459e+003 1.803299e+003
         vertex 9.197922e+002 1.000459e+003 1.803299e+003
         vertex 9.197922e+002 9.994173e+002 1.803390e+003
      endloop
   endfacet
   facet normal -7.479763e-015 -5.807914e-002 -9.983120e-001
      outer loop
         vertex 9.077922e+002 1.000459e+003 1.803299e+003
         vertex 9.197922e+002 9.994173e+002 1.803390e+003
         vertex 9.077922e+002 9.994173e+002 1.803390e+003
      endloop
   endfacet
   facet normal -7.563976e-015 5.807914e-002 -9.983120e-001
      outer loop
         vertex 9.077922e+002 9.994173e+002 1.803390e+003
         vertex 9.197922e+002 9.994173e+002 1.803390e+003
         vertex 9.197922e+002 9.983754e+002 1.803299e+003
      endloop
   endfacet
   facet normal -7.567797e-015 1.161583e-001 -9.932307e-001
      outer loop
         vertex 9.077922e+002 9.994173e+002 1.803390e+003
         vertex 9.197922e+002 9.983754e+002 1.803299e+003
         vertex 9.077922e+002 9.983754e+002 1.803299e+003
      endloop
   endfacet
   facet normal -7.498753e-015 2.305518e-001 -9.730601e-001
      outer loop
         vertex 9.077922e+002 9.983754e+002 1.803299e+003
         vertex 9.197922e+002 9.983754e+002 1.803299e+003
         vertex 9.197922e+002 9.973652e+002 1.803028e+003
      endloop
   endfacet
   facet normal -7.425888e-015 2.868663e-001 -9.579706e-001
      outer loop
         vertex 9.077922e+002 9.983754e+002 1.803299e+003
         vertex 9.197922e+002 9.973652e+002 1.803028e+003
         vertex 9.077922e+002 9.973652e+002 1.803028e+003
      endloop
   endfacet
   facet normal -7.205685e-015 3.960194e-001 -9.182422e-001
      outer loop
         vertex 9.077922e+002 9.973652e+002 1.803028e+003
         vertex 9.197922e+002 9.973652e+002 1.803028e+003
         vertex 9.197922e+002 9.964174e+002 1.802586e+003
      endloop
   endfacet
   facet normal -7.058346e-015 4.488580e-001 -8.936031e-001
      outer loop
         vertex 9.077922e+002 9.973652e+002 1.803028e+003
         vertex 9.197922e+002 9.964174e+002 1.802586e+003
         vertex 9.077922e+002 9.964174e+002 1.802586e+003
      endloop
   endfacet
   facet normal -6.693674e-015 5.494540e-001 -8.355240e-001
      outer loop
         vertex 9.077922e+002 9.964174e+002 1.802586e+003
         vertex 9.197922e+002 9.964174e+002 1.802586e+003
         vertex 9.197922e+002 9.955606e+002 1.801986e+003
      endloop
   endfacet
   facet normal -6.476341e-015 5.972114e-001 -8.020839e-001
      outer loop
         vertex 9.077922e+002 9.964174e+002 1.802586e+003
         vertex 9.197922e+002 9.955606e+002 1.801986e+003
         vertex 9.077922e+002 9.955606e+002 1.801986e+003
      endloop
   endfacet
   facet normal -5.978281e-015 6.861938e-001 -7.274188e-001
      outer loop
         vertex 9.077922e+002 9.955606e+002 1.801986e+003
         vertex 9.197922e+002 9.955606e+002 1.801986e+003
         vertex 9.197922e+002 9.948210e+002 1.801247e+003
      endloop
   endfacet
   facet normal -5.697555e-015 7.274188e-001 -6.861938e-001
      outer loop
         vertex 9.077922e+002 9.955606e+002 1.801986e+003
         vertex 9.197922e+002 9.948210e+002 1.801247e+003
         vertex 9.077922e+002 9.948210e+002 1.801247e+003
      endloop
   endfacet
   facet normal -5.081240e-015 8.020839e-001 -5.972114e-001
      outer loop
         vertex 9.077922e+002 9.948210e+002 1.801247e+003
         vertex 9.197922e+002 9.948210e+002 1.801247e+003
         vertex 9.197922e+002 9.942212e+002 1.800390e+003
      endloop
   endfacet
   facet normal -4.745651e-015 8.355240e-001 -5.494540e-001
      outer loop
         vertex 9.077922e+002 9.948210e+002 1.801247e+003
         vertex 9.197922e+002 9.942212e+002 1.800390e+003
         vertex 9.077922e+002 9.942212e+002 1.800390e+003
      endloop
   endfacet
   facet normal -4.029808e-015 8.936031e-001 -4.488580e-001
      outer loop
         vertex 9.077922e+002 9.942212e+002 1.800390e+003
         vertex 9.197922e+002 9.942212e+002 1.800390e+003
         vertex 9.197922e+002 9.937792e+002 1.799442e+003
      endloop
   endfacet
   facet normal -3.649554e-015 9.182422e-001 -3.960194e-001
      outer loop
         vertex 9.077922e+002 9.942212e+002 1.800390e+003
         vertex 9.197922e+002 9.937792e+002 1.799442e+003
         vertex 9.077922e+002 9.937792e+002 1.799442e+003
      endloop
   endfacet
   facet normal -2.855933e-015 9.579706e-001 -2.868663e-001
      outer loop
         vertex 9.077922e+002 9.937792e+002 1.799442e+003
         vertex 9.197922e+002 9.937792e+002 1.799442e+003
         vertex 9.197922e+002 9.935085e+002 1.798432e+003
      endloop
   endfacet
   facet normal -2.442566e-015 9.730601e-001 -2.305518e-001
      outer loop
         vertex 9.077922e+002 9.937792e+002 1.799442e+003
         vertex 9.197922e+002 9.935085e+002 1.798432e+003
         vertex 9.077922e+002 9.935085e+002 1.798432e+003
      endloop
   endfacet
   facet normal -1.595282e-015 9.932307e-001 -1.161583e-001
      outer loop
         vertex 9.077922e+002 9.935085e+002 1.798432e+003
         vertex 9.197922e+002 9.935085e+002 1.798432e+003
         vertex 9.197922e+002 9.934173e+002 1.797390e+003
      endloop
   endfacet
endsolid