solid 09.025.00.00.000 - 09.025.00.03.000-1 09.025.00.03.001-1 09.025.00.03.0AD-6
   facet normal -3.801479e-015 -5.113373e-017 -1.000000e+000
      outer loop
         vertex 9.437922e+002 9.504174e+002 5.838993e+001
         vertex 9.937922e+002 9.504174e+002 5.838993e+001
         vertex 9.437922e+002 9.384173e+002 5.838993e+001
      endloop
   endfacet
   facet normal -3.801479e-015 -5.113373e-017 -1.000000e+000
      outer loop
         vertex 9.437922e+002 9.384173e+002 5.838993e+001
         vertex 9.937922e+002 9.504174e+002 5.838993e+001
         vertex 9.937922e+002 9.384173e+002 5.838993e+001
      endloop
   endfacet
   facet normal -1.000000e+000 -1.266348e-016 3.763019e-015
      outer loop
         vertex 9.337922e+002 9.384173e+002 6.838993e+001
         vertex 9.337922e+002 9.384173e+002 1.183899e+002
         vertex 9.337922e+002 9.504174e+002 6.838993e+001
      endloop
   endfacet
   facet normal -1.000000e+000 -1.266348e-016 3.763019e-015
      outer loop
         vertex 9.337922e+002 9.504174e+002 6.838993e+001
         vertex 9.337922e+002 9.384173e+002 1.183899e+002
         vertex 9.337922e+002 9.504174e+002 1.183899e+002
      endloop
   endfacet
   facet normal 3.801479e-015 5.113373e-017 1.000000e+000
      outer loop
         vertex 9.587922e+002 9.504174e+002 1.183899e+002
         vertex 9.337922e+002 9.504174e+002 1.183899e+002
         vertex 9.587922e+002 9.384173e+002 1.183899e+002
      endloop
   endfacet
   facet normal 3.801479e-015 5.113373e-017 1.000000e+000
      outer loop
         vertex 9.587922e+002 9.384173e+002 1.183899e+002
         vertex 9.337922e+002 9.504174e+002 1.183899e+002
         vertex 9.337922e+002 9.384173e+002 1.183899e+002
      endloop
   endfacet
   facet normal 1.000000e+000 1.266348e-016 -3.878668e-015
      outer loop
         vertex 9.937922e+002 9.384173e+002 8.338993e+001
         vertex 9.937922e+002 9.384173e+002 5.838993e+001
         vertex 9.937922e+002 9.504174e+002 8.338993e+001
      endloop
   endfacet
   facet normal 1.000000e+000 1.266348e-016 -3.878668e-015
      outer loop
         vertex 9.937922e+002 9.504174e+002 8.338993e+001
         vertex 9.937922e+002 9.384173e+002 5.838993e+001
         vertex 9.937922e+002 9.504174e+002 5.838993e+001
      endloop
   endfacet
   facet normal -2.223172e-016 1.000000e+000 -1.057126e-016
      outer loop
         vertex 9.557922e+002 9.504174e+002 7.819378e+001
         vertex 9.567401e+002 9.504174e+002 7.775177e+001
         vertex 9.437922e+002 9.504174e+002 5.838993e+001
      endloop
   endfacet
   facet normal -2.223172e-016 1.000000e+000 -1.057126e-016
      outer loop
         vertex 9.437922e+002 9.504174e+002 5.838993e+001
         vertex 9.567401e+002 9.504174e+002 7.775177e+001
         vertex 9.577503e+002 9.504174e+002 7.748109e+001
      endloop
   endfacet
   facet normal -2.223172e-016 1.000000e+000 -1.057126e-016
      outer loop
         vertex 9.608444e+002 9.504174e+002 7.775177e+001
         vertex 9.937922e+002 9.504174e+002 5.838993e+001
         vertex 9.598341e+002 9.504174e+002 7.748109e+001
      endloop
   endfacet
   facet normal -2.223172e-016 1.000000e+000 -1.057126e-016
      outer loop
         vertex 9.598341e+002 9.504174e+002 7.748109e+001
         vertex 9.937922e+002 9.504174e+002 5.838993e+001
         vertex 9.437922e+002 9.504174e+002 5.838993e+001
      endloop
   endfacet
   facet normal -2.223172e-016 1.000000e+000 -1.057126e-016
      outer loop
         vertex 9.598341e+002 9.504174e+002 7.748109e+001
         vertex 9.437922e+002 9.504174e+002 5.838993e+001
         vertex 9.587922e+002 9.504174e+002 7.738992e+001
      endloop
   endfacet
   facet normal -2.223172e-016 1.000000e+000 -1.057126e-016
      outer loop
         vertex 9.587922e+002 9.504174e+002 7.738992e+001
         vertex 9.437922e+002 9.504174e+002 5.838993e+001
         vertex 9.577503e+002 9.504174e+002 7.748109e+001
      endloop
   endfacet
   facet normal -2.223172e-016 1.000000e+000 -1.057126e-016
      outer loop
         vertex 9.608444e+002 9.504174e+002 7.775177e+001
         vertex 9.617922e+002 9.504174e+002 7.819378e+001
         vertex 9.937922e+002 9.504174e+002 5.838993e+001
      endloop
   endfacet
   facet normal -2.223172e-016 1.000000e+000 -1.057126e-016
      outer loop
         vertex 9.937922e+002 9.504174e+002 5.838993e+001
         vertex 9.617922e+002 9.504174e+002 7.819378e+001
         vertex 9.626489e+002 9.504174e+002 7.879366e+001
      endloop
   endfacet
   facet normal -2.223172e-016 1.000000e+000 -1.057126e-016
      outer loop
         vertex 9.937922e+002 9.504174e+002 5.838993e+001
         vertex 9.626489e+002 9.504174e+002 7.879366e+001
         vertex 9.633885e+002 9.504174e+002 7.953320e+001
      endloop
   endfacet
   facet normal -2.223172e-016 1.000000e+000 -1.057126e-016
      outer loop
         vertex 9.617922e+002 9.504174e+002 8.858607e+001
         vertex 9.608444e+002 9.504174e+002 8.902808e+001
         vertex 9.587922e+002 9.504174e+002 1.183899e+002
      endloop
   endfacet
   facet normal -2.223172e-016 1.000000e+000 -1.057126e-016
      outer loop
         vertex 9.587922e+002 9.504174e+002 1.183899e+002
         vertex 9.608444e+002 9.504174e+002 8.902808e+001
         vertex 9.598341e+002 9.504174e+002 8.929877e+001
      endloop
   endfacet
   facet normal -2.223172e-016 1.000000e+000 -1.057126e-016
      outer loop
         vertex 9.527922e+002 9.504174e+002 8.338993e+001
         vertex 9.528834e+002 9.504174e+002 8.234804e+001
         vertex 9.337922e+002 9.504174e+002 6.838993e+001
      endloop
   endfacet
   facet normal -2.223172e-016 1.000000e+000 -1.057126e-016
      outer loop
         vertex 9.337922e+002 9.504174e+002 6.838993e+001
         vertex 9.528834e+002 9.504174e+002 8.234804e+001
         vertex 9.531541e+002 9.504174e+002 8.133781e+001
      endloop
   endfacet
   facet normal -2.223172e-016 1.000000e+000 -1.057126e-016
      outer loop
         vertex 9.647010e+002 9.504174e+002 8.234804e+001
         vertex 9.937922e+002 9.504174e+002 8.338993e+001
         vertex 9.644304e+002 9.504174e+002 8.133781e+001
      endloop
   endfacet
   facet normal -2.223172e-016 1.000000e+000 -1.057126e-016
      outer loop
         vertex 9.644304e+002 9.504174e+002 8.133781e+001
         vertex 9.937922e+002 9.504174e+002 8.338993e+001
         vertex 9.937922e+002 9.504174e+002 5.838993e+001
      endloop
   endfacet
   facet normal -2.223172e-016 1.000000e+000 -1.057126e-016
      outer loop
         vertex 9.644304e+002 9.504174e+002 8.133781e+001
         vertex 9.937922e+002 9.504174e+002 5.838993e+001
         vertex 9.639883e+002 9.504174e+002 8.038992e+001
      endloop
   endfacet
   facet normal -2.223172e-016 1.000000e+000 -1.057126e-016
      outer loop
         vertex 9.639883e+002 9.504174e+002 8.038992e+001
         vertex 9.937922e+002 9.504174e+002 5.838993e+001
         vertex 9.633885e+002 9.504174e+002 7.953320e+001
      endloop
   endfacet
   facet normal -2.223172e-016 1.000000e+000 -1.057126e-016
      outer loop
         vertex 9.647010e+002 9.504174e+002 8.234804e+001
         vertex 9.647922e+002 9.504174e+002 8.338993e+001
         vertex 9.937922e+002 9.504174e+002 8.338993e+001
      endloop
   endfacet
   facet normal -2.223172e-016 1.000000e+000 -1.057126e-016
      outer loop
         vertex 9.937922e+002 9.504174e+002 8.338993e+001
         vertex 9.647922e+002 9.504174e+002 8.338993e+001
         vertex 9.647010e+002 9.504174e+002 8.443182e+001
      endloop
   endfacet
   facet normal -2.223172e-016 1.000000e+000 -1.057126e-016
      outer loop
         vertex 9.937922e+002 9.504174e+002 8.338993e+001
         vertex 9.647010e+002 9.504174e+002 8.443182e+001
         vertex 9.644304e+002 9.504174e+002 8.544205e+001
      endloop
   endfacet
   facet normal -2.223172e-016 1.000000e+000 -1.057126e-016
      outer loop
         vertex 9.598341e+002 9.504174e+002 8.929877e+001
         vertex 9.587922e+002 9.504174e+002 8.938993e+001
         vertex 9.587922e+002 9.504174e+002 1.183899e+002
      endloop
   endfacet
   facet normal -2.223172e-016 1.000000e+000 -1.057126e-016
      outer loop
         vertex 9.587922e+002 9.504174e+002 1.183899e+002
         vertex 9.587922e+002 9.504174e+002 8.938993e+001
         vertex 9.577503e+002 9.504174e+002 8.929877e+001
      endloop
   endfacet
   facet normal -2.223172e-016 1.000000e+000 -1.057126e-016
      outer loop
         vertex 9.587922e+002 9.504174e+002 1.183899e+002
         vertex 9.577503e+002 9.504174e+002 8.929877e+001
         vertex 9.337922e+002 9.504174e+002 1.183899e+002
      endloop
   endfacet
   facet normal -2.223172e-016 1.000000e+000 -1.057126e-016
      outer loop
         vertex 9.337922e+002 9.504174e+002 1.183899e+002
         vertex 9.577503e+002 9.504174e+002 8.929877e+001
         vertex 9.567401e+002 9.504174e+002 8.902808e+001
      endloop
   endfacet
   facet normal -2.223172e-016 1.000000e+000 -1.057126e-016
      outer loop
         vertex 9.644304e+002 9.504174e+002 8.544205e+001
         vertex 9.639883e+002 9.504174e+002 8.638993e+001
         vertex 9.937922e+002 9.504174e+002 8.338993e+001
      endloop
   endfacet
   facet normal -2.223172e-016 1.000000e+000 -1.057126e-016
      outer loop
         vertex 9.937922e+002 9.504174e+002 8.338993e+001
         vertex 9.639883e+002 9.504174e+002 8.638993e+001
         vertex 9.633885e+002 9.504174e+002 8.724666e+001
      endloop
   endfacet
   facet normal -2.223172e-016 1.000000e+000 -1.057126e-016
      outer loop
         vertex 9.937922e+002 9.504174e+002 8.338993e+001
         vertex 9.633885e+002 9.504174e+002 8.724666e+001
         vertex 9.587922e+002 9.504174e+002 1.183899e+002
      endloop
   endfacet
   facet normal -2.223172e-016 1.000000e+000 -1.057126e-016
      outer loop
         vertex 9.587922e+002 9.504174e+002 1.183899e+002
         vertex 9.633885e+002 9.504174e+002 8.724666e+001
         vertex 9.626489e+002 9.504174e+002 8.798619e+001
      endloop
   endfacet
   facet normal -2.223172e-016 1.000000e+000 -1.057126e-016
      outer loop
         vertex 9.587922e+002 9.504174e+002 1.183899e+002
         vertex 9.626489e+002 9.504174e+002 8.798619e+001
         vertex 9.617922e+002 9.504174e+002 8.858607e+001
      endloop
   endfacet
   facet normal -2.223172e-016 1.000000e+000 -1.057126e-016
      outer loop
         vertex 9.567401e+002 9.504174e+002 8.902808e+001
         vertex 9.557922e+002 9.504174e+002 8.858607e+001
         vertex 9.337922e+002 9.504174e+002 1.183899e+002
      endloop
   endfacet
   facet normal -2.223172e-016 1.000000e+000 -1.057126e-016
      outer loop
         vertex 9.337922e+002 9.504174e+002 1.183899e+002
         vertex 9.557922e+002 9.504174e+002 8.858607e+001
         vertex 9.549355e+002 9.504174e+002 8.798619e+001
      endloop
   endfacet
   facet normal -2.223172e-016 1.000000e+000 -1.057126e-016
      outer loop
         vertex 9.337922e+002 9.504174e+002 1.183899e+002
         vertex 9.549355e+002 9.504174e+002 8.798619e+001
         vertex 9.541959e+002 9.504174e+002 8.724666e+001
      endloop
   endfacet
   facet normal -2.223172e-016 1.000000e+000 -1.057126e-016
      outer loop
         vertex 9.541959e+002 9.504174e+002 8.724666e+001
         vertex 9.535961e+002 9.504174e+002 8.638993e+001
         vertex 9.337922e+002 9.504174e+002 1.183899e+002
      endloop
   endfacet
   facet normal -2.223172e-016 1.000000e+000 -1.057126e-016
      outer loop
         vertex 9.337922e+002 9.504174e+002 1.183899e+002
         vertex 9.535961e+002 9.504174e+002 8.638993e+001
         vertex 9.531541e+002 9.504174e+002 8.544205e+001
      endloop
   endfacet
   facet normal -2.223172e-016 1.000000e+000 -1.057126e-016
      outer loop
         vertex 9.337922e+002 9.504174e+002 1.183899e+002
         vertex 9.531541e+002 9.504174e+002 8.544205e+001
         vertex 9.337922e+002 9.504174e+002 6.838993e+001
      endloop
   endfacet
   facet normal -2.223172e-016 1.000000e+000 -1.057126e-016
      outer loop
         vertex 9.337922e+002 9.504174e+002 6.838993e+001
         vertex 9.531541e+002 9.504174e+002 8.544205e+001
         vertex 9.528834e+002 9.504174e+002 8.443182e+001
      endloop
   endfacet
   facet normal -2.223172e-016 1.000000e+000 -1.057126e-016
      outer loop
         vertex 9.337922e+002 9.504174e+002 6.838993e+001
         vertex 9.528834e+002 9.504174e+002 8.443182e+001
         vertex 9.527922e+002 9.504174e+002 8.338993e+001
      endloop
   endfacet
   facet normal -2.223172e-016 1.000000e+000 -1.057126e-016
      outer loop
         vertex 9.531541e+002 9.504174e+002 8.133781e+001
         vertex 9.535961e+002 9.504174e+002 8.038992e+001
         vertex 9.337922e+002 9.504174e+002 6.838993e+001
      endloop
   endfacet
   facet normal -2.223172e-016 1.000000e+000 -1.057126e-016
      outer loop
         vertex 9.337922e+002 9.504174e+002 6.838993e+001
         vertex 9.535961e+002 9.504174e+002 8.038992e+001
         vertex 9.541959e+002 9.504174e+002 7.953320e+001
      endloop
   endfacet
   facet normal -2.223172e-016 1.000000e+000 -1.057126e-016
      outer loop
         vertex 9.337922e+002 9.504174e+002 6.838993e+001
         vertex 9.541959e+002 9.504174e+002 7.953320e+001
         vertex 9.437922e+002 9.504174e+002 5.838993e+001
      endloop
   endfacet
   facet normal -2.223172e-016 1.000000e+000 -1.057126e-016
      outer loop
         vertex 9.437922e+002 9.504174e+002 5.838993e+001
         vertex 9.541959e+002 9.504174e+002 7.953320e+001
         vertex 9.549355e+002 9.504174e+002 7.879366e+001
      endloop
   endfacet
   facet normal -2.223172e-016 1.000000e+000 -1.057126e-016
      outer loop
         vertex 9.437922e+002 9.504174e+002 5.838993e+001
         vertex 9.549355e+002 9.504174e+002 7.879366e+001
         vertex 9.557922e+002 9.504174e+002 7.819378e+001
      endloop
   endfacet
   facet normal 2.223172e-016 -1.000000e+000 1.057126e-016
      outer loop
         vertex 9.587922e+002 9.384173e+002 7.738992e+001
         vertex 9.577503e+002 9.384173e+002 7.748109e+001
         vertex 9.437922e+002 9.384173e+002 5.838993e+001
      endloop
   endfacet
   facet normal 2.223172e-016 -1.000000e+000 1.057126e-016
      outer loop
         vertex 9.437922e+002 9.384173e+002 5.838993e+001
         vertex 9.577503e+002 9.384173e+002 7.748109e+001
         vertex 9.567401e+002 9.384173e+002 7.775177e+001
      endloop
   endfacet
   facet normal 2.223172e-016 -1.000000e+000 1.057126e-016
      outer loop
         vertex 9.531541e+002 9.384173e+002 8.133781e+001
         vertex 9.528834e+002 9.384173e+002 8.234804e+001
         vertex 9.337922e+002 9.384173e+002 6.838993e+001
      endloop
   endfacet
   facet normal 2.223172e-016 -1.000000e+000 1.057126e-016
      outer loop
         vertex 9.531541e+002 9.384173e+002 8.133781e+001
         vertex 9.337922e+002 9.384173e+002 6.838993e+001
         vertex 9.535961e+002 9.384173e+002 8.038992e+001
      endloop
   endfacet
   facet normal 2.223172e-016 -1.000000e+000 1.057126e-016
      outer loop
         vertex 9.639883e+002 9.384173e+002 8.638993e+001
         vertex 9.644304e+002 9.384173e+002 8.544205e+001
         vertex 9.937922e+002 9.384173e+002 8.338993e+001
      endloop
   endfacet
   facet normal 2.223172e-016 -1.000000e+000 1.057126e-016
      outer loop
         vertex 9.937922e+002 9.384173e+002 8.338993e+001
         vertex 9.644304e+002 9.384173e+002 8.544205e+001
         vertex 9.647010e+002 9.384173e+002 8.443182e+001
      endloop
   endfacet
   facet normal 2.223172e-016 -1.000000e+000 1.057126e-016
      outer loop
         vertex 9.639883e+002 9.384173e+002 8.038992e+001
         vertex 9.633885e+002 9.384173e+002 7.953320e+001
         vertex 9.937922e+002 9.384173e+002 5.838993e+001
      endloop
   endfacet
   facet normal 2.223172e-016 -1.000000e+000 1.057126e-016
      outer loop
         vertex 9.937922e+002 9.384173e+002 5.838993e+001
         vertex 9.633885e+002 9.384173e+002 7.953320e+001
         vertex 9.626489e+002 9.384173e+002 7.879366e+001
      endloop
   endfacet
   facet normal 2.223172e-016 -1.000000e+000 1.057126e-016
      outer loop
         vertex 9.647010e+002 9.384173e+002 8.443182e+001
         vertex 9.647922e+002 9.384173e+002 8.338993e+001
         vertex 9.937922e+002 9.384173e+002 8.338993e+001
      endloop
   endfacet
   facet normal 2.223172e-016 -1.000000e+000 1.057126e-016
      outer loop
         vertex 9.937922e+002 9.384173e+002 8.338993e+001
         vertex 9.647922e+002 9.384173e+002 8.338993e+001
         vertex 9.647010e+002 9.384173e+002 8.234804e+001
      endloop
   endfacet
   facet normal 2.223172e-016 -1.000000e+000 1.057126e-016
      outer loop
         vertex 9.937922e+002 9.384173e+002 8.338993e+001
         vertex 9.647010e+002 9.384173e+002 8.234804e+001
         vertex 9.937922e+002 9.384173e+002 5.838993e+001
      endloop
   endfacet
   facet normal 2.223172e-016 -1.000000e+000 1.057126e-016
      outer loop
         vertex 9.937922e+002 9.384173e+002 5.838993e+001
         vertex 9.647010e+002 9.384173e+002 8.234804e+001
         vertex 9.644304e+002 9.384173e+002 8.133781e+001
      endloop
   endfacet
   facet normal 2.223172e-016 -1.000000e+000 1.057126e-016
      outer loop
         vertex 9.937922e+002 9.384173e+002 5.838993e+001
         vertex 9.644304e+002 9.384173e+002 8.133781e+001
         vertex 9.639883e+002 9.384173e+002 8.038992e+001
      endloop
   endfacet
   facet normal 2.223172e-016 -1.000000e+000 1.057126e-016
      outer loop
         vertex 9.626489e+002 9.384173e+002 7.879366e+001
         vertex 9.617922e+002 9.384173e+002 7.819378e+001
         vertex 9.937922e+002 9.384173e+002 5.838993e+001
      endloop
   endfacet
   facet normal 2.223172e-016 -1.000000e+000 1.057126e-016
      outer loop
         vertex 9.937922e+002 9.384173e+002 5.838993e+001
         vertex 9.617922e+002 9.384173e+002 7.819378e+001
         vertex 9.608444e+002 9.384173e+002 7.775177e+001
      endloop
   endfacet
   facet normal 2.223172e-016 -1.000000e+000 1.057126e-016
      outer loop
         vertex 9.937922e+002 9.384173e+002 5.838993e+001
         vertex 9.608444e+002 9.384173e+002 7.775177e+001
         vertex 9.437922e+002 9.384173e+002 5.838993e+001
      endloop
   endfacet
   facet normal 2.223172e-016 -1.000000e+000 1.057126e-016
      outer loop
         vertex 9.437922e+002 9.384173e+002 5.838993e+001
         vertex 9.608444e+002 9.384173e+002 7.775177e+001
         vertex 9.598341e+002 9.384173e+002 7.748109e+001
      endloop
   endfacet
   facet normal 2.223172e-016 -1.000000e+000 1.057126e-016
      outer loop
         vertex 9.437922e+002 9.384173e+002 5.838993e+001
         vertex 9.598341e+002 9.384173e+002 7.748109e+001
         vertex 9.587922e+002 9.384173e+002 7.738992e+001
      endloop
   endfacet
   facet normal 2.223172e-016 -1.000000e+000 1.057126e-016
      outer loop
         vertex 9.567401e+002 9.384173e+002 7.775177e+001
         vertex 9.557922e+002 9.384173e+002 7.819378e+001
         vertex 9.437922e+002 9.384173e+002 5.838993e+001
      endloop
   endfacet
   facet normal 2.223172e-016 -1.000000e+000 1.057126e-016
      outer loop
         vertex 9.437922e+002 9.384173e+002 5.838993e+001
         vertex 9.557922e+002 9.384173e+002 7.819378e+001
         vertex 9.549355e+002 9.384173e+002 7.879366e+001
      endloop
   endfacet
   facet normal 2.223172e-016 -1.000000e+000 1.057126e-016
      outer loop
         vertex 9.437922e+002 9.384173e+002 5.838993e+001
         vertex 9.549355e+002 9.384173e+002 7.879366e+001
         vertex 9.337922e+002 9.384173e+002 6.838993e+001
      endloop
   endfacet
   facet normal 2.223172e-016 -1.000000e+000 1.057126e-016
      outer loop
         vertex 9.337922e+002 9.384173e+002 6.838993e+001
         vertex 9.549355e+002 9.384173e+002 7.879366e+001
         vertex 9.541959e+002 9.384173e+002 7.953320e+001
      endloop
   endfacet
   facet normal 2.223172e-016 -1.000000e+000 1.057126e-016
      outer loop
         vertex 9.337922e+002 9.384173e+002 6.838993e+001
         vertex 9.541959e+002 9.384173e+002 7.953320e+001
         vertex 9.535961e+002 9.384173e+002 8.038992e+001
      endloop
   endfacet
   facet normal 2.223172e-016 -1.000000e+000 1.057126e-016
      outer loop
         vertex 9.531541e+002 9.384173e+002 8.544205e+001
         vertex 9.337922e+002 9.384173e+002 1.183899e+002
         vertex 9.528834e+002 9.384173e+002 8.443182e+001
      endloop
   endfacet
   facet normal 2.223172e-016 -1.000000e+000 1.057126e-016
      outer loop
         vertex 9.528834e+002 9.384173e+002 8.443182e+001
         vertex 9.337922e+002 9.384173e+002 1.183899e+002
         vertex 9.337922e+002 9.384173e+002 6.838993e+001
      endloop
   endfacet
   facet normal 2.223172e-016 -1.000000e+000 1.057126e-016
      outer loop
         vertex 9.528834e+002 9.384173e+002 8.443182e+001
         vertex 9.337922e+002 9.384173e+002 6.838993e+001
         vertex 9.527922e+002 9.384173e+002 8.338993e+001
      endloop
   endfacet
   facet normal 2.223172e-016 -1.000000e+000 1.057126e-016
      outer loop
         vertex 9.527922e+002 9.384173e+002 8.338993e+001
         vertex 9.337922e+002 9.384173e+002 6.838993e+001
         vertex 9.528834e+002 9.384173e+002 8.234804e+001
      endloop
   endfacet
   facet normal 2.223172e-016 -1.000000e+000 1.057126e-016
      outer loop
         vertex 9.531541e+002 9.384173e+002 8.544205e+001
         vertex 9.535961e+002 9.384173e+002 8.638993e+001
         vertex 9.337922e+002 9.384173e+002 1.183899e+002
      endloop
   endfacet
   facet normal 2.223172e-016 -1.000000e+000 1.057126e-016
      outer loop
         vertex 9.337922e+002 9.384173e+002 1.183899e+002
         vertex 9.535961e+002 9.384173e+002 8.638993e+001
         vertex 9.541959e+002 9.384173e+002 8.724666e+001
      endloop
   endfacet
   facet normal 2.223172e-016 -1.000000e+000 1.057126e-016
      outer loop
         vertex 9.337922e+002 9.384173e+002 1.183899e+002
         vertex 9.541959e+002 9.384173e+002 8.724666e+001
         vertex 9.549355e+002 9.384173e+002 8.798619e+001
      endloop
   endfacet
   facet normal 2.223172e-016 -1.000000e+000 1.057126e-016
      outer loop
         vertex 9.608444e+002 9.384173e+002 8.902808e+001
         vertex 9.587922e+002 9.384173e+002 1.183899e+002
         vertex 9.598341e+002 9.384173e+002 8.929877e+001
      endloop
   endfacet
   facet normal 2.223172e-016 -1.000000e+000 1.057126e-016
      outer loop
         vertex 9.598341e+002 9.384173e+002 8.929877e+001
         vertex 9.587922e+002 9.384173e+002 1.183899e+002
         vertex 9.587922e+002 9.384173e+002 8.938993e+001
      endloop
   endfacet
   facet normal 2.223172e-016 -1.000000e+000 1.057126e-016
      outer loop
         vertex 9.608444e+002 9.384173e+002 8.902808e+001
         vertex 9.617922e+002 9.384173e+002 8.858607e+001
         vertex 9.587922e+002 9.384173e+002 1.183899e+002
      endloop
   endfacet
   facet normal 2.223172e-016 -1.000000e+000 1.057126e-016
      outer loop
         vertex 9.587922e+002 9.384173e+002 1.183899e+002
         vertex 9.617922e+002 9.384173e+002 8.858607e+001
         vertex 9.626489e+002 9.384173e+002 8.798619e+001
      endloop
   endfacet
   facet normal 2.223172e-016 -1.000000e+000 1.057126e-016
      outer loop
         vertex 9.587922e+002 9.384173e+002 1.183899e+002
         vertex 9.626489e+002 9.384173e+002 8.798619e+001
         vertex 9.937922e+002 9.384173e+002 8.338993e+001
      endloop
   endfacet
   facet normal 2.223172e-016 -1.000000e+000 1.057126e-016
      outer loop
         vertex 9.937922e+002 9.384173e+002 8.338993e+001
         vertex 9.626489e+002 9.384173e+002 8.798619e+001
         vertex 9.633885e+002 9.384173e+002 8.724666e+001
      endloop
   endfacet
   facet normal 2.223172e-016 -1.000000e+000 1.057126e-016
      outer loop
         vertex 9.937922e+002 9.384173e+002 8.338993e+001
         vertex 9.633885e+002 9.384173e+002 8.724666e+001
         vertex 9.639883e+002 9.384173e+002 8.638993e+001
      endloop
   endfacet
   facet normal 2.223172e-016 -1.000000e+000 1.057126e-016
      outer loop
         vertex 9.549355e+002 9.384173e+002 8.798619e+001
         vertex 9.557922e+002 9.384173e+002 8.858607e+001
         vertex 9.337922e+002 9.384173e+002 1.183899e+002
      endloop
   endfacet
   facet normal 2.223172e-016 -1.000000e+000 1.057126e-016
      outer loop
         vertex 9.337922e+002 9.384173e+002 1.183899e+002
         vertex 9.557922e+002 9.384173e+002 8.858607e+001
         vertex 9.567401e+002 9.384173e+002 8.902808e+001
      endloop
   endfacet
   facet normal 2.223172e-016 -1.000000e+000 1.057126e-016
      outer loop
         vertex 9.337922e+002 9.384173e+002 1.183899e+002
         vertex 9.567401e+002 9.384173e+002 8.902808e+001
         vertex 9.587922e+002 9.384173e+002 1.183899e+002
      endloop
   endfacet
   facet normal 2.223172e-016 -1.000000e+000 1.057126e-016
      outer loop
         vertex 9.587922e+002 9.384173e+002 1.183899e+002
         vertex 9.567401e+002 9.384173e+002 8.902808e+001
         vertex 9.577503e+002 9.384173e+002 8.929877e+001
      endloop
   endfacet
   facet normal 2.223172e-016 -1.000000e+000 1.057126e-016
      outer loop
         vertex 9.587922e+002 9.384173e+002 1.183899e+002
         vertex 9.577503e+002 9.384173e+002 8.929877e+001
         vertex 9.587922e+002 9.384173e+002 8.938993e+001
      endloop
   endfacet
   facet normal 7.071068e-001 1.257013e-016 7.071068e-001
      outer loop
         vertex 9.587922e+002 9.384173e+002 1.183899e+002
         vertex 9.937922e+002 9.384173e+002 8.338993e+001
         vertex 9.587922e+002 9.504174e+002 1.183899e+002
      endloop
   endfacet
   facet normal 7.071068e-001 1.257013e-016 7.071068e-001
      outer loop
         vertex 9.587922e+002 9.504174e+002 1.183899e+002
         vertex 9.937922e+002 9.384173e+002 8.338993e+001
         vertex 9.937922e+002 9.504174e+002 8.338993e+001
      endloop
   endfacet
   facet normal -7.071068e-001 -1.257013e-016 -7.071068e-001
      outer loop
         vertex 9.437922e+002 9.384173e+002 5.838993e+001
         vertex 9.337922e+002 9.384173e+002 6.838993e+001
         vertex 9.437922e+002 9.504174e+002 5.838993e+001
      endloop
   endfacet
   facet normal -7.071068e-001 -1.257013e-016 -7.071068e-001
      outer loop
         vertex 9.437922e+002 9.504174e+002 5.838993e+001
         vertex 9.337922e+002 9.384173e+002 6.838993e+001
         vertex 9.337922e+002 9.504174e+002 6.838993e+001
      endloop
   endfacet
   facet normal 5.807914e-002 5.840225e-017 9.983120e-001
      outer loop
         vertex 9.577503e+002 9.504174e+002 7.748109e+001
         vertex 9.587922e+002 9.384173e+002 7.738992e+001
         vertex 9.587922e+002 9.504174e+002 7.738992e+001
      endloop
   endfacet
   facet normal -5.807914e-002 4.369257e-017 9.983120e-001
      outer loop
         vertex 9.587922e+002 9.504174e+002 7.738992e+001
         vertex 9.587922e+002 9.384173e+002 7.738992e+001
         vertex 9.598341e+002 9.384173e+002 7.748109e+001
      endloop
   endfacet
   facet normal -1.161583e-001 3.607791e-017 9.932307e-001
      outer loop
         vertex 9.587922e+002 9.504174e+002 7.738992e+001
         vertex 9.598341e+002 9.384173e+002 7.748109e+001
         vertex 9.598341e+002 9.504174e+002 7.748109e+001
      endloop
   endfacet
   facet normal -2.305518e-001 2.056030e-017 9.730601e-001
      outer loop
         vertex 9.598341e+002 9.504174e+002 7.748109e+001
         vertex 9.598341e+002 9.384173e+002 7.748109e+001
         vertex 9.608444e+002 9.384173e+002 7.775177e+001
      endloop
   endfacet
   facet normal -2.868663e-001 1.265735e-017 9.579706e-001
      outer loop
         vertex 9.598341e+002 9.504174e+002 7.748109e+001
         vertex 9.608444e+002 9.384173e+002 7.775177e+001
         vertex 9.608444e+002 9.504174e+002 7.775177e+001
      endloop
   endfacet
   facet normal -3.960194e-001 -3.196693e-018 9.182422e-001
      outer loop
         vertex 9.608444e+002 9.504174e+002 7.775177e+001
         vertex 9.608444e+002 9.384173e+002 7.775177e+001
         vertex 9.617922e+002 9.384173e+002 7.819378e+001
      endloop
   endfacet
   facet normal -4.488580e-001 -1.114779e-017 8.936031e-001
      outer loop
         vertex 9.608444e+002 9.504174e+002 7.775177e+001
         vertex 9.617922e+002 9.384173e+002 7.819378e+001
         vertex 9.617922e+002 9.504174e+002 7.819378e+001
      endloop
   endfacet
   facet normal -5.494540e-001 -2.685655e-017 8.355240e-001
      outer loop
         vertex 9.617922e+002 9.504174e+002 7.819378e+001
         vertex 9.617922e+002 9.384173e+002 7.819378e+001
         vertex 9.626489e+002 9.384173e+002 7.879366e+001
      endloop
   endfacet
   facet normal -5.972114e-001 -3.461421e-017 8.020839e-001
      outer loop
         vertex 9.617922e+002 9.504174e+002 7.819378e+001
         vertex 9.626489e+002 9.384173e+002 7.879366e+001
         vertex 9.626489e+002 9.504174e+002 7.879366e+001
      endloop
   endfacet
   facet normal -6.861938e-001 -4.970039e-017 7.274188e-001
      outer loop
         vertex 9.626489e+002 9.504174e+002 7.879366e+001
         vertex 9.626489e+002 9.384173e+002 7.879366e+001
         vertex 9.633885e+002 9.384173e+002 7.953320e+001
      endloop
   endfacet
   facet normal -7.274188e-001 -5.702890e-017 6.861938e-001
      outer loop
         vertex 9.626489e+002 9.504174e+002 7.879366e+001
         vertex 9.633885e+002 9.384173e+002 7.953320e+001
         vertex 9.633885e+002 9.504174e+002 7.953320e+001
      endloop
   endfacet
   facet normal -8.020839e-001 -7.103410e-017 5.972114e-001
      outer loop
         vertex 9.633885e+002 9.504174e+002 7.953320e+001
         vertex 9.633885e+002 9.384173e+002 7.953320e+001
         vertex 9.639883e+002 9.384173e+002 8.038992e+001
      endloop
   endfacet
   facet normal -8.355240e-001 -7.771079e-017 5.494540e-001
      outer loop
         vertex 9.633885e+002 9.504174e+002 7.953320e+001
         vertex 9.639883e+002 9.384173e+002 8.038992e+001
         vertex 9.639883e+002 9.504174e+002 8.038992e+001
      endloop
   endfacet
   facet normal -8.936031e-001 -9.020948e-017 4.488580e-001
      outer loop
         vertex 9.639883e+002 9.504174e+002 8.038992e+001
         vertex 9.639883e+002 9.384173e+002 8.038992e+001
         vertex 9.644304e+002 9.384173e+002 8.133781e+001
      endloop
   endfacet
   facet normal -9.182422e-001 -9.603148e-017 3.960194e-001
      outer loop
         vertex 9.639883e+002 9.504174e+002 8.038992e+001
         vertex 9.644304e+002 9.384173e+002 8.133781e+001
         vertex 9.644304e+002 9.504174e+002 8.133781e+001
      endloop
   endfacet
   facet normal -9.579706e-001 -1.066439e-016 2.868663e-001
      outer loop
         vertex 9.644304e+002 9.504174e+002 8.133781e+001
         vertex 9.644304e+002 9.384173e+002 8.133781e+001
         vertex 9.647010e+002 9.384173e+002 8.234804e+001
      endloop
   endfacet
   facet normal -9.730601e-001 -1.114343e-016 2.305518e-001
      outer loop
         vertex 9.644304e+002 9.504174e+002 8.133781e+001
         vertex 9.647010e+002 9.384173e+002 8.234804e+001
         vertex 9.647010e+002 9.504174e+002 8.234804e+001
      endloop
   endfacet
   facet normal -9.932307e-001 -1.198380e-016 1.161583e-001
      outer loop
         vertex 9.647010e+002 9.504174e+002 8.234804e+001
         vertex 9.647010e+002 9.384173e+002 8.234804e+001
         vertex 9.647922e+002 9.384173e+002 8.338993e+001
      endloop
   endfacet
   facet normal -9.983120e-001 -1.234513e-016 5.807914e-002
      outer loop
         vertex 9.647010e+002 9.504174e+002 8.234804e+001
         vertex 9.647922e+002 9.384173e+002 8.338993e+001
         vertex 9.647922e+002 9.504174e+002 8.338993e+001
      endloop
   endfacet
   facet normal -9.983120e-001 -1.293909e-016 -5.807914e-002
      outer loop
         vertex 9.647922e+002 9.504174e+002 8.338993e+001
         vertex 9.647922e+002 9.384173e+002 8.338993e+001
         vertex 9.647010e+002 9.384173e+002 8.443182e+001
      endloop
   endfacet
   facet normal -9.932307e-001 -1.317172e-016 -1.161583e-001
      outer loop
         vertex 9.647922e+002 9.504174e+002 8.338993e+001
         vertex 9.647010e+002 9.384173e+002 8.443182e+001
         vertex 9.647010e+002 9.504174e+002 8.443182e+001
      endloop
   endfacet
   facet normal -9.730601e-001 -1.350122e-016 -2.305518e-001
      outer loop
         vertex 9.647010e+002 9.504174e+002 8.443182e+001
         vertex 9.647010e+002 9.384173e+002 8.443182e+001
         vertex 9.644304e+002 9.384173e+002 8.544205e+001
      endloop
   endfacet
   facet normal -9.579706e-001 -1.359810e-016 -2.868663e-001
      outer loop
         vertex 9.647010e+002 9.504174e+002 8.443182e+001
         vertex 9.644304e+002 9.384173e+002 8.544205e+001
         vertex 9.644304e+002 9.504174e+002 8.544205e+001
      endloop
   endfacet
   facet normal -9.182422e-001 -1.365314e-016 -3.960194e-001
      outer loop
         vertex 9.644304e+002 9.504174e+002 8.544205e+001
         vertex 9.644304e+002 9.384173e+002 8.544205e+001
         vertex 9.639883e+002 9.384173e+002 8.638993e+001
      endloop
   endfacet
   facet normal -8.936031e-001 -1.361130e-016 -4.488580e-001
      outer loop
         vertex 9.644304e+002 9.504174e+002 8.544205e+001
         vertex 9.639883e+002 9.384173e+002 8.638993e+001
         vertex 9.639883e+002 9.504174e+002 8.638993e+001
      endloop
   endfacet
   facet normal -8.355240e-001 -1.339021e-016 -5.494540e-001
      outer loop
         vertex 9.639883e+002 9.504174e+002 8.638993e+001
         vertex 9.639883e+002 9.384173e+002 8.638993e+001
         vertex 9.633885e+002 9.384173e+002 8.724666e+001
      endloop
   endfacet
   facet normal -8.020839e-001 -1.321094e-016 -5.972114e-001
      outer loop
         vertex 9.639883e+002 9.504174e+002 8.638993e+001
         vertex 9.633885e+002 9.384173e+002 8.724666e+001
         vertex 9.633885e+002 9.504174e+002 8.724666e+001
      endloop
   endfacet
   facet normal -7.274188e-001 -1.272042e-016 -6.861938e-001
      outer loop
         vertex 9.633885e+002 9.504174e+002 8.724666e+001
         vertex 9.633885e+002 9.384173e+002 8.724666e+001
         vertex 9.626489e+002 9.384173e+002 8.798619e+001
      endloop
   endfacet
   facet normal -6.861938e-001 -1.240917e-016 -7.274188e-001
      outer loop
         vertex 9.633885e+002 9.504174e+002 8.724666e+001
         vertex 9.626489e+002 9.384173e+002 8.798619e+001
         vertex 9.626489e+002 9.504174e+002 8.798619e+001
      endloop
   endfacet
   facet normal -5.972114e-001 -1.166413e-016 -8.020839e-001
      outer loop
         vertex 9.626489e+002 9.504174e+002 8.798619e+001
         vertex 9.626489e+002 9.384173e+002 8.798619e+001
         vertex 9.617922e+002 9.384173e+002 8.858607e+001
      endloop
   endfacet
   facet normal -5.494540e-001 -1.123035e-016 -8.355240e-001
      outer loop
         vertex 9.626489e+002 9.504174e+002 8.798619e+001
         vertex 9.617922e+002 9.384173e+002 8.858607e+001
         vertex 9.617922e+002 9.504174e+002 8.858607e+001
      endloop
   endfacet
   facet normal -4.488580e-001 -1.025343e-016 -8.936031e-001
      outer loop
         vertex 9.617922e+002 9.504174e+002 8.858607e+001
         vertex 9.617922e+002 9.384173e+002 8.858607e+001
         vertex 9.608444e+002 9.384173e+002 8.902808e+001
      endloop
   endfacet
   facet normal -3.960194e-001 -9.710298e-017 -9.182422e-001
      outer loop
         vertex 9.617922e+002 9.504174e+002 8.858607e+001
         vertex 9.608444e+002 9.384173e+002 8.902808e+001
         vertex 9.608444e+002 9.504174e+002 8.902808e+001
      endloop
   endfacet
   facet normal -2.868663e-001 -8.531187e-017 -9.579706e-001
      outer loop
         vertex 9.608444e+002 9.504174e+002 8.902808e+001
         vertex 9.608444e+002 9.384173e+002 8.902808e+001
         vertex 9.598341e+002 9.384173e+002 8.929877e+001
      endloop
   endfacet
   facet normal -2.305518e-001 -7.895208e-017 -9.730601e-001
      outer loop
         vertex 9.608444e+002 9.504174e+002 8.902808e+001
         vertex 9.598341e+002 9.384173e+002 8.929877e+001
         vertex 9.598341e+002 9.504174e+002 8.929877e+001
      endloop
   endfacet
   facet normal -1.161583e-001 -6.549727e-017 -9.932307e-001
      outer loop
         vertex 9.598341e+002 9.504174e+002 8.929877e+001
         vertex 9.598341e+002 9.384173e+002 8.929877e+001
         vertex 9.587922e+002 9.384173e+002 8.938993e+001
      endloop
   endfacet
   facet normal -5.807914e-002 -5.840225e-017 -9.983120e-001
      outer loop
         vertex 9.598341e+002 9.504174e+002 8.929877e+001
         vertex 9.587922e+002 9.384173e+002 8.938993e+001
         vertex 9.587922e+002 9.504174e+002 8.938993e+001
      endloop
   endfacet
   facet normal 5.807914e-002 -4.369257e-017 -9.983120e-001
      outer loop
         vertex 9.587922e+002 9.504174e+002 8.938993e+001
         vertex 9.587922e+002 9.384173e+002 8.938993e+001
         vertex 9.577503e+002 9.384173e+002 8.929877e+001
      endloop
   endfacet
   facet normal 1.161583e-001 -3.607791e-017 -9.932307e-001
      outer loop
         vertex 9.587922e+002 9.504174e+002 8.938993e+001
         vertex 9.577503e+002 9.384173e+002 8.929877e+001
         vertex 9.577503e+002 9.504174e+002 8.929877e+001
      endloop
   endfacet
   facet normal 2.305518e-001 -2.056030e-017 -9.730601e-001
      outer loop
         vertex 9.577503e+002 9.504174e+002 8.929877e+001
         vertex 9.577503e+002 9.384173e+002 8.929877e+001
         vertex 9.567401e+002 9.384173e+002 8.902808e+001
      endloop
   endfacet
   facet normal 2.868663e-001 -1.265735e-017 -9.579706e-001
      outer loop
         vertex 9.577503e+002 9.504174e+002 8.929877e+001
         vertex 9.567401e+002 9.384173e+002 8.902808e+001
         vertex 9.567401e+002 9.504174e+002 8.902808e+001
      endloop
   endfacet
   facet normal 3.960194e-001 3.196693e-018 -9.182422e-001
      outer loop
         vertex 9.567401e+002 9.504174e+002 8.902808e+001
         vertex 9.567401e+002 9.384173e+002 8.902808e+001
         vertex 9.557922e+002 9.384173e+002 8.858607e+001
      endloop
   endfacet
   facet normal 4.488580e-001 1.114779e-017 -8.936031e-001
      outer loop
         vertex 9.567401e+002 9.504174e+002 8.902808e+001
         vertex 9.557922e+002 9.384173e+002 8.858607e+001
         vertex 9.557922e+002 9.504174e+002 8.858607e+001
      endloop
   endfacet
   facet normal 5.494540e-001 2.685655e-017 -8.355240e-001
      outer loop
         vertex 9.557922e+002 9.504174e+002 8.858607e+001
         vertex 9.557922e+002 9.384173e+002 8.858607e+001
         vertex 9.549355e+002 9.384173e+002 8.798619e+001
      endloop
   endfacet
   facet normal 5.972114e-001 3.461421e-017 -8.020839e-001
      outer loop
         vertex 9.557922e+002 9.504174e+002 8.858607e+001
         vertex 9.549355e+002 9.384173e+002 8.798619e+001
         vertex 9.549355e+002 9.504174e+002 8.798619e+001
      endloop
   endfacet
   facet normal 6.861938e-001 4.970039e-017 -7.274188e-001
      outer loop
         vertex 9.549355e+002 9.504174e+002 8.798619e+001
         vertex 9.549355e+002 9.384173e+002 8.798619e+001
         vertex 9.541959e+002 9.384173e+002 8.724666e+001
      endloop
   endfacet
   facet normal 7.274188e-001 5.702890e-017 -6.861938e-001
      outer loop
         vertex 9.549355e+002 9.504174e+002 8.798619e+001
         vertex 9.541959e+002 9.384173e+002 8.724666e+001
         vertex 9.541959e+002 9.504174e+002 8.724666e+001
      endloop
   endfacet
   facet normal 8.020839e-001 7.103410e-017 -5.972114e-001
      outer loop
         vertex 9.541959e+002 9.504174e+002 8.724666e+001
         vertex 9.541959e+002 9.384173e+002 8.724666e+001
         vertex 9.535961e+002 9.384173e+002 8.638993e+001
      endloop
   endfacet
   facet normal 8.355240e-001 7.771079e-017 -5.494540e-001
      outer loop
         vertex 9.541959e+002 9.504174e+002 8.724666e+001
         vertex 9.535961e+002 9.384173e+002 8.638993e+001
         vertex 9.535961e+002 9.504174e+002 8.638993e+001
      endloop
   endfacet
   facet normal 8.936031e-001 9.020948e-017 -4.488580e-001
      outer loop
         vertex 9.535961e+002 9.504174e+002 8.638993e+001
         vertex 9.535961e+002 9.384173e+002 8.638993e+001
         vertex 9.531541e+002 9.384173e+002 8.544205e+001
      endloop
   endfacet
   facet normal 9.182422e-001 9.603148e-017 -3.960194e-001
      outer loop
         vertex 9.535961e+002 9.504174e+002 8.638993e+001
         vertex 9.531541e+002 9.384173e+002 8.544205e+001
         vertex 9.531541e+002 9.504174e+002 8.544205e+001
      endloop
   endfacet
   facet normal 9.579706e-001 1.066439e-016 -2.868663e-001
      outer loop
         vertex 9.531541e+002 9.504174e+002 8.544205e+001
         vertex 9.531541e+002 9.384173e+002 8.544205e+001
         vertex 9.528834e+002 9.384173e+002 8.443182e+001
      endloop
   endfacet
   facet normal 9.730601e-001 1.114343e-016 -2.305518e-001
      outer loop
         vertex 9.531541e+002 9.504174e+002 8.544205e+001
         vertex 9.528834e+002 9.384173e+002 8.443182e+001
         vertex 9.528834e+002 9.504174e+002 8.443182e+001
      endloop
   endfacet
   facet normal 9.932307e-001 1.198380e-016 -1.161583e-001
      outer loop
         vertex 9.528834e+002 9.504174e+002 8.443182e+001
         vertex 9.528834e+002 9.384173e+002 8.443182e+001
         vertex 9.527922e+002 9.384173e+002 8.338993e+001
      endloop
   endfacet
   facet normal 9.983120e-001 1.234513e-016 -5.807914e-002
      outer loop
         vertex 9.528834e+002 9.504174e+002 8.443182e+001
         vertex 9.527922e+002 9.384173e+002 8.338993e+001
         vertex 9.527922e+002 9.504174e+002 8.338993e+001
      endloop
   endfacet
   facet normal 9.983120e-001 1.293909e-016 5.807914e-002
      outer loop
         vertex 9.527922e+002 9.504174e+002 8.338993e+001
         vertex 9.527922e+002 9.384173e+002 8.338993e+001
         vertex 9.528834e+002 9.384173e+002 8.234804e+001
      endloop
   endfacet
   facet normal 9.932307e-001 1.317172e-016 1.161583e-001
      outer loop
         vertex 9.527922e+002 9.504174e+002 8.338993e+001
         vertex 9.528834e+002 9.384173e+002 8.234804e+001
         vertex 9.528834e+002 9.504174e+002 8.234804e+001
      endloop
   endfacet
   facet normal 9.730601e-001 1.350122e-016 2.305518e-001
      outer loop
         vertex 9.528834e+002 9.504174e+002 8.234804e+001
         vertex 9.528834e+002 9.384173e+002 8.234804e+001
         vertex 9.531541e+002 9.384173e+002 8.133781e+001
      endloop
   endfacet
   facet normal 9.579706e-001 1.359810e-016 2.868663e-001
      outer loop
         vertex 9.528834e+002 9.504174e+002 8.234804e+001
         vertex 9.531541e+002 9.384173e+002 8.133781e+001
         vertex 9.531541e+002 9.504174e+002 8.133781e+001
      endloop
   endfacet
   facet normal 9.182422e-001 1.365314e-016 3.960194e-001
      outer loop
         vertex 9.531541e+002 9.504174e+002 8.133781e+001
         vertex 9.531541e+002 9.384173e+002 8.133781e+001
         vertex 9.535961e+002 9.384173e+002 8.038992e+001
      endloop
   endfacet
   facet normal 8.936031e-001 1.361130e-016 4.488580e-001
      outer loop
         vertex 9.531541e+002 9.504174e+002 8.133781e+001
         vertex 9.535961e+002 9.384173e+002 8.038992e+001
         vertex 9.535961e+002 9.504174e+002 8.038992e+001
      endloop
   endfacet
   facet normal 8.355240e-001 1.339021e-016 5.494540e-001
      outer loop
         vertex 9.535961e+002 9.504174e+002 8.038992e+001
         vertex 9.535961e+002 9.384173e+002 8.038992e+001
         vertex 9.541959e+002 9.384173e+002 7.953320e+001
      endloop
   endfacet
   facet normal 8.020839e-001 1.321094e-016 5.972114e-001
      outer loop
         vertex 9.535961e+002 9.504174e+002 8.038992e+001
         vertex 9.541959e+002 9.384173e+002 7.953320e+001
         vertex 9.541959e+002 9.504174e+002 7.953320e+001
      endloop
   endfacet
   facet normal 7.274188e-001 1.272042e-016 6.861938e-001
      outer loop
         vertex 9.541959e+002 9.504174e+002 7.953320e+001
         vertex 9.541959e+002 9.384173e+002 7.953320e+001
         vertex 9.549355e+002 9.384173e+002 7.879366e+001
      endloop
   endfacet
   facet normal 6.861938e-001 1.240917e-016 7.274188e-001
      outer loop
         vertex 9.541959e+002 9.504174e+002 7.953320e+001
         vertex 9.549355e+002 9.384173e+002 7.879366e+001
         vertex 9.549355e+002 9.504174e+002 7.879366e+001
      endloop
   endfacet
   facet normal 5.972114e-001 1.166413e-016 8.020839e-001
      outer loop
         vertex 9.549355e+002 9.504174e+002 7.879366e+001
         vertex 9.549355e+002 9.384173e+002 7.879366e+001
         vertex 9.557922e+002 9.384173e+002 7.819378e+001
      endloop
   endfacet
   facet normal 5.494540e-001 1.123035e-016 8.355240e-001
      outer loop
         vertex 9.549355e+002 9.504174e+002 7.879366e+001
         vertex 9.557922e+002 9.384173e+002 7.819378e+001
         vertex 9.557922e+002 9.504174e+002 7.819378e+001
      endloop
   endfacet
   facet normal 4.488580e-001 1.025343e-016 8.936031e-001
      outer loop
         vertex 9.557922e+002 9.504174e+002 7.819378e+001
         vertex 9.557922e+002 9.384173e+002 7.819378e+001
         vertex 9.567401e+002 9.384173e+002 7.775177e+001
      endloop
   endfacet
   facet normal 3.960194e-001 9.710298e-017 9.182422e-001
      outer loop
         vertex 9.557922e+002 9.504174e+002 7.819378e+001
         vertex 9.567401e+002 9.384173e+002 7.775177e+001
         vertex 9.567401e+002 9.504174e+002 7.775177e+001
      endloop
   endfacet
   facet normal 2.868663e-001 8.531187e-017 9.579706e-001
      outer loop
         vertex 9.567401e+002 9.504174e+002 7.775177e+001
         vertex 9.567401e+002 9.384173e+002 7.775177e+001
         vertex 9.577503e+002 9.384173e+002 7.748109e+001
      endloop
   endfacet
   facet normal 2.305518e-001 7.895208e-017 9.730601e-001
      outer loop
         vertex 9.567401e+002 9.504174e+002 7.775177e+001
         vertex 9.577503e+002 9.384173e+002 7.748109e+001
         vertex 9.577503e+002 9.504174e+002 7.748109e+001
      endloop
   endfacet
   facet normal 1.161583e-001 6.549727e-017 9.932307e-001
      outer loop
         vertex 9.577503e+002 9.504174e+002 7.748109e+001
         vertex 9.577503e+002 9.384173e+002 7.748109e+001
         vertex 9.587922e+002 9.384173e+002 7.738992e+001
      endloop
   endfacet
endsolid