solid 09.025.00.00.000 - 09.025.00.03.000-1 09.025.00.03.001-1 09.025.00.03.0AD-4
   facet normal 4.739759e-018 1.000000e+000 -4.305078e-016
      outer loop
         vertex 9.197922e+002 9.144173e+002 1.812390e+003
         vertex 9.197922e+002 9.144173e+002 1.762390e+003
         vertex 9.077922e+002 9.144173e+002 1.812390e+003
      endloop
   endfacet
   facet normal 4.739759e-018 1.000000e+000 -4.305078e-016
      outer loop
         vertex 9.077922e+002 9.144173e+002 1.812390e+003
         vertex 9.197922e+002 9.144173e+002 1.762390e+003
         vertex 9.077922e+002 9.144173e+002 1.762390e+003
      endloop
   endfacet
   facet normal 3.673109e-015 3.887079e-016 1.000000e+000
      outer loop
         vertex 9.077922e+002 9.044174e+002 1.822390e+003
         vertex 9.077922e+002 8.544173e+002 1.822390e+003
         vertex 9.197922e+002 9.044174e+002 1.822390e+003
      endloop
   endfacet
   facet normal 3.673109e-015 3.887079e-016 1.000000e+000
      outer loop
         vertex 9.197922e+002 9.044174e+002 1.822390e+003
         vertex 9.077922e+002 8.544173e+002 1.822390e+003
         vertex 9.197922e+002 8.544173e+002 1.822390e+003
      endloop
   endfacet
   facet normal -4.739759e-018 -1.000000e+000 4.305078e-016
      outer loop
         vertex 9.197922e+002 8.544173e+002 1.797390e+003
         vertex 9.197922e+002 8.544173e+002 1.822390e+003
         vertex 9.077922e+002 8.544173e+002 1.797390e+003
      endloop
   endfacet
   facet normal -4.739759e-018 -1.000000e+000 4.305078e-016
      outer loop
         vertex 9.077922e+002 8.544173e+002 1.797390e+003
         vertex 9.197922e+002 8.544173e+002 1.822390e+003
         vertex 9.077922e+002 8.544173e+002 1.822390e+003
      endloop
   endfacet
   facet normal -3.673109e-015 -2.730597e-016 -1.000000e+000
      outer loop
         vertex 9.077922e+002 8.894174e+002 1.762390e+003
         vertex 9.077922e+002 9.144173e+002 1.762390e+003
         vertex 9.197922e+002 8.894174e+002 1.762390e+003
      endloop
   endfacet
   facet normal -3.673109e-015 -2.730597e-016 -1.000000e+000
      outer loop
         vertex 9.197922e+002 8.894174e+002 1.762390e+003
         vertex 9.077922e+002 9.144173e+002 1.762390e+003
         vertex 9.197922e+002 9.144173e+002 1.762390e+003
      endloop
   endfacet
   facet normal 1.000000e+000 -9.714451e-017 -3.752611e-015
      outer loop
         vertex 9.197922e+002 8.946135e+002 1.800390e+003
         vertex 9.197922e+002 8.950555e+002 1.799442e+003
         vertex 9.197922e+002 9.144173e+002 1.812390e+003
      endloop
   endfacet
   facet normal 1.000000e+000 -9.714451e-017 -3.752611e-015
      outer loop
         vertex 9.197922e+002 9.144173e+002 1.812390e+003
         vertex 9.197922e+002 8.950555e+002 1.799442e+003
         vertex 9.197922e+002 8.953262e+002 1.798432e+003
      endloop
   endfacet
   facet normal 1.000000e+000 -9.714451e-017 -3.752611e-015
      outer loop
         vertex 9.197922e+002 8.950555e+002 1.795338e+003
         vertex 9.197922e+002 9.144173e+002 1.762390e+003
         vertex 9.197922e+002 8.953262e+002 1.796348e+003
      endloop
   endfacet
   facet normal 1.000000e+000 -9.714451e-017 -3.752611e-015
      outer loop
         vertex 9.197922e+002 8.953262e+002 1.796348e+003
         vertex 9.197922e+002 9.144173e+002 1.762390e+003
         vertex 9.197922e+002 9.144173e+002 1.812390e+003
      endloop
   endfacet
   facet normal 1.000000e+000 -9.714451e-017 -3.752611e-015
      outer loop
         vertex 9.197922e+002 8.953262e+002 1.796348e+003
         vertex 9.197922e+002 9.144173e+002 1.812390e+003
         vertex 9.197922e+002 8.954174e+002 1.797390e+003
      endloop
   endfacet
   facet normal 1.000000e+000 -9.714451e-017 -3.752611e-015
      outer loop
         vertex 9.197922e+002 8.954174e+002 1.797390e+003
         vertex 9.197922e+002 9.144173e+002 1.812390e+003
         vertex 9.197922e+002 8.953262e+002 1.798432e+003
      endloop
   endfacet
   facet normal 1.000000e+000 -9.714451e-017 -3.752611e-015
      outer loop
         vertex 9.197922e+002 8.950555e+002 1.795338e+003
         vertex 9.197922e+002 8.946135e+002 1.794390e+003
         vertex 9.197922e+002 9.144173e+002 1.762390e+003
      endloop
   endfacet
   facet normal 1.000000e+000 -9.714451e-017 -3.752611e-015
      outer loop
         vertex 9.197922e+002 9.144173e+002 1.762390e+003
         vertex 9.197922e+002 8.946135e+002 1.794390e+003
         vertex 9.197922e+002 8.940136e+002 1.793533e+003
      endloop
   endfacet
   facet normal 1.000000e+000 -9.714451e-017 -3.752611e-015
      outer loop
         vertex 9.197922e+002 9.144173e+002 1.762390e+003
         vertex 9.197922e+002 8.940136e+002 1.793533e+003
         vertex 9.197922e+002 8.932740e+002 1.792794e+003
      endloop
   endfacet
   facet normal 1.000000e+000 -9.714451e-017 -3.752611e-015
      outer loop
         vertex 9.197922e+002 8.842212e+002 1.794390e+003
         vertex 9.197922e+002 8.837792e+002 1.795338e+003
         vertex 9.197922e+002 8.544173e+002 1.797390e+003
      endloop
   endfacet
   facet normal 1.000000e+000 -9.714451e-017 -3.752611e-015
      outer loop
         vertex 9.197922e+002 8.544173e+002 1.797390e+003
         vertex 9.197922e+002 8.837792e+002 1.795338e+003
         vertex 9.197922e+002 8.835085e+002 1.796348e+003
      endloop
   endfacet
   facet normal 1.000000e+000 -9.714451e-017 -3.752611e-015
      outer loop
         vertex 9.197922e+002 8.894174e+002 1.803390e+003
         vertex 9.197922e+002 8.904592e+002 1.803299e+003
         vertex 9.197922e+002 9.044174e+002 1.822390e+003
      endloop
   endfacet
   facet normal 1.000000e+000 -9.714451e-017 -3.752611e-015
      outer loop
         vertex 9.197922e+002 9.044174e+002 1.822390e+003
         vertex 9.197922e+002 8.904592e+002 1.803299e+003
         vertex 9.197922e+002 8.914695e+002 1.803028e+003
      endloop
   endfacet
   facet normal 1.000000e+000 -9.714451e-017 -3.752611e-015
      outer loop
         vertex 9.197922e+002 8.904592e+002 1.791481e+003
         vertex 9.197922e+002 8.894174e+002 1.762390e+003
         vertex 9.197922e+002 8.914695e+002 1.791752e+003
      endloop
   endfacet
   facet normal 1.000000e+000 -9.714451e-017 -3.752611e-015
      outer loop
         vertex 9.197922e+002 8.914695e+002 1.791752e+003
         vertex 9.197922e+002 8.894174e+002 1.762390e+003
         vertex 9.197922e+002 9.144173e+002 1.762390e+003
      endloop
   endfacet
   facet normal 1.000000e+000 -9.714451e-017 -3.752611e-015
      outer loop
         vertex 9.197922e+002 8.914695e+002 1.791752e+003
         vertex 9.197922e+002 9.144173e+002 1.762390e+003
         vertex 9.197922e+002 8.924173e+002 1.792194e+003
      endloop
   endfacet
   facet normal 1.000000e+000 -9.714451e-017 -3.752611e-015
      outer loop
         vertex 9.197922e+002 8.924173e+002 1.792194e+003
         vertex 9.197922e+002 9.144173e+002 1.762390e+003
         vertex 9.197922e+002 8.932740e+002 1.792794e+003
      endloop
   endfacet
   facet normal 1.000000e+000 -9.714451e-017 -3.752611e-015
      outer loop
         vertex 9.197922e+002 8.904592e+002 1.791481e+003
         vertex 9.197922e+002 8.894174e+002 1.791390e+003
         vertex 9.197922e+002 8.894174e+002 1.762390e+003
      endloop
   endfacet
   facet normal 1.000000e+000 -9.714451e-017 -3.752611e-015
      outer loop
         vertex 9.197922e+002 8.894174e+002 1.762390e+003
         vertex 9.197922e+002 8.894174e+002 1.791390e+003
         vertex 9.197922e+002 8.883755e+002 1.791481e+003
      endloop
   endfacet
   facet normal 1.000000e+000 -9.714451e-017 -3.752611e-015
      outer loop
         vertex 9.197922e+002 8.894174e+002 1.762390e+003
         vertex 9.197922e+002 8.883755e+002 1.791481e+003
         vertex 9.197922e+002 8.873652e+002 1.791752e+003
      endloop
   endfacet
   facet normal 1.000000e+000 -9.714451e-017 -3.752611e-015
      outer loop
         vertex 9.197922e+002 8.835085e+002 1.796348e+003
         vertex 9.197922e+002 8.834173e+002 1.797390e+003
         vertex 9.197922e+002 8.544173e+002 1.797390e+003
      endloop
   endfacet
   facet normal 1.000000e+000 -9.714451e-017 -3.752611e-015
      outer loop
         vertex 9.197922e+002 8.544173e+002 1.797390e+003
         vertex 9.197922e+002 8.834173e+002 1.797390e+003
         vertex 9.197922e+002 8.835085e+002 1.798432e+003
      endloop
   endfacet
   facet normal 1.000000e+000 -9.714451e-017 -3.752611e-015
      outer loop
         vertex 9.197922e+002 8.544173e+002 1.797390e+003
         vertex 9.197922e+002 8.835085e+002 1.798432e+003
         vertex 9.197922e+002 8.544173e+002 1.822390e+003
      endloop
   endfacet
   facet normal 1.000000e+000 -9.714451e-017 -3.752611e-015
      outer loop
         vertex 9.197922e+002 8.544173e+002 1.822390e+003
         vertex 9.197922e+002 8.835085e+002 1.798432e+003
         vertex 9.197922e+002 8.837792e+002 1.799442e+003
      endloop
   endfacet
   facet normal 1.000000e+000 -9.714451e-017 -3.752611e-015
      outer loop
         vertex 9.197922e+002 8.873652e+002 1.791752e+003
         vertex 9.197922e+002 8.864174e+002 1.792194e+003
         vertex 9.197922e+002 8.894174e+002 1.762390e+003
      endloop
   endfacet
   facet normal 1.000000e+000 -9.714451e-017 -3.752611e-015
      outer loop
         vertex 9.197922e+002 8.894174e+002 1.762390e+003
         vertex 9.197922e+002 8.864174e+002 1.792194e+003
         vertex 9.197922e+002 8.855606e+002 1.792794e+003
      endloop
   endfacet
   facet normal 1.000000e+000 -9.714451e-017 -3.752611e-015
      outer loop
         vertex 9.197922e+002 8.894174e+002 1.762390e+003
         vertex 9.197922e+002 8.855606e+002 1.792794e+003
         vertex 9.197922e+002 8.544173e+002 1.797390e+003
      endloop
   endfacet
   facet normal 1.000000e+000 -9.714451e-017 -3.752611e-015
      outer loop
         vertex 9.197922e+002 8.544173e+002 1.797390e+003
         vertex 9.197922e+002 8.855606e+002 1.792794e+003
         vertex 9.197922e+002 8.848210e+002 1.793533e+003
      endloop
   endfacet
   facet normal 1.000000e+000 -9.714451e-017 -3.752611e-015
      outer loop
         vertex 9.197922e+002 8.544173e+002 1.797390e+003
         vertex 9.197922e+002 8.848210e+002 1.793533e+003
         vertex 9.197922e+002 8.842212e+002 1.794390e+003
      endloop
   endfacet
   facet normal 1.000000e+000 -9.714451e-017 -3.752611e-015
      outer loop
         vertex 9.197922e+002 8.837792e+002 1.799442e+003
         vertex 9.197922e+002 8.842212e+002 1.800390e+003
         vertex 9.197922e+002 8.544173e+002 1.822390e+003
      endloop
   endfacet
   facet normal 1.000000e+000 -9.714451e-017 -3.752611e-015
      outer loop
         vertex 9.197922e+002 8.544173e+002 1.822390e+003
         vertex 9.197922e+002 8.842212e+002 1.800390e+003
         vertex 9.197922e+002 8.848210e+002 1.801247e+003
      endloop
   endfacet
   facet normal 1.000000e+000 -9.714451e-017 -3.752611e-015
      outer loop
         vertex 9.197922e+002 8.544173e+002 1.822390e+003
         vertex 9.197922e+002 8.848210e+002 1.801247e+003
         vertex 9.197922e+002 8.855606e+002 1.801986e+003
      endloop
   endfacet
   facet normal 1.000000e+000 -9.714451e-017 -3.752611e-015
      outer loop
         vertex 9.197922e+002 8.855606e+002 1.801986e+003
         vertex 9.197922e+002 8.864174e+002 1.802586e+003
         vertex 9.197922e+002 8.544173e+002 1.822390e+003
      endloop
   endfacet
   facet normal 1.000000e+000 -9.714451e-017 -3.752611e-015
      outer loop
         vertex 9.197922e+002 8.544173e+002 1.822390e+003
         vertex 9.197922e+002 8.864174e+002 1.802586e+003
         vertex 9.197922e+002 8.873652e+002 1.803028e+003
      endloop
   endfacet
   facet normal 1.000000e+000 -9.714451e-017 -3.752611e-015
      outer loop
         vertex 9.197922e+002 8.544173e+002 1.822390e+003
         vertex 9.197922e+002 8.873652e+002 1.803028e+003
         vertex 9.197922e+002 9.044174e+002 1.822390e+003
      endloop
   endfacet
   facet normal 1.000000e+000 -9.714451e-017 -3.752611e-015
      outer loop
         vertex 9.197922e+002 9.044174e+002 1.822390e+003
         vertex 9.197922e+002 8.873652e+002 1.803028e+003
         vertex 9.197922e+002 8.883755e+002 1.803299e+003
      endloop
   endfacet
   facet normal 1.000000e+000 -9.714451e-017 -3.752611e-015
      outer loop
         vertex 9.197922e+002 9.044174e+002 1.822390e+003
         vertex 9.197922e+002 8.883755e+002 1.803299e+003
         vertex 9.197922e+002 8.894174e+002 1.803390e+003
      endloop
   endfacet
   facet normal 1.000000e+000 -9.714451e-017 -3.752611e-015
      outer loop
         vertex 9.197922e+002 8.914695e+002 1.803028e+003
         vertex 9.197922e+002 8.924173e+002 1.802586e+003
         vertex 9.197922e+002 9.044174e+002 1.822390e+003
      endloop
   endfacet
   facet normal 1.000000e+000 -9.714451e-017 -3.752611e-015
      outer loop
         vertex 9.197922e+002 9.044174e+002 1.822390e+003
         vertex 9.197922e+002 8.924173e+002 1.802586e+003
         vertex 9.197922e+002 8.932740e+002 1.801986e+003
      endloop
   endfacet
   facet normal 1.000000e+000 -9.714451e-017 -3.752611e-015
      outer loop
         vertex 9.197922e+002 9.044174e+002 1.822390e+003
         vertex 9.197922e+002 8.932740e+002 1.801986e+003
         vertex 9.197922e+002 9.144173e+002 1.812390e+003
      endloop
   endfacet
   facet normal 1.000000e+000 -9.714451e-017 -3.752611e-015
      outer loop
         vertex 9.197922e+002 9.144173e+002 1.812390e+003
         vertex 9.197922e+002 8.932740e+002 1.801986e+003
         vertex 9.197922e+002 8.940136e+002 1.801247e+003
      endloop
   endfacet
   facet normal 1.000000e+000 -9.714451e-017 -3.752611e-015
      outer loop
         vertex 9.197922e+002 9.144173e+002 1.812390e+003
         vertex 9.197922e+002 8.940136e+002 1.801247e+003
         vertex 9.197922e+002 8.946135e+002 1.800390e+003
      endloop
   endfacet
   facet normal -1.000000e+000 9.714451e-017 3.752611e-015
      outer loop
         vertex 9.077922e+002 8.954174e+002 1.797390e+003
         vertex 9.077922e+002 8.953262e+002 1.798432e+003
         vertex 9.077922e+002 9.144173e+002 1.812390e+003
      endloop
   endfacet
   facet normal -1.000000e+000 9.714451e-017 3.752611e-015
      outer loop
         vertex 9.077922e+002 9.144173e+002 1.812390e+003
         vertex 9.077922e+002 8.953262e+002 1.798432e+003
         vertex 9.077922e+002 8.950555e+002 1.799442e+003
      endloop
   endfacet
   facet normal -1.000000e+000 9.714451e-017 3.752611e-015
      outer loop
         vertex 9.077922e+002 8.914695e+002 1.803028e+003
         vertex 9.077922e+002 8.904592e+002 1.803299e+003
         vertex 9.077922e+002 9.044174e+002 1.822390e+003
      endloop
   endfacet
   facet normal -1.000000e+000 9.714451e-017 3.752611e-015
      outer loop
         vertex 9.077922e+002 8.914695e+002 1.803028e+003
         vertex 9.077922e+002 9.044174e+002 1.822390e+003
         vertex 9.077922e+002 8.924173e+002 1.802586e+003
      endloop
   endfacet
   facet normal -1.000000e+000 9.714451e-017 3.752611e-015
      outer loop
         vertex 9.077922e+002 8.864174e+002 1.792194e+003
         vertex 9.077922e+002 8.873652e+002 1.791752e+003
         vertex 9.077922e+002 8.894174e+002 1.762390e+003
      endloop
   endfacet
   facet normal -1.000000e+000 9.714451e-017 3.752611e-015
      outer loop
         vertex 9.077922e+002 8.894174e+002 1.762390e+003
         vertex 9.077922e+002 8.873652e+002 1.791752e+003
         vertex 9.077922e+002 8.883755e+002 1.791481e+003
      endloop
   endfacet
   facet normal -1.000000e+000 9.714451e-017 3.752611e-015
      outer loop
         vertex 9.077922e+002 8.924173e+002 1.792194e+003
         vertex 9.077922e+002 8.932740e+002 1.792794e+003
         vertex 9.077922e+002 9.144173e+002 1.762390e+003
      endloop
   endfacet
   facet normal -1.000000e+000 9.714451e-017 3.752611e-015
      outer loop
         vertex 9.077922e+002 9.144173e+002 1.762390e+003
         vertex 9.077922e+002 8.932740e+002 1.792794e+003
         vertex 9.077922e+002 8.940136e+002 1.793533e+003
      endloop
   endfacet
   facet normal -1.000000e+000 9.714451e-017 3.752611e-015
      outer loop
         vertex 9.077922e+002 8.883755e+002 1.791481e+003
         vertex 9.077922e+002 8.894174e+002 1.791390e+003
         vertex 9.077922e+002 8.894174e+002 1.762390e+003
      endloop
   endfacet
   facet normal -1.000000e+000 9.714451e-017 3.752611e-015
      outer loop
         vertex 9.077922e+002 8.894174e+002 1.762390e+003
         vertex 9.077922e+002 8.894174e+002 1.791390e+003
         vertex 9.077922e+002 8.904592e+002 1.791481e+003
      endloop
   endfacet
   facet normal -1.000000e+000 9.714451e-017 3.752611e-015
      outer loop
         vertex 9.077922e+002 8.894174e+002 1.762390e+003
         vertex 9.077922e+002 8.904592e+002 1.791481e+003
         vertex 9.077922e+002 9.144173e+002 1.762390e+003
      endloop
   endfacet
   facet normal -1.000000e+000 9.714451e-017 3.752611e-015
      outer loop
         vertex 9.077922e+002 9.144173e+002 1.762390e+003
         vertex 9.077922e+002 8.904592e+002 1.791481e+003
         vertex 9.077922e+002 8.914695e+002 1.791752e+003
      endloop
   endfacet
   facet normal -1.000000e+000 9.714451e-017 3.752611e-015
      outer loop
         vertex 9.077922e+002 9.144173e+002 1.762390e+003
         vertex 9.077922e+002 8.914695e+002 1.791752e+003
         vertex 9.077922e+002 8.924173e+002 1.792194e+003
      endloop
   endfacet
   facet normal -1.000000e+000 9.714451e-017 3.752611e-015
      outer loop
         vertex 9.077922e+002 8.940136e+002 1.793533e+003
         vertex 9.077922e+002 8.946135e+002 1.794390e+003
         vertex 9.077922e+002 9.144173e+002 1.762390e+003
      endloop
   endfacet
   facet normal -1.000000e+000 9.714451e-017 3.752611e-015
      outer loop
         vertex 9.077922e+002 9.144173e+002 1.762390e+003
         vertex 9.077922e+002 8.946135e+002 1.794390e+003
         vertex 9.077922e+002 8.950555e+002 1.795338e+003
      endloop
   endfacet
   facet normal -1.000000e+000 9.714451e-017 3.752611e-015
      outer loop
         vertex 9.077922e+002 9.144173e+002 1.762390e+003
         vertex 9.077922e+002 8.950555e+002 1.795338e+003
         vertex 9.077922e+002 9.144173e+002 1.812390e+003
      endloop
   endfacet
   facet normal -1.000000e+000 9.714451e-017 3.752611e-015
      outer loop
         vertex 9.077922e+002 9.144173e+002 1.812390e+003
         vertex 9.077922e+002 8.950555e+002 1.795338e+003
         vertex 9.077922e+002 8.953262e+002 1.796348e+003
      endloop
   endfacet
   facet normal -1.000000e+000 9.714451e-017 3.752611e-015
      outer loop
         vertex 9.077922e+002 9.144173e+002 1.812390e+003
         vertex 9.077922e+002 8.953262e+002 1.796348e+003
         vertex 9.077922e+002 8.954174e+002 1.797390e+003
      endloop
   endfacet
   facet normal -1.000000e+000 9.714451e-017 3.752611e-015
      outer loop
         vertex 9.077922e+002 8.950555e+002 1.799442e+003
         vertex 9.077922e+002 8.946135e+002 1.800390e+003
         vertex 9.077922e+002 9.144173e+002 1.812390e+003
      endloop
   endfacet
   facet normal -1.000000e+000 9.714451e-017 3.752611e-015
      outer loop
         vertex 9.077922e+002 9.144173e+002 1.812390e+003
         vertex 9.077922e+002 8.946135e+002 1.800390e+003
         vertex 9.077922e+002 8.940136e+002 1.801247e+003
      endloop
   endfacet
   facet normal -1.000000e+000 9.714451e-017 3.752611e-015
      outer loop
         vertex 9.077922e+002 9.144173e+002 1.812390e+003
         vertex 9.077922e+002 8.940136e+002 1.801247e+003
         vertex 9.077922e+002 9.044174e+002 1.822390e+003
      endloop
   endfacet
   facet normal -1.000000e+000 9.714451e-017 3.752611e-015
      outer loop
         vertex 9.077922e+002 9.044174e+002 1.822390e+003
         vertex 9.077922e+002 8.940136e+002 1.801247e+003
         vertex 9.077922e+002 8.932740e+002 1.801986e+003
      endloop
   endfacet
   facet normal -1.000000e+000 9.714451e-017 3.752611e-015
      outer loop
         vertex 9.077922e+002 9.044174e+002 1.822390e+003
         vertex 9.077922e+002 8.932740e+002 1.801986e+003
         vertex 9.077922e+002 8.924173e+002 1.802586e+003
      endloop
   endfacet
   facet normal -1.000000e+000 9.714451e-017 3.752611e-015
      outer loop
         vertex 9.077922e+002 8.873652e+002 1.803028e+003
         vertex 9.077922e+002 8.544173e+002 1.822390e+003
         vertex 9.077922e+002 8.883755e+002 1.803299e+003
      endloop
   endfacet
   facet normal -1.000000e+000 9.714451e-017 3.752611e-015
      outer loop
         vertex 9.077922e+002 8.883755e+002 1.803299e+003
         vertex 9.077922e+002 8.544173e+002 1.822390e+003
         vertex 9.077922e+002 9.044174e+002 1.822390e+003
      endloop
   endfacet
   facet normal -1.000000e+000 9.714451e-017 3.752611e-015
      outer loop
         vertex 9.077922e+002 8.883755e+002 1.803299e+003
         vertex 9.077922e+002 9.044174e+002 1.822390e+003
         vertex 9.077922e+002 8.894174e+002 1.803390e+003
      endloop
   endfacet
   facet normal -1.000000e+000 9.714451e-017 3.752611e-015
      outer loop
         vertex 9.077922e+002 8.894174e+002 1.803390e+003
         vertex 9.077922e+002 9.044174e+002 1.822390e+003
         vertex 9.077922e+002 8.904592e+002 1.803299e+003
      endloop
   endfacet
   facet normal -1.000000e+000 9.714451e-017 3.752611e-015
      outer loop
         vertex 9.077922e+002 8.873652e+002 1.803028e+003
         vertex 9.077922e+002 8.864174e+002 1.802586e+003
         vertex 9.077922e+002 8.544173e+002 1.822390e+003
      endloop
   endfacet
   facet normal -1.000000e+000 9.714451e-017 3.752611e-015
      outer loop
         vertex 9.077922e+002 8.544173e+002 1.822390e+003
         vertex 9.077922e+002 8.864174e+002 1.802586e+003
         vertex 9.077922e+002 8.855606e+002 1.801986e+003
      endloop
   endfacet
   facet normal -1.000000e+000 9.714451e-017 3.752611e-015
      outer loop
         vertex 9.077922e+002 8.544173e+002 1.822390e+003
         vertex 9.077922e+002 8.855606e+002 1.801986e+003
         vertex 9.077922e+002 8.848210e+002 1.801247e+003
      endloop
   endfacet
   facet normal -1.000000e+000 9.714451e-017 3.752611e-015
      outer loop
         vertex 9.077922e+002 8.837792e+002 1.795338e+003
         vertex 9.077922e+002 8.544173e+002 1.797390e+003
         vertex 9.077922e+002 8.835085e+002 1.796348e+003
      endloop
   endfacet
   facet normal -1.000000e+000 9.714451e-017 3.752611e-015
      outer loop
         vertex 9.077922e+002 8.835085e+002 1.796348e+003
         vertex 9.077922e+002 8.544173e+002 1.797390e+003
         vertex 9.077922e+002 8.834173e+002 1.797390e+003
      endloop
   endfacet
   facet normal -1.000000e+000 9.714451e-017 3.752611e-015
      outer loop
         vertex 9.077922e+002 8.837792e+002 1.795338e+003
         vertex 9.077922e+002 8.842212e+002 1.794390e+003
         vertex 9.077922e+002 8.544173e+002 1.797390e+003
      endloop
   endfacet
   facet normal -1.000000e+000 9.714451e-017 3.752611e-015
      outer loop
         vertex 9.077922e+002 8.544173e+002 1.797390e+003
         vertex 9.077922e+002 8.842212e+002 1.794390e+003
         vertex 9.077922e+002 8.848210e+002 1.793533e+003
      endloop
   endfacet
   facet normal -1.000000e+000 9.714451e-017 3.752611e-015
      outer loop
         vertex 9.077922e+002 8.544173e+002 1.797390e+003
         vertex 9.077922e+002 8.848210e+002 1.793533e+003
         vertex 9.077922e+002 8.894174e+002 1.762390e+003
      endloop
   endfacet
   facet normal -1.000000e+000 9.714451e-017 3.752611e-015
      outer loop
         vertex 9.077922e+002 8.894174e+002 1.762390e+003
         vertex 9.077922e+002 8.848210e+002 1.793533e+003
         vertex 9.077922e+002 8.855606e+002 1.792794e+003
      endloop
   endfacet
   facet normal -1.000000e+000 9.714451e-017 3.752611e-015
      outer loop
         vertex 9.077922e+002 8.894174e+002 1.762390e+003
         vertex 9.077922e+002 8.855606e+002 1.792794e+003
         vertex 9.077922e+002 8.864174e+002 1.792194e+003
      endloop
   endfacet
   facet normal -1.000000e+000 9.714451e-017 3.752611e-015
      outer loop
         vertex 9.077922e+002 8.848210e+002 1.801247e+003
         vertex 9.077922e+002 8.842212e+002 1.800390e+003
         vertex 9.077922e+002 8.544173e+002 1.822390e+003
      endloop
   endfacet
   facet normal -1.000000e+000 9.714451e-017 3.752611e-015
      outer loop
         vertex 9.077922e+002 8.544173e+002 1.822390e+003
         vertex 9.077922e+002 8.842212e+002 1.800390e+003
         vertex 9.077922e+002 8.837792e+002 1.799442e+003
      endloop
   endfacet
   facet normal -1.000000e+000 9.714451e-017 3.752611e-015
      outer loop
         vertex 9.077922e+002 8.544173e+002 1.822390e+003
         vertex 9.077922e+002 8.837792e+002 1.799442e+003
         vertex 9.077922e+002 8.544173e+002 1.797390e+003
      endloop
   endfacet
   facet normal -1.000000e+000 9.714451e-017 3.752611e-015
      outer loop
         vertex 9.077922e+002 8.544173e+002 1.797390e+003
         vertex 9.077922e+002 8.837792e+002 1.799442e+003
         vertex 9.077922e+002 8.835085e+002 1.798432e+003
      endloop
   endfacet
   facet normal -1.000000e+000 9.714451e-017 3.752611e-015
      outer loop
         vertex 9.077922e+002 8.544173e+002 1.797390e+003
         vertex 9.077922e+002 8.835085e+002 1.798432e+003
         vertex 9.077922e+002 8.834173e+002 1.797390e+003
      endloop
   endfacet
   facet normal -2.600632e-015 -7.071068e-001 -7.071068e-001
      outer loop
         vertex 9.077922e+002 8.544173e+002 1.797390e+003
         vertex 9.077922e+002 8.894174e+002 1.762390e+003
         vertex 9.197922e+002 8.544173e+002 1.797390e+003
      endloop
   endfacet
   facet normal -2.600632e-015 -7.071068e-001 -7.071068e-001
      outer loop
         vertex 9.197922e+002 8.544173e+002 1.797390e+003
         vertex 9.077922e+002 8.894174e+002 1.762390e+003
         vertex 9.197922e+002 8.894174e+002 1.762390e+003
      endloop
   endfacet
   facet normal 2.600632e-015 7.071068e-001 7.071068e-001
      outer loop
         vertex 9.077922e+002 9.144173e+002 1.812390e+003
         vertex 9.077922e+002 9.044174e+002 1.822390e+003
         vertex 9.197922e+002 9.144173e+002 1.812390e+003
      endloop
   endfacet
   facet normal 2.600632e-015 7.071068e-001 7.071068e-001
      outer loop
         vertex 9.197922e+002 9.144173e+002 1.812390e+003
         vertex 9.077922e+002 9.044174e+002 1.822390e+003
         vertex 9.197922e+002 9.044174e+002 1.822390e+003
      endloop
   endfacet
   facet normal -2.180628e-016 -9.983120e-001 -5.807914e-002
      outer loop
         vertex 9.197922e+002 8.953262e+002 1.798432e+003
         vertex 9.077922e+002 8.954174e+002 1.797390e+003
         vertex 9.197922e+002 8.954174e+002 1.797390e+003
      endloop
   endfacet
   facet normal 2.085993e-016 -9.983120e-001 5.807914e-002
      outer loop
         vertex 9.197922e+002 8.954174e+002 1.797390e+003
         vertex 9.077922e+002 8.954174e+002 1.797390e+003
         vertex 9.077922e+002 8.953262e+002 1.796348e+003
      endloop
   endfacet
   facet normal 4.219544e-016 -9.932307e-001 1.161583e-001
      outer loop
         vertex 9.197922e+002 8.954174e+002 1.797390e+003
         vertex 9.077922e+002 8.953262e+002 1.796348e+003
         vertex 9.197922e+002 8.953262e+002 1.796348e+003
      endloop
   endfacet
   facet normal 8.422300e-016 -9.730601e-001 2.305518e-001
      outer loop
         vertex 9.197922e+002 8.953262e+002 1.796348e+003
         vertex 9.077922e+002 8.953262e+002 1.796348e+003
         vertex 9.077922e+002 8.950555e+002 1.795338e+003
      endloop
   endfacet
   facet normal 1.049151e-015 -9.579706e-001 2.868663e-001
      outer loop
         vertex 9.197922e+002 8.953262e+002 1.796348e+003
         vertex 9.077922e+002 8.950555e+002 1.795338e+003
         vertex 9.197922e+002 8.950555e+002 1.795338e+003
      endloop
   endfacet
   facet normal 1.450270e-015 -9.182422e-001 3.960194e-001
      outer loop
         vertex 9.197922e+002 8.950555e+002 1.795338e+003
         vertex 9.077922e+002 8.950555e+002 1.795338e+003
         vertex 9.077922e+002 8.946135e+002 1.794390e+003
      endloop
   endfacet
   facet normal 1.644469e-015 -8.936031e-001 4.488580e-001
      outer loop
         vertex 9.197922e+002 8.950555e+002 1.795338e+003
         vertex 9.077922e+002 8.946135e+002 1.794390e+003
         vertex 9.197922e+002 8.946135e+002 1.794390e+003
      endloop
   endfacet
   facet normal 2.014244e-015 -8.355240e-001 5.494540e-001
      outer loop
         vertex 9.197922e+002 8.946135e+002 1.794390e+003
         vertex 9.077922e+002 8.946135e+002 1.794390e+003
         vertex 9.077922e+002 8.940136e+002 1.793533e+003
      endloop
   endfacet
   facet normal 2.189821e-015 -8.020839e-001 5.972114e-001
      outer loop
         vertex 9.197922e+002 8.946135e+002 1.794390e+003
         vertex 9.077922e+002 8.940136e+002 1.793533e+003
         vertex 9.197922e+002 8.940136e+002 1.793533e+003
      endloop
   endfacet
   facet normal 2.517017e-015 -7.274188e-001 6.861938e-001
      outer loop
         vertex 9.197922e+002 8.940136e+002 1.793533e+003
         vertex 9.077922e+002 8.940136e+002 1.793533e+003
         vertex 9.077922e+002 8.932740e+002 1.792794e+003
      endloop
   endfacet
   facet normal 2.668636e-015 -6.861938e-001 7.274188e-001
      outer loop
         vertex 9.197922e+002 8.940136e+002 1.793533e+003
         vertex 9.077922e+002 8.932740e+002 1.792794e+003
         vertex 9.197922e+002 8.932740e+002 1.792794e+003
      endloop
   endfacet
   facet normal 2.943311e-015 -5.972114e-001 8.020839e-001
      outer loop
         vertex 9.197922e+002 8.932740e+002 1.792794e+003
         vertex 9.077922e+002 8.932740e+002 1.792794e+003
         vertex 9.077922e+002 8.924173e+002 1.792194e+003
      endloop
   endfacet
   facet normal 3.066367e-015 -5.494540e-001 8.355240e-001
      outer loop
         vertex 9.197922e+002 8.932740e+002 1.792794e+003
         vertex 9.077922e+002 8.924173e+002 1.792194e+003
         vertex 9.197922e+002 8.924173e+002 1.792194e+003
      endloop
   endfacet
   facet normal 3.280174e-015 -4.488580e-001 8.936031e-001
      outer loop
         vertex 9.197922e+002 8.924173e+002 1.792194e+003
         vertex 9.077922e+002 8.924173e+002 1.792194e+003
         vertex 9.077922e+002 8.914695e+002 1.791752e+003
      endloop
   endfacet
   facet normal 3.370927e-015 -3.960194e-001 9.182422e-001
      outer loop
         vertex 9.197922e+002 8.924173e+002 1.792194e+003
         vertex 9.077922e+002 8.914695e+002 1.791752e+003
         vertex 9.197922e+002 8.914695e+002 1.791752e+003
      endloop
   endfacet
   facet normal 3.517371e-015 -2.868663e-001 9.579706e-001
      outer loop
         vertex 9.197922e+002 8.914695e+002 1.791752e+003
         vertex 9.077922e+002 8.914695e+002 1.791752e+003
         vertex 9.077922e+002 8.904592e+002 1.791481e+003
      endloop
   endfacet
   facet normal 3.573063e-015 -2.305518e-001 9.730601e-001
      outer loop
         vertex 9.197922e+002 8.914695e+002 1.791752e+003
         vertex 9.077922e+002 8.904592e+002 1.791481e+003
         vertex 9.197922e+002 8.904592e+002 1.791481e+003
      endloop
   endfacet
   facet normal 3.647694e-015 -1.161583e-001 9.932307e-001
      outer loop
         vertex 9.197922e+002 8.904592e+002 1.791481e+003
         vertex 9.077922e+002 8.904592e+002 1.791481e+003
         vertex 9.077922e+002 8.894174e+002 1.791390e+003
      endloop
   endfacet
   facet normal 3.666634e-015 -5.807914e-002 9.983120e-001
      outer loop
         vertex 9.197922e+002 8.904592e+002 1.791481e+003
         vertex 9.077922e+002 8.894174e+002 1.791390e+003
         vertex 9.197922e+002 8.894174e+002 1.791390e+003
      endloop
   endfacet
   facet normal 3.667184e-015 5.807914e-002 9.983120e-001
      outer loop
         vertex 9.197922e+002 8.894174e+002 1.791390e+003
         vertex 9.077922e+002 8.894174e+002 1.791390e+003
         vertex 9.077922e+002 8.883755e+002 1.791481e+003
      endloop
   endfacet
   facet normal 3.648796e-015 1.161583e-001 9.932307e-001
      outer loop
         vertex 9.197922e+002 8.894174e+002 1.791390e+003
         vertex 9.077922e+002 8.883755e+002 1.791481e+003
         vertex 9.197922e+002 8.883755e+002 1.791481e+003
      endloop
   endfacet
   facet normal 3.575249e-015 2.305518e-001 9.730601e-001
      outer loop
         vertex 9.197922e+002 8.883755e+002 1.791481e+003
         vertex 9.077922e+002 8.883755e+002 1.791481e+003
         vertex 9.077922e+002 8.873652e+002 1.791752e+003
      endloop
   endfacet
   facet normal 3.520090e-015 2.868663e-001 9.579706e-001
      outer loop
         vertex 9.197922e+002 8.883755e+002 1.791481e+003
         vertex 9.077922e+002 8.873652e+002 1.791752e+003
         vertex 9.197922e+002 8.873652e+002 1.791752e+003
      endloop
   endfacet
   facet normal 3.374681e-015 3.960194e-001 9.182422e-001
      outer loop
         vertex 9.197922e+002 8.873652e+002 1.791752e+003
         vertex 9.077922e+002 8.873652e+002 1.791752e+003
         vertex 9.077922e+002 8.864174e+002 1.792194e+003
      endloop
   endfacet
   facet normal 3.284429e-015 4.488580e-001 8.936031e-001
      outer loop
         vertex 9.197922e+002 8.873652e+002 1.791752e+003
         vertex 9.077922e+002 8.864174e+002 1.792194e+003
         vertex 9.197922e+002 8.864174e+002 1.792194e+003
      endloop
   endfacet
   facet normal 3.071575e-015 5.494540e-001 8.355240e-001
      outer loop
         vertex 9.197922e+002 8.864174e+002 1.792194e+003
         vertex 9.077922e+002 8.864174e+002 1.792194e+003
         vertex 9.077922e+002 8.855606e+002 1.792794e+003
      endloop
   endfacet
   facet normal 2.948972e-015 5.972114e-001 8.020839e-001
      outer loop
         vertex 9.197922e+002 8.864174e+002 1.792194e+003
         vertex 9.077922e+002 8.855606e+002 1.792794e+003
         vertex 9.197922e+002 8.855606e+002 1.792794e+003
      endloop
   endfacet
   facet normal 2.675141e-015 6.861938e-001 7.274188e-001
      outer loop
         vertex 9.197922e+002 8.855606e+002 1.792794e+003
         vertex 9.077922e+002 8.855606e+002 1.792794e+003
         vertex 9.077922e+002 8.848210e+002 1.793533e+003
      endloop
   endfacet
   facet normal 2.523913e-015 7.274188e-001 6.861938e-001
      outer loop
         vertex 9.197922e+002 8.855606e+002 1.792794e+003
         vertex 9.077922e+002 8.848210e+002 1.793533e+003
         vertex 9.197922e+002 8.848210e+002 1.793533e+003
      endloop
   endfacet
   facet normal 2.197424e-015 8.020839e-001 5.972114e-001
      outer loop
         vertex 9.197922e+002 8.848210e+002 1.793533e+003
         vertex 9.077922e+002 8.848210e+002 1.793533e+003
         vertex 9.077922e+002 8.842212e+002 1.794390e+003
      endloop
   endfacet
   facet normal 2.022165e-015 8.355240e-001 5.494540e-001
      outer loop
         vertex 9.197922e+002 8.848210e+002 1.793533e+003
         vertex 9.077922e+002 8.842212e+002 1.794390e+003
         vertex 9.197922e+002 8.842212e+002 1.794390e+003
      endloop
   endfacet
   facet normal 1.652940e-015 8.936031e-001 4.488580e-001
      outer loop
         vertex 9.197922e+002 8.842212e+002 1.794390e+003
         vertex 9.077922e+002 8.842212e+002 1.794390e+003
         vertex 9.077922e+002 8.837792e+002 1.795338e+003
      endloop
   endfacet
   facet normal 1.458975e-015 9.182422e-001 3.960194e-001
      outer loop
         vertex 9.197922e+002 8.842212e+002 1.794390e+003
         vertex 9.077922e+002 8.837792e+002 1.795338e+003
         vertex 9.197922e+002 8.837792e+002 1.795338e+003
      endloop
   endfacet
   facet normal 1.058232e-015 9.579706e-001 2.868663e-001
      outer loop
         vertex 9.197922e+002 8.837792e+002 1.795338e+003
         vertex 9.077922e+002 8.837792e+002 1.795338e+003
         vertex 9.077922e+002 8.835085e+002 1.796348e+003
      endloop
   endfacet
   facet normal 8.514541e-016 9.730601e-001 2.305518e-001
      outer loop
         vertex 9.197922e+002 8.837792e+002 1.795338e+003
         vertex 9.077922e+002 8.835085e+002 1.796348e+003
         vertex 9.197922e+002 8.835085e+002 1.796348e+003
      endloop
   endfacet
   facet normal 4.313697e-016 9.932307e-001 1.161583e-001
      outer loop
         vertex 9.197922e+002 8.835085e+002 1.796348e+003
         vertex 9.077922e+002 8.835085e+002 1.796348e+003
         vertex 9.077922e+002 8.834173e+002 1.797390e+003
      endloop
   endfacet
   facet normal 2.180628e-016 9.983120e-001 5.807914e-002
      outer loop
         vertex 9.197922e+002 8.835085e+002 1.796348e+003
         vertex 9.077922e+002 8.834173e+002 1.797390e+003
         vertex 9.197922e+002 8.834173e+002 1.797390e+003
      endloop
   endfacet
   facet normal -2.085993e-016 9.983120e-001 -5.807914e-002
      outer loop
         vertex 9.197922e+002 8.834173e+002 1.797390e+003
         vertex 9.077922e+002 8.834173e+002 1.797390e+003
         vertex 9.077922e+002 8.835085e+002 1.798432e+003
      endloop
   endfacet
   facet normal -4.219544e-016 9.932307e-001 -1.161583e-001
      outer loop
         vertex 9.197922e+002 8.834173e+002 1.797390e+003
         vertex 9.077922e+002 8.835085e+002 1.798432e+003
         vertex 9.197922e+002 8.835085e+002 1.798432e+003
      endloop
   endfacet
   facet normal -8.422300e-016 9.730601e-001 -2.305518e-001
      outer loop
         vertex 9.197922e+002 8.835085e+002 1.798432e+003
         vertex 9.077922e+002 8.835085e+002 1.798432e+003
         vertex 9.077922e+002 8.837792e+002 1.799442e+003
      endloop
   endfacet
   facet normal -1.049151e-015 9.579706e-001 -2.868663e-001
      outer loop
         vertex 9.197922e+002 8.835085e+002 1.798432e+003
         vertex 9.077922e+002 8.837792e+002 1.799442e+003
         vertex 9.197922e+002 8.837792e+002 1.799442e+003
      endloop
   endfacet
   facet normal -1.450270e-015 9.182422e-001 -3.960194e-001
      outer loop
         vertex 9.197922e+002 8.837792e+002 1.799442e+003
         vertex 9.077922e+002 8.837792e+002 1.799442e+003
         vertex 9.077922e+002 8.842212e+002 1.800390e+003
      endloop
   endfacet
   facet normal -1.644469e-015 8.936031e-001 -4.488580e-001
      outer loop
         vertex 9.197922e+002 8.837792e+002 1.799442e+003
         vertex 9.077922e+002 8.842212e+002 1.800390e+003
         vertex 9.197922e+002 8.842212e+002 1.800390e+003
      endloop
   endfacet
   facet normal -2.014244e-015 8.355240e-001 -5.494540e-001
      outer loop
         vertex 9.197922e+002 8.842212e+002 1.800390e+003
         vertex 9.077922e+002 8.842212e+002 1.800390e+003
         vertex 9.077922e+002 8.848210e+002 1.801247e+003
      endloop
   endfacet
   facet normal -2.189821e-015 8.020839e-001 -5.972114e-001
      outer loop
         vertex 9.197922e+002 8.842212e+002 1.800390e+003
         vertex 9.077922e+002 8.848210e+002 1.801247e+003
         vertex 9.197922e+002 8.848210e+002 1.801247e+003
      endloop
   endfacet
   facet normal -2.517017e-015 7.274188e-001 -6.861938e-001
      outer loop
         vertex 9.197922e+002 8.848210e+002 1.801247e+003
         vertex 9.077922e+002 8.848210e+002 1.801247e+003
         vertex 9.077922e+002 8.855606e+002 1.801986e+003
      endloop
   endfacet
   facet normal -2.668636e-015 6.861938e-001 -7.274188e-001
      outer loop
         vertex 9.197922e+002 8.848210e+002 1.801247e+003
         vertex 9.077922e+002 8.855606e+002 1.801986e+003
         vertex 9.197922e+002 8.855606e+002 1.801986e+003
      endloop
   endfacet
   facet normal -2.943311e-015 5.972114e-001 -8.020839e-001
      outer loop
         vertex 9.197922e+002 8.855606e+002 1.801986e+003
         vertex 9.077922e+002 8.855606e+002 1.801986e+003
         vertex 9.077922e+002 8.864174e+002 1.802586e+003
      endloop
   endfacet
   facet normal -3.066367e-015 5.494540e-001 -8.355240e-001
      outer loop
         vertex 9.197922e+002 8.855606e+002 1.801986e+003
         vertex 9.077922e+002 8.864174e+002 1.802586e+003
         vertex 9.197922e+002 8.864174e+002 1.802586e+003
      endloop
   endfacet
   facet normal -3.280174e-015 4.488580e-001 -8.936031e-001
      outer loop
         vertex 9.197922e+002 8.864174e+002 1.802586e+003
         vertex 9.077922e+002 8.864174e+002 1.802586e+003
         vertex 9.077922e+002 8.873652e+002 1.803028e+003
      endloop
   endfacet
   facet normal -3.370927e-015 3.960194e-001 -9.182422e-001
      outer loop
         vertex 9.197922e+002 8.864174e+002 1.802586e+003
         vertex 9.077922e+002 8.873652e+002 1.803028e+003
         vertex 9.197922e+002 8.873652e+002 1.803028e+003
      endloop
   endfacet
   facet normal -3.517371e-015 2.868663e-001 -9.579706e-001
      outer loop
         vertex 9.197922e+002 8.873652e+002 1.803028e+003
         vertex 9.077922e+002 8.873652e+002 1.803028e+003
         vertex 9.077922e+002 8.883755e+002 1.803299e+003
      endloop
   endfacet
   facet normal -3.573063e-015 2.305518e-001 -9.730601e-001
      outer loop
         vertex 9.197922e+002 8.873652e+002 1.803028e+003
         vertex 9.077922e+002 8.883755e+002 1.803299e+003
         vertex 9.197922e+002 8.883755e+002 1.803299e+003
      endloop
   endfacet
   facet normal -3.647694e-015 1.161583e-001 -9.932307e-001
      outer loop
         vertex 9.197922e+002 8.883755e+002 1.803299e+003
         vertex 9.077922e+002 8.883755e+002 1.803299e+003
         vertex 9.077922e+002 8.894174e+002 1.803390e+003
      endloop
   endfacet
   facet normal -3.666634e-015 5.807914e-002 -9.983120e-001
      outer loop
         vertex 9.197922e+002 8.883755e+002 1.803299e+003
         vertex 9.077922e+002 8.894174e+002 1.803390e+003
         vertex 9.197922e+002 8.894174e+002 1.803390e+003
      endloop
   endfacet
   facet normal -3.667184e-015 -5.807914e-002 -9.983120e-001
      outer loop
         vertex 9.197922e+002 8.894174e+002 1.803390e+003
         vertex 9.077922e+002 8.894174e+002 1.803390e+003
         vertex 9.077922e+002 8.904592e+002 1.803299e+003
      endloop
   endfacet
   facet normal -3.648796e-015 -1.161583e-001 -9.932307e-001
      outer loop
         vertex 9.197922e+002 8.894174e+002 1.803390e+003
         vertex 9.077922e+002 8.904592e+002 1.803299e+003
         vertex 9.197922e+002 8.904592e+002 1.803299e+003
      endloop
   endfacet
   facet normal -3.575249e-015 -2.305518e-001 -9.730601e-001
      outer loop
         vertex 9.197922e+002 8.904592e+002 1.803299e+003
         vertex 9.077922e+002 8.904592e+002 1.803299e+003
         vertex 9.077922e+002 8.914695e+002 1.803028e+003
      endloop
   endfacet
   facet normal -3.520090e-015 -2.868663e-001 -9.579706e-001
      outer loop
         vertex 9.197922e+002 8.904592e+002 1.803299e+003
         vertex 9.077922e+002 8.914695e+002 1.803028e+003
         vertex 9.197922e+002 8.914695e+002 1.803028e+003
      endloop
   endfacet
   facet normal -3.374681e-015 -3.960194e-001 -9.182422e-001
      outer loop
         vertex 9.197922e+002 8.914695e+002 1.803028e+003
         vertex 9.077922e+002 8.914695e+002 1.803028e+003
         vertex 9.077922e+002 8.924173e+002 1.802586e+003
      endloop
   endfacet
   facet normal -3.284429e-015 -4.488580e-001 -8.936031e-001
      outer loop
         vertex 9.197922e+002 8.914695e+002 1.803028e+003
         vertex 9.077922e+002 8.924173e+002 1.802586e+003
         vertex 9.197922e+002 8.924173e+002 1.802586e+003
      endloop
   endfacet
   facet normal -3.071575e-015 -5.494540e-001 -8.355240e-001
      outer loop
         vertex 9.197922e+002 8.924173e+002 1.802586e+003
         vertex 9.077922e+002 8.924173e+002 1.802586e+003
         vertex 9.077922e+002 8.932740e+002 1.801986e+003
      endloop
   endfacet
   facet normal -2.948972e-015 -5.972114e-001 -8.020839e-001
      outer loop
         vertex 9.197922e+002 8.924173e+002 1.802586e+003
         vertex 9.077922e+002 8.932740e+002 1.801986e+003
         vertex 9.197922e+002 8.932740e+002 1.801986e+003
      endloop
   endfacet
   facet normal -2.675141e-015 -6.861938e-001 -7.274188e-001
      outer loop
         vertex 9.197922e+002 8.932740e+002 1.801986e+003
         vertex 9.077922e+002 8.932740e+002 1.801986e+003
         vertex 9.077922e+002 8.940136e+002 1.801247e+003
      endloop
   endfacet
   facet normal -2.523913e-015 -7.274188e-001 -6.861938e-001
      outer loop
         vertex 9.197922e+002 8.932740e+002 1.801986e+003
         vertex 9.077922e+002 8.940136e+002 1.801247e+003
         vertex 9.197922e+002 8.940136e+002 1.801247e+003
      endloop
   endfacet
   facet normal -2.197424e-015 -8.020839e-001 -5.972114e-001
      outer loop
         vertex 9.197922e+002 8.940136e+002 1.801247e+003
         vertex 9.077922e+002 8.940136e+002 1.801247e+003
         vertex 9.077922e+002 8.946135e+002 1.800390e+003
      endloop
   endfacet
   facet normal -2.022165e-015 -8.355240e-001 -5.494540e-001
      outer loop
         vertex 9.197922e+002 8.940136e+002 1.801247e+003
         vertex 9.077922e+002 8.946135e+002 1.800390e+003
         vertex 9.197922e+002 8.946135e+002 1.800390e+003
      endloop
   endfacet
   facet normal -1.652940e-015 -8.936031e-001 -4.488580e-001
      outer loop
         vertex 9.197922e+002 8.946135e+002 1.800390e+003
         vertex 9.077922e+002 8.946135e+002 1.800390e+003
         vertex 9.077922e+002 8.950555e+002 1.799442e+003
      endloop
   endfacet
   facet normal -1.458975e-015 -9.182422e-001 -3.960194e-001
      outer loop
         vertex 9.197922e+002 8.946135e+002 1.800390e+003
         vertex 9.077922e+002 8.950555e+002 1.799442e+003
         vertex 9.197922e+002 8.950555e+002 1.799442e+003
      endloop
   endfacet
   facet normal -1.058232e-015 -9.579706e-001 -2.868663e-001
      outer loop
         vertex 9.197922e+002 8.950555e+002 1.799442e+003
         vertex 9.077922e+002 8.950555e+002 1.799442e+003
         vertex 9.077922e+002 8.953262e+002 1.798432e+003
      endloop
   endfacet
   facet normal -8.514541e-016 -9.730601e-001 -2.305518e-001
      outer loop
         vertex 9.197922e+002 8.950555e+002 1.799442e+003
         vertex 9.077922e+002 8.953262e+002 1.798432e+003
         vertex 9.197922e+002 8.953262e+002 1.798432e+003
      endloop
   endfacet
   facet normal -4.313697e-016 -9.932307e-001 -1.161583e-001
      outer loop
         vertex 9.197922e+002 8.953262e+002 1.798432e+003
         vertex 9.077922e+002 8.953262e+002 1.798432e+003
         vertex 9.077922e+002 8.954174e+002 1.797390e+003
      endloop
   endfacet
endsolid