solid 09.025.00.00.000 - 09.025.00.03.000-1 09.025.00.03.001-1 09.025.00.03.0AD-7
   facet normal -3.801479e-015 -5.113373e-017 -1.000000e+000
      outer loop
         vertex 2.323792e+003 9.384173e+002 5.838993e+001
         vertex 2.273792e+003 9.384173e+002 5.838993e+001
         vertex 2.323792e+003 9.504174e+002 5.838993e+001
      endloop
   endfacet
   facet normal -3.801479e-015 -5.113373e-017 -1.000000e+000
      outer loop
         vertex 2.323792e+003 9.504174e+002 5.838993e+001
         vertex 2.273792e+003 9.384173e+002 5.838993e+001
         vertex 2.273792e+003 9.504174e+002 5.838993e+001
      endloop
   endfacet
   facet normal 1.000000e+000 8.673617e-019 -3.820265e-015
      outer loop
         vertex 2.333792e+003 9.504174e+002 6.838993e+001
         vertex 2.333792e+003 9.504174e+002 1.183899e+002
         vertex 2.333792e+003 9.384173e+002 6.838993e+001
      endloop
   endfacet
   facet normal 1.000000e+000 8.673617e-019 -3.820265e-015
      outer loop
         vertex 2.333792e+003 9.384173e+002 6.838993e+001
         vertex 2.333792e+003 9.504174e+002 1.183899e+002
         vertex 2.333792e+003 9.384173e+002 1.183899e+002
      endloop
   endfacet
   facet normal 3.801479e-015 5.113373e-017 1.000000e+000
      outer loop
         vertex 2.308792e+003 9.384173e+002 1.183899e+002
         vertex 2.333792e+003 9.384173e+002 1.183899e+002
         vertex 2.308792e+003 9.504174e+002 1.183899e+002
      endloop
   endfacet
   facet normal 3.801479e-015 5.113373e-017 1.000000e+000
      outer loop
         vertex 2.308792e+003 9.504174e+002 1.183899e+002
         vertex 2.333792e+003 9.384173e+002 1.183899e+002
         vertex 2.333792e+003 9.504174e+002 1.183899e+002
      endloop
   endfacet
   facet normal -1.000000e+000 -8.673617e-019 3.704617e-015
      outer loop
         vertex 2.273792e+003 9.504174e+002 8.338993e+001
         vertex 2.273792e+003 9.504174e+002 5.838993e+001
         vertex 2.273792e+003 9.384173e+002 8.338993e+001
      endloop
   endfacet
   facet normal -1.000000e+000 -8.673617e-019 3.704617e-015
      outer loop
         vertex 2.273792e+003 9.384173e+002 8.338993e+001
         vertex 2.273792e+003 9.504174e+002 5.838993e+001
         vertex 2.273792e+003 9.384173e+002 5.838993e+001
      endloop
   endfacet
   facet normal 5.527939e-017 -1.000000e+000 1.224475e-016
      outer loop
         vertex 2.311792e+003 9.384173e+002 7.819378e+001
         vertex 2.310844e+003 9.384173e+002 7.775177e+001
         vertex 2.323792e+003 9.384173e+002 5.838993e+001
      endloop
   endfacet
   facet normal 5.527939e-017 -1.000000e+000 1.224475e-016
      outer loop
         vertex 2.323792e+003 9.384173e+002 5.838993e+001
         vertex 2.310844e+003 9.384173e+002 7.775177e+001
         vertex 2.309834e+003 9.384173e+002 7.748109e+001
      endloop
   endfacet
   facet normal 5.527939e-017 -1.000000e+000 1.224475e-016
      outer loop
         vertex 2.306740e+003 9.384173e+002 7.775177e+001
         vertex 2.273792e+003 9.384173e+002 5.838993e+001
         vertex 2.307750e+003 9.384173e+002 7.748109e+001
      endloop
   endfacet
   facet normal 5.527939e-017 -1.000000e+000 1.224475e-016
      outer loop
         vertex 2.307750e+003 9.384173e+002 7.748109e+001
         vertex 2.273792e+003 9.384173e+002 5.838993e+001
         vertex 2.323792e+003 9.384173e+002 5.838993e+001
      endloop
   endfacet
   facet normal 5.527939e-017 -1.000000e+000 1.224475e-016
      outer loop
         vertex 2.307750e+003 9.384173e+002 7.748109e+001
         vertex 2.323792e+003 9.384173e+002 5.838993e+001
         vertex 2.308792e+003 9.384173e+002 7.738992e+001
      endloop
   endfacet
   facet normal 5.527939e-017 -1.000000e+000 1.224475e-016
      outer loop
         vertex 2.308792e+003 9.384173e+002 7.738992e+001
         vertex 2.323792e+003 9.384173e+002 5.838993e+001
         vertex 2.309834e+003 9.384173e+002 7.748109e+001
      endloop
   endfacet
   facet normal 5.527939e-017 -1.000000e+000 1.224475e-016
      outer loop
         vertex 2.306740e+003 9.384173e+002 7.775177e+001
         vertex 2.305792e+003 9.384173e+002 7.819378e+001
         vertex 2.273792e+003 9.384173e+002 5.838993e+001
      endloop
   endfacet
   facet normal 5.527939e-017 -1.000000e+000 1.224475e-016
      outer loop
         vertex 2.273792e+003 9.384173e+002 5.838993e+001
         vertex 2.305792e+003 9.384173e+002 7.819378e+001
         vertex 2.304936e+003 9.384173e+002 7.879366e+001
      endloop
   endfacet
   facet normal 5.527939e-017 -1.000000e+000 1.224475e-016
      outer loop
         vertex 2.273792e+003 9.384173e+002 5.838993e+001
         vertex 2.304936e+003 9.384173e+002 7.879366e+001
         vertex 2.304196e+003 9.384173e+002 7.953320e+001
      endloop
   endfacet
   facet normal 5.527939e-017 -1.000000e+000 1.224475e-016
      outer loop
         vertex 2.305792e+003 9.384173e+002 8.858607e+001
         vertex 2.306740e+003 9.384173e+002 8.902808e+001
         vertex 2.308792e+003 9.384173e+002 1.183899e+002
      endloop
   endfacet
   facet normal 5.527939e-017 -1.000000e+000 1.224475e-016
      outer loop
         vertex 2.308792e+003 9.384173e+002 1.183899e+002
         vertex 2.306740e+003 9.384173e+002 8.902808e+001
         vertex 2.307750e+003 9.384173e+002 8.929877e+001
      endloop
   endfacet
   facet normal 5.527939e-017 -1.000000e+000 1.224475e-016
      outer loop
         vertex 2.314792e+003 9.384173e+002 8.338993e+001
         vertex 2.314701e+003 9.384173e+002 8.234804e+001
         vertex 2.333792e+003 9.384173e+002 6.838993e+001
      endloop
   endfacet
   facet normal 5.527939e-017 -1.000000e+000 1.224475e-016
      outer loop
         vertex 2.333792e+003 9.384173e+002 6.838993e+001
         vertex 2.314701e+003 9.384173e+002 8.234804e+001
         vertex 2.314430e+003 9.384173e+002 8.133781e+001
      endloop
   endfacet
   facet normal 5.527939e-017 -1.000000e+000 1.224475e-016
      outer loop
         vertex 2.302883e+003 9.384173e+002 8.234804e+001
         vertex 2.273792e+003 9.384173e+002 8.338993e+001
         vertex 2.303154e+003 9.384173e+002 8.133781e+001
      endloop
   endfacet
   facet normal 5.527939e-017 -1.000000e+000 1.224475e-016
      outer loop
         vertex 2.303154e+003 9.384173e+002 8.133781e+001
         vertex 2.273792e+003 9.384173e+002 8.338993e+001
         vertex 2.273792e+003 9.384173e+002 5.838993e+001
      endloop
   endfacet
   facet normal 5.527939e-017 -1.000000e+000 1.224475e-016
      outer loop
         vertex 2.303154e+003 9.384173e+002 8.133781e+001
         vertex 2.273792e+003 9.384173e+002 5.838993e+001
         vertex 2.303596e+003 9.384173e+002 8.038992e+001
      endloop
   endfacet
   facet normal 5.527939e-017 -1.000000e+000 1.224475e-016
      outer loop
         vertex 2.303596e+003 9.384173e+002 8.038992e+001
         vertex 2.273792e+003 9.384173e+002 5.838993e+001
         vertex 2.304196e+003 9.384173e+002 7.953320e+001
      endloop
   endfacet
   facet normal 5.527939e-017 -1.000000e+000 1.224475e-016
      outer loop
         vertex 2.302883e+003 9.384173e+002 8.234804e+001
         vertex 2.302792e+003 9.384173e+002 8.338993e+001
         vertex 2.273792e+003 9.384173e+002 8.338993e+001
      endloop
   endfacet
   facet normal 5.527939e-017 -1.000000e+000 1.224475e-016
      outer loop
         vertex 2.273792e+003 9.384173e+002 8.338993e+001
         vertex 2.302792e+003 9.384173e+002 8.338993e+001
         vertex 2.302883e+003 9.384173e+002 8.443182e+001
      endloop
   endfacet
   facet normal 5.527939e-017 -1.000000e+000 1.224475e-016
      outer loop
         vertex 2.273792e+003 9.384173e+002 8.338993e+001
         vertex 2.302883e+003 9.384173e+002 8.443182e+001
         vertex 2.303154e+003 9.384173e+002 8.544205e+001
      endloop
   endfacet
   facet normal 5.527939e-017 -1.000000e+000 1.224475e-016
      outer loop
         vertex 2.307750e+003 9.384173e+002 8.929877e+001
         vertex 2.308792e+003 9.384173e+002 8.938993e+001
         vertex 2.308792e+003 9.384173e+002 1.183899e+002
      endloop
   endfacet
   facet normal 5.527939e-017 -1.000000e+000 1.224475e-016
      outer loop
         vertex 2.308792e+003 9.384173e+002 1.183899e+002
         vertex 2.308792e+003 9.384173e+002 8.938993e+001
         vertex 2.309834e+003 9.384173e+002 8.929877e+001
      endloop
   endfacet
   facet normal 5.527939e-017 -1.000000e+000 1.224475e-016
      outer loop
         vertex 2.308792e+003 9.384173e+002 1.183899e+002
         vertex 2.309834e+003 9.384173e+002 8.929877e+001
         vertex 2.333792e+003 9.384173e+002 1.183899e+002
      endloop
   endfacet
   facet normal 5.527939e-017 -1.000000e+000 1.224475e-016
      outer loop
         vertex 2.333792e+003 9.384173e+002 1.183899e+002
         vertex 2.309834e+003 9.384173e+002 8.929877e+001
         vertex 2.310844e+003 9.384173e+002 8.902808e+001
      endloop
   endfacet
   facet normal 5.527939e-017 -1.000000e+000 1.224475e-016
      outer loop
         vertex 2.303154e+003 9.384173e+002 8.544205e+001
         vertex 2.303596e+003 9.384173e+002 8.638993e+001
         vertex 2.273792e+003 9.384173e+002 8.338993e+001
      endloop
   endfacet
   facet normal 5.527939e-017 -1.000000e+000 1.224475e-016
      outer loop
         vertex 2.273792e+003 9.384173e+002 8.338993e+001
         vertex 2.303596e+003 9.384173e+002 8.638993e+001
         vertex 2.304196e+003 9.384173e+002 8.724666e+001
      endloop
   endfacet
   facet normal 5.527939e-017 -1.000000e+000 1.224475e-016
      outer loop
         vertex 2.273792e+003 9.384173e+002 8.338993e+001
         vertex 2.304196e+003 9.384173e+002 8.724666e+001
         vertex 2.308792e+003 9.384173e+002 1.183899e+002
      endloop
   endfacet
   facet normal 5.527939e-017 -1.000000e+000 1.224475e-016
      outer loop
         vertex 2.308792e+003 9.384173e+002 1.183899e+002
         vertex 2.304196e+003 9.384173e+002 8.724666e+001
         vertex 2.304936e+003 9.384173e+002 8.798619e+001
      endloop
   endfacet
   facet normal 5.527939e-017 -1.000000e+000 1.224475e-016
      outer loop
         vertex 2.308792e+003 9.384173e+002 1.183899e+002
         vertex 2.304936e+003 9.384173e+002 8.798619e+001
         vertex 2.305792e+003 9.384173e+002 8.858607e+001
      endloop
   endfacet
   facet normal 5.527939e-017 -1.000000e+000 1.224475e-016
      outer loop
         vertex 2.310844e+003 9.384173e+002 8.902808e+001
         vertex 2.311792e+003 9.384173e+002 8.858607e+001
         vertex 2.333792e+003 9.384173e+002 1.183899e+002
      endloop
   endfacet
   facet normal 5.527939e-017 -1.000000e+000 1.224475e-016
      outer loop
         vertex 2.333792e+003 9.384173e+002 1.183899e+002
         vertex 2.311792e+003 9.384173e+002 8.858607e+001
         vertex 2.312649e+003 9.384173e+002 8.798619e+001
      endloop
   endfacet
   facet normal 5.527939e-017 -1.000000e+000 1.224475e-016
      outer loop
         vertex 2.333792e+003 9.384173e+002 1.183899e+002
         vertex 2.312649e+003 9.384173e+002 8.798619e+001
         vertex 2.313389e+003 9.384173e+002 8.724666e+001
      endloop
   endfacet
   facet normal 5.527939e-017 -1.000000e+000 1.224475e-016
      outer loop
         vertex 2.313389e+003 9.384173e+002 8.724666e+001
         vertex 2.313989e+003 9.384173e+002 8.638993e+001
         vertex 2.333792e+003 9.384173e+002 1.183899e+002
      endloop
   endfacet
   facet normal 5.527939e-017 -1.000000e+000 1.224475e-016
      outer loop
         vertex 2.333792e+003 9.384173e+002 1.183899e+002
         vertex 2.313989e+003 9.384173e+002 8.638993e+001
         vertex 2.314430e+003 9.384173e+002 8.544205e+001
      endloop
   endfacet
   facet normal 5.527939e-017 -1.000000e+000 1.224475e-016
      outer loop
         vertex 2.333792e+003 9.384173e+002 1.183899e+002
         vertex 2.314430e+003 9.384173e+002 8.544205e+001
         vertex 2.333792e+003 9.384173e+002 6.838993e+001
      endloop
   endfacet
   facet normal 5.527939e-017 -1.000000e+000 1.224475e-016
      outer loop
         vertex 2.333792e+003 9.384173e+002 6.838993e+001
         vertex 2.314430e+003 9.384173e+002 8.544205e+001
         vertex 2.314701e+003 9.384173e+002 8.443182e+001
      endloop
   endfacet
   facet normal 5.527939e-017 -1.000000e+000 1.224475e-016
      outer loop
         vertex 2.333792e+003 9.384173e+002 6.838993e+001
         vertex 2.314701e+003 9.384173e+002 8.443182e+001
         vertex 2.314792e+003 9.384173e+002 8.338993e+001
      endloop
   endfacet
   facet normal 5.527939e-017 -1.000000e+000 1.224475e-016
      outer loop
         vertex 2.314430e+003 9.384173e+002 8.133781e+001
         vertex 2.313989e+003 9.384173e+002 8.038992e+001
         vertex 2.333792e+003 9.384173e+002 6.838993e+001
      endloop
   endfacet
   facet normal 5.527939e-017 -1.000000e+000 1.224475e-016
      outer loop
         vertex 2.333792e+003 9.384173e+002 6.838993e+001
         vertex 2.313989e+003 9.384173e+002 8.038992e+001
         vertex 2.313389e+003 9.384173e+002 7.953320e+001
      endloop
   endfacet
   facet normal 5.527939e-017 -1.000000e+000 1.224475e-016
      outer loop
         vertex 2.333792e+003 9.384173e+002 6.838993e+001
         vertex 2.313389e+003 9.384173e+002 7.953320e+001
         vertex 2.323792e+003 9.384173e+002 5.838993e+001
      endloop
   endfacet
   facet normal 5.527939e-017 -1.000000e+000 1.224475e-016
      outer loop
         vertex 2.323792e+003 9.384173e+002 5.838993e+001
         vertex 2.313389e+003 9.384173e+002 7.953320e+001
         vertex 2.312649e+003 9.384173e+002 7.879366e+001
      endloop
   endfacet
   facet normal 5.527939e-017 -1.000000e+000 1.224475e-016
      outer loop
         vertex 2.323792e+003 9.384173e+002 5.838993e+001
         vertex 2.312649e+003 9.384173e+002 7.879366e+001
         vertex 2.311792e+003 9.384173e+002 7.819378e+001
      endloop
   endfacet
   facet normal -5.527939e-017 1.000000e+000 -1.224475e-016
      outer loop
         vertex 2.308792e+003 9.504174e+002 7.738992e+001
         vertex 2.309834e+003 9.504174e+002 7.748109e+001
         vertex 2.323792e+003 9.504174e+002 5.838993e+001
      endloop
   endfacet
   facet normal -5.527939e-017 1.000000e+000 -1.224475e-016
      outer loop
         vertex 2.323792e+003 9.504174e+002 5.838993e+001
         vertex 2.309834e+003 9.504174e+002 7.748109e+001
         vertex 2.310844e+003 9.504174e+002 7.775177e+001
      endloop
   endfacet
   facet normal -5.527939e-017 1.000000e+000 -1.224475e-016
      outer loop
         vertex 2.314430e+003 9.504174e+002 8.133781e+001
         vertex 2.314701e+003 9.504174e+002 8.234804e+001
         vertex 2.333792e+003 9.504174e+002 6.838993e+001
      endloop
   endfacet
   facet normal -5.527939e-017 1.000000e+000 -1.224475e-016
      outer loop
         vertex 2.314430e+003 9.504174e+002 8.133781e+001
         vertex 2.333792e+003 9.504174e+002 6.838993e+001
         vertex 2.313989e+003 9.504174e+002 8.038992e+001
      endloop
   endfacet
   facet normal -5.527939e-017 1.000000e+000 -1.224475e-016
      outer loop
         vertex 2.303596e+003 9.504174e+002 8.638993e+001
         vertex 2.303154e+003 9.504174e+002 8.544205e+001
         vertex 2.273792e+003 9.504174e+002 8.338993e+001
      endloop
   endfacet
   facet normal -5.527939e-017 1.000000e+000 -1.224475e-016
      outer loop
         vertex 2.273792e+003 9.504174e+002 8.338993e+001
         vertex 2.303154e+003 9.504174e+002 8.544205e+001
         vertex 2.302883e+003 9.504174e+002 8.443182e+001
      endloop
   endfacet
   facet normal -5.527939e-017 1.000000e+000 -1.224475e-016
      outer loop
         vertex 2.303596e+003 9.504174e+002 8.038992e+001
         vertex 2.304196e+003 9.504174e+002 7.953320e+001
         vertex 2.273792e+003 9.504174e+002 5.838993e+001
      endloop
   endfacet
   facet normal -5.527939e-017 1.000000e+000 -1.224475e-016
      outer loop
         vertex 2.273792e+003 9.504174e+002 5.838993e+001
         vertex 2.304196e+003 9.504174e+002 7.953320e+001
         vertex 2.304936e+003 9.504174e+002 7.879366e+001
      endloop
   endfacet
   facet normal -5.527939e-017 1.000000e+000 -1.224475e-016
      outer loop
         vertex 2.302883e+003 9.504174e+002 8.443182e+001
         vertex 2.302792e+003 9.504174e+002 8.338993e+001
         vertex 2.273792e+003 9.504174e+002 8.338993e+001
      endloop
   endfacet
   facet normal -5.527939e-017 1.000000e+000 -1.224475e-016
      outer loop
         vertex 2.273792e+003 9.504174e+002 8.338993e+001
         vertex 2.302792e+003 9.504174e+002 8.338993e+001
         vertex 2.302883e+003 9.504174e+002 8.234804e+001
      endloop
   endfacet
   facet normal -5.527939e-017 1.000000e+000 -1.224475e-016
      outer loop
         vertex 2.273792e+003 9.504174e+002 8.338993e+001
         vertex 2.302883e+003 9.504174e+002 8.234804e+001
         vertex 2.273792e+003 9.504174e+002 5.838993e+001
      endloop
   endfacet
   facet normal -5.527939e-017 1.000000e+000 -1.224475e-016
      outer loop
         vertex 2.273792e+003 9.504174e+002 5.838993e+001
         vertex 2.302883e+003 9.504174e+002 8.234804e+001
         vertex 2.303154e+003 9.504174e+002 8.133781e+001
      endloop
   endfacet
   facet normal -5.527939e-017 1.000000e+000 -1.224475e-016
      outer loop
         vertex 2.273792e+003 9.504174e+002 5.838993e+001
         vertex 2.303154e+003 9.504174e+002 8.133781e+001
         vertex 2.303596e+003 9.504174e+002 8.038992e+001
      endloop
   endfacet
   facet normal -5.527939e-017 1.000000e+000 -1.224475e-016
      outer loop
         vertex 2.304936e+003 9.504174e+002 7.879366e+001
         vertex 2.305792e+003 9.504174e+002 7.819378e+001
         vertex 2.273792e+003 9.504174e+002 5.838993e+001
      endloop
   endfacet
   facet normal -5.527939e-017 1.000000e+000 -1.224475e-016
      outer loop
         vertex 2.273792e+003 9.504174e+002 5.838993e+001
         vertex 2.305792e+003 9.504174e+002 7.819378e+001
         vertex 2.306740e+003 9.504174e+002 7.775177e+001
      endloop
   endfacet
   facet normal -5.527939e-017 1.000000e+000 -1.224475e-016
      outer loop
         vertex 2.273792e+003 9.504174e+002 5.838993e+001
         vertex 2.306740e+003 9.504174e+002 7.775177e+001
         vertex 2.323792e+003 9.504174e+002 5.838993e+001
      endloop
   endfacet
   facet normal -5.527939e-017 1.000000e+000 -1.224475e-016
      outer loop
         vertex 2.323792e+003 9.504174e+002 5.838993e+001
         vertex 2.306740e+003 9.504174e+002 7.775177e+001
         vertex 2.307750e+003 9.504174e+002 7.748109e+001
      endloop
   endfacet
   facet normal -5.527939e-017 1.000000e+000 -1.224475e-016
      outer loop
         vertex 2.323792e+003 9.504174e+002 5.838993e+001
         vertex 2.307750e+003 9.504174e+002 7.748109e+001
         vertex 2.308792e+003 9.504174e+002 7.738992e+001
      endloop
   endfacet
   facet normal -5.527939e-017 1.000000e+000 -1.224475e-016
      outer loop
         vertex 2.310844e+003 9.504174e+002 7.775177e+001
         vertex 2.311792e+003 9.504174e+002 7.819378e+001
         vertex 2.323792e+003 9.504174e+002 5.838993e+001
      endloop
   endfacet
   facet normal -5.527939e-017 1.000000e+000 -1.224475e-016
      outer loop
         vertex 2.323792e+003 9.504174e+002 5.838993e+001
         vertex 2.311792e+003 9.504174e+002 7.819378e+001
         vertex 2.312649e+003 9.504174e+002 7.879366e+001
      endloop
   endfacet
   facet normal -5.527939e-017 1.000000e+000 -1.224475e-016
      outer loop
         vertex 2.323792e+003 9.504174e+002 5.838993e+001
         vertex 2.312649e+003 9.504174e+002 7.879366e+001
         vertex 2.333792e+003 9.504174e+002 6.838993e+001
      endloop
   endfacet
   facet normal -5.527939e-017 1.000000e+000 -1.224475e-016
      outer loop
         vertex 2.333792e+003 9.504174e+002 6.838993e+001
         vertex 2.312649e+003 9.504174e+002 7.879366e+001
         vertex 2.313389e+003 9.504174e+002 7.953320e+001
      endloop
   endfacet
   facet normal -5.527939e-017 1.000000e+000 -1.224475e-016
      outer loop
         vertex 2.333792e+003 9.504174e+002 6.838993e+001
         vertex 2.313389e+003 9.504174e+002 7.953320e+001
         vertex 2.313989e+003 9.504174e+002 8.038992e+001
      endloop
   endfacet
   facet normal -5.527939e-017 1.000000e+000 -1.224475e-016
      outer loop
         vertex 2.314430e+003 9.504174e+002 8.544205e+001
         vertex 2.333792e+003 9.504174e+002 1.183899e+002
         vertex 2.314701e+003 9.504174e+002 8.443182e+001
      endloop
   endfacet
   facet normal -5.527939e-017 1.000000e+000 -1.224475e-016
      outer loop
         vertex 2.314701e+003 9.504174e+002 8.443182e+001
         vertex 2.333792e+003 9.504174e+002 1.183899e+002
         vertex 2.333792e+003 9.504174e+002 6.838993e+001
      endloop
   endfacet
   facet normal -5.527939e-017 1.000000e+000 -1.224475e-016
      outer loop
         vertex 2.314701e+003 9.504174e+002 8.443182e+001
         vertex 2.333792e+003 9.504174e+002 6.838993e+001
         vertex 2.314792e+003 9.504174e+002 8.338993e+001
      endloop
   endfacet
   facet normal -5.527939e-017 1.000000e+000 -1.224475e-016
      outer loop
         vertex 2.314792e+003 9.504174e+002 8.338993e+001
         vertex 2.333792e+003 9.504174e+002 6.838993e+001
         vertex 2.314701e+003 9.504174e+002 8.234804e+001
      endloop
   endfacet
   facet normal -5.527939e-017 1.000000e+000 -1.224475e-016
      outer loop
         vertex 2.314430e+003 9.504174e+002 8.544205e+001
         vertex 2.313989e+003 9.504174e+002 8.638993e+001
         vertex 2.333792e+003 9.504174e+002 1.183899e+002
      endloop
   endfacet
   facet normal -5.527939e-017 1.000000e+000 -1.224475e-016
      outer loop
         vertex 2.333792e+003 9.504174e+002 1.183899e+002
         vertex 2.313989e+003 9.504174e+002 8.638993e+001
         vertex 2.313389e+003 9.504174e+002 8.724666e+001
      endloop
   endfacet
   facet normal -5.527939e-017 1.000000e+000 -1.224475e-016
      outer loop
         vertex 2.333792e+003 9.504174e+002 1.183899e+002
         vertex 2.313389e+003 9.504174e+002 8.724666e+001
         vertex 2.312649e+003 9.504174e+002 8.798619e+001
      endloop
   endfacet
   facet normal -5.527939e-017 1.000000e+000 -1.224475e-016
      outer loop
         vertex 2.306740e+003 9.504174e+002 8.902808e+001
         vertex 2.308792e+003 9.504174e+002 1.183899e+002
         vertex 2.307750e+003 9.504174e+002 8.929877e+001
      endloop
   endfacet
   facet normal -5.527939e-017 1.000000e+000 -1.224475e-016
      outer loop
         vertex 2.307750e+003 9.504174e+002 8.929877e+001
         vertex 2.308792e+003 9.504174e+002 1.183899e+002
         vertex 2.308792e+003 9.504174e+002 8.938993e+001
      endloop
   endfacet
   facet normal -5.527939e-017 1.000000e+000 -1.224475e-016
      outer loop
         vertex 2.306740e+003 9.504174e+002 8.902808e+001
         vertex 2.305792e+003 9.504174e+002 8.858607e+001
         vertex 2.308792e+003 9.504174e+002 1.183899e+002
      endloop
   endfacet
   facet normal -5.527939e-017 1.000000e+000 -1.224475e-016
      outer loop
         vertex 2.308792e+003 9.504174e+002 1.183899e+002
         vertex 2.305792e+003 9.504174e+002 8.858607e+001
         vertex 2.304936e+003 9.504174e+002 8.798619e+001
      endloop
   endfacet
   facet normal -5.527939e-017 1.000000e+000 -1.224475e-016
      outer loop
         vertex 2.308792e+003 9.504174e+002 1.183899e+002
         vertex 2.304936e+003 9.504174e+002 8.798619e+001
         vertex 2.273792e+003 9.504174e+002 8.338993e+001
      endloop
   endfacet
   facet normal -5.527939e-017 1.000000e+000 -1.224475e-016
      outer loop
         vertex 2.273792e+003 9.504174e+002 8.338993e+001
         vertex 2.304936e+003 9.504174e+002 8.798619e+001
         vertex 2.304196e+003 9.504174e+002 8.724666e+001
      endloop
   endfacet
   facet normal -5.527939e-017 1.000000e+000 -1.224475e-016
      outer loop
         vertex 2.273792e+003 9.504174e+002 8.338993e+001
         vertex 2.304196e+003 9.504174e+002 8.724666e+001
         vertex 2.303596e+003 9.504174e+002 8.638993e+001
      endloop
   endfacet
   facet normal -5.527939e-017 1.000000e+000 -1.224475e-016
      outer loop
         vertex 2.312649e+003 9.504174e+002 8.798619e+001
         vertex 2.311792e+003 9.504174e+002 8.858607e+001
         vertex 2.333792e+003 9.504174e+002 1.183899e+002
      endloop
   endfacet
   facet normal -5.527939e-017 1.000000e+000 -1.224475e-016
      outer loop
         vertex 2.333792e+003 9.504174e+002 1.183899e+002
         vertex 2.311792e+003 9.504174e+002 8.858607e+001
         vertex 2.310844e+003 9.504174e+002 8.902808e+001
      endloop
   endfacet
   facet normal -5.527939e-017 1.000000e+000 -1.224475e-016
      outer loop
         vertex 2.333792e+003 9.504174e+002 1.183899e+002
         vertex 2.310844e+003 9.504174e+002 8.902808e+001
         vertex 2.308792e+003 9.504174e+002 1.183899e+002
      endloop
   endfacet
   facet normal -5.527939e-017 1.000000e+000 -1.224475e-016
      outer loop
         vertex 2.308792e+003 9.504174e+002 1.183899e+002
         vertex 2.310844e+003 9.504174e+002 8.902808e+001
         vertex 2.309834e+003 9.504174e+002 8.929877e+001
      endloop
   endfacet
   facet normal -5.527939e-017 1.000000e+000 -1.224475e-016
      outer loop
         vertex 2.308792e+003 9.504174e+002 1.183899e+002
         vertex 2.309834e+003 9.504174e+002 8.929877e+001
         vertex 2.308792e+003 9.504174e+002 8.938993e+001
      endloop
   endfacet
   facet normal -7.071068e-001 3.554369e-017 7.071068e-001
      outer loop
         vertex 2.308792e+003 9.504174e+002 1.183899e+002
         vertex 2.273792e+003 9.504174e+002 8.338993e+001
         vertex 2.308792e+003 9.384173e+002 1.183899e+002
      endloop
   endfacet
   facet normal -7.071068e-001 3.554369e-017 7.071068e-001
      outer loop
         vertex 2.308792e+003 9.384173e+002 1.183899e+002
         vertex 2.273792e+003 9.504174e+002 8.338993e+001
         vertex 2.273792e+003 9.384173e+002 8.338993e+001
      endloop
   endfacet
   facet normal 7.071068e-001 -3.554369e-017 -7.071068e-001
      outer loop
         vertex 2.323792e+003 9.504174e+002 5.838993e+001
         vertex 2.333792e+003 9.504174e+002 6.838993e+001
         vertex 2.323792e+003 9.384173e+002 5.838993e+001
      endloop
   endfacet
   facet normal 7.071068e-001 -3.554369e-017 -7.071068e-001
      outer loop
         vertex 2.323792e+003 9.384173e+002 5.838993e+001
         vertex 2.333792e+003 9.504174e+002 6.838993e+001
         vertex 2.333792e+003 9.384173e+002 6.838993e+001
      endloop
   endfacet
   facet normal -5.807914e-002 5.099704e-017 9.983120e-001
      outer loop
         vertex 2.309834e+003 9.384173e+002 7.748109e+001
         vertex 2.308792e+003 9.504174e+002 7.738992e+001
         vertex 2.308792e+003 9.384173e+002 7.738992e+001
      endloop
   endfacet
   facet normal 5.807914e-002 5.109779e-017 9.983120e-001
      outer loop
         vertex 2.308792e+003 9.384173e+002 7.738992e+001
         vertex 2.308792e+003 9.504174e+002 7.738992e+001
         vertex 2.307750e+003 9.504174e+002 7.748109e+001
      endloop
   endfacet
   facet normal 1.161583e-001 5.088834e-017 9.932307e-001
      outer loop
         vertex 2.308792e+003 9.384173e+002 7.738992e+001
         vertex 2.307750e+003 9.504174e+002 7.748109e+001
         vertex 2.307750e+003 9.384173e+002 7.748109e+001
      endloop
   endfacet
   facet normal 2.305518e-001 4.995616e-017 9.730601e-001
      outer loop
         vertex 2.307750e+003 9.384173e+002 7.748109e+001
         vertex 2.307750e+003 9.504174e+002 7.748109e+001
         vertex 2.306740e+003 9.504174e+002 7.775177e+001
      endloop
   endfacet
   facet normal 2.868663e-001 4.923343e-017 9.579706e-001
      outer loop
         vertex 2.307750e+003 9.384173e+002 7.748109e+001
         vertex 2.306740e+003 9.504174e+002 7.775177e+001
         vertex 2.306740e+003 9.384173e+002 7.775177e+001
      endloop
   endfacet
   facet normal 3.960194e-001 4.729664e-017 9.182422e-001
      outer loop
         vertex 2.306740e+003 9.384173e+002 7.775177e+001
         vertex 2.306740e+003 9.504174e+002 7.775177e+001
         vertex 2.305792e+003 9.504174e+002 7.819378e+001
      endloop
   endfacet
   facet normal 4.488580e-001 4.608258e-017 8.936031e-001
      outer loop
         vertex 2.306740e+003 9.384173e+002 7.775177e+001
         vertex 2.305792e+003 9.504174e+002 7.819378e+001
         vertex 2.305792e+003 9.384173e+002 7.819378e+001
      endloop
   endfacet
   facet normal 5.494540e-001 4.320003e-017 8.355240e-001
      outer loop
         vertex 2.305792e+003 9.384173e+002 7.819378e+001
         vertex 2.305792e+003 9.504174e+002 7.819378e+001
         vertex 2.304936e+003 9.504174e+002 7.879366e+001
      endloop
   endfacet
   facet normal 5.972114e-001 4.153154e-017 8.020839e-001
      outer loop
         vertex 2.305792e+003 9.384173e+002 7.819378e+001
         vertex 2.304936e+003 9.504174e+002 7.879366e+001
         vertex 2.304936e+003 9.384173e+002 7.879366e+001
      endloop
   endfacet
   facet normal 6.861938e-001 3.779082e-017 7.274188e-001
      outer loop
         vertex 2.304936e+003 9.384173e+002 7.879366e+001
         vertex 2.304936e+003 9.504174e+002 7.879366e+001
         vertex 2.304196e+003 9.504174e+002 7.953320e+001
      endloop
   endfacet
   facet normal 7.274188e-001 3.571858e-017 6.861938e-001
      outer loop
         vertex 2.304936e+003 9.384173e+002 7.879366e+001
         vertex 2.304196e+003 9.504174e+002 7.953320e+001
         vertex 2.304196e+003 9.384173e+002 7.953320e+001
      endloop
   endfacet
   facet normal 8.020839e-001 3.123334e-017 5.972114e-001
      outer loop
         vertex 2.304196e+003 9.384173e+002 7.953320e+001
         vertex 2.304196e+003 9.504174e+002 7.953320e+001
         vertex 2.303596e+003 9.504174e+002 8.038992e+001
      endloop
   endfacet
   facet normal 8.355240e-001 2.882033e-017 5.494540e-001
      outer loop
         vertex 2.304196e+003 9.384173e+002 7.953320e+001
         vertex 2.303596e+003 9.504174e+002 8.038992e+001
         vertex 2.303596e+003 9.384173e+002 8.038992e+001
      endloop
   endfacet
   facet normal 8.936031e-001 2.372686e-017 4.488580e-001
      outer loop
         vertex 2.303596e+003 9.384173e+002 8.038992e+001
         vertex 2.303596e+003 9.504174e+002 8.038992e+001
         vertex 2.303154e+003 9.504174e+002 8.133781e+001
      endloop
   endfacet
   facet normal 9.182422e-001 2.104639e-017 3.960194e-001
      outer loop
         vertex 2.303596e+003 9.384173e+002 8.038992e+001
         vertex 2.303154e+003 9.504174e+002 8.133781e+001
         vertex 2.303154e+003 9.384173e+002 8.133781e+001
      endloop
   endfacet
   facet normal 9.579706e-001 1.549945e-017 2.868663e-001
      outer loop
         vertex 2.303154e+003 9.384173e+002 8.133781e+001
         vertex 2.303154e+003 9.504174e+002 8.133781e+001
         vertex 2.302883e+003 9.504174e+002 8.234804e+001
      endloop
   endfacet
   facet normal 9.730601e-001 1.263297e-017 2.305518e-001
      outer loop
         vertex 2.303154e+003 9.384173e+002 8.133781e+001
         vertex 2.302883e+003 9.504174e+002 8.234804e+001
         vertex 2.302883e+003 9.384173e+002 8.234804e+001
      endloop
   endfacet
   facet normal 9.932307e-001 6.801096e-018 1.161583e-001
      outer loop
         vertex 2.302883e+003 9.384173e+002 8.234804e+001
         vertex 2.302883e+003 9.504174e+002 8.234804e+001
         vertex 2.302792e+003 9.504174e+002 8.338993e+001
      endloop
   endfacet
   facet normal 9.983120e-001 3.835701e-018 5.807914e-002
      outer loop
         vertex 2.302883e+003 9.384173e+002 8.234804e+001
         vertex 2.302792e+003 9.504174e+002 8.338993e+001
         vertex 2.302792e+003 9.384173e+002 8.338993e+001
      endloop
   endfacet
   facet normal 9.983120e-001 -2.103905e-018 -5.807914e-002
      outer loop
         vertex 2.302792e+003 9.384173e+002 8.338993e+001
         vertex 2.302792e+003 9.504174e+002 8.338993e+001
         vertex 2.302883e+003 9.504174e+002 8.443182e+001
      endloop
   endfacet
   facet normal 9.932307e-001 -5.078116e-018 -1.161583e-001
      outer loop
         vertex 2.302792e+003 9.384173e+002 8.338993e+001
         vertex 2.302883e+003 9.504174e+002 8.443182e+001
         vertex 2.302883e+003 9.384173e+002 8.443182e+001
      endloop
   endfacet
   facet normal 9.730601e-001 -1.094498e-017 -2.305518e-001
      outer loop
         vertex 2.302883e+003 9.384173e+002 8.443182e+001
         vertex 2.302883e+003 9.504174e+002 8.443182e+001
         vertex 2.303154e+003 9.504174e+002 8.544205e+001
      endloop
   endfacet
   facet normal 9.579706e-001 -1.383764e-017 -2.868663e-001
      outer loop
         vertex 2.302883e+003 9.384173e+002 8.443182e+001
         vertex 2.303154e+003 9.504174e+002 8.544205e+001
         vertex 2.303154e+003 9.384173e+002 8.544205e+001
      endloop
   endfacet
   facet normal 9.182422e-001 -1.945350e-017 -3.960194e-001
      outer loop
         vertex 2.303154e+003 9.384173e+002 8.544205e+001
         vertex 2.303154e+003 9.504174e+002 8.544205e+001
         vertex 2.303596e+003 9.504174e+002 8.638993e+001
      endloop
   endfacet
   facet normal 8.936031e-001 -2.217671e-017 -4.488580e-001
      outer loop
         vertex 2.303154e+003 9.384173e+002 8.544205e+001
         vertex 2.303596e+003 9.504174e+002 8.638993e+001
         vertex 2.303596e+003 9.384173e+002 8.638993e+001
      endloop
   endfacet
   facet normal 8.355240e-001 -2.737093e-017 -5.494540e-001
      outer loop
         vertex 2.303596e+003 9.384173e+002 8.638993e+001
         vertex 2.303596e+003 9.504174e+002 8.638993e+001
         vertex 2.304196e+003 9.504174e+002 8.724666e+001
      endloop
   endfacet
   facet normal 8.020839e-001 -2.984195e-017 -5.972114e-001
      outer loop
         vertex 2.303596e+003 9.384173e+002 8.638993e+001
         vertex 2.304196e+003 9.504174e+002 8.724666e+001
         vertex 2.304196e+003 9.384173e+002 8.724666e+001
      endloop
   endfacet
   facet normal 7.274188e-001 -3.445671e-017 -6.861938e-001
      outer loop
         vertex 2.304196e+003 9.384173e+002 8.724666e+001
         vertex 2.304196e+003 9.504174e+002 8.724666e+001
         vertex 2.304936e+003 9.504174e+002 8.798619e+001
      endloop
   endfacet
   facet normal 6.861938e-001 -3.660046e-017 -7.274188e-001
      outer loop
         vertex 2.304196e+003 9.384173e+002 8.724666e+001
         vertex 2.304936e+003 9.504174e+002 8.798619e+001
         vertex 2.304936e+003 9.384173e+002 8.798619e+001
      endloop
   endfacet
   facet normal 5.972114e-001 -4.049554e-017 -8.020839e-001
      outer loop
         vertex 2.304936e+003 9.384173e+002 8.798619e+001
         vertex 2.304936e+003 9.504174e+002 8.798619e+001
         vertex 2.305792e+003 9.504174e+002 8.858607e+001
      endloop
   endfacet
   facet normal 5.494540e-001 -4.224688e-017 -8.355240e-001
      outer loop
         vertex 2.304936e+003 9.384173e+002 8.798619e+001
         vertex 2.305792e+003 9.504174e+002 8.858607e+001
         vertex 2.305792e+003 9.384173e+002 8.858607e+001
      endloop
   endfacet
   facet normal 4.488580e-001 -4.530394e-017 -8.936031e-001
      outer loop
         vertex 2.305792e+003 9.384173e+002 8.858607e+001
         vertex 2.305792e+003 9.504174e+002 8.858607e+001
         vertex 2.306740e+003 9.504174e+002 8.902808e+001
      endloop
   endfacet
   facet normal 3.960194e-001 -4.660966e-017 -9.182422e-001
      outer loop
         vertex 2.305792e+003 9.384173e+002 8.858607e+001
         vertex 2.306740e+003 9.504174e+002 8.902808e+001
         vertex 2.306740e+003 9.384173e+002 8.902808e+001
      endloop
   endfacet
   facet normal 2.868663e-001 -4.873579e-017 -9.579706e-001
      outer loop
         vertex 2.306740e+003 9.384173e+002 8.902808e+001
         vertex 2.306740e+003 9.504174e+002 8.902808e+001
         vertex 2.307750e+003 9.504174e+002 8.929877e+001
      endloop
   endfacet
   facet normal 2.305518e-001 -4.955622e-017 -9.730601e-001
      outer loop
         vertex 2.306740e+003 9.384173e+002 8.902808e+001
         vertex 2.307750e+003 9.504174e+002 8.929877e+001
         vertex 2.307750e+003 9.384173e+002 8.929877e+001
      endloop
   endfacet
   facet normal 1.161583e-001 -5.068684e-017 -9.932307e-001
      outer loop
         vertex 2.307750e+003 9.384173e+002 8.929877e+001
         vertex 2.307750e+003 9.504174e+002 8.929877e+001
         vertex 2.308792e+003 9.504174e+002 8.938993e+001
      endloop
   endfacet
   facet normal 5.807914e-002 -5.099704e-017 -9.983120e-001
      outer loop
         vertex 2.307750e+003 9.384173e+002 8.929877e+001
         vertex 2.308792e+003 9.504174e+002 8.938993e+001
         vertex 2.308792e+003 9.384173e+002 8.938993e+001
      endloop
   endfacet
   facet normal -5.807914e-002 -5.109779e-017 -9.983120e-001
      outer loop
         vertex 2.308792e+003 9.384173e+002 8.938993e+001
         vertex 2.308792e+003 9.504174e+002 8.938993e+001
         vertex 2.309834e+003 9.504174e+002 8.929877e+001
      endloop
   endfacet
   facet normal -1.161583e-001 -5.088834e-017 -9.932307e-001
      outer loop
         vertex 2.308792e+003 9.384173e+002 8.938993e+001
         vertex 2.309834e+003 9.504174e+002 8.929877e+001
         vertex 2.309834e+003 9.384173e+002 8.929877e+001
      endloop
   endfacet
   facet normal -2.305518e-001 -4.995616e-017 -9.730601e-001
      outer loop
         vertex 2.309834e+003 9.384173e+002 8.929877e+001
         vertex 2.309834e+003 9.504174e+002 8.929877e+001
         vertex 2.310844e+003 9.504174e+002 8.902808e+001
      endloop
   endfacet
   facet normal -2.868663e-001 -4.923343e-017 -9.579706e-001
      outer loop
         vertex 2.309834e+003 9.384173e+002 8.929877e+001
         vertex 2.310844e+003 9.504174e+002 8.902808e+001
         vertex 2.310844e+003 9.384173e+002 8.902808e+001
      endloop
   endfacet
   facet normal -3.960194e-001 -4.729664e-017 -9.182422e-001
      outer loop
         vertex 2.310844e+003 9.384173e+002 8.902808e+001
         vertex 2.310844e+003 9.504174e+002 8.902808e+001
         vertex 2.311792e+003 9.504174e+002 8.858607e+001
      endloop
   endfacet
   facet normal -4.488580e-001 -4.608258e-017 -8.936031e-001
      outer loop
         vertex 2.310844e+003 9.384173e+002 8.902808e+001
         vertex 2.311792e+003 9.504174e+002 8.858607e+001
         vertex 2.311792e+003 9.384173e+002 8.858607e+001
      endloop
   endfacet
   facet normal -5.494540e-001 -4.320003e-017 -8.355240e-001
      outer loop
         vertex 2.311792e+003 9.384173e+002 8.858607e+001
         vertex 2.311792e+003 9.504174e+002 8.858607e+001
         vertex 2.312649e+003 9.504174e+002 8.798619e+001
      endloop
   endfacet
   facet normal -5.972114e-001 -4.153154e-017 -8.020839e-001
      outer loop
         vertex 2.311792e+003 9.384173e+002 8.858607e+001
         vertex 2.312649e+003 9.504174e+002 8.798619e+001
         vertex 2.312649e+003 9.384173e+002 8.798619e+001
      endloop
   endfacet
   facet normal -6.861938e-001 -3.779082e-017 -7.274188e-001
      outer loop
         vertex 2.312649e+003 9.384173e+002 8.798619e+001
         vertex 2.312649e+003 9.504174e+002 8.798619e+001
         vertex 2.313389e+003 9.504174e+002 8.724666e+001
      endloop
   endfacet
   facet normal -7.274188e-001 -3.571858e-017 -6.861938e-001
      outer loop
         vertex 2.312649e+003 9.384173e+002 8.798619e+001
         vertex 2.313389e+003 9.504174e+002 8.724666e+001
         vertex 2.313389e+003 9.384173e+002 8.724666e+001
      endloop
   endfacet
   facet normal -8.020839e-001 -3.123334e-017 -5.972114e-001
      outer loop
         vertex 2.313389e+003 9.384173e+002 8.724666e+001
         vertex 2.313389e+003 9.504174e+002 8.724666e+001
         vertex 2.313989e+003 9.504174e+002 8.638993e+001
      endloop
   endfacet
   facet normal -8.355240e-001 -2.882033e-017 -5.494540e-001
      outer loop
         vertex 2.313389e+003 9.384173e+002 8.724666e+001
         vertex 2.313989e+003 9.504174e+002 8.638993e+001
         vertex 2.313989e+003 9.384173e+002 8.638993e+001
      endloop
   endfacet
   facet normal -8.936031e-001 -2.372686e-017 -4.488580e-001
      outer loop
         vertex 2.313989e+003 9.384173e+002 8.638993e+001
         vertex 2.313989e+003 9.504174e+002 8.638993e+001
         vertex 2.314430e+003 9.504174e+002 8.544205e+001
      endloop
   endfacet
   facet normal -9.182422e-001 -2.104639e-017 -3.960194e-001
      outer loop
         vertex 2.313989e+003 9.384173e+002 8.638993e+001
         vertex 2.314430e+003 9.504174e+002 8.544205e+001
         vertex 2.314430e+003 9.384173e+002 8.544205e+001
      endloop
   endfacet
   facet normal -9.579706e-001 -1.549945e-017 -2.868663e-001
      outer loop
         vertex 2.314430e+003 9.384173e+002 8.544205e+001
         vertex 2.314430e+003 9.504174e+002 8.544205e+001
         vertex 2.314701e+003 9.504174e+002 8.443182e+001
      endloop
   endfacet
   facet normal -9.730601e-001 -1.263297e-017 -2.305518e-001
      outer loop
         vertex 2.314430e+003 9.384173e+002 8.544205e+001
         vertex 2.314701e+003 9.504174e+002 8.443182e+001
         vertex 2.314701e+003 9.384173e+002 8.443182e+001
      endloop
   endfacet
   facet normal -9.932307e-001 -6.801096e-018 -1.161583e-001
      outer loop
         vertex 2.314701e+003 9.384173e+002 8.443182e+001
         vertex 2.314701e+003 9.504174e+002 8.443182e+001
         vertex 2.314792e+003 9.504174e+002 8.338993e+001
      endloop
   endfacet
   facet normal -9.983120e-001 -3.835701e-018 -5.807914e-002
      outer loop
         vertex 2.314701e+003 9.384173e+002 8.443182e+001
         vertex 2.314792e+003 9.504174e+002 8.338993e+001
         vertex 2.314792e+003 9.384173e+002 8.338993e+001
      endloop
   endfacet
   facet normal -9.983120e-001 2.103905e-018 5.807914e-002
      outer loop
         vertex 2.314792e+003 9.384173e+002 8.338993e+001
         vertex 2.314792e+003 9.504174e+002 8.338993e+001
         vertex 2.314701e+003 9.504174e+002 8.234804e+001
      endloop
   endfacet
   facet normal -9.932307e-001 5.078116e-018 1.161583e-001
      outer loop
         vertex 2.314792e+003 9.384173e+002 8.338993e+001
         vertex 2.314701e+003 9.504174e+002 8.234804e+001
         vertex 2.314701e+003 9.384173e+002 8.234804e+001
      endloop
   endfacet
   facet normal -9.730601e-001 1.094498e-017 2.305518e-001
      outer loop
         vertex 2.314701e+003 9.384173e+002 8.234804e+001
         vertex 2.314701e+003 9.504174e+002 8.234804e+001
         vertex 2.314430e+003 9.504174e+002 8.133781e+001
      endloop
   endfacet
   facet normal -9.579706e-001 1.383764e-017 2.868663e-001
      outer loop
         vertex 2.314701e+003 9.384173e+002 8.234804e+001
         vertex 2.314430e+003 9.504174e+002 8.133781e+001
         vertex 2.314430e+003 9.384173e+002 8.133781e+001
      endloop
   endfacet
   facet normal -9.182422e-001 1.945350e-017 3.960194e-001
      outer loop
         vertex 2.314430e+003 9.384173e+002 8.133781e+001
         vertex 2.314430e+003 9.504174e+002 8.133781e+001
         vertex 2.313989e+003 9.504174e+002 8.038992e+001
      endloop
   endfacet
   facet normal -8.936031e-001 2.217671e-017 4.488580e-001
      outer loop
         vertex 2.314430e+003 9.384173e+002 8.133781e+001
         vertex 2.313989e+003 9.504174e+002 8.038992e+001
         vertex 2.313989e+003 9.384173e+002 8.038992e+001
      endloop
   endfacet
   facet normal -8.355240e-001 2.737093e-017 5.494540e-001
      outer loop
         vertex 2.313989e+003 9.384173e+002 8.038992e+001
         vertex 2.313989e+003 9.504174e+002 8.038992e+001
         vertex 2.313389e+003 9.504174e+002 7.953320e+001
      endloop
   endfacet
   facet normal -8.020839e-001 2.984195e-017 5.972114e-001
      outer loop
         vertex 2.313989e+003 9.384173e+002 8.038992e+001
         vertex 2.313389e+003 9.504174e+002 7.953320e+001
         vertex 2.313389e+003 9.384173e+002 7.953320e+001
      endloop
   endfacet
   facet normal -7.274188e-001 3.445671e-017 6.861938e-001
      outer loop
         vertex 2.313389e+003 9.384173e+002 7.953320e+001
         vertex 2.313389e+003 9.504174e+002 7.953320e+001
         vertex 2.312649e+003 9.504174e+002 7.879366e+001
      endloop
   endfacet
   facet normal -6.861938e-001 3.660046e-017 7.274188e-001
      outer loop
         vertex 2.313389e+003 9.384173e+002 7.953320e+001
         vertex 2.312649e+003 9.504174e+002 7.879366e+001
         vertex 2.312649e+003 9.384173e+002 7.879366e+001
      endloop
   endfacet
   facet normal -5.972114e-001 4.049554e-017 8.020839e-001
      outer loop
         vertex 2.312649e+003 9.384173e+002 7.879366e+001
         vertex 2.312649e+003 9.504174e+002 7.879366e+001
         vertex 2.311792e+003 9.504174e+002 7.819378e+001
      endloop
   endfacet
   facet normal -5.494540e-001 4.224688e-017 8.355240e-001
      outer loop
         vertex 2.312649e+003 9.384173e+002 7.879366e+001
         vertex 2.311792e+003 9.504174e+002 7.819378e+001
         vertex 2.311792e+003 9.384173e+002 7.819378e+001
      endloop
   endfacet
   facet normal -4.488580e-001 4.530394e-017 8.936031e-001
      outer loop
         vertex 2.311792e+003 9.384173e+002 7.819378e+001
         vertex 2.311792e+003 9.504174e+002 7.819378e+001
         vertex 2.310844e+003 9.504174e+002 7.775177e+001
      endloop
   endfacet
   facet normal -3.960194e-001 4.660966e-017 9.182422e-001
      outer loop
         vertex 2.311792e+003 9.384173e+002 7.819378e+001
         vertex 2.310844e+003 9.504174e+002 7.775177e+001
         vertex 2.310844e+003 9.384173e+002 7.775177e+001
      endloop
   endfacet
   facet normal -2.868663e-001 4.873579e-017 9.579706e-001
      outer loop
         vertex 2.310844e+003 9.384173e+002 7.775177e+001
         vertex 2.310844e+003 9.504174e+002 7.775177e+001
         vertex 2.309834e+003 9.504174e+002 7.748109e+001
      endloop
   endfacet
   facet normal -2.305518e-001 4.955622e-017 9.730601e-001
      outer loop
         vertex 2.310844e+003 9.384173e+002 7.775177e+001
         vertex 2.309834e+003 9.504174e+002 7.748109e+001
         vertex 2.309834e+003 9.384173e+002 7.748109e+001
      endloop
   endfacet
   facet normal -1.161583e-001 5.068684e-017 9.932307e-001
      outer loop
         vertex 2.309834e+003 9.384173e+002 7.748109e+001
         vertex 2.309834e+003 9.504174e+002 7.748109e+001
         vertex 2.308792e+003 9.504174e+002 7.738992e+001
      endloop
   endfacet
endsolid