solid 09.025.00.00.000 - 09.025.00.03.000-1 09.025.00.03.001-1 09.025.00.03.0AD-1
   facet normal -8.777701e-016 1.000000e+000 -6.650171e-017
      outer loop
         vertex 2.359792e+003 9.144173e+002 1.812390e+003
         vertex 2.359792e+003 9.144173e+002 1.762390e+003
         vertex 2.347792e+003 9.144173e+002 1.812390e+003
      endloop
   endfacet
   facet normal -8.777701e-016 1.000000e+000 -6.650171e-017
      outer loop
         vertex 2.347792e+003 9.144173e+002 1.812390e+003
         vertex 2.359792e+003 9.144173e+002 1.762390e+003
         vertex 2.347792e+003 9.144173e+002 1.762390e+003
      endloop
   endfacet
   facet normal 8.635394e-017 6.501152e-017 1.000000e+000
      outer loop
         vertex 2.347792e+003 9.044174e+002 1.822390e+003
         vertex 2.347792e+003 8.544173e+002 1.822390e+003
         vertex 2.359792e+003 9.044174e+002 1.822390e+003
      endloop
   endfacet
   facet normal 8.635394e-017 6.501152e-017 1.000000e+000
      outer loop
         vertex 2.359792e+003 9.044174e+002 1.822390e+003
         vertex 2.347792e+003 8.544173e+002 1.822390e+003
         vertex 2.359792e+003 8.544173e+002 1.822390e+003
      endloop
   endfacet
   facet normal 8.777701e-016 -1.000000e+000 6.650171e-017
      outer loop
         vertex 2.359792e+003 8.544173e+002 1.797390e+003
         vertex 2.359792e+003 8.544173e+002 1.822390e+003
         vertex 2.347792e+003 8.544173e+002 1.797390e+003
      endloop
   endfacet
   facet normal 8.777701e-016 -1.000000e+000 6.650171e-017
      outer loop
         vertex 2.347792e+003 8.544173e+002 1.797390e+003
         vertex 2.359792e+003 8.544173e+002 1.822390e+003
         vertex 2.347792e+003 8.544173e+002 1.822390e+003
      endloop
   endfacet
   facet normal -8.635394e-017 5.063671e-017 -1.000000e+000
      outer loop
         vertex 2.347792e+003 8.894174e+002 1.762390e+003
         vertex 2.347792e+003 9.144173e+002 1.762390e+003
         vertex 2.359792e+003 8.894174e+002 1.762390e+003
      endloop
   endfacet
   facet normal -8.635394e-017 5.063671e-017 -1.000000e+000
      outer loop
         vertex 2.359792e+003 8.894174e+002 1.762390e+003
         vertex 2.347792e+003 9.144173e+002 1.762390e+003
         vertex 2.359792e+003 9.144173e+002 1.762390e+003
      endloop
   endfacet
   facet normal 1.000000e+000 7.874870e-016 -8.198703e-017
      outer loop
         vertex 2.359792e+003 8.946135e+002 1.800390e+003
         vertex 2.359792e+003 8.950555e+002 1.799442e+003
         vertex 2.359792e+003 9.144173e+002 1.812390e+003
      endloop
   endfacet
   facet normal 1.000000e+000 7.874870e-016 -8.198703e-017
      outer loop
         vertex 2.359792e+003 9.144173e+002 1.812390e+003
         vertex 2.359792e+003 8.950555e+002 1.799442e+003
         vertex 2.359792e+003 8.953262e+002 1.798432e+003
      endloop
   endfacet
   facet normal 1.000000e+000 7.874870e-016 -8.198703e-017
      outer loop
         vertex 2.359792e+003 8.950555e+002 1.795338e+003
         vertex 2.359792e+003 9.144173e+002 1.762390e+003
         vertex 2.359792e+003 8.953262e+002 1.796348e+003
      endloop
   endfacet
   facet normal 1.000000e+000 7.874870e-016 -8.198703e-017
      outer loop
         vertex 2.359792e+003 8.953262e+002 1.796348e+003
         vertex 2.359792e+003 9.144173e+002 1.762390e+003
         vertex 2.359792e+003 9.144173e+002 1.812390e+003
      endloop
   endfacet
   facet normal 1.000000e+000 7.874870e-016 -8.198703e-017
      outer loop
         vertex 2.359792e+003 8.953262e+002 1.796348e+003
         vertex 2.359792e+003 9.144173e+002 1.812390e+003
         vertex 2.359792e+003 8.954174e+002 1.797390e+003
      endloop
   endfacet
   facet normal 1.000000e+000 7.874870e-016 -8.198703e-017
      outer loop
         vertex 2.359792e+003 8.954174e+002 1.797390e+003
         vertex 2.359792e+003 9.144173e+002 1.812390e+003
         vertex 2.359792e+003 8.953262e+002 1.798432e+003
      endloop
   endfacet
   facet normal 1.000000e+000 7.874870e-016 -8.198703e-017
      outer loop
         vertex 2.359792e+003 8.950555e+002 1.795338e+003
         vertex 2.359792e+003 8.946135e+002 1.794390e+003
         vertex 2.359792e+003 9.144173e+002 1.762390e+003
      endloop
   endfacet
   facet normal 1.000000e+000 7.874870e-016 -8.198703e-017
      outer loop
         vertex 2.359792e+003 9.144173e+002 1.762390e+003
         vertex 2.359792e+003 8.946135e+002 1.794390e+003
         vertex 2.359792e+003 8.940136e+002 1.793533e+003
      endloop
   endfacet
   facet normal 1.000000e+000 7.874870e-016 -8.198703e-017
      outer loop
         vertex 2.359792e+003 9.144173e+002 1.762390e+003
         vertex 2.359792e+003 8.940136e+002 1.793533e+003
         vertex 2.359792e+003 8.932740e+002 1.792794e+003
      endloop
   endfacet
   facet normal 1.000000e+000 7.874870e-016 -8.198703e-017
      outer loop
         vertex 2.359792e+003 8.842212e+002 1.794390e+003
         vertex 2.359792e+003 8.837792e+002 1.795338e+003
         vertex 2.359792e+003 8.544173e+002 1.797390e+003
      endloop
   endfacet
   facet normal 1.000000e+000 7.874870e-016 -8.198703e-017
      outer loop
         vertex 2.359792e+003 8.544173e+002 1.797390e+003
         vertex 2.359792e+003 8.837792e+002 1.795338e+003
         vertex 2.359792e+003 8.835085e+002 1.796348e+003
      endloop
   endfacet
   facet normal 1.000000e+000 7.874870e-016 -8.198703e-017
      outer loop
         vertex 2.359792e+003 8.894174e+002 1.803390e+003
         vertex 2.359792e+003 8.904592e+002 1.803299e+003
         vertex 2.359792e+003 9.044174e+002 1.822390e+003
      endloop
   endfacet
   facet normal 1.000000e+000 7.874870e-016 -8.198703e-017
      outer loop
         vertex 2.359792e+003 9.044174e+002 1.822390e+003
         vertex 2.359792e+003 8.904592e+002 1.803299e+003
         vertex 2.359792e+003 8.914695e+002 1.803028e+003
      endloop
   endfacet
   facet normal 1.000000e+000 7.874870e-016 -8.198703e-017
      outer loop
         vertex 2.359792e+003 8.904592e+002 1.791481e+003
         vertex 2.359792e+003 8.894174e+002 1.762390e+003
         vertex 2.359792e+003 8.914695e+002 1.791752e+003
      endloop
   endfacet
   facet normal 1.000000e+000 7.874870e-016 -8.198703e-017
      outer loop
         vertex 2.359792e+003 8.914695e+002 1.791752e+003
         vertex 2.359792e+003 8.894174e+002 1.762390e+003
         vertex 2.359792e+003 9.144173e+002 1.762390e+003
      endloop
   endfacet
   facet normal 1.000000e+000 7.874870e-016 -8.198703e-017
      outer loop
         vertex 2.359792e+003 8.914695e+002 1.791752e+003
         vertex 2.359792e+003 9.144173e+002 1.762390e+003
         vertex 2.359792e+003 8.924173e+002 1.792194e+003
      endloop
   endfacet
   facet normal 1.000000e+000 7.874870e-016 -8.198703e-017
      outer loop
         vertex 2.359792e+003 8.924173e+002 1.792194e+003
         vertex 2.359792e+003 9.144173e+002 1.762390e+003
         vertex 2.359792e+003 8.932740e+002 1.792794e+003
      endloop
   endfacet
   facet normal 1.000000e+000 7.874870e-016 -8.198703e-017
      outer loop
         vertex 2.359792e+003 8.904592e+002 1.791481e+003
         vertex 2.359792e+003 8.894174e+002 1.791390e+003
         vertex 2.359792e+003 8.894174e+002 1.762390e+003
      endloop
   endfacet
   facet normal 1.000000e+000 7.874870e-016 -8.198703e-017
      outer loop
         vertex 2.359792e+003 8.894174e+002 1.762390e+003
         vertex 2.359792e+003 8.894174e+002 1.791390e+003
         vertex 2.359792e+003 8.883755e+002 1.791481e+003
      endloop
   endfacet
   facet normal 1.000000e+000 7.874870e-016 -8.198703e-017
      outer loop
         vertex 2.359792e+003 8.894174e+002 1.762390e+003
         vertex 2.359792e+003 8.883755e+002 1.791481e+003
         vertex 2.359792e+003 8.873652e+002 1.791752e+003
      endloop
   endfacet
   facet normal 1.000000e+000 7.874870e-016 -8.198703e-017
      outer loop
         vertex 2.359792e+003 8.835085e+002 1.796348e+003
         vertex 2.359792e+003 8.834173e+002 1.797390e+003
         vertex 2.359792e+003 8.544173e+002 1.797390e+003
      endloop
   endfacet
   facet normal 1.000000e+000 7.874870e-016 -8.198703e-017
      outer loop
         vertex 2.359792e+003 8.544173e+002 1.797390e+003
         vertex 2.359792e+003 8.834173e+002 1.797390e+003
         vertex 2.359792e+003 8.835085e+002 1.798432e+003
      endloop
   endfacet
   facet normal 1.000000e+000 7.874870e-016 -8.198703e-017
      outer loop
         vertex 2.359792e+003 8.544173e+002 1.797390e+003
         vertex 2.359792e+003 8.835085e+002 1.798432e+003
         vertex 2.359792e+003 8.544173e+002 1.822390e+003
      endloop
   endfacet
   facet normal 1.000000e+000 7.874870e-016 -8.198703e-017
      outer loop
         vertex 2.359792e+003 8.544173e+002 1.822390e+003
         vertex 2.359792e+003 8.835085e+002 1.798432e+003
         vertex 2.359792e+003 8.837792e+002 1.799442e+003
      endloop
   endfacet
   facet normal 1.000000e+000 7.874870e-016 -8.198703e-017
      outer loop
         vertex 2.359792e+003 8.873652e+002 1.791752e+003
         vertex 2.359792e+003 8.864174e+002 1.792194e+003
         vertex 2.359792e+003 8.894174e+002 1.762390e+003
      endloop
   endfacet
   facet normal 1.000000e+000 7.874870e-016 -8.198703e-017
      outer loop
         vertex 2.359792e+003 8.894174e+002 1.762390e+003
         vertex 2.359792e+003 8.864174e+002 1.792194e+003
         vertex 2.359792e+003 8.855606e+002 1.792794e+003
      endloop
   endfacet
   facet normal 1.000000e+000 7.874870e-016 -8.198703e-017
      outer loop
         vertex 2.359792e+003 8.894174e+002 1.762390e+003
         vertex 2.359792e+003 8.855606e+002 1.792794e+003
         vertex 2.359792e+003 8.544173e+002 1.797390e+003
      endloop
   endfacet
   facet normal 1.000000e+000 7.874870e-016 -8.198703e-017
      outer loop
         vertex 2.359792e+003 8.544173e+002 1.797390e+003
         vertex 2.359792e+003 8.855606e+002 1.792794e+003
         vertex 2.359792e+003 8.848210e+002 1.793533e+003
      endloop
   endfacet
   facet normal 1.000000e+000 7.874870e-016 -8.198703e-017
      outer loop
         vertex 2.359792e+003 8.544173e+002 1.797390e+003
         vertex 2.359792e+003 8.848210e+002 1.793533e+003
         vertex 2.359792e+003 8.842212e+002 1.794390e+003
      endloop
   endfacet
   facet normal 1.000000e+000 7.874870e-016 -8.198703e-017
      outer loop
         vertex 2.359792e+003 8.837792e+002 1.799442e+003
         vertex 2.359792e+003 8.842212e+002 1.800390e+003
         vertex 2.359792e+003 8.544173e+002 1.822390e+003
      endloop
   endfacet
   facet normal 1.000000e+000 7.874870e-016 -8.198703e-017
      outer loop
         vertex 2.359792e+003 8.544173e+002 1.822390e+003
         vertex 2.359792e+003 8.842212e+002 1.800390e+003
         vertex 2.359792e+003 8.848210e+002 1.801247e+003
      endloop
   endfacet
   facet normal 1.000000e+000 7.874870e-016 -8.198703e-017
      outer loop
         vertex 2.359792e+003 8.544173e+002 1.822390e+003
         vertex 2.359792e+003 8.848210e+002 1.801247e+003
         vertex 2.359792e+003 8.855606e+002 1.801986e+003
      endloop
   endfacet
   facet normal 1.000000e+000 7.874870e-016 -8.198703e-017
      outer loop
         vertex 2.359792e+003 8.855606e+002 1.801986e+003
         vertex 2.359792e+003 8.864174e+002 1.802586e+003
         vertex 2.359792e+003 8.544173e+002 1.822390e+003
      endloop
   endfacet
   facet normal 1.000000e+000 7.874870e-016 -8.198703e-017
      outer loop
         vertex 2.359792e+003 8.544173e+002 1.822390e+003
         vertex 2.359792e+003 8.864174e+002 1.802586e+003
         vertex 2.359792e+003 8.873652e+002 1.803028e+003
      endloop
   endfacet
   facet normal 1.000000e+000 7.874870e-016 -8.198703e-017
      outer loop
         vertex 2.359792e+003 8.544173e+002 1.822390e+003
         vertex 2.359792e+003 8.873652e+002 1.803028e+003
         vertex 2.359792e+003 9.044174e+002 1.822390e+003
      endloop
   endfacet
   facet normal 1.000000e+000 7.874870e-016 -8.198703e-017
      outer loop
         vertex 2.359792e+003 9.044174e+002 1.822390e+003
         vertex 2.359792e+003 8.873652e+002 1.803028e+003
         vertex 2.359792e+003 8.883755e+002 1.803299e+003
      endloop
   endfacet
   facet normal 1.000000e+000 7.874870e-016 -8.198703e-017
      outer loop
         vertex 2.359792e+003 9.044174e+002 1.822390e+003
         vertex 2.359792e+003 8.883755e+002 1.803299e+003
         vertex 2.359792e+003 8.894174e+002 1.803390e+003
      endloop
   endfacet
   facet normal 1.000000e+000 7.874870e-016 -8.198703e-017
      outer loop
         vertex 2.359792e+003 8.914695e+002 1.803028e+003
         vertex 2.359792e+003 8.924173e+002 1.802586e+003
         vertex 2.359792e+003 9.044174e+002 1.822390e+003
      endloop
   endfacet
   facet normal 1.000000e+000 7.874870e-016 -8.198703e-017
      outer loop
         vertex 2.359792e+003 9.044174e+002 1.822390e+003
         vertex 2.359792e+003 8.924173e+002 1.802586e+003
         vertex 2.359792e+003 8.932740e+002 1.801986e+003
      endloop
   endfacet
   facet normal 1.000000e+000 7.874870e-016 -8.198703e-017
      outer loop
         vertex 2.359792e+003 9.044174e+002 1.822390e+003
         vertex 2.359792e+003 8.932740e+002 1.801986e+003
         vertex 2.359792e+003 9.144173e+002 1.812390e+003
      endloop
   endfacet
   facet normal 1.000000e+000 7.874870e-016 -8.198703e-017
      outer loop
         vertex 2.359792e+003 9.144173e+002 1.812390e+003
         vertex 2.359792e+003 8.932740e+002 1.801986e+003
         vertex 2.359792e+003 8.940136e+002 1.801247e+003
      endloop
   endfacet
   facet normal 1.000000e+000 7.874870e-016 -8.198703e-017
      outer loop
         vertex 2.359792e+003 9.144173e+002 1.812390e+003
         vertex 2.359792e+003 8.940136e+002 1.801247e+003
         vertex 2.359792e+003 8.946135e+002 1.800390e+003
      endloop
   endfacet
   facet normal -1.000000e+000 -7.874870e-016 8.198703e-017
      outer loop
         vertex 2.347792e+003 8.954174e+002 1.797390e+003
         vertex 2.347792e+003 8.953262e+002 1.798432e+003
         vertex 2.347792e+003 9.144173e+002 1.812390e+003
      endloop
   endfacet
   facet normal -1.000000e+000 -7.874870e-016 8.198703e-017
      outer loop
         vertex 2.347792e+003 9.144173e+002 1.812390e+003
         vertex 2.347792e+003 8.953262e+002 1.798432e+003
         vertex 2.347792e+003 8.950555e+002 1.799442e+003
      endloop
   endfacet
   facet normal -1.000000e+000 -7.874870e-016 8.198703e-017
      outer loop
         vertex 2.347792e+003 8.914695e+002 1.803028e+003
         vertex 2.347792e+003 8.904592e+002 1.803299e+003
         vertex 2.347792e+003 9.044174e+002 1.822390e+003
      endloop
   endfacet
   facet normal -1.000000e+000 -7.874870e-016 8.198703e-017
      outer loop
         vertex 2.347792e+003 8.914695e+002 1.803028e+003
         vertex 2.347792e+003 9.044174e+002 1.822390e+003
         vertex 2.347792e+003 8.924173e+002 1.802586e+003
      endloop
   endfacet
   facet normal -1.000000e+000 -7.874870e-016 8.198703e-017
      outer loop
         vertex 2.347792e+003 8.864174e+002 1.792194e+003
         vertex 2.347792e+003 8.873652e+002 1.791752e+003
         vertex 2.347792e+003 8.894174e+002 1.762390e+003
      endloop
   endfacet
   facet normal -1.000000e+000 -7.874870e-016 8.198703e-017
      outer loop
         vertex 2.347792e+003 8.894174e+002 1.762390e+003
         vertex 2.347792e+003 8.873652e+002 1.791752e+003
         vertex 2.347792e+003 8.883755e+002 1.791481e+003
      endloop
   endfacet
   facet normal -1.000000e+000 -7.874870e-016 8.198703e-017
      outer loop
         vertex 2.347792e+003 8.924173e+002 1.792194e+003
         vertex 2.347792e+003 8.932740e+002 1.792794e+003
         vertex 2.347792e+003 9.144173e+002 1.762390e+003
      endloop
   endfacet
   facet normal -1.000000e+000 -7.874870e-016 8.198703e-017
      outer loop
         vertex 2.347792e+003 9.144173e+002 1.762390e+003
         vertex 2.347792e+003 8.932740e+002 1.792794e+003
         vertex 2.347792e+003 8.940136e+002 1.793533e+003
      endloop
   endfacet
   facet normal -1.000000e+000 -7.874870e-016 8.198703e-017
      outer loop
         vertex 2.347792e+003 8.883755e+002 1.791481e+003
         vertex 2.347792e+003 8.894174e+002 1.791390e+003
         vertex 2.347792e+003 8.894174e+002 1.762390e+003
      endloop
   endfacet
   facet normal -1.000000e+000 -7.874870e-016 8.198703e-017
      outer loop
         vertex 2.347792e+003 8.894174e+002 1.762390e+003
         vertex 2.347792e+003 8.894174e+002 1.791390e+003
         vertex 2.347792e+003 8.904592e+002 1.791481e+003
      endloop
   endfacet
   facet normal -1.000000e+000 -7.874870e-016 8.198703e-017
      outer loop
         vertex 2.347792e+003 8.894174e+002 1.762390e+003
         vertex 2.347792e+003 8.904592e+002 1.791481e+003
         vertex 2.347792e+003 9.144173e+002 1.762390e+003
      endloop
   endfacet
   facet normal -1.000000e+000 -7.874870e-016 8.198703e-017
      outer loop
         vertex 2.347792e+003 9.144173e+002 1.762390e+003
         vertex 2.347792e+003 8.904592e+002 1.791481e+003
         vertex 2.347792e+003 8.914695e+002 1.791752e+003
      endloop
   endfacet
   facet normal -1.000000e+000 -7.874870e-016 8.198703e-017
      outer loop
         vertex 2.347792e+003 9.144173e+002 1.762390e+003
         vertex 2.347792e+003 8.914695e+002 1.791752e+003
         vertex 2.347792e+003 8.924173e+002 1.792194e+003
      endloop
   endfacet
   facet normal -1.000000e+000 -7.874870e-016 8.198703e-017
      outer loop
         vertex 2.347792e+003 8.940136e+002 1.793533e+003
         vertex 2.347792e+003 8.946135e+002 1.794390e+003
         vertex 2.347792e+003 9.144173e+002 1.762390e+003
      endloop
   endfacet
   facet normal -1.000000e+000 -7.874870e-016 8.198703e-017
      outer loop
         vertex 2.347792e+003 9.144173e+002 1.762390e+003
         vertex 2.347792e+003 8.946135e+002 1.794390e+003
         vertex 2.347792e+003 8.950555e+002 1.795338e+003
      endloop
   endfacet
   facet normal -1.000000e+000 -7.874870e-016 8.198703e-017
      outer loop
         vertex 2.347792e+003 9.144173e+002 1.762390e+003
         vertex 2.347792e+003 8.950555e+002 1.795338e+003
         vertex 2.347792e+003 9.144173e+002 1.812390e+003
      endloop
   endfacet
   facet normal -1.000000e+000 -7.874870e-016 8.198703e-017
      outer loop
         vertex 2.347792e+003 9.144173e+002 1.812390e+003
         vertex 2.347792e+003 8.950555e+002 1.795338e+003
         vertex 2.347792e+003 8.953262e+002 1.796348e+003
      endloop
   endfacet
   facet normal -1.000000e+000 -7.874870e-016 8.198703e-017
      outer loop
         vertex 2.347792e+003 9.144173e+002 1.812390e+003
         vertex 2.347792e+003 8.953262e+002 1.796348e+003
         vertex 2.347792e+003 8.954174e+002 1.797390e+003
      endloop
   endfacet
   facet normal -1.000000e+000 -7.874870e-016 8.198703e-017
      outer loop
         vertex 2.347792e+003 8.950555e+002 1.799442e+003
         vertex 2.347792e+003 8.946135e+002 1.800390e+003
         vertex 2.347792e+003 9.144173e+002 1.812390e+003
      endloop
   endfacet
   facet normal -1.000000e+000 -7.874870e-016 8.198703e-017
      outer loop
         vertex 2.347792e+003 9.144173e+002 1.812390e+003
         vertex 2.347792e+003 8.946135e+002 1.800390e+003
         vertex 2.347792e+003 8.940136e+002 1.801247e+003
      endloop
   endfacet
   facet normal -1.000000e+000 -7.874870e-016 8.198703e-017
      outer loop
         vertex 2.347792e+003 9.144173e+002 1.812390e+003
         vertex 2.347792e+003 8.940136e+002 1.801247e+003
         vertex 2.347792e+003 9.044174e+002 1.822390e+003
      endloop
   endfacet
   facet normal -1.000000e+000 -7.874870e-016 8.198703e-017
      outer loop
         vertex 2.347792e+003 9.044174e+002 1.822390e+003
         vertex 2.347792e+003 8.940136e+002 1.801247e+003
         vertex 2.347792e+003 8.932740e+002 1.801986e+003
      endloop
   endfacet
   facet normal -1.000000e+000 -7.874870e-016 8.198703e-017
      outer loop
         vertex 2.347792e+003 9.044174e+002 1.822390e+003
         vertex 2.347792e+003 8.932740e+002 1.801986e+003
         vertex 2.347792e+003 8.924173e+002 1.802586e+003
      endloop
   endfacet
   facet normal -1.000000e+000 -7.874870e-016 8.198703e-017
      outer loop
         vertex 2.347792e+003 8.873652e+002 1.803028e+003
         vertex 2.347792e+003 8.544173e+002 1.822390e+003
         vertex 2.347792e+003 8.883755e+002 1.803299e+003
      endloop
   endfacet
   facet normal -1.000000e+000 -7.874870e-016 8.198703e-017
      outer loop
         vertex 2.347792e+003 8.883755e+002 1.803299e+003
         vertex 2.347792e+003 8.544173e+002 1.822390e+003
         vertex 2.347792e+003 9.044174e+002 1.822390e+003
      endloop
   endfacet
   facet normal -1.000000e+000 -7.874870e-016 8.198703e-017
      outer loop
         vertex 2.347792e+003 8.883755e+002 1.803299e+003
         vertex 2.347792e+003 9.044174e+002 1.822390e+003
         vertex 2.347792e+003 8.894174e+002 1.803390e+003
      endloop
   endfacet
   facet normal -1.000000e+000 -7.874870e-016 8.198703e-017
      outer loop
         vertex 2.347792e+003 8.894174e+002 1.803390e+003
         vertex 2.347792e+003 9.044174e+002 1.822390e+003
         vertex 2.347792e+003 8.904592e+002 1.803299e+003
      endloop
   endfacet
   facet normal -1.000000e+000 -7.874870e-016 8.198703e-017
      outer loop
         vertex 2.347792e+003 8.873652e+002 1.803028e+003
         vertex 2.347792e+003 8.864174e+002 1.802586e+003
         vertex 2.347792e+003 8.544173e+002 1.822390e+003
      endloop
   endfacet
   facet normal -1.000000e+000 -7.874870e-016 8.198703e-017
      outer loop
         vertex 2.347792e+003 8.544173e+002 1.822390e+003
         vertex 2.347792e+003 8.864174e+002 1.802586e+003
         vertex 2.347792e+003 8.855606e+002 1.801986e+003
      endloop
   endfacet
   facet normal -1.000000e+000 -7.874870e-016 8.198703e-017
      outer loop
         vertex 2.347792e+003 8.544173e+002 1.822390e+003
         vertex 2.347792e+003 8.855606e+002 1.801986e+003
         vertex 2.347792e+003 8.848210e+002 1.801247e+003
      endloop
   endfacet
   facet normal -1.000000e+000 -7.874870e-016 8.198703e-017
      outer loop
         vertex 2.347792e+003 8.837792e+002 1.795338e+003
         vertex 2.347792e+003 8.544173e+002 1.797390e+003
         vertex 2.347792e+003 8.835085e+002 1.796348e+003
      endloop
   endfacet
   facet normal -1.000000e+000 -7.874870e-016 8.198703e-017
      outer loop
         vertex 2.347792e+003 8.835085e+002 1.796348e+003
         vertex 2.347792e+003 8.544173e+002 1.797390e+003
         vertex 2.347792e+003 8.834173e+002 1.797390e+003
      endloop
   endfacet
   facet normal -1.000000e+000 -7.874870e-016 8.198703e-017
      outer loop
         vertex 2.347792e+003 8.837792e+002 1.795338e+003
         vertex 2.347792e+003 8.842212e+002 1.794390e+003
         vertex 2.347792e+003 8.544173e+002 1.797390e+003
      endloop
   endfacet
   facet normal -1.000000e+000 -7.874870e-016 8.198703e-017
      outer loop
         vertex 2.347792e+003 8.544173e+002 1.797390e+003
         vertex 2.347792e+003 8.842212e+002 1.794390e+003
         vertex 2.347792e+003 8.848210e+002 1.793533e+003
      endloop
   endfacet
   facet normal -1.000000e+000 -7.874870e-016 8.198703e-017
      outer loop
         vertex 2.347792e+003 8.544173e+002 1.797390e+003
         vertex 2.347792e+003 8.848210e+002 1.793533e+003
         vertex 2.347792e+003 8.894174e+002 1.762390e+003
      endloop
   endfacet
   facet normal -1.000000e+000 -7.874870e-016 8.198703e-017
      outer loop
         vertex 2.347792e+003 8.894174e+002 1.762390e+003
         vertex 2.347792e+003 8.848210e+002 1.793533e+003
         vertex 2.347792e+003 8.855606e+002 1.792794e+003
      endloop
   endfacet
   facet normal -1.000000e+000 -7.874870e-016 8.198703e-017
      outer loop
         vertex 2.347792e+003 8.894174e+002 1.762390e+003
         vertex 2.347792e+003 8.855606e+002 1.792794e+003
         vertex 2.347792e+003 8.864174e+002 1.792194e+003
      endloop
   endfacet
   facet normal -1.000000e+000 -7.874870e-016 8.198703e-017
      outer loop
         vertex 2.347792e+003 8.848210e+002 1.801247e+003
         vertex 2.347792e+003 8.842212e+002 1.800390e+003
         vertex 2.347792e+003 8.544173e+002 1.822390e+003
      endloop
   endfacet
   facet normal -1.000000e+000 -7.874870e-016 8.198703e-017
      outer loop
         vertex 2.347792e+003 8.544173e+002 1.822390e+003
         vertex 2.347792e+003 8.842212e+002 1.800390e+003
         vertex 2.347792e+003 8.837792e+002 1.799442e+003
      endloop
   endfacet
   facet normal -1.000000e+000 -7.874870e-016 8.198703e-017
      outer loop
         vertex 2.347792e+003 8.544173e+002 1.822390e+003
         vertex 2.347792e+003 8.837792e+002 1.799442e+003
         vertex 2.347792e+003 8.544173e+002 1.797390e+003
      endloop
   endfacet
   facet normal -1.000000e+000 -7.874870e-016 8.198703e-017
      outer loop
         vertex 2.347792e+003 8.544173e+002 1.797390e+003
         vertex 2.347792e+003 8.837792e+002 1.799442e+003
         vertex 2.347792e+003 8.835085e+002 1.798432e+003
      endloop
   endfacet
   facet normal -1.000000e+000 -7.874870e-016 8.198703e-017
      outer loop
         vertex 2.347792e+003 8.544173e+002 1.797390e+003
         vertex 2.347792e+003 8.835085e+002 1.798432e+003
         vertex 2.347792e+003 8.834173e+002 1.797390e+003
      endloop
   endfacet
   facet normal 5.596157e-016 -7.071068e-001 -7.071068e-001
      outer loop
         vertex 2.347792e+003 8.544173e+002 1.797390e+003
         vertex 2.347792e+003 8.894174e+002 1.762390e+003
         vertex 2.359792e+003 8.544173e+002 1.797390e+003
      endloop
   endfacet
   facet normal 5.596157e-016 -7.071068e-001 -7.071068e-001
      outer loop
         vertex 2.359792e+003 8.544173e+002 1.797390e+003
         vertex 2.347792e+003 8.894174e+002 1.762390e+003
         vertex 2.359792e+003 8.894174e+002 1.762390e+003
      endloop
   endfacet
   facet normal -5.596157e-016 7.071068e-001 7.071068e-001
      outer loop
         vertex 2.347792e+003 9.144173e+002 1.812390e+003
         vertex 2.347792e+003 9.044174e+002 1.822390e+003
         vertex 2.359792e+003 9.144173e+002 1.812390e+003
      endloop
   endfacet
   facet normal -5.596157e-016 7.071068e-001 7.071068e-001
      outer loop
         vertex 2.359792e+003 9.144173e+002 1.812390e+003
         vertex 2.347792e+003 9.044174e+002 1.822390e+003
         vertex 2.359792e+003 9.044174e+002 1.822390e+003
      endloop
   endfacet
   facet normal 8.712730e-016 -9.983120e-001 -5.807914e-002
      outer loop
         vertex 2.359792e+003 8.953262e+002 1.798432e+003
         vertex 2.347792e+003 8.954174e+002 1.797390e+003
         vertex 2.359792e+003 8.954174e+002 1.797390e+003
      endloop
   endfacet
   facet normal 8.813037e-016 -9.983120e-001 5.807914e-002
      outer loop
         vertex 2.359792e+003 8.954174e+002 1.797390e+003
         vertex 2.347792e+003 8.954174e+002 1.797390e+003
         vertex 2.347792e+003 8.953262e+002 1.796348e+003
      endloop
   endfacet
   facet normal 8.818589e-016 -9.932307e-001 1.161583e-001
      outer loop
         vertex 2.359792e+003 8.954174e+002 1.797390e+003
         vertex 2.347792e+003 8.953262e+002 1.796348e+003
         vertex 2.359792e+003 8.953262e+002 1.796348e+003
      endloop
   endfacet
   facet normal 8.740321e-016 -9.730601e-001 2.305518e-001
      outer loop
         vertex 2.359792e+003 8.953262e+002 1.796348e+003
         vertex 2.347792e+003 8.953262e+002 1.796348e+003
         vertex 2.347792e+003 8.950555e+002 1.795338e+003
      endloop
   endfacet
   facet normal 8.656500e-016 -9.579706e-001 2.868663e-001
      outer loop
         vertex 2.359792e+003 8.953262e+002 1.796348e+003
         vertex 2.347792e+003 8.950555e+002 1.795338e+003
         vertex 2.359792e+003 8.950555e+002 1.795338e+003
      endloop
   endfacet
   facet normal 8.402033e-016 -9.182422e-001 3.960194e-001
      outer loop
         vertex 2.359792e+003 8.950555e+002 1.795338e+003
         vertex 2.347792e+003 8.950555e+002 1.795338e+003
         vertex 2.347792e+003 8.946135e+002 1.794390e+003
      endloop
   endfacet
   facet normal 8.231387e-016 -8.936031e-001 4.488580e-001
      outer loop
         vertex 2.359792e+003 8.950555e+002 1.795338e+003
         vertex 2.347792e+003 8.946135e+002 1.794390e+003
         vertex 2.359792e+003 8.946135e+002 1.794390e+003
      endloop
   endfacet
   facet normal 7.808455e-016 -8.355240e-001 5.494540e-001
      outer loop
         vertex 2.359792e+003 8.946135e+002 1.794390e+003
         vertex 2.347792e+003 8.946135e+002 1.794390e+003
         vertex 2.347792e+003 8.940136e+002 1.793533e+003
      endloop
   endfacet
   facet normal 7.556168e-016 -8.020839e-001 5.972114e-001
      outer loop
         vertex 2.359792e+003 8.946135e+002 1.794390e+003
         vertex 2.347792e+003 8.940136e+002 1.793533e+003
         vertex 2.359792e+003 8.940136e+002 1.793533e+003
      endloop
   endfacet
   facet normal 6.977620e-016 -7.274188e-001 6.861938e-001
      outer loop
         vertex 2.359792e+003 8.940136e+002 1.793533e+003
         vertex 2.347792e+003 8.940136e+002 1.793533e+003
         vertex 2.347792e+003 8.932740e+002 1.792794e+003
      endloop
   endfacet
   facet normal 6.651359e-016 -6.861938e-001 7.274188e-001
      outer loop
         vertex 2.359792e+003 8.940136e+002 1.793533e+003
         vertex 2.347792e+003 8.932740e+002 1.792794e+003
         vertex 2.359792e+003 8.932740e+002 1.792794e+003
      endloop
   endfacet
   facet normal 5.934774e-016 -5.972114e-001 8.020839e-001
      outer loop
         vertex 2.359792e+003 8.932740e+002 1.792794e+003
         vertex 2.347792e+003 8.932740e+002 1.792794e+003
         vertex 2.347792e+003 8.924173e+002 1.792194e+003
      endloop
   endfacet
   facet normal 5.544451e-016 -5.494540e-001 8.355240e-001
      outer loop
         vertex 2.359792e+003 8.932740e+002 1.792794e+003
         vertex 2.347792e+003 8.924173e+002 1.792194e+003
         vertex 2.359792e+003 8.924173e+002 1.792194e+003
      endloop
   endfacet
   facet normal 4.711603e-016 -4.488580e-001 8.936031e-001
      outer loop
         vertex 2.359792e+003 8.924173e+002 1.792194e+003
         vertex 2.347792e+003 8.924173e+002 1.792194e+003
         vertex 2.347792e+003 8.914695e+002 1.791752e+003
      endloop
   endfacet
   facet normal 4.269078e-016 -3.960194e-001 9.182422e-001
      outer loop
         vertex 2.359792e+003 8.924173e+002 1.792194e+003
         vertex 2.347792e+003 8.914695e+002 1.791752e+003
         vertex 2.359792e+003 8.914695e+002 1.791752e+003
      endloop
   endfacet
   facet normal 3.345272e-016 -2.868663e-001 9.579706e-001
      outer loop
         vertex 2.359792e+003 8.914695e+002 1.791752e+003
         vertex 2.347792e+003 8.914695e+002 1.791752e+003
         vertex 2.347792e+003 8.904592e+002 1.791481e+003
      endloop
   endfacet
   facet normal 2.863991e-016 -2.305518e-001 9.730601e-001
      outer loop
         vertex 2.359792e+003 8.914695e+002 1.791752e+003
         vertex 2.347792e+003 8.904592e+002 1.791481e+003
         vertex 2.359792e+003 8.904592e+002 1.791481e+003
      endloop
   endfacet
   facet normal 1.877296e-016 -1.161583e-001 9.932307e-001
      outer loop
         vertex 2.359792e+003 8.904592e+002 1.791481e+003
         vertex 2.347792e+003 8.904592e+002 1.791481e+003
         vertex 2.347792e+003 8.894174e+002 1.791390e+003
      endloop
   endfacet
   facet normal 1.371883e-016 -5.807914e-002 9.983120e-001
      outer loop
         vertex 2.359792e+003 8.904592e+002 1.791481e+003
         vertex 2.347792e+003 8.894174e+002 1.791390e+003
         vertex 2.359792e+003 8.894174e+002 1.791390e+003
      endloop
   endfacet
   facet normal 3.522804e-017 5.807914e-002 9.983120e-001
      outer loop
         vertex 2.359792e+003 8.894174e+002 1.791390e+003
         vertex 2.347792e+003 8.894174e+002 1.791390e+003
         vertex 2.347792e+003 8.883755e+002 1.791481e+003
      endloop
   endfacet
   facet normal -1.619088e-017 1.161583e-001 9.932307e-001
      outer loop
         vertex 2.359792e+003 8.894174e+002 1.791390e+003
         vertex 2.347792e+003 8.883755e+002 1.791481e+003
         vertex 2.359792e+003 8.883755e+002 1.791481e+003
      endloop
   endfacet
   facet normal -1.183439e-016 2.305518e-001 9.730601e-001
      outer loop
         vertex 2.359792e+003 8.883755e+002 1.791481e+003
         vertex 2.347792e+003 8.883755e+002 1.791481e+003
         vertex 2.347792e+003 8.873652e+002 1.791752e+003
      endloop
   endfacet
   facet normal -1.690781e-016 2.868663e-001 9.579706e-001
      outer loop
         vertex 2.359792e+003 8.883755e+002 1.791481e+003
         vertex 2.347792e+003 8.873652e+002 1.791752e+003
         vertex 2.359792e+003 8.873652e+002 1.791752e+003
      endloop
   endfacet
   facet normal -2.683201e-016 3.960194e-001 9.182422e-001
      outer loop
         vertex 2.359792e+003 8.873652e+002 1.791752e+003
         vertex 2.347792e+003 8.873652e+002 1.791752e+003
         vertex 2.347792e+003 8.864174e+002 1.792194e+003
      endloop
   endfacet
   facet normal -3.168280e-016 4.488580e-001 8.936031e-001
      outer loop
         vertex 2.359792e+003 8.873652e+002 1.791752e+003
         vertex 2.347792e+003 8.864174e+002 1.792194e+003
         vertex 2.359792e+003 8.864174e+002 1.792194e+003
      endloop
   endfacet
   facet normal -4.101435e-016 5.494540e-001 8.355240e-001
      outer loop
         vertex 2.359792e+003 8.864174e+002 1.792194e+003
         vertex 2.347792e+003 8.864174e+002 1.792194e+003
         vertex 2.347792e+003 8.855606e+002 1.792794e+003
      endloop
   endfacet
   facet normal -4.549512e-016 5.972114e-001 8.020839e-001
      outer loop
         vertex 2.359792e+003 8.864174e+002 1.792194e+003
         vertex 2.347792e+003 8.855606e+002 1.792794e+003
         vertex 2.359792e+003 8.855606e+002 1.792794e+003
      endloop
   endfacet
   facet normal -5.395049e-016 6.861938e-001 7.274188e-001
      outer loop
         vertex 2.359792e+003 8.855606e+002 1.792794e+003
         vertex 2.347792e+003 8.855606e+002 1.792794e+003
         vertex 2.347792e+003 8.848210e+002 1.793533e+003
      endloop
   endfacet
   facet normal -5.792509e-016 7.274188e-001 6.861938e-001
      outer loop
         vertex 2.359792e+003 8.855606e+002 1.792794e+003
         vertex 2.347792e+003 8.848210e+002 1.793533e+003
         vertex 2.359792e+003 8.848210e+002 1.793533e+003
      endloop
   endfacet
   facet normal -6.524737e-016 8.020839e-001 5.972114e-001
      outer loop
         vertex 2.359792e+003 8.848210e+002 1.793533e+003
         vertex 2.347792e+003 8.848210e+002 1.793533e+003
         vertex 2.347792e+003 8.842212e+002 1.794390e+003
      endloop
   endfacet
   facet normal -6.859504e-016 8.355240e-001 5.494540e-001
      outer loop
         vertex 2.359792e+003 8.848210e+002 1.793533e+003
         vertex 2.347792e+003 8.842212e+002 1.794390e+003
         vertex 2.359792e+003 8.842212e+002 1.794390e+003
      endloop
   endfacet
   facet normal -7.456174e-016 8.936031e-001 4.488580e-001
      outer loop
         vertex 2.359792e+003 8.842212e+002 1.794390e+003
         vertex 2.347792e+003 8.842212e+002 1.794390e+003
         vertex 2.347792e+003 8.837792e+002 1.795338e+003
      endloop
   endfacet
   facet normal -7.718076e-016 9.182422e-001 3.960194e-001
      outer loop
         vertex 2.359792e+003 8.842212e+002 1.794390e+003
         vertex 2.347792e+003 8.837792e+002 1.795338e+003
         vertex 2.359792e+003 8.837792e+002 1.795338e+003
      endloop
   endfacet
   facet normal -8.161059e-016 9.579706e-001 2.868663e-001
      outer loop
         vertex 2.359792e+003 8.837792e+002 1.795338e+003
         vertex 2.347792e+003 8.837792e+002 1.795338e+003
         vertex 2.347792e+003 8.835085e+002 1.796348e+003
      endloop
   endfacet
   facet normal -8.342140e-016 9.730601e-001 2.305518e-001
      outer loop
         vertex 2.359792e+003 8.837792e+002 1.795338e+003
         vertex 2.347792e+003 8.835085e+002 1.796348e+003
         vertex 2.359792e+003 8.835085e+002 1.796348e+003
      endloop
   endfacet
   facet normal -8.617975e-016 9.932307e-001 1.161583e-001
      outer loop
         vertex 2.359792e+003 8.835085e+002 1.796348e+003
         vertex 2.347792e+003 8.835085e+002 1.796348e+003
         vertex 2.347792e+003 8.834173e+002 1.797390e+003
      endloop
   endfacet
   facet normal -8.712730e-016 9.983120e-001 5.807914e-002
      outer loop
         vertex 2.359792e+003 8.835085e+002 1.796348e+003
         vertex 2.347792e+003 8.834173e+002 1.797390e+003
         vertex 2.359792e+003 8.834173e+002 1.797390e+003
      endloop
   endfacet
   facet normal -8.813037e-016 9.983120e-001 -5.807914e-002
      outer loop
         vertex 2.359792e+003 8.834173e+002 1.797390e+003
         vertex 2.347792e+003 8.834173e+002 1.797390e+003
         vertex 2.347792e+003 8.835085e+002 1.798432e+003
      endloop
   endfacet
   facet normal -8.818589e-016 9.932307e-001 -1.161583e-001
      outer loop
         vertex 2.359792e+003 8.834173e+002 1.797390e+003
         vertex 2.347792e+003 8.835085e+002 1.798432e+003
         vertex 2.359792e+003 8.835085e+002 1.798432e+003
      endloop
   endfacet
   facet normal -8.740321e-016 9.730601e-001 -2.305518e-001
      outer loop
         vertex 2.359792e+003 8.835085e+002 1.798432e+003
         vertex 2.347792e+003 8.835085e+002 1.798432e+003
         vertex 2.347792e+003 8.837792e+002 1.799442e+003
      endloop
   endfacet
   facet normal -8.656500e-016 9.579706e-001 -2.868663e-001
      outer loop
         vertex 2.359792e+003 8.835085e+002 1.798432e+003
         vertex 2.347792e+003 8.837792e+002 1.799442e+003
         vertex 2.359792e+003 8.837792e+002 1.799442e+003
      endloop
   endfacet
   facet normal -8.402033e-016 9.182422e-001 -3.960194e-001
      outer loop
         vertex 2.359792e+003 8.837792e+002 1.799442e+003
         vertex 2.347792e+003 8.837792e+002 1.799442e+003
         vertex 2.347792e+003 8.842212e+002 1.800390e+003
      endloop
   endfacet
   facet normal -8.231387e-016 8.936031e-001 -4.488580e-001
      outer loop
         vertex 2.359792e+003 8.837792e+002 1.799442e+003
         vertex 2.347792e+003 8.842212e+002 1.800390e+003
         vertex 2.359792e+003 8.842212e+002 1.800390e+003
      endloop
   endfacet
   facet normal -7.808455e-016 8.355240e-001 -5.494540e-001
      outer loop
         vertex 2.359792e+003 8.842212e+002 1.800390e+003
         vertex 2.347792e+003 8.842212e+002 1.800390e+003
         vertex 2.347792e+003 8.848210e+002 1.801247e+003
      endloop
   endfacet
   facet normal -7.556168e-016 8.020839e-001 -5.972114e-001
      outer loop
         vertex 2.359792e+003 8.842212e+002 1.800390e+003
         vertex 2.347792e+003 8.848210e+002 1.801247e+003
         vertex 2.359792e+003 8.848210e+002 1.801247e+003
      endloop
   endfacet
   facet normal -6.977620e-016 7.274188e-001 -6.861938e-001
      outer loop
         vertex 2.359792e+003 8.848210e+002 1.801247e+003
         vertex 2.347792e+003 8.848210e+002 1.801247e+003
         vertex 2.347792e+003 8.855606e+002 1.801986e+003
      endloop
   endfacet
   facet normal -6.651359e-016 6.861938e-001 -7.274188e-001
      outer loop
         vertex 2.359792e+003 8.848210e+002 1.801247e+003
         vertex 2.347792e+003 8.855606e+002 1.801986e+003
         vertex 2.359792e+003 8.855606e+002 1.801986e+003
      endloop
   endfacet
   facet normal -5.934774e-016 5.972114e-001 -8.020839e-001
      outer loop
         vertex 2.359792e+003 8.855606e+002 1.801986e+003
         vertex 2.347792e+003 8.855606e+002 1.801986e+003
         vertex 2.347792e+003 8.864174e+002 1.802586e+003
      endloop
   endfacet
   facet normal -5.544451e-016 5.494540e-001 -8.355240e-001
      outer loop
         vertex 2.359792e+003 8.855606e+002 1.801986e+003
         vertex 2.347792e+003 8.864174e+002 1.802586e+003
         vertex 2.359792e+003 8.864174e+002 1.802586e+003
      endloop
   endfacet
   facet normal -4.711603e-016 4.488580e-001 -8.936031e-001
      outer loop
         vertex 2.359792e+003 8.864174e+002 1.802586e+003
         vertex 2.347792e+003 8.864174e+002 1.802586e+003
         vertex 2.347792e+003 8.873652e+002 1.803028e+003
      endloop
   endfacet
   facet normal -4.269078e-016 3.960194e-001 -9.182422e-001
      outer loop
         vertex 2.359792e+003 8.864174e+002 1.802586e+003
         vertex 2.347792e+003 8.873652e+002 1.803028e+003
         vertex 2.359792e+003 8.873652e+002 1.803028e+003
      endloop
   endfacet
   facet normal -3.345272e-016 2.868663e-001 -9.579706e-001
      outer loop
         vertex 2.359792e+003 8.873652e+002 1.803028e+003
         vertex 2.347792e+003 8.873652e+002 1.803028e+003
         vertex 2.347792e+003 8.883755e+002 1.803299e+003
      endloop
   endfacet
   facet normal -2.863991e-016 2.305518e-001 -9.730601e-001
      outer loop
         vertex 2.359792e+003 8.873652e+002 1.803028e+003
         vertex 2.347792e+003 8.883755e+002 1.803299e+003
         vertex 2.359792e+003 8.883755e+002 1.803299e+003
      endloop
   endfacet
   facet normal -1.877296e-016 1.161583e-001 -9.932307e-001
      outer loop
         vertex 2.359792e+003 8.883755e+002 1.803299e+003
         vertex 2.347792e+003 8.883755e+002 1.803299e+003
         vertex 2.347792e+003 8.894174e+002 1.803390e+003
      endloop
   endfacet
   facet normal -1.371883e-016 5.807914e-002 -9.983120e-001
      outer loop
         vertex 2.359792e+003 8.883755e+002 1.803299e+003
         vertex 2.347792e+003 8.894174e+002 1.803390e+003
         vertex 2.359792e+003 8.894174e+002 1.803390e+003
      endloop
   endfacet
   facet normal -3.522804e-017 -5.807914e-002 -9.983120e-001
      outer loop
         vertex 2.359792e+003 8.894174e+002 1.803390e+003
         vertex 2.347792e+003 8.894174e+002 1.803390e+003
         vertex 2.347792e+003 8.904592e+002 1.803299e+003
      endloop
   endfacet
   facet normal 1.619088e-017 -1.161583e-001 -9.932307e-001
      outer loop
         vertex 2.359792e+003 8.894174e+002 1.803390e+003
         vertex 2.347792e+003 8.904592e+002 1.803299e+003
         vertex 2.359792e+003 8.904592e+002 1.803299e+003
      endloop
   endfacet
   facet normal 1.183439e-016 -2.305518e-001 -9.730601e-001
      outer loop
         vertex 2.359792e+003 8.904592e+002 1.803299e+003
         vertex 2.347792e+003 8.904592e+002 1.803299e+003
         vertex 2.347792e+003 8.914695e+002 1.803028e+003
      endloop
   endfacet
   facet normal 1.690781e-016 -2.868663e-001 -9.579706e-001
      outer loop
         vertex 2.359792e+003 8.904592e+002 1.803299e+003
         vertex 2.347792e+003 8.914695e+002 1.803028e+003
         vertex 2.359792e+003 8.914695e+002 1.803028e+003
      endloop
   endfacet
   facet normal 2.683201e-016 -3.960194e-001 -9.182422e-001
      outer loop
         vertex 2.359792e+003 8.914695e+002 1.803028e+003
         vertex 2.347792e+003 8.914695e+002 1.803028e+003
         vertex 2.347792e+003 8.924173e+002 1.802586e+003
      endloop
   endfacet
   facet normal 3.168280e-016 -4.488580e-001 -8.936031e-001
      outer loop
         vertex 2.359792e+003 8.914695e+002 1.803028e+003
         vertex 2.347792e+003 8.924173e+002 1.802586e+003
         vertex 2.359792e+003 8.924173e+002 1.802586e+003
      endloop
   endfacet
   facet normal 4.101435e-016 -5.494540e-001 -8.355240e-001
      outer loop
         vertex 2.359792e+003 8.924173e+002 1.802586e+003
         vertex 2.347792e+003 8.924173e+002 1.802586e+003
         vertex 2.347792e+003 8.932740e+002 1.801986e+003
      endloop
   endfacet
   facet normal 4.549512e-016 -5.972114e-001 -8.020839e-001
      outer loop
         vertex 2.359792e+003 8.924173e+002 1.802586e+003
         vertex 2.347792e+003 8.932740e+002 1.801986e+003
         vertex 2.359792e+003 8.932740e+002 1.801986e+003
      endloop
   endfacet
   facet normal 5.395049e-016 -6.861938e-001 -7.274188e-001
      outer loop
         vertex 2.359792e+003 8.932740e+002 1.801986e+003
         vertex 2.347792e+003 8.932740e+002 1.801986e+003
         vertex 2.347792e+003 8.940136e+002 1.801247e+003
      endloop
   endfacet
   facet normal 5.792509e-016 -7.274188e-001 -6.861938e-001
      outer loop
         vertex 2.359792e+003 8.932740e+002 1.801986e+003
         vertex 2.347792e+003 8.940136e+002 1.801247e+003
         vertex 2.359792e+003 8.940136e+002 1.801247e+003
      endloop
   endfacet
   facet normal 6.524737e-016 -8.020839e-001 -5.972114e-001
      outer loop
         vertex 2.359792e+003 8.940136e+002 1.801247e+003
         vertex 2.347792e+003 8.940136e+002 1.801247e+003
         vertex 2.347792e+003 8.946135e+002 1.800390e+003
      endloop
   endfacet
   facet normal 6.859504e-016 -8.355240e-001 -5.494540e-001
      outer loop
         vertex 2.359792e+003 8.940136e+002 1.801247e+003
         vertex 2.347792e+003 8.946135e+002 1.800390e+003
         vertex 2.359792e+003 8.946135e+002 1.800390e+003
      endloop
   endfacet
   facet normal 7.456174e-016 -8.936031e-001 -4.488580e-001
      outer loop
         vertex 2.359792e+003 8.946135e+002 1.800390e+003
         vertex 2.347792e+003 8.946135e+002 1.800390e+003
         vertex 2.347792e+003 8.950555e+002 1.799442e+003
      endloop
   endfacet
   facet normal 7.718076e-016 -9.182422e-001 -3.960194e-001
      outer loop
         vertex 2.359792e+003 8.946135e+002 1.800390e+003
         vertex 2.347792e+003 8.950555e+002 1.799442e+003
         vertex 2.359792e+003 8.950555e+002 1.799442e+003
      endloop
   endfacet
   facet normal 8.161059e-016 -9.579706e-001 -2.868663e-001
      outer loop
         vertex 2.359792e+003 8.950555e+002 1.799442e+003
         vertex 2.347792e+003 8.950555e+002 1.799442e+003
         vertex 2.347792e+003 8.953262e+002 1.798432e+003
      endloop
   endfacet
   facet normal 8.342140e-016 -9.730601e-001 -2.305518e-001
      outer loop
         vertex 2.359792e+003 8.950555e+002 1.799442e+003
         vertex 2.347792e+003 8.953262e+002 1.798432e+003
         vertex 2.359792e+003 8.953262e+002 1.798432e+003
      endloop
   endfacet
   facet normal 8.617975e-016 -9.932307e-001 -1.161583e-001
      outer loop
         vertex 2.359792e+003 8.953262e+002 1.798432e+003
         vertex 2.347792e+003 8.953262e+002 1.798432e+003
         vertex 2.347792e+003 8.954174e+002 1.797390e+003
      endloop
   endfacet
endsolid