solid 09.025.00.00.000 - 09.025.00.03.000-1 09.025.00.03.001-1 09.025.00.03.0AD-5
   facet normal -5.551115e-017 -1.000000e+000 1.497684e-016
      outer loop
         vertex 2.347792e+003 9.744174e+002 1.812390e+003
         vertex 2.347792e+003 9.744174e+002 1.762390e+003
         vertex 2.359792e+003 9.744174e+002 1.812390e+003
      endloop
   endfacet
   facet normal -5.551115e-017 -1.000000e+000 1.497684e-016
      outer loop
         vertex 2.359792e+003 9.744174e+002 1.812390e+003
         vertex 2.347792e+003 9.744174e+002 1.762390e+003
         vertex 2.359792e+003 9.744174e+002 1.762390e+003
      endloop
   endfacet
   facet normal 4.026491e-015 2.337815e-017 1.000000e+000
      outer loop
         vertex 2.359792e+003 9.844173e+002 1.822390e+003
         vertex 2.359792e+003 1.034417e+003 1.822390e+003
         vertex 2.347792e+003 9.844173e+002 1.822390e+003
      endloop
   endfacet
   facet normal 4.026491e-015 2.337815e-017 1.000000e+000
      outer loop
         vertex 2.347792e+003 9.844173e+002 1.822390e+003
         vertex 2.359792e+003 1.034417e+003 1.822390e+003
         vertex 2.347792e+003 1.034417e+003 1.822390e+003
      endloop
   endfacet
   facet normal 5.551115e-017 1.000000e+000 -1.497684e-016
      outer loop
         vertex 2.347792e+003 1.034417e+003 1.797390e+003
         vertex 2.347792e+003 1.034417e+003 1.822390e+003
         vertex 2.359792e+003 1.034417e+003 1.797390e+003
      endloop
   endfacet
   facet normal 5.551115e-017 1.000000e+000 -1.497684e-016
      outer loop
         vertex 2.359792e+003 1.034417e+003 1.797390e+003
         vertex 2.347792e+003 1.034417e+003 1.822390e+003
         vertex 2.359792e+003 1.034417e+003 1.822390e+003
      endloop
   endfacet
   facet normal -4.026491e-015 -1.390264e-016 -1.000000e+000
      outer loop
         vertex 2.359792e+003 9.994173e+002 1.762390e+003
         vertex 2.359792e+003 9.744174e+002 1.762390e+003
         vertex 2.347792e+003 9.994173e+002 1.762390e+003
      endloop
   endfacet
   facet normal -4.026491e-015 -1.390264e-016 -1.000000e+000
      outer loop
         vertex 2.347792e+003 9.994173e+002 1.762390e+003
         vertex 2.359792e+003 9.744174e+002 1.762390e+003
         vertex 2.347792e+003 9.744174e+002 1.762390e+003
      endloop
   endfacet
   facet normal -1.000000e+000 1.532842e-016 4.047996e-015
      outer loop
         vertex 2.347792e+003 9.942212e+002 1.800390e+003
         vertex 2.347792e+003 9.937792e+002 1.799442e+003
         vertex 2.347792e+003 9.744174e+002 1.812390e+003
      endloop
   endfacet
   facet normal -1.000000e+000 1.532842e-016 4.047996e-015
      outer loop
         vertex 2.347792e+003 9.744174e+002 1.812390e+003
         vertex 2.347792e+003 9.937792e+002 1.799442e+003
         vertex 2.347792e+003 9.935085e+002 1.798432e+003
      endloop
   endfacet
   facet normal -1.000000e+000 1.532842e-016 4.047996e-015
      outer loop
         vertex 2.347792e+003 9.937792e+002 1.795338e+003
         vertex 2.347792e+003 9.744174e+002 1.762390e+003
         vertex 2.347792e+003 9.935085e+002 1.796348e+003
      endloop
   endfacet
   facet normal -1.000000e+000 1.532842e-016 4.047996e-015
      outer loop
         vertex 2.347792e+003 9.935085e+002 1.796348e+003
         vertex 2.347792e+003 9.744174e+002 1.762390e+003
         vertex 2.347792e+003 9.744174e+002 1.812390e+003
      endloop
   endfacet
   facet normal -1.000000e+000 1.532842e-016 4.047996e-015
      outer loop
         vertex 2.347792e+003 9.935085e+002 1.796348e+003
         vertex 2.347792e+003 9.744174e+002 1.812390e+003
         vertex 2.347792e+003 9.934173e+002 1.797390e+003
      endloop
   endfacet
   facet normal -1.000000e+000 1.532842e-016 4.047996e-015
      outer loop
         vertex 2.347792e+003 9.934173e+002 1.797390e+003
         vertex 2.347792e+003 9.744174e+002 1.812390e+003
         vertex 2.347792e+003 9.935085e+002 1.798432e+003
      endloop
   endfacet
   facet normal -1.000000e+000 1.532842e-016 4.047996e-015
      outer loop
         vertex 2.347792e+003 9.937792e+002 1.795338e+003
         vertex 2.347792e+003 9.942212e+002 1.794390e+003
         vertex 2.347792e+003 9.744174e+002 1.762390e+003
      endloop
   endfacet
   facet normal -1.000000e+000 1.532842e-016 4.047996e-015
      outer loop
         vertex 2.347792e+003 9.744174e+002 1.762390e+003
         vertex 2.347792e+003 9.942212e+002 1.794390e+003
         vertex 2.347792e+003 9.948210e+002 1.793533e+003
      endloop
   endfacet
   facet normal -1.000000e+000 1.532842e-016 4.047996e-015
      outer loop
         vertex 2.347792e+003 9.744174e+002 1.762390e+003
         vertex 2.347792e+003 9.948210e+002 1.793533e+003
         vertex 2.347792e+003 9.955606e+002 1.792794e+003
      endloop
   endfacet
   facet normal -1.000000e+000 1.532842e-016 4.047996e-015
      outer loop
         vertex 2.347792e+003 1.004614e+003 1.794390e+003
         vertex 2.347792e+003 1.005056e+003 1.795338e+003
         vertex 2.347792e+003 1.034417e+003 1.797390e+003
      endloop
   endfacet
   facet normal -1.000000e+000 1.532842e-016 4.047996e-015
      outer loop
         vertex 2.347792e+003 1.034417e+003 1.797390e+003
         vertex 2.347792e+003 1.005056e+003 1.795338e+003
         vertex 2.347792e+003 1.005326e+003 1.796348e+003
      endloop
   endfacet
   facet normal -1.000000e+000 1.532842e-016 4.047996e-015
      outer loop
         vertex 2.347792e+003 9.994173e+002 1.803390e+003
         vertex 2.347792e+003 9.983754e+002 1.803299e+003
         vertex 2.347792e+003 9.844173e+002 1.822390e+003
      endloop
   endfacet
   facet normal -1.000000e+000 1.532842e-016 4.047996e-015
      outer loop
         vertex 2.347792e+003 9.844173e+002 1.822390e+003
         vertex 2.347792e+003 9.983754e+002 1.803299e+003
         vertex 2.347792e+003 9.973652e+002 1.803028e+003
      endloop
   endfacet
   facet normal -1.000000e+000 1.532842e-016 4.047996e-015
      outer loop
         vertex 2.347792e+003 9.983754e+002 1.791481e+003
         vertex 2.347792e+003 9.994173e+002 1.762390e+003
         vertex 2.347792e+003 9.973652e+002 1.791752e+003
      endloop
   endfacet
   facet normal -1.000000e+000 1.532842e-016 4.047996e-015
      outer loop
         vertex 2.347792e+003 9.973652e+002 1.791752e+003
         vertex 2.347792e+003 9.994173e+002 1.762390e+003
         vertex 2.347792e+003 9.744174e+002 1.762390e+003
      endloop
   endfacet
   facet normal -1.000000e+000 1.532842e-016 4.047996e-015
      outer loop
         vertex 2.347792e+003 9.973652e+002 1.791752e+003
         vertex 2.347792e+003 9.744174e+002 1.762390e+003
         vertex 2.347792e+003 9.964174e+002 1.792194e+003
      endloop
   endfacet
   facet normal -1.000000e+000 1.532842e-016 4.047996e-015
      outer loop
         vertex 2.347792e+003 9.964174e+002 1.792194e+003
         vertex 2.347792e+003 9.744174e+002 1.762390e+003
         vertex 2.347792e+003 9.955606e+002 1.792794e+003
      endloop
   endfacet
   facet normal -1.000000e+000 1.532842e-016 4.047996e-015
      outer loop
         vertex 2.347792e+003 9.983754e+002 1.791481e+003
         vertex 2.347792e+003 9.994173e+002 1.791390e+003
         vertex 2.347792e+003 9.994173e+002 1.762390e+003
      endloop
   endfacet
   facet normal -1.000000e+000 1.532842e-016 4.047996e-015
      outer loop
         vertex 2.347792e+003 9.994173e+002 1.762390e+003
         vertex 2.347792e+003 9.994173e+002 1.791390e+003
         vertex 2.347792e+003 1.000459e+003 1.791481e+003
      endloop
   endfacet
   facet normal -1.000000e+000 1.532842e-016 4.047996e-015
      outer loop
         vertex 2.347792e+003 9.994173e+002 1.762390e+003
         vertex 2.347792e+003 1.000459e+003 1.791481e+003
         vertex 2.347792e+003 1.001469e+003 1.791752e+003
      endloop
   endfacet
   facet normal -1.000000e+000 1.532842e-016 4.047996e-015
      outer loop
         vertex 2.347792e+003 1.005326e+003 1.796348e+003
         vertex 2.347792e+003 1.005417e+003 1.797390e+003
         vertex 2.347792e+003 1.034417e+003 1.797390e+003
      endloop
   endfacet
   facet normal -1.000000e+000 1.532842e-016 4.047996e-015
      outer loop
         vertex 2.347792e+003 1.034417e+003 1.797390e+003
         vertex 2.347792e+003 1.005417e+003 1.797390e+003
         vertex 2.347792e+003 1.005326e+003 1.798432e+003
      endloop
   endfacet
   facet normal -1.000000e+000 1.532842e-016 4.047996e-015
      outer loop
         vertex 2.347792e+003 1.034417e+003 1.797390e+003
         vertex 2.347792e+003 1.005326e+003 1.798432e+003
         vertex 2.347792e+003 1.034417e+003 1.822390e+003
      endloop
   endfacet
   facet normal -1.000000e+000 1.532842e-016 4.047996e-015
      outer loop
         vertex 2.347792e+003 1.034417e+003 1.822390e+003
         vertex 2.347792e+003 1.005326e+003 1.798432e+003
         vertex 2.347792e+003 1.005056e+003 1.799442e+003
      endloop
   endfacet
   facet normal -1.000000e+000 1.532842e-016 4.047996e-015
      outer loop
         vertex 2.347792e+003 1.001469e+003 1.791752e+003
         vertex 2.347792e+003 1.002417e+003 1.792194e+003
         vertex 2.347792e+003 9.994173e+002 1.762390e+003
      endloop
   endfacet
   facet normal -1.000000e+000 1.532842e-016 4.047996e-015
      outer loop
         vertex 2.347792e+003 9.994173e+002 1.762390e+003
         vertex 2.347792e+003 1.002417e+003 1.792194e+003
         vertex 2.347792e+003 1.003274e+003 1.792794e+003
      endloop
   endfacet
   facet normal -1.000000e+000 1.532842e-016 4.047996e-015
      outer loop
         vertex 2.347792e+003 9.994173e+002 1.762390e+003
         vertex 2.347792e+003 1.003274e+003 1.792794e+003
         vertex 2.347792e+003 1.034417e+003 1.797390e+003
      endloop
   endfacet
   facet normal -1.000000e+000 1.532842e-016 4.047996e-015
      outer loop
         vertex 2.347792e+003 1.034417e+003 1.797390e+003
         vertex 2.347792e+003 1.003274e+003 1.792794e+003
         vertex 2.347792e+003 1.004014e+003 1.793533e+003
      endloop
   endfacet
   facet normal -1.000000e+000 1.532842e-016 4.047996e-015
      outer loop
         vertex 2.347792e+003 1.034417e+003 1.797390e+003
         vertex 2.347792e+003 1.004014e+003 1.793533e+003
         vertex 2.347792e+003 1.004614e+003 1.794390e+003
      endloop
   endfacet
   facet normal -1.000000e+000 1.532842e-016 4.047996e-015
      outer loop
         vertex 2.347792e+003 1.005056e+003 1.799442e+003
         vertex 2.347792e+003 1.004614e+003 1.800390e+003
         vertex 2.347792e+003 1.034417e+003 1.822390e+003
      endloop
   endfacet
   facet normal -1.000000e+000 1.532842e-016 4.047996e-015
      outer loop
         vertex 2.347792e+003 1.034417e+003 1.822390e+003
         vertex 2.347792e+003 1.004614e+003 1.800390e+003
         vertex 2.347792e+003 1.004014e+003 1.801247e+003
      endloop
   endfacet
   facet normal -1.000000e+000 1.532842e-016 4.047996e-015
      outer loop
         vertex 2.347792e+003 1.034417e+003 1.822390e+003
         vertex 2.347792e+003 1.004014e+003 1.801247e+003
         vertex 2.347792e+003 1.003274e+003 1.801986e+003
      endloop
   endfacet
   facet normal -1.000000e+000 1.532842e-016 4.047996e-015
      outer loop
         vertex 2.347792e+003 1.003274e+003 1.801986e+003
         vertex 2.347792e+003 1.002417e+003 1.802586e+003
         vertex 2.347792e+003 1.034417e+003 1.822390e+003
      endloop
   endfacet
   facet normal -1.000000e+000 1.532842e-016 4.047996e-015
      outer loop
         vertex 2.347792e+003 1.034417e+003 1.822390e+003
         vertex 2.347792e+003 1.002417e+003 1.802586e+003
         vertex 2.347792e+003 1.001469e+003 1.803028e+003
      endloop
   endfacet
   facet normal -1.000000e+000 1.532842e-016 4.047996e-015
      outer loop
         vertex 2.347792e+003 1.034417e+003 1.822390e+003
         vertex 2.347792e+003 1.001469e+003 1.803028e+003
         vertex 2.347792e+003 9.844173e+002 1.822390e+003
      endloop
   endfacet
   facet normal -1.000000e+000 1.532842e-016 4.047996e-015
      outer loop
         vertex 2.347792e+003 9.844173e+002 1.822390e+003
         vertex 2.347792e+003 1.001469e+003 1.803028e+003
         vertex 2.347792e+003 1.000459e+003 1.803299e+003
      endloop
   endfacet
   facet normal -1.000000e+000 1.532842e-016 4.047996e-015
      outer loop
         vertex 2.347792e+003 9.844173e+002 1.822390e+003
         vertex 2.347792e+003 1.000459e+003 1.803299e+003
         vertex 2.347792e+003 9.994173e+002 1.803390e+003
      endloop
   endfacet
   facet normal -1.000000e+000 1.532842e-016 4.047996e-015
      outer loop
         vertex 2.347792e+003 9.973652e+002 1.803028e+003
         vertex 2.347792e+003 9.964174e+002 1.802586e+003
         vertex 2.347792e+003 9.844173e+002 1.822390e+003
      endloop
   endfacet
   facet normal -1.000000e+000 1.532842e-016 4.047996e-015
      outer loop
         vertex 2.347792e+003 9.844173e+002 1.822390e+003
         vertex 2.347792e+003 9.964174e+002 1.802586e+003
         vertex 2.347792e+003 9.955606e+002 1.801986e+003
      endloop
   endfacet
   facet normal -1.000000e+000 1.532842e-016 4.047996e-015
      outer loop
         vertex 2.347792e+003 9.844173e+002 1.822390e+003
         vertex 2.347792e+003 9.955606e+002 1.801986e+003
         vertex 2.347792e+003 9.744174e+002 1.812390e+003
      endloop
   endfacet
   facet normal -1.000000e+000 1.532842e-016 4.047996e-015
      outer loop
         vertex 2.347792e+003 9.744174e+002 1.812390e+003
         vertex 2.347792e+003 9.955606e+002 1.801986e+003
         vertex 2.347792e+003 9.948210e+002 1.801247e+003
      endloop
   endfacet
   facet normal -1.000000e+000 1.532842e-016 4.047996e-015
      outer loop
         vertex 2.347792e+003 9.744174e+002 1.812390e+003
         vertex 2.347792e+003 9.948210e+002 1.801247e+003
         vertex 2.347792e+003 9.942212e+002 1.800390e+003
      endloop
   endfacet
   facet normal 1.000000e+000 -1.532842e-016 -4.047996e-015
      outer loop
         vertex 2.359792e+003 9.934173e+002 1.797390e+003
         vertex 2.359792e+003 9.935085e+002 1.798432e+003
         vertex 2.359792e+003 9.744174e+002 1.812390e+003
      endloop
   endfacet
   facet normal 1.000000e+000 -1.532842e-016 -4.047996e-015
      outer loop
         vertex 2.359792e+003 9.744174e+002 1.812390e+003
         vertex 2.359792e+003 9.935085e+002 1.798432e+003
         vertex 2.359792e+003 9.937792e+002 1.799442e+003
      endloop
   endfacet
   facet normal 1.000000e+000 -1.532842e-016 -4.047996e-015
      outer loop
         vertex 2.359792e+003 9.973652e+002 1.803028e+003
         vertex 2.359792e+003 9.983754e+002 1.803299e+003
         vertex 2.359792e+003 9.844173e+002 1.822390e+003
      endloop
   endfacet
   facet normal 1.000000e+000 -1.532842e-016 -4.047996e-015
      outer loop
         vertex 2.359792e+003 9.973652e+002 1.803028e+003
         vertex 2.359792e+003 9.844173e+002 1.822390e+003
         vertex 2.359792e+003 9.964174e+002 1.802586e+003
      endloop
   endfacet
   facet normal 1.000000e+000 -1.532842e-016 -4.047996e-015
      outer loop
         vertex 2.359792e+003 1.002417e+003 1.792194e+003
         vertex 2.359792e+003 1.001469e+003 1.791752e+003
         vertex 2.359792e+003 9.994173e+002 1.762390e+003
      endloop
   endfacet
   facet normal 1.000000e+000 -1.532842e-016 -4.047996e-015
      outer loop
         vertex 2.359792e+003 9.994173e+002 1.762390e+003
         vertex 2.359792e+003 1.001469e+003 1.791752e+003
         vertex 2.359792e+003 1.000459e+003 1.791481e+003
      endloop
   endfacet
   facet normal 1.000000e+000 -1.532842e-016 -4.047996e-015
      outer loop
         vertex 2.359792e+003 9.964174e+002 1.792194e+003
         vertex 2.359792e+003 9.955606e+002 1.792794e+003
         vertex 2.359792e+003 9.744174e+002 1.762390e+003
      endloop
   endfacet
   facet normal 1.000000e+000 -1.532842e-016 -4.047996e-015
      outer loop
         vertex 2.359792e+003 9.744174e+002 1.762390e+003
         vertex 2.359792e+003 9.955606e+002 1.792794e+003
         vertex 2.359792e+003 9.948210e+002 1.793533e+003
      endloop
   endfacet
   facet normal 1.000000e+000 -1.532842e-016 -4.047996e-015
      outer loop
         vertex 2.359792e+003 1.000459e+003 1.791481e+003
         vertex 2.359792e+003 9.994173e+002 1.791390e+003
         vertex 2.359792e+003 9.994173e+002 1.762390e+003
      endloop
   endfacet
   facet normal 1.000000e+000 -1.532842e-016 -4.047996e-015
      outer loop
         vertex 2.359792e+003 9.994173e+002 1.762390e+003
         vertex 2.359792e+003 9.994173e+002 1.791390e+003
         vertex 2.359792e+003 9.983754e+002 1.791481e+003
      endloop
   endfacet
   facet normal 1.000000e+000 -1.532842e-016 -4.047996e-015
      outer loop
         vertex 2.359792e+003 9.994173e+002 1.762390e+003
         vertex 2.359792e+003 9.983754e+002 1.791481e+003
         vertex 2.359792e+003 9.744174e+002 1.762390e+003
      endloop
   endfacet
   facet normal 1.000000e+000 -1.532842e-016 -4.047996e-015
      outer loop
         vertex 2.359792e+003 9.744174e+002 1.762390e+003
         vertex 2.359792e+003 9.983754e+002 1.791481e+003
         vertex 2.359792e+003 9.973652e+002 1.791752e+003
      endloop
   endfacet
   facet normal 1.000000e+000 -1.532842e-016 -4.047996e-015
      outer loop
         vertex 2.359792e+003 9.744174e+002 1.762390e+003
         vertex 2.359792e+003 9.973652e+002 1.791752e+003
         vertex 2.359792e+003 9.964174e+002 1.792194e+003
      endloop
   endfacet
   facet normal 1.000000e+000 -1.532842e-016 -4.047996e-015
      outer loop
         vertex 2.359792e+003 9.948210e+002 1.793533e+003
         vertex 2.359792e+003 9.942212e+002 1.794390e+003
         vertex 2.359792e+003 9.744174e+002 1.762390e+003
      endloop
   endfacet
   facet normal 1.000000e+000 -1.532842e-016 -4.047996e-015
      outer loop
         vertex 2.359792e+003 9.744174e+002 1.762390e+003
         vertex 2.359792e+003 9.942212e+002 1.794390e+003
         vertex 2.359792e+003 9.937792e+002 1.795338e+003
      endloop
   endfacet
   facet normal 1.000000e+000 -1.532842e-016 -4.047996e-015
      outer loop
         vertex 2.359792e+003 9.744174e+002 1.762390e+003
         vertex 2.359792e+003 9.937792e+002 1.795338e+003
         vertex 2.359792e+003 9.744174e+002 1.812390e+003
      endloop
   endfacet
   facet normal 1.000000e+000 -1.532842e-016 -4.047996e-015
      outer loop
         vertex 2.359792e+003 9.744174e+002 1.812390e+003
         vertex 2.359792e+003 9.937792e+002 1.795338e+003
         vertex 2.359792e+003 9.935085e+002 1.796348e+003
      endloop
   endfacet
   facet normal 1.000000e+000 -1.532842e-016 -4.047996e-015
      outer loop
         vertex 2.359792e+003 9.744174e+002 1.812390e+003
         vertex 2.359792e+003 9.935085e+002 1.796348e+003
         vertex 2.359792e+003 9.934173e+002 1.797390e+003
      endloop
   endfacet
   facet normal 1.000000e+000 -1.532842e-016 -4.047996e-015
      outer loop
         vertex 2.359792e+003 9.937792e+002 1.799442e+003
         vertex 2.359792e+003 9.942212e+002 1.800390e+003
         vertex 2.359792e+003 9.744174e+002 1.812390e+003
      endloop
   endfacet
   facet normal 1.000000e+000 -1.532842e-016 -4.047996e-015
      outer loop
         vertex 2.359792e+003 9.744174e+002 1.812390e+003
         vertex 2.359792e+003 9.942212e+002 1.800390e+003
         vertex 2.359792e+003 9.948210e+002 1.801247e+003
      endloop
   endfacet
   facet normal 1.000000e+000 -1.532842e-016 -4.047996e-015
      outer loop
         vertex 2.359792e+003 9.744174e+002 1.812390e+003
         vertex 2.359792e+003 9.948210e+002 1.801247e+003
         vertex 2.359792e+003 9.844173e+002 1.822390e+003
      endloop
   endfacet
   facet normal 1.000000e+000 -1.532842e-016 -4.047996e-015
      outer loop
         vertex 2.359792e+003 9.844173e+002 1.822390e+003
         vertex 2.359792e+003 9.948210e+002 1.801247e+003
         vertex 2.359792e+003 9.955606e+002 1.801986e+003
      endloop
   endfacet
   facet normal 1.000000e+000 -1.532842e-016 -4.047996e-015
      outer loop
         vertex 2.359792e+003 9.844173e+002 1.822390e+003
         vertex 2.359792e+003 9.955606e+002 1.801986e+003
         vertex 2.359792e+003 9.964174e+002 1.802586e+003
      endloop
   endfacet
   facet normal 1.000000e+000 -1.532842e-016 -4.047996e-015
      outer loop
         vertex 2.359792e+003 1.001469e+003 1.803028e+003
         vertex 2.359792e+003 1.034417e+003 1.822390e+003
         vertex 2.359792e+003 1.000459e+003 1.803299e+003
      endloop
   endfacet
   facet normal 1.000000e+000 -1.532842e-016 -4.047996e-015
      outer loop
         vertex 2.359792e+003 1.000459e+003 1.803299e+003
         vertex 2.359792e+003 1.034417e+003 1.822390e+003
         vertex 2.359792e+003 9.844173e+002 1.822390e+003
      endloop
   endfacet
   facet normal 1.000000e+000 -1.532842e-016 -4.047996e-015
      outer loop
         vertex 2.359792e+003 1.000459e+003 1.803299e+003
         vertex 2.359792e+003 9.844173e+002 1.822390e+003
         vertex 2.359792e+003 9.994173e+002 1.803390e+003
      endloop
   endfacet
   facet normal 1.000000e+000 -1.532842e-016 -4.047996e-015
      outer loop
         vertex 2.359792e+003 9.994173e+002 1.803390e+003
         vertex 2.359792e+003 9.844173e+002 1.822390e+003
         vertex 2.359792e+003 9.983754e+002 1.803299e+003
      endloop
   endfacet
   facet normal 1.000000e+000 -1.532842e-016 -4.047996e-015
      outer loop
         vertex 2.359792e+003 1.001469e+003 1.803028e+003
         vertex 2.359792e+003 1.002417e+003 1.802586e+003
         vertex 2.359792e+003 1.034417e+003 1.822390e+003
      endloop
   endfacet
   facet normal 1.000000e+000 -1.532842e-016 -4.047996e-015
      outer loop
         vertex 2.359792e+003 1.034417e+003 1.822390e+003
         vertex 2.359792e+003 1.002417e+003 1.802586e+003
         vertex 2.359792e+003 1.003274e+003 1.801986e+003
      endloop
   endfacet
   facet normal 1.000000e+000 -1.532842e-016 -4.047996e-015
      outer loop
         vertex 2.359792e+003 1.034417e+003 1.822390e+003
         vertex 2.359792e+003 1.003274e+003 1.801986e+003
         vertex 2.359792e+003 1.004014e+003 1.801247e+003
      endloop
   endfacet
   facet normal 1.000000e+000 -1.532842e-016 -4.047996e-015
      outer loop
         vertex 2.359792e+003 1.005056e+003 1.795338e+003
         vertex 2.359792e+003 1.034417e+003 1.797390e+003
         vertex 2.359792e+003 1.005326e+003 1.796348e+003
      endloop
   endfacet
   facet normal 1.000000e+000 -1.532842e-016 -4.047996e-015
      outer loop
         vertex 2.359792e+003 1.005326e+003 1.796348e+003
         vertex 2.359792e+003 1.034417e+003 1.797390e+003
         vertex 2.359792e+003 1.005417e+003 1.797390e+003
      endloop
   endfacet
   facet normal 1.000000e+000 -1.532842e-016 -4.047996e-015
      outer loop
         vertex 2.359792e+003 1.005056e+003 1.795338e+003
         vertex 2.359792e+003 1.004614e+003 1.794390e+003
         vertex 2.359792e+003 1.034417e+003 1.797390e+003
      endloop
   endfacet
   facet normal 1.000000e+000 -1.532842e-016 -4.047996e-015
      outer loop
         vertex 2.359792e+003 1.034417e+003 1.797390e+003
         vertex 2.359792e+003 1.004614e+003 1.794390e+003
         vertex 2.359792e+003 1.004014e+003 1.793533e+003
      endloop
   endfacet
   facet normal 1.000000e+000 -1.532842e-016 -4.047996e-015
      outer loop
         vertex 2.359792e+003 1.034417e+003 1.797390e+003
         vertex 2.359792e+003 1.004014e+003 1.793533e+003
         vertex 2.359792e+003 9.994173e+002 1.762390e+003
      endloop
   endfacet
   facet normal 1.000000e+000 -1.532842e-016 -4.047996e-015
      outer loop
         vertex 2.359792e+003 9.994173e+002 1.762390e+003
         vertex 2.359792e+003 1.004014e+003 1.793533e+003
         vertex 2.359792e+003 1.003274e+003 1.792794e+003
      endloop
   endfacet
   facet normal 1.000000e+000 -1.532842e-016 -4.047996e-015
      outer loop
         vertex 2.359792e+003 9.994173e+002 1.762390e+003
         vertex 2.359792e+003 1.003274e+003 1.792794e+003
         vertex 2.359792e+003 1.002417e+003 1.792194e+003
      endloop
   endfacet
   facet normal 1.000000e+000 -1.532842e-016 -4.047996e-015
      outer loop
         vertex 2.359792e+003 1.004014e+003 1.801247e+003
         vertex 2.359792e+003 1.004614e+003 1.800390e+003
         vertex 2.359792e+003 1.034417e+003 1.822390e+003
      endloop
   endfacet
   facet normal 1.000000e+000 -1.532842e-016 -4.047996e-015
      outer loop
         vertex 2.359792e+003 1.034417e+003 1.822390e+003
         vertex 2.359792e+003 1.004614e+003 1.800390e+003
         vertex 2.359792e+003 1.005056e+003 1.799442e+003
      endloop
   endfacet
   facet normal 1.000000e+000 -1.532842e-016 -4.047996e-015
      outer loop
         vertex 2.359792e+003 1.034417e+003 1.822390e+003
         vertex 2.359792e+003 1.005056e+003 1.799442e+003
         vertex 2.359792e+003 1.034417e+003 1.797390e+003
      endloop
   endfacet
   facet normal 1.000000e+000 -1.532842e-016 -4.047996e-015
      outer loop
         vertex 2.359792e+003 1.034417e+003 1.797390e+003
         vertex 2.359792e+003 1.005056e+003 1.799442e+003
         vertex 2.359792e+003 1.005326e+003 1.798432e+003
      endloop
   endfacet
   facet normal 1.000000e+000 -1.532842e-016 -4.047996e-015
      outer loop
         vertex 2.359792e+003 1.034417e+003 1.797390e+003
         vertex 2.359792e+003 1.005326e+003 1.798432e+003
         vertex 2.359792e+003 1.005417e+003 1.797390e+003
      endloop
   endfacet
   facet normal -2.807907e-015 7.071068e-001 -7.071068e-001
      outer loop
         vertex 2.359792e+003 1.034417e+003 1.797390e+003
         vertex 2.359792e+003 9.994173e+002 1.762390e+003
         vertex 2.347792e+003 1.034417e+003 1.797390e+003
      endloop
   endfacet
   facet normal -2.807907e-015 7.071068e-001 -7.071068e-001
      outer loop
         vertex 2.347792e+003 1.034417e+003 1.797390e+003
         vertex 2.359792e+003 9.994173e+002 1.762390e+003
         vertex 2.347792e+003 9.994173e+002 1.762390e+003
      endloop
   endfacet
   facet normal 2.807907e-015 -7.071068e-001 7.071068e-001
      outer loop
         vertex 2.359792e+003 9.744174e+002 1.812390e+003
         vertex 2.359792e+003 9.844173e+002 1.822390e+003
         vertex 2.347792e+003 9.744174e+002 1.812390e+003
      endloop
   endfacet
   facet normal 2.807907e-015 -7.071068e-001 7.071068e-001
      outer loop
         vertex 2.347792e+003 9.744174e+002 1.812390e+003
         vertex 2.359792e+003 9.844173e+002 1.822390e+003
         vertex 2.347792e+003 9.844173e+002 1.822390e+003
      endloop
   endfacet
   facet normal -1.784377e-016 9.983120e-001 -5.807914e-002
      outer loop
         vertex 2.347792e+003 9.935085e+002 1.798432e+003
         vertex 2.359792e+003 9.934173e+002 1.797390e+003
         vertex 2.347792e+003 9.934173e+002 1.797390e+003
      endloop
   endfacet
   facet normal 2.892726e-016 9.983120e-001 5.807914e-002
      outer loop
         vertex 2.347792e+003 9.934173e+002 1.797390e+003
         vertex 2.359792e+003 9.934173e+002 1.797390e+003
         vertex 2.359792e+003 9.935085e+002 1.796348e+003
      endloop
   endfacet
   facet normal 5.228456e-016 9.932307e-001 1.161583e-001
      outer loop
         vertex 2.347792e+003 9.934173e+002 1.797390e+003
         vertex 2.359792e+003 9.935085e+002 1.796348e+003
         vertex 2.347792e+003 9.935085e+002 1.796348e+003
      endloop
   endfacet
   facet normal 9.823305e-016 9.730601e-001 2.305518e-001
      outer loop
         vertex 2.347792e+003 9.935085e+002 1.796348e+003
         vertex 2.359792e+003 9.935085e+002 1.796348e+003
         vertex 2.359792e+003 9.937792e+002 1.795338e+003
      endloop
   endfacet
   facet normal 1.208243e-015 9.579706e-001 2.868663e-001
      outer loop
         vertex 2.347792e+003 9.935085e+002 1.796348e+003
         vertex 2.359792e+003 9.937792e+002 1.795338e+003
         vertex 2.347792e+003 9.937792e+002 1.795338e+003
      endloop
   endfacet
   facet normal 1.645541e-015 9.182422e-001 3.960194e-001
      outer loop
         vertex 2.347792e+003 9.937792e+002 1.795338e+003
         vertex 2.359792e+003 9.937792e+002 1.795338e+003
         vertex 2.359792e+003 9.942212e+002 1.794390e+003
      endloop
   endfacet
   facet normal 1.856927e-015 8.936031e-001 4.488580e-001
      outer loop
         vertex 2.347792e+003 9.937792e+002 1.795338e+003
         vertex 2.359792e+003 9.942212e+002 1.794390e+003
         vertex 2.347792e+003 9.942212e+002 1.794390e+003
      endloop
   endfacet
   facet normal 2.258752e-015 8.355240e-001 5.494540e-001
      outer loop
         vertex 2.347792e+003 9.942212e+002 1.794390e+003
         vertex 2.359792e+003 9.942212e+002 1.794390e+003
         vertex 2.359792e+003 9.948210e+002 1.793533e+003
      endloop
   endfacet
   facet normal 2.449191e-015 8.020839e-001 5.972114e-001
      outer loop
         vertex 2.347792e+003 9.942212e+002 1.794390e+003
         vertex 2.359792e+003 9.948210e+002 1.793533e+003
         vertex 2.347792e+003 9.948210e+002 1.793533e+003
      endloop
   endfacet
   facet normal 2.803333e-015 7.274188e-001 6.861938e-001
      outer loop
         vertex 2.347792e+003 9.948210e+002 1.793533e+003
         vertex 2.359792e+003 9.948210e+002 1.793533e+003
         vertex 2.359792e+003 9.955606e+002 1.792794e+003
      endloop
   endfacet
   facet normal 2.967037e-015 6.861938e-001 7.274188e-001
      outer loop
         vertex 2.347792e+003 9.948210e+002 1.793533e+003
         vertex 2.359792e+003 9.955606e+002 1.792794e+003
         vertex 2.347792e+003 9.955606e+002 1.792794e+003
      endloop
   endfacet
   facet normal 3.262735e-015 5.972114e-001 8.020839e-001
      outer loop
         vertex 2.347792e+003 9.955606e+002 1.792794e+003
         vertex 2.359792e+003 9.955606e+002 1.792794e+003
         vertex 2.359792e+003 9.964174e+002 1.792194e+003
      endloop
   endfacet
   facet normal 3.394730e-015 5.494540e-001 8.355240e-001
      outer loop
         vertex 2.347792e+003 9.955606e+002 1.792794e+003
         vertex 2.359792e+003 9.964174e+002 1.792194e+003
         vertex 2.347792e+003 9.964174e+002 1.792194e+003
      endloop
   endfacet
   facet normal 3.623001e-015 4.488580e-001 8.936031e-001
      outer loop
         vertex 2.347792e+003 9.964174e+002 1.792194e+003
         vertex 2.359792e+003 9.964174e+002 1.792194e+003
         vertex 2.359792e+003 9.973652e+002 1.791752e+003
      endloop
   endfacet
   facet normal 3.719277e-015 3.960194e-001 9.182422e-001
      outer loop
         vertex 2.347792e+003 9.964174e+002 1.792194e+003
         vertex 2.359792e+003 9.973652e+002 1.791752e+003
         vertex 2.347792e+003 9.973652e+002 1.791752e+003
      endloop
   endfacet
   facet normal 3.873184e-015 2.868663e-001 9.579706e-001
      outer loop
         vertex 2.347792e+003 9.973652e+002 1.791752e+003
         vertex 2.359792e+003 9.973652e+002 1.791752e+003
         vertex 2.359792e+003 9.983754e+002 1.791481e+003
      endloop
   endfacet
   facet normal 3.930816e-015 2.305518e-001 9.730601e-001
      outer loop
         vertex 2.347792e+003 9.973652e+002 1.791752e+003
         vertex 2.359792e+003 9.983754e+002 1.791481e+003
         vertex 2.347792e+003 9.983754e+002 1.791481e+003
      endloop
   endfacet
   facet normal 4.005682e-015 1.161583e-001 9.932307e-001
      outer loop
         vertex 2.347792e+003 9.983754e+002 1.791481e+003
         vertex 2.359792e+003 9.983754e+002 1.791481e+003
         vertex 2.359792e+003 9.994173e+002 1.791390e+003
      endloop
   endfacet
   facet normal 4.022918e-015 5.807914e-002 9.983120e-001
      outer loop
         vertex 2.347792e+003 9.983754e+002 1.791481e+003
         vertex 2.359792e+003 9.994173e+002 1.791390e+003
         vertex 2.347792e+003 9.994173e+002 1.791390e+003
      endloop
   endfacet
   facet normal 4.016470e-015 -5.807914e-002 9.983120e-001
      outer loop
         vertex 2.347792e+003 9.994173e+002 1.791390e+003
         vertex 2.359792e+003 9.994173e+002 1.791390e+003
         vertex 2.359792e+003 1.000459e+003 1.791481e+003
      endloop
   endfacet
   facet normal 3.992786e-015 -1.161583e-001 9.932307e-001
      outer loop
         vertex 2.347792e+003 9.994173e+002 1.791390e+003
         vertex 2.359792e+003 1.000459e+003 1.791481e+003
         vertex 2.347792e+003 1.000459e+003 1.791481e+003
      endloop
   endfacet
   facet normal 3.905219e-015 -2.305518e-001 9.730601e-001
      outer loop
         vertex 2.347792e+003 1.000459e+003 1.791481e+003
         vertex 2.359792e+003 1.000459e+003 1.791481e+003
         vertex 2.359792e+003 1.001469e+003 1.791752e+003
      endloop
   endfacet
   facet normal 3.841335e-015 -2.868663e-001 9.579706e-001
      outer loop
         vertex 2.347792e+003 1.000459e+003 1.791481e+003
         vertex 2.359792e+003 1.001469e+003 1.791752e+003
         vertex 2.347792e+003 1.001469e+003 1.791752e+003
      endloop
   endfacet
   facet normal 3.675310e-015 -3.960194e-001 9.182422e-001
      outer loop
         vertex 2.347792e+003 1.001469e+003 1.791752e+003
         vertex 2.359792e+003 1.001469e+003 1.791752e+003
         vertex 2.359792e+003 1.002417e+003 1.792194e+003
      endloop
   endfacet
   facet normal 3.573168e-015 -4.488580e-001 8.936031e-001
      outer loop
         vertex 2.347792e+003 1.001469e+003 1.791752e+003
         vertex 2.359792e+003 1.002417e+003 1.792194e+003
         vertex 2.347792e+003 1.002417e+003 1.792194e+003
      endloop
   endfacet
   facet normal 3.333729e-015 -5.494540e-001 8.355240e-001
      outer loop
         vertex 2.347792e+003 1.002417e+003 1.792194e+003
         vertex 2.359792e+003 1.002417e+003 1.792194e+003
         vertex 2.359792e+003 1.003274e+003 1.792794e+003
      endloop
   endfacet
   facet normal 3.196432e-015 -5.972114e-001 8.020839e-001
      outer loop
         vertex 2.347792e+003 1.002417e+003 1.792194e+003
         vertex 2.359792e+003 1.003274e+003 1.792794e+003
         vertex 2.347792e+003 1.003274e+003 1.792794e+003
      endloop
   endfacet
   facet normal 2.890854e-015 -6.861938e-001 7.274188e-001
      outer loop
         vertex 2.347792e+003 1.003274e+003 1.792794e+003
         vertex 2.359792e+003 1.003274e+003 1.792794e+003
         vertex 2.359792e+003 1.004014e+003 1.793533e+003
      endloop
   endfacet
   facet normal 2.722573e-015 -7.274188e-001 6.861938e-001
      outer loop
         vertex 2.347792e+003 1.003274e+003 1.792794e+003
         vertex 2.359792e+003 1.004014e+003 1.793533e+003
         vertex 2.347792e+003 1.004014e+003 1.793533e+003
      endloop
   endfacet
   facet normal 2.360141e-015 -8.020839e-001 5.972114e-001
      outer loop
         vertex 2.347792e+003 1.004014e+003 1.793533e+003
         vertex 2.359792e+003 1.004014e+003 1.793533e+003
         vertex 2.359792e+003 1.004614e+003 1.794390e+003
      endloop
   endfacet
   facet normal 2.165991e-015 -8.355240e-001 5.494540e-001
      outer loop
         vertex 2.347792e+003 1.004014e+003 1.793533e+003
         vertex 2.359792e+003 1.004614e+003 1.794390e+003
         vertex 2.347792e+003 1.004614e+003 1.794390e+003
      endloop
   endfacet
   facet normal 1.757718e-015 -8.936031e-001 4.488580e-001
      outer loop
         vertex 2.347792e+003 1.004614e+003 1.794390e+003
         vertex 2.359792e+003 1.004614e+003 1.794390e+003
         vertex 2.359792e+003 1.005056e+003 1.795338e+003
      endloop
   endfacet
   facet normal 1.543596e-015 -9.182422e-001 3.960194e-001
      outer loop
         vertex 2.347792e+003 1.004614e+003 1.794390e+003
         vertex 2.359792e+003 1.005056e+003 1.795338e+003
         vertex 2.347792e+003 1.005056e+003 1.795338e+003
      endloop
   endfacet
   facet normal 1.101886e-015 -9.579706e-001 2.868663e-001
      outer loop
         vertex 2.347792e+003 1.005056e+003 1.795338e+003
         vertex 2.359792e+003 1.005056e+003 1.795338e+003
         vertex 2.359792e+003 1.005326e+003 1.796348e+003
      endloop
   endfacet
   facet normal 8.742991e-016 -9.730601e-001 2.305518e-001
      outer loop
         vertex 2.347792e+003 1.005056e+003 1.795338e+003
         vertex 2.359792e+003 1.005326e+003 1.796348e+003
         vertex 2.347792e+003 1.005326e+003 1.796348e+003
      endloop
   endfacet
   facet normal 4.125748e-016 -9.932307e-001 1.161583e-001
      outer loop
         vertex 2.347792e+003 1.005326e+003 1.796348e+003
         vertex 2.359792e+003 1.005326e+003 1.796348e+003
         vertex 2.359792e+003 1.005417e+003 1.797390e+003
      endloop
   endfacet
   facet normal 1.784377e-016 -9.983120e-001 5.807914e-002
      outer loop
         vertex 2.347792e+003 1.005326e+003 1.796348e+003
         vertex 2.359792e+003 1.005417e+003 1.797390e+003
         vertex 2.347792e+003 1.005417e+003 1.797390e+003
      endloop
   endfacet
   facet normal -2.892726e-016 -9.983120e-001 -5.807914e-002
      outer loop
         vertex 2.347792e+003 1.005417e+003 1.797390e+003
         vertex 2.359792e+003 1.005417e+003 1.797390e+003
         vertex 2.359792e+003 1.005326e+003 1.798432e+003
      endloop
   endfacet
   facet normal -5.228456e-016 -9.932307e-001 -1.161583e-001
      outer loop
         vertex 2.347792e+003 1.005417e+003 1.797390e+003
         vertex 2.359792e+003 1.005326e+003 1.798432e+003
         vertex 2.347792e+003 1.005326e+003 1.798432e+003
      endloop
   endfacet
   facet normal -9.823305e-016 -9.730601e-001 -2.305518e-001
      outer loop
         vertex 2.347792e+003 1.005326e+003 1.798432e+003
         vertex 2.359792e+003 1.005326e+003 1.798432e+003
         vertex 2.359792e+003 1.005056e+003 1.799442e+003
      endloop
   endfacet
   facet normal -1.208243e-015 -9.579706e-001 -2.868663e-001
      outer loop
         vertex 2.347792e+003 1.005326e+003 1.798432e+003
         vertex 2.359792e+003 1.005056e+003 1.799442e+003
         vertex 2.347792e+003 1.005056e+003 1.799442e+003
      endloop
   endfacet
   facet normal -1.645541e-015 -9.182422e-001 -3.960194e-001
      outer loop
         vertex 2.347792e+003 1.005056e+003 1.799442e+003
         vertex 2.359792e+003 1.005056e+003 1.799442e+003
         vertex 2.359792e+003 1.004614e+003 1.800390e+003
      endloop
   endfacet
   facet normal -1.856927e-015 -8.936031e-001 -4.488580e-001
      outer loop
         vertex 2.347792e+003 1.005056e+003 1.799442e+003
         vertex 2.359792e+003 1.004614e+003 1.800390e+003
         vertex 2.347792e+003 1.004614e+003 1.800390e+003
      endloop
   endfacet
   facet normal -2.258752e-015 -8.355240e-001 -5.494540e-001
      outer loop
         vertex 2.347792e+003 1.004614e+003 1.800390e+003
         vertex 2.359792e+003 1.004614e+003 1.800390e+003
         vertex 2.359792e+003 1.004014e+003 1.801247e+003
      endloop
   endfacet
   facet normal -2.449191e-015 -8.020839e-001 -5.972114e-001
      outer loop
         vertex 2.347792e+003 1.004614e+003 1.800390e+003
         vertex 2.359792e+003 1.004014e+003 1.801247e+003
         vertex 2.347792e+003 1.004014e+003 1.801247e+003
      endloop
   endfacet
   facet normal -2.803333e-015 -7.274188e-001 -6.861938e-001
      outer loop
         vertex 2.347792e+003 1.004014e+003 1.801247e+003
         vertex 2.359792e+003 1.004014e+003 1.801247e+003
         vertex 2.359792e+003 1.003274e+003 1.801986e+003
      endloop
   endfacet
   facet normal -2.967037e-015 -6.861938e-001 -7.274188e-001
      outer loop
         vertex 2.347792e+003 1.004014e+003 1.801247e+003
         vertex 2.359792e+003 1.003274e+003 1.801986e+003
         vertex 2.347792e+003 1.003274e+003 1.801986e+003
      endloop
   endfacet
   facet normal -3.262735e-015 -5.972114e-001 -8.020839e-001
      outer loop
         vertex 2.347792e+003 1.003274e+003 1.801986e+003
         vertex 2.359792e+003 1.003274e+003 1.801986e+003
         vertex 2.359792e+003 1.002417e+003 1.802586e+003
      endloop
   endfacet
   facet normal -3.394730e-015 -5.494540e-001 -8.355240e-001
      outer loop
         vertex 2.347792e+003 1.003274e+003 1.801986e+003
         vertex 2.359792e+003 1.002417e+003 1.802586e+003
         vertex 2.347792e+003 1.002417e+003 1.802586e+003
      endloop
   endfacet
   facet normal -3.623001e-015 -4.488580e-001 -8.936031e-001
      outer loop
         vertex 2.347792e+003 1.002417e+003 1.802586e+003
         vertex 2.359792e+003 1.002417e+003 1.802586e+003
         vertex 2.359792e+003 1.001469e+003 1.803028e+003
      endloop
   endfacet
   facet normal -3.719277e-015 -3.960194e-001 -9.182422e-001
      outer loop
         vertex 2.347792e+003 1.002417e+003 1.802586e+003
         vertex 2.359792e+003 1.001469e+003 1.803028e+003
         vertex 2.347792e+003 1.001469e+003 1.803028e+003
      endloop
   endfacet
   facet normal -3.873184e-015 -2.868663e-001 -9.579706e-001
      outer loop
         vertex 2.347792e+003 1.001469e+003 1.803028e+003
         vertex 2.359792e+003 1.001469e+003 1.803028e+003
         vertex 2.359792e+003 1.000459e+003 1.803299e+003
      endloop
   endfacet
   facet normal -3.930816e-015 -2.305518e-001 -9.730601e-001
      outer loop
         vertex 2.347792e+003 1.001469e+003 1.803028e+003
         vertex 2.359792e+003 1.000459e+003 1.803299e+003
         vertex 2.347792e+003 1.000459e+003 1.803299e+003
      endloop
   endfacet
   facet normal -4.005682e-015 -1.161583e-001 -9.932307e-001
      outer loop
         vertex 2.347792e+003 1.000459e+003 1.803299e+003
         vertex 2.359792e+003 1.000459e+003 1.803299e+003
         vertex 2.359792e+003 9.994173e+002 1.803390e+003
      endloop
   endfacet
   facet normal -4.022918e-015 -5.807914e-002 -9.983120e-001
      outer loop
         vertex 2.347792e+003 1.000459e+003 1.803299e+003
         vertex 2.359792e+003 9.994173e+002 1.803390e+003
         vertex 2.347792e+003 9.994173e+002 1.803390e+003
      endloop
   endfacet
   facet normal -4.016470e-015 5.807914e-002 -9.983120e-001
      outer loop
         vertex 2.347792e+003 9.994173e+002 1.803390e+003
         vertex 2.359792e+003 9.994173e+002 1.803390e+003
         vertex 2.359792e+003 9.983754e+002 1.803299e+003
      endloop
   endfacet
   facet normal -3.992786e-015 1.161583e-001 -9.932307e-001
      outer loop
         vertex 2.347792e+003 9.994173e+002 1.803390e+003
         vertex 2.359792e+003 9.983754e+002 1.803299e+003
         vertex 2.347792e+003 9.983754e+002 1.803299e+003
      endloop
   endfacet
   facet normal -3.905219e-015 2.305518e-001 -9.730601e-001
      outer loop
         vertex 2.347792e+003 9.983754e+002 1.803299e+003
         vertex 2.359792e+003 9.983754e+002 1.803299e+003
         vertex 2.359792e+003 9.973652e+002 1.803028e+003
      endloop
   endfacet
   facet normal -3.841335e-015 2.868663e-001 -9.579706e-001
      outer loop
         vertex 2.347792e+003 9.983754e+002 1.803299e+003
         vertex 2.359792e+003 9.973652e+002 1.803028e+003
         vertex 2.347792e+003 9.973652e+002 1.803028e+003
      endloop
   endfacet
   facet normal -3.675310e-015 3.960194e-001 -9.182422e-001
      outer loop
         vertex 2.347792e+003 9.973652e+002 1.803028e+003
         vertex 2.359792e+003 9.973652e+002 1.803028e+003
         vertex 2.359792e+003 9.964174e+002 1.802586e+003
      endloop
   endfacet
   facet normal -3.573168e-015 4.488580e-001 -8.936031e-001
      outer loop
         vertex 2.347792e+003 9.973652e+002 1.803028e+003
         vertex 2.359792e+003 9.964174e+002 1.802586e+003
         vertex 2.347792e+003 9.964174e+002 1.802586e+003
      endloop
   endfacet
   facet normal -3.333729e-015 5.494540e-001 -8.355240e-001
      outer loop
         vertex 2.347792e+003 9.964174e+002 1.802586e+003
         vertex 2.359792e+003 9.964174e+002 1.802586e+003
         vertex 2.359792e+003 9.955606e+002 1.801986e+003
      endloop
   endfacet
   facet normal -3.196432e-015 5.972114e-001 -8.020839e-001
      outer loop
         vertex 2.347792e+003 9.964174e+002 1.802586e+003
         vertex 2.359792e+003 9.955606e+002 1.801986e+003
         vertex 2.347792e+003 9.955606e+002 1.801986e+003
      endloop
   endfacet
   facet normal -2.890854e-015 6.861938e-001 -7.274188e-001
      outer loop
         vertex 2.347792e+003 9.955606e+002 1.801986e+003
         vertex 2.359792e+003 9.955606e+002 1.801986e+003
         vertex 2.359792e+003 9.948210e+002 1.801247e+003
      endloop
   endfacet
   facet normal -2.722573e-015 7.274188e-001 -6.861938e-001
      outer loop
         vertex 2.347792e+003 9.955606e+002 1.801986e+003
         vertex 2.359792e+003 9.948210e+002 1.801247e+003
         vertex 2.347792e+003 9.948210e+002 1.801247e+003
      endloop
   endfacet
   facet normal -2.360141e-015 8.020839e-001 -5.972114e-001
      outer loop
         vertex 2.347792e+003 9.948210e+002 1.801247e+003
         vertex 2.359792e+003 9.948210e+002 1.801247e+003
         vertex 2.359792e+003 9.942212e+002 1.800390e+003
      endloop
   endfacet
   facet normal -2.165991e-015 8.355240e-001 -5.494540e-001
      outer loop
         vertex 2.347792e+003 9.948210e+002 1.801247e+003
         vertex 2.359792e+003 9.942212e+002 1.800390e+003
         vertex 2.347792e+003 9.942212e+002 1.800390e+003
      endloop
   endfacet
   facet normal -1.757718e-015 8.936031e-001 -4.488580e-001
      outer loop
         vertex 2.347792e+003 9.942212e+002 1.800390e+003
         vertex 2.359792e+003 9.942212e+002 1.800390e+003
         vertex 2.359792e+003 9.937792e+002 1.799442e+003
      endloop
   endfacet
   facet normal -1.543596e-015 9.182422e-001 -3.960194e-001
      outer loop
         vertex 2.347792e+003 9.942212e+002 1.800390e+003
         vertex 2.359792e+003 9.937792e+002 1.799442e+003
         vertex 2.347792e+003 9.937792e+002 1.799442e+003
      endloop
   endfacet
   facet normal -1.101886e-015 9.579706e-001 -2.868663e-001
      outer loop
         vertex 2.347792e+003 9.937792e+002 1.799442e+003
         vertex 2.359792e+003 9.937792e+002 1.799442e+003
         vertex 2.359792e+003 9.935085e+002 1.798432e+003
      endloop
   endfacet
   facet normal -8.742991e-016 9.730601e-001 -2.305518e-001
      outer loop
         vertex 2.347792e+003 9.937792e+002 1.799442e+003
         vertex 2.359792e+003 9.935085e+002 1.798432e+003
         vertex 2.347792e+003 9.935085e+002 1.798432e+003
      endloop
   endfacet
   facet normal -4.125748e-016 9.932307e-001 -1.161583e-001
      outer loop
         vertex 2.347792e+003 9.935085e+002 1.798432e+003
         vertex 2.359792e+003 9.935085e+002 1.798432e+003
         vertex 2.359792e+003 9.934173e+002 1.797390e+003
      endloop
   endfacet
endsolid