solid 09.025.00.00.000 - 09.025.00.06.000-1 09.025.00.06.003-1
   facet normal -1.000000e+000 -3.896860e-016 1.255145e-016
      outer loop
         vertex 1.535792e+003 1.177917e+003 1.957390e+003
         vertex 1.535792e+003 1.177917e+003 1.968390e+003
         vertex 1.535792e+003 1.180917e+003 1.957390e+003
      endloop
   endfacet
   facet normal -1.000000e+000 -3.896860e-016 1.255145e-016
      outer loop
         vertex 1.535792e+003 1.180917e+003 1.957390e+003
         vertex 1.535792e+003 1.177917e+003 1.968390e+003
         vertex 1.535792e+003 1.180917e+003 1.968390e+003
      endloop
   endfacet
   facet normal -1.602089e-016 -1.439700e-017 -1.000000e+000
      outer loop
         vertex 1.551792e+003 1.177917e+003 1.957390e+003
         vertex 1.535792e+003 1.177917e+003 1.957390e+003
         vertex 1.551792e+003 1.180917e+003 1.957390e+003
      endloop
   endfacet
   facet normal -1.602089e-016 -1.439700e-017 -1.000000e+000
      outer loop
         vertex 1.551792e+003 1.180917e+003 1.957390e+003
         vertex 1.535792e+003 1.177917e+003 1.957390e+003
         vertex 1.535792e+003 1.180917e+003 1.957390e+003
      endloop
   endfacet
   facet normal 1.000000e+000 3.896860e-016 -2.257128e-016
      outer loop
         vertex 1.551792e+003 1.177917e+003 1.968390e+003
         vertex 1.551792e+003 1.177917e+003 1.957390e+003
         vertex 1.551792e+003 1.180917e+003 1.968390e+003
      endloop
   endfacet
   facet normal 1.000000e+000 3.896860e-016 -2.257128e-016
      outer loop
         vertex 1.551792e+003 1.180917e+003 1.968390e+003
         vertex 1.551792e+003 1.177917e+003 1.957390e+003
         vertex 1.551792e+003 1.180917e+003 1.957390e+003
      endloop
   endfacet
   facet normal 1.755170e-016 1.439700e-017 1.000000e+000
      outer loop
         vertex 1.535792e+003 1.177917e+003 1.968390e+003
         vertex 1.551792e+003 1.177917e+003 1.968390e+003
         vertex 1.535792e+003 1.180917e+003 1.968390e+003
      endloop
   endfacet
   facet normal 1.755170e-016 1.439700e-017 1.000000e+000
      outer loop
         vertex 1.535792e+003 1.180917e+003 1.968390e+003
         vertex 1.551792e+003 1.177917e+003 1.968390e+003
         vertex 1.551792e+003 1.180917e+003 1.968390e+003
      endloop
   endfacet
   facet normal 3.885781e-016 -1.000000e+000 1.908196e-017
      outer loop
         vertex 1.535792e+003 1.177917e+003 1.968390e+003
         vertex 1.542142e+003 1.177917e+003 1.963390e+003
         vertex 1.542167e+003 1.177917e+003 1.963677e+003
      endloop
   endfacet
   facet normal 3.885781e-016 -1.000000e+000 1.908196e-017
      outer loop
         vertex 1.542167e+003 1.177917e+003 1.963677e+003
         vertex 1.542242e+003 1.177917e+003 1.963954e+003
         vertex 1.535792e+003 1.177917e+003 1.968390e+003
      endloop
   endfacet
   facet normal 3.885781e-016 -1.000000e+000 1.908196e-017
      outer loop
         vertex 1.535792e+003 1.177917e+003 1.968390e+003
         vertex 1.542242e+003 1.177917e+003 1.963954e+003
         vertex 1.542363e+003 1.177917e+003 1.964215e+003
      endloop
   endfacet
   facet normal 3.885781e-016 -1.000000e+000 1.908196e-017
      outer loop
         vertex 1.535792e+003 1.177917e+003 1.968390e+003
         vertex 1.542363e+003 1.177917e+003 1.964215e+003
         vertex 1.542528e+003 1.177917e+003 1.964450e+003
      endloop
   endfacet
   facet normal 3.885781e-016 -1.000000e+000 1.908196e-017
      outer loop
         vertex 1.544357e+003 1.177917e+003 1.964940e+003
         vertex 1.544617e+003 1.177917e+003 1.964819e+003
         vertex 1.551792e+003 1.177917e+003 1.968390e+003
      endloop
   endfacet
   facet normal 3.885781e-016 -1.000000e+000 1.908196e-017
      outer loop
         vertex 1.551792e+003 1.177917e+003 1.968390e+003
         vertex 1.544617e+003 1.177917e+003 1.964819e+003
         vertex 1.544853e+003 1.177917e+003 1.964654e+003
      endloop
   endfacet
   facet normal 3.885781e-016 -1.000000e+000 1.908196e-017
      outer loop
         vertex 1.542142e+003 1.177917e+003 1.963390e+003
         vertex 1.535792e+003 1.177917e+003 1.968390e+003
         vertex 1.542167e+003 1.177917e+003 1.963103e+003
      endloop
   endfacet
   facet normal 3.885781e-016 -1.000000e+000 1.908196e-017
      outer loop
         vertex 1.542167e+003 1.177917e+003 1.963103e+003
         vertex 1.535792e+003 1.177917e+003 1.968390e+003
         vertex 1.535792e+003 1.177917e+003 1.957390e+003
      endloop
   endfacet
   facet normal 3.885781e-016 -1.000000e+000 1.908196e-017
      outer loop
         vertex 1.542167e+003 1.177917e+003 1.963103e+003
         vertex 1.535792e+003 1.177917e+003 1.957390e+003
         vertex 1.542242e+003 1.177917e+003 1.962826e+003
      endloop
   endfacet
   facet normal 3.885781e-016 -1.000000e+000 1.908196e-017
      outer loop
         vertex 1.542528e+003 1.177917e+003 1.964450e+003
         vertex 1.542732e+003 1.177917e+003 1.964654e+003
         vertex 1.535792e+003 1.177917e+003 1.968390e+003
      endloop
   endfacet
   facet normal 3.885781e-016 -1.000000e+000 1.908196e-017
      outer loop
         vertex 1.535792e+003 1.177917e+003 1.968390e+003
         vertex 1.542732e+003 1.177917e+003 1.964654e+003
         vertex 1.542967e+003 1.177917e+003 1.964819e+003
      endloop
   endfacet
   facet normal 3.885781e-016 -1.000000e+000 1.908196e-017
      outer loop
         vertex 1.535792e+003 1.177917e+003 1.968390e+003
         vertex 1.542967e+003 1.177917e+003 1.964819e+003
         vertex 1.543228e+003 1.177917e+003 1.964940e+003
      endloop
   endfacet
   facet normal 3.885781e-016 -1.000000e+000 1.908196e-017
      outer loop
         vertex 1.543228e+003 1.177917e+003 1.964940e+003
         vertex 1.543506e+003 1.177917e+003 1.965015e+003
         vertex 1.535792e+003 1.177917e+003 1.968390e+003
      endloop
   endfacet
   facet normal 3.885781e-016 -1.000000e+000 1.908196e-017
      outer loop
         vertex 1.535792e+003 1.177917e+003 1.968390e+003
         vertex 1.543506e+003 1.177917e+003 1.965015e+003
         vertex 1.543792e+003 1.177917e+003 1.965040e+003
      endloop
   endfacet
   facet normal 3.885781e-016 -1.000000e+000 1.908196e-017
      outer loop
         vertex 1.535792e+003 1.177917e+003 1.968390e+003
         vertex 1.543792e+003 1.177917e+003 1.965040e+003
         vertex 1.551792e+003 1.177917e+003 1.968390e+003
      endloop
   endfacet
   facet normal 3.885781e-016 -1.000000e+000 1.908196e-017
      outer loop
         vertex 1.551792e+003 1.177917e+003 1.968390e+003
         vertex 1.543792e+003 1.177917e+003 1.965040e+003
         vertex 1.544079e+003 1.177917e+003 1.965015e+003
      endloop
   endfacet
   facet normal 3.885781e-016 -1.000000e+000 1.908196e-017
      outer loop
         vertex 1.551792e+003 1.177917e+003 1.968390e+003
         vertex 1.544079e+003 1.177917e+003 1.965015e+003
         vertex 1.544357e+003 1.177917e+003 1.964940e+003
      endloop
   endfacet
   facet normal 3.885781e-016 -1.000000e+000 1.908196e-017
      outer loop
         vertex 1.545343e+003 1.177917e+003 1.962826e+003
         vertex 1.545221e+003 1.177917e+003 1.962565e+003
         vertex 1.551792e+003 1.177917e+003 1.957390e+003
      endloop
   endfacet
   facet normal 3.885781e-016 -1.000000e+000 1.908196e-017
      outer loop
         vertex 1.551792e+003 1.177917e+003 1.957390e+003
         vertex 1.545221e+003 1.177917e+003 1.962565e+003
         vertex 1.545056e+003 1.177917e+003 1.962329e+003
      endloop
   endfacet
   facet normal 3.885781e-016 -1.000000e+000 1.908196e-017
      outer loop
         vertex 1.544853e+003 1.177917e+003 1.964654e+003
         vertex 1.545056e+003 1.177917e+003 1.964450e+003
         vertex 1.551792e+003 1.177917e+003 1.968390e+003
      endloop
   endfacet
   facet normal 3.885781e-016 -1.000000e+000 1.908196e-017
      outer loop
         vertex 1.551792e+003 1.177917e+003 1.968390e+003
         vertex 1.545056e+003 1.177917e+003 1.964450e+003
         vertex 1.545221e+003 1.177917e+003 1.964215e+003
      endloop
   endfacet
   facet normal 3.885781e-016 -1.000000e+000 1.908196e-017
      outer loop
         vertex 1.551792e+003 1.177917e+003 1.968390e+003
         vertex 1.545221e+003 1.177917e+003 1.964215e+003
         vertex 1.545343e+003 1.177917e+003 1.963954e+003
      endloop
   endfacet
   facet normal 3.885781e-016 -1.000000e+000 1.908196e-017
      outer loop
         vertex 1.543506e+003 1.177917e+003 1.961765e+003
         vertex 1.535792e+003 1.177917e+003 1.957390e+003
         vertex 1.543792e+003 1.177917e+003 1.961740e+003
      endloop
   endfacet
   facet normal 3.885781e-016 -1.000000e+000 1.908196e-017
      outer loop
         vertex 1.543792e+003 1.177917e+003 1.961740e+003
         vertex 1.535792e+003 1.177917e+003 1.957390e+003
         vertex 1.551792e+003 1.177917e+003 1.957390e+003
      endloop
   endfacet
   facet normal 3.885781e-016 -1.000000e+000 1.908196e-017
      outer loop
         vertex 1.543792e+003 1.177917e+003 1.961740e+003
         vertex 1.551792e+003 1.177917e+003 1.957390e+003
         vertex 1.544079e+003 1.177917e+003 1.961765e+003
      endloop
   endfacet
   facet normal 3.885781e-016 -1.000000e+000 1.908196e-017
      outer loop
         vertex 1.544079e+003 1.177917e+003 1.961765e+003
         vertex 1.551792e+003 1.177917e+003 1.957390e+003
         vertex 1.544357e+003 1.177917e+003 1.961839e+003
      endloop
   endfacet
   facet normal 3.885781e-016 -1.000000e+000 1.908196e-017
      outer loop
         vertex 1.545343e+003 1.177917e+003 1.963954e+003
         vertex 1.545417e+003 1.177917e+003 1.963677e+003
         vertex 1.551792e+003 1.177917e+003 1.968390e+003
      endloop
   endfacet
   facet normal 3.885781e-016 -1.000000e+000 1.908196e-017
      outer loop
         vertex 1.551792e+003 1.177917e+003 1.968390e+003
         vertex 1.545417e+003 1.177917e+003 1.963677e+003
         vertex 1.545442e+003 1.177917e+003 1.963390e+003
      endloop
   endfacet
   facet normal 3.885781e-016 -1.000000e+000 1.908196e-017
      outer loop
         vertex 1.551792e+003 1.177917e+003 1.968390e+003
         vertex 1.545442e+003 1.177917e+003 1.963390e+003
         vertex 1.551792e+003 1.177917e+003 1.957390e+003
      endloop
   endfacet
   facet normal 3.885781e-016 -1.000000e+000 1.908196e-017
      outer loop
         vertex 1.551792e+003 1.177917e+003 1.957390e+003
         vertex 1.545442e+003 1.177917e+003 1.963390e+003
         vertex 1.545417e+003 1.177917e+003 1.963103e+003
      endloop
   endfacet
   facet normal 3.885781e-016 -1.000000e+000 1.908196e-017
      outer loop
         vertex 1.551792e+003 1.177917e+003 1.957390e+003
         vertex 1.545417e+003 1.177917e+003 1.963103e+003
         vertex 1.545343e+003 1.177917e+003 1.962826e+003
      endloop
   endfacet
   facet normal 3.885781e-016 -1.000000e+000 1.908196e-017
      outer loop
         vertex 1.545056e+003 1.177917e+003 1.962329e+003
         vertex 1.544853e+003 1.177917e+003 1.962126e+003
         vertex 1.551792e+003 1.177917e+003 1.957390e+003
      endloop
   endfacet
   facet normal 3.885781e-016 -1.000000e+000 1.908196e-017
      outer loop
         vertex 1.551792e+003 1.177917e+003 1.957390e+003
         vertex 1.544853e+003 1.177917e+003 1.962126e+003
         vertex 1.544617e+003 1.177917e+003 1.961961e+003
      endloop
   endfacet
   facet normal 3.885781e-016 -1.000000e+000 1.908196e-017
      outer loop
         vertex 1.551792e+003 1.177917e+003 1.957390e+003
         vertex 1.544617e+003 1.177917e+003 1.961961e+003
         vertex 1.544357e+003 1.177917e+003 1.961839e+003
      endloop
   endfacet
   facet normal 3.885781e-016 -1.000000e+000 1.908196e-017
      outer loop
         vertex 1.543506e+003 1.177917e+003 1.961765e+003
         vertex 1.543228e+003 1.177917e+003 1.961839e+003
         vertex 1.535792e+003 1.177917e+003 1.957390e+003
      endloop
   endfacet
   facet normal 3.885781e-016 -1.000000e+000 1.908196e-017
      outer loop
         vertex 1.535792e+003 1.177917e+003 1.957390e+003
         vertex 1.543228e+003 1.177917e+003 1.961839e+003
         vertex 1.542967e+003 1.177917e+003 1.961961e+003
      endloop
   endfacet
   facet normal 3.885781e-016 -1.000000e+000 1.908196e-017
      outer loop
         vertex 1.535792e+003 1.177917e+003 1.957390e+003
         vertex 1.542967e+003 1.177917e+003 1.961961e+003
         vertex 1.542732e+003 1.177917e+003 1.962126e+003
      endloop
   endfacet
   facet normal 3.885781e-016 -1.000000e+000 1.908196e-017
      outer loop
         vertex 1.542732e+003 1.177917e+003 1.962126e+003
         vertex 1.542528e+003 1.177917e+003 1.962329e+003
         vertex 1.535792e+003 1.177917e+003 1.957390e+003
      endloop
   endfacet
   facet normal 3.885781e-016 -1.000000e+000 1.908196e-017
      outer loop
         vertex 1.535792e+003 1.177917e+003 1.957390e+003
         vertex 1.542528e+003 1.177917e+003 1.962329e+003
         vertex 1.542363e+003 1.177917e+003 1.962565e+003
      endloop
   endfacet
   facet normal 3.885781e-016 -1.000000e+000 1.908196e-017
      outer loop
         vertex 1.535792e+003 1.177917e+003 1.957390e+003
         vertex 1.542363e+003 1.177917e+003 1.962565e+003
         vertex 1.542242e+003 1.177917e+003 1.962826e+003
      endloop
   endfacet
   facet normal -3.885781e-016 1.000000e+000 -1.908196e-017
      outer loop
         vertex 1.542732e+003 1.180917e+003 1.964654e+003
         vertex 1.542528e+003 1.180917e+003 1.964450e+003
         vertex 1.535792e+003 1.180917e+003 1.968390e+003
      endloop
   endfacet
   facet normal -3.885781e-016 1.000000e+000 -1.908196e-017
      outer loop
         vertex 1.535792e+003 1.180917e+003 1.968390e+003
         vertex 1.542528e+003 1.180917e+003 1.964450e+003
         vertex 1.542363e+003 1.180917e+003 1.964215e+003
      endloop
   endfacet
   facet normal -3.885781e-016 1.000000e+000 -1.908196e-017
      outer loop
         vertex 1.535792e+003 1.180917e+003 1.968390e+003
         vertex 1.542363e+003 1.180917e+003 1.964215e+003
         vertex 1.542242e+003 1.180917e+003 1.963954e+003
      endloop
   endfacet
   facet normal -3.885781e-016 1.000000e+000 -1.908196e-017
      outer loop
         vertex 1.544617e+003 1.180917e+003 1.964819e+003
         vertex 1.551792e+003 1.180917e+003 1.968390e+003
         vertex 1.544853e+003 1.180917e+003 1.964654e+003
      endloop
   endfacet
   facet normal -3.885781e-016 1.000000e+000 -1.908196e-017
      outer loop
         vertex 1.544853e+003 1.180917e+003 1.964654e+003
         vertex 1.551792e+003 1.180917e+003 1.968390e+003
         vertex 1.545056e+003 1.180917e+003 1.964450e+003
      endloop
   endfacet
   facet normal -3.885781e-016 1.000000e+000 -1.908196e-017
      outer loop
         vertex 1.545417e+003 1.180917e+003 1.963677e+003
         vertex 1.545343e+003 1.180917e+003 1.963954e+003
         vertex 1.551792e+003 1.180917e+003 1.968390e+003
      endloop
   endfacet
   facet normal -3.885781e-016 1.000000e+000 -1.908196e-017
      outer loop
         vertex 1.551792e+003 1.180917e+003 1.968390e+003
         vertex 1.545343e+003 1.180917e+003 1.963954e+003
         vertex 1.545221e+003 1.180917e+003 1.964215e+003
      endloop
   endfacet
   facet normal -3.885781e-016 1.000000e+000 -1.908196e-017
      outer loop
         vertex 1.551792e+003 1.180917e+003 1.968390e+003
         vertex 1.545221e+003 1.180917e+003 1.964215e+003
         vertex 1.545056e+003 1.180917e+003 1.964450e+003
      endloop
   endfacet
   facet normal -3.885781e-016 1.000000e+000 -1.908196e-017
      outer loop
         vertex 1.544617e+003 1.180917e+003 1.964819e+003
         vertex 1.544357e+003 1.180917e+003 1.964940e+003
         vertex 1.551792e+003 1.180917e+003 1.968390e+003
      endloop
   endfacet
   facet normal -3.885781e-016 1.000000e+000 -1.908196e-017
      outer loop
         vertex 1.551792e+003 1.180917e+003 1.968390e+003
         vertex 1.544357e+003 1.180917e+003 1.964940e+003
         vertex 1.544079e+003 1.180917e+003 1.965015e+003
      endloop
   endfacet
   facet normal -3.885781e-016 1.000000e+000 -1.908196e-017
      outer loop
         vertex 1.551792e+003 1.180917e+003 1.968390e+003
         vertex 1.544079e+003 1.180917e+003 1.965015e+003
         vertex 1.535792e+003 1.180917e+003 1.968390e+003
      endloop
   endfacet
   facet normal -3.885781e-016 1.000000e+000 -1.908196e-017
      outer loop
         vertex 1.535792e+003 1.180917e+003 1.968390e+003
         vertex 1.544079e+003 1.180917e+003 1.965015e+003
         vertex 1.543792e+003 1.180917e+003 1.965040e+003
      endloop
   endfacet
   facet normal -3.885781e-016 1.000000e+000 -1.908196e-017
      outer loop
         vertex 1.535792e+003 1.180917e+003 1.968390e+003
         vertex 1.543792e+003 1.180917e+003 1.965040e+003
         vertex 1.543506e+003 1.180917e+003 1.965015e+003
      endloop
   endfacet
   facet normal -3.885781e-016 1.000000e+000 -1.908196e-017
      outer loop
         vertex 1.543506e+003 1.180917e+003 1.965015e+003
         vertex 1.543228e+003 1.180917e+003 1.964940e+003
         vertex 1.535792e+003 1.180917e+003 1.968390e+003
      endloop
   endfacet
   facet normal -3.885781e-016 1.000000e+000 -1.908196e-017
      outer loop
         vertex 1.535792e+003 1.180917e+003 1.968390e+003
         vertex 1.543228e+003 1.180917e+003 1.964940e+003
         vertex 1.542967e+003 1.180917e+003 1.964819e+003
      endloop
   endfacet
   facet normal -3.885781e-016 1.000000e+000 -1.908196e-017
      outer loop
         vertex 1.535792e+003 1.180917e+003 1.968390e+003
         vertex 1.542967e+003 1.180917e+003 1.964819e+003
         vertex 1.542732e+003 1.180917e+003 1.964654e+003
      endloop
   endfacet
   facet normal -3.885781e-016 1.000000e+000 -1.908196e-017
      outer loop
         vertex 1.545221e+003 1.180917e+003 1.962565e+003
         vertex 1.545343e+003 1.180917e+003 1.962826e+003
         vertex 1.551792e+003 1.180917e+003 1.957390e+003
      endloop
   endfacet
   facet normal -3.885781e-016 1.000000e+000 -1.908196e-017
      outer loop
         vertex 1.551792e+003 1.180917e+003 1.957390e+003
         vertex 1.545343e+003 1.180917e+003 1.962826e+003
         vertex 1.545417e+003 1.180917e+003 1.963103e+003
      endloop
   endfacet
   facet normal -3.885781e-016 1.000000e+000 -1.908196e-017
      outer loop
         vertex 1.551792e+003 1.180917e+003 1.957390e+003
         vertex 1.545417e+003 1.180917e+003 1.963103e+003
         vertex 1.551792e+003 1.180917e+003 1.968390e+003
      endloop
   endfacet
   facet normal -3.885781e-016 1.000000e+000 -1.908196e-017
      outer loop
         vertex 1.551792e+003 1.180917e+003 1.968390e+003
         vertex 1.545417e+003 1.180917e+003 1.963103e+003
         vertex 1.545442e+003 1.180917e+003 1.963390e+003
      endloop
   endfacet
   facet normal -3.885781e-016 1.000000e+000 -1.908196e-017
      outer loop
         vertex 1.551792e+003 1.180917e+003 1.968390e+003
         vertex 1.545442e+003 1.180917e+003 1.963390e+003
         vertex 1.545417e+003 1.180917e+003 1.963677e+003
      endloop
   endfacet
   facet normal -3.885781e-016 1.000000e+000 -1.908196e-017
      outer loop
         vertex 1.542167e+003 1.180917e+003 1.963103e+003
         vertex 1.535792e+003 1.180917e+003 1.957390e+003
         vertex 1.542142e+003 1.180917e+003 1.963390e+003
      endloop
   endfacet
   facet normal -3.885781e-016 1.000000e+000 -1.908196e-017
      outer loop
         vertex 1.542142e+003 1.180917e+003 1.963390e+003
         vertex 1.535792e+003 1.180917e+003 1.957390e+003
         vertex 1.535792e+003 1.180917e+003 1.968390e+003
      endloop
   endfacet
   facet normal -3.885781e-016 1.000000e+000 -1.908196e-017
      outer loop
         vertex 1.542142e+003 1.180917e+003 1.963390e+003
         vertex 1.535792e+003 1.180917e+003 1.968390e+003
         vertex 1.542167e+003 1.180917e+003 1.963677e+003
      endloop
   endfacet
   facet normal -3.885781e-016 1.000000e+000 -1.908196e-017
      outer loop
         vertex 1.542167e+003 1.180917e+003 1.963677e+003
         vertex 1.535792e+003 1.180917e+003 1.968390e+003
         vertex 1.542242e+003 1.180917e+003 1.963954e+003
      endloop
   endfacet
   facet normal -3.885781e-016 1.000000e+000 -1.908196e-017
      outer loop
         vertex 1.542167e+003 1.180917e+003 1.963103e+003
         vertex 1.542242e+003 1.180917e+003 1.962826e+003
         vertex 1.535792e+003 1.180917e+003 1.957390e+003
      endloop
   endfacet
   facet normal -3.885781e-016 1.000000e+000 -1.908196e-017
      outer loop
         vertex 1.535792e+003 1.180917e+003 1.957390e+003
         vertex 1.542242e+003 1.180917e+003 1.962826e+003
         vertex 1.542363e+003 1.180917e+003 1.962565e+003
      endloop
   endfacet
   facet normal -3.885781e-016 1.000000e+000 -1.908196e-017
      outer loop
         vertex 1.535792e+003 1.180917e+003 1.957390e+003
         vertex 1.542363e+003 1.180917e+003 1.962565e+003
         vertex 1.542528e+003 1.180917e+003 1.962329e+003
      endloop
   endfacet
   facet normal -3.885781e-016 1.000000e+000 -1.908196e-017
      outer loop
         vertex 1.542528e+003 1.180917e+003 1.962329e+003
         vertex 1.542732e+003 1.180917e+003 1.962126e+003
         vertex 1.535792e+003 1.180917e+003 1.957390e+003
      endloop
   endfacet
   facet normal -3.885781e-016 1.000000e+000 -1.908196e-017
      outer loop
         vertex 1.535792e+003 1.180917e+003 1.957390e+003
         vertex 1.542732e+003 1.180917e+003 1.962126e+003
         vertex 1.542967e+003 1.180917e+003 1.961961e+003
      endloop
   endfacet
   facet normal -3.885781e-016 1.000000e+000 -1.908196e-017
      outer loop
         vertex 1.535792e+003 1.180917e+003 1.957390e+003
         vertex 1.542967e+003 1.180917e+003 1.961961e+003
         vertex 1.543228e+003 1.180917e+003 1.961839e+003
      endloop
   endfacet
   facet normal -3.885781e-016 1.000000e+000 -1.908196e-017
      outer loop
         vertex 1.543228e+003 1.180917e+003 1.961839e+003
         vertex 1.543506e+003 1.180917e+003 1.961765e+003
         vertex 1.535792e+003 1.180917e+003 1.957390e+003
      endloop
   endfacet
   facet normal -3.885781e-016 1.000000e+000 -1.908196e-017
      outer loop
         vertex 1.535792e+003 1.180917e+003 1.957390e+003
         vertex 1.543506e+003 1.180917e+003 1.961765e+003
         vertex 1.543792e+003 1.180917e+003 1.961740e+003
      endloop
   endfacet
   facet normal -3.885781e-016 1.000000e+000 -1.908196e-017
      outer loop
         vertex 1.535792e+003 1.180917e+003 1.957390e+003
         vertex 1.543792e+003 1.180917e+003 1.961740e+003
         vertex 1.551792e+003 1.180917e+003 1.957390e+003
      endloop
   endfacet
   facet normal -3.885781e-016 1.000000e+000 -1.908196e-017
      outer loop
         vertex 1.543792e+003 1.180917e+003 1.961740e+003
         vertex 1.544079e+003 1.180917e+003 1.961765e+003
         vertex 1.551792e+003 1.180917e+003 1.957390e+003
      endloop
   endfacet
   facet normal -3.885781e-016 1.000000e+000 -1.908196e-017
      outer loop
         vertex 1.551792e+003 1.180917e+003 1.957390e+003
         vertex 1.544079e+003 1.180917e+003 1.961765e+003
         vertex 1.544357e+003 1.180917e+003 1.961839e+003
      endloop
   endfacet
   facet normal -3.885781e-016 1.000000e+000 -1.908196e-017
      outer loop
         vertex 1.551792e+003 1.180917e+003 1.957390e+003
         vertex 1.544357e+003 1.180917e+003 1.961839e+003
         vertex 1.544617e+003 1.180917e+003 1.961961e+003
      endloop
   endfacet
   facet normal -3.885781e-016 1.000000e+000 -1.908196e-017
      outer loop
         vertex 1.544617e+003 1.180917e+003 1.961961e+003
         vertex 1.544853e+003 1.180917e+003 1.962126e+003
         vertex 1.551792e+003 1.180917e+003 1.957390e+003
      endloop
   endfacet
   facet normal -3.885781e-016 1.000000e+000 -1.908196e-017
      outer loop
         vertex 1.551792e+003 1.180917e+003 1.957390e+003
         vertex 1.544853e+003 1.180917e+003 1.962126e+003
         vertex 1.545056e+003 1.180917e+003 1.962329e+003
      endloop
   endfacet
   facet normal -3.885781e-016 1.000000e+000 -1.908196e-017
      outer loop
         vertex 1.551792e+003 1.180917e+003 1.957390e+003
         vertex 1.545056e+003 1.180917e+003 1.962329e+003
         vertex 1.545221e+003 1.180917e+003 1.962565e+003
      endloop
   endfacet
   facet normal 9.983120e-001 3.881920e-016 -5.807914e-002
      outer loop
         vertex 1.542167e+003 1.180917e+003 1.963677e+003
         vertex 1.542142e+003 1.177917e+003 1.963390e+003
         vertex 1.542142e+003 1.180917e+003 1.963390e+003
      endloop
   endfacet
   facet normal 9.983120e-001 3.898643e-016 5.807914e-002
      outer loop
         vertex 1.542142e+003 1.180917e+003 1.963390e+003
         vertex 1.542142e+003 1.177917e+003 1.963390e+003
         vertex 1.542167e+003 1.177917e+003 1.963103e+003
      endloop
   endfacet
   facet normal 9.932307e-001 3.887204e-016 1.161583e-001
      outer loop
         vertex 1.542142e+003 1.180917e+003 1.963390e+003
         vertex 1.542167e+003 1.177917e+003 1.963103e+003
         vertex 1.542167e+003 1.180917e+003 1.963103e+003
      endloop
   endfacet
   facet normal 9.730601e-001 3.825071e-016 2.305518e-001
      outer loop
         vertex 1.542167e+003 1.180917e+003 1.963103e+003
         vertex 1.542167e+003 1.177917e+003 1.963103e+003
         vertex 1.542242e+003 1.177917e+003 1.962826e+003
      endloop
   endfacet
   facet normal 9.579706e-001 3.774377e-016 2.868663e-001
      outer loop
         vertex 1.542167e+003 1.180917e+003 1.963103e+003
         vertex 1.542242e+003 1.177917e+003 1.962826e+003
         vertex 1.542242e+003 1.180917e+003 1.962826e+003
      endloop
   endfacet
   facet normal 9.182422e-001 3.635276e-016 3.960194e-001
      outer loop
         vertex 1.542242e+003 1.180917e+003 1.962826e+003
         vertex 1.542242e+003 1.177917e+003 1.962826e+003
         vertex 1.542363e+003 1.177917e+003 1.962565e+003
      endloop
   endfacet
   facet normal 8.936031e-001 3.546868e-016 4.488580e-001
      outer loop
         vertex 1.542242e+003 1.180917e+003 1.962826e+003
         vertex 1.542363e+003 1.177917e+003 1.962565e+003
         vertex 1.542363e+003 1.180917e+003 1.962565e+003
      endloop
   endfacet
   facet normal 8.355240e-001 3.335025e-016 5.494540e-001
      outer loop
         vertex 1.542363e+003 1.180917e+003 1.962565e+003
         vertex 1.542363e+003 1.177917e+003 1.962565e+003
         vertex 1.542528e+003 1.177917e+003 1.962329e+003
      endloop
   endfacet
   facet normal 8.020839e-001 3.211589e-016 5.972114e-001
      outer loop
         vertex 1.542363e+003 1.180917e+003 1.962565e+003
         vertex 1.542528e+003 1.177917e+003 1.962329e+003
         vertex 1.542528e+003 1.180917e+003 1.962329e+003
      endloop
   endfacet
   facet normal 7.274188e-001 2.933440e-016 6.861938e-001
      outer loop
         vertex 1.542528e+003 1.180917e+003 1.962329e+003
         vertex 1.542528e+003 1.177917e+003 1.962329e+003
         vertex 1.542732e+003 1.177917e+003 1.962126e+003
      endloop
   endfacet
   facet normal 6.861938e-001 2.778727e-016 7.274188e-001
      outer loop
         vertex 1.542528e+003 1.180917e+003 1.962329e+003
         vertex 1.542732e+003 1.177917e+003 1.962126e+003
         vertex 1.542732e+003 1.180917e+003 1.962126e+003
      endloop
   endfacet
   facet normal 5.972114e-001 2.442725e-016 8.020839e-001
      outer loop
         vertex 1.542732e+003 1.180917e+003 1.962126e+003
         vertex 1.542732e+003 1.177917e+003 1.962126e+003
         vertex 1.542967e+003 1.177917e+003 1.961961e+003
      endloop
   endfacet
   facet normal 5.494540e-001 2.261436e-016 8.355240e-001
      outer loop
         vertex 1.542732e+003 1.180917e+003 1.962126e+003
         vertex 1.542967e+003 1.177917e+003 1.961961e+003
         vertex 1.542967e+003 1.180917e+003 1.961961e+003
      endloop
   endfacet
   facet normal 4.488580e-001 1.877789e-016 8.936031e-001
      outer loop
         vertex 1.542967e+003 1.180917e+003 1.961961e+003
         vertex 1.542967e+003 1.177917e+003 1.961961e+003
         vertex 1.543228e+003 1.177917e+003 1.961839e+003
      endloop
   endfacet
   facet normal 3.960194e-001 1.675431e-016 9.182422e-001
      outer loop
         vertex 1.542967e+003 1.180917e+003 1.961961e+003
         vertex 1.543228e+003 1.177917e+003 1.961839e+003
         vertex 1.543228e+003 1.180917e+003 1.961839e+003
      endloop
   endfacet
   facet normal 2.868663e-001 1.255797e-016 9.579706e-001
      outer loop
         vertex 1.543228e+003 1.180917e+003 1.961839e+003
         vertex 1.543228e+003 1.177917e+003 1.961839e+003
         vertex 1.543506e+003 1.177917e+003 1.961765e+003
      endloop
   endfacet
   facet normal 2.305518e-001 1.038520e-016 9.730601e-001
      outer loop
         vertex 1.543228e+003 1.180917e+003 1.961839e+003
         vertex 1.543506e+003 1.177917e+003 1.961765e+003
         vertex 1.543506e+003 1.180917e+003 1.961765e+003
      endloop
   endfacet
   facet normal 1.161583e-001 5.956480e-017 9.932307e-001
      outer loop
         vertex 1.543506e+003 1.180917e+003 1.961765e+003
         vertex 1.543506e+003 1.177917e+003 1.961765e+003
         vertex 1.543792e+003 1.177917e+003 1.961740e+003
      endloop
   endfacet
   facet normal 5.807914e-002 3.700532e-017 9.983120e-001
      outer loop
         vertex 1.543506e+003 1.180917e+003 1.961765e+003
         vertex 1.543792e+003 1.177917e+003 1.961740e+003
         vertex 1.543792e+003 1.180917e+003 1.961740e+003
      endloop
   endfacet
   facet normal -5.807914e-002 -8.259925e-018 9.983120e-001
      outer loop
         vertex 1.543792e+003 1.180917e+003 1.961740e+003
         vertex 1.543792e+003 1.177917e+003 1.961740e+003
         vertex 1.544079e+003 1.177917e+003 1.961765e+003
      endloop
   endfacet
   facet normal -1.161583e-001 -3.096571e-017 9.932307e-001
      outer loop
         vertex 1.543792e+003 1.180917e+003 1.961740e+003
         vertex 1.544079e+003 1.177917e+003 1.961765e+003
         vertex 1.544079e+003 1.180917e+003 1.961765e+003
      endloop
   endfacet
   facet normal -2.305518e-001 -7.583367e-017 9.730601e-001
      outer loop
         vertex 1.544079e+003 1.180917e+003 1.961765e+003
         vertex 1.544079e+003 1.177917e+003 1.961765e+003
         vertex 1.544357e+003 1.177917e+003 1.961839e+003
      endloop
   endfacet
   facet normal -2.868663e-001 -9.799586e-017 9.579706e-001
      outer loop
         vertex 1.544079e+003 1.180917e+003 1.961765e+003
         vertex 1.544357e+003 1.177917e+003 1.961839e+003
         vertex 1.544357e+003 1.180917e+003 1.961839e+003
      endloop
   endfacet
   facet normal -3.960194e-001 -1.411033e-016 9.182422e-001
      outer loop
         vertex 1.544357e+003 1.180917e+003 1.961839e+003
         vertex 1.544357e+003 1.177917e+003 1.961839e+003
         vertex 1.544617e+003 1.177917e+003 1.961961e+003
      endloop
   endfacet
   facet normal -4.488580e-001 -1.620485e-016 8.936031e-001
      outer loop
         vertex 1.544357e+003 1.180917e+003 1.961839e+003
         vertex 1.544617e+003 1.177917e+003 1.961961e+003
         vertex 1.544617e+003 1.180917e+003 1.961961e+003
      endloop
   endfacet
   facet normal -5.494540e-001 -2.020855e-016 8.355240e-001
      outer loop
         vertex 1.544617e+003 1.180917e+003 1.961961e+003
         vertex 1.544617e+003 1.177917e+003 1.961961e+003
         vertex 1.544853e+003 1.177917e+003 1.962126e+003
      endloop
   endfacet
   facet normal -5.972114e-001 -2.211773e-016 8.020839e-001
      outer loop
         vertex 1.544617e+003 1.180917e+003 1.961961e+003
         vertex 1.544853e+003 1.177917e+003 1.962126e+003
         vertex 1.544853e+003 1.180917e+003 1.962126e+003
      endloop
   endfacet
   facet normal -6.861938e-001 -2.569274e-016 7.274188e-001
      outer loop
         vertex 1.544853e+003 1.180917e+003 1.962126e+003
         vertex 1.544853e+003 1.177917e+003 1.962126e+003
         vertex 1.545056e+003 1.177917e+003 1.962329e+003
      endloop
   endfacet
   facet normal -7.274188e-001 -2.735858e-016 6.861938e-001
      outer loop
         vertex 1.544853e+003 1.180917e+003 1.962126e+003
         vertex 1.545056e+003 1.177917e+003 1.962329e+003
         vertex 1.545056e+003 1.180917e+003 1.962329e+003
      endloop
   endfacet
   facet normal -8.020839e-001 -3.039628e-016 5.972114e-001
      outer loop
         vertex 1.545056e+003 1.180917e+003 1.962329e+003
         vertex 1.545056e+003 1.177917e+003 1.962329e+003
         vertex 1.545221e+003 1.177917e+003 1.962565e+003
      endloop
   endfacet
   facet normal -8.355240e-001 -3.176815e-016 5.494540e-001
      outer loop
         vertex 1.545056e+003 1.180917e+003 1.962329e+003
         vertex 1.545221e+003 1.177917e+003 1.962565e+003
         vertex 1.545221e+003 1.180917e+003 1.962565e+003
      endloop
   endfacet
   facet normal -8.936031e-001 -3.417624e-016 4.488580e-001
      outer loop
         vertex 1.545221e+003 1.180917e+003 1.962565e+003
         vertex 1.545221e+003 1.177917e+003 1.962565e+003
         vertex 1.545343e+003 1.177917e+003 1.962826e+003
      endloop
   endfacet
   facet normal -9.182422e-001 -3.521246e-016 3.960194e-001
      outer loop
         vertex 1.545221e+003 1.180917e+003 1.962565e+003
         vertex 1.545343e+003 1.177917e+003 1.962826e+003
         vertex 1.545343e+003 1.180917e+003 1.962826e+003
      endloop
   endfacet
   facet normal -9.579706e-001 -3.691777e-016 2.868663e-001
      outer loop
         vertex 1.545343e+003 1.180917e+003 1.962826e+003
         vertex 1.545343e+003 1.177917e+003 1.962826e+003
         vertex 1.545417e+003 1.177917e+003 1.963103e+003
      endloop
   endfacet
   facet normal -9.730601e-001 -3.758686e-016 2.305518e-001
      outer loop
         vertex 1.545343e+003 1.180917e+003 1.962826e+003
         vertex 1.545417e+003 1.177917e+003 1.963103e+003
         vertex 1.545417e+003 1.180917e+003 1.963103e+003
      endloop
   endfacet
   facet normal -9.932307e-001 -3.853757e-016 1.161583e-001
      outer loop
         vertex 1.545417e+003 1.180917e+003 1.963103e+003
         vertex 1.545417e+003 1.177917e+003 1.963103e+003
         vertex 1.545442e+003 1.177917e+003 1.963390e+003
      endloop
   endfacet
   facet normal -9.983120e-001 -3.881920e-016 5.807914e-002
      outer loop
         vertex 1.545417e+003 1.180917e+003 1.963103e+003
         vertex 1.545442e+003 1.177917e+003 1.963390e+003
         vertex 1.545442e+003 1.180917e+003 1.963390e+003
      endloop
   endfacet
   facet normal -9.983120e-001 -3.898643e-016 -5.807914e-002
      outer loop
         vertex 1.545442e+003 1.180917e+003 1.963390e+003
         vertex 1.545442e+003 1.177917e+003 1.963390e+003
         vertex 1.545417e+003 1.177917e+003 1.963677e+003
      endloop
   endfacet
   facet normal -9.932307e-001 -3.887204e-016 -1.161583e-001
      outer loop
         vertex 1.545442e+003 1.180917e+003 1.963390e+003
         vertex 1.545417e+003 1.177917e+003 1.963677e+003
         vertex 1.545417e+003 1.180917e+003 1.963677e+003
      endloop
   endfacet
   facet normal -9.730601e-001 -3.825071e-016 -2.305518e-001
      outer loop
         vertex 1.545417e+003 1.180917e+003 1.963677e+003
         vertex 1.545417e+003 1.177917e+003 1.963677e+003
         vertex 1.545343e+003 1.177917e+003 1.963954e+003
      endloop
   endfacet
   facet normal -9.579706e-001 -3.774377e-016 -2.868663e-001
      outer loop
         vertex 1.545417e+003 1.180917e+003 1.963677e+003
         vertex 1.545343e+003 1.177917e+003 1.963954e+003
         vertex 1.545343e+003 1.180917e+003 1.963954e+003
      endloop
   endfacet
   facet normal -9.182422e-001 -3.635276e-016 -3.960194e-001
      outer loop
         vertex 1.545343e+003 1.180917e+003 1.963954e+003
         vertex 1.545343e+003 1.177917e+003 1.963954e+003
         vertex 1.545221e+003 1.177917e+003 1.964215e+003
      endloop
   endfacet
   facet normal -8.936031e-001 -3.546868e-016 -4.488580e-001
      outer loop
         vertex 1.545343e+003 1.180917e+003 1.963954e+003
         vertex 1.545221e+003 1.177917e+003 1.964215e+003
         vertex 1.545221e+003 1.180917e+003 1.964215e+003
      endloop
   endfacet
   facet normal -8.355240e-001 -3.335025e-016 -5.494540e-001
      outer loop
         vertex 1.545221e+003 1.180917e+003 1.964215e+003
         vertex 1.545221e+003 1.177917e+003 1.964215e+003
         vertex 1.545056e+003 1.177917e+003 1.964450e+003
      endloop
   endfacet
   facet normal -8.020839e-001 -3.211589e-016 -5.972114e-001
      outer loop
         vertex 1.545221e+003 1.180917e+003 1.964215e+003
         vertex 1.545056e+003 1.177917e+003 1.964450e+003
         vertex 1.545056e+003 1.180917e+003 1.964450e+003
      endloop
   endfacet
   facet normal -7.274188e-001 -2.933440e-016 -6.861938e-001
      outer loop
         vertex 1.545056e+003 1.180917e+003 1.964450e+003
         vertex 1.545056e+003 1.177917e+003 1.964450e+003
         vertex 1.544853e+003 1.177917e+003 1.964654e+003
      endloop
   endfacet
   facet normal -6.861938e-001 -2.778727e-016 -7.274188e-001
      outer loop
         vertex 1.545056e+003 1.180917e+003 1.964450e+003
         vertex 1.544853e+003 1.177917e+003 1.964654e+003
         vertex 1.544853e+003 1.180917e+003 1.964654e+003
      endloop
   endfacet
   facet normal -5.972114e-001 -2.442725e-016 -8.020839e-001
      outer loop
         vertex 1.544853e+003 1.180917e+003 1.964654e+003
         vertex 1.544853e+003 1.177917e+003 1.964654e+003
         vertex 1.544617e+003 1.177917e+003 1.964819e+003
      endloop
   endfacet
   facet normal -5.494540e-001 -2.261436e-016 -8.355240e-001
      outer loop
         vertex 1.544853e+003 1.180917e+003 1.964654e+003
         vertex 1.544617e+003 1.177917e+003 1.964819e+003
         vertex 1.544617e+003 1.180917e+003 1.964819e+003
      endloop
   endfacet
   facet normal -4.488580e-001 -1.877789e-016 -8.936031e-001
      outer loop
         vertex 1.544617e+003 1.180917e+003 1.964819e+003
         vertex 1.544617e+003 1.177917e+003 1.964819e+003
         vertex 1.544357e+003 1.177917e+003 1.964940e+003
      endloop
   endfacet
   facet normal -3.960194e-001 -1.675431e-016 -9.182422e-001
      outer loop
         vertex 1.544617e+003 1.180917e+003 1.964819e+003
         vertex 1.544357e+003 1.177917e+003 1.964940e+003
         vertex 1.544357e+003 1.180917e+003 1.964940e+003
      endloop
   endfacet
   facet normal -2.868663e-001 -1.255797e-016 -9.579706e-001
      outer loop
         vertex 1.544357e+003 1.180917e+003 1.964940e+003
         vertex 1.544357e+003 1.177917e+003 1.964940e+003
         vertex 1.544079e+003 1.177917e+003 1.965015e+003
      endloop
   endfacet
   facet normal -2.305518e-001 -1.038520e-016 -9.730601e-001
      outer loop
         vertex 1.544357e+003 1.180917e+003 1.964940e+003
         vertex 1.544079e+003 1.177917e+003 1.965015e+003
         vertex 1.544079e+003 1.180917e+003 1.965015e+003
      endloop
   endfacet
   facet normal -1.161583e-001 -5.956480e-017 -9.932307e-001
      outer loop
         vertex 1.544079e+003 1.180917e+003 1.965015e+003
         vertex 1.544079e+003 1.177917e+003 1.965015e+003
         vertex 1.543792e+003 1.177917e+003 1.965040e+003
      endloop
   endfacet
   facet normal -5.807914e-002 -3.700532e-017 -9.983120e-001
      outer loop
         vertex 1.544079e+003 1.180917e+003 1.965015e+003
         vertex 1.543792e+003 1.177917e+003 1.965040e+003
         vertex 1.543792e+003 1.180917e+003 1.965040e+003
      endloop
   endfacet
   facet normal 5.807914e-002 8.259925e-018 -9.983120e-001
      outer loop
         vertex 1.543792e+003 1.180917e+003 1.965040e+003
         vertex 1.543792e+003 1.177917e+003 1.965040e+003
         vertex 1.543506e+003 1.177917e+003 1.965015e+003
      endloop
   endfacet
   facet normal 1.161583e-001 3.096571e-017 -9.932307e-001
      outer loop
         vertex 1.543792e+003 1.180917e+003 1.965040e+003
         vertex 1.543506e+003 1.177917e+003 1.965015e+003
         vertex 1.543506e+003 1.180917e+003 1.965015e+003
      endloop
   endfacet
   facet normal 2.305518e-001 7.583367e-017 -9.730601e-001
      outer loop
         vertex 1.543506e+003 1.180917e+003 1.965015e+003
         vertex 1.543506e+003 1.177917e+003 1.965015e+003
         vertex 1.543228e+003 1.177917e+003 1.964940e+003
      endloop
   endfacet
   facet normal 2.868663e-001 9.799586e-017 -9.579706e-001
      outer loop
         vertex 1.543506e+003 1.180917e+003 1.965015e+003
         vertex 1.543228e+003 1.177917e+003 1.964940e+003
         vertex 1.543228e+003 1.180917e+003 1.964940e+003
      endloop
   endfacet
   facet normal 3.960194e-001 1.411033e-016 -9.182422e-001
      outer loop
         vertex 1.543228e+003 1.180917e+003 1.964940e+003
         vertex 1.543228e+003 1.177917e+003 1.964940e+003
         vertex 1.542967e+003 1.177917e+003 1.964819e+003
      endloop
   endfacet
   facet normal 4.488580e-001 1.620485e-016 -8.936031e-001
      outer loop
         vertex 1.543228e+003 1.180917e+003 1.964940e+003
         vertex 1.542967e+003 1.177917e+003 1.964819e+003
         vertex 1.542967e+003 1.180917e+003 1.964819e+003
      endloop
   endfacet
   facet normal 5.494540e-001 2.020855e-016 -8.355240e-001
      outer loop
         vertex 1.542967e+003 1.180917e+003 1.964819e+003
         vertex 1.542967e+003 1.177917e+003 1.964819e+003
         vertex 1.542732e+003 1.177917e+003 1.964654e+003
      endloop
   endfacet
   facet normal 5.972114e-001 2.211773e-016 -8.020839e-001
      outer loop
         vertex 1.542967e+003 1.180917e+003 1.964819e+003
         vertex 1.542732e+003 1.177917e+003 1.964654e+003
         vertex 1.542732e+003 1.180917e+003 1.964654e+003
      endloop
   endfacet
   facet normal 6.861938e-001 2.569274e-016 -7.274188e-001
      outer loop
         vertex 1.542732e+003 1.180917e+003 1.964654e+003
         vertex 1.542732e+003 1.177917e+003 1.964654e+003
         vertex 1.542528e+003 1.177917e+003 1.964450e+003
      endloop
   endfacet
   facet normal 7.274188e-001 2.735858e-016 -6.861938e-001
      outer loop
         vertex 1.542732e+003 1.180917e+003 1.964654e+003
         vertex 1.542528e+003 1.177917e+003 1.964450e+003
         vertex 1.542528e+003 1.180917e+003 1.964450e+003
      endloop
   endfacet
   facet normal 8.020839e-001 3.039628e-016 -5.972114e-001
      outer loop
         vertex 1.542528e+003 1.180917e+003 1.964450e+003
         vertex 1.542528e+003 1.177917e+003 1.964450e+003
         vertex 1.542363e+003 1.177917e+003 1.964215e+003
      endloop
   endfacet
   facet normal 8.355240e-001 3.176815e-016 -5.494540e-001
      outer loop
         vertex 1.542528e+003 1.180917e+003 1.964450e+003
         vertex 1.542363e+003 1.177917e+003 1.964215e+003
         vertex 1.542363e+003 1.180917e+003 1.964215e+003
      endloop
   endfacet
   facet normal 8.936031e-001 3.417624e-016 -4.488580e-001
      outer loop
         vertex 1.542363e+003 1.180917e+003 1.964215e+003
         vertex 1.542363e+003 1.177917e+003 1.964215e+003
         vertex 1.542242e+003 1.177917e+003 1.963954e+003
      endloop
   endfacet
   facet normal 9.182422e-001 3.521246e-016 -3.960194e-001
      outer loop
         vertex 1.542363e+003 1.180917e+003 1.964215e+003
         vertex 1.542242e+003 1.177917e+003 1.963954e+003
         vertex 1.542242e+003 1.180917e+003 1.963954e+003
      endloop
   endfacet
   facet normal 9.579706e-001 3.691777e-016 -2.868663e-001
      outer loop
         vertex 1.542242e+003 1.180917e+003 1.963954e+003
         vertex 1.542242e+003 1.177917e+003 1.963954e+003
         vertex 1.542167e+003 1.177917e+003 1.963677e+003
      endloop
   endfacet
   facet normal 9.730601e-001 3.758686e-016 -2.305518e-001
      outer loop
         vertex 1.542242e+003 1.180917e+003 1.963954e+003
         vertex 1.542167e+003 1.177917e+003 1.963677e+003
         vertex 1.542167e+003 1.180917e+003 1.963677e+003
      endloop
   endfacet
   facet normal 9.932307e-001 3.853757e-016 -1.161583e-001
      outer loop
         vertex 1.542167e+003 1.180917e+003 1.963677e+003
         vertex 1.542167e+003 1.177917e+003 1.963677e+003
         vertex 1.542142e+003 1.177917e+003 1.963390e+003
      endloop
   endfacet
endsolid