solid 09.025.00.00.000 - 09.025.00.08.000-1 09.025.00.08.004-3
   facet normal 3.193654e-016 -8.936031e-001 -4.488580e-001
      outer loop
         vertex 1.217292e+003 5.397189e+002 1.881680e+003
         vertex 1.217792e+003 5.400872e+002 1.880890e+003
         vertex 1.220792e+003 5.400872e+002 1.880890e+003
      endloop
   endfacet
   facet normal 3.193654e-016 -8.936031e-001 -4.488580e-001
      outer loop
         vertex 1.217292e+003 5.397189e+002 1.881680e+003
         vertex 1.217292e+003 5.400872e+002 1.880890e+003
         vertex 1.217792e+003 5.400872e+002 1.880890e+003
      endloop
   endfacet
   facet normal 3.404242e-016 -8.355240e-001 -5.494540e-001
      outer loop
         vertex 1.217792e+003 5.400872e+002 1.880890e+003
         vertex 1.217292e+003 5.400872e+002 1.880890e+003
         vertex 1.217292e+003 5.405871e+002 1.880176e+003
      endloop
   endfacet
   facet normal 3.492745e-016 -8.020839e-001 -5.972114e-001
      outer loop
         vertex 1.217792e+003 5.400872e+002 1.880890e+003
         vertex 1.217292e+003 5.405871e+002 1.880176e+003
         vertex 1.217792e+003 5.405871e+002 1.880176e+003
      endloop
   endfacet
   facet normal 3.633480e-016 -7.274188e-001 -6.861938e-001
      outer loop
         vertex 1.217792e+003 5.405871e+002 1.880176e+003
         vertex 1.217292e+003 5.405871e+002 1.880176e+003
         vertex 1.217292e+003 5.412034e+002 1.879560e+003
      endloop
   endfacet
   facet normal 3.685712e-016 -6.861938e-001 -7.274188e-001
      outer loop
         vertex 1.217792e+003 5.405871e+002 1.880176e+003
         vertex 1.217292e+003 5.412034e+002 1.879560e+003
         vertex 1.217792e+003 5.412034e+002 1.879560e+003
      endloop
   endfacet
   facet normal 3.752317e-016 -5.972114e-001 -8.020839e-001
      outer loop
         vertex 1.217792e+003 5.412034e+002 1.879560e+003
         vertex 1.217292e+003 5.412034e+002 1.879560e+003
         vertex 1.217292e+003 5.419173e+002 1.879060e+003
      endloop
   endfacet
   facet normal 3.766690e-016 -5.494540e-001 -8.355240e-001
      outer loop
         vertex 1.217792e+003 5.412034e+002 1.879560e+003
         vertex 1.217292e+003 5.419173e+002 1.879060e+003
         vertex 1.217792e+003 5.419173e+002 1.879060e+003
      endloop
   endfacet
   facet normal 3.757141e-016 -4.488580e-001 -8.936031e-001
      outer loop
         vertex 1.217792e+003 5.419173e+002 1.879060e+003
         vertex 1.217292e+003 5.419173e+002 1.879060e+003
         vertex 1.217292e+003 5.427072e+002 1.878691e+003
      endloop
   endfacet
   facet normal 3.733219e-016 -3.960194e-001 -9.182422e-001
      outer loop
         vertex 1.217792e+003 5.419173e+002 1.879060e+003
         vertex 1.217292e+003 5.427072e+002 1.878691e+003
         vertex 1.217792e+003 5.427072e+002 1.878691e+003
      endloop
   endfacet
   facet normal 3.647806e-016 -2.868663e-001 -9.579706e-001
      outer loop
         vertex 1.217792e+003 5.427072e+002 1.878691e+003
         vertex 1.217292e+003 5.427072e+002 1.878691e+003
         vertex 1.217292e+003 5.435491e+002 1.878466e+003
      endloop
   endfacet
   facet normal 3.586316e-016 -2.305518e-001 -9.730601e-001
      outer loop
         vertex 1.217792e+003 5.427072e+002 1.878691e+003
         vertex 1.217292e+003 5.435491e+002 1.878466e+003
         vertex 1.217792e+003 5.435491e+002 1.878466e+003
      endloop
   endfacet
   facet normal 3.427634e-016 -1.161583e-001 -9.932307e-001
      outer loop
         vertex 1.217792e+003 5.435491e+002 1.878466e+003
         vertex 1.217292e+003 5.435491e+002 1.878466e+003
         vertex 1.217292e+003 5.444173e+002 1.878390e+003
      endloop
   endfacet
   facet normal 3.330444e-016 -5.807914e-002 -9.983120e-001
      outer loop
         vertex 1.217792e+003 5.435491e+002 1.878466e+003
         vertex 1.217292e+003 5.444173e+002 1.878390e+003
         vertex 1.217792e+003 5.444173e+002 1.878390e+003
      endloop
   endfacet
   facet normal 3.103316e-016 5.807914e-002 -9.983120e-001
      outer loop
         vertex 1.217792e+003 5.444173e+002 1.878390e+003
         vertex 1.217292e+003 5.444173e+002 1.878390e+003
         vertex 1.217292e+003 5.452856e+002 1.878466e+003
      endloop
   endfacet
   facet normal 2.973379e-016 1.161583e-001 -9.932307e-001
      outer loop
         vertex 1.217792e+003 5.444173e+002 1.878390e+003
         vertex 1.217292e+003 5.452856e+002 1.878466e+003
         vertex 1.217792e+003 5.452856e+002 1.878466e+003
      endloop
   endfacet
   facet normal 2.684705e-016 2.305518e-001 -9.730601e-001
      outer loop
         vertex 1.217792e+003 5.452856e+002 1.878466e+003
         vertex 1.217292e+003 5.452856e+002 1.878466e+003
         vertex 1.217292e+003 5.461274e+002 1.878691e+003
      endloop
   endfacet
   facet normal 2.525969e-016 2.868663e-001 -9.579706e-001
      outer loop
         vertex 1.217792e+003 5.452856e+002 1.878466e+003
         vertex 1.217292e+003 5.461274e+002 1.878691e+003
         vertex 1.217792e+003 5.461274e+002 1.878691e+003
      endloop
   endfacet
   facet normal 2.184521e-016 3.960194e-001 -9.182422e-001
      outer loop
         vertex 1.217792e+003 5.461274e+002 1.878691e+003
         vertex 1.217292e+003 5.461274e+002 1.878691e+003
         vertex 1.217292e+003 5.469173e+002 1.879060e+003
      endloop
   endfacet
   facet normal 2.001809e-016 4.488580e-001 -8.936031e-001
      outer loop
         vertex 1.217792e+003 5.461274e+002 1.878691e+003
         vertex 1.217292e+003 5.469173e+002 1.879060e+003
         vertex 1.217792e+003 5.469173e+002 1.879060e+003
      endloop
   endfacet
   facet normal 1.617961e-016 5.494540e-001 -8.355240e-001
      outer loop
         vertex 1.217792e+003 5.469173e+002 1.879060e+003
         vertex 1.217292e+003 5.469173e+002 1.879060e+003
         vertex 1.217292e+003 5.476313e+002 1.879560e+003
      endloop
   endfacet
   facet normal 1.416824e-016 5.972114e-001 -8.020839e-001
      outer loop
         vertex 1.217792e+003 5.469173e+002 1.879060e+003
         vertex 1.217292e+003 5.476313e+002 1.879560e+003
         vertex 1.217792e+003 5.476313e+002 1.879560e+003
      endloop
   endfacet
   facet normal 1.002240e-016 6.861938e-001 -7.274188e-001
      outer loop
         vertex 1.217792e+003 5.476313e+002 1.879560e+003
         vertex 1.217292e+003 5.476313e+002 1.879560e+003
         vertex 1.217292e+003 5.482476e+002 1.880176e+003
      endloop
   endfacet
   facet normal 7.887910e-017 7.274188e-001 -6.861938e-001
      outer loop
         vertex 1.217792e+003 5.476313e+002 1.879560e+003
         vertex 1.217292e+003 5.482476e+002 1.880176e+003
         vertex 1.217792e+003 5.482476e+002 1.880176e+003
      endloop
   endfacet
   facet normal 3.560663e-017 8.020839e-001 -5.972114e-001
      outer loop
         vertex 1.217792e+003 5.482476e+002 1.880176e+003
         vertex 1.217292e+003 5.482476e+002 1.880176e+003
         vertex 1.217292e+003 5.487475e+002 1.880890e+003
      endloop
   endfacet
   facet normal 1.367902e-017 8.355240e-001 -5.494540e-001
      outer loop
         vertex 1.217792e+003 5.482476e+002 1.880176e+003
         vertex 1.217292e+003 5.487475e+002 1.880890e+003
         vertex 1.217792e+003 5.487475e+002 1.880890e+003
      endloop
   endfacet
   facet normal -3.009261e-017 8.936031e-001 -4.488580e-001
      outer loop
         vertex 1.217792e+003 5.487475e+002 1.880890e+003
         vertex 1.217292e+003 5.487475e+002 1.880890e+003
         vertex 1.217292e+003 5.491158e+002 1.881680e+003
      endloop
   endfacet
   facet normal -3.009261e-017 8.936031e-001 -4.488580e-001
      outer loop
         vertex 1.217792e+003 5.487475e+002 1.880890e+003
         vertex 1.217292e+003 5.491158e+002 1.881680e+003
         vertex 1.220792e+003 5.487475e+002 1.880890e+003
      endloop
   endfacet
   facet normal 1.764881e-016 -9.983120e-001 5.807914e-002
      outer loop
         vertex 1.254292e+003 5.394933e+002 1.884258e+003
         vertex 1.217292e+003 5.394173e+002 1.883390e+003
         vertex 1.254292e+003 5.394173e+002 1.883390e+003
      endloop
   endfacet
   facet normal 2.139180e-016 -9.983120e-001 -5.807914e-002
      outer loop
         vertex 1.254292e+003 5.394173e+002 1.883390e+003
         vertex 1.217292e+003 5.394173e+002 1.883390e+003
         vertex 1.217292e+003 5.394933e+002 1.882522e+003
      endloop
   endfacet
   facet normal 2.316394e-016 -9.932307e-001 -1.161583e-001
      outer loop
         vertex 1.254292e+003 5.394173e+002 1.883390e+003
         vertex 1.217292e+003 5.394933e+002 1.882522e+003
         vertex 1.254292e+003 5.394933e+002 1.882522e+003
      endloop
   endfacet
   facet normal 2.645566e-016 -9.730601e-001 -2.305518e-001
      outer loop
         vertex 1.254292e+003 5.394933e+002 1.882522e+003
         vertex 1.217292e+003 5.394933e+002 1.882522e+003
         vertex 1.217292e+003 5.397189e+002 1.881680e+003
      endloop
   endfacet
   facet normal 2.797525e-016 -9.579706e-001 -2.868663e-001
      outer loop
         vertex 1.254292e+003 5.394933e+002 1.882522e+003
         vertex 1.217292e+003 5.397189e+002 1.881680e+003
         vertex 1.254292e+003 5.397189e+002 1.881680e+003
      endloop
   endfacet
   facet normal 3.071569e-016 -9.182422e-001 -3.960194e-001
      outer loop
         vertex 1.254292e+003 5.397189e+002 1.881680e+003
         vertex 1.217292e+003 5.397189e+002 1.881680e+003
         vertex 1.220792e+003 5.400872e+002 1.880890e+003
      endloop
   endfacet
   facet normal 3.193654e-016 -8.936031e-001 -4.488580e-001
      outer loop
         vertex 1.254292e+003 5.397189e+002 1.881680e+003
         vertex 1.220792e+003 5.400872e+002 1.880890e+003
         vertex 1.254292e+003 5.400872e+002 1.880890e+003
      endloop
   endfacet
   facet normal 3.404242e-016 -8.355240e-001 -5.494540e-001
      outer loop
         vertex 1.254292e+003 5.400872e+002 1.880890e+003
         vertex 1.220792e+003 5.400872e+002 1.880890e+003
         vertex 1.220792e+003 5.405871e+002 1.880176e+003
      endloop
   endfacet
   facet normal 3.492745e-016 -8.020839e-001 -5.972114e-001
      outer loop
         vertex 1.254292e+003 5.400872e+002 1.880890e+003
         vertex 1.220792e+003 5.405871e+002 1.880176e+003
         vertex 1.254292e+003 5.405871e+002 1.880176e+003
      endloop
   endfacet
   facet normal 3.633480e-016 -7.274188e-001 -6.861938e-001
      outer loop
         vertex 1.254292e+003 5.405871e+002 1.880176e+003
         vertex 1.220792e+003 5.405871e+002 1.880176e+003
         vertex 1.220792e+003 5.412034e+002 1.879560e+003
      endloop
   endfacet
   facet normal 3.685712e-016 -6.861938e-001 -7.274188e-001
      outer loop
         vertex 1.254292e+003 5.405871e+002 1.880176e+003
         vertex 1.220792e+003 5.412034e+002 1.879560e+003
         vertex 1.254292e+003 5.412034e+002 1.879560e+003
      endloop
   endfacet
   facet normal 3.752317e-016 -5.972114e-001 -8.020839e-001
      outer loop
         vertex 1.254292e+003 5.412034e+002 1.879560e+003
         vertex 1.220792e+003 5.412034e+002 1.879560e+003
         vertex 1.220792e+003 5.419173e+002 1.879060e+003
      endloop
   endfacet
   facet normal 3.766690e-016 -5.494540e-001 -8.355240e-001
      outer loop
         vertex 1.254292e+003 5.412034e+002 1.879560e+003
         vertex 1.220792e+003 5.419173e+002 1.879060e+003
         vertex 1.254292e+003 5.419173e+002 1.879060e+003
      endloop
   endfacet
   facet normal 3.757141e-016 -4.488580e-001 -8.936031e-001
      outer loop
         vertex 1.254292e+003 5.419173e+002 1.879060e+003
         vertex 1.220792e+003 5.419173e+002 1.879060e+003
         vertex 1.220792e+003 5.427072e+002 1.878691e+003
      endloop
   endfacet
   facet normal 3.733219e-016 -3.960194e-001 -9.182422e-001
      outer loop
         vertex 1.254292e+003 5.419173e+002 1.879060e+003
         vertex 1.220792e+003 5.427072e+002 1.878691e+003
         vertex 1.254292e+003 5.427072e+002 1.878691e+003
      endloop
   endfacet
   facet normal 3.647806e-016 -2.868663e-001 -9.579706e-001
      outer loop
         vertex 1.254292e+003 5.427072e+002 1.878691e+003
         vertex 1.220792e+003 5.427072e+002 1.878691e+003
         vertex 1.220792e+003 5.435491e+002 1.878466e+003
      endloop
   endfacet
   facet normal 3.586316e-016 -2.305518e-001 -9.730601e-001
      outer loop
         vertex 1.254292e+003 5.427072e+002 1.878691e+003
         vertex 1.220792e+003 5.435491e+002 1.878466e+003
         vertex 1.254292e+003 5.435491e+002 1.878466e+003
      endloop
   endfacet
   facet normal 3.427634e-016 -1.161583e-001 -9.932307e-001
      outer loop
         vertex 1.254292e+003 5.435491e+002 1.878466e+003
         vertex 1.220792e+003 5.435491e+002 1.878466e+003
         vertex 1.220792e+003 5.444173e+002 1.878390e+003
      endloop
   endfacet
   facet normal 3.330444e-016 -5.807914e-002 -9.983120e-001
      outer loop
         vertex 1.254292e+003 5.435491e+002 1.878466e+003
         vertex 1.220792e+003 5.444173e+002 1.878390e+003
         vertex 1.254292e+003 5.444173e+002 1.878390e+003
      endloop
   endfacet
   facet normal 3.103316e-016 5.807914e-002 -9.983120e-001
      outer loop
         vertex 1.254292e+003 5.444173e+002 1.878390e+003
         vertex 1.220792e+003 5.444173e+002 1.878390e+003
         vertex 1.220792e+003 5.452856e+002 1.878466e+003
      endloop
   endfacet
   facet normal 2.973379e-016 1.161583e-001 -9.932307e-001
      outer loop
         vertex 1.254292e+003 5.444173e+002 1.878390e+003
         vertex 1.220792e+003 5.452856e+002 1.878466e+003
         vertex 1.254292e+003 5.452856e+002 1.878466e+003
      endloop
   endfacet
   facet normal 2.684705e-016 2.305518e-001 -9.730601e-001
      outer loop
         vertex 1.254292e+003 5.452856e+002 1.878466e+003
         vertex 1.220792e+003 5.452856e+002 1.878466e+003
         vertex 1.220792e+003 5.461274e+002 1.878691e+003
      endloop
   endfacet
   facet normal 2.525969e-016 2.868663e-001 -9.579706e-001
      outer loop
         vertex 1.254292e+003 5.452856e+002 1.878466e+003
         vertex 1.220792e+003 5.461274e+002 1.878691e+003
         vertex 1.254292e+003 5.461274e+002 1.878691e+003
      endloop
   endfacet
   facet normal 2.184521e-016 3.960194e-001 -9.182422e-001
      outer loop
         vertex 1.254292e+003 5.461274e+002 1.878691e+003
         vertex 1.220792e+003 5.461274e+002 1.878691e+003
         vertex 1.220792e+003 5.469173e+002 1.879060e+003
      endloop
   endfacet
   facet normal 2.001809e-016 4.488580e-001 -8.936031e-001
      outer loop
         vertex 1.254292e+003 5.461274e+002 1.878691e+003
         vertex 1.220792e+003 5.469173e+002 1.879060e+003
         vertex 1.254292e+003 5.469173e+002 1.879060e+003
      endloop
   endfacet
   facet normal 1.617961e-016 5.494540e-001 -8.355240e-001
      outer loop
         vertex 1.254292e+003 5.469173e+002 1.879060e+003
         vertex 1.220792e+003 5.469173e+002 1.879060e+003
         vertex 1.220792e+003 5.476313e+002 1.879560e+003
      endloop
   endfacet
   facet normal 1.416824e-016 5.972114e-001 -8.020839e-001
      outer loop
         vertex 1.254292e+003 5.469173e+002 1.879060e+003
         vertex 1.220792e+003 5.476313e+002 1.879560e+003
         vertex 1.254292e+003 5.476313e+002 1.879560e+003
      endloop
   endfacet
   facet normal 1.002240e-016 6.861938e-001 -7.274188e-001
      outer loop
         vertex 1.254292e+003 5.476313e+002 1.879560e+003
         vertex 1.220792e+003 5.476313e+002 1.879560e+003
         vertex 1.220792e+003 5.482476e+002 1.880176e+003
      endloop
   endfacet
   facet normal 7.887910e-017 7.274188e-001 -6.861938e-001
      outer loop
         vertex 1.254292e+003 5.476313e+002 1.879560e+003
         vertex 1.220792e+003 5.482476e+002 1.880176e+003
         vertex 1.254292e+003 5.482476e+002 1.880176e+003
      endloop
   endfacet
   facet normal 3.560663e-017 8.020839e-001 -5.972114e-001
      outer loop
         vertex 1.254292e+003 5.482476e+002 1.880176e+003
         vertex 1.220792e+003 5.482476e+002 1.880176e+003
         vertex 1.220792e+003 5.487475e+002 1.880890e+003
      endloop
   endfacet
   facet normal 1.367902e-017 8.355240e-001 -5.494540e-001
      outer loop
         vertex 1.254292e+003 5.482476e+002 1.880176e+003
         vertex 1.220792e+003 5.487475e+002 1.880890e+003
         vertex 1.254292e+003 5.487475e+002 1.880890e+003
      endloop
   endfacet
   facet normal -3.009261e-017 8.936031e-001 -4.488580e-001
      outer loop
         vertex 1.254292e+003 5.487475e+002 1.880890e+003
         vertex 1.220792e+003 5.487475e+002 1.880890e+003
         vertex 1.217292e+003 5.491158e+002 1.881680e+003
      endloop
   endfacet
   facet normal -5.193666e-017 9.182422e-001 -3.960194e-001
      outer loop
         vertex 1.254292e+003 5.487475e+002 1.880890e+003
         vertex 1.217292e+003 5.491158e+002 1.881680e+003
         vertex 1.254292e+003 5.491158e+002 1.881680e+003
      endloop
   endfacet
   facet normal -9.487750e-017 9.579706e-001 -2.868663e-001
      outer loop
         vertex 1.254292e+003 5.491158e+002 1.881680e+003
         vertex 1.217292e+003 5.491158e+002 1.881680e+003
         vertex 1.217292e+003 5.493414e+002 1.882522e+003
      endloop
   endfacet
   facet normal -1.159743e-016 9.730601e-001 -2.305518e-001
      outer loop
         vertex 1.254292e+003 5.491158e+002 1.881680e+003
         vertex 1.217292e+003 5.493414e+002 1.882522e+003
         vertex 1.254292e+003 5.493414e+002 1.882522e+003
      endloop
   endfacet
   facet normal -1.567796e-016 9.932307e-001 -1.161583e-001
      outer loop
         vertex 1.254292e+003 5.493414e+002 1.882522e+003
         vertex 1.217292e+003 5.493414e+002 1.882522e+003
         vertex 1.217292e+003 5.494173e+002 1.883390e+003
      endloop
   endfacet
   facet normal -1.764881e-016 9.983120e-001 -5.807914e-002
      outer loop
         vertex 1.254292e+003 5.493414e+002 1.882522e+003
         vertex 1.217292e+003 5.494173e+002 1.883390e+003
         vertex 1.254292e+003 5.494173e+002 1.883390e+003
      endloop
   endfacet
   facet normal -2.139180e-016 9.983120e-001 5.807914e-002
      outer loop
         vertex 1.254292e+003 5.494173e+002 1.883390e+003
         vertex 1.217292e+003 5.494173e+002 1.883390e+003
         vertex 1.217292e+003 5.493414e+002 1.884258e+003
      endloop
   endfacet
   facet normal -2.316394e-016 9.932307e-001 1.161583e-001
      outer loop
         vertex 1.254292e+003 5.494173e+002 1.883390e+003
         vertex 1.217292e+003 5.493414e+002 1.884258e+003
         vertex 1.254292e+003 5.493414e+002 1.884258e+003
      endloop
   endfacet
   facet normal -2.645566e-016 9.730601e-001 2.305518e-001
      outer loop
         vertex 1.254292e+003 5.493414e+002 1.884258e+003
         vertex 1.217292e+003 5.493414e+002 1.884258e+003
         vertex 1.217292e+003 5.491158e+002 1.885100e+003
      endloop
   endfacet
   facet normal -2.797525e-016 9.579706e-001 2.868663e-001
      outer loop
         vertex 1.254292e+003 5.493414e+002 1.884258e+003
         vertex 1.217292e+003 5.491158e+002 1.885100e+003
         vertex 1.254292e+003 5.491158e+002 1.885100e+003
      endloop
   endfacet
   facet normal -3.071569e-016 9.182422e-001 3.960194e-001
      outer loop
         vertex 1.254292e+003 5.491158e+002 1.885100e+003
         vertex 1.217292e+003 5.491158e+002 1.885100e+003
         vertex 1.217292e+003 5.487475e+002 1.885890e+003
      endloop
   endfacet
   facet normal -3.193654e-016 8.936031e-001 4.488580e-001
      outer loop
         vertex 1.254292e+003 5.491158e+002 1.885100e+003
         vertex 1.217292e+003 5.487475e+002 1.885890e+003
         vertex 1.254292e+003 5.487475e+002 1.885890e+003
      endloop
   endfacet
   facet normal -3.404242e-016 8.355240e-001 5.494540e-001
      outer loop
         vertex 1.254292e+003 5.487475e+002 1.885890e+003
         vertex 1.217292e+003 5.487475e+002 1.885890e+003
         vertex 1.217292e+003 5.482476e+002 1.886604e+003
      endloop
   endfacet
   facet normal -3.492745e-016 8.020839e-001 5.972114e-001
      outer loop
         vertex 1.254292e+003 5.487475e+002 1.885890e+003
         vertex 1.217292e+003 5.482476e+002 1.886604e+003
         vertex 1.254292e+003 5.482476e+002 1.886604e+003
      endloop
   endfacet
   facet normal -3.633480e-016 7.274188e-001 6.861938e-001
      outer loop
         vertex 1.254292e+003 5.482476e+002 1.886604e+003
         vertex 1.217292e+003 5.482476e+002 1.886604e+003
         vertex 1.217292e+003 5.476313e+002 1.887220e+003
      endloop
   endfacet
   facet normal -3.685712e-016 6.861938e-001 7.274188e-001
      outer loop
         vertex 1.254292e+003 5.482476e+002 1.886604e+003
         vertex 1.217292e+003 5.476313e+002 1.887220e+003
         vertex 1.254292e+003 5.476313e+002 1.887220e+003
      endloop
   endfacet
   facet normal -3.752317e-016 5.972114e-001 8.020839e-001
      outer loop
         vertex 1.254292e+003 5.476313e+002 1.887220e+003
         vertex 1.217292e+003 5.476313e+002 1.887220e+003
         vertex 1.217292e+003 5.469173e+002 1.887720e+003
      endloop
   endfacet
   facet normal -3.766690e-016 5.494540e-001 8.355240e-001
      outer loop
         vertex 1.254292e+003 5.476313e+002 1.887220e+003
         vertex 1.217292e+003 5.469173e+002 1.887720e+003
         vertex 1.254292e+003 5.469173e+002 1.887720e+003
      endloop
   endfacet
   facet normal -3.757141e-016 4.488580e-001 8.936031e-001
      outer loop
         vertex 1.254292e+003 5.469173e+002 1.887720e+003
         vertex 1.217292e+003 5.469173e+002 1.887720e+003
         vertex 1.217292e+003 5.461274e+002 1.888088e+003
      endloop
   endfacet
   facet normal -3.733219e-016 3.960194e-001 9.182422e-001
      outer loop
         vertex 1.254292e+003 5.469173e+002 1.887720e+003
         vertex 1.217292e+003 5.461274e+002 1.888088e+003
         vertex 1.254292e+003 5.461274e+002 1.888088e+003
      endloop
   endfacet
   facet normal -3.647806e-016 2.868663e-001 9.579706e-001
      outer loop
         vertex 1.254292e+003 5.461274e+002 1.888088e+003
         vertex 1.217292e+003 5.461274e+002 1.888088e+003
         vertex 1.217292e+003 5.452856e+002 1.888314e+003
      endloop
   endfacet
   facet normal -3.586316e-016 2.305518e-001 9.730601e-001
      outer loop
         vertex 1.254292e+003 5.461274e+002 1.888088e+003
         vertex 1.217292e+003 5.452856e+002 1.888314e+003
         vertex 1.254292e+003 5.452856e+002 1.888314e+003
      endloop
   endfacet
   facet normal -3.427634e-016 1.161583e-001 9.932307e-001
      outer loop
         vertex 1.254292e+003 5.452856e+002 1.888314e+003
         vertex 1.217292e+003 5.452856e+002 1.888314e+003
         vertex 1.217292e+003 5.444173e+002 1.888390e+003
      endloop
   endfacet
   facet normal -3.330444e-016 5.807914e-002 9.983120e-001
      outer loop
         vertex 1.254292e+003 5.452856e+002 1.888314e+003
         vertex 1.217292e+003 5.444173e+002 1.888390e+003
         vertex 1.254292e+003 5.444173e+002 1.888390e+003
      endloop
   endfacet
   facet normal -3.103316e-016 -5.807914e-002 9.983120e-001
      outer loop
         vertex 1.254292e+003 5.444173e+002 1.888390e+003
         vertex 1.217292e+003 5.444173e+002 1.888390e+003
         vertex 1.217292e+003 5.435491e+002 1.888314e+003
      endloop
   endfacet
   facet normal -2.973379e-016 -1.161583e-001 9.932307e-001
      outer loop
         vertex 1.254292e+003 5.444173e+002 1.888390e+003
         vertex 1.217292e+003 5.435491e+002 1.888314e+003
         vertex 1.254292e+003 5.435491e+002 1.888314e+003
      endloop
   endfacet
   facet normal -2.684705e-016 -2.305518e-001 9.730601e-001
      outer loop
         vertex 1.254292e+003 5.435491e+002 1.888314e+003
         vertex 1.217292e+003 5.435491e+002 1.888314e+003
         vertex 1.217292e+003 5.427072e+002 1.888088e+003
      endloop
   endfacet
   facet normal -2.525969e-016 -2.868663e-001 9.579706e-001
      outer loop
         vertex 1.254292e+003 5.435491e+002 1.888314e+003
         vertex 1.217292e+003 5.427072e+002 1.888088e+003
         vertex 1.254292e+003 5.427072e+002 1.888088e+003
      endloop
   endfacet
   facet normal -2.184521e-016 -3.960194e-001 9.182422e-001
      outer loop
         vertex 1.254292e+003 5.427072e+002 1.888088e+003
         vertex 1.217292e+003 5.427072e+002 1.888088e+003
         vertex 1.217292e+003 5.419173e+002 1.887720e+003
      endloop
   endfacet
   facet normal -2.001809e-016 -4.488580e-001 8.936031e-001
      outer loop
         vertex 1.254292e+003 5.427072e+002 1.888088e+003
         vertex 1.217292e+003 5.419173e+002 1.887720e+003
         vertex 1.254292e+003 5.419173e+002 1.887720e+003
      endloop
   endfacet
   facet normal -1.617961e-016 -5.494540e-001 8.355240e-001
      outer loop
         vertex 1.254292e+003 5.419173e+002 1.887720e+003
         vertex 1.217292e+003 5.419173e+002 1.887720e+003
         vertex 1.217292e+003 5.412034e+002 1.887220e+003
      endloop
   endfacet
   facet normal -1.416824e-016 -5.972114e-001 8.020839e-001
      outer loop
         vertex 1.254292e+003 5.419173e+002 1.887720e+003
         vertex 1.217292e+003 5.412034e+002 1.887220e+003
         vertex 1.254292e+003 5.412034e+002 1.887220e+003
      endloop
   endfacet
   facet normal -1.002240e-016 -6.861938e-001 7.274188e-001
      outer loop
         vertex 1.254292e+003 5.412034e+002 1.887220e+003
         vertex 1.217292e+003 5.412034e+002 1.887220e+003
         vertex 1.217292e+003 5.405871e+002 1.886604e+003
      endloop
   endfacet
   facet normal -7.887910e-017 -7.274188e-001 6.861938e-001
      outer loop
         vertex 1.254292e+003 5.412034e+002 1.887220e+003
         vertex 1.217292e+003 5.405871e+002 1.886604e+003
         vertex 1.254292e+003 5.405871e+002 1.886604e+003
      endloop
   endfacet
   facet normal -3.560663e-017 -8.020839e-001 5.972114e-001
      outer loop
         vertex 1.254292e+003 5.405871e+002 1.886604e+003
         vertex 1.217292e+003 5.405871e+002 1.886604e+003
         vertex 1.217292e+003 5.400872e+002 1.885890e+003
      endloop
   endfacet
   facet normal -1.367902e-017 -8.355240e-001 5.494540e-001
      outer loop
         vertex 1.254292e+003 5.405871e+002 1.886604e+003
         vertex 1.217292e+003 5.400872e+002 1.885890e+003
         vertex 1.254292e+003 5.400872e+002 1.885890e+003
      endloop
   endfacet
   facet normal 3.009261e-017 -8.936031e-001 4.488580e-001
      outer loop
         vertex 1.254292e+003 5.400872e+002 1.885890e+003
         vertex 1.217292e+003 5.400872e+002 1.885890e+003
         vertex 1.217292e+003 5.397189e+002 1.885100e+003
      endloop
   endfacet
   facet normal 5.193666e-017 -9.182422e-001 3.960194e-001
      outer loop
         vertex 1.254292e+003 5.400872e+002 1.885890e+003
         vertex 1.217292e+003 5.397189e+002 1.885100e+003
         vertex 1.254292e+003 5.397189e+002 1.885100e+003
      endloop
   endfacet
   facet normal 9.487750e-017 -9.579706e-001 2.868663e-001
      outer loop
         vertex 1.254292e+003 5.397189e+002 1.885100e+003
         vertex 1.217292e+003 5.397189e+002 1.885100e+003
         vertex 1.217292e+003 5.394933e+002 1.884258e+003
      endloop
   endfacet
   facet normal 1.159743e-016 -9.730601e-001 2.305518e-001
      outer loop
         vertex 1.254292e+003 5.397189e+002 1.885100e+003
         vertex 1.217292e+003 5.394933e+002 1.884258e+003
         vertex 1.254292e+003 5.394933e+002 1.884258e+003
      endloop
   endfacet
   facet normal 1.567796e-016 -9.932307e-001 1.161583e-001
      outer loop
         vertex 1.254292e+003 5.394933e+002 1.884258e+003
         vertex 1.217292e+003 5.394933e+002 1.884258e+003
         vertex 1.217292e+003 5.394173e+002 1.883390e+003
      endloop
   endfacet
   facet normal 1.000000e+000 1.955331e-016 3.222320e-016
      outer loop
         vertex 1.254792e+003 5.409702e+002 1.886282e+003
         vertex 1.254792e+003 5.405202e+002 1.885640e+003
         vertex 1.254792e+003 5.401887e+002 1.884929e+003
      endloop
   endfacet
   facet normal 1.000000e+000 1.955331e-016 3.222320e-016
      outer loop
         vertex 1.254792e+003 5.478646e+002 1.880497e+003
         vertex 1.254792e+003 5.483145e+002 1.881140e+003
         vertex 1.254792e+003 5.486460e+002 1.881851e+003
      endloop
   endfacet
   facet normal 1.000000e+000 1.955331e-016 3.222320e-016
      outer loop
         vertex 1.254792e+003 5.399857e+002 1.882609e+003
         vertex 1.254792e+003 5.401887e+002 1.881851e+003
         vertex 1.254792e+003 5.486460e+002 1.881851e+003
      endloop
   endfacet
   facet normal 1.000000e+000 1.955331e-016 3.222320e-016
      outer loop
         vertex 1.254792e+003 5.405202e+002 1.881140e+003
         vertex 1.254792e+003 5.409702e+002 1.880497e+003
         vertex 1.254792e+003 5.415248e+002 1.879943e+003
      endloop
   endfacet
   facet normal 1.000000e+000 1.955331e-016 3.222320e-016
      outer loop
         vertex 1.254792e+003 5.399174e+002 1.883390e+003
         vertex 1.254792e+003 5.399857e+002 1.882609e+003
         vertex 1.254792e+003 5.399857e+002 1.884171e+003
      endloop
   endfacet
   facet normal 1.000000e+000 1.955331e-016 3.222320e-016
      outer loop
         vertex 1.254792e+003 5.399857e+002 1.884171e+003
         vertex 1.254792e+003 5.399857e+002 1.882609e+003
         vertex 1.254792e+003 5.486460e+002 1.881851e+003
      endloop
   endfacet
   facet normal 1.000000e+000 1.955331e-016 3.222320e-016
      outer loop
         vertex 1.254792e+003 5.399857e+002 1.884171e+003
         vertex 1.254792e+003 5.486460e+002 1.881851e+003
         vertex 1.254792e+003 5.401887e+002 1.884929e+003
      endloop
   endfacet
   facet normal 1.000000e+000 1.955331e-016 3.222320e-016
      outer loop
         vertex 1.254792e+003 5.466674e+002 1.879493e+003
         vertex 1.254792e+003 5.473099e+002 1.879943e+003
         vertex 1.254792e+003 5.478646e+002 1.880497e+003
      endloop
   endfacet
   facet normal 1.000000e+000 1.955331e-016 3.222320e-016
      outer loop
         vertex 1.254792e+003 5.486460e+002 1.884929e+003
         vertex 1.254792e+003 5.483145e+002 1.885640e+003
         vertex 1.254792e+003 5.401887e+002 1.884929e+003
      endloop
   endfacet
   facet normal 1.000000e+000 1.955331e-016 3.222320e-016
      outer loop
         vertex 1.254792e+003 5.401887e+002 1.884929e+003
         vertex 1.254792e+003 5.483145e+002 1.885640e+003
         vertex 1.254792e+003 5.478646e+002 1.886282e+003
      endloop
   endfacet
   facet normal 1.000000e+000 1.955331e-016 3.222320e-016
      outer loop
         vertex 1.254792e+003 5.488490e+002 1.884171e+003
         vertex 1.254792e+003 5.486460e+002 1.884929e+003
         vertex 1.254792e+003 5.489174e+002 1.883390e+003
      endloop
   endfacet
   facet normal 1.000000e+000 1.955331e-016 3.222320e-016
      outer loop
         vertex 1.254792e+003 5.489174e+002 1.883390e+003
         vertex 1.254792e+003 5.486460e+002 1.884929e+003
         vertex 1.254792e+003 5.401887e+002 1.884929e+003
      endloop
   endfacet
   facet normal 1.000000e+000 1.955331e-016 3.222320e-016
      outer loop
         vertex 1.254792e+003 5.489174e+002 1.883390e+003
         vertex 1.254792e+003 5.401887e+002 1.884929e+003
         vertex 1.254792e+003 5.488490e+002 1.882609e+003
      endloop
   endfacet
   facet normal 1.000000e+000 1.955331e-016 3.222320e-016
      outer loop
         vertex 1.254792e+003 5.488490e+002 1.882609e+003
         vertex 1.254792e+003 5.401887e+002 1.884929e+003
         vertex 1.254792e+003 5.486460e+002 1.881851e+003
      endloop
   endfacet
   facet normal 1.000000e+000 1.955331e-016 3.222320e-016
      outer loop
         vertex 1.254792e+003 5.421673e+002 1.887287e+003
         vertex 1.254792e+003 5.415248e+002 1.886837e+003
         vertex 1.254792e+003 5.409702e+002 1.886282e+003
      endloop
   endfacet
   facet normal 1.000000e+000 1.955331e-016 3.222320e-016
      outer loop
         vertex 1.254792e+003 5.415248e+002 1.879943e+003
         vertex 1.254792e+003 5.421673e+002 1.879493e+003
         vertex 1.254792e+003 5.428783e+002 1.879161e+003
      endloop
   endfacet
   facet normal 1.000000e+000 1.955331e-016 3.222320e-016
      outer loop
         vertex 1.254792e+003 5.401887e+002 1.881851e+003
         vertex 1.254792e+003 5.405202e+002 1.881140e+003
         vertex 1.254792e+003 5.486460e+002 1.881851e+003
      endloop
   endfacet
   facet normal 1.000000e+000 1.955331e-016 3.222320e-016
      outer loop
         vertex 1.254792e+003 5.486460e+002 1.881851e+003
         vertex 1.254792e+003 5.405202e+002 1.881140e+003
         vertex 1.254792e+003 5.415248e+002 1.879943e+003
      endloop
   endfacet
   facet normal 1.000000e+000 1.955331e-016 3.222320e-016
      outer loop
         vertex 1.254792e+003 5.486460e+002 1.881851e+003
         vertex 1.254792e+003 5.415248e+002 1.879943e+003
         vertex 1.254792e+003 5.478646e+002 1.880497e+003
      endloop
   endfacet
   facet normal 1.000000e+000 1.955331e-016 3.222320e-016
      outer loop
         vertex 1.254792e+003 5.478646e+002 1.880497e+003
         vertex 1.254792e+003 5.415248e+002 1.879943e+003
         vertex 1.254792e+003 5.428783e+002 1.879161e+003
      endloop
   endfacet
   facet normal 1.000000e+000 1.955331e-016 3.222320e-016
      outer loop
         vertex 1.254792e+003 5.478646e+002 1.880497e+003
         vertex 1.254792e+003 5.428783e+002 1.879161e+003
         vertex 1.254792e+003 5.436359e+002 1.878958e+003
      endloop
   endfacet
   facet normal 1.000000e+000 1.955331e-016 3.222320e-016
      outer loop
         vertex 1.254792e+003 5.478646e+002 1.886282e+003
         vertex 1.254792e+003 5.473099e+002 1.886837e+003
         vertex 1.254792e+003 5.401887e+002 1.884929e+003
      endloop
   endfacet
   facet normal 1.000000e+000 1.955331e-016 3.222320e-016
      outer loop
         vertex 1.254792e+003 5.401887e+002 1.884929e+003
         vertex 1.254792e+003 5.473099e+002 1.886837e+003
         vertex 1.254792e+003 5.466674e+002 1.887287e+003
      endloop
   endfacet
   facet normal 1.000000e+000 1.955331e-016 3.222320e-016
      outer loop
         vertex 1.254792e+003 5.401887e+002 1.884929e+003
         vertex 1.254792e+003 5.466674e+002 1.887287e+003
         vertex 1.254792e+003 5.409702e+002 1.886282e+003
      endloop
   endfacet
   facet normal 1.000000e+000 1.955331e-016 3.222320e-016
      outer loop
         vertex 1.254792e+003 5.409702e+002 1.886282e+003
         vertex 1.254792e+003 5.466674e+002 1.887287e+003
         vertex 1.254792e+003 5.459564e+002 1.887619e+003
      endloop
   endfacet
   facet normal 1.000000e+000 1.955331e-016 3.222320e-016
      outer loop
         vertex 1.254792e+003 5.409702e+002 1.886282e+003
         vertex 1.254792e+003 5.459564e+002 1.887619e+003
         vertex 1.254792e+003 5.451987e+002 1.887822e+003
      endloop
   endfacet
   facet normal 1.000000e+000 1.955331e-016 3.222320e-016
      outer loop
         vertex 1.254792e+003 5.459564e+002 1.879161e+003
         vertex 1.254792e+003 5.466674e+002 1.879493e+003
         vertex 1.254792e+003 5.451987e+002 1.878958e+003
      endloop
   endfacet
   facet normal 1.000000e+000 1.955331e-016 3.222320e-016
      outer loop
         vertex 1.254792e+003 5.451987e+002 1.878958e+003
         vertex 1.254792e+003 5.466674e+002 1.879493e+003
         vertex 1.254792e+003 5.478646e+002 1.880497e+003
      endloop
   endfacet
   facet normal 1.000000e+000 1.955331e-016 3.222320e-016
      outer loop
         vertex 1.254792e+003 5.451987e+002 1.878958e+003
         vertex 1.254792e+003 5.478646e+002 1.880497e+003
         vertex 1.254792e+003 5.444173e+002 1.878890e+003
      endloop
   endfacet
   facet normal 1.000000e+000 1.955331e-016 3.222320e-016
      outer loop
         vertex 1.254792e+003 5.444173e+002 1.878890e+003
         vertex 1.254792e+003 5.478646e+002 1.880497e+003
         vertex 1.254792e+003 5.436359e+002 1.878958e+003
      endloop
   endfacet
   facet normal 1.000000e+000 1.955331e-016 3.222320e-016
      outer loop
         vertex 1.254792e+003 5.428783e+002 1.887619e+003
         vertex 1.254792e+003 5.421673e+002 1.887287e+003
         vertex 1.254792e+003 5.436359e+002 1.887822e+003
      endloop
   endfacet
   facet normal 1.000000e+000 1.955331e-016 3.222320e-016
      outer loop
         vertex 1.254792e+003 5.436359e+002 1.887822e+003
         vertex 1.254792e+003 5.421673e+002 1.887287e+003
         vertex 1.254792e+003 5.409702e+002 1.886282e+003
      endloop
   endfacet
   facet normal 1.000000e+000 1.955331e-016 3.222320e-016
      outer loop
         vertex 1.254792e+003 5.436359e+002 1.887822e+003
         vertex 1.254792e+003 5.409702e+002 1.886282e+003
         vertex 1.254792e+003 5.444173e+002 1.887890e+003
      endloop
   endfacet
   facet normal 1.000000e+000 1.955331e-016 3.222320e-016
      outer loop
         vertex 1.254792e+003 5.444173e+002 1.887890e+003
         vertex 1.254792e+003 5.409702e+002 1.886282e+003
         vertex 1.254792e+003 5.451987e+002 1.887822e+003
      endloop
   endfacet
   facet normal -1.000000e+000 -1.955331e-016 -3.222320e-016
      outer loop
         vertex 1.216792e+003 5.478646e+002 1.886282e+003
         vertex 1.216792e+003 5.483145e+002 1.885640e+003
         vertex 1.216792e+003 5.486460e+002 1.884929e+003
      endloop
   endfacet
   facet normal -1.000000e+000 -1.955331e-016 -3.222320e-016
      outer loop
         vertex 1.216792e+003 5.409702e+002 1.880497e+003
         vertex 1.216792e+003 5.405202e+002 1.881140e+003
         vertex 1.216792e+003 5.401887e+002 1.881851e+003
      endloop
   endfacet
   facet normal -1.000000e+000 -1.955331e-016 -3.222320e-016
      outer loop
         vertex 1.216792e+003 5.488490e+002 1.882609e+003
         vertex 1.216792e+003 5.486460e+002 1.881851e+003
         vertex 1.216792e+003 5.401887e+002 1.881851e+003
      endloop
   endfacet
   facet normal -1.000000e+000 -1.955331e-016 -3.222320e-016
      outer loop
         vertex 1.216792e+003 5.483145e+002 1.881140e+003
         vertex 1.216792e+003 5.478646e+002 1.880497e+003
         vertex 1.216792e+003 5.473099e+002 1.879943e+003
      endloop
   endfacet
   facet normal -1.000000e+000 -1.955331e-016 -3.222320e-016
      outer loop
         vertex 1.216792e+003 5.399857e+002 1.884171e+003
         vertex 1.216792e+003 5.401887e+002 1.881851e+003
         vertex 1.216792e+003 5.399174e+002 1.883390e+003
      endloop
   endfacet
   facet normal -1.000000e+000 -1.955331e-016 -3.222320e-016
      outer loop
         vertex 1.216792e+003 5.399174e+002 1.883390e+003
         vertex 1.216792e+003 5.401887e+002 1.881851e+003
         vertex 1.216792e+003 5.399857e+002 1.882609e+003
      endloop
   endfacet
   facet normal -1.000000e+000 -1.955331e-016 -3.222320e-016
      outer loop
         vertex 1.216792e+003 5.489174e+002 1.883390e+003
         vertex 1.216792e+003 5.488490e+002 1.882609e+003
         vertex 1.216792e+003 5.488490e+002 1.884171e+003
      endloop
   endfacet
   facet normal -1.000000e+000 -1.955331e-016 -3.222320e-016
      outer loop
         vertex 1.216792e+003 5.488490e+002 1.884171e+003
         vertex 1.216792e+003 5.488490e+002 1.882609e+003
         vertex 1.216792e+003 5.401887e+002 1.881851e+003
      endloop
   endfacet
   facet normal -1.000000e+000 -1.955331e-016 -3.222320e-016
      outer loop
         vertex 1.216792e+003 5.488490e+002 1.884171e+003
         vertex 1.216792e+003 5.401887e+002 1.881851e+003
         vertex 1.216792e+003 5.486460e+002 1.884929e+003
      endloop
   endfacet
   facet normal -1.000000e+000 -1.955331e-016 -3.222320e-016
      outer loop
         vertex 1.216792e+003 5.486460e+002 1.884929e+003
         vertex 1.216792e+003 5.401887e+002 1.881851e+003
         vertex 1.216792e+003 5.399857e+002 1.884171e+003
      endloop
   endfacet
   facet normal -1.000000e+000 -1.955331e-016 -3.222320e-016
      outer loop
         vertex 1.216792e+003 5.421673e+002 1.879493e+003
         vertex 1.216792e+003 5.415248e+002 1.879943e+003
         vertex 1.216792e+003 5.409702e+002 1.880497e+003
      endloop
   endfacet
   facet normal -1.000000e+000 -1.955331e-016 -3.222320e-016
      outer loop
         vertex 1.216792e+003 5.399857e+002 1.884171e+003
         vertex 1.216792e+003 5.401887e+002 1.884929e+003
         vertex 1.216792e+003 5.486460e+002 1.884929e+003
      endloop
   endfacet
   facet normal -1.000000e+000 -1.955331e-016 -3.222320e-016
      outer loop
         vertex 1.216792e+003 5.486460e+002 1.884929e+003
         vertex 1.216792e+003 5.401887e+002 1.884929e+003
         vertex 1.216792e+003 5.405202e+002 1.885640e+003
      endloop
   endfacet
   facet normal -1.000000e+000 -1.955331e-016 -3.222320e-016
      outer loop
         vertex 1.216792e+003 5.486460e+002 1.884929e+003
         vertex 1.216792e+003 5.405202e+002 1.885640e+003
         vertex 1.216792e+003 5.409702e+002 1.886282e+003
      endloop
   endfacet
   facet normal -1.000000e+000 -1.955331e-016 -3.222320e-016
      outer loop
         vertex 1.216792e+003 5.466674e+002 1.887287e+003
         vertex 1.216792e+003 5.473099e+002 1.886837e+003
         vertex 1.216792e+003 5.478646e+002 1.886282e+003
      endloop
   endfacet
   facet normal -1.000000e+000 -1.955331e-016 -3.222320e-016
      outer loop
         vertex 1.216792e+003 5.473099e+002 1.879943e+003
         vertex 1.216792e+003 5.466674e+002 1.879493e+003
         vertex 1.216792e+003 5.459564e+002 1.879161e+003
      endloop
   endfacet
   facet normal -1.000000e+000 -1.955331e-016 -3.222320e-016
      outer loop
         vertex 1.216792e+003 5.486460e+002 1.881851e+003
         vertex 1.216792e+003 5.483145e+002 1.881140e+003
         vertex 1.216792e+003 5.401887e+002 1.881851e+003
      endloop
   endfacet
   facet normal -1.000000e+000 -1.955331e-016 -3.222320e-016
      outer loop
         vertex 1.216792e+003 5.401887e+002 1.881851e+003
         vertex 1.216792e+003 5.483145e+002 1.881140e+003
         vertex 1.216792e+003 5.473099e+002 1.879943e+003
      endloop
   endfacet
   facet normal -1.000000e+000 -1.955331e-016 -3.222320e-016
      outer loop
         vertex 1.216792e+003 5.401887e+002 1.881851e+003
         vertex 1.216792e+003 5.473099e+002 1.879943e+003
         vertex 1.216792e+003 5.409702e+002 1.880497e+003
      endloop
   endfacet
   facet normal -1.000000e+000 -1.955331e-016 -3.222320e-016
      outer loop
         vertex 1.216792e+003 5.409702e+002 1.880497e+003
         vertex 1.216792e+003 5.473099e+002 1.879943e+003
         vertex 1.216792e+003 5.459564e+002 1.879161e+003
      endloop
   endfacet
   facet normal -1.000000e+000 -1.955331e-016 -3.222320e-016
      outer loop
         vertex 1.216792e+003 5.409702e+002 1.880497e+003
         vertex 1.216792e+003 5.459564e+002 1.879161e+003
         vertex 1.216792e+003 5.451987e+002 1.878958e+003
      endloop
   endfacet
   facet normal -1.000000e+000 -1.955331e-016 -3.222320e-016
      outer loop
         vertex 1.216792e+003 5.409702e+002 1.886282e+003
         vertex 1.216792e+003 5.415248e+002 1.886837e+003
         vertex 1.216792e+003 5.486460e+002 1.884929e+003
      endloop
   endfacet
   facet normal -1.000000e+000 -1.955331e-016 -3.222320e-016
      outer loop
         vertex 1.216792e+003 5.486460e+002 1.884929e+003
         vertex 1.216792e+003 5.415248e+002 1.886837e+003
         vertex 1.216792e+003 5.421673e+002 1.887287e+003
      endloop
   endfacet
   facet normal -1.000000e+000 -1.955331e-016 -3.222320e-016
      outer loop
         vertex 1.216792e+003 5.486460e+002 1.884929e+003
         vertex 1.216792e+003 5.421673e+002 1.887287e+003
         vertex 1.216792e+003 5.478646e+002 1.886282e+003
      endloop
   endfacet
   facet normal -1.000000e+000 -1.955331e-016 -3.222320e-016
      outer loop
         vertex 1.216792e+003 5.478646e+002 1.886282e+003
         vertex 1.216792e+003 5.421673e+002 1.887287e+003
         vertex 1.216792e+003 5.428783e+002 1.887619e+003
      endloop
   endfacet
   facet normal -1.000000e+000 -1.955331e-016 -3.222320e-016
      outer loop
         vertex 1.216792e+003 5.478646e+002 1.886282e+003
         vertex 1.216792e+003 5.428783e+002 1.887619e+003
         vertex 1.216792e+003 5.436359e+002 1.887822e+003
      endloop
   endfacet
   facet normal -1.000000e+000 -1.955331e-016 -3.222320e-016
      outer loop
         vertex 1.216792e+003 5.428783e+002 1.879161e+003
         vertex 1.216792e+003 5.421673e+002 1.879493e+003
         vertex 1.216792e+003 5.436359e+002 1.878958e+003
      endloop
   endfacet
   facet normal -1.000000e+000 -1.955331e-016 -3.222320e-016
      outer loop
         vertex 1.216792e+003 5.436359e+002 1.878958e+003
         vertex 1.216792e+003 5.421673e+002 1.879493e+003
         vertex 1.216792e+003 5.409702e+002 1.880497e+003
      endloop
   endfacet
   facet normal -1.000000e+000 -1.955331e-016 -3.222320e-016
      outer loop
         vertex 1.216792e+003 5.436359e+002 1.878958e+003
         vertex 1.216792e+003 5.409702e+002 1.880497e+003
         vertex 1.216792e+003 5.444173e+002 1.878890e+003
      endloop
   endfacet
   facet normal -1.000000e+000 -1.955331e-016 -3.222320e-016
      outer loop
         vertex 1.216792e+003 5.444173e+002 1.878890e+003
         vertex 1.216792e+003 5.409702e+002 1.880497e+003
         vertex 1.216792e+003 5.451987e+002 1.878958e+003
      endloop
   endfacet
   facet normal -1.000000e+000 -1.955331e-016 -3.222320e-016
      outer loop
         vertex 1.216792e+003 5.459564e+002 1.887619e+003
         vertex 1.216792e+003 5.466674e+002 1.887287e+003
         vertex 1.216792e+003 5.451987e+002 1.887822e+003
      endloop
   endfacet
   facet normal -1.000000e+000 -1.955331e-016 -3.222320e-016
      outer loop
         vertex 1.216792e+003 5.451987e+002 1.887822e+003
         vertex 1.216792e+003 5.466674e+002 1.887287e+003
         vertex 1.216792e+003 5.478646e+002 1.886282e+003
      endloop
   endfacet
   facet normal -1.000000e+000 -1.955331e-016 -3.222320e-016
      outer loop
         vertex 1.216792e+003 5.451987e+002 1.887822e+003
         vertex 1.216792e+003 5.478646e+002 1.886282e+003
         vertex 1.216792e+003 5.444173e+002 1.887890e+003
      endloop
   endfacet
   facet normal -1.000000e+000 -1.955331e-016 -3.222320e-016
      outer loop
         vertex 1.216792e+003 5.444173e+002 1.887890e+003
         vertex 1.216792e+003 5.478646e+002 1.886282e+003
         vertex 1.216792e+003 5.436359e+002 1.887822e+003
      endloop
   endfacet
   facet normal 7.083034e-001 -6.868910e-001 1.627484e-001
      outer loop
         vertex 1.254292e+003 5.394933e+002 1.884258e+003
         vertex 1.254792e+003 5.399857e+002 1.884171e+003
         vertex 1.254292e+003 5.397189e+002 1.885100e+003
      endloop
   endfacet
   facet normal 7.083035e-001 -6.762393e-001 2.025012e-001
      outer loop
         vertex 1.254292e+003 5.397189e+002 1.885100e+003
         vertex 1.254792e+003 5.399857e+002 1.884171e+003
         vertex 1.254792e+003 5.401887e+002 1.884929e+003
      endloop
   endfacet
   facet normal 7.083035e-001 -6.481946e-001 2.795533e-001
      outer loop
         vertex 1.254292e+003 5.397189e+002 1.885100e+003
         vertex 1.254792e+003 5.401887e+002 1.884929e+003
         vertex 1.254292e+003 5.400872e+002 1.885890e+003
      endloop
   endfacet
   facet normal 7.083034e-001 -6.308017e-001 3.168525e-001
      outer loop
         vertex 1.254292e+003 5.400872e+002 1.885890e+003
         vertex 1.254792e+003 5.401887e+002 1.884929e+003
         vertex 1.254792e+003 5.405202e+002 1.885640e+003
      endloop
   endfacet
   facet normal 7.083035e-001 -5.898032e-001 3.878641e-001
      outer loop
         vertex 1.254292e+003 5.400872e+002 1.885890e+003
         vertex 1.254792e+003 5.405202e+002 1.885640e+003
         vertex 1.254292e+003 5.405871e+002 1.886604e+003
      endloop
   endfacet
   facet normal 7.083035e-001 -5.661975e-001 4.215764e-001
      outer loop
         vertex 1.254292e+003 5.405871e+002 1.886604e+003
         vertex 1.254792e+003 5.405202e+002 1.885640e+003
         vertex 1.254792e+003 5.409702e+002 1.886282e+003
      endloop
   endfacet
   facet normal 7.083035e-001 -5.134908e-001 4.843898e-001
      outer loop
         vertex 1.254292e+003 5.405871e+002 1.886604e+003
         vertex 1.254792e+003 5.409702e+002 1.886282e+003
         vertex 1.254292e+003 5.412034e+002 1.887220e+003
      endloop
   endfacet
   facet normal 7.083035e-001 -4.843898e-001 5.134908e-001
      outer loop
         vertex 1.254292e+003 5.412034e+002 1.887220e+003
         vertex 1.254792e+003 5.409702e+002 1.886282e+003
         vertex 1.254792e+003 5.415248e+002 1.886837e+003
      endloop
   endfacet
   facet normal 7.083035e-001 -4.215764e-001 5.661975e-001
      outer loop
         vertex 1.254292e+003 5.412034e+002 1.887220e+003
         vertex 1.254792e+003 5.415248e+002 1.886837e+003
         vertex 1.254292e+003 5.419173e+002 1.887720e+003
      endloop
   endfacet
   facet normal 7.083035e-001 -3.878641e-001 5.898032e-001
      outer loop
         vertex 1.254292e+003 5.419173e+002 1.887720e+003
         vertex 1.254792e+003 5.415248e+002 1.886837e+003
         vertex 1.254792e+003 5.421673e+002 1.887287e+003
      endloop
   endfacet
   facet normal 7.083034e-001 -3.168525e-001 6.308017e-001
      outer loop
         vertex 1.254292e+003 5.419173e+002 1.887720e+003
         vertex 1.254792e+003 5.421673e+002 1.887287e+003
         vertex 1.254292e+003 5.427072e+002 1.888088e+003
      endloop
   endfacet
   facet normal 7.083035e-001 -2.795533e-001 6.481946e-001
      outer loop
         vertex 1.254292e+003 5.427072e+002 1.888088e+003
         vertex 1.254792e+003 5.421673e+002 1.887287e+003
         vertex 1.254792e+003 5.428783e+002 1.887619e+003
      endloop
   endfacet
   facet normal 7.083035e-001 -2.025012e-001 6.762393e-001
      outer loop
         vertex 1.254292e+003 5.427072e+002 1.888088e+003
         vertex 1.254792e+003 5.428783e+002 1.887619e+003
         vertex 1.254292e+003 5.435491e+002 1.888314e+003
      endloop
   endfacet
   facet normal 7.083034e-001 -1.627484e-001 6.868910e-001
      outer loop
         vertex 1.254292e+003 5.435491e+002 1.888314e+003
         vertex 1.254792e+003 5.428783e+002 1.887619e+003
         vertex 1.254792e+003 5.436359e+002 1.887822e+003
      endloop
   endfacet
   facet normal 7.083034e-001 -8.199707e-002 7.011296e-001
      outer loop
         vertex 1.254292e+003 5.435491e+002 1.888314e+003
         vertex 1.254792e+003 5.436359e+002 1.887822e+003
         vertex 1.254292e+003 5.444173e+002 1.888390e+003
      endloop
   endfacet
   facet normal 7.083035e-001 -4.099854e-002 7.047165e-001
      outer loop
         vertex 1.254292e+003 5.444173e+002 1.888390e+003
         vertex 1.254792e+003 5.436359e+002 1.887822e+003
         vertex 1.254792e+003 5.444173e+002 1.887890e+003
      endloop
   endfacet
   facet normal 7.083035e-001 4.099854e-002 7.047165e-001
      outer loop
         vertex 1.254292e+003 5.444173e+002 1.888390e+003
         vertex 1.254792e+003 5.444173e+002 1.887890e+003
         vertex 1.254292e+003 5.452856e+002 1.888314e+003
      endloop
   endfacet
   facet normal 7.083034e-001 8.199707e-002 7.011296e-001
      outer loop
         vertex 1.254292e+003 5.452856e+002 1.888314e+003
         vertex 1.254792e+003 5.444173e+002 1.887890e+003
         vertex 1.254792e+003 5.451987e+002 1.887822e+003
      endloop
   endfacet
   facet normal 7.083034e-001 1.627484e-001 6.868910e-001
      outer loop
         vertex 1.254292e+003 5.452856e+002 1.888314e+003
         vertex 1.254792e+003 5.451987e+002 1.887822e+003
         vertex 1.254292e+003 5.461274e+002 1.888088e+003
      endloop
   endfacet
   facet normal 7.083035e-001 2.025012e-001 6.762393e-001
      outer loop
         vertex 1.254292e+003 5.461274e+002 1.888088e+003
         vertex 1.254792e+003 5.451987e+002 1.887822e+003
         vertex 1.254792e+003 5.459564e+002 1.887619e+003
      endloop
   endfacet
   facet normal 7.083035e-001 2.795533e-001 6.481946e-001
      outer loop
         vertex 1.254292e+003 5.461274e+002 1.888088e+003
         vertex 1.254792e+003 5.459564e+002 1.887619e+003
         vertex 1.254292e+003 5.469173e+002 1.887720e+003
      endloop
   endfacet
   facet normal 7.083034e-001 3.168525e-001 6.308017e-001
      outer loop
         vertex 1.254292e+003 5.469173e+002 1.887720e+003
         vertex 1.254792e+003 5.459564e+002 1.887619e+003
         vertex 1.254792e+003 5.466674e+002 1.887287e+003
      endloop
   endfacet
   facet normal 7.083035e-001 3.878641e-001 5.898032e-001
      outer loop
         vertex 1.254292e+003 5.469173e+002 1.887720e+003
         vertex 1.254792e+003 5.466674e+002 1.887287e+003
         vertex 1.254292e+003 5.476313e+002 1.887220e+003
      endloop
   endfacet
   facet normal 7.083035e-001 4.215764e-001 5.661975e-001
      outer loop
         vertex 1.254292e+003 5.476313e+002 1.887220e+003
         vertex 1.254792e+003 5.466674e+002 1.887287e+003
         vertex 1.254792e+003 5.473099e+002 1.886837e+003
      endloop
   endfacet
   facet normal 7.083035e-001 4.843898e-001 5.134908e-001
      outer loop
         vertex 1.254292e+003 5.476313e+002 1.887220e+003
         vertex 1.254792e+003 5.473099e+002 1.886837e+003
         vertex 1.254292e+003 5.482476e+002 1.886604e+003
      endloop
   endfacet
   facet normal 7.083035e-001 5.134908e-001 4.843898e-001
      outer loop
         vertex 1.254292e+003 5.482476e+002 1.886604e+003
         vertex 1.254792e+003 5.473099e+002 1.886837e+003
         vertex 1.254792e+003 5.478646e+002 1.886282e+003
      endloop
   endfacet
   facet normal 7.083035e-001 5.661975e-001 4.215764e-001
      outer loop
         vertex 1.254292e+003 5.482476e+002 1.886604e+003
         vertex 1.254792e+003 5.478646e+002 1.886282e+003
         vertex 1.254292e+003 5.487475e+002 1.885890e+003
      endloop
   endfacet
   facet normal 7.083035e-001 5.898032e-001 3.878641e-001
      outer loop
         vertex 1.254292e+003 5.487475e+002 1.885890e+003
         vertex 1.254792e+003 5.478646e+002 1.886282e+003
         vertex 1.254792e+003 5.483145e+002 1.885640e+003
      endloop
   endfacet
   facet normal 7.083034e-001 6.308017e-001 3.168525e-001
      outer loop
         vertex 1.254292e+003 5.487475e+002 1.885890e+003
         vertex 1.254792e+003 5.483145e+002 1.885640e+003
         vertex 1.254292e+003 5.491158e+002 1.885100e+003
      endloop
   endfacet
   facet normal 7.083035e-001 6.481946e-001 2.795533e-001
      outer loop
         vertex 1.254292e+003 5.491158e+002 1.885100e+003
         vertex 1.254792e+003 5.483145e+002 1.885640e+003
         vertex 1.254792e+003 5.486460e+002 1.884929e+003
      endloop
   endfacet
   facet normal 7.083035e-001 6.762393e-001 2.025012e-001
      outer loop
         vertex 1.254292e+003 5.491158e+002 1.885100e+003
         vertex 1.254792e+003 5.486460e+002 1.884929e+003
         vertex 1.254292e+003 5.493414e+002 1.884258e+003
      endloop
   endfacet
   facet normal 7.083034e-001 6.868910e-001 1.627484e-001
      outer loop
         vertex 1.254292e+003 5.493414e+002 1.884258e+003
         vertex 1.254792e+003 5.486460e+002 1.884929e+003
         vertex 1.254792e+003 5.488490e+002 1.884171e+003
      endloop
   endfacet
   facet normal 7.083034e-001 7.011296e-001 8.199707e-002
      outer loop
         vertex 1.254292e+003 5.493414e+002 1.884258e+003
         vertex 1.254792e+003 5.488490e+002 1.884171e+003
         vertex 1.254292e+003 5.494173e+002 1.883390e+003
      endloop
   endfacet
   facet normal 7.083035e-001 7.047165e-001 4.099854e-002
      outer loop
         vertex 1.254292e+003 5.494173e+002 1.883390e+003
         vertex 1.254792e+003 5.488490e+002 1.884171e+003
         vertex 1.254792e+003 5.489174e+002 1.883390e+003
      endloop
   endfacet
   facet normal 7.083035e-001 7.047165e-001 -4.099854e-002
      outer loop
         vertex 1.254292e+003 5.494173e+002 1.883390e+003
         vertex 1.254792e+003 5.489174e+002 1.883390e+003
         vertex 1.254292e+003 5.493414e+002 1.882522e+003
      endloop
   endfacet
   facet normal 7.083034e-001 7.011296e-001 -8.199707e-002
      outer loop
         vertex 1.254292e+003 5.493414e+002 1.882522e+003
         vertex 1.254792e+003 5.489174e+002 1.883390e+003
         vertex 1.254792e+003 5.488490e+002 1.882609e+003
      endloop
   endfacet
   facet normal 7.083034e-001 6.868910e-001 -1.627484e-001
      outer loop
         vertex 1.254292e+003 5.493414e+002 1.882522e+003
         vertex 1.254792e+003 5.488490e+002 1.882609e+003
         vertex 1.254292e+003 5.491158e+002 1.881680e+003
      endloop
   endfacet
   facet normal 7.083035e-001 6.762393e-001 -2.025012e-001
      outer loop
         vertex 1.254292e+003 5.491158e+002 1.881680e+003
         vertex 1.254792e+003 5.488490e+002 1.882609e+003
         vertex 1.254792e+003 5.486460e+002 1.881851e+003
      endloop
   endfacet
   facet normal 7.083035e-001 6.481946e-001 -2.795533e-001
      outer loop
         vertex 1.254292e+003 5.491158e+002 1.881680e+003
         vertex 1.254792e+003 5.486460e+002 1.881851e+003
         vertex 1.254292e+003 5.487475e+002 1.880890e+003
      endloop
   endfacet
   facet normal 7.083034e-001 6.308017e-001 -3.168525e-001
      outer loop
         vertex 1.254292e+003 5.487475e+002 1.880890e+003
         vertex 1.254792e+003 5.486460e+002 1.881851e+003
         vertex 1.254792e+003 5.483145e+002 1.881140e+003
      endloop
   endfacet
   facet normal 7.083035e-001 5.898032e-001 -3.878641e-001
      outer loop
         vertex 1.254292e+003 5.487475e+002 1.880890e+003
         vertex 1.254792e+003 5.483145e+002 1.881140e+003
         vertex 1.254292e+003 5.482476e+002 1.880176e+003
      endloop
   endfacet
   facet normal 7.083035e-001 5.661975e-001 -4.215764e-001
      outer loop
         vertex 1.254292e+003 5.482476e+002 1.880176e+003
         vertex 1.254792e+003 5.483145e+002 1.881140e+003
         vertex 1.254792e+003 5.478646e+002 1.880497e+003
      endloop
   endfacet
   facet normal 7.083035e-001 5.134908e-001 -4.843898e-001
      outer loop
         vertex 1.254292e+003 5.482476e+002 1.880176e+003
         vertex 1.254792e+003 5.478646e+002 1.880497e+003
         vertex 1.254292e+003 5.476313e+002 1.879560e+003
      endloop
   endfacet
   facet normal 7.083035e-001 4.843898e-001 -5.134908e-001
      outer loop
         vertex 1.254292e+003 5.476313e+002 1.879560e+003
         vertex 1.254792e+003 5.478646e+002 1.880497e+003
         vertex 1.254792e+003 5.473099e+002 1.879943e+003
      endloop
   endfacet
   facet normal 7.083035e-001 4.215764e-001 -5.661975e-001
      outer loop
         vertex 1.254292e+003 5.476313e+002 1.879560e+003
         vertex 1.254792e+003 5.473099e+002 1.879943e+003
         vertex 1.254292e+003 5.469173e+002 1.879060e+003
      endloop
   endfacet
   facet normal 7.083035e-001 3.878641e-001 -5.898032e-001
      outer loop
         vertex 1.254292e+003 5.469173e+002 1.879060e+003
         vertex 1.254792e+003 5.473099e+002 1.879943e+003
         vertex 1.254792e+003 5.466674e+002 1.879493e+003
      endloop
   endfacet
   facet normal 7.083034e-001 3.168525e-001 -6.308017e-001
      outer loop
         vertex 1.254292e+003 5.469173e+002 1.879060e+003
         vertex 1.254792e+003 5.466674e+002 1.879493e+003
         vertex 1.254292e+003 5.461274e+002 1.878691e+003
      endloop
   endfacet
   facet normal 7.083035e-001 2.795533e-001 -6.481946e-001
      outer loop
         vertex 1.254292e+003 5.461274e+002 1.878691e+003
         vertex 1.254792e+003 5.466674e+002 1.879493e+003
         vertex 1.254792e+003 5.459564e+002 1.879161e+003
      endloop
   endfacet
   facet normal 7.083035e-001 2.025012e-001 -6.762393e-001
      outer loop
         vertex 1.254292e+003 5.461274e+002 1.878691e+003
         vertex 1.254792e+003 5.459564e+002 1.879161e+003
         vertex 1.254292e+003 5.452856e+002 1.878466e+003
      endloop
   endfacet
   facet normal 7.083034e-001 1.627484e-001 -6.868910e-001
      outer loop
         vertex 1.254292e+003 5.452856e+002 1.878466e+003
         vertex 1.254792e+003 5.459564e+002 1.879161e+003
         vertex 1.254792e+003 5.451987e+002 1.878958e+003
      endloop
   endfacet
   facet normal 7.083034e-001 8.199707e-002 -7.011296e-001
      outer loop
         vertex 1.254292e+003 5.452856e+002 1.878466e+003
         vertex 1.254792e+003 5.451987e+002 1.878958e+003
         vertex 1.254292e+003 5.444173e+002 1.878390e+003
      endloop
   endfacet
   facet normal 7.083035e-001 4.099854e-002 -7.047165e-001
      outer loop
         vertex 1.254292e+003 5.444173e+002 1.878390e+003
         vertex 1.254792e+003 5.451987e+002 1.878958e+003
         vertex 1.254792e+003 5.444173e+002 1.878890e+003
      endloop
   endfacet
   facet normal 7.083035e-001 -4.099854e-002 -7.047165e-001
      outer loop
         vertex 1.254292e+003 5.444173e+002 1.878390e+003
         vertex 1.254792e+003 5.444173e+002 1.878890e+003
         vertex 1.254292e+003 5.435491e+002 1.878466e+003
      endloop
   endfacet
   facet normal 7.083034e-001 -8.199707e-002 -7.011296e-001
      outer loop
         vertex 1.254292e+003 5.435491e+002 1.878466e+003
         vertex 1.254792e+003 5.444173e+002 1.878890e+003
         vertex 1.254792e+003 5.436359e+002 1.878958e+003
      endloop
   endfacet
   facet normal 7.083034e-001 -1.627484e-001 -6.868910e-001
      outer loop
         vertex 1.254292e+003 5.435491e+002 1.878466e+003
         vertex 1.254792e+003 5.436359e+002 1.878958e+003
         vertex 1.254292e+003 5.427072e+002 1.878691e+003
      endloop
   endfacet
   facet normal 7.083035e-001 -2.025012e-001 -6.762393e-001
      outer loop
         vertex 1.254292e+003 5.427072e+002 1.878691e+003
         vertex 1.254792e+003 5.436359e+002 1.878958e+003
         vertex 1.254792e+003 5.428783e+002 1.879161e+003
      endloop
   endfacet
   facet normal 7.083035e-001 -2.795533e-001 -6.481946e-001
      outer loop
         vertex 1.254292e+003 5.427072e+002 1.878691e+003
         vertex 1.254792e+003 5.428783e+002 1.879161e+003
         vertex 1.254292e+003 5.419173e+002 1.879060e+003
      endloop
   endfacet
   facet normal 7.083034e-001 -3.168525e-001 -6.308017e-001
      outer loop
         vertex 1.254292e+003 5.419173e+002 1.879060e+003
         vertex 1.254792e+003 5.428783e+002 1.879161e+003
         vertex 1.254792e+003 5.421673e+002 1.879493e+003
      endloop
   endfacet
   facet normal 7.083035e-001 -3.878641e-001 -5.898032e-001
      outer loop
         vertex 1.254292e+003 5.419173e+002 1.879060e+003
         vertex 1.254792e+003 5.421673e+002 1.879493e+003
         vertex 1.254292e+003 5.412034e+002 1.879560e+003
      endloop
   endfacet
   facet normal 7.083035e-001 -4.215764e-001 -5.661975e-001
      outer loop
         vertex 1.254292e+003 5.412034e+002 1.879560e+003
         vertex 1.254792e+003 5.421673e+002 1.879493e+003
         vertex 1.254792e+003 5.415248e+002 1.879943e+003
      endloop
   endfacet
   facet normal 7.083035e-001 -4.843898e-001 -5.134908e-001
      outer loop
         vertex 1.254292e+003 5.412034e+002 1.879560e+003
         vertex 1.254792e+003 5.415248e+002 1.879943e+003
         vertex 1.254292e+003 5.405871e+002 1.880176e+003
      endloop
   endfacet
   facet normal 7.083035e-001 -5.134908e-001 -4.843898e-001
      outer loop
         vertex 1.254292e+003 5.405871e+002 1.880176e+003
         vertex 1.254792e+003 5.415248e+002 1.879943e+003
         vertex 1.254792e+003 5.409702e+002 1.880497e+003
      endloop
   endfacet
   facet normal 7.083035e-001 -5.661975e-001 -4.215764e-001
      outer loop
         vertex 1.254292e+003 5.405871e+002 1.880176e+003
         vertex 1.254792e+003 5.409702e+002 1.880497e+003
         vertex 1.254292e+003 5.400872e+002 1.880890e+003
      endloop
   endfacet
   facet normal 7.083035e-001 -5.898032e-001 -3.878641e-001
      outer loop
         vertex 1.254292e+003 5.400872e+002 1.880890e+003
         vertex 1.254792e+003 5.409702e+002 1.880497e+003
         vertex 1.254792e+003 5.405202e+002 1.881140e+003
      endloop
   endfacet
   facet normal 7.083034e-001 -6.308017e-001 -3.168525e-001
      outer loop
         vertex 1.254292e+003 5.400872e+002 1.880890e+003
         vertex 1.254792e+003 5.405202e+002 1.881140e+003
         vertex 1.254292e+003 5.397189e+002 1.881680e+003
      endloop
   endfacet
   facet normal 7.083035e-001 -6.481946e-001 -2.795533e-001
      outer loop
         vertex 1.254292e+003 5.397189e+002 1.881680e+003
         vertex 1.254792e+003 5.405202e+002 1.881140e+003
         vertex 1.254792e+003 5.401887e+002 1.881851e+003
      endloop
   endfacet
   facet normal 7.083035e-001 -6.762393e-001 -2.025012e-001
      outer loop
         vertex 1.254292e+003 5.397189e+002 1.881680e+003
         vertex 1.254792e+003 5.401887e+002 1.881851e+003
         vertex 1.254292e+003 5.394933e+002 1.882522e+003
      endloop
   endfacet
   facet normal 7.083034e-001 -6.868910e-001 -1.627484e-001
      outer loop
         vertex 1.254292e+003 5.394933e+002 1.882522e+003
         vertex 1.254792e+003 5.401887e+002 1.881851e+003
         vertex 1.254792e+003 5.399857e+002 1.882609e+003
      endloop
   endfacet
   facet normal 7.083034e-001 -7.011296e-001 -8.199707e-002
      outer loop
         vertex 1.254292e+003 5.394933e+002 1.882522e+003
         vertex 1.254792e+003 5.399857e+002 1.882609e+003
         vertex 1.254292e+003 5.394173e+002 1.883390e+003
      endloop
   endfacet
   facet normal 7.083035e-001 -7.047165e-001 -4.099854e-002
      outer loop
         vertex 1.254292e+003 5.394173e+002 1.883390e+003
         vertex 1.254792e+003 5.399857e+002 1.882609e+003
         vertex 1.254792e+003 5.399174e+002 1.883390e+003
      endloop
   endfacet
   facet normal 7.083035e-001 -7.047165e-001 4.099854e-002
      outer loop
         vertex 1.254292e+003 5.394173e+002 1.883390e+003
         vertex 1.254792e+003 5.399174e+002 1.883390e+003
         vertex 1.254292e+003 5.394933e+002 1.884258e+003
      endloop
   endfacet
   facet normal 7.083034e-001 -7.011296e-001 8.199707e-002
      outer loop
         vertex 1.254292e+003 5.394933e+002 1.884258e+003
         vertex 1.254792e+003 5.399174e+002 1.883390e+003
         vertex 1.254792e+003 5.399857e+002 1.884171e+003
      endloop
   endfacet
   facet normal -7.083034e-001 6.868910e-001 1.627484e-001
      outer loop
         vertex 1.217292e+003 5.493414e+002 1.884258e+003
         vertex 1.216792e+003 5.488490e+002 1.884171e+003
         vertex 1.217292e+003 5.491158e+002 1.885100e+003
      endloop
   endfacet
   facet normal -7.083035e-001 6.762393e-001 2.025012e-001
      outer loop
         vertex 1.217292e+003 5.491158e+002 1.885100e+003
         vertex 1.216792e+003 5.488490e+002 1.884171e+003
         vertex 1.216792e+003 5.486460e+002 1.884929e+003
      endloop
   endfacet
   facet normal -7.083035e-001 6.481946e-001 2.795533e-001
      outer loop
         vertex 1.217292e+003 5.491158e+002 1.885100e+003
         vertex 1.216792e+003 5.486460e+002 1.884929e+003
         vertex 1.217292e+003 5.487475e+002 1.885890e+003
      endloop
   endfacet
   facet normal -7.083034e-001 6.308017e-001 3.168525e-001
      outer loop
         vertex 1.217292e+003 5.487475e+002 1.885890e+003
         vertex 1.216792e+003 5.486460e+002 1.884929e+003
         vertex 1.216792e+003 5.483145e+002 1.885640e+003
      endloop
   endfacet
   facet normal -7.083035e-001 5.898032e-001 3.878641e-001
      outer loop
         vertex 1.217292e+003 5.487475e+002 1.885890e+003
         vertex 1.216792e+003 5.483145e+002 1.885640e+003
         vertex 1.217292e+003 5.482476e+002 1.886604e+003
      endloop
   endfacet
   facet normal -7.083035e-001 5.661975e-001 4.215764e-001
      outer loop
         vertex 1.217292e+003 5.482476e+002 1.886604e+003
         vertex 1.216792e+003 5.483145e+002 1.885640e+003
         vertex 1.216792e+003 5.478646e+002 1.886282e+003
      endloop
   endfacet
   facet normal -7.083035e-001 5.134908e-001 4.843898e-001
      outer loop
         vertex 1.217292e+003 5.482476e+002 1.886604e+003
         vertex 1.216792e+003 5.478646e+002 1.886282e+003
         vertex 1.217292e+003 5.476313e+002 1.887220e+003
      endloop
   endfacet
   facet normal -7.083035e-001 4.843898e-001 5.134908e-001
      outer loop
         vertex 1.217292e+003 5.476313e+002 1.887220e+003
         vertex 1.216792e+003 5.478646e+002 1.886282e+003
         vertex 1.216792e+003 5.473099e+002 1.886837e+003
      endloop
   endfacet
   facet normal -7.083035e-001 4.215764e-001 5.661975e-001
      outer loop
         vertex 1.217292e+003 5.476313e+002 1.887220e+003
         vertex 1.216792e+003 5.473099e+002 1.886837e+003
         vertex 1.217292e+003 5.469173e+002 1.887720e+003
      endloop
   endfacet
   facet normal -7.083035e-001 3.878641e-001 5.898032e-001
      outer loop
         vertex 1.217292e+003 5.469173e+002 1.887720e+003
         vertex 1.216792e+003 5.473099e+002 1.886837e+003
         vertex 1.216792e+003 5.466674e+002 1.887287e+003
      endloop
   endfacet
   facet normal -7.083034e-001 3.168525e-001 6.308017e-001
      outer loop
         vertex 1.217292e+003 5.469173e+002 1.887720e+003
         vertex 1.216792e+003 5.466674e+002 1.887287e+003
         vertex 1.217292e+003 5.461274e+002 1.888088e+003
      endloop
   endfacet
   facet normal -7.083035e-001 2.795533e-001 6.481946e-001
      outer loop
         vertex 1.217292e+003 5.461274e+002 1.888088e+003
         vertex 1.216792e+003 5.466674e+002 1.887287e+003
         vertex 1.216792e+003 5.459564e+002 1.887619e+003
      endloop
   endfacet
   facet normal -7.083035e-001 2.025012e-001 6.762393e-001
      outer loop
         vertex 1.217292e+003 5.461274e+002 1.888088e+003
         vertex 1.216792e+003 5.459564e+002 1.887619e+003
         vertex 1.217292e+003 5.452856e+002 1.888314e+003
      endloop
   endfacet
   facet normal -7.083034e-001 1.627484e-001 6.868910e-001
      outer loop
         vertex 1.217292e+003 5.452856e+002 1.888314e+003
         vertex 1.216792e+003 5.459564e+002 1.887619e+003
         vertex 1.216792e+003 5.451987e+002 1.887822e+003
      endloop
   endfacet
   facet normal -7.083034e-001 8.199707e-002 7.011296e-001
      outer loop
         vertex 1.217292e+003 5.452856e+002 1.888314e+003
         vertex 1.216792e+003 5.451987e+002 1.887822e+003
         vertex 1.217292e+003 5.444173e+002 1.888390e+003
      endloop
   endfacet
   facet normal -7.083035e-001 4.099854e-002 7.047165e-001
      outer loop
         vertex 1.217292e+003 5.444173e+002 1.888390e+003
         vertex 1.216792e+003 5.451987e+002 1.887822e+003
         vertex 1.216792e+003 5.444173e+002 1.887890e+003
      endloop
   endfacet
   facet normal -7.083035e-001 -4.099854e-002 7.047165e-001
      outer loop
         vertex 1.217292e+003 5.444173e+002 1.888390e+003
         vertex 1.216792e+003 5.444173e+002 1.887890e+003
         vertex 1.217292e+003 5.435491e+002 1.888314e+003
      endloop
   endfacet
   facet normal -7.083034e-001 -8.199707e-002 7.011296e-001
      outer loop
         vertex 1.217292e+003 5.435491e+002 1.888314e+003
         vertex 1.216792e+003 5.444173e+002 1.887890e+003
         vertex 1.216792e+003 5.436359e+002 1.887822e+003
      endloop
   endfacet
   facet normal -7.083034e-001 -1.627484e-001 6.868910e-001
      outer loop
         vertex 1.217292e+003 5.435491e+002 1.888314e+003
         vertex 1.216792e+003 5.436359e+002 1.887822e+003
         vertex 1.217292e+003 5.427072e+002 1.888088e+003
      endloop
   endfacet
   facet normal -7.083035e-001 -2.025012e-001 6.762393e-001
      outer loop
         vertex 1.217292e+003 5.427072e+002 1.888088e+003
         vertex 1.216792e+003 5.436359e+002 1.887822e+003
         vertex 1.216792e+003 5.428783e+002 1.887619e+003
      endloop
   endfacet
   facet normal -7.083035e-001 -2.795533e-001 6.481946e-001
      outer loop
         vertex 1.217292e+003 5.427072e+002 1.888088e+003
         vertex 1.216792e+003 5.428783e+002 1.887619e+003
         vertex 1.217292e+003 5.419173e+002 1.887720e+003
      endloop
   endfacet
   facet normal -7.083034e-001 -3.168525e-001 6.308017e-001
      outer loop
         vertex 1.217292e+003 5.419173e+002 1.887720e+003
         vertex 1.216792e+003 5.428783e+002 1.887619e+003
         vertex 1.216792e+003 5.421673e+002 1.887287e+003
      endloop
   endfacet
   facet normal -7.083035e-001 -3.878641e-001 5.898032e-001
      outer loop
         vertex 1.217292e+003 5.419173e+002 1.887720e+003
         vertex 1.216792e+003 5.421673e+002 1.887287e+003
         vertex 1.217292e+003 5.412034e+002 1.887220e+003
      endloop
   endfacet
   facet normal -7.083035e-001 -4.215764e-001 5.661975e-001
      outer loop
         vertex 1.217292e+003 5.412034e+002 1.887220e+003
         vertex 1.216792e+003 5.421673e+002 1.887287e+003
         vertex 1.216792e+003 5.415248e+002 1.886837e+003
      endloop
   endfacet
   facet normal -7.083035e-001 -4.843898e-001 5.134908e-001
      outer loop
         vertex 1.217292e+003 5.412034e+002 1.887220e+003
         vertex 1.216792e+003 5.415248e+002 1.886837e+003
         vertex 1.217292e+003 5.405871e+002 1.886604e+003
      endloop
   endfacet
   facet normal -7.083035e-001 -5.134908e-001 4.843898e-001
      outer loop
         vertex 1.217292e+003 5.405871e+002 1.886604e+003
         vertex 1.216792e+003 5.415248e+002 1.886837e+003
         vertex 1.216792e+003 5.409702e+002 1.886282e+003
      endloop
   endfacet
   facet normal -7.083035e-001 -5.661975e-001 4.215764e-001
      outer loop
         vertex 1.217292e+003 5.405871e+002 1.886604e+003
         vertex 1.216792e+003 5.409702e+002 1.886282e+003
         vertex 1.217292e+003 5.400872e+002 1.885890e+003
      endloop
   endfacet
   facet normal -7.083035e-001 -5.898032e-001 3.878641e-001
      outer loop
         vertex 1.217292e+003 5.400872e+002 1.885890e+003
         vertex 1.216792e+003 5.409702e+002 1.886282e+003
         vertex 1.216792e+003 5.405202e+002 1.885640e+003
      endloop
   endfacet
   facet normal -7.083034e-001 -6.308017e-001 3.168525e-001
      outer loop
         vertex 1.217292e+003 5.400872e+002 1.885890e+003
         vertex 1.216792e+003 5.405202e+002 1.885640e+003
         vertex 1.217292e+003 5.397189e+002 1.885100e+003
      endloop
   endfacet
   facet normal -7.083035e-001 -6.481946e-001 2.795533e-001
      outer loop
         vertex 1.217292e+003 5.397189e+002 1.885100e+003
         vertex 1.216792e+003 5.405202e+002 1.885640e+003
         vertex 1.216792e+003 5.401887e+002 1.884929e+003
      endloop
   endfacet
   facet normal -7.083035e-001 -6.762393e-001 2.025012e-001
      outer loop
         vertex 1.217292e+003 5.397189e+002 1.885100e+003
         vertex 1.216792e+003 5.401887e+002 1.884929e+003
         vertex 1.217292e+003 5.394933e+002 1.884258e+003
      endloop
   endfacet
   facet normal -7.083034e-001 -6.868910e-001 1.627484e-001
      outer loop
         vertex 1.217292e+003 5.394933e+002 1.884258e+003
         vertex 1.216792e+003 5.401887e+002 1.884929e+003
         vertex 1.216792e+003 5.399857e+002 1.884171e+003
      endloop
   endfacet
   facet normal -7.083034e-001 -7.011296e-001 8.199707e-002
      outer loop
         vertex 1.217292e+003 5.394933e+002 1.884258e+003
         vertex 1.216792e+003 5.399857e+002 1.884171e+003
         vertex 1.217292e+003 5.394173e+002 1.883390e+003
      endloop
   endfacet
   facet normal -7.083035e-001 -7.047165e-001 4.099854e-002
      outer loop
         vertex 1.217292e+003 5.394173e+002 1.883390e+003
         vertex 1.216792e+003 5.399857e+002 1.884171e+003
         vertex 1.216792e+003 5.399174e+002 1.883390e+003
      endloop
   endfacet
   facet normal -7.083035e-001 -7.047165e-001 -4.099854e-002
      outer loop
         vertex 1.217292e+003 5.394173e+002 1.883390e+003
         vertex 1.216792e+003 5.399174e+002 1.883390e+003
         vertex 1.217292e+003 5.394933e+002 1.882522e+003
      endloop
   endfacet
   facet normal -7.083034e-001 -7.011296e-001 -8.199707e-002
      outer loop
         vertex 1.217292e+003 5.394933e+002 1.882522e+003
         vertex 1.216792e+003 5.399174e+002 1.883390e+003
         vertex 1.216792e+003 5.399857e+002 1.882609e+003
      endloop
   endfacet
   facet normal -7.083034e-001 -6.868910e-001 -1.627484e-001
      outer loop
         vertex 1.217292e+003 5.394933e+002 1.882522e+003
         vertex 1.216792e+003 5.399857e+002 1.882609e+003
         vertex 1.217292e+003 5.397189e+002 1.881680e+003
      endloop
   endfacet
   facet normal -7.083035e-001 -6.762393e-001 -2.025012e-001
      outer loop
         vertex 1.217292e+003 5.397189e+002 1.881680e+003
         vertex 1.216792e+003 5.399857e+002 1.882609e+003
         vertex 1.216792e+003 5.401887e+002 1.881851e+003
      endloop
   endfacet
   facet normal -7.083035e-001 -6.481946e-001 -2.795533e-001
      outer loop
         vertex 1.217292e+003 5.397189e+002 1.881680e+003
         vertex 1.216792e+003 5.401887e+002 1.881851e+003
         vertex 1.217292e+003 5.400872e+002 1.880890e+003
      endloop
   endfacet
   facet normal -7.083034e-001 -6.308017e-001 -3.168525e-001
      outer loop
         vertex 1.217292e+003 5.400872e+002 1.880890e+003
         vertex 1.216792e+003 5.401887e+002 1.881851e+003
         vertex 1.216792e+003 5.405202e+002 1.881140e+003
      endloop
   endfacet
   facet normal -7.083035e-001 -5.898032e-001 -3.878641e-001
      outer loop
         vertex 1.217292e+003 5.400872e+002 1.880890e+003
         vertex 1.216792e+003 5.405202e+002 1.881140e+003
         vertex 1.217292e+003 5.405871e+002 1.880176e+003
      endloop
   endfacet
   facet normal -7.083035e-001 -5.661975e-001 -4.215764e-001
      outer loop
         vertex 1.217292e+003 5.405871e+002 1.880176e+003
         vertex 1.216792e+003 5.405202e+002 1.881140e+003
         vertex 1.216792e+003 5.409702e+002 1.880497e+003
      endloop
   endfacet
   facet normal -7.083035e-001 -5.134908e-001 -4.843898e-001
      outer loop
         vertex 1.217292e+003 5.405871e+002 1.880176e+003
         vertex 1.216792e+003 5.409702e+002 1.880497e+003
         vertex 1.217292e+003 5.412034e+002 1.879560e+003
      endloop
   endfacet
   facet normal -7.083035e-001 -4.843898e-001 -5.134908e-001
      outer loop
         vertex 1.217292e+003 5.412034e+002 1.879560e+003
         vertex 1.216792e+003 5.409702e+002 1.880497e+003
         vertex 1.216792e+003 5.415248e+002 1.879943e+003
      endloop
   endfacet
   facet normal -7.083035e-001 -4.215764e-001 -5.661975e-001
      outer loop
         vertex 1.217292e+003 5.412034e+002 1.879560e+003
         vertex 1.216792e+003 5.415248e+002 1.879943e+003
         vertex 1.217292e+003 5.419173e+002 1.879060e+003
      endloop
   endfacet
   facet normal -7.083035e-001 -3.878641e-001 -5.898032e-001
      outer loop
         vertex 1.217292e+003 5.419173e+002 1.879060e+003
         vertex 1.216792e+003 5.415248e+002 1.879943e+003
         vertex 1.216792e+003 5.421673e+002 1.879493e+003
      endloop
   endfacet
   facet normal -7.083034e-001 -3.168525e-001 -6.308017e-001
      outer loop
         vertex 1.217292e+003 5.419173e+002 1.879060e+003
         vertex 1.216792e+003 5.421673e+002 1.879493e+003
         vertex 1.217292e+003 5.427072e+002 1.878691e+003
      endloop
   endfacet
   facet normal -7.083035e-001 -2.795533e-001 -6.481946e-001
      outer loop
         vertex 1.217292e+003 5.427072e+002 1.878691e+003
         vertex 1.216792e+003 5.421673e+002 1.879493e+003
         vertex 1.216792e+003 5.428783e+002 1.879161e+003
      endloop
   endfacet
   facet normal -7.083035e-001 -2.025012e-001 -6.762393e-001
      outer loop
         vertex 1.217292e+003 5.427072e+002 1.878691e+003
         vertex 1.216792e+003 5.428783e+002 1.879161e+003
         vertex 1.217292e+003 5.435491e+002 1.878466e+003
      endloop
   endfacet
   facet normal -7.083034e-001 -1.627484e-001 -6.868910e-001
      outer loop
         vertex 1.217292e+003 5.435491e+002 1.878466e+003
         vertex 1.216792e+003 5.428783e+002 1.879161e+003
         vertex 1.216792e+003 5.436359e+002 1.878958e+003
      endloop
   endfacet
   facet normal -7.083034e-001 -8.199707e-002 -7.011296e-001
      outer loop
         vertex 1.217292e+003 5.435491e+002 1.878466e+003
         vertex 1.216792e+003 5.436359e+002 1.878958e+003
         vertex 1.217292e+003 5.444173e+002 1.878390e+003
      endloop
   endfacet
   facet normal -7.083035e-001 -4.099854e-002 -7.047165e-001
      outer loop
         vertex 1.217292e+003 5.444173e+002 1.878390e+003
         vertex 1.216792e+003 5.436359e+002 1.878958e+003
         vertex 1.216792e+003 5.444173e+002 1.878890e+003
      endloop
   endfacet
   facet normal -7.083035e-001 4.099854e-002 -7.047165e-001
      outer loop
         vertex 1.217292e+003 5.444173e+002 1.878390e+003
         vertex 1.216792e+003 5.444173e+002 1.878890e+003
         vertex 1.217292e+003 5.452856e+002 1.878466e+003
      endloop
   endfacet
   facet normal -7.083034e-001 8.199707e-002 -7.011296e-001
      outer loop
         vertex 1.217292e+003 5.452856e+002 1.878466e+003
         vertex 1.216792e+003 5.444173e+002 1.878890e+003
         vertex 1.216792e+003 5.451987e+002 1.878958e+003
      endloop
   endfacet
   facet normal -7.083034e-001 1.627484e-001 -6.868910e-001
      outer loop
         vertex 1.217292e+003 5.452856e+002 1.878466e+003
         vertex 1.216792e+003 5.451987e+002 1.878958e+003
         vertex 1.217292e+003 5.461274e+002 1.878691e+003
      endloop
   endfacet
   facet normal -7.083035e-001 2.025012e-001 -6.762393e-001
      outer loop
         vertex 1.217292e+003 5.461274e+002 1.878691e+003
         vertex 1.216792e+003 5.451987e+002 1.878958e+003
         vertex 1.216792e+003 5.459564e+002 1.879161e+003
      endloop
   endfacet
   facet normal -7.083035e-001 2.795533e-001 -6.481946e-001
      outer loop
         vertex 1.217292e+003 5.461274e+002 1.878691e+003
         vertex 1.216792e+003 5.459564e+002 1.879161e+003
         vertex 1.217292e+003 5.469173e+002 1.879060e+003
      endloop
   endfacet
   facet normal -7.083034e-001 3.168525e-001 -6.308017e-001
      outer loop
         vertex 1.217292e+003 5.469173e+002 1.879060e+003
         vertex 1.216792e+003 5.459564e+002 1.879161e+003
         vertex 1.216792e+003 5.466674e+002 1.879493e+003
      endloop
   endfacet
   facet normal -7.083035e-001 3.878641e-001 -5.898032e-001
      outer loop
         vertex 1.217292e+003 5.469173e+002 1.879060e+003
         vertex 1.216792e+003 5.466674e+002 1.879493e+003
         vertex 1.217292e+003 5.476313e+002 1.879560e+003
      endloop
   endfacet
   facet normal -7.083035e-001 4.215764e-001 -5.661975e-001
      outer loop
         vertex 1.217292e+003 5.476313e+002 1.879560e+003
         vertex 1.216792e+003 5.466674e+002 1.879493e+003
         vertex 1.216792e+003 5.473099e+002 1.879943e+003
      endloop
   endfacet
   facet normal -7.083035e-001 4.843898e-001 -5.134908e-001
      outer loop
         vertex 1.217292e+003 5.476313e+002 1.879560e+003
         vertex 1.216792e+003 5.473099e+002 1.879943e+003
         vertex 1.217292e+003 5.482476e+002 1.880176e+003
      endloop
   endfacet
   facet normal -7.083035e-001 5.134908e-001 -4.843898e-001
      outer loop
         vertex 1.217292e+003 5.482476e+002 1.880176e+003
         vertex 1.216792e+003 5.473099e+002 1.879943e+003
         vertex 1.216792e+003 5.478646e+002 1.880497e+003
      endloop
   endfacet
   facet normal -7.083035e-001 5.661975e-001 -4.215764e-001
      outer loop
         vertex 1.217292e+003 5.482476e+002 1.880176e+003
         vertex 1.216792e+003 5.478646e+002 1.880497e+003
         vertex 1.217292e+003 5.487475e+002 1.880890e+003
      endloop
   endfacet
   facet normal -7.083035e-001 5.898032e-001 -3.878641e-001
      outer loop
         vertex 1.217292e+003 5.487475e+002 1.880890e+003
         vertex 1.216792e+003 5.478646e+002 1.880497e+003
         vertex 1.216792e+003 5.483145e+002 1.881140e+003
      endloop
   endfacet
   facet normal -7.083034e-001 6.308017e-001 -3.168525e-001
      outer loop
         vertex 1.217292e+003 5.487475e+002 1.880890e+003
         vertex 1.216792e+003 5.483145e+002 1.881140e+003
         vertex 1.217292e+003 5.491158e+002 1.881680e+003
      endloop
   endfacet
   facet normal -7.083035e-001 6.481946e-001 -2.795533e-001
      outer loop
         vertex 1.217292e+003 5.491158e+002 1.881680e+003
         vertex 1.216792e+003 5.483145e+002 1.881140e+003
         vertex 1.216792e+003 5.486460e+002 1.881851e+003
      endloop
   endfacet
   facet normal -7.083035e-001 6.762393e-001 -2.025012e-001
      outer loop
         vertex 1.217292e+003 5.491158e+002 1.881680e+003
         vertex 1.216792e+003 5.486460e+002 1.881851e+003
         vertex 1.217292e+003 5.493414e+002 1.882522e+003
      endloop
   endfacet
   facet normal -7.083034e-001 6.868910e-001 -1.627484e-001
      outer loop
         vertex 1.217292e+003 5.493414e+002 1.882522e+003
         vertex 1.216792e+003 5.486460e+002 1.881851e+003
         vertex 1.216792e+003 5.488490e+002 1.882609e+003
      endloop
   endfacet
   facet normal -7.083034e-001 7.011296e-001 -8.199707e-002
      outer loop
         vertex 1.217292e+003 5.493414e+002 1.882522e+003
         vertex 1.216792e+003 5.488490e+002 1.882609e+003
         vertex 1.217292e+003 5.494173e+002 1.883390e+003
      endloop
   endfacet
   facet normal -7.083035e-001 7.047165e-001 -4.099854e-002
      outer loop
         vertex 1.217292e+003 5.494173e+002 1.883390e+003
         vertex 1.216792e+003 5.488490e+002 1.882609e+003
         vertex 1.216792e+003 5.489174e+002 1.883390e+003
      endloop
   endfacet
   facet normal -7.083035e-001 7.047165e-001 4.099854e-002
      outer loop
         vertex 1.217292e+003 5.494173e+002 1.883390e+003
         vertex 1.216792e+003 5.489174e+002 1.883390e+003
         vertex 1.217292e+003 5.493414e+002 1.884258e+003
      endloop
   endfacet
   facet normal -7.083034e-001 7.011296e-001 8.199707e-002
      outer loop
         vertex 1.217292e+003 5.493414e+002 1.884258e+003
         vertex 1.216792e+003 5.489174e+002 1.883390e+003
         vertex 1.216792e+003 5.488490e+002 1.884171e+003
      endloop
   endfacet
   facet normal -1.000000e+000 -1.955331e-016 -3.222320e-016
      outer loop
         vertex 1.220792e+003 5.400872e+002 1.880890e+003
         vertex 1.220792e+003 5.487475e+002 1.880890e+003
         vertex 1.220792e+003 5.405871e+002 1.880176e+003
      endloop
   endfacet
   facet normal -1.000000e+000 -1.955331e-016 -3.222320e-016
      outer loop
         vertex 1.220792e+003 5.405871e+002 1.880176e+003
         vertex 1.220792e+003 5.487475e+002 1.880890e+003
         vertex 1.220792e+003 5.482476e+002 1.880176e+003
      endloop
   endfacet
   facet normal -1.000000e+000 -1.955331e-016 -3.222320e-016
      outer loop
         vertex 1.220792e+003 5.405871e+002 1.880176e+003
         vertex 1.220792e+003 5.482476e+002 1.880176e+003
         vertex 1.220792e+003 5.412034e+002 1.879560e+003
      endloop
   endfacet
   facet normal -1.000000e+000 -1.955331e-016 -3.222320e-016
      outer loop
         vertex 1.220792e+003 5.412034e+002 1.879560e+003
         vertex 1.220792e+003 5.482476e+002 1.880176e+003
         vertex 1.220792e+003 5.476313e+002 1.879560e+003
      endloop
   endfacet
   facet normal -1.000000e+000 -1.955331e-016 -3.222320e-016
      outer loop
         vertex 1.220792e+003 5.412034e+002 1.879560e+003
         vertex 1.220792e+003 5.476313e+002 1.879560e+003
         vertex 1.220792e+003 5.419173e+002 1.879060e+003
      endloop
   endfacet
   facet normal -1.000000e+000 -1.955331e-016 -3.222320e-016
      outer loop
         vertex 1.220792e+003 5.419173e+002 1.879060e+003
         vertex 1.220792e+003 5.476313e+002 1.879560e+003
         vertex 1.220792e+003 5.469173e+002 1.879060e+003
      endloop
   endfacet
   facet normal -1.000000e+000 -1.955331e-016 -3.222320e-016
      outer loop
         vertex 1.220792e+003 5.419173e+002 1.879060e+003
         vertex 1.220792e+003 5.469173e+002 1.879060e+003
         vertex 1.220792e+003 5.427072e+002 1.878691e+003
      endloop
   endfacet
   facet normal -1.000000e+000 -1.955331e-016 -3.222320e-016
      outer loop
         vertex 1.220792e+003 5.427072e+002 1.878691e+003
         vertex 1.220792e+003 5.469173e+002 1.879060e+003
         vertex 1.220792e+003 5.461274e+002 1.878691e+003
      endloop
   endfacet
   facet normal -1.000000e+000 -1.955331e-016 -3.222320e-016
      outer loop
         vertex 1.220792e+003 5.427072e+002 1.878691e+003
         vertex 1.220792e+003 5.461274e+002 1.878691e+003
         vertex 1.220792e+003 5.435491e+002 1.878466e+003
      endloop
   endfacet
   facet normal -1.000000e+000 -1.955331e-016 -3.222320e-016
      outer loop
         vertex 1.220792e+003 5.435491e+002 1.878466e+003
         vertex 1.220792e+003 5.461274e+002 1.878691e+003
         vertex 1.220792e+003 5.452856e+002 1.878466e+003
      endloop
   endfacet
   facet normal -1.000000e+000 -1.955331e-016 -3.222320e-016
      outer loop
         vertex 1.220792e+003 5.435491e+002 1.878466e+003
         vertex 1.220792e+003 5.452856e+002 1.878466e+003
         vertex 1.220792e+003 5.444173e+002 1.878390e+003
      endloop
   endfacet
   facet normal 1.000000e+000 1.955331e-016 3.222320e-016
      outer loop
         vertex 1.217792e+003 5.487475e+002 1.880890e+003
         vertex 1.217792e+003 5.400872e+002 1.880890e+003
         vertex 1.217792e+003 5.405871e+002 1.880176e+003
      endloop
   endfacet
   facet normal 1.000000e+000 1.955331e-016 3.222320e-016
      outer loop
         vertex 1.217792e+003 5.482476e+002 1.880176e+003
         vertex 1.217792e+003 5.487475e+002 1.880890e+003
         vertex 1.217792e+003 5.476313e+002 1.879560e+003
      endloop
   endfacet
   facet normal 1.000000e+000 1.955331e-016 3.222320e-016
      outer loop
         vertex 1.217792e+003 5.476313e+002 1.879560e+003
         vertex 1.217792e+003 5.487475e+002 1.880890e+003
         vertex 1.217792e+003 5.405871e+002 1.880176e+003
      endloop
   endfacet
   facet normal 1.000000e+000 1.955331e-016 3.222320e-016
      outer loop
         vertex 1.217792e+003 5.476313e+002 1.879560e+003
         vertex 1.217792e+003 5.405871e+002 1.880176e+003
         vertex 1.217792e+003 5.469173e+002 1.879060e+003
      endloop
   endfacet
   facet normal 1.000000e+000 1.955331e-016 3.222320e-016
      outer loop
         vertex 1.217792e+003 5.412034e+002 1.879560e+003
         vertex 1.217792e+003 5.419173e+002 1.879060e+003
         vertex 1.217792e+003 5.405871e+002 1.880176e+003
      endloop
   endfacet
   facet normal 1.000000e+000 1.955331e-016 3.222320e-016
      outer loop
         vertex 1.217792e+003 5.405871e+002 1.880176e+003
         vertex 1.217792e+003 5.419173e+002 1.879060e+003
         vertex 1.217792e+003 5.427072e+002 1.878691e+003
      endloop
   endfacet
   facet normal 1.000000e+000 1.955331e-016 3.222320e-016
      outer loop
         vertex 1.217792e+003 5.461274e+002 1.878691e+003
         vertex 1.217792e+003 5.469173e+002 1.879060e+003
         vertex 1.217792e+003 5.452856e+002 1.878466e+003
      endloop
   endfacet
   facet normal 1.000000e+000 1.955331e-016 3.222320e-016
      outer loop
         vertex 1.217792e+003 5.452856e+002 1.878466e+003
         vertex 1.217792e+003 5.469173e+002 1.879060e+003
         vertex 1.217792e+003 5.405871e+002 1.880176e+003
      endloop
   endfacet
   facet normal 1.000000e+000 1.955331e-016 3.222320e-016
      outer loop
         vertex 1.217792e+003 5.452856e+002 1.878466e+003
         vertex 1.217792e+003 5.405871e+002 1.880176e+003
         vertex 1.217792e+003 5.444173e+002 1.878390e+003
      endloop
   endfacet
   facet normal 1.000000e+000 1.955331e-016 3.222320e-016
      outer loop
         vertex 1.217792e+003 5.444173e+002 1.878390e+003
         vertex 1.217792e+003 5.405871e+002 1.880176e+003
         vertex 1.217792e+003 5.427072e+002 1.878691e+003
      endloop
   endfacet
   facet normal 1.000000e+000 1.955331e-016 3.222320e-016
      outer loop
         vertex 1.217792e+003 5.444173e+002 1.878390e+003
         vertex 1.217792e+003 5.427072e+002 1.878691e+003
         vertex 1.217792e+003 5.435491e+002 1.878466e+003
      endloop
   endfacet
   facet normal 3.222320e-016 -6.454858e-017 -1.000000e+000
      outer loop
         vertex 1.217792e+003 5.400872e+002 1.880890e+003
         vertex 1.217792e+003 5.487475e+002 1.880890e+003
         vertex 1.220792e+003 5.400872e+002 1.880890e+003
      endloop
   endfacet
   facet normal 3.222320e-016 -6.454858e-017 -1.000000e+000
      outer loop
         vertex 1.220792e+003 5.400872e+002 1.880890e+003
         vertex 1.217792e+003 5.487475e+002 1.880890e+003
         vertex 1.220792e+003 5.487475e+002 1.880890e+003
      endloop
   endfacet
endsolid