solid 09.025.00.00.000 - 09.025.00.08.000-1 09.025.00.08.004-1
   facet normal -5.290605e-017 8.936031e-001 -4.488580e-001
      outer loop
         vertex 1.050292e+003 5.491158e+002 1.881680e+003
         vertex 1.049792e+003 5.487475e+002 1.880890e+003
         vertex 1.046792e+003 5.487475e+002 1.880890e+003
      endloop
   endfacet
   facet normal -5.290605e-017 8.936031e-001 -4.488580e-001
      outer loop
         vertex 1.050292e+003 5.491158e+002 1.881680e+003
         vertex 1.050292e+003 5.487475e+002 1.880890e+003
         vertex 1.049792e+003 5.487475e+002 1.880890e+003
      endloop
   endfacet
   facet normal -4.862919e-017 8.355240e-001 -5.494540e-001
      outer loop
         vertex 1.049792e+003 5.487475e+002 1.880890e+003
         vertex 1.050292e+003 5.487475e+002 1.880890e+003
         vertex 1.050292e+003 5.482476e+002 1.880176e+003
      endloop
   endfacet
   facet normal -4.623235e-017 8.020839e-001 -5.972114e-001
      outer loop
         vertex 1.049792e+003 5.487475e+002 1.880890e+003
         vertex 1.050292e+003 5.482476e+002 1.880176e+003
         vertex 1.049792e+003 5.482476e+002 1.880176e+003
      endloop
   endfacet
   facet normal -4.099471e-017 7.274188e-001 -6.861938e-001
      outer loop
         vertex 1.049792e+003 5.482476e+002 1.880176e+003
         vertex 1.050292e+003 5.482476e+002 1.880176e+003
         vertex 1.050292e+003 5.476313e+002 1.879560e+003
      endloop
   endfacet
   facet normal -3.815390e-017 6.861938e-001 -7.274188e-001
      outer loop
         vertex 1.049792e+003 5.482476e+002 1.880176e+003
         vertex 1.050292e+003 5.476313e+002 1.879560e+003
         vertex 1.049792e+003 5.476313e+002 1.879560e+003
      endloop
   endfacet
   facet normal -3.211463e-017 5.972114e-001 -8.020839e-001
      outer loop
         vertex 1.049792e+003 5.476313e+002 1.879560e+003
         vertex 1.050292e+003 5.476313e+002 1.879560e+003
         vertex 1.050292e+003 5.469173e+002 1.879060e+003
      endloop
   endfacet
   facet normal -2.891617e-017 5.494540e-001 -8.355240e-001
      outer loop
         vertex 1.049792e+003 5.476313e+002 1.879560e+003
         vertex 1.050292e+003 5.469173e+002 1.879060e+003
         vertex 1.049792e+003 5.469173e+002 1.879060e+003
      endloop
   endfacet
   facet normal -2.225877e-017 4.488580e-001 -8.936031e-001
      outer loop
         vertex 1.049792e+003 5.469173e+002 1.879060e+003
         vertex 1.050292e+003 5.469173e+002 1.879060e+003
         vertex 1.050292e+003 5.461274e+002 1.878691e+003
      endloop
   endfacet
   facet normal -1.879983e-017 3.960194e-001 -9.182422e-001
      outer loop
         vertex 1.049792e+003 5.469173e+002 1.879060e+003
         vertex 1.050292e+003 5.461274e+002 1.878691e+003
         vertex 1.049792e+003 5.461274e+002 1.878691e+003
      endloop
   endfacet
   facet normal -1.172658e-017 2.868663e-001 -9.579706e-001
      outer loop
         vertex 1.049792e+003 5.461274e+002 1.878691e+003
         vertex 1.050292e+003 5.461274e+002 1.878691e+003
         vertex 1.050292e+003 5.452856e+002 1.878466e+003
      endloop
   endfacet
   facet normal -8.112267e-018 2.305518e-001 -9.730601e-001
      outer loop
         vertex 1.049792e+003 5.461274e+002 1.878691e+003
         vertex 1.050292e+003 5.452856e+002 1.878466e+003
         vertex 1.049792e+003 5.452856e+002 1.878466e+003
      endloop
   endfacet
   facet normal -8.380871e-019 1.161583e-001 -9.932307e-001
      outer loop
         vertex 1.049792e+003 5.452856e+002 1.878466e+003
         vertex 1.050292e+003 5.452856e+002 1.878466e+003
         vertex 1.050292e+003 5.444173e+002 1.878390e+003
      endloop
   endfacet
   facet normal 2.821781e-018 5.807914e-002 -9.983120e-001
      outer loop
         vertex 1.049792e+003 5.452856e+002 1.878466e+003
         vertex 1.050292e+003 5.444173e+002 1.878390e+003
         vertex 1.049792e+003 5.444173e+002 1.878390e+003
      endloop
   endfacet
   facet normal 1.007587e-017 -5.807914e-002 -9.983120e-001
      outer loop
         vertex 1.049792e+003 5.444173e+002 1.878390e+003
         vertex 1.050292e+003 5.444173e+002 1.878390e+003
         vertex 1.050292e+003 5.435491e+002 1.878466e+003
      endloop
   endfacet
   facet normal 1.367009e-017 -1.161583e-001 -9.932307e-001
      outer loop
         vertex 1.049792e+003 5.444173e+002 1.878390e+003
         vertex 1.050292e+003 5.435491e+002 1.878466e+003
         vertex 1.049792e+003 5.435491e+002 1.878466e+003
      endloop
   endfacet
   facet normal 2.068368e-017 -2.305518e-001 -9.730601e-001
      outer loop
         vertex 1.049792e+003 5.435491e+002 1.878466e+003
         vertex 1.050292e+003 5.435491e+002 1.878466e+003
         vertex 1.050292e+003 5.427072e+002 1.878691e+003
      endloop
   endfacet
   facet normal 2.410304e-017 -2.868663e-001 -9.579706e-001
      outer loop
         vertex 1.049792e+003 5.435491e+002 1.878466e+003
         vertex 1.050292e+003 5.427072e+002 1.878691e+003
         vertex 1.049792e+003 5.427072e+002 1.878691e+003
      endloop
   endfacet
   facet normal 3.066302e-017 -3.960194e-001 -9.182422e-001
      outer loop
         vertex 1.049792e+003 5.427072e+002 1.878691e+003
         vertex 1.050292e+003 5.427072e+002 1.878691e+003
         vertex 1.050292e+003 5.419173e+002 1.879060e+003
      endloop
   endfacet
   facet normal 3.380364e-017 -4.488580e-001 -8.936031e-001
      outer loop
         vertex 1.049792e+003 5.427072e+002 1.878691e+003
         vertex 1.050292e+003 5.419173e+002 1.879060e+003
         vertex 1.049792e+003 5.419173e+002 1.879060e+003
      endloop
   endfacet
   facet normal 3.971068e-017 -5.494540e-001 -8.355240e-001
      outer loop
         vertex 1.049792e+003 5.419173e+002 1.879060e+003
         vertex 1.050292e+003 5.419173e+002 1.879060e+003
         vertex 1.050292e+003 5.412034e+002 1.879560e+003
      endloop
   endfacet
   facet normal 4.247712e-017 -5.972114e-001 -8.020839e-001
      outer loop
         vertex 1.049792e+003 5.419173e+002 1.879060e+003
         vertex 1.050292e+003 5.412034e+002 1.879560e+003
         vertex 1.049792e+003 5.412034e+002 1.879560e+003
      endloop
   endfacet
   facet normal 4.755176e-017 -6.861938e-001 -7.274188e-001
      outer loop
         vertex 1.049792e+003 5.412034e+002 1.879560e+003
         vertex 1.050292e+003 5.412034e+002 1.879560e+003
         vertex 1.050292e+003 5.405871e+002 1.880176e+003
      endloop
   endfacet
   facet normal 4.985996e-017 -7.274188e-001 -6.861938e-001
      outer loop
         vertex 1.049792e+003 5.412034e+002 1.879560e+003
         vertex 1.050292e+003 5.405871e+002 1.880176e+003
         vertex 1.049792e+003 5.405871e+002 1.880176e+003
      endloop
   endfacet
   facet normal 5.394800e-017 -8.020839e-001 -5.972114e-001
      outer loop
         vertex 1.049792e+003 5.405871e+002 1.880176e+003
         vertex 1.050292e+003 5.405871e+002 1.880176e+003
         vertex 1.050292e+003 5.400872e+002 1.880890e+003
      endloop
   endfacet
   facet normal 5.572783e-017 -8.355240e-001 -5.494540e-001
      outer loop
         vertex 1.049792e+003 5.405871e+002 1.880176e+003
         vertex 1.050292e+003 5.400872e+002 1.880890e+003
         vertex 1.049792e+003 5.400872e+002 1.880890e+003
      endloop
   endfacet
   facet normal 5.870505e-017 -8.936031e-001 -4.488580e-001
      outer loop
         vertex 1.049792e+003 5.400872e+002 1.880890e+003
         vertex 1.050292e+003 5.400872e+002 1.880890e+003
         vertex 1.050292e+003 5.397189e+002 1.881680e+003
      endloop
   endfacet
   facet normal 5.870505e-017 -8.936031e-001 -4.488580e-001
      outer loop
         vertex 1.049792e+003 5.400872e+002 1.880890e+003
         vertex 1.050292e+003 5.397189e+002 1.881680e+003
         vertex 1.046792e+003 5.400872e+002 1.880890e+003
      endloop
   endfacet
   facet normal -6.271981e-017 9.983120e-001 5.807914e-002
      outer loop
         vertex 1.013292e+003 5.493414e+002 1.884258e+003
         vertex 1.050292e+003 5.494173e+002 1.883390e+003
         vertex 1.013292e+003 5.494173e+002 1.883390e+003
      endloop
   endfacet
   facet normal -6.196945e-017 9.983120e-001 -5.807914e-002
      outer loop
         vertex 1.013292e+003 5.494173e+002 1.883390e+003
         vertex 1.050292e+003 5.494173e+002 1.883390e+003
         vertex 1.050292e+003 5.493414e+002 1.882522e+003
      endloop
   endfacet
   facet normal -6.127695e-017 9.932307e-001 -1.161583e-001
      outer loop
         vertex 1.013292e+003 5.494173e+002 1.883390e+003
         vertex 1.050292e+003 5.493414e+002 1.882522e+003
         vertex 1.013292e+003 5.493414e+002 1.882522e+003
      endloop
   endfacet
   facet normal -5.927834e-017 9.730601e-001 -2.305518e-001
      outer loop
         vertex 1.013292e+003 5.493414e+002 1.882522e+003
         vertex 1.050292e+003 5.493414e+002 1.882522e+003
         vertex 1.050292e+003 5.491158e+002 1.881680e+003
      endloop
   endfacet
   facet normal -5.797223e-017 9.579706e-001 -2.868663e-001
      outer loop
         vertex 1.013292e+003 5.493414e+002 1.882522e+003
         vertex 1.050292e+003 5.491158e+002 1.881680e+003
         vertex 1.013292e+003 5.491158e+002 1.881680e+003
      endloop
   endfacet
   facet normal -5.478608e-017 9.182422e-001 -3.960194e-001
      outer loop
         vertex 1.013292e+003 5.491158e+002 1.881680e+003
         vertex 1.050292e+003 5.491158e+002 1.881680e+003
         vertex 1.046792e+003 5.487475e+002 1.880890e+003
      endloop
   endfacet
   facet normal -5.290605e-017 8.936031e-001 -4.488580e-001
      outer loop
         vertex 1.013292e+003 5.491158e+002 1.881680e+003
         vertex 1.046792e+003 5.487475e+002 1.880890e+003
         vertex 1.013292e+003 5.487475e+002 1.880890e+003
      endloop
   endfacet
   facet normal -4.862919e-017 8.355240e-001 -5.494540e-001
      outer loop
         vertex 1.013292e+003 5.487475e+002 1.880890e+003
         vertex 1.046792e+003 5.487475e+002 1.880890e+003
         vertex 1.046792e+003 5.482476e+002 1.880176e+003
      endloop
   endfacet
   facet normal -4.623235e-017 8.020839e-001 -5.972114e-001
      outer loop
         vertex 1.013292e+003 5.487475e+002 1.880890e+003
         vertex 1.046792e+003 5.482476e+002 1.880176e+003
         vertex 1.013292e+003 5.482476e+002 1.880176e+003
      endloop
   endfacet
   facet normal -4.099471e-017 7.274188e-001 -6.861938e-001
      outer loop
         vertex 1.013292e+003 5.482476e+002 1.880176e+003
         vertex 1.046792e+003 5.482476e+002 1.880176e+003
         vertex 1.046792e+003 5.476313e+002 1.879560e+003
      endloop
   endfacet
   facet normal -3.815390e-017 6.861938e-001 -7.274188e-001
      outer loop
         vertex 1.013292e+003 5.482476e+002 1.880176e+003
         vertex 1.046792e+003 5.476313e+002 1.879560e+003
         vertex 1.013292e+003 5.476313e+002 1.879560e+003
      endloop
   endfacet
   facet normal -3.211463e-017 5.972114e-001 -8.020839e-001
      outer loop
         vertex 1.013292e+003 5.476313e+002 1.879560e+003
         vertex 1.046792e+003 5.476313e+002 1.879560e+003
         vertex 1.046792e+003 5.469173e+002 1.879060e+003
      endloop
   endfacet
   facet normal -2.891617e-017 5.494540e-001 -8.355240e-001
      outer loop
         vertex 1.013292e+003 5.476313e+002 1.879560e+003
         vertex 1.046792e+003 5.469173e+002 1.879060e+003
         vertex 1.013292e+003 5.469173e+002 1.879060e+003
      endloop
   endfacet
   facet normal -2.225877e-017 4.488580e-001 -8.936031e-001
      outer loop
         vertex 1.013292e+003 5.469173e+002 1.879060e+003
         vertex 1.046792e+003 5.469173e+002 1.879060e+003
         vertex 1.046792e+003 5.461274e+002 1.878691e+003
      endloop
   endfacet
   facet normal -1.879983e-017 3.960194e-001 -9.182422e-001
      outer loop
         vertex 1.013292e+003 5.469173e+002 1.879060e+003
         vertex 1.046792e+003 5.461274e+002 1.878691e+003
         vertex 1.013292e+003 5.461274e+002 1.878691e+003
      endloop
   endfacet
   facet normal -1.172658e-017 2.868663e-001 -9.579706e-001
      outer loop
         vertex 1.013292e+003 5.461274e+002 1.878691e+003
         vertex 1.046792e+003 5.461274e+002 1.878691e+003
         vertex 1.046792e+003 5.452856e+002 1.878466e+003
      endloop
   endfacet
   facet normal -8.112267e-018 2.305518e-001 -9.730601e-001
      outer loop
         vertex 1.013292e+003 5.461274e+002 1.878691e+003
         vertex 1.046792e+003 5.452856e+002 1.878466e+003
         vertex 1.013292e+003 5.452856e+002 1.878466e+003
      endloop
   endfacet
   facet normal -8.380871e-019 1.161583e-001 -9.932307e-001
      outer loop
         vertex 1.013292e+003 5.452856e+002 1.878466e+003
         vertex 1.046792e+003 5.452856e+002 1.878466e+003
         vertex 1.046792e+003 5.444173e+002 1.878390e+003
      endloop
   endfacet
   facet normal 2.821781e-018 5.807914e-002 -9.983120e-001
      outer loop
         vertex 1.013292e+003 5.452856e+002 1.878466e+003
         vertex 1.046792e+003 5.444173e+002 1.878390e+003
         vertex 1.013292e+003 5.444173e+002 1.878390e+003
      endloop
   endfacet
   facet normal 1.007587e-017 -5.807914e-002 -9.983120e-001
      outer loop
         vertex 1.013292e+003 5.444173e+002 1.878390e+003
         vertex 1.046792e+003 5.444173e+002 1.878390e+003
         vertex 1.046792e+003 5.435491e+002 1.878466e+003
      endloop
   endfacet
   facet normal 1.367009e-017 -1.161583e-001 -9.932307e-001
      outer loop
         vertex 1.013292e+003 5.444173e+002 1.878390e+003
         vertex 1.046792e+003 5.435491e+002 1.878466e+003
         vertex 1.013292e+003 5.435491e+002 1.878466e+003
      endloop
   endfacet
   facet normal 2.068368e-017 -2.305518e-001 -9.730601e-001
      outer loop
         vertex 1.013292e+003 5.435491e+002 1.878466e+003
         vertex 1.046792e+003 5.435491e+002 1.878466e+003
         vertex 1.046792e+003 5.427072e+002 1.878691e+003
      endloop
   endfacet
   facet normal 2.410304e-017 -2.868663e-001 -9.579706e-001
      outer loop
         vertex 1.013292e+003 5.435491e+002 1.878466e+003
         vertex 1.046792e+003 5.427072e+002 1.878691e+003
         vertex 1.013292e+003 5.427072e+002 1.878691e+003
      endloop
   endfacet
   facet normal 3.066302e-017 -3.960194e-001 -9.182422e-001
      outer loop
         vertex 1.013292e+003 5.427072e+002 1.878691e+003
         vertex 1.046792e+003 5.427072e+002 1.878691e+003
         vertex 1.046792e+003 5.419173e+002 1.879060e+003
      endloop
   endfacet
   facet normal 3.380364e-017 -4.488580e-001 -8.936031e-001
      outer loop
         vertex 1.013292e+003 5.427072e+002 1.878691e+003
         vertex 1.046792e+003 5.419173e+002 1.879060e+003
         vertex 1.013292e+003 5.419173e+002 1.879060e+003
      endloop
   endfacet
   facet normal 3.971068e-017 -5.494540e-001 -8.355240e-001
      outer loop
         vertex 1.013292e+003 5.419173e+002 1.879060e+003
         vertex 1.046792e+003 5.419173e+002 1.879060e+003
         vertex 1.046792e+003 5.412034e+002 1.879560e+003
      endloop
   endfacet
   facet normal 4.247712e-017 -5.972114e-001 -8.020839e-001
      outer loop
         vertex 1.013292e+003 5.419173e+002 1.879060e+003
         vertex 1.046792e+003 5.412034e+002 1.879560e+003
         vertex 1.013292e+003 5.412034e+002 1.879560e+003
      endloop
   endfacet
   facet normal 4.755176e-017 -6.861938e-001 -7.274188e-001
      outer loop
         vertex 1.013292e+003 5.412034e+002 1.879560e+003
         vertex 1.046792e+003 5.412034e+002 1.879560e+003
         vertex 1.046792e+003 5.405871e+002 1.880176e+003
      endloop
   endfacet
   facet normal 4.985996e-017 -7.274188e-001 -6.861938e-001
      outer loop
         vertex 1.013292e+003 5.412034e+002 1.879560e+003
         vertex 1.046792e+003 5.405871e+002 1.880176e+003
         vertex 1.013292e+003 5.405871e+002 1.880176e+003
      endloop
   endfacet
   facet normal 5.394800e-017 -8.020839e-001 -5.972114e-001
      outer loop
         vertex 1.013292e+003 5.405871e+002 1.880176e+003
         vertex 1.046792e+003 5.405871e+002 1.880176e+003
         vertex 1.046792e+003 5.400872e+002 1.880890e+003
      endloop
   endfacet
   facet normal 5.572783e-017 -8.355240e-001 -5.494540e-001
      outer loop
         vertex 1.013292e+003 5.405871e+002 1.880176e+003
         vertex 1.046792e+003 5.400872e+002 1.880890e+003
         vertex 1.013292e+003 5.400872e+002 1.880890e+003
      endloop
   endfacet
   facet normal 5.870505e-017 -8.936031e-001 -4.488580e-001
      outer loop
         vertex 1.013292e+003 5.400872e+002 1.880890e+003
         vertex 1.046792e+003 5.400872e+002 1.880890e+003
         vertex 1.050292e+003 5.397189e+002 1.881680e+003
      endloop
   endfacet
   facet normal 5.990244e-017 -9.182422e-001 -3.960194e-001
      outer loop
         vertex 1.013292e+003 5.400872e+002 1.880890e+003
         vertex 1.050292e+003 5.397189e+002 1.881680e+003
         vertex 1.013292e+003 5.397189e+002 1.881680e+003
      endloop
   endfacet
   facet normal 6.167839e-017 -9.579706e-001 -2.868663e-001
      outer loop
         vertex 1.013292e+003 5.397189e+002 1.881680e+003
         vertex 1.050292e+003 5.397189e+002 1.881680e+003
         vertex 1.050292e+003 5.394933e+002 1.882522e+003
      endloop
   endfacet
   facet normal 6.225695e-017 -9.730601e-001 -2.305518e-001
      outer loop
         vertex 1.013292e+003 5.397189e+002 1.881680e+003
         vertex 1.050292e+003 5.394933e+002 1.882522e+003
         vertex 1.013292e+003 5.394933e+002 1.882522e+003
      endloop
   endfacet
   facet normal 6.277765e-017 -9.932307e-001 -1.161583e-001
      outer loop
         vertex 1.013292e+003 5.394933e+002 1.882522e+003
         vertex 1.050292e+003 5.394933e+002 1.882522e+003
         vertex 1.050292e+003 5.394173e+002 1.883390e+003
      endloop
   endfacet
   facet normal 6.271981e-017 -9.983120e-001 -5.807914e-002
      outer loop
         vertex 1.013292e+003 5.394933e+002 1.882522e+003
         vertex 1.050292e+003 5.394173e+002 1.883390e+003
         vertex 1.013292e+003 5.394173e+002 1.883390e+003
      endloop
   endfacet
   facet normal 6.196945e-017 -9.983120e-001 5.807914e-002
      outer loop
         vertex 1.013292e+003 5.394173e+002 1.883390e+003
         vertex 1.050292e+003 5.394173e+002 1.883390e+003
         vertex 1.050292e+003 5.394933e+002 1.884258e+003
      endloop
   endfacet
   facet normal 6.127695e-017 -9.932307e-001 1.161583e-001
      outer loop
         vertex 1.013292e+003 5.394173e+002 1.883390e+003
         vertex 1.050292e+003 5.394933e+002 1.884258e+003
         vertex 1.013292e+003 5.394933e+002 1.884258e+003
      endloop
   endfacet
   facet normal 5.927834e-017 -9.730601e-001 2.305518e-001
      outer loop
         vertex 1.013292e+003 5.394933e+002 1.884258e+003
         vertex 1.050292e+003 5.394933e+002 1.884258e+003
         vertex 1.050292e+003 5.397189e+002 1.885100e+003
      endloop
   endfacet
   facet normal 5.797223e-017 -9.579706e-001 2.868663e-001
      outer loop
         vertex 1.013292e+003 5.394933e+002 1.884258e+003
         vertex 1.050292e+003 5.397189e+002 1.885100e+003
         vertex 1.013292e+003 5.397189e+002 1.885100e+003
      endloop
   endfacet
   facet normal 5.478608e-017 -9.182422e-001 3.960194e-001
      outer loop
         vertex 1.013292e+003 5.397189e+002 1.885100e+003
         vertex 1.050292e+003 5.397189e+002 1.885100e+003
         vertex 1.050292e+003 5.400872e+002 1.885890e+003
      endloop
   endfacet
   facet normal 5.290605e-017 -8.936031e-001 4.488580e-001
      outer loop
         vertex 1.013292e+003 5.397189e+002 1.885100e+003
         vertex 1.050292e+003 5.400872e+002 1.885890e+003
         vertex 1.013292e+003 5.400872e+002 1.885890e+003
      endloop
   endfacet
   facet normal 4.862919e-017 -8.355240e-001 5.494540e-001
      outer loop
         vertex 1.013292e+003 5.400872e+002 1.885890e+003
         vertex 1.050292e+003 5.400872e+002 1.885890e+003
         vertex 1.050292e+003 5.405871e+002 1.886604e+003
      endloop
   endfacet
   facet normal 4.623235e-017 -8.020839e-001 5.972114e-001
      outer loop
         vertex 1.013292e+003 5.400872e+002 1.885890e+003
         vertex 1.050292e+003 5.405871e+002 1.886604e+003
         vertex 1.013292e+003 5.405871e+002 1.886604e+003
      endloop
   endfacet
   facet normal 4.099471e-017 -7.274188e-001 6.861938e-001
      outer loop
         vertex 1.013292e+003 5.405871e+002 1.886604e+003
         vertex 1.050292e+003 5.405871e+002 1.886604e+003
         vertex 1.050292e+003 5.412034e+002 1.887220e+003
      endloop
   endfacet
   facet normal 3.815390e-017 -6.861938e-001 7.274188e-001
      outer loop
         vertex 1.013292e+003 5.405871e+002 1.886604e+003
         vertex 1.050292e+003 5.412034e+002 1.887220e+003
         vertex 1.013292e+003 5.412034e+002 1.887220e+003
      endloop
   endfacet
   facet normal 3.211463e-017 -5.972114e-001 8.020839e-001
      outer loop
         vertex 1.013292e+003 5.412034e+002 1.887220e+003
         vertex 1.050292e+003 5.412034e+002 1.887220e+003
         vertex 1.050292e+003 5.419173e+002 1.887720e+003
      endloop
   endfacet
   facet normal 2.891617e-017 -5.494540e-001 8.355240e-001
      outer loop
         vertex 1.013292e+003 5.412034e+002 1.887220e+003
         vertex 1.050292e+003 5.419173e+002 1.887720e+003
         vertex 1.013292e+003 5.419173e+002 1.887720e+003
      endloop
   endfacet
   facet normal 2.225877e-017 -4.488580e-001 8.936031e-001
      outer loop
         vertex 1.013292e+003 5.419173e+002 1.887720e+003
         vertex 1.050292e+003 5.419173e+002 1.887720e+003
         vertex 1.050292e+003 5.427072e+002 1.888088e+003
      endloop
   endfacet
   facet normal 1.879983e-017 -3.960194e-001 9.182422e-001
      outer loop
         vertex 1.013292e+003 5.419173e+002 1.887720e+003
         vertex 1.050292e+003 5.427072e+002 1.888088e+003
         vertex 1.013292e+003 5.427072e+002 1.888088e+003
      endloop
   endfacet
   facet normal 1.172658e-017 -2.868663e-001 9.579706e-001
      outer loop
         vertex 1.013292e+003 5.427072e+002 1.888088e+003
         vertex 1.050292e+003 5.427072e+002 1.888088e+003
         vertex 1.050292e+003 5.435491e+002 1.888314e+003
      endloop
   endfacet
   facet normal 8.112267e-018 -2.305518e-001 9.730601e-001
      outer loop
         vertex 1.013292e+003 5.427072e+002 1.888088e+003
         vertex 1.050292e+003 5.435491e+002 1.888314e+003
         vertex 1.013292e+003 5.435491e+002 1.888314e+003
      endloop
   endfacet
   facet normal 8.380871e-019 -1.161583e-001 9.932307e-001
      outer loop
         vertex 1.013292e+003 5.435491e+002 1.888314e+003
         vertex 1.050292e+003 5.435491e+002 1.888314e+003
         vertex 1.050292e+003 5.444173e+002 1.888390e+003
      endloop
   endfacet
   facet normal -2.821781e-018 -5.807914e-002 9.983120e-001
      outer loop
         vertex 1.013292e+003 5.435491e+002 1.888314e+003
         vertex 1.050292e+003 5.444173e+002 1.888390e+003
         vertex 1.013292e+003 5.444173e+002 1.888390e+003
      endloop
   endfacet
   facet normal -1.007587e-017 5.807914e-002 9.983120e-001
      outer loop
         vertex 1.013292e+003 5.444173e+002 1.888390e+003
         vertex 1.050292e+003 5.444173e+002 1.888390e+003
         vertex 1.050292e+003 5.452856e+002 1.888314e+003
      endloop
   endfacet
   facet normal -1.367009e-017 1.161583e-001 9.932307e-001
      outer loop
         vertex 1.013292e+003 5.444173e+002 1.888390e+003
         vertex 1.050292e+003 5.452856e+002 1.888314e+003
         vertex 1.013292e+003 5.452856e+002 1.888314e+003
      endloop
   endfacet
   facet normal -2.068368e-017 2.305518e-001 9.730601e-001
      outer loop
         vertex 1.013292e+003 5.452856e+002 1.888314e+003
         vertex 1.050292e+003 5.452856e+002 1.888314e+003
         vertex 1.050292e+003 5.461274e+002 1.888088e+003
      endloop
   endfacet
   facet normal -2.410304e-017 2.868663e-001 9.579706e-001
      outer loop
         vertex 1.013292e+003 5.452856e+002 1.888314e+003
         vertex 1.050292e+003 5.461274e+002 1.888088e+003
         vertex 1.013292e+003 5.461274e+002 1.888088e+003
      endloop
   endfacet
   facet normal -3.066302e-017 3.960194e-001 9.182422e-001
      outer loop
         vertex 1.013292e+003 5.461274e+002 1.888088e+003
         vertex 1.050292e+003 5.461274e+002 1.888088e+003
         vertex 1.050292e+003 5.469173e+002 1.887720e+003
      endloop
   endfacet
   facet normal -3.380364e-017 4.488580e-001 8.936031e-001
      outer loop
         vertex 1.013292e+003 5.461274e+002 1.888088e+003
         vertex 1.050292e+003 5.469173e+002 1.887720e+003
         vertex 1.013292e+003 5.469173e+002 1.887720e+003
      endloop
   endfacet
   facet normal -3.971068e-017 5.494540e-001 8.355240e-001
      outer loop
         vertex 1.013292e+003 5.469173e+002 1.887720e+003
         vertex 1.050292e+003 5.469173e+002 1.887720e+003
         vertex 1.050292e+003 5.476313e+002 1.887220e+003
      endloop
   endfacet
   facet normal -4.247712e-017 5.972114e-001 8.020839e-001
      outer loop
         vertex 1.013292e+003 5.469173e+002 1.887720e+003
         vertex 1.050292e+003 5.476313e+002 1.887220e+003
         vertex 1.013292e+003 5.476313e+002 1.887220e+003
      endloop
   endfacet
   facet normal -4.755176e-017 6.861938e-001 7.274188e-001
      outer loop
         vertex 1.013292e+003 5.476313e+002 1.887220e+003
         vertex 1.050292e+003 5.476313e+002 1.887220e+003
         vertex 1.050292e+003 5.482476e+002 1.886604e+003
      endloop
   endfacet
   facet normal -4.985996e-017 7.274188e-001 6.861938e-001
      outer loop
         vertex 1.013292e+003 5.476313e+002 1.887220e+003
         vertex 1.050292e+003 5.482476e+002 1.886604e+003
         vertex 1.013292e+003 5.482476e+002 1.886604e+003
      endloop
   endfacet
   facet normal -5.394800e-017 8.020839e-001 5.972114e-001
      outer loop
         vertex 1.013292e+003 5.482476e+002 1.886604e+003
         vertex 1.050292e+003 5.482476e+002 1.886604e+003
         vertex 1.050292e+003 5.487475e+002 1.885890e+003
      endloop
   endfacet
   facet normal -5.572783e-017 8.355240e-001 5.494540e-001
      outer loop
         vertex 1.013292e+003 5.482476e+002 1.886604e+003
         vertex 1.050292e+003 5.487475e+002 1.885890e+003
         vertex 1.013292e+003 5.487475e+002 1.885890e+003
      endloop
   endfacet
   facet normal -5.870505e-017 8.936031e-001 4.488580e-001
      outer loop
         vertex 1.013292e+003 5.487475e+002 1.885890e+003
         vertex 1.050292e+003 5.487475e+002 1.885890e+003
         vertex 1.050292e+003 5.491158e+002 1.885100e+003
      endloop
   endfacet
   facet normal -5.990244e-017 9.182422e-001 3.960194e-001
      outer loop
         vertex 1.013292e+003 5.487475e+002 1.885890e+003
         vertex 1.050292e+003 5.491158e+002 1.885100e+003
         vertex 1.013292e+003 5.491158e+002 1.885100e+003
      endloop
   endfacet
   facet normal -6.167839e-017 9.579706e-001 2.868663e-001
      outer loop
         vertex 1.013292e+003 5.491158e+002 1.885100e+003
         vertex 1.050292e+003 5.491158e+002 1.885100e+003
         vertex 1.050292e+003 5.493414e+002 1.884258e+003
      endloop
   endfacet
   facet normal -6.225695e-017 9.730601e-001 2.305518e-001
      outer loop
         vertex 1.013292e+003 5.491158e+002 1.885100e+003
         vertex 1.050292e+003 5.493414e+002 1.884258e+003
         vertex 1.013292e+003 5.493414e+002 1.884258e+003
      endloop
   endfacet
   facet normal -6.277765e-017 9.932307e-001 1.161583e-001
      outer loop
         vertex 1.013292e+003 5.493414e+002 1.884258e+003
         vertex 1.050292e+003 5.493414e+002 1.884258e+003
         vertex 1.050292e+003 5.494173e+002 1.883390e+003
      endloop
   endfacet
   facet normal -1.000000e+000 -6.245005e-017 -6.459731e-018
      outer loop
         vertex 1.012792e+003 5.478646e+002 1.886282e+003
         vertex 1.012792e+003 5.483145e+002 1.885640e+003
         vertex 1.012792e+003 5.486460e+002 1.884929e+003
      endloop
   endfacet
   facet normal -1.000000e+000 -6.245005e-017 -6.459731e-018
      outer loop
         vertex 1.012792e+003 5.409702e+002 1.880497e+003
         vertex 1.012792e+003 5.405202e+002 1.881140e+003
         vertex 1.012792e+003 5.401887e+002 1.881851e+003
      endloop
   endfacet
   facet normal -1.000000e+000 -6.245005e-017 -6.459731e-018
      outer loop
         vertex 1.012792e+003 5.488490e+002 1.882609e+003
         vertex 1.012792e+003 5.486460e+002 1.881851e+003
         vertex 1.012792e+003 5.401887e+002 1.881851e+003
      endloop
   endfacet
   facet normal -1.000000e+000 -6.245005e-017 -6.459731e-018
      outer loop
         vertex 1.012792e+003 5.483145e+002 1.881140e+003
         vertex 1.012792e+003 5.478646e+002 1.880497e+003
         vertex 1.012792e+003 5.473099e+002 1.879943e+003
      endloop
   endfacet
   facet normal -1.000000e+000 -6.245005e-017 -6.459731e-018
      outer loop
         vertex 1.012792e+003 5.489174e+002 1.883390e+003
         vertex 1.012792e+003 5.488490e+002 1.882609e+003
         vertex 1.012792e+003 5.488490e+002 1.884171e+003
      endloop
   endfacet
   facet normal -1.000000e+000 -6.245005e-017 -6.459731e-018
      outer loop
         vertex 1.012792e+003 5.488490e+002 1.884171e+003
         vertex 1.012792e+003 5.488490e+002 1.882609e+003
         vertex 1.012792e+003 5.401887e+002 1.881851e+003
      endloop
   endfacet
   facet normal -1.000000e+000 -6.245005e-017 -6.459731e-018
      outer loop
         vertex 1.012792e+003 5.488490e+002 1.884171e+003
         vertex 1.012792e+003 5.401887e+002 1.881851e+003
         vertex 1.012792e+003 5.486460e+002 1.884929e+003
      endloop
   endfacet
   facet normal -1.000000e+000 -6.245005e-017 -6.459731e-018
      outer loop
         vertex 1.012792e+003 5.421673e+002 1.879493e+003
         vertex 1.012792e+003 5.415248e+002 1.879943e+003
         vertex 1.012792e+003 5.409702e+002 1.880497e+003
      endloop
   endfacet
   facet normal -1.000000e+000 -6.245005e-017 -6.459731e-018
      outer loop
         vertex 1.012792e+003 5.401887e+002 1.884929e+003
         vertex 1.012792e+003 5.405202e+002 1.885640e+003
         vertex 1.012792e+003 5.486460e+002 1.884929e+003
      endloop
   endfacet
   facet normal -1.000000e+000 -6.245005e-017 -6.459731e-018
      outer loop
         vertex 1.012792e+003 5.486460e+002 1.884929e+003
         vertex 1.012792e+003 5.405202e+002 1.885640e+003
         vertex 1.012792e+003 5.409702e+002 1.886282e+003
      endloop
   endfacet
   facet normal -1.000000e+000 -6.245005e-017 -6.459731e-018
      outer loop
         vertex 1.012792e+003 5.399857e+002 1.884171e+003
         vertex 1.012792e+003 5.401887e+002 1.884929e+003
         vertex 1.012792e+003 5.399174e+002 1.883390e+003
      endloop
   endfacet
   facet normal -1.000000e+000 -6.245005e-017 -6.459731e-018
      outer loop
         vertex 1.012792e+003 5.399174e+002 1.883390e+003
         vertex 1.012792e+003 5.401887e+002 1.884929e+003
         vertex 1.012792e+003 5.486460e+002 1.884929e+003
      endloop
   endfacet
   facet normal -1.000000e+000 -6.245005e-017 -6.459731e-018
      outer loop
         vertex 1.012792e+003 5.399174e+002 1.883390e+003
         vertex 1.012792e+003 5.486460e+002 1.884929e+003
         vertex 1.012792e+003 5.399857e+002 1.882609e+003
      endloop
   endfacet
   facet normal -1.000000e+000 -6.245005e-017 -6.459731e-018
      outer loop
         vertex 1.012792e+003 5.399857e+002 1.882609e+003
         vertex 1.012792e+003 5.486460e+002 1.884929e+003
         vertex 1.012792e+003 5.401887e+002 1.881851e+003
      endloop
   endfacet
   facet normal -1.000000e+000 -6.245005e-017 -6.459731e-018
      outer loop
         vertex 1.012792e+003 5.466674e+002 1.887287e+003
         vertex 1.012792e+003 5.473099e+002 1.886837e+003
         vertex 1.012792e+003 5.478646e+002 1.886282e+003
      endloop
   endfacet
   facet normal -1.000000e+000 -6.245005e-017 -6.459731e-018
      outer loop
         vertex 1.012792e+003 5.473099e+002 1.879943e+003
         vertex 1.012792e+003 5.466674e+002 1.879493e+003
         vertex 1.012792e+003 5.459564e+002 1.879161e+003
      endloop
   endfacet
   facet normal -1.000000e+000 -6.245005e-017 -6.459731e-018
      outer loop
         vertex 1.012792e+003 5.486460e+002 1.881851e+003
         vertex 1.012792e+003 5.483145e+002 1.881140e+003
         vertex 1.012792e+003 5.401887e+002 1.881851e+003
      endloop
   endfacet
   facet normal -1.000000e+000 -6.245005e-017 -6.459731e-018
      outer loop
         vertex 1.012792e+003 5.401887e+002 1.881851e+003
         vertex 1.012792e+003 5.483145e+002 1.881140e+003
         vertex 1.012792e+003 5.473099e+002 1.879943e+003
      endloop
   endfacet
   facet normal -1.000000e+000 -6.245005e-017 -6.459731e-018
      outer loop
         vertex 1.012792e+003 5.401887e+002 1.881851e+003
         vertex 1.012792e+003 5.473099e+002 1.879943e+003
         vertex 1.012792e+003 5.409702e+002 1.880497e+003
      endloop
   endfacet
   facet normal -1.000000e+000 -6.245005e-017 -6.459731e-018
      outer loop
         vertex 1.012792e+003 5.409702e+002 1.880497e+003
         vertex 1.012792e+003 5.473099e+002 1.879943e+003
         vertex 1.012792e+003 5.459564e+002 1.879161e+003
      endloop
   endfacet
   facet normal -1.000000e+000 -6.245005e-017 -6.459731e-018
      outer loop
         vertex 1.012792e+003 5.409702e+002 1.880497e+003
         vertex 1.012792e+003 5.459564e+002 1.879161e+003
         vertex 1.012792e+003 5.451987e+002 1.878958e+003
      endloop
   endfacet
   facet normal -1.000000e+000 -6.245005e-017 -6.459731e-018
      outer loop
         vertex 1.012792e+003 5.409702e+002 1.886282e+003
         vertex 1.012792e+003 5.415248e+002 1.886837e+003
         vertex 1.012792e+003 5.486460e+002 1.884929e+003
      endloop
   endfacet
   facet normal -1.000000e+000 -6.245005e-017 -6.459731e-018
      outer loop
         vertex 1.012792e+003 5.486460e+002 1.884929e+003
         vertex 1.012792e+003 5.415248e+002 1.886837e+003
         vertex 1.012792e+003 5.421673e+002 1.887287e+003
      endloop
   endfacet
   facet normal -1.000000e+000 -6.245005e-017 -6.459731e-018
      outer loop
         vertex 1.012792e+003 5.486460e+002 1.884929e+003
         vertex 1.012792e+003 5.421673e+002 1.887287e+003
         vertex 1.012792e+003 5.478646e+002 1.886282e+003
      endloop
   endfacet
   facet normal -1.000000e+000 -6.245005e-017 -6.459731e-018
      outer loop
         vertex 1.012792e+003 5.478646e+002 1.886282e+003
         vertex 1.012792e+003 5.421673e+002 1.887287e+003
         vertex 1.012792e+003 5.428783e+002 1.887619e+003
      endloop
   endfacet
   facet normal -1.000000e+000 -6.245005e-017 -6.459731e-018
      outer loop
         vertex 1.012792e+003 5.478646e+002 1.886282e+003
         vertex 1.012792e+003 5.428783e+002 1.887619e+003
         vertex 1.012792e+003 5.436359e+002 1.887822e+003
      endloop
   endfacet
   facet normal -1.000000e+000 -6.245005e-017 -6.459731e-018
      outer loop
         vertex 1.012792e+003 5.428783e+002 1.879161e+003
         vertex 1.012792e+003 5.421673e+002 1.879493e+003
         vertex 1.012792e+003 5.436359e+002 1.878958e+003
      endloop
   endfacet
   facet normal -1.000000e+000 -6.245005e-017 -6.459731e-018
      outer loop
         vertex 1.012792e+003 5.436359e+002 1.878958e+003
         vertex 1.012792e+003 5.421673e+002 1.879493e+003
         vertex 1.012792e+003 5.409702e+002 1.880497e+003
      endloop
   endfacet
   facet normal -1.000000e+000 -6.245005e-017 -6.459731e-018
      outer loop
         vertex 1.012792e+003 5.436359e+002 1.878958e+003
         vertex 1.012792e+003 5.409702e+002 1.880497e+003
         vertex 1.012792e+003 5.444173e+002 1.878890e+003
      endloop
   endfacet
   facet normal -1.000000e+000 -6.245005e-017 -6.459731e-018
      outer loop
         vertex 1.012792e+003 5.444173e+002 1.878890e+003
         vertex 1.012792e+003 5.409702e+002 1.880497e+003
         vertex 1.012792e+003 5.451987e+002 1.878958e+003
      endloop
   endfacet
   facet normal -1.000000e+000 -6.245005e-017 -6.459731e-018
      outer loop
         vertex 1.012792e+003 5.459564e+002 1.887619e+003
         vertex 1.012792e+003 5.466674e+002 1.887287e+003
         vertex 1.012792e+003 5.451987e+002 1.887822e+003
      endloop
   endfacet
   facet normal -1.000000e+000 -6.245005e-017 -6.459731e-018
      outer loop
         vertex 1.012792e+003 5.451987e+002 1.887822e+003
         vertex 1.012792e+003 5.466674e+002 1.887287e+003
         vertex 1.012792e+003 5.478646e+002 1.886282e+003
      endloop
   endfacet
   facet normal -1.000000e+000 -6.245005e-017 -6.459731e-018
      outer loop
         vertex 1.012792e+003 5.451987e+002 1.887822e+003
         vertex 1.012792e+003 5.478646e+002 1.886282e+003
         vertex 1.012792e+003 5.444173e+002 1.887890e+003
      endloop
   endfacet
   facet normal -1.000000e+000 -6.245005e-017 -6.459731e-018
      outer loop
         vertex 1.012792e+003 5.444173e+002 1.887890e+003
         vertex 1.012792e+003 5.478646e+002 1.886282e+003
         vertex 1.012792e+003 5.436359e+002 1.887822e+003
      endloop
   endfacet
   facet normal 1.000000e+000 6.245005e-017 6.459731e-018
      outer loop
         vertex 1.050792e+003 5.409702e+002 1.886282e+003
         vertex 1.050792e+003 5.405202e+002 1.885640e+003
         vertex 1.050792e+003 5.401887e+002 1.884929e+003
      endloop
   endfacet
   facet normal 1.000000e+000 6.245005e-017 6.459731e-018
      outer loop
         vertex 1.050792e+003 5.478646e+002 1.880497e+003
         vertex 1.050792e+003 5.483145e+002 1.881140e+003
         vertex 1.050792e+003 5.486460e+002 1.881851e+003
      endloop
   endfacet
   facet normal 1.000000e+000 6.245005e-017 6.459731e-018
      outer loop
         vertex 1.050792e+003 5.399857e+002 1.882609e+003
         vertex 1.050792e+003 5.401887e+002 1.881851e+003
         vertex 1.050792e+003 5.486460e+002 1.881851e+003
      endloop
   endfacet
   facet normal 1.000000e+000 6.245005e-017 6.459731e-018
      outer loop
         vertex 1.050792e+003 5.405202e+002 1.881140e+003
         vertex 1.050792e+003 5.409702e+002 1.880497e+003
         vertex 1.050792e+003 5.415248e+002 1.879943e+003
      endloop
   endfacet
   facet normal 1.000000e+000 6.245005e-017 6.459731e-018
      outer loop
         vertex 1.050792e+003 5.488490e+002 1.884171e+003
         vertex 1.050792e+003 5.486460e+002 1.881851e+003
         vertex 1.050792e+003 5.489174e+002 1.883390e+003
      endloop
   endfacet
   facet normal 1.000000e+000 6.245005e-017 6.459731e-018
      outer loop
         vertex 1.050792e+003 5.489174e+002 1.883390e+003
         vertex 1.050792e+003 5.486460e+002 1.881851e+003
         vertex 1.050792e+003 5.488490e+002 1.882609e+003
      endloop
   endfacet
   facet normal 1.000000e+000 6.245005e-017 6.459731e-018
      outer loop
         vertex 1.050792e+003 5.399174e+002 1.883390e+003
         vertex 1.050792e+003 5.399857e+002 1.882609e+003
         vertex 1.050792e+003 5.399857e+002 1.884171e+003
      endloop
   endfacet
   facet normal 1.000000e+000 6.245005e-017 6.459731e-018
      outer loop
         vertex 1.050792e+003 5.399857e+002 1.884171e+003
         vertex 1.050792e+003 5.399857e+002 1.882609e+003
         vertex 1.050792e+003 5.486460e+002 1.881851e+003
      endloop
   endfacet
   facet normal 1.000000e+000 6.245005e-017 6.459731e-018
      outer loop
         vertex 1.050792e+003 5.399857e+002 1.884171e+003
         vertex 1.050792e+003 5.486460e+002 1.881851e+003
         vertex 1.050792e+003 5.401887e+002 1.884929e+003
      endloop
   endfacet
   facet normal 1.000000e+000 6.245005e-017 6.459731e-018
      outer loop
         vertex 1.050792e+003 5.401887e+002 1.884929e+003
         vertex 1.050792e+003 5.486460e+002 1.881851e+003
         vertex 1.050792e+003 5.488490e+002 1.884171e+003
      endloop
   endfacet
   facet normal 1.000000e+000 6.245005e-017 6.459731e-018
      outer loop
         vertex 1.050792e+003 5.466674e+002 1.879493e+003
         vertex 1.050792e+003 5.473099e+002 1.879943e+003
         vertex 1.050792e+003 5.478646e+002 1.880497e+003
      endloop
   endfacet
   facet normal 1.000000e+000 6.245005e-017 6.459731e-018
      outer loop
         vertex 1.050792e+003 5.488490e+002 1.884171e+003
         vertex 1.050792e+003 5.486460e+002 1.884929e+003
         vertex 1.050792e+003 5.401887e+002 1.884929e+003
      endloop
   endfacet
   facet normal 1.000000e+000 6.245005e-017 6.459731e-018
      outer loop
         vertex 1.050792e+003 5.401887e+002 1.884929e+003
         vertex 1.050792e+003 5.486460e+002 1.884929e+003
         vertex 1.050792e+003 5.483145e+002 1.885640e+003
      endloop
   endfacet
   facet normal 1.000000e+000 6.245005e-017 6.459731e-018
      outer loop
         vertex 1.050792e+003 5.401887e+002 1.884929e+003
         vertex 1.050792e+003 5.483145e+002 1.885640e+003
         vertex 1.050792e+003 5.478646e+002 1.886282e+003
      endloop
   endfacet
   facet normal 1.000000e+000 6.245005e-017 6.459731e-018
      outer loop
         vertex 1.050792e+003 5.421673e+002 1.887287e+003
         vertex 1.050792e+003 5.415248e+002 1.886837e+003
         vertex 1.050792e+003 5.409702e+002 1.886282e+003
      endloop
   endfacet
   facet normal 1.000000e+000 6.245005e-017 6.459731e-018
      outer loop
         vertex 1.050792e+003 5.415248e+002 1.879943e+003
         vertex 1.050792e+003 5.421673e+002 1.879493e+003
         vertex 1.050792e+003 5.428783e+002 1.879161e+003
      endloop
   endfacet
   facet normal 1.000000e+000 6.245005e-017 6.459731e-018
      outer loop
         vertex 1.050792e+003 5.401887e+002 1.881851e+003
         vertex 1.050792e+003 5.405202e+002 1.881140e+003
         vertex 1.050792e+003 5.486460e+002 1.881851e+003
      endloop
   endfacet
   facet normal 1.000000e+000 6.245005e-017 6.459731e-018
      outer loop
         vertex 1.050792e+003 5.486460e+002 1.881851e+003
         vertex 1.050792e+003 5.405202e+002 1.881140e+003
         vertex 1.050792e+003 5.415248e+002 1.879943e+003
      endloop
   endfacet
   facet normal 1.000000e+000 6.245005e-017 6.459731e-018
      outer loop
         vertex 1.050792e+003 5.486460e+002 1.881851e+003
         vertex 1.050792e+003 5.415248e+002 1.879943e+003
         vertex 1.050792e+003 5.478646e+002 1.880497e+003
      endloop
   endfacet
   facet normal 1.000000e+000 6.245005e-017 6.459731e-018
      outer loop
         vertex 1.050792e+003 5.478646e+002 1.880497e+003
         vertex 1.050792e+003 5.415248e+002 1.879943e+003
         vertex 1.050792e+003 5.428783e+002 1.879161e+003
      endloop
   endfacet
   facet normal 1.000000e+000 6.245005e-017 6.459731e-018
      outer loop
         vertex 1.050792e+003 5.478646e+002 1.880497e+003
         vertex 1.050792e+003 5.428783e+002 1.879161e+003
         vertex 1.050792e+003 5.436359e+002 1.878958e+003
      endloop
   endfacet
   facet normal 1.000000e+000 6.245005e-017 6.459731e-018
      outer loop
         vertex 1.050792e+003 5.478646e+002 1.886282e+003
         vertex 1.050792e+003 5.473099e+002 1.886837e+003
         vertex 1.050792e+003 5.401887e+002 1.884929e+003
      endloop
   endfacet
   facet normal 1.000000e+000 6.245005e-017 6.459731e-018
      outer loop
         vertex 1.050792e+003 5.401887e+002 1.884929e+003
         vertex 1.050792e+003 5.473099e+002 1.886837e+003
         vertex 1.050792e+003 5.466674e+002 1.887287e+003
      endloop
   endfacet
   facet normal 1.000000e+000 6.245005e-017 6.459731e-018
      outer loop
         vertex 1.050792e+003 5.401887e+002 1.884929e+003
         vertex 1.050792e+003 5.466674e+002 1.887287e+003
         vertex 1.050792e+003 5.409702e+002 1.886282e+003
      endloop
   endfacet
   facet normal 1.000000e+000 6.245005e-017 6.459731e-018
      outer loop
         vertex 1.050792e+003 5.409702e+002 1.886282e+003
         vertex 1.050792e+003 5.466674e+002 1.887287e+003
         vertex 1.050792e+003 5.459564e+002 1.887619e+003
      endloop
   endfacet
   facet normal 1.000000e+000 6.245005e-017 6.459731e-018
      outer loop
         vertex 1.050792e+003 5.409702e+002 1.886282e+003
         vertex 1.050792e+003 5.459564e+002 1.887619e+003
         vertex 1.050792e+003 5.451987e+002 1.887822e+003
      endloop
   endfacet
   facet normal 1.000000e+000 6.245005e-017 6.459731e-018
      outer loop
         vertex 1.050792e+003 5.459564e+002 1.879161e+003
         vertex 1.050792e+003 5.466674e+002 1.879493e+003
         vertex 1.050792e+003 5.451987e+002 1.878958e+003
      endloop
   endfacet
   facet normal 1.000000e+000 6.245005e-017 6.459731e-018
      outer loop
         vertex 1.050792e+003 5.451987e+002 1.878958e+003
         vertex 1.050792e+003 5.466674e+002 1.879493e+003
         vertex 1.050792e+003 5.478646e+002 1.880497e+003
      endloop
   endfacet
   facet normal 1.000000e+000 6.245005e-017 6.459731e-018
      outer loop
         vertex 1.050792e+003 5.451987e+002 1.878958e+003
         vertex 1.050792e+003 5.478646e+002 1.880497e+003
         vertex 1.050792e+003 5.444173e+002 1.878890e+003
      endloop
   endfacet
   facet normal 1.000000e+000 6.245005e-017 6.459731e-018
      outer loop
         vertex 1.050792e+003 5.444173e+002 1.878890e+003
         vertex 1.050792e+003 5.478646e+002 1.880497e+003
         vertex 1.050792e+003 5.436359e+002 1.878958e+003
      endloop
   endfacet
   facet normal 1.000000e+000 6.245005e-017 6.459731e-018
      outer loop
         vertex 1.050792e+003 5.428783e+002 1.887619e+003
         vertex 1.050792e+003 5.421673e+002 1.887287e+003
         vertex 1.050792e+003 5.436359e+002 1.887822e+003
      endloop
   endfacet
   facet normal 1.000000e+000 6.245005e-017 6.459731e-018
      outer loop
         vertex 1.050792e+003 5.436359e+002 1.887822e+003
         vertex 1.050792e+003 5.421673e+002 1.887287e+003
         vertex 1.050792e+003 5.409702e+002 1.886282e+003
      endloop
   endfacet
   facet normal 1.000000e+000 6.245005e-017 6.459731e-018
      outer loop
         vertex 1.050792e+003 5.436359e+002 1.887822e+003
         vertex 1.050792e+003 5.409702e+002 1.886282e+003
         vertex 1.050792e+003 5.444173e+002 1.887890e+003
      endloop
   endfacet
   facet normal 1.000000e+000 6.245005e-017 6.459731e-018
      outer loop
         vertex 1.050792e+003 5.444173e+002 1.887890e+003
         vertex 1.050792e+003 5.409702e+002 1.886282e+003
         vertex 1.050792e+003 5.451987e+002 1.887822e+003
      endloop
   endfacet
   facet normal -7.083034e-001 6.868910e-001 1.627484e-001
      outer loop
         vertex 1.013292e+003 5.493414e+002 1.884258e+003
         vertex 1.012792e+003 5.488490e+002 1.884171e+003
         vertex 1.013292e+003 5.491158e+002 1.885100e+003
      endloop
   endfacet
   facet normal -7.083035e-001 6.762393e-001 2.025012e-001
      outer loop
         vertex 1.013292e+003 5.491158e+002 1.885100e+003
         vertex 1.012792e+003 5.488490e+002 1.884171e+003
         vertex 1.012792e+003 5.486460e+002 1.884929e+003
      endloop
   endfacet
   facet normal -7.083035e-001 6.481946e-001 2.795533e-001
      outer loop
         vertex 1.013292e+003 5.491158e+002 1.885100e+003
         vertex 1.012792e+003 5.486460e+002 1.884929e+003
         vertex 1.013292e+003 5.487475e+002 1.885890e+003
      endloop
   endfacet
   facet normal -7.083034e-001 6.308017e-001 3.168525e-001
      outer loop
         vertex 1.013292e+003 5.487475e+002 1.885890e+003
         vertex 1.012792e+003 5.486460e+002 1.884929e+003
         vertex 1.012792e+003 5.483145e+002 1.885640e+003
      endloop
   endfacet
   facet normal -7.083035e-001 5.898032e-001 3.878641e-001
      outer loop
         vertex 1.013292e+003 5.487475e+002 1.885890e+003
         vertex 1.012792e+003 5.483145e+002 1.885640e+003
         vertex 1.013292e+003 5.482476e+002 1.886604e+003
      endloop
   endfacet
   facet normal -7.083035e-001 5.661975e-001 4.215764e-001
      outer loop
         vertex 1.013292e+003 5.482476e+002 1.886604e+003
         vertex 1.012792e+003 5.483145e+002 1.885640e+003
         vertex 1.012792e+003 5.478646e+002 1.886282e+003
      endloop
   endfacet
   facet normal -7.083035e-001 5.134908e-001 4.843898e-001
      outer loop
         vertex 1.013292e+003 5.482476e+002 1.886604e+003
         vertex 1.012792e+003 5.478646e+002 1.886282e+003
         vertex 1.013292e+003 5.476313e+002 1.887220e+003
      endloop
   endfacet
   facet normal -7.083035e-001 4.843898e-001 5.134908e-001
      outer loop
         vertex 1.013292e+003 5.476313e+002 1.887220e+003
         vertex 1.012792e+003 5.478646e+002 1.886282e+003
         vertex 1.012792e+003 5.473099e+002 1.886837e+003
      endloop
   endfacet
   facet normal -7.083035e-001 4.215764e-001 5.661975e-001
      outer loop
         vertex 1.013292e+003 5.476313e+002 1.887220e+003
         vertex 1.012792e+003 5.473099e+002 1.886837e+003
         vertex 1.013292e+003 5.469173e+002 1.887720e+003
      endloop
   endfacet
   facet normal -7.083035e-001 3.878641e-001 5.898032e-001
      outer loop
         vertex 1.013292e+003 5.469173e+002 1.887720e+003
         vertex 1.012792e+003 5.473099e+002 1.886837e+003
         vertex 1.012792e+003 5.466674e+002 1.887287e+003
      endloop
   endfacet
   facet normal -7.083034e-001 3.168525e-001 6.308017e-001
      outer loop
         vertex 1.013292e+003 5.469173e+002 1.887720e+003
         vertex 1.012792e+003 5.466674e+002 1.887287e+003
         vertex 1.013292e+003 5.461274e+002 1.888088e+003
      endloop
   endfacet
   facet normal -7.083035e-001 2.795533e-001 6.481946e-001
      outer loop
         vertex 1.013292e+003 5.461274e+002 1.888088e+003
         vertex 1.012792e+003 5.466674e+002 1.887287e+003
         vertex 1.012792e+003 5.459564e+002 1.887619e+003
      endloop
   endfacet
   facet normal -7.083035e-001 2.025012e-001 6.762393e-001
      outer loop
         vertex 1.013292e+003 5.461274e+002 1.888088e+003
         vertex 1.012792e+003 5.459564e+002 1.887619e+003
         vertex 1.013292e+003 5.452856e+002 1.888314e+003
      endloop
   endfacet
   facet normal -7.083034e-001 1.627484e-001 6.868910e-001
      outer loop
         vertex 1.013292e+003 5.452856e+002 1.888314e+003
         vertex 1.012792e+003 5.459564e+002 1.887619e+003
         vertex 1.012792e+003 5.451987e+002 1.887822e+003
      endloop
   endfacet
   facet normal -7.083034e-001 8.199707e-002 7.011296e-001
      outer loop
         vertex 1.013292e+003 5.452856e+002 1.888314e+003
         vertex 1.012792e+003 5.451987e+002 1.887822e+003
         vertex 1.013292e+003 5.444173e+002 1.888390e+003
      endloop
   endfacet
   facet normal -7.083035e-001 4.099854e-002 7.047165e-001
      outer loop
         vertex 1.013292e+003 5.444173e+002 1.888390e+003
         vertex 1.012792e+003 5.451987e+002 1.887822e+003
         vertex 1.012792e+003 5.444173e+002 1.887890e+003
      endloop
   endfacet
   facet normal -7.083035e-001 -4.099854e-002 7.047165e-001
      outer loop
         vertex 1.013292e+003 5.444173e+002 1.888390e+003
         vertex 1.012792e+003 5.444173e+002 1.887890e+003
         vertex 1.013292e+003 5.435491e+002 1.888314e+003
      endloop
   endfacet
   facet normal -7.083034e-001 -8.199707e-002 7.011296e-001
      outer loop
         vertex 1.013292e+003 5.435491e+002 1.888314e+003
         vertex 1.012792e+003 5.444173e+002 1.887890e+003
         vertex 1.012792e+003 5.436359e+002 1.887822e+003
      endloop
   endfacet
   facet normal -7.083034e-001 -1.627484e-001 6.868910e-001
      outer loop
         vertex 1.013292e+003 5.435491e+002 1.888314e+003
         vertex 1.012792e+003 5.436359e+002 1.887822e+003
         vertex 1.013292e+003 5.427072e+002 1.888088e+003
      endloop
   endfacet
   facet normal -7.083035e-001 -2.025012e-001 6.762393e-001
      outer loop
         vertex 1.013292e+003 5.427072e+002 1.888088e+003
         vertex 1.012792e+003 5.436359e+002 1.887822e+003
         vertex 1.012792e+003 5.428783e+002 1.887619e+003
      endloop
   endfacet
   facet normal -7.083035e-001 -2.795533e-001 6.481946e-001
      outer loop
         vertex 1.013292e+003 5.427072e+002 1.888088e+003
         vertex 1.012792e+003 5.428783e+002 1.887619e+003
         vertex 1.013292e+003 5.419173e+002 1.887720e+003
      endloop
   endfacet
   facet normal -7.083034e-001 -3.168525e-001 6.308017e-001
      outer loop
         vertex 1.013292e+003 5.419173e+002 1.887720e+003
         vertex 1.012792e+003 5.428783e+002 1.887619e+003
         vertex 1.012792e+003 5.421673e+002 1.887287e+003
      endloop
   endfacet
   facet normal -7.083035e-001 -3.878641e-001 5.898032e-001
      outer loop
         vertex 1.013292e+003 5.419173e+002 1.887720e+003
         vertex 1.012792e+003 5.421673e+002 1.887287e+003
         vertex 1.013292e+003 5.412034e+002 1.887220e+003
      endloop
   endfacet
   facet normal -7.083035e-001 -4.215764e-001 5.661975e-001
      outer loop
         vertex 1.013292e+003 5.412034e+002 1.887220e+003
         vertex 1.012792e+003 5.421673e+002 1.887287e+003
         vertex 1.012792e+003 5.415248e+002 1.886837e+003
      endloop
   endfacet
   facet normal -7.083035e-001 -4.843898e-001 5.134908e-001
      outer loop
         vertex 1.013292e+003 5.412034e+002 1.887220e+003
         vertex 1.012792e+003 5.415248e+002 1.886837e+003
         vertex 1.013292e+003 5.405871e+002 1.886604e+003
      endloop
   endfacet
   facet normal -7.083035e-001 -5.134908e-001 4.843898e-001
      outer loop
         vertex 1.013292e+003 5.405871e+002 1.886604e+003
         vertex 1.012792e+003 5.415248e+002 1.886837e+003
         vertex 1.012792e+003 5.409702e+002 1.886282e+003
      endloop
   endfacet
   facet normal -7.083035e-001 -5.661975e-001 4.215764e-001
      outer loop
         vertex 1.013292e+003 5.405871e+002 1.886604e+003
         vertex 1.012792e+003 5.409702e+002 1.886282e+003
         vertex 1.013292e+003 5.400872e+002 1.885890e+003
      endloop
   endfacet
   facet normal -7.083035e-001 -5.898032e-001 3.878641e-001
      outer loop
         vertex 1.013292e+003 5.400872e+002 1.885890e+003
         vertex 1.012792e+003 5.409702e+002 1.886282e+003
         vertex 1.012792e+003 5.405202e+002 1.885640e+003
      endloop
   endfacet
   facet normal -7.083034e-001 -6.308017e-001 3.168525e-001
      outer loop
         vertex 1.013292e+003 5.400872e+002 1.885890e+003
         vertex 1.012792e+003 5.405202e+002 1.885640e+003
         vertex 1.013292e+003 5.397189e+002 1.885100e+003
      endloop
   endfacet
   facet normal -7.083035e-001 -6.481946e-001 2.795533e-001
      outer loop
         vertex 1.013292e+003 5.397189e+002 1.885100e+003
         vertex 1.012792e+003 5.405202e+002 1.885640e+003
         vertex 1.012792e+003 5.401887e+002 1.884929e+003
      endloop
   endfacet
   facet normal -7.083035e-001 -6.762393e-001 2.025012e-001
      outer loop
         vertex 1.013292e+003 5.397189e+002 1.885100e+003
         vertex 1.012792e+003 5.401887e+002 1.884929e+003
         vertex 1.013292e+003 5.394933e+002 1.884258e+003
      endloop
   endfacet
   facet normal -7.083034e-001 -6.868910e-001 1.627484e-001
      outer loop
         vertex 1.013292e+003 5.394933e+002 1.884258e+003
         vertex 1.012792e+003 5.401887e+002 1.884929e+003
         vertex 1.012792e+003 5.399857e+002 1.884171e+003
      endloop
   endfacet
   facet normal -7.083034e-001 -7.011296e-001 8.199707e-002
      outer loop
         vertex 1.013292e+003 5.394933e+002 1.884258e+003
         vertex 1.012792e+003 5.399857e+002 1.884171e+003
         vertex 1.013292e+003 5.394173e+002 1.883390e+003
      endloop
   endfacet
   facet normal -7.083035e-001 -7.047165e-001 4.099854e-002
      outer loop
         vertex 1.013292e+003 5.394173e+002 1.883390e+003
         vertex 1.012792e+003 5.399857e+002 1.884171e+003
         vertex 1.012792e+003 5.399174e+002 1.883390e+003
      endloop
   endfacet
   facet normal -7.083035e-001 -7.047165e-001 -4.099854e-002
      outer loop
         vertex 1.013292e+003 5.394173e+002 1.883390e+003
         vertex 1.012792e+003 5.399174e+002 1.883390e+003
         vertex 1.013292e+003 5.394933e+002 1.882522e+003
      endloop
   endfacet
   facet normal -7.083034e-001 -7.011296e-001 -8.199707e-002
      outer loop
         vertex 1.013292e+003 5.394933e+002 1.882522e+003
         vertex 1.012792e+003 5.399174e+002 1.883390e+003
         vertex 1.012792e+003 5.399857e+002 1.882609e+003
      endloop
   endfacet
   facet normal -7.083034e-001 -6.868910e-001 -1.627484e-001
      outer loop
         vertex 1.013292e+003 5.394933e+002 1.882522e+003
         vertex 1.012792e+003 5.399857e+002 1.882609e+003
         vertex 1.013292e+003 5.397189e+002 1.881680e+003
      endloop
   endfacet
   facet normal -7.083035e-001 -6.762393e-001 -2.025012e-001
      outer loop
         vertex 1.013292e+003 5.397189e+002 1.881680e+003
         vertex 1.012792e+003 5.399857e+002 1.882609e+003
         vertex 1.012792e+003 5.401887e+002 1.881851e+003
      endloop
   endfacet
   facet normal -7.083035e-001 -6.481946e-001 -2.795533e-001
      outer loop
         vertex 1.013292e+003 5.397189e+002 1.881680e+003
         vertex 1.012792e+003 5.401887e+002 1.881851e+003
         vertex 1.013292e+003 5.400872e+002 1.880890e+003
      endloop
   endfacet
   facet normal -7.083034e-001 -6.308017e-001 -3.168525e-001
      outer loop
         vertex 1.013292e+003 5.400872e+002 1.880890e+003
         vertex 1.012792e+003 5.401887e+002 1.881851e+003
         vertex 1.012792e+003 5.405202e+002 1.881140e+003
      endloop
   endfacet
   facet normal -7.083035e-001 -5.898032e-001 -3.878641e-001
      outer loop
         vertex 1.013292e+003 5.400872e+002 1.880890e+003
         vertex 1.012792e+003 5.405202e+002 1.881140e+003
         vertex 1.013292e+003 5.405871e+002 1.880176e+003
      endloop
   endfacet
   facet normal -7.083035e-001 -5.661975e-001 -4.215764e-001
      outer loop
         vertex 1.013292e+003 5.405871e+002 1.880176e+003
         vertex 1.012792e+003 5.405202e+002 1.881140e+003
         vertex 1.012792e+003 5.409702e+002 1.880497e+003
      endloop
   endfacet
   facet normal -7.083035e-001 -5.134908e-001 -4.843898e-001
      outer loop
         vertex 1.013292e+003 5.405871e+002 1.880176e+003
         vertex 1.012792e+003 5.409702e+002 1.880497e+003
         vertex 1.013292e+003 5.412034e+002 1.879560e+003
      endloop
   endfacet
   facet normal -7.083035e-001 -4.843898e-001 -5.134908e-001
      outer loop
         vertex 1.013292e+003 5.412034e+002 1.879560e+003
         vertex 1.012792e+003 5.409702e+002 1.880497e+003
         vertex 1.012792e+003 5.415248e+002 1.879943e+003
      endloop
   endfacet
   facet normal -7.083035e-001 -4.215764e-001 -5.661975e-001
      outer loop
         vertex 1.013292e+003 5.412034e+002 1.879560e+003
         vertex 1.012792e+003 5.415248e+002 1.879943e+003
         vertex 1.013292e+003 5.419173e+002 1.879060e+003
      endloop
   endfacet
   facet normal -7.083035e-001 -3.878641e-001 -5.898032e-001
      outer loop
         vertex 1.013292e+003 5.419173e+002 1.879060e+003
         vertex 1.012792e+003 5.415248e+002 1.879943e+003
         vertex 1.012792e+003 5.421673e+002 1.879493e+003
      endloop
   endfacet
   facet normal -7.083034e-001 -3.168525e-001 -6.308017e-001
      outer loop
         vertex 1.013292e+003 5.419173e+002 1.879060e+003
         vertex 1.012792e+003 5.421673e+002 1.879493e+003
         vertex 1.013292e+003 5.427072e+002 1.878691e+003
      endloop
   endfacet
   facet normal -7.083035e-001 -2.795533e-001 -6.481946e-001
      outer loop
         vertex 1.013292e+003 5.427072e+002 1.878691e+003
         vertex 1.012792e+003 5.421673e+002 1.879493e+003
         vertex 1.012792e+003 5.428783e+002 1.879161e+003
      endloop
   endfacet
   facet normal -7.083035e-001 -2.025012e-001 -6.762393e-001
      outer loop
         vertex 1.013292e+003 5.427072e+002 1.878691e+003
         vertex 1.012792e+003 5.428783e+002 1.879161e+003
         vertex 1.013292e+003 5.435491e+002 1.878466e+003
      endloop
   endfacet
   facet normal -7.083034e-001 -1.627484e-001 -6.868910e-001
      outer loop
         vertex 1.013292e+003 5.435491e+002 1.878466e+003
         vertex 1.012792e+003 5.428783e+002 1.879161e+003
         vertex 1.012792e+003 5.436359e+002 1.878958e+003
      endloop
   endfacet
   facet normal -7.083034e-001 -8.199707e-002 -7.011296e-001
      outer loop
         vertex 1.013292e+003 5.435491e+002 1.878466e+003
         vertex 1.012792e+003 5.436359e+002 1.878958e+003
         vertex 1.013292e+003 5.444173e+002 1.878390e+003
      endloop
   endfacet
   facet normal -7.083035e-001 -4.099854e-002 -7.047165e-001
      outer loop
         vertex 1.013292e+003 5.444173e+002 1.878390e+003
         vertex 1.012792e+003 5.436359e+002 1.878958e+003
         vertex 1.012792e+003 5.444173e+002 1.878890e+003
      endloop
   endfacet
   facet normal -7.083035e-001 4.099854e-002 -7.047165e-001
      outer loop
         vertex 1.013292e+003 5.444173e+002 1.878390e+003
         vertex 1.012792e+003 5.444173e+002 1.878890e+003
         vertex 1.013292e+003 5.452856e+002 1.878466e+003
      endloop
   endfacet
   facet normal -7.083034e-001 8.199707e-002 -7.011296e-001
      outer loop
         vertex 1.013292e+003 5.452856e+002 1.878466e+003
         vertex 1.012792e+003 5.444173e+002 1.878890e+003
         vertex 1.012792e+003 5.451987e+002 1.878958e+003
      endloop
   endfacet
   facet normal -7.083034e-001 1.627484e-001 -6.868910e-001
      outer loop
         vertex 1.013292e+003 5.452856e+002 1.878466e+003
         vertex 1.012792e+003 5.451987e+002 1.878958e+003
         vertex 1.013292e+003 5.461274e+002 1.878691e+003
      endloop
   endfacet
   facet normal -7.083035e-001 2.025012e-001 -6.762393e-001
      outer loop
         vertex 1.013292e+003 5.461274e+002 1.878691e+003
         vertex 1.012792e+003 5.451987e+002 1.878958e+003
         vertex 1.012792e+003 5.459564e+002 1.879161e+003
      endloop
   endfacet
   facet normal -7.083035e-001 2.795533e-001 -6.481946e-001
      outer loop
         vertex 1.013292e+003 5.461274e+002 1.878691e+003
         vertex 1.012792e+003 5.459564e+002 1.879161e+003
         vertex 1.013292e+003 5.469173e+002 1.879060e+003
      endloop
   endfacet
   facet normal -7.083034e-001 3.168525e-001 -6.308017e-001
      outer loop
         vertex 1.013292e+003 5.469173e+002 1.879060e+003
         vertex 1.012792e+003 5.459564e+002 1.879161e+003
         vertex 1.012792e+003 5.466674e+002 1.879493e+003
      endloop
   endfacet
   facet normal -7.083035e-001 3.878641e-001 -5.898032e-001
      outer loop
         vertex 1.013292e+003 5.469173e+002 1.879060e+003
         vertex 1.012792e+003 5.466674e+002 1.879493e+003
         vertex 1.013292e+003 5.476313e+002 1.879560e+003
      endloop
   endfacet
   facet normal -7.083035e-001 4.215764e-001 -5.661975e-001
      outer loop
         vertex 1.013292e+003 5.476313e+002 1.879560e+003
         vertex 1.012792e+003 5.466674e+002 1.879493e+003
         vertex 1.012792e+003 5.473099e+002 1.879943e+003
      endloop
   endfacet
   facet normal -7.083035e-001 4.843898e-001 -5.134908e-001
      outer loop
         vertex 1.013292e+003 5.476313e+002 1.879560e+003
         vertex 1.012792e+003 5.473099e+002 1.879943e+003
         vertex 1.013292e+003 5.482476e+002 1.880176e+003
      endloop
   endfacet
   facet normal -7.083035e-001 5.134908e-001 -4.843898e-001
      outer loop
         vertex 1.013292e+003 5.482476e+002 1.880176e+003
         vertex 1.012792e+003 5.473099e+002 1.879943e+003
         vertex 1.012792e+003 5.478646e+002 1.880497e+003
      endloop
   endfacet
   facet normal -7.083035e-001 5.661975e-001 -4.215764e-001
      outer loop
         vertex 1.013292e+003 5.482476e+002 1.880176e+003
         vertex 1.012792e+003 5.478646e+002 1.880497e+003
         vertex 1.013292e+003 5.487475e+002 1.880890e+003
      endloop
   endfacet
   facet normal -7.083035e-001 5.898032e-001 -3.878641e-001
      outer loop
         vertex 1.013292e+003 5.487475e+002 1.880890e+003
         vertex 1.012792e+003 5.478646e+002 1.880497e+003
         vertex 1.012792e+003 5.483145e+002 1.881140e+003
      endloop
   endfacet
   facet normal -7.083034e-001 6.308017e-001 -3.168525e-001
      outer loop
         vertex 1.013292e+003 5.487475e+002 1.880890e+003
         vertex 1.012792e+003 5.483145e+002 1.881140e+003
         vertex 1.013292e+003 5.491158e+002 1.881680e+003
      endloop
   endfacet
   facet normal -7.083035e-001 6.481946e-001 -2.795533e-001
      outer loop
         vertex 1.013292e+003 5.491158e+002 1.881680e+003
         vertex 1.012792e+003 5.483145e+002 1.881140e+003
         vertex 1.012792e+003 5.486460e+002 1.881851e+003
      endloop
   endfacet
   facet normal -7.083035e-001 6.762393e-001 -2.025012e-001
      outer loop
         vertex 1.013292e+003 5.491158e+002 1.881680e+003
         vertex 1.012792e+003 5.486460e+002 1.881851e+003
         vertex 1.013292e+003 5.493414e+002 1.882522e+003
      endloop
   endfacet
   facet normal -7.083034e-001 6.868910e-001 -1.627484e-001
      outer loop
         vertex 1.013292e+003 5.493414e+002 1.882522e+003
         vertex 1.012792e+003 5.486460e+002 1.881851e+003
         vertex 1.012792e+003 5.488490e+002 1.882609e+003
      endloop
   endfacet
   facet normal -7.083034e-001 7.011296e-001 -8.199707e-002
      outer loop
         vertex 1.013292e+003 5.493414e+002 1.882522e+003
         vertex 1.012792e+003 5.488490e+002 1.882609e+003
         vertex 1.013292e+003 5.494173e+002 1.883390e+003
      endloop
   endfacet
   facet normal -7.083035e-001 7.047165e-001 -4.099854e-002
      outer loop
         vertex 1.013292e+003 5.494173e+002 1.883390e+003
         vertex 1.012792e+003 5.488490e+002 1.882609e+003
         vertex 1.012792e+003 5.489174e+002 1.883390e+003
      endloop
   endfacet
   facet normal -7.083035e-001 7.047165e-001 4.099854e-002
      outer loop
         vertex 1.013292e+003 5.494173e+002 1.883390e+003
         vertex 1.012792e+003 5.489174e+002 1.883390e+003
         vertex 1.013292e+003 5.493414e+002 1.884258e+003
      endloop
   endfacet
   facet normal -7.083034e-001 7.011296e-001 8.199707e-002
      outer loop
         vertex 1.013292e+003 5.493414e+002 1.884258e+003
         vertex 1.012792e+003 5.489174e+002 1.883390e+003
         vertex 1.012792e+003 5.488490e+002 1.884171e+003
      endloop
   endfacet
   facet normal 7.083034e-001 -6.868910e-001 1.627484e-001
      outer loop
         vertex 1.050292e+003 5.394933e+002 1.884258e+003
         vertex 1.050792e+003 5.399857e+002 1.884171e+003
         vertex 1.050292e+003 5.397189e+002 1.885100e+003
      endloop
   endfacet
   facet normal 7.083035e-001 -6.762393e-001 2.025012e-001
      outer loop
         vertex 1.050292e+003 5.397189e+002 1.885100e+003
         vertex 1.050792e+003 5.399857e+002 1.884171e+003
         vertex 1.050792e+003 5.401887e+002 1.884929e+003
      endloop
   endfacet
   facet normal 7.083035e-001 -6.481946e-001 2.795533e-001
      outer loop
         vertex 1.050292e+003 5.397189e+002 1.885100e+003
         vertex 1.050792e+003 5.401887e+002 1.884929e+003
         vertex 1.050292e+003 5.400872e+002 1.885890e+003
      endloop
   endfacet
   facet normal 7.083034e-001 -6.308017e-001 3.168525e-001
      outer loop
         vertex 1.050292e+003 5.400872e+002 1.885890e+003
         vertex 1.050792e+003 5.401887e+002 1.884929e+003
         vertex 1.050792e+003 5.405202e+002 1.885640e+003
      endloop
   endfacet
   facet normal 7.083035e-001 -5.898032e-001 3.878641e-001
      outer loop
         vertex 1.050292e+003 5.400872e+002 1.885890e+003
         vertex 1.050792e+003 5.405202e+002 1.885640e+003
         vertex 1.050292e+003 5.405871e+002 1.886604e+003
      endloop
   endfacet
   facet normal 7.083035e-001 -5.661975e-001 4.215764e-001
      outer loop
         vertex 1.050292e+003 5.405871e+002 1.886604e+003
         vertex 1.050792e+003 5.405202e+002 1.885640e+003
         vertex 1.050792e+003 5.409702e+002 1.886282e+003
      endloop
   endfacet
   facet normal 7.083035e-001 -5.134908e-001 4.843898e-001
      outer loop
         vertex 1.050292e+003 5.405871e+002 1.886604e+003
         vertex 1.050792e+003 5.409702e+002 1.886282e+003
         vertex 1.050292e+003 5.412034e+002 1.887220e+003
      endloop
   endfacet
   facet normal 7.083035e-001 -4.843898e-001 5.134908e-001
      outer loop
         vertex 1.050292e+003 5.412034e+002 1.887220e+003
         vertex 1.050792e+003 5.409702e+002 1.886282e+003
         vertex 1.050792e+003 5.415248e+002 1.886837e+003
      endloop
   endfacet
   facet normal 7.083035e-001 -4.215764e-001 5.661975e-001
      outer loop
         vertex 1.050292e+003 5.412034e+002 1.887220e+003
         vertex 1.050792e+003 5.415248e+002 1.886837e+003
         vertex 1.050292e+003 5.419173e+002 1.887720e+003
      endloop
   endfacet
   facet normal 7.083035e-001 -3.878641e-001 5.898032e-001
      outer loop
         vertex 1.050292e+003 5.419173e+002 1.887720e+003
         vertex 1.050792e+003 5.415248e+002 1.886837e+003
         vertex 1.050792e+003 5.421673e+002 1.887287e+003
      endloop
   endfacet
   facet normal 7.083034e-001 -3.168525e-001 6.308017e-001
      outer loop
         vertex 1.050292e+003 5.419173e+002 1.887720e+003
         vertex 1.050792e+003 5.421673e+002 1.887287e+003
         vertex 1.050292e+003 5.427072e+002 1.888088e+003
      endloop
   endfacet
   facet normal 7.083035e-001 -2.795533e-001 6.481946e-001
      outer loop
         vertex 1.050292e+003 5.427072e+002 1.888088e+003
         vertex 1.050792e+003 5.421673e+002 1.887287e+003
         vertex 1.050792e+003 5.428783e+002 1.887619e+003
      endloop
   endfacet
   facet normal 7.083035e-001 -2.025012e-001 6.762393e-001
      outer loop
         vertex 1.050292e+003 5.427072e+002 1.888088e+003
         vertex 1.050792e+003 5.428783e+002 1.887619e+003
         vertex 1.050292e+003 5.435491e+002 1.888314e+003
      endloop
   endfacet
   facet normal 7.083034e-001 -1.627484e-001 6.868910e-001
      outer loop
         vertex 1.050292e+003 5.435491e+002 1.888314e+003
         vertex 1.050792e+003 5.428783e+002 1.887619e+003
         vertex 1.050792e+003 5.436359e+002 1.887822e+003
      endloop
   endfacet
   facet normal 7.083034e-001 -8.199707e-002 7.011296e-001
      outer loop
         vertex 1.050292e+003 5.435491e+002 1.888314e+003
         vertex 1.050792e+003 5.436359e+002 1.887822e+003
         vertex 1.050292e+003 5.444173e+002 1.888390e+003
      endloop
   endfacet
   facet normal 7.083035e-001 -4.099854e-002 7.047165e-001
      outer loop
         vertex 1.050292e+003 5.444173e+002 1.888390e+003
         vertex 1.050792e+003 5.436359e+002 1.887822e+003
         vertex 1.050792e+003 5.444173e+002 1.887890e+003
      endloop
   endfacet
   facet normal 7.083035e-001 4.099854e-002 7.047165e-001
      outer loop
         vertex 1.050292e+003 5.444173e+002 1.888390e+003
         vertex 1.050792e+003 5.444173e+002 1.887890e+003
         vertex 1.050292e+003 5.452856e+002 1.888314e+003
      endloop
   endfacet
   facet normal 7.083034e-001 8.199707e-002 7.011296e-001
      outer loop
         vertex 1.050292e+003 5.452856e+002 1.888314e+003
         vertex 1.050792e+003 5.444173e+002 1.887890e+003
         vertex 1.050792e+003 5.451987e+002 1.887822e+003
      endloop
   endfacet
   facet normal 7.083034e-001 1.627484e-001 6.868910e-001
      outer loop
         vertex 1.050292e+003 5.452856e+002 1.888314e+003
         vertex 1.050792e+003 5.451987e+002 1.887822e+003
         vertex 1.050292e+003 5.461274e+002 1.888088e+003
      endloop
   endfacet
   facet normal 7.083035e-001 2.025012e-001 6.762393e-001
      outer loop
         vertex 1.050292e+003 5.461274e+002 1.888088e+003
         vertex 1.050792e+003 5.451987e+002 1.887822e+003
         vertex 1.050792e+003 5.459564e+002 1.887619e+003
      endloop
   endfacet
   facet normal 7.083035e-001 2.795533e-001 6.481946e-001
      outer loop
         vertex 1.050292e+003 5.461274e+002 1.888088e+003
         vertex 1.050792e+003 5.459564e+002 1.887619e+003
         vertex 1.050292e+003 5.469173e+002 1.887720e+003
      endloop
   endfacet
   facet normal 7.083034e-001 3.168525e-001 6.308017e-001
      outer loop
         vertex 1.050292e+003 5.469173e+002 1.887720e+003
         vertex 1.050792e+003 5.459564e+002 1.887619e+003
         vertex 1.050792e+003 5.466674e+002 1.887287e+003
      endloop
   endfacet
   facet normal 7.083035e-001 3.878641e-001 5.898032e-001
      outer loop
         vertex 1.050292e+003 5.469173e+002 1.887720e+003
         vertex 1.050792e+003 5.466674e+002 1.887287e+003
         vertex 1.050292e+003 5.476313e+002 1.887220e+003
      endloop
   endfacet
   facet normal 7.083035e-001 4.215764e-001 5.661975e-001
      outer loop
         vertex 1.050292e+003 5.476313e+002 1.887220e+003
         vertex 1.050792e+003 5.466674e+002 1.887287e+003
         vertex 1.050792e+003 5.473099e+002 1.886837e+003
      endloop
   endfacet
   facet normal 7.083035e-001 4.843898e-001 5.134908e-001
      outer loop
         vertex 1.050292e+003 5.476313e+002 1.887220e+003
         vertex 1.050792e+003 5.473099e+002 1.886837e+003
         vertex 1.050292e+003 5.482476e+002 1.886604e+003
      endloop
   endfacet
   facet normal 7.083035e-001 5.134908e-001 4.843898e-001
      outer loop
         vertex 1.050292e+003 5.482476e+002 1.886604e+003
         vertex 1.050792e+003 5.473099e+002 1.886837e+003
         vertex 1.050792e+003 5.478646e+002 1.886282e+003
      endloop
   endfacet
   facet normal 7.083035e-001 5.661975e-001 4.215764e-001
      outer loop
         vertex 1.050292e+003 5.482476e+002 1.886604e+003
         vertex 1.050792e+003 5.478646e+002 1.886282e+003
         vertex 1.050292e+003 5.487475e+002 1.885890e+003
      endloop
   endfacet
   facet normal 7.083035e-001 5.898032e-001 3.878641e-001
      outer loop
         vertex 1.050292e+003 5.487475e+002 1.885890e+003
         vertex 1.050792e+003 5.478646e+002 1.886282e+003
         vertex 1.050792e+003 5.483145e+002 1.885640e+003
      endloop
   endfacet
   facet normal 7.083034e-001 6.308017e-001 3.168525e-001
      outer loop
         vertex 1.050292e+003 5.487475e+002 1.885890e+003
         vertex 1.050792e+003 5.483145e+002 1.885640e+003
         vertex 1.050292e+003 5.491158e+002 1.885100e+003
      endloop
   endfacet
   facet normal 7.083035e-001 6.481946e-001 2.795533e-001
      outer loop
         vertex 1.050292e+003 5.491158e+002 1.885100e+003
         vertex 1.050792e+003 5.483145e+002 1.885640e+003
         vertex 1.050792e+003 5.486460e+002 1.884929e+003
      endloop
   endfacet
   facet normal 7.083035e-001 6.762393e-001 2.025012e-001
      outer loop
         vertex 1.050292e+003 5.491158e+002 1.885100e+003
         vertex 1.050792e+003 5.486460e+002 1.884929e+003
         vertex 1.050292e+003 5.493414e+002 1.884258e+003
      endloop
   endfacet
   facet normal 7.083034e-001 6.868910e-001 1.627484e-001
      outer loop
         vertex 1.050292e+003 5.493414e+002 1.884258e+003
         vertex 1.050792e+003 5.486460e+002 1.884929e+003
         vertex 1.050792e+003 5.488490e+002 1.884171e+003
      endloop
   endfacet
   facet normal 7.083034e-001 7.011296e-001 8.199707e-002
      outer loop
         vertex 1.050292e+003 5.493414e+002 1.884258e+003
         vertex 1.050792e+003 5.488490e+002 1.884171e+003
         vertex 1.050292e+003 5.494173e+002 1.883390e+003
      endloop
   endfacet
   facet normal 7.083035e-001 7.047165e-001 4.099854e-002
      outer loop
         vertex 1.050292e+003 5.494173e+002 1.883390e+003
         vertex 1.050792e+003 5.488490e+002 1.884171e+003
         vertex 1.050792e+003 5.489174e+002 1.883390e+003
      endloop
   endfacet
   facet normal 7.083035e-001 7.047165e-001 -4.099854e-002
      outer loop
         vertex 1.050292e+003 5.494173e+002 1.883390e+003
         vertex 1.050792e+003 5.489174e+002 1.883390e+003
         vertex 1.050292e+003 5.493414e+002 1.882522e+003
      endloop
   endfacet
   facet normal 7.083034e-001 7.011296e-001 -8.199707e-002
      outer loop
         vertex 1.050292e+003 5.493414e+002 1.882522e+003
         vertex 1.050792e+003 5.489174e+002 1.883390e+003
         vertex 1.050792e+003 5.488490e+002 1.882609e+003
      endloop
   endfacet
   facet normal 7.083034e-001 6.868910e-001 -1.627484e-001
      outer loop
         vertex 1.050292e+003 5.493414e+002 1.882522e+003
         vertex 1.050792e+003 5.488490e+002 1.882609e+003
         vertex 1.050292e+003 5.491158e+002 1.881680e+003
      endloop
   endfacet
   facet normal 7.083035e-001 6.762393e-001 -2.025012e-001
      outer loop
         vertex 1.050292e+003 5.491158e+002 1.881680e+003
         vertex 1.050792e+003 5.488490e+002 1.882609e+003
         vertex 1.050792e+003 5.486460e+002 1.881851e+003
      endloop
   endfacet
   facet normal 7.083035e-001 6.481946e-001 -2.795533e-001
      outer loop
         vertex 1.050292e+003 5.491158e+002 1.881680e+003
         vertex 1.050792e+003 5.486460e+002 1.881851e+003
         vertex 1.050292e+003 5.487475e+002 1.880890e+003
      endloop
   endfacet
   facet normal 7.083034e-001 6.308017e-001 -3.168525e-001
      outer loop
         vertex 1.050292e+003 5.487475e+002 1.880890e+003
         vertex 1.050792e+003 5.486460e+002 1.881851e+003
         vertex 1.050792e+003 5.483145e+002 1.881140e+003
      endloop
   endfacet
   facet normal 7.083035e-001 5.898032e-001 -3.878641e-001
      outer loop
         vertex 1.050292e+003 5.487475e+002 1.880890e+003
         vertex 1.050792e+003 5.483145e+002 1.881140e+003
         vertex 1.050292e+003 5.482476e+002 1.880176e+003
      endloop
   endfacet
   facet normal 7.083035e-001 5.661975e-001 -4.215764e-001
      outer loop
         vertex 1.050292e+003 5.482476e+002 1.880176e+003
         vertex 1.050792e+003 5.483145e+002 1.881140e+003
         vertex 1.050792e+003 5.478646e+002 1.880497e+003
      endloop
   endfacet
   facet normal 7.083035e-001 5.134908e-001 -4.843898e-001
      outer loop
         vertex 1.050292e+003 5.482476e+002 1.880176e+003
         vertex 1.050792e+003 5.478646e+002 1.880497e+003
         vertex 1.050292e+003 5.476313e+002 1.879560e+003
      endloop
   endfacet
   facet normal 7.083035e-001 4.843898e-001 -5.134908e-001
      outer loop
         vertex 1.050292e+003 5.476313e+002 1.879560e+003
         vertex 1.050792e+003 5.478646e+002 1.880497e+003
         vertex 1.050792e+003 5.473099e+002 1.879943e+003
      endloop
   endfacet
   facet normal 7.083035e-001 4.215764e-001 -5.661975e-001
      outer loop
         vertex 1.050292e+003 5.476313e+002 1.879560e+003
         vertex 1.050792e+003 5.473099e+002 1.879943e+003
         vertex 1.050292e+003 5.469173e+002 1.879060e+003
      endloop
   endfacet
   facet normal 7.083035e-001 3.878641e-001 -5.898032e-001
      outer loop
         vertex 1.050292e+003 5.469173e+002 1.879060e+003
         vertex 1.050792e+003 5.473099e+002 1.879943e+003
         vertex 1.050792e+003 5.466674e+002 1.879493e+003
      endloop
   endfacet
   facet normal 7.083034e-001 3.168525e-001 -6.308017e-001
      outer loop
         vertex 1.050292e+003 5.469173e+002 1.879060e+003
         vertex 1.050792e+003 5.466674e+002 1.879493e+003
         vertex 1.050292e+003 5.461274e+002 1.878691e+003
      endloop
   endfacet
   facet normal 7.083035e-001 2.795533e-001 -6.481946e-001
      outer loop
         vertex 1.050292e+003 5.461274e+002 1.878691e+003
         vertex 1.050792e+003 5.466674e+002 1.879493e+003
         vertex 1.050792e+003 5.459564e+002 1.879161e+003
      endloop
   endfacet
   facet normal 7.083035e-001 2.025012e-001 -6.762393e-001
      outer loop
         vertex 1.050292e+003 5.461274e+002 1.878691e+003
         vertex 1.050792e+003 5.459564e+002 1.879161e+003
         vertex 1.050292e+003 5.452856e+002 1.878466e+003
      endloop
   endfacet
   facet normal 7.083034e-001 1.627484e-001 -6.868910e-001
      outer loop
         vertex 1.050292e+003 5.452856e+002 1.878466e+003
         vertex 1.050792e+003 5.459564e+002 1.879161e+003
         vertex 1.050792e+003 5.451987e+002 1.878958e+003
      endloop
   endfacet
   facet normal 7.083034e-001 8.199707e-002 -7.011296e-001
      outer loop
         vertex 1.050292e+003 5.452856e+002 1.878466e+003
         vertex 1.050792e+003 5.451987e+002 1.878958e+003
         vertex 1.050292e+003 5.444173e+002 1.878390e+003
      endloop
   endfacet
   facet normal 7.083035e-001 4.099854e-002 -7.047165e-001
      outer loop
         vertex 1.050292e+003 5.444173e+002 1.878390e+003
         vertex 1.050792e+003 5.451987e+002 1.878958e+003
         vertex 1.050792e+003 5.444173e+002 1.878890e+003
      endloop
   endfacet
   facet normal 7.083035e-001 -4.099854e-002 -7.047165e-001
      outer loop
         vertex 1.050292e+003 5.444173e+002 1.878390e+003
         vertex 1.050792e+003 5.444173e+002 1.878890e+003
         vertex 1.050292e+003 5.435491e+002 1.878466e+003
      endloop
   endfacet
   facet normal 7.083034e-001 -8.199707e-002 -7.011296e-001
      outer loop
         vertex 1.050292e+003 5.435491e+002 1.878466e+003
         vertex 1.050792e+003 5.444173e+002 1.878890e+003
         vertex 1.050792e+003 5.436359e+002 1.878958e+003
      endloop
   endfacet
   facet normal 7.083034e-001 -1.627484e-001 -6.868910e-001
      outer loop
         vertex 1.050292e+003 5.435491e+002 1.878466e+003
         vertex 1.050792e+003 5.436359e+002 1.878958e+003
         vertex 1.050292e+003 5.427072e+002 1.878691e+003
      endloop
   endfacet
   facet normal 7.083035e-001 -2.025012e-001 -6.762393e-001
      outer loop
         vertex 1.050292e+003 5.427072e+002 1.878691e+003
         vertex 1.050792e+003 5.436359e+002 1.878958e+003
         vertex 1.050792e+003 5.428783e+002 1.879161e+003
      endloop
   endfacet
   facet normal 7.083035e-001 -2.795533e-001 -6.481946e-001
      outer loop
         vertex 1.050292e+003 5.427072e+002 1.878691e+003
         vertex 1.050792e+003 5.428783e+002 1.879161e+003
         vertex 1.050292e+003 5.419173e+002 1.879060e+003
      endloop
   endfacet
   facet normal 7.083034e-001 -3.168525e-001 -6.308017e-001
      outer loop
         vertex 1.050292e+003 5.419173e+002 1.879060e+003
         vertex 1.050792e+003 5.428783e+002 1.879161e+003
         vertex 1.050792e+003 5.421673e+002 1.879493e+003
      endloop
   endfacet
   facet normal 7.083035e-001 -3.878641e-001 -5.898032e-001
      outer loop
         vertex 1.050292e+003 5.419173e+002 1.879060e+003
         vertex 1.050792e+003 5.421673e+002 1.879493e+003
         vertex 1.050292e+003 5.412034e+002 1.879560e+003
      endloop
   endfacet
   facet normal 7.083035e-001 -4.215764e-001 -5.661975e-001
      outer loop
         vertex 1.050292e+003 5.412034e+002 1.879560e+003
         vertex 1.050792e+003 5.421673e+002 1.879493e+003
         vertex 1.050792e+003 5.415248e+002 1.879943e+003
      endloop
   endfacet
   facet normal 7.083035e-001 -4.843898e-001 -5.134908e-001
      outer loop
         vertex 1.050292e+003 5.412034e+002 1.879560e+003
         vertex 1.050792e+003 5.415248e+002 1.879943e+003
         vertex 1.050292e+003 5.405871e+002 1.880176e+003
      endloop
   endfacet
   facet normal 7.083035e-001 -5.134908e-001 -4.843898e-001
      outer loop
         vertex 1.050292e+003 5.405871e+002 1.880176e+003
         vertex 1.050792e+003 5.415248e+002 1.879943e+003
         vertex 1.050792e+003 5.409702e+002 1.880497e+003
      endloop
   endfacet
   facet normal 7.083035e-001 -5.661975e-001 -4.215764e-001
      outer loop
         vertex 1.050292e+003 5.405871e+002 1.880176e+003
         vertex 1.050792e+003 5.409702e+002 1.880497e+003
         vertex 1.050292e+003 5.400872e+002 1.880890e+003
      endloop
   endfacet
   facet normal 7.083035e-001 -5.898032e-001 -3.878641e-001
      outer loop
         vertex 1.050292e+003 5.400872e+002 1.880890e+003
         vertex 1.050792e+003 5.409702e+002 1.880497e+003
         vertex 1.050792e+003 5.405202e+002 1.881140e+003
      endloop
   endfacet
   facet normal 7.083034e-001 -6.308017e-001 -3.168525e-001
      outer loop
         vertex 1.050292e+003 5.400872e+002 1.880890e+003
         vertex 1.050792e+003 5.405202e+002 1.881140e+003
         vertex 1.050292e+003 5.397189e+002 1.881680e+003
      endloop
   endfacet
   facet normal 7.083035e-001 -6.481946e-001 -2.795533e-001
      outer loop
         vertex 1.050292e+003 5.397189e+002 1.881680e+003
         vertex 1.050792e+003 5.405202e+002 1.881140e+003
         vertex 1.050792e+003 5.401887e+002 1.881851e+003
      endloop
   endfacet
   facet normal 7.083035e-001 -6.762393e-001 -2.025012e-001
      outer loop
         vertex 1.050292e+003 5.397189e+002 1.881680e+003
         vertex 1.050792e+003 5.401887e+002 1.881851e+003
         vertex 1.050292e+003 5.394933e+002 1.882522e+003
      endloop
   endfacet
   facet normal 7.083034e-001 -6.868910e-001 -1.627484e-001
      outer loop
         vertex 1.050292e+003 5.394933e+002 1.882522e+003
         vertex 1.050792e+003 5.401887e+002 1.881851e+003
         vertex 1.050792e+003 5.399857e+002 1.882609e+003
      endloop
   endfacet
   facet normal 7.083034e-001 -7.011296e-001 -8.199707e-002
      outer loop
         vertex 1.050292e+003 5.394933e+002 1.882522e+003
         vertex 1.050792e+003 5.399857e+002 1.882609e+003
         vertex 1.050292e+003 5.394173e+002 1.883390e+003
      endloop
   endfacet
   facet normal 7.083035e-001 -7.047165e-001 -4.099854e-002
      outer loop
         vertex 1.050292e+003 5.394173e+002 1.883390e+003
         vertex 1.050792e+003 5.399857e+002 1.882609e+003
         vertex 1.050792e+003 5.399174e+002 1.883390e+003
      endloop
   endfacet
   facet normal 7.083035e-001 -7.047165e-001 4.099854e-002
      outer loop
         vertex 1.050292e+003 5.394173e+002 1.883390e+003
         vertex 1.050792e+003 5.399174e+002 1.883390e+003
         vertex 1.050292e+003 5.394933e+002 1.884258e+003
      endloop
   endfacet
   facet normal 7.083034e-001 -7.011296e-001 8.199707e-002
      outer loop
         vertex 1.050292e+003 5.394933e+002 1.884258e+003
         vertex 1.050792e+003 5.399174e+002 1.883390e+003
         vertex 1.050792e+003 5.399857e+002 1.884171e+003
      endloop
   endfacet
   facet normal 1.000000e+000 6.245005e-017 6.459731e-018
      outer loop
         vertex 1.046792e+003 5.487475e+002 1.880890e+003
         vertex 1.046792e+003 5.400872e+002 1.880890e+003
         vertex 1.046792e+003 5.482476e+002 1.880176e+003
      endloop
   endfacet
   facet normal 1.000000e+000 6.245005e-017 6.459731e-018
      outer loop
         vertex 1.046792e+003 5.482476e+002 1.880176e+003
         vertex 1.046792e+003 5.400872e+002 1.880890e+003
         vertex 1.046792e+003 5.405871e+002 1.880176e+003
      endloop
   endfacet
   facet normal 1.000000e+000 6.245005e-017 6.459731e-018
      outer loop
         vertex 1.046792e+003 5.482476e+002 1.880176e+003
         vertex 1.046792e+003 5.405871e+002 1.880176e+003
         vertex 1.046792e+003 5.476313e+002 1.879560e+003
      endloop
   endfacet
   facet normal 1.000000e+000 6.245005e-017 6.459731e-018
      outer loop
         vertex 1.046792e+003 5.476313e+002 1.879560e+003
         vertex 1.046792e+003 5.405871e+002 1.880176e+003
         vertex 1.046792e+003 5.412034e+002 1.879560e+003
      endloop
   endfacet
   facet normal 1.000000e+000 6.245005e-017 6.459731e-018
      outer loop
         vertex 1.046792e+003 5.476313e+002 1.879560e+003
         vertex 1.046792e+003 5.412034e+002 1.879560e+003
         vertex 1.046792e+003 5.469173e+002 1.879060e+003
      endloop
   endfacet
   facet normal 1.000000e+000 6.245005e-017 6.459731e-018
      outer loop
         vertex 1.046792e+003 5.469173e+002 1.879060e+003
         vertex 1.046792e+003 5.412034e+002 1.879560e+003
         vertex 1.046792e+003 5.419173e+002 1.879060e+003
      endloop
   endfacet
   facet normal 1.000000e+000 6.245005e-017 6.459731e-018
      outer loop
         vertex 1.046792e+003 5.469173e+002 1.879060e+003
         vertex 1.046792e+003 5.419173e+002 1.879060e+003
         vertex 1.046792e+003 5.461274e+002 1.878691e+003
      endloop
   endfacet
   facet normal 1.000000e+000 6.245005e-017 6.459731e-018
      outer loop
         vertex 1.046792e+003 5.461274e+002 1.878691e+003
         vertex 1.046792e+003 5.419173e+002 1.879060e+003
         vertex 1.046792e+003 5.427072e+002 1.878691e+003
      endloop
   endfacet
   facet normal 1.000000e+000 6.245005e-017 6.459731e-018
      outer loop
         vertex 1.046792e+003 5.461274e+002 1.878691e+003
         vertex 1.046792e+003 5.427072e+002 1.878691e+003
         vertex 1.046792e+003 5.452856e+002 1.878466e+003
      endloop
   endfacet
   facet normal 1.000000e+000 6.245005e-017 6.459731e-018
      outer loop
         vertex 1.046792e+003 5.452856e+002 1.878466e+003
         vertex 1.046792e+003 5.427072e+002 1.878691e+003
         vertex 1.046792e+003 5.435491e+002 1.878466e+003
      endloop
   endfacet
   facet normal 1.000000e+000 6.245005e-017 6.459731e-018
      outer loop
         vertex 1.046792e+003 5.452856e+002 1.878466e+003
         vertex 1.046792e+003 5.435491e+002 1.878466e+003
         vertex 1.046792e+003 5.444173e+002 1.878390e+003
      endloop
   endfacet
   facet normal -1.000000e+000 -6.245005e-017 -6.459731e-018
      outer loop
         vertex 1.049792e+003 5.400872e+002 1.880890e+003
         vertex 1.049792e+003 5.487475e+002 1.880890e+003
         vertex 1.049792e+003 5.482476e+002 1.880176e+003
      endloop
   endfacet
   facet normal -1.000000e+000 -6.245005e-017 -6.459731e-018
      outer loop
         vertex 1.049792e+003 5.405871e+002 1.880176e+003
         vertex 1.049792e+003 5.400872e+002 1.880890e+003
         vertex 1.049792e+003 5.412034e+002 1.879560e+003
      endloop
   endfacet
   facet normal -1.000000e+000 -6.245005e-017 -6.459731e-018
      outer loop
         vertex 1.049792e+003 5.412034e+002 1.879560e+003
         vertex 1.049792e+003 5.400872e+002 1.880890e+003
         vertex 1.049792e+003 5.482476e+002 1.880176e+003
      endloop
   endfacet
   facet normal -1.000000e+000 -6.245005e-017 -6.459731e-018
      outer loop
         vertex 1.049792e+003 5.412034e+002 1.879560e+003
         vertex 1.049792e+003 5.482476e+002 1.880176e+003
         vertex 1.049792e+003 5.419173e+002 1.879060e+003
      endloop
   endfacet
   facet normal -1.000000e+000 -6.245005e-017 -6.459731e-018
      outer loop
         vertex 1.049792e+003 5.476313e+002 1.879560e+003
         vertex 1.049792e+003 5.469173e+002 1.879060e+003
         vertex 1.049792e+003 5.482476e+002 1.880176e+003
      endloop
   endfacet
   facet normal -1.000000e+000 -6.245005e-017 -6.459731e-018
      outer loop
         vertex 1.049792e+003 5.482476e+002 1.880176e+003
         vertex 1.049792e+003 5.469173e+002 1.879060e+003
         vertex 1.049792e+003 5.461274e+002 1.878691e+003
      endloop
   endfacet
   facet normal -1.000000e+000 -6.245005e-017 -6.459731e-018
      outer loop
         vertex 1.049792e+003 5.427072e+002 1.878691e+003
         vertex 1.049792e+003 5.419173e+002 1.879060e+003
         vertex 1.049792e+003 5.435491e+002 1.878466e+003
      endloop
   endfacet
   facet normal -1.000000e+000 -6.245005e-017 -6.459731e-018
      outer loop
         vertex 1.049792e+003 5.435491e+002 1.878466e+003
         vertex 1.049792e+003 5.419173e+002 1.879060e+003
         vertex 1.049792e+003 5.482476e+002 1.880176e+003
      endloop
   endfacet
   facet normal -1.000000e+000 -6.245005e-017 -6.459731e-018
      outer loop
         vertex 1.049792e+003 5.435491e+002 1.878466e+003
         vertex 1.049792e+003 5.482476e+002 1.880176e+003
         vertex 1.049792e+003 5.444173e+002 1.878390e+003
      endloop
   endfacet
   facet normal -1.000000e+000 -6.245005e-017 -6.459731e-018
      outer loop
         vertex 1.049792e+003 5.444173e+002 1.878390e+003
         vertex 1.049792e+003 5.482476e+002 1.880176e+003
         vertex 1.049792e+003 5.461274e+002 1.878691e+003
      endloop
   endfacet
   facet normal -1.000000e+000 -6.245005e-017 -6.459731e-018
      outer loop
         vertex 1.049792e+003 5.444173e+002 1.878390e+003
         vertex 1.049792e+003 5.461274e+002 1.878691e+003
         vertex 1.049792e+003 5.452856e+002 1.878466e+003
      endloop
   endfacet
   facet normal 6.459731e-018 -2.790254e-017 -1.000000e+000
      outer loop
         vertex 1.049792e+003 5.487475e+002 1.880890e+003
         vertex 1.049792e+003 5.400872e+002 1.880890e+003
         vertex 1.046792e+003 5.487475e+002 1.880890e+003
      endloop
   endfacet
   facet normal 6.459731e-018 -2.790254e-017 -1.000000e+000
      outer loop
         vertex 1.046792e+003 5.487475e+002 1.880890e+003
         vertex 1.049792e+003 5.400872e+002 1.880890e+003
         vertex 1.046792e+003 5.400872e+002 1.880890e+003
      endloop
   endfacet
endsolid