solid 09.025.00.00.000 - 09.025.00.08.000-1 09.025.00.08.008-2
   facet normal -2.266294e-016 -1.000000e+000 -2.206199e-005
      outer loop
         vertex 1.226292e+003 1.331416e+003 1.948390e+003
         vertex 1.226292e+003 1.331418e+003 1.873390e+003
         vertex 1.234292e+003 1.331416e+003 1.948390e+003
      endloop
   endfacet
   facet normal -2.266294e-016 -1.000000e+000 -2.206199e-005
      outer loop
         vertex 1.234292e+003 1.331416e+003 1.948390e+003
         vertex 1.226292e+003 1.331418e+003 1.873390e+003
         vertex 1.234292e+003 1.331418e+003 1.873390e+003
      endloop
   endfacet
   facet normal -8.254280e-017 -2.206199e-005 1.000000e+000
      outer loop
         vertex 1.226292e+003 1.353416e+003 1.948390e+003
         vertex 1.226292e+003 1.331416e+003 1.948390e+003
         vertex 1.234292e+003 1.353416e+003 1.948390e+003
      endloop
   endfacet
   facet normal -8.254280e-017 -2.206199e-005 1.000000e+000
      outer loop
         vertex 1.234292e+003 1.353416e+003 1.948390e+003
         vertex 1.226292e+003 1.331416e+003 1.948390e+003
         vertex 1.234292e+003 1.331416e+003 1.948390e+003
      endloop
   endfacet
   facet normal 2.266294e-016 1.000000e+000 2.206199e-005
      outer loop
         vertex 1.226292e+003 1.353417e+003 1.877390e+003
         vertex 1.226292e+003 1.353416e+003 1.948390e+003
         vertex 1.234292e+003 1.353417e+003 1.877390e+003
      endloop
   endfacet
   facet normal 2.266294e-016 1.000000e+000 2.206199e-005
      outer loop
         vertex 1.234292e+003 1.353417e+003 1.877390e+003
         vertex 1.226292e+003 1.353416e+003 1.948390e+003
         vertex 1.234292e+003 1.353416e+003 1.948390e+003
      endloop
   endfacet
   facet normal 8.254280e-017 2.206199e-005 -1.000000e+000
      outer loop
         vertex 1.234292e+003 1.349418e+003 1.873390e+003
         vertex 1.234292e+003 1.331418e+003 1.873390e+003
         vertex 1.226292e+003 1.349418e+003 1.873390e+003
      endloop
   endfacet
   facet normal 8.254280e-017 2.206199e-005 -1.000000e+000
      outer loop
         vertex 1.226292e+003 1.349418e+003 1.873390e+003
         vertex 1.234292e+003 1.331418e+003 1.873390e+003
         vertex 1.226292e+003 1.331418e+003 1.873390e+003
      endloop
   endfacet
   facet normal -1.000000e+000 2.266313e-016 -8.253781e-017
      outer loop
         vertex 1.226292e+003 1.344470e+003 1.877752e+003
         vertex 1.226292e+003 1.349418e+003 1.873390e+003
         vertex 1.226292e+003 1.343459e+003 1.877481e+003
      endloop
   endfacet
   facet normal -1.000000e+000 2.266313e-016 -8.253781e-017
      outer loop
         vertex 1.226292e+003 1.343459e+003 1.877481e+003
         vertex 1.226292e+003 1.349418e+003 1.873390e+003
         vertex 1.226292e+003 1.342417e+003 1.877390e+003
      endloop
   endfacet
   facet normal -1.000000e+000 2.266313e-016 -8.253781e-017
      outer loop
         vertex 1.226292e+003 1.347012e+003 1.941247e+003
         vertex 1.226292e+003 1.346273e+003 1.941986e+003
         vertex 1.226292e+003 1.353416e+003 1.948390e+003
      endloop
   endfacet
   facet normal -1.000000e+000 2.266313e-016 -8.253781e-017
      outer loop
         vertex 1.226292e+003 1.353416e+003 1.948390e+003
         vertex 1.226292e+003 1.346273e+003 1.941986e+003
         vertex 1.226292e+003 1.345416e+003 1.942586e+003
      endloop
   endfacet
   facet normal -1.000000e+000 2.266313e-016 -8.253781e-017
      outer loop
         vertex 1.226292e+003 1.342417e+003 1.877390e+003
         vertex 1.226292e+003 1.349418e+003 1.873390e+003
         vertex 1.226292e+003 1.341376e+003 1.877481e+003
      endloop
   endfacet
   facet normal -1.000000e+000 2.266313e-016 -8.253781e-017
      outer loop
         vertex 1.226292e+003 1.341376e+003 1.877481e+003
         vertex 1.226292e+003 1.349418e+003 1.873390e+003
         vertex 1.226292e+003 1.331418e+003 1.873390e+003
      endloop
   endfacet
   facet normal -1.000000e+000 2.266313e-016 -8.253781e-017
      outer loop
         vertex 1.226292e+003 1.341376e+003 1.877481e+003
         vertex 1.226292e+003 1.331418e+003 1.873390e+003
         vertex 1.226292e+003 1.340365e+003 1.877752e+003
      endloop
   endfacet
   facet normal -1.000000e+000 2.266313e-016 -8.253781e-017
      outer loop
         vertex 1.226292e+003 1.347614e+003 1.880390e+003
         vertex 1.226292e+003 1.348056e+003 1.881338e+003
         vertex 1.226292e+003 1.353417e+003 1.877390e+003
      endloop
   endfacet
   facet normal -1.000000e+000 2.266313e-016 -8.253781e-017
      outer loop
         vertex 1.226292e+003 1.353417e+003 1.877390e+003
         vertex 1.226292e+003 1.348056e+003 1.881338e+003
         vertex 1.226292e+003 1.348326e+003 1.882348e+003
      endloop
   endfacet
   facet normal -1.000000e+000 2.266313e-016 -8.253781e-017
      outer loop
         vertex 1.226292e+003 1.348325e+003 1.938432e+003
         vertex 1.226292e+003 1.348054e+003 1.939442e+003
         vertex 1.226292e+003 1.353416e+003 1.948390e+003
      endloop
   endfacet
   facet normal -1.000000e+000 2.266313e-016 -8.253781e-017
      outer loop
         vertex 1.226292e+003 1.353416e+003 1.948390e+003
         vertex 1.226292e+003 1.348054e+003 1.939442e+003
         vertex 1.226292e+003 1.347612e+003 1.940390e+003
      endloop
   endfacet
   facet normal -1.000000e+000 2.266313e-016 -8.253781e-017
      outer loop
         vertex 1.226292e+003 1.353416e+003 1.948390e+003
         vertex 1.226292e+003 1.347612e+003 1.940390e+003
         vertex 1.226292e+003 1.347012e+003 1.941247e+003
      endloop
   endfacet
   facet normal -1.000000e+000 2.266313e-016 -8.253781e-017
      outer loop
         vertex 1.226292e+003 1.337821e+003 1.879533e+003
         vertex 1.226292e+003 1.338561e+003 1.878794e+003
         vertex 1.226292e+003 1.331418e+003 1.873390e+003
      endloop
   endfacet
   facet normal -1.000000e+000 2.266313e-016 -8.253781e-017
      outer loop
         vertex 1.226292e+003 1.331418e+003 1.873390e+003
         vertex 1.226292e+003 1.338561e+003 1.878794e+003
         vertex 1.226292e+003 1.339417e+003 1.878194e+003
      endloop
   endfacet
   facet normal -1.000000e+000 2.266313e-016 -8.253781e-017
      outer loop
         vertex 1.226292e+003 1.331418e+003 1.873390e+003
         vertex 1.226292e+003 1.339417e+003 1.878194e+003
         vertex 1.226292e+003 1.340365e+003 1.877752e+003
      endloop
   endfacet
   facet normal -1.000000e+000 2.266313e-016 -8.253781e-017
      outer loop
         vertex 1.226292e+003 1.342416e+003 1.943390e+003
         vertex 1.226292e+003 1.331416e+003 1.948390e+003
         vertex 1.226292e+003 1.343458e+003 1.943299e+003
      endloop
   endfacet
   facet normal -1.000000e+000 2.266313e-016 -8.253781e-017
      outer loop
         vertex 1.226292e+003 1.343458e+003 1.943299e+003
         vertex 1.226292e+003 1.331416e+003 1.948390e+003
         vertex 1.226292e+003 1.353416e+003 1.948390e+003
      endloop
   endfacet
   facet normal -1.000000e+000 2.266313e-016 -8.253781e-017
      outer loop
         vertex 1.226292e+003 1.343458e+003 1.943299e+003
         vertex 1.226292e+003 1.353416e+003 1.948390e+003
         vertex 1.226292e+003 1.344468e+003 1.943028e+003
      endloop
   endfacet
   facet normal -1.000000e+000 2.266313e-016 -8.253781e-017
      outer loop
         vertex 1.226292e+003 1.344468e+003 1.943028e+003
         vertex 1.226292e+003 1.353416e+003 1.948390e+003
         vertex 1.226292e+003 1.345416e+003 1.942586e+003
      endloop
   endfacet
   facet normal -1.000000e+000 2.266313e-016 -8.253781e-017
      outer loop
         vertex 1.226292e+003 1.344470e+003 1.877752e+003
         vertex 1.226292e+003 1.345417e+003 1.878194e+003
         vertex 1.226292e+003 1.349418e+003 1.873390e+003
      endloop
   endfacet
   facet normal -1.000000e+000 2.266313e-016 -8.253781e-017
      outer loop
         vertex 1.226292e+003 1.349418e+003 1.873390e+003
         vertex 1.226292e+003 1.345417e+003 1.878194e+003
         vertex 1.226292e+003 1.346274e+003 1.878794e+003
      endloop
   endfacet
   facet normal -1.000000e+000 2.266313e-016 -8.253781e-017
      outer loop
         vertex 1.226292e+003 1.349418e+003 1.873390e+003
         vertex 1.226292e+003 1.346274e+003 1.878794e+003
         vertex 1.226292e+003 1.353417e+003 1.877390e+003
      endloop
   endfacet
   facet normal -1.000000e+000 2.266313e-016 -8.253781e-017
      outer loop
         vertex 1.226292e+003 1.353417e+003 1.877390e+003
         vertex 1.226292e+003 1.346274e+003 1.878794e+003
         vertex 1.226292e+003 1.347014e+003 1.879533e+003
      endloop
   endfacet
   facet normal -1.000000e+000 2.266313e-016 -8.253781e-017
      outer loop
         vertex 1.226292e+003 1.353417e+003 1.877390e+003
         vertex 1.226292e+003 1.347014e+003 1.879533e+003
         vertex 1.226292e+003 1.347614e+003 1.880390e+003
      endloop
   endfacet
   facet normal -1.000000e+000 2.266313e-016 -8.253781e-017
      outer loop
         vertex 1.226292e+003 1.331416e+003 1.948390e+003
         vertex 1.226292e+003 1.339416e+003 1.942586e+003
         vertex 1.226292e+003 1.338559e+003 1.941986e+003
      endloop
   endfacet
   facet normal -1.000000e+000 2.266313e-016 -8.253781e-017
      outer loop
         vertex 1.226292e+003 1.353417e+003 1.877390e+003
         vertex 1.226292e+003 1.347013e+003 1.933533e+003
         vertex 1.226292e+003 1.347612e+003 1.934390e+003
      endloop
   endfacet
   facet normal -1.000000e+000 2.266313e-016 -8.253781e-017
      outer loop
         vertex 1.226292e+003 1.342416e+003 1.943390e+003
         vertex 1.226292e+003 1.341374e+003 1.943299e+003
         vertex 1.226292e+003 1.331416e+003 1.948390e+003
      endloop
   endfacet
   facet normal -1.000000e+000 2.266313e-016 -8.253781e-017
      outer loop
         vertex 1.226292e+003 1.331416e+003 1.948390e+003
         vertex 1.226292e+003 1.341374e+003 1.943299e+003
         vertex 1.226292e+003 1.340364e+003 1.943028e+003
      endloop
   endfacet
   facet normal -1.000000e+000 2.266313e-016 -8.253781e-017
      outer loop
         vertex 1.226292e+003 1.331416e+003 1.948390e+003
         vertex 1.226292e+003 1.340364e+003 1.943028e+003
         vertex 1.226292e+003 1.339416e+003 1.942586e+003
      endloop
   endfacet
   facet normal -1.000000e+000 2.266313e-016 -8.253781e-017
      outer loop
         vertex 1.226292e+003 1.338559e+003 1.941986e+003
         vertex 1.226292e+003 1.337820e+003 1.941246e+003
         vertex 1.226292e+003 1.331416e+003 1.948390e+003
      endloop
   endfacet
   facet normal -1.000000e+000 2.266313e-016 -8.253781e-017
      outer loop
         vertex 1.226292e+003 1.331416e+003 1.948390e+003
         vertex 1.226292e+003 1.337820e+003 1.941246e+003
         vertex 1.226292e+003 1.337220e+003 1.940390e+003
      endloop
   endfacet
   facet normal -1.000000e+000 2.266313e-016 -8.253781e-017
      outer loop
         vertex 1.226292e+003 1.331416e+003 1.948390e+003
         vertex 1.226292e+003 1.337220e+003 1.940390e+003
         vertex 1.226292e+003 1.336778e+003 1.939442e+003
      endloop
   endfacet
   facet normal -1.000000e+000 2.266313e-016 -8.253781e-017
      outer loop
         vertex 1.226292e+003 1.348326e+003 1.882348e+003
         vertex 1.226292e+003 1.348417e+003 1.883390e+003
         vertex 1.226292e+003 1.353417e+003 1.877390e+003
      endloop
   endfacet
   facet normal -1.000000e+000 2.266313e-016 -8.253781e-017
      outer loop
         vertex 1.226292e+003 1.353417e+003 1.877390e+003
         vertex 1.226292e+003 1.348417e+003 1.883390e+003
         vertex 1.226292e+003 1.348326e+003 1.884432e+003
      endloop
   endfacet
   facet normal -1.000000e+000 2.266313e-016 -8.253781e-017
      outer loop
         vertex 1.226292e+003 1.353417e+003 1.877390e+003
         vertex 1.226292e+003 1.348326e+003 1.884432e+003
         vertex 1.226292e+003 1.344468e+003 1.931752e+003
      endloop
   endfacet
   facet normal -1.000000e+000 2.266313e-016 -8.253781e-017
      outer loop
         vertex 1.226292e+003 1.344468e+003 1.931752e+003
         vertex 1.226292e+003 1.345416e+003 1.932194e+003
         vertex 1.226292e+003 1.353417e+003 1.877390e+003
      endloop
   endfacet
   facet normal -1.000000e+000 2.266313e-016 -8.253781e-017
      outer loop
         vertex 1.226292e+003 1.353417e+003 1.877390e+003
         vertex 1.226292e+003 1.345416e+003 1.932194e+003
         vertex 1.226292e+003 1.346273e+003 1.932794e+003
      endloop
   endfacet
   facet normal -1.000000e+000 2.266313e-016 -8.253781e-017
      outer loop
         vertex 1.226292e+003 1.353417e+003 1.877390e+003
         vertex 1.226292e+003 1.346273e+003 1.932794e+003
         vertex 1.226292e+003 1.347013e+003 1.933533e+003
      endloop
   endfacet
   facet normal -1.000000e+000 2.266313e-016 -8.253781e-017
      outer loop
         vertex 1.226292e+003 1.344469e+003 1.889028e+003
         vertex 1.226292e+003 1.343459e+003 1.889299e+003
         vertex 1.226292e+003 1.344468e+003 1.931752e+003
      endloop
   endfacet
   facet normal -1.000000e+000 2.266313e-016 -8.253781e-017
      outer loop
         vertex 1.226292e+003 1.347612e+003 1.934390e+003
         vertex 1.226292e+003 1.348054e+003 1.935338e+003
         vertex 1.226292e+003 1.353417e+003 1.877390e+003
      endloop
   endfacet
   facet normal -1.000000e+000 2.266313e-016 -8.253781e-017
      outer loop
         vertex 1.226292e+003 1.353417e+003 1.877390e+003
         vertex 1.226292e+003 1.348054e+003 1.935338e+003
         vertex 1.226292e+003 1.348325e+003 1.936348e+003
      endloop
   endfacet
   facet normal -1.000000e+000 2.266313e-016 -8.253781e-017
      outer loop
         vertex 1.226292e+003 1.353417e+003 1.877390e+003
         vertex 1.226292e+003 1.348325e+003 1.936348e+003
         vertex 1.226292e+003 1.353416e+003 1.948390e+003
      endloop
   endfacet
   facet normal -1.000000e+000 2.266313e-016 -8.253781e-017
      outer loop
         vertex 1.226292e+003 1.353416e+003 1.948390e+003
         vertex 1.226292e+003 1.348325e+003 1.936348e+003
         vertex 1.226292e+003 1.348416e+003 1.937390e+003
      endloop
   endfacet
   facet normal -1.000000e+000 2.266313e-016 -8.253781e-017
      outer loop
         vertex 1.226292e+003 1.353416e+003 1.948390e+003
         vertex 1.226292e+003 1.348416e+003 1.937390e+003
         vertex 1.226292e+003 1.348325e+003 1.938432e+003
      endloop
   endfacet
   facet normal -1.000000e+000 2.266313e-016 -8.253781e-017
      outer loop
         vertex 1.226292e+003 1.336778e+003 1.935338e+003
         vertex 1.226292e+003 1.337220e+003 1.934390e+003
         vertex 1.226292e+003 1.331418e+003 1.873390e+003
      endloop
   endfacet
   facet normal -1.000000e+000 2.266313e-016 -8.253781e-017
      outer loop
         vertex 1.226292e+003 1.331418e+003 1.873390e+003
         vertex 1.226292e+003 1.337220e+003 1.934390e+003
         vertex 1.226292e+003 1.337820e+003 1.933533e+003
      endloop
   endfacet
   facet normal -1.000000e+000 2.266313e-016 -8.253781e-017
      outer loop
         vertex 1.226292e+003 1.331418e+003 1.873390e+003
         vertex 1.226292e+003 1.337820e+003 1.933533e+003
         vertex 1.226292e+003 1.338559e+003 1.932794e+003
      endloop
   endfacet
   facet normal -1.000000e+000 2.266313e-016 -8.253781e-017
      outer loop
         vertex 1.226292e+003 1.344468e+003 1.931752e+003
         vertex 1.226292e+003 1.343459e+003 1.889299e+003
         vertex 1.226292e+003 1.343458e+003 1.931481e+003
      endloop
   endfacet
   facet normal -1.000000e+000 2.266313e-016 -8.253781e-017
      outer loop
         vertex 1.226292e+003 1.336778e+003 1.939442e+003
         vertex 1.226292e+003 1.336507e+003 1.938432e+003
         vertex 1.226292e+003 1.331416e+003 1.948390e+003
      endloop
   endfacet
   facet normal -1.000000e+000 2.266313e-016 -8.253781e-017
      outer loop
         vertex 1.226292e+003 1.331416e+003 1.948390e+003
         vertex 1.226292e+003 1.336507e+003 1.938432e+003
         vertex 1.226292e+003 1.336416e+003 1.937390e+003
      endloop
   endfacet
   facet normal -1.000000e+000 2.266313e-016 -8.253781e-017
      outer loop
         vertex 1.226292e+003 1.331416e+003 1.948390e+003
         vertex 1.226292e+003 1.336416e+003 1.937390e+003
         vertex 1.226292e+003 1.331418e+003 1.873390e+003
      endloop
   endfacet
   facet normal -1.000000e+000 2.266313e-016 -8.253781e-017
      outer loop
         vertex 1.226292e+003 1.331418e+003 1.873390e+003
         vertex 1.226292e+003 1.336416e+003 1.937390e+003
         vertex 1.226292e+003 1.336507e+003 1.936348e+003
      endloop
   endfacet
   facet normal -1.000000e+000 2.266313e-016 -8.253781e-017
      outer loop
         vertex 1.226292e+003 1.331418e+003 1.873390e+003
         vertex 1.226292e+003 1.336507e+003 1.936348e+003
         vertex 1.226292e+003 1.336778e+003 1.935338e+003
      endloop
   endfacet
   facet normal -1.000000e+000 2.266313e-016 -8.253781e-017
      outer loop
         vertex 1.226292e+003 1.348326e+003 1.884432e+003
         vertex 1.226292e+003 1.348056e+003 1.885442e+003
         vertex 1.226292e+003 1.344468e+003 1.931752e+003
      endloop
   endfacet
   facet normal -1.000000e+000 2.266313e-016 -8.253781e-017
      outer loop
         vertex 1.226292e+003 1.344468e+003 1.931752e+003
         vertex 1.226292e+003 1.348056e+003 1.885442e+003
         vertex 1.226292e+003 1.347613e+003 1.886390e+003
      endloop
   endfacet
   facet normal -1.000000e+000 2.266313e-016 -8.253781e-017
      outer loop
         vertex 1.226292e+003 1.344468e+003 1.931752e+003
         vertex 1.226292e+003 1.347613e+003 1.886390e+003
         vertex 1.226292e+003 1.347013e+003 1.887247e+003
      endloop
   endfacet
   facet normal -1.000000e+000 2.266313e-016 -8.253781e-017
      outer loop
         vertex 1.226292e+003 1.347013e+003 1.887247e+003
         vertex 1.226292e+003 1.346274e+003 1.887986e+003
         vertex 1.226292e+003 1.344468e+003 1.931752e+003
      endloop
   endfacet
   facet normal -1.000000e+000 2.266313e-016 -8.253781e-017
      outer loop
         vertex 1.226292e+003 1.344468e+003 1.931752e+003
         vertex 1.226292e+003 1.346274e+003 1.887986e+003
         vertex 1.226292e+003 1.345417e+003 1.888586e+003
      endloop
   endfacet
   facet normal -1.000000e+000 2.266313e-016 -8.253781e-017
      outer loop
         vertex 1.226292e+003 1.344468e+003 1.931752e+003
         vertex 1.226292e+003 1.345417e+003 1.888586e+003
         vertex 1.226292e+003 1.344469e+003 1.889028e+003
      endloop
   endfacet
   facet normal -1.000000e+000 2.266313e-016 -8.253781e-017
      outer loop
         vertex 1.226292e+003 1.339417e+003 1.888586e+003
         vertex 1.226292e+003 1.338560e+003 1.887986e+003
         vertex 1.226292e+003 1.340364e+003 1.931752e+003
      endloop
   endfacet
   facet normal -1.000000e+000 2.266313e-016 -8.253781e-017
      outer loop
         vertex 1.226292e+003 1.340364e+003 1.931752e+003
         vertex 1.226292e+003 1.338560e+003 1.887986e+003
         vertex 1.226292e+003 1.337821e+003 1.887247e+003
      endloop
   endfacet
   facet normal -1.000000e+000 2.266313e-016 -8.253781e-017
      outer loop
         vertex 1.226292e+003 1.340364e+003 1.931752e+003
         vertex 1.226292e+003 1.337821e+003 1.887247e+003
         vertex 1.226292e+003 1.337221e+003 1.886390e+003
      endloop
   endfacet
   facet normal -1.000000e+000 2.266313e-016 -8.253781e-017
      outer loop
         vertex 1.226292e+003 1.343458e+003 1.931481e+003
         vertex 1.226292e+003 1.343459e+003 1.889299e+003
         vertex 1.226292e+003 1.342416e+003 1.931390e+003
      endloop
   endfacet
   facet normal -1.000000e+000 2.266313e-016 -8.253781e-017
      outer loop
         vertex 1.226292e+003 1.342416e+003 1.931390e+003
         vertex 1.226292e+003 1.343459e+003 1.889299e+003
         vertex 1.226292e+003 1.342417e+003 1.889390e+003
      endloop
   endfacet
   facet normal -1.000000e+000 2.266313e-016 -8.253781e-017
      outer loop
         vertex 1.226292e+003 1.342416e+003 1.931390e+003
         vertex 1.226292e+003 1.342417e+003 1.889390e+003
         vertex 1.226292e+003 1.341374e+003 1.931481e+003
      endloop
   endfacet
   facet normal -1.000000e+000 2.266313e-016 -8.253781e-017
      outer loop
         vertex 1.226292e+003 1.341374e+003 1.931481e+003
         vertex 1.226292e+003 1.342417e+003 1.889390e+003
         vertex 1.226292e+003 1.341375e+003 1.889299e+003
      endloop
   endfacet
   facet normal -1.000000e+000 2.266313e-016 -8.253781e-017
      outer loop
         vertex 1.226292e+003 1.341374e+003 1.931481e+003
         vertex 1.226292e+003 1.341375e+003 1.889299e+003
         vertex 1.226292e+003 1.340364e+003 1.931752e+003
      endloop
   endfacet
   facet normal -1.000000e+000 2.266313e-016 -8.253781e-017
      outer loop
         vertex 1.226292e+003 1.340364e+003 1.931752e+003
         vertex 1.226292e+003 1.341375e+003 1.889299e+003
         vertex 1.226292e+003 1.340365e+003 1.889028e+003
      endloop
   endfacet
   facet normal -1.000000e+000 2.266313e-016 -8.253781e-017
      outer loop
         vertex 1.226292e+003 1.340364e+003 1.931752e+003
         vertex 1.226292e+003 1.340365e+003 1.889028e+003
         vertex 1.226292e+003 1.339417e+003 1.888586e+003
      endloop
   endfacet
   facet normal -1.000000e+000 2.266313e-016 -8.253781e-017
      outer loop
         vertex 1.226292e+003 1.337221e+003 1.886390e+003
         vertex 1.226292e+003 1.336779e+003 1.885442e+003
         vertex 1.226292e+003 1.340364e+003 1.931752e+003
      endloop
   endfacet
   facet normal -1.000000e+000 2.266313e-016 -8.253781e-017
      outer loop
         vertex 1.226292e+003 1.340364e+003 1.931752e+003
         vertex 1.226292e+003 1.336779e+003 1.885442e+003
         vertex 1.226292e+003 1.331418e+003 1.873390e+003
      endloop
   endfacet
   facet normal -1.000000e+000 2.266313e-016 -8.253781e-017
      outer loop
         vertex 1.226292e+003 1.340364e+003 1.931752e+003
         vertex 1.226292e+003 1.331418e+003 1.873390e+003
         vertex 1.226292e+003 1.339416e+003 1.932194e+003
      endloop
   endfacet
   facet normal -1.000000e+000 2.266313e-016 -8.253781e-017
      outer loop
         vertex 1.226292e+003 1.339416e+003 1.932194e+003
         vertex 1.226292e+003 1.331418e+003 1.873390e+003
         vertex 1.226292e+003 1.338559e+003 1.932794e+003
      endloop
   endfacet
   facet normal -1.000000e+000 2.266313e-016 -8.253781e-017
      outer loop
         vertex 1.226292e+003 1.336779e+003 1.885442e+003
         vertex 1.226292e+003 1.336509e+003 1.884432e+003
         vertex 1.226292e+003 1.331418e+003 1.873390e+003
      endloop
   endfacet
   facet normal -1.000000e+000 2.266313e-016 -8.253781e-017
      outer loop
         vertex 1.226292e+003 1.331418e+003 1.873390e+003
         vertex 1.226292e+003 1.336509e+003 1.884432e+003
         vertex 1.226292e+003 1.336417e+003 1.883390e+003
      endloop
   endfacet
   facet normal -1.000000e+000 2.266313e-016 -8.253781e-017
      outer loop
         vertex 1.226292e+003 1.331418e+003 1.873390e+003
         vertex 1.226292e+003 1.336417e+003 1.883390e+003
         vertex 1.226292e+003 1.336509e+003 1.882348e+003
      endloop
   endfacet
   facet normal -1.000000e+000 2.266313e-016 -8.253781e-017
      outer loop
         vertex 1.226292e+003 1.336509e+003 1.882348e+003
         vertex 1.226292e+003 1.336779e+003 1.881338e+003
         vertex 1.226292e+003 1.331418e+003 1.873390e+003
      endloop
   endfacet
   facet normal -1.000000e+000 2.266313e-016 -8.253781e-017
      outer loop
         vertex 1.226292e+003 1.331418e+003 1.873390e+003
         vertex 1.226292e+003 1.336779e+003 1.881338e+003
         vertex 1.226292e+003 1.337221e+003 1.880390e+003
      endloop
   endfacet
   facet normal -1.000000e+000 2.266313e-016 -8.253781e-017
      outer loop
         vertex 1.226292e+003 1.331418e+003 1.873390e+003
         vertex 1.226292e+003 1.337221e+003 1.880390e+003
         vertex 1.226292e+003 1.337821e+003 1.879533e+003
      endloop
   endfacet
   facet normal 1.000000e+000 -2.266313e-016 8.253781e-017
      outer loop
         vertex 1.234292e+003 1.340365e+003 1.877752e+003
         vertex 1.234292e+003 1.339417e+003 1.878194e+003
         vertex 1.234292e+003 1.331418e+003 1.873390e+003
      endloop
   endfacet
   facet normal 1.000000e+000 -2.266313e-016 8.253781e-017
      outer loop
         vertex 1.234292e+003 1.331418e+003 1.873390e+003
         vertex 1.234292e+003 1.339417e+003 1.878194e+003
         vertex 1.234292e+003 1.338561e+003 1.878794e+003
      endloop
   endfacet
   facet normal 1.000000e+000 -2.266313e-016 8.253781e-017
      outer loop
         vertex 1.234292e+003 1.331418e+003 1.873390e+003
         vertex 1.234292e+003 1.338561e+003 1.878794e+003
         vertex 1.234292e+003 1.337821e+003 1.879533e+003
      endloop
   endfacet
   facet normal 1.000000e+000 -2.266313e-016 8.253781e-017
      outer loop
         vertex 1.234292e+003 1.345417e+003 1.878194e+003
         vertex 1.234292e+003 1.344470e+003 1.877752e+003
         vertex 1.234292e+003 1.349418e+003 1.873390e+003
      endloop
   endfacet
   facet normal 1.000000e+000 -2.266313e-016 8.253781e-017
      outer loop
         vertex 1.234292e+003 1.331418e+003 1.873390e+003
         vertex 1.234292e+003 1.340364e+003 1.931752e+003
         vertex 1.234292e+003 1.339416e+003 1.932194e+003
      endloop
   endfacet
   facet normal 1.000000e+000 -2.266313e-016 8.253781e-017
      outer loop
         vertex 1.234292e+003 1.344470e+003 1.877752e+003
         vertex 1.234292e+003 1.343459e+003 1.877481e+003
         vertex 1.234292e+003 1.349418e+003 1.873390e+003
      endloop
   endfacet
   facet normal 1.000000e+000 -2.266313e-016 8.253781e-017
      outer loop
         vertex 1.234292e+003 1.349418e+003 1.873390e+003
         vertex 1.234292e+003 1.343459e+003 1.877481e+003
         vertex 1.234292e+003 1.342417e+003 1.877390e+003
      endloop
   endfacet
   facet normal 1.000000e+000 -2.266313e-016 8.253781e-017
      outer loop
         vertex 1.234292e+003 1.349418e+003 1.873390e+003
         vertex 1.234292e+003 1.342417e+003 1.877390e+003
         vertex 1.234292e+003 1.331418e+003 1.873390e+003
      endloop
   endfacet
   facet normal 1.000000e+000 -2.266313e-016 8.253781e-017
      outer loop
         vertex 1.234292e+003 1.331418e+003 1.873390e+003
         vertex 1.234292e+003 1.342417e+003 1.877390e+003
         vertex 1.234292e+003 1.341376e+003 1.877481e+003
      endloop
   endfacet
   facet normal 1.000000e+000 -2.266313e-016 8.253781e-017
      outer loop
         vertex 1.234292e+003 1.331418e+003 1.873390e+003
         vertex 1.234292e+003 1.341376e+003 1.877481e+003
         vertex 1.234292e+003 1.340365e+003 1.877752e+003
      endloop
   endfacet
   facet normal 1.000000e+000 -2.266313e-016 8.253781e-017
      outer loop
         vertex 1.234292e+003 1.337821e+003 1.879533e+003
         vertex 1.234292e+003 1.337221e+003 1.880390e+003
         vertex 1.234292e+003 1.331418e+003 1.873390e+003
      endloop
   endfacet
   facet normal 1.000000e+000 -2.266313e-016 8.253781e-017
      outer loop
         vertex 1.234292e+003 1.331418e+003 1.873390e+003
         vertex 1.234292e+003 1.337221e+003 1.880390e+003
         vertex 1.234292e+003 1.336779e+003 1.881338e+003
      endloop
   endfacet
   facet normal 1.000000e+000 -2.266313e-016 8.253781e-017
      outer loop
         vertex 1.234292e+003 1.331418e+003 1.873390e+003
         vertex 1.234292e+003 1.336779e+003 1.881338e+003
         vertex 1.234292e+003 1.336509e+003 1.882348e+003
      endloop
   endfacet
   facet normal 1.000000e+000 -2.266313e-016 8.253781e-017
      outer loop
         vertex 1.234292e+003 1.343458e+003 1.943299e+003
         vertex 1.234292e+003 1.344468e+003 1.943028e+003
         vertex 1.234292e+003 1.353416e+003 1.948390e+003
      endloop
   endfacet
   facet normal 1.000000e+000 -2.266313e-016 8.253781e-017
      outer loop
         vertex 1.234292e+003 1.353416e+003 1.948390e+003
         vertex 1.234292e+003 1.344468e+003 1.943028e+003
         vertex 1.234292e+003 1.345416e+003 1.942586e+003
      endloop
   endfacet
   facet normal 1.000000e+000 -2.266313e-016 8.253781e-017
      outer loop
         vertex 1.234292e+003 1.353416e+003 1.948390e+003
         vertex 1.234292e+003 1.345416e+003 1.942586e+003
         vertex 1.234292e+003 1.346273e+003 1.941986e+003
      endloop
   endfacet
   facet normal 1.000000e+000 -2.266313e-016 8.253781e-017
      outer loop
         vertex 1.234292e+003 1.337220e+003 1.940390e+003
         vertex 1.234292e+003 1.331416e+003 1.948390e+003
         vertex 1.234292e+003 1.336778e+003 1.939442e+003
      endloop
   endfacet
   facet normal 1.000000e+000 -2.266313e-016 8.253781e-017
      outer loop
         vertex 1.234292e+003 1.336778e+003 1.939442e+003
         vertex 1.234292e+003 1.331416e+003 1.948390e+003
         vertex 1.234292e+003 1.336507e+003 1.938432e+003
      endloop
   endfacet
   facet normal 1.000000e+000 -2.266313e-016 8.253781e-017
      outer loop
         vertex 1.234292e+003 1.339416e+003 1.932194e+003
         vertex 1.234292e+003 1.338559e+003 1.932794e+003
         vertex 1.234292e+003 1.331418e+003 1.873390e+003
      endloop
   endfacet
   facet normal 1.000000e+000 -2.266313e-016 8.253781e-017
      outer loop
         vertex 1.234292e+003 1.331418e+003 1.873390e+003
         vertex 1.234292e+003 1.338559e+003 1.932794e+003
         vertex 1.234292e+003 1.337820e+003 1.933533e+003
      endloop
   endfacet
   facet normal 1.000000e+000 -2.266313e-016 8.253781e-017
      outer loop
         vertex 1.234292e+003 1.331418e+003 1.873390e+003
         vertex 1.234292e+003 1.337820e+003 1.933533e+003
         vertex 1.234292e+003 1.337220e+003 1.934390e+003
      endloop
   endfacet
   facet normal 1.000000e+000 -2.266313e-016 8.253781e-017
      outer loop
         vertex 1.234292e+003 1.337220e+003 1.940390e+003
         vertex 1.234292e+003 1.337820e+003 1.941246e+003
         vertex 1.234292e+003 1.331416e+003 1.948390e+003
      endloop
   endfacet
   facet normal 1.000000e+000 -2.266313e-016 8.253781e-017
      outer loop
         vertex 1.234292e+003 1.331416e+003 1.948390e+003
         vertex 1.234292e+003 1.337820e+003 1.941246e+003
         vertex 1.234292e+003 1.338559e+003 1.941986e+003
      endloop
   endfacet
   facet normal 1.000000e+000 -2.266313e-016 8.253781e-017
      outer loop
         vertex 1.234292e+003 1.331416e+003 1.948390e+003
         vertex 1.234292e+003 1.338559e+003 1.941986e+003
         vertex 1.234292e+003 1.339416e+003 1.942586e+003
      endloop
   endfacet
   facet normal 1.000000e+000 -2.266313e-016 8.253781e-017
      outer loop
         vertex 1.234292e+003 1.339416e+003 1.942586e+003
         vertex 1.234292e+003 1.340364e+003 1.943028e+003
         vertex 1.234292e+003 1.331416e+003 1.948390e+003
      endloop
   endfacet
   facet normal 1.000000e+000 -2.266313e-016 8.253781e-017
      outer loop
         vertex 1.234292e+003 1.331416e+003 1.948390e+003
         vertex 1.234292e+003 1.340364e+003 1.943028e+003
         vertex 1.234292e+003 1.341374e+003 1.943299e+003
      endloop
   endfacet
   facet normal 1.000000e+000 -2.266313e-016 8.253781e-017
      outer loop
         vertex 1.234292e+003 1.331416e+003 1.948390e+003
         vertex 1.234292e+003 1.341374e+003 1.943299e+003
         vertex 1.234292e+003 1.353416e+003 1.948390e+003
      endloop
   endfacet
   facet normal 1.000000e+000 -2.266313e-016 8.253781e-017
      outer loop
         vertex 1.234292e+003 1.353416e+003 1.948390e+003
         vertex 1.234292e+003 1.341374e+003 1.943299e+003
         vertex 1.234292e+003 1.342416e+003 1.943390e+003
      endloop
   endfacet
   facet normal 1.000000e+000 -2.266313e-016 8.253781e-017
      outer loop
         vertex 1.234292e+003 1.353416e+003 1.948390e+003
         vertex 1.234292e+003 1.342416e+003 1.943390e+003
         vertex 1.234292e+003 1.343458e+003 1.943299e+003
      endloop
   endfacet
   facet normal 1.000000e+000 -2.266313e-016 8.253781e-017
      outer loop
         vertex 1.234292e+003 1.337220e+003 1.934390e+003
         vertex 1.234292e+003 1.336778e+003 1.935338e+003
         vertex 1.234292e+003 1.331418e+003 1.873390e+003
      endloop
   endfacet
   facet normal 1.000000e+000 -2.266313e-016 8.253781e-017
      outer loop
         vertex 1.234292e+003 1.331418e+003 1.873390e+003
         vertex 1.234292e+003 1.336778e+003 1.935338e+003
         vertex 1.234292e+003 1.336507e+003 1.936348e+003
      endloop
   endfacet
   facet normal 1.000000e+000 -2.266313e-016 8.253781e-017
      outer loop
         vertex 1.234292e+003 1.331418e+003 1.873390e+003
         vertex 1.234292e+003 1.336507e+003 1.936348e+003
         vertex 1.234292e+003 1.331416e+003 1.948390e+003
      endloop
   endfacet
   facet normal 1.000000e+000 -2.266313e-016 8.253781e-017
      outer loop
         vertex 1.234292e+003 1.331416e+003 1.948390e+003
         vertex 1.234292e+003 1.336507e+003 1.936348e+003
         vertex 1.234292e+003 1.336416e+003 1.937390e+003
      endloop
   endfacet
   facet normal 1.000000e+000 -2.266313e-016 8.253781e-017
      outer loop
         vertex 1.234292e+003 1.331416e+003 1.948390e+003
         vertex 1.234292e+003 1.336416e+003 1.937390e+003
         vertex 1.234292e+003 1.336507e+003 1.938432e+003
      endloop
   endfacet
   facet normal 1.000000e+000 -2.266313e-016 8.253781e-017
      outer loop
         vertex 1.234292e+003 1.346273e+003 1.941986e+003
         vertex 1.234292e+003 1.347012e+003 1.941247e+003
         vertex 1.234292e+003 1.353416e+003 1.948390e+003
      endloop
   endfacet
   facet normal 1.000000e+000 -2.266313e-016 8.253781e-017
      outer loop
         vertex 1.234292e+003 1.353416e+003 1.948390e+003
         vertex 1.234292e+003 1.347012e+003 1.941247e+003
         vertex 1.234292e+003 1.347612e+003 1.940390e+003
      endloop
   endfacet
   facet normal 1.000000e+000 -2.266313e-016 8.253781e-017
      outer loop
         vertex 1.234292e+003 1.353416e+003 1.948390e+003
         vertex 1.234292e+003 1.347612e+003 1.940390e+003
         vertex 1.234292e+003 1.348054e+003 1.939442e+003
      endloop
   endfacet
   facet normal 1.000000e+000 -2.266313e-016 8.253781e-017
      outer loop
         vertex 1.234292e+003 1.347013e+003 1.933533e+003
         vertex 1.234292e+003 1.353417e+003 1.877390e+003
         vertex 1.234292e+003 1.347612e+003 1.934390e+003
      endloop
   endfacet
   facet normal 1.000000e+000 -2.266313e-016 8.253781e-017
      outer loop
         vertex 1.234292e+003 1.347612e+003 1.934390e+003
         vertex 1.234292e+003 1.353417e+003 1.877390e+003
         vertex 1.234292e+003 1.348054e+003 1.935338e+003
      endloop
   endfacet
   facet normal 1.000000e+000 -2.266313e-016 8.253781e-017
      outer loop
         vertex 1.234292e+003 1.347013e+003 1.933533e+003
         vertex 1.234292e+003 1.346273e+003 1.932794e+003
         vertex 1.234292e+003 1.353417e+003 1.877390e+003
      endloop
   endfacet
   facet normal 1.000000e+000 -2.266313e-016 8.253781e-017
      outer loop
         vertex 1.234292e+003 1.353417e+003 1.877390e+003
         vertex 1.234292e+003 1.346273e+003 1.932794e+003
         vertex 1.234292e+003 1.345416e+003 1.932194e+003
      endloop
   endfacet
   facet normal 1.000000e+000 -2.266313e-016 8.253781e-017
      outer loop
         vertex 1.234292e+003 1.353417e+003 1.877390e+003
         vertex 1.234292e+003 1.345416e+003 1.932194e+003
         vertex 1.234292e+003 1.344468e+003 1.931752e+003
      endloop
   endfacet
   facet normal 1.000000e+000 -2.266313e-016 8.253781e-017
      outer loop
         vertex 1.234292e+003 1.337221e+003 1.886390e+003
         vertex 1.234292e+003 1.337821e+003 1.887247e+003
         vertex 1.234292e+003 1.340364e+003 1.931752e+003
      endloop
   endfacet
   facet normal 1.000000e+000 -2.266313e-016 8.253781e-017
      outer loop
         vertex 1.234292e+003 1.340364e+003 1.931752e+003
         vertex 1.234292e+003 1.337821e+003 1.887247e+003
         vertex 1.234292e+003 1.338560e+003 1.887986e+003
      endloop
   endfacet
   facet normal 1.000000e+000 -2.266313e-016 8.253781e-017
      outer loop
         vertex 1.234292e+003 1.348056e+003 1.881338e+003
         vertex 1.234292e+003 1.353417e+003 1.877390e+003
         vertex 1.234292e+003 1.348326e+003 1.882348e+003
      endloop
   endfacet
   facet normal 1.000000e+000 -2.266313e-016 8.253781e-017
      outer loop
         vertex 1.234292e+003 1.348326e+003 1.882348e+003
         vertex 1.234292e+003 1.353417e+003 1.877390e+003
         vertex 1.234292e+003 1.348417e+003 1.883390e+003
      endloop
   endfacet
   facet normal 1.000000e+000 -2.266313e-016 8.253781e-017
      outer loop
         vertex 1.234292e+003 1.348056e+003 1.881338e+003
         vertex 1.234292e+003 1.347614e+003 1.880390e+003
         vertex 1.234292e+003 1.353417e+003 1.877390e+003
      endloop
   endfacet
   facet normal 1.000000e+000 -2.266313e-016 8.253781e-017
      outer loop
         vertex 1.234292e+003 1.353417e+003 1.877390e+003
         vertex 1.234292e+003 1.347614e+003 1.880390e+003
         vertex 1.234292e+003 1.347014e+003 1.879533e+003
      endloop
   endfacet
   facet normal 1.000000e+000 -2.266313e-016 8.253781e-017
      outer loop
         vertex 1.234292e+003 1.353417e+003 1.877390e+003
         vertex 1.234292e+003 1.347014e+003 1.879533e+003
         vertex 1.234292e+003 1.349418e+003 1.873390e+003
      endloop
   endfacet
   facet normal 1.000000e+000 -2.266313e-016 8.253781e-017
      outer loop
         vertex 1.234292e+003 1.349418e+003 1.873390e+003
         vertex 1.234292e+003 1.347014e+003 1.879533e+003
         vertex 1.234292e+003 1.346274e+003 1.878794e+003
      endloop
   endfacet
   facet normal 1.000000e+000 -2.266313e-016 8.253781e-017
      outer loop
         vertex 1.234292e+003 1.349418e+003 1.873390e+003
         vertex 1.234292e+003 1.346274e+003 1.878794e+003
         vertex 1.234292e+003 1.345417e+003 1.878194e+003
      endloop
   endfacet
   facet normal 1.000000e+000 -2.266313e-016 8.253781e-017
      outer loop
         vertex 1.234292e+003 1.336509e+003 1.882348e+003
         vertex 1.234292e+003 1.336417e+003 1.883390e+003
         vertex 1.234292e+003 1.331418e+003 1.873390e+003
      endloop
   endfacet
   facet normal 1.000000e+000 -2.266313e-016 8.253781e-017
      outer loop
         vertex 1.234292e+003 1.331418e+003 1.873390e+003
         vertex 1.234292e+003 1.336417e+003 1.883390e+003
         vertex 1.234292e+003 1.336509e+003 1.884432e+003
      endloop
   endfacet
   facet normal 1.000000e+000 -2.266313e-016 8.253781e-017
      outer loop
         vertex 1.234292e+003 1.331418e+003 1.873390e+003
         vertex 1.234292e+003 1.336509e+003 1.884432e+003
         vertex 1.234292e+003 1.340364e+003 1.931752e+003
      endloop
   endfacet
   facet normal 1.000000e+000 -2.266313e-016 8.253781e-017
      outer loop
         vertex 1.234292e+003 1.340364e+003 1.931752e+003
         vertex 1.234292e+003 1.336509e+003 1.884432e+003
         vertex 1.234292e+003 1.336779e+003 1.885442e+003
      endloop
   endfacet
   facet normal 1.000000e+000 -2.266313e-016 8.253781e-017
      outer loop
         vertex 1.234292e+003 1.340364e+003 1.931752e+003
         vertex 1.234292e+003 1.336779e+003 1.885442e+003
         vertex 1.234292e+003 1.337221e+003 1.886390e+003
      endloop
   endfacet
   facet normal 1.000000e+000 -2.266313e-016 8.253781e-017
      outer loop
         vertex 1.234292e+003 1.338560e+003 1.887986e+003
         vertex 1.234292e+003 1.339417e+003 1.888586e+003
         vertex 1.234292e+003 1.340364e+003 1.931752e+003
      endloop
   endfacet
   facet normal 1.000000e+000 -2.266313e-016 8.253781e-017
      outer loop
         vertex 1.234292e+003 1.340364e+003 1.931752e+003
         vertex 1.234292e+003 1.339417e+003 1.888586e+003
         vertex 1.234292e+003 1.340365e+003 1.889028e+003
      endloop
   endfacet
   facet normal 1.000000e+000 -2.266313e-016 8.253781e-017
      outer loop
         vertex 1.234292e+003 1.340364e+003 1.931752e+003
         vertex 1.234292e+003 1.340365e+003 1.889028e+003
         vertex 1.234292e+003 1.341375e+003 1.889299e+003
      endloop
   endfacet
   facet normal 1.000000e+000 -2.266313e-016 8.253781e-017
      outer loop
         vertex 1.234292e+003 1.344469e+003 1.889028e+003
         vertex 1.234292e+003 1.345417e+003 1.888586e+003
         vertex 1.234292e+003 1.344468e+003 1.931752e+003
      endloop
   endfacet
   facet normal 1.000000e+000 -2.266313e-016 8.253781e-017
      outer loop
         vertex 1.234292e+003 1.344468e+003 1.931752e+003
         vertex 1.234292e+003 1.345417e+003 1.888586e+003
         vertex 1.234292e+003 1.346274e+003 1.887986e+003
      endloop
   endfacet
   facet normal 1.000000e+000 -2.266313e-016 8.253781e-017
      outer loop
         vertex 1.234292e+003 1.344468e+003 1.931752e+003
         vertex 1.234292e+003 1.346274e+003 1.887986e+003
         vertex 1.234292e+003 1.347013e+003 1.887247e+003
      endloop
   endfacet
   facet normal 1.000000e+000 -2.266313e-016 8.253781e-017
      outer loop
         vertex 1.234292e+003 1.348054e+003 1.939442e+003
         vertex 1.234292e+003 1.348325e+003 1.938432e+003
         vertex 1.234292e+003 1.353416e+003 1.948390e+003
      endloop
   endfacet
   facet normal 1.000000e+000 -2.266313e-016 8.253781e-017
      outer loop
         vertex 1.234292e+003 1.353416e+003 1.948390e+003
         vertex 1.234292e+003 1.348325e+003 1.938432e+003
         vertex 1.234292e+003 1.348416e+003 1.937390e+003
      endloop
   endfacet
   facet normal 1.000000e+000 -2.266313e-016 8.253781e-017
      outer loop
         vertex 1.234292e+003 1.353416e+003 1.948390e+003
         vertex 1.234292e+003 1.348416e+003 1.937390e+003
         vertex 1.234292e+003 1.353417e+003 1.877390e+003
      endloop
   endfacet
   facet normal 1.000000e+000 -2.266313e-016 8.253781e-017
      outer loop
         vertex 1.234292e+003 1.353417e+003 1.877390e+003
         vertex 1.234292e+003 1.348416e+003 1.937390e+003
         vertex 1.234292e+003 1.348325e+003 1.936348e+003
      endloop
   endfacet
   facet normal 1.000000e+000 -2.266313e-016 8.253781e-017
      outer loop
         vertex 1.234292e+003 1.353417e+003 1.877390e+003
         vertex 1.234292e+003 1.348325e+003 1.936348e+003
         vertex 1.234292e+003 1.348054e+003 1.935338e+003
      endloop
   endfacet
   facet normal 1.000000e+000 -2.266313e-016 8.253781e-017
      outer loop
         vertex 1.234292e+003 1.344469e+003 1.889028e+003
         vertex 1.234292e+003 1.344468e+003 1.931752e+003
         vertex 1.234292e+003 1.343459e+003 1.889299e+003
      endloop
   endfacet
   facet normal 1.000000e+000 -2.266313e-016 8.253781e-017
      outer loop
         vertex 1.234292e+003 1.343459e+003 1.889299e+003
         vertex 1.234292e+003 1.344468e+003 1.931752e+003
         vertex 1.234292e+003 1.343458e+003 1.931481e+003
      endloop
   endfacet
   facet normal 1.000000e+000 -2.266313e-016 8.253781e-017
      outer loop
         vertex 1.234292e+003 1.343459e+003 1.889299e+003
         vertex 1.234292e+003 1.343458e+003 1.931481e+003
         vertex 1.234292e+003 1.342417e+003 1.889390e+003
      endloop
   endfacet
   facet normal 1.000000e+000 -2.266313e-016 8.253781e-017
      outer loop
         vertex 1.234292e+003 1.342417e+003 1.889390e+003
         vertex 1.234292e+003 1.343458e+003 1.931481e+003
         vertex 1.234292e+003 1.342416e+003 1.931390e+003
      endloop
   endfacet
   facet normal 1.000000e+000 -2.266313e-016 8.253781e-017
      outer loop
         vertex 1.234292e+003 1.342417e+003 1.889390e+003
         vertex 1.234292e+003 1.342416e+003 1.931390e+003
         vertex 1.234292e+003 1.341375e+003 1.889299e+003
      endloop
   endfacet
   facet normal 1.000000e+000 -2.266313e-016 8.253781e-017
      outer loop
         vertex 1.234292e+003 1.341375e+003 1.889299e+003
         vertex 1.234292e+003 1.342416e+003 1.931390e+003
         vertex 1.234292e+003 1.341374e+003 1.931481e+003
      endloop
   endfacet
   facet normal 1.000000e+000 -2.266313e-016 8.253781e-017
      outer loop
         vertex 1.234292e+003 1.341375e+003 1.889299e+003
         vertex 1.234292e+003 1.341374e+003 1.931481e+003
         vertex 1.234292e+003 1.340364e+003 1.931752e+003
      endloop
   endfacet
   facet normal 1.000000e+000 -2.266313e-016 8.253781e-017
      outer loop
         vertex 1.234292e+003 1.347013e+003 1.887247e+003
         vertex 1.234292e+003 1.347613e+003 1.886390e+003
         vertex 1.234292e+003 1.344468e+003 1.931752e+003
      endloop
   endfacet
   facet normal 1.000000e+000 -2.266313e-016 8.253781e-017
      outer loop
         vertex 1.234292e+003 1.344468e+003 1.931752e+003
         vertex 1.234292e+003 1.347613e+003 1.886390e+003
         vertex 1.234292e+003 1.348056e+003 1.885442e+003
      endloop
   endfacet
   facet normal 1.000000e+000 -2.266313e-016 8.253781e-017
      outer loop
         vertex 1.234292e+003 1.344468e+003 1.931752e+003
         vertex 1.234292e+003 1.348056e+003 1.885442e+003
         vertex 1.234292e+003 1.353417e+003 1.877390e+003
      endloop
   endfacet
   facet normal 1.000000e+000 -2.266313e-016 8.253781e-017
      outer loop
         vertex 1.234292e+003 1.353417e+003 1.877390e+003
         vertex 1.234292e+003 1.348056e+003 1.885442e+003
         vertex 1.234292e+003 1.348326e+003 1.884432e+003
      endloop
   endfacet
   facet normal 1.000000e+000 -2.266313e-016 8.253781e-017
      outer loop
         vertex 1.234292e+003 1.353417e+003 1.877390e+003
         vertex 1.234292e+003 1.348326e+003 1.884432e+003
         vertex 1.234292e+003 1.348417e+003 1.883390e+003
      endloop
   endfacet
   facet normal -2.214529e-016 -9.983107e-001 -5.810116e-002
      outer loop
         vertex 1.234292e+003 1.348326e+003 1.884432e+003
         vertex 1.226292e+003 1.348417e+003 1.883390e+003
         vertex 1.234292e+003 1.348417e+003 1.883390e+003
      endloop
   endfacet
   facet normal -2.310409e-016 -9.983132e-001 5.805711e-002
      outer loop
         vertex 1.234292e+003 1.348417e+003 1.883390e+003
         vertex 1.226292e+003 1.348417e+003 1.883390e+003
         vertex 1.226292e+003 1.348326e+003 1.882348e+003
      endloop
   endfacet
   facet normal -2.346833e-016 -9.932333e-001 1.161364e-001
      outer loop
         vertex 1.234292e+003 1.348417e+003 1.883390e+003
         vertex 1.226292e+003 1.348326e+003 1.882348e+003
         vertex 1.234292e+003 1.348326e+003 1.882348e+003
      endloop
   endfacet
   facet normal -2.395544e-016 -9.730651e-001 2.305304e-001
      outer loop
         vertex 1.234292e+003 1.348326e+003 1.882348e+003
         vertex 1.226292e+003 1.348326e+003 1.882348e+003
         vertex 1.226292e+003 1.348056e+003 1.881338e+003
      endloop
   endfacet
   facet normal -2.407831e-016 -9.579769e-001 2.868451e-001
      outer loop
         vertex 1.234292e+003 1.348326e+003 1.882348e+003
         vertex 1.226292e+003 1.348056e+003 1.881338e+003
         vertex 1.234292e+003 1.348056e+003 1.881338e+003
      endloop
   endfacet
   facet normal -2.407893e-016 -9.182509e-001 3.959991e-001
      outer loop
         vertex 1.234292e+003 1.348056e+003 1.881338e+003
         vertex 1.226292e+003 1.348056e+003 1.881338e+003
         vertex 1.226292e+003 1.347614e+003 1.880390e+003
      endloop
   endfacet
   facet normal -2.395668e-016 -8.936130e-001 4.488383e-001
      outer loop
         vertex 1.234292e+003 1.348056e+003 1.881338e+003
         vertex 1.226292e+003 1.347614e+003 1.880390e+003
         vertex 1.234292e+003 1.347614e+003 1.880390e+003
      endloop
   endfacet
   facet normal -2.347078e-016 -8.355361e-001 5.494356e-001
      outer loop
         vertex 1.234292e+003 1.347614e+003 1.880390e+003
         vertex 1.226292e+003 1.347614e+003 1.880390e+003
         vertex 1.226292e+003 1.347014e+003 1.879533e+003
      endloop
   endfacet
   facet normal -2.310713e-016 -8.020971e-001 5.971937e-001
      outer loop
         vertex 1.234292e+003 1.347614e+003 1.880390e+003
         vertex 1.226292e+003 1.347014e+003 1.879533e+003
         vertex 1.234292e+003 1.347014e+003 1.879533e+003
      endloop
   endfacet
   facet normal -2.214949e-016 -7.274339e-001 6.861777e-001
      outer loop
         vertex 1.234292e+003 1.347014e+003 1.879533e+003
         vertex 1.226292e+003 1.347014e+003 1.879533e+003
         vertex 1.226292e+003 1.346274e+003 1.878794e+003
      endloop
   endfacet
   facet normal -2.155549e-016 -6.862098e-001 7.274036e-001
      outer loop
         vertex 1.234292e+003 1.347014e+003 1.879533e+003
         vertex 1.226292e+003 1.346274e+003 1.878794e+003
         vertex 1.234292e+003 1.346274e+003 1.878794e+003
      endloop
   endfacet
   facet normal -2.015519e-016 -5.972291e-001 8.020707e-001
      outer loop
         vertex 1.234292e+003 1.346274e+003 1.878794e+003
         vertex 1.226292e+003 1.346274e+003 1.878794e+003
         vertex 1.226292e+003 1.345417e+003 1.878194e+003
      endloop
   endfacet
   facet normal -1.934889e-016 -5.494724e-001 8.355119e-001
      outer loop
         vertex 1.234292e+003 1.346274e+003 1.878794e+003
         vertex 1.226292e+003 1.345417e+003 1.878194e+003
         vertex 1.234292e+003 1.345417e+003 1.878194e+003
      endloop
   endfacet
   facet normal -1.754850e-016 -4.488777e-001 8.935932e-001
      outer loop
         vertex 1.234292e+003 1.345417e+003 1.878194e+003
         vertex 1.226292e+003 1.345417e+003 1.878194e+003
         vertex 1.226292e+003 1.344470e+003 1.877752e+003
      endloop
   endfacet
   facet normal -1.655439e-016 -3.960396e-001 9.182334e-001
      outer loop
         vertex 1.234292e+003 1.345417e+003 1.878194e+003
         vertex 1.226292e+003 1.344470e+003 1.877752e+003
         vertex 1.234292e+003 1.344470e+003 1.877752e+003
      endloop
   endfacet
   facet normal -1.440859e-016 -2.868874e-001 9.579643e-001
      outer loop
         vertex 1.234292e+003 1.344470e+003 1.877752e+003
         vertex 1.226292e+003 1.344470e+003 1.877752e+003
         vertex 1.226292e+003 1.343459e+003 1.877481e+003
      endloop
   endfacet
   facet normal -1.325689e-016 -2.305733e-001 9.730549e-001
      outer loop
         vertex 1.234292e+003 1.344470e+003 1.877752e+003
         vertex 1.226292e+003 1.343459e+003 1.877481e+003
         vertex 1.234292e+003 1.343459e+003 1.877481e+003
      endloop
   endfacet
   facet normal -1.083089e-016 -1.161802e-001 9.932281e-001
      outer loop
         vertex 1.234292e+003 1.343459e+003 1.877481e+003
         vertex 1.226292e+003 1.343459e+003 1.877481e+003
         vertex 1.226292e+003 1.342417e+003 1.877390e+003
      endloop
   endfacet
   facet normal -9.556592e-017 -5.810116e-002 9.983107e-001
      outer loop
         vertex 1.234292e+003 1.343459e+003 1.877481e+003
         vertex 1.226292e+003 1.342417e+003 1.877390e+003
         vertex 1.234292e+003 1.342417e+003 1.877390e+003
      endloop
   endfacet
   facet normal -6.924103e-017 5.805711e-002 9.983132e-001
      outer loop
         vertex 1.234292e+003 1.342417e+003 1.877390e+003
         vertex 1.226292e+003 1.342417e+003 1.877390e+003
         vertex 1.226292e+003 1.341376e+003 1.877481e+003
      endloop
   endfacet
   facet normal -5.565916e-017 1.161364e-001 9.932333e-001
      outer loop
         vertex 1.234292e+003 1.342417e+003 1.877390e+003
         vertex 1.226292e+003 1.341376e+003 1.877481e+003
         vertex 1.234292e+003 1.341376e+003 1.877481e+003
      endloop
   endfacet
   facet normal -2.806928e-017 2.305304e-001 9.730651e-001
      outer loop
         vertex 1.234292e+003 1.341376e+003 1.877481e+003
         vertex 1.226292e+003 1.341376e+003 1.877481e+003
         vertex 1.226292e+003 1.340365e+003 1.877752e+003
      endloop
   endfacet
   facet normal -1.406124e-017 2.868451e-001 9.579769e-001
      outer loop
         vertex 1.234292e+003 1.341376e+003 1.877481e+003
         vertex 1.226292e+003 1.340365e+003 1.877752e+003
         vertex 1.234292e+003 1.340365e+003 1.877752e+003
      endloop
   endfacet
   facet normal 1.395536e-017 3.959991e-001 9.182509e-001
      outer loop
         vertex 1.234292e+003 1.340365e+003 1.877752e+003
         vertex 1.226292e+003 1.340365e+003 1.877752e+003
         vertex 1.226292e+003 1.339417e+003 1.878194e+003
      endloop
   endfacet
   facet normal 2.796393e-017 4.488383e-001 8.936130e-001
      outer loop
         vertex 1.234292e+003 1.340365e+003 1.877752e+003
         vertex 1.226292e+003 1.339417e+003 1.878194e+003
         vertex 1.234292e+003 1.339417e+003 1.878194e+003
      endloop
   endfacet
   facet normal 5.555595e-017 5.494356e-001 8.355361e-001
      outer loop
         vertex 1.234292e+003 1.339417e+003 1.878194e+003
         vertex 1.226292e+003 1.339417e+003 1.878194e+003
         vertex 1.226292e+003 1.338561e+003 1.878794e+003
      endloop
   endfacet
   facet normal 6.913943e-017 5.971937e-001 8.020971e-001
      outer loop
         vertex 1.234292e+003 1.339417e+003 1.878194e+003
         vertex 1.226292e+003 1.338561e+003 1.878794e+003
         vertex 1.234292e+003 1.338561e+003 1.878794e+003
      endloop
   endfacet
   facet normal 9.546852e-017 6.861777e-001 7.274339e-001
      outer loop
         vertex 1.234292e+003 1.338561e+003 1.878794e+003
         vertex 1.226292e+003 1.338561e+003 1.878794e+003
         vertex 1.226292e+003 1.337821e+003 1.879533e+003
      endloop
   endfacet
   facet normal 1.082142e-016 7.274036e-001 6.862098e-001
      outer loop
         vertex 1.234292e+003 1.338561e+003 1.878794e+003
         vertex 1.226292e+003 1.337821e+003 1.879533e+003
         vertex 1.234292e+003 1.337821e+003 1.879533e+003
      endloop
   endfacet
   facet normal 1.324803e-016 8.020707e-001 5.972291e-001
      outer loop
         vertex 1.234292e+003 1.337821e+003 1.879533e+003
         vertex 1.226292e+003 1.337821e+003 1.879533e+003
         vertex 1.226292e+003 1.337221e+003 1.880390e+003
      endloop
   endfacet
   facet normal 1.440009e-016 8.355119e-001 5.494724e-001
      outer loop
         vertex 1.234292e+003 1.337821e+003 1.879533e+003
         vertex 1.226292e+003 1.337221e+003 1.880390e+003
         vertex 1.234292e+003 1.337221e+003 1.880390e+003
      endloop
   endfacet
   facet normal 1.654668e-016 8.935932e-001 4.488777e-001
      outer loop
         vertex 1.234292e+003 1.337221e+003 1.880390e+003
         vertex 1.226292e+003 1.337221e+003 1.880390e+003
         vertex 1.226292e+003 1.336779e+003 1.881338e+003
      endloop
   endfacet
   facet normal 1.754122e-016 9.182334e-001 3.960396e-001
      outer loop
         vertex 1.234292e+003 1.337221e+003 1.880390e+003
         vertex 1.226292e+003 1.336779e+003 1.881338e+003
         vertex 1.234292e+003 1.336779e+003 1.881338e+003
      endloop
   endfacet
   facet normal 1.934256e-016 9.579643e-001 2.868874e-001
      outer loop
         vertex 1.234292e+003 1.336779e+003 1.881338e+003
         vertex 1.226292e+003 1.336779e+003 1.881338e+003
         vertex 1.226292e+003 1.336509e+003 1.882348e+003
      endloop
   endfacet
   facet normal 2.014937e-016 9.730549e-001 2.305733e-001
      outer loop
         vertex 1.234292e+003 1.336779e+003 1.881338e+003
         vertex 1.226292e+003 1.336509e+003 1.882348e+003
         vertex 1.234292e+003 1.336509e+003 1.882348e+003
      endloop
   endfacet
   facet normal 2.155073e-016 9.932281e-001 1.161802e-001
      outer loop
         vertex 1.234292e+003 1.336509e+003 1.882348e+003
         vertex 1.226292e+003 1.336509e+003 1.882348e+003
         vertex 1.226292e+003 1.336417e+003 1.883390e+003
      endloop
   endfacet
   facet normal 2.214529e-016 9.983107e-001 5.810116e-002
      outer loop
         vertex 1.234292e+003 1.336509e+003 1.882348e+003
         vertex 1.226292e+003 1.336417e+003 1.883390e+003
         vertex 1.234292e+003 1.336417e+003 1.883390e+003
      endloop
   endfacet
   facet normal 2.310409e-016 9.983132e-001 -5.805711e-002
      outer loop
         vertex 1.234292e+003 1.336417e+003 1.883390e+003
         vertex 1.226292e+003 1.336417e+003 1.883390e+003
         vertex 1.226292e+003 1.336509e+003 1.884432e+003
      endloop
   endfacet
   facet normal 2.346833e-016 9.932333e-001 -1.161364e-001
      outer loop
         vertex 1.234292e+003 1.336417e+003 1.883390e+003
         vertex 1.226292e+003 1.336509e+003 1.884432e+003
         vertex 1.234292e+003 1.336509e+003 1.884432e+003
      endloop
   endfacet
   facet normal 2.395544e-016 9.730651e-001 -2.305304e-001
      outer loop
         vertex 1.234292e+003 1.336509e+003 1.884432e+003
         vertex 1.226292e+003 1.336509e+003 1.884432e+003
         vertex 1.226292e+003 1.336779e+003 1.885442e+003
      endloop
   endfacet
   facet normal 2.407831e-016 9.579769e-001 -2.868451e-001
      outer loop
         vertex 1.234292e+003 1.336509e+003 1.884432e+003
         vertex 1.226292e+003 1.336779e+003 1.885442e+003
         vertex 1.234292e+003 1.336779e+003 1.885442e+003
      endloop
   endfacet
   facet normal 2.407893e-016 9.182509e-001 -3.959991e-001
      outer loop
         vertex 1.234292e+003 1.336779e+003 1.885442e+003
         vertex 1.226292e+003 1.336779e+003 1.885442e+003
         vertex 1.226292e+003 1.337221e+003 1.886390e+003
      endloop
   endfacet
   facet normal 2.395668e-016 8.936130e-001 -4.488383e-001
      outer loop
         vertex 1.234292e+003 1.336779e+003 1.885442e+003
         vertex 1.226292e+003 1.337221e+003 1.886390e+003
         vertex 1.234292e+003 1.337221e+003 1.886390e+003
      endloop
   endfacet
   facet normal 2.347078e-016 8.355361e-001 -5.494356e-001
      outer loop
         vertex 1.234292e+003 1.337221e+003 1.886390e+003
         vertex 1.226292e+003 1.337221e+003 1.886390e+003
         vertex 1.226292e+003 1.337821e+003 1.887247e+003
      endloop
   endfacet
   facet normal 2.310713e-016 8.020971e-001 -5.971937e-001
      outer loop
         vertex 1.234292e+003 1.337221e+003 1.886390e+003
         vertex 1.226292e+003 1.337821e+003 1.887247e+003
         vertex 1.234292e+003 1.337821e+003 1.887247e+003
      endloop
   endfacet
   facet normal 2.214949e-016 7.274339e-001 -6.861777e-001
      outer loop
         vertex 1.234292e+003 1.337821e+003 1.887247e+003
         vertex 1.226292e+003 1.337821e+003 1.887247e+003
         vertex 1.226292e+003 1.338560e+003 1.887986e+003
      endloop
   endfacet
   facet normal 2.155549e-016 6.862098e-001 -7.274036e-001
      outer loop
         vertex 1.234292e+003 1.337821e+003 1.887247e+003
         vertex 1.226292e+003 1.338560e+003 1.887986e+003
         vertex 1.234292e+003 1.338560e+003 1.887986e+003
      endloop
   endfacet
   facet normal 2.015519e-016 5.972291e-001 -8.020707e-001
      outer loop
         vertex 1.234292e+003 1.338560e+003 1.887986e+003
         vertex 1.226292e+003 1.338560e+003 1.887986e+003
         vertex 1.226292e+003 1.339417e+003 1.888586e+003
      endloop
   endfacet
   facet normal 1.934889e-016 5.494724e-001 -8.355119e-001
      outer loop
         vertex 1.234292e+003 1.338560e+003 1.887986e+003
         vertex 1.226292e+003 1.339417e+003 1.888586e+003
         vertex 1.234292e+003 1.339417e+003 1.888586e+003
      endloop
   endfacet
   facet normal 1.754850e-016 4.488777e-001 -8.935932e-001
      outer loop
         vertex 1.234292e+003 1.339417e+003 1.888586e+003
         vertex 1.226292e+003 1.339417e+003 1.888586e+003
         vertex 1.226292e+003 1.340365e+003 1.889028e+003
      endloop
   endfacet
   facet normal 1.655439e-016 3.960396e-001 -9.182334e-001
      outer loop
         vertex 1.234292e+003 1.339417e+003 1.888586e+003
         vertex 1.226292e+003 1.340365e+003 1.889028e+003
         vertex 1.234292e+003 1.340365e+003 1.889028e+003
      endloop
   endfacet
   facet normal 1.440859e-016 2.868874e-001 -9.579643e-001
      outer loop
         vertex 1.234292e+003 1.340365e+003 1.889028e+003
         vertex 1.226292e+003 1.340365e+003 1.889028e+003
         vertex 1.226292e+003 1.341375e+003 1.889299e+003
      endloop
   endfacet
   facet normal 1.325689e-016 2.305733e-001 -9.730549e-001
      outer loop
         vertex 1.234292e+003 1.340365e+003 1.889028e+003
         vertex 1.226292e+003 1.341375e+003 1.889299e+003
         vertex 1.234292e+003 1.341375e+003 1.889299e+003
      endloop
   endfacet
   facet normal 1.083089e-016 1.161802e-001 -9.932281e-001
      outer loop
         vertex 1.234292e+003 1.341375e+003 1.889299e+003
         vertex 1.226292e+003 1.341375e+003 1.889299e+003
         vertex 1.226292e+003 1.342417e+003 1.889390e+003
      endloop
   endfacet
   facet normal 9.556592e-017 5.810116e-002 -9.983107e-001
      outer loop
         vertex 1.234292e+003 1.341375e+003 1.889299e+003
         vertex 1.226292e+003 1.342417e+003 1.889390e+003
         vertex 1.234292e+003 1.342417e+003 1.889390e+003
      endloop
   endfacet
   facet normal 6.924103e-017 -5.805711e-002 -9.983132e-001
      outer loop
         vertex 1.234292e+003 1.342417e+003 1.889390e+003
         vertex 1.226292e+003 1.342417e+003 1.889390e+003
         vertex 1.226292e+003 1.343459e+003 1.889299e+003
      endloop
   endfacet
   facet normal 5.565916e-017 -1.161364e-001 -9.932333e-001
      outer loop
         vertex 1.234292e+003 1.342417e+003 1.889390e+003
         vertex 1.226292e+003 1.343459e+003 1.889299e+003
         vertex 1.234292e+003 1.343459e+003 1.889299e+003
      endloop
   endfacet
   facet normal 2.806928e-017 -2.305304e-001 -9.730651e-001
      outer loop
         vertex 1.234292e+003 1.343459e+003 1.889299e+003
         vertex 1.226292e+003 1.343459e+003 1.889299e+003
         vertex 1.226292e+003 1.344469e+003 1.889028e+003
      endloop
   endfacet
   facet normal 1.406124e-017 -2.868451e-001 -9.579769e-001
      outer loop
         vertex 1.234292e+003 1.343459e+003 1.889299e+003
         vertex 1.226292e+003 1.344469e+003 1.889028e+003
         vertex 1.234292e+003 1.344469e+003 1.889028e+003
      endloop
   endfacet
   facet normal -1.395536e-017 -3.959991e-001 -9.182509e-001
      outer loop
         vertex 1.234292e+003 1.344469e+003 1.889028e+003
         vertex 1.226292e+003 1.344469e+003 1.889028e+003
         vertex 1.226292e+003 1.345417e+003 1.888586e+003
      endloop
   endfacet
   facet normal -2.796393e-017 -4.488383e-001 -8.936130e-001
      outer loop
         vertex 1.234292e+003 1.344469e+003 1.889028e+003
         vertex 1.226292e+003 1.345417e+003 1.888586e+003
         vertex 1.234292e+003 1.345417e+003 1.888586e+003
      endloop
   endfacet
   facet normal -5.555595e-017 -5.494356e-001 -8.355361e-001
      outer loop
         vertex 1.234292e+003 1.345417e+003 1.888586e+003
         vertex 1.226292e+003 1.345417e+003 1.888586e+003
         vertex 1.226292e+003 1.346274e+003 1.887986e+003
      endloop
   endfacet
   facet normal -6.913943e-017 -5.971937e-001 -8.020971e-001
      outer loop
         vertex 1.234292e+003 1.345417e+003 1.888586e+003
         vertex 1.226292e+003 1.346274e+003 1.887986e+003
         vertex 1.234292e+003 1.346274e+003 1.887986e+003
      endloop
   endfacet
   facet normal -9.546852e-017 -6.861777e-001 -7.274339e-001
      outer loop
         vertex 1.234292e+003 1.346274e+003 1.887986e+003
         vertex 1.226292e+003 1.346274e+003 1.887986e+003
         vertex 1.226292e+003 1.347013e+003 1.887247e+003
      endloop
   endfacet
   facet normal -1.082142e-016 -7.274036e-001 -6.862098e-001
      outer loop
         vertex 1.234292e+003 1.346274e+003 1.887986e+003
         vertex 1.226292e+003 1.347013e+003 1.887247e+003
         vertex 1.234292e+003 1.347013e+003 1.887247e+003
      endloop
   endfacet
   facet normal -1.324803e-016 -8.020707e-001 -5.972291e-001
      outer loop
         vertex 1.234292e+003 1.347013e+003 1.887247e+003
         vertex 1.226292e+003 1.347013e+003 1.887247e+003
         vertex 1.226292e+003 1.347613e+003 1.886390e+003
      endloop
   endfacet
   facet normal -1.440009e-016 -8.355119e-001 -5.494724e-001
      outer loop
         vertex 1.234292e+003 1.347013e+003 1.887247e+003
         vertex 1.226292e+003 1.347613e+003 1.886390e+003
         vertex 1.234292e+003 1.347613e+003 1.886390e+003
      endloop
   endfacet
   facet normal -1.654668e-016 -8.935932e-001 -4.488777e-001
      outer loop
         vertex 1.234292e+003 1.347613e+003 1.886390e+003
         vertex 1.226292e+003 1.347613e+003 1.886390e+003
         vertex 1.226292e+003 1.348056e+003 1.885442e+003
      endloop
   endfacet
   facet normal -1.754122e-016 -9.182334e-001 -3.960396e-001
      outer loop
         vertex 1.234292e+003 1.347613e+003 1.886390e+003
         vertex 1.226292e+003 1.348056e+003 1.885442e+003
         vertex 1.234292e+003 1.348056e+003 1.885442e+003
      endloop
   endfacet
   facet normal -1.934256e-016 -9.579643e-001 -2.868874e-001
      outer loop
         vertex 1.234292e+003 1.348056e+003 1.885442e+003
         vertex 1.226292e+003 1.348056e+003 1.885442e+003
         vertex 1.226292e+003 1.348326e+003 1.884432e+003
      endloop
   endfacet
   facet normal -2.014937e-016 -9.730549e-001 -2.305733e-001
      outer loop
         vertex 1.234292e+003 1.348056e+003 1.885442e+003
         vertex 1.226292e+003 1.348326e+003 1.884432e+003
         vertex 1.234292e+003 1.348326e+003 1.884432e+003
      endloop
   endfacet
   facet normal -2.155073e-016 -9.932281e-001 -1.161802e-001
      outer loop
         vertex 1.234292e+003 1.348326e+003 1.884432e+003
         vertex 1.226292e+003 1.348326e+003 1.884432e+003
         vertex 1.226292e+003 1.348417e+003 1.883390e+003
      endloop
   endfacet
   facet normal -2.214529e-016 -9.983107e-001 -5.810116e-002
      outer loop
         vertex 1.234292e+003 1.348325e+003 1.938432e+003
         vertex 1.226292e+003 1.348416e+003 1.937390e+003
         vertex 1.234292e+003 1.348416e+003 1.937390e+003
      endloop
   endfacet
   facet normal -2.310409e-016 -9.983132e-001 5.805711e-002
      outer loop
         vertex 1.234292e+003 1.348416e+003 1.937390e+003
         vertex 1.226292e+003 1.348416e+003 1.937390e+003
         vertex 1.226292e+003 1.348325e+003 1.936348e+003
      endloop
   endfacet
   facet normal -2.346833e-016 -9.932333e-001 1.161364e-001
      outer loop
         vertex 1.234292e+003 1.348416e+003 1.937390e+003
         vertex 1.226292e+003 1.348325e+003 1.936348e+003
         vertex 1.234292e+003 1.348325e+003 1.936348e+003
      endloop
   endfacet
   facet normal -2.395544e-016 -9.730651e-001 2.305304e-001
      outer loop
         vertex 1.234292e+003 1.348325e+003 1.936348e+003
         vertex 1.226292e+003 1.348325e+003 1.936348e+003
         vertex 1.226292e+003 1.348054e+003 1.935338e+003
      endloop
   endfacet
   facet normal -2.407831e-016 -9.579769e-001 2.868451e-001
      outer loop
         vertex 1.234292e+003 1.348325e+003 1.936348e+003
         vertex 1.226292e+003 1.348054e+003 1.935338e+003
         vertex 1.234292e+003 1.348054e+003 1.935338e+003
      endloop
   endfacet
   facet normal -2.407893e-016 -9.182509e-001 3.959991e-001
      outer loop
         vertex 1.234292e+003 1.348054e+003 1.935338e+003
         vertex 1.226292e+003 1.348054e+003 1.935338e+003
         vertex 1.226292e+003 1.347612e+003 1.934390e+003
      endloop
   endfacet
   facet normal -2.395668e-016 -8.936130e-001 4.488383e-001
      outer loop
         vertex 1.234292e+003 1.348054e+003 1.935338e+003
         vertex 1.226292e+003 1.347612e+003 1.934390e+003
         vertex 1.234292e+003 1.347612e+003 1.934390e+003
      endloop
   endfacet
   facet normal -2.347078e-016 -8.355361e-001 5.494356e-001
      outer loop
         vertex 1.234292e+003 1.347612e+003 1.934390e+003
         vertex 1.226292e+003 1.347612e+003 1.934390e+003
         vertex 1.226292e+003 1.347013e+003 1.933533e+003
      endloop
   endfacet
   facet normal -2.310713e-016 -8.020971e-001 5.971937e-001
      outer loop
         vertex 1.234292e+003 1.347612e+003 1.934390e+003
         vertex 1.226292e+003 1.347013e+003 1.933533e+003
         vertex 1.234292e+003 1.347013e+003 1.933533e+003
      endloop
   endfacet
   facet normal -2.214949e-016 -7.274339e-001 6.861777e-001
      outer loop
         vertex 1.234292e+003 1.347013e+003 1.933533e+003
         vertex 1.226292e+003 1.347013e+003 1.933533e+003
         vertex 1.226292e+003 1.346273e+003 1.932794e+003
      endloop
   endfacet
   facet normal -2.155549e-016 -6.862098e-001 7.274036e-001
      outer loop
         vertex 1.234292e+003 1.347013e+003 1.933533e+003
         vertex 1.226292e+003 1.346273e+003 1.932794e+003
         vertex 1.234292e+003 1.346273e+003 1.932794e+003
      endloop
   endfacet
   facet normal -2.015519e-016 -5.972291e-001 8.020707e-001
      outer loop
         vertex 1.234292e+003 1.346273e+003 1.932794e+003
         vertex 1.226292e+003 1.346273e+003 1.932794e+003
         vertex 1.226292e+003 1.345416e+003 1.932194e+003
      endloop
   endfacet
   facet normal -1.934889e-016 -5.494724e-001 8.355119e-001
      outer loop
         vertex 1.234292e+003 1.346273e+003 1.932794e+003
         vertex 1.226292e+003 1.345416e+003 1.932194e+003
         vertex 1.234292e+003 1.345416e+003 1.932194e+003
      endloop
   endfacet
   facet normal -1.754850e-016 -4.488777e-001 8.935932e-001
      outer loop
         vertex 1.234292e+003 1.345416e+003 1.932194e+003
         vertex 1.226292e+003 1.345416e+003 1.932194e+003
         vertex 1.226292e+003 1.344468e+003 1.931752e+003
      endloop
   endfacet
   facet normal -1.655439e-016 -3.960396e-001 9.182334e-001
      outer loop
         vertex 1.234292e+003 1.345416e+003 1.932194e+003
         vertex 1.226292e+003 1.344468e+003 1.931752e+003
         vertex 1.234292e+003 1.344468e+003 1.931752e+003
      endloop
   endfacet
   facet normal -1.440859e-016 -2.868874e-001 9.579643e-001
      outer loop
         vertex 1.234292e+003 1.344468e+003 1.931752e+003
         vertex 1.226292e+003 1.344468e+003 1.931752e+003
         vertex 1.226292e+003 1.343458e+003 1.931481e+003
      endloop
   endfacet
   facet normal -1.325689e-016 -2.305733e-001 9.730549e-001
      outer loop
         vertex 1.234292e+003 1.344468e+003 1.931752e+003
         vertex 1.226292e+003 1.343458e+003 1.931481e+003
         vertex 1.234292e+003 1.343458e+003 1.931481e+003
      endloop
   endfacet
   facet normal -1.083089e-016 -1.161802e-001 9.932281e-001
      outer loop
         vertex 1.234292e+003 1.343458e+003 1.931481e+003
         vertex 1.226292e+003 1.343458e+003 1.931481e+003
         vertex 1.226292e+003 1.342416e+003 1.931390e+003
      endloop
   endfacet
   facet normal -9.556592e-017 -5.810116e-002 9.983107e-001
      outer loop
         vertex 1.234292e+003 1.343458e+003 1.931481e+003
         vertex 1.226292e+003 1.342416e+003 1.931390e+003
         vertex 1.234292e+003 1.342416e+003 1.931390e+003
      endloop
   endfacet
   facet normal -6.924103e-017 5.805711e-002 9.983132e-001
      outer loop
         vertex 1.234292e+003 1.342416e+003 1.931390e+003
         vertex 1.226292e+003 1.342416e+003 1.931390e+003
         vertex 1.226292e+003 1.341374e+003 1.931481e+003
      endloop
   endfacet
   facet normal -5.565916e-017 1.161364e-001 9.932333e-001
      outer loop
         vertex 1.234292e+003 1.342416e+003 1.931390e+003
         vertex 1.226292e+003 1.341374e+003 1.931481e+003
         vertex 1.234292e+003 1.341374e+003 1.931481e+003
      endloop
   endfacet
   facet normal -2.806928e-017 2.305304e-001 9.730651e-001
      outer loop
         vertex 1.234292e+003 1.341374e+003 1.931481e+003
         vertex 1.226292e+003 1.341374e+003 1.931481e+003
         vertex 1.226292e+003 1.340364e+003 1.931752e+003
      endloop
   endfacet
   facet normal -1.406124e-017 2.868451e-001 9.579769e-001
      outer loop
         vertex 1.234292e+003 1.341374e+003 1.931481e+003
         vertex 1.226292e+003 1.340364e+003 1.931752e+003
         vertex 1.234292e+003 1.340364e+003 1.931752e+003
      endloop
   endfacet
   facet normal 1.395536e-017 3.959991e-001 9.182509e-001
      outer loop
         vertex 1.234292e+003 1.340364e+003 1.931752e+003
         vertex 1.226292e+003 1.340364e+003 1.931752e+003
         vertex 1.226292e+003 1.339416e+003 1.932194e+003
      endloop
   endfacet
   facet normal 2.796393e-017 4.488383e-001 8.936130e-001
      outer loop
         vertex 1.234292e+003 1.340364e+003 1.931752e+003
         vertex 1.226292e+003 1.339416e+003 1.932194e+003
         vertex 1.234292e+003 1.339416e+003 1.932194e+003
      endloop
   endfacet
   facet normal 5.555595e-017 5.494356e-001 8.355361e-001
      outer loop
         vertex 1.234292e+003 1.339416e+003 1.932194e+003
         vertex 1.226292e+003 1.339416e+003 1.932194e+003
         vertex 1.226292e+003 1.338559e+003 1.932794e+003
      endloop
   endfacet
   facet normal 6.913943e-017 5.971937e-001 8.020971e-001
      outer loop
         vertex 1.234292e+003 1.339416e+003 1.932194e+003
         vertex 1.226292e+003 1.338559e+003 1.932794e+003
         vertex 1.234292e+003 1.338559e+003 1.932794e+003
      endloop
   endfacet
   facet normal 9.546852e-017 6.861777e-001 7.274339e-001
      outer loop
         vertex 1.234292e+003 1.338559e+003 1.932794e+003
         vertex 1.226292e+003 1.338559e+003 1.932794e+003
         vertex 1.226292e+003 1.337820e+003 1.933533e+003
      endloop
   endfacet
   facet normal 1.082142e-016 7.274036e-001 6.862098e-001
      outer loop
         vertex 1.234292e+003 1.338559e+003 1.932794e+003
         vertex 1.226292e+003 1.337820e+003 1.933533e+003
         vertex 1.234292e+003 1.337820e+003 1.933533e+003
      endloop
   endfacet
   facet normal 1.324803e-016 8.020707e-001 5.972291e-001
      outer loop
         vertex 1.234292e+003 1.337820e+003 1.933533e+003
         vertex 1.226292e+003 1.337820e+003 1.933533e+003
         vertex 1.226292e+003 1.337220e+003 1.934390e+003
      endloop
   endfacet
   facet normal 1.440009e-016 8.355119e-001 5.494724e-001
      outer loop
         vertex 1.234292e+003 1.337820e+003 1.933533e+003
         vertex 1.226292e+003 1.337220e+003 1.934390e+003
         vertex 1.234292e+003 1.337220e+003 1.934390e+003
      endloop
   endfacet
   facet normal 1.654668e-016 8.935932e-001 4.488777e-001
      outer loop
         vertex 1.234292e+003 1.337220e+003 1.934390e+003
         vertex 1.226292e+003 1.337220e+003 1.934390e+003
         vertex 1.226292e+003 1.336778e+003 1.935338e+003
      endloop
   endfacet
   facet normal 1.754122e-016 9.182334e-001 3.960396e-001
      outer loop
         vertex 1.234292e+003 1.337220e+003 1.934390e+003
         vertex 1.226292e+003 1.336778e+003 1.935338e+003
         vertex 1.234292e+003 1.336778e+003 1.935338e+003
      endloop
   endfacet
   facet normal 1.934256e-016 9.579643e-001 2.868874e-001
      outer loop
         vertex 1.234292e+003 1.336778e+003 1.935338e+003
         vertex 1.226292e+003 1.336778e+003 1.935338e+003
         vertex 1.226292e+003 1.336507e+003 1.936348e+003
      endloop
   endfacet
   facet normal 2.014937e-016 9.730549e-001 2.305733e-001
      outer loop
         vertex 1.234292e+003 1.336778e+003 1.935338e+003
         vertex 1.226292e+003 1.336507e+003 1.936348e+003
         vertex 1.234292e+003 1.336507e+003 1.936348e+003
      endloop
   endfacet
   facet normal 2.155073e-016 9.932281e-001 1.161802e-001
      outer loop
         vertex 1.234292e+003 1.336507e+003 1.936348e+003
         vertex 1.226292e+003 1.336507e+003 1.936348e+003
         vertex 1.226292e+003 1.336416e+003 1.937390e+003
      endloop
   endfacet
   facet normal 2.214529e-016 9.983107e-001 5.810116e-002
      outer loop
         vertex 1.234292e+003 1.336507e+003 1.936348e+003
         vertex 1.226292e+003 1.336416e+003 1.937390e+003
         vertex 1.234292e+003 1.336416e+003 1.937390e+003
      endloop
   endfacet
   facet normal 2.310409e-016 9.983132e-001 -5.805711e-002
      outer loop
         vertex 1.234292e+003 1.336416e+003 1.937390e+003
         vertex 1.226292e+003 1.336416e+003 1.937390e+003
         vertex 1.226292e+003 1.336507e+003 1.938432e+003
      endloop
   endfacet
   facet normal 2.346833e-016 9.932333e-001 -1.161364e-001
      outer loop
         vertex 1.234292e+003 1.336416e+003 1.937390e+003
         vertex 1.226292e+003 1.336507e+003 1.938432e+003
         vertex 1.234292e+003 1.336507e+003 1.938432e+003
      endloop
   endfacet
   facet normal 2.395544e-016 9.730651e-001 -2.305304e-001
      outer loop
         vertex 1.234292e+003 1.336507e+003 1.938432e+003
         vertex 1.226292e+003 1.336507e+003 1.938432e+003
         vertex 1.226292e+003 1.336778e+003 1.939442e+003
      endloop
   endfacet
   facet normal 2.407831e-016 9.579769e-001 -2.868451e-001
      outer loop
         vertex 1.234292e+003 1.336507e+003 1.938432e+003
         vertex 1.226292e+003 1.336778e+003 1.939442e+003
         vertex 1.234292e+003 1.336778e+003 1.939442e+003
      endloop
   endfacet
   facet normal 2.407893e-016 9.182509e-001 -3.959991e-001
      outer loop
         vertex 1.234292e+003 1.336778e+003 1.939442e+003
         vertex 1.226292e+003 1.336778e+003 1.939442e+003
         vertex 1.226292e+003 1.337220e+003 1.940390e+003
      endloop
   endfacet
   facet normal 2.395668e-016 8.936130e-001 -4.488383e-001
      outer loop
         vertex 1.234292e+003 1.336778e+003 1.939442e+003
         vertex 1.226292e+003 1.337220e+003 1.940390e+003
         vertex 1.234292e+003 1.337220e+003 1.940390e+003
      endloop
   endfacet
   facet normal 2.347078e-016 8.355361e-001 -5.494356e-001
      outer loop
         vertex 1.234292e+003 1.337220e+003 1.940390e+003
         vertex 1.226292e+003 1.337220e+003 1.940390e+003
         vertex 1.226292e+003 1.337820e+003 1.941246e+003
      endloop
   endfacet
   facet normal 2.310713e-016 8.020971e-001 -5.971937e-001
      outer loop
         vertex 1.234292e+003 1.337220e+003 1.940390e+003
         vertex 1.226292e+003 1.337820e+003 1.941246e+003
         vertex 1.234292e+003 1.337820e+003 1.941246e+003
      endloop
   endfacet
   facet normal 2.214949e-016 7.274339e-001 -6.861777e-001
      outer loop
         vertex 1.234292e+003 1.337820e+003 1.941246e+003
         vertex 1.226292e+003 1.337820e+003 1.941246e+003
         vertex 1.226292e+003 1.338559e+003 1.941986e+003
      endloop
   endfacet
   facet normal 2.155549e-016 6.862098e-001 -7.274036e-001
      outer loop
         vertex 1.234292e+003 1.337820e+003 1.941246e+003
         vertex 1.226292e+003 1.338559e+003 1.941986e+003
         vertex 1.234292e+003 1.338559e+003 1.941986e+003
      endloop
   endfacet
   facet normal 2.015519e-016 5.972291e-001 -8.020707e-001
      outer loop
         vertex 1.234292e+003 1.338559e+003 1.941986e+003
         vertex 1.226292e+003 1.338559e+003 1.941986e+003
         vertex 1.226292e+003 1.339416e+003 1.942586e+003
      endloop
   endfacet
   facet normal 1.934889e-016 5.494724e-001 -8.355119e-001
      outer loop
         vertex 1.234292e+003 1.338559e+003 1.941986e+003
         vertex 1.226292e+003 1.339416e+003 1.942586e+003
         vertex 1.234292e+003 1.339416e+003 1.942586e+003
      endloop
   endfacet
   facet normal 1.754850e-016 4.488777e-001 -8.935932e-001
      outer loop
         vertex 1.234292e+003 1.339416e+003 1.942586e+003
         vertex 1.226292e+003 1.339416e+003 1.942586e+003
         vertex 1.226292e+003 1.340364e+003 1.943028e+003
      endloop
   endfacet
   facet normal 1.655439e-016 3.960396e-001 -9.182334e-001
      outer loop
         vertex 1.234292e+003 1.339416e+003 1.942586e+003
         vertex 1.226292e+003 1.340364e+003 1.943028e+003
         vertex 1.234292e+003 1.340364e+003 1.943028e+003
      endloop
   endfacet
   facet normal 1.440859e-016 2.868874e-001 -9.579643e-001
      outer loop
         vertex 1.234292e+003 1.340364e+003 1.943028e+003
         vertex 1.226292e+003 1.340364e+003 1.943028e+003
         vertex 1.226292e+003 1.341374e+003 1.943299e+003
      endloop
   endfacet
   facet normal 1.325689e-016 2.305733e-001 -9.730549e-001
      outer loop
         vertex 1.234292e+003 1.340364e+003 1.943028e+003
         vertex 1.226292e+003 1.341374e+003 1.943299e+003
         vertex 1.234292e+003 1.341374e+003 1.943299e+003
      endloop
   endfacet
   facet normal 1.083089e-016 1.161802e-001 -9.932281e-001
      outer loop
         vertex 1.234292e+003 1.341374e+003 1.943299e+003
         vertex 1.226292e+003 1.341374e+003 1.943299e+003
         vertex 1.226292e+003 1.342416e+003 1.943390e+003
      endloop
   endfacet
   facet normal 9.556592e-017 5.810116e-002 -9.983107e-001
      outer loop
         vertex 1.234292e+003 1.341374e+003 1.943299e+003
         vertex 1.226292e+003 1.342416e+003 1.943390e+003
         vertex 1.234292e+003 1.342416e+003 1.943390e+003
      endloop
   endfacet
   facet normal 6.924103e-017 -5.805711e-002 -9.983132e-001
      outer loop
         vertex 1.234292e+003 1.342416e+003 1.943390e+003
         vertex 1.226292e+003 1.342416e+003 1.943390e+003
         vertex 1.226292e+003 1.343458e+003 1.943299e+003
      endloop
   endfacet
   facet normal 5.565916e-017 -1.161364e-001 -9.932333e-001
      outer loop
         vertex 1.234292e+003 1.342416e+003 1.943390e+003
         vertex 1.226292e+003 1.343458e+003 1.943299e+003
         vertex 1.234292e+003 1.343458e+003 1.943299e+003
      endloop
   endfacet
   facet normal 2.806928e-017 -2.305304e-001 -9.730651e-001
      outer loop
         vertex 1.234292e+003 1.343458e+003 1.943299e+003
         vertex 1.226292e+003 1.343458e+003 1.943299e+003
         vertex 1.226292e+003 1.344468e+003 1.943028e+003
      endloop
   endfacet
   facet normal 1.406124e-017 -2.868451e-001 -9.579769e-001
      outer loop
         vertex 1.234292e+003 1.343458e+003 1.943299e+003
         vertex 1.226292e+003 1.344468e+003 1.943028e+003
         vertex 1.234292e+003 1.344468e+003 1.943028e+003
      endloop
   endfacet
   facet normal -1.395536e-017 -3.959991e-001 -9.182509e-001
      outer loop
         vertex 1.234292e+003 1.344468e+003 1.943028e+003
         vertex 1.226292e+003 1.344468e+003 1.943028e+003
         vertex 1.226292e+003 1.345416e+003 1.942586e+003
      endloop
   endfacet
   facet normal -2.796393e-017 -4.488383e-001 -8.936130e-001
      outer loop
         vertex 1.234292e+003 1.344468e+003 1.943028e+003
         vertex 1.226292e+003 1.345416e+003 1.942586e+003
         vertex 1.234292e+003 1.345416e+003 1.942586e+003
      endloop
   endfacet
   facet normal -5.555595e-017 -5.494356e-001 -8.355361e-001
      outer loop
         vertex 1.234292e+003 1.345416e+003 1.942586e+003
         vertex 1.226292e+003 1.345416e+003 1.942586e+003
         vertex 1.226292e+003 1.346273e+003 1.941986e+003
      endloop
   endfacet
   facet normal -6.913943e-017 -5.971937e-001 -8.020971e-001
      outer loop
         vertex 1.234292e+003 1.345416e+003 1.942586e+003
         vertex 1.226292e+003 1.346273e+003 1.941986e+003
         vertex 1.234292e+003 1.346273e+003 1.941986e+003
      endloop
   endfacet
   facet normal -9.546852e-017 -6.861777e-001 -7.274339e-001
      outer loop
         vertex 1.234292e+003 1.346273e+003 1.941986e+003
         vertex 1.226292e+003 1.346273e+003 1.941986e+003
         vertex 1.226292e+003 1.347012e+003 1.941247e+003
      endloop
   endfacet
   facet normal -1.082142e-016 -7.274036e-001 -6.862098e-001
      outer loop
         vertex 1.234292e+003 1.346273e+003 1.941986e+003
         vertex 1.226292e+003 1.347012e+003 1.941247e+003
         vertex 1.234292e+003 1.347012e+003 1.941247e+003
      endloop
   endfacet
   facet normal -1.324803e-016 -8.020707e-001 -5.972291e-001
      outer loop
         vertex 1.234292e+003 1.347012e+003 1.941247e+003
         vertex 1.226292e+003 1.347012e+003 1.941247e+003
         vertex 1.226292e+003 1.347612e+003 1.940390e+003
      endloop
   endfacet
   facet normal -1.440009e-016 -8.355119e-001 -5.494724e-001
      outer loop
         vertex 1.234292e+003 1.347012e+003 1.941247e+003
         vertex 1.226292e+003 1.347612e+003 1.940390e+003
         vertex 1.234292e+003 1.347612e+003 1.940390e+003
      endloop
   endfacet
   facet normal -1.654668e-016 -8.935932e-001 -4.488777e-001
      outer loop
         vertex 1.234292e+003 1.347612e+003 1.940390e+003
         vertex 1.226292e+003 1.347612e+003 1.940390e+003
         vertex 1.226292e+003 1.348054e+003 1.939442e+003
      endloop
   endfacet
   facet normal -1.754122e-016 -9.182334e-001 -3.960396e-001
      outer loop
         vertex 1.234292e+003 1.347612e+003 1.940390e+003
         vertex 1.226292e+003 1.348054e+003 1.939442e+003
         vertex 1.234292e+003 1.348054e+003 1.939442e+003
      endloop
   endfacet
   facet normal -1.934256e-016 -9.579643e-001 -2.868874e-001
      outer loop
         vertex 1.234292e+003 1.348054e+003 1.939442e+003
         vertex 1.226292e+003 1.348054e+003 1.939442e+003
         vertex 1.226292e+003 1.348325e+003 1.938432e+003
      endloop
   endfacet
   facet normal -2.014937e-016 -9.730549e-001 -2.305733e-001
      outer loop
         vertex 1.234292e+003 1.348054e+003 1.939442e+003
         vertex 1.226292e+003 1.348325e+003 1.938432e+003
         vertex 1.234292e+003 1.348325e+003 1.938432e+003
      endloop
   endfacet
   facet normal -2.155073e-016 -9.932281e-001 -1.161802e-001
      outer loop
         vertex 1.234292e+003 1.348325e+003 1.938432e+003
         vertex 1.226292e+003 1.348325e+003 1.938432e+003
         vertex 1.226292e+003 1.348416e+003 1.937390e+003
      endloop
   endfacet
   facet normal 2.186178e-016 7.071224e-001 -7.070912e-001
      outer loop
         vertex 1.234292e+003 1.353417e+003 1.877390e+003
         vertex 1.234292e+003 1.349418e+003 1.873390e+003
         vertex 1.226292e+003 1.353417e+003 1.877390e+003
      endloop
   endfacet
   facet normal 2.186178e-016 7.071224e-001 -7.070912e-001
      outer loop
         vertex 1.226292e+003 1.353417e+003 1.877390e+003
         vertex 1.234292e+003 1.349418e+003 1.873390e+003
         vertex 1.226292e+003 1.349418e+003 1.873390e+003
      endloop
   endfacet
endsolid