solid 09.025.00.00.000 - 09.025.00.08.000-1 09.025.00.08.008-1
   facet normal 6.245005e-017 -1.000000e+000 6.367905e-016
      outer loop
         vertex 1.033292e+003 1.331417e+003 1.948390e+003
         vertex 1.033292e+003 1.331417e+003 1.873390e+003
         vertex 1.041292e+003 1.331417e+003 1.948390e+003
      endloop
   endfacet
   facet normal 6.245005e-017 -1.000000e+000 6.367905e-016
      outer loop
         vertex 1.041292e+003 1.331417e+003 1.948390e+003
         vertex 1.033292e+003 1.331417e+003 1.873390e+003
         vertex 1.041292e+003 1.331417e+003 1.873390e+003
      endloop
   endfacet
   facet normal -6.459731e-018 6.407581e-016 1.000000e+000
      outer loop
         vertex 1.033292e+003 1.353417e+003 1.948390e+003
         vertex 1.033292e+003 1.331417e+003 1.948390e+003
         vertex 1.041292e+003 1.353417e+003 1.948390e+003
      endloop
   endfacet
   facet normal -6.459731e-018 6.407581e-016 1.000000e+000
      outer loop
         vertex 1.041292e+003 1.353417e+003 1.948390e+003
         vertex 1.033292e+003 1.331417e+003 1.948390e+003
         vertex 1.041292e+003 1.331417e+003 1.948390e+003
      endloop
   endfacet
   facet normal -6.245005e-017 1.000000e+000 -6.367905e-016
      outer loop
         vertex 1.033292e+003 1.353417e+003 1.877390e+003
         vertex 1.033292e+003 1.353417e+003 1.948390e+003
         vertex 1.041292e+003 1.353417e+003 1.877390e+003
      endloop
   endfacet
   facet normal -6.245005e-017 1.000000e+000 -6.367905e-016
      outer loop
         vertex 1.041292e+003 1.353417e+003 1.877390e+003
         vertex 1.033292e+003 1.353417e+003 1.948390e+003
         vertex 1.041292e+003 1.353417e+003 1.948390e+003
      endloop
   endfacet
   facet normal 6.459731e-018 -6.407581e-016 -1.000000e+000
      outer loop
         vertex 1.041292e+003 1.349417e+003 1.873390e+003
         vertex 1.041292e+003 1.331417e+003 1.873390e+003
         vertex 1.033292e+003 1.349417e+003 1.873390e+003
      endloop
   endfacet
   facet normal 6.459731e-018 -6.407581e-016 -1.000000e+000
      outer loop
         vertex 1.033292e+003 1.349417e+003 1.873390e+003
         vertex 1.041292e+003 1.331417e+003 1.873390e+003
         vertex 1.033292e+003 1.331417e+003 1.873390e+003
      endloop
   endfacet
   facet normal -1.000000e+000 -1.040834e-016 1.026531e-018
      outer loop
         vertex 1.033292e+003 1.344469e+003 1.877752e+003
         vertex 1.033292e+003 1.349417e+003 1.873390e+003
         vertex 1.033292e+003 1.343459e+003 1.877481e+003
      endloop
   endfacet
   facet normal -1.000000e+000 -1.040834e-016 1.026531e-018
      outer loop
         vertex 1.033292e+003 1.343459e+003 1.877481e+003
         vertex 1.033292e+003 1.349417e+003 1.873390e+003
         vertex 1.033292e+003 1.342417e+003 1.877390e+003
      endloop
   endfacet
   facet normal -1.000000e+000 -1.040834e-016 1.026531e-018
      outer loop
         vertex 1.033292e+003 1.347014e+003 1.941247e+003
         vertex 1.033292e+003 1.346274e+003 1.941986e+003
         vertex 1.033292e+003 1.353417e+003 1.948390e+003
      endloop
   endfacet
   facet normal -1.000000e+000 -1.040834e-016 1.026531e-018
      outer loop
         vertex 1.033292e+003 1.353417e+003 1.948390e+003
         vertex 1.033292e+003 1.346274e+003 1.941986e+003
         vertex 1.033292e+003 1.345417e+003 1.942586e+003
      endloop
   endfacet
   facet normal -1.000000e+000 -1.040834e-016 1.026531e-018
      outer loop
         vertex 1.033292e+003 1.342417e+003 1.877390e+003
         vertex 1.033292e+003 1.349417e+003 1.873390e+003
         vertex 1.033292e+003 1.341375e+003 1.877481e+003
      endloop
   endfacet
   facet normal -1.000000e+000 -1.040834e-016 1.026531e-018
      outer loop
         vertex 1.033292e+003 1.341375e+003 1.877481e+003
         vertex 1.033292e+003 1.349417e+003 1.873390e+003
         vertex 1.033292e+003 1.331417e+003 1.873390e+003
      endloop
   endfacet
   facet normal -1.000000e+000 -1.040834e-016 1.026531e-018
      outer loop
         vertex 1.033292e+003 1.341375e+003 1.877481e+003
         vertex 1.033292e+003 1.331417e+003 1.873390e+003
         vertex 1.033292e+003 1.340365e+003 1.877752e+003
      endloop
   endfacet
   facet normal -1.000000e+000 -1.040834e-016 1.026531e-018
      outer loop
         vertex 1.033292e+003 1.347613e+003 1.880390e+003
         vertex 1.033292e+003 1.348056e+003 1.881338e+003
         vertex 1.033292e+003 1.353417e+003 1.877390e+003
      endloop
   endfacet
   facet normal -1.000000e+000 -1.040834e-016 1.026531e-018
      outer loop
         vertex 1.033292e+003 1.353417e+003 1.877390e+003
         vertex 1.033292e+003 1.348056e+003 1.881338e+003
         vertex 1.033292e+003 1.348326e+003 1.882348e+003
      endloop
   endfacet
   facet normal -1.000000e+000 -1.040834e-016 1.026531e-018
      outer loop
         vertex 1.033292e+003 1.348326e+003 1.938432e+003
         vertex 1.033292e+003 1.348056e+003 1.939442e+003
         vertex 1.033292e+003 1.353417e+003 1.948390e+003
      endloop
   endfacet
   facet normal -1.000000e+000 -1.040834e-016 1.026531e-018
      outer loop
         vertex 1.033292e+003 1.353417e+003 1.948390e+003
         vertex 1.033292e+003 1.348056e+003 1.939442e+003
         vertex 1.033292e+003 1.347613e+003 1.940390e+003
      endloop
   endfacet
   facet normal -1.000000e+000 -1.040834e-016 1.026531e-018
      outer loop
         vertex 1.033292e+003 1.353417e+003 1.948390e+003
         vertex 1.033292e+003 1.347613e+003 1.940390e+003
         vertex 1.033292e+003 1.347014e+003 1.941247e+003
      endloop
   endfacet
   facet normal -1.000000e+000 -1.040834e-016 1.026531e-018
      outer loop
         vertex 1.033292e+003 1.337821e+003 1.879533e+003
         vertex 1.033292e+003 1.338561e+003 1.878794e+003
         vertex 1.033292e+003 1.331417e+003 1.873390e+003
      endloop
   endfacet
   facet normal -1.000000e+000 -1.040834e-016 1.026531e-018
      outer loop
         vertex 1.033292e+003 1.331417e+003 1.873390e+003
         vertex 1.033292e+003 1.338561e+003 1.878794e+003
         vertex 1.033292e+003 1.339417e+003 1.878194e+003
      endloop
   endfacet
   facet normal -1.000000e+000 -1.040834e-016 1.026531e-018
      outer loop
         vertex 1.033292e+003 1.331417e+003 1.873390e+003
         vertex 1.033292e+003 1.339417e+003 1.878194e+003
         vertex 1.033292e+003 1.340365e+003 1.877752e+003
      endloop
   endfacet
   facet normal -1.000000e+000 -1.040834e-016 1.026531e-018
      outer loop
         vertex 1.033292e+003 1.342417e+003 1.943390e+003
         vertex 1.033292e+003 1.331417e+003 1.948390e+003
         vertex 1.033292e+003 1.343459e+003 1.943299e+003
      endloop
   endfacet
   facet normal -1.000000e+000 -1.040834e-016 1.026531e-018
      outer loop
         vertex 1.033292e+003 1.343459e+003 1.943299e+003
         vertex 1.033292e+003 1.331417e+003 1.948390e+003
         vertex 1.033292e+003 1.353417e+003 1.948390e+003
      endloop
   endfacet
   facet normal -1.000000e+000 -1.040834e-016 1.026531e-018
      outer loop
         vertex 1.033292e+003 1.343459e+003 1.943299e+003
         vertex 1.033292e+003 1.353417e+003 1.948390e+003
         vertex 1.033292e+003 1.344469e+003 1.943028e+003
      endloop
   endfacet
   facet normal -1.000000e+000 -1.040834e-016 1.026531e-018
      outer loop
         vertex 1.033292e+003 1.344469e+003 1.943028e+003
         vertex 1.033292e+003 1.353417e+003 1.948390e+003
         vertex 1.033292e+003 1.345417e+003 1.942586e+003
      endloop
   endfacet
   facet normal -1.000000e+000 -1.040834e-016 1.026531e-018
      outer loop
         vertex 1.033292e+003 1.344469e+003 1.877752e+003
         vertex 1.033292e+003 1.345417e+003 1.878194e+003
         vertex 1.033292e+003 1.349417e+003 1.873390e+003
      endloop
   endfacet
   facet normal -1.000000e+000 -1.040834e-016 1.026531e-018
      outer loop
         vertex 1.033292e+003 1.349417e+003 1.873390e+003
         vertex 1.033292e+003 1.345417e+003 1.878194e+003
         vertex 1.033292e+003 1.346274e+003 1.878794e+003
      endloop
   endfacet
   facet normal -1.000000e+000 -1.040834e-016 1.026531e-018
      outer loop
         vertex 1.033292e+003 1.349417e+003 1.873390e+003
         vertex 1.033292e+003 1.346274e+003 1.878794e+003
         vertex 1.033292e+003 1.353417e+003 1.877390e+003
      endloop
   endfacet
   facet normal -1.000000e+000 -1.040834e-016 1.026531e-018
      outer loop
         vertex 1.033292e+003 1.353417e+003 1.877390e+003
         vertex 1.033292e+003 1.346274e+003 1.878794e+003
         vertex 1.033292e+003 1.347014e+003 1.879533e+003
      endloop
   endfacet
   facet normal -1.000000e+000 -1.040834e-016 1.026531e-018
      outer loop
         vertex 1.033292e+003 1.353417e+003 1.877390e+003
         vertex 1.033292e+003 1.347014e+003 1.879533e+003
         vertex 1.033292e+003 1.347613e+003 1.880390e+003
      endloop
   endfacet
   facet normal -1.000000e+000 -1.040834e-016 1.026531e-018
      outer loop
         vertex 1.033292e+003 1.331417e+003 1.948390e+003
         vertex 1.033292e+003 1.339417e+003 1.942586e+003
         vertex 1.033292e+003 1.338561e+003 1.941986e+003
      endloop
   endfacet
   facet normal -1.000000e+000 -1.040834e-016 1.026531e-018
      outer loop
         vertex 1.033292e+003 1.353417e+003 1.877390e+003
         vertex 1.033292e+003 1.347014e+003 1.933533e+003
         vertex 1.033292e+003 1.347613e+003 1.934390e+003
      endloop
   endfacet
   facet normal -1.000000e+000 -1.040834e-016 1.026531e-018
      outer loop
         vertex 1.033292e+003 1.342417e+003 1.943390e+003
         vertex 1.033292e+003 1.341375e+003 1.943299e+003
         vertex 1.033292e+003 1.331417e+003 1.948390e+003
      endloop
   endfacet
   facet normal -1.000000e+000 -1.040834e-016 1.026531e-018
      outer loop
         vertex 1.033292e+003 1.331417e+003 1.948390e+003
         vertex 1.033292e+003 1.341375e+003 1.943299e+003
         vertex 1.033292e+003 1.340365e+003 1.943028e+003
      endloop
   endfacet
   facet normal -1.000000e+000 -1.040834e-016 1.026531e-018
      outer loop
         vertex 1.033292e+003 1.331417e+003 1.948390e+003
         vertex 1.033292e+003 1.340365e+003 1.943028e+003
         vertex 1.033292e+003 1.339417e+003 1.942586e+003
      endloop
   endfacet
   facet normal -1.000000e+000 -1.040834e-016 1.026531e-018
      outer loop
         vertex 1.033292e+003 1.338561e+003 1.941986e+003
         vertex 1.033292e+003 1.337821e+003 1.941247e+003
         vertex 1.033292e+003 1.331417e+003 1.948390e+003
      endloop
   endfacet
   facet normal -1.000000e+000 -1.040834e-016 1.026531e-018
      outer loop
         vertex 1.033292e+003 1.331417e+003 1.948390e+003
         vertex 1.033292e+003 1.337821e+003 1.941247e+003
         vertex 1.033292e+003 1.337221e+003 1.940390e+003
      endloop
   endfacet
   facet normal -1.000000e+000 -1.040834e-016 1.026531e-018
      outer loop
         vertex 1.033292e+003 1.331417e+003 1.948390e+003
         vertex 1.033292e+003 1.337221e+003 1.940390e+003
         vertex 1.033292e+003 1.336779e+003 1.939442e+003
      endloop
   endfacet
   facet normal -1.000000e+000 -1.040834e-016 1.026531e-018
      outer loop
         vertex 1.033292e+003 1.348326e+003 1.882348e+003
         vertex 1.033292e+003 1.348417e+003 1.883390e+003
         vertex 1.033292e+003 1.353417e+003 1.877390e+003
      endloop
   endfacet
   facet normal -1.000000e+000 -1.040834e-016 1.026531e-018
      outer loop
         vertex 1.033292e+003 1.353417e+003 1.877390e+003
         vertex 1.033292e+003 1.348417e+003 1.883390e+003
         vertex 1.033292e+003 1.348326e+003 1.884432e+003
      endloop
   endfacet
   facet normal -1.000000e+000 -1.040834e-016 1.026531e-018
      outer loop
         vertex 1.033292e+003 1.353417e+003 1.877390e+003
         vertex 1.033292e+003 1.348326e+003 1.884432e+003
         vertex 1.033292e+003 1.344469e+003 1.931752e+003
      endloop
   endfacet
   facet normal -1.000000e+000 -1.040834e-016 1.026531e-018
      outer loop
         vertex 1.033292e+003 1.344469e+003 1.931752e+003
         vertex 1.033292e+003 1.345417e+003 1.932194e+003
         vertex 1.033292e+003 1.353417e+003 1.877390e+003
      endloop
   endfacet
   facet normal -1.000000e+000 -1.040834e-016 1.026531e-018
      outer loop
         vertex 1.033292e+003 1.353417e+003 1.877390e+003
         vertex 1.033292e+003 1.345417e+003 1.932194e+003
         vertex 1.033292e+003 1.346274e+003 1.932794e+003
      endloop
   endfacet
   facet normal -1.000000e+000 -1.040834e-016 1.026531e-018
      outer loop
         vertex 1.033292e+003 1.353417e+003 1.877390e+003
         vertex 1.033292e+003 1.346274e+003 1.932794e+003
         vertex 1.033292e+003 1.347014e+003 1.933533e+003
      endloop
   endfacet
   facet normal -1.000000e+000 -1.040834e-016 1.026531e-018
      outer loop
         vertex 1.033292e+003 1.344469e+003 1.889028e+003
         vertex 1.033292e+003 1.343459e+003 1.889299e+003
         vertex 1.033292e+003 1.344469e+003 1.931752e+003
      endloop
   endfacet
   facet normal -1.000000e+000 -1.040834e-016 1.026531e-018
      outer loop
         vertex 1.033292e+003 1.347613e+003 1.934390e+003
         vertex 1.033292e+003 1.348056e+003 1.935338e+003
         vertex 1.033292e+003 1.353417e+003 1.877390e+003
      endloop
   endfacet
   facet normal -1.000000e+000 -1.040834e-016 1.026531e-018
      outer loop
         vertex 1.033292e+003 1.353417e+003 1.877390e+003
         vertex 1.033292e+003 1.348056e+003 1.935338e+003
         vertex 1.033292e+003 1.348326e+003 1.936348e+003
      endloop
   endfacet
   facet normal -1.000000e+000 -1.040834e-016 1.026531e-018
      outer loop
         vertex 1.033292e+003 1.353417e+003 1.877390e+003
         vertex 1.033292e+003 1.348326e+003 1.936348e+003
         vertex 1.033292e+003 1.353417e+003 1.948390e+003
      endloop
   endfacet
   facet normal -1.000000e+000 -1.040834e-016 1.026531e-018
      outer loop
         vertex 1.033292e+003 1.353417e+003 1.948390e+003
         vertex 1.033292e+003 1.348326e+003 1.936348e+003
         vertex 1.033292e+003 1.348417e+003 1.937390e+003
      endloop
   endfacet
   facet normal -1.000000e+000 -1.040834e-016 1.026531e-018
      outer loop
         vertex 1.033292e+003 1.353417e+003 1.948390e+003
         vertex 1.033292e+003 1.348417e+003 1.937390e+003
         vertex 1.033292e+003 1.348326e+003 1.938432e+003
      endloop
   endfacet
   facet normal -1.000000e+000 -1.040834e-016 1.026531e-018
      outer loop
         vertex 1.033292e+003 1.336779e+003 1.935338e+003
         vertex 1.033292e+003 1.337221e+003 1.934390e+003
         vertex 1.033292e+003 1.331417e+003 1.873390e+003
      endloop
   endfacet
   facet normal -1.000000e+000 -1.040834e-016 1.026531e-018
      outer loop
         vertex 1.033292e+003 1.331417e+003 1.873390e+003
         vertex 1.033292e+003 1.337221e+003 1.934390e+003
         vertex 1.033292e+003 1.337821e+003 1.933533e+003
      endloop
   endfacet
   facet normal -1.000000e+000 -1.040834e-016 1.026531e-018
      outer loop
         vertex 1.033292e+003 1.331417e+003 1.873390e+003
         vertex 1.033292e+003 1.337821e+003 1.933533e+003
         vertex 1.033292e+003 1.338561e+003 1.932794e+003
      endloop
   endfacet
   facet normal -1.000000e+000 -1.040834e-016 1.026531e-018
      outer loop
         vertex 1.033292e+003 1.344469e+003 1.931752e+003
         vertex 1.033292e+003 1.343459e+003 1.889299e+003
         vertex 1.033292e+003 1.343459e+003 1.931481e+003
      endloop
   endfacet
   facet normal -1.000000e+000 -1.040834e-016 1.026531e-018
      outer loop
         vertex 1.033292e+003 1.336779e+003 1.939442e+003
         vertex 1.033292e+003 1.336509e+003 1.938432e+003
         vertex 1.033292e+003 1.331417e+003 1.948390e+003
      endloop
   endfacet
   facet normal -1.000000e+000 -1.040834e-016 1.026531e-018
      outer loop
         vertex 1.033292e+003 1.331417e+003 1.948390e+003
         vertex 1.033292e+003 1.336509e+003 1.938432e+003
         vertex 1.033292e+003 1.336417e+003 1.937390e+003
      endloop
   endfacet
   facet normal -1.000000e+000 -1.040834e-016 1.026531e-018
      outer loop
         vertex 1.033292e+003 1.331417e+003 1.948390e+003
         vertex 1.033292e+003 1.336417e+003 1.937390e+003
         vertex 1.033292e+003 1.331417e+003 1.873390e+003
      endloop
   endfacet
   facet normal -1.000000e+000 -1.040834e-016 1.026531e-018
      outer loop
         vertex 1.033292e+003 1.331417e+003 1.873390e+003
         vertex 1.033292e+003 1.336417e+003 1.937390e+003
         vertex 1.033292e+003 1.336509e+003 1.936348e+003
      endloop
   endfacet
   facet normal -1.000000e+000 -1.040834e-016 1.026531e-018
      outer loop
         vertex 1.033292e+003 1.331417e+003 1.873390e+003
         vertex 1.033292e+003 1.336509e+003 1.936348e+003
         vertex 1.033292e+003 1.336779e+003 1.935338e+003
      endloop
   endfacet
   facet normal -1.000000e+000 -1.040834e-016 1.026531e-018
      outer loop
         vertex 1.033292e+003 1.348326e+003 1.884432e+003
         vertex 1.033292e+003 1.348056e+003 1.885442e+003
         vertex 1.033292e+003 1.344469e+003 1.931752e+003
      endloop
   endfacet
   facet normal -1.000000e+000 -1.040834e-016 1.026531e-018
      outer loop
         vertex 1.033292e+003 1.344469e+003 1.931752e+003
         vertex 1.033292e+003 1.348056e+003 1.885442e+003
         vertex 1.033292e+003 1.347613e+003 1.886390e+003
      endloop
   endfacet
   facet normal -1.000000e+000 -1.040834e-016 1.026531e-018
      outer loop
         vertex 1.033292e+003 1.344469e+003 1.931752e+003
         vertex 1.033292e+003 1.347613e+003 1.886390e+003
         vertex 1.033292e+003 1.347014e+003 1.887247e+003
      endloop
   endfacet
   facet normal -1.000000e+000 -1.040834e-016 1.026531e-018
      outer loop
         vertex 1.033292e+003 1.347014e+003 1.887247e+003
         vertex 1.033292e+003 1.346274e+003 1.887986e+003
         vertex 1.033292e+003 1.344469e+003 1.931752e+003
      endloop
   endfacet
   facet normal -1.000000e+000 -1.040834e-016 1.026531e-018
      outer loop
         vertex 1.033292e+003 1.344469e+003 1.931752e+003
         vertex 1.033292e+003 1.346274e+003 1.887986e+003
         vertex 1.033292e+003 1.345417e+003 1.888586e+003
      endloop
   endfacet
   facet normal -1.000000e+000 -1.040834e-016 1.026531e-018
      outer loop
         vertex 1.033292e+003 1.344469e+003 1.931752e+003
         vertex 1.033292e+003 1.345417e+003 1.888586e+003
         vertex 1.033292e+003 1.344469e+003 1.889028e+003
      endloop
   endfacet
   facet normal -1.000000e+000 -1.040834e-016 1.026531e-018
      outer loop
         vertex 1.033292e+003 1.339417e+003 1.888586e+003
         vertex 1.033292e+003 1.338561e+003 1.887986e+003
         vertex 1.033292e+003 1.340365e+003 1.931752e+003
      endloop
   endfacet
   facet normal -1.000000e+000 -1.040834e-016 1.026531e-018
      outer loop
         vertex 1.033292e+003 1.340365e+003 1.931752e+003
         vertex 1.033292e+003 1.338561e+003 1.887986e+003
         vertex 1.033292e+003 1.337821e+003 1.887247e+003
      endloop
   endfacet
   facet normal -1.000000e+000 -1.040834e-016 1.026531e-018
      outer loop
         vertex 1.033292e+003 1.340365e+003 1.931752e+003
         vertex 1.033292e+003 1.337821e+003 1.887247e+003
         vertex 1.033292e+003 1.337221e+003 1.886390e+003
      endloop
   endfacet
   facet normal -1.000000e+000 -1.040834e-016 1.026531e-018
      outer loop
         vertex 1.033292e+003 1.343459e+003 1.931481e+003
         vertex 1.033292e+003 1.343459e+003 1.889299e+003
         vertex 1.033292e+003 1.342417e+003 1.931390e+003
      endloop
   endfacet
   facet normal -1.000000e+000 -1.040834e-016 1.026531e-018
      outer loop
         vertex 1.033292e+003 1.342417e+003 1.931390e+003
         vertex 1.033292e+003 1.343459e+003 1.889299e+003
         vertex 1.033292e+003 1.342417e+003 1.889390e+003
      endloop
   endfacet
   facet normal -1.000000e+000 -1.040834e-016 1.026531e-018
      outer loop
         vertex 1.033292e+003 1.342417e+003 1.931390e+003
         vertex 1.033292e+003 1.342417e+003 1.889390e+003
         vertex 1.033292e+003 1.341375e+003 1.931481e+003
      endloop
   endfacet
   facet normal -1.000000e+000 -1.040834e-016 1.026531e-018
      outer loop
         vertex 1.033292e+003 1.341375e+003 1.931481e+003
         vertex 1.033292e+003 1.342417e+003 1.889390e+003
         vertex 1.033292e+003 1.341375e+003 1.889299e+003
      endloop
   endfacet
   facet normal -1.000000e+000 -1.040834e-016 1.026531e-018
      outer loop
         vertex 1.033292e+003 1.341375e+003 1.931481e+003
         vertex 1.033292e+003 1.341375e+003 1.889299e+003
         vertex 1.033292e+003 1.340365e+003 1.931752e+003
      endloop
   endfacet
   facet normal -1.000000e+000 -1.040834e-016 1.026531e-018
      outer loop
         vertex 1.033292e+003 1.340365e+003 1.931752e+003
         vertex 1.033292e+003 1.341375e+003 1.889299e+003
         vertex 1.033292e+003 1.340365e+003 1.889028e+003
      endloop
   endfacet
   facet normal -1.000000e+000 -1.040834e-016 1.026531e-018
      outer loop
         vertex 1.033292e+003 1.340365e+003 1.931752e+003
         vertex 1.033292e+003 1.340365e+003 1.889028e+003
         vertex 1.033292e+003 1.339417e+003 1.888586e+003
      endloop
   endfacet
   facet normal -1.000000e+000 -1.040834e-016 1.026531e-018
      outer loop
         vertex 1.033292e+003 1.337221e+003 1.886390e+003
         vertex 1.033292e+003 1.336779e+003 1.885442e+003
         vertex 1.033292e+003 1.340365e+003 1.931752e+003
      endloop
   endfacet
   facet normal -1.000000e+000 -1.040834e-016 1.026531e-018
      outer loop
         vertex 1.033292e+003 1.340365e+003 1.931752e+003
         vertex 1.033292e+003 1.336779e+003 1.885442e+003
         vertex 1.033292e+003 1.331417e+003 1.873390e+003
      endloop
   endfacet
   facet normal -1.000000e+000 -1.040834e-016 1.026531e-018
      outer loop
         vertex 1.033292e+003 1.340365e+003 1.931752e+003
         vertex 1.033292e+003 1.331417e+003 1.873390e+003
         vertex 1.033292e+003 1.339417e+003 1.932194e+003
      endloop
   endfacet
   facet normal -1.000000e+000 -1.040834e-016 1.026531e-018
      outer loop
         vertex 1.033292e+003 1.339417e+003 1.932194e+003
         vertex 1.033292e+003 1.331417e+003 1.873390e+003
         vertex 1.033292e+003 1.338561e+003 1.932794e+003
      endloop
   endfacet
   facet normal -1.000000e+000 -1.040834e-016 1.026531e-018
      outer loop
         vertex 1.033292e+003 1.336779e+003 1.885442e+003
         vertex 1.033292e+003 1.336509e+003 1.884432e+003
         vertex 1.033292e+003 1.331417e+003 1.873390e+003
      endloop
   endfacet
   facet normal -1.000000e+000 -1.040834e-016 1.026531e-018
      outer loop
         vertex 1.033292e+003 1.331417e+003 1.873390e+003
         vertex 1.033292e+003 1.336509e+003 1.884432e+003
         vertex 1.033292e+003 1.336417e+003 1.883390e+003
      endloop
   endfacet
   facet normal -1.000000e+000 -1.040834e-016 1.026531e-018
      outer loop
         vertex 1.033292e+003 1.331417e+003 1.873390e+003
         vertex 1.033292e+003 1.336417e+003 1.883390e+003
         vertex 1.033292e+003 1.336509e+003 1.882348e+003
      endloop
   endfacet
   facet normal -1.000000e+000 -1.040834e-016 1.026531e-018
      outer loop
         vertex 1.033292e+003 1.336509e+003 1.882348e+003
         vertex 1.033292e+003 1.336779e+003 1.881338e+003
         vertex 1.033292e+003 1.331417e+003 1.873390e+003
      endloop
   endfacet
   facet normal -1.000000e+000 -1.040834e-016 1.026531e-018
      outer loop
         vertex 1.033292e+003 1.331417e+003 1.873390e+003
         vertex 1.033292e+003 1.336779e+003 1.881338e+003
         vertex 1.033292e+003 1.337221e+003 1.880390e+003
      endloop
   endfacet
   facet normal -1.000000e+000 -1.040834e-016 1.026531e-018
      outer loop
         vertex 1.033292e+003 1.331417e+003 1.873390e+003
         vertex 1.033292e+003 1.337221e+003 1.880390e+003
         vertex 1.033292e+003 1.337821e+003 1.879533e+003
      endloop
   endfacet
   facet normal 1.000000e+000 1.040834e-016 -1.026531e-018
      outer loop
         vertex 1.041292e+003 1.340365e+003 1.877752e+003
         vertex 1.041292e+003 1.339417e+003 1.878194e+003
         vertex 1.041292e+003 1.331417e+003 1.873390e+003
      endloop
   endfacet
   facet normal 1.000000e+000 1.040834e-016 -1.026531e-018
      outer loop
         vertex 1.041292e+003 1.331417e+003 1.873390e+003
         vertex 1.041292e+003 1.339417e+003 1.878194e+003
         vertex 1.041292e+003 1.338561e+003 1.878794e+003
      endloop
   endfacet
   facet normal 1.000000e+000 1.040834e-016 -1.026531e-018
      outer loop
         vertex 1.041292e+003 1.331417e+003 1.873390e+003
         vertex 1.041292e+003 1.338561e+003 1.878794e+003
         vertex 1.041292e+003 1.337821e+003 1.879533e+003
      endloop
   endfacet
   facet normal 1.000000e+000 1.040834e-016 -1.026531e-018
      outer loop
         vertex 1.041292e+003 1.345417e+003 1.878194e+003
         vertex 1.041292e+003 1.344469e+003 1.877752e+003
         vertex 1.041292e+003 1.349417e+003 1.873390e+003
      endloop
   endfacet
   facet normal 1.000000e+000 1.040834e-016 -1.026531e-018
      outer loop
         vertex 1.041292e+003 1.331417e+003 1.873390e+003
         vertex 1.041292e+003 1.340365e+003 1.931752e+003
         vertex 1.041292e+003 1.339417e+003 1.932194e+003
      endloop
   endfacet
   facet normal 1.000000e+000 1.040834e-016 -1.026531e-018
      outer loop
         vertex 1.041292e+003 1.344469e+003 1.877752e+003
         vertex 1.041292e+003 1.343459e+003 1.877481e+003
         vertex 1.041292e+003 1.349417e+003 1.873390e+003
      endloop
   endfacet
   facet normal 1.000000e+000 1.040834e-016 -1.026531e-018
      outer loop
         vertex 1.041292e+003 1.349417e+003 1.873390e+003
         vertex 1.041292e+003 1.343459e+003 1.877481e+003
         vertex 1.041292e+003 1.342417e+003 1.877390e+003
      endloop
   endfacet
   facet normal 1.000000e+000 1.040834e-016 -1.026531e-018
      outer loop
         vertex 1.041292e+003 1.349417e+003 1.873390e+003
         vertex 1.041292e+003 1.342417e+003 1.877390e+003
         vertex 1.041292e+003 1.331417e+003 1.873390e+003
      endloop
   endfacet
   facet normal 1.000000e+000 1.040834e-016 -1.026531e-018
      outer loop
         vertex 1.041292e+003 1.331417e+003 1.873390e+003
         vertex 1.041292e+003 1.342417e+003 1.877390e+003
         vertex 1.041292e+003 1.341375e+003 1.877481e+003
      endloop
   endfacet
   facet normal 1.000000e+000 1.040834e-016 -1.026531e-018
      outer loop
         vertex 1.041292e+003 1.331417e+003 1.873390e+003
         vertex 1.041292e+003 1.341375e+003 1.877481e+003
         vertex 1.041292e+003 1.340365e+003 1.877752e+003
      endloop
   endfacet
   facet normal 1.000000e+000 1.040834e-016 -1.026531e-018
      outer loop
         vertex 1.041292e+003 1.337821e+003 1.879533e+003
         vertex 1.041292e+003 1.337221e+003 1.880390e+003
         vertex 1.041292e+003 1.331417e+003 1.873390e+003
      endloop
   endfacet
   facet normal 1.000000e+000 1.040834e-016 -1.026531e-018
      outer loop
         vertex 1.041292e+003 1.331417e+003 1.873390e+003
         vertex 1.041292e+003 1.337221e+003 1.880390e+003
         vertex 1.041292e+003 1.336779e+003 1.881338e+003
      endloop
   endfacet
   facet normal 1.000000e+000 1.040834e-016 -1.026531e-018
      outer loop
         vertex 1.041292e+003 1.331417e+003 1.873390e+003
         vertex 1.041292e+003 1.336779e+003 1.881338e+003
         vertex 1.041292e+003 1.336509e+003 1.882348e+003
      endloop
   endfacet
   facet normal 1.000000e+000 1.040834e-016 -1.026531e-018
      outer loop
         vertex 1.041292e+003 1.343459e+003 1.943299e+003
         vertex 1.041292e+003 1.344469e+003 1.943028e+003
         vertex 1.041292e+003 1.353417e+003 1.948390e+003
      endloop
   endfacet
   facet normal 1.000000e+000 1.040834e-016 -1.026531e-018
      outer loop
         vertex 1.041292e+003 1.353417e+003 1.948390e+003
         vertex 1.041292e+003 1.344469e+003 1.943028e+003
         vertex 1.041292e+003 1.345417e+003 1.942586e+003
      endloop
   endfacet
   facet normal 1.000000e+000 1.040834e-016 -1.026531e-018
      outer loop
         vertex 1.041292e+003 1.353417e+003 1.948390e+003
         vertex 1.041292e+003 1.345417e+003 1.942586e+003
         vertex 1.041292e+003 1.346274e+003 1.941986e+003
      endloop
   endfacet
   facet normal 1.000000e+000 1.040834e-016 -1.026531e-018
      outer loop
         vertex 1.041292e+003 1.337221e+003 1.940390e+003
         vertex 1.041292e+003 1.331417e+003 1.948390e+003
         vertex 1.041292e+003 1.336779e+003 1.939442e+003
      endloop
   endfacet
   facet normal 1.000000e+000 1.040834e-016 -1.026531e-018
      outer loop
         vertex 1.041292e+003 1.336779e+003 1.939442e+003
         vertex 1.041292e+003 1.331417e+003 1.948390e+003
         vertex 1.041292e+003 1.336509e+003 1.938432e+003
      endloop
   endfacet
   facet normal 1.000000e+000 1.040834e-016 -1.026531e-018
      outer loop
         vertex 1.041292e+003 1.339417e+003 1.932194e+003
         vertex 1.041292e+003 1.338561e+003 1.932794e+003
         vertex 1.041292e+003 1.331417e+003 1.873390e+003
      endloop
   endfacet
   facet normal 1.000000e+000 1.040834e-016 -1.026531e-018
      outer loop
         vertex 1.041292e+003 1.331417e+003 1.873390e+003
         vertex 1.041292e+003 1.338561e+003 1.932794e+003
         vertex 1.041292e+003 1.337821e+003 1.933533e+003
      endloop
   endfacet
   facet normal 1.000000e+000 1.040834e-016 -1.026531e-018
      outer loop
         vertex 1.041292e+003 1.331417e+003 1.873390e+003
         vertex 1.041292e+003 1.337821e+003 1.933533e+003
         vertex 1.041292e+003 1.337221e+003 1.934390e+003
      endloop
   endfacet
   facet normal 1.000000e+000 1.040834e-016 -1.026531e-018
      outer loop
         vertex 1.041292e+003 1.337221e+003 1.940390e+003
         vertex 1.041292e+003 1.337821e+003 1.941247e+003
         vertex 1.041292e+003 1.331417e+003 1.948390e+003
      endloop
   endfacet
   facet normal 1.000000e+000 1.040834e-016 -1.026531e-018
      outer loop
         vertex 1.041292e+003 1.331417e+003 1.948390e+003
         vertex 1.041292e+003 1.337821e+003 1.941247e+003
         vertex 1.041292e+003 1.338561e+003 1.941986e+003
      endloop
   endfacet
   facet normal 1.000000e+000 1.040834e-016 -1.026531e-018
      outer loop
         vertex 1.041292e+003 1.331417e+003 1.948390e+003
         vertex 1.041292e+003 1.338561e+003 1.941986e+003
         vertex 1.041292e+003 1.339417e+003 1.942586e+003
      endloop
   endfacet
   facet normal 1.000000e+000 1.040834e-016 -1.026531e-018
      outer loop
         vertex 1.041292e+003 1.339417e+003 1.942586e+003
         vertex 1.041292e+003 1.340365e+003 1.943028e+003
         vertex 1.041292e+003 1.331417e+003 1.948390e+003
      endloop
   endfacet
   facet normal 1.000000e+000 1.040834e-016 -1.026531e-018
      outer loop
         vertex 1.041292e+003 1.331417e+003 1.948390e+003
         vertex 1.041292e+003 1.340365e+003 1.943028e+003
         vertex 1.041292e+003 1.341375e+003 1.943299e+003
      endloop
   endfacet
   facet normal 1.000000e+000 1.040834e-016 -1.026531e-018
      outer loop
         vertex 1.041292e+003 1.331417e+003 1.948390e+003
         vertex 1.041292e+003 1.341375e+003 1.943299e+003
         vertex 1.041292e+003 1.353417e+003 1.948390e+003
      endloop
   endfacet
   facet normal 1.000000e+000 1.040834e-016 -1.026531e-018
      outer loop
         vertex 1.041292e+003 1.353417e+003 1.948390e+003
         vertex 1.041292e+003 1.341375e+003 1.943299e+003
         vertex 1.041292e+003 1.342417e+003 1.943390e+003
      endloop
   endfacet
   facet normal 1.000000e+000 1.040834e-016 -1.026531e-018
      outer loop
         vertex 1.041292e+003 1.353417e+003 1.948390e+003
         vertex 1.041292e+003 1.342417e+003 1.943390e+003
         vertex 1.041292e+003 1.343459e+003 1.943299e+003
      endloop
   endfacet
   facet normal 1.000000e+000 1.040834e-016 -1.026531e-018
      outer loop
         vertex 1.041292e+003 1.337221e+003 1.934390e+003
         vertex 1.041292e+003 1.336779e+003 1.935338e+003
         vertex 1.041292e+003 1.331417e+003 1.873390e+003
      endloop
   endfacet
   facet normal 1.000000e+000 1.040834e-016 -1.026531e-018
      outer loop
         vertex 1.041292e+003 1.331417e+003 1.873390e+003
         vertex 1.041292e+003 1.336779e+003 1.935338e+003
         vertex 1.041292e+003 1.336509e+003 1.936348e+003
      endloop
   endfacet
   facet normal 1.000000e+000 1.040834e-016 -1.026531e-018
      outer loop
         vertex 1.041292e+003 1.331417e+003 1.873390e+003
         vertex 1.041292e+003 1.336509e+003 1.936348e+003
         vertex 1.041292e+003 1.331417e+003 1.948390e+003
      endloop
   endfacet
   facet normal 1.000000e+000 1.040834e-016 -1.026531e-018
      outer loop
         vertex 1.041292e+003 1.331417e+003 1.948390e+003
         vertex 1.041292e+003 1.336509e+003 1.936348e+003
         vertex 1.041292e+003 1.336417e+003 1.937390e+003
      endloop
   endfacet
   facet normal 1.000000e+000 1.040834e-016 -1.026531e-018
      outer loop
         vertex 1.041292e+003 1.331417e+003 1.948390e+003
         vertex 1.041292e+003 1.336417e+003 1.937390e+003
         vertex 1.041292e+003 1.336509e+003 1.938432e+003
      endloop
   endfacet
   facet normal 1.000000e+000 1.040834e-016 -1.026531e-018
      outer loop
         vertex 1.041292e+003 1.346274e+003 1.941986e+003
         vertex 1.041292e+003 1.347014e+003 1.941247e+003
         vertex 1.041292e+003 1.353417e+003 1.948390e+003
      endloop
   endfacet
   facet normal 1.000000e+000 1.040834e-016 -1.026531e-018
      outer loop
         vertex 1.041292e+003 1.353417e+003 1.948390e+003
         vertex 1.041292e+003 1.347014e+003 1.941247e+003
         vertex 1.041292e+003 1.347613e+003 1.940390e+003
      endloop
   endfacet
   facet normal 1.000000e+000 1.040834e-016 -1.026531e-018
      outer loop
         vertex 1.041292e+003 1.353417e+003 1.948390e+003
         vertex 1.041292e+003 1.347613e+003 1.940390e+003
         vertex 1.041292e+003 1.348056e+003 1.939442e+003
      endloop
   endfacet
   facet normal 1.000000e+000 1.040834e-016 -1.026531e-018
      outer loop
         vertex 1.041292e+003 1.347014e+003 1.933533e+003
         vertex 1.041292e+003 1.353417e+003 1.877390e+003
         vertex 1.041292e+003 1.347613e+003 1.934390e+003
      endloop
   endfacet
   facet normal 1.000000e+000 1.040834e-016 -1.026531e-018
      outer loop
         vertex 1.041292e+003 1.347613e+003 1.934390e+003
         vertex 1.041292e+003 1.353417e+003 1.877390e+003
         vertex 1.041292e+003 1.348056e+003 1.935338e+003
      endloop
   endfacet
   facet normal 1.000000e+000 1.040834e-016 -1.026531e-018
      outer loop
         vertex 1.041292e+003 1.347014e+003 1.933533e+003
         vertex 1.041292e+003 1.346274e+003 1.932794e+003
         vertex 1.041292e+003 1.353417e+003 1.877390e+003
      endloop
   endfacet
   facet normal 1.000000e+000 1.040834e-016 -1.026531e-018
      outer loop
         vertex 1.041292e+003 1.353417e+003 1.877390e+003
         vertex 1.041292e+003 1.346274e+003 1.932794e+003
         vertex 1.041292e+003 1.345417e+003 1.932194e+003
      endloop
   endfacet
   facet normal 1.000000e+000 1.040834e-016 -1.026531e-018
      outer loop
         vertex 1.041292e+003 1.353417e+003 1.877390e+003
         vertex 1.041292e+003 1.345417e+003 1.932194e+003
         vertex 1.041292e+003 1.344469e+003 1.931752e+003
      endloop
   endfacet
   facet normal 1.000000e+000 1.040834e-016 -1.026531e-018
      outer loop
         vertex 1.041292e+003 1.337221e+003 1.886390e+003
         vertex 1.041292e+003 1.337821e+003 1.887247e+003
         vertex 1.041292e+003 1.340365e+003 1.931752e+003
      endloop
   endfacet
   facet normal 1.000000e+000 1.040834e-016 -1.026531e-018
      outer loop
         vertex 1.041292e+003 1.340365e+003 1.931752e+003
         vertex 1.041292e+003 1.337821e+003 1.887247e+003
         vertex 1.041292e+003 1.338561e+003 1.887986e+003
      endloop
   endfacet
   facet normal 1.000000e+000 1.040834e-016 -1.026531e-018
      outer loop
         vertex 1.041292e+003 1.348056e+003 1.881338e+003
         vertex 1.041292e+003 1.353417e+003 1.877390e+003
         vertex 1.041292e+003 1.348326e+003 1.882348e+003
      endloop
   endfacet
   facet normal 1.000000e+000 1.040834e-016 -1.026531e-018
      outer loop
         vertex 1.041292e+003 1.348326e+003 1.882348e+003
         vertex 1.041292e+003 1.353417e+003 1.877390e+003
         vertex 1.041292e+003 1.348417e+003 1.883390e+003
      endloop
   endfacet
   facet normal 1.000000e+000 1.040834e-016 -1.026531e-018
      outer loop
         vertex 1.041292e+003 1.348056e+003 1.881338e+003
         vertex 1.041292e+003 1.347613e+003 1.880390e+003
         vertex 1.041292e+003 1.353417e+003 1.877390e+003
      endloop
   endfacet
   facet normal 1.000000e+000 1.040834e-016 -1.026531e-018
      outer loop
         vertex 1.041292e+003 1.353417e+003 1.877390e+003
         vertex 1.041292e+003 1.347613e+003 1.880390e+003
         vertex 1.041292e+003 1.347014e+003 1.879533e+003
      endloop
   endfacet
   facet normal 1.000000e+000 1.040834e-016 -1.026531e-018
      outer loop
         vertex 1.041292e+003 1.353417e+003 1.877390e+003
         vertex 1.041292e+003 1.347014e+003 1.879533e+003
         vertex 1.041292e+003 1.349417e+003 1.873390e+003
      endloop
   endfacet
   facet normal 1.000000e+000 1.040834e-016 -1.026531e-018
      outer loop
         vertex 1.041292e+003 1.349417e+003 1.873390e+003
         vertex 1.041292e+003 1.347014e+003 1.879533e+003
         vertex 1.041292e+003 1.346274e+003 1.878794e+003
      endloop
   endfacet
   facet normal 1.000000e+000 1.040834e-016 -1.026531e-018
      outer loop
         vertex 1.041292e+003 1.349417e+003 1.873390e+003
         vertex 1.041292e+003 1.346274e+003 1.878794e+003
         vertex 1.041292e+003 1.345417e+003 1.878194e+003
      endloop
   endfacet
   facet normal 1.000000e+000 1.040834e-016 -1.026531e-018
      outer loop
         vertex 1.041292e+003 1.336509e+003 1.882348e+003
         vertex 1.041292e+003 1.336417e+003 1.883390e+003
         vertex 1.041292e+003 1.331417e+003 1.873390e+003
      endloop
   endfacet
   facet normal 1.000000e+000 1.040834e-016 -1.026531e-018
      outer loop
         vertex 1.041292e+003 1.331417e+003 1.873390e+003
         vertex 1.041292e+003 1.336417e+003 1.883390e+003
         vertex 1.041292e+003 1.336509e+003 1.884432e+003
      endloop
   endfacet
   facet normal 1.000000e+000 1.040834e-016 -1.026531e-018
      outer loop
         vertex 1.041292e+003 1.331417e+003 1.873390e+003
         vertex 1.041292e+003 1.336509e+003 1.884432e+003
         vertex 1.041292e+003 1.340365e+003 1.931752e+003
      endloop
   endfacet
   facet normal 1.000000e+000 1.040834e-016 -1.026531e-018
      outer loop
         vertex 1.041292e+003 1.340365e+003 1.931752e+003
         vertex 1.041292e+003 1.336509e+003 1.884432e+003
         vertex 1.041292e+003 1.336779e+003 1.885442e+003
      endloop
   endfacet
   facet normal 1.000000e+000 1.040834e-016 -1.026531e-018
      outer loop
         vertex 1.041292e+003 1.340365e+003 1.931752e+003
         vertex 1.041292e+003 1.336779e+003 1.885442e+003
         vertex 1.041292e+003 1.337221e+003 1.886390e+003
      endloop
   endfacet
   facet normal 1.000000e+000 1.040834e-016 -1.026531e-018
      outer loop
         vertex 1.041292e+003 1.338561e+003 1.887986e+003
         vertex 1.041292e+003 1.339417e+003 1.888586e+003
         vertex 1.041292e+003 1.340365e+003 1.931752e+003
      endloop
   endfacet
   facet normal 1.000000e+000 1.040834e-016 -1.026531e-018
      outer loop
         vertex 1.041292e+003 1.340365e+003 1.931752e+003
         vertex 1.041292e+003 1.339417e+003 1.888586e+003
         vertex 1.041292e+003 1.340365e+003 1.889028e+003
      endloop
   endfacet
   facet normal 1.000000e+000 1.040834e-016 -1.026531e-018
      outer loop
         vertex 1.041292e+003 1.340365e+003 1.931752e+003
         vertex 1.041292e+003 1.340365e+003 1.889028e+003
         vertex 1.041292e+003 1.341375e+003 1.889299e+003
      endloop
   endfacet
   facet normal 1.000000e+000 1.040834e-016 -1.026531e-018
      outer loop
         vertex 1.041292e+003 1.344469e+003 1.889028e+003
         vertex 1.041292e+003 1.345417e+003 1.888586e+003
         vertex 1.041292e+003 1.344469e+003 1.931752e+003
      endloop
   endfacet
   facet normal 1.000000e+000 1.040834e-016 -1.026531e-018
      outer loop
         vertex 1.041292e+003 1.344469e+003 1.931752e+003
         vertex 1.041292e+003 1.345417e+003 1.888586e+003
         vertex 1.041292e+003 1.346274e+003 1.887986e+003
      endloop
   endfacet
   facet normal 1.000000e+000 1.040834e-016 -1.026531e-018
      outer loop
         vertex 1.041292e+003 1.344469e+003 1.931752e+003
         vertex 1.041292e+003 1.346274e+003 1.887986e+003
         vertex 1.041292e+003 1.347014e+003 1.887247e+003
      endloop
   endfacet
   facet normal 1.000000e+000 1.040834e-016 -1.026531e-018
      outer loop
         vertex 1.041292e+003 1.348056e+003 1.939442e+003
         vertex 1.041292e+003 1.348326e+003 1.938432e+003
         vertex 1.041292e+003 1.353417e+003 1.948390e+003
      endloop
   endfacet
   facet normal 1.000000e+000 1.040834e-016 -1.026531e-018
      outer loop
         vertex 1.041292e+003 1.353417e+003 1.948390e+003
         vertex 1.041292e+003 1.348326e+003 1.938432e+003
         vertex 1.041292e+003 1.348417e+003 1.937390e+003
      endloop
   endfacet
   facet normal 1.000000e+000 1.040834e-016 -1.026531e-018
      outer loop
         vertex 1.041292e+003 1.353417e+003 1.948390e+003
         vertex 1.041292e+003 1.348417e+003 1.937390e+003
         vertex 1.041292e+003 1.353417e+003 1.877390e+003
      endloop
   endfacet
   facet normal 1.000000e+000 1.040834e-016 -1.026531e-018
      outer loop
         vertex 1.041292e+003 1.353417e+003 1.877390e+003
         vertex 1.041292e+003 1.348417e+003 1.937390e+003
         vertex 1.041292e+003 1.348326e+003 1.936348e+003
      endloop
   endfacet
   facet normal 1.000000e+000 1.040834e-016 -1.026531e-018
      outer loop
         vertex 1.041292e+003 1.353417e+003 1.877390e+003
         vertex 1.041292e+003 1.348326e+003 1.936348e+003
         vertex 1.041292e+003 1.348056e+003 1.935338e+003
      endloop
   endfacet
   facet normal 1.000000e+000 1.040834e-016 -1.026531e-018
      outer loop
         vertex 1.041292e+003 1.344469e+003 1.889028e+003
         vertex 1.041292e+003 1.344469e+003 1.931752e+003
         vertex 1.041292e+003 1.343459e+003 1.889299e+003
      endloop
   endfacet
   facet normal 1.000000e+000 1.040834e-016 -1.026531e-018
      outer loop
         vertex 1.041292e+003 1.343459e+003 1.889299e+003
         vertex 1.041292e+003 1.344469e+003 1.931752e+003
         vertex 1.041292e+003 1.343459e+003 1.931481e+003
      endloop
   endfacet
   facet normal 1.000000e+000 1.040834e-016 -1.026531e-018
      outer loop
         vertex 1.041292e+003 1.343459e+003 1.889299e+003
         vertex 1.041292e+003 1.343459e+003 1.931481e+003
         vertex 1.041292e+003 1.342417e+003 1.889390e+003
      endloop
   endfacet
   facet normal 1.000000e+000 1.040834e-016 -1.026531e-018
      outer loop
         vertex 1.041292e+003 1.342417e+003 1.889390e+003
         vertex 1.041292e+003 1.343459e+003 1.931481e+003
         vertex 1.041292e+003 1.342417e+003 1.931390e+003
      endloop
   endfacet
   facet normal 1.000000e+000 1.040834e-016 -1.026531e-018
      outer loop
         vertex 1.041292e+003 1.342417e+003 1.889390e+003
         vertex 1.041292e+003 1.342417e+003 1.931390e+003
         vertex 1.041292e+003 1.341375e+003 1.889299e+003
      endloop
   endfacet
   facet normal 1.000000e+000 1.040834e-016 -1.026531e-018
      outer loop
         vertex 1.041292e+003 1.341375e+003 1.889299e+003
         vertex 1.041292e+003 1.342417e+003 1.931390e+003
         vertex 1.041292e+003 1.341375e+003 1.931481e+003
      endloop
   endfacet
   facet normal 1.000000e+000 1.040834e-016 -1.026531e-018
      outer loop
         vertex 1.041292e+003 1.341375e+003 1.889299e+003
         vertex 1.041292e+003 1.341375e+003 1.931481e+003
         vertex 1.041292e+003 1.340365e+003 1.931752e+003
      endloop
   endfacet
   facet normal 1.000000e+000 1.040834e-016 -1.026531e-018
      outer loop
         vertex 1.041292e+003 1.347014e+003 1.887247e+003
         vertex 1.041292e+003 1.347613e+003 1.886390e+003
         vertex 1.041292e+003 1.344469e+003 1.931752e+003
      endloop
   endfacet
   facet normal 1.000000e+000 1.040834e-016 -1.026531e-018
      outer loop
         vertex 1.041292e+003 1.344469e+003 1.931752e+003
         vertex 1.041292e+003 1.347613e+003 1.886390e+003
         vertex 1.041292e+003 1.348056e+003 1.885442e+003
      endloop
   endfacet
   facet normal 1.000000e+000 1.040834e-016 -1.026531e-018
      outer loop
         vertex 1.041292e+003 1.344469e+003 1.931752e+003
         vertex 1.041292e+003 1.348056e+003 1.885442e+003
         vertex 1.041292e+003 1.353417e+003 1.877390e+003
      endloop
   endfacet
   facet normal 1.000000e+000 1.040834e-016 -1.026531e-018
      outer loop
         vertex 1.041292e+003 1.353417e+003 1.877390e+003
         vertex 1.041292e+003 1.348056e+003 1.885442e+003
         vertex 1.041292e+003 1.348326e+003 1.884432e+003
      endloop
   endfacet
   facet normal 1.000000e+000 1.040834e-016 -1.026531e-018
      outer loop
         vertex 1.041292e+003 1.353417e+003 1.877390e+003
         vertex 1.041292e+003 1.348326e+003 1.884432e+003
         vertex 1.041292e+003 1.348417e+003 1.883390e+003
      endloop
   endfacet
   facet normal 6.271981e-017 -9.983120e-001 -5.807914e-002
      outer loop
         vertex 1.041292e+003 1.348326e+003 1.884432e+003
         vertex 1.033292e+003 1.348417e+003 1.883390e+003
         vertex 1.041292e+003 1.348417e+003 1.883390e+003
      endloop
   endfacet
   facet normal 6.196945e-017 -9.983120e-001 5.807914e-002
      outer loop
         vertex 1.041292e+003 1.348417e+003 1.883390e+003
         vertex 1.033292e+003 1.348417e+003 1.883390e+003
         vertex 1.033292e+003 1.348326e+003 1.882348e+003
      endloop
   endfacet
   facet normal 6.127695e-017 -9.932307e-001 1.161583e-001
      outer loop
         vertex 1.041292e+003 1.348417e+003 1.883390e+003
         vertex 1.033292e+003 1.348326e+003 1.882348e+003
         vertex 1.041292e+003 1.348326e+003 1.882348e+003
      endloop
   endfacet
   facet normal 5.927834e-017 -9.730601e-001 2.305518e-001
      outer loop
         vertex 1.041292e+003 1.348326e+003 1.882348e+003
         vertex 1.033292e+003 1.348326e+003 1.882348e+003
         vertex 1.033292e+003 1.348056e+003 1.881338e+003
      endloop
   endfacet
   facet normal 5.797223e-017 -9.579706e-001 2.868663e-001
      outer loop
         vertex 1.041292e+003 1.348326e+003 1.882348e+003
         vertex 1.033292e+003 1.348056e+003 1.881338e+003
         vertex 1.041292e+003 1.348056e+003 1.881338e+003
      endloop
   endfacet
   facet normal 5.478608e-017 -9.182422e-001 3.960194e-001
      outer loop
         vertex 1.041292e+003 1.348056e+003 1.881338e+003
         vertex 1.033292e+003 1.348056e+003 1.881338e+003
         vertex 1.033292e+003 1.347613e+003 1.880390e+003
      endloop
   endfacet
   facet normal 5.290605e-017 -8.936031e-001 4.488580e-001
      outer loop
         vertex 1.041292e+003 1.348056e+003 1.881338e+003
         vertex 1.033292e+003 1.347613e+003 1.880390e+003
         vertex 1.041292e+003 1.347613e+003 1.880390e+003
      endloop
   endfacet
   facet normal 4.862919e-017 -8.355240e-001 5.494540e-001
      outer loop
         vertex 1.041292e+003 1.347613e+003 1.880390e+003
         vertex 1.033292e+003 1.347613e+003 1.880390e+003
         vertex 1.033292e+003 1.347014e+003 1.879533e+003
      endloop
   endfacet
   facet normal 4.623235e-017 -8.020839e-001 5.972114e-001
      outer loop
         vertex 1.041292e+003 1.347613e+003 1.880390e+003
         vertex 1.033292e+003 1.347014e+003 1.879533e+003
         vertex 1.041292e+003 1.347014e+003 1.879533e+003
      endloop
   endfacet
   facet normal 4.099471e-017 -7.274188e-001 6.861938e-001
      outer loop
         vertex 1.041292e+003 1.347014e+003 1.879533e+003
         vertex 1.033292e+003 1.347014e+003 1.879533e+003
         vertex 1.033292e+003 1.346274e+003 1.878794e+003
      endloop
   endfacet
   facet normal 3.815390e-017 -6.861938e-001 7.274188e-001
      outer loop
         vertex 1.041292e+003 1.347014e+003 1.879533e+003
         vertex 1.033292e+003 1.346274e+003 1.878794e+003
         vertex 1.041292e+003 1.346274e+003 1.878794e+003
      endloop
   endfacet
   facet normal 3.211463e-017 -5.972114e-001 8.020839e-001
      outer loop
         vertex 1.041292e+003 1.346274e+003 1.878794e+003
         vertex 1.033292e+003 1.346274e+003 1.878794e+003
         vertex 1.033292e+003 1.345417e+003 1.878194e+003
      endloop
   endfacet
   facet normal 2.891617e-017 -5.494540e-001 8.355240e-001
      outer loop
         vertex 1.041292e+003 1.346274e+003 1.878794e+003
         vertex 1.033292e+003 1.345417e+003 1.878194e+003
         vertex 1.041292e+003 1.345417e+003 1.878194e+003
      endloop
   endfacet
   facet normal 2.225877e-017 -4.488580e-001 8.936031e-001
      outer loop
         vertex 1.041292e+003 1.345417e+003 1.878194e+003
         vertex 1.033292e+003 1.345417e+003 1.878194e+003
         vertex 1.033292e+003 1.344469e+003 1.877752e+003
      endloop
   endfacet
   facet normal 1.879983e-017 -3.960194e-001 9.182422e-001
      outer loop
         vertex 1.041292e+003 1.345417e+003 1.878194e+003
         vertex 1.033292e+003 1.344469e+003 1.877752e+003
         vertex 1.041292e+003 1.344469e+003 1.877752e+003
      endloop
   endfacet
   facet normal 1.172658e-017 -2.868663e-001 9.579706e-001
      outer loop
         vertex 1.041292e+003 1.344469e+003 1.877752e+003
         vertex 1.033292e+003 1.344469e+003 1.877752e+003
         vertex 1.033292e+003 1.343459e+003 1.877481e+003
      endloop
   endfacet
   facet normal 8.112267e-018 -2.305518e-001 9.730601e-001
      outer loop
         vertex 1.041292e+003 1.344469e+003 1.877752e+003
         vertex 1.033292e+003 1.343459e+003 1.877481e+003
         vertex 1.041292e+003 1.343459e+003 1.877481e+003
      endloop
   endfacet
   facet normal 8.380871e-019 -1.161583e-001 9.932307e-001
      outer loop
         vertex 1.041292e+003 1.343459e+003 1.877481e+003
         vertex 1.033292e+003 1.343459e+003 1.877481e+003
         vertex 1.033292e+003 1.342417e+003 1.877390e+003
      endloop
   endfacet
   facet normal -2.821781e-018 -5.807914e-002 9.983120e-001
      outer loop
         vertex 1.041292e+003 1.343459e+003 1.877481e+003
         vertex 1.033292e+003 1.342417e+003 1.877390e+003
         vertex 1.041292e+003 1.342417e+003 1.877390e+003
      endloop
   endfacet
   facet normal -1.007587e-017 5.807914e-002 9.983120e-001
      outer loop
         vertex 1.041292e+003 1.342417e+003 1.877390e+003
         vertex 1.033292e+003 1.342417e+003 1.877390e+003
         vertex 1.033292e+003 1.341375e+003 1.877481e+003
      endloop
   endfacet
   facet normal -1.367009e-017 1.161583e-001 9.932307e-001
      outer loop
         vertex 1.041292e+003 1.342417e+003 1.877390e+003
         vertex 1.033292e+003 1.341375e+003 1.877481e+003
         vertex 1.041292e+003 1.341375e+003 1.877481e+003
      endloop
   endfacet
   facet normal -2.068368e-017 2.305518e-001 9.730601e-001
      outer loop
         vertex 1.041292e+003 1.341375e+003 1.877481e+003
         vertex 1.033292e+003 1.341375e+003 1.877481e+003
         vertex 1.033292e+003 1.340365e+003 1.877752e+003
      endloop
   endfacet
   facet normal -2.410304e-017 2.868663e-001 9.579706e-001
      outer loop
         vertex 1.041292e+003 1.341375e+003 1.877481e+003
         vertex 1.033292e+003 1.340365e+003 1.877752e+003
         vertex 1.041292e+003 1.340365e+003 1.877752e+003
      endloop
   endfacet
   facet normal -3.066302e-017 3.960194e-001 9.182422e-001
      outer loop
         vertex 1.041292e+003 1.340365e+003 1.877752e+003
         vertex 1.033292e+003 1.340365e+003 1.877752e+003
         vertex 1.033292e+003 1.339417e+003 1.878194e+003
      endloop
   endfacet
   facet normal -3.380364e-017 4.488580e-001 8.936031e-001
      outer loop
         vertex 1.041292e+003 1.340365e+003 1.877752e+003
         vertex 1.033292e+003 1.339417e+003 1.878194e+003
         vertex 1.041292e+003 1.339417e+003 1.878194e+003
      endloop
   endfacet
   facet normal -3.971068e-017 5.494540e-001 8.355240e-001
      outer loop
         vertex 1.041292e+003 1.339417e+003 1.878194e+003
         vertex 1.033292e+003 1.339417e+003 1.878194e+003
         vertex 1.033292e+003 1.338561e+003 1.878794e+003
      endloop
   endfacet
   facet normal -4.247712e-017 5.972114e-001 8.020839e-001
      outer loop
         vertex 1.041292e+003 1.339417e+003 1.878194e+003
         vertex 1.033292e+003 1.338561e+003 1.878794e+003
         vertex 1.041292e+003 1.338561e+003 1.878794e+003
      endloop
   endfacet
   facet normal -4.755176e-017 6.861938e-001 7.274188e-001
      outer loop
         vertex 1.041292e+003 1.338561e+003 1.878794e+003
         vertex 1.033292e+003 1.338561e+003 1.878794e+003
         vertex 1.033292e+003 1.337821e+003 1.879533e+003
      endloop
   endfacet
   facet normal -4.985996e-017 7.274188e-001 6.861938e-001
      outer loop
         vertex 1.041292e+003 1.338561e+003 1.878794e+003
         vertex 1.033292e+003 1.337821e+003 1.879533e+003
         vertex 1.041292e+003 1.337821e+003 1.879533e+003
      endloop
   endfacet
   facet normal -5.394800e-017 8.020839e-001 5.972114e-001
      outer loop
         vertex 1.041292e+003 1.337821e+003 1.879533e+003
         vertex 1.033292e+003 1.337821e+003 1.879533e+003
         vertex 1.033292e+003 1.337221e+003 1.880390e+003
      endloop
   endfacet
   facet normal -5.572783e-017 8.355240e-001 5.494540e-001
      outer loop
         vertex 1.041292e+003 1.337821e+003 1.879533e+003
         vertex 1.033292e+003 1.337221e+003 1.880390e+003
         vertex 1.041292e+003 1.337221e+003 1.880390e+003
      endloop
   endfacet
   facet normal -5.870505e-017 8.936031e-001 4.488580e-001
      outer loop
         vertex 1.041292e+003 1.337221e+003 1.880390e+003
         vertex 1.033292e+003 1.337221e+003 1.880390e+003
         vertex 1.033292e+003 1.336779e+003 1.881338e+003
      endloop
   endfacet
   facet normal -5.990244e-017 9.182422e-001 3.960194e-001
      outer loop
         vertex 1.041292e+003 1.337221e+003 1.880390e+003
         vertex 1.033292e+003 1.336779e+003 1.881338e+003
         vertex 1.041292e+003 1.336779e+003 1.881338e+003
      endloop
   endfacet
   facet normal -6.167839e-017 9.579706e-001 2.868663e-001
      outer loop
         vertex 1.041292e+003 1.336779e+003 1.881338e+003
         vertex 1.033292e+003 1.336779e+003 1.881338e+003
         vertex 1.033292e+003 1.336509e+003 1.882348e+003
      endloop
   endfacet
   facet normal -6.225695e-017 9.730601e-001 2.305518e-001
      outer loop
         vertex 1.041292e+003 1.336779e+003 1.881338e+003
         vertex 1.033292e+003 1.336509e+003 1.882348e+003
         vertex 1.041292e+003 1.336509e+003 1.882348e+003
      endloop
   endfacet
   facet normal -6.277765e-017 9.932307e-001 1.161583e-001
      outer loop
         vertex 1.041292e+003 1.336509e+003 1.882348e+003
         vertex 1.033292e+003 1.336509e+003 1.882348e+003
         vertex 1.033292e+003 1.336417e+003 1.883390e+003
      endloop
   endfacet
   facet normal -6.271981e-017 9.983120e-001 5.807914e-002
      outer loop
         vertex 1.041292e+003 1.336509e+003 1.882348e+003
         vertex 1.033292e+003 1.336417e+003 1.883390e+003
         vertex 1.041292e+003 1.336417e+003 1.883390e+003
      endloop
   endfacet
   facet normal -6.196945e-017 9.983120e-001 -5.807914e-002
      outer loop
         vertex 1.041292e+003 1.336417e+003 1.883390e+003
         vertex 1.033292e+003 1.336417e+003 1.883390e+003
         vertex 1.033292e+003 1.336509e+003 1.884432e+003
      endloop
   endfacet
   facet normal -6.127695e-017 9.932307e-001 -1.161583e-001
      outer loop
         vertex 1.041292e+003 1.336417e+003 1.883390e+003
         vertex 1.033292e+003 1.336509e+003 1.884432e+003
         vertex 1.041292e+003 1.336509e+003 1.884432e+003
      endloop
   endfacet
   facet normal -5.927834e-017 9.730601e-001 -2.305518e-001
      outer loop
         vertex 1.041292e+003 1.336509e+003 1.884432e+003
         vertex 1.033292e+003 1.336509e+003 1.884432e+003
         vertex 1.033292e+003 1.336779e+003 1.885442e+003
      endloop
   endfacet
   facet normal -5.797223e-017 9.579706e-001 -2.868663e-001
      outer loop
         vertex 1.041292e+003 1.336509e+003 1.884432e+003
         vertex 1.033292e+003 1.336779e+003 1.885442e+003
         vertex 1.041292e+003 1.336779e+003 1.885442e+003
      endloop
   endfacet
   facet normal -5.478608e-017 9.182422e-001 -3.960194e-001
      outer loop
         vertex 1.041292e+003 1.336779e+003 1.885442e+003
         vertex 1.033292e+003 1.336779e+003 1.885442e+003
         vertex 1.033292e+003 1.337221e+003 1.886390e+003
      endloop
   endfacet
   facet normal -5.290605e-017 8.936031e-001 -4.488580e-001
      outer loop
         vertex 1.041292e+003 1.336779e+003 1.885442e+003
         vertex 1.033292e+003 1.337221e+003 1.886390e+003
         vertex 1.041292e+003 1.337221e+003 1.886390e+003
      endloop
   endfacet
   facet normal -4.862919e-017 8.355240e-001 -5.494540e-001
      outer loop
         vertex 1.041292e+003 1.337221e+003 1.886390e+003
         vertex 1.033292e+003 1.337221e+003 1.886390e+003
         vertex 1.033292e+003 1.337821e+003 1.887247e+003
      endloop
   endfacet
   facet normal -4.623235e-017 8.020839e-001 -5.972114e-001
      outer loop
         vertex 1.041292e+003 1.337221e+003 1.886390e+003
         vertex 1.033292e+003 1.337821e+003 1.887247e+003
         vertex 1.041292e+003 1.337821e+003 1.887247e+003
      endloop
   endfacet
   facet normal -4.099471e-017 7.274188e-001 -6.861938e-001
      outer loop
         vertex 1.041292e+003 1.337821e+003 1.887247e+003
         vertex 1.033292e+003 1.337821e+003 1.887247e+003
         vertex 1.033292e+003 1.338561e+003 1.887986e+003
      endloop
   endfacet
   facet normal -3.815390e-017 6.861938e-001 -7.274188e-001
      outer loop
         vertex 1.041292e+003 1.337821e+003 1.887247e+003
         vertex 1.033292e+003 1.338561e+003 1.887986e+003
         vertex 1.041292e+003 1.338561e+003 1.887986e+003
      endloop
   endfacet
   facet normal -3.211463e-017 5.972114e-001 -8.020839e-001
      outer loop
         vertex 1.041292e+003 1.338561e+003 1.887986e+003
         vertex 1.033292e+003 1.338561e+003 1.887986e+003
         vertex 1.033292e+003 1.339417e+003 1.888586e+003
      endloop
   endfacet
   facet normal -2.891617e-017 5.494540e-001 -8.355240e-001
      outer loop
         vertex 1.041292e+003 1.338561e+003 1.887986e+003
         vertex 1.033292e+003 1.339417e+003 1.888586e+003
         vertex 1.041292e+003 1.339417e+003 1.888586e+003
      endloop
   endfacet
   facet normal -2.225877e-017 4.488580e-001 -8.936031e-001
      outer loop
         vertex 1.041292e+003 1.339417e+003 1.888586e+003
         vertex 1.033292e+003 1.339417e+003 1.888586e+003
         vertex 1.033292e+003 1.340365e+003 1.889028e+003
      endloop
   endfacet
   facet normal -1.879983e-017 3.960194e-001 -9.182422e-001
      outer loop
         vertex 1.041292e+003 1.339417e+003 1.888586e+003
         vertex 1.033292e+003 1.340365e+003 1.889028e+003
         vertex 1.041292e+003 1.340365e+003 1.889028e+003
      endloop
   endfacet
   facet normal -1.172658e-017 2.868663e-001 -9.579706e-001
      outer loop
         vertex 1.041292e+003 1.340365e+003 1.889028e+003
         vertex 1.033292e+003 1.340365e+003 1.889028e+003
         vertex 1.033292e+003 1.341375e+003 1.889299e+003
      endloop
   endfacet
   facet normal -8.112267e-018 2.305518e-001 -9.730601e-001
      outer loop
         vertex 1.041292e+003 1.340365e+003 1.889028e+003
         vertex 1.033292e+003 1.341375e+003 1.889299e+003
         vertex 1.041292e+003 1.341375e+003 1.889299e+003
      endloop
   endfacet
   facet normal -8.380871e-019 1.161583e-001 -9.932307e-001
      outer loop
         vertex 1.041292e+003 1.341375e+003 1.889299e+003
         vertex 1.033292e+003 1.341375e+003 1.889299e+003
         vertex 1.033292e+003 1.342417e+003 1.889390e+003
      endloop
   endfacet
   facet normal 2.821781e-018 5.807914e-002 -9.983120e-001
      outer loop
         vertex 1.041292e+003 1.341375e+003 1.889299e+003
         vertex 1.033292e+003 1.342417e+003 1.889390e+003
         vertex 1.041292e+003 1.342417e+003 1.889390e+003
      endloop
   endfacet
   facet normal 1.007587e-017 -5.807914e-002 -9.983120e-001
      outer loop
         vertex 1.041292e+003 1.342417e+003 1.889390e+003
         vertex 1.033292e+003 1.342417e+003 1.889390e+003
         vertex 1.033292e+003 1.343459e+003 1.889299e+003
      endloop
   endfacet
   facet normal 1.367009e-017 -1.161583e-001 -9.932307e-001
      outer loop
         vertex 1.041292e+003 1.342417e+003 1.889390e+003
         vertex 1.033292e+003 1.343459e+003 1.889299e+003
         vertex 1.041292e+003 1.343459e+003 1.889299e+003
      endloop
   endfacet
   facet normal 2.068368e-017 -2.305518e-001 -9.730601e-001
      outer loop
         vertex 1.041292e+003 1.343459e+003 1.889299e+003
         vertex 1.033292e+003 1.343459e+003 1.889299e+003
         vertex 1.033292e+003 1.344469e+003 1.889028e+003
      endloop
   endfacet
   facet normal 2.410304e-017 -2.868663e-001 -9.579706e-001
      outer loop
         vertex 1.041292e+003 1.343459e+003 1.889299e+003
         vertex 1.033292e+003 1.344469e+003 1.889028e+003
         vertex 1.041292e+003 1.344469e+003 1.889028e+003
      endloop
   endfacet
   facet normal 3.066302e-017 -3.960194e-001 -9.182422e-001
      outer loop
         vertex 1.041292e+003 1.344469e+003 1.889028e+003
         vertex 1.033292e+003 1.344469e+003 1.889028e+003
         vertex 1.033292e+003 1.345417e+003 1.888586e+003
      endloop
   endfacet
   facet normal 3.380364e-017 -4.488580e-001 -8.936031e-001
      outer loop
         vertex 1.041292e+003 1.344469e+003 1.889028e+003
         vertex 1.033292e+003 1.345417e+003 1.888586e+003
         vertex 1.041292e+003 1.345417e+003 1.888586e+003
      endloop
   endfacet
   facet normal 3.971068e-017 -5.494540e-001 -8.355240e-001
      outer loop
         vertex 1.041292e+003 1.345417e+003 1.888586e+003
         vertex 1.033292e+003 1.345417e+003 1.888586e+003
         vertex 1.033292e+003 1.346274e+003 1.887986e+003
      endloop
   endfacet
   facet normal 4.247712e-017 -5.972114e-001 -8.020839e-001
      outer loop
         vertex 1.041292e+003 1.345417e+003 1.888586e+003
         vertex 1.033292e+003 1.346274e+003 1.887986e+003
         vertex 1.041292e+003 1.346274e+003 1.887986e+003
      endloop
   endfacet
   facet normal 4.755176e-017 -6.861938e-001 -7.274188e-001
      outer loop
         vertex 1.041292e+003 1.346274e+003 1.887986e+003
         vertex 1.033292e+003 1.346274e+003 1.887986e+003
         vertex 1.033292e+003 1.347014e+003 1.887247e+003
      endloop
   endfacet
   facet normal 4.985996e-017 -7.274188e-001 -6.861938e-001
      outer loop
         vertex 1.041292e+003 1.346274e+003 1.887986e+003
         vertex 1.033292e+003 1.347014e+003 1.887247e+003
         vertex 1.041292e+003 1.347014e+003 1.887247e+003
      endloop
   endfacet
   facet normal 5.394800e-017 -8.020839e-001 -5.972114e-001
      outer loop
         vertex 1.041292e+003 1.347014e+003 1.887247e+003
         vertex 1.033292e+003 1.347014e+003 1.887247e+003
         vertex 1.033292e+003 1.347613e+003 1.886390e+003
      endloop
   endfacet
   facet normal 5.572783e-017 -8.355240e-001 -5.494540e-001
      outer loop
         vertex 1.041292e+003 1.347014e+003 1.887247e+003
         vertex 1.033292e+003 1.347613e+003 1.886390e+003
         vertex 1.041292e+003 1.347613e+003 1.886390e+003
      endloop
   endfacet
   facet normal 5.870505e-017 -8.936031e-001 -4.488580e-001
      outer loop
         vertex 1.041292e+003 1.347613e+003 1.886390e+003
         vertex 1.033292e+003 1.347613e+003 1.886390e+003
         vertex 1.033292e+003 1.348056e+003 1.885442e+003
      endloop
   endfacet
   facet normal 5.990244e-017 -9.182422e-001 -3.960194e-001
      outer loop
         vertex 1.041292e+003 1.347613e+003 1.886390e+003
         vertex 1.033292e+003 1.348056e+003 1.885442e+003
         vertex 1.041292e+003 1.348056e+003 1.885442e+003
      endloop
   endfacet
   facet normal 6.167839e-017 -9.579706e-001 -2.868663e-001
      outer loop
         vertex 1.041292e+003 1.348056e+003 1.885442e+003
         vertex 1.033292e+003 1.348056e+003 1.885442e+003
         vertex 1.033292e+003 1.348326e+003 1.884432e+003
      endloop
   endfacet
   facet normal 6.225695e-017 -9.730601e-001 -2.305518e-001
      outer loop
         vertex 1.041292e+003 1.348056e+003 1.885442e+003
         vertex 1.033292e+003 1.348326e+003 1.884432e+003
         vertex 1.041292e+003 1.348326e+003 1.884432e+003
      endloop
   endfacet
   facet normal 6.277765e-017 -9.932307e-001 -1.161583e-001
      outer loop
         vertex 1.041292e+003 1.348326e+003 1.884432e+003
         vertex 1.033292e+003 1.348326e+003 1.884432e+003
         vertex 1.033292e+003 1.348417e+003 1.883390e+003
      endloop
   endfacet
   facet normal 6.271981e-017 -9.983120e-001 -5.807914e-002
      outer loop
         vertex 1.041292e+003 1.348326e+003 1.938432e+003
         vertex 1.033292e+003 1.348417e+003 1.937390e+003
         vertex 1.041292e+003 1.348417e+003 1.937390e+003
      endloop
   endfacet
   facet normal 6.196945e-017 -9.983120e-001 5.807914e-002
      outer loop
         vertex 1.041292e+003 1.348417e+003 1.937390e+003
         vertex 1.033292e+003 1.348417e+003 1.937390e+003
         vertex 1.033292e+003 1.348326e+003 1.936348e+003
      endloop
   endfacet
   facet normal 6.127695e-017 -9.932307e-001 1.161583e-001
      outer loop
         vertex 1.041292e+003 1.348417e+003 1.937390e+003
         vertex 1.033292e+003 1.348326e+003 1.936348e+003
         vertex 1.041292e+003 1.348326e+003 1.936348e+003
      endloop
   endfacet
   facet normal 5.927834e-017 -9.730601e-001 2.305518e-001
      outer loop
         vertex 1.041292e+003 1.348326e+003 1.936348e+003
         vertex 1.033292e+003 1.348326e+003 1.936348e+003
         vertex 1.033292e+003 1.348056e+003 1.935338e+003
      endloop
   endfacet
   facet normal 5.797223e-017 -9.579706e-001 2.868663e-001
      outer loop
         vertex 1.041292e+003 1.348326e+003 1.936348e+003
         vertex 1.033292e+003 1.348056e+003 1.935338e+003
         vertex 1.041292e+003 1.348056e+003 1.935338e+003
      endloop
   endfacet
   facet normal 5.478608e-017 -9.182422e-001 3.960194e-001
      outer loop
         vertex 1.041292e+003 1.348056e+003 1.935338e+003
         vertex 1.033292e+003 1.348056e+003 1.935338e+003
         vertex 1.033292e+003 1.347613e+003 1.934390e+003
      endloop
   endfacet
   facet normal 5.290605e-017 -8.936031e-001 4.488580e-001
      outer loop
         vertex 1.041292e+003 1.348056e+003 1.935338e+003
         vertex 1.033292e+003 1.347613e+003 1.934390e+003
         vertex 1.041292e+003 1.347613e+003 1.934390e+003
      endloop
   endfacet
   facet normal 4.862919e-017 -8.355240e-001 5.494540e-001
      outer loop
         vertex 1.041292e+003 1.347613e+003 1.934390e+003
         vertex 1.033292e+003 1.347613e+003 1.934390e+003
         vertex 1.033292e+003 1.347014e+003 1.933533e+003
      endloop
   endfacet
   facet normal 4.623235e-017 -8.020839e-001 5.972114e-001
      outer loop
         vertex 1.041292e+003 1.347613e+003 1.934390e+003
         vertex 1.033292e+003 1.347014e+003 1.933533e+003
         vertex 1.041292e+003 1.347014e+003 1.933533e+003
      endloop
   endfacet
   facet normal 4.099471e-017 -7.274188e-001 6.861938e-001
      outer loop
         vertex 1.041292e+003 1.347014e+003 1.933533e+003
         vertex 1.033292e+003 1.347014e+003 1.933533e+003
         vertex 1.033292e+003 1.346274e+003 1.932794e+003
      endloop
   endfacet
   facet normal 3.815390e-017 -6.861938e-001 7.274188e-001
      outer loop
         vertex 1.041292e+003 1.347014e+003 1.933533e+003
         vertex 1.033292e+003 1.346274e+003 1.932794e+003
         vertex 1.041292e+003 1.346274e+003 1.932794e+003
      endloop
   endfacet
   facet normal 3.211463e-017 -5.972114e-001 8.020839e-001
      outer loop
         vertex 1.041292e+003 1.346274e+003 1.932794e+003
         vertex 1.033292e+003 1.346274e+003 1.932794e+003
         vertex 1.033292e+003 1.345417e+003 1.932194e+003
      endloop
   endfacet
   facet normal 2.891617e-017 -5.494540e-001 8.355240e-001
      outer loop
         vertex 1.041292e+003 1.346274e+003 1.932794e+003
         vertex 1.033292e+003 1.345417e+003 1.932194e+003
         vertex 1.041292e+003 1.345417e+003 1.932194e+003
      endloop
   endfacet
   facet normal 2.225877e-017 -4.488580e-001 8.936031e-001
      outer loop
         vertex 1.041292e+003 1.345417e+003 1.932194e+003
         vertex 1.033292e+003 1.345417e+003 1.932194e+003
         vertex 1.033292e+003 1.344469e+003 1.931752e+003
      endloop
   endfacet
   facet normal 1.879983e-017 -3.960194e-001 9.182422e-001
      outer loop
         vertex 1.041292e+003 1.345417e+003 1.932194e+003
         vertex 1.033292e+003 1.344469e+003 1.931752e+003
         vertex 1.041292e+003 1.344469e+003 1.931752e+003
      endloop
   endfacet
   facet normal 1.172658e-017 -2.868663e-001 9.579706e-001
      outer loop
         vertex 1.041292e+003 1.344469e+003 1.931752e+003
         vertex 1.033292e+003 1.344469e+003 1.931752e+003
         vertex 1.033292e+003 1.343459e+003 1.931481e+003
      endloop
   endfacet
   facet normal 8.112267e-018 -2.305518e-001 9.730601e-001
      outer loop
         vertex 1.041292e+003 1.344469e+003 1.931752e+003
         vertex 1.033292e+003 1.343459e+003 1.931481e+003
         vertex 1.041292e+003 1.343459e+003 1.931481e+003
      endloop
   endfacet
   facet normal 8.380871e-019 -1.161583e-001 9.932307e-001
      outer loop
         vertex 1.041292e+003 1.343459e+003 1.931481e+003
         vertex 1.033292e+003 1.343459e+003 1.931481e+003
         vertex 1.033292e+003 1.342417e+003 1.931390e+003
      endloop
   endfacet
   facet normal -2.821781e-018 -5.807914e-002 9.983120e-001
      outer loop
         vertex 1.041292e+003 1.343459e+003 1.931481e+003
         vertex 1.033292e+003 1.342417e+003 1.931390e+003
         vertex 1.041292e+003 1.342417e+003 1.931390e+003
      endloop
   endfacet
   facet normal -1.007587e-017 5.807914e-002 9.983120e-001
      outer loop
         vertex 1.041292e+003 1.342417e+003 1.931390e+003
         vertex 1.033292e+003 1.342417e+003 1.931390e+003
         vertex 1.033292e+003 1.341375e+003 1.931481e+003
      endloop
   endfacet
   facet normal -1.367009e-017 1.161583e-001 9.932307e-001
      outer loop
         vertex 1.041292e+003 1.342417e+003 1.931390e+003
         vertex 1.033292e+003 1.341375e+003 1.931481e+003
         vertex 1.041292e+003 1.341375e+003 1.931481e+003
      endloop
   endfacet
   facet normal -2.068368e-017 2.305518e-001 9.730601e-001
      outer loop
         vertex 1.041292e+003 1.341375e+003 1.931481e+003
         vertex 1.033292e+003 1.341375e+003 1.931481e+003
         vertex 1.033292e+003 1.340365e+003 1.931752e+003
      endloop
   endfacet
   facet normal -2.410304e-017 2.868663e-001 9.579706e-001
      outer loop
         vertex 1.041292e+003 1.341375e+003 1.931481e+003
         vertex 1.033292e+003 1.340365e+003 1.931752e+003
         vertex 1.041292e+003 1.340365e+003 1.931752e+003
      endloop
   endfacet
   facet normal -3.066302e-017 3.960194e-001 9.182422e-001
      outer loop
         vertex 1.041292e+003 1.340365e+003 1.931752e+003
         vertex 1.033292e+003 1.340365e+003 1.931752e+003
         vertex 1.033292e+003 1.339417e+003 1.932194e+003
      endloop
   endfacet
   facet normal -3.380364e-017 4.488580e-001 8.936031e-001
      outer loop
         vertex 1.041292e+003 1.340365e+003 1.931752e+003
         vertex 1.033292e+003 1.339417e+003 1.932194e+003
         vertex 1.041292e+003 1.339417e+003 1.932194e+003
      endloop
   endfacet
   facet normal -3.971068e-017 5.494540e-001 8.355240e-001
      outer loop
         vertex 1.041292e+003 1.339417e+003 1.932194e+003
         vertex 1.033292e+003 1.339417e+003 1.932194e+003
         vertex 1.033292e+003 1.338561e+003 1.932794e+003
      endloop
   endfacet
   facet normal -4.247712e-017 5.972114e-001 8.020839e-001
      outer loop
         vertex 1.041292e+003 1.339417e+003 1.932194e+003
         vertex 1.033292e+003 1.338561e+003 1.932794e+003
         vertex 1.041292e+003 1.338561e+003 1.932794e+003
      endloop
   endfacet
   facet normal -4.755176e-017 6.861938e-001 7.274188e-001
      outer loop
         vertex 1.041292e+003 1.338561e+003 1.932794e+003
         vertex 1.033292e+003 1.338561e+003 1.932794e+003
         vertex 1.033292e+003 1.337821e+003 1.933533e+003
      endloop
   endfacet
   facet normal -4.985996e-017 7.274188e-001 6.861938e-001
      outer loop
         vertex 1.041292e+003 1.338561e+003 1.932794e+003
         vertex 1.033292e+003 1.337821e+003 1.933533e+003
         vertex 1.041292e+003 1.337821e+003 1.933533e+003
      endloop
   endfacet
   facet normal -5.394800e-017 8.020839e-001 5.972114e-001
      outer loop
         vertex 1.041292e+003 1.337821e+003 1.933533e+003
         vertex 1.033292e+003 1.337821e+003 1.933533e+003
         vertex 1.033292e+003 1.337221e+003 1.934390e+003
      endloop
   endfacet
   facet normal -5.572783e-017 8.355240e-001 5.494540e-001
      outer loop
         vertex 1.041292e+003 1.337821e+003 1.933533e+003
         vertex 1.033292e+003 1.337221e+003 1.934390e+003
         vertex 1.041292e+003 1.337221e+003 1.934390e+003
      endloop
   endfacet
   facet normal -5.870505e-017 8.936031e-001 4.488580e-001
      outer loop
         vertex 1.041292e+003 1.337221e+003 1.934390e+003
         vertex 1.033292e+003 1.337221e+003 1.934390e+003
         vertex 1.033292e+003 1.336779e+003 1.935338e+003
      endloop
   endfacet
   facet normal -5.990244e-017 9.182422e-001 3.960194e-001
      outer loop
         vertex 1.041292e+003 1.337221e+003 1.934390e+003
         vertex 1.033292e+003 1.336779e+003 1.935338e+003
         vertex 1.041292e+003 1.336779e+003 1.935338e+003
      endloop
   endfacet
   facet normal -6.167839e-017 9.579706e-001 2.868663e-001
      outer loop
         vertex 1.041292e+003 1.336779e+003 1.935338e+003
         vertex 1.033292e+003 1.336779e+003 1.935338e+003
         vertex 1.033292e+003 1.336509e+003 1.936348e+003
      endloop
   endfacet
   facet normal -6.225695e-017 9.730601e-001 2.305518e-001
      outer loop
         vertex 1.041292e+003 1.336779e+003 1.935338e+003
         vertex 1.033292e+003 1.336509e+003 1.936348e+003
         vertex 1.041292e+003 1.336509e+003 1.936348e+003
      endloop
   endfacet
   facet normal -6.277765e-017 9.932307e-001 1.161583e-001
      outer loop
         vertex 1.041292e+003 1.336509e+003 1.936348e+003
         vertex 1.033292e+003 1.336509e+003 1.936348e+003
         vertex 1.033292e+003 1.336417e+003 1.937390e+003
      endloop
   endfacet
   facet normal -6.271981e-017 9.983120e-001 5.807914e-002
      outer loop
         vertex 1.041292e+003 1.336509e+003 1.936348e+003
         vertex 1.033292e+003 1.336417e+003 1.937390e+003
         vertex 1.041292e+003 1.336417e+003 1.937390e+003
      endloop
   endfacet
   facet normal -6.196945e-017 9.983120e-001 -5.807914e-002
      outer loop
         vertex 1.041292e+003 1.336417e+003 1.937390e+003
         vertex 1.033292e+003 1.336417e+003 1.937390e+003
         vertex 1.033292e+003 1.336509e+003 1.938432e+003
      endloop
   endfacet
   facet normal -6.127695e-017 9.932307e-001 -1.161583e-001
      outer loop
         vertex 1.041292e+003 1.336417e+003 1.937390e+003
         vertex 1.033292e+003 1.336509e+003 1.938432e+003
         vertex 1.041292e+003 1.336509e+003 1.938432e+003
      endloop
   endfacet
   facet normal -5.927834e-017 9.730601e-001 -2.305518e-001
      outer loop
         vertex 1.041292e+003 1.336509e+003 1.938432e+003
         vertex 1.033292e+003 1.336509e+003 1.938432e+003
         vertex 1.033292e+003 1.336779e+003 1.939442e+003
      endloop
   endfacet
   facet normal -5.797223e-017 9.579706e-001 -2.868663e-001
      outer loop
         vertex 1.041292e+003 1.336509e+003 1.938432e+003
         vertex 1.033292e+003 1.336779e+003 1.939442e+003
         vertex 1.041292e+003 1.336779e+003 1.939442e+003
      endloop
   endfacet
   facet normal -5.478608e-017 9.182422e-001 -3.960194e-001
      outer loop
         vertex 1.041292e+003 1.336779e+003 1.939442e+003
         vertex 1.033292e+003 1.336779e+003 1.939442e+003
         vertex 1.033292e+003 1.337221e+003 1.940390e+003
      endloop
   endfacet
   facet normal -5.290605e-017 8.936031e-001 -4.488580e-001
      outer loop
         vertex 1.041292e+003 1.336779e+003 1.939442e+003
         vertex 1.033292e+003 1.337221e+003 1.940390e+003
         vertex 1.041292e+003 1.337221e+003 1.940390e+003
      endloop
   endfacet
   facet normal -4.862919e-017 8.355240e-001 -5.494540e-001
      outer loop
         vertex 1.041292e+003 1.337221e+003 1.940390e+003
         vertex 1.033292e+003 1.337221e+003 1.940390e+003
         vertex 1.033292e+003 1.337821e+003 1.941247e+003
      endloop
   endfacet
   facet normal -4.623235e-017 8.020839e-001 -5.972114e-001
      outer loop
         vertex 1.041292e+003 1.337221e+003 1.940390e+003
         vertex 1.033292e+003 1.337821e+003 1.941247e+003
         vertex 1.041292e+003 1.337821e+003 1.941247e+003
      endloop
   endfacet
   facet normal -4.099471e-017 7.274188e-001 -6.861938e-001
      outer loop
         vertex 1.041292e+003 1.337821e+003 1.941247e+003
         vertex 1.033292e+003 1.337821e+003 1.941247e+003
         vertex 1.033292e+003 1.338561e+003 1.941986e+003
      endloop
   endfacet
   facet normal -3.815390e-017 6.861938e-001 -7.274188e-001
      outer loop
         vertex 1.041292e+003 1.337821e+003 1.941247e+003
         vertex 1.033292e+003 1.338561e+003 1.941986e+003
         vertex 1.041292e+003 1.338561e+003 1.941986e+003
      endloop
   endfacet
   facet normal -3.211463e-017 5.972114e-001 -8.020839e-001
      outer loop
         vertex 1.041292e+003 1.338561e+003 1.941986e+003
         vertex 1.033292e+003 1.338561e+003 1.941986e+003
         vertex 1.033292e+003 1.339417e+003 1.942586e+003
      endloop
   endfacet
   facet normal -2.891617e-017 5.494540e-001 -8.355240e-001
      outer loop
         vertex 1.041292e+003 1.338561e+003 1.941986e+003
         vertex 1.033292e+003 1.339417e+003 1.942586e+003
         vertex 1.041292e+003 1.339417e+003 1.942586e+003
      endloop
   endfacet
   facet normal -2.225877e-017 4.488580e-001 -8.936031e-001
      outer loop
         vertex 1.041292e+003 1.339417e+003 1.942586e+003
         vertex 1.033292e+003 1.339417e+003 1.942586e+003
         vertex 1.033292e+003 1.340365e+003 1.943028e+003
      endloop
   endfacet
   facet normal -1.879983e-017 3.960194e-001 -9.182422e-001
      outer loop
         vertex 1.041292e+003 1.339417e+003 1.942586e+003
         vertex 1.033292e+003 1.340365e+003 1.943028e+003
         vertex 1.041292e+003 1.340365e+003 1.943028e+003
      endloop
   endfacet
   facet normal -1.172658e-017 2.868663e-001 -9.579706e-001
      outer loop
         vertex 1.041292e+003 1.340365e+003 1.943028e+003
         vertex 1.033292e+003 1.340365e+003 1.943028e+003
         vertex 1.033292e+003 1.341375e+003 1.943299e+003
      endloop
   endfacet
   facet normal -8.112267e-018 2.305518e-001 -9.730601e-001
      outer loop
         vertex 1.041292e+003 1.340365e+003 1.943028e+003
         vertex 1.033292e+003 1.341375e+003 1.943299e+003
         vertex 1.041292e+003 1.341375e+003 1.943299e+003
      endloop
   endfacet
   facet normal -8.380871e-019 1.161583e-001 -9.932307e-001
      outer loop
         vertex 1.041292e+003 1.341375e+003 1.943299e+003
         vertex 1.033292e+003 1.341375e+003 1.943299e+003
         vertex 1.033292e+003 1.342417e+003 1.943390e+003
      endloop
   endfacet
   facet normal 2.821781e-018 5.807914e-002 -9.983120e-001
      outer loop
         vertex 1.041292e+003 1.341375e+003 1.943299e+003
         vertex 1.033292e+003 1.342417e+003 1.943390e+003
         vertex 1.041292e+003 1.342417e+003 1.943390e+003
      endloop
   endfacet
   facet normal 1.007587e-017 -5.807914e-002 -9.983120e-001
      outer loop
         vertex 1.041292e+003 1.342417e+003 1.943390e+003
         vertex 1.033292e+003 1.342417e+003 1.943390e+003
         vertex 1.033292e+003 1.343459e+003 1.943299e+003
      endloop
   endfacet
   facet normal 1.367009e-017 -1.161583e-001 -9.932307e-001
      outer loop
         vertex 1.041292e+003 1.342417e+003 1.943390e+003
         vertex 1.033292e+003 1.343459e+003 1.943299e+003
         vertex 1.041292e+003 1.343459e+003 1.943299e+003
      endloop
   endfacet
   facet normal 2.068368e-017 -2.305518e-001 -9.730601e-001
      outer loop
         vertex 1.041292e+003 1.343459e+003 1.943299e+003
         vertex 1.033292e+003 1.343459e+003 1.943299e+003
         vertex 1.033292e+003 1.344469e+003 1.943028e+003
      endloop
   endfacet
   facet normal 2.410304e-017 -2.868663e-001 -9.579706e-001
      outer loop
         vertex 1.041292e+003 1.343459e+003 1.943299e+003
         vertex 1.033292e+003 1.344469e+003 1.943028e+003
         vertex 1.041292e+003 1.344469e+003 1.943028e+003
      endloop
   endfacet
   facet normal 3.066302e-017 -3.960194e-001 -9.182422e-001
      outer loop
         vertex 1.041292e+003 1.344469e+003 1.943028e+003
         vertex 1.033292e+003 1.344469e+003 1.943028e+003
         vertex 1.033292e+003 1.345417e+003 1.942586e+003
      endloop
   endfacet
   facet normal 3.380364e-017 -4.488580e-001 -8.936031e-001
      outer loop
         vertex 1.041292e+003 1.344469e+003 1.943028e+003
         vertex 1.033292e+003 1.345417e+003 1.942586e+003
         vertex 1.041292e+003 1.345417e+003 1.942586e+003
      endloop
   endfacet
   facet normal 3.971068e-017 -5.494540e-001 -8.355240e-001
      outer loop
         vertex 1.041292e+003 1.345417e+003 1.942586e+003
         vertex 1.033292e+003 1.345417e+003 1.942586e+003
         vertex 1.033292e+003 1.346274e+003 1.941986e+003
      endloop
   endfacet
   facet normal 4.247712e-017 -5.972114e-001 -8.020839e-001
      outer loop
         vertex 1.041292e+003 1.345417e+003 1.942586e+003
         vertex 1.033292e+003 1.346274e+003 1.941986e+003
         vertex 1.041292e+003 1.346274e+003 1.941986e+003
      endloop
   endfacet
   facet normal 4.755176e-017 -6.861938e-001 -7.274188e-001
      outer loop
         vertex 1.041292e+003 1.346274e+003 1.941986e+003
         vertex 1.033292e+003 1.346274e+003 1.941986e+003
         vertex 1.033292e+003 1.347014e+003 1.941247e+003
      endloop
   endfacet
   facet normal 4.985996e-017 -7.274188e-001 -6.861938e-001
      outer loop
         vertex 1.041292e+003 1.346274e+003 1.941986e+003
         vertex 1.033292e+003 1.347014e+003 1.941247e+003
         vertex 1.041292e+003 1.347014e+003 1.941247e+003
      endloop
   endfacet
   facet normal 5.394800e-017 -8.020839e-001 -5.972114e-001
      outer loop
         vertex 1.041292e+003 1.347014e+003 1.941247e+003
         vertex 1.033292e+003 1.347014e+003 1.941247e+003
         vertex 1.033292e+003 1.347613e+003 1.940390e+003
      endloop
   endfacet
   facet normal 5.572783e-017 -8.355240e-001 -5.494540e-001
      outer loop
         vertex 1.041292e+003 1.347014e+003 1.941247e+003
         vertex 1.033292e+003 1.347613e+003 1.940390e+003
         vertex 1.041292e+003 1.347613e+003 1.940390e+003
      endloop
   endfacet
   facet normal 5.870505e-017 -8.936031e-001 -4.488580e-001
      outer loop
         vertex 1.041292e+003 1.347613e+003 1.940390e+003
         vertex 1.033292e+003 1.347613e+003 1.940390e+003
         vertex 1.033292e+003 1.348056e+003 1.939442e+003
      endloop
   endfacet
   facet normal 5.990244e-017 -9.182422e-001 -3.960194e-001
      outer loop
         vertex 1.041292e+003 1.347613e+003 1.940390e+003
         vertex 1.033292e+003 1.348056e+003 1.939442e+003
         vertex 1.041292e+003 1.348056e+003 1.939442e+003
      endloop
   endfacet
   facet normal 6.167839e-017 -9.579706e-001 -2.868663e-001
      outer loop
         vertex 1.041292e+003 1.348056e+003 1.939442e+003
         vertex 1.033292e+003 1.348056e+003 1.939442e+003
         vertex 1.033292e+003 1.348326e+003 1.938432e+003
      endloop
   endfacet
   facet normal 6.225695e-017 -9.730601e-001 -2.305518e-001
      outer loop
         vertex 1.041292e+003 1.348056e+003 1.939442e+003
         vertex 1.033292e+003 1.348326e+003 1.938432e+003
         vertex 1.041292e+003 1.348326e+003 1.938432e+003
      endloop
   endfacet
   facet normal 6.277765e-017 -9.932307e-001 -1.161583e-001
      outer loop
         vertex 1.041292e+003 1.348326e+003 1.938432e+003
         vertex 1.033292e+003 1.348326e+003 1.938432e+003
         vertex 1.033292e+003 1.348417e+003 1.937390e+003
      endloop
   endfacet
   facet normal -3.959113e-017 7.071068e-001 -7.071068e-001
      outer loop
         vertex 1.041292e+003 1.353417e+003 1.877390e+003
         vertex 1.041292e+003 1.349417e+003 1.873390e+003
         vertex 1.033292e+003 1.353417e+003 1.877390e+003
      endloop
   endfacet
   facet normal -3.959113e-017 7.071068e-001 -7.071068e-001
      outer loop
         vertex 1.033292e+003 1.353417e+003 1.877390e+003
         vertex 1.041292e+003 1.349417e+003 1.873390e+003
         vertex 1.033292e+003 1.349417e+003 1.873390e+003
      endloop
   endfacet
endsolid