solid 09.025.00.00.000 - 09.025.00.08.000-1 09.025.00.08.011-1 09.025.00.08.0AB-1
   facet normal -1.734506e-016 1.000000e+000 -8.711036e-017
      outer loop
         vertex 1.215792e+003 5.554174e+002 1.931390e+003
         vertex 1.215792e+003 5.554174e+002 1.948390e+003
         vertex 1.225792e+003 5.554174e+002 1.931390e+003
      endloop
   endfacet
   facet normal -1.734506e-016 1.000000e+000 -8.711036e-017
      outer loop
         vertex 1.225792e+003 5.554174e+002 1.931390e+003
         vertex 1.215792e+003 5.554174e+002 1.948390e+003
         vertex 1.225792e+003 5.554174e+002 1.948390e+003
      endloop
   endfacet
   facet normal -4.551774e-018 2.990341e-016 1.000000e+000
      outer loop
         vertex 1.225792e+003 4.614174e+002 1.948390e+003
         vertex 1.225792e+003 5.554174e+002 1.948390e+003
         vertex 1.215792e+003 4.614174e+002 1.948390e+003
      endloop
   endfacet
   facet normal -4.551774e-018 2.990341e-016 1.000000e+000
      outer loop
         vertex 1.215792e+003 4.614174e+002 1.948390e+003
         vertex 1.225792e+003 5.554174e+002 1.948390e+003
         vertex 1.215792e+003 5.554174e+002 1.948390e+003
      endloop
   endfacet
   facet normal 1.734506e-016 -1.000000e+000 8.711036e-017
      outer loop
         vertex 1.215792e+003 4.514173e+002 1.938390e+003
         vertex 1.215792e+003 4.514173e+002 1.926390e+003
         vertex 1.225792e+003 4.514173e+002 1.938390e+003
      endloop
   endfacet
   facet normal 1.734506e-016 -1.000000e+000 8.711036e-017
      outer loop
         vertex 1.225792e+003 4.514173e+002 1.938390e+003
         vertex 1.215792e+003 4.514173e+002 1.926390e+003
         vertex 1.225792e+003 4.514173e+002 1.926390e+003
      endloop
   endfacet
   facet normal 4.551774e-018 -2.990341e-016 -1.000000e+000
      outer loop
         vertex 1.225792e+003 5.504173e+002 1.926390e+003
         vertex 1.225792e+003 4.514173e+002 1.926390e+003
         vertex 1.215792e+003 5.504173e+002 1.926390e+003
      endloop
   endfacet
   facet normal 4.551774e-018 -2.990341e-016 -1.000000e+000
      outer loop
         vertex 1.215792e+003 5.504173e+002 1.926390e+003
         vertex 1.225792e+003 4.514173e+002 1.926390e+003
         vertex 1.215792e+003 4.514173e+002 1.926390e+003
      endloop
   endfacet
   facet normal 1.000000e+000 1.595728e-016 1.828156e-016
      outer loop
         vertex 1.225792e+003 5.452856e+002 1.932466e+003
         vertex 1.225792e+003 5.504173e+002 1.926390e+003
         vertex 1.225792e+003 5.461274e+002 1.932691e+003
      endloop
   endfacet
   facet normal 1.000000e+000 1.595728e-016 1.828156e-016
      outer loop
         vertex 1.225792e+003 5.461274e+002 1.932691e+003
         vertex 1.225792e+003 5.504173e+002 1.926390e+003
         vertex 1.225792e+003 5.469173e+002 1.933060e+003
      endloop
   endfacet
   facet normal 1.000000e+000 1.595728e-016 1.828156e-016
      outer loop
         vertex 1.225792e+003 5.397189e+002 1.939100e+003
         vertex 1.225792e+003 5.400872e+002 1.939890e+003
         vertex 1.225792e+003 4.614174e+002 1.948390e+003
      endloop
   endfacet
   facet normal 1.000000e+000 1.595728e-016 1.828156e-016
      outer loop
         vertex 1.225792e+003 4.614174e+002 1.948390e+003
         vertex 1.225792e+003 5.400872e+002 1.939890e+003
         vertex 1.225792e+003 5.405871e+002 1.940604e+003
      endloop
   endfacet
   facet normal 1.000000e+000 1.595728e-016 1.828156e-016
      outer loop
         vertex 1.225792e+003 4.614174e+002 1.948390e+003
         vertex 1.225792e+003 5.405871e+002 1.940604e+003
         vertex 1.225792e+003 5.412034e+002 1.941220e+003
      endloop
   endfacet
   facet normal 1.000000e+000 1.595728e-016 1.828156e-016
      outer loop
         vertex 1.225792e+003 5.554174e+002 1.931390e+003
         vertex 1.225792e+003 5.493414e+002 1.936522e+003
         vertex 1.225792e+003 5.491158e+002 1.935680e+003
      endloop
   endfacet
   facet normal 1.000000e+000 1.595728e-016 1.828156e-016
      outer loop
         vertex 1.225792e+003 5.444173e+002 1.942390e+003
         vertex 1.225792e+003 5.452856e+002 1.942314e+003
         vertex 1.225792e+003 5.554174e+002 1.948390e+003
      endloop
   endfacet
   facet normal 1.000000e+000 1.595728e-016 1.828156e-016
      outer loop
         vertex 1.225792e+003 5.554174e+002 1.948390e+003
         vertex 1.225792e+003 5.452856e+002 1.942314e+003
         vertex 1.225792e+003 5.461274e+002 1.942088e+003
      endloop
   endfacet
   facet normal 1.000000e+000 1.595728e-016 1.828156e-016
      outer loop
         vertex 1.225792e+003 5.554174e+002 1.948390e+003
         vertex 1.225792e+003 5.461274e+002 1.942088e+003
         vertex 1.225792e+003 5.469173e+002 1.941720e+003
      endloop
   endfacet
   facet normal 1.000000e+000 1.595728e-016 1.828156e-016
      outer loop
         vertex 1.225792e+003 5.469173e+002 1.941720e+003
         vertex 1.225792e+003 5.476313e+002 1.941220e+003
         vertex 1.225792e+003 5.554174e+002 1.948390e+003
      endloop
   endfacet
   facet normal 1.000000e+000 1.595728e-016 1.828156e-016
      outer loop
         vertex 1.225792e+003 5.554174e+002 1.948390e+003
         vertex 1.225792e+003 5.476313e+002 1.941220e+003
         vertex 1.225792e+003 5.482476e+002 1.940604e+003
      endloop
   endfacet
   facet normal 1.000000e+000 1.595728e-016 1.828156e-016
      outer loop
         vertex 1.225792e+003 5.554174e+002 1.948390e+003
         vertex 1.225792e+003 5.482476e+002 1.940604e+003
         vertex 1.225792e+003 5.487475e+002 1.939890e+003
      endloop
   endfacet
   facet normal 1.000000e+000 1.595728e-016 1.828156e-016
      outer loop
         vertex 1.225792e+003 5.452856e+002 1.932466e+003
         vertex 1.225792e+003 5.444173e+002 1.932390e+003
         vertex 1.225792e+003 5.504173e+002 1.926390e+003
      endloop
   endfacet
   facet normal 1.000000e+000 1.595728e-016 1.828156e-016
      outer loop
         vertex 1.225792e+003 5.504173e+002 1.926390e+003
         vertex 1.225792e+003 5.444173e+002 1.932390e+003
         vertex 1.225792e+003 5.435491e+002 1.932466e+003
      endloop
   endfacet
   facet normal 1.000000e+000 1.595728e-016 1.828156e-016
      outer loop
         vertex 1.225792e+003 5.504173e+002 1.926390e+003
         vertex 1.225792e+003 5.435491e+002 1.932466e+003
         vertex 1.225792e+003 4.514173e+002 1.926390e+003
      endloop
   endfacet
   facet normal 1.000000e+000 1.595728e-016 1.828156e-016
      outer loop
         vertex 1.225792e+003 4.514173e+002 1.926390e+003
         vertex 1.225792e+003 5.435491e+002 1.932466e+003
         vertex 1.225792e+003 5.427072e+002 1.932691e+003
      endloop
   endfacet
   facet normal 1.000000e+000 1.595728e-016 1.828156e-016
      outer loop
         vertex 1.225792e+003 4.514173e+002 1.926390e+003
         vertex 1.225792e+003 5.427072e+002 1.932691e+003
         vertex 1.225792e+003 5.419173e+002 1.933060e+003
      endloop
   endfacet
   facet normal 1.000000e+000 1.595728e-016 1.828156e-016
      outer loop
         vertex 1.225792e+003 5.419173e+002 1.933060e+003
         vertex 1.225792e+003 5.412034e+002 1.933560e+003
         vertex 1.225792e+003 4.514173e+002 1.926390e+003
      endloop
   endfacet
   facet normal 1.000000e+000 1.595728e-016 1.828156e-016
      outer loop
         vertex 1.225792e+003 4.514173e+002 1.926390e+003
         vertex 1.225792e+003 5.412034e+002 1.933560e+003
         vertex 1.225792e+003 5.405871e+002 1.934176e+003
      endloop
   endfacet
   facet normal 1.000000e+000 1.595728e-016 1.828156e-016
      outer loop
         vertex 1.225792e+003 4.514173e+002 1.926390e+003
         vertex 1.225792e+003 5.405871e+002 1.934176e+003
         vertex 1.225792e+003 5.400872e+002 1.934890e+003
      endloop
   endfacet
   facet normal 1.000000e+000 1.595728e-016 1.828156e-016
      outer loop
         vertex 1.225792e+003 5.412034e+002 1.941220e+003
         vertex 1.225792e+003 5.419173e+002 1.941720e+003
         vertex 1.225792e+003 4.614174e+002 1.948390e+003
      endloop
   endfacet
   facet normal 1.000000e+000 1.595728e-016 1.828156e-016
      outer loop
         vertex 1.225792e+003 4.614174e+002 1.948390e+003
         vertex 1.225792e+003 5.419173e+002 1.941720e+003
         vertex 1.225792e+003 5.427072e+002 1.942088e+003
      endloop
   endfacet
   facet normal 1.000000e+000 1.595728e-016 1.828156e-016
      outer loop
         vertex 1.225792e+003 4.614174e+002 1.948390e+003
         vertex 1.225792e+003 5.427072e+002 1.942088e+003
         vertex 1.225792e+003 5.554174e+002 1.948390e+003
      endloop
   endfacet
   facet normal 1.000000e+000 1.595728e-016 1.828156e-016
      outer loop
         vertex 1.225792e+003 5.554174e+002 1.948390e+003
         vertex 1.225792e+003 5.427072e+002 1.942088e+003
         vertex 1.225792e+003 5.435491e+002 1.942314e+003
      endloop
   endfacet
   facet normal 1.000000e+000 1.595728e-016 1.828156e-016
      outer loop
         vertex 1.225792e+003 5.554174e+002 1.948390e+003
         vertex 1.225792e+003 5.435491e+002 1.942314e+003
         vertex 1.225792e+003 5.444173e+002 1.942390e+003
      endloop
   endfacet
   facet normal 1.000000e+000 1.595728e-016 1.828156e-016
      outer loop
         vertex 1.225792e+003 5.491158e+002 1.935680e+003
         vertex 1.225792e+003 5.487475e+002 1.934890e+003
         vertex 1.225792e+003 5.554174e+002 1.931390e+003
      endloop
   endfacet
   facet normal 1.000000e+000 1.595728e-016 1.828156e-016
      outer loop
         vertex 1.225792e+003 5.554174e+002 1.931390e+003
         vertex 1.225792e+003 5.487475e+002 1.934890e+003
         vertex 1.225792e+003 5.482476e+002 1.934176e+003
      endloop
   endfacet
   facet normal 1.000000e+000 1.595728e-016 1.828156e-016
      outer loop
         vertex 1.225792e+003 5.554174e+002 1.931390e+003
         vertex 1.225792e+003 5.482476e+002 1.934176e+003
         vertex 1.225792e+003 5.504173e+002 1.926390e+003
      endloop
   endfacet
   facet normal 1.000000e+000 1.595728e-016 1.828156e-016
      outer loop
         vertex 1.225792e+003 5.504173e+002 1.926390e+003
         vertex 1.225792e+003 5.482476e+002 1.934176e+003
         vertex 1.225792e+003 5.476313e+002 1.933560e+003
      endloop
   endfacet
   facet normal 1.000000e+000 1.595728e-016 1.828156e-016
      outer loop
         vertex 1.225792e+003 5.504173e+002 1.926390e+003
         vertex 1.225792e+003 5.476313e+002 1.933560e+003
         vertex 1.225792e+003 5.469173e+002 1.933060e+003
      endloop
   endfacet
   facet normal 1.000000e+000 1.595728e-016 1.828156e-016
      outer loop
         vertex 1.225792e+003 5.400872e+002 1.934890e+003
         vertex 1.225792e+003 5.397189e+002 1.935680e+003
         vertex 1.225792e+003 4.514173e+002 1.926390e+003
      endloop
   endfacet
   facet normal 1.000000e+000 1.595728e-016 1.828156e-016
      outer loop
         vertex 1.225792e+003 4.514173e+002 1.926390e+003
         vertex 1.225792e+003 5.397189e+002 1.935680e+003
         vertex 1.225792e+003 5.394933e+002 1.936522e+003
      endloop
   endfacet
   facet normal 1.000000e+000 1.595728e-016 1.828156e-016
      outer loop
         vertex 1.225792e+003 4.514173e+002 1.926390e+003
         vertex 1.225792e+003 5.394933e+002 1.936522e+003
         vertex 1.225792e+003 4.514173e+002 1.938390e+003
      endloop
   endfacet
   facet normal 1.000000e+000 1.595728e-016 1.828156e-016
      outer loop
         vertex 1.225792e+003 4.514173e+002 1.938390e+003
         vertex 1.225792e+003 5.394933e+002 1.936522e+003
         vertex 1.225792e+003 5.394173e+002 1.937390e+003
      endloop
   endfacet
   facet normal 1.000000e+000 1.595728e-016 1.828156e-016
      outer loop
         vertex 1.225792e+003 4.514173e+002 1.938390e+003
         vertex 1.225792e+003 5.394173e+002 1.937390e+003
         vertex 1.225792e+003 4.614174e+002 1.948390e+003
      endloop
   endfacet
   facet normal 1.000000e+000 1.595728e-016 1.828156e-016
      outer loop
         vertex 1.225792e+003 4.614174e+002 1.948390e+003
         vertex 1.225792e+003 5.394173e+002 1.937390e+003
         vertex 1.225792e+003 5.394933e+002 1.938258e+003
      endloop
   endfacet
   facet normal 1.000000e+000 1.595728e-016 1.828156e-016
      outer loop
         vertex 1.225792e+003 4.614174e+002 1.948390e+003
         vertex 1.225792e+003 5.394933e+002 1.938258e+003
         vertex 1.225792e+003 5.397189e+002 1.939100e+003
      endloop
   endfacet
   facet normal 1.000000e+000 1.595728e-016 1.828156e-016
      outer loop
         vertex 1.225792e+003 5.487475e+002 1.939890e+003
         vertex 1.225792e+003 5.491158e+002 1.939100e+003
         vertex 1.225792e+003 5.554174e+002 1.948390e+003
      endloop
   endfacet
   facet normal 1.000000e+000 1.595728e-016 1.828156e-016
      outer loop
         vertex 1.225792e+003 5.554174e+002 1.948390e+003
         vertex 1.225792e+003 5.491158e+002 1.939100e+003
         vertex 1.225792e+003 5.493414e+002 1.938258e+003
      endloop
   endfacet
   facet normal 1.000000e+000 1.595728e-016 1.828156e-016
      outer loop
         vertex 1.225792e+003 5.554174e+002 1.948390e+003
         vertex 1.225792e+003 5.493414e+002 1.938258e+003
         vertex 1.225792e+003 5.554174e+002 1.931390e+003
      endloop
   endfacet
   facet normal 1.000000e+000 1.595728e-016 1.828156e-016
      outer loop
         vertex 1.225792e+003 5.554174e+002 1.931390e+003
         vertex 1.225792e+003 5.493414e+002 1.938258e+003
         vertex 1.225792e+003 5.494173e+002 1.937390e+003
      endloop
   endfacet
   facet normal 1.000000e+000 1.595728e-016 1.828156e-016
      outer loop
         vertex 1.225792e+003 5.554174e+002 1.931390e+003
         vertex 1.225792e+003 5.494173e+002 1.937390e+003
         vertex 1.225792e+003 5.493414e+002 1.936522e+003
      endloop
   endfacet
   facet normal -1.000000e+000 -1.595728e-016 -1.828156e-016
      outer loop
         vertex 1.215792e+003 5.554174e+002 1.948390e+003
         vertex 1.215792e+003 5.554174e+002 1.931390e+003
         vertex 1.215792e+003 5.494173e+002 1.937390e+003
      endloop
   endfacet
   facet normal -1.000000e+000 -1.595728e-016 -1.828156e-016
      outer loop
         vertex 1.215792e+003 5.487475e+002 1.934890e+003
         vertex 1.215792e+003 5.491158e+002 1.935680e+003
         vertex 1.215792e+003 5.554174e+002 1.931390e+003
      endloop
   endfacet
   facet normal -1.000000e+000 -1.595728e-016 -1.828156e-016
      outer loop
         vertex 1.215792e+003 5.554174e+002 1.931390e+003
         vertex 1.215792e+003 5.491158e+002 1.935680e+003
         vertex 1.215792e+003 5.493414e+002 1.936522e+003
      endloop
   endfacet
   facet normal -1.000000e+000 -1.595728e-016 -1.828156e-016
      outer loop
         vertex 1.215792e+003 5.554174e+002 1.931390e+003
         vertex 1.215792e+003 5.493414e+002 1.936522e+003
         vertex 1.215792e+003 5.494173e+002 1.937390e+003
      endloop
   endfacet
   facet normal -1.000000e+000 -1.595728e-016 -1.828156e-016
      outer loop
         vertex 1.215792e+003 5.419173e+002 1.941720e+003
         vertex 1.215792e+003 5.412034e+002 1.941220e+003
         vertex 1.215792e+003 4.614174e+002 1.948390e+003
      endloop
   endfacet
   facet normal -1.000000e+000 -1.595728e-016 -1.828156e-016
      outer loop
         vertex 1.215792e+003 4.614174e+002 1.948390e+003
         vertex 1.215792e+003 5.412034e+002 1.941220e+003
         vertex 1.215792e+003 5.405871e+002 1.940604e+003
      endloop
   endfacet
   facet normal -1.000000e+000 -1.595728e-016 -1.828156e-016
      outer loop
         vertex 1.215792e+003 4.614174e+002 1.948390e+003
         vertex 1.215792e+003 5.405871e+002 1.940604e+003
         vertex 1.215792e+003 5.400872e+002 1.939890e+003
      endloop
   endfacet
   facet normal -1.000000e+000 -1.595728e-016 -1.828156e-016
      outer loop
         vertex 1.215792e+003 5.494173e+002 1.937390e+003
         vertex 1.215792e+003 5.493414e+002 1.938258e+003
         vertex 1.215792e+003 5.554174e+002 1.948390e+003
      endloop
   endfacet
   facet normal -1.000000e+000 -1.595728e-016 -1.828156e-016
      outer loop
         vertex 1.215792e+003 5.554174e+002 1.948390e+003
         vertex 1.215792e+003 5.493414e+002 1.938258e+003
         vertex 1.215792e+003 5.491158e+002 1.939100e+003
      endloop
   endfacet
   facet normal -1.000000e+000 -1.595728e-016 -1.828156e-016
      outer loop
         vertex 1.215792e+003 5.554174e+002 1.948390e+003
         vertex 1.215792e+003 5.491158e+002 1.939100e+003
         vertex 1.215792e+003 5.487475e+002 1.939890e+003
      endloop
   endfacet
   facet normal -1.000000e+000 -1.595728e-016 -1.828156e-016
      outer loop
         vertex 1.215792e+003 5.469173e+002 1.941720e+003
         vertex 1.215792e+003 5.461274e+002 1.942088e+003
         vertex 1.215792e+003 5.554174e+002 1.948390e+003
      endloop
   endfacet
   facet normal -1.000000e+000 -1.595728e-016 -1.828156e-016
      outer loop
         vertex 1.215792e+003 5.554174e+002 1.948390e+003
         vertex 1.215792e+003 5.461274e+002 1.942088e+003
         vertex 1.215792e+003 5.452856e+002 1.942314e+003
      endloop
   endfacet
   facet normal -1.000000e+000 -1.595728e-016 -1.828156e-016
      outer loop
         vertex 1.215792e+003 5.487475e+002 1.939890e+003
         vertex 1.215792e+003 5.482476e+002 1.940604e+003
         vertex 1.215792e+003 5.554174e+002 1.948390e+003
      endloop
   endfacet
   facet normal -1.000000e+000 -1.595728e-016 -1.828156e-016
      outer loop
         vertex 1.215792e+003 5.554174e+002 1.948390e+003
         vertex 1.215792e+003 5.482476e+002 1.940604e+003
         vertex 1.215792e+003 5.476313e+002 1.941220e+003
      endloop
   endfacet
   facet normal -1.000000e+000 -1.595728e-016 -1.828156e-016
      outer loop
         vertex 1.215792e+003 5.554174e+002 1.948390e+003
         vertex 1.215792e+003 5.476313e+002 1.941220e+003
         vertex 1.215792e+003 5.469173e+002 1.941720e+003
      endloop
   endfacet
   facet normal -1.000000e+000 -1.595728e-016 -1.828156e-016
      outer loop
         vertex 1.215792e+003 5.452856e+002 1.942314e+003
         vertex 1.215792e+003 5.444173e+002 1.942390e+003
         vertex 1.215792e+003 5.554174e+002 1.948390e+003
      endloop
   endfacet
   facet normal -1.000000e+000 -1.595728e-016 -1.828156e-016
      outer loop
         vertex 1.215792e+003 5.554174e+002 1.948390e+003
         vertex 1.215792e+003 5.444173e+002 1.942390e+003
         vertex 1.215792e+003 5.435491e+002 1.942314e+003
      endloop
   endfacet
   facet normal -1.000000e+000 -1.595728e-016 -1.828156e-016
      outer loop
         vertex 1.215792e+003 5.554174e+002 1.948390e+003
         vertex 1.215792e+003 5.435491e+002 1.942314e+003
         vertex 1.215792e+003 4.614174e+002 1.948390e+003
      endloop
   endfacet
   facet normal -1.000000e+000 -1.595728e-016 -1.828156e-016
      outer loop
         vertex 1.215792e+003 4.614174e+002 1.948390e+003
         vertex 1.215792e+003 5.435491e+002 1.942314e+003
         vertex 1.215792e+003 5.427072e+002 1.942088e+003
      endloop
   endfacet
   facet normal -1.000000e+000 -1.595728e-016 -1.828156e-016
      outer loop
         vertex 1.215792e+003 4.614174e+002 1.948390e+003
         vertex 1.215792e+003 5.427072e+002 1.942088e+003
         vertex 1.215792e+003 5.419173e+002 1.941720e+003
      endloop
   endfacet
   facet normal -1.000000e+000 -1.595728e-016 -1.828156e-016
      outer loop
         vertex 1.215792e+003 5.397189e+002 1.935680e+003
         vertex 1.215792e+003 5.400872e+002 1.934890e+003
         vertex 1.215792e+003 4.514173e+002 1.926390e+003
      endloop
   endfacet
   facet normal -1.000000e+000 -1.595728e-016 -1.828156e-016
      outer loop
         vertex 1.215792e+003 4.514173e+002 1.926390e+003
         vertex 1.215792e+003 5.400872e+002 1.934890e+003
         vertex 1.215792e+003 5.405871e+002 1.934176e+003
      endloop
   endfacet
   facet normal -1.000000e+000 -1.595728e-016 -1.828156e-016
      outer loop
         vertex 1.215792e+003 5.400872e+002 1.939890e+003
         vertex 1.215792e+003 5.397189e+002 1.939100e+003
         vertex 1.215792e+003 4.614174e+002 1.948390e+003
      endloop
   endfacet
   facet normal -1.000000e+000 -1.595728e-016 -1.828156e-016
      outer loop
         vertex 1.215792e+003 4.614174e+002 1.948390e+003
         vertex 1.215792e+003 5.397189e+002 1.939100e+003
         vertex 1.215792e+003 5.394933e+002 1.938258e+003
      endloop
   endfacet
   facet normal -1.000000e+000 -1.595728e-016 -1.828156e-016
      outer loop
         vertex 1.215792e+003 4.614174e+002 1.948390e+003
         vertex 1.215792e+003 5.394933e+002 1.938258e+003
         vertex 1.215792e+003 4.514173e+002 1.938390e+003
      endloop
   endfacet
   facet normal -1.000000e+000 -1.595728e-016 -1.828156e-016
      outer loop
         vertex 1.215792e+003 4.514173e+002 1.938390e+003
         vertex 1.215792e+003 5.394933e+002 1.938258e+003
         vertex 1.215792e+003 5.394173e+002 1.937390e+003
      endloop
   endfacet
   facet normal -1.000000e+000 -1.595728e-016 -1.828156e-016
      outer loop
         vertex 1.215792e+003 4.514173e+002 1.938390e+003
         vertex 1.215792e+003 5.394173e+002 1.937390e+003
         vertex 1.215792e+003 4.514173e+002 1.926390e+003
      endloop
   endfacet
   facet normal -1.000000e+000 -1.595728e-016 -1.828156e-016
      outer loop
         vertex 1.215792e+003 4.514173e+002 1.926390e+003
         vertex 1.215792e+003 5.394173e+002 1.937390e+003
         vertex 1.215792e+003 5.394933e+002 1.936522e+003
      endloop
   endfacet
   facet normal -1.000000e+000 -1.595728e-016 -1.828156e-016
      outer loop
         vertex 1.215792e+003 4.514173e+002 1.926390e+003
         vertex 1.215792e+003 5.394933e+002 1.936522e+003
         vertex 1.215792e+003 5.397189e+002 1.935680e+003
      endloop
   endfacet
   facet normal -1.000000e+000 -1.595728e-016 -1.828156e-016
      outer loop
         vertex 1.215792e+003 5.435491e+002 1.932466e+003
         vertex 1.215792e+003 5.444173e+002 1.932390e+003
         vertex 1.215792e+003 5.504173e+002 1.926390e+003
      endloop
   endfacet
   facet normal -1.000000e+000 -1.595728e-016 -1.828156e-016
      outer loop
         vertex 1.215792e+003 5.504173e+002 1.926390e+003
         vertex 1.215792e+003 5.444173e+002 1.932390e+003
         vertex 1.215792e+003 5.452856e+002 1.932466e+003
      endloop
   endfacet
   facet normal -1.000000e+000 -1.595728e-016 -1.828156e-016
      outer loop
         vertex 1.215792e+003 5.504173e+002 1.926390e+003
         vertex 1.215792e+003 5.452856e+002 1.932466e+003
         vertex 1.215792e+003 5.461274e+002 1.932691e+003
      endloop
   endfacet
   facet normal -1.000000e+000 -1.595728e-016 -1.828156e-016
      outer loop
         vertex 1.215792e+003 5.405871e+002 1.934176e+003
         vertex 1.215792e+003 5.412034e+002 1.933560e+003
         vertex 1.215792e+003 4.514173e+002 1.926390e+003
      endloop
   endfacet
   facet normal -1.000000e+000 -1.595728e-016 -1.828156e-016
      outer loop
         vertex 1.215792e+003 4.514173e+002 1.926390e+003
         vertex 1.215792e+003 5.412034e+002 1.933560e+003
         vertex 1.215792e+003 5.419173e+002 1.933060e+003
      endloop
   endfacet
   facet normal -1.000000e+000 -1.595728e-016 -1.828156e-016
      outer loop
         vertex 1.215792e+003 4.514173e+002 1.926390e+003
         vertex 1.215792e+003 5.419173e+002 1.933060e+003
         vertex 1.215792e+003 5.504173e+002 1.926390e+003
      endloop
   endfacet
   facet normal -1.000000e+000 -1.595728e-016 -1.828156e-016
      outer loop
         vertex 1.215792e+003 5.504173e+002 1.926390e+003
         vertex 1.215792e+003 5.419173e+002 1.933060e+003
         vertex 1.215792e+003 5.427072e+002 1.932691e+003
      endloop
   endfacet
   facet normal -1.000000e+000 -1.595728e-016 -1.828156e-016
      outer loop
         vertex 1.215792e+003 5.504173e+002 1.926390e+003
         vertex 1.215792e+003 5.427072e+002 1.932691e+003
         vertex 1.215792e+003 5.435491e+002 1.932466e+003
      endloop
   endfacet
   facet normal -1.000000e+000 -1.595728e-016 -1.828156e-016
      outer loop
         vertex 1.215792e+003 5.461274e+002 1.932691e+003
         vertex 1.215792e+003 5.469173e+002 1.933060e+003
         vertex 1.215792e+003 5.504173e+002 1.926390e+003
      endloop
   endfacet
   facet normal -1.000000e+000 -1.595728e-016 -1.828156e-016
      outer loop
         vertex 1.215792e+003 5.504173e+002 1.926390e+003
         vertex 1.215792e+003 5.469173e+002 1.933060e+003
         vertex 1.215792e+003 5.476313e+002 1.933560e+003
      endloop
   endfacet
   facet normal -1.000000e+000 -1.595728e-016 -1.828156e-016
      outer loop
         vertex 1.215792e+003 5.504173e+002 1.926390e+003
         vertex 1.215792e+003 5.476313e+002 1.933560e+003
         vertex 1.215792e+003 5.554174e+002 1.931390e+003
      endloop
   endfacet
   facet normal -1.000000e+000 -1.595728e-016 -1.828156e-016
      outer loop
         vertex 1.215792e+003 5.554174e+002 1.931390e+003
         vertex 1.215792e+003 5.476313e+002 1.933560e+003
         vertex 1.215792e+003 5.482476e+002 1.934176e+003
      endloop
   endfacet
   facet normal -1.000000e+000 -1.595728e-016 -1.828156e-016
      outer loop
         vertex 1.215792e+003 5.554174e+002 1.931390e+003
         vertex 1.215792e+003 5.482476e+002 1.934176e+003
         vertex 1.215792e+003 5.487475e+002 1.934890e+003
      endloop
   endfacet
   facet normal 1.194295e-016 -7.071068e-001 7.071068e-001
      outer loop
         vertex 1.215792e+003 4.614174e+002 1.948390e+003
         vertex 1.215792e+003 4.514173e+002 1.938390e+003
         vertex 1.225792e+003 4.614174e+002 1.948390e+003
      endloop
   endfacet
   facet normal 1.194295e-016 -7.071068e-001 7.071068e-001
      outer loop
         vertex 1.225792e+003 4.614174e+002 1.948390e+003
         vertex 1.215792e+003 4.514173e+002 1.938390e+003
         vertex 1.225792e+003 4.514173e+002 1.938390e+003
      endloop
   endfacet
   facet normal 1.734222e-016 -9.983120e-001 -5.807914e-002
      outer loop
         vertex 1.225792e+003 5.493414e+002 1.938258e+003
         vertex 1.215792e+003 5.494173e+002 1.937390e+003
         vertex 1.225792e+003 5.494173e+002 1.937390e+003
      endloop
   endfacet
   facet normal 1.728935e-016 -9.983120e-001 5.807914e-002
      outer loop
         vertex 1.225792e+003 5.494173e+002 1.937390e+003
         vertex 1.215792e+003 5.494173e+002 1.937390e+003
         vertex 1.215792e+003 5.493414e+002 1.936522e+003
      endloop
   endfacet
   facet normal 1.717478e-016 -9.932307e-001 1.161583e-001
      outer loop
         vertex 1.225792e+003 5.494173e+002 1.937390e+003
         vertex 1.215792e+003 5.493414e+002 1.936522e+003
         vertex 1.225792e+003 5.493414e+002 1.936522e+003
      endloop
   endfacet
   facet normal 1.677284e-016 -9.730601e-001 2.305518e-001
      outer loop
         vertex 1.225792e+003 5.493414e+002 1.936522e+003
         vertex 1.215792e+003 5.493414e+002 1.936522e+003
         vertex 1.215792e+003 5.491158e+002 1.935680e+003
      endloop
   endfacet
   facet normal 1.648548e-016 -9.579706e-001 2.868663e-001
      outer loop
         vertex 1.225792e+003 5.493414e+002 1.936522e+003
         vertex 1.215792e+003 5.491158e+002 1.935680e+003
         vertex 1.225792e+003 5.491158e+002 1.935680e+003
      endloop
   endfacet
   facet normal 1.574671e-016 -9.182422e-001 3.960194e-001
      outer loop
         vertex 1.225792e+003 5.491158e+002 1.935680e+003
         vertex 1.215792e+003 5.491158e+002 1.935680e+003
         vertex 1.215792e+003 5.487475e+002 1.934890e+003
      endloop
   endfacet
   facet normal 1.529529e-016 -8.936031e-001 4.488580e-001
      outer loop
         vertex 1.225792e+003 5.491158e+002 1.935680e+003
         vertex 1.215792e+003 5.487475e+002 1.934890e+003
         vertex 1.225792e+003 5.487475e+002 1.934890e+003
      endloop
   endfacet
   facet normal 1.424212e-016 -8.355240e-001 5.494540e-001
      outer loop
         vertex 1.225792e+003 5.487475e+002 1.934890e+003
         vertex 1.215792e+003 5.487475e+002 1.934890e+003
         vertex 1.215792e+003 5.482476e+002 1.934176e+003
      endloop
   endfacet
   facet normal 1.364036e-016 -8.020839e-001 5.972114e-001
      outer loop
         vertex 1.225792e+003 5.487475e+002 1.934890e+003
         vertex 1.215792e+003 5.482476e+002 1.934176e+003
         vertex 1.225792e+003 5.482476e+002 1.934176e+003
      endloop
   endfacet
   facet normal 1.230478e-016 -7.274188e-001 6.861938e-001
      outer loop
         vertex 1.225792e+003 5.482476e+002 1.934176e+003
         vertex 1.215792e+003 5.482476e+002 1.934176e+003
         vertex 1.215792e+003 5.476313e+002 1.933560e+003
      endloop
   endfacet
   facet normal 1.157097e-016 -6.861938e-001 7.274188e-001
      outer loop
         vertex 1.225792e+003 5.482476e+002 1.934176e+003
         vertex 1.215792e+003 5.476313e+002 1.933560e+003
         vertex 1.225792e+003 5.476313e+002 1.933560e+003
      endloop
   endfacet
   facet normal 9.993578e-017 -5.972114e-001 8.020839e-001
      outer loop
         vertex 1.225792e+003 5.476313e+002 1.933560e+003
         vertex 1.215792e+003 5.476313e+002 1.933560e+003
         vertex 1.215792e+003 5.469173e+002 1.933060e+003
      endloop
   endfacet
   facet normal 9.150002e-017 -5.494540e-001 8.355240e-001
      outer loop
         vertex 1.225792e+003 5.476313e+002 1.933560e+003
         vertex 1.215792e+003 5.469173e+002 1.933060e+003
         vertex 1.225792e+003 5.469173e+002 1.933060e+003
      endloop
   endfacet
   facet normal 7.378722e-017 -4.488580e-001 8.936031e-001
      outer loop
         vertex 1.225792e+003 5.469173e+002 1.933060e+003
         vertex 1.215792e+003 5.469173e+002 1.933060e+003
         vertex 1.215792e+003 5.461274e+002 1.932691e+003
      endloop
   endfacet
   facet normal 6.451017e-017 -3.960194e-001 9.182422e-001
      outer loop
         vertex 1.225792e+003 5.469173e+002 1.933060e+003
         vertex 1.215792e+003 5.461274e+002 1.932691e+003
         vertex 1.225792e+003 5.461274e+002 1.932691e+003
      endloop
   endfacet
   facet normal 4.539667e-017 -2.868663e-001 9.579706e-001
      outer loop
         vertex 1.225792e+003 5.461274e+002 1.932691e+003
         vertex 1.215792e+003 5.461274e+002 1.932691e+003
         vertex 1.215792e+003 5.452856e+002 1.932466e+003
      endloop
   endfacet
   facet normal 3.556021e-017 -2.305518e-001 9.730601e-001
      outer loop
         vertex 1.225792e+003 5.461274e+002 1.932691e+003
         vertex 1.215792e+003 5.452856e+002 1.932466e+003
         vertex 1.225792e+003 5.452856e+002 1.932466e+003
      endloop
   endfacet
   facet normal 1.562676e-017 -1.161583e-001 9.932307e-001
      outer loop
         vertex 1.225792e+003 5.452856e+002 1.932466e+003
         vertex 1.215792e+003 5.452856e+002 1.932466e+003
         vertex 1.215792e+003 5.444173e+002 1.932390e+003
      endloop
   endfacet
   facet normal 5.529772e-018 -5.807914e-002 9.983120e-001
      outer loop
         vertex 1.225792e+003 5.452856e+002 1.932466e+003
         vertex 1.215792e+003 5.444173e+002 1.932390e+003
         vertex 1.225792e+003 5.444173e+002 1.932390e+003
      endloop
   endfacet
   facet normal -1.461795e-017 5.807914e-002 9.983120e-001
      outer loop
         vertex 1.225792e+003 5.444173e+002 1.932390e+003
         vertex 1.215792e+003 5.444173e+002 1.932390e+003
         vertex 1.215792e+003 5.435491e+002 1.932466e+003
      endloop
   endfacet
   facet normal -2.466869e-017 1.161583e-001 9.932307e-001
      outer loop
         vertex 1.225792e+003 5.444173e+002 1.932390e+003
         vertex 1.215792e+003 5.435491e+002 1.932466e+003
         vertex 1.225792e+003 5.435491e+002 1.932466e+003
      endloop
   endfacet
   facet normal -4.441851e-017 2.305518e-001 9.730601e-001
      outer loop
         vertex 1.225792e+003 5.435491e+002 1.932466e+003
         vertex 1.215792e+003 5.435491e+002 1.932466e+003
         vertex 1.215792e+003 5.427072e+002 1.932691e+003
      endloop
   endfacet
   facet normal -5.411760e-017 2.868663e-001 9.579706e-001
      outer loop
         vertex 1.225792e+003 5.435491e+002 1.932466e+003
         vertex 1.215792e+003 5.427072e+002 1.932691e+003
         vertex 1.225792e+003 5.427072e+002 1.932691e+003
      endloop
   endfacet
   facet normal -7.286944e-017 3.960194e-001 9.182422e-001
      outer loop
         vertex 1.225792e+003 5.427072e+002 1.932691e+003
         vertex 1.215792e+003 5.427072e+002 1.932691e+003
         vertex 1.215792e+003 5.419173e+002 1.933060e+003
      endloop
   endfacet
   facet normal -8.192218e-017 4.488580e-001 8.936031e-001
      outer loop
         vertex 1.225792e+003 5.427072e+002 1.932691e+003
         vertex 1.215792e+003 5.419173e+002 1.933060e+003
         vertex 1.225792e+003 5.419173e+002 1.933060e+003
      endloop
   endfacet
   facet normal -9.910625e-017 5.494540e-001 8.355240e-001
      outer loop
         vertex 1.225792e+003 5.419173e+002 1.933060e+003
         vertex 1.215792e+003 5.419173e+002 1.933060e+003
         vertex 1.215792e+003 5.412034e+002 1.933560e+003
      endloop
   endfacet
   facet normal -1.072376e-016 5.972114e-001 8.020839e-001
      outer loop
         vertex 1.225792e+003 5.419173e+002 1.933060e+003
         vertex 1.215792e+003 5.412034e+002 1.933560e+003
         vertex 1.225792e+003 5.412034e+002 1.933560e+003
      endloop
   endfacet
   facet normal -1.223318e-016 6.861938e-001 7.274188e-001
      outer loop
         vertex 1.225792e+003 5.412034e+002 1.933560e+003
         vertex 1.215792e+003 5.412034e+002 1.933560e+003
         vertex 1.215792e+003 5.405871e+002 1.934176e+003
      endloop
   endfacet
   facet normal -1.292946e-016 7.274188e-001 6.861938e-001
      outer loop
         vertex 1.225792e+003 5.412034e+002 1.933560e+003
         vertex 1.215792e+003 5.405871e+002 1.934176e+003
         vertex 1.225792e+003 5.405871e+002 1.934176e+003
      endloop
   endfacet
   facet normal -1.418403e-016 8.020839e-001 5.972114e-001
      outer loop
         vertex 1.225792e+003 5.405871e+002 1.934176e+003
         vertex 1.215792e+003 5.405871e+002 1.934176e+003
         vertex 1.215792e+003 5.400872e+002 1.934890e+003
      endloop
   endfacet
   facet normal -1.474231e-016 8.355240e-001 5.494540e-001
      outer loop
         vertex 1.225792e+003 5.405871e+002 1.934176e+003
         vertex 1.215792e+003 5.400872e+002 1.934890e+003
         vertex 1.225792e+003 5.400872e+002 1.934890e+003
      endloop
   endfacet
   facet normal -1.570391e-016 8.936031e-001 4.488580e-001
      outer loop
         vertex 1.225792e+003 5.400872e+002 1.934890e+003
         vertex 1.215792e+003 5.400872e+002 1.934890e+003
         vertex 1.215792e+003 5.397189e+002 1.935680e+003
      endloop
   endfacet
   facet normal -1.610723e-016 9.182422e-001 3.960194e-001
      outer loop
         vertex 1.225792e+003 5.400872e+002 1.934890e+003
         vertex 1.215792e+003 5.397189e+002 1.935680e+003
         vertex 1.225792e+003 5.397189e+002 1.935680e+003
      endloop
   endfacet
   facet normal -1.674664e-016 9.579706e-001 2.868663e-001
      outer loop
         vertex 1.225792e+003 5.397189e+002 1.935680e+003
         vertex 1.215792e+003 5.397189e+002 1.935680e+003
         vertex 1.215792e+003 5.394933e+002 1.936522e+003
      endloop
   endfacet
   facet normal -1.698273e-016 9.730601e-001 2.305518e-001
      outer loop
         vertex 1.225792e+003 5.397189e+002 1.935680e+003
         vertex 1.215792e+003 5.394933e+002 1.936522e+003
         vertex 1.225792e+003 5.394933e+002 1.936522e+003
      endloop
   endfacet
   facet normal -1.728052e-016 9.932307e-001 1.161583e-001
      outer loop
         vertex 1.225792e+003 5.394933e+002 1.936522e+003
         vertex 1.215792e+003 5.394933e+002 1.936522e+003
         vertex 1.215792e+003 5.394173e+002 1.937390e+003
      endloop
   endfacet
   facet normal -1.734222e-016 9.983120e-001 5.807914e-002
      outer loop
         vertex 1.225792e+003 5.394933e+002 1.936522e+003
         vertex 1.215792e+003 5.394173e+002 1.937390e+003
         vertex 1.225792e+003 5.394173e+002 1.937390e+003
      endloop
   endfacet
   facet normal -1.728935e-016 9.983120e-001 -5.807914e-002
      outer loop
         vertex 1.225792e+003 5.394173e+002 1.937390e+003
         vertex 1.215792e+003 5.394173e+002 1.937390e+003
         vertex 1.215792e+003 5.394933e+002 1.938258e+003
      endloop
   endfacet
   facet normal -1.717478e-016 9.932307e-001 -1.161583e-001
      outer loop
         vertex 1.225792e+003 5.394173e+002 1.937390e+003
         vertex 1.215792e+003 5.394933e+002 1.938258e+003
         vertex 1.225792e+003 5.394933e+002 1.938258e+003
      endloop
   endfacet
   facet normal -1.677284e-016 9.730601e-001 -2.305518e-001
      outer loop
         vertex 1.225792e+003 5.394933e+002 1.938258e+003
         vertex 1.215792e+003 5.394933e+002 1.938258e+003
         vertex 1.215792e+003 5.397189e+002 1.939100e+003
      endloop
   endfacet
   facet normal -1.648548e-016 9.579706e-001 -2.868663e-001
      outer loop
         vertex 1.225792e+003 5.394933e+002 1.938258e+003
         vertex 1.215792e+003 5.397189e+002 1.939100e+003
         vertex 1.225792e+003 5.397189e+002 1.939100e+003
      endloop
   endfacet
   facet normal -1.574671e-016 9.182422e-001 -3.960194e-001
      outer loop
         vertex 1.225792e+003 5.397189e+002 1.939100e+003
         vertex 1.215792e+003 5.397189e+002 1.939100e+003
         vertex 1.215792e+003 5.400872e+002 1.939890e+003
      endloop
   endfacet
   facet normal -1.529529e-016 8.936031e-001 -4.488580e-001
      outer loop
         vertex 1.225792e+003 5.397189e+002 1.939100e+003
         vertex 1.215792e+003 5.400872e+002 1.939890e+003
         vertex 1.225792e+003 5.400872e+002 1.939890e+003
      endloop
   endfacet
   facet normal -1.424212e-016 8.355240e-001 -5.494540e-001
      outer loop
         vertex 1.225792e+003 5.400872e+002 1.939890e+003
         vertex 1.215792e+003 5.400872e+002 1.939890e+003
         vertex 1.215792e+003 5.405871e+002 1.940604e+003
      endloop
   endfacet
   facet normal -1.364036e-016 8.020839e-001 -5.972114e-001
      outer loop
         vertex 1.225792e+003 5.400872e+002 1.939890e+003
         vertex 1.215792e+003 5.405871e+002 1.940604e+003
         vertex 1.225792e+003 5.405871e+002 1.940604e+003
      endloop
   endfacet
   facet normal -1.230478e-016 7.274188e-001 -6.861938e-001
      outer loop
         vertex 1.225792e+003 5.405871e+002 1.940604e+003
         vertex 1.215792e+003 5.405871e+002 1.940604e+003
         vertex 1.215792e+003 5.412034e+002 1.941220e+003
      endloop
   endfacet
   facet normal -1.157097e-016 6.861938e-001 -7.274188e-001
      outer loop
         vertex 1.225792e+003 5.405871e+002 1.940604e+003
         vertex 1.215792e+003 5.412034e+002 1.941220e+003
         vertex 1.225792e+003 5.412034e+002 1.941220e+003
      endloop
   endfacet
   facet normal -9.993578e-017 5.972114e-001 -8.020839e-001
      outer loop
         vertex 1.225792e+003 5.412034e+002 1.941220e+003
         vertex 1.215792e+003 5.412034e+002 1.941220e+003
         vertex 1.215792e+003 5.419173e+002 1.941720e+003
      endloop
   endfacet
   facet normal -9.150002e-017 5.494540e-001 -8.355240e-001
      outer loop
         vertex 1.225792e+003 5.412034e+002 1.941220e+003
         vertex 1.215792e+003 5.419173e+002 1.941720e+003
         vertex 1.225792e+003 5.419173e+002 1.941720e+003
      endloop
   endfacet
   facet normal -7.378722e-017 4.488580e-001 -8.936031e-001
      outer loop
         vertex 1.225792e+003 5.419173e+002 1.941720e+003
         vertex 1.215792e+003 5.419173e+002 1.941720e+003
         vertex 1.215792e+003 5.427072e+002 1.942088e+003
      endloop
   endfacet
   facet normal -6.451017e-017 3.960194e-001 -9.182422e-001
      outer loop
         vertex 1.225792e+003 5.419173e+002 1.941720e+003
         vertex 1.215792e+003 5.427072e+002 1.942088e+003
         vertex 1.225792e+003 5.427072e+002 1.942088e+003
      endloop
   endfacet
   facet normal -4.539667e-017 2.868663e-001 -9.579706e-001
      outer loop
         vertex 1.225792e+003 5.427072e+002 1.942088e+003
         vertex 1.215792e+003 5.427072e+002 1.942088e+003
         vertex 1.215792e+003 5.435491e+002 1.942314e+003
      endloop
   endfacet
   facet normal -3.556021e-017 2.305518e-001 -9.730601e-001
      outer loop
         vertex 1.225792e+003 5.427072e+002 1.942088e+003
         vertex 1.215792e+003 5.435491e+002 1.942314e+003
         vertex 1.225792e+003 5.435491e+002 1.942314e+003
      endloop
   endfacet
   facet normal -1.562676e-017 1.161583e-001 -9.932307e-001
      outer loop
         vertex 1.225792e+003 5.435491e+002 1.942314e+003
         vertex 1.215792e+003 5.435491e+002 1.942314e+003
         vertex 1.215792e+003 5.444173e+002 1.942390e+003
      endloop
   endfacet
   facet normal -5.529772e-018 5.807914e-002 -9.983120e-001
      outer loop
         vertex 1.225792e+003 5.435491e+002 1.942314e+003
         vertex 1.215792e+003 5.444173e+002 1.942390e+003
         vertex 1.225792e+003 5.444173e+002 1.942390e+003
      endloop
   endfacet
   facet normal 1.461795e-017 -5.807914e-002 -9.983120e-001
      outer loop
         vertex 1.225792e+003 5.444173e+002 1.942390e+003
         vertex 1.215792e+003 5.444173e+002 1.942390e+003
         vertex 1.215792e+003 5.452856e+002 1.942314e+003
      endloop
   endfacet
   facet normal 2.466869e-017 -1.161583e-001 -9.932307e-001
      outer loop
         vertex 1.225792e+003 5.444173e+002 1.942390e+003
         vertex 1.215792e+003 5.452856e+002 1.942314e+003
         vertex 1.225792e+003 5.452856e+002 1.942314e+003
      endloop
   endfacet
   facet normal 4.441851e-017 -2.305518e-001 -9.730601e-001
      outer loop
         vertex 1.225792e+003 5.452856e+002 1.942314e+003
         vertex 1.215792e+003 5.452856e+002 1.942314e+003
         vertex 1.215792e+003 5.461274e+002 1.942088e+003
      endloop
   endfacet
   facet normal 5.411760e-017 -2.868663e-001 -9.579706e-001
      outer loop
         vertex 1.225792e+003 5.452856e+002 1.942314e+003
         vertex 1.215792e+003 5.461274e+002 1.942088e+003
         vertex 1.225792e+003 5.461274e+002 1.942088e+003
      endloop
   endfacet
   facet normal 7.286944e-017 -3.960194e-001 -9.182422e-001
      outer loop
         vertex 1.225792e+003 5.461274e+002 1.942088e+003
         vertex 1.215792e+003 5.461274e+002 1.942088e+003
         vertex 1.215792e+003 5.469173e+002 1.941720e+003
      endloop
   endfacet
   facet normal 8.192218e-017 -4.488580e-001 -8.936031e-001
      outer loop
         vertex 1.225792e+003 5.461274e+002 1.942088e+003
         vertex 1.215792e+003 5.469173e+002 1.941720e+003
         vertex 1.225792e+003 5.469173e+002 1.941720e+003
      endloop
   endfacet
   facet normal 9.910625e-017 -5.494540e-001 -8.355240e-001
      outer loop
         vertex 1.225792e+003 5.469173e+002 1.941720e+003
         vertex 1.215792e+003 5.469173e+002 1.941720e+003
         vertex 1.215792e+003 5.476313e+002 1.941220e+003
      endloop
   endfacet
   facet normal 1.072376e-016 -5.972114e-001 -8.020839e-001
      outer loop
         vertex 1.225792e+003 5.469173e+002 1.941720e+003
         vertex 1.215792e+003 5.476313e+002 1.941220e+003
         vertex 1.225792e+003 5.476313e+002 1.941220e+003
      endloop
   endfacet
   facet normal 1.223318e-016 -6.861938e-001 -7.274188e-001
      outer loop
         vertex 1.225792e+003 5.476313e+002 1.941220e+003
         vertex 1.215792e+003 5.476313e+002 1.941220e+003
         vertex 1.215792e+003 5.482476e+002 1.940604e+003
      endloop
   endfacet
   facet normal 1.292946e-016 -7.274188e-001 -6.861938e-001
      outer loop
         vertex 1.225792e+003 5.476313e+002 1.941220e+003
         vertex 1.215792e+003 5.482476e+002 1.940604e+003
         vertex 1.225792e+003 5.482476e+002 1.940604e+003
      endloop
   endfacet
   facet normal 1.418403e-016 -8.020839e-001 -5.972114e-001
      outer loop
         vertex 1.225792e+003 5.482476e+002 1.940604e+003
         vertex 1.215792e+003 5.482476e+002 1.940604e+003
         vertex 1.215792e+003 5.487475e+002 1.939890e+003
      endloop
   endfacet
   facet normal 1.474231e-016 -8.355240e-001 -5.494540e-001
      outer loop
         vertex 1.225792e+003 5.482476e+002 1.940604e+003
         vertex 1.215792e+003 5.487475e+002 1.939890e+003
         vertex 1.225792e+003 5.487475e+002 1.939890e+003
      endloop
   endfacet
   facet normal 1.570391e-016 -8.936031e-001 -4.488580e-001
      outer loop
         vertex 1.225792e+003 5.487475e+002 1.939890e+003
         vertex 1.215792e+003 5.487475e+002 1.939890e+003
         vertex 1.215792e+003 5.491158e+002 1.939100e+003
      endloop
   endfacet
   facet normal 1.610723e-016 -9.182422e-001 -3.960194e-001
      outer loop
         vertex 1.225792e+003 5.487475e+002 1.939890e+003
         vertex 1.215792e+003 5.491158e+002 1.939100e+003
         vertex 1.225792e+003 5.491158e+002 1.939100e+003
      endloop
   endfacet
   facet normal 1.674664e-016 -9.579706e-001 -2.868663e-001
      outer loop
         vertex 1.225792e+003 5.491158e+002 1.939100e+003
         vertex 1.215792e+003 5.491158e+002 1.939100e+003
         vertex 1.215792e+003 5.493414e+002 1.938258e+003
      endloop
   endfacet
   facet normal 1.698273e-016 -9.730601e-001 -2.305518e-001
      outer loop
         vertex 1.225792e+003 5.491158e+002 1.939100e+003
         vertex 1.215792e+003 5.493414e+002 1.938258e+003
         vertex 1.225792e+003 5.493414e+002 1.938258e+003
      endloop
   endfacet
   facet normal 1.728052e-016 -9.932307e-001 -1.161583e-001
      outer loop
         vertex 1.225792e+003 5.493414e+002 1.938258e+003
         vertex 1.215792e+003 5.493414e+002 1.938258e+003
         vertex 1.215792e+003 5.494173e+002 1.937390e+003
      endloop
   endfacet
   facet normal -1.194295e-016 7.071068e-001 -7.071068e-001
      outer loop
         vertex 1.215792e+003 5.504173e+002 1.926390e+003
         vertex 1.215792e+003 5.554174e+002 1.931390e+003
         vertex 1.225792e+003 5.504173e+002 1.926390e+003
      endloop
   endfacet
   facet normal -1.194295e-016 7.071068e-001 -7.071068e-001
      outer loop
         vertex 1.225792e+003 5.504173e+002 1.926390e+003
         vertex 1.215792e+003 5.554174e+002 1.931390e+003
         vertex 1.225792e+003 5.554174e+002 1.931390e+003
      endloop
   endfacet
endsolid