solid 09.025.00.00.000 - 09.025.00.08.000-1 09.025.00.08.011-1 09.025.00.08.0AB-2
   facet normal -1.734506e-016 1.000000e+000 -7.530169e-016
      outer loop
         vertex 1.041792e+003 5.554174e+002 1.931390e+003
         vertex 1.041792e+003 5.554174e+002 1.948390e+003
         vertex 1.051792e+003 5.554174e+002 1.931390e+003
      endloop
   endfacet
   facet normal -1.734506e-016 1.000000e+000 -7.530169e-016
      outer loop
         vertex 1.051792e+003 5.554174e+002 1.931390e+003
         vertex 1.041792e+003 5.554174e+002 1.948390e+003
         vertex 1.051792e+003 5.554174e+002 1.948390e+003
      endloop
   endfacet
   facet normal -2.013787e-016 7.547226e-016 1.000000e+000
      outer loop
         vertex 1.051792e+003 4.614174e+002 1.948390e+003
         vertex 1.051792e+003 5.554174e+002 1.948390e+003
         vertex 1.041792e+003 4.614174e+002 1.948390e+003
      endloop
   endfacet
   facet normal -2.013787e-016 7.547226e-016 1.000000e+000
      outer loop
         vertex 1.041792e+003 4.614174e+002 1.948390e+003
         vertex 1.051792e+003 5.554174e+002 1.948390e+003
         vertex 1.041792e+003 5.554174e+002 1.948390e+003
      endloop
   endfacet
   facet normal 1.734506e-016 -1.000000e+000 7.530169e-016
      outer loop
         vertex 1.041792e+003 4.514173e+002 1.938390e+003
         vertex 1.041792e+003 4.514173e+002 1.926390e+003
         vertex 1.051792e+003 4.514173e+002 1.938390e+003
      endloop
   endfacet
   facet normal 1.734506e-016 -1.000000e+000 7.530169e-016
      outer loop
         vertex 1.051792e+003 4.514173e+002 1.938390e+003
         vertex 1.041792e+003 4.514173e+002 1.926390e+003
         vertex 1.051792e+003 4.514173e+002 1.926390e+003
      endloop
   endfacet
   facet normal 2.013787e-016 -7.547226e-016 -1.000000e+000
      outer loop
         vertex 1.051792e+003 5.504173e+002 1.926390e+003
         vertex 1.051792e+003 4.514173e+002 1.926390e+003
         vertex 1.041792e+003 5.504173e+002 1.926390e+003
      endloop
   endfacet
   facet normal 2.013787e-016 -7.547226e-016 -1.000000e+000
      outer loop
         vertex 1.041792e+003 5.504173e+002 1.926390e+003
         vertex 1.051792e+003 4.514173e+002 1.926390e+003
         vertex 1.041792e+003 4.514173e+002 1.926390e+003
      endloop
   endfacet
   facet normal 1.000000e+000 2.289618e-016 2.007434e-016
      outer loop
         vertex 1.051792e+003 5.452856e+002 1.932466e+003
         vertex 1.051792e+003 5.504173e+002 1.926390e+003
         vertex 1.051792e+003 5.461274e+002 1.932691e+003
      endloop
   endfacet
   facet normal 1.000000e+000 2.289618e-016 2.007434e-016
      outer loop
         vertex 1.051792e+003 5.461274e+002 1.932691e+003
         vertex 1.051792e+003 5.504173e+002 1.926390e+003
         vertex 1.051792e+003 5.469173e+002 1.933060e+003
      endloop
   endfacet
   facet normal 1.000000e+000 2.289618e-016 2.007434e-016
      outer loop
         vertex 1.051792e+003 5.397189e+002 1.939100e+003
         vertex 1.051792e+003 5.400872e+002 1.939890e+003
         vertex 1.051792e+003 4.614174e+002 1.948390e+003
      endloop
   endfacet
   facet normal 1.000000e+000 2.289618e-016 2.007434e-016
      outer loop
         vertex 1.051792e+003 4.614174e+002 1.948390e+003
         vertex 1.051792e+003 5.400872e+002 1.939890e+003
         vertex 1.051792e+003 5.405871e+002 1.940604e+003
      endloop
   endfacet
   facet normal 1.000000e+000 2.289618e-016 2.007434e-016
      outer loop
         vertex 1.051792e+003 4.614174e+002 1.948390e+003
         vertex 1.051792e+003 5.405871e+002 1.940604e+003
         vertex 1.051792e+003 5.412034e+002 1.941220e+003
      endloop
   endfacet
   facet normal 1.000000e+000 2.289618e-016 2.007434e-016
      outer loop
         vertex 1.051792e+003 5.554174e+002 1.931390e+003
         vertex 1.051792e+003 5.493414e+002 1.936522e+003
         vertex 1.051792e+003 5.491158e+002 1.935680e+003
      endloop
   endfacet
   facet normal 1.000000e+000 2.289618e-016 2.007434e-016
      outer loop
         vertex 1.051792e+003 5.444173e+002 1.942390e+003
         vertex 1.051792e+003 5.452856e+002 1.942314e+003
         vertex 1.051792e+003 5.554174e+002 1.948390e+003
      endloop
   endfacet
   facet normal 1.000000e+000 2.289618e-016 2.007434e-016
      outer loop
         vertex 1.051792e+003 5.554174e+002 1.948390e+003
         vertex 1.051792e+003 5.452856e+002 1.942314e+003
         vertex 1.051792e+003 5.461274e+002 1.942088e+003
      endloop
   endfacet
   facet normal 1.000000e+000 2.289618e-016 2.007434e-016
      outer loop
         vertex 1.051792e+003 5.554174e+002 1.948390e+003
         vertex 1.051792e+003 5.461274e+002 1.942088e+003
         vertex 1.051792e+003 5.469173e+002 1.941720e+003
      endloop
   endfacet
   facet normal 1.000000e+000 2.289618e-016 2.007434e-016
      outer loop
         vertex 1.051792e+003 5.469173e+002 1.941720e+003
         vertex 1.051792e+003 5.476313e+002 1.941220e+003
         vertex 1.051792e+003 5.554174e+002 1.948390e+003
      endloop
   endfacet
   facet normal 1.000000e+000 2.289618e-016 2.007434e-016
      outer loop
         vertex 1.051792e+003 5.554174e+002 1.948390e+003
         vertex 1.051792e+003 5.476313e+002 1.941220e+003
         vertex 1.051792e+003 5.482476e+002 1.940604e+003
      endloop
   endfacet
   facet normal 1.000000e+000 2.289618e-016 2.007434e-016
      outer loop
         vertex 1.051792e+003 5.554174e+002 1.948390e+003
         vertex 1.051792e+003 5.482476e+002 1.940604e+003
         vertex 1.051792e+003 5.487475e+002 1.939890e+003
      endloop
   endfacet
   facet normal 1.000000e+000 2.289618e-016 2.007434e-016
      outer loop
         vertex 1.051792e+003 5.452856e+002 1.932466e+003
         vertex 1.051792e+003 5.444173e+002 1.932390e+003
         vertex 1.051792e+003 5.504173e+002 1.926390e+003
      endloop
   endfacet
   facet normal 1.000000e+000 2.289618e-016 2.007434e-016
      outer loop
         vertex 1.051792e+003 5.504173e+002 1.926390e+003
         vertex 1.051792e+003 5.444173e+002 1.932390e+003
         vertex 1.051792e+003 5.435491e+002 1.932466e+003
      endloop
   endfacet
   facet normal 1.000000e+000 2.289618e-016 2.007434e-016
      outer loop
         vertex 1.051792e+003 5.504173e+002 1.926390e+003
         vertex 1.051792e+003 5.435491e+002 1.932466e+003
         vertex 1.051792e+003 4.514173e+002 1.926390e+003
      endloop
   endfacet
   facet normal 1.000000e+000 2.289618e-016 2.007434e-016
      outer loop
         vertex 1.051792e+003 4.514173e+002 1.926390e+003
         vertex 1.051792e+003 5.435491e+002 1.932466e+003
         vertex 1.051792e+003 5.427072e+002 1.932691e+003
      endloop
   endfacet
   facet normal 1.000000e+000 2.289618e-016 2.007434e-016
      outer loop
         vertex 1.051792e+003 4.514173e+002 1.926390e+003
         vertex 1.051792e+003 5.427072e+002 1.932691e+003
         vertex 1.051792e+003 5.419173e+002 1.933060e+003
      endloop
   endfacet
   facet normal 1.000000e+000 2.289618e-016 2.007434e-016
      outer loop
         vertex 1.051792e+003 5.419173e+002 1.933060e+003
         vertex 1.051792e+003 5.412034e+002 1.933560e+003
         vertex 1.051792e+003 4.514173e+002 1.926390e+003
      endloop
   endfacet
   facet normal 1.000000e+000 2.289618e-016 2.007434e-016
      outer loop
         vertex 1.051792e+003 4.514173e+002 1.926390e+003
         vertex 1.051792e+003 5.412034e+002 1.933560e+003
         vertex 1.051792e+003 5.405871e+002 1.934176e+003
      endloop
   endfacet
   facet normal 1.000000e+000 2.289618e-016 2.007434e-016
      outer loop
         vertex 1.051792e+003 4.514173e+002 1.926390e+003
         vertex 1.051792e+003 5.405871e+002 1.934176e+003
         vertex 1.051792e+003 5.400872e+002 1.934890e+003
      endloop
   endfacet
   facet normal 1.000000e+000 2.289618e-016 2.007434e-016
      outer loop
         vertex 1.051792e+003 5.412034e+002 1.941220e+003
         vertex 1.051792e+003 5.419173e+002 1.941720e+003
         vertex 1.051792e+003 4.614174e+002 1.948390e+003
      endloop
   endfacet
   facet normal 1.000000e+000 2.289618e-016 2.007434e-016
      outer loop
         vertex 1.051792e+003 4.614174e+002 1.948390e+003
         vertex 1.051792e+003 5.419173e+002 1.941720e+003
         vertex 1.051792e+003 5.427072e+002 1.942088e+003
      endloop
   endfacet
   facet normal 1.000000e+000 2.289618e-016 2.007434e-016
      outer loop
         vertex 1.051792e+003 4.614174e+002 1.948390e+003
         vertex 1.051792e+003 5.427072e+002 1.942088e+003
         vertex 1.051792e+003 5.554174e+002 1.948390e+003
      endloop
   endfacet
   facet normal 1.000000e+000 2.289618e-016 2.007434e-016
      outer loop
         vertex 1.051792e+003 5.554174e+002 1.948390e+003
         vertex 1.051792e+003 5.427072e+002 1.942088e+003
         vertex 1.051792e+003 5.435491e+002 1.942314e+003
      endloop
   endfacet
   facet normal 1.000000e+000 2.289618e-016 2.007434e-016
      outer loop
         vertex 1.051792e+003 5.554174e+002 1.948390e+003
         vertex 1.051792e+003 5.435491e+002 1.942314e+003
         vertex 1.051792e+003 5.444173e+002 1.942390e+003
      endloop
   endfacet
   facet normal 1.000000e+000 2.289618e-016 2.007434e-016
      outer loop
         vertex 1.051792e+003 5.491158e+002 1.935680e+003
         vertex 1.051792e+003 5.487475e+002 1.934890e+003
         vertex 1.051792e+003 5.554174e+002 1.931390e+003
      endloop
   endfacet
   facet normal 1.000000e+000 2.289618e-016 2.007434e-016
      outer loop
         vertex 1.051792e+003 5.554174e+002 1.931390e+003
         vertex 1.051792e+003 5.487475e+002 1.934890e+003
         vertex 1.051792e+003 5.482476e+002 1.934176e+003
      endloop
   endfacet
   facet normal 1.000000e+000 2.289618e-016 2.007434e-016
      outer loop
         vertex 1.051792e+003 5.554174e+002 1.931390e+003
         vertex 1.051792e+003 5.482476e+002 1.934176e+003
         vertex 1.051792e+003 5.504173e+002 1.926390e+003
      endloop
   endfacet
   facet normal 1.000000e+000 2.289618e-016 2.007434e-016
      outer loop
         vertex 1.051792e+003 5.504173e+002 1.926390e+003
         vertex 1.051792e+003 5.482476e+002 1.934176e+003
         vertex 1.051792e+003 5.476313e+002 1.933560e+003
      endloop
   endfacet
   facet normal 1.000000e+000 2.289618e-016 2.007434e-016
      outer loop
         vertex 1.051792e+003 5.504173e+002 1.926390e+003
         vertex 1.051792e+003 5.476313e+002 1.933560e+003
         vertex 1.051792e+003 5.469173e+002 1.933060e+003
      endloop
   endfacet
   facet normal 1.000000e+000 2.289618e-016 2.007434e-016
      outer loop
         vertex 1.051792e+003 5.400872e+002 1.934890e+003
         vertex 1.051792e+003 5.397189e+002 1.935680e+003
         vertex 1.051792e+003 4.514173e+002 1.926390e+003
      endloop
   endfacet
   facet normal 1.000000e+000 2.289618e-016 2.007434e-016
      outer loop
         vertex 1.051792e+003 4.514173e+002 1.926390e+003
         vertex 1.051792e+003 5.397189e+002 1.935680e+003
         vertex 1.051792e+003 5.394933e+002 1.936522e+003
      endloop
   endfacet
   facet normal 1.000000e+000 2.289618e-016 2.007434e-016
      outer loop
         vertex 1.051792e+003 4.514173e+002 1.926390e+003
         vertex 1.051792e+003 5.394933e+002 1.936522e+003
         vertex 1.051792e+003 4.514173e+002 1.938390e+003
      endloop
   endfacet
   facet normal 1.000000e+000 2.289618e-016 2.007434e-016
      outer loop
         vertex 1.051792e+003 4.514173e+002 1.938390e+003
         vertex 1.051792e+003 5.394933e+002 1.936522e+003
         vertex 1.051792e+003 5.394173e+002 1.937390e+003
      endloop
   endfacet
   facet normal 1.000000e+000 2.289618e-016 2.007434e-016
      outer loop
         vertex 1.051792e+003 4.514173e+002 1.938390e+003
         vertex 1.051792e+003 5.394173e+002 1.937390e+003
         vertex 1.051792e+003 4.614174e+002 1.948390e+003
      endloop
   endfacet
   facet normal 1.000000e+000 2.289618e-016 2.007434e-016
      outer loop
         vertex 1.051792e+003 4.614174e+002 1.948390e+003
         vertex 1.051792e+003 5.394173e+002 1.937390e+003
         vertex 1.051792e+003 5.394933e+002 1.938258e+003
      endloop
   endfacet
   facet normal 1.000000e+000 2.289618e-016 2.007434e-016
      outer loop
         vertex 1.051792e+003 4.614174e+002 1.948390e+003
         vertex 1.051792e+003 5.394933e+002 1.938258e+003
         vertex 1.051792e+003 5.397189e+002 1.939100e+003
      endloop
   endfacet
   facet normal 1.000000e+000 2.289618e-016 2.007434e-016
      outer loop
         vertex 1.051792e+003 5.487475e+002 1.939890e+003
         vertex 1.051792e+003 5.491158e+002 1.939100e+003
         vertex 1.051792e+003 5.554174e+002 1.948390e+003
      endloop
   endfacet
   facet normal 1.000000e+000 2.289618e-016 2.007434e-016
      outer loop
         vertex 1.051792e+003 5.554174e+002 1.948390e+003
         vertex 1.051792e+003 5.491158e+002 1.939100e+003
         vertex 1.051792e+003 5.493414e+002 1.938258e+003
      endloop
   endfacet
   facet normal 1.000000e+000 2.289618e-016 2.007434e-016
      outer loop
         vertex 1.051792e+003 5.554174e+002 1.948390e+003
         vertex 1.051792e+003 5.493414e+002 1.938258e+003
         vertex 1.051792e+003 5.554174e+002 1.931390e+003
      endloop
   endfacet
   facet normal 1.000000e+000 2.289618e-016 2.007434e-016
      outer loop
         vertex 1.051792e+003 5.554174e+002 1.931390e+003
         vertex 1.051792e+003 5.493414e+002 1.938258e+003
         vertex 1.051792e+003 5.494173e+002 1.937390e+003
      endloop
   endfacet
   facet normal 1.000000e+000 2.289618e-016 2.007434e-016
      outer loop
         vertex 1.051792e+003 5.554174e+002 1.931390e+003
         vertex 1.051792e+003 5.494173e+002 1.937390e+003
         vertex 1.051792e+003 5.493414e+002 1.936522e+003
      endloop
   endfacet
   facet normal -1.000000e+000 -2.289618e-016 -2.007434e-016
      outer loop
         vertex 1.041792e+003 5.554174e+002 1.948390e+003
         vertex 1.041792e+003 5.554174e+002 1.931390e+003
         vertex 1.041792e+003 5.494173e+002 1.937390e+003
      endloop
   endfacet
   facet normal -1.000000e+000 -2.289618e-016 -2.007434e-016
      outer loop
         vertex 1.041792e+003 5.487475e+002 1.934890e+003
         vertex 1.041792e+003 5.491158e+002 1.935680e+003
         vertex 1.041792e+003 5.554174e+002 1.931390e+003
      endloop
   endfacet
   facet normal -1.000000e+000 -2.289618e-016 -2.007434e-016
      outer loop
         vertex 1.041792e+003 5.554174e+002 1.931390e+003
         vertex 1.041792e+003 5.491158e+002 1.935680e+003
         vertex 1.041792e+003 5.493414e+002 1.936522e+003
      endloop
   endfacet
   facet normal -1.000000e+000 -2.289618e-016 -2.007434e-016
      outer loop
         vertex 1.041792e+003 5.554174e+002 1.931390e+003
         vertex 1.041792e+003 5.493414e+002 1.936522e+003
         vertex 1.041792e+003 5.494173e+002 1.937390e+003
      endloop
   endfacet
   facet normal -1.000000e+000 -2.289618e-016 -2.007434e-016
      outer loop
         vertex 1.041792e+003 5.419173e+002 1.941720e+003
         vertex 1.041792e+003 5.412034e+002 1.941220e+003
         vertex 1.041792e+003 4.614174e+002 1.948390e+003
      endloop
   endfacet
   facet normal -1.000000e+000 -2.289618e-016 -2.007434e-016
      outer loop
         vertex 1.041792e+003 4.614174e+002 1.948390e+003
         vertex 1.041792e+003 5.412034e+002 1.941220e+003
         vertex 1.041792e+003 5.405871e+002 1.940604e+003
      endloop
   endfacet
   facet normal -1.000000e+000 -2.289618e-016 -2.007434e-016
      outer loop
         vertex 1.041792e+003 4.614174e+002 1.948390e+003
         vertex 1.041792e+003 5.405871e+002 1.940604e+003
         vertex 1.041792e+003 5.400872e+002 1.939890e+003
      endloop
   endfacet
   facet normal -1.000000e+000 -2.289618e-016 -2.007434e-016
      outer loop
         vertex 1.041792e+003 5.494173e+002 1.937390e+003
         vertex 1.041792e+003 5.493414e+002 1.938258e+003
         vertex 1.041792e+003 5.554174e+002 1.948390e+003
      endloop
   endfacet
   facet normal -1.000000e+000 -2.289618e-016 -2.007434e-016
      outer loop
         vertex 1.041792e+003 5.554174e+002 1.948390e+003
         vertex 1.041792e+003 5.493414e+002 1.938258e+003
         vertex 1.041792e+003 5.491158e+002 1.939100e+003
      endloop
   endfacet
   facet normal -1.000000e+000 -2.289618e-016 -2.007434e-016
      outer loop
         vertex 1.041792e+003 5.554174e+002 1.948390e+003
         vertex 1.041792e+003 5.491158e+002 1.939100e+003
         vertex 1.041792e+003 5.487475e+002 1.939890e+003
      endloop
   endfacet
   facet normal -1.000000e+000 -2.289618e-016 -2.007434e-016
      outer loop
         vertex 1.041792e+003 5.469173e+002 1.941720e+003
         vertex 1.041792e+003 5.461274e+002 1.942088e+003
         vertex 1.041792e+003 5.554174e+002 1.948390e+003
      endloop
   endfacet
   facet normal -1.000000e+000 -2.289618e-016 -2.007434e-016
      outer loop
         vertex 1.041792e+003 5.554174e+002 1.948390e+003
         vertex 1.041792e+003 5.461274e+002 1.942088e+003
         vertex 1.041792e+003 5.452856e+002 1.942314e+003
      endloop
   endfacet
   facet normal -1.000000e+000 -2.289618e-016 -2.007434e-016
      outer loop
         vertex 1.041792e+003 5.487475e+002 1.939890e+003
         vertex 1.041792e+003 5.482476e+002 1.940604e+003
         vertex 1.041792e+003 5.554174e+002 1.948390e+003
      endloop
   endfacet
   facet normal -1.000000e+000 -2.289618e-016 -2.007434e-016
      outer loop
         vertex 1.041792e+003 5.554174e+002 1.948390e+003
         vertex 1.041792e+003 5.482476e+002 1.940604e+003
         vertex 1.041792e+003 5.476313e+002 1.941220e+003
      endloop
   endfacet
   facet normal -1.000000e+000 -2.289618e-016 -2.007434e-016
      outer loop
         vertex 1.041792e+003 5.554174e+002 1.948390e+003
         vertex 1.041792e+003 5.476313e+002 1.941220e+003
         vertex 1.041792e+003 5.469173e+002 1.941720e+003
      endloop
   endfacet
   facet normal -1.000000e+000 -2.289618e-016 -2.007434e-016
      outer loop
         vertex 1.041792e+003 5.452856e+002 1.942314e+003
         vertex 1.041792e+003 5.444173e+002 1.942390e+003
         vertex 1.041792e+003 5.554174e+002 1.948390e+003
      endloop
   endfacet
   facet normal -1.000000e+000 -2.289618e-016 -2.007434e-016
      outer loop
         vertex 1.041792e+003 5.554174e+002 1.948390e+003
         vertex 1.041792e+003 5.444173e+002 1.942390e+003
         vertex 1.041792e+003 5.435491e+002 1.942314e+003
      endloop
   endfacet
   facet normal -1.000000e+000 -2.289618e-016 -2.007434e-016
      outer loop
         vertex 1.041792e+003 5.554174e+002 1.948390e+003
         vertex 1.041792e+003 5.435491e+002 1.942314e+003
         vertex 1.041792e+003 4.614174e+002 1.948390e+003
      endloop
   endfacet
   facet normal -1.000000e+000 -2.289618e-016 -2.007434e-016
      outer loop
         vertex 1.041792e+003 4.614174e+002 1.948390e+003
         vertex 1.041792e+003 5.435491e+002 1.942314e+003
         vertex 1.041792e+003 5.427072e+002 1.942088e+003
      endloop
   endfacet
   facet normal -1.000000e+000 -2.289618e-016 -2.007434e-016
      outer loop
         vertex 1.041792e+003 4.614174e+002 1.948390e+003
         vertex 1.041792e+003 5.427072e+002 1.942088e+003
         vertex 1.041792e+003 5.419173e+002 1.941720e+003
      endloop
   endfacet
   facet normal -1.000000e+000 -2.289618e-016 -2.007434e-016
      outer loop
         vertex 1.041792e+003 5.397189e+002 1.935680e+003
         vertex 1.041792e+003 5.400872e+002 1.934890e+003
         vertex 1.041792e+003 4.514173e+002 1.926390e+003
      endloop
   endfacet
   facet normal -1.000000e+000 -2.289618e-016 -2.007434e-016
      outer loop
         vertex 1.041792e+003 4.514173e+002 1.926390e+003
         vertex 1.041792e+003 5.400872e+002 1.934890e+003
         vertex 1.041792e+003 5.405871e+002 1.934176e+003
      endloop
   endfacet
   facet normal -1.000000e+000 -2.289618e-016 -2.007434e-016
      outer loop
         vertex 1.041792e+003 5.400872e+002 1.939890e+003
         vertex 1.041792e+003 5.397189e+002 1.939100e+003
         vertex 1.041792e+003 4.614174e+002 1.948390e+003
      endloop
   endfacet
   facet normal -1.000000e+000 -2.289618e-016 -2.007434e-016
      outer loop
         vertex 1.041792e+003 4.614174e+002 1.948390e+003
         vertex 1.041792e+003 5.397189e+002 1.939100e+003
         vertex 1.041792e+003 5.394933e+002 1.938258e+003
      endloop
   endfacet
   facet normal -1.000000e+000 -2.289618e-016 -2.007434e-016
      outer loop
         vertex 1.041792e+003 4.614174e+002 1.948390e+003
         vertex 1.041792e+003 5.394933e+002 1.938258e+003
         vertex 1.041792e+003 4.514173e+002 1.938390e+003
      endloop
   endfacet
   facet normal -1.000000e+000 -2.289618e-016 -2.007434e-016
      outer loop
         vertex 1.041792e+003 4.514173e+002 1.938390e+003
         vertex 1.041792e+003 5.394933e+002 1.938258e+003
         vertex 1.041792e+003 5.394173e+002 1.937390e+003
      endloop
   endfacet
   facet normal -1.000000e+000 -2.289618e-016 -2.007434e-016
      outer loop
         vertex 1.041792e+003 4.514173e+002 1.938390e+003
         vertex 1.041792e+003 5.394173e+002 1.937390e+003
         vertex 1.041792e+003 4.514173e+002 1.926390e+003
      endloop
   endfacet
   facet normal -1.000000e+000 -2.289618e-016 -2.007434e-016
      outer loop
         vertex 1.041792e+003 4.514173e+002 1.926390e+003
         vertex 1.041792e+003 5.394173e+002 1.937390e+003
         vertex 1.041792e+003 5.394933e+002 1.936522e+003
      endloop
   endfacet
   facet normal -1.000000e+000 -2.289618e-016 -2.007434e-016
      outer loop
         vertex 1.041792e+003 4.514173e+002 1.926390e+003
         vertex 1.041792e+003 5.394933e+002 1.936522e+003
         vertex 1.041792e+003 5.397189e+002 1.935680e+003
      endloop
   endfacet
   facet normal -1.000000e+000 -2.289618e-016 -2.007434e-016
      outer loop
         vertex 1.041792e+003 5.435491e+002 1.932466e+003
         vertex 1.041792e+003 5.444173e+002 1.932390e+003
         vertex 1.041792e+003 5.504173e+002 1.926390e+003
      endloop
   endfacet
   facet normal -1.000000e+000 -2.289618e-016 -2.007434e-016
      outer loop
         vertex 1.041792e+003 5.504173e+002 1.926390e+003
         vertex 1.041792e+003 5.444173e+002 1.932390e+003
         vertex 1.041792e+003 5.452856e+002 1.932466e+003
      endloop
   endfacet
   facet normal -1.000000e+000 -2.289618e-016 -2.007434e-016
      outer loop
         vertex 1.041792e+003 5.504173e+002 1.926390e+003
         vertex 1.041792e+003 5.452856e+002 1.932466e+003
         vertex 1.041792e+003 5.461274e+002 1.932691e+003
      endloop
   endfacet
   facet normal -1.000000e+000 -2.289618e-016 -2.007434e-016
      outer loop
         vertex 1.041792e+003 5.405871e+002 1.934176e+003
         vertex 1.041792e+003 5.412034e+002 1.933560e+003
         vertex 1.041792e+003 4.514173e+002 1.926390e+003
      endloop
   endfacet
   facet normal -1.000000e+000 -2.289618e-016 -2.007434e-016
      outer loop
         vertex 1.041792e+003 4.514173e+002 1.926390e+003
         vertex 1.041792e+003 5.412034e+002 1.933560e+003
         vertex 1.041792e+003 5.419173e+002 1.933060e+003
      endloop
   endfacet
   facet normal -1.000000e+000 -2.289618e-016 -2.007434e-016
      outer loop
         vertex 1.041792e+003 4.514173e+002 1.926390e+003
         vertex 1.041792e+003 5.419173e+002 1.933060e+003
         vertex 1.041792e+003 5.504173e+002 1.926390e+003
      endloop
   endfacet
   facet normal -1.000000e+000 -2.289618e-016 -2.007434e-016
      outer loop
         vertex 1.041792e+003 5.504173e+002 1.926390e+003
         vertex 1.041792e+003 5.419173e+002 1.933060e+003
         vertex 1.041792e+003 5.427072e+002 1.932691e+003
      endloop
   endfacet
   facet normal -1.000000e+000 -2.289618e-016 -2.007434e-016
      outer loop
         vertex 1.041792e+003 5.504173e+002 1.926390e+003
         vertex 1.041792e+003 5.427072e+002 1.932691e+003
         vertex 1.041792e+003 5.435491e+002 1.932466e+003
      endloop
   endfacet
   facet normal -1.000000e+000 -2.289618e-016 -2.007434e-016
      outer loop
         vertex 1.041792e+003 5.461274e+002 1.932691e+003
         vertex 1.041792e+003 5.469173e+002 1.933060e+003
         vertex 1.041792e+003 5.504173e+002 1.926390e+003
      endloop
   endfacet
   facet normal -1.000000e+000 -2.289618e-016 -2.007434e-016
      outer loop
         vertex 1.041792e+003 5.504173e+002 1.926390e+003
         vertex 1.041792e+003 5.469173e+002 1.933060e+003
         vertex 1.041792e+003 5.476313e+002 1.933560e+003
      endloop
   endfacet
   facet normal -1.000000e+000 -2.289618e-016 -2.007434e-016
      outer loop
         vertex 1.041792e+003 5.504173e+002 1.926390e+003
         vertex 1.041792e+003 5.476313e+002 1.933560e+003
         vertex 1.041792e+003 5.554174e+002 1.931390e+003
      endloop
   endfacet
   facet normal -1.000000e+000 -2.289618e-016 -2.007434e-016
      outer loop
         vertex 1.041792e+003 5.554174e+002 1.931390e+003
         vertex 1.041792e+003 5.476313e+002 1.933560e+003
         vertex 1.041792e+003 5.482476e+002 1.934176e+003
      endloop
   endfacet
   facet normal -1.000000e+000 -2.289618e-016 -2.007434e-016
      outer loop
         vertex 1.041792e+003 5.554174e+002 1.931390e+003
         vertex 1.041792e+003 5.482476e+002 1.934176e+003
         vertex 1.041792e+003 5.487475e+002 1.934890e+003
      endloop
   endfacet
   facet normal -1.974812e-017 -7.071068e-001 7.071068e-001
      outer loop
         vertex 1.041792e+003 4.614174e+002 1.948390e+003
         vertex 1.041792e+003 4.514173e+002 1.938390e+003
         vertex 1.051792e+003 4.614174e+002 1.948390e+003
      endloop
   endfacet
   facet normal -1.974812e-017 -7.071068e-001 7.071068e-001
      outer loop
         vertex 1.051792e+003 4.614174e+002 1.948390e+003
         vertex 1.041792e+003 4.514173e+002 1.938390e+003
         vertex 1.051792e+003 4.514173e+002 1.938390e+003
      endloop
   endfacet
   facet normal 1.848537e-016 -9.983120e-001 -5.807914e-002
      outer loop
         vertex 1.051792e+003 5.493414e+002 1.938258e+003
         vertex 1.041792e+003 5.494173e+002 1.937390e+003
         vertex 1.051792e+003 5.494173e+002 1.937390e+003
      endloop
   endfacet
   facet normal 1.614619e-016 -9.983120e-001 5.807914e-002
      outer loop
         vertex 1.051792e+003 5.494173e+002 1.937390e+003
         vertex 1.041792e+003 5.494173e+002 1.937390e+003
         vertex 1.041792e+003 5.493414e+002 1.936522e+003
      endloop
   endfacet
   facet normal 1.488847e-016 -9.932307e-001 1.161583e-001
      outer loop
         vertex 1.051792e+003 5.494173e+002 1.937390e+003
         vertex 1.041792e+003 5.493414e+002 1.936522e+003
         vertex 1.051792e+003 5.493414e+002 1.936522e+003
      endloop
   endfacet
   facet normal 1.223496e-016 -9.730601e-001 2.305518e-001
      outer loop
         vertex 1.051792e+003 5.493414e+002 1.936522e+003
         vertex 1.041792e+003 5.493414e+002 1.936522e+003
         vertex 1.041792e+003 5.491158e+002 1.935680e+003
      endloop
   endfacet
   facet normal 1.083918e-016 -9.579706e-001 2.868663e-001
      outer loop
         vertex 1.051792e+003 5.493414e+002 1.936522e+003
         vertex 1.041792e+003 5.491158e+002 1.935680e+003
         vertex 1.051792e+003 5.491158e+002 1.935680e+003
      endloop
   endfacet
   facet normal 7.951981e-017 -9.182422e-001 3.960194e-001
      outer loop
         vertex 1.051792e+003 5.491158e+002 1.935680e+003
         vertex 1.041792e+003 5.491158e+002 1.935680e+003
         vertex 1.041792e+003 5.487475e+002 1.934890e+003
      endloop
   endfacet
   facet normal 6.460558e-017 -8.936031e-001 4.488580e-001
      outer loop
         vertex 1.051792e+003 5.491158e+002 1.935680e+003
         vertex 1.041792e+003 5.487475e+002 1.934890e+003
         vertex 1.051792e+003 5.487475e+002 1.934890e+003
      endloop
   endfacet
   facet normal 3.427383e-017 -8.355240e-001 5.494540e-001
      outer loop
         vertex 1.051792e+003 5.487475e+002 1.934890e+003
         vertex 1.041792e+003 5.487475e+002 1.934890e+003
         vertex 1.041792e+003 5.482476e+002 1.934176e+003
      endloop
   endfacet
   facet normal 1.885630e-017 -8.020839e-001 5.972114e-001
      outer loop
         vertex 1.051792e+003 5.487475e+002 1.934890e+003
         vertex 1.041792e+003 5.482476e+002 1.934176e+003
         vertex 1.051792e+003 5.482476e+002 1.934176e+003
      endloop
   endfacet
   facet normal -1.201356e-017 -7.274188e-001 6.861938e-001
      outer loop
         vertex 1.051792e+003 5.482476e+002 1.934176e+003
         vertex 1.041792e+003 5.482476e+002 1.934176e+003
         vertex 1.041792e+003 5.476313e+002 1.933560e+003
      endloop
   endfacet
   facet normal -2.746591e-017 -6.861938e-001 7.274188e-001
      outer loop
         vertex 1.051792e+003 5.482476e+002 1.934176e+003
         vertex 1.041792e+003 5.476313e+002 1.933560e+003
         vertex 1.051792e+003 5.476313e+002 1.933560e+003
      endloop
   endfacet
   facet normal -5.793592e-017 -5.972114e-001 8.020839e-001
      outer loop
         vertex 1.051792e+003 5.476313e+002 1.933560e+003
         vertex 1.041792e+003 5.476313e+002 1.933560e+003
         vertex 1.041792e+003 5.469173e+002 1.933060e+003
      endloop
   endfacet
   facet normal -7.295358e-017 -5.494540e-001 8.355240e-001
      outer loop
         vertex 1.051792e+003 5.476313e+002 1.933560e+003
         vertex 1.041792e+003 5.469173e+002 1.933060e+003
         vertex 1.051792e+003 5.469173e+002 1.933060e+003
      endloop
   endfacet
   facet normal -1.020979e-016 -4.488580e-001 8.936031e-001
      outer loop
         vertex 1.051792e+003 5.469173e+002 1.933060e+003
         vertex 1.041792e+003 5.469173e+002 1.933060e+003
         vertex 1.041792e+003 5.461274e+002 1.932691e+003
      endloop
   endfacet
   facet normal -1.162246e-016 -3.960194e-001 9.182422e-001
      outer loop
         vertex 1.051792e+003 5.469173e+002 1.933060e+003
         vertex 1.041792e+003 5.461274e+002 1.932691e+003
         vertex 1.051792e+003 5.461274e+002 1.932691e+003
      endloop
   endfacet
   facet normal -1.431577e-016 -2.868663e-001 9.579706e-001
      outer loop
         vertex 1.051792e+003 5.461274e+002 1.932691e+003
         vertex 1.041792e+003 5.461274e+002 1.932691e+003
         vertex 1.041792e+003 5.452856e+002 1.932466e+003
      endloop
   endfacet
   facet normal -1.559642e-016 -2.305518e-001 9.730601e-001
      outer loop
         vertex 1.051792e+003 5.461274e+002 1.932691e+003
         vertex 1.041792e+003 5.452856e+002 1.932466e+003
         vertex 1.051792e+003 5.452856e+002 1.932466e+003
      endloop
   endfacet
   facet normal -1.798678e-016 -1.161583e-001 9.932307e-001
      outer loop
         vertex 1.051792e+003 5.452856e+002 1.932466e+003
         vertex 1.041792e+003 5.452856e+002 1.932466e+003
         vertex 1.041792e+003 5.444173e+002 1.932390e+003
      endloop
   endfacet
   facet normal -1.909649e-016 -5.807914e-002 9.983120e-001
      outer loop
         vertex 1.051792e+003 5.452856e+002 1.932466e+003
         vertex 1.041792e+003 5.444173e+002 1.932390e+003
         vertex 1.051792e+003 5.444173e+002 1.932390e+003
      endloop
   endfacet
   facet normal -2.111126e-016 5.807914e-002 9.983120e-001
      outer loop
         vertex 1.051792e+003 5.444173e+002 1.932390e+003
         vertex 1.041792e+003 5.444173e+002 1.932390e+003
         vertex 1.041792e+003 5.435491e+002 1.932466e+003
      endloop
   endfacet
   facet normal -2.201632e-016 1.161583e-001 9.932307e-001
      outer loop
         vertex 1.051792e+003 5.444173e+002 1.932390e+003
         vertex 1.041792e+003 5.435491e+002 1.932466e+003
         vertex 1.051792e+003 5.435491e+002 1.932466e+003
      endloop
   endfacet
   facet normal -2.359429e-016 2.305518e-001 9.730601e-001
      outer loop
         vertex 1.051792e+003 5.435491e+002 1.932466e+003
         vertex 1.041792e+003 5.435491e+002 1.932466e+003
         vertex 1.041792e+003 5.427072e+002 1.932691e+003
      endloop
   endfacet
   facet normal -2.426720e-016 2.868663e-001 9.579706e-001
      outer loop
         vertex 1.051792e+003 5.435491e+002 1.932466e+003
         vertex 1.041792e+003 5.427072e+002 1.932691e+003
         vertex 1.051792e+003 5.427072e+002 1.932691e+003
      endloop
   endfacet
   facet normal -2.536042e-016 3.960194e-001 9.182422e-001
      outer loop
         vertex 1.051792e+003 5.427072e+002 1.932691e+003
         vertex 1.041792e+003 5.427072e+002 1.932691e+003
         vertex 1.041792e+003 5.419173e+002 1.933060e+003
      endloop
   endfacet
   facet normal -2.578073e-016 4.488580e-001 8.936031e-001
      outer loop
         vertex 1.051792e+003 5.427072e+002 1.932691e+003
         vertex 1.041792e+003 5.419173e+002 1.933060e+003
         vertex 1.051792e+003 5.419173e+002 1.933060e+003
      endloop
   endfacet
   facet normal -2.635599e-016 5.494540e-001 8.355240e-001
      outer loop
         vertex 1.051792e+003 5.419173e+002 1.933060e+003
         vertex 1.041792e+003 5.419173e+002 1.933060e+003
         vertex 1.041792e+003 5.412034e+002 1.933560e+003
      endloop
   endfacet
   facet normal -2.651093e-016 5.972114e-001 8.020839e-001
      outer loop
         vertex 1.051792e+003 5.419173e+002 1.933060e+003
         vertex 1.041792e+003 5.412034e+002 1.933560e+003
         vertex 1.051792e+003 5.412034e+002 1.933560e+003
      endloop
   endfacet
   facet normal -2.655074e-016 6.861938e-001 7.274188e-001
      outer loop
         vertex 1.051792e+003 5.412034e+002 1.933560e+003
         vertex 1.041792e+003 5.412034e+002 1.933560e+003
         vertex 1.041792e+003 5.405871e+002 1.934176e+003
      endloop
   endfacet
   facet normal -2.643560e-016 7.274188e-001 6.861938e-001
      outer loop
         vertex 1.051792e+003 5.412034e+002 1.933560e+003
         vertex 1.041792e+003 5.405871e+002 1.934176e+003
         vertex 1.051792e+003 5.405871e+002 1.934176e+003
      endloop
   endfacet
   facet normal -2.593876e-016 8.020839e-001 5.972114e-001
      outer loop
         vertex 1.051792e+003 5.405871e+002 1.934176e+003
         vertex 1.041792e+003 5.405871e+002 1.934176e+003
         vertex 1.041792e+003 5.400872e+002 1.934890e+003
      endloop
   endfacet
   facet normal -2.555705e-016 8.355240e-001 5.494540e-001
      outer loop
         vertex 1.051792e+003 5.405871e+002 1.934176e+003
         vertex 1.041792e+003 5.400872e+002 1.934890e+003
         vertex 1.051792e+003 5.400872e+002 1.934890e+003
      endloop
   endfacet
   facet normal -2.453865e-016 8.936031e-001 4.488580e-001
      outer loop
         vertex 1.051792e+003 5.400872e+002 1.934890e+003
         vertex 1.041792e+003 5.400872e+002 1.934890e+003
         vertex 1.041792e+003 5.397189e+002 1.935680e+003
      endloop
   endfacet
   facet normal -2.390195e-016 9.182422e-001 3.960194e-001
      outer loop
         vertex 1.051792e+003 5.400872e+002 1.934890e+003
         vertex 1.041792e+003 5.397189e+002 1.935680e+003
         vertex 1.051792e+003 5.397189e+002 1.935680e+003
      endloop
   endfacet
   facet normal -2.239294e-016 9.579706e-001 2.868663e-001
      outer loop
         vertex 1.051792e+003 5.397189e+002 1.935680e+003
         vertex 1.041792e+003 5.397189e+002 1.935680e+003
         vertex 1.041792e+003 5.394933e+002 1.936522e+003
      endloop
   endfacet
   facet normal -2.152061e-016 9.730601e-001 2.305518e-001
      outer loop
         vertex 1.051792e+003 5.397189e+002 1.935680e+003
         vertex 1.041792e+003 5.394933e+002 1.936522e+003
         vertex 1.051792e+003 5.394933e+002 1.936522e+003
      endloop
   endfacet
   facet normal -1.956683e-016 9.932307e-001 1.161583e-001
      outer loop
         vertex 1.051792e+003 5.394933e+002 1.936522e+003
         vertex 1.041792e+003 5.394933e+002 1.936522e+003
         vertex 1.041792e+003 5.394173e+002 1.937390e+003
      endloop
   endfacet
   facet normal -1.848537e-016 9.983120e-001 5.807914e-002
      outer loop
         vertex 1.051792e+003 5.394933e+002 1.936522e+003
         vertex 1.041792e+003 5.394173e+002 1.937390e+003
         vertex 1.051792e+003 5.394173e+002 1.937390e+003
      endloop
   endfacet
   facet normal -1.614619e-016 9.983120e-001 -5.807914e-002
      outer loop
         vertex 1.051792e+003 5.394173e+002 1.937390e+003
         vertex 1.041792e+003 5.394173e+002 1.937390e+003
         vertex 1.041792e+003 5.394933e+002 1.938258e+003
      endloop
   endfacet
   facet normal -1.488847e-016 9.932307e-001 -1.161583e-001
      outer loop
         vertex 1.051792e+003 5.394173e+002 1.937390e+003
         vertex 1.041792e+003 5.394933e+002 1.938258e+003
         vertex 1.051792e+003 5.394933e+002 1.938258e+003
      endloop
   endfacet
   facet normal -1.223496e-016 9.730601e-001 -2.305518e-001
      outer loop
         vertex 1.051792e+003 5.394933e+002 1.938258e+003
         vertex 1.041792e+003 5.394933e+002 1.938258e+003
         vertex 1.041792e+003 5.397189e+002 1.939100e+003
      endloop
   endfacet
   facet normal -1.083918e-016 9.579706e-001 -2.868663e-001
      outer loop
         vertex 1.051792e+003 5.394933e+002 1.938258e+003
         vertex 1.041792e+003 5.397189e+002 1.939100e+003
         vertex 1.051792e+003 5.397189e+002 1.939100e+003
      endloop
   endfacet
   facet normal -7.951981e-017 9.182422e-001 -3.960194e-001
      outer loop
         vertex 1.051792e+003 5.397189e+002 1.939100e+003
         vertex 1.041792e+003 5.397189e+002 1.939100e+003
         vertex 1.041792e+003 5.400872e+002 1.939890e+003
      endloop
   endfacet
   facet normal -6.460558e-017 8.936031e-001 -4.488580e-001
      outer loop
         vertex 1.051792e+003 5.397189e+002 1.939100e+003
         vertex 1.041792e+003 5.400872e+002 1.939890e+003
         vertex 1.051792e+003 5.400872e+002 1.939890e+003
      endloop
   endfacet
   facet normal -3.427383e-017 8.355240e-001 -5.494540e-001
      outer loop
         vertex 1.051792e+003 5.400872e+002 1.939890e+003
         vertex 1.041792e+003 5.400872e+002 1.939890e+003
         vertex 1.041792e+003 5.405871e+002 1.940604e+003
      endloop
   endfacet
   facet normal -1.885630e-017 8.020839e-001 -5.972114e-001
      outer loop
         vertex 1.051792e+003 5.400872e+002 1.939890e+003
         vertex 1.041792e+003 5.405871e+002 1.940604e+003
         vertex 1.051792e+003 5.405871e+002 1.940604e+003
      endloop
   endfacet
   facet normal 1.201356e-017 7.274188e-001 -6.861938e-001
      outer loop
         vertex 1.051792e+003 5.405871e+002 1.940604e+003
         vertex 1.041792e+003 5.405871e+002 1.940604e+003
         vertex 1.041792e+003 5.412034e+002 1.941220e+003
      endloop
   endfacet
   facet normal 2.746591e-017 6.861938e-001 -7.274188e-001
      outer loop
         vertex 1.051792e+003 5.405871e+002 1.940604e+003
         vertex 1.041792e+003 5.412034e+002 1.941220e+003
         vertex 1.051792e+003 5.412034e+002 1.941220e+003
      endloop
   endfacet
   facet normal 5.793592e-017 5.972114e-001 -8.020839e-001
      outer loop
         vertex 1.051792e+003 5.412034e+002 1.941220e+003
         vertex 1.041792e+003 5.412034e+002 1.941220e+003
         vertex 1.041792e+003 5.419173e+002 1.941720e+003
      endloop
   endfacet
   facet normal 7.295358e-017 5.494540e-001 -8.355240e-001
      outer loop
         vertex 1.051792e+003 5.412034e+002 1.941220e+003
         vertex 1.041792e+003 5.419173e+002 1.941720e+003
         vertex 1.051792e+003 5.419173e+002 1.941720e+003
      endloop
   endfacet
   facet normal 1.020979e-016 4.488580e-001 -8.936031e-001
      outer loop
         vertex 1.051792e+003 5.419173e+002 1.941720e+003
         vertex 1.041792e+003 5.419173e+002 1.941720e+003
         vertex 1.041792e+003 5.427072e+002 1.942088e+003
      endloop
   endfacet
   facet normal 1.162246e-016 3.960194e-001 -9.182422e-001
      outer loop
         vertex 1.051792e+003 5.419173e+002 1.941720e+003
         vertex 1.041792e+003 5.427072e+002 1.942088e+003
         vertex 1.051792e+003 5.427072e+002 1.942088e+003
      endloop
   endfacet
   facet normal 1.431577e-016 2.868663e-001 -9.579706e-001
      outer loop
         vertex 1.051792e+003 5.427072e+002 1.942088e+003
         vertex 1.041792e+003 5.427072e+002 1.942088e+003
         vertex 1.041792e+003 5.435491e+002 1.942314e+003
      endloop
   endfacet
   facet normal 1.559642e-016 2.305518e-001 -9.730601e-001
      outer loop
         vertex 1.051792e+003 5.427072e+002 1.942088e+003
         vertex 1.041792e+003 5.435491e+002 1.942314e+003
         vertex 1.051792e+003 5.435491e+002 1.942314e+003
      endloop
   endfacet
   facet normal 1.798678e-016 1.161583e-001 -9.932307e-001
      outer loop
         vertex 1.051792e+003 5.435491e+002 1.942314e+003
         vertex 1.041792e+003 5.435491e+002 1.942314e+003
         vertex 1.041792e+003 5.444173e+002 1.942390e+003
      endloop
   endfacet
   facet normal 1.909649e-016 5.807914e-002 -9.983120e-001
      outer loop
         vertex 1.051792e+003 5.435491e+002 1.942314e+003
         vertex 1.041792e+003 5.444173e+002 1.942390e+003
         vertex 1.051792e+003 5.444173e+002 1.942390e+003
      endloop
   endfacet
   facet normal 2.111126e-016 -5.807914e-002 -9.983120e-001
      outer loop
         vertex 1.051792e+003 5.444173e+002 1.942390e+003
         vertex 1.041792e+003 5.444173e+002 1.942390e+003
         vertex 1.041792e+003 5.452856e+002 1.942314e+003
      endloop
   endfacet
   facet normal 2.201632e-016 -1.161583e-001 -9.932307e-001
      outer loop
         vertex 1.051792e+003 5.444173e+002 1.942390e+003
         vertex 1.041792e+003 5.452856e+002 1.942314e+003
         vertex 1.051792e+003 5.452856e+002 1.942314e+003
      endloop
   endfacet
   facet normal 2.359429e-016 -2.305518e-001 -9.730601e-001
      outer loop
         vertex 1.051792e+003 5.452856e+002 1.942314e+003
         vertex 1.041792e+003 5.452856e+002 1.942314e+003
         vertex 1.041792e+003 5.461274e+002 1.942088e+003
      endloop
   endfacet
   facet normal 2.426720e-016 -2.868663e-001 -9.579706e-001
      outer loop
         vertex 1.051792e+003 5.452856e+002 1.942314e+003
         vertex 1.041792e+003 5.461274e+002 1.942088e+003
         vertex 1.051792e+003 5.461274e+002 1.942088e+003
      endloop
   endfacet
   facet normal 2.536042e-016 -3.960194e-001 -9.182422e-001
      outer loop
         vertex 1.051792e+003 5.461274e+002 1.942088e+003
         vertex 1.041792e+003 5.461274e+002 1.942088e+003
         vertex 1.041792e+003 5.469173e+002 1.941720e+003
      endloop
   endfacet
   facet normal 2.578073e-016 -4.488580e-001 -8.936031e-001
      outer loop
         vertex 1.051792e+003 5.461274e+002 1.942088e+003
         vertex 1.041792e+003 5.469173e+002 1.941720e+003
         vertex 1.051792e+003 5.469173e+002 1.941720e+003
      endloop
   endfacet
   facet normal 2.635599e-016 -5.494540e-001 -8.355240e-001
      outer loop
         vertex 1.051792e+003 5.469173e+002 1.941720e+003
         vertex 1.041792e+003 5.469173e+002 1.941720e+003
         vertex 1.041792e+003 5.476313e+002 1.941220e+003
      endloop
   endfacet
   facet normal 2.651093e-016 -5.972114e-001 -8.020839e-001
      outer loop
         vertex 1.051792e+003 5.469173e+002 1.941720e+003
         vertex 1.041792e+003 5.476313e+002 1.941220e+003
         vertex 1.051792e+003 5.476313e+002 1.941220e+003
      endloop
   endfacet
   facet normal 2.655074e-016 -6.861938e-001 -7.274188e-001
      outer loop
         vertex 1.051792e+003 5.476313e+002 1.941220e+003
         vertex 1.041792e+003 5.476313e+002 1.941220e+003
         vertex 1.041792e+003 5.482476e+002 1.940604e+003
      endloop
   endfacet
   facet normal 2.643560e-016 -7.274188e-001 -6.861938e-001
      outer loop
         vertex 1.051792e+003 5.476313e+002 1.941220e+003
         vertex 1.041792e+003 5.482476e+002 1.940604e+003
         vertex 1.051792e+003 5.482476e+002 1.940604e+003
      endloop
   endfacet
   facet normal 2.593876e-016 -8.020839e-001 -5.972114e-001
      outer loop
         vertex 1.051792e+003 5.482476e+002 1.940604e+003
         vertex 1.041792e+003 5.482476e+002 1.940604e+003
         vertex 1.041792e+003 5.487475e+002 1.939890e+003
      endloop
   endfacet
   facet normal 2.555705e-016 -8.355240e-001 -5.494540e-001
      outer loop
         vertex 1.051792e+003 5.482476e+002 1.940604e+003
         vertex 1.041792e+003 5.487475e+002 1.939890e+003
         vertex 1.051792e+003 5.487475e+002 1.939890e+003
      endloop
   endfacet
   facet normal 2.453865e-016 -8.936031e-001 -4.488580e-001
      outer loop
         vertex 1.051792e+003 5.487475e+002 1.939890e+003
         vertex 1.041792e+003 5.487475e+002 1.939890e+003
         vertex 1.041792e+003 5.491158e+002 1.939100e+003
      endloop
   endfacet
   facet normal 2.390195e-016 -9.182422e-001 -3.960194e-001
      outer loop
         vertex 1.051792e+003 5.487475e+002 1.939890e+003
         vertex 1.041792e+003 5.491158e+002 1.939100e+003
         vertex 1.051792e+003 5.491158e+002 1.939100e+003
      endloop
   endfacet
   facet normal 2.239294e-016 -9.579706e-001 -2.868663e-001
      outer loop
         vertex 1.051792e+003 5.491158e+002 1.939100e+003
         vertex 1.041792e+003 5.491158e+002 1.939100e+003
         vertex 1.041792e+003 5.493414e+002 1.938258e+003
      endloop
   endfacet
   facet normal 2.152061e-016 -9.730601e-001 -2.305518e-001
      outer loop
         vertex 1.051792e+003 5.491158e+002 1.939100e+003
         vertex 1.041792e+003 5.493414e+002 1.938258e+003
         vertex 1.051792e+003 5.493414e+002 1.938258e+003
      endloop
   endfacet
   facet normal 1.956683e-016 -9.932307e-001 -1.161583e-001
      outer loop
         vertex 1.051792e+003 5.493414e+002 1.938258e+003
         vertex 1.041792e+003 5.493414e+002 1.938258e+003
         vertex 1.041792e+003 5.494173e+002 1.937390e+003
      endloop
   endfacet
   facet normal 1.974812e-017 7.071068e-001 -7.071068e-001
      outer loop
         vertex 1.041792e+003 5.504173e+002 1.926390e+003
         vertex 1.041792e+003 5.554174e+002 1.931390e+003
         vertex 1.051792e+003 5.504173e+002 1.926390e+003
      endloop
   endfacet
   facet normal 1.974812e-017 7.071068e-001 -7.071068e-001
      outer loop
         vertex 1.051792e+003 5.504173e+002 1.926390e+003
         vertex 1.041792e+003 5.554174e+002 1.931390e+003
         vertex 1.051792e+003 5.554174e+002 1.931390e+003
      endloop
   endfacet
endsolid