solid 09.025.00.00.000 - 09.025.00.08.000-1 09.025.00.08.011-2 09.025.00.08.0AB-2
   facet normal -4.863658e-017 -1.000000e+000 -2.413917e-017
      outer loop
         vertex 1.225792e+003 1.331417e+003 1.931390e+003
         vertex 1.225792e+003 1.331417e+003 1.948390e+003
         vertex 1.215792e+003 1.331417e+003 1.931390e+003
      endloop
   endfacet
   facet normal -4.863658e-017 -1.000000e+000 -2.413917e-017
      outer loop
         vertex 1.215792e+003 1.331417e+003 1.931390e+003
         vertex 1.225792e+003 1.331417e+003 1.948390e+003
         vertex 1.215792e+003 1.331417e+003 1.948390e+003
      endloop
   endfacet
   facet normal 1.202308e-017 -2.584475e-017 1.000000e+000
      outer loop
         vertex 1.215792e+003 1.425417e+003 1.948390e+003
         vertex 1.215792e+003 1.331417e+003 1.948390e+003
         vertex 1.225792e+003 1.425417e+003 1.948390e+003
      endloop
   endfacet
   facet normal 1.202308e-017 -2.584475e-017 1.000000e+000
      outer loop
         vertex 1.225792e+003 1.425417e+003 1.948390e+003
         vertex 1.215792e+003 1.331417e+003 1.948390e+003
         vertex 1.225792e+003 1.331417e+003 1.948390e+003
      endloop
   endfacet
   facet normal 4.863658e-017 1.000000e+000 2.413917e-017
      outer loop
         vertex 1.225792e+003 1.435417e+003 1.938390e+003
         vertex 1.225792e+003 1.435417e+003 1.926390e+003
         vertex 1.215792e+003 1.435417e+003 1.938390e+003
      endloop
   endfacet
   facet normal 4.863658e-017 1.000000e+000 2.413917e-017
      outer loop
         vertex 1.215792e+003 1.435417e+003 1.938390e+003
         vertex 1.225792e+003 1.435417e+003 1.926390e+003
         vertex 1.215792e+003 1.435417e+003 1.926390e+003
      endloop
   endfacet
   facet normal -1.202308e-017 2.584475e-017 -1.000000e+000
      outer loop
         vertex 1.215792e+003 1.336417e+003 1.926390e+003
         vertex 1.215792e+003 1.435417e+003 1.926390e+003
         vertex 1.225792e+003 1.336417e+003 1.926390e+003
      endloop
   endfacet
   facet normal -1.202308e-017 2.584475e-017 -1.000000e+000
      outer loop
         vertex 1.225792e+003 1.336417e+003 1.926390e+003
         vertex 1.215792e+003 1.435417e+003 1.926390e+003
         vertex 1.225792e+003 1.435417e+003 1.926390e+003
      endloop
   endfacet
   facet normal -1.000000e+000 -6.874575e-018 1.138784e-017
      outer loop
         vertex 1.215792e+003 1.341549e+003 1.932466e+003
         vertex 1.215792e+003 1.336417e+003 1.926390e+003
         vertex 1.215792e+003 1.340707e+003 1.932691e+003
      endloop
   endfacet
   facet normal -1.000000e+000 -6.874575e-018 1.138784e-017
      outer loop
         vertex 1.215792e+003 1.340707e+003 1.932691e+003
         vertex 1.215792e+003 1.336417e+003 1.926390e+003
         vertex 1.215792e+003 1.339917e+003 1.933060e+003
      endloop
   endfacet
   facet normal -1.000000e+000 -6.874575e-018 1.138784e-017
      outer loop
         vertex 1.215792e+003 1.347116e+003 1.939100e+003
         vertex 1.215792e+003 1.346748e+003 1.939890e+003
         vertex 1.215792e+003 1.425417e+003 1.948390e+003
      endloop
   endfacet
   facet normal -1.000000e+000 -6.874575e-018 1.138784e-017
      outer loop
         vertex 1.215792e+003 1.425417e+003 1.948390e+003
         vertex 1.215792e+003 1.346748e+003 1.939890e+003
         vertex 1.215792e+003 1.346248e+003 1.940604e+003
      endloop
   endfacet
   facet normal -1.000000e+000 -6.874575e-018 1.138784e-017
      outer loop
         vertex 1.215792e+003 1.425417e+003 1.948390e+003
         vertex 1.215792e+003 1.346248e+003 1.940604e+003
         vertex 1.215792e+003 1.345631e+003 1.941220e+003
      endloop
   endfacet
   facet normal -1.000000e+000 -6.874575e-018 1.138784e-017
      outer loop
         vertex 1.215792e+003 1.331417e+003 1.931390e+003
         vertex 1.215792e+003 1.337493e+003 1.936522e+003
         vertex 1.215792e+003 1.337719e+003 1.935680e+003
      endloop
   endfacet
   facet normal -1.000000e+000 -6.874575e-018 1.138784e-017
      outer loop
         vertex 1.215792e+003 1.342417e+003 1.942390e+003
         vertex 1.215792e+003 1.341549e+003 1.942314e+003
         vertex 1.215792e+003 1.331417e+003 1.948390e+003
      endloop
   endfacet
   facet normal -1.000000e+000 -6.874575e-018 1.138784e-017
      outer loop
         vertex 1.215792e+003 1.331417e+003 1.948390e+003
         vertex 1.215792e+003 1.341549e+003 1.942314e+003
         vertex 1.215792e+003 1.340707e+003 1.942088e+003
      endloop
   endfacet
   facet normal -1.000000e+000 -6.874575e-018 1.138784e-017
      outer loop
         vertex 1.215792e+003 1.331417e+003 1.948390e+003
         vertex 1.215792e+003 1.340707e+003 1.942088e+003
         vertex 1.215792e+003 1.339917e+003 1.941720e+003
      endloop
   endfacet
   facet normal -1.000000e+000 -6.874575e-018 1.138784e-017
      outer loop
         vertex 1.215792e+003 1.339917e+003 1.941720e+003
         vertex 1.215792e+003 1.339203e+003 1.941220e+003
         vertex 1.215792e+003 1.331417e+003 1.948390e+003
      endloop
   endfacet
   facet normal -1.000000e+000 -6.874575e-018 1.138784e-017
      outer loop
         vertex 1.215792e+003 1.331417e+003 1.948390e+003
         vertex 1.215792e+003 1.339203e+003 1.941220e+003
         vertex 1.215792e+003 1.338587e+003 1.940604e+003
      endloop
   endfacet
   facet normal -1.000000e+000 -6.874575e-018 1.138784e-017
      outer loop
         vertex 1.215792e+003 1.331417e+003 1.948390e+003
         vertex 1.215792e+003 1.338587e+003 1.940604e+003
         vertex 1.215792e+003 1.338087e+003 1.939890e+003
      endloop
   endfacet
   facet normal -1.000000e+000 -6.874575e-018 1.138784e-017
      outer loop
         vertex 1.215792e+003 1.341549e+003 1.932466e+003
         vertex 1.215792e+003 1.342417e+003 1.932390e+003
         vertex 1.215792e+003 1.336417e+003 1.926390e+003
      endloop
   endfacet
   facet normal -1.000000e+000 -6.874575e-018 1.138784e-017
      outer loop
         vertex 1.215792e+003 1.336417e+003 1.926390e+003
         vertex 1.215792e+003 1.342417e+003 1.932390e+003
         vertex 1.215792e+003 1.343286e+003 1.932466e+003
      endloop
   endfacet
   facet normal -1.000000e+000 -6.874575e-018 1.138784e-017
      outer loop
         vertex 1.215792e+003 1.336417e+003 1.926390e+003
         vertex 1.215792e+003 1.343286e+003 1.932466e+003
         vertex 1.215792e+003 1.435417e+003 1.926390e+003
      endloop
   endfacet
   facet normal -1.000000e+000 -6.874575e-018 1.138784e-017
      outer loop
         vertex 1.215792e+003 1.435417e+003 1.926390e+003
         vertex 1.215792e+003 1.343286e+003 1.932466e+003
         vertex 1.215792e+003 1.344127e+003 1.932691e+003
      endloop
   endfacet
   facet normal -1.000000e+000 -6.874575e-018 1.138784e-017
      outer loop
         vertex 1.215792e+003 1.435417e+003 1.926390e+003
         vertex 1.215792e+003 1.344127e+003 1.932691e+003
         vertex 1.215792e+003 1.344917e+003 1.933060e+003
      endloop
   endfacet
   facet normal -1.000000e+000 -6.874575e-018 1.138784e-017
      outer loop
         vertex 1.215792e+003 1.344917e+003 1.933060e+003
         vertex 1.215792e+003 1.345631e+003 1.933560e+003
         vertex 1.215792e+003 1.435417e+003 1.926390e+003
      endloop
   endfacet
   facet normal -1.000000e+000 -6.874575e-018 1.138784e-017
      outer loop
         vertex 1.215792e+003 1.435417e+003 1.926390e+003
         vertex 1.215792e+003 1.345631e+003 1.933560e+003
         vertex 1.215792e+003 1.346248e+003 1.934176e+003
      endloop
   endfacet
   facet normal -1.000000e+000 -6.874575e-018 1.138784e-017
      outer loop
         vertex 1.215792e+003 1.435417e+003 1.926390e+003
         vertex 1.215792e+003 1.346248e+003 1.934176e+003
         vertex 1.215792e+003 1.346748e+003 1.934890e+003
      endloop
   endfacet
   facet normal -1.000000e+000 -6.874575e-018 1.138784e-017
      outer loop
         vertex 1.215792e+003 1.345631e+003 1.941220e+003
         vertex 1.215792e+003 1.344917e+003 1.941720e+003
         vertex 1.215792e+003 1.425417e+003 1.948390e+003
      endloop
   endfacet
   facet normal -1.000000e+000 -6.874575e-018 1.138784e-017
      outer loop
         vertex 1.215792e+003 1.425417e+003 1.948390e+003
         vertex 1.215792e+003 1.344917e+003 1.941720e+003
         vertex 1.215792e+003 1.344127e+003 1.942088e+003
      endloop
   endfacet
   facet normal -1.000000e+000 -6.874575e-018 1.138784e-017
      outer loop
         vertex 1.215792e+003 1.425417e+003 1.948390e+003
         vertex 1.215792e+003 1.344127e+003 1.942088e+003
         vertex 1.215792e+003 1.331417e+003 1.948390e+003
      endloop
   endfacet
   facet normal -1.000000e+000 -6.874575e-018 1.138784e-017
      outer loop
         vertex 1.215792e+003 1.331417e+003 1.948390e+003
         vertex 1.215792e+003 1.344127e+003 1.942088e+003
         vertex 1.215792e+003 1.343286e+003 1.942314e+003
      endloop
   endfacet
   facet normal -1.000000e+000 -6.874575e-018 1.138784e-017
      outer loop
         vertex 1.215792e+003 1.331417e+003 1.948390e+003
         vertex 1.215792e+003 1.343286e+003 1.942314e+003
         vertex 1.215792e+003 1.342417e+003 1.942390e+003
      endloop
   endfacet
   facet normal -1.000000e+000 -6.874575e-018 1.138784e-017
      outer loop
         vertex 1.215792e+003 1.337719e+003 1.935680e+003
         vertex 1.215792e+003 1.338087e+003 1.934890e+003
         vertex 1.215792e+003 1.331417e+003 1.931390e+003
      endloop
   endfacet
   facet normal -1.000000e+000 -6.874575e-018 1.138784e-017
      outer loop
         vertex 1.215792e+003 1.331417e+003 1.931390e+003
         vertex 1.215792e+003 1.338087e+003 1.934890e+003
         vertex 1.215792e+003 1.338587e+003 1.934176e+003
      endloop
   endfacet
   facet normal -1.000000e+000 -6.874575e-018 1.138784e-017
      outer loop
         vertex 1.215792e+003 1.331417e+003 1.931390e+003
         vertex 1.215792e+003 1.338587e+003 1.934176e+003
         vertex 1.215792e+003 1.336417e+003 1.926390e+003
      endloop
   endfacet
   facet normal -1.000000e+000 -6.874575e-018 1.138784e-017
      outer loop
         vertex 1.215792e+003 1.336417e+003 1.926390e+003
         vertex 1.215792e+003 1.338587e+003 1.934176e+003
         vertex 1.215792e+003 1.339203e+003 1.933560e+003
      endloop
   endfacet
   facet normal -1.000000e+000 -6.874575e-018 1.138784e-017
      outer loop
         vertex 1.215792e+003 1.336417e+003 1.926390e+003
         vertex 1.215792e+003 1.339203e+003 1.933560e+003
         vertex 1.215792e+003 1.339917e+003 1.933060e+003
      endloop
   endfacet
   facet normal -1.000000e+000 -6.874575e-018 1.138784e-017
      outer loop
         vertex 1.215792e+003 1.346748e+003 1.934890e+003
         vertex 1.215792e+003 1.347116e+003 1.935680e+003
         vertex 1.215792e+003 1.435417e+003 1.926390e+003
      endloop
   endfacet
   facet normal -1.000000e+000 -6.874575e-018 1.138784e-017
      outer loop
         vertex 1.215792e+003 1.435417e+003 1.926390e+003
         vertex 1.215792e+003 1.347116e+003 1.935680e+003
         vertex 1.215792e+003 1.347341e+003 1.936522e+003
      endloop
   endfacet
   facet normal -1.000000e+000 -6.874575e-018 1.138784e-017
      outer loop
         vertex 1.215792e+003 1.435417e+003 1.926390e+003
         vertex 1.215792e+003 1.347341e+003 1.936522e+003
         vertex 1.215792e+003 1.435417e+003 1.938390e+003
      endloop
   endfacet
   facet normal -1.000000e+000 -6.874575e-018 1.138784e-017
      outer loop
         vertex 1.215792e+003 1.435417e+003 1.938390e+003
         vertex 1.215792e+003 1.347341e+003 1.936522e+003
         vertex 1.215792e+003 1.347417e+003 1.937390e+003
      endloop
   endfacet
   facet normal -1.000000e+000 -6.874575e-018 1.138784e-017
      outer loop
         vertex 1.215792e+003 1.435417e+003 1.938390e+003
         vertex 1.215792e+003 1.347417e+003 1.937390e+003
         vertex 1.215792e+003 1.425417e+003 1.948390e+003
      endloop
   endfacet
   facet normal -1.000000e+000 -6.874575e-018 1.138784e-017
      outer loop
         vertex 1.215792e+003 1.425417e+003 1.948390e+003
         vertex 1.215792e+003 1.347417e+003 1.937390e+003
         vertex 1.215792e+003 1.347341e+003 1.938258e+003
      endloop
   endfacet
   facet normal -1.000000e+000 -6.874575e-018 1.138784e-017
      outer loop
         vertex 1.215792e+003 1.425417e+003 1.948390e+003
         vertex 1.215792e+003 1.347341e+003 1.938258e+003
         vertex 1.215792e+003 1.347116e+003 1.939100e+003
      endloop
   endfacet
   facet normal -1.000000e+000 -6.874575e-018 1.138784e-017
      outer loop
         vertex 1.215792e+003 1.338087e+003 1.939890e+003
         vertex 1.215792e+003 1.337719e+003 1.939100e+003
         vertex 1.215792e+003 1.331417e+003 1.948390e+003
      endloop
   endfacet
   facet normal -1.000000e+000 -6.874575e-018 1.138784e-017
      outer loop
         vertex 1.215792e+003 1.331417e+003 1.948390e+003
         vertex 1.215792e+003 1.337719e+003 1.939100e+003
         vertex 1.215792e+003 1.337493e+003 1.938258e+003
      endloop
   endfacet
   facet normal -1.000000e+000 -6.874575e-018 1.138784e-017
      outer loop
         vertex 1.215792e+003 1.331417e+003 1.948390e+003
         vertex 1.215792e+003 1.337493e+003 1.938258e+003
         vertex 1.215792e+003 1.331417e+003 1.931390e+003
      endloop
   endfacet
   facet normal -1.000000e+000 -6.874575e-018 1.138784e-017
      outer loop
         vertex 1.215792e+003 1.331417e+003 1.931390e+003
         vertex 1.215792e+003 1.337493e+003 1.938258e+003
         vertex 1.215792e+003 1.337417e+003 1.937390e+003
      endloop
   endfacet
   facet normal -1.000000e+000 -6.874575e-018 1.138784e-017
      outer loop
         vertex 1.215792e+003 1.331417e+003 1.931390e+003
         vertex 1.215792e+003 1.337417e+003 1.937390e+003
         vertex 1.215792e+003 1.337493e+003 1.936522e+003
      endloop
   endfacet
   facet normal 1.000000e+000 6.874575e-018 -1.138784e-017
      outer loop
         vertex 1.225792e+003 1.331417e+003 1.948390e+003
         vertex 1.225792e+003 1.331417e+003 1.931390e+003
         vertex 1.225792e+003 1.337417e+003 1.937390e+003
      endloop
   endfacet
   facet normal 1.000000e+000 6.874575e-018 -1.138784e-017
      outer loop
         vertex 1.225792e+003 1.338087e+003 1.934890e+003
         vertex 1.225792e+003 1.337719e+003 1.935680e+003
         vertex 1.225792e+003 1.331417e+003 1.931390e+003
      endloop
   endfacet
   facet normal 1.000000e+000 6.874575e-018 -1.138784e-017
      outer loop
         vertex 1.225792e+003 1.331417e+003 1.931390e+003
         vertex 1.225792e+003 1.337719e+003 1.935680e+003
         vertex 1.225792e+003 1.337493e+003 1.936522e+003
      endloop
   endfacet
   facet normal 1.000000e+000 6.874575e-018 -1.138784e-017
      outer loop
         vertex 1.225792e+003 1.331417e+003 1.931390e+003
         vertex 1.225792e+003 1.337493e+003 1.936522e+003
         vertex 1.225792e+003 1.337417e+003 1.937390e+003
      endloop
   endfacet
   facet normal 1.000000e+000 6.874575e-018 -1.138784e-017
      outer loop
         vertex 1.225792e+003 1.344917e+003 1.941720e+003
         vertex 1.225792e+003 1.345631e+003 1.941220e+003
         vertex 1.225792e+003 1.425417e+003 1.948390e+003
      endloop
   endfacet
   facet normal 1.000000e+000 6.874575e-018 -1.138784e-017
      outer loop
         vertex 1.225792e+003 1.425417e+003 1.948390e+003
         vertex 1.225792e+003 1.345631e+003 1.941220e+003
         vertex 1.225792e+003 1.346248e+003 1.940604e+003
      endloop
   endfacet
   facet normal 1.000000e+000 6.874575e-018 -1.138784e-017
      outer loop
         vertex 1.225792e+003 1.425417e+003 1.948390e+003
         vertex 1.225792e+003 1.346248e+003 1.940604e+003
         vertex 1.225792e+003 1.346748e+003 1.939890e+003
      endloop
   endfacet
   facet normal 1.000000e+000 6.874575e-018 -1.138784e-017
      outer loop
         vertex 1.225792e+003 1.337417e+003 1.937390e+003
         vertex 1.225792e+003 1.337493e+003 1.938258e+003
         vertex 1.225792e+003 1.331417e+003 1.948390e+003
      endloop
   endfacet
   facet normal 1.000000e+000 6.874575e-018 -1.138784e-017
      outer loop
         vertex 1.225792e+003 1.331417e+003 1.948390e+003
         vertex 1.225792e+003 1.337493e+003 1.938258e+003
         vertex 1.225792e+003 1.337719e+003 1.939100e+003
      endloop
   endfacet
   facet normal 1.000000e+000 6.874575e-018 -1.138784e-017
      outer loop
         vertex 1.225792e+003 1.331417e+003 1.948390e+003
         vertex 1.225792e+003 1.337719e+003 1.939100e+003
         vertex 1.225792e+003 1.338087e+003 1.939890e+003
      endloop
   endfacet
   facet normal 1.000000e+000 6.874575e-018 -1.138784e-017
      outer loop
         vertex 1.225792e+003 1.339917e+003 1.941720e+003
         vertex 1.225792e+003 1.340707e+003 1.942088e+003
         vertex 1.225792e+003 1.331417e+003 1.948390e+003
      endloop
   endfacet
   facet normal 1.000000e+000 6.874575e-018 -1.138784e-017
      outer loop
         vertex 1.225792e+003 1.331417e+003 1.948390e+003
         vertex 1.225792e+003 1.340707e+003 1.942088e+003
         vertex 1.225792e+003 1.341549e+003 1.942314e+003
      endloop
   endfacet
   facet normal 1.000000e+000 6.874575e-018 -1.138784e-017
      outer loop
         vertex 1.225792e+003 1.338087e+003 1.939890e+003
         vertex 1.225792e+003 1.338587e+003 1.940604e+003
         vertex 1.225792e+003 1.331417e+003 1.948390e+003
      endloop
   endfacet
   facet normal 1.000000e+000 6.874575e-018 -1.138784e-017
      outer loop
         vertex 1.225792e+003 1.331417e+003 1.948390e+003
         vertex 1.225792e+003 1.338587e+003 1.940604e+003
         vertex 1.225792e+003 1.339203e+003 1.941220e+003
      endloop
   endfacet
   facet normal 1.000000e+000 6.874575e-018 -1.138784e-017
      outer loop
         vertex 1.225792e+003 1.331417e+003 1.948390e+003
         vertex 1.225792e+003 1.339203e+003 1.941220e+003
         vertex 1.225792e+003 1.339917e+003 1.941720e+003
      endloop
   endfacet
   facet normal 1.000000e+000 6.874575e-018 -1.138784e-017
      outer loop
         vertex 1.225792e+003 1.341549e+003 1.942314e+003
         vertex 1.225792e+003 1.342417e+003 1.942390e+003
         vertex 1.225792e+003 1.331417e+003 1.948390e+003
      endloop
   endfacet
   facet normal 1.000000e+000 6.874575e-018 -1.138784e-017
      outer loop
         vertex 1.225792e+003 1.331417e+003 1.948390e+003
         vertex 1.225792e+003 1.342417e+003 1.942390e+003
         vertex 1.225792e+003 1.343286e+003 1.942314e+003
      endloop
   endfacet
   facet normal 1.000000e+000 6.874575e-018 -1.138784e-017
      outer loop
         vertex 1.225792e+003 1.331417e+003 1.948390e+003
         vertex 1.225792e+003 1.343286e+003 1.942314e+003
         vertex 1.225792e+003 1.425417e+003 1.948390e+003
      endloop
   endfacet
   facet normal 1.000000e+000 6.874575e-018 -1.138784e-017
      outer loop
         vertex 1.225792e+003 1.425417e+003 1.948390e+003
         vertex 1.225792e+003 1.343286e+003 1.942314e+003
         vertex 1.225792e+003 1.344127e+003 1.942088e+003
      endloop
   endfacet
   facet normal 1.000000e+000 6.874575e-018 -1.138784e-017
      outer loop
         vertex 1.225792e+003 1.425417e+003 1.948390e+003
         vertex 1.225792e+003 1.344127e+003 1.942088e+003
         vertex 1.225792e+003 1.344917e+003 1.941720e+003
      endloop
   endfacet
   facet normal 1.000000e+000 6.874575e-018 -1.138784e-017
      outer loop
         vertex 1.225792e+003 1.347116e+003 1.935680e+003
         vertex 1.225792e+003 1.346748e+003 1.934890e+003
         vertex 1.225792e+003 1.435417e+003 1.926390e+003
      endloop
   endfacet
   facet normal 1.000000e+000 6.874575e-018 -1.138784e-017
      outer loop
         vertex 1.225792e+003 1.435417e+003 1.926390e+003
         vertex 1.225792e+003 1.346748e+003 1.934890e+003
         vertex 1.225792e+003 1.346248e+003 1.934176e+003
      endloop
   endfacet
   facet normal 1.000000e+000 6.874575e-018 -1.138784e-017
      outer loop
         vertex 1.225792e+003 1.346748e+003 1.939890e+003
         vertex 1.225792e+003 1.347116e+003 1.939100e+003
         vertex 1.225792e+003 1.425417e+003 1.948390e+003
      endloop
   endfacet
   facet normal 1.000000e+000 6.874575e-018 -1.138784e-017
      outer loop
         vertex 1.225792e+003 1.425417e+003 1.948390e+003
         vertex 1.225792e+003 1.347116e+003 1.939100e+003
         vertex 1.225792e+003 1.347341e+003 1.938258e+003
      endloop
   endfacet
   facet normal 1.000000e+000 6.874575e-018 -1.138784e-017
      outer loop
         vertex 1.225792e+003 1.425417e+003 1.948390e+003
         vertex 1.225792e+003 1.347341e+003 1.938258e+003
         vertex 1.225792e+003 1.435417e+003 1.938390e+003
      endloop
   endfacet
   facet normal 1.000000e+000 6.874575e-018 -1.138784e-017
      outer loop
         vertex 1.225792e+003 1.435417e+003 1.938390e+003
         vertex 1.225792e+003 1.347341e+003 1.938258e+003
         vertex 1.225792e+003 1.347417e+003 1.937390e+003
      endloop
   endfacet
   facet normal 1.000000e+000 6.874575e-018 -1.138784e-017
      outer loop
         vertex 1.225792e+003 1.435417e+003 1.938390e+003
         vertex 1.225792e+003 1.347417e+003 1.937390e+003
         vertex 1.225792e+003 1.435417e+003 1.926390e+003
      endloop
   endfacet
   facet normal 1.000000e+000 6.874575e-018 -1.138784e-017
      outer loop
         vertex 1.225792e+003 1.435417e+003 1.926390e+003
         vertex 1.225792e+003 1.347417e+003 1.937390e+003
         vertex 1.225792e+003 1.347341e+003 1.936522e+003
      endloop
   endfacet
   facet normal 1.000000e+000 6.874575e-018 -1.138784e-017
      outer loop
         vertex 1.225792e+003 1.435417e+003 1.926390e+003
         vertex 1.225792e+003 1.347341e+003 1.936522e+003
         vertex 1.225792e+003 1.347116e+003 1.935680e+003
      endloop
   endfacet
   facet normal 1.000000e+000 6.874575e-018 -1.138784e-017
      outer loop
         vertex 1.225792e+003 1.343286e+003 1.932466e+003
         vertex 1.225792e+003 1.342417e+003 1.932390e+003
         vertex 1.225792e+003 1.336417e+003 1.926390e+003
      endloop
   endfacet
   facet normal 1.000000e+000 6.874575e-018 -1.138784e-017
      outer loop
         vertex 1.225792e+003 1.336417e+003 1.926390e+003
         vertex 1.225792e+003 1.342417e+003 1.932390e+003
         vertex 1.225792e+003 1.341549e+003 1.932466e+003
      endloop
   endfacet
   facet normal 1.000000e+000 6.874575e-018 -1.138784e-017
      outer loop
         vertex 1.225792e+003 1.336417e+003 1.926390e+003
         vertex 1.225792e+003 1.341549e+003 1.932466e+003
         vertex 1.225792e+003 1.340707e+003 1.932691e+003
      endloop
   endfacet
   facet normal 1.000000e+000 6.874575e-018 -1.138784e-017
      outer loop
         vertex 1.225792e+003 1.346248e+003 1.934176e+003
         vertex 1.225792e+003 1.345631e+003 1.933560e+003
         vertex 1.225792e+003 1.435417e+003 1.926390e+003
      endloop
   endfacet
   facet normal 1.000000e+000 6.874575e-018 -1.138784e-017
      outer loop
         vertex 1.225792e+003 1.435417e+003 1.926390e+003
         vertex 1.225792e+003 1.345631e+003 1.933560e+003
         vertex 1.225792e+003 1.344917e+003 1.933060e+003
      endloop
   endfacet
   facet normal 1.000000e+000 6.874575e-018 -1.138784e-017
      outer loop
         vertex 1.225792e+003 1.435417e+003 1.926390e+003
         vertex 1.225792e+003 1.344917e+003 1.933060e+003
         vertex 1.225792e+003 1.336417e+003 1.926390e+003
      endloop
   endfacet
   facet normal 1.000000e+000 6.874575e-018 -1.138784e-017
      outer loop
         vertex 1.225792e+003 1.336417e+003 1.926390e+003
         vertex 1.225792e+003 1.344917e+003 1.933060e+003
         vertex 1.225792e+003 1.344127e+003 1.932691e+003
      endloop
   endfacet
   facet normal 1.000000e+000 6.874575e-018 -1.138784e-017
      outer loop
         vertex 1.225792e+003 1.336417e+003 1.926390e+003
         vertex 1.225792e+003 1.344127e+003 1.932691e+003
         vertex 1.225792e+003 1.343286e+003 1.932466e+003
      endloop
   endfacet
   facet normal 1.000000e+000 6.874575e-018 -1.138784e-017
      outer loop
         vertex 1.225792e+003 1.340707e+003 1.932691e+003
         vertex 1.225792e+003 1.339917e+003 1.933060e+003
         vertex 1.225792e+003 1.336417e+003 1.926390e+003
      endloop
   endfacet
   facet normal 1.000000e+000 6.874575e-018 -1.138784e-017
      outer loop
         vertex 1.225792e+003 1.336417e+003 1.926390e+003
         vertex 1.225792e+003 1.339917e+003 1.933060e+003
         vertex 1.225792e+003 1.339203e+003 1.933560e+003
      endloop
   endfacet
   facet normal 1.000000e+000 6.874575e-018 -1.138784e-017
      outer loop
         vertex 1.225792e+003 1.336417e+003 1.926390e+003
         vertex 1.225792e+003 1.339203e+003 1.933560e+003
         vertex 1.225792e+003 1.331417e+003 1.931390e+003
      endloop
   endfacet
   facet normal 1.000000e+000 6.874575e-018 -1.138784e-017
      outer loop
         vertex 1.225792e+003 1.331417e+003 1.931390e+003
         vertex 1.225792e+003 1.339203e+003 1.933560e+003
         vertex 1.225792e+003 1.338587e+003 1.934176e+003
      endloop
   endfacet
   facet normal 1.000000e+000 6.874575e-018 -1.138784e-017
      outer loop
         vertex 1.225792e+003 1.331417e+003 1.931390e+003
         vertex 1.225792e+003 1.338587e+003 1.934176e+003
         vertex 1.225792e+003 1.338087e+003 1.934890e+003
      endloop
   endfacet
   facet normal 4.289286e-017 7.071068e-001 7.071068e-001
      outer loop
         vertex 1.225792e+003 1.425417e+003 1.948390e+003
         vertex 1.225792e+003 1.435417e+003 1.938390e+003
         vertex 1.215792e+003 1.425417e+003 1.948390e+003
      endloop
   endfacet
   facet normal 4.289286e-017 7.071068e-001 7.071068e-001
      outer loop
         vertex 1.215792e+003 1.425417e+003 1.948390e+003
         vertex 1.225792e+003 1.435417e+003 1.938390e+003
         vertex 1.215792e+003 1.435417e+003 1.938390e+003
      endloop
   endfacet
   facet normal 4.785619e-017 9.983120e-001 -5.807914e-002
      outer loop
         vertex 1.215792e+003 1.337493e+003 1.938258e+003
         vertex 1.225792e+003 1.337417e+003 1.937390e+003
         vertex 1.215792e+003 1.337417e+003 1.937390e+003
      endloop
   endfacet
   facet normal 4.925277e-017 9.983120e-001 5.807914e-002
      outer loop
         vertex 1.215792e+003 1.337417e+003 1.937390e+003
         vertex 1.225792e+003 1.337417e+003 1.937390e+003
         vertex 1.225792e+003 1.337493e+003 1.936522e+003
      endloop
   endfacet
   facet normal 4.970392e-017 9.932307e-001 1.161583e-001
      outer loop
         vertex 1.215792e+003 1.337417e+003 1.937390e+003
         vertex 1.225792e+003 1.337493e+003 1.936522e+003
         vertex 1.215792e+003 1.337493e+003 1.936522e+003
      endloop
   endfacet
   facet normal 5.009825e-017 9.730601e-001 2.305518e-001
      outer loop
         vertex 1.215792e+003 1.337493e+003 1.936522e+003
         vertex 1.225792e+003 1.337493e+003 1.936522e+003
         vertex 1.225792e+003 1.337719e+003 1.935680e+003
      endloop
   endfacet
   facet normal 5.004143e-017 9.579706e-001 2.868663e-001
      outer loop
         vertex 1.215792e+003 1.337493e+003 1.936522e+003
         vertex 1.225792e+003 1.337719e+003 1.935680e+003
         vertex 1.215792e+003 1.337719e+003 1.935680e+003
      endloop
   endfacet
   facet normal 4.942153e-017 9.182422e-001 3.960194e-001
      outer loop
         vertex 1.215792e+003 1.337719e+003 1.935680e+003
         vertex 1.225792e+003 1.337719e+003 1.935680e+003
         vertex 1.225792e+003 1.338087e+003 1.934890e+003
      endloop
   endfacet
   facet normal 4.885845e-017 8.936031e-001 4.488580e-001
      outer loop
         vertex 1.215792e+003 1.337719e+003 1.935680e+003
         vertex 1.225792e+003 1.338087e+003 1.934890e+003
         vertex 1.215792e+003 1.338087e+003 1.934890e+003
      endloop
   endfacet
   facet normal 4.724316e-017 8.355240e-001 5.494540e-001
      outer loop
         vertex 1.215792e+003 1.338087e+003 1.934890e+003
         vertex 1.225792e+003 1.338087e+003 1.934890e+003
         vertex 1.225792e+003 1.338587e+003 1.934176e+003
      endloop
   endfacet
   facet normal 4.619094e-017 8.020839e-001 5.972114e-001
      outer loop
         vertex 1.215792e+003 1.338087e+003 1.934890e+003
         vertex 1.225792e+003 1.338587e+003 1.934176e+003
         vertex 1.215792e+003 1.338587e+003 1.934176e+003
      endloop
   endfacet
   facet normal 4.362933e-017 7.274188e-001 6.861938e-001
      outer loop
         vertex 1.215792e+003 1.338587e+003 1.934176e+003
         vertex 1.225792e+003 1.338587e+003 1.934176e+003
         vertex 1.225792e+003 1.339203e+003 1.933560e+003
      endloop
   endfacet
   facet normal 4.211993e-017 6.861938e-001 7.274188e-001
      outer loop
         vertex 1.215792e+003 1.338587e+003 1.934176e+003
         vertex 1.225792e+003 1.339203e+003 1.933560e+003
         vertex 1.215792e+003 1.339203e+003 1.933560e+003
      endloop
   endfacet
   facet normal 3.868984e-017 5.972114e-001 8.020839e-001
      outer loop
         vertex 1.215792e+003 1.339203e+003 1.933560e+003
         vertex 1.225792e+003 1.339203e+003 1.933560e+003
         vertex 1.225792e+003 1.339917e+003 1.933060e+003
      endloop
   endfacet
   facet normal 3.676914e-017 5.494540e-001 8.355240e-001
      outer loop
         vertex 1.215792e+003 1.339203e+003 1.933560e+003
         vertex 1.225792e+003 1.339917e+003 1.933060e+003
         vertex 1.215792e+003 1.339917e+003 1.933060e+003
      endloop
   endfacet
   facet normal 3.257478e-017 4.488580e-001 8.936031e-001
      outer loop
         vertex 1.215792e+003 1.339917e+003 1.933060e+003
         vertex 1.225792e+003 1.339917e+003 1.933060e+003
         vertex 1.225792e+003 1.340707e+003 1.932691e+003
      endloop
   endfacet
   facet normal 3.030113e-017 3.960194e-001 9.182422e-001
      outer loop
         vertex 1.215792e+003 1.339917e+003 1.933060e+003
         vertex 1.225792e+003 1.340707e+003 1.932691e+003
         vertex 1.215792e+003 1.340707e+003 1.932691e+003
      endloop
   endfacet
   facet normal 2.546996e-017 2.868663e-001 9.579706e-001
      outer loop
         vertex 1.215792e+003 1.340707e+003 1.932691e+003
         vertex 1.225792e+003 1.340707e+003 1.932691e+003
         vertex 1.225792e+003 1.341549e+003 1.932466e+003
      endloop
   endfacet
   facet normal 2.291243e-017 2.305518e-001 9.730601e-001
      outer loop
         vertex 1.215792e+003 1.340707e+003 1.932691e+003
         vertex 1.225792e+003 1.341549e+003 1.932466e+003
         vertex 1.215792e+003 1.341549e+003 1.932466e+003
      endloop
   endfacet
   facet normal 1.759124e-017 1.161583e-001 9.932307e-001
      outer loop
         vertex 1.215792e+003 1.341549e+003 1.932466e+003
         vertex 1.225792e+003 1.341549e+003 1.932466e+003
         vertex 1.225792e+003 1.342417e+003 1.932390e+003
      endloop
   endfacet
   facet normal 1.482756e-017 5.807914e-002 9.983120e-001
      outer loop
         vertex 1.215792e+003 1.341549e+003 1.932466e+003
         vertex 1.225792e+003 1.342417e+003 1.932390e+003
         vertex 1.215792e+003 1.342417e+003 1.932390e+003
      endloop
   endfacet
   facet normal 9.178019e-018 -5.807914e-002 9.983120e-001
      outer loop
         vertex 1.215792e+003 1.342417e+003 1.932390e+003
         vertex 1.225792e+003 1.342417e+003 1.932390e+003
         vertex 1.225792e+003 1.343286e+003 1.932466e+003
      endloop
   endfacet
   facet normal 6.292156e-018 -1.161583e-001 9.932307e-001
      outer loop
         vertex 1.215792e+003 1.342417e+003 1.932390e+003
         vertex 1.225792e+003 1.343286e+003 1.932466e+003
         vertex 1.215792e+003 1.343286e+003 1.932466e+003
      endloop
   endfacet
   facet normal 4.859315e-019 -2.305518e-001 9.730601e-001
      outer loop
         vertex 1.215792e+003 1.343286e+003 1.932466e+003
         vertex 1.225792e+003 1.343286e+003 1.932466e+003
         vertex 1.225792e+003 1.344127e+003 1.932691e+003
      endloop
   endfacet
   facet normal -2.434432e-018 -2.868663e-001 9.579706e-001
      outer loop
         vertex 1.215792e+003 1.343286e+003 1.932466e+003
         vertex 1.225792e+003 1.344127e+003 1.932691e+003
         vertex 1.215792e+003 1.344127e+003 1.932691e+003
      endloop
   endfacet
   facet normal -8.220923e-018 -3.960194e-001 9.182422e-001
      outer loop
         vertex 1.215792e+003 1.344127e+003 1.932691e+003
         vertex 1.225792e+003 1.344127e+003 1.932691e+003
         vertex 1.225792e+003 1.344917e+003 1.933060e+003
      endloop
   endfacet
   facet normal -1.108705e-017 -4.488580e-001 8.936031e-001
      outer loop
         vertex 1.215792e+003 1.344127e+003 1.932691e+003
         vertex 1.225792e+003 1.344917e+003 1.933060e+003
         vertex 1.215792e+003 1.344917e+003 1.933060e+003
      endloop
   endfacet
   facet normal -1.667798e-017 -5.494540e-001 8.355240e-001
      outer loop
         vertex 1.215792e+003 1.344917e+003 1.933060e+003
         vertex 1.225792e+003 1.344917e+003 1.933060e+003
         vertex 1.225792e+003 1.345631e+003 1.933560e+003
      endloop
   endfacet
   facet normal -1.940280e-017 -5.972114e-001 8.020839e-001
      outer loop
         vertex 1.215792e+003 1.344917e+003 1.933060e+003
         vertex 1.225792e+003 1.345631e+003 1.933560e+003
         vertex 1.215792e+003 1.345631e+003 1.933560e+003
      endloop
   endfacet
   facet normal -2.462830e-017 -6.861938e-001 7.274188e-001
      outer loop
         vertex 1.215792e+003 1.345631e+003 1.933560e+003
         vertex 1.225792e+003 1.345631e+003 1.933560e+003
         vertex 1.225792e+003 1.346248e+003 1.934176e+003
      endloop
   endfacet
   facet normal -2.712899e-017 -7.274188e-001 6.861938e-001
      outer loop
         vertex 1.215792e+003 1.345631e+003 1.933560e+003
         vertex 1.225792e+003 1.346248e+003 1.934176e+003
         vertex 1.215792e+003 1.346248e+003 1.934176e+003
      endloop
   endfacet
   facet normal -3.183029e-017 -8.020839e-001 5.972114e-001
      outer loop
         vertex 1.215792e+003 1.346248e+003 1.934176e+003
         vertex 1.225792e+003 1.346248e+003 1.934176e+003
         vertex 1.225792e+003 1.346748e+003 1.934890e+003
      endloop
   endfacet
   facet normal -3.403090e-017 -8.355240e-001 5.494540e-001
      outer loop
         vertex 1.215792e+003 1.346248e+003 1.934176e+003
         vertex 1.225792e+003 1.346748e+003 1.934890e+003
         vertex 1.215792e+003 1.346748e+003 1.934890e+003
      endloop
   endfacet
   facet normal -3.806514e-017 -8.936031e-001 4.488580e-001
      outer loop
         vertex 1.215792e+003 1.346748e+003 1.934890e+003
         vertex 1.225792e+003 1.346748e+003 1.934890e+003
         vertex 1.225792e+003 1.347116e+003 1.935680e+003
      endloop
   endfacet
   facet normal -3.989878e-017 -9.182422e-001 3.960194e-001
      outer loop
         vertex 1.215792e+003 1.346748e+003 1.934890e+003
         vertex 1.225792e+003 1.347116e+003 1.935680e+003
         vertex 1.215792e+003 1.347116e+003 1.935680e+003
      endloop
   endfacet
   facet normal -4.314339e-017 -9.579706e-001 2.868663e-001
      outer loop
         vertex 1.215792e+003 1.347116e+003 1.935680e+003
         vertex 1.225792e+003 1.347116e+003 1.935680e+003
         vertex 1.225792e+003 1.347341e+003 1.936522e+003
      endloop
   endfacet
   facet normal -4.455437e-017 -9.730601e-001 2.305518e-001
      outer loop
         vertex 1.215792e+003 1.347116e+003 1.935680e+003
         vertex 1.225792e+003 1.347341e+003 1.936522e+003
         vertex 1.215792e+003 1.347341e+003 1.936522e+003
      endloop
   endfacet
   facet normal -4.691076e-017 -9.932307e-001 1.161583e-001
      outer loop
         vertex 1.215792e+003 1.347341e+003 1.936522e+003
         vertex 1.225792e+003 1.347341e+003 1.936522e+003
         vertex 1.225792e+003 1.347417e+003 1.937390e+003
      endloop
   endfacet
   facet normal -4.785619e-017 -9.983120e-001 5.807914e-002
      outer loop
         vertex 1.215792e+003 1.347341e+003 1.936522e+003
         vertex 1.225792e+003 1.347417e+003 1.937390e+003
         vertex 1.215792e+003 1.347417e+003 1.937390e+003
      endloop
   endfacet
   facet normal -4.925277e-017 -9.983120e-001 -5.807914e-002
      outer loop
         vertex 1.215792e+003 1.347417e+003 1.937390e+003
         vertex 1.225792e+003 1.347417e+003 1.937390e+003
         vertex 1.225792e+003 1.347341e+003 1.938258e+003
      endloop
   endfacet
   facet normal -4.970392e-017 -9.932307e-001 -1.161583e-001
      outer loop
         vertex 1.215792e+003 1.347417e+003 1.937390e+003
         vertex 1.225792e+003 1.347341e+003 1.938258e+003
         vertex 1.215792e+003 1.347341e+003 1.938258e+003
      endloop
   endfacet
   facet normal -5.009825e-017 -9.730601e-001 -2.305518e-001
      outer loop
         vertex 1.215792e+003 1.347341e+003 1.938258e+003
         vertex 1.225792e+003 1.347341e+003 1.938258e+003
         vertex 1.225792e+003 1.347116e+003 1.939100e+003
      endloop
   endfacet
   facet normal -5.004143e-017 -9.579706e-001 -2.868663e-001
      outer loop
         vertex 1.215792e+003 1.347341e+003 1.938258e+003
         vertex 1.225792e+003 1.347116e+003 1.939100e+003
         vertex 1.215792e+003 1.347116e+003 1.939100e+003
      endloop
   endfacet
   facet normal -4.942153e-017 -9.182422e-001 -3.960194e-001
      outer loop
         vertex 1.215792e+003 1.347116e+003 1.939100e+003
         vertex 1.225792e+003 1.347116e+003 1.939100e+003
         vertex 1.225792e+003 1.346748e+003 1.939890e+003
      endloop
   endfacet
   facet normal -4.885845e-017 -8.936031e-001 -4.488580e-001
      outer loop
         vertex 1.215792e+003 1.347116e+003 1.939100e+003
         vertex 1.225792e+003 1.346748e+003 1.939890e+003
         vertex 1.215792e+003 1.346748e+003 1.939890e+003
      endloop
   endfacet
   facet normal -4.724316e-017 -8.355240e-001 -5.494540e-001
      outer loop
         vertex 1.215792e+003 1.346748e+003 1.939890e+003
         vertex 1.225792e+003 1.346748e+003 1.939890e+003
         vertex 1.225792e+003 1.346248e+003 1.940604e+003
      endloop
   endfacet
   facet normal -4.619094e-017 -8.020839e-001 -5.972114e-001
      outer loop
         vertex 1.215792e+003 1.346748e+003 1.939890e+003
         vertex 1.225792e+003 1.346248e+003 1.940604e+003
         vertex 1.215792e+003 1.346248e+003 1.940604e+003
      endloop
   endfacet
   facet normal -4.362933e-017 -7.274188e-001 -6.861938e-001
      outer loop
         vertex 1.215792e+003 1.346248e+003 1.940604e+003
         vertex 1.225792e+003 1.346248e+003 1.940604e+003
         vertex 1.225792e+003 1.345631e+003 1.941220e+003
      endloop
   endfacet
   facet normal -4.211993e-017 -6.861938e-001 -7.274188e-001
      outer loop
         vertex 1.215792e+003 1.346248e+003 1.940604e+003
         vertex 1.225792e+003 1.345631e+003 1.941220e+003
         vertex 1.215792e+003 1.345631e+003 1.941220e+003
      endloop
   endfacet
   facet normal -3.868984e-017 -5.972114e-001 -8.020839e-001
      outer loop
         vertex 1.215792e+003 1.345631e+003 1.941220e+003
         vertex 1.225792e+003 1.345631e+003 1.941220e+003
         vertex 1.225792e+003 1.344917e+003 1.941720e+003
      endloop
   endfacet
   facet normal -3.676914e-017 -5.494540e-001 -8.355240e-001
      outer loop
         vertex 1.215792e+003 1.345631e+003 1.941220e+003
         vertex 1.225792e+003 1.344917e+003 1.941720e+003
         vertex 1.215792e+003 1.344917e+003 1.941720e+003
      endloop
   endfacet
   facet normal -3.257478e-017 -4.488580e-001 -8.936031e-001
      outer loop
         vertex 1.215792e+003 1.344917e+003 1.941720e+003
         vertex 1.225792e+003 1.344917e+003 1.941720e+003
         vertex 1.225792e+003 1.344127e+003 1.942088e+003
      endloop
   endfacet
   facet normal -3.030113e-017 -3.960194e-001 -9.182422e-001
      outer loop
         vertex 1.215792e+003 1.344917e+003 1.941720e+003
         vertex 1.225792e+003 1.344127e+003 1.942088e+003
         vertex 1.215792e+003 1.344127e+003 1.942088e+003
      endloop
   endfacet
   facet normal -2.546996e-017 -2.868663e-001 -9.579706e-001
      outer loop
         vertex 1.215792e+003 1.344127e+003 1.942088e+003
         vertex 1.225792e+003 1.344127e+003 1.942088e+003
         vertex 1.225792e+003 1.343286e+003 1.942314e+003
      endloop
   endfacet
   facet normal -2.291243e-017 -2.305518e-001 -9.730601e-001
      outer loop
         vertex 1.215792e+003 1.344127e+003 1.942088e+003
         vertex 1.225792e+003 1.343286e+003 1.942314e+003
         vertex 1.215792e+003 1.343286e+003 1.942314e+003
      endloop
   endfacet
   facet normal -1.759124e-017 -1.161583e-001 -9.932307e-001
      outer loop
         vertex 1.215792e+003 1.343286e+003 1.942314e+003
         vertex 1.225792e+003 1.343286e+003 1.942314e+003
         vertex 1.225792e+003 1.342417e+003 1.942390e+003
      endloop
   endfacet
   facet normal -1.482756e-017 -5.807914e-002 -9.983120e-001
      outer loop
         vertex 1.215792e+003 1.343286e+003 1.942314e+003
         vertex 1.225792e+003 1.342417e+003 1.942390e+003
         vertex 1.215792e+003 1.342417e+003 1.942390e+003
      endloop
   endfacet
   facet normal -9.178019e-018 5.807914e-002 -9.983120e-001
      outer loop
         vertex 1.215792e+003 1.342417e+003 1.942390e+003
         vertex 1.225792e+003 1.342417e+003 1.942390e+003
         vertex 1.225792e+003 1.341549e+003 1.942314e+003
      endloop
   endfacet
   facet normal -6.292156e-018 1.161583e-001 -9.932307e-001
      outer loop
         vertex 1.215792e+003 1.342417e+003 1.942390e+003
         vertex 1.225792e+003 1.341549e+003 1.942314e+003
         vertex 1.215792e+003 1.341549e+003 1.942314e+003
      endloop
   endfacet
   facet normal -4.859315e-019 2.305518e-001 -9.730601e-001
      outer loop
         vertex 1.215792e+003 1.341549e+003 1.942314e+003
         vertex 1.225792e+003 1.341549e+003 1.942314e+003
         vertex 1.225792e+003 1.340707e+003 1.942088e+003
      endloop
   endfacet
   facet normal 2.434432e-018 2.868663e-001 -9.579706e-001
      outer loop
         vertex 1.215792e+003 1.341549e+003 1.942314e+003
         vertex 1.225792e+003 1.340707e+003 1.942088e+003
         vertex 1.215792e+003 1.340707e+003 1.942088e+003
      endloop
   endfacet
   facet normal 8.220923e-018 3.960194e-001 -9.182422e-001
      outer loop
         vertex 1.215792e+003 1.340707e+003 1.942088e+003
         vertex 1.225792e+003 1.340707e+003 1.942088e+003
         vertex 1.225792e+003 1.339917e+003 1.941720e+003
      endloop
   endfacet
   facet normal 1.108705e-017 4.488580e-001 -8.936031e-001
      outer loop
         vertex 1.215792e+003 1.340707e+003 1.942088e+003
         vertex 1.225792e+003 1.339917e+003 1.941720e+003
         vertex 1.215792e+003 1.339917e+003 1.941720e+003
      endloop
   endfacet
   facet normal 1.667798e-017 5.494540e-001 -8.355240e-001
      outer loop
         vertex 1.215792e+003 1.339917e+003 1.941720e+003
         vertex 1.225792e+003 1.339917e+003 1.941720e+003
         vertex 1.225792e+003 1.339203e+003 1.941220e+003
      endloop
   endfacet
   facet normal 1.940280e-017 5.972114e-001 -8.020839e-001
      outer loop
         vertex 1.215792e+003 1.339917e+003 1.941720e+003
         vertex 1.225792e+003 1.339203e+003 1.941220e+003
         vertex 1.215792e+003 1.339203e+003 1.941220e+003
      endloop
   endfacet
   facet normal 2.462830e-017 6.861938e-001 -7.274188e-001
      outer loop
         vertex 1.215792e+003 1.339203e+003 1.941220e+003
         vertex 1.225792e+003 1.339203e+003 1.941220e+003
         vertex 1.225792e+003 1.338587e+003 1.940604e+003
      endloop
   endfacet
   facet normal 2.712899e-017 7.274188e-001 -6.861938e-001
      outer loop
         vertex 1.215792e+003 1.339203e+003 1.941220e+003
         vertex 1.225792e+003 1.338587e+003 1.940604e+003
         vertex 1.215792e+003 1.338587e+003 1.940604e+003
      endloop
   endfacet
   facet normal 3.183029e-017 8.020839e-001 -5.972114e-001
      outer loop
         vertex 1.215792e+003 1.338587e+003 1.940604e+003
         vertex 1.225792e+003 1.338587e+003 1.940604e+003
         vertex 1.225792e+003 1.338087e+003 1.939890e+003
      endloop
   endfacet
   facet normal 3.403090e-017 8.355240e-001 -5.494540e-001
      outer loop
         vertex 1.215792e+003 1.338587e+003 1.940604e+003
         vertex 1.225792e+003 1.338087e+003 1.939890e+003
         vertex 1.215792e+003 1.338087e+003 1.939890e+003
      endloop
   endfacet
   facet normal 3.806514e-017 8.936031e-001 -4.488580e-001
      outer loop
         vertex 1.215792e+003 1.338087e+003 1.939890e+003
         vertex 1.225792e+003 1.338087e+003 1.939890e+003
         vertex 1.225792e+003 1.337719e+003 1.939100e+003
      endloop
   endfacet
   facet normal 3.989878e-017 9.182422e-001 -3.960194e-001
      outer loop
         vertex 1.215792e+003 1.338087e+003 1.939890e+003
         vertex 1.225792e+003 1.337719e+003 1.939100e+003
         vertex 1.215792e+003 1.337719e+003 1.939100e+003
      endloop
   endfacet
   facet normal 4.314339e-017 9.579706e-001 -2.868663e-001
      outer loop
         vertex 1.215792e+003 1.337719e+003 1.939100e+003
         vertex 1.225792e+003 1.337719e+003 1.939100e+003
         vertex 1.225792e+003 1.337493e+003 1.938258e+003
      endloop
   endfacet
   facet normal 4.455437e-017 9.730601e-001 -2.305518e-001
      outer loop
         vertex 1.215792e+003 1.337719e+003 1.939100e+003
         vertex 1.225792e+003 1.337493e+003 1.938258e+003
         vertex 1.215792e+003 1.337493e+003 1.938258e+003
      endloop
   endfacet
   facet normal 4.691076e-017 9.932307e-001 -1.161583e-001
      outer loop
         vertex 1.215792e+003 1.337493e+003 1.938258e+003
         vertex 1.225792e+003 1.337493e+003 1.938258e+003
         vertex 1.225792e+003 1.337417e+003 1.937390e+003
      endloop
   endfacet
   facet normal -4.289286e-017 -7.071068e-001 -7.071068e-001
      outer loop
         vertex 1.225792e+003 1.336417e+003 1.926390e+003
         vertex 1.225792e+003 1.331417e+003 1.931390e+003
         vertex 1.215792e+003 1.336417e+003 1.926390e+003
      endloop
   endfacet
   facet normal -4.289286e-017 -7.071068e-001 -7.071068e-001
      outer loop
         vertex 1.215792e+003 1.336417e+003 1.926390e+003
         vertex 1.225792e+003 1.331417e+003 1.931390e+003
         vertex 1.215792e+003 1.331417e+003 1.931390e+003
      endloop
   endfacet
endsolid