solid 09.025.00.00.000 - 09.025.00.08.000-1 09.025.00.08.011-2 09.025.00.08.0AB-1
   facet normal -4.863658e-017 -1.000000e+000 6.417674e-016
      outer loop
         vertex 1.051792e+003 1.331417e+003 1.931390e+003
         vertex 1.051792e+003 1.331417e+003 1.948390e+003
         vertex 1.041792e+003 1.331417e+003 1.931390e+003
      endloop
   endfacet
   facet normal -4.863658e-017 -1.000000e+000 6.417674e-016
      outer loop
         vertex 1.041792e+003 1.331417e+003 1.931390e+003
         vertex 1.051792e+003 1.331417e+003 1.948390e+003
         vertex 1.041792e+003 1.331417e+003 1.948390e+003
      endloop
   endfacet
   facet normal -1.848038e-016 4.298437e-016 1.000000e+000
      outer loop
         vertex 1.041792e+003 1.425417e+003 1.948390e+003
         vertex 1.041792e+003 1.331417e+003 1.948390e+003
         vertex 1.051792e+003 1.425417e+003 1.948390e+003
      endloop
   endfacet
   facet normal -1.848038e-016 4.298437e-016 1.000000e+000
      outer loop
         vertex 1.051792e+003 1.425417e+003 1.948390e+003
         vertex 1.041792e+003 1.331417e+003 1.948390e+003
         vertex 1.051792e+003 1.331417e+003 1.948390e+003
      endloop
   endfacet
   facet normal 4.863658e-017 1.000000e+000 -6.417674e-016
      outer loop
         vertex 1.051792e+003 1.435417e+003 1.938390e+003
         vertex 1.051792e+003 1.435417e+003 1.926390e+003
         vertex 1.041792e+003 1.435417e+003 1.938390e+003
      endloop
   endfacet
   facet normal 4.863658e-017 1.000000e+000 -6.417674e-016
      outer loop
         vertex 1.041792e+003 1.435417e+003 1.938390e+003
         vertex 1.051792e+003 1.435417e+003 1.926390e+003
         vertex 1.041792e+003 1.435417e+003 1.926390e+003
      endloop
   endfacet
   facet normal 1.848038e-016 -4.298437e-016 -1.000000e+000
      outer loop
         vertex 1.041792e+003 1.336417e+003 1.926390e+003
         vertex 1.041792e+003 1.435417e+003 1.926390e+003
         vertex 1.051792e+003 1.336417e+003 1.926390e+003
      endloop
   endfacet
   facet normal 1.848038e-016 -4.298437e-016 -1.000000e+000
      outer loop
         vertex 1.051792e+003 1.336417e+003 1.926390e+003
         vertex 1.041792e+003 1.435417e+003 1.926390e+003
         vertex 1.051792e+003 1.435417e+003 1.926390e+003
      endloop
   endfacet
   facet normal -1.000000e+000 6.251437e-017 -6.540051e-018
      outer loop
         vertex 1.041792e+003 1.341549e+003 1.932466e+003
         vertex 1.041792e+003 1.336417e+003 1.926390e+003
         vertex 1.041792e+003 1.340707e+003 1.932691e+003
      endloop
   endfacet
   facet normal -1.000000e+000 6.251437e-017 -6.540051e-018
      outer loop
         vertex 1.041792e+003 1.340707e+003 1.932691e+003
         vertex 1.041792e+003 1.336417e+003 1.926390e+003
         vertex 1.041792e+003 1.339917e+003 1.933060e+003
      endloop
   endfacet
   facet normal -1.000000e+000 6.251437e-017 -6.540051e-018
      outer loop
         vertex 1.041792e+003 1.347116e+003 1.939100e+003
         vertex 1.041792e+003 1.346748e+003 1.939890e+003
         vertex 1.041792e+003 1.425417e+003 1.948390e+003
      endloop
   endfacet
   facet normal -1.000000e+000 6.251437e-017 -6.540051e-018
      outer loop
         vertex 1.041792e+003 1.425417e+003 1.948390e+003
         vertex 1.041792e+003 1.346748e+003 1.939890e+003
         vertex 1.041792e+003 1.346248e+003 1.940604e+003
      endloop
   endfacet
   facet normal -1.000000e+000 6.251437e-017 -6.540051e-018
      outer loop
         vertex 1.041792e+003 1.425417e+003 1.948390e+003
         vertex 1.041792e+003 1.346248e+003 1.940604e+003
         vertex 1.041792e+003 1.345631e+003 1.941220e+003
      endloop
   endfacet
   facet normal -1.000000e+000 6.251437e-017 -6.540051e-018
      outer loop
         vertex 1.041792e+003 1.331417e+003 1.931390e+003
         vertex 1.041792e+003 1.337493e+003 1.936522e+003
         vertex 1.041792e+003 1.337719e+003 1.935680e+003
      endloop
   endfacet
   facet normal -1.000000e+000 6.251437e-017 -6.540051e-018
      outer loop
         vertex 1.041792e+003 1.342417e+003 1.942390e+003
         vertex 1.041792e+003 1.341549e+003 1.942314e+003
         vertex 1.041792e+003 1.331417e+003 1.948390e+003
      endloop
   endfacet
   facet normal -1.000000e+000 6.251437e-017 -6.540051e-018
      outer loop
         vertex 1.041792e+003 1.331417e+003 1.948390e+003
         vertex 1.041792e+003 1.341549e+003 1.942314e+003
         vertex 1.041792e+003 1.340707e+003 1.942088e+003
      endloop
   endfacet
   facet normal -1.000000e+000 6.251437e-017 -6.540051e-018
      outer loop
         vertex 1.041792e+003 1.331417e+003 1.948390e+003
         vertex 1.041792e+003 1.340707e+003 1.942088e+003
         vertex 1.041792e+003 1.339917e+003 1.941720e+003
      endloop
   endfacet
   facet normal -1.000000e+000 6.251437e-017 -6.540051e-018
      outer loop
         vertex 1.041792e+003 1.339917e+003 1.941720e+003
         vertex 1.041792e+003 1.339203e+003 1.941220e+003
         vertex 1.041792e+003 1.331417e+003 1.948390e+003
      endloop
   endfacet
   facet normal -1.000000e+000 6.251437e-017 -6.540051e-018
      outer loop
         vertex 1.041792e+003 1.331417e+003 1.948390e+003
         vertex 1.041792e+003 1.339203e+003 1.941220e+003
         vertex 1.041792e+003 1.338587e+003 1.940604e+003
      endloop
   endfacet
   facet normal -1.000000e+000 6.251437e-017 -6.540051e-018
      outer loop
         vertex 1.041792e+003 1.331417e+003 1.948390e+003
         vertex 1.041792e+003 1.338587e+003 1.940604e+003
         vertex 1.041792e+003 1.338087e+003 1.939890e+003
      endloop
   endfacet
   facet normal -1.000000e+000 6.251437e-017 -6.540051e-018
      outer loop
         vertex 1.041792e+003 1.341549e+003 1.932466e+003
         vertex 1.041792e+003 1.342417e+003 1.932390e+003
         vertex 1.041792e+003 1.336417e+003 1.926390e+003
      endloop
   endfacet
   facet normal -1.000000e+000 6.251437e-017 -6.540051e-018
      outer loop
         vertex 1.041792e+003 1.336417e+003 1.926390e+003
         vertex 1.041792e+003 1.342417e+003 1.932390e+003
         vertex 1.041792e+003 1.343286e+003 1.932466e+003
      endloop
   endfacet
   facet normal -1.000000e+000 6.251437e-017 -6.540051e-018
      outer loop
         vertex 1.041792e+003 1.336417e+003 1.926390e+003
         vertex 1.041792e+003 1.343286e+003 1.932466e+003
         vertex 1.041792e+003 1.435417e+003 1.926390e+003
      endloop
   endfacet
   facet normal -1.000000e+000 6.251437e-017 -6.540051e-018
      outer loop
         vertex 1.041792e+003 1.435417e+003 1.926390e+003
         vertex 1.041792e+003 1.343286e+003 1.932466e+003
         vertex 1.041792e+003 1.344127e+003 1.932691e+003
      endloop
   endfacet
   facet normal -1.000000e+000 6.251437e-017 -6.540051e-018
      outer loop
         vertex 1.041792e+003 1.435417e+003 1.926390e+003
         vertex 1.041792e+003 1.344127e+003 1.932691e+003
         vertex 1.041792e+003 1.344917e+003 1.933060e+003
      endloop
   endfacet
   facet normal -1.000000e+000 6.251437e-017 -6.540051e-018
      outer loop
         vertex 1.041792e+003 1.344917e+003 1.933060e+003
         vertex 1.041792e+003 1.345631e+003 1.933560e+003
         vertex 1.041792e+003 1.435417e+003 1.926390e+003
      endloop
   endfacet
   facet normal -1.000000e+000 6.251437e-017 -6.540051e-018
      outer loop
         vertex 1.041792e+003 1.435417e+003 1.926390e+003
         vertex 1.041792e+003 1.345631e+003 1.933560e+003
         vertex 1.041792e+003 1.346248e+003 1.934176e+003
      endloop
   endfacet
   facet normal -1.000000e+000 6.251437e-017 -6.540051e-018
      outer loop
         vertex 1.041792e+003 1.435417e+003 1.926390e+003
         vertex 1.041792e+003 1.346248e+003 1.934176e+003
         vertex 1.041792e+003 1.346748e+003 1.934890e+003
      endloop
   endfacet
   facet normal -1.000000e+000 6.251437e-017 -6.540051e-018
      outer loop
         vertex 1.041792e+003 1.345631e+003 1.941220e+003
         vertex 1.041792e+003 1.344917e+003 1.941720e+003
         vertex 1.041792e+003 1.425417e+003 1.948390e+003
      endloop
   endfacet
   facet normal -1.000000e+000 6.251437e-017 -6.540051e-018
      outer loop
         vertex 1.041792e+003 1.425417e+003 1.948390e+003
         vertex 1.041792e+003 1.344917e+003 1.941720e+003
         vertex 1.041792e+003 1.344127e+003 1.942088e+003
      endloop
   endfacet
   facet normal -1.000000e+000 6.251437e-017 -6.540051e-018
      outer loop
         vertex 1.041792e+003 1.425417e+003 1.948390e+003
         vertex 1.041792e+003 1.344127e+003 1.942088e+003
         vertex 1.041792e+003 1.331417e+003 1.948390e+003
      endloop
   endfacet
   facet normal -1.000000e+000 6.251437e-017 -6.540051e-018
      outer loop
         vertex 1.041792e+003 1.331417e+003 1.948390e+003
         vertex 1.041792e+003 1.344127e+003 1.942088e+003
         vertex 1.041792e+003 1.343286e+003 1.942314e+003
      endloop
   endfacet
   facet normal -1.000000e+000 6.251437e-017 -6.540051e-018
      outer loop
         vertex 1.041792e+003 1.331417e+003 1.948390e+003
         vertex 1.041792e+003 1.343286e+003 1.942314e+003
         vertex 1.041792e+003 1.342417e+003 1.942390e+003
      endloop
   endfacet
   facet normal -1.000000e+000 6.251437e-017 -6.540051e-018
      outer loop
         vertex 1.041792e+003 1.337719e+003 1.935680e+003
         vertex 1.041792e+003 1.338087e+003 1.934890e+003
         vertex 1.041792e+003 1.331417e+003 1.931390e+003
      endloop
   endfacet
   facet normal -1.000000e+000 6.251437e-017 -6.540051e-018
      outer loop
         vertex 1.041792e+003 1.331417e+003 1.931390e+003
         vertex 1.041792e+003 1.338087e+003 1.934890e+003
         vertex 1.041792e+003 1.338587e+003 1.934176e+003
      endloop
   endfacet
   facet normal -1.000000e+000 6.251437e-017 -6.540051e-018
      outer loop
         vertex 1.041792e+003 1.331417e+003 1.931390e+003
         vertex 1.041792e+003 1.338587e+003 1.934176e+003
         vertex 1.041792e+003 1.336417e+003 1.926390e+003
      endloop
   endfacet
   facet normal -1.000000e+000 6.251437e-017 -6.540051e-018
      outer loop
         vertex 1.041792e+003 1.336417e+003 1.926390e+003
         vertex 1.041792e+003 1.338587e+003 1.934176e+003
         vertex 1.041792e+003 1.339203e+003 1.933560e+003
      endloop
   endfacet
   facet normal -1.000000e+000 6.251437e-017 -6.540051e-018
      outer loop
         vertex 1.041792e+003 1.336417e+003 1.926390e+003
         vertex 1.041792e+003 1.339203e+003 1.933560e+003
         vertex 1.041792e+003 1.339917e+003 1.933060e+003
      endloop
   endfacet
   facet normal -1.000000e+000 6.251437e-017 -6.540051e-018
      outer loop
         vertex 1.041792e+003 1.346748e+003 1.934890e+003
         vertex 1.041792e+003 1.347116e+003 1.935680e+003
         vertex 1.041792e+003 1.435417e+003 1.926390e+003
      endloop
   endfacet
   facet normal -1.000000e+000 6.251437e-017 -6.540051e-018
      outer loop
         vertex 1.041792e+003 1.435417e+003 1.926390e+003
         vertex 1.041792e+003 1.347116e+003 1.935680e+003
         vertex 1.041792e+003 1.347341e+003 1.936522e+003
      endloop
   endfacet
   facet normal -1.000000e+000 6.251437e-017 -6.540051e-018
      outer loop
         vertex 1.041792e+003 1.435417e+003 1.926390e+003
         vertex 1.041792e+003 1.347341e+003 1.936522e+003
         vertex 1.041792e+003 1.435417e+003 1.938390e+003
      endloop
   endfacet
   facet normal -1.000000e+000 6.251437e-017 -6.540051e-018
      outer loop
         vertex 1.041792e+003 1.435417e+003 1.938390e+003
         vertex 1.041792e+003 1.347341e+003 1.936522e+003
         vertex 1.041792e+003 1.347417e+003 1.937390e+003
      endloop
   endfacet
   facet normal -1.000000e+000 6.251437e-017 -6.540051e-018
      outer loop
         vertex 1.041792e+003 1.435417e+003 1.938390e+003
         vertex 1.041792e+003 1.347417e+003 1.937390e+003
         vertex 1.041792e+003 1.425417e+003 1.948390e+003
      endloop
   endfacet
   facet normal -1.000000e+000 6.251437e-017 -6.540051e-018
      outer loop
         vertex 1.041792e+003 1.425417e+003 1.948390e+003
         vertex 1.041792e+003 1.347417e+003 1.937390e+003
         vertex 1.041792e+003 1.347341e+003 1.938258e+003
      endloop
   endfacet
   facet normal -1.000000e+000 6.251437e-017 -6.540051e-018
      outer loop
         vertex 1.041792e+003 1.425417e+003 1.948390e+003
         vertex 1.041792e+003 1.347341e+003 1.938258e+003
         vertex 1.041792e+003 1.347116e+003 1.939100e+003
      endloop
   endfacet
   facet normal -1.000000e+000 6.251437e-017 -6.540051e-018
      outer loop
         vertex 1.041792e+003 1.338087e+003 1.939890e+003
         vertex 1.041792e+003 1.337719e+003 1.939100e+003
         vertex 1.041792e+003 1.331417e+003 1.948390e+003
      endloop
   endfacet
   facet normal -1.000000e+000 6.251437e-017 -6.540051e-018
      outer loop
         vertex 1.041792e+003 1.331417e+003 1.948390e+003
         vertex 1.041792e+003 1.337719e+003 1.939100e+003
         vertex 1.041792e+003 1.337493e+003 1.938258e+003
      endloop
   endfacet
   facet normal -1.000000e+000 6.251437e-017 -6.540051e-018
      outer loop
         vertex 1.041792e+003 1.331417e+003 1.948390e+003
         vertex 1.041792e+003 1.337493e+003 1.938258e+003
         vertex 1.041792e+003 1.331417e+003 1.931390e+003
      endloop
   endfacet
   facet normal -1.000000e+000 6.251437e-017 -6.540051e-018
      outer loop
         vertex 1.041792e+003 1.331417e+003 1.931390e+003
         vertex 1.041792e+003 1.337493e+003 1.938258e+003
         vertex 1.041792e+003 1.337417e+003 1.937390e+003
      endloop
   endfacet
   facet normal -1.000000e+000 6.251437e-017 -6.540051e-018
      outer loop
         vertex 1.041792e+003 1.331417e+003 1.931390e+003
         vertex 1.041792e+003 1.337417e+003 1.937390e+003
         vertex 1.041792e+003 1.337493e+003 1.936522e+003
      endloop
   endfacet
   facet normal 1.000000e+000 -6.251437e-017 6.540051e-018
      outer loop
         vertex 1.051792e+003 1.331417e+003 1.948390e+003
         vertex 1.051792e+003 1.331417e+003 1.931390e+003
         vertex 1.051792e+003 1.337417e+003 1.937390e+003
      endloop
   endfacet
   facet normal 1.000000e+000 -6.251437e-017 6.540051e-018
      outer loop
         vertex 1.051792e+003 1.338087e+003 1.934890e+003
         vertex 1.051792e+003 1.337719e+003 1.935680e+003
         vertex 1.051792e+003 1.331417e+003 1.931390e+003
      endloop
   endfacet
   facet normal 1.000000e+000 -6.251437e-017 6.540051e-018
      outer loop
         vertex 1.051792e+003 1.331417e+003 1.931390e+003
         vertex 1.051792e+003 1.337719e+003 1.935680e+003
         vertex 1.051792e+003 1.337493e+003 1.936522e+003
      endloop
   endfacet
   facet normal 1.000000e+000 -6.251437e-017 6.540051e-018
      outer loop
         vertex 1.051792e+003 1.331417e+003 1.931390e+003
         vertex 1.051792e+003 1.337493e+003 1.936522e+003
         vertex 1.051792e+003 1.337417e+003 1.937390e+003
      endloop
   endfacet
   facet normal 1.000000e+000 -6.251437e-017 6.540051e-018
      outer loop
         vertex 1.051792e+003 1.344917e+003 1.941720e+003
         vertex 1.051792e+003 1.345631e+003 1.941220e+003
         vertex 1.051792e+003 1.425417e+003 1.948390e+003
      endloop
   endfacet
   facet normal 1.000000e+000 -6.251437e-017 6.540051e-018
      outer loop
         vertex 1.051792e+003 1.425417e+003 1.948390e+003
         vertex 1.051792e+003 1.345631e+003 1.941220e+003
         vertex 1.051792e+003 1.346248e+003 1.940604e+003
      endloop
   endfacet
   facet normal 1.000000e+000 -6.251437e-017 6.540051e-018
      outer loop
         vertex 1.051792e+003 1.425417e+003 1.948390e+003
         vertex 1.051792e+003 1.346248e+003 1.940604e+003
         vertex 1.051792e+003 1.346748e+003 1.939890e+003
      endloop
   endfacet
   facet normal 1.000000e+000 -6.251437e-017 6.540051e-018
      outer loop
         vertex 1.051792e+003 1.337417e+003 1.937390e+003
         vertex 1.051792e+003 1.337493e+003 1.938258e+003
         vertex 1.051792e+003 1.331417e+003 1.948390e+003
      endloop
   endfacet
   facet normal 1.000000e+000 -6.251437e-017 6.540051e-018
      outer loop
         vertex 1.051792e+003 1.331417e+003 1.948390e+003
         vertex 1.051792e+003 1.337493e+003 1.938258e+003
         vertex 1.051792e+003 1.337719e+003 1.939100e+003
      endloop
   endfacet
   facet normal 1.000000e+000 -6.251437e-017 6.540051e-018
      outer loop
         vertex 1.051792e+003 1.331417e+003 1.948390e+003
         vertex 1.051792e+003 1.337719e+003 1.939100e+003
         vertex 1.051792e+003 1.338087e+003 1.939890e+003
      endloop
   endfacet
   facet normal 1.000000e+000 -6.251437e-017 6.540051e-018
      outer loop
         vertex 1.051792e+003 1.339917e+003 1.941720e+003
         vertex 1.051792e+003 1.340707e+003 1.942088e+003
         vertex 1.051792e+003 1.331417e+003 1.948390e+003
      endloop
   endfacet
   facet normal 1.000000e+000 -6.251437e-017 6.540051e-018
      outer loop
         vertex 1.051792e+003 1.331417e+003 1.948390e+003
         vertex 1.051792e+003 1.340707e+003 1.942088e+003
         vertex 1.051792e+003 1.341549e+003 1.942314e+003
      endloop
   endfacet
   facet normal 1.000000e+000 -6.251437e-017 6.540051e-018
      outer loop
         vertex 1.051792e+003 1.338087e+003 1.939890e+003
         vertex 1.051792e+003 1.338587e+003 1.940604e+003
         vertex 1.051792e+003 1.331417e+003 1.948390e+003
      endloop
   endfacet
   facet normal 1.000000e+000 -6.251437e-017 6.540051e-018
      outer loop
         vertex 1.051792e+003 1.331417e+003 1.948390e+003
         vertex 1.051792e+003 1.338587e+003 1.940604e+003
         vertex 1.051792e+003 1.339203e+003 1.941220e+003
      endloop
   endfacet
   facet normal 1.000000e+000 -6.251437e-017 6.540051e-018
      outer loop
         vertex 1.051792e+003 1.331417e+003 1.948390e+003
         vertex 1.051792e+003 1.339203e+003 1.941220e+003
         vertex 1.051792e+003 1.339917e+003 1.941720e+003
      endloop
   endfacet
   facet normal 1.000000e+000 -6.251437e-017 6.540051e-018
      outer loop
         vertex 1.051792e+003 1.341549e+003 1.942314e+003
         vertex 1.051792e+003 1.342417e+003 1.942390e+003
         vertex 1.051792e+003 1.331417e+003 1.948390e+003
      endloop
   endfacet
   facet normal 1.000000e+000 -6.251437e-017 6.540051e-018
      outer loop
         vertex 1.051792e+003 1.331417e+003 1.948390e+003
         vertex 1.051792e+003 1.342417e+003 1.942390e+003
         vertex 1.051792e+003 1.343286e+003 1.942314e+003
      endloop
   endfacet
   facet normal 1.000000e+000 -6.251437e-017 6.540051e-018
      outer loop
         vertex 1.051792e+003 1.331417e+003 1.948390e+003
         vertex 1.051792e+003 1.343286e+003 1.942314e+003
         vertex 1.051792e+003 1.425417e+003 1.948390e+003
      endloop
   endfacet
   facet normal 1.000000e+000 -6.251437e-017 6.540051e-018
      outer loop
         vertex 1.051792e+003 1.425417e+003 1.948390e+003
         vertex 1.051792e+003 1.343286e+003 1.942314e+003
         vertex 1.051792e+003 1.344127e+003 1.942088e+003
      endloop
   endfacet
   facet normal 1.000000e+000 -6.251437e-017 6.540051e-018
      outer loop
         vertex 1.051792e+003 1.425417e+003 1.948390e+003
         vertex 1.051792e+003 1.344127e+003 1.942088e+003
         vertex 1.051792e+003 1.344917e+003 1.941720e+003
      endloop
   endfacet
   facet normal 1.000000e+000 -6.251437e-017 6.540051e-018
      outer loop
         vertex 1.051792e+003 1.347116e+003 1.935680e+003
         vertex 1.051792e+003 1.346748e+003 1.934890e+003
         vertex 1.051792e+003 1.435417e+003 1.926390e+003
      endloop
   endfacet
   facet normal 1.000000e+000 -6.251437e-017 6.540051e-018
      outer loop
         vertex 1.051792e+003 1.435417e+003 1.926390e+003
         vertex 1.051792e+003 1.346748e+003 1.934890e+003
         vertex 1.051792e+003 1.346248e+003 1.934176e+003
      endloop
   endfacet
   facet normal 1.000000e+000 -6.251437e-017 6.540051e-018
      outer loop
         vertex 1.051792e+003 1.346748e+003 1.939890e+003
         vertex 1.051792e+003 1.347116e+003 1.939100e+003
         vertex 1.051792e+003 1.425417e+003 1.948390e+003
      endloop
   endfacet
   facet normal 1.000000e+000 -6.251437e-017 6.540051e-018
      outer loop
         vertex 1.051792e+003 1.425417e+003 1.948390e+003
         vertex 1.051792e+003 1.347116e+003 1.939100e+003
         vertex 1.051792e+003 1.347341e+003 1.938258e+003
      endloop
   endfacet
   facet normal 1.000000e+000 -6.251437e-017 6.540051e-018
      outer loop
         vertex 1.051792e+003 1.425417e+003 1.948390e+003
         vertex 1.051792e+003 1.347341e+003 1.938258e+003
         vertex 1.051792e+003 1.435417e+003 1.938390e+003
      endloop
   endfacet
   facet normal 1.000000e+000 -6.251437e-017 6.540051e-018
      outer loop
         vertex 1.051792e+003 1.435417e+003 1.938390e+003
         vertex 1.051792e+003 1.347341e+003 1.938258e+003
         vertex 1.051792e+003 1.347417e+003 1.937390e+003
      endloop
   endfacet
   facet normal 1.000000e+000 -6.251437e-017 6.540051e-018
      outer loop
         vertex 1.051792e+003 1.435417e+003 1.938390e+003
         vertex 1.051792e+003 1.347417e+003 1.937390e+003
         vertex 1.051792e+003 1.435417e+003 1.926390e+003
      endloop
   endfacet
   facet normal 1.000000e+000 -6.251437e-017 6.540051e-018
      outer loop
         vertex 1.051792e+003 1.435417e+003 1.926390e+003
         vertex 1.051792e+003 1.347417e+003 1.937390e+003
         vertex 1.051792e+003 1.347341e+003 1.936522e+003
      endloop
   endfacet
   facet normal 1.000000e+000 -6.251437e-017 6.540051e-018
      outer loop
         vertex 1.051792e+003 1.435417e+003 1.926390e+003
         vertex 1.051792e+003 1.347341e+003 1.936522e+003
         vertex 1.051792e+003 1.347116e+003 1.935680e+003
      endloop
   endfacet
   facet normal 1.000000e+000 -6.251437e-017 6.540051e-018
      outer loop
         vertex 1.051792e+003 1.343286e+003 1.932466e+003
         vertex 1.051792e+003 1.342417e+003 1.932390e+003
         vertex 1.051792e+003 1.336417e+003 1.926390e+003
      endloop
   endfacet
   facet normal 1.000000e+000 -6.251437e-017 6.540051e-018
      outer loop
         vertex 1.051792e+003 1.336417e+003 1.926390e+003
         vertex 1.051792e+003 1.342417e+003 1.932390e+003
         vertex 1.051792e+003 1.341549e+003 1.932466e+003
      endloop
   endfacet
   facet normal 1.000000e+000 -6.251437e-017 6.540051e-018
      outer loop
         vertex 1.051792e+003 1.336417e+003 1.926390e+003
         vertex 1.051792e+003 1.341549e+003 1.932466e+003
         vertex 1.051792e+003 1.340707e+003 1.932691e+003
      endloop
   endfacet
   facet normal 1.000000e+000 -6.251437e-017 6.540051e-018
      outer loop
         vertex 1.051792e+003 1.346248e+003 1.934176e+003
         vertex 1.051792e+003 1.345631e+003 1.933560e+003
         vertex 1.051792e+003 1.435417e+003 1.926390e+003
      endloop
   endfacet
   facet normal 1.000000e+000 -6.251437e-017 6.540051e-018
      outer loop
         vertex 1.051792e+003 1.435417e+003 1.926390e+003
         vertex 1.051792e+003 1.345631e+003 1.933560e+003
         vertex 1.051792e+003 1.344917e+003 1.933060e+003
      endloop
   endfacet
   facet normal 1.000000e+000 -6.251437e-017 6.540051e-018
      outer loop
         vertex 1.051792e+003 1.435417e+003 1.926390e+003
         vertex 1.051792e+003 1.344917e+003 1.933060e+003
         vertex 1.051792e+003 1.336417e+003 1.926390e+003
      endloop
   endfacet
   facet normal 1.000000e+000 -6.251437e-017 6.540051e-018
      outer loop
         vertex 1.051792e+003 1.336417e+003 1.926390e+003
         vertex 1.051792e+003 1.344917e+003 1.933060e+003
         vertex 1.051792e+003 1.344127e+003 1.932691e+003
      endloop
   endfacet
   facet normal 1.000000e+000 -6.251437e-017 6.540051e-018
      outer loop
         vertex 1.051792e+003 1.336417e+003 1.926390e+003
         vertex 1.051792e+003 1.344127e+003 1.932691e+003
         vertex 1.051792e+003 1.343286e+003 1.932466e+003
      endloop
   endfacet
   facet normal 1.000000e+000 -6.251437e-017 6.540051e-018
      outer loop
         vertex 1.051792e+003 1.340707e+003 1.932691e+003
         vertex 1.051792e+003 1.339917e+003 1.933060e+003
         vertex 1.051792e+003 1.336417e+003 1.926390e+003
      endloop
   endfacet
   facet normal 1.000000e+000 -6.251437e-017 6.540051e-018
      outer loop
         vertex 1.051792e+003 1.336417e+003 1.926390e+003
         vertex 1.051792e+003 1.339917e+003 1.933060e+003
         vertex 1.051792e+003 1.339203e+003 1.933560e+003
      endloop
   endfacet
   facet normal 1.000000e+000 -6.251437e-017 6.540051e-018
      outer loop
         vertex 1.051792e+003 1.336417e+003 1.926390e+003
         vertex 1.051792e+003 1.339203e+003 1.933560e+003
         vertex 1.051792e+003 1.331417e+003 1.931390e+003
      endloop
   endfacet
   facet normal 1.000000e+000 -6.251437e-017 6.540051e-018
      outer loop
         vertex 1.051792e+003 1.331417e+003 1.931390e+003
         vertex 1.051792e+003 1.339203e+003 1.933560e+003
         vertex 1.051792e+003 1.338587e+003 1.934176e+003
      endloop
   endfacet
   facet normal 1.000000e+000 -6.251437e-017 6.540051e-018
      outer loop
         vertex 1.051792e+003 1.331417e+003 1.931390e+003
         vertex 1.051792e+003 1.338587e+003 1.934176e+003
         vertex 1.051792e+003 1.338087e+003 1.934890e+003
      endloop
   endfacet
   facet normal -9.628479e-017 7.071068e-001 7.071068e-001
      outer loop
         vertex 1.051792e+003 1.425417e+003 1.948390e+003
         vertex 1.051792e+003 1.435417e+003 1.938390e+003
         vertex 1.041792e+003 1.425417e+003 1.948390e+003
      endloop
   endfacet
   facet normal -9.628479e-017 7.071068e-001 7.071068e-001
      outer loop
         vertex 1.041792e+003 1.425417e+003 1.948390e+003
         vertex 1.051792e+003 1.435417e+003 1.938390e+003
         vertex 1.041792e+003 1.435417e+003 1.938390e+003
      endloop
   endfacet
   facet normal 5.928773e-017 9.983120e-001 -5.807914e-002
      outer loop
         vertex 1.041792e+003 1.337493e+003 1.938258e+003
         vertex 1.051792e+003 1.337417e+003 1.937390e+003
         vertex 1.041792e+003 1.337417e+003 1.937390e+003
      endloop
   endfacet
   facet normal 3.782123e-017 9.983120e-001 5.807914e-002
      outer loop
         vertex 1.041792e+003 1.337417e+003 1.937390e+003
         vertex 1.051792e+003 1.337417e+003 1.937390e+003
         vertex 1.051792e+003 1.337493e+003 1.936522e+003
      endloop
   endfacet
   facet normal 2.684085e-017 9.932307e-001 1.161583e-001
      outer loop
         vertex 1.041792e+003 1.337417e+003 1.937390e+003
         vertex 1.051792e+003 1.337493e+003 1.936522e+003
         vertex 1.041792e+003 1.337493e+003 1.936522e+003
      endloop
   endfacet
   facet normal 4.719448e-018 9.730601e-001 2.305518e-001
      outer loop
         vertex 1.041792e+003 1.337493e+003 1.936522e+003
         vertex 1.051792e+003 1.337493e+003 1.936522e+003
         vertex 1.051792e+003 1.337719e+003 1.935680e+003
      endloop
   endfacet
   facet normal -6.421575e-018 9.579706e-001 2.868663e-001
      outer loop
         vertex 1.041792e+003 1.337493e+003 1.936522e+003
         vertex 1.051792e+003 1.337719e+003 1.935680e+003
         vertex 1.041792e+003 1.337719e+003 1.935680e+003
      endloop
   endfacet
   facet normal -2.852574e-017 9.182422e-001 3.960194e-001
      outer loop
         vertex 1.041792e+003 1.337719e+003 1.935680e+003
         vertex 1.051792e+003 1.337719e+003 1.935680e+003
         vertex 1.051792e+003 1.338087e+003 1.934890e+003
      endloop
   endfacet
   facet normal -3.948888e-017 8.936031e-001 4.488580e-001
      outer loop
         vertex 1.041792e+003 1.337719e+003 1.935680e+003
         vertex 1.051792e+003 1.338087e+003 1.934890e+003
         vertex 1.041792e+003 1.338087e+003 1.934890e+003
      endloop
   endfacet
   facet normal -6.090418e-017 8.355240e-001 5.494540e-001
      outer loop
         vertex 1.041792e+003 1.338087e+003 1.934890e+003
         vertex 1.051792e+003 1.338087e+003 1.934890e+003
         vertex 1.051792e+003 1.338587e+003 1.934176e+003
      endloop
   endfacet
   facet normal -7.135634e-017 8.020839e-001 5.972114e-001
      outer loop
         vertex 1.041792e+003 1.338087e+003 1.934890e+003
         vertex 1.051792e+003 1.338587e+003 1.934176e+003
         vertex 1.041792e+003 1.338587e+003 1.934176e+003
      endloop
   endfacet
   facet normal -9.143208e-017 7.274188e-001 6.861938e-001
      outer loop
         vertex 1.041792e+003 1.338587e+003 1.934176e+003
         vertex 1.051792e+003 1.338587e+003 1.934176e+003
         vertex 1.051792e+003 1.339203e+003 1.933560e+003
      endloop
   endfacet
   facet normal -1.010557e-016 6.861938e-001 7.274188e-001
      outer loop
         vertex 1.041792e+003 1.338587e+003 1.934176e+003
         vertex 1.051792e+003 1.339203e+003 1.933560e+003
         vertex 1.041792e+003 1.339203e+003 1.933560e+003
      endloop
   endfacet
   facet normal -1.191819e-016 5.972114e-001 8.020839e-001
      outer loop
         vertex 1.041792e+003 1.339203e+003 1.933560e+003
         vertex 1.051792e+003 1.339203e+003 1.933560e+003
         vertex 1.051792e+003 1.339917e+003 1.933060e+003
      endloop
   endfacet
   facet normal -1.276845e-016 5.494540e-001 8.355240e-001
      outer loop
         vertex 1.041792e+003 1.339203e+003 1.933560e+003
         vertex 1.051792e+003 1.339917e+003 1.933060e+003
         vertex 1.041792e+003 1.339917e+003 1.933060e+003
      endloop
   endfacet
   facet normal -1.433104e-016 4.488580e-001 8.936031e-001
      outer loop
         vertex 1.041792e+003 1.339917e+003 1.933060e+003
         vertex 1.051792e+003 1.339917e+003 1.933060e+003
         vertex 1.051792e+003 1.340707e+003 1.932691e+003
      endloop
   endfacet
   facet normal -1.504336e-016 3.960194e-001 9.182422e-001
      outer loop
         vertex 1.041792e+003 1.339917e+003 1.933060e+003
         vertex 1.051792e+003 1.340707e+003 1.932691e+003
         vertex 1.041792e+003 1.340707e+003 1.932691e+003
      endloop
   endfacet
   facet normal -1.630844e-016 2.868663e-001 9.579706e-001
      outer loop
         vertex 1.041792e+003 1.340707e+003 1.932691e+003
         vertex 1.051792e+003 1.340707e+003 1.932691e+003
         vertex 1.051792e+003 1.341549e+003 1.932466e+003
      endloop
   endfacet
   facet normal -1.686120e-016 2.305518e-001 9.730601e-001
      outer loop
         vertex 1.041792e+003 1.340707e+003 1.932691e+003
         vertex 1.051792e+003 1.341549e+003 1.932466e+003
         vertex 1.041792e+003 1.341549e+003 1.932466e+003
      endloop
   endfacet
   facet normal -1.779033e-016 1.161583e-001 9.932307e-001
      outer loop
         vertex 1.041792e+003 1.341549e+003 1.932466e+003
         vertex 1.051792e+003 1.341549e+003 1.932466e+003
         vertex 1.051792e+003 1.342417e+003 1.932390e+003
      endloop
   endfacet
   facet normal -1.816671e-016 5.807914e-002 9.983120e-001
      outer loop
         vertex 1.041792e+003 1.341549e+003 1.932466e+003
         vertex 1.051792e+003 1.342417e+003 1.932390e+003
         vertex 1.041792e+003 1.342417e+003 1.932390e+003
      endloop
   endfacet
   facet normal -1.873167e-016 -5.807914e-002 9.983120e-001
      outer loop
         vertex 1.041792e+003 1.342417e+003 1.932390e+003
         vertex 1.051792e+003 1.342417e+003 1.932390e+003
         vertex 1.051792e+003 1.343286e+003 1.932466e+003
      endloop
   endfacet
   facet normal -1.892024e-016 -1.161583e-001 9.932307e-001
      outer loop
         vertex 1.041792e+003 1.342417e+003 1.932390e+003
         vertex 1.051792e+003 1.343286e+003 1.932466e+003
         vertex 1.041792e+003 1.343286e+003 1.932466e+003
      endloop
   endfacet
   facet normal -1.910385e-016 -2.305518e-001 9.730601e-001
      outer loop
         vertex 1.041792e+003 1.343286e+003 1.932466e+003
         vertex 1.051792e+003 1.343286e+003 1.932466e+003
         vertex 1.051792e+003 1.344127e+003 1.932691e+003
      endloop
   endfacet
   facet normal -1.909888e-016 -2.868663e-001 9.579706e-001
      outer loop
         vertex 1.041792e+003 1.343286e+003 1.932466e+003
         vertex 1.051792e+003 1.344127e+003 1.932691e+003
         vertex 1.041792e+003 1.344127e+003 1.932691e+003
      endloop
   endfacet
   facet normal -1.889557e-016 -3.960194e-001 9.182422e-001
      outer loop
         vertex 1.041792e+003 1.344127e+003 1.932691e+003
         vertex 1.051792e+003 1.344127e+003 1.932691e+003
         vertex 1.051792e+003 1.344917e+003 1.933060e+003
      endloop
   endfacet
   facet normal -1.869722e-016 -4.488580e-001 8.936031e-001
      outer loop
         vertex 1.041792e+003 1.344127e+003 1.932691e+003
         vertex 1.051792e+003 1.344917e+003 1.933060e+003
         vertex 1.041792e+003 1.344917e+003 1.933060e+003
      endloop
   endfacet
   facet normal -1.811316e-016 -5.494540e-001 8.355240e-001
      outer loop
         vertex 1.041792e+003 1.344917e+003 1.933060e+003
         vertex 1.051792e+003 1.344917e+003 1.933060e+003
         vertex 1.051792e+003 1.345631e+003 1.933560e+003
      endloop
   endfacet
   facet normal -1.772745e-016 -5.972114e-001 8.020839e-001
      outer loop
         vertex 1.041792e+003 1.344917e+003 1.933060e+003
         vertex 1.051792e+003 1.345631e+003 1.933560e+003
         vertex 1.041792e+003 1.345631e+003 1.933560e+003
      endloop
   endfacet
   facet normal -1.678039e-016 -6.861938e-001 7.274188e-001
      outer loop
         vertex 1.041792e+003 1.345631e+003 1.933560e+003
         vertex 1.051792e+003 1.345631e+003 1.933560e+003
         vertex 1.051792e+003 1.346248e+003 1.934176e+003
      endloop
   endfacet
   facet normal -1.621904e-016 -7.274188e-001 6.861938e-001
      outer loop
         vertex 1.041792e+003 1.345631e+003 1.933560e+003
         vertex 1.051792e+003 1.346248e+003 1.934176e+003
         vertex 1.041792e+003 1.346248e+003 1.934176e+003
      endloop
   endfacet
   facet normal -1.493776e-016 -8.020839e-001 5.972114e-001
      outer loop
         vertex 1.041792e+003 1.346248e+003 1.934176e+003
         vertex 1.051792e+003 1.346248e+003 1.934176e+003
         vertex 1.051792e+003 1.346748e+003 1.934890e+003
      endloop
   endfacet
   facet normal -1.421782e-016 -8.355240e-001 5.494540e-001
      outer loop
         vertex 1.041792e+003 1.346248e+003 1.934176e+003
         vertex 1.051792e+003 1.346748e+003 1.934890e+003
         vertex 1.041792e+003 1.346748e+003 1.934890e+003
      endloop
   endfacet
   facet normal -1.264125e-016 -8.936031e-001 4.488580e-001
      outer loop
         vertex 1.041792e+003 1.346748e+003 1.934890e+003
         vertex 1.051792e+003 1.346748e+003 1.934890e+003
         vertex 1.051792e+003 1.347116e+003 1.935680e+003
      endloop
   endfacet
   facet normal -1.178461e-016 -9.182422e-001 3.960194e-001
      outer loop
         vertex 1.041792e+003 1.346748e+003 1.934890e+003
         vertex 1.051792e+003 1.347116e+003 1.935680e+003
         vertex 1.041792e+003 1.347116e+003 1.935680e+003
      endloop
   endfacet
   facet normal -9.960640e-017 -9.579706e-001 2.868663e-001
      outer loop
         vertex 1.041792e+003 1.347116e+003 1.935680e+003
         vertex 1.051792e+003 1.347116e+003 1.935680e+003
         vertex 1.051792e+003 1.347341e+003 1.936522e+003
      endloop
   endfacet
   facet normal -8.993317e-017 -9.730601e-001 2.305518e-001
      outer loop
         vertex 1.041792e+003 1.347116e+003 1.935680e+003
         vertex 1.051792e+003 1.347341e+003 1.936522e+003
         vertex 1.041792e+003 1.347341e+003 1.936522e+003
      endloop
   endfacet
   facet normal -6.977384e-017 -9.932307e-001 1.161583e-001
      outer loop
         vertex 1.041792e+003 1.347341e+003 1.936522e+003
         vertex 1.051792e+003 1.347341e+003 1.936522e+003
         vertex 1.051792e+003 1.347417e+003 1.937390e+003
      endloop
   endfacet
   facet normal -5.928773e-017 -9.983120e-001 5.807914e-002
      outer loop
         vertex 1.041792e+003 1.347341e+003 1.936522e+003
         vertex 1.051792e+003 1.347417e+003 1.937390e+003
         vertex 1.041792e+003 1.347417e+003 1.937390e+003
      endloop
   endfacet
   facet normal -3.782123e-017 -9.983120e-001 -5.807914e-002
      outer loop
         vertex 1.041792e+003 1.347417e+003 1.937390e+003
         vertex 1.051792e+003 1.347417e+003 1.937390e+003
         vertex 1.051792e+003 1.347341e+003 1.938258e+003
      endloop
   endfacet
   facet normal -2.684085e-017 -9.932307e-001 -1.161583e-001
      outer loop
         vertex 1.041792e+003 1.347417e+003 1.937390e+003
         vertex 1.051792e+003 1.347341e+003 1.938258e+003
         vertex 1.041792e+003 1.347341e+003 1.938258e+003
      endloop
   endfacet
   facet normal -4.719448e-018 -9.730601e-001 -2.305518e-001
      outer loop
         vertex 1.041792e+003 1.347341e+003 1.938258e+003
         vertex 1.051792e+003 1.347341e+003 1.938258e+003
         vertex 1.051792e+003 1.347116e+003 1.939100e+003
      endloop
   endfacet
   facet normal 6.421575e-018 -9.579706e-001 -2.868663e-001
      outer loop
         vertex 1.041792e+003 1.347341e+003 1.938258e+003
         vertex 1.051792e+003 1.347116e+003 1.939100e+003
         vertex 1.041792e+003 1.347116e+003 1.939100e+003
      endloop
   endfacet
   facet normal 2.852574e-017 -9.182422e-001 -3.960194e-001
      outer loop
         vertex 1.041792e+003 1.347116e+003 1.939100e+003
         vertex 1.051792e+003 1.347116e+003 1.939100e+003
         vertex 1.051792e+003 1.346748e+003 1.939890e+003
      endloop
   endfacet
   facet normal 3.948888e-017 -8.936031e-001 -4.488580e-001
      outer loop
         vertex 1.041792e+003 1.347116e+003 1.939100e+003
         vertex 1.051792e+003 1.346748e+003 1.939890e+003
         vertex 1.041792e+003 1.346748e+003 1.939890e+003
      endloop
   endfacet
   facet normal 6.090418e-017 -8.355240e-001 -5.494540e-001
      outer loop
         vertex 1.041792e+003 1.346748e+003 1.939890e+003
         vertex 1.051792e+003 1.346748e+003 1.939890e+003
         vertex 1.051792e+003 1.346248e+003 1.940604e+003
      endloop
   endfacet
   facet normal 7.135634e-017 -8.020839e-001 -5.972114e-001
      outer loop
         vertex 1.041792e+003 1.346748e+003 1.939890e+003
         vertex 1.051792e+003 1.346248e+003 1.940604e+003
         vertex 1.041792e+003 1.346248e+003 1.940604e+003
      endloop
   endfacet
   facet normal 9.143208e-017 -7.274188e-001 -6.861938e-001
      outer loop
         vertex 1.041792e+003 1.346248e+003 1.940604e+003
         vertex 1.051792e+003 1.346248e+003 1.940604e+003
         vertex 1.051792e+003 1.345631e+003 1.941220e+003
      endloop
   endfacet
   facet normal 1.010557e-016 -6.861938e-001 -7.274188e-001
      outer loop
         vertex 1.041792e+003 1.346248e+003 1.940604e+003
         vertex 1.051792e+003 1.345631e+003 1.941220e+003
         vertex 1.041792e+003 1.345631e+003 1.941220e+003
      endloop
   endfacet
   facet normal 1.191819e-016 -5.972114e-001 -8.020839e-001
      outer loop
         vertex 1.041792e+003 1.345631e+003 1.941220e+003
         vertex 1.051792e+003 1.345631e+003 1.941220e+003
         vertex 1.051792e+003 1.344917e+003 1.941720e+003
      endloop
   endfacet
   facet normal 1.276845e-016 -5.494540e-001 -8.355240e-001
      outer loop
         vertex 1.041792e+003 1.345631e+003 1.941220e+003
         vertex 1.051792e+003 1.344917e+003 1.941720e+003
         vertex 1.041792e+003 1.344917e+003 1.941720e+003
      endloop
   endfacet
   facet normal 1.433104e-016 -4.488580e-001 -8.936031e-001
      outer loop
         vertex 1.041792e+003 1.344917e+003 1.941720e+003
         vertex 1.051792e+003 1.344917e+003 1.941720e+003
         vertex 1.051792e+003 1.344127e+003 1.942088e+003
      endloop
   endfacet
   facet normal 1.504336e-016 -3.960194e-001 -9.182422e-001
      outer loop
         vertex 1.041792e+003 1.344917e+003 1.941720e+003
         vertex 1.051792e+003 1.344127e+003 1.942088e+003
         vertex 1.041792e+003 1.344127e+003 1.942088e+003
      endloop
   endfacet
   facet normal 1.630844e-016 -2.868663e-001 -9.579706e-001
      outer loop
         vertex 1.041792e+003 1.344127e+003 1.942088e+003
         vertex 1.051792e+003 1.344127e+003 1.942088e+003
         vertex 1.051792e+003 1.343286e+003 1.942314e+003
      endloop
   endfacet
   facet normal 1.686120e-016 -2.305518e-001 -9.730601e-001
      outer loop
         vertex 1.041792e+003 1.344127e+003 1.942088e+003
         vertex 1.051792e+003 1.343286e+003 1.942314e+003
         vertex 1.041792e+003 1.343286e+003 1.942314e+003
      endloop
   endfacet
   facet normal 1.779033e-016 -1.161583e-001 -9.932307e-001
      outer loop
         vertex 1.041792e+003 1.343286e+003 1.942314e+003
         vertex 1.051792e+003 1.343286e+003 1.942314e+003
         vertex 1.051792e+003 1.342417e+003 1.942390e+003
      endloop
   endfacet
   facet normal 1.816671e-016 -5.807914e-002 -9.983120e-001
      outer loop
         vertex 1.041792e+003 1.343286e+003 1.942314e+003
         vertex 1.051792e+003 1.342417e+003 1.942390e+003
         vertex 1.041792e+003 1.342417e+003 1.942390e+003
      endloop
   endfacet
   facet normal 1.873167e-016 5.807914e-002 -9.983120e-001
      outer loop
         vertex 1.041792e+003 1.342417e+003 1.942390e+003
         vertex 1.051792e+003 1.342417e+003 1.942390e+003
         vertex 1.051792e+003 1.341549e+003 1.942314e+003
      endloop
   endfacet
   facet normal 1.892024e-016 1.161583e-001 -9.932307e-001
      outer loop
         vertex 1.041792e+003 1.342417e+003 1.942390e+003
         vertex 1.051792e+003 1.341549e+003 1.942314e+003
         vertex 1.041792e+003 1.341549e+003 1.942314e+003
      endloop
   endfacet
   facet normal 1.910385e-016 2.305518e-001 -9.730601e-001
      outer loop
         vertex 1.041792e+003 1.341549e+003 1.942314e+003
         vertex 1.051792e+003 1.341549e+003 1.942314e+003
         vertex 1.051792e+003 1.340707e+003 1.942088e+003
      endloop
   endfacet
   facet normal 1.909888e-016 2.868663e-001 -9.579706e-001
      outer loop
         vertex 1.041792e+003 1.341549e+003 1.942314e+003
         vertex 1.051792e+003 1.340707e+003 1.942088e+003
         vertex 1.041792e+003 1.340707e+003 1.942088e+003
      endloop
   endfacet
   facet normal 1.889557e-016 3.960194e-001 -9.182422e-001
      outer loop
         vertex 1.041792e+003 1.340707e+003 1.942088e+003
         vertex 1.051792e+003 1.340707e+003 1.942088e+003
         vertex 1.051792e+003 1.339917e+003 1.941720e+003
      endloop
   endfacet
   facet normal 1.869722e-016 4.488580e-001 -8.936031e-001
      outer loop
         vertex 1.041792e+003 1.340707e+003 1.942088e+003
         vertex 1.051792e+003 1.339917e+003 1.941720e+003
         vertex 1.041792e+003 1.339917e+003 1.941720e+003
      endloop
   endfacet
   facet normal 1.811316e-016 5.494540e-001 -8.355240e-001
      outer loop
         vertex 1.041792e+003 1.339917e+003 1.941720e+003
         vertex 1.051792e+003 1.339917e+003 1.941720e+003
         vertex 1.051792e+003 1.339203e+003 1.941220e+003
      endloop
   endfacet
   facet normal 1.772745e-016 5.972114e-001 -8.020839e-001
      outer loop
         vertex 1.041792e+003 1.339917e+003 1.941720e+003
         vertex 1.051792e+003 1.339203e+003 1.941220e+003
         vertex 1.041792e+003 1.339203e+003 1.941220e+003
      endloop
   endfacet
   facet normal 1.678039e-016 6.861938e-001 -7.274188e-001
      outer loop
         vertex 1.041792e+003 1.339203e+003 1.941220e+003
         vertex 1.051792e+003 1.339203e+003 1.941220e+003
         vertex 1.051792e+003 1.338587e+003 1.940604e+003
      endloop
   endfacet
   facet normal 1.621904e-016 7.274188e-001 -6.861938e-001
      outer loop
         vertex 1.041792e+003 1.339203e+003 1.941220e+003
         vertex 1.051792e+003 1.338587e+003 1.940604e+003
         vertex 1.041792e+003 1.338587e+003 1.940604e+003
      endloop
   endfacet
   facet normal 1.493776e-016 8.020839e-001 -5.972114e-001
      outer loop
         vertex 1.041792e+003 1.338587e+003 1.940604e+003
         vertex 1.051792e+003 1.338587e+003 1.940604e+003
         vertex 1.051792e+003 1.338087e+003 1.939890e+003
      endloop
   endfacet
   facet normal 1.421782e-016 8.355240e-001 -5.494540e-001
      outer loop
         vertex 1.041792e+003 1.338587e+003 1.940604e+003
         vertex 1.051792e+003 1.338087e+003 1.939890e+003
         vertex 1.041792e+003 1.338087e+003 1.939890e+003
      endloop
   endfacet
   facet normal 1.264125e-016 8.936031e-001 -4.488580e-001
      outer loop
         vertex 1.041792e+003 1.338087e+003 1.939890e+003
         vertex 1.051792e+003 1.338087e+003 1.939890e+003
         vertex 1.051792e+003 1.337719e+003 1.939100e+003
      endloop
   endfacet
   facet normal 1.178461e-016 9.182422e-001 -3.960194e-001
      outer loop
         vertex 1.041792e+003 1.338087e+003 1.939890e+003
         vertex 1.051792e+003 1.337719e+003 1.939100e+003
         vertex 1.041792e+003 1.337719e+003 1.939100e+003
      endloop
   endfacet
   facet normal 9.960640e-017 9.579706e-001 -2.868663e-001
      outer loop
         vertex 1.041792e+003 1.337719e+003 1.939100e+003
         vertex 1.051792e+003 1.337719e+003 1.939100e+003
         vertex 1.051792e+003 1.337493e+003 1.938258e+003
      endloop
   endfacet
   facet normal 8.993317e-017 9.730601e-001 -2.305518e-001
      outer loop
         vertex 1.041792e+003 1.337719e+003 1.939100e+003
         vertex 1.051792e+003 1.337493e+003 1.938258e+003
         vertex 1.041792e+003 1.337493e+003 1.938258e+003
      endloop
   endfacet
   facet normal 6.977384e-017 9.932307e-001 -1.161583e-001
      outer loop
         vertex 1.041792e+003 1.337493e+003 1.938258e+003
         vertex 1.051792e+003 1.337493e+003 1.938258e+003
         vertex 1.051792e+003 1.337417e+003 1.937390e+003
      endloop
   endfacet
   facet normal 9.628479e-017 -7.071068e-001 -7.071068e-001
      outer loop
         vertex 1.051792e+003 1.336417e+003 1.926390e+003
         vertex 1.051792e+003 1.331417e+003 1.931390e+003
         vertex 1.041792e+003 1.336417e+003 1.926390e+003
      endloop
   endfacet
   facet normal 9.628479e-017 -7.071068e-001 -7.071068e-001
      outer loop
         vertex 1.041792e+003 1.336417e+003 1.926390e+003
         vertex 1.051792e+003 1.331417e+003 1.931390e+003
         vertex 1.041792e+003 1.331417e+003 1.931390e+003
      endloop
   endfacet
endsolid