solid 09.025.00.00.000 - 09.025.00.08.000-1 09.025.00.08.015-1 09.025.00.08.0BB-2
   facet normal 1.000000e+000 -4.250399e-016 -2.170522e-017
      outer loop
         vertex 1.153792e+003 1.351417e+003 2.248390e+003
         vertex 1.153792e+003 1.434417e+003 2.248390e+003
         vertex 1.153792e+003 1.351417e+003 2.252390e+003
      endloop
   endfacet
   facet normal 1.000000e+000 -4.250399e-016 -2.170522e-017
      outer loop
         vertex 1.153792e+003 1.351417e+003 2.252390e+003
         vertex 1.153792e+003 1.434417e+003 2.248390e+003
         vertex 1.153792e+003 1.434417e+003 2.252390e+003
      endloop
   endfacet
   facet normal -1.000000e+000 4.250399e-016 2.170522e-017
      outer loop
         vertex 1.113792e+003 1.434417e+003 2.248390e+003
         vertex 1.113792e+003 1.351417e+003 2.248390e+003
         vertex 1.113792e+003 1.434417e+003 2.252390e+003
      endloop
   endfacet
   facet normal -1.000000e+000 4.250399e-016 2.170522e-017
      outer loop
         vertex 1.113792e+003 1.434417e+003 2.252390e+003
         vertex 1.113792e+003 1.351417e+003 2.248390e+003
         vertex 1.113792e+003 1.351417e+003 2.252390e+003
      endloop
   endfacet
   facet normal 4.250399e-016 1.000000e+000 -9.952441e-017
      outer loop
         vertex 1.153792e+003 1.434417e+003 2.248390e+003
         vertex 1.113792e+003 1.434417e+003 2.248390e+003
         vertex 1.153792e+003 1.434417e+003 2.252390e+003
      endloop
   endfacet
   facet normal 4.250399e-016 1.000000e+000 -9.952441e-017
      outer loop
         vertex 1.153792e+003 1.434417e+003 2.252390e+003
         vertex 1.113792e+003 1.434417e+003 2.248390e+003
         vertex 1.113792e+003 1.434417e+003 2.252390e+003
      endloop
   endfacet
   facet normal -2.170522e-017 -9.952441e-017 -1.000000e+000
      outer loop
         vertex 1.120934e+003 1.412767e+003 2.248390e+003
         vertex 1.121264e+003 1.412296e+003 2.248390e+003
         vertex 1.113792e+003 1.351417e+003 2.248390e+003
      endloop
   endfacet
   facet normal -2.170522e-017 -9.952441e-017 -1.000000e+000
      outer loop
         vertex 1.153792e+003 1.351417e+003 2.248390e+003
         vertex 1.124921e+003 1.411316e+003 2.248390e+003
         vertex 1.125442e+003 1.411559e+003 2.248390e+003
      endloop
   endfacet
   facet normal -2.170522e-017 -9.952441e-017 -1.000000e+000
      outer loop
         vertex 1.125913e+003 1.416945e+003 2.248390e+003
         vertex 1.153792e+003 1.434417e+003 2.248390e+003
         vertex 1.126320e+003 1.416538e+003 2.248390e+003
      endloop
   endfacet
   facet normal -2.170522e-017 -9.952441e-017 -1.000000e+000
      outer loop
         vertex 1.126320e+003 1.416538e+003 2.248390e+003
         vertex 1.153792e+003 1.434417e+003 2.248390e+003
         vertex 1.126650e+003 1.416067e+003 2.248390e+003
      endloop
   endfacet
   facet normal -2.170522e-017 -9.952441e-017 -1.000000e+000
      outer loop
         vertex 1.120934e+003 1.412767e+003 2.248390e+003
         vertex 1.113792e+003 1.351417e+003 2.248390e+003
         vertex 1.120691e+003 1.413289e+003 2.248390e+003
      endloop
   endfacet
   facet normal -2.170522e-017 -9.952441e-017 -1.000000e+000
      outer loop
         vertex 1.121264e+003 1.412296e+003 2.248390e+003
         vertex 1.121671e+003 1.411889e+003 2.248390e+003
         vertex 1.113792e+003 1.351417e+003 2.248390e+003
      endloop
   endfacet
   facet normal -2.170522e-017 -9.952441e-017 -1.000000e+000
      outer loop
         vertex 1.113792e+003 1.351417e+003 2.248390e+003
         vertex 1.121671e+003 1.411889e+003 2.248390e+003
         vertex 1.122142e+003 1.411559e+003 2.248390e+003
      endloop
   endfacet
   facet normal -2.170522e-017 -9.952441e-017 -1.000000e+000
      outer loop
         vertex 1.113792e+003 1.351417e+003 2.248390e+003
         vertex 1.122142e+003 1.411559e+003 2.248390e+003
         vertex 1.122663e+003 1.411316e+003 2.248390e+003
      endloop
   endfacet
   facet normal -2.170522e-017 -9.952441e-017 -1.000000e+000
      outer loop
         vertex 1.122663e+003 1.411316e+003 2.248390e+003
         vertex 1.123219e+003 1.411167e+003 2.248390e+003
         vertex 1.113792e+003 1.351417e+003 2.248390e+003
      endloop
   endfacet
   facet normal -2.170522e-017 -9.952441e-017 -1.000000e+000
      outer loop
         vertex 1.113792e+003 1.351417e+003 2.248390e+003
         vertex 1.123219e+003 1.411167e+003 2.248390e+003
         vertex 1.123792e+003 1.411117e+003 2.248390e+003
      endloop
   endfacet
   facet normal -2.170522e-017 -9.952441e-017 -1.000000e+000
      outer loop
         vertex 1.113792e+003 1.351417e+003 2.248390e+003
         vertex 1.123792e+003 1.411117e+003 2.248390e+003
         vertex 1.153792e+003 1.351417e+003 2.248390e+003
      endloop
   endfacet
   facet normal -2.170522e-017 -9.952441e-017 -1.000000e+000
      outer loop
         vertex 1.153792e+003 1.351417e+003 2.248390e+003
         vertex 1.123792e+003 1.411117e+003 2.248390e+003
         vertex 1.124365e+003 1.411167e+003 2.248390e+003
      endloop
   endfacet
   facet normal -2.170522e-017 -9.952441e-017 -1.000000e+000
      outer loop
         vertex 1.153792e+003 1.351417e+003 2.248390e+003
         vertex 1.124365e+003 1.411167e+003 2.248390e+003
         vertex 1.124921e+003 1.411316e+003 2.248390e+003
      endloop
   endfacet
   facet normal -2.170522e-017 -9.952441e-017 -1.000000e+000
      outer loop
         vertex 1.125442e+003 1.411559e+003 2.248390e+003
         vertex 1.125913e+003 1.411889e+003 2.248390e+003
         vertex 1.153792e+003 1.351417e+003 2.248390e+003
      endloop
   endfacet
   facet normal -2.170522e-017 -9.952441e-017 -1.000000e+000
      outer loop
         vertex 1.153792e+003 1.351417e+003 2.248390e+003
         vertex 1.125913e+003 1.411889e+003 2.248390e+003
         vertex 1.126320e+003 1.412296e+003 2.248390e+003
      endloop
   endfacet
   facet normal -2.170522e-017 -9.952441e-017 -1.000000e+000
      outer loop
         vertex 1.153792e+003 1.351417e+003 2.248390e+003
         vertex 1.126320e+003 1.412296e+003 2.248390e+003
         vertex 1.126650e+003 1.412767e+003 2.248390e+003
      endloop
   endfacet
   facet normal -2.170522e-017 -9.952441e-017 -1.000000e+000
      outer loop
         vertex 1.144365e+003 1.411167e+003 2.248390e+003
         vertex 1.144921e+003 1.411316e+003 2.248390e+003
         vertex 1.153792e+003 1.351417e+003 2.248390e+003
      endloop
   endfacet
   facet normal -2.170522e-017 -9.952441e-017 -1.000000e+000
      outer loop
         vertex 1.153792e+003 1.351417e+003 2.248390e+003
         vertex 1.144921e+003 1.411316e+003 2.248390e+003
         vertex 1.145442e+003 1.411559e+003 2.248390e+003
      endloop
   endfacet
   facet normal -2.170522e-017 -9.952441e-017 -1.000000e+000
      outer loop
         vertex 1.113792e+003 1.434417e+003 2.248390e+003
         vertex 1.120934e+003 1.416067e+003 2.248390e+003
         vertex 1.120691e+003 1.415546e+003 2.248390e+003
      endloop
   endfacet
   facet normal -2.170522e-017 -9.952441e-017 -1.000000e+000
      outer loop
         vertex 1.120691e+003 1.415546e+003 2.248390e+003
         vertex 1.120542e+003 1.414990e+003 2.248390e+003
         vertex 1.113792e+003 1.434417e+003 2.248390e+003
      endloop
   endfacet
   facet normal -2.170522e-017 -9.952441e-017 -1.000000e+000
      outer loop
         vertex 1.113792e+003 1.434417e+003 2.248390e+003
         vertex 1.120542e+003 1.414990e+003 2.248390e+003
         vertex 1.120492e+003 1.414417e+003 2.248390e+003
      endloop
   endfacet
   facet normal -2.170522e-017 -9.952441e-017 -1.000000e+000
      outer loop
         vertex 1.113792e+003 1.434417e+003 2.248390e+003
         vertex 1.120492e+003 1.414417e+003 2.248390e+003
         vertex 1.113792e+003 1.351417e+003 2.248390e+003
      endloop
   endfacet
   facet normal -2.170522e-017 -9.952441e-017 -1.000000e+000
      outer loop
         vertex 1.113792e+003 1.351417e+003 2.248390e+003
         vertex 1.120492e+003 1.414417e+003 2.248390e+003
         vertex 1.120542e+003 1.413844e+003 2.248390e+003
      endloop
   endfacet
   facet normal -2.170522e-017 -9.952441e-017 -1.000000e+000
      outer loop
         vertex 1.113792e+003 1.351417e+003 2.248390e+003
         vertex 1.120542e+003 1.413844e+003 2.248390e+003
         vertex 1.120691e+003 1.413289e+003 2.248390e+003
      endloop
   endfacet
   facet normal -2.170522e-017 -9.952441e-017 -1.000000e+000
      outer loop
         vertex 1.145442e+003 1.411559e+003 2.248390e+003
         vertex 1.145913e+003 1.411889e+003 2.248390e+003
         vertex 1.153792e+003 1.351417e+003 2.248390e+003
      endloop
   endfacet
   facet normal -2.170522e-017 -9.952441e-017 -1.000000e+000
      outer loop
         vertex 1.153792e+003 1.351417e+003 2.248390e+003
         vertex 1.145913e+003 1.411889e+003 2.248390e+003
         vertex 1.146320e+003 1.412296e+003 2.248390e+003
      endloop
   endfacet
   facet normal -2.170522e-017 -9.952441e-017 -1.000000e+000
      outer loop
         vertex 1.153792e+003 1.351417e+003 2.248390e+003
         vertex 1.146320e+003 1.412296e+003 2.248390e+003
         vertex 1.146650e+003 1.412767e+003 2.248390e+003
      endloop
   endfacet
   facet normal -2.170522e-017 -9.952441e-017 -1.000000e+000
      outer loop
         vertex 1.142142e+003 1.411559e+003 2.248390e+003
         vertex 1.142664e+003 1.411316e+003 2.248390e+003
         vertex 1.126650e+003 1.412767e+003 2.248390e+003
      endloop
   endfacet
   facet normal -2.170522e-017 -9.952441e-017 -1.000000e+000
      outer loop
         vertex 1.126650e+003 1.412767e+003 2.248390e+003
         vertex 1.142664e+003 1.411316e+003 2.248390e+003
         vertex 1.143219e+003 1.411167e+003 2.248390e+003
      endloop
   endfacet
   facet normal -2.170522e-017 -9.952441e-017 -1.000000e+000
      outer loop
         vertex 1.126650e+003 1.412767e+003 2.248390e+003
         vertex 1.143219e+003 1.411167e+003 2.248390e+003
         vertex 1.153792e+003 1.351417e+003 2.248390e+003
      endloop
   endfacet
   facet normal -2.170522e-017 -9.952441e-017 -1.000000e+000
      outer loop
         vertex 1.153792e+003 1.351417e+003 2.248390e+003
         vertex 1.143219e+003 1.411167e+003 2.248390e+003
         vertex 1.143792e+003 1.411117e+003 2.248390e+003
      endloop
   endfacet
   facet normal -2.170522e-017 -9.952441e-017 -1.000000e+000
      outer loop
         vertex 1.153792e+003 1.351417e+003 2.248390e+003
         vertex 1.143792e+003 1.411117e+003 2.248390e+003
         vertex 1.144365e+003 1.411167e+003 2.248390e+003
      endloop
   endfacet
   facet normal -2.170522e-017 -9.952441e-017 -1.000000e+000
      outer loop
         vertex 1.125913e+003 1.416945e+003 2.248390e+003
         vertex 1.125442e+003 1.417275e+003 2.248390e+003
         vertex 1.153792e+003 1.434417e+003 2.248390e+003
      endloop
   endfacet
   facet normal -2.170522e-017 -9.952441e-017 -1.000000e+000
      outer loop
         vertex 1.153792e+003 1.434417e+003 2.248390e+003
         vertex 1.125442e+003 1.417275e+003 2.248390e+003
         vertex 1.124921e+003 1.417518e+003 2.248390e+003
      endloop
   endfacet
   facet normal -2.170522e-017 -9.952441e-017 -1.000000e+000
      outer loop
         vertex 1.153792e+003 1.434417e+003 2.248390e+003
         vertex 1.124921e+003 1.417518e+003 2.248390e+003
         vertex 1.113792e+003 1.434417e+003 2.248390e+003
      endloop
   endfacet
   facet normal -2.170522e-017 -9.952441e-017 -1.000000e+000
      outer loop
         vertex 1.113792e+003 1.434417e+003 2.248390e+003
         vertex 1.124921e+003 1.417518e+003 2.248390e+003
         vertex 1.124365e+003 1.417667e+003 2.248390e+003
      endloop
   endfacet
   facet normal -2.170522e-017 -9.952441e-017 -1.000000e+000
      outer loop
         vertex 1.113792e+003 1.434417e+003 2.248390e+003
         vertex 1.124365e+003 1.417667e+003 2.248390e+003
         vertex 1.123792e+003 1.417717e+003 2.248390e+003
      endloop
   endfacet
   facet normal -2.170522e-017 -9.952441e-017 -1.000000e+000
      outer loop
         vertex 1.123792e+003 1.417717e+003 2.248390e+003
         vertex 1.123219e+003 1.417667e+003 2.248390e+003
         vertex 1.113792e+003 1.434417e+003 2.248390e+003
      endloop
   endfacet
   facet normal -2.170522e-017 -9.952441e-017 -1.000000e+000
      outer loop
         vertex 1.113792e+003 1.434417e+003 2.248390e+003
         vertex 1.123219e+003 1.417667e+003 2.248390e+003
         vertex 1.122663e+003 1.417518e+003 2.248390e+003
      endloop
   endfacet
   facet normal -2.170522e-017 -9.952441e-017 -1.000000e+000
      outer loop
         vertex 1.113792e+003 1.434417e+003 2.248390e+003
         vertex 1.122663e+003 1.417518e+003 2.248390e+003
         vertex 1.122142e+003 1.417275e+003 2.248390e+003
      endloop
   endfacet
   facet normal -2.170522e-017 -9.952441e-017 -1.000000e+000
      outer loop
         vertex 1.147042e+003 1.414990e+003 2.248390e+003
         vertex 1.146893e+003 1.415546e+003 2.248390e+003
         vertex 1.153792e+003 1.434417e+003 2.248390e+003
      endloop
   endfacet
   facet normal -2.170522e-017 -9.952441e-017 -1.000000e+000
      outer loop
         vertex 1.153792e+003 1.434417e+003 2.248390e+003
         vertex 1.146893e+003 1.415546e+003 2.248390e+003
         vertex 1.146650e+003 1.416067e+003 2.248390e+003
      endloop
   endfacet
   facet normal -2.170522e-017 -9.952441e-017 -1.000000e+000
      outer loop
         vertex 1.145442e+003 1.417275e+003 2.248390e+003
         vertex 1.144921e+003 1.417518e+003 2.248390e+003
         vertex 1.153792e+003 1.434417e+003 2.248390e+003
      endloop
   endfacet
   facet normal -2.170522e-017 -9.952441e-017 -1.000000e+000
      outer loop
         vertex 1.153792e+003 1.434417e+003 2.248390e+003
         vertex 1.144921e+003 1.417518e+003 2.248390e+003
         vertex 1.144365e+003 1.417667e+003 2.248390e+003
      endloop
   endfacet
   facet normal -2.170522e-017 -9.952441e-017 -1.000000e+000
      outer loop
         vertex 1.153792e+003 1.434417e+003 2.248390e+003
         vertex 1.144365e+003 1.417667e+003 2.248390e+003
         vertex 1.143792e+003 1.417717e+003 2.248390e+003
      endloop
   endfacet
   facet normal -2.170522e-017 -9.952441e-017 -1.000000e+000
      outer loop
         vertex 1.143792e+003 1.417717e+003 2.248390e+003
         vertex 1.143219e+003 1.417667e+003 2.248390e+003
         vertex 1.153792e+003 1.434417e+003 2.248390e+003
      endloop
   endfacet
   facet normal -2.170522e-017 -9.952441e-017 -1.000000e+000
      outer loop
         vertex 1.153792e+003 1.434417e+003 2.248390e+003
         vertex 1.143219e+003 1.417667e+003 2.248390e+003
         vertex 1.142664e+003 1.417518e+003 2.248390e+003
      endloop
   endfacet
   facet normal -2.170522e-017 -9.952441e-017 -1.000000e+000
      outer loop
         vertex 1.153792e+003 1.434417e+003 2.248390e+003
         vertex 1.142664e+003 1.417518e+003 2.248390e+003
         vertex 1.142142e+003 1.417275e+003 2.248390e+003
      endloop
   endfacet
   facet normal -2.170522e-017 -9.952441e-017 -1.000000e+000
      outer loop
         vertex 1.126650e+003 1.416067e+003 2.248390e+003
         vertex 1.153792e+003 1.434417e+003 2.248390e+003
         vertex 1.126893e+003 1.415546e+003 2.248390e+003
      endloop
   endfacet
   facet normal -2.170522e-017 -9.952441e-017 -1.000000e+000
      outer loop
         vertex 1.126893e+003 1.415546e+003 2.248390e+003
         vertex 1.153792e+003 1.434417e+003 2.248390e+003
         vertex 1.142142e+003 1.417275e+003 2.248390e+003
      endloop
   endfacet
   facet normal -2.170522e-017 -9.952441e-017 -1.000000e+000
      outer loop
         vertex 1.126893e+003 1.415546e+003 2.248390e+003
         vertex 1.142142e+003 1.417275e+003 2.248390e+003
         vertex 1.127042e+003 1.414990e+003 2.248390e+003
      endloop
   endfacet
   facet normal -2.170522e-017 -9.952441e-017 -1.000000e+000
      outer loop
         vertex 1.122142e+003 1.417275e+003 2.248390e+003
         vertex 1.121671e+003 1.416945e+003 2.248390e+003
         vertex 1.113792e+003 1.434417e+003 2.248390e+003
      endloop
   endfacet
   facet normal -2.170522e-017 -9.952441e-017 -1.000000e+000
      outer loop
         vertex 1.113792e+003 1.434417e+003 2.248390e+003
         vertex 1.121671e+003 1.416945e+003 2.248390e+003
         vertex 1.121264e+003 1.416538e+003 2.248390e+003
      endloop
   endfacet
   facet normal -2.170522e-017 -9.952441e-017 -1.000000e+000
      outer loop
         vertex 1.113792e+003 1.434417e+003 2.248390e+003
         vertex 1.121264e+003 1.416538e+003 2.248390e+003
         vertex 1.120934e+003 1.416067e+003 2.248390e+003
      endloop
   endfacet
   facet normal -2.170522e-017 -9.952441e-017 -1.000000e+000
      outer loop
         vertex 1.146650e+003 1.416067e+003 2.248390e+003
         vertex 1.146320e+003 1.416538e+003 2.248390e+003
         vertex 1.153792e+003 1.434417e+003 2.248390e+003
      endloop
   endfacet
   facet normal -2.170522e-017 -9.952441e-017 -1.000000e+000
      outer loop
         vertex 1.153792e+003 1.434417e+003 2.248390e+003
         vertex 1.146320e+003 1.416538e+003 2.248390e+003
         vertex 1.145913e+003 1.416945e+003 2.248390e+003
      endloop
   endfacet
   facet normal -2.170522e-017 -9.952441e-017 -1.000000e+000
      outer loop
         vertex 1.153792e+003 1.434417e+003 2.248390e+003
         vertex 1.145913e+003 1.416945e+003 2.248390e+003
         vertex 1.145442e+003 1.417275e+003 2.248390e+003
      endloop
   endfacet
   facet normal -2.170522e-017 -9.952441e-017 -1.000000e+000
      outer loop
         vertex 1.140542e+003 1.413844e+003 2.248390e+003
         vertex 1.140691e+003 1.413289e+003 2.248390e+003
         vertex 1.126650e+003 1.412767e+003 2.248390e+003
      endloop
   endfacet
   facet normal -2.170522e-017 -9.952441e-017 -1.000000e+000
      outer loop
         vertex 1.126650e+003 1.412767e+003 2.248390e+003
         vertex 1.140691e+003 1.413289e+003 2.248390e+003
         vertex 1.140934e+003 1.412767e+003 2.248390e+003
      endloop
   endfacet
   facet normal -2.170522e-017 -9.952441e-017 -1.000000e+000
      outer loop
         vertex 1.146650e+003 1.412767e+003 2.248390e+003
         vertex 1.146893e+003 1.413289e+003 2.248390e+003
         vertex 1.153792e+003 1.351417e+003 2.248390e+003
      endloop
   endfacet
   facet normal -2.170522e-017 -9.952441e-017 -1.000000e+000
      outer loop
         vertex 1.153792e+003 1.351417e+003 2.248390e+003
         vertex 1.146893e+003 1.413289e+003 2.248390e+003
         vertex 1.147042e+003 1.413844e+003 2.248390e+003
      endloop
   endfacet
   facet normal -2.170522e-017 -9.952441e-017 -1.000000e+000
      outer loop
         vertex 1.153792e+003 1.351417e+003 2.248390e+003
         vertex 1.147042e+003 1.413844e+003 2.248390e+003
         vertex 1.153792e+003 1.434417e+003 2.248390e+003
      endloop
   endfacet
   facet normal -2.170522e-017 -9.952441e-017 -1.000000e+000
      outer loop
         vertex 1.153792e+003 1.434417e+003 2.248390e+003
         vertex 1.147042e+003 1.413844e+003 2.248390e+003
         vertex 1.147092e+003 1.414417e+003 2.248390e+003
      endloop
   endfacet
   facet normal -2.170522e-017 -9.952441e-017 -1.000000e+000
      outer loop
         vertex 1.153792e+003 1.434417e+003 2.248390e+003
         vertex 1.147092e+003 1.414417e+003 2.248390e+003
         vertex 1.147042e+003 1.414990e+003 2.248390e+003
      endloop
   endfacet
   facet normal -2.170522e-017 -9.952441e-017 -1.000000e+000
      outer loop
         vertex 1.140934e+003 1.412767e+003 2.248390e+003
         vertex 1.141264e+003 1.412296e+003 2.248390e+003
         vertex 1.126650e+003 1.412767e+003 2.248390e+003
      endloop
   endfacet
   facet normal -2.170522e-017 -9.952441e-017 -1.000000e+000
      outer loop
         vertex 1.126650e+003 1.412767e+003 2.248390e+003
         vertex 1.141264e+003 1.412296e+003 2.248390e+003
         vertex 1.141671e+003 1.411889e+003 2.248390e+003
      endloop
   endfacet
   facet normal -2.170522e-017 -9.952441e-017 -1.000000e+000
      outer loop
         vertex 1.126650e+003 1.412767e+003 2.248390e+003
         vertex 1.141671e+003 1.411889e+003 2.248390e+003
         vertex 1.142142e+003 1.411559e+003 2.248390e+003
      endloop
   endfacet
   facet normal -2.170522e-017 -9.952441e-017 -1.000000e+000
      outer loop
         vertex 1.142142e+003 1.417275e+003 2.248390e+003
         vertex 1.141671e+003 1.416945e+003 2.248390e+003
         vertex 1.127042e+003 1.414990e+003 2.248390e+003
      endloop
   endfacet
   facet normal -2.170522e-017 -9.952441e-017 -1.000000e+000
      outer loop
         vertex 1.127042e+003 1.414990e+003 2.248390e+003
         vertex 1.141671e+003 1.416945e+003 2.248390e+003
         vertex 1.141264e+003 1.416538e+003 2.248390e+003
      endloop
   endfacet
   facet normal -2.170522e-017 -9.952441e-017 -1.000000e+000
      outer loop
         vertex 1.127042e+003 1.414990e+003 2.248390e+003
         vertex 1.141264e+003 1.416538e+003 2.248390e+003
         vertex 1.140934e+003 1.416067e+003 2.248390e+003
      endloop
   endfacet
   facet normal -2.170522e-017 -9.952441e-017 -1.000000e+000
      outer loop
         vertex 1.126650e+003 1.412767e+003 2.248390e+003
         vertex 1.126893e+003 1.413289e+003 2.248390e+003
         vertex 1.140542e+003 1.413844e+003 2.248390e+003
      endloop
   endfacet
   facet normal -2.170522e-017 -9.952441e-017 -1.000000e+000
      outer loop
         vertex 1.140542e+003 1.413844e+003 2.248390e+003
         vertex 1.126893e+003 1.413289e+003 2.248390e+003
         vertex 1.127042e+003 1.413844e+003 2.248390e+003
      endloop
   endfacet
   facet normal -2.170522e-017 -9.952441e-017 -1.000000e+000
      outer loop
         vertex 1.140542e+003 1.413844e+003 2.248390e+003
         vertex 1.127042e+003 1.413844e+003 2.248390e+003
         vertex 1.140492e+003 1.414417e+003 2.248390e+003
      endloop
   endfacet
   facet normal -2.170522e-017 -9.952441e-017 -1.000000e+000
      outer loop
         vertex 1.140492e+003 1.414417e+003 2.248390e+003
         vertex 1.127042e+003 1.413844e+003 2.248390e+003
         vertex 1.127092e+003 1.414417e+003 2.248390e+003
      endloop
   endfacet
   facet normal -2.170522e-017 -9.952441e-017 -1.000000e+000
      outer loop
         vertex 1.140492e+003 1.414417e+003 2.248390e+003
         vertex 1.127092e+003 1.414417e+003 2.248390e+003
         vertex 1.140542e+003 1.414990e+003 2.248390e+003
      endloop
   endfacet
   facet normal -2.170522e-017 -9.952441e-017 -1.000000e+000
      outer loop
         vertex 1.140542e+003 1.414990e+003 2.248390e+003
         vertex 1.127092e+003 1.414417e+003 2.248390e+003
         vertex 1.127042e+003 1.414990e+003 2.248390e+003
      endloop
   endfacet
   facet normal -2.170522e-017 -9.952441e-017 -1.000000e+000
      outer loop
         vertex 1.140542e+003 1.414990e+003 2.248390e+003
         vertex 1.127042e+003 1.414990e+003 2.248390e+003
         vertex 1.140691e+003 1.415546e+003 2.248390e+003
      endloop
   endfacet
   facet normal -2.170522e-017 -9.952441e-017 -1.000000e+000
      outer loop
         vertex 1.140691e+003 1.415546e+003 2.248390e+003
         vertex 1.127042e+003 1.414990e+003 2.248390e+003
         vertex 1.140934e+003 1.416067e+003 2.248390e+003
      endloop
   endfacet
   facet normal 2.170522e-017 9.952441e-017 1.000000e+000
      outer loop
         vertex 1.141671e+003 1.411889e+003 2.252390e+003
         vertex 1.125913e+003 1.416945e+003 2.252390e+003
         vertex 1.142142e+003 1.411559e+003 2.252390e+003
      endloop
   endfacet
   facet normal 2.170522e-017 9.952441e-017 1.000000e+000
      outer loop
         vertex 1.142142e+003 1.411559e+003 2.252390e+003
         vertex 1.125913e+003 1.416945e+003 2.252390e+003
         vertex 1.142664e+003 1.411316e+003 2.252390e+003
      endloop
   endfacet
   facet normal 2.170522e-017 9.952441e-017 1.000000e+000
      outer loop
         vertex 1.121671e+003 1.411889e+003 2.252390e+003
         vertex 1.121264e+003 1.412296e+003 2.252390e+003
         vertex 1.113792e+003 1.351417e+003 2.252390e+003
      endloop
   endfacet
   facet normal 2.170522e-017 9.952441e-017 1.000000e+000
      outer loop
         vertex 1.113792e+003 1.351417e+003 2.252390e+003
         vertex 1.121264e+003 1.412296e+003 2.252390e+003
         vertex 1.120934e+003 1.412767e+003 2.252390e+003
      endloop
   endfacet
   facet normal 2.170522e-017 9.952441e-017 1.000000e+000
      outer loop
         vertex 1.124365e+003 1.417667e+003 2.252390e+003
         vertex 1.124921e+003 1.417518e+003 2.252390e+003
         vertex 1.113792e+003 1.434417e+003 2.252390e+003
      endloop
   endfacet
   facet normal 2.170522e-017 9.952441e-017 1.000000e+000
      outer loop
         vertex 1.125913e+003 1.416945e+003 2.252390e+003
         vertex 1.126320e+003 1.416538e+003 2.252390e+003
         vertex 1.142664e+003 1.411316e+003 2.252390e+003
      endloop
   endfacet
   facet normal 2.170522e-017 9.952441e-017 1.000000e+000
      outer loop
         vertex 1.142664e+003 1.411316e+003 2.252390e+003
         vertex 1.126320e+003 1.416538e+003 2.252390e+003
         vertex 1.126650e+003 1.416067e+003 2.252390e+003
      endloop
   endfacet
   facet normal 2.170522e-017 9.952441e-017 1.000000e+000
      outer loop
         vertex 1.142664e+003 1.411316e+003 2.252390e+003
         vertex 1.126650e+003 1.416067e+003 2.252390e+003
         vertex 1.126893e+003 1.415546e+003 2.252390e+003
      endloop
   endfacet
   facet normal 2.170522e-017 9.952441e-017 1.000000e+000
      outer loop
         vertex 1.122663e+003 1.417518e+003 2.252390e+003
         vertex 1.123219e+003 1.417667e+003 2.252390e+003
         vertex 1.113792e+003 1.434417e+003 2.252390e+003
      endloop
   endfacet
   facet normal 2.170522e-017 9.952441e-017 1.000000e+000
      outer loop
         vertex 1.113792e+003 1.434417e+003 2.252390e+003
         vertex 1.123219e+003 1.417667e+003 2.252390e+003
         vertex 1.123792e+003 1.417717e+003 2.252390e+003
      endloop
   endfacet
   facet normal 2.170522e-017 9.952441e-017 1.000000e+000
      outer loop
         vertex 1.113792e+003 1.434417e+003 2.252390e+003
         vertex 1.123792e+003 1.417717e+003 2.252390e+003
         vertex 1.124365e+003 1.417667e+003 2.252390e+003
      endloop
   endfacet
   facet normal 2.170522e-017 9.952441e-017 1.000000e+000
      outer loop
         vertex 1.153792e+003 1.434417e+003 2.252390e+003
         vertex 1.113792e+003 1.434417e+003 2.252390e+003
         vertex 1.142664e+003 1.417518e+003 2.252390e+003
      endloop
   endfacet
   facet normal 2.170522e-017 9.952441e-017 1.000000e+000
      outer loop
         vertex 1.142664e+003 1.417518e+003 2.252390e+003
         vertex 1.143219e+003 1.417667e+003 2.252390e+003
         vertex 1.153792e+003 1.434417e+003 2.252390e+003
      endloop
   endfacet
   facet normal 2.170522e-017 9.952441e-017 1.000000e+000
      outer loop
         vertex 1.153792e+003 1.434417e+003 2.252390e+003
         vertex 1.143219e+003 1.417667e+003 2.252390e+003
         vertex 1.143792e+003 1.417717e+003 2.252390e+003
      endloop
   endfacet
   facet normal 2.170522e-017 9.952441e-017 1.000000e+000
      outer loop
         vertex 1.153792e+003 1.434417e+003 2.252390e+003
         vertex 1.143792e+003 1.417717e+003 2.252390e+003
         vertex 1.144365e+003 1.417667e+003 2.252390e+003
      endloop
   endfacet
   facet normal 2.170522e-017 9.952441e-017 1.000000e+000
      outer loop
         vertex 1.120934e+003 1.412767e+003 2.252390e+003
         vertex 1.120691e+003 1.413289e+003 2.252390e+003
         vertex 1.113792e+003 1.351417e+003 2.252390e+003
      endloop
   endfacet
   facet normal 2.170522e-017 9.952441e-017 1.000000e+000
      outer loop
         vertex 1.113792e+003 1.351417e+003 2.252390e+003
         vertex 1.120691e+003 1.413289e+003 2.252390e+003
         vertex 1.120542e+003 1.413844e+003 2.252390e+003
      endloop
   endfacet
   facet normal 2.170522e-017 9.952441e-017 1.000000e+000
      outer loop
         vertex 1.113792e+003 1.351417e+003 2.252390e+003
         vertex 1.120542e+003 1.413844e+003 2.252390e+003
         vertex 1.113792e+003 1.434417e+003 2.252390e+003
      endloop
   endfacet
   facet normal 2.170522e-017 9.952441e-017 1.000000e+000
      outer loop
         vertex 1.113792e+003 1.434417e+003 2.252390e+003
         vertex 1.120542e+003 1.413844e+003 2.252390e+003
         vertex 1.120492e+003 1.414417e+003 2.252390e+003
      endloop
   endfacet
   facet normal 2.170522e-017 9.952441e-017 1.000000e+000
      outer loop
         vertex 1.113792e+003 1.434417e+003 2.252390e+003
         vertex 1.120492e+003 1.414417e+003 2.252390e+003
         vertex 1.120542e+003 1.414990e+003 2.252390e+003
      endloop
   endfacet
   facet normal 2.170522e-017 9.952441e-017 1.000000e+000
      outer loop
         vertex 1.123219e+003 1.411167e+003 2.252390e+003
         vertex 1.122663e+003 1.411316e+003 2.252390e+003
         vertex 1.113792e+003 1.351417e+003 2.252390e+003
      endloop
   endfacet
   facet normal 2.170522e-017 9.952441e-017 1.000000e+000
      outer loop
         vertex 1.113792e+003 1.351417e+003 2.252390e+003
         vertex 1.122663e+003 1.411316e+003 2.252390e+003
         vertex 1.122142e+003 1.411559e+003 2.252390e+003
      endloop
   endfacet
   facet normal 2.170522e-017 9.952441e-017 1.000000e+000
      outer loop
         vertex 1.113792e+003 1.351417e+003 2.252390e+003
         vertex 1.122142e+003 1.411559e+003 2.252390e+003
         vertex 1.121671e+003 1.411889e+003 2.252390e+003
      endloop
   endfacet
   facet normal 2.170522e-017 9.952441e-017 1.000000e+000
      outer loop
         vertex 1.120542e+003 1.414990e+003 2.252390e+003
         vertex 1.120691e+003 1.415546e+003 2.252390e+003
         vertex 1.113792e+003 1.434417e+003 2.252390e+003
      endloop
   endfacet
   facet normal 2.170522e-017 9.952441e-017 1.000000e+000
      outer loop
         vertex 1.113792e+003 1.434417e+003 2.252390e+003
         vertex 1.120691e+003 1.415546e+003 2.252390e+003
         vertex 1.120934e+003 1.416067e+003 2.252390e+003
      endloop
   endfacet
   facet normal 2.170522e-017 9.952441e-017 1.000000e+000
      outer loop
         vertex 1.113792e+003 1.434417e+003 2.252390e+003
         vertex 1.120934e+003 1.416067e+003 2.252390e+003
         vertex 1.121264e+003 1.416538e+003 2.252390e+003
      endloop
   endfacet
   facet normal 2.170522e-017 9.952441e-017 1.000000e+000
      outer loop
         vertex 1.141671e+003 1.411889e+003 2.252390e+003
         vertex 1.141264e+003 1.412296e+003 2.252390e+003
         vertex 1.125913e+003 1.416945e+003 2.252390e+003
      endloop
   endfacet
   facet normal 2.170522e-017 9.952441e-017 1.000000e+000
      outer loop
         vertex 1.125913e+003 1.416945e+003 2.252390e+003
         vertex 1.141264e+003 1.412296e+003 2.252390e+003
         vertex 1.140934e+003 1.412767e+003 2.252390e+003
      endloop
   endfacet
   facet normal 2.170522e-017 9.952441e-017 1.000000e+000
      outer loop
         vertex 1.125913e+003 1.416945e+003 2.252390e+003
         vertex 1.140934e+003 1.412767e+003 2.252390e+003
         vertex 1.140691e+003 1.413289e+003 2.252390e+003
      endloop
   endfacet
   facet normal 2.170522e-017 9.952441e-017 1.000000e+000
      outer loop
         vertex 1.141264e+003 1.416538e+003 2.252390e+003
         vertex 1.141671e+003 1.416945e+003 2.252390e+003
         vertex 1.113792e+003 1.434417e+003 2.252390e+003
      endloop
   endfacet
   facet normal 2.170522e-017 9.952441e-017 1.000000e+000
      outer loop
         vertex 1.113792e+003 1.434417e+003 2.252390e+003
         vertex 1.141671e+003 1.416945e+003 2.252390e+003
         vertex 1.142142e+003 1.417275e+003 2.252390e+003
      endloop
   endfacet
   facet normal 2.170522e-017 9.952441e-017 1.000000e+000
      outer loop
         vertex 1.113792e+003 1.434417e+003 2.252390e+003
         vertex 1.142142e+003 1.417275e+003 2.252390e+003
         vertex 1.142664e+003 1.417518e+003 2.252390e+003
      endloop
   endfacet
   facet normal 2.170522e-017 9.952441e-017 1.000000e+000
      outer loop
         vertex 1.126893e+003 1.415546e+003 2.252390e+003
         vertex 1.127042e+003 1.414990e+003 2.252390e+003
         vertex 1.142664e+003 1.411316e+003 2.252390e+003
      endloop
   endfacet
   facet normal 2.170522e-017 9.952441e-017 1.000000e+000
      outer loop
         vertex 1.142664e+003 1.411316e+003 2.252390e+003
         vertex 1.127042e+003 1.414990e+003 2.252390e+003
         vertex 1.127092e+003 1.414417e+003 2.252390e+003
      endloop
   endfacet
   facet normal 2.170522e-017 9.952441e-017 1.000000e+000
      outer loop
         vertex 1.142664e+003 1.411316e+003 2.252390e+003
         vertex 1.127092e+003 1.414417e+003 2.252390e+003
         vertex 1.143219e+003 1.411167e+003 2.252390e+003
      endloop
   endfacet
   facet normal 2.170522e-017 9.952441e-017 1.000000e+000
      outer loop
         vertex 1.143219e+003 1.411167e+003 2.252390e+003
         vertex 1.127092e+003 1.414417e+003 2.252390e+003
         vertex 1.127042e+003 1.413844e+003 2.252390e+003
      endloop
   endfacet
   facet normal 2.170522e-017 9.952441e-017 1.000000e+000
      outer loop
         vertex 1.143219e+003 1.411167e+003 2.252390e+003
         vertex 1.127042e+003 1.413844e+003 2.252390e+003
         vertex 1.126893e+003 1.413289e+003 2.252390e+003
      endloop
   endfacet
   facet normal 2.170522e-017 9.952441e-017 1.000000e+000
      outer loop
         vertex 1.144921e+003 1.411316e+003 2.252390e+003
         vertex 1.153792e+003 1.351417e+003 2.252390e+003
         vertex 1.145442e+003 1.411559e+003 2.252390e+003
      endloop
   endfacet
   facet normal 2.170522e-017 9.952441e-017 1.000000e+000
      outer loop
         vertex 1.145442e+003 1.411559e+003 2.252390e+003
         vertex 1.153792e+003 1.351417e+003 2.252390e+003
         vertex 1.145913e+003 1.411889e+003 2.252390e+003
      endloop
   endfacet
   facet normal 2.170522e-017 9.952441e-017 1.000000e+000
      outer loop
         vertex 1.121264e+003 1.416538e+003 2.252390e+003
         vertex 1.121671e+003 1.416945e+003 2.252390e+003
         vertex 1.113792e+003 1.434417e+003 2.252390e+003
      endloop
   endfacet
   facet normal 2.170522e-017 9.952441e-017 1.000000e+000
      outer loop
         vertex 1.113792e+003 1.434417e+003 2.252390e+003
         vertex 1.121671e+003 1.416945e+003 2.252390e+003
         vertex 1.122142e+003 1.417275e+003 2.252390e+003
      endloop
   endfacet
   facet normal 2.170522e-017 9.952441e-017 1.000000e+000
      outer loop
         vertex 1.113792e+003 1.434417e+003 2.252390e+003
         vertex 1.122142e+003 1.417275e+003 2.252390e+003
         vertex 1.122663e+003 1.417518e+003 2.252390e+003
      endloop
   endfacet
   facet normal 2.170522e-017 9.952441e-017 1.000000e+000
      outer loop
         vertex 1.144365e+003 1.417667e+003 2.252390e+003
         vertex 1.144921e+003 1.417518e+003 2.252390e+003
         vertex 1.153792e+003 1.434417e+003 2.252390e+003
      endloop
   endfacet
   facet normal 2.170522e-017 9.952441e-017 1.000000e+000
      outer loop
         vertex 1.153792e+003 1.434417e+003 2.252390e+003
         vertex 1.144921e+003 1.417518e+003 2.252390e+003
         vertex 1.145442e+003 1.417275e+003 2.252390e+003
      endloop
   endfacet
   facet normal 2.170522e-017 9.952441e-017 1.000000e+000
      outer loop
         vertex 1.153792e+003 1.434417e+003 2.252390e+003
         vertex 1.145442e+003 1.417275e+003 2.252390e+003
         vertex 1.145913e+003 1.416945e+003 2.252390e+003
      endloop
   endfacet
   facet normal 2.170522e-017 9.952441e-017 1.000000e+000
      outer loop
         vertex 1.125442e+003 1.411559e+003 2.252390e+003
         vertex 1.124921e+003 1.411316e+003 2.252390e+003
         vertex 1.153792e+003 1.351417e+003 2.252390e+003
      endloop
   endfacet
   facet normal 2.170522e-017 9.952441e-017 1.000000e+000
      outer loop
         vertex 1.153792e+003 1.351417e+003 2.252390e+003
         vertex 1.124921e+003 1.411316e+003 2.252390e+003
         vertex 1.124365e+003 1.411167e+003 2.252390e+003
      endloop
   endfacet
   facet normal 2.170522e-017 9.952441e-017 1.000000e+000
      outer loop
         vertex 1.153792e+003 1.351417e+003 2.252390e+003
         vertex 1.124365e+003 1.411167e+003 2.252390e+003
         vertex 1.113792e+003 1.351417e+003 2.252390e+003
      endloop
   endfacet
   facet normal 2.170522e-017 9.952441e-017 1.000000e+000
      outer loop
         vertex 1.113792e+003 1.351417e+003 2.252390e+003
         vertex 1.124365e+003 1.411167e+003 2.252390e+003
         vertex 1.123792e+003 1.411117e+003 2.252390e+003
      endloop
   endfacet
   facet normal 2.170522e-017 9.952441e-017 1.000000e+000
      outer loop
         vertex 1.113792e+003 1.351417e+003 2.252390e+003
         vertex 1.123792e+003 1.411117e+003 2.252390e+003
         vertex 1.123219e+003 1.411167e+003 2.252390e+003
      endloop
   endfacet
   facet normal 2.170522e-017 9.952441e-017 1.000000e+000
      outer loop
         vertex 1.140691e+003 1.413289e+003 2.252390e+003
         vertex 1.140542e+003 1.413844e+003 2.252390e+003
         vertex 1.125913e+003 1.416945e+003 2.252390e+003
      endloop
   endfacet
   facet normal 2.170522e-017 9.952441e-017 1.000000e+000
      outer loop
         vertex 1.125913e+003 1.416945e+003 2.252390e+003
         vertex 1.140542e+003 1.413844e+003 2.252390e+003
         vertex 1.140492e+003 1.414417e+003 2.252390e+003
      endloop
   endfacet
   facet normal 2.170522e-017 9.952441e-017 1.000000e+000
      outer loop
         vertex 1.125913e+003 1.416945e+003 2.252390e+003
         vertex 1.140492e+003 1.414417e+003 2.252390e+003
         vertex 1.125442e+003 1.417275e+003 2.252390e+003
      endloop
   endfacet
   facet normal 2.170522e-017 9.952441e-017 1.000000e+000
      outer loop
         vertex 1.125442e+003 1.417275e+003 2.252390e+003
         vertex 1.140492e+003 1.414417e+003 2.252390e+003
         vertex 1.140542e+003 1.414990e+003 2.252390e+003
      endloop
   endfacet
   facet normal 2.170522e-017 9.952441e-017 1.000000e+000
      outer loop
         vertex 1.125442e+003 1.417275e+003 2.252390e+003
         vertex 1.140542e+003 1.414990e+003 2.252390e+003
         vertex 1.124921e+003 1.417518e+003 2.252390e+003
      endloop
   endfacet
   facet normal 2.170522e-017 9.952441e-017 1.000000e+000
      outer loop
         vertex 1.124921e+003 1.417518e+003 2.252390e+003
         vertex 1.140542e+003 1.414990e+003 2.252390e+003
         vertex 1.140691e+003 1.415546e+003 2.252390e+003
      endloop
   endfacet
   facet normal 2.170522e-017 9.952441e-017 1.000000e+000
      outer loop
         vertex 1.124921e+003 1.417518e+003 2.252390e+003
         vertex 1.140691e+003 1.415546e+003 2.252390e+003
         vertex 1.113792e+003 1.434417e+003 2.252390e+003
      endloop
   endfacet
   facet normal 2.170522e-017 9.952441e-017 1.000000e+000
      outer loop
         vertex 1.113792e+003 1.434417e+003 2.252390e+003
         vertex 1.140691e+003 1.415546e+003 2.252390e+003
         vertex 1.140934e+003 1.416067e+003 2.252390e+003
      endloop
   endfacet
   facet normal 2.170522e-017 9.952441e-017 1.000000e+000
      outer loop
         vertex 1.113792e+003 1.434417e+003 2.252390e+003
         vertex 1.140934e+003 1.416067e+003 2.252390e+003
         vertex 1.141264e+003 1.416538e+003 2.252390e+003
      endloop
   endfacet
   facet normal 2.170522e-017 9.952441e-017 1.000000e+000
      outer loop
         vertex 1.146893e+003 1.413289e+003 2.252390e+003
         vertex 1.146650e+003 1.412767e+003 2.252390e+003
         vertex 1.153792e+003 1.351417e+003 2.252390e+003
      endloop
   endfacet
   facet normal 2.170522e-017 9.952441e-017 1.000000e+000
      outer loop
         vertex 1.153792e+003 1.351417e+003 2.252390e+003
         vertex 1.146650e+003 1.412767e+003 2.252390e+003
         vertex 1.146320e+003 1.412296e+003 2.252390e+003
      endloop
   endfacet
   facet normal 2.170522e-017 9.952441e-017 1.000000e+000
      outer loop
         vertex 1.153792e+003 1.351417e+003 2.252390e+003
         vertex 1.146320e+003 1.412296e+003 2.252390e+003
         vertex 1.145913e+003 1.411889e+003 2.252390e+003
      endloop
   endfacet
   facet normal 2.170522e-017 9.952441e-017 1.000000e+000
      outer loop
         vertex 1.145913e+003 1.416945e+003 2.252390e+003
         vertex 1.146320e+003 1.416538e+003 2.252390e+003
         vertex 1.153792e+003 1.434417e+003 2.252390e+003
      endloop
   endfacet
   facet normal 2.170522e-017 9.952441e-017 1.000000e+000
      outer loop
         vertex 1.153792e+003 1.434417e+003 2.252390e+003
         vertex 1.146320e+003 1.416538e+003 2.252390e+003
         vertex 1.146650e+003 1.416067e+003 2.252390e+003
      endloop
   endfacet
   facet normal 2.170522e-017 9.952441e-017 1.000000e+000
      outer loop
         vertex 1.153792e+003 1.434417e+003 2.252390e+003
         vertex 1.146650e+003 1.416067e+003 2.252390e+003
         vertex 1.146893e+003 1.415546e+003 2.252390e+003
      endloop
   endfacet
   facet normal 2.170522e-017 9.952441e-017 1.000000e+000
      outer loop
         vertex 1.144921e+003 1.411316e+003 2.252390e+003
         vertex 1.144365e+003 1.411167e+003 2.252390e+003
         vertex 1.153792e+003 1.351417e+003 2.252390e+003
      endloop
   endfacet
   facet normal 2.170522e-017 9.952441e-017 1.000000e+000
      outer loop
         vertex 1.153792e+003 1.351417e+003 2.252390e+003
         vertex 1.144365e+003 1.411167e+003 2.252390e+003
         vertex 1.143792e+003 1.411117e+003 2.252390e+003
      endloop
   endfacet
   facet normal 2.170522e-017 9.952441e-017 1.000000e+000
      outer loop
         vertex 1.153792e+003 1.351417e+003 2.252390e+003
         vertex 1.143792e+003 1.411117e+003 2.252390e+003
         vertex 1.143219e+003 1.411167e+003 2.252390e+003
      endloop
   endfacet
   facet normal 2.170522e-017 9.952441e-017 1.000000e+000
      outer loop
         vertex 1.146893e+003 1.415546e+003 2.252390e+003
         vertex 1.147042e+003 1.414990e+003 2.252390e+003
         vertex 1.153792e+003 1.434417e+003 2.252390e+003
      endloop
   endfacet
   facet normal 2.170522e-017 9.952441e-017 1.000000e+000
      outer loop
         vertex 1.153792e+003 1.434417e+003 2.252390e+003
         vertex 1.147042e+003 1.414990e+003 2.252390e+003
         vertex 1.147092e+003 1.414417e+003 2.252390e+003
      endloop
   endfacet
   facet normal 2.170522e-017 9.952441e-017 1.000000e+000
      outer loop
         vertex 1.153792e+003 1.434417e+003 2.252390e+003
         vertex 1.147092e+003 1.414417e+003 2.252390e+003
         vertex 1.153792e+003 1.351417e+003 2.252390e+003
      endloop
   endfacet
   facet normal 2.170522e-017 9.952441e-017 1.000000e+000
      outer loop
         vertex 1.153792e+003 1.351417e+003 2.252390e+003
         vertex 1.147092e+003 1.414417e+003 2.252390e+003
         vertex 1.147042e+003 1.413844e+003 2.252390e+003
      endloop
   endfacet
   facet normal 2.170522e-017 9.952441e-017 1.000000e+000
      outer loop
         vertex 1.153792e+003 1.351417e+003 2.252390e+003
         vertex 1.147042e+003 1.413844e+003 2.252390e+003
         vertex 1.146893e+003 1.413289e+003 2.252390e+003
      endloop
   endfacet
   facet normal 2.170522e-017 9.952441e-017 1.000000e+000
      outer loop
         vertex 1.126893e+003 1.413289e+003 2.252390e+003
         vertex 1.126650e+003 1.412767e+003 2.252390e+003
         vertex 1.143219e+003 1.411167e+003 2.252390e+003
      endloop
   endfacet
   facet normal 2.170522e-017 9.952441e-017 1.000000e+000
      outer loop
         vertex 1.143219e+003 1.411167e+003 2.252390e+003
         vertex 1.126650e+003 1.412767e+003 2.252390e+003
         vertex 1.126320e+003 1.412296e+003 2.252390e+003
      endloop
   endfacet
   facet normal 2.170522e-017 9.952441e-017 1.000000e+000
      outer loop
         vertex 1.143219e+003 1.411167e+003 2.252390e+003
         vertex 1.126320e+003 1.412296e+003 2.252390e+003
         vertex 1.153792e+003 1.351417e+003 2.252390e+003
      endloop
   endfacet
   facet normal 2.170522e-017 9.952441e-017 1.000000e+000
      outer loop
         vertex 1.153792e+003 1.351417e+003 2.252390e+003
         vertex 1.126320e+003 1.412296e+003 2.252390e+003
         vertex 1.125913e+003 1.411889e+003 2.252390e+003
      endloop
   endfacet
   facet normal 2.170522e-017 9.952441e-017 1.000000e+000
      outer loop
         vertex 1.153792e+003 1.351417e+003 2.252390e+003
         vertex 1.125913e+003 1.411889e+003 2.252390e+003
         vertex 1.125442e+003 1.411559e+003 2.252390e+003
      endloop
   endfacet
   facet normal 9.983120e-001 5.807914e-002 -2.744887e-017
      outer loop
         vertex 1.140542e+003 1.413844e+003 2.252390e+003
         vertex 1.140492e+003 1.414417e+003 2.248390e+003
         vertex 1.140492e+003 1.414417e+003 2.252390e+003
      endloop
   endfacet
   facet normal 9.983120e-001 -5.807914e-002 -1.588829e-017
      outer loop
         vertex 1.140492e+003 1.414417e+003 2.252390e+003
         vertex 1.140492e+003 1.414417e+003 2.248390e+003
         vertex 1.140542e+003 1.414990e+003 2.248390e+003
      endloop
   endfacet
   facet normal 9.932307e-001 -1.161583e-001 -9.997707e-018
      outer loop
         vertex 1.140492e+003 1.414417e+003 2.252390e+003
         vertex 1.140542e+003 1.414990e+003 2.248390e+003
         vertex 1.140542e+003 1.414990e+003 2.252390e+003
      endloop
   endfacet
   facet normal 9.730601e-001 -2.305518e-001 1.825054e-018
      outer loop
         vertex 1.140542e+003 1.414990e+003 2.252390e+003
         vertex 1.140542e+003 1.414990e+003 2.248390e+003
         vertex 1.140691e+003 1.415546e+003 2.248390e+003
      endloop
   endfacet
   facet normal 9.579706e-001 -2.868663e-001 7.757235e-018
      outer loop
         vertex 1.140542e+003 1.414990e+003 2.252390e+003
         vertex 1.140691e+003 1.415546e+003 2.248390e+003
         vertex 1.140691e+003 1.415546e+003 2.252390e+003
      endloop
   endfacet
   facet normal 9.182422e-001 -3.960194e-001 1.948295e-017
      outer loop
         vertex 1.140691e+003 1.415546e+003 2.252390e+003
         vertex 1.140691e+003 1.415546e+003 2.248390e+003
         vertex 1.140934e+003 1.416067e+003 2.248390e+003
      endloop
   endfacet
   facet normal 8.936031e-001 -4.488580e-001 2.527648e-017
      outer loop
         vertex 1.140691e+003 1.415546e+003 2.252390e+003
         vertex 1.140934e+003 1.416067e+003 2.248390e+003
         vertex 1.140934e+003 1.416067e+003 2.252390e+003
      endloop
   endfacet
   facet normal 8.355240e-001 -5.494540e-001 3.654885e-017
      outer loop
         vertex 1.140934e+003 1.416067e+003 2.252390e+003
         vertex 1.140934e+003 1.416067e+003 2.248390e+003
         vertex 1.141264e+003 1.416538e+003 2.248390e+003
      endloop
   endfacet
   facet normal 8.020839e-001 -5.972114e-001 4.202771e-017
      outer loop
         vertex 1.140934e+003 1.416067e+003 2.252390e+003
         vertex 1.141264e+003 1.416538e+003 2.248390e+003
         vertex 1.141264e+003 1.416538e+003 2.252390e+003
      endloop
   endfacet
   facet normal 7.274188e-001 -6.861938e-001 5.250425e-017
      outer loop
         vertex 1.141264e+003 1.416538e+003 2.252390e+003
         vertex 1.141264e+003 1.416538e+003 2.248390e+003
         vertex 1.141671e+003 1.416945e+003 2.248390e+003
      endloop
   endfacet
   facet normal 6.861938e-001 -7.274188e-001 5.750194e-017
      outer loop
         vertex 1.141264e+003 1.416538e+003 2.252390e+003
         vertex 1.141671e+003 1.416945e+003 2.248390e+003
         vertex 1.141671e+003 1.416945e+003 2.252390e+003
      endloop
   endfacet
   facet normal 5.972114e-001 -8.020839e-001 6.686432e-017
      outer loop
         vertex 1.141671e+003 1.416945e+003 2.252390e+003
         vertex 1.141671e+003 1.416945e+003 2.248390e+003
         vertex 1.142142e+003 1.417275e+003 2.248390e+003
      endloop
   endfacet
   facet normal 5.494540e-001 -8.355240e-001 7.122902e-017
      outer loop
         vertex 1.141671e+003 1.416945e+003 2.252390e+003
         vertex 1.142142e+003 1.417275e+003 2.248390e+003
         vertex 1.142142e+003 1.417275e+003 2.252390e+003
      endloop
   endfacet
   facet normal 4.488580e-001 -8.936031e-001 7.919276e-017
      outer loop
         vertex 1.142142e+003 1.417275e+003 2.252390e+003
         vertex 1.142142e+003 1.417275e+003 2.248390e+003
         vertex 1.142664e+003 1.417518e+003 2.248390e+003
      endloop
   endfacet
   facet normal 3.960194e-001 -9.182422e-001 8.279183e-017
      outer loop
         vertex 1.142142e+003 1.417275e+003 2.252390e+003
         vertex 1.142664e+003 1.417518e+003 2.248390e+003
         vertex 1.142664e+003 1.417518e+003 2.252390e+003
      endloop
   endfacet
   facet normal 2.868663e-001 -9.579706e-001 8.911497e-017
      outer loop
         vertex 1.142664e+003 1.417518e+003 2.252390e+003
         vertex 1.142664e+003 1.417518e+003 2.248390e+003
         vertex 1.143219e+003 1.417667e+003 2.248390e+003
      endloop
   endfacet
   facet normal 2.305518e-001 -9.730601e-001 9.183905e-017
      outer loop
         vertex 1.142664e+003 1.417518e+003 2.252390e+003
         vertex 1.143219e+003 1.417667e+003 2.248390e+003
         vertex 1.143219e+003 1.417667e+003 2.252390e+003
      endloop
   endfacet
   facet normal 1.161583e-001 -9.932307e-001 9.632946e-017
      outer loop
         vertex 1.143219e+003 1.417667e+003 2.252390e+003
         vertex 1.143219e+003 1.417667e+003 2.248390e+003
         vertex 1.143792e+003 1.417717e+003 2.248390e+003
      endloop
   endfacet
   facet normal 5.807914e-002 -9.983120e-001 9.809580e-017
      outer loop
         vertex 1.143219e+003 1.417667e+003 2.252390e+003
         vertex 1.143792e+003 1.417717e+003 2.248390e+003
         vertex 1.143792e+003 1.417717e+003 2.252390e+003
      endloop
   endfacet
   facet normal -5.807914e-002 -9.983120e-001 1.006170e-016
      outer loop
         vertex 1.143792e+003 1.417717e+003 2.252390e+003
         vertex 1.143792e+003 1.417717e+003 2.248390e+003
         vertex 1.144365e+003 1.417667e+003 2.248390e+003
      endloop
   endfacet
   facet normal -1.161583e-001 -9.932307e-001 1.013720e-016
      outer loop
         vertex 1.143792e+003 1.417717e+003 2.252390e+003
         vertex 1.144365e+003 1.417667e+003 2.248390e+003
         vertex 1.144365e+003 1.417667e+003 2.252390e+003
      endloop
   endfacet
   facet normal -2.305518e-001 -9.730601e-001 1.018474e-016
      outer loop
         vertex 1.144365e+003 1.417667e+003 2.252390e+003
         vertex 1.144365e+003 1.417667e+003 2.248390e+003
         vertex 1.144921e+003 1.417518e+003 2.248390e+003
      endloop
   endfacet
   facet normal -2.868663e-001 -9.579706e-001 1.015680e-016
      outer loop
         vertex 1.144365e+003 1.417667e+003 2.252390e+003
         vertex 1.144921e+003 1.417518e+003 2.248390e+003
         vertex 1.144921e+003 1.417518e+003 2.252390e+003
      endloop
   endfacet
   facet normal -3.960194e-001 -9.182422e-001 9.998320e-017
      outer loop
         vertex 1.144921e+003 1.417518e+003 2.252390e+003
         vertex 1.144921e+003 1.417518e+003 2.248390e+003
         vertex 1.145442e+003 1.417275e+003 2.248390e+003
      endloop
   endfacet
   facet normal -4.488580e-001 -8.936031e-001 9.867789e-017
      outer loop
         vertex 1.144921e+003 1.417518e+003 2.252390e+003
         vertex 1.145442e+003 1.417275e+003 2.248390e+003
         vertex 1.145442e+003 1.417275e+003 2.252390e+003
      endloop
   endfacet
   facet normal -5.494540e-001 -8.355240e-001 9.508106e-017
      outer loop
         vertex 1.145442e+003 1.417275e+003 2.252390e+003
         vertex 1.145442e+003 1.417275e+003 2.248390e+003
         vertex 1.145913e+003 1.416945e+003 2.248390e+003
      endloop
   endfacet
   facet normal -5.972114e-001 -8.020839e-001 9.278953e-017
      outer loop
         vertex 1.145442e+003 1.417275e+003 2.252390e+003
         vertex 1.145913e+003 1.416945e+003 2.248390e+003
         vertex 1.145913e+003 1.416945e+003 2.252390e+003
      endloop
   endfacet
   facet normal -6.861938e-001 -7.274188e-001 8.728991e-017
      outer loop
         vertex 1.145913e+003 1.416945e+003 2.252390e+003
         vertex 1.145913e+003 1.416945e+003 2.248390e+003
         vertex 1.146320e+003 1.416538e+003 2.248390e+003
      endloop
   endfacet
   facet normal -7.274188e-001 -6.861938e-001 8.408182e-017
      outer loop
         vertex 1.145913e+003 1.416945e+003 2.252390e+003
         vertex 1.146320e+003 1.416538e+003 2.248390e+003
         vertex 1.146320e+003 1.416538e+003 2.252390e+003
      endloop
   endfacet
   facet normal -8.020839e-001 -5.972114e-001 7.684652e-017
      outer loop
         vertex 1.146320e+003 1.416538e+003 2.252390e+003
         vertex 1.146320e+003 1.416538e+003 2.248390e+003
         vertex 1.146650e+003 1.416067e+003 2.248390e+003
      endloop
   endfacet
   facet normal -8.355240e-001 -5.494540e-001 7.281932e-017
      outer loop
         vertex 1.146320e+003 1.416538e+003 2.252390e+003
         vertex 1.146650e+003 1.416067e+003 2.248390e+003
         vertex 1.146650e+003 1.416067e+003 2.252390e+003
      endloop
   endfacet
   facet normal -8.936031e-001 -4.488580e-001 6.406818e-017
      outer loop
         vertex 1.146650e+003 1.416067e+003 2.252390e+003
         vertex 1.146650e+003 1.416067e+003 2.248390e+003
         vertex 1.146893e+003 1.415546e+003 2.248390e+003
      endloop
   endfacet
   facet normal -9.182422e-001 -3.960194e-001 5.934425e-017
      outer loop
         vertex 1.146650e+003 1.416067e+003 2.252390e+003
         vertex 1.146893e+003 1.415546e+003 2.248390e+003
         vertex 1.146893e+003 1.415546e+003 2.252390e+003
      endloop
   endfacet
   facet normal -9.579706e-001 -2.868663e-001 4.934316e-017
      outer loop
         vertex 1.146893e+003 1.415546e+003 2.252390e+003
         vertex 1.146893e+003 1.415546e+003 2.248390e+003
         vertex 1.147042e+003 1.414990e+003 2.248390e+003
      endloop
   endfacet
   facet normal -9.730601e-001 -2.305518e-001 4.406602e-017
      outer loop
         vertex 1.146893e+003 1.415546e+003 2.252390e+003
         vertex 1.147042e+003 1.414990e+003 2.248390e+003
         vertex 1.147042e+003 1.414990e+003 2.252390e+003
      endloop
   endfacet
   facet normal -9.932307e-001 -1.161583e-001 3.311888e-017
      outer loop
         vertex 1.147042e+003 1.414990e+003 2.252390e+003
         vertex 1.147042e+003 1.414990e+003 2.248390e+003
         vertex 1.147092e+003 1.414417e+003 2.248390e+003
      endloop
   endfacet
   facet normal -9.983120e-001 -5.807914e-002 2.744887e-017
      outer loop
         vertex 1.147042e+003 1.414990e+003 2.252390e+003
         vertex 1.147092e+003 1.414417e+003 2.248390e+003
         vertex 1.147092e+003 1.414417e+003 2.252390e+003
      endloop
   endfacet
   facet normal -9.983120e-001 5.807914e-002 1.588829e-017
      outer loop
         vertex 1.147092e+003 1.414417e+003 2.252390e+003
         vertex 1.147092e+003 1.414417e+003 2.248390e+003
         vertex 1.147042e+003 1.413844e+003 2.248390e+003
      endloop
   endfacet
   facet normal -9.932307e-001 1.161583e-001 9.997707e-018
      outer loop
         vertex 1.147092e+003 1.414417e+003 2.252390e+003
         vertex 1.147042e+003 1.413844e+003 2.248390e+003
         vertex 1.147042e+003 1.413844e+003 2.252390e+003
      endloop
   endfacet
   facet normal -9.730601e-001 2.305518e-001 -1.825054e-018
      outer loop
         vertex 1.147042e+003 1.413844e+003 2.252390e+003
         vertex 1.147042e+003 1.413844e+003 2.248390e+003
         vertex 1.146893e+003 1.413289e+003 2.248390e+003
      endloop
   endfacet
   facet normal -9.579706e-001 2.868663e-001 -7.757235e-018
      outer loop
         vertex 1.147042e+003 1.413844e+003 2.252390e+003
         vertex 1.146893e+003 1.413289e+003 2.248390e+003
         vertex 1.146893e+003 1.413289e+003 2.252390e+003
      endloop
   endfacet
   facet normal -9.182422e-001 3.960194e-001 -1.948295e-017
      outer loop
         vertex 1.146893e+003 1.413289e+003 2.252390e+003
         vertex 1.146893e+003 1.413289e+003 2.248390e+003
         vertex 1.146650e+003 1.412767e+003 2.248390e+003
      endloop
   endfacet
   facet normal -8.936031e-001 4.488580e-001 -2.527648e-017
      outer loop
         vertex 1.146893e+003 1.413289e+003 2.252390e+003
         vertex 1.146650e+003 1.412767e+003 2.248390e+003
         vertex 1.146650e+003 1.412767e+003 2.252390e+003
      endloop
   endfacet
   facet normal -8.355240e-001 5.494540e-001 -3.654885e-017
      outer loop
         vertex 1.146650e+003 1.412767e+003 2.252390e+003
         vertex 1.146650e+003 1.412767e+003 2.248390e+003
         vertex 1.146320e+003 1.412296e+003 2.248390e+003
      endloop
   endfacet
   facet normal -8.020839e-001 5.972114e-001 -4.202771e-017
      outer loop
         vertex 1.146650e+003 1.412767e+003 2.252390e+003
         vertex 1.146320e+003 1.412296e+003 2.248390e+003
         vertex 1.146320e+003 1.412296e+003 2.252390e+003
      endloop
   endfacet
   facet normal -7.274188e-001 6.861938e-001 -5.250425e-017
      outer loop
         vertex 1.146320e+003 1.412296e+003 2.252390e+003
         vertex 1.146320e+003 1.412296e+003 2.248390e+003
         vertex 1.145913e+003 1.411889e+003 2.248390e+003
      endloop
   endfacet
   facet normal -6.861938e-001 7.274188e-001 -5.750194e-017
      outer loop
         vertex 1.146320e+003 1.412296e+003 2.252390e+003
         vertex 1.145913e+003 1.411889e+003 2.248390e+003
         vertex 1.145913e+003 1.411889e+003 2.252390e+003
      endloop
   endfacet
   facet normal -5.972114e-001 8.020839e-001 -6.686432e-017
      outer loop
         vertex 1.145913e+003 1.411889e+003 2.252390e+003
         vertex 1.145913e+003 1.411889e+003 2.248390e+003
         vertex 1.145442e+003 1.411559e+003 2.248390e+003
      endloop
   endfacet
   facet normal -5.494540e-001 8.355240e-001 -7.122902e-017
      outer loop
         vertex 1.145913e+003 1.411889e+003 2.252390e+003
         vertex 1.145442e+003 1.411559e+003 2.248390e+003
         vertex 1.145442e+003 1.411559e+003 2.252390e+003
      endloop
   endfacet
   facet normal -4.488580e-001 8.936031e-001 -7.919276e-017
      outer loop
         vertex 1.145442e+003 1.411559e+003 2.252390e+003
         vertex 1.145442e+003 1.411559e+003 2.248390e+003
         vertex 1.144921e+003 1.411316e+003 2.248390e+003
      endloop
   endfacet
   facet normal -3.960194e-001 9.182422e-001 -8.279183e-017
      outer loop
         vertex 1.145442e+003 1.411559e+003 2.252390e+003
         vertex 1.144921e+003 1.411316e+003 2.248390e+003
         vertex 1.144921e+003 1.411316e+003 2.252390e+003
      endloop
   endfacet
   facet normal -2.868663e-001 9.579706e-001 -8.911497e-017
      outer loop
         vertex 1.144921e+003 1.411316e+003 2.252390e+003
         vertex 1.144921e+003 1.411316e+003 2.248390e+003
         vertex 1.144365e+003 1.411167e+003 2.248390e+003
      endloop
   endfacet
   facet normal -2.305518e-001 9.730601e-001 -9.183905e-017
      outer loop
         vertex 1.144921e+003 1.411316e+003 2.252390e+003
         vertex 1.144365e+003 1.411167e+003 2.248390e+003
         vertex 1.144365e+003 1.411167e+003 2.252390e+003
      endloop
   endfacet
   facet normal -1.161583e-001 9.932307e-001 -9.632946e-017
      outer loop
         vertex 1.144365e+003 1.411167e+003 2.252390e+003
         vertex 1.144365e+003 1.411167e+003 2.248390e+003
         vertex 1.143792e+003 1.411117e+003 2.248390e+003
      endloop
   endfacet
   facet normal -5.807914e-002 9.983120e-001 -9.809580e-017
      outer loop
         vertex 1.144365e+003 1.411167e+003 2.252390e+003
         vertex 1.143792e+003 1.411117e+003 2.248390e+003
         vertex 1.143792e+003 1.411117e+003 2.252390e+003
      endloop
   endfacet
   facet normal 5.807914e-002 9.983120e-001 -1.006170e-016
      outer loop
         vertex 1.143792e+003 1.411117e+003 2.252390e+003
         vertex 1.143792e+003 1.411117e+003 2.248390e+003
         vertex 1.143219e+003 1.411167e+003 2.248390e+003
      endloop
   endfacet
   facet normal 1.161583e-001 9.932307e-001 -1.013720e-016
      outer loop
         vertex 1.143792e+003 1.411117e+003 2.252390e+003
         vertex 1.143219e+003 1.411167e+003 2.248390e+003
         vertex 1.143219e+003 1.411167e+003 2.252390e+003
      endloop
   endfacet
   facet normal 2.305518e-001 9.730601e-001 -1.018474e-016
      outer loop
         vertex 1.143219e+003 1.411167e+003 2.252390e+003
         vertex 1.143219e+003 1.411167e+003 2.248390e+003
         vertex 1.142664e+003 1.411316e+003 2.248390e+003
      endloop
   endfacet
   facet normal 2.868663e-001 9.579706e-001 -1.015680e-016
      outer loop
         vertex 1.143219e+003 1.411167e+003 2.252390e+003
         vertex 1.142664e+003 1.411316e+003 2.248390e+003
         vertex 1.142664e+003 1.411316e+003 2.252390e+003
      endloop
   endfacet
   facet normal 3.960194e-001 9.182422e-001 -9.998320e-017
      outer loop
         vertex 1.142664e+003 1.411316e+003 2.252390e+003
         vertex 1.142664e+003 1.411316e+003 2.248390e+003
         vertex 1.142142e+003 1.411559e+003 2.248390e+003
      endloop
   endfacet
   facet normal 4.488580e-001 8.936031e-001 -9.867789e-017
      outer loop
         vertex 1.142664e+003 1.411316e+003 2.252390e+003
         vertex 1.142142e+003 1.411559e+003 2.248390e+003
         vertex 1.142142e+003 1.411559e+003 2.252390e+003
      endloop
   endfacet
   facet normal 5.494540e-001 8.355240e-001 -9.508106e-017
      outer loop
         vertex 1.142142e+003 1.411559e+003 2.252390e+003
         vertex 1.142142e+003 1.411559e+003 2.248390e+003
         vertex 1.141671e+003 1.411889e+003 2.248390e+003
      endloop
   endfacet
   facet normal 5.972114e-001 8.020839e-001 -9.278953e-017
      outer loop
         vertex 1.142142e+003 1.411559e+003 2.252390e+003
         vertex 1.141671e+003 1.411889e+003 2.248390e+003
         vertex 1.141671e+003 1.411889e+003 2.252390e+003
      endloop
   endfacet
   facet normal 6.861938e-001 7.274188e-001 -8.728991e-017
      outer loop
         vertex 1.141671e+003 1.411889e+003 2.252390e+003
         vertex 1.141671e+003 1.411889e+003 2.248390e+003
         vertex 1.141264e+003 1.412296e+003 2.248390e+003
      endloop
   endfacet
   facet normal 7.274188e-001 6.861938e-001 -8.408182e-017
      outer loop
         vertex 1.141671e+003 1.411889e+003 2.252390e+003
         vertex 1.141264e+003 1.412296e+003 2.248390e+003
         vertex 1.141264e+003 1.412296e+003 2.252390e+003
      endloop
   endfacet
   facet normal 8.020839e-001 5.972114e-001 -7.684652e-017
      outer loop
         vertex 1.141264e+003 1.412296e+003 2.252390e+003
         vertex 1.141264e+003 1.412296e+003 2.248390e+003
         vertex 1.140934e+003 1.412767e+003 2.248390e+003
      endloop
   endfacet
   facet normal 8.355240e-001 5.494540e-001 -7.281932e-017
      outer loop
         vertex 1.141264e+003 1.412296e+003 2.252390e+003
         vertex 1.140934e+003 1.412767e+003 2.248390e+003
         vertex 1.140934e+003 1.412767e+003 2.252390e+003
      endloop
   endfacet
   facet normal 8.936031e-001 4.488580e-001 -6.406818e-017
      outer loop
         vertex 1.140934e+003 1.412767e+003 2.252390e+003
         vertex 1.140934e+003 1.412767e+003 2.248390e+003
         vertex 1.140691e+003 1.413289e+003 2.248390e+003
      endloop
   endfacet
   facet normal 9.182422e-001 3.960194e-001 -5.934425e-017
      outer loop
         vertex 1.140934e+003 1.412767e+003 2.252390e+003
         vertex 1.140691e+003 1.413289e+003 2.248390e+003
         vertex 1.140691e+003 1.413289e+003 2.252390e+003
      endloop
   endfacet
   facet normal 9.579706e-001 2.868663e-001 -4.934316e-017
      outer loop
         vertex 1.140691e+003 1.413289e+003 2.252390e+003
         vertex 1.140691e+003 1.413289e+003 2.248390e+003
         vertex 1.140542e+003 1.413844e+003 2.248390e+003
      endloop
   endfacet
   facet normal 9.730601e-001 2.305518e-001 -4.406602e-017
      outer loop
         vertex 1.140691e+003 1.413289e+003 2.252390e+003
         vertex 1.140542e+003 1.413844e+003 2.248390e+003
         vertex 1.140542e+003 1.413844e+003 2.252390e+003
      endloop
   endfacet
   facet normal 9.932307e-001 1.161583e-001 -3.311888e-017
      outer loop
         vertex 1.140542e+003 1.413844e+003 2.252390e+003
         vertex 1.140542e+003 1.413844e+003 2.248390e+003
         vertex 1.140492e+003 1.414417e+003 2.248390e+003
      endloop
   endfacet
   facet normal 9.983120e-001 5.807914e-002 -2.744887e-017
      outer loop
         vertex 1.120542e+003 1.413844e+003 2.252390e+003
         vertex 1.120492e+003 1.414417e+003 2.248390e+003
         vertex 1.120492e+003 1.414417e+003 2.252390e+003
      endloop
   endfacet
   facet normal 9.983120e-001 -5.807914e-002 -1.588829e-017
      outer loop
         vertex 1.120492e+003 1.414417e+003 2.252390e+003
         vertex 1.120492e+003 1.414417e+003 2.248390e+003
         vertex 1.120542e+003 1.414990e+003 2.248390e+003
      endloop
   endfacet
   facet normal 9.932307e-001 -1.161583e-001 -9.997707e-018
      outer loop
         vertex 1.120492e+003 1.414417e+003 2.252390e+003
         vertex 1.120542e+003 1.414990e+003 2.248390e+003
         vertex 1.120542e+003 1.414990e+003 2.252390e+003
      endloop
   endfacet
   facet normal 9.730601e-001 -2.305518e-001 1.825054e-018
      outer loop
         vertex 1.120542e+003 1.414990e+003 2.252390e+003
         vertex 1.120542e+003 1.414990e+003 2.248390e+003
         vertex 1.120691e+003 1.415546e+003 2.248390e+003
      endloop
   endfacet
   facet normal 9.579706e-001 -2.868663e-001 7.757235e-018
      outer loop
         vertex 1.120542e+003 1.414990e+003 2.252390e+003
         vertex 1.120691e+003 1.415546e+003 2.248390e+003
         vertex 1.120691e+003 1.415546e+003 2.252390e+003
      endloop
   endfacet
   facet normal 9.182422e-001 -3.960194e-001 1.948295e-017
      outer loop
         vertex 1.120691e+003 1.415546e+003 2.252390e+003
         vertex 1.120691e+003 1.415546e+003 2.248390e+003
         vertex 1.120934e+003 1.416067e+003 2.248390e+003
      endloop
   endfacet
   facet normal 8.936031e-001 -4.488580e-001 2.527648e-017
      outer loop
         vertex 1.120691e+003 1.415546e+003 2.252390e+003
         vertex 1.120934e+003 1.416067e+003 2.248390e+003
         vertex 1.120934e+003 1.416067e+003 2.252390e+003
      endloop
   endfacet
   facet normal 8.355240e-001 -5.494540e-001 3.654885e-017
      outer loop
         vertex 1.120934e+003 1.416067e+003 2.252390e+003
         vertex 1.120934e+003 1.416067e+003 2.248390e+003
         vertex 1.121264e+003 1.416538e+003 2.248390e+003
      endloop
   endfacet
   facet normal 8.020839e-001 -5.972114e-001 4.202771e-017
      outer loop
         vertex 1.120934e+003 1.416067e+003 2.252390e+003
         vertex 1.121264e+003 1.416538e+003 2.248390e+003
         vertex 1.121264e+003 1.416538e+003 2.252390e+003
      endloop
   endfacet
   facet normal 7.274188e-001 -6.861938e-001 5.250425e-017
      outer loop
         vertex 1.121264e+003 1.416538e+003 2.252390e+003
         vertex 1.121264e+003 1.416538e+003 2.248390e+003
         vertex 1.121671e+003 1.416945e+003 2.248390e+003
      endloop
   endfacet
   facet normal 6.861938e-001 -7.274188e-001 5.750194e-017
      outer loop
         vertex 1.121264e+003 1.416538e+003 2.252390e+003
         vertex 1.121671e+003 1.416945e+003 2.248390e+003
         vertex 1.121671e+003 1.416945e+003 2.252390e+003
      endloop
   endfacet
   facet normal 5.972114e-001 -8.020839e-001 6.686432e-017
      outer loop
         vertex 1.121671e+003 1.416945e+003 2.252390e+003
         vertex 1.121671e+003 1.416945e+003 2.248390e+003
         vertex 1.122142e+003 1.417275e+003 2.248390e+003
      endloop
   endfacet
   facet normal 5.494540e-001 -8.355240e-001 7.122902e-017
      outer loop
         vertex 1.121671e+003 1.416945e+003 2.252390e+003
         vertex 1.122142e+003 1.417275e+003 2.248390e+003
         vertex 1.122142e+003 1.417275e+003 2.252390e+003
      endloop
   endfacet
   facet normal 4.488580e-001 -8.936031e-001 7.919276e-017
      outer loop
         vertex 1.122142e+003 1.417275e+003 2.252390e+003
         vertex 1.122142e+003 1.417275e+003 2.248390e+003
         vertex 1.122663e+003 1.417518e+003 2.248390e+003
      endloop
   endfacet
   facet normal 3.960194e-001 -9.182422e-001 8.279183e-017
      outer loop
         vertex 1.122142e+003 1.417275e+003 2.252390e+003
         vertex 1.122663e+003 1.417518e+003 2.248390e+003
         vertex 1.122663e+003 1.417518e+003 2.252390e+003
      endloop
   endfacet
   facet normal 2.868663e-001 -9.579706e-001 8.911497e-017
      outer loop
         vertex 1.122663e+003 1.417518e+003 2.252390e+003
         vertex 1.122663e+003 1.417518e+003 2.248390e+003
         vertex 1.123219e+003 1.417667e+003 2.248390e+003
      endloop
   endfacet
   facet normal 2.305518e-001 -9.730601e-001 9.183905e-017
      outer loop
         vertex 1.122663e+003 1.417518e+003 2.252390e+003
         vertex 1.123219e+003 1.417667e+003 2.248390e+003
         vertex 1.123219e+003 1.417667e+003 2.252390e+003
      endloop
   endfacet
   facet normal 1.161583e-001 -9.932307e-001 9.632946e-017
      outer loop
         vertex 1.123219e+003 1.417667e+003 2.252390e+003
         vertex 1.123219e+003 1.417667e+003 2.248390e+003
         vertex 1.123792e+003 1.417717e+003 2.248390e+003
      endloop
   endfacet
   facet normal 5.807914e-002 -9.983120e-001 9.809580e-017
      outer loop
         vertex 1.123219e+003 1.417667e+003 2.252390e+003
         vertex 1.123792e+003 1.417717e+003 2.248390e+003
         vertex 1.123792e+003 1.417717e+003 2.252390e+003
      endloop
   endfacet
   facet normal -5.807914e-002 -9.983120e-001 1.006170e-016
      outer loop
         vertex 1.123792e+003 1.417717e+003 2.252390e+003
         vertex 1.123792e+003 1.417717e+003 2.248390e+003
         vertex 1.124365e+003 1.417667e+003 2.248390e+003
      endloop
   endfacet
   facet normal -1.161583e-001 -9.932307e-001 1.013720e-016
      outer loop
         vertex 1.123792e+003 1.417717e+003 2.252390e+003
         vertex 1.124365e+003 1.417667e+003 2.248390e+003
         vertex 1.124365e+003 1.417667e+003 2.252390e+003
      endloop
   endfacet
   facet normal -2.305518e-001 -9.730601e-001 1.018474e-016
      outer loop
         vertex 1.124365e+003 1.417667e+003 2.252390e+003
         vertex 1.124365e+003 1.417667e+003 2.248390e+003
         vertex 1.124921e+003 1.417518e+003 2.248390e+003
      endloop
   endfacet
   facet normal -2.868663e-001 -9.579706e-001 1.015680e-016
      outer loop
         vertex 1.124365e+003 1.417667e+003 2.252390e+003
         vertex 1.124921e+003 1.417518e+003 2.248390e+003
         vertex 1.124921e+003 1.417518e+003 2.252390e+003
      endloop
   endfacet
   facet normal -3.960194e-001 -9.182422e-001 9.998320e-017
      outer loop
         vertex 1.124921e+003 1.417518e+003 2.252390e+003
         vertex 1.124921e+003 1.417518e+003 2.248390e+003
         vertex 1.125442e+003 1.417275e+003 2.248390e+003
      endloop
   endfacet
   facet normal -4.488580e-001 -8.936031e-001 9.867789e-017
      outer loop
         vertex 1.124921e+003 1.417518e+003 2.252390e+003
         vertex 1.125442e+003 1.417275e+003 2.248390e+003
         vertex 1.125442e+003 1.417275e+003 2.252390e+003
      endloop
   endfacet
   facet normal -5.494540e-001 -8.355240e-001 9.508106e-017
      outer loop
         vertex 1.125442e+003 1.417275e+003 2.252390e+003
         vertex 1.125442e+003 1.417275e+003 2.248390e+003
         vertex 1.125913e+003 1.416945e+003 2.248390e+003
      endloop
   endfacet
   facet normal -5.972114e-001 -8.020839e-001 9.278953e-017
      outer loop
         vertex 1.125442e+003 1.417275e+003 2.252390e+003
         vertex 1.125913e+003 1.416945e+003 2.248390e+003
         vertex 1.125913e+003 1.416945e+003 2.252390e+003
      endloop
   endfacet
   facet normal -6.861938e-001 -7.274188e-001 8.728991e-017
      outer loop
         vertex 1.125913e+003 1.416945e+003 2.252390e+003
         vertex 1.125913e+003 1.416945e+003 2.248390e+003
         vertex 1.126320e+003 1.416538e+003 2.248390e+003
      endloop
   endfacet
   facet normal -7.274188e-001 -6.861938e-001 8.408182e-017
      outer loop
         vertex 1.125913e+003 1.416945e+003 2.252390e+003
         vertex 1.126320e+003 1.416538e+003 2.248390e+003
         vertex 1.126320e+003 1.416538e+003 2.252390e+003
      endloop
   endfacet
   facet normal -8.020839e-001 -5.972114e-001 7.684652e-017
      outer loop
         vertex 1.126320e+003 1.416538e+003 2.252390e+003
         vertex 1.126320e+003 1.416538e+003 2.248390e+003
         vertex 1.126650e+003 1.416067e+003 2.248390e+003
      endloop
   endfacet
   facet normal -8.355240e-001 -5.494540e-001 7.281932e-017
      outer loop
         vertex 1.126320e+003 1.416538e+003 2.252390e+003
         vertex 1.126650e+003 1.416067e+003 2.248390e+003
         vertex 1.126650e+003 1.416067e+003 2.252390e+003
      endloop
   endfacet
   facet normal -8.936031e-001 -4.488580e-001 6.406818e-017
      outer loop
         vertex 1.126650e+003 1.416067e+003 2.252390e+003
         vertex 1.126650e+003 1.416067e+003 2.248390e+003
         vertex 1.126893e+003 1.415546e+003 2.248390e+003
      endloop
   endfacet
   facet normal -9.182422e-001 -3.960194e-001 5.934425e-017
      outer loop
         vertex 1.126650e+003 1.416067e+003 2.252390e+003
         vertex 1.126893e+003 1.415546e+003 2.248390e+003
         vertex 1.126893e+003 1.415546e+003 2.252390e+003
      endloop
   endfacet
   facet normal -9.579706e-001 -2.868663e-001 4.934316e-017
      outer loop
         vertex 1.126893e+003 1.415546e+003 2.252390e+003
         vertex 1.126893e+003 1.415546e+003 2.248390e+003
         vertex 1.127042e+003 1.414990e+003 2.248390e+003
      endloop
   endfacet
   facet normal -9.730601e-001 -2.305518e-001 4.406602e-017
      outer loop
         vertex 1.126893e+003 1.415546e+003 2.252390e+003
         vertex 1.127042e+003 1.414990e+003 2.248390e+003
         vertex 1.127042e+003 1.414990e+003 2.252390e+003
      endloop
   endfacet
   facet normal -9.932307e-001 -1.161583e-001 3.311888e-017
      outer loop
         vertex 1.127042e+003 1.414990e+003 2.252390e+003
         vertex 1.127042e+003 1.414990e+003 2.248390e+003
         vertex 1.127092e+003 1.414417e+003 2.248390e+003
      endloop
   endfacet
   facet normal -9.983120e-001 -5.807914e-002 2.744887e-017
      outer loop
         vertex 1.127042e+003 1.414990e+003 2.252390e+003
         vertex 1.127092e+003 1.414417e+003 2.248390e+003
         vertex 1.127092e+003 1.414417e+003 2.252390e+003
      endloop
   endfacet
   facet normal -9.983120e-001 5.807914e-002 1.588829e-017
      outer loop
         vertex 1.127092e+003 1.414417e+003 2.252390e+003
         vertex 1.127092e+003 1.414417e+003 2.248390e+003
         vertex 1.127042e+003 1.413844e+003 2.248390e+003
      endloop
   endfacet
   facet normal -9.932307e-001 1.161583e-001 9.997707e-018
      outer loop
         vertex 1.127092e+003 1.414417e+003 2.252390e+003
         vertex 1.127042e+003 1.413844e+003 2.248390e+003
         vertex 1.127042e+003 1.413844e+003 2.252390e+003
      endloop
   endfacet
   facet normal -9.730601e-001 2.305518e-001 -1.825054e-018
      outer loop
         vertex 1.127042e+003 1.413844e+003 2.252390e+003
         vertex 1.127042e+003 1.413844e+003 2.248390e+003
         vertex 1.126893e+003 1.413289e+003 2.248390e+003
      endloop
   endfacet
   facet normal -9.579706e-001 2.868663e-001 -7.757235e-018
      outer loop
         vertex 1.127042e+003 1.413844e+003 2.252390e+003
         vertex 1.126893e+003 1.413289e+003 2.248390e+003
         vertex 1.126893e+003 1.413289e+003 2.252390e+003
      endloop
   endfacet
   facet normal -9.182422e-001 3.960194e-001 -1.948295e-017
      outer loop
         vertex 1.126893e+003 1.413289e+003 2.252390e+003
         vertex 1.126893e+003 1.413289e+003 2.248390e+003
         vertex 1.126650e+003 1.412767e+003 2.248390e+003
      endloop
   endfacet
   facet normal -8.936031e-001 4.488580e-001 -2.527648e-017
      outer loop
         vertex 1.126893e+003 1.413289e+003 2.252390e+003
         vertex 1.126650e+003 1.412767e+003 2.248390e+003
         vertex 1.126650e+003 1.412767e+003 2.252390e+003
      endloop
   endfacet
   facet normal -8.355240e-001 5.494540e-001 -3.654885e-017
      outer loop
         vertex 1.126650e+003 1.412767e+003 2.252390e+003
         vertex 1.126650e+003 1.412767e+003 2.248390e+003
         vertex 1.126320e+003 1.412296e+003 2.248390e+003
      endloop
   endfacet
   facet normal -8.020839e-001 5.972114e-001 -4.202771e-017
      outer loop
         vertex 1.126650e+003 1.412767e+003 2.252390e+003
         vertex 1.126320e+003 1.412296e+003 2.248390e+003
         vertex 1.126320e+003 1.412296e+003 2.252390e+003
      endloop
   endfacet
   facet normal -7.274188e-001 6.861938e-001 -5.250425e-017
      outer loop
         vertex 1.126320e+003 1.412296e+003 2.252390e+003
         vertex 1.126320e+003 1.412296e+003 2.248390e+003
         vertex 1.125913e+003 1.411889e+003 2.248390e+003
      endloop
   endfacet
   facet normal -6.861938e-001 7.274188e-001 -5.750194e-017
      outer loop
         vertex 1.126320e+003 1.412296e+003 2.252390e+003
         vertex 1.125913e+003 1.411889e+003 2.248390e+003
         vertex 1.125913e+003 1.411889e+003 2.252390e+003
      endloop
   endfacet
   facet normal -5.972114e-001 8.020839e-001 -6.686432e-017
      outer loop
         vertex 1.125913e+003 1.411889e+003 2.252390e+003
         vertex 1.125913e+003 1.411889e+003 2.248390e+003
         vertex 1.125442e+003 1.411559e+003 2.248390e+003
      endloop
   endfacet
   facet normal -5.494540e-001 8.355240e-001 -7.122902e-017
      outer loop
         vertex 1.125913e+003 1.411889e+003 2.252390e+003
         vertex 1.125442e+003 1.411559e+003 2.248390e+003
         vertex 1.125442e+003 1.411559e+003 2.252390e+003
      endloop
   endfacet
   facet normal -4.488580e-001 8.936031e-001 -7.919276e-017
      outer loop
         vertex 1.125442e+003 1.411559e+003 2.252390e+003
         vertex 1.125442e+003 1.411559e+003 2.248390e+003
         vertex 1.124921e+003 1.411316e+003 2.248390e+003
      endloop
   endfacet
   facet normal -3.960194e-001 9.182422e-001 -8.279183e-017
      outer loop
         vertex 1.125442e+003 1.411559e+003 2.252390e+003
         vertex 1.124921e+003 1.411316e+003 2.248390e+003
         vertex 1.124921e+003 1.411316e+003 2.252390e+003
      endloop
   endfacet
   facet normal -2.868663e-001 9.579706e-001 -8.911497e-017
      outer loop
         vertex 1.124921e+003 1.411316e+003 2.252390e+003
         vertex 1.124921e+003 1.411316e+003 2.248390e+003
         vertex 1.124365e+003 1.411167e+003 2.248390e+003
      endloop
   endfacet
   facet normal -2.305518e-001 9.730601e-001 -9.183905e-017
      outer loop
         vertex 1.124921e+003 1.411316e+003 2.252390e+003
         vertex 1.124365e+003 1.411167e+003 2.248390e+003
         vertex 1.124365e+003 1.411167e+003 2.252390e+003
      endloop
   endfacet
   facet normal -1.161583e-001 9.932307e-001 -9.632946e-017
      outer loop
         vertex 1.124365e+003 1.411167e+003 2.252390e+003
         vertex 1.124365e+003 1.411167e+003 2.248390e+003
         vertex 1.123792e+003 1.411117e+003 2.248390e+003
      endloop
   endfacet
   facet normal -5.807914e-002 9.983120e-001 -9.809580e-017
      outer loop
         vertex 1.124365e+003 1.411167e+003 2.252390e+003
         vertex 1.123792e+003 1.411117e+003 2.248390e+003
         vertex 1.123792e+003 1.411117e+003 2.252390e+003
      endloop
   endfacet
   facet normal 5.807914e-002 9.983120e-001 -1.006170e-016
      outer loop
         vertex 1.123792e+003 1.411117e+003 2.252390e+003
         vertex 1.123792e+003 1.411117e+003 2.248390e+003
         vertex 1.123219e+003 1.411167e+003 2.248390e+003
      endloop
   endfacet
   facet normal 1.161583e-001 9.932307e-001 -1.013720e-016
      outer loop
         vertex 1.123792e+003 1.411117e+003 2.252390e+003
         vertex 1.123219e+003 1.411167e+003 2.248390e+003
         vertex 1.123219e+003 1.411167e+003 2.252390e+003
      endloop
   endfacet
   facet normal 2.305518e-001 9.730601e-001 -1.018474e-016
      outer loop
         vertex 1.123219e+003 1.411167e+003 2.252390e+003
         vertex 1.123219e+003 1.411167e+003 2.248390e+003
         vertex 1.122663e+003 1.411316e+003 2.248390e+003
      endloop
   endfacet
   facet normal 2.868663e-001 9.579706e-001 -1.015680e-016
      outer loop
         vertex 1.123219e+003 1.411167e+003 2.252390e+003
         vertex 1.122663e+003 1.411316e+003 2.248390e+003
         vertex 1.122663e+003 1.411316e+003 2.252390e+003
      endloop
   endfacet
   facet normal 3.960194e-001 9.182422e-001 -9.998320e-017
      outer loop
         vertex 1.122663e+003 1.411316e+003 2.252390e+003
         vertex 1.122663e+003 1.411316e+003 2.248390e+003
         vertex 1.122142e+003 1.411559e+003 2.248390e+003
      endloop
   endfacet
   facet normal 4.488580e-001 8.936031e-001 -9.867789e-017
      outer loop
         vertex 1.122663e+003 1.411316e+003 2.252390e+003
         vertex 1.122142e+003 1.411559e+003 2.248390e+003
         vertex 1.122142e+003 1.411559e+003 2.252390e+003
      endloop
   endfacet
   facet normal 5.494540e-001 8.355240e-001 -9.508106e-017
      outer loop
         vertex 1.122142e+003 1.411559e+003 2.252390e+003
         vertex 1.122142e+003 1.411559e+003 2.248390e+003
         vertex 1.121671e+003 1.411889e+003 2.248390e+003
      endloop
   endfacet
   facet normal 5.972114e-001 8.020839e-001 -9.278953e-017
      outer loop
         vertex 1.122142e+003 1.411559e+003 2.252390e+003
         vertex 1.121671e+003 1.411889e+003 2.248390e+003
         vertex 1.121671e+003 1.411889e+003 2.252390e+003
      endloop
   endfacet
   facet normal 6.861938e-001 7.274188e-001 -8.728991e-017
      outer loop
         vertex 1.121671e+003 1.411889e+003 2.252390e+003
         vertex 1.121671e+003 1.411889e+003 2.248390e+003
         vertex 1.121264e+003 1.412296e+003 2.248390e+003
      endloop
   endfacet
   facet normal 7.274188e-001 6.861938e-001 -8.408182e-017
      outer loop
         vertex 1.121671e+003 1.411889e+003 2.252390e+003
         vertex 1.121264e+003 1.412296e+003 2.248390e+003
         vertex 1.121264e+003 1.412296e+003 2.252390e+003
      endloop
   endfacet
   facet normal 8.020839e-001 5.972114e-001 -7.684652e-017
      outer loop
         vertex 1.121264e+003 1.412296e+003 2.252390e+003
         vertex 1.121264e+003 1.412296e+003 2.248390e+003
         vertex 1.120934e+003 1.412767e+003 2.248390e+003
      endloop
   endfacet
   facet normal 8.355240e-001 5.494540e-001 -7.281932e-017
      outer loop
         vertex 1.121264e+003 1.412296e+003 2.252390e+003
         vertex 1.120934e+003 1.412767e+003 2.248390e+003
         vertex 1.120934e+003 1.412767e+003 2.252390e+003
      endloop
   endfacet
   facet normal 8.936031e-001 4.488580e-001 -6.406818e-017
      outer loop
         vertex 1.120934e+003 1.412767e+003 2.252390e+003
         vertex 1.120934e+003 1.412767e+003 2.248390e+003
         vertex 1.120691e+003 1.413289e+003 2.248390e+003
      endloop
   endfacet
   facet normal 9.182422e-001 3.960194e-001 -5.934425e-017
      outer loop
         vertex 1.120934e+003 1.412767e+003 2.252390e+003
         vertex 1.120691e+003 1.413289e+003 2.248390e+003
         vertex 1.120691e+003 1.413289e+003 2.252390e+003
      endloop
   endfacet
   facet normal 9.579706e-001 2.868663e-001 -4.934316e-017
      outer loop
         vertex 1.120691e+003 1.413289e+003 2.252390e+003
         vertex 1.120691e+003 1.413289e+003 2.248390e+003
         vertex 1.120542e+003 1.413844e+003 2.248390e+003
      endloop
   endfacet
   facet normal 9.730601e-001 2.305518e-001 -4.406602e-017
      outer loop
         vertex 1.120691e+003 1.413289e+003 2.252390e+003
         vertex 1.120542e+003 1.413844e+003 2.248390e+003
         vertex 1.120542e+003 1.413844e+003 2.252390e+003
      endloop
   endfacet
   facet normal 9.932307e-001 1.161583e-001 -3.311888e-017
      outer loop
         vertex 1.120542e+003 1.413844e+003 2.252390e+003
         vertex 1.120542e+003 1.413844e+003 2.248390e+003
         vertex 1.120492e+003 1.414417e+003 2.248390e+003
      endloop
   endfacet
   facet normal -4.250399e-016 -1.000000e+000 9.952441e-017
      outer loop
         vertex 1.113792e+003 1.351417e+003 2.252390e+003
         vertex 1.113792e+003 1.351417e+003 2.248390e+003
         vertex 1.153792e+003 1.351417e+003 2.252390e+003
      endloop
   endfacet
   facet normal -4.250399e-016 -1.000000e+000 9.952441e-017
      outer loop
         vertex 1.153792e+003 1.351417e+003 2.252390e+003
         vertex 1.113792e+003 1.351417e+003 2.248390e+003
         vertex 1.153792e+003 1.351417e+003 2.248390e+003
      endloop
   endfacet
endsolid