solid 09.025.00.00.000 - 09.025.00.08.000-1 09.025.00.08.015-1 09.025.00.08.0BC-1
   facet normal 1.000000e+000 -6.172128e-016 -2.170522e-017
      outer loop
         vertex 1.183792e+003 4.914173e+002 2.292390e+003
         vertex 1.183792e+003 4.914173e+002 2.252390e+003
         vertex 1.183792e+003 4.954173e+002 2.292390e+003
      endloop
   endfacet
   facet normal 1.000000e+000 -6.172128e-016 -2.170522e-017
      outer loop
         vertex 1.183792e+003 4.954173e+002 2.292390e+003
         vertex 1.183792e+003 4.914173e+002 2.252390e+003
         vertex 1.183792e+003 4.954173e+002 2.252390e+003
      endloop
   endfacet
   facet normal 2.170522e-017 -1.149789e-017 1.000000e+000
      outer loop
         vertex 1.083792e+003 4.914173e+002 2.292390e+003
         vertex 1.183792e+003 4.914173e+002 2.292390e+003
         vertex 1.083792e+003 4.954173e+002 2.292390e+003
      endloop
   endfacet
   facet normal 2.170522e-017 -1.149789e-017 1.000000e+000
      outer loop
         vertex 1.083792e+003 4.954173e+002 2.292390e+003
         vertex 1.183792e+003 4.914173e+002 2.292390e+003
         vertex 1.183792e+003 4.954173e+002 2.292390e+003
      endloop
   endfacet
   facet normal -1.000000e+000 6.172128e-016 2.170522e-017
      outer loop
         vertex 1.083792e+003 4.914173e+002 2.252390e+003
         vertex 1.083792e+003 4.914173e+002 2.292390e+003
         vertex 1.083792e+003 4.954173e+002 2.252390e+003
      endloop
   endfacet
   facet normal -1.000000e+000 6.172128e-016 2.170522e-017
      outer loop
         vertex 1.083792e+003 4.954173e+002 2.252390e+003
         vertex 1.083792e+003 4.914173e+002 2.292390e+003
         vertex 1.083792e+003 4.954173e+002 2.292390e+003
      endloop
   endfacet
   facet normal -2.170522e-017 1.149789e-017 -1.000000e+000
      outer loop
         vertex 1.183792e+003 4.914173e+002 2.252390e+003
         vertex 1.083792e+003 4.914173e+002 2.252390e+003
         vertex 1.183792e+003 4.954173e+002 2.252390e+003
      endloop
   endfacet
   facet normal -2.170522e-017 1.149789e-017 -1.000000e+000
      outer loop
         vertex 1.183792e+003 4.954173e+002 2.252390e+003
         vertex 1.083792e+003 4.914173e+002 2.252390e+003
         vertex 1.083792e+003 4.954173e+002 2.252390e+003
      endloop
   endfacet
   facet normal -6.172128e-016 -1.000000e+000 -1.149789e-017
      outer loop
         vertex 1.094921e+003 4.914173e+002 2.275491e+003
         vertex 1.095442e+003 4.914173e+002 2.275248e+003
         vertex 1.170492e+003 4.914173e+002 2.272390e+003
      endloop
   endfacet
   facet normal -6.172128e-016 -1.000000e+000 -1.149789e-017
      outer loop
         vertex 1.170492e+003 4.914173e+002 2.272390e+003
         vertex 1.095442e+003 4.914173e+002 2.275248e+003
         vertex 1.095913e+003 4.914173e+002 2.274918e+003
      endloop
   endfacet
   facet normal -6.172128e-016 -1.000000e+000 -1.149789e-017
      outer loop
         vertex 1.170492e+003 4.914173e+002 2.272390e+003
         vertex 1.095913e+003 4.914173e+002 2.274918e+003
         vertex 1.170542e+003 4.914173e+002 2.271817e+003
      endloop
   endfacet
   facet normal -6.172128e-016 -1.000000e+000 -1.149789e-017
      outer loop
         vertex 1.095913e+003 4.914173e+002 2.274918e+003
         vertex 1.173219e+003 4.914173e+002 2.269140e+003
         vertex 1.172664e+003 4.914173e+002 2.269289e+003
      endloop
   endfacet
   facet normal -6.172128e-016 -1.000000e+000 -1.149789e-017
      outer loop
         vertex 1.096650e+003 4.914173e+002 2.274040e+003
         vertex 1.096893e+003 4.914173e+002 2.273519e+003
         vertex 1.173792e+003 4.914173e+002 2.269090e+003
      endloop
   endfacet
   facet normal -6.172128e-016 -1.000000e+000 -1.149789e-017
      outer loop
         vertex 1.173792e+003 4.914173e+002 2.269090e+003
         vertex 1.096893e+003 4.914173e+002 2.273519e+003
         vertex 1.097042e+003 4.914173e+002 2.272963e+003
      endloop
   endfacet
   facet normal -6.172128e-016 -1.000000e+000 -1.149789e-017
      outer loop
         vertex 1.090691e+003 4.914173e+002 2.271261e+003
         vertex 1.090542e+003 4.914173e+002 2.271817e+003
         vertex 1.083792e+003 4.914173e+002 2.252390e+003
      endloop
   endfacet
   facet normal -6.172128e-016 -1.000000e+000 -1.149789e-017
      outer loop
         vertex 1.083792e+003 4.914173e+002 2.252390e+003
         vertex 1.090542e+003 4.914173e+002 2.271817e+003
         vertex 1.090492e+003 4.914173e+002 2.272390e+003
      endloop
   endfacet
   facet normal -6.172128e-016 -1.000000e+000 -1.149789e-017
      outer loop
         vertex 1.083792e+003 4.914173e+002 2.252390e+003
         vertex 1.090492e+003 4.914173e+002 2.272390e+003
         vertex 1.083792e+003 4.914173e+002 2.292390e+003
      endloop
   endfacet
   facet normal -6.172128e-016 -1.000000e+000 -1.149789e-017
      outer loop
         vertex 1.173219e+003 4.914173e+002 2.269140e+003
         vertex 1.095913e+003 4.914173e+002 2.274918e+003
         vertex 1.173792e+003 4.914173e+002 2.269090e+003
      endloop
   endfacet
   facet normal -6.172128e-016 -1.000000e+000 -1.149789e-017
      outer loop
         vertex 1.173792e+003 4.914173e+002 2.269090e+003
         vertex 1.095913e+003 4.914173e+002 2.274918e+003
         vertex 1.096320e+003 4.914173e+002 2.274511e+003
      endloop
   endfacet
   facet normal -6.172128e-016 -1.000000e+000 -1.149789e-017
      outer loop
         vertex 1.173792e+003 4.914173e+002 2.269090e+003
         vertex 1.096320e+003 4.914173e+002 2.274511e+003
         vertex 1.096650e+003 4.914173e+002 2.274040e+003
      endloop
   endfacet
   facet normal -6.172128e-016 -1.000000e+000 -1.149789e-017
      outer loop
         vertex 1.172664e+003 4.914173e+002 2.269289e+003
         vertex 1.172142e+003 4.914173e+002 2.269532e+003
         vertex 1.095913e+003 4.914173e+002 2.274918e+003
      endloop
   endfacet
   facet normal -6.172128e-016 -1.000000e+000 -1.149789e-017
      outer loop
         vertex 1.095913e+003 4.914173e+002 2.274918e+003
         vertex 1.172142e+003 4.914173e+002 2.269532e+003
         vertex 1.171671e+003 4.914173e+002 2.269862e+003
      endloop
   endfacet
   facet normal -6.172128e-016 -1.000000e+000 -1.149789e-017
      outer loop
         vertex 1.095913e+003 4.914173e+002 2.274918e+003
         vertex 1.171671e+003 4.914173e+002 2.269862e+003
         vertex 1.171264e+003 4.914173e+002 2.270269e+003
      endloop
   endfacet
   facet normal -6.172128e-016 -1.000000e+000 -1.149789e-017
      outer loop
         vertex 1.171264e+003 4.914173e+002 2.270269e+003
         vertex 1.170934e+003 4.914173e+002 2.270740e+003
         vertex 1.095913e+003 4.914173e+002 2.274918e+003
      endloop
   endfacet
   facet normal -6.172128e-016 -1.000000e+000 -1.149789e-017
      outer loop
         vertex 1.095913e+003 4.914173e+002 2.274918e+003
         vertex 1.170934e+003 4.914173e+002 2.270740e+003
         vertex 1.170691e+003 4.914173e+002 2.271261e+003
      endloop
   endfacet
   facet normal -6.172128e-016 -1.000000e+000 -1.149789e-017
      outer loop
         vertex 1.095913e+003 4.914173e+002 2.274918e+003
         vertex 1.170691e+003 4.914173e+002 2.271261e+003
         vertex 1.170542e+003 4.914173e+002 2.271817e+003
      endloop
   endfacet
   facet normal -6.172128e-016 -1.000000e+000 -1.149789e-017
      outer loop
         vertex 1.083792e+003 4.914173e+002 2.252390e+003
         vertex 1.094921e+003 4.914173e+002 2.269289e+003
         vertex 1.094365e+003 4.914173e+002 2.269140e+003
      endloop
   endfacet
   facet normal -6.172128e-016 -1.000000e+000 -1.149789e-017
      outer loop
         vertex 1.092664e+003 4.914173e+002 2.269289e+003
         vertex 1.092142e+003 4.914173e+002 2.269532e+003
         vertex 1.083792e+003 4.914173e+002 2.252390e+003
      endloop
   endfacet
   facet normal -6.172128e-016 -1.000000e+000 -1.149789e-017
      outer loop
         vertex 1.083792e+003 4.914173e+002 2.252390e+003
         vertex 1.092142e+003 4.914173e+002 2.269532e+003
         vertex 1.091671e+003 4.914173e+002 2.269862e+003
      endloop
   endfacet
   facet normal -6.172128e-016 -1.000000e+000 -1.149789e-017
      outer loop
         vertex 1.091671e+003 4.914173e+002 2.269862e+003
         vertex 1.091264e+003 4.914173e+002 2.270269e+003
         vertex 1.083792e+003 4.914173e+002 2.252390e+003
      endloop
   endfacet
   facet normal -6.172128e-016 -1.000000e+000 -1.149789e-017
      outer loop
         vertex 1.083792e+003 4.914173e+002 2.252390e+003
         vertex 1.091264e+003 4.914173e+002 2.270269e+003
         vertex 1.090934e+003 4.914173e+002 2.270740e+003
      endloop
   endfacet
   facet normal -6.172128e-016 -1.000000e+000 -1.149789e-017
      outer loop
         vertex 1.083792e+003 4.914173e+002 2.252390e+003
         vertex 1.090934e+003 4.914173e+002 2.270740e+003
         vertex 1.090691e+003 4.914173e+002 2.271261e+003
      endloop
   endfacet
   facet normal -6.172128e-016 -1.000000e+000 -1.149789e-017
      outer loop
         vertex 1.090492e+003 4.914173e+002 2.272390e+003
         vertex 1.090542e+003 4.914173e+002 2.272963e+003
         vertex 1.083792e+003 4.914173e+002 2.292390e+003
      endloop
   endfacet
   facet normal -6.172128e-016 -1.000000e+000 -1.149789e-017
      outer loop
         vertex 1.083792e+003 4.914173e+002 2.292390e+003
         vertex 1.090542e+003 4.914173e+002 2.272963e+003
         vertex 1.090691e+003 4.914173e+002 2.273519e+003
      endloop
   endfacet
   facet normal -6.172128e-016 -1.000000e+000 -1.149789e-017
      outer loop
         vertex 1.083792e+003 4.914173e+002 2.292390e+003
         vertex 1.090691e+003 4.914173e+002 2.273519e+003
         vertex 1.090934e+003 4.914173e+002 2.274040e+003
      endloop
   endfacet
   facet normal -6.172128e-016 -1.000000e+000 -1.149789e-017
      outer loop
         vertex 1.090934e+003 4.914173e+002 2.274040e+003
         vertex 1.091264e+003 4.914173e+002 2.274511e+003
         vertex 1.083792e+003 4.914173e+002 2.292390e+003
      endloop
   endfacet
   facet normal -6.172128e-016 -1.000000e+000 -1.149789e-017
      outer loop
         vertex 1.083792e+003 4.914173e+002 2.292390e+003
         vertex 1.091264e+003 4.914173e+002 2.274511e+003
         vertex 1.091671e+003 4.914173e+002 2.274918e+003
      endloop
   endfacet
   facet normal -6.172128e-016 -1.000000e+000 -1.149789e-017
      outer loop
         vertex 1.083792e+003 4.914173e+002 2.292390e+003
         vertex 1.091671e+003 4.914173e+002 2.274918e+003
         vertex 1.092142e+003 4.914173e+002 2.275248e+003
      endloop
   endfacet
   facet normal -6.172128e-016 -1.000000e+000 -1.149789e-017
      outer loop
         vertex 1.175913e+003 4.914173e+002 2.269862e+003
         vertex 1.175442e+003 4.914173e+002 2.269532e+003
         vertex 1.183792e+003 4.914173e+002 2.252390e+003
      endloop
   endfacet
   facet normal -6.172128e-016 -1.000000e+000 -1.149789e-017
      outer loop
         vertex 1.096650e+003 4.914173e+002 2.270740e+003
         vertex 1.096320e+003 4.914173e+002 2.270269e+003
         vertex 1.183792e+003 4.914173e+002 2.252390e+003
      endloop
   endfacet
   facet normal -6.172128e-016 -1.000000e+000 -1.149789e-017
      outer loop
         vertex 1.183792e+003 4.914173e+002 2.252390e+003
         vertex 1.096320e+003 4.914173e+002 2.270269e+003
         vertex 1.095913e+003 4.914173e+002 2.269862e+003
      endloop
   endfacet
   facet normal -6.172128e-016 -1.000000e+000 -1.149789e-017
      outer loop
         vertex 1.183792e+003 4.914173e+002 2.252390e+003
         vertex 1.095913e+003 4.914173e+002 2.269862e+003
         vertex 1.083792e+003 4.914173e+002 2.252390e+003
      endloop
   endfacet
   facet normal -6.172128e-016 -1.000000e+000 -1.149789e-017
      outer loop
         vertex 1.083792e+003 4.914173e+002 2.252390e+003
         vertex 1.095913e+003 4.914173e+002 2.269862e+003
         vertex 1.095442e+003 4.914173e+002 2.269532e+003
      endloop
   endfacet
   facet normal -6.172128e-016 -1.000000e+000 -1.149789e-017
      outer loop
         vertex 1.083792e+003 4.914173e+002 2.252390e+003
         vertex 1.095442e+003 4.914173e+002 2.269532e+003
         vertex 1.094921e+003 4.914173e+002 2.269289e+003
      endloop
   endfacet
   facet normal -6.172128e-016 -1.000000e+000 -1.149789e-017
      outer loop
         vertex 1.094365e+003 4.914173e+002 2.269140e+003
         vertex 1.093792e+003 4.914173e+002 2.269090e+003
         vertex 1.083792e+003 4.914173e+002 2.252390e+003
      endloop
   endfacet
   facet normal -6.172128e-016 -1.000000e+000 -1.149789e-017
      outer loop
         vertex 1.083792e+003 4.914173e+002 2.252390e+003
         vertex 1.093792e+003 4.914173e+002 2.269090e+003
         vertex 1.093219e+003 4.914173e+002 2.269140e+003
      endloop
   endfacet
   facet normal -6.172128e-016 -1.000000e+000 -1.149789e-017
      outer loop
         vertex 1.083792e+003 4.914173e+002 2.252390e+003
         vertex 1.093219e+003 4.914173e+002 2.269140e+003
         vertex 1.092664e+003 4.914173e+002 2.269289e+003
      endloop
   endfacet
   facet normal -6.172128e-016 -1.000000e+000 -1.149789e-017
      outer loop
         vertex 1.183792e+003 4.914173e+002 2.292390e+003
         vertex 1.174921e+003 4.914173e+002 2.275491e+003
         vertex 1.175442e+003 4.914173e+002 2.275248e+003
      endloop
   endfacet
   facet normal -6.172128e-016 -1.000000e+000 -1.149789e-017
      outer loop
         vertex 1.175442e+003 4.914173e+002 2.269532e+003
         vertex 1.174921e+003 4.914173e+002 2.269289e+003
         vertex 1.183792e+003 4.914173e+002 2.252390e+003
      endloop
   endfacet
   facet normal -6.172128e-016 -1.000000e+000 -1.149789e-017
      outer loop
         vertex 1.183792e+003 4.914173e+002 2.252390e+003
         vertex 1.174921e+003 4.914173e+002 2.269289e+003
         vertex 1.174365e+003 4.914173e+002 2.269140e+003
      endloop
   endfacet
   facet normal -6.172128e-016 -1.000000e+000 -1.149789e-017
      outer loop
         vertex 1.183792e+003 4.914173e+002 2.252390e+003
         vertex 1.174365e+003 4.914173e+002 2.269140e+003
         vertex 1.173792e+003 4.914173e+002 2.269090e+003
      endloop
   endfacet
   facet normal -6.172128e-016 -1.000000e+000 -1.149789e-017
      outer loop
         vertex 1.092142e+003 4.914173e+002 2.275248e+003
         vertex 1.092664e+003 4.914173e+002 2.275491e+003
         vertex 1.083792e+003 4.914173e+002 2.292390e+003
      endloop
   endfacet
   facet normal -6.172128e-016 -1.000000e+000 -1.149789e-017
      outer loop
         vertex 1.083792e+003 4.914173e+002 2.292390e+003
         vertex 1.092664e+003 4.914173e+002 2.275491e+003
         vertex 1.093219e+003 4.914173e+002 2.275640e+003
      endloop
   endfacet
   facet normal -6.172128e-016 -1.000000e+000 -1.149789e-017
      outer loop
         vertex 1.083792e+003 4.914173e+002 2.292390e+003
         vertex 1.093219e+003 4.914173e+002 2.275640e+003
         vertex 1.093792e+003 4.914173e+002 2.275690e+003
      endloop
   endfacet
   facet normal -6.172128e-016 -1.000000e+000 -1.149789e-017
      outer loop
         vertex 1.170691e+003 4.914173e+002 2.273519e+003
         vertex 1.170934e+003 4.914173e+002 2.274040e+003
         vertex 1.083792e+003 4.914173e+002 2.292390e+003
      endloop
   endfacet
   facet normal -6.172128e-016 -1.000000e+000 -1.149789e-017
      outer loop
         vertex 1.172664e+003 4.914173e+002 2.275491e+003
         vertex 1.173219e+003 4.914173e+002 2.275640e+003
         vertex 1.183792e+003 4.914173e+002 2.292390e+003
      endloop
   endfacet
   facet normal -6.172128e-016 -1.000000e+000 -1.149789e-017
      outer loop
         vertex 1.097042e+003 4.914173e+002 2.272963e+003
         vertex 1.097092e+003 4.914173e+002 2.272390e+003
         vertex 1.173792e+003 4.914173e+002 2.269090e+003
      endloop
   endfacet
   facet normal -6.172128e-016 -1.000000e+000 -1.149789e-017
      outer loop
         vertex 1.173792e+003 4.914173e+002 2.269090e+003
         vertex 1.097092e+003 4.914173e+002 2.272390e+003
         vertex 1.097042e+003 4.914173e+002 2.271817e+003
      endloop
   endfacet
   facet normal -6.172128e-016 -1.000000e+000 -1.149789e-017
      outer loop
         vertex 1.173792e+003 4.914173e+002 2.269090e+003
         vertex 1.097042e+003 4.914173e+002 2.271817e+003
         vertex 1.183792e+003 4.914173e+002 2.252390e+003
      endloop
   endfacet
   facet normal -6.172128e-016 -1.000000e+000 -1.149789e-017
      outer loop
         vertex 1.183792e+003 4.914173e+002 2.252390e+003
         vertex 1.097042e+003 4.914173e+002 2.271817e+003
         vertex 1.096893e+003 4.914173e+002 2.271261e+003
      endloop
   endfacet
   facet normal -6.172128e-016 -1.000000e+000 -1.149789e-017
      outer loop
         vertex 1.183792e+003 4.914173e+002 2.252390e+003
         vertex 1.096893e+003 4.914173e+002 2.271261e+003
         vertex 1.096650e+003 4.914173e+002 2.270740e+003
      endloop
   endfacet
   facet normal -6.172128e-016 -1.000000e+000 -1.149789e-017
      outer loop
         vertex 1.170691e+003 4.914173e+002 2.273519e+003
         vertex 1.083792e+003 4.914173e+002 2.292390e+003
         vertex 1.170542e+003 4.914173e+002 2.272963e+003
      endloop
   endfacet
   facet normal -6.172128e-016 -1.000000e+000 -1.149789e-017
      outer loop
         vertex 1.170542e+003 4.914173e+002 2.272963e+003
         vertex 1.083792e+003 4.914173e+002 2.292390e+003
         vertex 1.093792e+003 4.914173e+002 2.275690e+003
      endloop
   endfacet
   facet normal -6.172128e-016 -1.000000e+000 -1.149789e-017
      outer loop
         vertex 1.170542e+003 4.914173e+002 2.272963e+003
         vertex 1.093792e+003 4.914173e+002 2.275690e+003
         vertex 1.170492e+003 4.914173e+002 2.272390e+003
      endloop
   endfacet
   facet normal -6.172128e-016 -1.000000e+000 -1.149789e-017
      outer loop
         vertex 1.170492e+003 4.914173e+002 2.272390e+003
         vertex 1.093792e+003 4.914173e+002 2.275690e+003
         vertex 1.094365e+003 4.914173e+002 2.275640e+003
      endloop
   endfacet
   facet normal -6.172128e-016 -1.000000e+000 -1.149789e-017
      outer loop
         vertex 1.170492e+003 4.914173e+002 2.272390e+003
         vertex 1.094365e+003 4.914173e+002 2.275640e+003
         vertex 1.094921e+003 4.914173e+002 2.275491e+003
      endloop
   endfacet
   facet normal -6.172128e-016 -1.000000e+000 -1.149789e-017
      outer loop
         vertex 1.170934e+003 4.914173e+002 2.274040e+003
         vertex 1.171264e+003 4.914173e+002 2.274511e+003
         vertex 1.083792e+003 4.914173e+002 2.292390e+003
      endloop
   endfacet
   facet normal -6.172128e-016 -1.000000e+000 -1.149789e-017
      outer loop
         vertex 1.083792e+003 4.914173e+002 2.292390e+003
         vertex 1.171264e+003 4.914173e+002 2.274511e+003
         vertex 1.171671e+003 4.914173e+002 2.274918e+003
      endloop
   endfacet
   facet normal -6.172128e-016 -1.000000e+000 -1.149789e-017
      outer loop
         vertex 1.083792e+003 4.914173e+002 2.292390e+003
         vertex 1.171671e+003 4.914173e+002 2.274918e+003
         vertex 1.183792e+003 4.914173e+002 2.292390e+003
      endloop
   endfacet
   facet normal -6.172128e-016 -1.000000e+000 -1.149789e-017
      outer loop
         vertex 1.183792e+003 4.914173e+002 2.292390e+003
         vertex 1.171671e+003 4.914173e+002 2.274918e+003
         vertex 1.172142e+003 4.914173e+002 2.275248e+003
      endloop
   endfacet
   facet normal -6.172128e-016 -1.000000e+000 -1.149789e-017
      outer loop
         vertex 1.183792e+003 4.914173e+002 2.292390e+003
         vertex 1.172142e+003 4.914173e+002 2.275248e+003
         vertex 1.172664e+003 4.914173e+002 2.275491e+003
      endloop
   endfacet
   facet normal -6.172128e-016 -1.000000e+000 -1.149789e-017
      outer loop
         vertex 1.173219e+003 4.914173e+002 2.275640e+003
         vertex 1.173792e+003 4.914173e+002 2.275690e+003
         vertex 1.183792e+003 4.914173e+002 2.292390e+003
      endloop
   endfacet
   facet normal -6.172128e-016 -1.000000e+000 -1.149789e-017
      outer loop
         vertex 1.183792e+003 4.914173e+002 2.292390e+003
         vertex 1.173792e+003 4.914173e+002 2.275690e+003
         vertex 1.174365e+003 4.914173e+002 2.275640e+003
      endloop
   endfacet
   facet normal -6.172128e-016 -1.000000e+000 -1.149789e-017
      outer loop
         vertex 1.183792e+003 4.914173e+002 2.292390e+003
         vertex 1.174365e+003 4.914173e+002 2.275640e+003
         vertex 1.174921e+003 4.914173e+002 2.275491e+003
      endloop
   endfacet
   facet normal -6.172128e-016 -1.000000e+000 -1.149789e-017
      outer loop
         vertex 1.175442e+003 4.914173e+002 2.275248e+003
         vertex 1.175913e+003 4.914173e+002 2.274918e+003
         vertex 1.183792e+003 4.914173e+002 2.292390e+003
      endloop
   endfacet
   facet normal -6.172128e-016 -1.000000e+000 -1.149789e-017
      outer loop
         vertex 1.183792e+003 4.914173e+002 2.292390e+003
         vertex 1.175913e+003 4.914173e+002 2.274918e+003
         vertex 1.176320e+003 4.914173e+002 2.274511e+003
      endloop
   endfacet
   facet normal -6.172128e-016 -1.000000e+000 -1.149789e-017
      outer loop
         vertex 1.183792e+003 4.914173e+002 2.292390e+003
         vertex 1.176320e+003 4.914173e+002 2.274511e+003
         vertex 1.176650e+003 4.914173e+002 2.274040e+003
      endloop
   endfacet
   facet normal -6.172128e-016 -1.000000e+000 -1.149789e-017
      outer loop
         vertex 1.177042e+003 4.914173e+002 2.271817e+003
         vertex 1.176893e+003 4.914173e+002 2.271261e+003
         vertex 1.183792e+003 4.914173e+002 2.252390e+003
      endloop
   endfacet
   facet normal -6.172128e-016 -1.000000e+000 -1.149789e-017
      outer loop
         vertex 1.176893e+003 4.914173e+002 2.271261e+003
         vertex 1.176650e+003 4.914173e+002 2.270740e+003
         vertex 1.183792e+003 4.914173e+002 2.252390e+003
      endloop
   endfacet
   facet normal -6.172128e-016 -1.000000e+000 -1.149789e-017
      outer loop
         vertex 1.183792e+003 4.914173e+002 2.252390e+003
         vertex 1.176650e+003 4.914173e+002 2.270740e+003
         vertex 1.176320e+003 4.914173e+002 2.270269e+003
      endloop
   endfacet
   facet normal -6.172128e-016 -1.000000e+000 -1.149789e-017
      outer loop
         vertex 1.183792e+003 4.914173e+002 2.252390e+003
         vertex 1.176320e+003 4.914173e+002 2.270269e+003
         vertex 1.175913e+003 4.914173e+002 2.269862e+003
      endloop
   endfacet
   facet normal -6.172128e-016 -1.000000e+000 -1.149789e-017
      outer loop
         vertex 1.176650e+003 4.914173e+002 2.274040e+003
         vertex 1.176893e+003 4.914173e+002 2.273519e+003
         vertex 1.183792e+003 4.914173e+002 2.292390e+003
      endloop
   endfacet
   facet normal -6.172128e-016 -1.000000e+000 -1.149789e-017
      outer loop
         vertex 1.183792e+003 4.914173e+002 2.292390e+003
         vertex 1.176893e+003 4.914173e+002 2.273519e+003
         vertex 1.177042e+003 4.914173e+002 2.272963e+003
      endloop
   endfacet
   facet normal -6.172128e-016 -1.000000e+000 -1.149789e-017
      outer loop
         vertex 1.183792e+003 4.914173e+002 2.292390e+003
         vertex 1.177042e+003 4.914173e+002 2.272963e+003
         vertex 1.183792e+003 4.914173e+002 2.252390e+003
      endloop
   endfacet
   facet normal -6.172128e-016 -1.000000e+000 -1.149789e-017
      outer loop
         vertex 1.183792e+003 4.914173e+002 2.252390e+003
         vertex 1.177042e+003 4.914173e+002 2.272963e+003
         vertex 1.177092e+003 4.914173e+002 2.272390e+003
      endloop
   endfacet
   facet normal -6.172128e-016 -1.000000e+000 -1.149789e-017
      outer loop
         vertex 1.183792e+003 4.914173e+002 2.252390e+003
         vertex 1.177092e+003 4.914173e+002 2.272390e+003
         vertex 1.177042e+003 4.914173e+002 2.271817e+003
      endloop
   endfacet
   facet normal 6.172128e-016 1.000000e+000 1.149789e-017
      outer loop
         vertex 1.096893e+003 4.954173e+002 2.273519e+003
         vertex 1.096650e+003 4.954173e+002 2.274040e+003
         vertex 1.183792e+003 4.954173e+002 2.292390e+003
      endloop
   endfacet
   facet normal 6.172128e-016 1.000000e+000 1.149789e-017
      outer loop
         vertex 1.083792e+003 4.954173e+002 2.252390e+003
         vertex 1.083792e+003 4.954173e+002 2.292390e+003
         vertex 1.090492e+003 4.954173e+002 2.272390e+003
      endloop
   endfacet
   facet normal 6.172128e-016 1.000000e+000 1.149789e-017
      outer loop
         vertex 1.183792e+003 4.954173e+002 2.292390e+003
         vertex 1.174365e+003 4.954173e+002 2.275640e+003
         vertex 1.173792e+003 4.954173e+002 2.275690e+003
      endloop
   endfacet
   facet normal 6.172128e-016 1.000000e+000 1.149789e-017
      outer loop
         vertex 1.090492e+003 4.954173e+002 2.272390e+003
         vertex 1.090542e+003 4.954173e+002 2.271817e+003
         vertex 1.083792e+003 4.954173e+002 2.252390e+003
      endloop
   endfacet
   facet normal 6.172128e-016 1.000000e+000 1.149789e-017
      outer loop
         vertex 1.083792e+003 4.954173e+002 2.252390e+003
         vertex 1.090542e+003 4.954173e+002 2.271817e+003
         vertex 1.090691e+003 4.954173e+002 2.271261e+003
      endloop
   endfacet
   facet normal 6.172128e-016 1.000000e+000 1.149789e-017
      outer loop
         vertex 1.083792e+003 4.954173e+002 2.252390e+003
         vertex 1.090691e+003 4.954173e+002 2.271261e+003
         vertex 1.090934e+003 4.954173e+002 2.270740e+003
      endloop
   endfacet
   facet normal 6.172128e-016 1.000000e+000 1.149789e-017
      outer loop
         vertex 1.096893e+003 4.954173e+002 2.271261e+003
         vertex 1.097042e+003 4.954173e+002 2.271817e+003
         vertex 1.183792e+003 4.954173e+002 2.252390e+003
      endloop
   endfacet
   facet normal 6.172128e-016 1.000000e+000 1.149789e-017
      outer loop
         vertex 1.090934e+003 4.954173e+002 2.270740e+003
         vertex 1.091264e+003 4.954173e+002 2.270269e+003
         vertex 1.083792e+003 4.954173e+002 2.252390e+003
      endloop
   endfacet
   facet normal 6.172128e-016 1.000000e+000 1.149789e-017
      outer loop
         vertex 1.083792e+003 4.954173e+002 2.252390e+003
         vertex 1.091264e+003 4.954173e+002 2.270269e+003
         vertex 1.091671e+003 4.954173e+002 2.269862e+003
      endloop
   endfacet
   facet normal 6.172128e-016 1.000000e+000 1.149789e-017
      outer loop
         vertex 1.083792e+003 4.954173e+002 2.252390e+003
         vertex 1.091671e+003 4.954173e+002 2.269862e+003
         vertex 1.092142e+003 4.954173e+002 2.269532e+003
      endloop
   endfacet
   facet normal 6.172128e-016 1.000000e+000 1.149789e-017
      outer loop
         vertex 1.176893e+003 4.954173e+002 2.273519e+003
         vertex 1.176650e+003 4.954173e+002 2.274040e+003
         vertex 1.183792e+003 4.954173e+002 2.292390e+003
      endloop
   endfacet
   facet normal 6.172128e-016 1.000000e+000 1.149789e-017
      outer loop
         vertex 1.183792e+003 4.954173e+002 2.292390e+003
         vertex 1.176650e+003 4.954173e+002 2.274040e+003
         vertex 1.176320e+003 4.954173e+002 2.274511e+003
      endloop
   endfacet
   facet normal 6.172128e-016 1.000000e+000 1.149789e-017
      outer loop
         vertex 1.183792e+003 4.954173e+002 2.292390e+003
         vertex 1.176320e+003 4.954173e+002 2.274511e+003
         vertex 1.175913e+003 4.954173e+002 2.274918e+003
      endloop
   endfacet
   facet normal 6.172128e-016 1.000000e+000 1.149789e-017
      outer loop
         vertex 1.175913e+003 4.954173e+002 2.274918e+003
         vertex 1.175442e+003 4.954173e+002 2.275248e+003
         vertex 1.183792e+003 4.954173e+002 2.292390e+003
      endloop
   endfacet
   facet normal 6.172128e-016 1.000000e+000 1.149789e-017
      outer loop
         vertex 1.183792e+003 4.954173e+002 2.292390e+003
         vertex 1.175442e+003 4.954173e+002 2.275248e+003
         vertex 1.174921e+003 4.954173e+002 2.275491e+003
      endloop
   endfacet
   facet normal 6.172128e-016 1.000000e+000 1.149789e-017
      outer loop
         vertex 1.183792e+003 4.954173e+002 2.292390e+003
         vertex 1.174921e+003 4.954173e+002 2.275491e+003
         vertex 1.174365e+003 4.954173e+002 2.275640e+003
      endloop
   endfacet
   facet normal 6.172128e-016 1.000000e+000 1.149789e-017
      outer loop
         vertex 1.094921e+003 4.954173e+002 2.275491e+003
         vertex 1.094365e+003 4.954173e+002 2.275640e+003
         vertex 1.083792e+003 4.954173e+002 2.292390e+003
      endloop
   endfacet
   facet normal 6.172128e-016 1.000000e+000 1.149789e-017
      outer loop
         vertex 1.095913e+003 4.954173e+002 2.269862e+003
         vertex 1.096320e+003 4.954173e+002 2.270269e+003
         vertex 1.183792e+003 4.954173e+002 2.252390e+003
      endloop
   endfacet
   facet normal 6.172128e-016 1.000000e+000 1.149789e-017
      outer loop
         vertex 1.183792e+003 4.954173e+002 2.252390e+003
         vertex 1.096320e+003 4.954173e+002 2.270269e+003
         vertex 1.096650e+003 4.954173e+002 2.270740e+003
      endloop
   endfacet
   facet normal 6.172128e-016 1.000000e+000 1.149789e-017
      outer loop
         vertex 1.183792e+003 4.954173e+002 2.252390e+003
         vertex 1.096650e+003 4.954173e+002 2.270740e+003
         vertex 1.096893e+003 4.954173e+002 2.271261e+003
      endloop
   endfacet
   facet normal 6.172128e-016 1.000000e+000 1.149789e-017
      outer loop
         vertex 1.171671e+003 4.954173e+002 2.274918e+003
         vertex 1.097092e+003 4.954173e+002 2.272390e+003
         vertex 1.172142e+003 4.954173e+002 2.275248e+003
      endloop
   endfacet
   facet normal 6.172128e-016 1.000000e+000 1.149789e-017
      outer loop
         vertex 1.172142e+003 4.954173e+002 2.275248e+003
         vertex 1.097092e+003 4.954173e+002 2.272390e+003
         vertex 1.172664e+003 4.954173e+002 2.275491e+003
      endloop
   endfacet
   facet normal 6.172128e-016 1.000000e+000 1.149789e-017
      outer loop
         vertex 1.096893e+003 4.954173e+002 2.273519e+003
         vertex 1.183792e+003 4.954173e+002 2.292390e+003
         vertex 1.097042e+003 4.954173e+002 2.272963e+003
      endloop
   endfacet
   facet normal 6.172128e-016 1.000000e+000 1.149789e-017
      outer loop
         vertex 1.097042e+003 4.954173e+002 2.272963e+003
         vertex 1.183792e+003 4.954173e+002 2.292390e+003
         vertex 1.173792e+003 4.954173e+002 2.275690e+003
      endloop
   endfacet
   facet normal 6.172128e-016 1.000000e+000 1.149789e-017
      outer loop
         vertex 1.097042e+003 4.954173e+002 2.272963e+003
         vertex 1.173792e+003 4.954173e+002 2.275690e+003
         vertex 1.097092e+003 4.954173e+002 2.272390e+003
      endloop
   endfacet
   facet normal 6.172128e-016 1.000000e+000 1.149789e-017
      outer loop
         vertex 1.097092e+003 4.954173e+002 2.272390e+003
         vertex 1.173792e+003 4.954173e+002 2.275690e+003
         vertex 1.173219e+003 4.954173e+002 2.275640e+003
      endloop
   endfacet
   facet normal 6.172128e-016 1.000000e+000 1.149789e-017
      outer loop
         vertex 1.097092e+003 4.954173e+002 2.272390e+003
         vertex 1.173219e+003 4.954173e+002 2.275640e+003
         vertex 1.172664e+003 4.954173e+002 2.275491e+003
      endloop
   endfacet
   facet normal 6.172128e-016 1.000000e+000 1.149789e-017
      outer loop
         vertex 1.096650e+003 4.954173e+002 2.274040e+003
         vertex 1.096320e+003 4.954173e+002 2.274511e+003
         vertex 1.183792e+003 4.954173e+002 2.292390e+003
      endloop
   endfacet
   facet normal 6.172128e-016 1.000000e+000 1.149789e-017
      outer loop
         vertex 1.183792e+003 4.954173e+002 2.292390e+003
         vertex 1.096320e+003 4.954173e+002 2.274511e+003
         vertex 1.095913e+003 4.954173e+002 2.274918e+003
      endloop
   endfacet
   facet normal 6.172128e-016 1.000000e+000 1.149789e-017
      outer loop
         vertex 1.183792e+003 4.954173e+002 2.292390e+003
         vertex 1.095913e+003 4.954173e+002 2.274918e+003
         vertex 1.083792e+003 4.954173e+002 2.292390e+003
      endloop
   endfacet
   facet normal 6.172128e-016 1.000000e+000 1.149789e-017
      outer loop
         vertex 1.083792e+003 4.954173e+002 2.292390e+003
         vertex 1.095913e+003 4.954173e+002 2.274918e+003
         vertex 1.095442e+003 4.954173e+002 2.275248e+003
      endloop
   endfacet
   facet normal 6.172128e-016 1.000000e+000 1.149789e-017
      outer loop
         vertex 1.083792e+003 4.954173e+002 2.292390e+003
         vertex 1.095442e+003 4.954173e+002 2.275248e+003
         vertex 1.094921e+003 4.954173e+002 2.275491e+003
      endloop
   endfacet
   facet normal 6.172128e-016 1.000000e+000 1.149789e-017
      outer loop
         vertex 1.083792e+003 4.954173e+002 2.292390e+003
         vertex 1.092664e+003 4.954173e+002 2.275491e+003
         vertex 1.092142e+003 4.954173e+002 2.275248e+003
      endloop
   endfacet
   facet normal 6.172128e-016 1.000000e+000 1.149789e-017
      outer loop
         vertex 1.092142e+003 4.954173e+002 2.275248e+003
         vertex 1.091671e+003 4.954173e+002 2.274918e+003
         vertex 1.083792e+003 4.954173e+002 2.292390e+003
      endloop
   endfacet
   facet normal 6.172128e-016 1.000000e+000 1.149789e-017
      outer loop
         vertex 1.083792e+003 4.954173e+002 2.292390e+003
         vertex 1.091671e+003 4.954173e+002 2.274918e+003
         vertex 1.091264e+003 4.954173e+002 2.274511e+003
      endloop
   endfacet
   facet normal 6.172128e-016 1.000000e+000 1.149789e-017
      outer loop
         vertex 1.083792e+003 4.954173e+002 2.292390e+003
         vertex 1.091264e+003 4.954173e+002 2.274511e+003
         vertex 1.090934e+003 4.954173e+002 2.274040e+003
      endloop
   endfacet
   facet normal 6.172128e-016 1.000000e+000 1.149789e-017
      outer loop
         vertex 1.090934e+003 4.954173e+002 2.274040e+003
         vertex 1.090691e+003 4.954173e+002 2.273519e+003
         vertex 1.083792e+003 4.954173e+002 2.292390e+003
      endloop
   endfacet
   facet normal 6.172128e-016 1.000000e+000 1.149789e-017
      outer loop
         vertex 1.083792e+003 4.954173e+002 2.292390e+003
         vertex 1.090691e+003 4.954173e+002 2.273519e+003
         vertex 1.090542e+003 4.954173e+002 2.272963e+003
      endloop
   endfacet
   facet normal 6.172128e-016 1.000000e+000 1.149789e-017
      outer loop
         vertex 1.083792e+003 4.954173e+002 2.292390e+003
         vertex 1.090542e+003 4.954173e+002 2.272963e+003
         vertex 1.090492e+003 4.954173e+002 2.272390e+003
      endloop
   endfacet
   facet normal 6.172128e-016 1.000000e+000 1.149789e-017
      outer loop
         vertex 1.092142e+003 4.954173e+002 2.269532e+003
         vertex 1.092664e+003 4.954173e+002 2.269289e+003
         vertex 1.083792e+003 4.954173e+002 2.252390e+003
      endloop
   endfacet
   facet normal 6.172128e-016 1.000000e+000 1.149789e-017
      outer loop
         vertex 1.083792e+003 4.954173e+002 2.252390e+003
         vertex 1.092664e+003 4.954173e+002 2.269289e+003
         vertex 1.093219e+003 4.954173e+002 2.269140e+003
      endloop
   endfacet
   facet normal 6.172128e-016 1.000000e+000 1.149789e-017
      outer loop
         vertex 1.083792e+003 4.954173e+002 2.252390e+003
         vertex 1.093219e+003 4.954173e+002 2.269140e+003
         vertex 1.093792e+003 4.954173e+002 2.269090e+003
      endloop
   endfacet
   facet normal 6.172128e-016 1.000000e+000 1.149789e-017
      outer loop
         vertex 1.093792e+003 4.954173e+002 2.269090e+003
         vertex 1.094365e+003 4.954173e+002 2.269140e+003
         vertex 1.083792e+003 4.954173e+002 2.252390e+003
      endloop
   endfacet
   facet normal 6.172128e-016 1.000000e+000 1.149789e-017
      outer loop
         vertex 1.083792e+003 4.954173e+002 2.252390e+003
         vertex 1.094365e+003 4.954173e+002 2.269140e+003
         vertex 1.094921e+003 4.954173e+002 2.269289e+003
      endloop
   endfacet
   facet normal 6.172128e-016 1.000000e+000 1.149789e-017
      outer loop
         vertex 1.083792e+003 4.954173e+002 2.252390e+003
         vertex 1.094921e+003 4.954173e+002 2.269289e+003
         vertex 1.183792e+003 4.954173e+002 2.252390e+003
      endloop
   endfacet
   facet normal 6.172128e-016 1.000000e+000 1.149789e-017
      outer loop
         vertex 1.183792e+003 4.954173e+002 2.252390e+003
         vertex 1.094921e+003 4.954173e+002 2.269289e+003
         vertex 1.095442e+003 4.954173e+002 2.269532e+003
      endloop
   endfacet
   facet normal 6.172128e-016 1.000000e+000 1.149789e-017
      outer loop
         vertex 1.183792e+003 4.954173e+002 2.252390e+003
         vertex 1.095442e+003 4.954173e+002 2.269532e+003
         vertex 1.095913e+003 4.954173e+002 2.269862e+003
      endloop
   endfacet
   facet normal 6.172128e-016 1.000000e+000 1.149789e-017
      outer loop
         vertex 1.094365e+003 4.954173e+002 2.275640e+003
         vertex 1.093792e+003 4.954173e+002 2.275690e+003
         vertex 1.083792e+003 4.954173e+002 2.292390e+003
      endloop
   endfacet
   facet normal 6.172128e-016 1.000000e+000 1.149789e-017
      outer loop
         vertex 1.083792e+003 4.954173e+002 2.292390e+003
         vertex 1.093792e+003 4.954173e+002 2.275690e+003
         vertex 1.093219e+003 4.954173e+002 2.275640e+003
      endloop
   endfacet
   facet normal 6.172128e-016 1.000000e+000 1.149789e-017
      outer loop
         vertex 1.083792e+003 4.954173e+002 2.292390e+003
         vertex 1.093219e+003 4.954173e+002 2.275640e+003
         vertex 1.092664e+003 4.954173e+002 2.275491e+003
      endloop
   endfacet
   facet normal 6.172128e-016 1.000000e+000 1.149789e-017
      outer loop
         vertex 1.171671e+003 4.954173e+002 2.274918e+003
         vertex 1.171264e+003 4.954173e+002 2.274511e+003
         vertex 1.097092e+003 4.954173e+002 2.272390e+003
      endloop
   endfacet
   facet normal 6.172128e-016 1.000000e+000 1.149789e-017
      outer loop
         vertex 1.097092e+003 4.954173e+002 2.272390e+003
         vertex 1.171264e+003 4.954173e+002 2.274511e+003
         vertex 1.170934e+003 4.954173e+002 2.274040e+003
      endloop
   endfacet
   facet normal 6.172128e-016 1.000000e+000 1.149789e-017
      outer loop
         vertex 1.097092e+003 4.954173e+002 2.272390e+003
         vertex 1.170934e+003 4.954173e+002 2.274040e+003
         vertex 1.170691e+003 4.954173e+002 2.273519e+003
      endloop
   endfacet
   facet normal 6.172128e-016 1.000000e+000 1.149789e-017
      outer loop
         vertex 1.175913e+003 4.954173e+002 2.269862e+003
         vertex 1.176320e+003 4.954173e+002 2.270269e+003
         vertex 1.183792e+003 4.954173e+002 2.252390e+003
      endloop
   endfacet
   facet normal 6.172128e-016 1.000000e+000 1.149789e-017
      outer loop
         vertex 1.183792e+003 4.954173e+002 2.252390e+003
         vertex 1.176320e+003 4.954173e+002 2.270269e+003
         vertex 1.176650e+003 4.954173e+002 2.270740e+003
      endloop
   endfacet
   facet normal 6.172128e-016 1.000000e+000 1.149789e-017
      outer loop
         vertex 1.183792e+003 4.954173e+002 2.252390e+003
         vertex 1.176650e+003 4.954173e+002 2.270740e+003
         vertex 1.176893e+003 4.954173e+002 2.271261e+003
      endloop
   endfacet
   facet normal 6.172128e-016 1.000000e+000 1.149789e-017
      outer loop
         vertex 1.176893e+003 4.954173e+002 2.271261e+003
         vertex 1.177042e+003 4.954173e+002 2.271817e+003
         vertex 1.183792e+003 4.954173e+002 2.252390e+003
      endloop
   endfacet
   facet normal 6.172128e-016 1.000000e+000 1.149789e-017
      outer loop
         vertex 1.183792e+003 4.954173e+002 2.252390e+003
         vertex 1.177042e+003 4.954173e+002 2.271817e+003
         vertex 1.177092e+003 4.954173e+002 2.272390e+003
      endloop
   endfacet
   facet normal 6.172128e-016 1.000000e+000 1.149789e-017
      outer loop
         vertex 1.183792e+003 4.954173e+002 2.252390e+003
         vertex 1.177092e+003 4.954173e+002 2.272390e+003
         vertex 1.183792e+003 4.954173e+002 2.292390e+003
      endloop
   endfacet
   facet normal 6.172128e-016 1.000000e+000 1.149789e-017
      outer loop
         vertex 1.183792e+003 4.954173e+002 2.292390e+003
         vertex 1.177092e+003 4.954173e+002 2.272390e+003
         vertex 1.177042e+003 4.954173e+002 2.272963e+003
      endloop
   endfacet
   facet normal 6.172128e-016 1.000000e+000 1.149789e-017
      outer loop
         vertex 1.183792e+003 4.954173e+002 2.292390e+003
         vertex 1.177042e+003 4.954173e+002 2.272963e+003
         vertex 1.176893e+003 4.954173e+002 2.273519e+003
      endloop
   endfacet
   facet normal 6.172128e-016 1.000000e+000 1.149789e-017
      outer loop
         vertex 1.173219e+003 4.954173e+002 2.269140e+003
         vertex 1.173792e+003 4.954173e+002 2.269090e+003
         vertex 1.183792e+003 4.954173e+002 2.252390e+003
      endloop
   endfacet
   facet normal 6.172128e-016 1.000000e+000 1.149789e-017
      outer loop
         vertex 1.183792e+003 4.954173e+002 2.252390e+003
         vertex 1.173792e+003 4.954173e+002 2.269090e+003
         vertex 1.174365e+003 4.954173e+002 2.269140e+003
      endloop
   endfacet
   facet normal 6.172128e-016 1.000000e+000 1.149789e-017
      outer loop
         vertex 1.174365e+003 4.954173e+002 2.269140e+003
         vertex 1.174921e+003 4.954173e+002 2.269289e+003
         vertex 1.183792e+003 4.954173e+002 2.252390e+003
      endloop
   endfacet
   facet normal 6.172128e-016 1.000000e+000 1.149789e-017
      outer loop
         vertex 1.183792e+003 4.954173e+002 2.252390e+003
         vertex 1.174921e+003 4.954173e+002 2.269289e+003
         vertex 1.175442e+003 4.954173e+002 2.269532e+003
      endloop
   endfacet
   facet normal 6.172128e-016 1.000000e+000 1.149789e-017
      outer loop
         vertex 1.183792e+003 4.954173e+002 2.252390e+003
         vertex 1.175442e+003 4.954173e+002 2.269532e+003
         vertex 1.175913e+003 4.954173e+002 2.269862e+003
      endloop
   endfacet
   facet normal 6.172128e-016 1.000000e+000 1.149789e-017
      outer loop
         vertex 1.170691e+003 4.954173e+002 2.271261e+003
         vertex 1.170934e+003 4.954173e+002 2.270740e+003
         vertex 1.097042e+003 4.954173e+002 2.271817e+003
      endloop
   endfacet
   facet normal 6.172128e-016 1.000000e+000 1.149789e-017
      outer loop
         vertex 1.097042e+003 4.954173e+002 2.271817e+003
         vertex 1.170934e+003 4.954173e+002 2.270740e+003
         vertex 1.171264e+003 4.954173e+002 2.270269e+003
      endloop
   endfacet
   facet normal 6.172128e-016 1.000000e+000 1.149789e-017
      outer loop
         vertex 1.171264e+003 4.954173e+002 2.270269e+003
         vertex 1.171671e+003 4.954173e+002 2.269862e+003
         vertex 1.097042e+003 4.954173e+002 2.271817e+003
      endloop
   endfacet
   facet normal 6.172128e-016 1.000000e+000 1.149789e-017
      outer loop
         vertex 1.097042e+003 4.954173e+002 2.271817e+003
         vertex 1.171671e+003 4.954173e+002 2.269862e+003
         vertex 1.172142e+003 4.954173e+002 2.269532e+003
      endloop
   endfacet
   facet normal 6.172128e-016 1.000000e+000 1.149789e-017
      outer loop
         vertex 1.097042e+003 4.954173e+002 2.271817e+003
         vertex 1.172142e+003 4.954173e+002 2.269532e+003
         vertex 1.183792e+003 4.954173e+002 2.252390e+003
      endloop
   endfacet
   facet normal 6.172128e-016 1.000000e+000 1.149789e-017
      outer loop
         vertex 1.183792e+003 4.954173e+002 2.252390e+003
         vertex 1.172142e+003 4.954173e+002 2.269532e+003
         vertex 1.172664e+003 4.954173e+002 2.269289e+003
      endloop
   endfacet
   facet normal 6.172128e-016 1.000000e+000 1.149789e-017
      outer loop
         vertex 1.183792e+003 4.954173e+002 2.252390e+003
         vertex 1.172664e+003 4.954173e+002 2.269289e+003
         vertex 1.173219e+003 4.954173e+002 2.269140e+003
      endloop
   endfacet
   facet normal 6.172128e-016 1.000000e+000 1.149789e-017
      outer loop
         vertex 1.170691e+003 4.954173e+002 2.273519e+003
         vertex 1.170542e+003 4.954173e+002 2.272963e+003
         vertex 1.097092e+003 4.954173e+002 2.272390e+003
      endloop
   endfacet
   facet normal 6.172128e-016 1.000000e+000 1.149789e-017
      outer loop
         vertex 1.097092e+003 4.954173e+002 2.272390e+003
         vertex 1.170542e+003 4.954173e+002 2.272963e+003
         vertex 1.170492e+003 4.954173e+002 2.272390e+003
      endloop
   endfacet
   facet normal 6.172128e-016 1.000000e+000 1.149789e-017
      outer loop
         vertex 1.097092e+003 4.954173e+002 2.272390e+003
         vertex 1.170492e+003 4.954173e+002 2.272390e+003
         vertex 1.097042e+003 4.954173e+002 2.271817e+003
      endloop
   endfacet
   facet normal 6.172128e-016 1.000000e+000 1.149789e-017
      outer loop
         vertex 1.097042e+003 4.954173e+002 2.271817e+003
         vertex 1.170492e+003 4.954173e+002 2.272390e+003
         vertex 1.170542e+003 4.954173e+002 2.271817e+003
      endloop
   endfacet
   facet normal 6.172128e-016 1.000000e+000 1.149789e-017
      outer loop
         vertex 1.097042e+003 4.954173e+002 2.271817e+003
         vertex 1.170542e+003 4.954173e+002 2.271817e+003
         vertex 1.170691e+003 4.954173e+002 2.271261e+003
      endloop
   endfacet
   facet normal 9.983120e-001 -6.155031e-016 -5.807914e-002
      outer loop
         vertex 1.170542e+003 4.954173e+002 2.272963e+003
         vertex 1.170492e+003 4.914173e+002 2.272390e+003
         vertex 1.170492e+003 4.954173e+002 2.272390e+003
      endloop
   endfacet
   facet normal 9.983120e-001 -6.168387e-016 5.807914e-002
      outer loop
         vertex 1.170492e+003 4.954173e+002 2.272390e+003
         vertex 1.170492e+003 4.914173e+002 2.272390e+003
         vertex 1.170542e+003 4.914173e+002 2.271817e+003
      endloop
   endfacet
   facet normal 9.932307e-001 -6.143703e-016 1.161583e-001
      outer loop
         vertex 1.170492e+003 4.954173e+002 2.272390e+003
         vertex 1.170542e+003 4.914173e+002 2.271817e+003
         vertex 1.170542e+003 4.954173e+002 2.271817e+003
      endloop
   endfacet
   facet normal 9.730601e-001 -6.032360e-016 2.305518e-001
      outer loop
         vertex 1.170542e+003 4.954173e+002 2.271817e+003
         vertex 1.170542e+003 4.914173e+002 2.271817e+003
         vertex 1.170691e+003 4.914173e+002 2.271261e+003
      endloop
   endfacet
   facet normal 9.579706e-001 -5.945701e-016 2.868663e-001
      outer loop
         vertex 1.170542e+003 4.954173e+002 2.271817e+003
         vertex 1.170691e+003 4.914173e+002 2.271261e+003
         vertex 1.170691e+003 4.954173e+002 2.271261e+003
      endloop
   endfacet
   facet normal 9.182422e-001 -5.713042e-016 3.960194e-001
      outer loop
         vertex 1.170691e+003 4.954173e+002 2.271261e+003
         vertex 1.170691e+003 4.914173e+002 2.271261e+003
         vertex 1.170934e+003 4.914173e+002 2.270740e+003
      endloop
   endfacet
   facet normal 8.936031e-001 -5.567041e-016 4.488580e-001
      outer loop
         vertex 1.170691e+003 4.954173e+002 2.271261e+003
         vertex 1.170934e+003 4.914173e+002 2.270740e+003
         vertex 1.170934e+003 4.954173e+002 2.270740e+003
      endloop
   endfacet
   facet normal 8.355240e-001 -5.220136e-016 5.494540e-001
      outer loop
         vertex 1.170934e+003 4.954173e+002 2.270740e+003
         vertex 1.170934e+003 4.914173e+002 2.270740e+003
         vertex 1.171264e+003 4.914173e+002 2.270269e+003
      endloop
   endfacet
   facet normal 8.020839e-001 -5.019231e-016 5.972114e-001
      outer loop
         vertex 1.170934e+003 4.954173e+002 2.270740e+003
         vertex 1.171264e+003 4.914173e+002 2.270269e+003
         vertex 1.171264e+003 4.954173e+002 2.270269e+003
      endloop
   endfacet
   facet normal 7.274188e-001 -4.568619e-016 6.861938e-001
      outer loop
         vertex 1.171264e+003 4.954173e+002 2.270269e+003
         vertex 1.171264e+003 4.914173e+002 2.270269e+003
         vertex 1.171671e+003 4.914173e+002 2.269862e+003
      endloop
   endfacet
   facet normal 6.861938e-001 -4.318913e-016 7.274188e-001
      outer loop
         vertex 1.171264e+003 4.954173e+002 2.270269e+003
         vertex 1.171671e+003 4.914173e+002 2.269862e+003
         vertex 1.171671e+003 4.954173e+002 2.269862e+003
      endloop
   endfacet
   facet normal 5.972114e-001 -3.778288e-016 8.020839e-001
      outer loop
         vertex 1.171671e+003 4.954173e+002 2.269862e+003
         vertex 1.171671e+003 4.914173e+002 2.269862e+003
         vertex 1.172142e+003 4.914173e+002 2.269532e+003
      endloop
   endfacet
   facet normal 5.494540e-001 -3.487368e-016 8.355240e-001
      outer loop
         vertex 1.171671e+003 4.954173e+002 2.269862e+003
         vertex 1.172142e+003 4.914173e+002 2.269532e+003
         vertex 1.172142e+003 4.954173e+002 2.269532e+003
      endloop
   endfacet
   facet normal 4.488580e-001 -2.873154e-016 8.936031e-001
      outer loop
         vertex 1.172142e+003 4.954173e+002 2.269532e+003
         vertex 1.172142e+003 4.914173e+002 2.269532e+003
         vertex 1.172664e+003 4.914173e+002 2.269289e+003
      endloop
   endfacet
   facet normal 3.960194e-001 -2.549861e-016 9.182422e-001
      outer loop
         vertex 1.172142e+003 4.954173e+002 2.269532e+003
         vertex 1.172664e+003 4.914173e+002 2.269289e+003
         vertex 1.172664e+003 4.954173e+002 2.269289e+003
      endloop
   endfacet
   facet normal 2.868663e-001 -1.880722e-016 9.579706e-001
      outer loop
         vertex 1.172664e+003 4.954173e+002 2.269289e+003
         vertex 1.172664e+003 4.914173e+002 2.269289e+003
         vertex 1.173219e+003 4.914173e+002 2.269140e+003
      endloop
   endfacet
   facet normal 2.305518e-001 -1.534877e-016 9.730601e-001
      outer loop
         vertex 1.172664e+003 4.954173e+002 2.269289e+003
         vertex 1.173219e+003 4.914173e+002 2.269140e+003
         vertex 1.173219e+003 4.954173e+002 2.269140e+003
      endloop
   endfacet
   facet normal 1.161583e-001 -8.311443e-017 9.932307e-001
      outer loop
         vertex 1.173219e+003 4.954173e+002 2.269140e+003
         vertex 1.173219e+003 4.914173e+002 2.269140e+003
         vertex 1.173792e+003 4.914173e+002 2.269090e+003
      endloop
   endfacet
   facet normal 5.807914e-002 -4.732566e-017 9.983120e-001
      outer loop
         vertex 1.173219e+003 4.954173e+002 2.269140e+003
         vertex 1.173792e+003 4.914173e+002 2.269090e+003
         vertex 1.173792e+003 4.954173e+002 2.269090e+003
      endloop
   endfacet
   facet normal -5.807914e-002 2.436871e-017 9.983120e-001
      outer loop
         vertex 1.173792e+003 4.954173e+002 2.269090e+003
         vertex 1.173792e+003 4.914173e+002 2.269090e+003
         vertex 1.174365e+003 4.914173e+002 2.269140e+003
      endloop
   endfacet
   facet normal -1.161583e-001 6.027432e-017 9.932307e-001
      outer loop
         vertex 1.173792e+003 4.954173e+002 2.269090e+003
         vertex 1.174365e+003 4.914173e+002 2.269140e+003
         vertex 1.174365e+003 4.954173e+002 2.269140e+003
      endloop
   endfacet
   facet normal -2.305518e-001 1.311114e-016 9.730601e-001
      outer loop
         vertex 1.174365e+003 4.954173e+002 2.269140e+003
         vertex 1.174365e+003 4.914173e+002 2.269140e+003
         vertex 1.174921e+003 4.914173e+002 2.269289e+003
      endloop
   endfacet
   facet normal -2.868663e-001 1.660429e-016 9.579706e-001
      outer loop
         vertex 1.174365e+003 4.954173e+002 2.269140e+003
         vertex 1.174921e+003 4.914173e+002 2.269289e+003
         vertex 1.174921e+003 4.954173e+002 2.269289e+003
      endloop
   endfacet
   facet normal -3.960194e-001 2.338704e-016 9.182422e-001
      outer loop
         vertex 1.174921e+003 4.954173e+002 2.269289e+003
         vertex 1.174921e+003 4.914173e+002 2.269289e+003
         vertex 1.175442e+003 4.914173e+002 2.269532e+003
      endloop
   endfacet
   facet normal -4.488580e-001 2.667663e-016 8.936031e-001
      outer loop
         vertex 1.174921e+003 4.954173e+002 2.269289e+003
         vertex 1.175442e+003 4.914173e+002 2.269532e+003
         vertex 1.175442e+003 4.954173e+002 2.269532e+003
      endloop
   endfacet
   facet normal -5.494540e-001 3.295233e-016 8.355240e-001
      outer loop
         vertex 1.175442e+003 4.954173e+002 2.269532e+003
         vertex 1.175442e+003 4.914173e+002 2.269532e+003
         vertex 1.175913e+003 4.914173e+002 2.269862e+003
      endloop
   endfacet
   facet normal -5.972114e-001 3.593842e-016 8.020839e-001
      outer loop
         vertex 1.175442e+003 4.954173e+002 2.269532e+003
         vertex 1.175913e+003 4.914173e+002 2.269862e+003
         vertex 1.175913e+003 4.954173e+002 2.269862e+003
      endloop
   endfacet
   facet normal -6.861938e-001 4.151638e-016 7.274188e-001
      outer loop
         vertex 1.175913e+003 4.954173e+002 2.269862e+003
         vertex 1.175913e+003 4.914173e+002 2.269862e+003
         vertex 1.176320e+003 4.914173e+002 2.270269e+003
      endloop
   endfacet
   facet normal -7.274188e-001 4.410824e-016 6.861938e-001
      outer loop
         vertex 1.175913e+003 4.954173e+002 2.269862e+003
         vertex 1.176320e+003 4.914173e+002 2.270269e+003
         vertex 1.176320e+003 4.954173e+002 2.270269e+003
      endloop
   endfacet
   facet normal -8.020839e-001 4.881898e-016 5.972114e-001
      outer loop
         vertex 1.176320e+003 4.954173e+002 2.270269e+003
         vertex 1.176320e+003 4.914173e+002 2.270269e+003
         vertex 1.176650e+003 4.914173e+002 2.270740e+003
      endloop
   endfacet
   facet normal -8.355240e-001 5.093785e-016 5.494540e-001
      outer loop
         vertex 1.176320e+003 4.954173e+002 2.270269e+003
         vertex 1.176650e+003 4.914173e+002 2.270740e+003
         vertex 1.176650e+003 4.954173e+002 2.270740e+003
      endloop
   endfacet
   facet normal -8.936031e-001 5.463823e-016 4.488580e-001
      outer loop
         vertex 1.176650e+003 4.954173e+002 2.270740e+003
         vertex 1.176650e+003 4.914173e+002 2.270740e+003
         vertex 1.176893e+003 4.914173e+002 2.271261e+003
      endloop
   endfacet
   facet normal -9.182422e-001 5.621974e-016 3.960194e-001
      outer loop
         vertex 1.176650e+003 4.954173e+002 2.270740e+003
         vertex 1.176893e+003 4.914173e+002 2.271261e+003
         vertex 1.176893e+003 4.954173e+002 2.271261e+003
      endloop
   endfacet
   facet normal -9.579706e-001 5.879734e-016 2.868663e-001
      outer loop
         vertex 1.176893e+003 4.954173e+002 2.271261e+003
         vertex 1.176893e+003 4.914173e+002 2.271261e+003
         vertex 1.177042e+003 4.914173e+002 2.271817e+003
      endloop
   endfacet
   facet normal -9.730601e-001 5.979342e-016 2.305518e-001
      outer loop
         vertex 1.176893e+003 4.954173e+002 2.271261e+003
         vertex 1.177042e+003 4.914173e+002 2.271817e+003
         vertex 1.177042e+003 4.954173e+002 2.271817e+003
      endloop
   endfacet
   facet normal -9.932307e-001 6.116991e-016 1.161583e-001
      outer loop
         vertex 1.177042e+003 4.954173e+002 2.271817e+003
         vertex 1.177042e+003 4.914173e+002 2.271817e+003
         vertex 1.177092e+003 4.914173e+002 2.272390e+003
      endloop
   endfacet
   facet normal -9.983120e-001 6.155031e-016 5.807914e-002
      outer loop
         vertex 1.177042e+003 4.954173e+002 2.271817e+003
         vertex 1.177092e+003 4.914173e+002 2.272390e+003
         vertex 1.177092e+003 4.954173e+002 2.272390e+003
      endloop
   endfacet
   facet normal -9.983120e-001 6.168387e-016 -5.807914e-002
      outer loop
         vertex 1.177092e+003 4.954173e+002 2.272390e+003
         vertex 1.177092e+003 4.914173e+002 2.272390e+003
         vertex 1.177042e+003 4.914173e+002 2.272963e+003
      endloop
   endfacet
   facet normal -9.932307e-001 6.143703e-016 -1.161583e-001
      outer loop
         vertex 1.177092e+003 4.954173e+002 2.272390e+003
         vertex 1.177042e+003 4.914173e+002 2.272963e+003
         vertex 1.177042e+003 4.954173e+002 2.272963e+003
      endloop
   endfacet
   facet normal -9.730601e-001 6.032360e-016 -2.305518e-001
      outer loop
         vertex 1.177042e+003 4.954173e+002 2.272963e+003
         vertex 1.177042e+003 4.914173e+002 2.272963e+003
         vertex 1.176893e+003 4.914173e+002 2.273519e+003
      endloop
   endfacet
   facet normal -9.579706e-001 5.945701e-016 -2.868663e-001
      outer loop
         vertex 1.177042e+003 4.954173e+002 2.272963e+003
         vertex 1.176893e+003 4.914173e+002 2.273519e+003
         vertex 1.176893e+003 4.954173e+002 2.273519e+003
      endloop
   endfacet
   facet normal -9.182422e-001 5.713042e-016 -3.960194e-001
      outer loop
         vertex 1.176893e+003 4.954173e+002 2.273519e+003
         vertex 1.176893e+003 4.914173e+002 2.273519e+003
         vertex 1.176650e+003 4.914173e+002 2.274040e+003
      endloop
   endfacet
   facet normal -8.936031e-001 5.567041e-016 -4.488580e-001
      outer loop
         vertex 1.176893e+003 4.954173e+002 2.273519e+003
         vertex 1.176650e+003 4.914173e+002 2.274040e+003
         vertex 1.176650e+003 4.954173e+002 2.274040e+003
      endloop
   endfacet
   facet normal -8.355240e-001 5.220136e-016 -5.494540e-001
      outer loop
         vertex 1.176650e+003 4.954173e+002 2.274040e+003
         vertex 1.176650e+003 4.914173e+002 2.274040e+003
         vertex 1.176320e+003 4.914173e+002 2.274511e+003
      endloop
   endfacet
   facet normal -8.020839e-001 5.019231e-016 -5.972114e-001
      outer loop
         vertex 1.176650e+003 4.954173e+002 2.274040e+003
         vertex 1.176320e+003 4.914173e+002 2.274511e+003
         vertex 1.176320e+003 4.954173e+002 2.274511e+003
      endloop
   endfacet
   facet normal -7.274188e-001 4.568619e-016 -6.861938e-001
      outer loop
         vertex 1.176320e+003 4.954173e+002 2.274511e+003
         vertex 1.176320e+003 4.914173e+002 2.274511e+003
         vertex 1.175913e+003 4.914173e+002 2.274918e+003
      endloop
   endfacet
   facet normal -6.861938e-001 4.318913e-016 -7.274188e-001
      outer loop
         vertex 1.176320e+003 4.954173e+002 2.274511e+003
         vertex 1.175913e+003 4.914173e+002 2.274918e+003
         vertex 1.175913e+003 4.954173e+002 2.274918e+003
      endloop
   endfacet
   facet normal -5.972114e-001 3.778288e-016 -8.020839e-001
      outer loop
         vertex 1.175913e+003 4.954173e+002 2.274918e+003
         vertex 1.175913e+003 4.914173e+002 2.274918e+003
         vertex 1.175442e+003 4.914173e+002 2.275248e+003
      endloop
   endfacet
   facet normal -5.494540e-001 3.487368e-016 -8.355240e-001
      outer loop
         vertex 1.175913e+003 4.954173e+002 2.274918e+003
         vertex 1.175442e+003 4.914173e+002 2.275248e+003
         vertex 1.175442e+003 4.954173e+002 2.275248e+003
      endloop
   endfacet
   facet normal -4.488580e-001 2.873154e-016 -8.936031e-001
      outer loop
         vertex 1.175442e+003 4.954173e+002 2.275248e+003
         vertex 1.175442e+003 4.914173e+002 2.275248e+003
         vertex 1.174921e+003 4.914173e+002 2.275491e+003
      endloop
   endfacet
   facet normal -3.960194e-001 2.549861e-016 -9.182422e-001
      outer loop
         vertex 1.175442e+003 4.954173e+002 2.275248e+003
         vertex 1.174921e+003 4.914173e+002 2.275491e+003
         vertex 1.174921e+003 4.954173e+002 2.275491e+003
      endloop
   endfacet
   facet normal -2.868663e-001 1.880722e-016 -9.579706e-001
      outer loop
         vertex 1.174921e+003 4.954173e+002 2.275491e+003
         vertex 1.174921e+003 4.914173e+002 2.275491e+003
         vertex 1.174365e+003 4.914173e+002 2.275640e+003
      endloop
   endfacet
   facet normal -2.305518e-001 1.534877e-016 -9.730601e-001
      outer loop
         vertex 1.174921e+003 4.954173e+002 2.275491e+003
         vertex 1.174365e+003 4.914173e+002 2.275640e+003
         vertex 1.174365e+003 4.954173e+002 2.275640e+003
      endloop
   endfacet
   facet normal -1.161583e-001 8.311443e-017 -9.932307e-001
      outer loop
         vertex 1.174365e+003 4.954173e+002 2.275640e+003
         vertex 1.174365e+003 4.914173e+002 2.275640e+003
         vertex 1.173792e+003 4.914173e+002 2.275690e+003
      endloop
   endfacet
   facet normal -5.807914e-002 4.732566e-017 -9.983120e-001
      outer loop
         vertex 1.174365e+003 4.954173e+002 2.275640e+003
         vertex 1.173792e+003 4.914173e+002 2.275690e+003
         vertex 1.173792e+003 4.954173e+002 2.275690e+003
      endloop
   endfacet
   facet normal 5.807914e-002 -2.436871e-017 -9.983120e-001
      outer loop
         vertex 1.173792e+003 4.954173e+002 2.275690e+003
         vertex 1.173792e+003 4.914173e+002 2.275690e+003
         vertex 1.173219e+003 4.914173e+002 2.275640e+003
      endloop
   endfacet
   facet normal 1.161583e-001 -6.027432e-017 -9.932307e-001
      outer loop
         vertex 1.173792e+003 4.954173e+002 2.275690e+003
         vertex 1.173219e+003 4.914173e+002 2.275640e+003
         vertex 1.173219e+003 4.954173e+002 2.275640e+003
      endloop
   endfacet
   facet normal 2.305518e-001 -1.311114e-016 -9.730601e-001
      outer loop
         vertex 1.173219e+003 4.954173e+002 2.275640e+003
         vertex 1.173219e+003 4.914173e+002 2.275640e+003
         vertex 1.172664e+003 4.914173e+002 2.275491e+003
      endloop
   endfacet
   facet normal 2.868663e-001 -1.660429e-016 -9.579706e-001
      outer loop
         vertex 1.173219e+003 4.954173e+002 2.275640e+003
         vertex 1.172664e+003 4.914173e+002 2.275491e+003
         vertex 1.172664e+003 4.954173e+002 2.275491e+003
      endloop
   endfacet
   facet normal 3.960194e-001 -2.338704e-016 -9.182422e-001
      outer loop
         vertex 1.172664e+003 4.954173e+002 2.275491e+003
         vertex 1.172664e+003 4.914173e+002 2.275491e+003
         vertex 1.172142e+003 4.914173e+002 2.275248e+003
      endloop
   endfacet
   facet normal 4.488580e-001 -2.667663e-016 -8.936031e-001
      outer loop
         vertex 1.172664e+003 4.954173e+002 2.275491e+003
         vertex 1.172142e+003 4.914173e+002 2.275248e+003
         vertex 1.172142e+003 4.954173e+002 2.275248e+003
      endloop
   endfacet
   facet normal 5.494540e-001 -3.295233e-016 -8.355240e-001
      outer loop
         vertex 1.172142e+003 4.954173e+002 2.275248e+003
         vertex 1.172142e+003 4.914173e+002 2.275248e+003
         vertex 1.171671e+003 4.914173e+002 2.274918e+003
      endloop
   endfacet
   facet normal 5.972114e-001 -3.593842e-016 -8.020839e-001
      outer loop
         vertex 1.172142e+003 4.954173e+002 2.275248e+003
         vertex 1.171671e+003 4.914173e+002 2.274918e+003
         vertex 1.171671e+003 4.954173e+002 2.274918e+003
      endloop
   endfacet
   facet normal 6.861938e-001 -4.151638e-016 -7.274188e-001
      outer loop
         vertex 1.171671e+003 4.954173e+002 2.274918e+003
         vertex 1.171671e+003 4.914173e+002 2.274918e+003
         vertex 1.171264e+003 4.914173e+002 2.274511e+003
      endloop
   endfacet
   facet normal 7.274188e-001 -4.410824e-016 -6.861938e-001
      outer loop
         vertex 1.171671e+003 4.954173e+002 2.274918e+003
         vertex 1.171264e+003 4.914173e+002 2.274511e+003
         vertex 1.171264e+003 4.954173e+002 2.274511e+003
      endloop
   endfacet
   facet normal 8.020839e-001 -4.881898e-016 -5.972114e-001
      outer loop
         vertex 1.171264e+003 4.954173e+002 2.274511e+003
         vertex 1.171264e+003 4.914173e+002 2.274511e+003
         vertex 1.170934e+003 4.914173e+002 2.274040e+003
      endloop
   endfacet
   facet normal 8.355240e-001 -5.093785e-016 -5.494540e-001
      outer loop
         vertex 1.171264e+003 4.954173e+002 2.274511e+003
         vertex 1.170934e+003 4.914173e+002 2.274040e+003
         vertex 1.170934e+003 4.954173e+002 2.274040e+003
      endloop
   endfacet
   facet normal 8.936031e-001 -5.463823e-016 -4.488580e-001
      outer loop
         vertex 1.170934e+003 4.954173e+002 2.274040e+003
         vertex 1.170934e+003 4.914173e+002 2.274040e+003
         vertex 1.170691e+003 4.914173e+002 2.273519e+003
      endloop
   endfacet
   facet normal 9.182422e-001 -5.621974e-016 -3.960194e-001
      outer loop
         vertex 1.170934e+003 4.954173e+002 2.274040e+003
         vertex 1.170691e+003 4.914173e+002 2.273519e+003
         vertex 1.170691e+003 4.954173e+002 2.273519e+003
      endloop
   endfacet
   facet normal 9.579706e-001 -5.879734e-016 -2.868663e-001
      outer loop
         vertex 1.170691e+003 4.954173e+002 2.273519e+003
         vertex 1.170691e+003 4.914173e+002 2.273519e+003
         vertex 1.170542e+003 4.914173e+002 2.272963e+003
      endloop
   endfacet
   facet normal 9.730601e-001 -5.979342e-016 -2.305518e-001
      outer loop
         vertex 1.170691e+003 4.954173e+002 2.273519e+003
         vertex 1.170542e+003 4.914173e+002 2.272963e+003
         vertex 1.170542e+003 4.954173e+002 2.272963e+003
      endloop
   endfacet
   facet normal 9.932307e-001 -6.116991e-016 -1.161583e-001
      outer loop
         vertex 1.170542e+003 4.954173e+002 2.272963e+003
         vertex 1.170542e+003 4.914173e+002 2.272963e+003
         vertex 1.170492e+003 4.914173e+002 2.272390e+003
      endloop
   endfacet
   facet normal 9.983120e-001 -6.155031e-016 -5.807914e-002
      outer loop
         vertex 1.090542e+003 4.954173e+002 2.272963e+003
         vertex 1.090492e+003 4.914173e+002 2.272390e+003
         vertex 1.090492e+003 4.954173e+002 2.272390e+003
      endloop
   endfacet
   facet normal 9.983120e-001 -6.168387e-016 5.807914e-002
      outer loop
         vertex 1.090492e+003 4.954173e+002 2.272390e+003
         vertex 1.090492e+003 4.914173e+002 2.272390e+003
         vertex 1.090542e+003 4.914173e+002 2.271817e+003
      endloop
   endfacet
   facet normal 9.932307e-001 -6.143703e-016 1.161583e-001
      outer loop
         vertex 1.090492e+003 4.954173e+002 2.272390e+003
         vertex 1.090542e+003 4.914173e+002 2.271817e+003
         vertex 1.090542e+003 4.954173e+002 2.271817e+003
      endloop
   endfacet
   facet normal 9.730601e-001 -6.032360e-016 2.305518e-001
      outer loop
         vertex 1.090542e+003 4.954173e+002 2.271817e+003
         vertex 1.090542e+003 4.914173e+002 2.271817e+003
         vertex 1.090691e+003 4.914173e+002 2.271261e+003
      endloop
   endfacet
   facet normal 9.579706e-001 -5.945701e-016 2.868663e-001
      outer loop
         vertex 1.090542e+003 4.954173e+002 2.271817e+003
         vertex 1.090691e+003 4.914173e+002 2.271261e+003
         vertex 1.090691e+003 4.954173e+002 2.271261e+003
      endloop
   endfacet
   facet normal 9.182422e-001 -5.713042e-016 3.960194e-001
      outer loop
         vertex 1.090691e+003 4.954173e+002 2.271261e+003
         vertex 1.090691e+003 4.914173e+002 2.271261e+003
         vertex 1.090934e+003 4.914173e+002 2.270740e+003
      endloop
   endfacet
   facet normal 8.936031e-001 -5.567041e-016 4.488580e-001
      outer loop
         vertex 1.090691e+003 4.954173e+002 2.271261e+003
         vertex 1.090934e+003 4.914173e+002 2.270740e+003
         vertex 1.090934e+003 4.954173e+002 2.270740e+003
      endloop
   endfacet
   facet normal 8.355240e-001 -5.220136e-016 5.494540e-001
      outer loop
         vertex 1.090934e+003 4.954173e+002 2.270740e+003
         vertex 1.090934e+003 4.914173e+002 2.270740e+003
         vertex 1.091264e+003 4.914173e+002 2.270269e+003
      endloop
   endfacet
   facet normal 8.020839e-001 -5.019231e-016 5.972114e-001
      outer loop
         vertex 1.090934e+003 4.954173e+002 2.270740e+003
         vertex 1.091264e+003 4.914173e+002 2.270269e+003
         vertex 1.091264e+003 4.954173e+002 2.270269e+003
      endloop
   endfacet
   facet normal 7.274188e-001 -4.568619e-016 6.861938e-001
      outer loop
         vertex 1.091264e+003 4.954173e+002 2.270269e+003
         vertex 1.091264e+003 4.914173e+002 2.270269e+003
         vertex 1.091671e+003 4.914173e+002 2.269862e+003
      endloop
   endfacet
   facet normal 6.861938e-001 -4.318913e-016 7.274188e-001
      outer loop
         vertex 1.091264e+003 4.954173e+002 2.270269e+003
         vertex 1.091671e+003 4.914173e+002 2.269862e+003
         vertex 1.091671e+003 4.954173e+002 2.269862e+003
      endloop
   endfacet
   facet normal 5.972114e-001 -3.778288e-016 8.020839e-001
      outer loop
         vertex 1.091671e+003 4.954173e+002 2.269862e+003
         vertex 1.091671e+003 4.914173e+002 2.269862e+003
         vertex 1.092142e+003 4.914173e+002 2.269532e+003
      endloop
   endfacet
   facet normal 5.494540e-001 -3.487368e-016 8.355240e-001
      outer loop
         vertex 1.091671e+003 4.954173e+002 2.269862e+003
         vertex 1.092142e+003 4.914173e+002 2.269532e+003
         vertex 1.092142e+003 4.954173e+002 2.269532e+003
      endloop
   endfacet
   facet normal 4.488580e-001 -2.873154e-016 8.936031e-001
      outer loop
         vertex 1.092142e+003 4.954173e+002 2.269532e+003
         vertex 1.092142e+003 4.914173e+002 2.269532e+003
         vertex 1.092664e+003 4.914173e+002 2.269289e+003
      endloop
   endfacet
   facet normal 3.960194e-001 -2.549861e-016 9.182422e-001
      outer loop
         vertex 1.092142e+003 4.954173e+002 2.269532e+003
         vertex 1.092664e+003 4.914173e+002 2.269289e+003
         vertex 1.092664e+003 4.954173e+002 2.269289e+003
      endloop
   endfacet
   facet normal 2.868663e-001 -1.880722e-016 9.579706e-001
      outer loop
         vertex 1.092664e+003 4.954173e+002 2.269289e+003
         vertex 1.092664e+003 4.914173e+002 2.269289e+003
         vertex 1.093219e+003 4.914173e+002 2.269140e+003
      endloop
   endfacet
   facet normal 2.305518e-001 -1.534877e-016 9.730601e-001
      outer loop
         vertex 1.092664e+003 4.954173e+002 2.269289e+003
         vertex 1.093219e+003 4.914173e+002 2.269140e+003
         vertex 1.093219e+003 4.954173e+002 2.269140e+003
      endloop
   endfacet
   facet normal 1.161583e-001 -8.311443e-017 9.932307e-001
      outer loop
         vertex 1.093219e+003 4.954173e+002 2.269140e+003
         vertex 1.093219e+003 4.914173e+002 2.269140e+003
         vertex 1.093792e+003 4.914173e+002 2.269090e+003
      endloop
   endfacet
   facet normal 5.807914e-002 -4.732566e-017 9.983120e-001
      outer loop
         vertex 1.093219e+003 4.954173e+002 2.269140e+003
         vertex 1.093792e+003 4.914173e+002 2.269090e+003
         vertex 1.093792e+003 4.954173e+002 2.269090e+003
      endloop
   endfacet
   facet normal -5.807914e-002 2.436871e-017 9.983120e-001
      outer loop
         vertex 1.093792e+003 4.954173e+002 2.269090e+003
         vertex 1.093792e+003 4.914173e+002 2.269090e+003
         vertex 1.094365e+003 4.914173e+002 2.269140e+003
      endloop
   endfacet
   facet normal -1.161583e-001 6.027432e-017 9.932307e-001
      outer loop
         vertex 1.093792e+003 4.954173e+002 2.269090e+003
         vertex 1.094365e+003 4.914173e+002 2.269140e+003
         vertex 1.094365e+003 4.954173e+002 2.269140e+003
      endloop
   endfacet
   facet normal -2.305518e-001 1.311114e-016 9.730601e-001
      outer loop
         vertex 1.094365e+003 4.954173e+002 2.269140e+003
         vertex 1.094365e+003 4.914173e+002 2.269140e+003
         vertex 1.094921e+003 4.914173e+002 2.269289e+003
      endloop
   endfacet
   facet normal -2.868663e-001 1.660429e-016 9.579706e-001
      outer loop
         vertex 1.094365e+003 4.954173e+002 2.269140e+003
         vertex 1.094921e+003 4.914173e+002 2.269289e+003
         vertex 1.094921e+003 4.954173e+002 2.269289e+003
      endloop
   endfacet
   facet normal -3.960194e-001 2.338704e-016 9.182422e-001
      outer loop
         vertex 1.094921e+003 4.954173e+002 2.269289e+003
         vertex 1.094921e+003 4.914173e+002 2.269289e+003
         vertex 1.095442e+003 4.914173e+002 2.269532e+003
      endloop
   endfacet
   facet normal -4.488580e-001 2.667663e-016 8.936031e-001
      outer loop
         vertex 1.094921e+003 4.954173e+002 2.269289e+003
         vertex 1.095442e+003 4.914173e+002 2.269532e+003
         vertex 1.095442e+003 4.954173e+002 2.269532e+003
      endloop
   endfacet
   facet normal -5.494540e-001 3.295233e-016 8.355240e-001
      outer loop
         vertex 1.095442e+003 4.954173e+002 2.269532e+003
         vertex 1.095442e+003 4.914173e+002 2.269532e+003
         vertex 1.095913e+003 4.914173e+002 2.269862e+003
      endloop
   endfacet
   facet normal -5.972114e-001 3.593842e-016 8.020839e-001
      outer loop
         vertex 1.095442e+003 4.954173e+002 2.269532e+003
         vertex 1.095913e+003 4.914173e+002 2.269862e+003
         vertex 1.095913e+003 4.954173e+002 2.269862e+003
      endloop
   endfacet
   facet normal -6.861938e-001 4.151638e-016 7.274188e-001
      outer loop
         vertex 1.095913e+003 4.954173e+002 2.269862e+003
         vertex 1.095913e+003 4.914173e+002 2.269862e+003
         vertex 1.096320e+003 4.914173e+002 2.270269e+003
      endloop
   endfacet
   facet normal -7.274188e-001 4.410824e-016 6.861938e-001
      outer loop
         vertex 1.095913e+003 4.954173e+002 2.269862e+003
         vertex 1.096320e+003 4.914173e+002 2.270269e+003
         vertex 1.096320e+003 4.954173e+002 2.270269e+003
      endloop
   endfacet
   facet normal -8.020839e-001 4.881898e-016 5.972114e-001
      outer loop
         vertex 1.096320e+003 4.954173e+002 2.270269e+003
         vertex 1.096320e+003 4.914173e+002 2.270269e+003
         vertex 1.096650e+003 4.914173e+002 2.270740e+003
      endloop
   endfacet
   facet normal -8.355240e-001 5.093785e-016 5.494540e-001
      outer loop
         vertex 1.096320e+003 4.954173e+002 2.270269e+003
         vertex 1.096650e+003 4.914173e+002 2.270740e+003
         vertex 1.096650e+003 4.954173e+002 2.270740e+003
      endloop
   endfacet
   facet normal -8.936031e-001 5.463823e-016 4.488580e-001
      outer loop
         vertex 1.096650e+003 4.954173e+002 2.270740e+003
         vertex 1.096650e+003 4.914173e+002 2.270740e+003
         vertex 1.096893e+003 4.914173e+002 2.271261e+003
      endloop
   endfacet
   facet normal -9.182422e-001 5.621974e-016 3.960194e-001
      outer loop
         vertex 1.096650e+003 4.954173e+002 2.270740e+003
         vertex 1.096893e+003 4.914173e+002 2.271261e+003
         vertex 1.096893e+003 4.954173e+002 2.271261e+003
      endloop
   endfacet
   facet normal -9.579706e-001 5.879734e-016 2.868663e-001
      outer loop
         vertex 1.096893e+003 4.954173e+002 2.271261e+003
         vertex 1.096893e+003 4.914173e+002 2.271261e+003
         vertex 1.097042e+003 4.914173e+002 2.271817e+003
      endloop
   endfacet
   facet normal -9.730601e-001 5.979342e-016 2.305518e-001
      outer loop
         vertex 1.096893e+003 4.954173e+002 2.271261e+003
         vertex 1.097042e+003 4.914173e+002 2.271817e+003
         vertex 1.097042e+003 4.954173e+002 2.271817e+003
      endloop
   endfacet
   facet normal -9.932307e-001 6.116991e-016 1.161583e-001
      outer loop
         vertex 1.097042e+003 4.954173e+002 2.271817e+003
         vertex 1.097042e+003 4.914173e+002 2.271817e+003
         vertex 1.097092e+003 4.914173e+002 2.272390e+003
      endloop
   endfacet
   facet normal -9.983120e-001 6.155031e-016 5.807914e-002
      outer loop
         vertex 1.097042e+003 4.954173e+002 2.271817e+003
         vertex 1.097092e+003 4.914173e+002 2.272390e+003
         vertex 1.097092e+003 4.954173e+002 2.272390e+003
      endloop
   endfacet
   facet normal -9.983120e-001 6.168387e-016 -5.807914e-002
      outer loop
         vertex 1.097092e+003 4.954173e+002 2.272390e+003
         vertex 1.097092e+003 4.914173e+002 2.272390e+003
         vertex 1.097042e+003 4.914173e+002 2.272963e+003
      endloop
   endfacet
   facet normal -9.932307e-001 6.143703e-016 -1.161583e-001
      outer loop
         vertex 1.097092e+003 4.954173e+002 2.272390e+003
         vertex 1.097042e+003 4.914173e+002 2.272963e+003
         vertex 1.097042e+003 4.954173e+002 2.272963e+003
      endloop
   endfacet
   facet normal -9.730601e-001 6.032360e-016 -2.305518e-001
      outer loop
         vertex 1.097042e+003 4.954173e+002 2.272963e+003
         vertex 1.097042e+003 4.914173e+002 2.272963e+003
         vertex 1.096893e+003 4.914173e+002 2.273519e+003
      endloop
   endfacet
   facet normal -9.579706e-001 5.945701e-016 -2.868663e-001
      outer loop
         vertex 1.097042e+003 4.954173e+002 2.272963e+003
         vertex 1.096893e+003 4.914173e+002 2.273519e+003
         vertex 1.096893e+003 4.954173e+002 2.273519e+003
      endloop
   endfacet
   facet normal -9.182422e-001 5.713042e-016 -3.960194e-001
      outer loop
         vertex 1.096893e+003 4.954173e+002 2.273519e+003
         vertex 1.096893e+003 4.914173e+002 2.273519e+003
         vertex 1.096650e+003 4.914173e+002 2.274040e+003
      endloop
   endfacet
   facet normal -8.936031e-001 5.567041e-016 -4.488580e-001
      outer loop
         vertex 1.096893e+003 4.954173e+002 2.273519e+003
         vertex 1.096650e+003 4.914173e+002 2.274040e+003
         vertex 1.096650e+003 4.954173e+002 2.274040e+003
      endloop
   endfacet
   facet normal -8.355240e-001 5.220136e-016 -5.494540e-001
      outer loop
         vertex 1.096650e+003 4.954173e+002 2.274040e+003
         vertex 1.096650e+003 4.914173e+002 2.274040e+003
         vertex 1.096320e+003 4.914173e+002 2.274511e+003
      endloop
   endfacet
   facet normal -8.020839e-001 5.019231e-016 -5.972114e-001
      outer loop
         vertex 1.096650e+003 4.954173e+002 2.274040e+003
         vertex 1.096320e+003 4.914173e+002 2.274511e+003
         vertex 1.096320e+003 4.954173e+002 2.274511e+003
      endloop
   endfacet
   facet normal -7.274188e-001 4.568619e-016 -6.861938e-001
      outer loop
         vertex 1.096320e+003 4.954173e+002 2.274511e+003
         vertex 1.096320e+003 4.914173e+002 2.274511e+003
         vertex 1.095913e+003 4.914173e+002 2.274918e+003
      endloop
   endfacet
   facet normal -6.861938e-001 4.318913e-016 -7.274188e-001
      outer loop
         vertex 1.096320e+003 4.954173e+002 2.274511e+003
         vertex 1.095913e+003 4.914173e+002 2.274918e+003
         vertex 1.095913e+003 4.954173e+002 2.274918e+003
      endloop
   endfacet
   facet normal -5.972114e-001 3.778288e-016 -8.020839e-001
      outer loop
         vertex 1.095913e+003 4.954173e+002 2.274918e+003
         vertex 1.095913e+003 4.914173e+002 2.274918e+003
         vertex 1.095442e+003 4.914173e+002 2.275248e+003
      endloop
   endfacet
   facet normal -5.494540e-001 3.487368e-016 -8.355240e-001
      outer loop
         vertex 1.095913e+003 4.954173e+002 2.274918e+003
         vertex 1.095442e+003 4.914173e+002 2.275248e+003
         vertex 1.095442e+003 4.954173e+002 2.275248e+003
      endloop
   endfacet
   facet normal -4.488580e-001 2.873154e-016 -8.936031e-001
      outer loop
         vertex 1.095442e+003 4.954173e+002 2.275248e+003
         vertex 1.095442e+003 4.914173e+002 2.275248e+003
         vertex 1.094921e+003 4.914173e+002 2.275491e+003
      endloop
   endfacet
   facet normal -3.960194e-001 2.549861e-016 -9.182422e-001
      outer loop
         vertex 1.095442e+003 4.954173e+002 2.275248e+003
         vertex 1.094921e+003 4.914173e+002 2.275491e+003
         vertex 1.094921e+003 4.954173e+002 2.275491e+003
      endloop
   endfacet
   facet normal -2.868663e-001 1.880722e-016 -9.579706e-001
      outer loop
         vertex 1.094921e+003 4.954173e+002 2.275491e+003
         vertex 1.094921e+003 4.914173e+002 2.275491e+003
         vertex 1.094365e+003 4.914173e+002 2.275640e+003
      endloop
   endfacet
   facet normal -2.305518e-001 1.534877e-016 -9.730601e-001
      outer loop
         vertex 1.094921e+003 4.954173e+002 2.275491e+003
         vertex 1.094365e+003 4.914173e+002 2.275640e+003
         vertex 1.094365e+003 4.954173e+002 2.275640e+003
      endloop
   endfacet
   facet normal -1.161583e-001 8.311443e-017 -9.932307e-001
      outer loop
         vertex 1.094365e+003 4.954173e+002 2.275640e+003
         vertex 1.094365e+003 4.914173e+002 2.275640e+003
         vertex 1.093792e+003 4.914173e+002 2.275690e+003
      endloop
   endfacet
   facet normal -5.807914e-002 4.732566e-017 -9.983120e-001
      outer loop
         vertex 1.094365e+003 4.954173e+002 2.275640e+003
         vertex 1.093792e+003 4.914173e+002 2.275690e+003
         vertex 1.093792e+003 4.954173e+002 2.275690e+003
      endloop
   endfacet
   facet normal 5.807914e-002 -2.436871e-017 -9.983120e-001
      outer loop
         vertex 1.093792e+003 4.954173e+002 2.275690e+003
         vertex 1.093792e+003 4.914173e+002 2.275690e+003
         vertex 1.093219e+003 4.914173e+002 2.275640e+003
      endloop
   endfacet
   facet normal 1.161583e-001 -6.027432e-017 -9.932307e-001
      outer loop
         vertex 1.093792e+003 4.954173e+002 2.275690e+003
         vertex 1.093219e+003 4.914173e+002 2.275640e+003
         vertex 1.093219e+003 4.954173e+002 2.275640e+003
      endloop
   endfacet
   facet normal 2.305518e-001 -1.311114e-016 -9.730601e-001
      outer loop
         vertex 1.093219e+003 4.954173e+002 2.275640e+003
         vertex 1.093219e+003 4.914173e+002 2.275640e+003
         vertex 1.092664e+003 4.914173e+002 2.275491e+003
      endloop
   endfacet
   facet normal 2.868663e-001 -1.660429e-016 -9.579706e-001
      outer loop
         vertex 1.093219e+003 4.954173e+002 2.275640e+003
         vertex 1.092664e+003 4.914173e+002 2.275491e+003
         vertex 1.092664e+003 4.954173e+002 2.275491e+003
      endloop
   endfacet
   facet normal 3.960194e-001 -2.338704e-016 -9.182422e-001
      outer loop
         vertex 1.092664e+003 4.954173e+002 2.275491e+003
         vertex 1.092664e+003 4.914173e+002 2.275491e+003
         vertex 1.092142e+003 4.914173e+002 2.275248e+003
      endloop
   endfacet
   facet normal 4.488580e-001 -2.667663e-016 -8.936031e-001
      outer loop
         vertex 1.092664e+003 4.954173e+002 2.275491e+003
         vertex 1.092142e+003 4.914173e+002 2.275248e+003
         vertex 1.092142e+003 4.954173e+002 2.275248e+003
      endloop
   endfacet
   facet normal 5.494540e-001 -3.295233e-016 -8.355240e-001
      outer loop
         vertex 1.092142e+003 4.954173e+002 2.275248e+003
         vertex 1.092142e+003 4.914173e+002 2.275248e+003
         vertex 1.091671e+003 4.914173e+002 2.274918e+003
      endloop
   endfacet
   facet normal 5.972114e-001 -3.593842e-016 -8.020839e-001
      outer loop
         vertex 1.092142e+003 4.954173e+002 2.275248e+003
         vertex 1.091671e+003 4.914173e+002 2.274918e+003
         vertex 1.091671e+003 4.954173e+002 2.274918e+003
      endloop
   endfacet
   facet normal 6.861938e-001 -4.151638e-016 -7.274188e-001
      outer loop
         vertex 1.091671e+003 4.954173e+002 2.274918e+003
         vertex 1.091671e+003 4.914173e+002 2.274918e+003
         vertex 1.091264e+003 4.914173e+002 2.274511e+003
      endloop
   endfacet
   facet normal 7.274188e-001 -4.410824e-016 -6.861938e-001
      outer loop
         vertex 1.091671e+003 4.954173e+002 2.274918e+003
         vertex 1.091264e+003 4.914173e+002 2.274511e+003
         vertex 1.091264e+003 4.954173e+002 2.274511e+003
      endloop
   endfacet
   facet normal 8.020839e-001 -4.881898e-016 -5.972114e-001
      outer loop
         vertex 1.091264e+003 4.954173e+002 2.274511e+003
         vertex 1.091264e+003 4.914173e+002 2.274511e+003
         vertex 1.090934e+003 4.914173e+002 2.274040e+003
      endloop
   endfacet
   facet normal 8.355240e-001 -5.093785e-016 -5.494540e-001
      outer loop
         vertex 1.091264e+003 4.954173e+002 2.274511e+003
         vertex 1.090934e+003 4.914173e+002 2.274040e+003
         vertex 1.090934e+003 4.954173e+002 2.274040e+003
      endloop
   endfacet
   facet normal 8.936031e-001 -5.463823e-016 -4.488580e-001
      outer loop
         vertex 1.090934e+003 4.954173e+002 2.274040e+003
         vertex 1.090934e+003 4.914173e+002 2.274040e+003
         vertex 1.090691e+003 4.914173e+002 2.273519e+003
      endloop
   endfacet
   facet normal 9.182422e-001 -5.621974e-016 -3.960194e-001
      outer loop
         vertex 1.090934e+003 4.954173e+002 2.274040e+003
         vertex 1.090691e+003 4.914173e+002 2.273519e+003
         vertex 1.090691e+003 4.954173e+002 2.273519e+003
      endloop
   endfacet
   facet normal 9.579706e-001 -5.879734e-016 -2.868663e-001
      outer loop
         vertex 1.090691e+003 4.954173e+002 2.273519e+003
         vertex 1.090691e+003 4.914173e+002 2.273519e+003
         vertex 1.090542e+003 4.914173e+002 2.272963e+003
      endloop
   endfacet
   facet normal 9.730601e-001 -5.979342e-016 -2.305518e-001
      outer loop
         vertex 1.090691e+003 4.954173e+002 2.273519e+003
         vertex 1.090542e+003 4.914173e+002 2.272963e+003
         vertex 1.090542e+003 4.954173e+002 2.272963e+003
      endloop
   endfacet
   facet normal 9.932307e-001 -6.116991e-016 -1.161583e-001
      outer loop
         vertex 1.090542e+003 4.954173e+002 2.272963e+003
         vertex 1.090542e+003 4.914173e+002 2.272963e+003
         vertex 1.090492e+003 4.914173e+002 2.272390e+003
      endloop
   endfacet
endsolid