solid 09.025.00.00.000 - 09.025.00.08.000-1 09.025.00.08.020-3
   facet normal -2.289835e-016 1.000000e+000 2.834803e-016
      outer loop
         vertex 1.046792e+003 1.353417e+003 1.877390e+003
         vertex 1.046792e+003 1.353417e+003 1.880890e+003
         vertex 1.049792e+003 1.353417e+003 1.877390e+003
      endloop
   endfacet
   facet normal -2.289835e-016 1.000000e+000 2.834803e-016
      outer loop
         vertex 1.049792e+003 1.353417e+003 1.877390e+003
         vertex 1.046792e+003 1.353417e+003 1.880890e+003
         vertex 1.049792e+003 1.353417e+003 1.880890e+003
      endloop
   endfacet
   facet normal -3.214443e-016 -2.795127e-016 1.000000e+000
      outer loop
         vertex 1.049792e+003 1.331417e+003 1.880890e+003
         vertex 1.049792e+003 1.353417e+003 1.880890e+003
         vertex 1.046792e+003 1.331417e+003 1.880890e+003
      endloop
   endfacet
   facet normal -3.214443e-016 -2.795127e-016 1.000000e+000
      outer loop
         vertex 1.046792e+003 1.331417e+003 1.880890e+003
         vertex 1.049792e+003 1.353417e+003 1.880890e+003
         vertex 1.046792e+003 1.353417e+003 1.880890e+003
      endloop
   endfacet
   facet normal 2.289835e-016 -1.000000e+000 -2.834803e-016
      outer loop
         vertex 1.049792e+003 1.331417e+003 1.873390e+003
         vertex 1.049792e+003 1.331417e+003 1.880890e+003
         vertex 1.046792e+003 1.331417e+003 1.873390e+003
      endloop
   endfacet
   facet normal 2.289835e-016 -1.000000e+000 -2.834803e-016
      outer loop
         vertex 1.046792e+003 1.331417e+003 1.873390e+003
         vertex 1.049792e+003 1.331417e+003 1.880890e+003
         vertex 1.046792e+003 1.331417e+003 1.880890e+003
      endloop
   endfacet
   facet normal 3.214443e-016 2.795127e-016 -1.000000e+000
      outer loop
         vertex 1.049792e+003 1.349417e+003 1.873390e+003
         vertex 1.049792e+003 1.331417e+003 1.873390e+003
         vertex 1.046792e+003 1.349417e+003 1.873390e+003
      endloop
   endfacet
   facet normal 3.214443e-016 2.795127e-016 -1.000000e+000
      outer loop
         vertex 1.046792e+003 1.349417e+003 1.873390e+003
         vertex 1.049792e+003 1.331417e+003 1.873390e+003
         vertex 1.046792e+003 1.331417e+003 1.873390e+003
      endloop
   endfacet
   facet normal 1.000000e+000 2.706169e-016 3.139580e-016
      outer loop
         vertex 1.049792e+003 1.348617e+003 1.876504e+003
         vertex 1.049792e+003 1.336643e+003 1.878918e+003
         vertex 1.049792e+003 1.348870e+003 1.876386e+003
      endloop
   endfacet
   facet normal 1.000000e+000 2.706169e-016 3.139580e-016
      outer loop
         vertex 1.049792e+003 1.348870e+003 1.876386e+003
         vertex 1.049792e+003 1.336643e+003 1.878918e+003
         vertex 1.049792e+003 1.349139e+003 1.876314e+003
      endloop
   endfacet
   facet normal 1.000000e+000 2.706169e-016 3.139580e-016
      outer loop
         vertex 1.049792e+003 1.335695e+003 1.879466e+003
         vertex 1.049792e+003 1.335965e+003 1.879393e+003
         vertex 1.049792e+003 1.347842e+003 1.877612e+003
      endloop
   endfacet
   facet normal 1.000000e+000 2.706169e-016 3.139580e-016
      outer loop
         vertex 1.049792e+003 1.347842e+003 1.877612e+003
         vertex 1.049792e+003 1.335965e+003 1.879393e+003
         vertex 1.049792e+003 1.336217e+003 1.879276e+003
      endloop
   endfacet
   facet normal 1.000000e+000 2.706169e-016 3.139580e-016
      outer loop
         vertex 1.049792e+003 1.348617e+003 1.876504e+003
         vertex 1.049792e+003 1.348389e+003 1.876664e+003
         vertex 1.049792e+003 1.336643e+003 1.878918e+003
      endloop
   endfacet
   facet normal 1.000000e+000 2.706169e-016 3.139580e-016
      outer loop
         vertex 1.049792e+003 1.336643e+003 1.878918e+003
         vertex 1.049792e+003 1.348389e+003 1.876664e+003
         vertex 1.049792e+003 1.348192e+003 1.876861e+003
      endloop
   endfacet
   facet normal 1.000000e+000 2.706169e-016 3.139580e-016
      outer loop
         vertex 1.049792e+003 1.336643e+003 1.878918e+003
         vertex 1.049792e+003 1.348192e+003 1.876861e+003
         vertex 1.049792e+003 1.348032e+003 1.877090e+003
      endloop
   endfacet
   facet normal 1.000000e+000 2.706169e-016 3.139580e-016
      outer loop
         vertex 1.049792e+003 1.337017e+003 1.877890e+003
         vertex 1.049792e+003 1.336993e+003 1.877612e+003
         vertex 1.049792e+003 1.349417e+003 1.873390e+003
      endloop
   endfacet
   facet normal 1.000000e+000 2.706169e-016 3.139580e-016
      outer loop
         vertex 1.049792e+003 1.349417e+003 1.873390e+003
         vertex 1.049792e+003 1.336993e+003 1.877612e+003
         vertex 1.049792e+003 1.336921e+003 1.877343e+003
      endloop
   endfacet
   facet normal 1.000000e+000 2.706169e-016 3.139580e-016
      outer loop
         vertex 1.049792e+003 1.336217e+003 1.879276e+003
         vertex 1.049792e+003 1.336446e+003 1.879116e+003
         vertex 1.049792e+003 1.347842e+003 1.877612e+003
      endloop
   endfacet
   facet normal 1.000000e+000 2.706169e-016 3.139580e-016
      outer loop
         vertex 1.049792e+003 1.347842e+003 1.877612e+003
         vertex 1.049792e+003 1.336446e+003 1.879116e+003
         vertex 1.049792e+003 1.336643e+003 1.878918e+003
      endloop
   endfacet
   facet normal 1.000000e+000 2.706169e-016 3.139580e-016
      outer loop
         vertex 1.049792e+003 1.347842e+003 1.877612e+003
         vertex 1.049792e+003 1.336643e+003 1.878918e+003
         vertex 1.049792e+003 1.347914e+003 1.877343e+003
      endloop
   endfacet
   facet normal 1.000000e+000 2.706169e-016 3.139580e-016
      outer loop
         vertex 1.049792e+003 1.347914e+003 1.877343e+003
         vertex 1.049792e+003 1.336643e+003 1.878918e+003
         vertex 1.049792e+003 1.348032e+003 1.877090e+003
      endloop
   endfacet
   facet normal 1.000000e+000 2.706169e-016 3.139580e-016
      outer loop
         vertex 1.049792e+003 1.333842e+003 1.878168e+003
         vertex 1.049792e+003 1.333914e+003 1.878437e+003
         vertex 1.049792e+003 1.331417e+003 1.880890e+003
      endloop
   endfacet
   facet normal 1.000000e+000 2.706169e-016 3.139580e-016
      outer loop
         vertex 1.049792e+003 1.331417e+003 1.880890e+003
         vertex 1.049792e+003 1.333914e+003 1.878437e+003
         vertex 1.049792e+003 1.334032e+003 1.878690e+003
      endloop
   endfacet
   facet normal 1.000000e+000 2.706169e-016 3.139580e-016
      outer loop
         vertex 1.049792e+003 1.331417e+003 1.880890e+003
         vertex 1.049792e+003 1.334032e+003 1.878690e+003
         vertex 1.049792e+003 1.334192e+003 1.878918e+003
      endloop
   endfacet
   facet normal 1.000000e+000 2.706169e-016 3.139580e-016
      outer loop
         vertex 1.049792e+003 1.336921e+003 1.877343e+003
         vertex 1.049792e+003 1.336803e+003 1.877090e+003
         vertex 1.049792e+003 1.349417e+003 1.873390e+003
      endloop
   endfacet
   facet normal 1.000000e+000 2.706169e-016 3.139580e-016
      outer loop
         vertex 1.049792e+003 1.349417e+003 1.873390e+003
         vertex 1.049792e+003 1.336803e+003 1.877090e+003
         vertex 1.049792e+003 1.336643e+003 1.876861e+003
      endloop
   endfacet
   facet normal 1.000000e+000 2.706169e-016 3.139580e-016
      outer loop
         vertex 1.049792e+003 1.349417e+003 1.873390e+003
         vertex 1.049792e+003 1.336643e+003 1.876861e+003
         vertex 1.049792e+003 1.336446e+003 1.876664e+003
      endloop
   endfacet
   facet normal 1.000000e+000 2.706169e-016 3.139580e-016
      outer loop
         vertex 1.049792e+003 1.334032e+003 1.877090e+003
         vertex 1.049792e+003 1.333914e+003 1.877343e+003
         vertex 1.049792e+003 1.331417e+003 1.873390e+003
      endloop
   endfacet
   facet normal 1.000000e+000 2.706169e-016 3.139580e-016
      outer loop
         vertex 1.049792e+003 1.331417e+003 1.873390e+003
         vertex 1.049792e+003 1.333914e+003 1.877343e+003
         vertex 1.049792e+003 1.333842e+003 1.877612e+003
      endloop
   endfacet
   facet normal 1.000000e+000 2.706169e-016 3.139580e-016
      outer loop
         vertex 1.049792e+003 1.331417e+003 1.873390e+003
         vertex 1.049792e+003 1.333842e+003 1.877612e+003
         vertex 1.049792e+003 1.331417e+003 1.880890e+003
      endloop
   endfacet
   facet normal 1.000000e+000 2.706169e-016 3.139580e-016
      outer loop
         vertex 1.049792e+003 1.331417e+003 1.880890e+003
         vertex 1.049792e+003 1.333842e+003 1.877612e+003
         vertex 1.049792e+003 1.333817e+003 1.877890e+003
      endloop
   endfacet
   facet normal 1.000000e+000 2.706169e-016 3.139580e-016
      outer loop
         vertex 1.049792e+003 1.331417e+003 1.880890e+003
         vertex 1.049792e+003 1.333817e+003 1.877890e+003
         vertex 1.049792e+003 1.333842e+003 1.878168e+003
      endloop
   endfacet
   facet normal 1.000000e+000 2.706169e-016 3.139580e-016
      outer loop
         vertex 1.049792e+003 1.353417e+003 1.880890e+003
         vertex 1.049792e+003 1.350446e+003 1.879116e+003
         vertex 1.049792e+003 1.350643e+003 1.878918e+003
      endloop
   endfacet
   facet normal 1.000000e+000 2.706169e-016 3.139580e-016
      outer loop
         vertex 1.049792e+003 1.334192e+003 1.878918e+003
         vertex 1.049792e+003 1.334389e+003 1.879116e+003
         vertex 1.049792e+003 1.331417e+003 1.880890e+003
      endloop
   endfacet
   facet normal 1.000000e+000 2.706169e-016 3.139580e-016
      outer loop
         vertex 1.049792e+003 1.331417e+003 1.880890e+003
         vertex 1.049792e+003 1.334389e+003 1.879116e+003
         vertex 1.049792e+003 1.334617e+003 1.879276e+003
      endloop
   endfacet
   facet normal 1.000000e+000 2.706169e-016 3.139580e-016
      outer loop
         vertex 1.049792e+003 1.331417e+003 1.880890e+003
         vertex 1.049792e+003 1.334617e+003 1.879276e+003
         vertex 1.049792e+003 1.334870e+003 1.879393e+003
      endloop
   endfacet
   facet normal 1.000000e+000 2.706169e-016 3.139580e-016
      outer loop
         vertex 1.049792e+003 1.350993e+003 1.878168e+003
         vertex 1.049792e+003 1.353417e+003 1.877390e+003
         vertex 1.049792e+003 1.350921e+003 1.878437e+003
      endloop
   endfacet
   facet normal 1.000000e+000 2.706169e-016 3.139580e-016
      outer loop
         vertex 1.049792e+003 1.350921e+003 1.878437e+003
         vertex 1.049792e+003 1.353417e+003 1.877390e+003
         vertex 1.049792e+003 1.353417e+003 1.880890e+003
      endloop
   endfacet
   facet normal 1.000000e+000 2.706169e-016 3.139580e-016
      outer loop
         vertex 1.049792e+003 1.350921e+003 1.878437e+003
         vertex 1.049792e+003 1.353417e+003 1.880890e+003
         vertex 1.049792e+003 1.350803e+003 1.878690e+003
      endloop
   endfacet
   facet normal 1.000000e+000 2.706169e-016 3.139580e-016
      outer loop
         vertex 1.049792e+003 1.350803e+003 1.878690e+003
         vertex 1.049792e+003 1.353417e+003 1.880890e+003
         vertex 1.049792e+003 1.350643e+003 1.878918e+003
      endloop
   endfacet
   facet normal 1.000000e+000 2.706169e-016 3.139580e-016
      outer loop
         vertex 1.049792e+003 1.350993e+003 1.878168e+003
         vertex 1.049792e+003 1.351017e+003 1.877890e+003
         vertex 1.049792e+003 1.353417e+003 1.877390e+003
      endloop
   endfacet
   facet normal 1.000000e+000 2.706169e-016 3.139580e-016
      outer loop
         vertex 1.049792e+003 1.353417e+003 1.877390e+003
         vertex 1.049792e+003 1.351017e+003 1.877890e+003
         vertex 1.049792e+003 1.350993e+003 1.877612e+003
      endloop
   endfacet
   facet normal 1.000000e+000 2.706169e-016 3.139580e-016
      outer loop
         vertex 1.049792e+003 1.353417e+003 1.877390e+003
         vertex 1.049792e+003 1.350993e+003 1.877612e+003
         vertex 1.049792e+003 1.350921e+003 1.877343e+003
      endloop
   endfacet
   facet normal 1.000000e+000 2.706169e-016 3.139580e-016
      outer loop
         vertex 1.049792e+003 1.336446e+003 1.876664e+003
         vertex 1.049792e+003 1.336217e+003 1.876504e+003
         vertex 1.049792e+003 1.349417e+003 1.873390e+003
      endloop
   endfacet
   facet normal 1.000000e+000 2.706169e-016 3.139580e-016
      outer loop
         vertex 1.049792e+003 1.349417e+003 1.873390e+003
         vertex 1.049792e+003 1.336217e+003 1.876504e+003
         vertex 1.049792e+003 1.335965e+003 1.876386e+003
      endloop
   endfacet
   facet normal 1.000000e+000 2.706169e-016 3.139580e-016
      outer loop
         vertex 1.049792e+003 1.349417e+003 1.873390e+003
         vertex 1.049792e+003 1.335965e+003 1.876386e+003
         vertex 1.049792e+003 1.331417e+003 1.873390e+003
      endloop
   endfacet
   facet normal 1.000000e+000 2.706169e-016 3.139580e-016
      outer loop
         vertex 1.049792e+003 1.331417e+003 1.873390e+003
         vertex 1.049792e+003 1.335965e+003 1.876386e+003
         vertex 1.049792e+003 1.335695e+003 1.876314e+003
      endloop
   endfacet
   facet normal 1.000000e+000 2.706169e-016 3.139580e-016
      outer loop
         vertex 1.049792e+003 1.331417e+003 1.873390e+003
         vertex 1.049792e+003 1.335695e+003 1.876314e+003
         vertex 1.049792e+003 1.335417e+003 1.876290e+003
      endloop
   endfacet
   facet normal 1.000000e+000 2.706169e-016 3.139580e-016
      outer loop
         vertex 1.049792e+003 1.350921e+003 1.877343e+003
         vertex 1.049792e+003 1.350803e+003 1.877090e+003
         vertex 1.049792e+003 1.353417e+003 1.877390e+003
      endloop
   endfacet
   facet normal 1.000000e+000 2.706169e-016 3.139580e-016
      outer loop
         vertex 1.049792e+003 1.353417e+003 1.877390e+003
         vertex 1.049792e+003 1.350803e+003 1.877090e+003
         vertex 1.049792e+003 1.350643e+003 1.876861e+003
      endloop
   endfacet
   facet normal 1.000000e+000 2.706169e-016 3.139580e-016
      outer loop
         vertex 1.049792e+003 1.353417e+003 1.877390e+003
         vertex 1.049792e+003 1.350643e+003 1.876861e+003
         vertex 1.049792e+003 1.349417e+003 1.873390e+003
      endloop
   endfacet
   facet normal 1.000000e+000 2.706169e-016 3.139580e-016
      outer loop
         vertex 1.049792e+003 1.335417e+003 1.876290e+003
         vertex 1.049792e+003 1.335140e+003 1.876314e+003
         vertex 1.049792e+003 1.331417e+003 1.873390e+003
      endloop
   endfacet
   facet normal 1.000000e+000 2.706169e-016 3.139580e-016
      outer loop
         vertex 1.049792e+003 1.331417e+003 1.873390e+003
         vertex 1.049792e+003 1.335140e+003 1.876314e+003
         vertex 1.049792e+003 1.334870e+003 1.876386e+003
      endloop
   endfacet
   facet normal 1.000000e+000 2.706169e-016 3.139580e-016
      outer loop
         vertex 1.049792e+003 1.331417e+003 1.873390e+003
         vertex 1.049792e+003 1.334870e+003 1.876386e+003
         vertex 1.049792e+003 1.334617e+003 1.876504e+003
      endloop
   endfacet
   facet normal 1.000000e+000 2.706169e-016 3.139580e-016
      outer loop
         vertex 1.049792e+003 1.349695e+003 1.879466e+003
         vertex 1.049792e+003 1.349965e+003 1.879393e+003
         vertex 1.049792e+003 1.353417e+003 1.880890e+003
      endloop
   endfacet
   facet normal 1.000000e+000 2.706169e-016 3.139580e-016
      outer loop
         vertex 1.049792e+003 1.353417e+003 1.880890e+003
         vertex 1.049792e+003 1.349965e+003 1.879393e+003
         vertex 1.049792e+003 1.350217e+003 1.879276e+003
      endloop
   endfacet
   facet normal 1.000000e+000 2.706169e-016 3.139580e-016
      outer loop
         vertex 1.049792e+003 1.353417e+003 1.880890e+003
         vertex 1.049792e+003 1.350217e+003 1.879276e+003
         vertex 1.049792e+003 1.350446e+003 1.879116e+003
      endloop
   endfacet
   facet normal 1.000000e+000 2.706169e-016 3.139580e-016
      outer loop
         vertex 1.049792e+003 1.350643e+003 1.876861e+003
         vertex 1.049792e+003 1.350446e+003 1.876664e+003
         vertex 1.049792e+003 1.349417e+003 1.873390e+003
      endloop
   endfacet
   facet normal 1.000000e+000 2.706169e-016 3.139580e-016
      outer loop
         vertex 1.049792e+003 1.349417e+003 1.873390e+003
         vertex 1.049792e+003 1.350446e+003 1.876664e+003
         vertex 1.049792e+003 1.350217e+003 1.876504e+003
      endloop
   endfacet
   facet normal 1.000000e+000 2.706169e-016 3.139580e-016
      outer loop
         vertex 1.049792e+003 1.349417e+003 1.873390e+003
         vertex 1.049792e+003 1.350217e+003 1.876504e+003
         vertex 1.049792e+003 1.349965e+003 1.876386e+003
      endloop
   endfacet
   facet normal 1.000000e+000 2.706169e-016 3.139580e-016
      outer loop
         vertex 1.049792e+003 1.334617e+003 1.876504e+003
         vertex 1.049792e+003 1.334389e+003 1.876664e+003
         vertex 1.049792e+003 1.331417e+003 1.873390e+003
      endloop
   endfacet
   facet normal 1.000000e+000 2.706169e-016 3.139580e-016
      outer loop
         vertex 1.049792e+003 1.331417e+003 1.873390e+003
         vertex 1.049792e+003 1.334389e+003 1.876664e+003
         vertex 1.049792e+003 1.334192e+003 1.876861e+003
      endloop
   endfacet
   facet normal 1.000000e+000 2.706169e-016 3.139580e-016
      outer loop
         vertex 1.049792e+003 1.331417e+003 1.873390e+003
         vertex 1.049792e+003 1.334192e+003 1.876861e+003
         vertex 1.049792e+003 1.334032e+003 1.877090e+003
      endloop
   endfacet
   facet normal 1.000000e+000 2.706169e-016 3.139580e-016
      outer loop
         vertex 1.049792e+003 1.334870e+003 1.879393e+003
         vertex 1.049792e+003 1.335140e+003 1.879466e+003
         vertex 1.049792e+003 1.331417e+003 1.880890e+003
      endloop
   endfacet
   facet normal 1.000000e+000 2.706169e-016 3.139580e-016
      outer loop
         vertex 1.049792e+003 1.331417e+003 1.880890e+003
         vertex 1.049792e+003 1.335140e+003 1.879466e+003
         vertex 1.049792e+003 1.335417e+003 1.879490e+003
      endloop
   endfacet
   facet normal 1.000000e+000 2.706169e-016 3.139580e-016
      outer loop
         vertex 1.049792e+003 1.331417e+003 1.880890e+003
         vertex 1.049792e+003 1.335417e+003 1.879490e+003
         vertex 1.049792e+003 1.335695e+003 1.879466e+003
      endloop
   endfacet
   facet normal 1.000000e+000 2.706169e-016 3.139580e-016
      outer loop
         vertex 1.049792e+003 1.348032e+003 1.878690e+003
         vertex 1.049792e+003 1.348192e+003 1.878918e+003
         vertex 1.049792e+003 1.331417e+003 1.880890e+003
      endloop
   endfacet
   facet normal 1.000000e+000 2.706169e-016 3.139580e-016
      outer loop
         vertex 1.049792e+003 1.331417e+003 1.880890e+003
         vertex 1.049792e+003 1.348192e+003 1.878918e+003
         vertex 1.049792e+003 1.348389e+003 1.879116e+003
      endloop
   endfacet
   facet normal 1.000000e+000 2.706169e-016 3.139580e-016
      outer loop
         vertex 1.049792e+003 1.331417e+003 1.880890e+003
         vertex 1.049792e+003 1.348389e+003 1.879116e+003
         vertex 1.049792e+003 1.348617e+003 1.879276e+003
      endloop
   endfacet
   facet normal 1.000000e+000 2.706169e-016 3.139580e-016
      outer loop
         vertex 1.049792e+003 1.349965e+003 1.876386e+003
         vertex 1.049792e+003 1.349695e+003 1.876314e+003
         vertex 1.049792e+003 1.349417e+003 1.873390e+003
      endloop
   endfacet
   facet normal 1.000000e+000 2.706169e-016 3.139580e-016
      outer loop
         vertex 1.049792e+003 1.349417e+003 1.873390e+003
         vertex 1.049792e+003 1.349695e+003 1.876314e+003
         vertex 1.049792e+003 1.349417e+003 1.876290e+003
      endloop
   endfacet
   facet normal 1.000000e+000 2.706169e-016 3.139580e-016
      outer loop
         vertex 1.049792e+003 1.349417e+003 1.873390e+003
         vertex 1.049792e+003 1.349417e+003 1.876290e+003
         vertex 1.049792e+003 1.349139e+003 1.876314e+003
      endloop
   endfacet
   facet normal 1.000000e+000 2.706169e-016 3.139580e-016
      outer loop
         vertex 1.049792e+003 1.347842e+003 1.877612e+003
         vertex 1.049792e+003 1.347817e+003 1.877890e+003
         vertex 1.049792e+003 1.335695e+003 1.879466e+003
      endloop
   endfacet
   facet normal 1.000000e+000 2.706169e-016 3.139580e-016
      outer loop
         vertex 1.049792e+003 1.335695e+003 1.879466e+003
         vertex 1.049792e+003 1.347817e+003 1.877890e+003
         vertex 1.049792e+003 1.347842e+003 1.878168e+003
      endloop
   endfacet
   facet normal 1.000000e+000 2.706169e-016 3.139580e-016
      outer loop
         vertex 1.049792e+003 1.335695e+003 1.879466e+003
         vertex 1.049792e+003 1.347842e+003 1.878168e+003
         vertex 1.049792e+003 1.331417e+003 1.880890e+003
      endloop
   endfacet
   facet normal 1.000000e+000 2.706169e-016 3.139580e-016
      outer loop
         vertex 1.049792e+003 1.331417e+003 1.880890e+003
         vertex 1.049792e+003 1.347842e+003 1.878168e+003
         vertex 1.049792e+003 1.347914e+003 1.878437e+003
      endloop
   endfacet
   facet normal 1.000000e+000 2.706169e-016 3.139580e-016
      outer loop
         vertex 1.049792e+003 1.331417e+003 1.880890e+003
         vertex 1.049792e+003 1.347914e+003 1.878437e+003
         vertex 1.049792e+003 1.348032e+003 1.878690e+003
      endloop
   endfacet
   facet normal 1.000000e+000 2.706169e-016 3.139580e-016
      outer loop
         vertex 1.049792e+003 1.348617e+003 1.879276e+003
         vertex 1.049792e+003 1.348870e+003 1.879393e+003
         vertex 1.049792e+003 1.331417e+003 1.880890e+003
      endloop
   endfacet
   facet normal 1.000000e+000 2.706169e-016 3.139580e-016
      outer loop
         vertex 1.049792e+003 1.331417e+003 1.880890e+003
         vertex 1.049792e+003 1.348870e+003 1.879393e+003
         vertex 1.049792e+003 1.349139e+003 1.879466e+003
      endloop
   endfacet
   facet normal 1.000000e+000 2.706169e-016 3.139580e-016
      outer loop
         vertex 1.049792e+003 1.331417e+003 1.880890e+003
         vertex 1.049792e+003 1.349139e+003 1.879466e+003
         vertex 1.049792e+003 1.353417e+003 1.880890e+003
      endloop
   endfacet
   facet normal 1.000000e+000 2.706169e-016 3.139580e-016
      outer loop
         vertex 1.049792e+003 1.353417e+003 1.880890e+003
         vertex 1.049792e+003 1.349139e+003 1.879466e+003
         vertex 1.049792e+003 1.349417e+003 1.879490e+003
      endloop
   endfacet
   facet normal 1.000000e+000 2.706169e-016 3.139580e-016
      outer loop
         vertex 1.049792e+003 1.353417e+003 1.880890e+003
         vertex 1.049792e+003 1.349417e+003 1.879490e+003
         vertex 1.049792e+003 1.349695e+003 1.879466e+003
      endloop
   endfacet
   facet normal 1.000000e+000 2.706169e-016 3.139580e-016
      outer loop
         vertex 1.049792e+003 1.336643e+003 1.878918e+003
         vertex 1.049792e+003 1.336803e+003 1.878690e+003
         vertex 1.049792e+003 1.349139e+003 1.876314e+003
      endloop
   endfacet
   facet normal 1.000000e+000 2.706169e-016 3.139580e-016
      outer loop
         vertex 1.049792e+003 1.349139e+003 1.876314e+003
         vertex 1.049792e+003 1.336803e+003 1.878690e+003
         vertex 1.049792e+003 1.336921e+003 1.878437e+003
      endloop
   endfacet
   facet normal 1.000000e+000 2.706169e-016 3.139580e-016
      outer loop
         vertex 1.049792e+003 1.349139e+003 1.876314e+003
         vertex 1.049792e+003 1.336921e+003 1.878437e+003
         vertex 1.049792e+003 1.349417e+003 1.873390e+003
      endloop
   endfacet
   facet normal 1.000000e+000 2.706169e-016 3.139580e-016
      outer loop
         vertex 1.049792e+003 1.349417e+003 1.873390e+003
         vertex 1.049792e+003 1.336921e+003 1.878437e+003
         vertex 1.049792e+003 1.336993e+003 1.878168e+003
      endloop
   endfacet
   facet normal 1.000000e+000 2.706169e-016 3.139580e-016
      outer loop
         vertex 1.049792e+003 1.349417e+003 1.873390e+003
         vertex 1.049792e+003 1.336993e+003 1.878168e+003
         vertex 1.049792e+003 1.337017e+003 1.877890e+003
      endloop
   endfacet
   facet normal -1.000000e+000 -2.706169e-016 -3.139580e-016
      outer loop
         vertex 1.046792e+003 1.353417e+003 1.880890e+003
         vertex 1.046792e+003 1.336921e+003 1.878437e+003
         vertex 1.046792e+003 1.336803e+003 1.878690e+003
      endloop
   endfacet
   facet normal -1.000000e+000 -2.706169e-016 -3.139580e-016
      outer loop
         vertex 1.046792e+003 1.353417e+003 1.877390e+003
         vertex 1.046792e+003 1.351017e+003 1.877890e+003
         vertex 1.046792e+003 1.350993e+003 1.878168e+003
      endloop
   endfacet
   facet normal -1.000000e+000 -2.706169e-016 -3.139580e-016
      outer loop
         vertex 1.046792e+003 1.335140e+003 1.879466e+003
         vertex 1.046792e+003 1.334870e+003 1.879393e+003
         vertex 1.046792e+003 1.331417e+003 1.880890e+003
      endloop
   endfacet
   facet normal -1.000000e+000 -2.706169e-016 -3.139580e-016
      outer loop
         vertex 1.046792e+003 1.333914e+003 1.878437e+003
         vertex 1.046792e+003 1.331417e+003 1.880890e+003
         vertex 1.046792e+003 1.334032e+003 1.878690e+003
      endloop
   endfacet
   facet normal -1.000000e+000 -2.706169e-016 -3.139580e-016
      outer loop
         vertex 1.046792e+003 1.334032e+003 1.878690e+003
         vertex 1.046792e+003 1.331417e+003 1.880890e+003
         vertex 1.046792e+003 1.334192e+003 1.878918e+003
      endloop
   endfacet
   facet normal -1.000000e+000 -2.706169e-016 -3.139580e-016
      outer loop
         vertex 1.046792e+003 1.333842e+003 1.877612e+003
         vertex 1.046792e+003 1.331417e+003 1.873390e+003
         vertex 1.046792e+003 1.333817e+003 1.877890e+003
      endloop
   endfacet
   facet normal -1.000000e+000 -2.706169e-016 -3.139580e-016
      outer loop
         vertex 1.046792e+003 1.333817e+003 1.877890e+003
         vertex 1.046792e+003 1.331417e+003 1.873390e+003
         vertex 1.046792e+003 1.331417e+003 1.880890e+003
      endloop
   endfacet
   facet normal -1.000000e+000 -2.706169e-016 -3.139580e-016
      outer loop
         vertex 1.046792e+003 1.333817e+003 1.877890e+003
         vertex 1.046792e+003 1.331417e+003 1.880890e+003
         vertex 1.046792e+003 1.333842e+003 1.878168e+003
      endloop
   endfacet
   facet normal -1.000000e+000 -2.706169e-016 -3.139580e-016
      outer loop
         vertex 1.046792e+003 1.333842e+003 1.878168e+003
         vertex 1.046792e+003 1.331417e+003 1.880890e+003
         vertex 1.046792e+003 1.333914e+003 1.878437e+003
      endloop
   endfacet
   facet normal -1.000000e+000 -2.706169e-016 -3.139580e-016
      outer loop
         vertex 1.046792e+003 1.333842e+003 1.877612e+003
         vertex 1.046792e+003 1.333914e+003 1.877343e+003
         vertex 1.046792e+003 1.331417e+003 1.873390e+003
      endloop
   endfacet
   facet normal -1.000000e+000 -2.706169e-016 -3.139580e-016
      outer loop
         vertex 1.046792e+003 1.331417e+003 1.873390e+003
         vertex 1.046792e+003 1.333914e+003 1.877343e+003
         vertex 1.046792e+003 1.334032e+003 1.877090e+003
      endloop
   endfacet
   facet normal -1.000000e+000 -2.706169e-016 -3.139580e-016
      outer loop
         vertex 1.046792e+003 1.331417e+003 1.873390e+003
         vertex 1.046792e+003 1.334032e+003 1.877090e+003
         vertex 1.046792e+003 1.334192e+003 1.876861e+003
      endloop
   endfacet
   facet normal -1.000000e+000 -2.706169e-016 -3.139580e-016
      outer loop
         vertex 1.046792e+003 1.353417e+003 1.880890e+003
         vertex 1.046792e+003 1.350803e+003 1.878690e+003
         vertex 1.046792e+003 1.350643e+003 1.878918e+003
      endloop
   endfacet
   facet normal -1.000000e+000 -2.706169e-016 -3.139580e-016
      outer loop
         vertex 1.046792e+003 1.350643e+003 1.878918e+003
         vertex 1.046792e+003 1.350446e+003 1.879116e+003
         vertex 1.046792e+003 1.353417e+003 1.880890e+003
      endloop
   endfacet
   facet normal -1.000000e+000 -2.706169e-016 -3.139580e-016
      outer loop
         vertex 1.046792e+003 1.353417e+003 1.880890e+003
         vertex 1.046792e+003 1.350446e+003 1.879116e+003
         vertex 1.046792e+003 1.350217e+003 1.879276e+003
      endloop
   endfacet
   facet normal -1.000000e+000 -2.706169e-016 -3.139580e-016
      outer loop
         vertex 1.046792e+003 1.353417e+003 1.880890e+003
         vertex 1.046792e+003 1.350217e+003 1.879276e+003
         vertex 1.046792e+003 1.349965e+003 1.879393e+003
      endloop
   endfacet
   facet normal -1.000000e+000 -2.706169e-016 -3.139580e-016
      outer loop
         vertex 1.046792e+003 1.349965e+003 1.879393e+003
         vertex 1.046792e+003 1.349695e+003 1.879466e+003
         vertex 1.046792e+003 1.353417e+003 1.880890e+003
      endloop
   endfacet
   facet normal -1.000000e+000 -2.706169e-016 -3.139580e-016
      outer loop
         vertex 1.046792e+003 1.353417e+003 1.880890e+003
         vertex 1.046792e+003 1.349695e+003 1.879466e+003
         vertex 1.046792e+003 1.349417e+003 1.879490e+003
      endloop
   endfacet
   facet normal -1.000000e+000 -2.706169e-016 -3.139580e-016
      outer loop
         vertex 1.046792e+003 1.353417e+003 1.880890e+003
         vertex 1.046792e+003 1.349417e+003 1.879490e+003
         vertex 1.046792e+003 1.349139e+003 1.879466e+003
      endloop
   endfacet
   facet normal -1.000000e+000 -2.706169e-016 -3.139580e-016
      outer loop
         vertex 1.046792e+003 1.334870e+003 1.879393e+003
         vertex 1.046792e+003 1.334617e+003 1.879276e+003
         vertex 1.046792e+003 1.331417e+003 1.880890e+003
      endloop
   endfacet
   facet normal -1.000000e+000 -2.706169e-016 -3.139580e-016
      outer loop
         vertex 1.046792e+003 1.331417e+003 1.880890e+003
         vertex 1.046792e+003 1.334617e+003 1.879276e+003
         vertex 1.046792e+003 1.334389e+003 1.879116e+003
      endloop
   endfacet
   facet normal -1.000000e+000 -2.706169e-016 -3.139580e-016
      outer loop
         vertex 1.046792e+003 1.331417e+003 1.880890e+003
         vertex 1.046792e+003 1.334389e+003 1.879116e+003
         vertex 1.046792e+003 1.334192e+003 1.878918e+003
      endloop
   endfacet
   facet normal -1.000000e+000 -2.706169e-016 -3.139580e-016
      outer loop
         vertex 1.046792e+003 1.334870e+003 1.876386e+003
         vertex 1.046792e+003 1.335140e+003 1.876314e+003
         vertex 1.046792e+003 1.331417e+003 1.873390e+003
      endloop
   endfacet
   facet normal -1.000000e+000 -2.706169e-016 -3.139580e-016
      outer loop
         vertex 1.046792e+003 1.336643e+003 1.876861e+003
         vertex 1.046792e+003 1.349417e+003 1.873390e+003
         vertex 1.046792e+003 1.336446e+003 1.876664e+003
      endloop
   endfacet
   facet normal -1.000000e+000 -2.706169e-016 -3.139580e-016
      outer loop
         vertex 1.046792e+003 1.336446e+003 1.876664e+003
         vertex 1.046792e+003 1.349417e+003 1.873390e+003
         vertex 1.046792e+003 1.336217e+003 1.876504e+003
      endloop
   endfacet
   facet normal -1.000000e+000 -2.706169e-016 -3.139580e-016
      outer loop
         vertex 1.046792e+003 1.348617e+003 1.879276e+003
         vertex 1.046792e+003 1.348389e+003 1.879116e+003
         vertex 1.046792e+003 1.337017e+003 1.877890e+003
      endloop
   endfacet
   facet normal -1.000000e+000 -2.706169e-016 -3.139580e-016
      outer loop
         vertex 1.046792e+003 1.353417e+003 1.877390e+003
         vertex 1.046792e+003 1.350993e+003 1.878168e+003
         vertex 1.046792e+003 1.353417e+003 1.880890e+003
      endloop
   endfacet
   facet normal -1.000000e+000 -2.706169e-016 -3.139580e-016
      outer loop
         vertex 1.046792e+003 1.353417e+003 1.880890e+003
         vertex 1.046792e+003 1.350993e+003 1.878168e+003
         vertex 1.046792e+003 1.350921e+003 1.878437e+003
      endloop
   endfacet
   facet normal -1.000000e+000 -2.706169e-016 -3.139580e-016
      outer loop
         vertex 1.046792e+003 1.353417e+003 1.880890e+003
         vertex 1.046792e+003 1.350921e+003 1.878437e+003
         vertex 1.046792e+003 1.350803e+003 1.878690e+003
      endloop
   endfacet
   facet normal -1.000000e+000 -2.706169e-016 -3.139580e-016
      outer loop
         vertex 1.046792e+003 1.348617e+003 1.876504e+003
         vertex 1.046792e+003 1.336993e+003 1.877612e+003
         vertex 1.046792e+003 1.348389e+003 1.876664e+003
      endloop
   endfacet
   facet normal -1.000000e+000 -2.706169e-016 -3.139580e-016
      outer loop
         vertex 1.046792e+003 1.348389e+003 1.876664e+003
         vertex 1.046792e+003 1.336993e+003 1.877612e+003
         vertex 1.046792e+003 1.348192e+003 1.876861e+003
      endloop
   endfacet
   facet normal -1.000000e+000 -2.706169e-016 -3.139580e-016
      outer loop
         vertex 1.046792e+003 1.336803e+003 1.878690e+003
         vertex 1.046792e+003 1.336643e+003 1.878918e+003
         vertex 1.046792e+003 1.353417e+003 1.880890e+003
      endloop
   endfacet
   facet normal -1.000000e+000 -2.706169e-016 -3.139580e-016
      outer loop
         vertex 1.046792e+003 1.353417e+003 1.880890e+003
         vertex 1.046792e+003 1.336643e+003 1.878918e+003
         vertex 1.046792e+003 1.336446e+003 1.879116e+003
      endloop
   endfacet
   facet normal -1.000000e+000 -2.706169e-016 -3.139580e-016
      outer loop
         vertex 1.046792e+003 1.353417e+003 1.880890e+003
         vertex 1.046792e+003 1.336446e+003 1.879116e+003
         vertex 1.046792e+003 1.336217e+003 1.879276e+003
      endloop
   endfacet
   facet normal -1.000000e+000 -2.706169e-016 -3.139580e-016
      outer loop
         vertex 1.046792e+003 1.336217e+003 1.879276e+003
         vertex 1.046792e+003 1.335965e+003 1.879393e+003
         vertex 1.046792e+003 1.353417e+003 1.880890e+003
      endloop
   endfacet
   facet normal -1.000000e+000 -2.706169e-016 -3.139580e-016
      outer loop
         vertex 1.046792e+003 1.353417e+003 1.880890e+003
         vertex 1.046792e+003 1.335965e+003 1.879393e+003
         vertex 1.046792e+003 1.335695e+003 1.879466e+003
      endloop
   endfacet
   facet normal -1.000000e+000 -2.706169e-016 -3.139580e-016
      outer loop
         vertex 1.046792e+003 1.353417e+003 1.880890e+003
         vertex 1.046792e+003 1.335695e+003 1.879466e+003
         vertex 1.046792e+003 1.331417e+003 1.880890e+003
      endloop
   endfacet
   facet normal -1.000000e+000 -2.706169e-016 -3.139580e-016
      outer loop
         vertex 1.046792e+003 1.331417e+003 1.880890e+003
         vertex 1.046792e+003 1.335695e+003 1.879466e+003
         vertex 1.046792e+003 1.335417e+003 1.879490e+003
      endloop
   endfacet
   facet normal -1.000000e+000 -2.706169e-016 -3.139580e-016
      outer loop
         vertex 1.046792e+003 1.331417e+003 1.880890e+003
         vertex 1.046792e+003 1.335417e+003 1.879490e+003
         vertex 1.046792e+003 1.335140e+003 1.879466e+003
      endloop
   endfacet
   facet normal -1.000000e+000 -2.706169e-016 -3.139580e-016
      outer loop
         vertex 1.046792e+003 1.350803e+003 1.877090e+003
         vertex 1.046792e+003 1.350921e+003 1.877343e+003
         vertex 1.046792e+003 1.353417e+003 1.877390e+003
      endloop
   endfacet
   facet normal -1.000000e+000 -2.706169e-016 -3.139580e-016
      outer loop
         vertex 1.046792e+003 1.353417e+003 1.877390e+003
         vertex 1.046792e+003 1.350921e+003 1.877343e+003
         vertex 1.046792e+003 1.350993e+003 1.877612e+003
      endloop
   endfacet
   facet normal -1.000000e+000 -2.706169e-016 -3.139580e-016
      outer loop
         vertex 1.046792e+003 1.353417e+003 1.877390e+003
         vertex 1.046792e+003 1.350993e+003 1.877612e+003
         vertex 1.046792e+003 1.351017e+003 1.877890e+003
      endloop
   endfacet
   facet normal -1.000000e+000 -2.706169e-016 -3.139580e-016
      outer loop
         vertex 1.046792e+003 1.336921e+003 1.878437e+003
         vertex 1.046792e+003 1.353417e+003 1.880890e+003
         vertex 1.046792e+003 1.336993e+003 1.878168e+003
      endloop
   endfacet
   facet normal -1.000000e+000 -2.706169e-016 -3.139580e-016
      outer loop
         vertex 1.046792e+003 1.336993e+003 1.878168e+003
         vertex 1.046792e+003 1.353417e+003 1.880890e+003
         vertex 1.046792e+003 1.349139e+003 1.879466e+003
      endloop
   endfacet
   facet normal -1.000000e+000 -2.706169e-016 -3.139580e-016
      outer loop
         vertex 1.046792e+003 1.336993e+003 1.878168e+003
         vertex 1.046792e+003 1.349139e+003 1.879466e+003
         vertex 1.046792e+003 1.337017e+003 1.877890e+003
      endloop
   endfacet
   facet normal -1.000000e+000 -2.706169e-016 -3.139580e-016
      outer loop
         vertex 1.046792e+003 1.337017e+003 1.877890e+003
         vertex 1.046792e+003 1.349139e+003 1.879466e+003
         vertex 1.046792e+003 1.348870e+003 1.879393e+003
      endloop
   endfacet
   facet normal -1.000000e+000 -2.706169e-016 -3.139580e-016
      outer loop
         vertex 1.046792e+003 1.337017e+003 1.877890e+003
         vertex 1.046792e+003 1.348870e+003 1.879393e+003
         vertex 1.046792e+003 1.348617e+003 1.879276e+003
      endloop
   endfacet
   facet normal -1.000000e+000 -2.706169e-016 -3.139580e-016
      outer loop
         vertex 1.046792e+003 1.348389e+003 1.879116e+003
         vertex 1.046792e+003 1.348192e+003 1.878918e+003
         vertex 1.046792e+003 1.337017e+003 1.877890e+003
      endloop
   endfacet
   facet normal -1.000000e+000 -2.706169e-016 -3.139580e-016
      outer loop
         vertex 1.046792e+003 1.337017e+003 1.877890e+003
         vertex 1.046792e+003 1.348192e+003 1.878918e+003
         vertex 1.046792e+003 1.348032e+003 1.878690e+003
      endloop
   endfacet
   facet normal -1.000000e+000 -2.706169e-016 -3.139580e-016
      outer loop
         vertex 1.046792e+003 1.337017e+003 1.877890e+003
         vertex 1.046792e+003 1.348032e+003 1.878690e+003
         vertex 1.046792e+003 1.347914e+003 1.878437e+003
      endloop
   endfacet
   facet normal -1.000000e+000 -2.706169e-016 -3.139580e-016
      outer loop
         vertex 1.046792e+003 1.347842e+003 1.877612e+003
         vertex 1.046792e+003 1.336993e+003 1.877612e+003
         vertex 1.046792e+003 1.347817e+003 1.877890e+003
      endloop
   endfacet
   facet normal -1.000000e+000 -2.706169e-016 -3.139580e-016
      outer loop
         vertex 1.046792e+003 1.347817e+003 1.877890e+003
         vertex 1.046792e+003 1.336993e+003 1.877612e+003
         vertex 1.046792e+003 1.337017e+003 1.877890e+003
      endloop
   endfacet
   facet normal -1.000000e+000 -2.706169e-016 -3.139580e-016
      outer loop
         vertex 1.046792e+003 1.347817e+003 1.877890e+003
         vertex 1.046792e+003 1.337017e+003 1.877890e+003
         vertex 1.046792e+003 1.347842e+003 1.878168e+003
      endloop
   endfacet
   facet normal -1.000000e+000 -2.706169e-016 -3.139580e-016
      outer loop
         vertex 1.046792e+003 1.347842e+003 1.878168e+003
         vertex 1.046792e+003 1.337017e+003 1.877890e+003
         vertex 1.046792e+003 1.347914e+003 1.878437e+003
      endloop
   endfacet
   facet normal -1.000000e+000 -2.706169e-016 -3.139580e-016
      outer loop
         vertex 1.046792e+003 1.347842e+003 1.877612e+003
         vertex 1.046792e+003 1.347914e+003 1.877343e+003
         vertex 1.046792e+003 1.336993e+003 1.877612e+003
      endloop
   endfacet
   facet normal -1.000000e+000 -2.706169e-016 -3.139580e-016
      outer loop
         vertex 1.046792e+003 1.336993e+003 1.877612e+003
         vertex 1.046792e+003 1.347914e+003 1.877343e+003
         vertex 1.046792e+003 1.348032e+003 1.877090e+003
      endloop
   endfacet
   facet normal -1.000000e+000 -2.706169e-016 -3.139580e-016
      outer loop
         vertex 1.046792e+003 1.336993e+003 1.877612e+003
         vertex 1.046792e+003 1.348032e+003 1.877090e+003
         vertex 1.046792e+003 1.348192e+003 1.876861e+003
      endloop
   endfacet
   facet normal -1.000000e+000 -2.706169e-016 -3.139580e-016
      outer loop
         vertex 1.046792e+003 1.334192e+003 1.876861e+003
         vertex 1.046792e+003 1.334389e+003 1.876664e+003
         vertex 1.046792e+003 1.331417e+003 1.873390e+003
      endloop
   endfacet
   facet normal -1.000000e+000 -2.706169e-016 -3.139580e-016
      outer loop
         vertex 1.046792e+003 1.331417e+003 1.873390e+003
         vertex 1.046792e+003 1.334389e+003 1.876664e+003
         vertex 1.046792e+003 1.334617e+003 1.876504e+003
      endloop
   endfacet
   facet normal -1.000000e+000 -2.706169e-016 -3.139580e-016
      outer loop
         vertex 1.046792e+003 1.331417e+003 1.873390e+003
         vertex 1.046792e+003 1.334617e+003 1.876504e+003
         vertex 1.046792e+003 1.334870e+003 1.876386e+003
      endloop
   endfacet
   facet normal -1.000000e+000 -2.706169e-016 -3.139580e-016
      outer loop
         vertex 1.046792e+003 1.335140e+003 1.876314e+003
         vertex 1.046792e+003 1.335417e+003 1.876290e+003
         vertex 1.046792e+003 1.331417e+003 1.873390e+003
      endloop
   endfacet
   facet normal -1.000000e+000 -2.706169e-016 -3.139580e-016
      outer loop
         vertex 1.046792e+003 1.331417e+003 1.873390e+003
         vertex 1.046792e+003 1.335417e+003 1.876290e+003
         vertex 1.046792e+003 1.335695e+003 1.876314e+003
      endloop
   endfacet
   facet normal -1.000000e+000 -2.706169e-016 -3.139580e-016
      outer loop
         vertex 1.046792e+003 1.331417e+003 1.873390e+003
         vertex 1.046792e+003 1.335695e+003 1.876314e+003
         vertex 1.046792e+003 1.349417e+003 1.873390e+003
      endloop
   endfacet
   facet normal -1.000000e+000 -2.706169e-016 -3.139580e-016
      outer loop
         vertex 1.046792e+003 1.349417e+003 1.873390e+003
         vertex 1.046792e+003 1.335695e+003 1.876314e+003
         vertex 1.046792e+003 1.335965e+003 1.876386e+003
      endloop
   endfacet
   facet normal -1.000000e+000 -2.706169e-016 -3.139580e-016
      outer loop
         vertex 1.046792e+003 1.349417e+003 1.873390e+003
         vertex 1.046792e+003 1.335965e+003 1.876386e+003
         vertex 1.046792e+003 1.336217e+003 1.876504e+003
      endloop
   endfacet
   facet normal -1.000000e+000 -2.706169e-016 -3.139580e-016
      outer loop
         vertex 1.046792e+003 1.336643e+003 1.876861e+003
         vertex 1.046792e+003 1.336803e+003 1.877090e+003
         vertex 1.046792e+003 1.349417e+003 1.873390e+003
      endloop
   endfacet
   facet normal -1.000000e+000 -2.706169e-016 -3.139580e-016
      outer loop
         vertex 1.046792e+003 1.349417e+003 1.873390e+003
         vertex 1.046792e+003 1.336803e+003 1.877090e+003
         vertex 1.046792e+003 1.336921e+003 1.877343e+003
      endloop
   endfacet
   facet normal -1.000000e+000 -2.706169e-016 -3.139580e-016
      outer loop
         vertex 1.046792e+003 1.349417e+003 1.873390e+003
         vertex 1.046792e+003 1.336921e+003 1.877343e+003
         vertex 1.046792e+003 1.336993e+003 1.877612e+003
      endloop
   endfacet
   facet normal -1.000000e+000 -2.706169e-016 -3.139580e-016
      outer loop
         vertex 1.046792e+003 1.349417e+003 1.873390e+003
         vertex 1.046792e+003 1.349695e+003 1.876314e+003
         vertex 1.046792e+003 1.349965e+003 1.876386e+003
      endloop
   endfacet
   facet normal -1.000000e+000 -2.706169e-016 -3.139580e-016
      outer loop
         vertex 1.046792e+003 1.348617e+003 1.876504e+003
         vertex 1.046792e+003 1.348870e+003 1.876386e+003
         vertex 1.046792e+003 1.336993e+003 1.877612e+003
      endloop
   endfacet
   facet normal -1.000000e+000 -2.706169e-016 -3.139580e-016
      outer loop
         vertex 1.046792e+003 1.336993e+003 1.877612e+003
         vertex 1.046792e+003 1.348870e+003 1.876386e+003
         vertex 1.046792e+003 1.349139e+003 1.876314e+003
      endloop
   endfacet
   facet normal -1.000000e+000 -2.706169e-016 -3.139580e-016
      outer loop
         vertex 1.046792e+003 1.336993e+003 1.877612e+003
         vertex 1.046792e+003 1.349139e+003 1.876314e+003
         vertex 1.046792e+003 1.349417e+003 1.873390e+003
      endloop
   endfacet
   facet normal -1.000000e+000 -2.706169e-016 -3.139580e-016
      outer loop
         vertex 1.046792e+003 1.349417e+003 1.873390e+003
         vertex 1.046792e+003 1.349139e+003 1.876314e+003
         vertex 1.046792e+003 1.349417e+003 1.876290e+003
      endloop
   endfacet
   facet normal -1.000000e+000 -2.706169e-016 -3.139580e-016
      outer loop
         vertex 1.046792e+003 1.349417e+003 1.873390e+003
         vertex 1.046792e+003 1.349417e+003 1.876290e+003
         vertex 1.046792e+003 1.349695e+003 1.876314e+003
      endloop
   endfacet
   facet normal -1.000000e+000 -2.706169e-016 -3.139580e-016
      outer loop
         vertex 1.046792e+003 1.349965e+003 1.876386e+003
         vertex 1.046792e+003 1.350217e+003 1.876504e+003
         vertex 1.046792e+003 1.349417e+003 1.873390e+003
      endloop
   endfacet
   facet normal -1.000000e+000 -2.706169e-016 -3.139580e-016
      outer loop
         vertex 1.046792e+003 1.349417e+003 1.873390e+003
         vertex 1.046792e+003 1.350217e+003 1.876504e+003
         vertex 1.046792e+003 1.350446e+003 1.876664e+003
      endloop
   endfacet
   facet normal -1.000000e+000 -2.706169e-016 -3.139580e-016
      outer loop
         vertex 1.046792e+003 1.349417e+003 1.873390e+003
         vertex 1.046792e+003 1.350446e+003 1.876664e+003
         vertex 1.046792e+003 1.353417e+003 1.877390e+003
      endloop
   endfacet
   facet normal -1.000000e+000 -2.706169e-016 -3.139580e-016
      outer loop
         vertex 1.046792e+003 1.353417e+003 1.877390e+003
         vertex 1.046792e+003 1.350446e+003 1.876664e+003
         vertex 1.046792e+003 1.350643e+003 1.876861e+003
      endloop
   endfacet
   facet normal -1.000000e+000 -2.706169e-016 -3.139580e-016
      outer loop
         vertex 1.046792e+003 1.353417e+003 1.877390e+003
         vertex 1.046792e+003 1.350643e+003 1.876861e+003
         vertex 1.046792e+003 1.350803e+003 1.877090e+003
      endloop
   endfacet
   facet normal 6.537966e-017 7.071068e-001 -7.071068e-001
      outer loop
         vertex 1.046792e+003 1.349417e+003 1.873390e+003
         vertex 1.046792e+003 1.353417e+003 1.877390e+003
         vertex 1.049792e+003 1.349417e+003 1.873390e+003
      endloop
   endfacet
   facet normal 6.537966e-017 7.071068e-001 -7.071068e-001
      outer loop
         vertex 1.049792e+003 1.349417e+003 1.873390e+003
         vertex 1.046792e+003 1.353417e+003 1.877390e+003
         vertex 1.049792e+003 1.353417e+003 1.877390e+003
      endloop
   endfacet
   facet normal 2.472662e-016 -9.983120e-001 -5.807914e-002
      outer loop
         vertex 1.049792e+003 1.336993e+003 1.878168e+003
         vertex 1.046792e+003 1.337017e+003 1.877890e+003
         vertex 1.049792e+003 1.337017e+003 1.877890e+003
      endloop
   endfacet
   facet normal 2.099278e-016 -9.983120e-001 5.807914e-002
      outer loop
         vertex 1.049792e+003 1.337017e+003 1.877890e+003
         vertex 1.046792e+003 1.337017e+003 1.877890e+003
         vertex 1.046792e+003 1.336993e+003 1.877612e+003
      endloop
   endfacet
   facet normal 1.900950e-016 -9.932307e-001 1.161583e-001
      outer loop
         vertex 1.049792e+003 1.337017e+003 1.877890e+003
         vertex 1.046792e+003 1.336993e+003 1.877612e+003
         vertex 1.049792e+003 1.336993e+003 1.877612e+003
      endloop
   endfacet
   facet normal 1.487051e-016 -9.730601e-001 2.305518e-001
      outer loop
         vertex 1.049792e+003 1.336993e+003 1.877612e+003
         vertex 1.046792e+003 1.336993e+003 1.877612e+003
         vertex 1.046792e+003 1.336921e+003 1.877343e+003
      endloop
   endfacet
   facet normal 1.271479e-016 -9.579706e-001 2.868663e-001
      outer loop
         vertex 1.049792e+003 1.336993e+003 1.877612e+003
         vertex 1.046792e+003 1.336921e+003 1.877343e+003
         vertex 1.049792e+003 1.336921e+003 1.877343e+003
      endloop
   endfacet
   facet normal 8.296413e-017 -9.182422e-001 3.960194e-001
      outer loop
         vertex 1.049792e+003 1.336921e+003 1.877343e+003
         vertex 1.046792e+003 1.336921e+003 1.877343e+003
         vertex 1.046792e+003 1.336803e+003 1.877090e+003
      endloop
   endfacet
   facet normal 6.033752e-017 -8.936031e-001 4.488580e-001
      outer loop
         vertex 1.049792e+003 1.336921e+003 1.877343e+003
         vertex 1.046792e+003 1.336803e+003 1.877090e+003
         vertex 1.049792e+003 1.336803e+003 1.877090e+003
      endloop
   endfacet
   facet normal 1.470235e-017 -8.355240e-001 5.494540e-001
      outer loop
         vertex 1.049792e+003 1.336803e+003 1.877090e+003
         vertex 1.046792e+003 1.336803e+003 1.877090e+003
         vertex 1.046792e+003 1.336643e+003 1.876861e+003
      endloop
   endfacet
   facet normal -8.306222e-018 -8.020839e-001 5.972114e-001
      outer loop
         vertex 1.049792e+003 1.336803e+003 1.877090e+003
         vertex 1.046792e+003 1.336643e+003 1.876861e+003
         vertex 1.049792e+003 1.336643e+003 1.876861e+003
      endloop
   endfacet
   facet normal -5.400618e-017 -7.274188e-001 6.861938e-001
      outer loop
         vertex 1.049792e+003 1.336643e+003 1.876861e+003
         vertex 1.046792e+003 1.336643e+003 1.876861e+003
         vertex 1.046792e+003 1.336446e+003 1.876664e+003
      endloop
   endfacet
   facet normal -7.669758e-017 -6.861938e-001 7.274188e-001
      outer loop
         vertex 1.049792e+003 1.336643e+003 1.876861e+003
         vertex 1.046792e+003 1.336446e+003 1.876664e+003
         vertex 1.049792e+003 1.336446e+003 1.876664e+003
      endloop
   endfacet
   facet normal -1.210737e-016 -5.972114e-001 8.020839e-001
      outer loop
         vertex 1.049792e+003 1.336446e+003 1.876664e+003
         vertex 1.046792e+003 1.336446e+003 1.876664e+003
         vertex 1.046792e+003 1.336217e+003 1.876504e+003
      endloop
   endfacet
   facet normal -1.427585e-016 -5.494540e-001 8.355240e-001
      outer loop
         vertex 1.049792e+003 1.336446e+003 1.876664e+003
         vertex 1.046792e+003 1.336217e+003 1.876504e+003
         vertex 1.049792e+003 1.336217e+003 1.876504e+003
      endloop
   endfacet
   facet normal -1.844625e-016 -4.488580e-001 8.936031e-001
      outer loop
         vertex 1.049792e+003 1.336217e+003 1.876504e+003
         vertex 1.046792e+003 1.336217e+003 1.876504e+003
         vertex 1.046792e+003 1.335965e+003 1.876386e+003
      endloop
   endfacet
   facet normal -2.044818e-016 -3.960194e-001 9.182422e-001
      outer loop
         vertex 1.049792e+003 1.336217e+003 1.876504e+003
         vertex 1.046792e+003 1.335965e+003 1.876386e+003
         vertex 1.049792e+003 1.335965e+003 1.876386e+003
      endloop
   endfacet
   facet normal -2.422466e-016 -2.868663e-001 9.579706e-001
      outer loop
         vertex 1.049792e+003 1.335965e+003 1.876386e+003
         vertex 1.046792e+003 1.335965e+003 1.876386e+003
         vertex 1.046792e+003 1.335695e+003 1.876314e+003
      endloop
   endfacet
   facet normal -2.599921e-016 -2.305518e-001 9.730601e-001
      outer loop
         vertex 1.049792e+003 1.335965e+003 1.876386e+003
         vertex 1.046792e+003 1.335695e+003 1.876314e+003
         vertex 1.049792e+003 1.335695e+003 1.876314e+003
      endloop
   endfacet
   facet normal -2.926700e-016 -1.161583e-001 9.932307e-001
      outer loop
         vertex 1.049792e+003 1.335695e+003 1.876314e+003
         vertex 1.046792e+003 1.335695e+003 1.876314e+003
         vertex 1.046792e+003 1.335417e+003 1.876290e+003
      endloop
   endfacet
   facet normal -3.076025e-016 -5.807914e-002 9.983120e-001
      outer loop
         vertex 1.049792e+003 1.335695e+003 1.876314e+003
         vertex 1.046792e+003 1.335417e+003 1.876290e+003
         vertex 1.049792e+003 1.335417e+003 1.876290e+003
      endloop
   endfacet
   facet normal -3.342009e-016 5.807914e-002 9.983120e-001
      outer loop
         vertex 1.049792e+003 1.335417e+003 1.876290e+003
         vertex 1.046792e+003 1.335417e+003 1.876290e+003
         vertex 1.046792e+003 1.335140e+003 1.876314e+003
      endloop
   endfacet
   facet normal -3.458667e-016 1.161583e-001 9.932307e-001
      outer loop
         vertex 1.049792e+003 1.335417e+003 1.876290e+003
         vertex 1.046792e+003 1.335140e+003 1.876314e+003
         vertex 1.049792e+003 1.335140e+003 1.876314e+003
      endloop
   endfacet
   facet normal -3.655772e-016 2.305518e-001 9.730601e-001
      outer loop
         vertex 1.049792e+003 1.335140e+003 1.876314e+003
         vertex 1.046792e+003 1.335140e+003 1.876314e+003
         vertex 1.046792e+003 1.334870e+003 1.876386e+003
      endloop
   endfacet
   facet normal -3.736218e-016 2.868663e-001 9.579706e-001
      outer loop
         vertex 1.049792e+003 1.335140e+003 1.876314e+003
         vertex 1.046792e+003 1.334870e+003 1.876386e+003
         vertex 1.049792e+003 1.334870e+003 1.876386e+003
      endloop
   endfacet
   facet normal -3.858456e-016 3.960194e-001 9.182422e-001
      outer loop
         vertex 1.049792e+003 1.334870e+003 1.876386e+003
         vertex 1.046792e+003 1.334870e+003 1.876386e+003
         vertex 1.046792e+003 1.334617e+003 1.876504e+003
      endloop
   endfacet
   facet normal -3.900247e-016 4.488580e-001 8.936031e-001
      outer loop
         vertex 1.049792e+003 1.334870e+003 1.876386e+003
         vertex 1.046792e+003 1.334617e+003 1.876504e+003
         vertex 1.049792e+003 1.334617e+003 1.876504e+003
      endloop
   endfacet
   facet normal -3.943903e-016 5.494540e-001 8.355240e-001
      outer loop
         vertex 1.049792e+003 1.334617e+003 1.876504e+003
         vertex 1.046792e+003 1.334617e+003 1.876504e+003
         vertex 1.046792e+003 1.334389e+003 1.876664e+003
      endloop
   endfacet
   facet normal -3.945769e-016 5.972114e-001 8.020839e-001
      outer loop
         vertex 1.049792e+003 1.334617e+003 1.876504e+003
         vertex 1.046792e+003 1.334389e+003 1.876664e+003
         vertex 1.049792e+003 1.334389e+003 1.876664e+003
      endloop
   endfacet
   facet normal -3.909517e-016 6.861938e-001 7.274188e-001
      outer loop
         vertex 1.049792e+003 1.334389e+003 1.876664e+003
         vertex 1.046792e+003 1.334389e+003 1.876664e+003
         vertex 1.046792e+003 1.334192e+003 1.876861e+003
      endloop
   endfacet
   facet normal -3.871400e-016 7.274188e-001 6.861938e-001
      outer loop
         vertex 1.049792e+003 1.334389e+003 1.876664e+003
         vertex 1.046792e+003 1.334192e+003 1.876861e+003
         vertex 1.049792e+003 1.334192e+003 1.876861e+003
      endloop
   endfacet
   facet normal -3.756342e-016 8.020839e-001 5.972114e-001
      outer loop
         vertex 1.049792e+003 1.334192e+003 1.876861e+003
         vertex 1.046792e+003 1.334192e+003 1.876861e+003
         vertex 1.046792e+003 1.334032e+003 1.877090e+003
      endloop
   endfacet
   facet normal -3.679400e-016 8.355240e-001 5.494540e-001
      outer loop
         vertex 1.049792e+003 1.334192e+003 1.876861e+003
         vertex 1.046792e+003 1.334032e+003 1.877090e+003
         vertex 1.049792e+003 1.334032e+003 1.877090e+003
      endloop
   endfacet
   facet normal -3.489032e-016 8.936031e-001 4.488580e-001
      outer loop
         vertex 1.049792e+003 1.334032e+003 1.877090e+003
         vertex 1.046792e+003 1.334032e+003 1.877090e+003
         vertex 1.046792e+003 1.333914e+003 1.877343e+003
      endloop
   endfacet
   facet normal -3.375605e-016 9.182422e-001 3.960194e-001
      outer loop
         vertex 1.049792e+003 1.334032e+003 1.877090e+003
         vertex 1.046792e+003 1.333914e+003 1.877343e+003
         vertex 1.049792e+003 1.333914e+003 1.877343e+003
      endloop
   endfacet
   facet normal -3.115710e-016 9.579706e-001 2.868663e-001
      outer loop
         vertex 1.049792e+003 1.333914e+003 1.877343e+003
         vertex 1.046792e+003 1.333914e+003 1.877343e+003
         vertex 1.046792e+003 1.333842e+003 1.877612e+003
      endloop
   endfacet
   facet normal -2.969243e-016 9.730601e-001 2.305518e-001
      outer loop
         vertex 1.049792e+003 1.333914e+003 1.877343e+003
         vertex 1.046792e+003 1.333842e+003 1.877612e+003
         vertex 1.049792e+003 1.333842e+003 1.877612e+003
      endloop
   endfacet
   facet normal -2.647719e-016 9.932307e-001 1.161583e-001
      outer loop
         vertex 1.049792e+003 1.333842e+003 1.877612e+003
         vertex 1.046792e+003 1.333842e+003 1.877612e+003
         vertex 1.046792e+003 1.333817e+003 1.877890e+003
      endloop
   endfacet
   facet normal -2.472662e-016 9.983120e-001 5.807914e-002
      outer loop
         vertex 1.049792e+003 1.333842e+003 1.877612e+003
         vertex 1.046792e+003 1.333817e+003 1.877890e+003
         vertex 1.049792e+003 1.333817e+003 1.877890e+003
      endloop
   endfacet
   facet normal -2.099278e-016 9.983120e-001 -5.807914e-002
      outer loop
         vertex 1.049792e+003 1.333817e+003 1.877890e+003
         vertex 1.046792e+003 1.333817e+003 1.877890e+003
         vertex 1.046792e+003 1.333842e+003 1.878168e+003
      endloop
   endfacet
   facet normal -1.900950e-016 9.932307e-001 -1.161583e-001
      outer loop
         vertex 1.049792e+003 1.333817e+003 1.877890e+003
         vertex 1.046792e+003 1.333842e+003 1.878168e+003
         vertex 1.049792e+003 1.333842e+003 1.878168e+003
      endloop
   endfacet
   facet normal -1.487051e-016 9.730601e-001 -2.305518e-001
      outer loop
         vertex 1.049792e+003 1.333842e+003 1.878168e+003
         vertex 1.046792e+003 1.333842e+003 1.878168e+003
         vertex 1.046792e+003 1.333914e+003 1.878437e+003
      endloop
   endfacet
   facet normal -1.271479e-016 9.579706e-001 -2.868663e-001
      outer loop
         vertex 1.049792e+003 1.333842e+003 1.878168e+003
         vertex 1.046792e+003 1.333914e+003 1.878437e+003
         vertex 1.049792e+003 1.333914e+003 1.878437e+003
      endloop
   endfacet
   facet normal -8.296413e-017 9.182422e-001 -3.960194e-001
      outer loop
         vertex 1.049792e+003 1.333914e+003 1.878437e+003
         vertex 1.046792e+003 1.333914e+003 1.878437e+003
         vertex 1.046792e+003 1.334032e+003 1.878690e+003
      endloop
   endfacet
   facet normal -6.033752e-017 8.936031e-001 -4.488580e-001
      outer loop
         vertex 1.049792e+003 1.333914e+003 1.878437e+003
         vertex 1.046792e+003 1.334032e+003 1.878690e+003
         vertex 1.049792e+003 1.334032e+003 1.878690e+003
      endloop
   endfacet
   facet normal -1.470235e-017 8.355240e-001 -5.494540e-001
      outer loop
         vertex 1.049792e+003 1.334032e+003 1.878690e+003
         vertex 1.046792e+003 1.334032e+003 1.878690e+003
         vertex 1.046792e+003 1.334192e+003 1.878918e+003
      endloop
   endfacet
   facet normal 8.306222e-018 8.020839e-001 -5.972114e-001
      outer loop
         vertex 1.049792e+003 1.334032e+003 1.878690e+003
         vertex 1.046792e+003 1.334192e+003 1.878918e+003
         vertex 1.049792e+003 1.334192e+003 1.878918e+003
      endloop
   endfacet
   facet normal 5.400618e-017 7.274188e-001 -6.861938e-001
      outer loop
         vertex 1.049792e+003 1.334192e+003 1.878918e+003
         vertex 1.046792e+003 1.334192e+003 1.878918e+003
         vertex 1.046792e+003 1.334389e+003 1.879116e+003
      endloop
   endfacet
   facet normal 7.669758e-017 6.861938e-001 -7.274188e-001
      outer loop
         vertex 1.049792e+003 1.334192e+003 1.878918e+003
         vertex 1.046792e+003 1.334389e+003 1.879116e+003
         vertex 1.049792e+003 1.334389e+003 1.879116e+003
      endloop
   endfacet
   facet normal 1.210737e-016 5.972114e-001 -8.020839e-001
      outer loop
         vertex 1.049792e+003 1.334389e+003 1.879116e+003
         vertex 1.046792e+003 1.334389e+003 1.879116e+003
         vertex 1.046792e+003 1.334617e+003 1.879276e+003
      endloop
   endfacet
   facet normal 1.427585e-016 5.494540e-001 -8.355240e-001
      outer loop
         vertex 1.049792e+003 1.334389e+003 1.879116e+003
         vertex 1.046792e+003 1.334617e+003 1.879276e+003
         vertex 1.049792e+003 1.334617e+003 1.879276e+003
      endloop
   endfacet
   facet normal 1.844625e-016 4.488580e-001 -8.936031e-001
      outer loop
         vertex 1.049792e+003 1.334617e+003 1.879276e+003
         vertex 1.046792e+003 1.334617e+003 1.879276e+003
         vertex 1.046792e+003 1.334870e+003 1.879393e+003
      endloop
   endfacet
   facet normal 2.044818e-016 3.960194e-001 -9.182422e-001
      outer loop
         vertex 1.049792e+003 1.334617e+003 1.879276e+003
         vertex 1.046792e+003 1.334870e+003 1.879393e+003
         vertex 1.049792e+003 1.334870e+003 1.879393e+003
      endloop
   endfacet
   facet normal 2.422466e-016 2.868663e-001 -9.579706e-001
      outer loop
         vertex 1.049792e+003 1.334870e+003 1.879393e+003
         vertex 1.046792e+003 1.334870e+003 1.879393e+003
         vertex 1.046792e+003 1.335140e+003 1.879466e+003
      endloop
   endfacet
   facet normal 2.599921e-016 2.305518e-001 -9.730601e-001
      outer loop
         vertex 1.049792e+003 1.334870e+003 1.879393e+003
         vertex 1.046792e+003 1.335140e+003 1.879466e+003
         vertex 1.049792e+003 1.335140e+003 1.879466e+003
      endloop
   endfacet
   facet normal 2.926700e-016 1.161583e-001 -9.932307e-001
      outer loop
         vertex 1.049792e+003 1.335140e+003 1.879466e+003
         vertex 1.046792e+003 1.335140e+003 1.879466e+003
         vertex 1.046792e+003 1.335417e+003 1.879490e+003
      endloop
   endfacet
   facet normal 3.076025e-016 5.807914e-002 -9.983120e-001
      outer loop
         vertex 1.049792e+003 1.335140e+003 1.879466e+003
         vertex 1.046792e+003 1.335417e+003 1.879490e+003
         vertex 1.049792e+003 1.335417e+003 1.879490e+003
      endloop
   endfacet
   facet normal 3.342009e-016 -5.807914e-002 -9.983120e-001
      outer loop
         vertex 1.049792e+003 1.335417e+003 1.879490e+003
         vertex 1.046792e+003 1.335417e+003 1.879490e+003
         vertex 1.046792e+003 1.335695e+003 1.879466e+003
      endloop
   endfacet
   facet normal 3.458667e-016 -1.161583e-001 -9.932307e-001
      outer loop
         vertex 1.049792e+003 1.335417e+003 1.879490e+003
         vertex 1.046792e+003 1.335695e+003 1.879466e+003
         vertex 1.049792e+003 1.335695e+003 1.879466e+003
      endloop
   endfacet
   facet normal 3.655772e-016 -2.305518e-001 -9.730601e-001
      outer loop
         vertex 1.049792e+003 1.335695e+003 1.879466e+003
         vertex 1.046792e+003 1.335695e+003 1.879466e+003
         vertex 1.046792e+003 1.335965e+003 1.879393e+003
      endloop
   endfacet
   facet normal 3.736218e-016 -2.868663e-001 -9.579706e-001
      outer loop
         vertex 1.049792e+003 1.335695e+003 1.879466e+003
         vertex 1.046792e+003 1.335965e+003 1.879393e+003
         vertex 1.049792e+003 1.335965e+003 1.879393e+003
      endloop
   endfacet
   facet normal 3.858456e-016 -3.960194e-001 -9.182422e-001
      outer loop
         vertex 1.049792e+003 1.335965e+003 1.879393e+003
         vertex 1.046792e+003 1.335965e+003 1.879393e+003
         vertex 1.046792e+003 1.336217e+003 1.879276e+003
      endloop
   endfacet
   facet normal 3.900247e-016 -4.488580e-001 -8.936031e-001
      outer loop
         vertex 1.049792e+003 1.335965e+003 1.879393e+003
         vertex 1.046792e+003 1.336217e+003 1.879276e+003
         vertex 1.049792e+003 1.336217e+003 1.879276e+003
      endloop
   endfacet
   facet normal 3.943903e-016 -5.494540e-001 -8.355240e-001
      outer loop
         vertex 1.049792e+003 1.336217e+003 1.879276e+003
         vertex 1.046792e+003 1.336217e+003 1.879276e+003
         vertex 1.046792e+003 1.336446e+003 1.879116e+003
      endloop
   endfacet
   facet normal 3.945769e-016 -5.972114e-001 -8.020839e-001
      outer loop
         vertex 1.049792e+003 1.336217e+003 1.879276e+003
         vertex 1.046792e+003 1.336446e+003 1.879116e+003
         vertex 1.049792e+003 1.336446e+003 1.879116e+003
      endloop
   endfacet
   facet normal 3.909517e-016 -6.861938e-001 -7.274188e-001
      outer loop
         vertex 1.049792e+003 1.336446e+003 1.879116e+003
         vertex 1.046792e+003 1.336446e+003 1.879116e+003
         vertex 1.046792e+003 1.336643e+003 1.878918e+003
      endloop
   endfacet
   facet normal 3.871400e-016 -7.274188e-001 -6.861938e-001
      outer loop
         vertex 1.049792e+003 1.336446e+003 1.879116e+003
         vertex 1.046792e+003 1.336643e+003 1.878918e+003
         vertex 1.049792e+003 1.336643e+003 1.878918e+003
      endloop
   endfacet
   facet normal 3.756342e-016 -8.020839e-001 -5.972114e-001
      outer loop
         vertex 1.049792e+003 1.336643e+003 1.878918e+003
         vertex 1.046792e+003 1.336643e+003 1.878918e+003
         vertex 1.046792e+003 1.336803e+003 1.878690e+003
      endloop
   endfacet
   facet normal 3.679400e-016 -8.355240e-001 -5.494540e-001
      outer loop
         vertex 1.049792e+003 1.336643e+003 1.878918e+003
         vertex 1.046792e+003 1.336803e+003 1.878690e+003
         vertex 1.049792e+003 1.336803e+003 1.878690e+003
      endloop
   endfacet
   facet normal 3.489032e-016 -8.936031e-001 -4.488580e-001
      outer loop
         vertex 1.049792e+003 1.336803e+003 1.878690e+003
         vertex 1.046792e+003 1.336803e+003 1.878690e+003
         vertex 1.046792e+003 1.336921e+003 1.878437e+003
      endloop
   endfacet
   facet normal 3.375605e-016 -9.182422e-001 -3.960194e-001
      outer loop
         vertex 1.049792e+003 1.336803e+003 1.878690e+003
         vertex 1.046792e+003 1.336921e+003 1.878437e+003
         vertex 1.049792e+003 1.336921e+003 1.878437e+003
      endloop
   endfacet
   facet normal 3.115710e-016 -9.579706e-001 -2.868663e-001
      outer loop
         vertex 1.049792e+003 1.336921e+003 1.878437e+003
         vertex 1.046792e+003 1.336921e+003 1.878437e+003
         vertex 1.046792e+003 1.336993e+003 1.878168e+003
      endloop
   endfacet
   facet normal 2.969243e-016 -9.730601e-001 -2.305518e-001
      outer loop
         vertex 1.049792e+003 1.336921e+003 1.878437e+003
         vertex 1.046792e+003 1.336993e+003 1.878168e+003
         vertex 1.049792e+003 1.336993e+003 1.878168e+003
      endloop
   endfacet
   facet normal 2.647719e-016 -9.932307e-001 -1.161583e-001
      outer loop
         vertex 1.049792e+003 1.336993e+003 1.878168e+003
         vertex 1.046792e+003 1.336993e+003 1.878168e+003
         vertex 1.046792e+003 1.337017e+003 1.877890e+003
      endloop
   endfacet
   facet normal 2.472662e-016 -9.983120e-001 -5.807914e-002
      outer loop
         vertex 1.049792e+003 1.350993e+003 1.878168e+003
         vertex 1.046792e+003 1.351017e+003 1.877890e+003
         vertex 1.049792e+003 1.351017e+003 1.877890e+003
      endloop
   endfacet
   facet normal 2.099278e-016 -9.983120e-001 5.807914e-002
      outer loop
         vertex 1.049792e+003 1.351017e+003 1.877890e+003
         vertex 1.046792e+003 1.351017e+003 1.877890e+003
         vertex 1.046792e+003 1.350993e+003 1.877612e+003
      endloop
   endfacet
   facet normal 1.900950e-016 -9.932307e-001 1.161583e-001
      outer loop
         vertex 1.049792e+003 1.351017e+003 1.877890e+003
         vertex 1.046792e+003 1.350993e+003 1.877612e+003
         vertex 1.049792e+003 1.350993e+003 1.877612e+003
      endloop
   endfacet
   facet normal 1.487051e-016 -9.730601e-001 2.305518e-001
      outer loop
         vertex 1.049792e+003 1.350993e+003 1.877612e+003
         vertex 1.046792e+003 1.350993e+003 1.877612e+003
         vertex 1.046792e+003 1.350921e+003 1.877343e+003
      endloop
   endfacet
   facet normal 1.271479e-016 -9.579706e-001 2.868663e-001
      outer loop
         vertex 1.049792e+003 1.350993e+003 1.877612e+003
         vertex 1.046792e+003 1.350921e+003 1.877343e+003
         vertex 1.049792e+003 1.350921e+003 1.877343e+003
      endloop
   endfacet
   facet normal 8.296413e-017 -9.182422e-001 3.960194e-001
      outer loop
         vertex 1.049792e+003 1.350921e+003 1.877343e+003
         vertex 1.046792e+003 1.350921e+003 1.877343e+003
         vertex 1.046792e+003 1.350803e+003 1.877090e+003
      endloop
   endfacet
   facet normal 6.033752e-017 -8.936031e-001 4.488580e-001
      outer loop
         vertex 1.049792e+003 1.350921e+003 1.877343e+003
         vertex 1.046792e+003 1.350803e+003 1.877090e+003
         vertex 1.049792e+003 1.350803e+003 1.877090e+003
      endloop
   endfacet
   facet normal 1.470235e-017 -8.355240e-001 5.494540e-001
      outer loop
         vertex 1.049792e+003 1.350803e+003 1.877090e+003
         vertex 1.046792e+003 1.350803e+003 1.877090e+003
         vertex 1.046792e+003 1.350643e+003 1.876861e+003
      endloop
   endfacet
   facet normal -8.306222e-018 -8.020839e-001 5.972114e-001
      outer loop
         vertex 1.049792e+003 1.350803e+003 1.877090e+003
         vertex 1.046792e+003 1.350643e+003 1.876861e+003
         vertex 1.049792e+003 1.350643e+003 1.876861e+003
      endloop
   endfacet
   facet normal -5.400618e-017 -7.274188e-001 6.861938e-001
      outer loop
         vertex 1.049792e+003 1.350643e+003 1.876861e+003
         vertex 1.046792e+003 1.350643e+003 1.876861e+003
         vertex 1.046792e+003 1.350446e+003 1.876664e+003
      endloop
   endfacet
   facet normal -7.669758e-017 -6.861938e-001 7.274188e-001
      outer loop
         vertex 1.049792e+003 1.350643e+003 1.876861e+003
         vertex 1.046792e+003 1.350446e+003 1.876664e+003
         vertex 1.049792e+003 1.350446e+003 1.876664e+003
      endloop
   endfacet
   facet normal -1.210737e-016 -5.972114e-001 8.020839e-001
      outer loop
         vertex 1.049792e+003 1.350446e+003 1.876664e+003
         vertex 1.046792e+003 1.350446e+003 1.876664e+003
         vertex 1.046792e+003 1.350217e+003 1.876504e+003
      endloop
   endfacet
   facet normal -1.427585e-016 -5.494540e-001 8.355240e-001
      outer loop
         vertex 1.049792e+003 1.350446e+003 1.876664e+003
         vertex 1.046792e+003 1.350217e+003 1.876504e+003
         vertex 1.049792e+003 1.350217e+003 1.876504e+003
      endloop
   endfacet
   facet normal -1.844625e-016 -4.488580e-001 8.936031e-001
      outer loop
         vertex 1.049792e+003 1.350217e+003 1.876504e+003
         vertex 1.046792e+003 1.350217e+003 1.876504e+003
         vertex 1.046792e+003 1.349965e+003 1.876386e+003
      endloop
   endfacet
   facet normal -2.044818e-016 -3.960194e-001 9.182422e-001
      outer loop
         vertex 1.049792e+003 1.350217e+003 1.876504e+003
         vertex 1.046792e+003 1.349965e+003 1.876386e+003
         vertex 1.049792e+003 1.349965e+003 1.876386e+003
      endloop
   endfacet
   facet normal -2.422466e-016 -2.868663e-001 9.579706e-001
      outer loop
         vertex 1.049792e+003 1.349965e+003 1.876386e+003
         vertex 1.046792e+003 1.349965e+003 1.876386e+003
         vertex 1.046792e+003 1.349695e+003 1.876314e+003
      endloop
   endfacet
   facet normal -2.599921e-016 -2.305518e-001 9.730601e-001
      outer loop
         vertex 1.049792e+003 1.349965e+003 1.876386e+003
         vertex 1.046792e+003 1.349695e+003 1.876314e+003
         vertex 1.049792e+003 1.349695e+003 1.876314e+003
      endloop
   endfacet
   facet normal -2.926700e-016 -1.161583e-001 9.932307e-001
      outer loop
         vertex 1.049792e+003 1.349695e+003 1.876314e+003
         vertex 1.046792e+003 1.349695e+003 1.876314e+003
         vertex 1.046792e+003 1.349417e+003 1.876290e+003
      endloop
   endfacet
   facet normal -3.076025e-016 -5.807914e-002 9.983120e-001
      outer loop
         vertex 1.049792e+003 1.349695e+003 1.876314e+003
         vertex 1.046792e+003 1.349417e+003 1.876290e+003
         vertex 1.049792e+003 1.349417e+003 1.876290e+003
      endloop
   endfacet
   facet normal -3.342009e-016 5.807914e-002 9.983120e-001
      outer loop
         vertex 1.049792e+003 1.349417e+003 1.876290e+003
         vertex 1.046792e+003 1.349417e+003 1.876290e+003
         vertex 1.046792e+003 1.349139e+003 1.876314e+003
      endloop
   endfacet
   facet normal -3.458667e-016 1.161583e-001 9.932307e-001
      outer loop
         vertex 1.049792e+003 1.349417e+003 1.876290e+003
         vertex 1.046792e+003 1.349139e+003 1.876314e+003
         vertex 1.049792e+003 1.349139e+003 1.876314e+003
      endloop
   endfacet
   facet normal -3.655772e-016 2.305518e-001 9.730601e-001
      outer loop
         vertex 1.049792e+003 1.349139e+003 1.876314e+003
         vertex 1.046792e+003 1.349139e+003 1.876314e+003
         vertex 1.046792e+003 1.348870e+003 1.876386e+003
      endloop
   endfacet
   facet normal -3.736218e-016 2.868663e-001 9.579706e-001
      outer loop
         vertex 1.049792e+003 1.349139e+003 1.876314e+003
         vertex 1.046792e+003 1.348870e+003 1.876386e+003
         vertex 1.049792e+003 1.348870e+003 1.876386e+003
      endloop
   endfacet
   facet normal -3.858456e-016 3.960194e-001 9.182422e-001
      outer loop
         vertex 1.049792e+003 1.348870e+003 1.876386e+003
         vertex 1.046792e+003 1.348870e+003 1.876386e+003
         vertex 1.046792e+003 1.348617e+003 1.876504e+003
      endloop
   endfacet
   facet normal -3.900247e-016 4.488580e-001 8.936031e-001
      outer loop
         vertex 1.049792e+003 1.348870e+003 1.876386e+003
         vertex 1.046792e+003 1.348617e+003 1.876504e+003
         vertex 1.049792e+003 1.348617e+003 1.876504e+003
      endloop
   endfacet
   facet normal -3.943903e-016 5.494540e-001 8.355240e-001
      outer loop
         vertex 1.049792e+003 1.348617e+003 1.876504e+003
         vertex 1.046792e+003 1.348617e+003 1.876504e+003
         vertex 1.046792e+003 1.348389e+003 1.876664e+003
      endloop
   endfacet
   facet normal -3.945769e-016 5.972114e-001 8.020839e-001
      outer loop
         vertex 1.049792e+003 1.348617e+003 1.876504e+003
         vertex 1.046792e+003 1.348389e+003 1.876664e+003
         vertex 1.049792e+003 1.348389e+003 1.876664e+003
      endloop
   endfacet
   facet normal -3.909517e-016 6.861938e-001 7.274188e-001
      outer loop
         vertex 1.049792e+003 1.348389e+003 1.876664e+003
         vertex 1.046792e+003 1.348389e+003 1.876664e+003
         vertex 1.046792e+003 1.348192e+003 1.876861e+003
      endloop
   endfacet
   facet normal -3.871400e-016 7.274188e-001 6.861938e-001
      outer loop
         vertex 1.049792e+003 1.348389e+003 1.876664e+003
         vertex 1.046792e+003 1.348192e+003 1.876861e+003
         vertex 1.049792e+003 1.348192e+003 1.876861e+003
      endloop
   endfacet
   facet normal -3.756342e-016 8.020839e-001 5.972114e-001
      outer loop
         vertex 1.049792e+003 1.348192e+003 1.876861e+003
         vertex 1.046792e+003 1.348192e+003 1.876861e+003
         vertex 1.046792e+003 1.348032e+003 1.877090e+003
      endloop
   endfacet
   facet normal -3.679400e-016 8.355240e-001 5.494540e-001
      outer loop
         vertex 1.049792e+003 1.348192e+003 1.876861e+003
         vertex 1.046792e+003 1.348032e+003 1.877090e+003
         vertex 1.049792e+003 1.348032e+003 1.877090e+003
      endloop
   endfacet
   facet normal -3.489032e-016 8.936031e-001 4.488580e-001
      outer loop
         vertex 1.049792e+003 1.348032e+003 1.877090e+003
         vertex 1.046792e+003 1.348032e+003 1.877090e+003
         vertex 1.046792e+003 1.347914e+003 1.877343e+003
      endloop
   endfacet
   facet normal -3.375605e-016 9.182422e-001 3.960194e-001
      outer loop
         vertex 1.049792e+003 1.348032e+003 1.877090e+003
         vertex 1.046792e+003 1.347914e+003 1.877343e+003
         vertex 1.049792e+003 1.347914e+003 1.877343e+003
      endloop
   endfacet
   facet normal -3.115710e-016 9.579706e-001 2.868663e-001
      outer loop
         vertex 1.049792e+003 1.347914e+003 1.877343e+003
         vertex 1.046792e+003 1.347914e+003 1.877343e+003
         vertex 1.046792e+003 1.347842e+003 1.877612e+003
      endloop
   endfacet
   facet normal -2.969243e-016 9.730601e-001 2.305518e-001
      outer loop
         vertex 1.049792e+003 1.347914e+003 1.877343e+003
         vertex 1.046792e+003 1.347842e+003 1.877612e+003
         vertex 1.049792e+003 1.347842e+003 1.877612e+003
      endloop
   endfacet
   facet normal -2.647719e-016 9.932307e-001 1.161583e-001
      outer loop
         vertex 1.049792e+003 1.347842e+003 1.877612e+003
         vertex 1.046792e+003 1.347842e+003 1.877612e+003
         vertex 1.046792e+003 1.347817e+003 1.877890e+003
      endloop
   endfacet
   facet normal -2.472662e-016 9.983120e-001 5.807914e-002
      outer loop
         vertex 1.049792e+003 1.347842e+003 1.877612e+003
         vertex 1.046792e+003 1.347817e+003 1.877890e+003
         vertex 1.049792e+003 1.347817e+003 1.877890e+003
      endloop
   endfacet
   facet normal -2.099278e-016 9.983120e-001 -5.807914e-002
      outer loop
         vertex 1.049792e+003 1.347817e+003 1.877890e+003
         vertex 1.046792e+003 1.347817e+003 1.877890e+003
         vertex 1.046792e+003 1.347842e+003 1.878168e+003
      endloop
   endfacet
   facet normal -1.900950e-016 9.932307e-001 -1.161583e-001
      outer loop
         vertex 1.049792e+003 1.347817e+003 1.877890e+003
         vertex 1.046792e+003 1.347842e+003 1.878168e+003
         vertex 1.049792e+003 1.347842e+003 1.878168e+003
      endloop
   endfacet
   facet normal -1.487051e-016 9.730601e-001 -2.305518e-001
      outer loop
         vertex 1.049792e+003 1.347842e+003 1.878168e+003
         vertex 1.046792e+003 1.347842e+003 1.878168e+003
         vertex 1.046792e+003 1.347914e+003 1.878437e+003
      endloop
   endfacet
   facet normal -1.271479e-016 9.579706e-001 -2.868663e-001
      outer loop
         vertex 1.049792e+003 1.347842e+003 1.878168e+003
         vertex 1.046792e+003 1.347914e+003 1.878437e+003
         vertex 1.049792e+003 1.347914e+003 1.878437e+003
      endloop
   endfacet
   facet normal -8.296413e-017 9.182422e-001 -3.960194e-001
      outer loop
         vertex 1.049792e+003 1.347914e+003 1.878437e+003
         vertex 1.046792e+003 1.347914e+003 1.878437e+003
         vertex 1.046792e+003 1.348032e+003 1.878690e+003
      endloop
   endfacet
   facet normal -6.033752e-017 8.936031e-001 -4.488580e-001
      outer loop
         vertex 1.049792e+003 1.347914e+003 1.878437e+003
         vertex 1.046792e+003 1.348032e+003 1.878690e+003
         vertex 1.049792e+003 1.348032e+003 1.878690e+003
      endloop
   endfacet
   facet normal -1.470235e-017 8.355240e-001 -5.494540e-001
      outer loop
         vertex 1.049792e+003 1.348032e+003 1.878690e+003
         vertex 1.046792e+003 1.348032e+003 1.878690e+003
         vertex 1.046792e+003 1.348192e+003 1.878918e+003
      endloop
   endfacet
   facet normal 8.306222e-018 8.020839e-001 -5.972114e-001
      outer loop
         vertex 1.049792e+003 1.348032e+003 1.878690e+003
         vertex 1.046792e+003 1.348192e+003 1.878918e+003
         vertex 1.049792e+003 1.348192e+003 1.878918e+003
      endloop
   endfacet
   facet normal 5.400618e-017 7.274188e-001 -6.861938e-001
      outer loop
         vertex 1.049792e+003 1.348192e+003 1.878918e+003
         vertex 1.046792e+003 1.348192e+003 1.878918e+003
         vertex 1.046792e+003 1.348389e+003 1.879116e+003
      endloop
   endfacet
   facet normal 7.669758e-017 6.861938e-001 -7.274188e-001
      outer loop
         vertex 1.049792e+003 1.348192e+003 1.878918e+003
         vertex 1.046792e+003 1.348389e+003 1.879116e+003
         vertex 1.049792e+003 1.348389e+003 1.879116e+003
      endloop
   endfacet
   facet normal 1.210737e-016 5.972114e-001 -8.020839e-001
      outer loop
         vertex 1.049792e+003 1.348389e+003 1.879116e+003
         vertex 1.046792e+003 1.348389e+003 1.879116e+003
         vertex 1.046792e+003 1.348617e+003 1.879276e+003
      endloop
   endfacet
   facet normal 1.427585e-016 5.494540e-001 -8.355240e-001
      outer loop
         vertex 1.049792e+003 1.348389e+003 1.879116e+003
         vertex 1.046792e+003 1.348617e+003 1.879276e+003
         vertex 1.049792e+003 1.348617e+003 1.879276e+003
      endloop
   endfacet
   facet normal 1.844625e-016 4.488580e-001 -8.936031e-001
      outer loop
         vertex 1.049792e+003 1.348617e+003 1.879276e+003
         vertex 1.046792e+003 1.348617e+003 1.879276e+003
         vertex 1.046792e+003 1.348870e+003 1.879393e+003
      endloop
   endfacet
   facet normal 2.044818e-016 3.960194e-001 -9.182422e-001
      outer loop
         vertex 1.049792e+003 1.348617e+003 1.879276e+003
         vertex 1.046792e+003 1.348870e+003 1.879393e+003
         vertex 1.049792e+003 1.348870e+003 1.879393e+003
      endloop
   endfacet
   facet normal 2.422466e-016 2.868663e-001 -9.579706e-001
      outer loop
         vertex 1.049792e+003 1.348870e+003 1.879393e+003
         vertex 1.046792e+003 1.348870e+003 1.879393e+003
         vertex 1.046792e+003 1.349139e+003 1.879466e+003
      endloop
   endfacet
   facet normal 2.599921e-016 2.305518e-001 -9.730601e-001
      outer loop
         vertex 1.049792e+003 1.348870e+003 1.879393e+003
         vertex 1.046792e+003 1.349139e+003 1.879466e+003
         vertex 1.049792e+003 1.349139e+003 1.879466e+003
      endloop
   endfacet
   facet normal 2.926700e-016 1.161583e-001 -9.932307e-001
      outer loop
         vertex 1.049792e+003 1.349139e+003 1.879466e+003
         vertex 1.046792e+003 1.349139e+003 1.879466e+003
         vertex 1.046792e+003 1.349417e+003 1.879490e+003
      endloop
   endfacet
   facet normal 3.076025e-016 5.807914e-002 -9.983120e-001
      outer loop
         vertex 1.049792e+003 1.349139e+003 1.879466e+003
         vertex 1.046792e+003 1.349417e+003 1.879490e+003
         vertex 1.049792e+003 1.349417e+003 1.879490e+003
      endloop
   endfacet
   facet normal 3.342009e-016 -5.807914e-002 -9.983120e-001
      outer loop
         vertex 1.049792e+003 1.349417e+003 1.879490e+003
         vertex 1.046792e+003 1.349417e+003 1.879490e+003
         vertex 1.046792e+003 1.349695e+003 1.879466e+003
      endloop
   endfacet
   facet normal 3.458667e-016 -1.161583e-001 -9.932307e-001
      outer loop
         vertex 1.049792e+003 1.349417e+003 1.879490e+003
         vertex 1.046792e+003 1.349695e+003 1.879466e+003
         vertex 1.049792e+003 1.349695e+003 1.879466e+003
      endloop
   endfacet
   facet normal 3.655772e-016 -2.305518e-001 -9.730601e-001
      outer loop
         vertex 1.049792e+003 1.349695e+003 1.879466e+003
         vertex 1.046792e+003 1.349695e+003 1.879466e+003
         vertex 1.046792e+003 1.349965e+003 1.879393e+003
      endloop
   endfacet
   facet normal 3.736218e-016 -2.868663e-001 -9.579706e-001
      outer loop
         vertex 1.049792e+003 1.349695e+003 1.879466e+003
         vertex 1.046792e+003 1.349965e+003 1.879393e+003
         vertex 1.049792e+003 1.349965e+003 1.879393e+003
      endloop
   endfacet
   facet normal 3.858456e-016 -3.960194e-001 -9.182422e-001
      outer loop
         vertex 1.049792e+003 1.349965e+003 1.879393e+003
         vertex 1.046792e+003 1.349965e+003 1.879393e+003
         vertex 1.046792e+003 1.350217e+003 1.879276e+003
      endloop
   endfacet
   facet normal 3.900247e-016 -4.488580e-001 -8.936031e-001
      outer loop
         vertex 1.049792e+003 1.349965e+003 1.879393e+003
         vertex 1.046792e+003 1.350217e+003 1.879276e+003
         vertex 1.049792e+003 1.350217e+003 1.879276e+003
      endloop
   endfacet
   facet normal 3.943903e-016 -5.494540e-001 -8.355240e-001
      outer loop
         vertex 1.049792e+003 1.350217e+003 1.879276e+003
         vertex 1.046792e+003 1.350217e+003 1.879276e+003
         vertex 1.046792e+003 1.350446e+003 1.879116e+003
      endloop
   endfacet
   facet normal 3.945769e-016 -5.972114e-001 -8.020839e-001
      outer loop
         vertex 1.049792e+003 1.350217e+003 1.879276e+003
         vertex 1.046792e+003 1.350446e+003 1.879116e+003
         vertex 1.049792e+003 1.350446e+003 1.879116e+003
      endloop
   endfacet
   facet normal 3.909517e-016 -6.861938e-001 -7.274188e-001
      outer loop
         vertex 1.049792e+003 1.350446e+003 1.879116e+003
         vertex 1.046792e+003 1.350446e+003 1.879116e+003
         vertex 1.046792e+003 1.350643e+003 1.878918e+003
      endloop
   endfacet
   facet normal 3.871400e-016 -7.274188e-001 -6.861938e-001
      outer loop
         vertex 1.049792e+003 1.350446e+003 1.879116e+003
         vertex 1.046792e+003 1.350643e+003 1.878918e+003
         vertex 1.049792e+003 1.350643e+003 1.878918e+003
      endloop
   endfacet
   facet normal 3.756342e-016 -8.020839e-001 -5.972114e-001
      outer loop
         vertex 1.049792e+003 1.350643e+003 1.878918e+003
         vertex 1.046792e+003 1.350643e+003 1.878918e+003
         vertex 1.046792e+003 1.350803e+003 1.878690e+003
      endloop
   endfacet
   facet normal 3.679400e-016 -8.355240e-001 -5.494540e-001
      outer loop
         vertex 1.049792e+003 1.350643e+003 1.878918e+003
         vertex 1.046792e+003 1.350803e+003 1.878690e+003
         vertex 1.049792e+003 1.350803e+003 1.878690e+003
      endloop
   endfacet
   facet normal 3.489032e-016 -8.936031e-001 -4.488580e-001
      outer loop
         vertex 1.049792e+003 1.350803e+003 1.878690e+003
         vertex 1.046792e+003 1.350803e+003 1.878690e+003
         vertex 1.046792e+003 1.350921e+003 1.878437e+003
      endloop
   endfacet
   facet normal 3.375605e-016 -9.182422e-001 -3.960194e-001
      outer loop
         vertex 1.049792e+003 1.350803e+003 1.878690e+003
         vertex 1.046792e+003 1.350921e+003 1.878437e+003
         vertex 1.049792e+003 1.350921e+003 1.878437e+003
      endloop
   endfacet
   facet normal 3.115710e-016 -9.579706e-001 -2.868663e-001
      outer loop
         vertex 1.049792e+003 1.350921e+003 1.878437e+003
         vertex 1.046792e+003 1.350921e+003 1.878437e+003
         vertex 1.046792e+003 1.350993e+003 1.878168e+003
      endloop
   endfacet
   facet normal 2.969243e-016 -9.730601e-001 -2.305518e-001
      outer loop
         vertex 1.049792e+003 1.350921e+003 1.878437e+003
         vertex 1.046792e+003 1.350993e+003 1.878168e+003
         vertex 1.049792e+003 1.350993e+003 1.878168e+003
      endloop
   endfacet
   facet normal 2.647719e-016 -9.932307e-001 -1.161583e-001
      outer loop
         vertex 1.049792e+003 1.350993e+003 1.878168e+003
         vertex 1.046792e+003 1.350993e+003 1.878168e+003
         vertex 1.046792e+003 1.351017e+003 1.877890e+003
      endloop
   endfacet
endsolid