solid 09.025.00.00.000 - 09.025.00.08.000-1 09.025.00.08.020-4
   facet normal -3.469447e-017 1.000000e+000 -5.849656e-016
      outer loop
         vertex 1.217792e+003 1.353417e+003 1.877390e+003
         vertex 1.217792e+003 1.353417e+003 1.880890e+003
         vertex 1.220792e+003 1.353417e+003 1.877390e+003
      endloop
   endfacet
   facet normal -3.469447e-017 1.000000e+000 -5.849656e-016
      outer loop
         vertex 1.220792e+003 1.353417e+003 1.877390e+003
         vertex 1.217792e+003 1.353417e+003 1.880890e+003
         vertex 1.220792e+003 1.353417e+003 1.880890e+003
      endloop
   endfacet
   facet normal -6.459731e-018 5.889333e-016 1.000000e+000
      outer loop
         vertex 1.220792e+003 1.331417e+003 1.880890e+003
         vertex 1.220792e+003 1.353417e+003 1.880890e+003
         vertex 1.217792e+003 1.331417e+003 1.880890e+003
      endloop
   endfacet
   facet normal -6.459731e-018 5.889333e-016 1.000000e+000
      outer loop
         vertex 1.217792e+003 1.331417e+003 1.880890e+003
         vertex 1.220792e+003 1.353417e+003 1.880890e+003
         vertex 1.217792e+003 1.353417e+003 1.880890e+003
      endloop
   endfacet
   facet normal 3.469447e-017 -1.000000e+000 5.849656e-016
      outer loop
         vertex 1.220792e+003 1.331417e+003 1.873390e+003
         vertex 1.220792e+003 1.331417e+003 1.880890e+003
         vertex 1.217792e+003 1.331417e+003 1.873390e+003
      endloop
   endfacet
   facet normal 3.469447e-017 -1.000000e+000 5.849656e-016
      outer loop
         vertex 1.217792e+003 1.331417e+003 1.873390e+003
         vertex 1.220792e+003 1.331417e+003 1.880890e+003
         vertex 1.217792e+003 1.331417e+003 1.880890e+003
      endloop
   endfacet
   facet normal 6.459731e-018 -5.889333e-016 -1.000000e+000
      outer loop
         vertex 1.220792e+003 1.349417e+003 1.873390e+003
         vertex 1.220792e+003 1.331417e+003 1.873390e+003
         vertex 1.217792e+003 1.349417e+003 1.873390e+003
      endloop
   endfacet
   facet normal 6.459731e-018 -5.889333e-016 -1.000000e+000
      outer loop
         vertex 1.217792e+003 1.349417e+003 1.873390e+003
         vertex 1.220792e+003 1.331417e+003 1.873390e+003
         vertex 1.217792e+003 1.331417e+003 1.873390e+003
      endloop
   endfacet
   facet normal 1.000000e+000 7.632783e-017 -1.026531e-018
      outer loop
         vertex 1.220792e+003 1.348617e+003 1.876504e+003
         vertex 1.220792e+003 1.336643e+003 1.878918e+003
         vertex 1.220792e+003 1.348870e+003 1.876386e+003
      endloop
   endfacet
   facet normal 1.000000e+000 7.632783e-017 -1.026531e-018
      outer loop
         vertex 1.220792e+003 1.348870e+003 1.876386e+003
         vertex 1.220792e+003 1.336643e+003 1.878918e+003
         vertex 1.220792e+003 1.349139e+003 1.876314e+003
      endloop
   endfacet
   facet normal 1.000000e+000 7.632783e-017 -1.026531e-018
      outer loop
         vertex 1.220792e+003 1.335695e+003 1.879466e+003
         vertex 1.220792e+003 1.335965e+003 1.879393e+003
         vertex 1.220792e+003 1.347842e+003 1.877612e+003
      endloop
   endfacet
   facet normal 1.000000e+000 7.632783e-017 -1.026531e-018
      outer loop
         vertex 1.220792e+003 1.347842e+003 1.877612e+003
         vertex 1.220792e+003 1.335965e+003 1.879393e+003
         vertex 1.220792e+003 1.336217e+003 1.879276e+003
      endloop
   endfacet
   facet normal 1.000000e+000 7.632783e-017 -1.026531e-018
      outer loop
         vertex 1.220792e+003 1.348617e+003 1.876504e+003
         vertex 1.220792e+003 1.348389e+003 1.876664e+003
         vertex 1.220792e+003 1.336643e+003 1.878918e+003
      endloop
   endfacet
   facet normal 1.000000e+000 7.632783e-017 -1.026531e-018
      outer loop
         vertex 1.220792e+003 1.336643e+003 1.878918e+003
         vertex 1.220792e+003 1.348389e+003 1.876664e+003
         vertex 1.220792e+003 1.348192e+003 1.876861e+003
      endloop
   endfacet
   facet normal 1.000000e+000 7.632783e-017 -1.026531e-018
      outer loop
         vertex 1.220792e+003 1.336643e+003 1.878918e+003
         vertex 1.220792e+003 1.348192e+003 1.876861e+003
         vertex 1.220792e+003 1.348032e+003 1.877090e+003
      endloop
   endfacet
   facet normal 1.000000e+000 7.632783e-017 -1.026531e-018
      outer loop
         vertex 1.220792e+003 1.337017e+003 1.877890e+003
         vertex 1.220792e+003 1.336993e+003 1.877612e+003
         vertex 1.220792e+003 1.349417e+003 1.873390e+003
      endloop
   endfacet
   facet normal 1.000000e+000 7.632783e-017 -1.026531e-018
      outer loop
         vertex 1.220792e+003 1.349417e+003 1.873390e+003
         vertex 1.220792e+003 1.336993e+003 1.877612e+003
         vertex 1.220792e+003 1.336921e+003 1.877343e+003
      endloop
   endfacet
   facet normal 1.000000e+000 7.632783e-017 -1.026531e-018
      outer loop
         vertex 1.220792e+003 1.336217e+003 1.879276e+003
         vertex 1.220792e+003 1.336446e+003 1.879116e+003
         vertex 1.220792e+003 1.347842e+003 1.877612e+003
      endloop
   endfacet
   facet normal 1.000000e+000 7.632783e-017 -1.026531e-018
      outer loop
         vertex 1.220792e+003 1.347842e+003 1.877612e+003
         vertex 1.220792e+003 1.336446e+003 1.879116e+003
         vertex 1.220792e+003 1.336643e+003 1.878918e+003
      endloop
   endfacet
   facet normal 1.000000e+000 7.632783e-017 -1.026531e-018
      outer loop
         vertex 1.220792e+003 1.347842e+003 1.877612e+003
         vertex 1.220792e+003 1.336643e+003 1.878918e+003
         vertex 1.220792e+003 1.347914e+003 1.877343e+003
      endloop
   endfacet
   facet normal 1.000000e+000 7.632783e-017 -1.026531e-018
      outer loop
         vertex 1.220792e+003 1.347914e+003 1.877343e+003
         vertex 1.220792e+003 1.336643e+003 1.878918e+003
         vertex 1.220792e+003 1.348032e+003 1.877090e+003
      endloop
   endfacet
   facet normal 1.000000e+000 7.632783e-017 -1.026531e-018
      outer loop
         vertex 1.220792e+003 1.333842e+003 1.878168e+003
         vertex 1.220792e+003 1.333914e+003 1.878437e+003
         vertex 1.220792e+003 1.331417e+003 1.880890e+003
      endloop
   endfacet
   facet normal 1.000000e+000 7.632783e-017 -1.026531e-018
      outer loop
         vertex 1.220792e+003 1.331417e+003 1.880890e+003
         vertex 1.220792e+003 1.333914e+003 1.878437e+003
         vertex 1.220792e+003 1.334032e+003 1.878690e+003
      endloop
   endfacet
   facet normal 1.000000e+000 7.632783e-017 -1.026531e-018
      outer loop
         vertex 1.220792e+003 1.331417e+003 1.880890e+003
         vertex 1.220792e+003 1.334032e+003 1.878690e+003
         vertex 1.220792e+003 1.334192e+003 1.878918e+003
      endloop
   endfacet
   facet normal 1.000000e+000 7.632783e-017 -1.026531e-018
      outer loop
         vertex 1.220792e+003 1.336921e+003 1.877343e+003
         vertex 1.220792e+003 1.336803e+003 1.877090e+003
         vertex 1.220792e+003 1.349417e+003 1.873390e+003
      endloop
   endfacet
   facet normal 1.000000e+000 7.632783e-017 -1.026531e-018
      outer loop
         vertex 1.220792e+003 1.349417e+003 1.873390e+003
         vertex 1.220792e+003 1.336803e+003 1.877090e+003
         vertex 1.220792e+003 1.336643e+003 1.876861e+003
      endloop
   endfacet
   facet normal 1.000000e+000 7.632783e-017 -1.026531e-018
      outer loop
         vertex 1.220792e+003 1.349417e+003 1.873390e+003
         vertex 1.220792e+003 1.336643e+003 1.876861e+003
         vertex 1.220792e+003 1.336446e+003 1.876664e+003
      endloop
   endfacet
   facet normal 1.000000e+000 7.632783e-017 -1.026531e-018
      outer loop
         vertex 1.220792e+003 1.334032e+003 1.877090e+003
         vertex 1.220792e+003 1.333914e+003 1.877343e+003
         vertex 1.220792e+003 1.331417e+003 1.873390e+003
      endloop
   endfacet
   facet normal 1.000000e+000 7.632783e-017 -1.026531e-018
      outer loop
         vertex 1.220792e+003 1.331417e+003 1.873390e+003
         vertex 1.220792e+003 1.333914e+003 1.877343e+003
         vertex 1.220792e+003 1.333842e+003 1.877612e+003
      endloop
   endfacet
   facet normal 1.000000e+000 7.632783e-017 -1.026531e-018
      outer loop
         vertex 1.220792e+003 1.331417e+003 1.873390e+003
         vertex 1.220792e+003 1.333842e+003 1.877612e+003
         vertex 1.220792e+003 1.331417e+003 1.880890e+003
      endloop
   endfacet
   facet normal 1.000000e+000 7.632783e-017 -1.026531e-018
      outer loop
         vertex 1.220792e+003 1.331417e+003 1.880890e+003
         vertex 1.220792e+003 1.333842e+003 1.877612e+003
         vertex 1.220792e+003 1.333817e+003 1.877890e+003
      endloop
   endfacet
   facet normal 1.000000e+000 7.632783e-017 -1.026531e-018
      outer loop
         vertex 1.220792e+003 1.331417e+003 1.880890e+003
         vertex 1.220792e+003 1.333817e+003 1.877890e+003
         vertex 1.220792e+003 1.333842e+003 1.878168e+003
      endloop
   endfacet
   facet normal 1.000000e+000 7.632783e-017 -1.026531e-018
      outer loop
         vertex 1.220792e+003 1.353417e+003 1.880890e+003
         vertex 1.220792e+003 1.350446e+003 1.879116e+003
         vertex 1.220792e+003 1.350643e+003 1.878918e+003
      endloop
   endfacet
   facet normal 1.000000e+000 7.632783e-017 -1.026531e-018
      outer loop
         vertex 1.220792e+003 1.334192e+003 1.878918e+003
         vertex 1.220792e+003 1.334389e+003 1.879116e+003
         vertex 1.220792e+003 1.331417e+003 1.880890e+003
      endloop
   endfacet
   facet normal 1.000000e+000 7.632783e-017 -1.026531e-018
      outer loop
         vertex 1.220792e+003 1.331417e+003 1.880890e+003
         vertex 1.220792e+003 1.334389e+003 1.879116e+003
         vertex 1.220792e+003 1.334617e+003 1.879276e+003
      endloop
   endfacet
   facet normal 1.000000e+000 7.632783e-017 -1.026531e-018
      outer loop
         vertex 1.220792e+003 1.331417e+003 1.880890e+003
         vertex 1.220792e+003 1.334617e+003 1.879276e+003
         vertex 1.220792e+003 1.334870e+003 1.879393e+003
      endloop
   endfacet
   facet normal 1.000000e+000 7.632783e-017 -1.026531e-018
      outer loop
         vertex 1.220792e+003 1.350993e+003 1.878168e+003
         vertex 1.220792e+003 1.353417e+003 1.877390e+003
         vertex 1.220792e+003 1.350921e+003 1.878437e+003
      endloop
   endfacet
   facet normal 1.000000e+000 7.632783e-017 -1.026531e-018
      outer loop
         vertex 1.220792e+003 1.350921e+003 1.878437e+003
         vertex 1.220792e+003 1.353417e+003 1.877390e+003
         vertex 1.220792e+003 1.353417e+003 1.880890e+003
      endloop
   endfacet
   facet normal 1.000000e+000 7.632783e-017 -1.026531e-018
      outer loop
         vertex 1.220792e+003 1.350921e+003 1.878437e+003
         vertex 1.220792e+003 1.353417e+003 1.880890e+003
         vertex 1.220792e+003 1.350803e+003 1.878690e+003
      endloop
   endfacet
   facet normal 1.000000e+000 7.632783e-017 -1.026531e-018
      outer loop
         vertex 1.220792e+003 1.350803e+003 1.878690e+003
         vertex 1.220792e+003 1.353417e+003 1.880890e+003
         vertex 1.220792e+003 1.350643e+003 1.878918e+003
      endloop
   endfacet
   facet normal 1.000000e+000 7.632783e-017 -1.026531e-018
      outer loop
         vertex 1.220792e+003 1.350993e+003 1.878168e+003
         vertex 1.220792e+003 1.351017e+003 1.877890e+003
         vertex 1.220792e+003 1.353417e+003 1.877390e+003
      endloop
   endfacet
   facet normal 1.000000e+000 7.632783e-017 -1.026531e-018
      outer loop
         vertex 1.220792e+003 1.353417e+003 1.877390e+003
         vertex 1.220792e+003 1.351017e+003 1.877890e+003
         vertex 1.220792e+003 1.350993e+003 1.877612e+003
      endloop
   endfacet
   facet normal 1.000000e+000 7.632783e-017 -1.026531e-018
      outer loop
         vertex 1.220792e+003 1.353417e+003 1.877390e+003
         vertex 1.220792e+003 1.350993e+003 1.877612e+003
         vertex 1.220792e+003 1.350921e+003 1.877343e+003
      endloop
   endfacet
   facet normal 1.000000e+000 7.632783e-017 -1.026531e-018
      outer loop
         vertex 1.220792e+003 1.336446e+003 1.876664e+003
         vertex 1.220792e+003 1.336217e+003 1.876504e+003
         vertex 1.220792e+003 1.349417e+003 1.873390e+003
      endloop
   endfacet
   facet normal 1.000000e+000 7.632783e-017 -1.026531e-018
      outer loop
         vertex 1.220792e+003 1.349417e+003 1.873390e+003
         vertex 1.220792e+003 1.336217e+003 1.876504e+003
         vertex 1.220792e+003 1.335965e+003 1.876386e+003
      endloop
   endfacet
   facet normal 1.000000e+000 7.632783e-017 -1.026531e-018
      outer loop
         vertex 1.220792e+003 1.349417e+003 1.873390e+003
         vertex 1.220792e+003 1.335965e+003 1.876386e+003
         vertex 1.220792e+003 1.331417e+003 1.873390e+003
      endloop
   endfacet
   facet normal 1.000000e+000 7.632783e-017 -1.026531e-018
      outer loop
         vertex 1.220792e+003 1.331417e+003 1.873390e+003
         vertex 1.220792e+003 1.335965e+003 1.876386e+003
         vertex 1.220792e+003 1.335695e+003 1.876314e+003
      endloop
   endfacet
   facet normal 1.000000e+000 7.632783e-017 -1.026531e-018
      outer loop
         vertex 1.220792e+003 1.331417e+003 1.873390e+003
         vertex 1.220792e+003 1.335695e+003 1.876314e+003
         vertex 1.220792e+003 1.335417e+003 1.876290e+003
      endloop
   endfacet
   facet normal 1.000000e+000 7.632783e-017 -1.026531e-018
      outer loop
         vertex 1.220792e+003 1.350921e+003 1.877343e+003
         vertex 1.220792e+003 1.350803e+003 1.877090e+003
         vertex 1.220792e+003 1.353417e+003 1.877390e+003
      endloop
   endfacet
   facet normal 1.000000e+000 7.632783e-017 -1.026531e-018
      outer loop
         vertex 1.220792e+003 1.353417e+003 1.877390e+003
         vertex 1.220792e+003 1.350803e+003 1.877090e+003
         vertex 1.220792e+003 1.350643e+003 1.876861e+003
      endloop
   endfacet
   facet normal 1.000000e+000 7.632783e-017 -1.026531e-018
      outer loop
         vertex 1.220792e+003 1.353417e+003 1.877390e+003
         vertex 1.220792e+003 1.350643e+003 1.876861e+003
         vertex 1.220792e+003 1.349417e+003 1.873390e+003
      endloop
   endfacet
   facet normal 1.000000e+000 7.632783e-017 -1.026531e-018
      outer loop
         vertex 1.220792e+003 1.335417e+003 1.876290e+003
         vertex 1.220792e+003 1.335140e+003 1.876314e+003
         vertex 1.220792e+003 1.331417e+003 1.873390e+003
      endloop
   endfacet
   facet normal 1.000000e+000 7.632783e-017 -1.026531e-018
      outer loop
         vertex 1.220792e+003 1.331417e+003 1.873390e+003
         vertex 1.220792e+003 1.335140e+003 1.876314e+003
         vertex 1.220792e+003 1.334870e+003 1.876386e+003
      endloop
   endfacet
   facet normal 1.000000e+000 7.632783e-017 -1.026531e-018
      outer loop
         vertex 1.220792e+003 1.331417e+003 1.873390e+003
         vertex 1.220792e+003 1.334870e+003 1.876386e+003
         vertex 1.220792e+003 1.334617e+003 1.876504e+003
      endloop
   endfacet
   facet normal 1.000000e+000 7.632783e-017 -1.026531e-018
      outer loop
         vertex 1.220792e+003 1.349695e+003 1.879466e+003
         vertex 1.220792e+003 1.349965e+003 1.879393e+003
         vertex 1.220792e+003 1.353417e+003 1.880890e+003
      endloop
   endfacet
   facet normal 1.000000e+000 7.632783e-017 -1.026531e-018
      outer loop
         vertex 1.220792e+003 1.353417e+003 1.880890e+003
         vertex 1.220792e+003 1.349965e+003 1.879393e+003
         vertex 1.220792e+003 1.350217e+003 1.879276e+003
      endloop
   endfacet
   facet normal 1.000000e+000 7.632783e-017 -1.026531e-018
      outer loop
         vertex 1.220792e+003 1.353417e+003 1.880890e+003
         vertex 1.220792e+003 1.350217e+003 1.879276e+003
         vertex 1.220792e+003 1.350446e+003 1.879116e+003
      endloop
   endfacet
   facet normal 1.000000e+000 7.632783e-017 -1.026531e-018
      outer loop
         vertex 1.220792e+003 1.350643e+003 1.876861e+003
         vertex 1.220792e+003 1.350446e+003 1.876664e+003
         vertex 1.220792e+003 1.349417e+003 1.873390e+003
      endloop
   endfacet
   facet normal 1.000000e+000 7.632783e-017 -1.026531e-018
      outer loop
         vertex 1.220792e+003 1.349417e+003 1.873390e+003
         vertex 1.220792e+003 1.350446e+003 1.876664e+003
         vertex 1.220792e+003 1.350217e+003 1.876504e+003
      endloop
   endfacet
   facet normal 1.000000e+000 7.632783e-017 -1.026531e-018
      outer loop
         vertex 1.220792e+003 1.349417e+003 1.873390e+003
         vertex 1.220792e+003 1.350217e+003 1.876504e+003
         vertex 1.220792e+003 1.349965e+003 1.876386e+003
      endloop
   endfacet
   facet normal 1.000000e+000 7.632783e-017 -1.026531e-018
      outer loop
         vertex 1.220792e+003 1.334617e+003 1.876504e+003
         vertex 1.220792e+003 1.334389e+003 1.876664e+003
         vertex 1.220792e+003 1.331417e+003 1.873390e+003
      endloop
   endfacet
   facet normal 1.000000e+000 7.632783e-017 -1.026531e-018
      outer loop
         vertex 1.220792e+003 1.331417e+003 1.873390e+003
         vertex 1.220792e+003 1.334389e+003 1.876664e+003
         vertex 1.220792e+003 1.334192e+003 1.876861e+003
      endloop
   endfacet
   facet normal 1.000000e+000 7.632783e-017 -1.026531e-018
      outer loop
         vertex 1.220792e+003 1.331417e+003 1.873390e+003
         vertex 1.220792e+003 1.334192e+003 1.876861e+003
         vertex 1.220792e+003 1.334032e+003 1.877090e+003
      endloop
   endfacet
   facet normal 1.000000e+000 7.632783e-017 -1.026531e-018
      outer loop
         vertex 1.220792e+003 1.334870e+003 1.879393e+003
         vertex 1.220792e+003 1.335140e+003 1.879466e+003
         vertex 1.220792e+003 1.331417e+003 1.880890e+003
      endloop
   endfacet
   facet normal 1.000000e+000 7.632783e-017 -1.026531e-018
      outer loop
         vertex 1.220792e+003 1.331417e+003 1.880890e+003
         vertex 1.220792e+003 1.335140e+003 1.879466e+003
         vertex 1.220792e+003 1.335417e+003 1.879490e+003
      endloop
   endfacet
   facet normal 1.000000e+000 7.632783e-017 -1.026531e-018
      outer loop
         vertex 1.220792e+003 1.331417e+003 1.880890e+003
         vertex 1.220792e+003 1.335417e+003 1.879490e+003
         vertex 1.220792e+003 1.335695e+003 1.879466e+003
      endloop
   endfacet
   facet normal 1.000000e+000 7.632783e-017 -1.026531e-018
      outer loop
         vertex 1.220792e+003 1.348032e+003 1.878690e+003
         vertex 1.220792e+003 1.348192e+003 1.878918e+003
         vertex 1.220792e+003 1.331417e+003 1.880890e+003
      endloop
   endfacet
   facet normal 1.000000e+000 7.632783e-017 -1.026531e-018
      outer loop
         vertex 1.220792e+003 1.331417e+003 1.880890e+003
         vertex 1.220792e+003 1.348192e+003 1.878918e+003
         vertex 1.220792e+003 1.348389e+003 1.879116e+003
      endloop
   endfacet
   facet normal 1.000000e+000 7.632783e-017 -1.026531e-018
      outer loop
         vertex 1.220792e+003 1.331417e+003 1.880890e+003
         vertex 1.220792e+003 1.348389e+003 1.879116e+003
         vertex 1.220792e+003 1.348617e+003 1.879276e+003
      endloop
   endfacet
   facet normal 1.000000e+000 7.632783e-017 -1.026531e-018
      outer loop
         vertex 1.220792e+003 1.349965e+003 1.876386e+003
         vertex 1.220792e+003 1.349695e+003 1.876314e+003
         vertex 1.220792e+003 1.349417e+003 1.873390e+003
      endloop
   endfacet
   facet normal 1.000000e+000 7.632783e-017 -1.026531e-018
      outer loop
         vertex 1.220792e+003 1.349417e+003 1.873390e+003
         vertex 1.220792e+003 1.349695e+003 1.876314e+003
         vertex 1.220792e+003 1.349417e+003 1.876290e+003
      endloop
   endfacet
   facet normal 1.000000e+000 7.632783e-017 -1.026531e-018
      outer loop
         vertex 1.220792e+003 1.349417e+003 1.873390e+003
         vertex 1.220792e+003 1.349417e+003 1.876290e+003
         vertex 1.220792e+003 1.349139e+003 1.876314e+003
      endloop
   endfacet
   facet normal 1.000000e+000 7.632783e-017 -1.026531e-018
      outer loop
         vertex 1.220792e+003 1.347842e+003 1.877612e+003
         vertex 1.220792e+003 1.347817e+003 1.877890e+003
         vertex 1.220792e+003 1.335695e+003 1.879466e+003
      endloop
   endfacet
   facet normal 1.000000e+000 7.632783e-017 -1.026531e-018
      outer loop
         vertex 1.220792e+003 1.335695e+003 1.879466e+003
         vertex 1.220792e+003 1.347817e+003 1.877890e+003
         vertex 1.220792e+003 1.347842e+003 1.878168e+003
      endloop
   endfacet
   facet normal 1.000000e+000 7.632783e-017 -1.026531e-018
      outer loop
         vertex 1.220792e+003 1.335695e+003 1.879466e+003
         vertex 1.220792e+003 1.347842e+003 1.878168e+003
         vertex 1.220792e+003 1.331417e+003 1.880890e+003
      endloop
   endfacet
   facet normal 1.000000e+000 7.632783e-017 -1.026531e-018
      outer loop
         vertex 1.220792e+003 1.331417e+003 1.880890e+003
         vertex 1.220792e+003 1.347842e+003 1.878168e+003
         vertex 1.220792e+003 1.347914e+003 1.878437e+003
      endloop
   endfacet
   facet normal 1.000000e+000 7.632783e-017 -1.026531e-018
      outer loop
         vertex 1.220792e+003 1.331417e+003 1.880890e+003
         vertex 1.220792e+003 1.347914e+003 1.878437e+003
         vertex 1.220792e+003 1.348032e+003 1.878690e+003
      endloop
   endfacet
   facet normal 1.000000e+000 7.632783e-017 -1.026531e-018
      outer loop
         vertex 1.220792e+003 1.348617e+003 1.879276e+003
         vertex 1.220792e+003 1.348870e+003 1.879393e+003
         vertex 1.220792e+003 1.331417e+003 1.880890e+003
      endloop
   endfacet
   facet normal 1.000000e+000 7.632783e-017 -1.026531e-018
      outer loop
         vertex 1.220792e+003 1.331417e+003 1.880890e+003
         vertex 1.220792e+003 1.348870e+003 1.879393e+003
         vertex 1.220792e+003 1.349139e+003 1.879466e+003
      endloop
   endfacet
   facet normal 1.000000e+000 7.632783e-017 -1.026531e-018
      outer loop
         vertex 1.220792e+003 1.331417e+003 1.880890e+003
         vertex 1.220792e+003 1.349139e+003 1.879466e+003
         vertex 1.220792e+003 1.353417e+003 1.880890e+003
      endloop
   endfacet
   facet normal 1.000000e+000 7.632783e-017 -1.026531e-018
      outer loop
         vertex 1.220792e+003 1.353417e+003 1.880890e+003
         vertex 1.220792e+003 1.349139e+003 1.879466e+003
         vertex 1.220792e+003 1.349417e+003 1.879490e+003
      endloop
   endfacet
   facet normal 1.000000e+000 7.632783e-017 -1.026531e-018
      outer loop
         vertex 1.220792e+003 1.353417e+003 1.880890e+003
         vertex 1.220792e+003 1.349417e+003 1.879490e+003
         vertex 1.220792e+003 1.349695e+003 1.879466e+003
      endloop
   endfacet
   facet normal 1.000000e+000 7.632783e-017 -1.026531e-018
      outer loop
         vertex 1.220792e+003 1.336643e+003 1.878918e+003
         vertex 1.220792e+003 1.336803e+003 1.878690e+003
         vertex 1.220792e+003 1.349139e+003 1.876314e+003
      endloop
   endfacet
   facet normal 1.000000e+000 7.632783e-017 -1.026531e-018
      outer loop
         vertex 1.220792e+003 1.349139e+003 1.876314e+003
         vertex 1.220792e+003 1.336803e+003 1.878690e+003
         vertex 1.220792e+003 1.336921e+003 1.878437e+003
      endloop
   endfacet
   facet normal 1.000000e+000 7.632783e-017 -1.026531e-018
      outer loop
         vertex 1.220792e+003 1.349139e+003 1.876314e+003
         vertex 1.220792e+003 1.336921e+003 1.878437e+003
         vertex 1.220792e+003 1.349417e+003 1.873390e+003
      endloop
   endfacet
   facet normal 1.000000e+000 7.632783e-017 -1.026531e-018
      outer loop
         vertex 1.220792e+003 1.349417e+003 1.873390e+003
         vertex 1.220792e+003 1.336921e+003 1.878437e+003
         vertex 1.220792e+003 1.336993e+003 1.878168e+003
      endloop
   endfacet
   facet normal 1.000000e+000 7.632783e-017 -1.026531e-018
      outer loop
         vertex 1.220792e+003 1.349417e+003 1.873390e+003
         vertex 1.220792e+003 1.336993e+003 1.878168e+003
         vertex 1.220792e+003 1.337017e+003 1.877890e+003
      endloop
   endfacet
   facet normal -1.000000e+000 -7.632783e-017 1.026531e-018
      outer loop
         vertex 1.217792e+003 1.353417e+003 1.880890e+003
         vertex 1.217792e+003 1.336921e+003 1.878437e+003
         vertex 1.217792e+003 1.336803e+003 1.878690e+003
      endloop
   endfacet
   facet normal -1.000000e+000 -7.632783e-017 1.026531e-018
      outer loop
         vertex 1.217792e+003 1.353417e+003 1.877390e+003
         vertex 1.217792e+003 1.351017e+003 1.877890e+003
         vertex 1.217792e+003 1.350993e+003 1.878168e+003
      endloop
   endfacet
   facet normal -1.000000e+000 -7.632783e-017 1.026531e-018
      outer loop
         vertex 1.217792e+003 1.335140e+003 1.879466e+003
         vertex 1.217792e+003 1.334870e+003 1.879393e+003
         vertex 1.217792e+003 1.331417e+003 1.880890e+003
      endloop
   endfacet
   facet normal -1.000000e+000 -7.632783e-017 1.026531e-018
      outer loop
         vertex 1.217792e+003 1.333914e+003 1.878437e+003
         vertex 1.217792e+003 1.331417e+003 1.880890e+003
         vertex 1.217792e+003 1.334032e+003 1.878690e+003
      endloop
   endfacet
   facet normal -1.000000e+000 -7.632783e-017 1.026531e-018
      outer loop
         vertex 1.217792e+003 1.334032e+003 1.878690e+003
         vertex 1.217792e+003 1.331417e+003 1.880890e+003
         vertex 1.217792e+003 1.334192e+003 1.878918e+003
      endloop
   endfacet
   facet normal -1.000000e+000 -7.632783e-017 1.026531e-018
      outer loop
         vertex 1.217792e+003 1.333842e+003 1.877612e+003
         vertex 1.217792e+003 1.331417e+003 1.873390e+003
         vertex 1.217792e+003 1.333817e+003 1.877890e+003
      endloop
   endfacet
   facet normal -1.000000e+000 -7.632783e-017 1.026531e-018
      outer loop
         vertex 1.217792e+003 1.333817e+003 1.877890e+003
         vertex 1.217792e+003 1.331417e+003 1.873390e+003
         vertex 1.217792e+003 1.331417e+003 1.880890e+003
      endloop
   endfacet
   facet normal -1.000000e+000 -7.632783e-017 1.026531e-018
      outer loop
         vertex 1.217792e+003 1.333817e+003 1.877890e+003
         vertex 1.217792e+003 1.331417e+003 1.880890e+003
         vertex 1.217792e+003 1.333842e+003 1.878168e+003
      endloop
   endfacet
   facet normal -1.000000e+000 -7.632783e-017 1.026531e-018
      outer loop
         vertex 1.217792e+003 1.333842e+003 1.878168e+003
         vertex 1.217792e+003 1.331417e+003 1.880890e+003
         vertex 1.217792e+003 1.333914e+003 1.878437e+003
      endloop
   endfacet
   facet normal -1.000000e+000 -7.632783e-017 1.026531e-018
      outer loop
         vertex 1.217792e+003 1.333842e+003 1.877612e+003
         vertex 1.217792e+003 1.333914e+003 1.877343e+003
         vertex 1.217792e+003 1.331417e+003 1.873390e+003
      endloop
   endfacet
   facet normal -1.000000e+000 -7.632783e-017 1.026531e-018
      outer loop
         vertex 1.217792e+003 1.331417e+003 1.873390e+003
         vertex 1.217792e+003 1.333914e+003 1.877343e+003
         vertex 1.217792e+003 1.334032e+003 1.877090e+003
      endloop
   endfacet
   facet normal -1.000000e+000 -7.632783e-017 1.026531e-018
      outer loop
         vertex 1.217792e+003 1.331417e+003 1.873390e+003
         vertex 1.217792e+003 1.334032e+003 1.877090e+003
         vertex 1.217792e+003 1.334192e+003 1.876861e+003
      endloop
   endfacet
   facet normal -1.000000e+000 -7.632783e-017 1.026531e-018
      outer loop
         vertex 1.217792e+003 1.353417e+003 1.880890e+003
         vertex 1.217792e+003 1.350803e+003 1.878690e+003
         vertex 1.217792e+003 1.350643e+003 1.878918e+003
      endloop
   endfacet
   facet normal -1.000000e+000 -7.632783e-017 1.026531e-018
      outer loop
         vertex 1.217792e+003 1.350643e+003 1.878918e+003
         vertex 1.217792e+003 1.350446e+003 1.879116e+003
         vertex 1.217792e+003 1.353417e+003 1.880890e+003
      endloop
   endfacet
   facet normal -1.000000e+000 -7.632783e-017 1.026531e-018
      outer loop
         vertex 1.217792e+003 1.353417e+003 1.880890e+003
         vertex 1.217792e+003 1.350446e+003 1.879116e+003
         vertex 1.217792e+003 1.350217e+003 1.879276e+003
      endloop
   endfacet
   facet normal -1.000000e+000 -7.632783e-017 1.026531e-018
      outer loop
         vertex 1.217792e+003 1.353417e+003 1.880890e+003
         vertex 1.217792e+003 1.350217e+003 1.879276e+003
         vertex 1.217792e+003 1.349965e+003 1.879393e+003
      endloop
   endfacet
   facet normal -1.000000e+000 -7.632783e-017 1.026531e-018
      outer loop
         vertex 1.217792e+003 1.349965e+003 1.879393e+003
         vertex 1.217792e+003 1.349695e+003 1.879466e+003
         vertex 1.217792e+003 1.353417e+003 1.880890e+003
      endloop
   endfacet
   facet normal -1.000000e+000 -7.632783e-017 1.026531e-018
      outer loop
         vertex 1.217792e+003 1.353417e+003 1.880890e+003
         vertex 1.217792e+003 1.349695e+003 1.879466e+003
         vertex 1.217792e+003 1.349417e+003 1.879490e+003
      endloop
   endfacet
   facet normal -1.000000e+000 -7.632783e-017 1.026531e-018
      outer loop
         vertex 1.217792e+003 1.353417e+003 1.880890e+003
         vertex 1.217792e+003 1.349417e+003 1.879490e+003
         vertex 1.217792e+003 1.349139e+003 1.879466e+003
      endloop
   endfacet
   facet normal -1.000000e+000 -7.632783e-017 1.026531e-018
      outer loop
         vertex 1.217792e+003 1.334870e+003 1.879393e+003
         vertex 1.217792e+003 1.334617e+003 1.879276e+003
         vertex 1.217792e+003 1.331417e+003 1.880890e+003
      endloop
   endfacet
   facet normal -1.000000e+000 -7.632783e-017 1.026531e-018
      outer loop
         vertex 1.217792e+003 1.331417e+003 1.880890e+003
         vertex 1.217792e+003 1.334617e+003 1.879276e+003
         vertex 1.217792e+003 1.334389e+003 1.879116e+003
      endloop
   endfacet
   facet normal -1.000000e+000 -7.632783e-017 1.026531e-018
      outer loop
         vertex 1.217792e+003 1.331417e+003 1.880890e+003
         vertex 1.217792e+003 1.334389e+003 1.879116e+003
         vertex 1.217792e+003 1.334192e+003 1.878918e+003
      endloop
   endfacet
   facet normal -1.000000e+000 -7.632783e-017 1.026531e-018
      outer loop
         vertex 1.217792e+003 1.334870e+003 1.876386e+003
         vertex 1.217792e+003 1.335140e+003 1.876314e+003
         vertex 1.217792e+003 1.331417e+003 1.873390e+003
      endloop
   endfacet
   facet normal -1.000000e+000 -7.632783e-017 1.026531e-018
      outer loop
         vertex 1.217792e+003 1.336643e+003 1.876861e+003
         vertex 1.217792e+003 1.349417e+003 1.873390e+003
         vertex 1.217792e+003 1.336446e+003 1.876664e+003
      endloop
   endfacet
   facet normal -1.000000e+000 -7.632783e-017 1.026531e-018
      outer loop
         vertex 1.217792e+003 1.336446e+003 1.876664e+003
         vertex 1.217792e+003 1.349417e+003 1.873390e+003
         vertex 1.217792e+003 1.336217e+003 1.876504e+003
      endloop
   endfacet
   facet normal -1.000000e+000 -7.632783e-017 1.026531e-018
      outer loop
         vertex 1.217792e+003 1.348617e+003 1.879276e+003
         vertex 1.217792e+003 1.348389e+003 1.879116e+003
         vertex 1.217792e+003 1.337017e+003 1.877890e+003
      endloop
   endfacet
   facet normal -1.000000e+000 -7.632783e-017 1.026531e-018
      outer loop
         vertex 1.217792e+003 1.353417e+003 1.877390e+003
         vertex 1.217792e+003 1.350993e+003 1.878168e+003
         vertex 1.217792e+003 1.353417e+003 1.880890e+003
      endloop
   endfacet
   facet normal -1.000000e+000 -7.632783e-017 1.026531e-018
      outer loop
         vertex 1.217792e+003 1.353417e+003 1.880890e+003
         vertex 1.217792e+003 1.350993e+003 1.878168e+003
         vertex 1.217792e+003 1.350921e+003 1.878437e+003
      endloop
   endfacet
   facet normal -1.000000e+000 -7.632783e-017 1.026531e-018
      outer loop
         vertex 1.217792e+003 1.353417e+003 1.880890e+003
         vertex 1.217792e+003 1.350921e+003 1.878437e+003
         vertex 1.217792e+003 1.350803e+003 1.878690e+003
      endloop
   endfacet
   facet normal -1.000000e+000 -7.632783e-017 1.026531e-018
      outer loop
         vertex 1.217792e+003 1.348617e+003 1.876504e+003
         vertex 1.217792e+003 1.336993e+003 1.877612e+003
         vertex 1.217792e+003 1.348389e+003 1.876664e+003
      endloop
   endfacet
   facet normal -1.000000e+000 -7.632783e-017 1.026531e-018
      outer loop
         vertex 1.217792e+003 1.348389e+003 1.876664e+003
         vertex 1.217792e+003 1.336993e+003 1.877612e+003
         vertex 1.217792e+003 1.348192e+003 1.876861e+003
      endloop
   endfacet
   facet normal -1.000000e+000 -7.632783e-017 1.026531e-018
      outer loop
         vertex 1.217792e+003 1.336803e+003 1.878690e+003
         vertex 1.217792e+003 1.336643e+003 1.878918e+003
         vertex 1.217792e+003 1.353417e+003 1.880890e+003
      endloop
   endfacet
   facet normal -1.000000e+000 -7.632783e-017 1.026531e-018
      outer loop
         vertex 1.217792e+003 1.353417e+003 1.880890e+003
         vertex 1.217792e+003 1.336643e+003 1.878918e+003
         vertex 1.217792e+003 1.336446e+003 1.879116e+003
      endloop
   endfacet
   facet normal -1.000000e+000 -7.632783e-017 1.026531e-018
      outer loop
         vertex 1.217792e+003 1.353417e+003 1.880890e+003
         vertex 1.217792e+003 1.336446e+003 1.879116e+003
         vertex 1.217792e+003 1.336217e+003 1.879276e+003
      endloop
   endfacet
   facet normal -1.000000e+000 -7.632783e-017 1.026531e-018
      outer loop
         vertex 1.217792e+003 1.336217e+003 1.879276e+003
         vertex 1.217792e+003 1.335965e+003 1.879393e+003
         vertex 1.217792e+003 1.353417e+003 1.880890e+003
      endloop
   endfacet
   facet normal -1.000000e+000 -7.632783e-017 1.026531e-018
      outer loop
         vertex 1.217792e+003 1.353417e+003 1.880890e+003
         vertex 1.217792e+003 1.335965e+003 1.879393e+003
         vertex 1.217792e+003 1.335695e+003 1.879466e+003
      endloop
   endfacet
   facet normal -1.000000e+000 -7.632783e-017 1.026531e-018
      outer loop
         vertex 1.217792e+003 1.353417e+003 1.880890e+003
         vertex 1.217792e+003 1.335695e+003 1.879466e+003
         vertex 1.217792e+003 1.331417e+003 1.880890e+003
      endloop
   endfacet
   facet normal -1.000000e+000 -7.632783e-017 1.026531e-018
      outer loop
         vertex 1.217792e+003 1.331417e+003 1.880890e+003
         vertex 1.217792e+003 1.335695e+003 1.879466e+003
         vertex 1.217792e+003 1.335417e+003 1.879490e+003
      endloop
   endfacet
   facet normal -1.000000e+000 -7.632783e-017 1.026531e-018
      outer loop
         vertex 1.217792e+003 1.331417e+003 1.880890e+003
         vertex 1.217792e+003 1.335417e+003 1.879490e+003
         vertex 1.217792e+003 1.335140e+003 1.879466e+003
      endloop
   endfacet
   facet normal -1.000000e+000 -7.632783e-017 1.026531e-018
      outer loop
         vertex 1.217792e+003 1.350803e+003 1.877090e+003
         vertex 1.217792e+003 1.350921e+003 1.877343e+003
         vertex 1.217792e+003 1.353417e+003 1.877390e+003
      endloop
   endfacet
   facet normal -1.000000e+000 -7.632783e-017 1.026531e-018
      outer loop
         vertex 1.217792e+003 1.353417e+003 1.877390e+003
         vertex 1.217792e+003 1.350921e+003 1.877343e+003
         vertex 1.217792e+003 1.350993e+003 1.877612e+003
      endloop
   endfacet
   facet normal -1.000000e+000 -7.632783e-017 1.026531e-018
      outer loop
         vertex 1.217792e+003 1.353417e+003 1.877390e+003
         vertex 1.217792e+003 1.350993e+003 1.877612e+003
         vertex 1.217792e+003 1.351017e+003 1.877890e+003
      endloop
   endfacet
   facet normal -1.000000e+000 -7.632783e-017 1.026531e-018
      outer loop
         vertex 1.217792e+003 1.336921e+003 1.878437e+003
         vertex 1.217792e+003 1.353417e+003 1.880890e+003
         vertex 1.217792e+003 1.336993e+003 1.878168e+003
      endloop
   endfacet
   facet normal -1.000000e+000 -7.632783e-017 1.026531e-018
      outer loop
         vertex 1.217792e+003 1.336993e+003 1.878168e+003
         vertex 1.217792e+003 1.353417e+003 1.880890e+003
         vertex 1.217792e+003 1.349139e+003 1.879466e+003
      endloop
   endfacet
   facet normal -1.000000e+000 -7.632783e-017 1.026531e-018
      outer loop
         vertex 1.217792e+003 1.336993e+003 1.878168e+003
         vertex 1.217792e+003 1.349139e+003 1.879466e+003
         vertex 1.217792e+003 1.337017e+003 1.877890e+003
      endloop
   endfacet
   facet normal -1.000000e+000 -7.632783e-017 1.026531e-018
      outer loop
         vertex 1.217792e+003 1.337017e+003 1.877890e+003
         vertex 1.217792e+003 1.349139e+003 1.879466e+003
         vertex 1.217792e+003 1.348870e+003 1.879393e+003
      endloop
   endfacet
   facet normal -1.000000e+000 -7.632783e-017 1.026531e-018
      outer loop
         vertex 1.217792e+003 1.337017e+003 1.877890e+003
         vertex 1.217792e+003 1.348870e+003 1.879393e+003
         vertex 1.217792e+003 1.348617e+003 1.879276e+003
      endloop
   endfacet
   facet normal -1.000000e+000 -7.632783e-017 1.026531e-018
      outer loop
         vertex 1.217792e+003 1.348389e+003 1.879116e+003
         vertex 1.217792e+003 1.348192e+003 1.878918e+003
         vertex 1.217792e+003 1.337017e+003 1.877890e+003
      endloop
   endfacet
   facet normal -1.000000e+000 -7.632783e-017 1.026531e-018
      outer loop
         vertex 1.217792e+003 1.337017e+003 1.877890e+003
         vertex 1.217792e+003 1.348192e+003 1.878918e+003
         vertex 1.217792e+003 1.348032e+003 1.878690e+003
      endloop
   endfacet
   facet normal -1.000000e+000 -7.632783e-017 1.026531e-018
      outer loop
         vertex 1.217792e+003 1.337017e+003 1.877890e+003
         vertex 1.217792e+003 1.348032e+003 1.878690e+003
         vertex 1.217792e+003 1.347914e+003 1.878437e+003
      endloop
   endfacet
   facet normal -1.000000e+000 -7.632783e-017 1.026531e-018
      outer loop
         vertex 1.217792e+003 1.347842e+003 1.877612e+003
         vertex 1.217792e+003 1.336993e+003 1.877612e+003
         vertex 1.217792e+003 1.347817e+003 1.877890e+003
      endloop
   endfacet
   facet normal -1.000000e+000 -7.632783e-017 1.026531e-018
      outer loop
         vertex 1.217792e+003 1.347817e+003 1.877890e+003
         vertex 1.217792e+003 1.336993e+003 1.877612e+003
         vertex 1.217792e+003 1.337017e+003 1.877890e+003
      endloop
   endfacet
   facet normal -1.000000e+000 -7.632783e-017 1.026531e-018
      outer loop
         vertex 1.217792e+003 1.347817e+003 1.877890e+003
         vertex 1.217792e+003 1.337017e+003 1.877890e+003
         vertex 1.217792e+003 1.347842e+003 1.878168e+003
      endloop
   endfacet
   facet normal -1.000000e+000 -7.632783e-017 1.026531e-018
      outer loop
         vertex 1.217792e+003 1.347842e+003 1.878168e+003
         vertex 1.217792e+003 1.337017e+003 1.877890e+003
         vertex 1.217792e+003 1.347914e+003 1.878437e+003
      endloop
   endfacet
   facet normal -1.000000e+000 -7.632783e-017 1.026531e-018
      outer loop
         vertex 1.217792e+003 1.347842e+003 1.877612e+003
         vertex 1.217792e+003 1.347914e+003 1.877343e+003
         vertex 1.217792e+003 1.336993e+003 1.877612e+003
      endloop
   endfacet
   facet normal -1.000000e+000 -7.632783e-017 1.026531e-018
      outer loop
         vertex 1.217792e+003 1.336993e+003 1.877612e+003
         vertex 1.217792e+003 1.347914e+003 1.877343e+003
         vertex 1.217792e+003 1.348032e+003 1.877090e+003
      endloop
   endfacet
   facet normal -1.000000e+000 -7.632783e-017 1.026531e-018
      outer loop
         vertex 1.217792e+003 1.336993e+003 1.877612e+003
         vertex 1.217792e+003 1.348032e+003 1.877090e+003
         vertex 1.217792e+003 1.348192e+003 1.876861e+003
      endloop
   endfacet
   facet normal -1.000000e+000 -7.632783e-017 1.026531e-018
      outer loop
         vertex 1.217792e+003 1.334192e+003 1.876861e+003
         vertex 1.217792e+003 1.334389e+003 1.876664e+003
         vertex 1.217792e+003 1.331417e+003 1.873390e+003
      endloop
   endfacet
   facet normal -1.000000e+000 -7.632783e-017 1.026531e-018
      outer loop
         vertex 1.217792e+003 1.331417e+003 1.873390e+003
         vertex 1.217792e+003 1.334389e+003 1.876664e+003
         vertex 1.217792e+003 1.334617e+003 1.876504e+003
      endloop
   endfacet
   facet normal -1.000000e+000 -7.632783e-017 1.026531e-018
      outer loop
         vertex 1.217792e+003 1.331417e+003 1.873390e+003
         vertex 1.217792e+003 1.334617e+003 1.876504e+003
         vertex 1.217792e+003 1.334870e+003 1.876386e+003
      endloop
   endfacet
   facet normal -1.000000e+000 -7.632783e-017 1.026531e-018
      outer loop
         vertex 1.217792e+003 1.335140e+003 1.876314e+003
         vertex 1.217792e+003 1.335417e+003 1.876290e+003
         vertex 1.217792e+003 1.331417e+003 1.873390e+003
      endloop
   endfacet
   facet normal -1.000000e+000 -7.632783e-017 1.026531e-018
      outer loop
         vertex 1.217792e+003 1.331417e+003 1.873390e+003
         vertex 1.217792e+003 1.335417e+003 1.876290e+003
         vertex 1.217792e+003 1.335695e+003 1.876314e+003
      endloop
   endfacet
   facet normal -1.000000e+000 -7.632783e-017 1.026531e-018
      outer loop
         vertex 1.217792e+003 1.331417e+003 1.873390e+003
         vertex 1.217792e+003 1.335695e+003 1.876314e+003
         vertex 1.217792e+003 1.349417e+003 1.873390e+003
      endloop
   endfacet
   facet normal -1.000000e+000 -7.632783e-017 1.026531e-018
      outer loop
         vertex 1.217792e+003 1.349417e+003 1.873390e+003
         vertex 1.217792e+003 1.335695e+003 1.876314e+003
         vertex 1.217792e+003 1.335965e+003 1.876386e+003
      endloop
   endfacet
   facet normal -1.000000e+000 -7.632783e-017 1.026531e-018
      outer loop
         vertex 1.217792e+003 1.349417e+003 1.873390e+003
         vertex 1.217792e+003 1.335965e+003 1.876386e+003
         vertex 1.217792e+003 1.336217e+003 1.876504e+003
      endloop
   endfacet
   facet normal -1.000000e+000 -7.632783e-017 1.026531e-018
      outer loop
         vertex 1.217792e+003 1.336643e+003 1.876861e+003
         vertex 1.217792e+003 1.336803e+003 1.877090e+003
         vertex 1.217792e+003 1.349417e+003 1.873390e+003
      endloop
   endfacet
   facet normal -1.000000e+000 -7.632783e-017 1.026531e-018
      outer loop
         vertex 1.217792e+003 1.349417e+003 1.873390e+003
         vertex 1.217792e+003 1.336803e+003 1.877090e+003
         vertex 1.217792e+003 1.336921e+003 1.877343e+003
      endloop
   endfacet
   facet normal -1.000000e+000 -7.632783e-017 1.026531e-018
      outer loop
         vertex 1.217792e+003 1.349417e+003 1.873390e+003
         vertex 1.217792e+003 1.336921e+003 1.877343e+003
         vertex 1.217792e+003 1.336993e+003 1.877612e+003
      endloop
   endfacet
   facet normal -1.000000e+000 -7.632783e-017 1.026531e-018
      outer loop
         vertex 1.217792e+003 1.349417e+003 1.873390e+003
         vertex 1.217792e+003 1.349695e+003 1.876314e+003
         vertex 1.217792e+003 1.349965e+003 1.876386e+003
      endloop
   endfacet
   facet normal -1.000000e+000 -7.632783e-017 1.026531e-018
      outer loop
         vertex 1.217792e+003 1.348617e+003 1.876504e+003
         vertex 1.217792e+003 1.348870e+003 1.876386e+003
         vertex 1.217792e+003 1.336993e+003 1.877612e+003
      endloop
   endfacet
   facet normal -1.000000e+000 -7.632783e-017 1.026531e-018
      outer loop
         vertex 1.217792e+003 1.336993e+003 1.877612e+003
         vertex 1.217792e+003 1.348870e+003 1.876386e+003
         vertex 1.217792e+003 1.349139e+003 1.876314e+003
      endloop
   endfacet
   facet normal -1.000000e+000 -7.632783e-017 1.026531e-018
      outer loop
         vertex 1.217792e+003 1.336993e+003 1.877612e+003
         vertex 1.217792e+003 1.349139e+003 1.876314e+003
         vertex 1.217792e+003 1.349417e+003 1.873390e+003
      endloop
   endfacet
   facet normal -1.000000e+000 -7.632783e-017 1.026531e-018
      outer loop
         vertex 1.217792e+003 1.349417e+003 1.873390e+003
         vertex 1.217792e+003 1.349139e+003 1.876314e+003
         vertex 1.217792e+003 1.349417e+003 1.876290e+003
      endloop
   endfacet
   facet normal -1.000000e+000 -7.632783e-017 1.026531e-018
      outer loop
         vertex 1.217792e+003 1.349417e+003 1.873390e+003
         vertex 1.217792e+003 1.349417e+003 1.876290e+003
         vertex 1.217792e+003 1.349695e+003 1.876314e+003
      endloop
   endfacet
   facet normal -1.000000e+000 -7.632783e-017 1.026531e-018
      outer loop
         vertex 1.217792e+003 1.349965e+003 1.876386e+003
         vertex 1.217792e+003 1.350217e+003 1.876504e+003
         vertex 1.217792e+003 1.349417e+003 1.873390e+003
      endloop
   endfacet
   facet normal -1.000000e+000 -7.632783e-017 1.026531e-018
      outer loop
         vertex 1.217792e+003 1.349417e+003 1.873390e+003
         vertex 1.217792e+003 1.350217e+003 1.876504e+003
         vertex 1.217792e+003 1.350446e+003 1.876664e+003
      endloop
   endfacet
   facet normal -1.000000e+000 -7.632783e-017 1.026531e-018
      outer loop
         vertex 1.217792e+003 1.349417e+003 1.873390e+003
         vertex 1.217792e+003 1.350446e+003 1.876664e+003
         vertex 1.217792e+003 1.353417e+003 1.877390e+003
      endloop
   endfacet
   facet normal -1.000000e+000 -7.632783e-017 1.026531e-018
      outer loop
         vertex 1.217792e+003 1.353417e+003 1.877390e+003
         vertex 1.217792e+003 1.350446e+003 1.876664e+003
         vertex 1.217792e+003 1.350643e+003 1.876861e+003
      endloop
   endfacet
   facet normal -1.000000e+000 -7.632783e-017 1.026531e-018
      outer loop
         vertex 1.217792e+003 1.353417e+003 1.877390e+003
         vertex 1.217792e+003 1.350643e+003 1.876861e+003
         vertex 1.217792e+003 1.350803e+003 1.877090e+003
      endloop
   endfacet
   facet normal -1.996498e-017 7.071068e-001 -7.071068e-001
      outer loop
         vertex 1.217792e+003 1.349417e+003 1.873390e+003
         vertex 1.217792e+003 1.353417e+003 1.877390e+003
         vertex 1.220792e+003 1.349417e+003 1.873390e+003
      endloop
   endfacet
   facet normal -1.996498e-017 7.071068e-001 -7.071068e-001
      outer loop
         vertex 1.220792e+003 1.349417e+003 1.873390e+003
         vertex 1.217792e+003 1.353417e+003 1.877390e+003
         vertex 1.220792e+003 1.353417e+003 1.877390e+003
      endloop
   endfacet
   facet normal 3.501108e-017 -9.983120e-001 -5.807914e-002
      outer loop
         vertex 1.220792e+003 1.336993e+003 1.878168e+003
         vertex 1.217792e+003 1.337017e+003 1.877890e+003
         vertex 1.220792e+003 1.337017e+003 1.877890e+003
      endloop
   endfacet
   facet normal 3.426073e-017 -9.983120e-001 5.807914e-002
      outer loop
         vertex 1.220792e+003 1.337017e+003 1.877890e+003
         vertex 1.217792e+003 1.337017e+003 1.877890e+003
         vertex 1.217792e+003 1.336993e+003 1.877612e+003
      endloop
   endfacet
   facet normal 3.370926e-017 -9.932307e-001 1.161583e-001
      outer loop
         vertex 1.220792e+003 1.337017e+003 1.877890e+003
         vertex 1.217792e+003 1.336993e+003 1.877612e+003
         vertex 1.220792e+003 1.336993e+003 1.877612e+003
      endloop
   endfacet
   facet normal 3.227050e-017 -9.730601e-001 2.305518e-001
      outer loop
         vertex 1.220792e+003 1.336993e+003 1.877612e+003
         vertex 1.217792e+003 1.336993e+003 1.877612e+003
         vertex 1.217792e+003 1.336921e+003 1.877343e+003
      endloop
   endfacet
   facet normal 3.138320e-017 -9.579706e-001 2.868663e-001
      outer loop
         vertex 1.220792e+003 1.336993e+003 1.877612e+003
         vertex 1.217792e+003 1.336921e+003 1.877343e+003
         vertex 1.220792e+003 1.336921e+003 1.877343e+003
      endloop
   endfacet
   facet normal 2.929975e-017 -9.182422e-001 3.960194e-001
      outer loop
         vertex 1.220792e+003 1.336921e+003 1.877343e+003
         vertex 1.217792e+003 1.336921e+003 1.877343e+003
         vertex 1.217792e+003 1.336803e+003 1.877090e+003
      endloop
   endfacet
   facet normal 2.810358e-017 -8.936031e-001 4.488580e-001
      outer loop
         vertex 1.220792e+003 1.336921e+003 1.877343e+003
         vertex 1.217792e+003 1.336803e+003 1.877090e+003
         vertex 1.220792e+003 1.336803e+003 1.877090e+003
      endloop
   endfacet
   facet normal 2.543874e-017 -8.355240e-001 5.494540e-001
      outer loop
         vertex 1.220792e+003 1.336803e+003 1.877090e+003
         vertex 1.217792e+003 1.336803e+003 1.877090e+003
         vertex 1.217792e+003 1.336643e+003 1.876861e+003
      endloop
   endfacet
   facet normal 2.397005e-017 -8.020839e-001 5.972114e-001
      outer loop
         vertex 1.220792e+003 1.336803e+003 1.877090e+003
         vertex 1.217792e+003 1.336643e+003 1.876861e+003
         vertex 1.220792e+003 1.336643e+003 1.876861e+003
      endloop
   endfacet
   facet normal 2.080478e-017 -7.274188e-001 6.861938e-001
      outer loop
         vertex 1.220792e+003 1.336643e+003 1.876861e+003
         vertex 1.217792e+003 1.336643e+003 1.876861e+003
         vertex 1.217792e+003 1.336446e+003 1.876664e+003
      endloop
   endfacet
   facet normal 1.910820e-017 -6.861938e-001 7.274188e-001
      outer loop
         vertex 1.220792e+003 1.336643e+003 1.876861e+003
         vertex 1.217792e+003 1.336446e+003 1.876664e+003
         vertex 1.220792e+003 1.336446e+003 1.876664e+003
      endloop
   endfacet
   facet normal 1.553869e-017 -5.972114e-001 8.020839e-001
      outer loop
         vertex 1.220792e+003 1.336446e+003 1.876664e+003
         vertex 1.217792e+003 1.336446e+003 1.876664e+003
         vertex 1.217792e+003 1.336217e+003 1.876504e+003
      endloop
   endfacet
   facet normal 1.366575e-017 -5.494540e-001 8.355240e-001
      outer loop
         vertex 1.220792e+003 1.336446e+003 1.876664e+003
         vertex 1.217792e+003 1.336217e+003 1.876504e+003
         vertex 1.220792e+003 1.336217e+003 1.876504e+003
      endloop
   endfacet
   facet normal 9.800455e-018 -4.488580e-001 8.936031e-001
      outer loop
         vertex 1.220792e+003 1.336217e+003 1.876504e+003
         vertex 1.217792e+003 1.336217e+003 1.876504e+003
         vertex 1.217792e+003 1.335965e+003 1.876386e+003
      endloop
   endfacet
   facet normal 7.808085e-018 -3.960194e-001 9.182422e-001
      outer loop
         vertex 1.220792e+003 1.336217e+003 1.876504e+003
         vertex 1.217792e+003 1.335965e+003 1.876386e+003
         vertex 1.220792e+003 1.335965e+003 1.876386e+003
      endloop
   endfacet
   facet normal 3.764441e-018 -2.868663e-001 9.579706e-001
      outer loop
         vertex 1.220792e+003 1.335965e+003 1.876386e+003
         vertex 1.217792e+003 1.335965e+003 1.876386e+003
         vertex 1.217792e+003 1.335695e+003 1.876314e+003
      endloop
   endfacet
   facet normal 1.713168e-018 -2.305518e-001 9.730601e-001
      outer loop
         vertex 1.220792e+003 1.335965e+003 1.876386e+003
         vertex 1.217792e+003 1.335695e+003 1.876314e+003
         vertex 1.220792e+003 1.335695e+003 1.876314e+003
      endloop
   endfacet
   facet normal -2.385953e-018 -1.161583e-001 9.932307e-001
      outer loop
         vertex 1.220792e+003 1.335695e+003 1.876314e+003
         vertex 1.217792e+003 1.335695e+003 1.876314e+003
         vertex 1.217792e+003 1.335417e+003 1.876290e+003
      endloop
   endfacet
   facet normal -4.433801e-018 -5.807914e-002 9.983120e-001
      outer loop
         vertex 1.220792e+003 1.335695e+003 1.876314e+003
         vertex 1.217792e+003 1.335417e+003 1.876290e+003
         vertex 1.220792e+003 1.335417e+003 1.876290e+003
      endloop
   endfacet
   facet normal -8.463851e-018 5.807914e-002 9.983120e-001
      outer loop
         vertex 1.220792e+003 1.335417e+003 1.876290e+003
         vertex 1.217792e+003 1.335417e+003 1.876290e+003
         vertex 1.217792e+003 1.335140e+003 1.876314e+003
      endloop
   endfacet
   facet normal -1.044605e-017 1.161583e-001 9.932307e-001
      outer loop
         vertex 1.220792e+003 1.335417e+003 1.876290e+003
         vertex 1.217792e+003 1.335140e+003 1.876314e+003
         vertex 1.220792e+003 1.335140e+003 1.876314e+003
      endloop
   endfacet
   facet normal -1.428458e-017 2.305518e-001 9.730601e-001
      outer loop
         vertex 1.220792e+003 1.335140e+003 1.876314e+003
         vertex 1.217792e+003 1.335140e+003 1.876314e+003
         vertex 1.217792e+003 1.334870e+003 1.876386e+003
      endloop
   endfacet
   facet normal -1.614091e-017 2.868663e-001 9.579706e-001
      outer loop
         vertex 1.220792e+003 1.335140e+003 1.876314e+003
         vertex 1.217792e+003 1.334870e+003 1.876386e+003
         vertex 1.220792e+003 1.334870e+003 1.876386e+003
      endloop
   endfacet
   facet normal -1.967128e-017 3.960194e-001 9.182422e-001
      outer loop
         vertex 1.220792e+003 1.334870e+003 1.876386e+003
         vertex 1.217792e+003 1.334870e+003 1.876386e+003
         vertex 1.217792e+003 1.334617e+003 1.876504e+003
      endloop
   endfacet
   facet normal -2.134532e-017 4.488580e-001 8.936031e-001
      outer loop
         vertex 1.220792e+003 1.334870e+003 1.876386e+003
         vertex 1.217792e+003 1.334617e+003 1.876504e+003
         vertex 1.220792e+003 1.334617e+003 1.876504e+003
      endloop
   endfacet
   facet normal -2.446027e-017 5.494540e-001 8.355240e-001
      outer loop
         vertex 1.220792e+003 1.334617e+003 1.876504e+003
         vertex 1.217792e+003 1.334617e+003 1.876504e+003
         vertex 1.217792e+003 1.334389e+003 1.876664e+003
      endloop
   endfacet
   facet normal -2.590118e-017 5.972114e-001 8.020839e-001
      outer loop
         vertex 1.220792e+003 1.334617e+003 1.876504e+003
         vertex 1.217792e+003 1.334389e+003 1.876664e+003
         vertex 1.220792e+003 1.334389e+003 1.876664e+003
      endloop
   endfacet
   facet normal -2.850606e-017 6.861938e-001 7.274188e-001
      outer loop
         vertex 1.220792e+003 1.334389e+003 1.876664e+003
         vertex 1.217792e+003 1.334389e+003 1.876664e+003
         vertex 1.217792e+003 1.334192e+003 1.876861e+003
      endloop
   endfacet
   facet normal -2.967004e-017 7.274188e-001 6.861938e-001
      outer loop
         vertex 1.220792e+003 1.334389e+003 1.876664e+003
         vertex 1.217792e+003 1.334192e+003 1.876861e+003
         vertex 1.220792e+003 1.334192e+003 1.876861e+003
      endloop
   endfacet
   facet normal -3.168570e-017 8.020839e-001 5.972114e-001
      outer loop
         vertex 1.220792e+003 1.334192e+003 1.876861e+003
         vertex 1.217792e+003 1.334192e+003 1.876861e+003
         vertex 1.217792e+003 1.334032e+003 1.877090e+003
      endloop
   endfacet
   facet normal -3.253738e-017 8.355240e-001 5.494540e-001
      outer loop
         vertex 1.220792e+003 1.334192e+003 1.876861e+003
         vertex 1.217792e+003 1.334032e+003 1.877090e+003
         vertex 1.220792e+003 1.334032e+003 1.877090e+003
      endloop
   endfacet
   facet normal -3.390259e-017 8.936031e-001 4.488580e-001
      outer loop
         vertex 1.220792e+003 1.334032e+003 1.877090e+003
         vertex 1.217792e+003 1.334032e+003 1.877090e+003
         vertex 1.217792e+003 1.333914e+003 1.877343e+003
      endloop
   endfacet
   facet normal -3.441610e-017 9.182422e-001 3.960194e-001
      outer loop
         vertex 1.220792e+003 1.334032e+003 1.877090e+003
         vertex 1.217792e+003 1.333914e+003 1.877343e+003
         vertex 1.220792e+003 1.333914e+003 1.877343e+003
      endloop
   endfacet
   facet normal -3.508936e-017 9.579706e-001 2.868663e-001
      outer loop
         vertex 1.220792e+003 1.333914e+003 1.877343e+003
         vertex 1.217792e+003 1.333914e+003 1.877343e+003
         vertex 1.217792e+003 1.333842e+003 1.877612e+003
      endloop
   endfacet
   facet normal -3.524910e-017 9.730601e-001 2.305518e-001
      outer loop
         vertex 1.220792e+003 1.333914e+003 1.877343e+003
         vertex 1.217792e+003 1.333842e+003 1.877612e+003
         vertex 1.220792e+003 1.333842e+003 1.877612e+003
      endloop
   endfacet
   facet normal -3.520997e-017 9.932307e-001 1.161583e-001
      outer loop
         vertex 1.220792e+003 1.333842e+003 1.877612e+003
         vertex 1.217792e+003 1.333842e+003 1.877612e+003
         vertex 1.217792e+003 1.333817e+003 1.877890e+003
      endloop
   endfacet
   facet normal -3.501108e-017 9.983120e-001 5.807914e-002
      outer loop
         vertex 1.220792e+003 1.333842e+003 1.877612e+003
         vertex 1.217792e+003 1.333817e+003 1.877890e+003
         vertex 1.220792e+003 1.333817e+003 1.877890e+003
      endloop
   endfacet
   facet normal -3.426073e-017 9.983120e-001 -5.807914e-002
      outer loop
         vertex 1.220792e+003 1.333817e+003 1.877890e+003
         vertex 1.217792e+003 1.333817e+003 1.877890e+003
         vertex 1.217792e+003 1.333842e+003 1.878168e+003
      endloop
   endfacet
   facet normal -3.370926e-017 9.932307e-001 -1.161583e-001
      outer loop
         vertex 1.220792e+003 1.333817e+003 1.877890e+003
         vertex 1.217792e+003 1.333842e+003 1.878168e+003
         vertex 1.220792e+003 1.333842e+003 1.878168e+003
      endloop
   endfacet
   facet normal -3.227050e-017 9.730601e-001 -2.305518e-001
      outer loop
         vertex 1.220792e+003 1.333842e+003 1.878168e+003
         vertex 1.217792e+003 1.333842e+003 1.878168e+003
         vertex 1.217792e+003 1.333914e+003 1.878437e+003
      endloop
   endfacet
   facet normal -3.138320e-017 9.579706e-001 -2.868663e-001
      outer loop
         vertex 1.220792e+003 1.333842e+003 1.878168e+003
         vertex 1.217792e+003 1.333914e+003 1.878437e+003
         vertex 1.220792e+003 1.333914e+003 1.878437e+003
      endloop
   endfacet
   facet normal -2.929975e-017 9.182422e-001 -3.960194e-001
      outer loop
         vertex 1.220792e+003 1.333914e+003 1.878437e+003
         vertex 1.217792e+003 1.333914e+003 1.878437e+003
         vertex 1.217792e+003 1.334032e+003 1.878690e+003
      endloop
   endfacet
   facet normal -2.810358e-017 8.936031e-001 -4.488580e-001
      outer loop
         vertex 1.220792e+003 1.333914e+003 1.878437e+003
         vertex 1.217792e+003 1.334032e+003 1.878690e+003
         vertex 1.220792e+003 1.334032e+003 1.878690e+003
      endloop
   endfacet
   facet normal -2.543874e-017 8.355240e-001 -5.494540e-001
      outer loop
         vertex 1.220792e+003 1.334032e+003 1.878690e+003
         vertex 1.217792e+003 1.334032e+003 1.878690e+003
         vertex 1.217792e+003 1.334192e+003 1.878918e+003
      endloop
   endfacet
   facet normal -2.397005e-017 8.020839e-001 -5.972114e-001
      outer loop
         vertex 1.220792e+003 1.334032e+003 1.878690e+003
         vertex 1.217792e+003 1.334192e+003 1.878918e+003
         vertex 1.220792e+003 1.334192e+003 1.878918e+003
      endloop
   endfacet
   facet normal -2.080478e-017 7.274188e-001 -6.861938e-001
      outer loop
         vertex 1.220792e+003 1.334192e+003 1.878918e+003
         vertex 1.217792e+003 1.334192e+003 1.878918e+003
         vertex 1.217792e+003 1.334389e+003 1.879116e+003
      endloop
   endfacet
   facet normal -1.910820e-017 6.861938e-001 -7.274188e-001
      outer loop
         vertex 1.220792e+003 1.334192e+003 1.878918e+003
         vertex 1.217792e+003 1.334389e+003 1.879116e+003
         vertex 1.220792e+003 1.334389e+003 1.879116e+003
      endloop
   endfacet
   facet normal -1.553869e-017 5.972114e-001 -8.020839e-001
      outer loop
         vertex 1.220792e+003 1.334389e+003 1.879116e+003
         vertex 1.217792e+003 1.334389e+003 1.879116e+003
         vertex 1.217792e+003 1.334617e+003 1.879276e+003
      endloop
   endfacet
   facet normal -1.366575e-017 5.494540e-001 -8.355240e-001
      outer loop
         vertex 1.220792e+003 1.334389e+003 1.879116e+003
         vertex 1.217792e+003 1.334617e+003 1.879276e+003
         vertex 1.220792e+003 1.334617e+003 1.879276e+003
      endloop
   endfacet
   facet normal -9.800455e-018 4.488580e-001 -8.936031e-001
      outer loop
         vertex 1.220792e+003 1.334617e+003 1.879276e+003
         vertex 1.217792e+003 1.334617e+003 1.879276e+003
         vertex 1.217792e+003 1.334870e+003 1.879393e+003
      endloop
   endfacet
   facet normal -7.808085e-018 3.960194e-001 -9.182422e-001
      outer loop
         vertex 1.220792e+003 1.334617e+003 1.879276e+003
         vertex 1.217792e+003 1.334870e+003 1.879393e+003
         vertex 1.220792e+003 1.334870e+003 1.879393e+003
      endloop
   endfacet
   facet normal -3.764441e-018 2.868663e-001 -9.579706e-001
      outer loop
         vertex 1.220792e+003 1.334870e+003 1.879393e+003
         vertex 1.217792e+003 1.334870e+003 1.879393e+003
         vertex 1.217792e+003 1.335140e+003 1.879466e+003
      endloop
   endfacet
   facet normal -1.713168e-018 2.305518e-001 -9.730601e-001
      outer loop
         vertex 1.220792e+003 1.334870e+003 1.879393e+003
         vertex 1.217792e+003 1.335140e+003 1.879466e+003
         vertex 1.220792e+003 1.335140e+003 1.879466e+003
      endloop
   endfacet
   facet normal 2.385953e-018 1.161583e-001 -9.932307e-001
      outer loop
         vertex 1.220792e+003 1.335140e+003 1.879466e+003
         vertex 1.217792e+003 1.335140e+003 1.879466e+003
         vertex 1.217792e+003 1.335417e+003 1.879490e+003
      endloop
   endfacet
   facet normal 4.433801e-018 5.807914e-002 -9.983120e-001
      outer loop
         vertex 1.220792e+003 1.335140e+003 1.879466e+003
         vertex 1.217792e+003 1.335417e+003 1.879490e+003
         vertex 1.220792e+003 1.335417e+003 1.879490e+003
      endloop
   endfacet
   facet normal 8.463851e-018 -5.807914e-002 -9.983120e-001
      outer loop
         vertex 1.220792e+003 1.335417e+003 1.879490e+003
         vertex 1.217792e+003 1.335417e+003 1.879490e+003
         vertex 1.217792e+003 1.335695e+003 1.879466e+003
      endloop
   endfacet
   facet normal 1.044605e-017 -1.161583e-001 -9.932307e-001
      outer loop
         vertex 1.220792e+003 1.335417e+003 1.879490e+003
         vertex 1.217792e+003 1.335695e+003 1.879466e+003
         vertex 1.220792e+003 1.335695e+003 1.879466e+003
      endloop
   endfacet
   facet normal 1.428458e-017 -2.305518e-001 -9.730601e-001
      outer loop
         vertex 1.220792e+003 1.335695e+003 1.879466e+003
         vertex 1.217792e+003 1.335695e+003 1.879466e+003
         vertex 1.217792e+003 1.335965e+003 1.879393e+003
      endloop
   endfacet
   facet normal 1.614091e-017 -2.868663e-001 -9.579706e-001
      outer loop
         vertex 1.220792e+003 1.335695e+003 1.879466e+003
         vertex 1.217792e+003 1.335965e+003 1.879393e+003
         vertex 1.220792e+003 1.335965e+003 1.879393e+003
      endloop
   endfacet
   facet normal 1.967128e-017 -3.960194e-001 -9.182422e-001
      outer loop
         vertex 1.220792e+003 1.335965e+003 1.879393e+003
         vertex 1.217792e+003 1.335965e+003 1.879393e+003
         vertex 1.217792e+003 1.336217e+003 1.879276e+003
      endloop
   endfacet
   facet normal 2.134532e-017 -4.488580e-001 -8.936031e-001
      outer loop
         vertex 1.220792e+003 1.335965e+003 1.879393e+003
         vertex 1.217792e+003 1.336217e+003 1.879276e+003
         vertex 1.220792e+003 1.336217e+003 1.879276e+003
      endloop
   endfacet
   facet normal 2.446027e-017 -5.494540e-001 -8.355240e-001
      outer loop
         vertex 1.220792e+003 1.336217e+003 1.879276e+003
         vertex 1.217792e+003 1.336217e+003 1.879276e+003
         vertex 1.217792e+003 1.336446e+003 1.879116e+003
      endloop
   endfacet
   facet normal 2.590118e-017 -5.972114e-001 -8.020839e-001
      outer loop
         vertex 1.220792e+003 1.336217e+003 1.879276e+003
         vertex 1.217792e+003 1.336446e+003 1.879116e+003
         vertex 1.220792e+003 1.336446e+003 1.879116e+003
      endloop
   endfacet
   facet normal 2.850606e-017 -6.861938e-001 -7.274188e-001
      outer loop
         vertex 1.220792e+003 1.336446e+003 1.879116e+003
         vertex 1.217792e+003 1.336446e+003 1.879116e+003
         vertex 1.217792e+003 1.336643e+003 1.878918e+003
      endloop
   endfacet
   facet normal 2.967004e-017 -7.274188e-001 -6.861938e-001
      outer loop
         vertex 1.220792e+003 1.336446e+003 1.879116e+003
         vertex 1.217792e+003 1.336643e+003 1.878918e+003
         vertex 1.220792e+003 1.336643e+003 1.878918e+003
      endloop
   endfacet
   facet normal 3.168570e-017 -8.020839e-001 -5.972114e-001
      outer loop
         vertex 1.220792e+003 1.336643e+003 1.878918e+003
         vertex 1.217792e+003 1.336643e+003 1.878918e+003
         vertex 1.217792e+003 1.336803e+003 1.878690e+003
      endloop
   endfacet
   facet normal 3.253738e-017 -8.355240e-001 -5.494540e-001
      outer loop
         vertex 1.220792e+003 1.336643e+003 1.878918e+003
         vertex 1.217792e+003 1.336803e+003 1.878690e+003
         vertex 1.220792e+003 1.336803e+003 1.878690e+003
      endloop
   endfacet
   facet normal 3.390259e-017 -8.936031e-001 -4.488580e-001
      outer loop
         vertex 1.220792e+003 1.336803e+003 1.878690e+003
         vertex 1.217792e+003 1.336803e+003 1.878690e+003
         vertex 1.217792e+003 1.336921e+003 1.878437e+003
      endloop
   endfacet
   facet normal 3.441610e-017 -9.182422e-001 -3.960194e-001
      outer loop
         vertex 1.220792e+003 1.336803e+003 1.878690e+003
         vertex 1.217792e+003 1.336921e+003 1.878437e+003
         vertex 1.220792e+003 1.336921e+003 1.878437e+003
      endloop
   endfacet
   facet normal 3.508936e-017 -9.579706e-001 -2.868663e-001
      outer loop
         vertex 1.220792e+003 1.336921e+003 1.878437e+003
         vertex 1.217792e+003 1.336921e+003 1.878437e+003
         vertex 1.217792e+003 1.336993e+003 1.878168e+003
      endloop
   endfacet
   facet normal 3.524910e-017 -9.730601e-001 -2.305518e-001
      outer loop
         vertex 1.220792e+003 1.336921e+003 1.878437e+003
         vertex 1.217792e+003 1.336993e+003 1.878168e+003
         vertex 1.220792e+003 1.336993e+003 1.878168e+003
      endloop
   endfacet
   facet normal 3.520997e-017 -9.932307e-001 -1.161583e-001
      outer loop
         vertex 1.220792e+003 1.336993e+003 1.878168e+003
         vertex 1.217792e+003 1.336993e+003 1.878168e+003
         vertex 1.217792e+003 1.337017e+003 1.877890e+003
      endloop
   endfacet
   facet normal 3.501108e-017 -9.983120e-001 -5.807914e-002
      outer loop
         vertex 1.220792e+003 1.350993e+003 1.878168e+003
         vertex 1.217792e+003 1.351017e+003 1.877890e+003
         vertex 1.220792e+003 1.351017e+003 1.877890e+003
      endloop
   endfacet
   facet normal 3.426073e-017 -9.983120e-001 5.807914e-002
      outer loop
         vertex 1.220792e+003 1.351017e+003 1.877890e+003
         vertex 1.217792e+003 1.351017e+003 1.877890e+003
         vertex 1.217792e+003 1.350993e+003 1.877612e+003
      endloop
   endfacet
   facet normal 3.370926e-017 -9.932307e-001 1.161583e-001
      outer loop
         vertex 1.220792e+003 1.351017e+003 1.877890e+003
         vertex 1.217792e+003 1.350993e+003 1.877612e+003
         vertex 1.220792e+003 1.350993e+003 1.877612e+003
      endloop
   endfacet
   facet normal 3.227050e-017 -9.730601e-001 2.305518e-001
      outer loop
         vertex 1.220792e+003 1.350993e+003 1.877612e+003
         vertex 1.217792e+003 1.350993e+003 1.877612e+003
         vertex 1.217792e+003 1.350921e+003 1.877343e+003
      endloop
   endfacet
   facet normal 3.138320e-017 -9.579706e-001 2.868663e-001
      outer loop
         vertex 1.220792e+003 1.350993e+003 1.877612e+003
         vertex 1.217792e+003 1.350921e+003 1.877343e+003
         vertex 1.220792e+003 1.350921e+003 1.877343e+003
      endloop
   endfacet
   facet normal 2.929975e-017 -9.182422e-001 3.960194e-001
      outer loop
         vertex 1.220792e+003 1.350921e+003 1.877343e+003
         vertex 1.217792e+003 1.350921e+003 1.877343e+003
         vertex 1.217792e+003 1.350803e+003 1.877090e+003
      endloop
   endfacet
   facet normal 2.810358e-017 -8.936031e-001 4.488580e-001
      outer loop
         vertex 1.220792e+003 1.350921e+003 1.877343e+003
         vertex 1.217792e+003 1.350803e+003 1.877090e+003
         vertex 1.220792e+003 1.350803e+003 1.877090e+003
      endloop
   endfacet
   facet normal 2.543874e-017 -8.355240e-001 5.494540e-001
      outer loop
         vertex 1.220792e+003 1.350803e+003 1.877090e+003
         vertex 1.217792e+003 1.350803e+003 1.877090e+003
         vertex 1.217792e+003 1.350643e+003 1.876861e+003
      endloop
   endfacet
   facet normal 2.397005e-017 -8.020839e-001 5.972114e-001
      outer loop
         vertex 1.220792e+003 1.350803e+003 1.877090e+003
         vertex 1.217792e+003 1.350643e+003 1.876861e+003
         vertex 1.220792e+003 1.350643e+003 1.876861e+003
      endloop
   endfacet
   facet normal 2.080478e-017 -7.274188e-001 6.861938e-001
      outer loop
         vertex 1.220792e+003 1.350643e+003 1.876861e+003
         vertex 1.217792e+003 1.350643e+003 1.876861e+003
         vertex 1.217792e+003 1.350446e+003 1.876664e+003
      endloop
   endfacet
   facet normal 1.910820e-017 -6.861938e-001 7.274188e-001
      outer loop
         vertex 1.220792e+003 1.350643e+003 1.876861e+003
         vertex 1.217792e+003 1.350446e+003 1.876664e+003
         vertex 1.220792e+003 1.350446e+003 1.876664e+003
      endloop
   endfacet
   facet normal 1.553869e-017 -5.972114e-001 8.020839e-001
      outer loop
         vertex 1.220792e+003 1.350446e+003 1.876664e+003
         vertex 1.217792e+003 1.350446e+003 1.876664e+003
         vertex 1.217792e+003 1.350217e+003 1.876504e+003
      endloop
   endfacet
   facet normal 1.366575e-017 -5.494540e-001 8.355240e-001
      outer loop
         vertex 1.220792e+003 1.350446e+003 1.876664e+003
         vertex 1.217792e+003 1.350217e+003 1.876504e+003
         vertex 1.220792e+003 1.350217e+003 1.876504e+003
      endloop
   endfacet
   facet normal 9.800455e-018 -4.488580e-001 8.936031e-001
      outer loop
         vertex 1.220792e+003 1.350217e+003 1.876504e+003
         vertex 1.217792e+003 1.350217e+003 1.876504e+003
         vertex 1.217792e+003 1.349965e+003 1.876386e+003
      endloop
   endfacet
   facet normal 7.808085e-018 -3.960194e-001 9.182422e-001
      outer loop
         vertex 1.220792e+003 1.350217e+003 1.876504e+003
         vertex 1.217792e+003 1.349965e+003 1.876386e+003
         vertex 1.220792e+003 1.349965e+003 1.876386e+003
      endloop
   endfacet
   facet normal 3.764441e-018 -2.868663e-001 9.579706e-001
      outer loop
         vertex 1.220792e+003 1.349965e+003 1.876386e+003
         vertex 1.217792e+003 1.349965e+003 1.876386e+003
         vertex 1.217792e+003 1.349695e+003 1.876314e+003
      endloop
   endfacet
   facet normal 1.713168e-018 -2.305518e-001 9.730601e-001
      outer loop
         vertex 1.220792e+003 1.349965e+003 1.876386e+003
         vertex 1.217792e+003 1.349695e+003 1.876314e+003
         vertex 1.220792e+003 1.349695e+003 1.876314e+003
      endloop
   endfacet
   facet normal -2.385953e-018 -1.161583e-001 9.932307e-001
      outer loop
         vertex 1.220792e+003 1.349695e+003 1.876314e+003
         vertex 1.217792e+003 1.349695e+003 1.876314e+003
         vertex 1.217792e+003 1.349417e+003 1.876290e+003
      endloop
   endfacet
   facet normal -4.433801e-018 -5.807914e-002 9.983120e-001
      outer loop
         vertex 1.220792e+003 1.349695e+003 1.876314e+003
         vertex 1.217792e+003 1.349417e+003 1.876290e+003
         vertex 1.220792e+003 1.349417e+003 1.876290e+003
      endloop
   endfacet
   facet normal -8.463851e-018 5.807914e-002 9.983120e-001
      outer loop
         vertex 1.220792e+003 1.349417e+003 1.876290e+003
         vertex 1.217792e+003 1.349417e+003 1.876290e+003
         vertex 1.217792e+003 1.349139e+003 1.876314e+003
      endloop
   endfacet
   facet normal -1.044605e-017 1.161583e-001 9.932307e-001
      outer loop
         vertex 1.220792e+003 1.349417e+003 1.876290e+003
         vertex 1.217792e+003 1.349139e+003 1.876314e+003
         vertex 1.220792e+003 1.349139e+003 1.876314e+003
      endloop
   endfacet
   facet normal -1.428458e-017 2.305518e-001 9.730601e-001
      outer loop
         vertex 1.220792e+003 1.349139e+003 1.876314e+003
         vertex 1.217792e+003 1.349139e+003 1.876314e+003
         vertex 1.217792e+003 1.348870e+003 1.876386e+003
      endloop
   endfacet
   facet normal -1.614091e-017 2.868663e-001 9.579706e-001
      outer loop
         vertex 1.220792e+003 1.349139e+003 1.876314e+003
         vertex 1.217792e+003 1.348870e+003 1.876386e+003
         vertex 1.220792e+003 1.348870e+003 1.876386e+003
      endloop
   endfacet
   facet normal -1.967128e-017 3.960194e-001 9.182422e-001
      outer loop
         vertex 1.220792e+003 1.348870e+003 1.876386e+003
         vertex 1.217792e+003 1.348870e+003 1.876386e+003
         vertex 1.217792e+003 1.348617e+003 1.876504e+003
      endloop
   endfacet
   facet normal -2.134532e-017 4.488580e-001 8.936031e-001
      outer loop
         vertex 1.220792e+003 1.348870e+003 1.876386e+003
         vertex 1.217792e+003 1.348617e+003 1.876504e+003
         vertex 1.220792e+003 1.348617e+003 1.876504e+003
      endloop
   endfacet
   facet normal -2.446027e-017 5.494540e-001 8.355240e-001
      outer loop
         vertex 1.220792e+003 1.348617e+003 1.876504e+003
         vertex 1.217792e+003 1.348617e+003 1.876504e+003
         vertex 1.217792e+003 1.348389e+003 1.876664e+003
      endloop
   endfacet
   facet normal -2.590118e-017 5.972114e-001 8.020839e-001
      outer loop
         vertex 1.220792e+003 1.348617e+003 1.876504e+003
         vertex 1.217792e+003 1.348389e+003 1.876664e+003
         vertex 1.220792e+003 1.348389e+003 1.876664e+003
      endloop
   endfacet
   facet normal -2.850606e-017 6.861938e-001 7.274188e-001
      outer loop
         vertex 1.220792e+003 1.348389e+003 1.876664e+003
         vertex 1.217792e+003 1.348389e+003 1.876664e+003
         vertex 1.217792e+003 1.348192e+003 1.876861e+003
      endloop
   endfacet
   facet normal -2.967004e-017 7.274188e-001 6.861938e-001
      outer loop
         vertex 1.220792e+003 1.348389e+003 1.876664e+003
         vertex 1.217792e+003 1.348192e+003 1.876861e+003
         vertex 1.220792e+003 1.348192e+003 1.876861e+003
      endloop
   endfacet
   facet normal -3.168570e-017 8.020839e-001 5.972114e-001
      outer loop
         vertex 1.220792e+003 1.348192e+003 1.876861e+003
         vertex 1.217792e+003 1.348192e+003 1.876861e+003
         vertex 1.217792e+003 1.348032e+003 1.877090e+003
      endloop
   endfacet
   facet normal -3.253738e-017 8.355240e-001 5.494540e-001
      outer loop
         vertex 1.220792e+003 1.348192e+003 1.876861e+003
         vertex 1.217792e+003 1.348032e+003 1.877090e+003
         vertex 1.220792e+003 1.348032e+003 1.877090e+003
      endloop
   endfacet
   facet normal -3.390259e-017 8.936031e-001 4.488580e-001
      outer loop
         vertex 1.220792e+003 1.348032e+003 1.877090e+003
         vertex 1.217792e+003 1.348032e+003 1.877090e+003
         vertex 1.217792e+003 1.347914e+003 1.877343e+003
      endloop
   endfacet
   facet normal -3.441610e-017 9.182422e-001 3.960194e-001
      outer loop
         vertex 1.220792e+003 1.348032e+003 1.877090e+003
         vertex 1.217792e+003 1.347914e+003 1.877343e+003
         vertex 1.220792e+003 1.347914e+003 1.877343e+003
      endloop
   endfacet
   facet normal -3.508936e-017 9.579706e-001 2.868663e-001
      outer loop
         vertex 1.220792e+003 1.347914e+003 1.877343e+003
         vertex 1.217792e+003 1.347914e+003 1.877343e+003
         vertex 1.217792e+003 1.347842e+003 1.877612e+003
      endloop
   endfacet
   facet normal -3.524910e-017 9.730601e-001 2.305518e-001
      outer loop
         vertex 1.220792e+003 1.347914e+003 1.877343e+003
         vertex 1.217792e+003 1.347842e+003 1.877612e+003
         vertex 1.220792e+003 1.347842e+003 1.877612e+003
      endloop
   endfacet
   facet normal -3.520997e-017 9.932307e-001 1.161583e-001
      outer loop
         vertex 1.220792e+003 1.347842e+003 1.877612e+003
         vertex 1.217792e+003 1.347842e+003 1.877612e+003
         vertex 1.217792e+003 1.347817e+003 1.877890e+003
      endloop
   endfacet
   facet normal -3.501108e-017 9.983120e-001 5.807914e-002
      outer loop
         vertex 1.220792e+003 1.347842e+003 1.877612e+003
         vertex 1.217792e+003 1.347817e+003 1.877890e+003
         vertex 1.220792e+003 1.347817e+003 1.877890e+003
      endloop
   endfacet
   facet normal -3.426073e-017 9.983120e-001 -5.807914e-002
      outer loop
         vertex 1.220792e+003 1.347817e+003 1.877890e+003
         vertex 1.217792e+003 1.347817e+003 1.877890e+003
         vertex 1.217792e+003 1.347842e+003 1.878168e+003
      endloop
   endfacet
   facet normal -3.370926e-017 9.932307e-001 -1.161583e-001
      outer loop
         vertex 1.220792e+003 1.347817e+003 1.877890e+003
         vertex 1.217792e+003 1.347842e+003 1.878168e+003
         vertex 1.220792e+003 1.347842e+003 1.878168e+003
      endloop
   endfacet
   facet normal -3.227050e-017 9.730601e-001 -2.305518e-001
      outer loop
         vertex 1.220792e+003 1.347842e+003 1.878168e+003
         vertex 1.217792e+003 1.347842e+003 1.878168e+003
         vertex 1.217792e+003 1.347914e+003 1.878437e+003
      endloop
   endfacet
   facet normal -3.138320e-017 9.579706e-001 -2.868663e-001
      outer loop
         vertex 1.220792e+003 1.347842e+003 1.878168e+003
         vertex 1.217792e+003 1.347914e+003 1.878437e+003
         vertex 1.220792e+003 1.347914e+003 1.878437e+003
      endloop
   endfacet
   facet normal -2.929975e-017 9.182422e-001 -3.960194e-001
      outer loop
         vertex 1.220792e+003 1.347914e+003 1.878437e+003
         vertex 1.217792e+003 1.347914e+003 1.878437e+003
         vertex 1.217792e+003 1.348032e+003 1.878690e+003
      endloop
   endfacet
   facet normal -2.810358e-017 8.936031e-001 -4.488580e-001
      outer loop
         vertex 1.220792e+003 1.347914e+003 1.878437e+003
         vertex 1.217792e+003 1.348032e+003 1.878690e+003
         vertex 1.220792e+003 1.348032e+003 1.878690e+003
      endloop
   endfacet
   facet normal -2.543874e-017 8.355240e-001 -5.494540e-001
      outer loop
         vertex 1.220792e+003 1.348032e+003 1.878690e+003
         vertex 1.217792e+003 1.348032e+003 1.878690e+003
         vertex 1.217792e+003 1.348192e+003 1.878918e+003
      endloop
   endfacet
   facet normal -2.397005e-017 8.020839e-001 -5.972114e-001
      outer loop
         vertex 1.220792e+003 1.348032e+003 1.878690e+003
         vertex 1.217792e+003 1.348192e+003 1.878918e+003
         vertex 1.220792e+003 1.348192e+003 1.878918e+003
      endloop
   endfacet
   facet normal -2.080478e-017 7.274188e-001 -6.861938e-001
      outer loop
         vertex 1.220792e+003 1.348192e+003 1.878918e+003
         vertex 1.217792e+003 1.348192e+003 1.878918e+003
         vertex 1.217792e+003 1.348389e+003 1.879116e+003
      endloop
   endfacet
   facet normal -1.910820e-017 6.861938e-001 -7.274188e-001
      outer loop
         vertex 1.220792e+003 1.348192e+003 1.878918e+003
         vertex 1.217792e+003 1.348389e+003 1.879116e+003
         vertex 1.220792e+003 1.348389e+003 1.879116e+003
      endloop
   endfacet
   facet normal -1.553869e-017 5.972114e-001 -8.020839e-001
      outer loop
         vertex 1.220792e+003 1.348389e+003 1.879116e+003
         vertex 1.217792e+003 1.348389e+003 1.879116e+003
         vertex 1.217792e+003 1.348617e+003 1.879276e+003
      endloop
   endfacet
   facet normal -1.366575e-017 5.494540e-001 -8.355240e-001
      outer loop
         vertex 1.220792e+003 1.348389e+003 1.879116e+003
         vertex 1.217792e+003 1.348617e+003 1.879276e+003
         vertex 1.220792e+003 1.348617e+003 1.879276e+003
      endloop
   endfacet
   facet normal -9.800455e-018 4.488580e-001 -8.936031e-001
      outer loop
         vertex 1.220792e+003 1.348617e+003 1.879276e+003
         vertex 1.217792e+003 1.348617e+003 1.879276e+003
         vertex 1.217792e+003 1.348870e+003 1.879393e+003
      endloop
   endfacet
   facet normal -7.808085e-018 3.960194e-001 -9.182422e-001
      outer loop
         vertex 1.220792e+003 1.348617e+003 1.879276e+003
         vertex 1.217792e+003 1.348870e+003 1.879393e+003
         vertex 1.220792e+003 1.348870e+003 1.879393e+003
      endloop
   endfacet
   facet normal -3.764441e-018 2.868663e-001 -9.579706e-001
      outer loop
         vertex 1.220792e+003 1.348870e+003 1.879393e+003
         vertex 1.217792e+003 1.348870e+003 1.879393e+003
         vertex 1.217792e+003 1.349139e+003 1.879466e+003
      endloop
   endfacet
   facet normal -1.713168e-018 2.305518e-001 -9.730601e-001
      outer loop
         vertex 1.220792e+003 1.348870e+003 1.879393e+003
         vertex 1.217792e+003 1.349139e+003 1.879466e+003
         vertex 1.220792e+003 1.349139e+003 1.879466e+003
      endloop
   endfacet
   facet normal 2.385953e-018 1.161583e-001 -9.932307e-001
      outer loop
         vertex 1.220792e+003 1.349139e+003 1.879466e+003
         vertex 1.217792e+003 1.349139e+003 1.879466e+003
         vertex 1.217792e+003 1.349417e+003 1.879490e+003
      endloop
   endfacet
   facet normal 4.433801e-018 5.807914e-002 -9.983120e-001
      outer loop
         vertex 1.220792e+003 1.349139e+003 1.879466e+003
         vertex 1.217792e+003 1.349417e+003 1.879490e+003
         vertex 1.220792e+003 1.349417e+003 1.879490e+003
      endloop
   endfacet
   facet normal 8.463851e-018 -5.807914e-002 -9.983120e-001
      outer loop
         vertex 1.220792e+003 1.349417e+003 1.879490e+003
         vertex 1.217792e+003 1.349417e+003 1.879490e+003
         vertex 1.217792e+003 1.349695e+003 1.879466e+003
      endloop
   endfacet
   facet normal 1.044605e-017 -1.161583e-001 -9.932307e-001
      outer loop
         vertex 1.220792e+003 1.349417e+003 1.879490e+003
         vertex 1.217792e+003 1.349695e+003 1.879466e+003
         vertex 1.220792e+003 1.349695e+003 1.879466e+003
      endloop
   endfacet
   facet normal 1.428458e-017 -2.305518e-001 -9.730601e-001
      outer loop
         vertex 1.220792e+003 1.349695e+003 1.879466e+003
         vertex 1.217792e+003 1.349695e+003 1.879466e+003
         vertex 1.217792e+003 1.349965e+003 1.879393e+003
      endloop
   endfacet
   facet normal 1.614091e-017 -2.868663e-001 -9.579706e-001
      outer loop
         vertex 1.220792e+003 1.349695e+003 1.879466e+003
         vertex 1.217792e+003 1.349965e+003 1.879393e+003
         vertex 1.220792e+003 1.349965e+003 1.879393e+003
      endloop
   endfacet
   facet normal 1.967128e-017 -3.960194e-001 -9.182422e-001
      outer loop
         vertex 1.220792e+003 1.349965e+003 1.879393e+003
         vertex 1.217792e+003 1.349965e+003 1.879393e+003
         vertex 1.217792e+003 1.350217e+003 1.879276e+003
      endloop
   endfacet
   facet normal 2.134532e-017 -4.488580e-001 -8.936031e-001
      outer loop
         vertex 1.220792e+003 1.349965e+003 1.879393e+003
         vertex 1.217792e+003 1.350217e+003 1.879276e+003
         vertex 1.220792e+003 1.350217e+003 1.879276e+003
      endloop
   endfacet
   facet normal 2.446027e-017 -5.494540e-001 -8.355240e-001
      outer loop
         vertex 1.220792e+003 1.350217e+003 1.879276e+003
         vertex 1.217792e+003 1.350217e+003 1.879276e+003
         vertex 1.217792e+003 1.350446e+003 1.879116e+003
      endloop
   endfacet
   facet normal 2.590118e-017 -5.972114e-001 -8.020839e-001
      outer loop
         vertex 1.220792e+003 1.350217e+003 1.879276e+003
         vertex 1.217792e+003 1.350446e+003 1.879116e+003
         vertex 1.220792e+003 1.350446e+003 1.879116e+003
      endloop
   endfacet
   facet normal 2.850606e-017 -6.861938e-001 -7.274188e-001
      outer loop
         vertex 1.220792e+003 1.350446e+003 1.879116e+003
         vertex 1.217792e+003 1.350446e+003 1.879116e+003
         vertex 1.217792e+003 1.350643e+003 1.878918e+003
      endloop
   endfacet
   facet normal 2.967004e-017 -7.274188e-001 -6.861938e-001
      outer loop
         vertex 1.220792e+003 1.350446e+003 1.879116e+003
         vertex 1.217792e+003 1.350643e+003 1.878918e+003
         vertex 1.220792e+003 1.350643e+003 1.878918e+003
      endloop
   endfacet
   facet normal 3.168570e-017 -8.020839e-001 -5.972114e-001
      outer loop
         vertex 1.220792e+003 1.350643e+003 1.878918e+003
         vertex 1.217792e+003 1.350643e+003 1.878918e+003
         vertex 1.217792e+003 1.350803e+003 1.878690e+003
      endloop
   endfacet
   facet normal 3.253738e-017 -8.355240e-001 -5.494540e-001
      outer loop
         vertex 1.220792e+003 1.350643e+003 1.878918e+003
         vertex 1.217792e+003 1.350803e+003 1.878690e+003
         vertex 1.220792e+003 1.350803e+003 1.878690e+003
      endloop
   endfacet
   facet normal 3.390259e-017 -8.936031e-001 -4.488580e-001
      outer loop
         vertex 1.220792e+003 1.350803e+003 1.878690e+003
         vertex 1.217792e+003 1.350803e+003 1.878690e+003
         vertex 1.217792e+003 1.350921e+003 1.878437e+003
      endloop
   endfacet
   facet normal 3.441610e-017 -9.182422e-001 -3.960194e-001
      outer loop
         vertex 1.220792e+003 1.350803e+003 1.878690e+003
         vertex 1.217792e+003 1.350921e+003 1.878437e+003
         vertex 1.220792e+003 1.350921e+003 1.878437e+003
      endloop
   endfacet
   facet normal 3.508936e-017 -9.579706e-001 -2.868663e-001
      outer loop
         vertex 1.220792e+003 1.350921e+003 1.878437e+003
         vertex 1.217792e+003 1.350921e+003 1.878437e+003
         vertex 1.217792e+003 1.350993e+003 1.878168e+003
      endloop
   endfacet
   facet normal 3.524910e-017 -9.730601e-001 -2.305518e-001
      outer loop
         vertex 1.220792e+003 1.350921e+003 1.878437e+003
         vertex 1.217792e+003 1.350993e+003 1.878168e+003
         vertex 1.220792e+003 1.350993e+003 1.878168e+003
      endloop
   endfacet
   facet normal 3.520997e-017 -9.932307e-001 -1.161583e-001
      outer loop
         vertex 1.220792e+003 1.350993e+003 1.878168e+003
         vertex 1.217792e+003 1.350993e+003 1.878168e+003
         vertex 1.217792e+003 1.351017e+003 1.877890e+003
      endloop
   endfacet
endsolid