solid 09.025.00.00.000 - 09.025.00.08.000-1 09.025.00.08.020-2
   facet normal 6.245005e-017 -1.000000e+000 6.367905e-016
      outer loop
         vertex 1.220792e+003 5.334174e+002 1.877390e+003
         vertex 1.220792e+003 5.334174e+002 1.880890e+003
         vertex 1.217792e+003 5.334174e+002 1.877390e+003
      endloop
   endfacet
   facet normal 6.245005e-017 -1.000000e+000 6.367905e-016
      outer loop
         vertex 1.217792e+003 5.334174e+002 1.877390e+003
         vertex 1.220792e+003 5.334174e+002 1.880890e+003
         vertex 1.217792e+003 5.334174e+002 1.880890e+003
      endloop
   endfacet
   facet normal -6.459731e-018 6.407581e-016 1.000000e+000
      outer loop
         vertex 1.217792e+003 5.554174e+002 1.880890e+003
         vertex 1.217792e+003 5.334174e+002 1.880890e+003
         vertex 1.220792e+003 5.554174e+002 1.880890e+003
      endloop
   endfacet
   facet normal -6.459731e-018 6.407581e-016 1.000000e+000
      outer loop
         vertex 1.220792e+003 5.554174e+002 1.880890e+003
         vertex 1.217792e+003 5.334174e+002 1.880890e+003
         vertex 1.220792e+003 5.334174e+002 1.880890e+003
      endloop
   endfacet
   facet normal -6.245005e-017 1.000000e+000 -6.367905e-016
      outer loop
         vertex 1.217792e+003 5.554174e+002 1.873390e+003
         vertex 1.217792e+003 5.554174e+002 1.880890e+003
         vertex 1.220792e+003 5.554174e+002 1.873390e+003
      endloop
   endfacet
   facet normal -6.245005e-017 1.000000e+000 -6.367905e-016
      outer loop
         vertex 1.220792e+003 5.554174e+002 1.873390e+003
         vertex 1.217792e+003 5.554174e+002 1.880890e+003
         vertex 1.220792e+003 5.554174e+002 1.880890e+003
      endloop
   endfacet
   facet normal 6.459731e-018 -6.407581e-016 -1.000000e+000
      outer loop
         vertex 1.217792e+003 5.374174e+002 1.873390e+003
         vertex 1.217792e+003 5.554174e+002 1.873390e+003
         vertex 1.220792e+003 5.374174e+002 1.873390e+003
      endloop
   endfacet
   facet normal 6.459731e-018 -6.407581e-016 -1.000000e+000
      outer loop
         vertex 1.220792e+003 5.374174e+002 1.873390e+003
         vertex 1.217792e+003 5.554174e+002 1.873390e+003
         vertex 1.220792e+003 5.554174e+002 1.873390e+003
      endloop
   endfacet
   facet normal -1.000000e+000 -1.040834e-016 1.026531e-018
      outer loop
         vertex 1.217792e+003 5.382173e+002 1.876504e+003
         vertex 1.217792e+003 5.501917e+002 1.878918e+003
         vertex 1.217792e+003 5.379646e+002 1.876386e+003
      endloop
   endfacet
   facet normal -1.000000e+000 -1.040834e-016 1.026531e-018
      outer loop
         vertex 1.217792e+003 5.379646e+002 1.876386e+003
         vertex 1.217792e+003 5.501917e+002 1.878918e+003
         vertex 1.217792e+003 5.376952e+002 1.876314e+003
      endloop
   endfacet
   facet normal -1.000000e+000 -1.040834e-016 1.026531e-018
      outer loop
         vertex 1.217792e+003 5.511395e+002 1.879466e+003
         vertex 1.217792e+003 5.508701e+002 1.879393e+003
         vertex 1.217792e+003 5.389930e+002 1.877612e+003
      endloop
   endfacet
   facet normal -1.000000e+000 -1.040834e-016 1.026531e-018
      outer loop
         vertex 1.217792e+003 5.389930e+002 1.877612e+003
         vertex 1.217792e+003 5.508701e+002 1.879393e+003
         vertex 1.217792e+003 5.506173e+002 1.879276e+003
      endloop
   endfacet
   facet normal -1.000000e+000 -1.040834e-016 1.026531e-018
      outer loop
         vertex 1.217792e+003 5.382173e+002 1.876504e+003
         vertex 1.217792e+003 5.384458e+002 1.876664e+003
         vertex 1.217792e+003 5.501917e+002 1.878918e+003
      endloop
   endfacet
   facet normal -1.000000e+000 -1.040834e-016 1.026531e-018
      outer loop
         vertex 1.217792e+003 5.501917e+002 1.878918e+003
         vertex 1.217792e+003 5.384458e+002 1.876664e+003
         vertex 1.217792e+003 5.386430e+002 1.876861e+003
      endloop
   endfacet
   facet normal -1.000000e+000 -1.040834e-016 1.026531e-018
      outer loop
         vertex 1.217792e+003 5.501917e+002 1.878918e+003
         vertex 1.217792e+003 5.386430e+002 1.876861e+003
         vertex 1.217792e+003 5.388030e+002 1.877090e+003
      endloop
   endfacet
   facet normal -1.000000e+000 -1.040834e-016 1.026531e-018
      outer loop
         vertex 1.217792e+003 5.498173e+002 1.877890e+003
         vertex 1.217792e+003 5.498416e+002 1.877612e+003
         vertex 1.217792e+003 5.374174e+002 1.873390e+003
      endloop
   endfacet
   facet normal -1.000000e+000 -1.040834e-016 1.026531e-018
      outer loop
         vertex 1.217792e+003 5.374174e+002 1.873390e+003
         vertex 1.217792e+003 5.498416e+002 1.877612e+003
         vertex 1.217792e+003 5.499138e+002 1.877343e+003
      endloop
   endfacet
   facet normal -1.000000e+000 -1.040834e-016 1.026531e-018
      outer loop
         vertex 1.217792e+003 5.506173e+002 1.879276e+003
         vertex 1.217792e+003 5.503889e+002 1.879116e+003
         vertex 1.217792e+003 5.389930e+002 1.877612e+003
      endloop
   endfacet
   facet normal -1.000000e+000 -1.040834e-016 1.026531e-018
      outer loop
         vertex 1.217792e+003 5.389930e+002 1.877612e+003
         vertex 1.217792e+003 5.503889e+002 1.879116e+003
         vertex 1.217792e+003 5.501917e+002 1.878918e+003
      endloop
   endfacet
   facet normal -1.000000e+000 -1.040834e-016 1.026531e-018
      outer loop
         vertex 1.217792e+003 5.389930e+002 1.877612e+003
         vertex 1.217792e+003 5.501917e+002 1.878918e+003
         vertex 1.217792e+003 5.389208e+002 1.877343e+003
      endloop
   endfacet
   facet normal -1.000000e+000 -1.040834e-016 1.026531e-018
      outer loop
         vertex 1.217792e+003 5.389208e+002 1.877343e+003
         vertex 1.217792e+003 5.501917e+002 1.878918e+003
         vertex 1.217792e+003 5.388030e+002 1.877090e+003
      endloop
   endfacet
   facet normal -1.000000e+000 -1.040834e-016 1.026531e-018
      outer loop
         vertex 1.217792e+003 5.529930e+002 1.878168e+003
         vertex 1.217792e+003 5.529208e+002 1.878437e+003
         vertex 1.217792e+003 5.554174e+002 1.880890e+003
      endloop
   endfacet
   facet normal -1.000000e+000 -1.040834e-016 1.026531e-018
      outer loop
         vertex 1.217792e+003 5.554174e+002 1.880890e+003
         vertex 1.217792e+003 5.529208e+002 1.878437e+003
         vertex 1.217792e+003 5.528030e+002 1.878690e+003
      endloop
   endfacet
   facet normal -1.000000e+000 -1.040834e-016 1.026531e-018
      outer loop
         vertex 1.217792e+003 5.554174e+002 1.880890e+003
         vertex 1.217792e+003 5.528030e+002 1.878690e+003
         vertex 1.217792e+003 5.526430e+002 1.878918e+003
      endloop
   endfacet
   facet normal -1.000000e+000 -1.040834e-016 1.026531e-018
      outer loop
         vertex 1.217792e+003 5.499138e+002 1.877343e+003
         vertex 1.217792e+003 5.500317e+002 1.877090e+003
         vertex 1.217792e+003 5.374174e+002 1.873390e+003
      endloop
   endfacet
   facet normal -1.000000e+000 -1.040834e-016 1.026531e-018
      outer loop
         vertex 1.217792e+003 5.374174e+002 1.873390e+003
         vertex 1.217792e+003 5.500317e+002 1.877090e+003
         vertex 1.217792e+003 5.501917e+002 1.876861e+003
      endloop
   endfacet
   facet normal -1.000000e+000 -1.040834e-016 1.026531e-018
      outer loop
         vertex 1.217792e+003 5.374174e+002 1.873390e+003
         vertex 1.217792e+003 5.501917e+002 1.876861e+003
         vertex 1.217792e+003 5.503889e+002 1.876664e+003
      endloop
   endfacet
   facet normal -1.000000e+000 -1.040834e-016 1.026531e-018
      outer loop
         vertex 1.217792e+003 5.528030e+002 1.877090e+003
         vertex 1.217792e+003 5.529208e+002 1.877343e+003
         vertex 1.217792e+003 5.554174e+002 1.873390e+003
      endloop
   endfacet
   facet normal -1.000000e+000 -1.040834e-016 1.026531e-018
      outer loop
         vertex 1.217792e+003 5.554174e+002 1.873390e+003
         vertex 1.217792e+003 5.529208e+002 1.877343e+003
         vertex 1.217792e+003 5.529930e+002 1.877612e+003
      endloop
   endfacet
   facet normal -1.000000e+000 -1.040834e-016 1.026531e-018
      outer loop
         vertex 1.217792e+003 5.554174e+002 1.873390e+003
         vertex 1.217792e+003 5.529930e+002 1.877612e+003
         vertex 1.217792e+003 5.554174e+002 1.880890e+003
      endloop
   endfacet
   facet normal -1.000000e+000 -1.040834e-016 1.026531e-018
      outer loop
         vertex 1.217792e+003 5.554174e+002 1.880890e+003
         vertex 1.217792e+003 5.529930e+002 1.877612e+003
         vertex 1.217792e+003 5.530173e+002 1.877890e+003
      endloop
   endfacet
   facet normal -1.000000e+000 -1.040834e-016 1.026531e-018
      outer loop
         vertex 1.217792e+003 5.554174e+002 1.880890e+003
         vertex 1.217792e+003 5.530173e+002 1.877890e+003
         vertex 1.217792e+003 5.529930e+002 1.878168e+003
      endloop
   endfacet
   facet normal -1.000000e+000 -1.040834e-016 1.026531e-018
      outer loop
         vertex 1.217792e+003 5.334174e+002 1.880890e+003
         vertex 1.217792e+003 5.363889e+002 1.879116e+003
         vertex 1.217792e+003 5.361917e+002 1.878918e+003
      endloop
   endfacet
   facet normal -1.000000e+000 -1.040834e-016 1.026531e-018
      outer loop
         vertex 1.217792e+003 5.526430e+002 1.878918e+003
         vertex 1.217792e+003 5.524457e+002 1.879116e+003
         vertex 1.217792e+003 5.554174e+002 1.880890e+003
      endloop
   endfacet
   facet normal -1.000000e+000 -1.040834e-016 1.026531e-018
      outer loop
         vertex 1.217792e+003 5.554174e+002 1.880890e+003
         vertex 1.217792e+003 5.524457e+002 1.879116e+003
         vertex 1.217792e+003 5.522173e+002 1.879276e+003
      endloop
   endfacet
   facet normal -1.000000e+000 -1.040834e-016 1.026531e-018
      outer loop
         vertex 1.217792e+003 5.554174e+002 1.880890e+003
         vertex 1.217792e+003 5.522173e+002 1.879276e+003
         vertex 1.217792e+003 5.519646e+002 1.879393e+003
      endloop
   endfacet
   facet normal -1.000000e+000 -1.040834e-016 1.026531e-018
      outer loop
         vertex 1.217792e+003 5.358416e+002 1.878168e+003
         vertex 1.217792e+003 5.334174e+002 1.877390e+003
         vertex 1.217792e+003 5.359138e+002 1.878437e+003
      endloop
   endfacet
   facet normal -1.000000e+000 -1.040834e-016 1.026531e-018
      outer loop
         vertex 1.217792e+003 5.359138e+002 1.878437e+003
         vertex 1.217792e+003 5.334174e+002 1.877390e+003
         vertex 1.217792e+003 5.334174e+002 1.880890e+003
      endloop
   endfacet
   facet normal -1.000000e+000 -1.040834e-016 1.026531e-018
      outer loop
         vertex 1.217792e+003 5.359138e+002 1.878437e+003
         vertex 1.217792e+003 5.334174e+002 1.880890e+003
         vertex 1.217792e+003 5.360317e+002 1.878690e+003
      endloop
   endfacet
   facet normal -1.000000e+000 -1.040834e-016 1.026531e-018
      outer loop
         vertex 1.217792e+003 5.360317e+002 1.878690e+003
         vertex 1.217792e+003 5.334174e+002 1.880890e+003
         vertex 1.217792e+003 5.361917e+002 1.878918e+003
      endloop
   endfacet
   facet normal -1.000000e+000 -1.040834e-016 1.026531e-018
      outer loop
         vertex 1.217792e+003 5.358416e+002 1.878168e+003
         vertex 1.217792e+003 5.358173e+002 1.877890e+003
         vertex 1.217792e+003 5.334174e+002 1.877390e+003
      endloop
   endfacet
   facet normal -1.000000e+000 -1.040834e-016 1.026531e-018
      outer loop
         vertex 1.217792e+003 5.334174e+002 1.877390e+003
         vertex 1.217792e+003 5.358173e+002 1.877890e+003
         vertex 1.217792e+003 5.358416e+002 1.877612e+003
      endloop
   endfacet
   facet normal -1.000000e+000 -1.040834e-016 1.026531e-018
      outer loop
         vertex 1.217792e+003 5.334174e+002 1.877390e+003
         vertex 1.217792e+003 5.358416e+002 1.877612e+003
         vertex 1.217792e+003 5.359138e+002 1.877343e+003
      endloop
   endfacet
   facet normal -1.000000e+000 -1.040834e-016 1.026531e-018
      outer loop
         vertex 1.217792e+003 5.503889e+002 1.876664e+003
         vertex 1.217792e+003 5.506173e+002 1.876504e+003
         vertex 1.217792e+003 5.374174e+002 1.873390e+003
      endloop
   endfacet
   facet normal -1.000000e+000 -1.040834e-016 1.026531e-018
      outer loop
         vertex 1.217792e+003 5.374174e+002 1.873390e+003
         vertex 1.217792e+003 5.506173e+002 1.876504e+003
         vertex 1.217792e+003 5.508701e+002 1.876386e+003
      endloop
   endfacet
   facet normal -1.000000e+000 -1.040834e-016 1.026531e-018
      outer loop
         vertex 1.217792e+003 5.374174e+002 1.873390e+003
         vertex 1.217792e+003 5.508701e+002 1.876386e+003
         vertex 1.217792e+003 5.554174e+002 1.873390e+003
      endloop
   endfacet
   facet normal -1.000000e+000 -1.040834e-016 1.026531e-018
      outer loop
         vertex 1.217792e+003 5.554174e+002 1.873390e+003
         vertex 1.217792e+003 5.508701e+002 1.876386e+003
         vertex 1.217792e+003 5.511395e+002 1.876314e+003
      endloop
   endfacet
   facet normal -1.000000e+000 -1.040834e-016 1.026531e-018
      outer loop
         vertex 1.217792e+003 5.554174e+002 1.873390e+003
         vertex 1.217792e+003 5.511395e+002 1.876314e+003
         vertex 1.217792e+003 5.514174e+002 1.876290e+003
      endloop
   endfacet
   facet normal -1.000000e+000 -1.040834e-016 1.026531e-018
      outer loop
         vertex 1.217792e+003 5.359138e+002 1.877343e+003
         vertex 1.217792e+003 5.360317e+002 1.877090e+003
         vertex 1.217792e+003 5.334174e+002 1.877390e+003
      endloop
   endfacet
   facet normal -1.000000e+000 -1.040834e-016 1.026531e-018
      outer loop
         vertex 1.217792e+003 5.334174e+002 1.877390e+003
         vertex 1.217792e+003 5.360317e+002 1.877090e+003
         vertex 1.217792e+003 5.361917e+002 1.876861e+003
      endloop
   endfacet
   facet normal -1.000000e+000 -1.040834e-016 1.026531e-018
      outer loop
         vertex 1.217792e+003 5.334174e+002 1.877390e+003
         vertex 1.217792e+003 5.361917e+002 1.876861e+003
         vertex 1.217792e+003 5.374174e+002 1.873390e+003
      endloop
   endfacet
   facet normal -1.000000e+000 -1.040834e-016 1.026531e-018
      outer loop
         vertex 1.217792e+003 5.514174e+002 1.876290e+003
         vertex 1.217792e+003 5.516952e+002 1.876314e+003
         vertex 1.217792e+003 5.554174e+002 1.873390e+003
      endloop
   endfacet
   facet normal -1.000000e+000 -1.040834e-016 1.026531e-018
      outer loop
         vertex 1.217792e+003 5.554174e+002 1.873390e+003
         vertex 1.217792e+003 5.516952e+002 1.876314e+003
         vertex 1.217792e+003 5.519646e+002 1.876386e+003
      endloop
   endfacet
   facet normal -1.000000e+000 -1.040834e-016 1.026531e-018
      outer loop
         vertex 1.217792e+003 5.554174e+002 1.873390e+003
         vertex 1.217792e+003 5.519646e+002 1.876386e+003
         vertex 1.217792e+003 5.522173e+002 1.876504e+003
      endloop
   endfacet
   facet normal -1.000000e+000 -1.040834e-016 1.026531e-018
      outer loop
         vertex 1.217792e+003 5.371395e+002 1.879466e+003
         vertex 1.217792e+003 5.368701e+002 1.879393e+003
         vertex 1.217792e+003 5.334174e+002 1.880890e+003
      endloop
   endfacet
   facet normal -1.000000e+000 -1.040834e-016 1.026531e-018
      outer loop
         vertex 1.217792e+003 5.334174e+002 1.880890e+003
         vertex 1.217792e+003 5.368701e+002 1.879393e+003
         vertex 1.217792e+003 5.366173e+002 1.879276e+003
      endloop
   endfacet
   facet normal -1.000000e+000 -1.040834e-016 1.026531e-018
      outer loop
         vertex 1.217792e+003 5.334174e+002 1.880890e+003
         vertex 1.217792e+003 5.366173e+002 1.879276e+003
         vertex 1.217792e+003 5.363889e+002 1.879116e+003
      endloop
   endfacet
   facet normal -1.000000e+000 -1.040834e-016 1.026531e-018
      outer loop
         vertex 1.217792e+003 5.361917e+002 1.876861e+003
         vertex 1.217792e+003 5.363889e+002 1.876664e+003
         vertex 1.217792e+003 5.374174e+002 1.873390e+003
      endloop
   endfacet
   facet normal -1.000000e+000 -1.040834e-016 1.026531e-018
      outer loop
         vertex 1.217792e+003 5.374174e+002 1.873390e+003
         vertex 1.217792e+003 5.363889e+002 1.876664e+003
         vertex 1.217792e+003 5.366173e+002 1.876504e+003
      endloop
   endfacet
   facet normal -1.000000e+000 -1.040834e-016 1.026531e-018
      outer loop
         vertex 1.217792e+003 5.374174e+002 1.873390e+003
         vertex 1.217792e+003 5.366173e+002 1.876504e+003
         vertex 1.217792e+003 5.368701e+002 1.876386e+003
      endloop
   endfacet
   facet normal -1.000000e+000 -1.040834e-016 1.026531e-018
      outer loop
         vertex 1.217792e+003 5.522173e+002 1.876504e+003
         vertex 1.217792e+003 5.524457e+002 1.876664e+003
         vertex 1.217792e+003 5.554174e+002 1.873390e+003
      endloop
   endfacet
   facet normal -1.000000e+000 -1.040834e-016 1.026531e-018
      outer loop
         vertex 1.217792e+003 5.554174e+002 1.873390e+003
         vertex 1.217792e+003 5.524457e+002 1.876664e+003
         vertex 1.217792e+003 5.526430e+002 1.876861e+003
      endloop
   endfacet
   facet normal -1.000000e+000 -1.040834e-016 1.026531e-018
      outer loop
         vertex 1.217792e+003 5.554174e+002 1.873390e+003
         vertex 1.217792e+003 5.526430e+002 1.876861e+003
         vertex 1.217792e+003 5.528030e+002 1.877090e+003
      endloop
   endfacet
   facet normal -1.000000e+000 -1.040834e-016 1.026531e-018
      outer loop
         vertex 1.217792e+003 5.519646e+002 1.879393e+003
         vertex 1.217792e+003 5.516952e+002 1.879466e+003
         vertex 1.217792e+003 5.554174e+002 1.880890e+003
      endloop
   endfacet
   facet normal -1.000000e+000 -1.040834e-016 1.026531e-018
      outer loop
         vertex 1.217792e+003 5.554174e+002 1.880890e+003
         vertex 1.217792e+003 5.516952e+002 1.879466e+003
         vertex 1.217792e+003 5.514174e+002 1.879490e+003
      endloop
   endfacet
   facet normal -1.000000e+000 -1.040834e-016 1.026531e-018
      outer loop
         vertex 1.217792e+003 5.554174e+002 1.880890e+003
         vertex 1.217792e+003 5.514174e+002 1.879490e+003
         vertex 1.217792e+003 5.511395e+002 1.879466e+003
      endloop
   endfacet
   facet normal -1.000000e+000 -1.040834e-016 1.026531e-018
      outer loop
         vertex 1.217792e+003 5.388030e+002 1.878690e+003
         vertex 1.217792e+003 5.386430e+002 1.878918e+003
         vertex 1.217792e+003 5.554174e+002 1.880890e+003
      endloop
   endfacet
   facet normal -1.000000e+000 -1.040834e-016 1.026531e-018
      outer loop
         vertex 1.217792e+003 5.554174e+002 1.880890e+003
         vertex 1.217792e+003 5.386430e+002 1.878918e+003
         vertex 1.217792e+003 5.384458e+002 1.879116e+003
      endloop
   endfacet
   facet normal -1.000000e+000 -1.040834e-016 1.026531e-018
      outer loop
         vertex 1.217792e+003 5.554174e+002 1.880890e+003
         vertex 1.217792e+003 5.384458e+002 1.879116e+003
         vertex 1.217792e+003 5.382173e+002 1.879276e+003
      endloop
   endfacet
   facet normal -1.000000e+000 -1.040834e-016 1.026531e-018
      outer loop
         vertex 1.217792e+003 5.368701e+002 1.876386e+003
         vertex 1.217792e+003 5.371395e+002 1.876314e+003
         vertex 1.217792e+003 5.374174e+002 1.873390e+003
      endloop
   endfacet
   facet normal -1.000000e+000 -1.040834e-016 1.026531e-018
      outer loop
         vertex 1.217792e+003 5.374174e+002 1.873390e+003
         vertex 1.217792e+003 5.371395e+002 1.876314e+003
         vertex 1.217792e+003 5.374174e+002 1.876290e+003
      endloop
   endfacet
   facet normal -1.000000e+000 -1.040834e-016 1.026531e-018
      outer loop
         vertex 1.217792e+003 5.374174e+002 1.873390e+003
         vertex 1.217792e+003 5.374174e+002 1.876290e+003
         vertex 1.217792e+003 5.376952e+002 1.876314e+003
      endloop
   endfacet
   facet normal -1.000000e+000 -1.040834e-016 1.026531e-018
      outer loop
         vertex 1.217792e+003 5.389930e+002 1.877612e+003
         vertex 1.217792e+003 5.390173e+002 1.877890e+003
         vertex 1.217792e+003 5.511395e+002 1.879466e+003
      endloop
   endfacet
   facet normal -1.000000e+000 -1.040834e-016 1.026531e-018
      outer loop
         vertex 1.217792e+003 5.511395e+002 1.879466e+003
         vertex 1.217792e+003 5.390173e+002 1.877890e+003
         vertex 1.217792e+003 5.389930e+002 1.878168e+003
      endloop
   endfacet
   facet normal -1.000000e+000 -1.040834e-016 1.026531e-018
      outer loop
         vertex 1.217792e+003 5.511395e+002 1.879466e+003
         vertex 1.217792e+003 5.389930e+002 1.878168e+003
         vertex 1.217792e+003 5.554174e+002 1.880890e+003
      endloop
   endfacet
   facet normal -1.000000e+000 -1.040834e-016 1.026531e-018
      outer loop
         vertex 1.217792e+003 5.554174e+002 1.880890e+003
         vertex 1.217792e+003 5.389930e+002 1.878168e+003
         vertex 1.217792e+003 5.389208e+002 1.878437e+003
      endloop
   endfacet
   facet normal -1.000000e+000 -1.040834e-016 1.026531e-018
      outer loop
         vertex 1.217792e+003 5.554174e+002 1.880890e+003
         vertex 1.217792e+003 5.389208e+002 1.878437e+003
         vertex 1.217792e+003 5.388030e+002 1.878690e+003
      endloop
   endfacet
   facet normal -1.000000e+000 -1.040834e-016 1.026531e-018
      outer loop
         vertex 1.217792e+003 5.382173e+002 1.879276e+003
         vertex 1.217792e+003 5.379646e+002 1.879393e+003
         vertex 1.217792e+003 5.554174e+002 1.880890e+003
      endloop
   endfacet
   facet normal -1.000000e+000 -1.040834e-016 1.026531e-018
      outer loop
         vertex 1.217792e+003 5.554174e+002 1.880890e+003
         vertex 1.217792e+003 5.379646e+002 1.879393e+003
         vertex 1.217792e+003 5.376952e+002 1.879466e+003
      endloop
   endfacet
   facet normal -1.000000e+000 -1.040834e-016 1.026531e-018
      outer loop
         vertex 1.217792e+003 5.554174e+002 1.880890e+003
         vertex 1.217792e+003 5.376952e+002 1.879466e+003
         vertex 1.217792e+003 5.334174e+002 1.880890e+003
      endloop
   endfacet
   facet normal -1.000000e+000 -1.040834e-016 1.026531e-018
      outer loop
         vertex 1.217792e+003 5.334174e+002 1.880890e+003
         vertex 1.217792e+003 5.376952e+002 1.879466e+003
         vertex 1.217792e+003 5.374174e+002 1.879490e+003
      endloop
   endfacet
   facet normal -1.000000e+000 -1.040834e-016 1.026531e-018
      outer loop
         vertex 1.217792e+003 5.334174e+002 1.880890e+003
         vertex 1.217792e+003 5.374174e+002 1.879490e+003
         vertex 1.217792e+003 5.371395e+002 1.879466e+003
      endloop
   endfacet
   facet normal -1.000000e+000 -1.040834e-016 1.026531e-018
      outer loop
         vertex 1.217792e+003 5.501917e+002 1.878918e+003
         vertex 1.217792e+003 5.500317e+002 1.878690e+003
         vertex 1.217792e+003 5.376952e+002 1.876314e+003
      endloop
   endfacet
   facet normal -1.000000e+000 -1.040834e-016 1.026531e-018
      outer loop
         vertex 1.217792e+003 5.376952e+002 1.876314e+003
         vertex 1.217792e+003 5.500317e+002 1.878690e+003
         vertex 1.217792e+003 5.499138e+002 1.878437e+003
      endloop
   endfacet
   facet normal -1.000000e+000 -1.040834e-016 1.026531e-018
      outer loop
         vertex 1.217792e+003 5.376952e+002 1.876314e+003
         vertex 1.217792e+003 5.499138e+002 1.878437e+003
         vertex 1.217792e+003 5.374174e+002 1.873390e+003
      endloop
   endfacet
   facet normal -1.000000e+000 -1.040834e-016 1.026531e-018
      outer loop
         vertex 1.217792e+003 5.374174e+002 1.873390e+003
         vertex 1.217792e+003 5.499138e+002 1.878437e+003
         vertex 1.217792e+003 5.498416e+002 1.878168e+003
      endloop
   endfacet
   facet normal -1.000000e+000 -1.040834e-016 1.026531e-018
      outer loop
         vertex 1.217792e+003 5.374174e+002 1.873390e+003
         vertex 1.217792e+003 5.498416e+002 1.878168e+003
         vertex 1.217792e+003 5.498173e+002 1.877890e+003
      endloop
   endfacet
   facet normal 1.000000e+000 1.040834e-016 -1.026531e-018
      outer loop
         vertex 1.220792e+003 5.334174e+002 1.880890e+003
         vertex 1.220792e+003 5.499138e+002 1.878437e+003
         vertex 1.220792e+003 5.500317e+002 1.878690e+003
      endloop
   endfacet
   facet normal 1.000000e+000 1.040834e-016 -1.026531e-018
      outer loop
         vertex 1.220792e+003 5.334174e+002 1.877390e+003
         vertex 1.220792e+003 5.358173e+002 1.877890e+003
         vertex 1.220792e+003 5.358416e+002 1.878168e+003
      endloop
   endfacet
   facet normal 1.000000e+000 1.040834e-016 -1.026531e-018
      outer loop
         vertex 1.220792e+003 5.516952e+002 1.879466e+003
         vertex 1.220792e+003 5.519646e+002 1.879393e+003
         vertex 1.220792e+003 5.554174e+002 1.880890e+003
      endloop
   endfacet
   facet normal 1.000000e+000 1.040834e-016 -1.026531e-018
      outer loop
         vertex 1.220792e+003 5.529208e+002 1.878437e+003
         vertex 1.220792e+003 5.554174e+002 1.880890e+003
         vertex 1.220792e+003 5.528030e+002 1.878690e+003
      endloop
   endfacet
   facet normal 1.000000e+000 1.040834e-016 -1.026531e-018
      outer loop
         vertex 1.220792e+003 5.528030e+002 1.878690e+003
         vertex 1.220792e+003 5.554174e+002 1.880890e+003
         vertex 1.220792e+003 5.526430e+002 1.878918e+003
      endloop
   endfacet
   facet normal 1.000000e+000 1.040834e-016 -1.026531e-018
      outer loop
         vertex 1.220792e+003 5.529930e+002 1.877612e+003
         vertex 1.220792e+003 5.554174e+002 1.873390e+003
         vertex 1.220792e+003 5.530173e+002 1.877890e+003
      endloop
   endfacet
   facet normal 1.000000e+000 1.040834e-016 -1.026531e-018
      outer loop
         vertex 1.220792e+003 5.530173e+002 1.877890e+003
         vertex 1.220792e+003 5.554174e+002 1.873390e+003
         vertex 1.220792e+003 5.554174e+002 1.880890e+003
      endloop
   endfacet
   facet normal 1.000000e+000 1.040834e-016 -1.026531e-018
      outer loop
         vertex 1.220792e+003 5.530173e+002 1.877890e+003
         vertex 1.220792e+003 5.554174e+002 1.880890e+003
         vertex 1.220792e+003 5.529930e+002 1.878168e+003
      endloop
   endfacet
   facet normal 1.000000e+000 1.040834e-016 -1.026531e-018
      outer loop
         vertex 1.220792e+003 5.529930e+002 1.878168e+003
         vertex 1.220792e+003 5.554174e+002 1.880890e+003
         vertex 1.220792e+003 5.529208e+002 1.878437e+003
      endloop
   endfacet
   facet normal 1.000000e+000 1.040834e-016 -1.026531e-018
      outer loop
         vertex 1.220792e+003 5.529930e+002 1.877612e+003
         vertex 1.220792e+003 5.529208e+002 1.877343e+003
         vertex 1.220792e+003 5.554174e+002 1.873390e+003
      endloop
   endfacet
   facet normal 1.000000e+000 1.040834e-016 -1.026531e-018
      outer loop
         vertex 1.220792e+003 5.554174e+002 1.873390e+003
         vertex 1.220792e+003 5.529208e+002 1.877343e+003
         vertex 1.220792e+003 5.528030e+002 1.877090e+003
      endloop
   endfacet
   facet normal 1.000000e+000 1.040834e-016 -1.026531e-018
      outer loop
         vertex 1.220792e+003 5.554174e+002 1.873390e+003
         vertex 1.220792e+003 5.528030e+002 1.877090e+003
         vertex 1.220792e+003 5.526430e+002 1.876861e+003
      endloop
   endfacet
   facet normal 1.000000e+000 1.040834e-016 -1.026531e-018
      outer loop
         vertex 1.220792e+003 5.334174e+002 1.880890e+003
         vertex 1.220792e+003 5.360317e+002 1.878690e+003
         vertex 1.220792e+003 5.361917e+002 1.878918e+003
      endloop
   endfacet
   facet normal 1.000000e+000 1.040834e-016 -1.026531e-018
      outer loop
         vertex 1.220792e+003 5.361917e+002 1.878918e+003
         vertex 1.220792e+003 5.363889e+002 1.879116e+003
         vertex 1.220792e+003 5.334174e+002 1.880890e+003
      endloop
   endfacet
   facet normal 1.000000e+000 1.040834e-016 -1.026531e-018
      outer loop
         vertex 1.220792e+003 5.334174e+002 1.880890e+003
         vertex 1.220792e+003 5.363889e+002 1.879116e+003
         vertex 1.220792e+003 5.366173e+002 1.879276e+003
      endloop
   endfacet
   facet normal 1.000000e+000 1.040834e-016 -1.026531e-018
      outer loop
         vertex 1.220792e+003 5.334174e+002 1.880890e+003
         vertex 1.220792e+003 5.366173e+002 1.879276e+003
         vertex 1.220792e+003 5.368701e+002 1.879393e+003
      endloop
   endfacet
   facet normal 1.000000e+000 1.040834e-016 -1.026531e-018
      outer loop
         vertex 1.220792e+003 5.368701e+002 1.879393e+003
         vertex 1.220792e+003 5.371395e+002 1.879466e+003
         vertex 1.220792e+003 5.334174e+002 1.880890e+003
      endloop
   endfacet
   facet normal 1.000000e+000 1.040834e-016 -1.026531e-018
      outer loop
         vertex 1.220792e+003 5.334174e+002 1.880890e+003
         vertex 1.220792e+003 5.371395e+002 1.879466e+003
         vertex 1.220792e+003 5.374174e+002 1.879490e+003
      endloop
   endfacet
   facet normal 1.000000e+000 1.040834e-016 -1.026531e-018
      outer loop
         vertex 1.220792e+003 5.334174e+002 1.880890e+003
         vertex 1.220792e+003 5.374174e+002 1.879490e+003
         vertex 1.220792e+003 5.376952e+002 1.879466e+003
      endloop
   endfacet
   facet normal 1.000000e+000 1.040834e-016 -1.026531e-018
      outer loop
         vertex 1.220792e+003 5.519646e+002 1.879393e+003
         vertex 1.220792e+003 5.522173e+002 1.879276e+003
         vertex 1.220792e+003 5.554174e+002 1.880890e+003
      endloop
   endfacet
   facet normal 1.000000e+000 1.040834e-016 -1.026531e-018
      outer loop
         vertex 1.220792e+003 5.554174e+002 1.880890e+003
         vertex 1.220792e+003 5.522173e+002 1.879276e+003
         vertex 1.220792e+003 5.524457e+002 1.879116e+003
      endloop
   endfacet
   facet normal 1.000000e+000 1.040834e-016 -1.026531e-018
      outer loop
         vertex 1.220792e+003 5.554174e+002 1.880890e+003
         vertex 1.220792e+003 5.524457e+002 1.879116e+003
         vertex 1.220792e+003 5.526430e+002 1.878918e+003
      endloop
   endfacet
   facet normal 1.000000e+000 1.040834e-016 -1.026531e-018
      outer loop
         vertex 1.220792e+003 5.519646e+002 1.876386e+003
         vertex 1.220792e+003 5.516952e+002 1.876314e+003
         vertex 1.220792e+003 5.554174e+002 1.873390e+003
      endloop
   endfacet
   facet normal 1.000000e+000 1.040834e-016 -1.026531e-018
      outer loop
         vertex 1.220792e+003 5.501917e+002 1.876861e+003
         vertex 1.220792e+003 5.374174e+002 1.873390e+003
         vertex 1.220792e+003 5.503889e+002 1.876664e+003
      endloop
   endfacet
   facet normal 1.000000e+000 1.040834e-016 -1.026531e-018
      outer loop
         vertex 1.220792e+003 5.503889e+002 1.876664e+003
         vertex 1.220792e+003 5.374174e+002 1.873390e+003
         vertex 1.220792e+003 5.506173e+002 1.876504e+003
      endloop
   endfacet
   facet normal 1.000000e+000 1.040834e-016 -1.026531e-018
      outer loop
         vertex 1.220792e+003 5.382173e+002 1.879276e+003
         vertex 1.220792e+003 5.384458e+002 1.879116e+003
         vertex 1.220792e+003 5.498173e+002 1.877890e+003
      endloop
   endfacet
   facet normal 1.000000e+000 1.040834e-016 -1.026531e-018
      outer loop
         vertex 1.220792e+003 5.334174e+002 1.877390e+003
         vertex 1.220792e+003 5.358416e+002 1.878168e+003
         vertex 1.220792e+003 5.334174e+002 1.880890e+003
      endloop
   endfacet
   facet normal 1.000000e+000 1.040834e-016 -1.026531e-018
      outer loop
         vertex 1.220792e+003 5.334174e+002 1.880890e+003
         vertex 1.220792e+003 5.358416e+002 1.878168e+003
         vertex 1.220792e+003 5.359138e+002 1.878437e+003
      endloop
   endfacet
   facet normal 1.000000e+000 1.040834e-016 -1.026531e-018
      outer loop
         vertex 1.220792e+003 5.334174e+002 1.880890e+003
         vertex 1.220792e+003 5.359138e+002 1.878437e+003
         vertex 1.220792e+003 5.360317e+002 1.878690e+003
      endloop
   endfacet
   facet normal 1.000000e+000 1.040834e-016 -1.026531e-018
      outer loop
         vertex 1.220792e+003 5.382173e+002 1.876504e+003
         vertex 1.220792e+003 5.498416e+002 1.877612e+003
         vertex 1.220792e+003 5.384458e+002 1.876664e+003
      endloop
   endfacet
   facet normal 1.000000e+000 1.040834e-016 -1.026531e-018
      outer loop
         vertex 1.220792e+003 5.384458e+002 1.876664e+003
         vertex 1.220792e+003 5.498416e+002 1.877612e+003
         vertex 1.220792e+003 5.386430e+002 1.876861e+003
      endloop
   endfacet
   facet normal 1.000000e+000 1.040834e-016 -1.026531e-018
      outer loop
         vertex 1.220792e+003 5.500317e+002 1.878690e+003
         vertex 1.220792e+003 5.501917e+002 1.878918e+003
         vertex 1.220792e+003 5.334174e+002 1.880890e+003
      endloop
   endfacet
   facet normal 1.000000e+000 1.040834e-016 -1.026531e-018
      outer loop
         vertex 1.220792e+003 5.334174e+002 1.880890e+003
         vertex 1.220792e+003 5.501917e+002 1.878918e+003
         vertex 1.220792e+003 5.503889e+002 1.879116e+003
      endloop
   endfacet
   facet normal 1.000000e+000 1.040834e-016 -1.026531e-018
      outer loop
         vertex 1.220792e+003 5.334174e+002 1.880890e+003
         vertex 1.220792e+003 5.503889e+002 1.879116e+003
         vertex 1.220792e+003 5.506173e+002 1.879276e+003
      endloop
   endfacet
   facet normal 1.000000e+000 1.040834e-016 -1.026531e-018
      outer loop
         vertex 1.220792e+003 5.506173e+002 1.879276e+003
         vertex 1.220792e+003 5.508701e+002 1.879393e+003
         vertex 1.220792e+003 5.334174e+002 1.880890e+003
      endloop
   endfacet
   facet normal 1.000000e+000 1.040834e-016 -1.026531e-018
      outer loop
         vertex 1.220792e+003 5.334174e+002 1.880890e+003
         vertex 1.220792e+003 5.508701e+002 1.879393e+003
         vertex 1.220792e+003 5.511395e+002 1.879466e+003
      endloop
   endfacet
   facet normal 1.000000e+000 1.040834e-016 -1.026531e-018
      outer loop
         vertex 1.220792e+003 5.334174e+002 1.880890e+003
         vertex 1.220792e+003 5.511395e+002 1.879466e+003
         vertex 1.220792e+003 5.554174e+002 1.880890e+003
      endloop
   endfacet
   facet normal 1.000000e+000 1.040834e-016 -1.026531e-018
      outer loop
         vertex 1.220792e+003 5.554174e+002 1.880890e+003
         vertex 1.220792e+003 5.511395e+002 1.879466e+003
         vertex 1.220792e+003 5.514174e+002 1.879490e+003
      endloop
   endfacet
   facet normal 1.000000e+000 1.040834e-016 -1.026531e-018
      outer loop
         vertex 1.220792e+003 5.554174e+002 1.880890e+003
         vertex 1.220792e+003 5.514174e+002 1.879490e+003
         vertex 1.220792e+003 5.516952e+002 1.879466e+003
      endloop
   endfacet
   facet normal 1.000000e+000 1.040834e-016 -1.026531e-018
      outer loop
         vertex 1.220792e+003 5.360317e+002 1.877090e+003
         vertex 1.220792e+003 5.359138e+002 1.877343e+003
         vertex 1.220792e+003 5.334174e+002 1.877390e+003
      endloop
   endfacet
   facet normal 1.000000e+000 1.040834e-016 -1.026531e-018
      outer loop
         vertex 1.220792e+003 5.334174e+002 1.877390e+003
         vertex 1.220792e+003 5.359138e+002 1.877343e+003
         vertex 1.220792e+003 5.358416e+002 1.877612e+003
      endloop
   endfacet
   facet normal 1.000000e+000 1.040834e-016 -1.026531e-018
      outer loop
         vertex 1.220792e+003 5.334174e+002 1.877390e+003
         vertex 1.220792e+003 5.358416e+002 1.877612e+003
         vertex 1.220792e+003 5.358173e+002 1.877890e+003
      endloop
   endfacet
   facet normal 1.000000e+000 1.040834e-016 -1.026531e-018
      outer loop
         vertex 1.220792e+003 5.499138e+002 1.878437e+003
         vertex 1.220792e+003 5.334174e+002 1.880890e+003
         vertex 1.220792e+003 5.498416e+002 1.878168e+003
      endloop
   endfacet
   facet normal 1.000000e+000 1.040834e-016 -1.026531e-018
      outer loop
         vertex 1.220792e+003 5.498416e+002 1.878168e+003
         vertex 1.220792e+003 5.334174e+002 1.880890e+003
         vertex 1.220792e+003 5.376952e+002 1.879466e+003
      endloop
   endfacet
   facet normal 1.000000e+000 1.040834e-016 -1.026531e-018
      outer loop
         vertex 1.220792e+003 5.498416e+002 1.878168e+003
         vertex 1.220792e+003 5.376952e+002 1.879466e+003
         vertex 1.220792e+003 5.498173e+002 1.877890e+003
      endloop
   endfacet
   facet normal 1.000000e+000 1.040834e-016 -1.026531e-018
      outer loop
         vertex 1.220792e+003 5.498173e+002 1.877890e+003
         vertex 1.220792e+003 5.376952e+002 1.879466e+003
         vertex 1.220792e+003 5.379646e+002 1.879393e+003
      endloop
   endfacet
   facet normal 1.000000e+000 1.040834e-016 -1.026531e-018
      outer loop
         vertex 1.220792e+003 5.498173e+002 1.877890e+003
         vertex 1.220792e+003 5.379646e+002 1.879393e+003
         vertex 1.220792e+003 5.382173e+002 1.879276e+003
      endloop
   endfacet
   facet normal 1.000000e+000 1.040834e-016 -1.026531e-018
      outer loop
         vertex 1.220792e+003 5.384458e+002 1.879116e+003
         vertex 1.220792e+003 5.386430e+002 1.878918e+003
         vertex 1.220792e+003 5.498173e+002 1.877890e+003
      endloop
   endfacet
   facet normal 1.000000e+000 1.040834e-016 -1.026531e-018
      outer loop
         vertex 1.220792e+003 5.498173e+002 1.877890e+003
         vertex 1.220792e+003 5.386430e+002 1.878918e+003
         vertex 1.220792e+003 5.388030e+002 1.878690e+003
      endloop
   endfacet
   facet normal 1.000000e+000 1.040834e-016 -1.026531e-018
      outer loop
         vertex 1.220792e+003 5.498173e+002 1.877890e+003
         vertex 1.220792e+003 5.388030e+002 1.878690e+003
         vertex 1.220792e+003 5.389208e+002 1.878437e+003
      endloop
   endfacet
   facet normal 1.000000e+000 1.040834e-016 -1.026531e-018
      outer loop
         vertex 1.220792e+003 5.389930e+002 1.877612e+003
         vertex 1.220792e+003 5.498416e+002 1.877612e+003
         vertex 1.220792e+003 5.390173e+002 1.877890e+003
      endloop
   endfacet
   facet normal 1.000000e+000 1.040834e-016 -1.026531e-018
      outer loop
         vertex 1.220792e+003 5.390173e+002 1.877890e+003
         vertex 1.220792e+003 5.498416e+002 1.877612e+003
         vertex 1.220792e+003 5.498173e+002 1.877890e+003
      endloop
   endfacet
   facet normal 1.000000e+000 1.040834e-016 -1.026531e-018
      outer loop
         vertex 1.220792e+003 5.390173e+002 1.877890e+003
         vertex 1.220792e+003 5.498173e+002 1.877890e+003
         vertex 1.220792e+003 5.389930e+002 1.878168e+003
      endloop
   endfacet
   facet normal 1.000000e+000 1.040834e-016 -1.026531e-018
      outer loop
         vertex 1.220792e+003 5.389930e+002 1.878168e+003
         vertex 1.220792e+003 5.498173e+002 1.877890e+003
         vertex 1.220792e+003 5.389208e+002 1.878437e+003
      endloop
   endfacet
   facet normal 1.000000e+000 1.040834e-016 -1.026531e-018
      outer loop
         vertex 1.220792e+003 5.389930e+002 1.877612e+003
         vertex 1.220792e+003 5.389208e+002 1.877343e+003
         vertex 1.220792e+003 5.498416e+002 1.877612e+003
      endloop
   endfacet
   facet normal 1.000000e+000 1.040834e-016 -1.026531e-018
      outer loop
         vertex 1.220792e+003 5.498416e+002 1.877612e+003
         vertex 1.220792e+003 5.389208e+002 1.877343e+003
         vertex 1.220792e+003 5.388030e+002 1.877090e+003
      endloop
   endfacet
   facet normal 1.000000e+000 1.040834e-016 -1.026531e-018
      outer loop
         vertex 1.220792e+003 5.498416e+002 1.877612e+003
         vertex 1.220792e+003 5.388030e+002 1.877090e+003
         vertex 1.220792e+003 5.386430e+002 1.876861e+003
      endloop
   endfacet
   facet normal 1.000000e+000 1.040834e-016 -1.026531e-018
      outer loop
         vertex 1.220792e+003 5.526430e+002 1.876861e+003
         vertex 1.220792e+003 5.524457e+002 1.876664e+003
         vertex 1.220792e+003 5.554174e+002 1.873390e+003
      endloop
   endfacet
   facet normal 1.000000e+000 1.040834e-016 -1.026531e-018
      outer loop
         vertex 1.220792e+003 5.554174e+002 1.873390e+003
         vertex 1.220792e+003 5.524457e+002 1.876664e+003
         vertex 1.220792e+003 5.522173e+002 1.876504e+003
      endloop
   endfacet
   facet normal 1.000000e+000 1.040834e-016 -1.026531e-018
      outer loop
         vertex 1.220792e+003 5.554174e+002 1.873390e+003
         vertex 1.220792e+003 5.522173e+002 1.876504e+003
         vertex 1.220792e+003 5.519646e+002 1.876386e+003
      endloop
   endfacet
   facet normal 1.000000e+000 1.040834e-016 -1.026531e-018
      outer loop
         vertex 1.220792e+003 5.516952e+002 1.876314e+003
         vertex 1.220792e+003 5.514174e+002 1.876290e+003
         vertex 1.220792e+003 5.554174e+002 1.873390e+003
      endloop
   endfacet
   facet normal 1.000000e+000 1.040834e-016 -1.026531e-018
      outer loop
         vertex 1.220792e+003 5.554174e+002 1.873390e+003
         vertex 1.220792e+003 5.514174e+002 1.876290e+003
         vertex 1.220792e+003 5.511395e+002 1.876314e+003
      endloop
   endfacet
   facet normal 1.000000e+000 1.040834e-016 -1.026531e-018
      outer loop
         vertex 1.220792e+003 5.554174e+002 1.873390e+003
         vertex 1.220792e+003 5.511395e+002 1.876314e+003
         vertex 1.220792e+003 5.374174e+002 1.873390e+003
      endloop
   endfacet
   facet normal 1.000000e+000 1.040834e-016 -1.026531e-018
      outer loop
         vertex 1.220792e+003 5.374174e+002 1.873390e+003
         vertex 1.220792e+003 5.511395e+002 1.876314e+003
         vertex 1.220792e+003 5.508701e+002 1.876386e+003
      endloop
   endfacet
   facet normal 1.000000e+000 1.040834e-016 -1.026531e-018
      outer loop
         vertex 1.220792e+003 5.374174e+002 1.873390e+003
         vertex 1.220792e+003 5.508701e+002 1.876386e+003
         vertex 1.220792e+003 5.506173e+002 1.876504e+003
      endloop
   endfacet
   facet normal 1.000000e+000 1.040834e-016 -1.026531e-018
      outer loop
         vertex 1.220792e+003 5.501917e+002 1.876861e+003
         vertex 1.220792e+003 5.500317e+002 1.877090e+003
         vertex 1.220792e+003 5.374174e+002 1.873390e+003
      endloop
   endfacet
   facet normal 1.000000e+000 1.040834e-016 -1.026531e-018
      outer loop
         vertex 1.220792e+003 5.374174e+002 1.873390e+003
         vertex 1.220792e+003 5.500317e+002 1.877090e+003
         vertex 1.220792e+003 5.499138e+002 1.877343e+003
      endloop
   endfacet
   facet normal 1.000000e+000 1.040834e-016 -1.026531e-018
      outer loop
         vertex 1.220792e+003 5.374174e+002 1.873390e+003
         vertex 1.220792e+003 5.499138e+002 1.877343e+003
         vertex 1.220792e+003 5.498416e+002 1.877612e+003
      endloop
   endfacet
   facet normal 1.000000e+000 1.040834e-016 -1.026531e-018
      outer loop
         vertex 1.220792e+003 5.374174e+002 1.873390e+003
         vertex 1.220792e+003 5.371395e+002 1.876314e+003
         vertex 1.220792e+003 5.368701e+002 1.876386e+003
      endloop
   endfacet
   facet normal 1.000000e+000 1.040834e-016 -1.026531e-018
      outer loop
         vertex 1.220792e+003 5.382173e+002 1.876504e+003
         vertex 1.220792e+003 5.379646e+002 1.876386e+003
         vertex 1.220792e+003 5.498416e+002 1.877612e+003
      endloop
   endfacet
   facet normal 1.000000e+000 1.040834e-016 -1.026531e-018
      outer loop
         vertex 1.220792e+003 5.498416e+002 1.877612e+003
         vertex 1.220792e+003 5.379646e+002 1.876386e+003
         vertex 1.220792e+003 5.376952e+002 1.876314e+003
      endloop
   endfacet
   facet normal 1.000000e+000 1.040834e-016 -1.026531e-018
      outer loop
         vertex 1.220792e+003 5.498416e+002 1.877612e+003
         vertex 1.220792e+003 5.376952e+002 1.876314e+003
         vertex 1.220792e+003 5.374174e+002 1.873390e+003
      endloop
   endfacet
   facet normal 1.000000e+000 1.040834e-016 -1.026531e-018
      outer loop
         vertex 1.220792e+003 5.374174e+002 1.873390e+003
         vertex 1.220792e+003 5.376952e+002 1.876314e+003
         vertex 1.220792e+003 5.374174e+002 1.876290e+003
      endloop
   endfacet
   facet normal 1.000000e+000 1.040834e-016 -1.026531e-018
      outer loop
         vertex 1.220792e+003 5.374174e+002 1.873390e+003
         vertex 1.220792e+003 5.374174e+002 1.876290e+003
         vertex 1.220792e+003 5.371395e+002 1.876314e+003
      endloop
   endfacet
   facet normal 1.000000e+000 1.040834e-016 -1.026531e-018
      outer loop
         vertex 1.220792e+003 5.368701e+002 1.876386e+003
         vertex 1.220792e+003 5.366173e+002 1.876504e+003
         vertex 1.220792e+003 5.374174e+002 1.873390e+003
      endloop
   endfacet
   facet normal 1.000000e+000 1.040834e-016 -1.026531e-018
      outer loop
         vertex 1.220792e+003 5.374174e+002 1.873390e+003
         vertex 1.220792e+003 5.366173e+002 1.876504e+003
         vertex 1.220792e+003 5.363889e+002 1.876664e+003
      endloop
   endfacet
   facet normal 1.000000e+000 1.040834e-016 -1.026531e-018
      outer loop
         vertex 1.220792e+003 5.374174e+002 1.873390e+003
         vertex 1.220792e+003 5.363889e+002 1.876664e+003
         vertex 1.220792e+003 5.334174e+002 1.877390e+003
      endloop
   endfacet
   facet normal 1.000000e+000 1.040834e-016 -1.026531e-018
      outer loop
         vertex 1.220792e+003 5.334174e+002 1.877390e+003
         vertex 1.220792e+003 5.363889e+002 1.876664e+003
         vertex 1.220792e+003 5.361917e+002 1.876861e+003
      endloop
   endfacet
   facet normal 1.000000e+000 1.040834e-016 -1.026531e-018
      outer loop
         vertex 1.220792e+003 5.334174e+002 1.877390e+003
         vertex 1.220792e+003 5.361917e+002 1.876861e+003
         vertex 1.220792e+003 5.360317e+002 1.877090e+003
      endloop
   endfacet
   facet normal 4.872657e-017 -7.071068e-001 -7.071068e-001
      outer loop
         vertex 1.220792e+003 5.374174e+002 1.873390e+003
         vertex 1.220792e+003 5.334174e+002 1.877390e+003
         vertex 1.217792e+003 5.374174e+002 1.873390e+003
      endloop
   endfacet
   facet normal 4.872657e-017 -7.071068e-001 -7.071068e-001
      outer loop
         vertex 1.217792e+003 5.374174e+002 1.873390e+003
         vertex 1.220792e+003 5.334174e+002 1.877390e+003
         vertex 1.217792e+003 5.334174e+002 1.877390e+003
      endloop
   endfacet
   facet normal -6.196945e-017 9.983120e-001 -5.807914e-002
      outer loop
         vertex 1.217792e+003 5.498416e+002 1.878168e+003
         vertex 1.220792e+003 5.498173e+002 1.877890e+003
         vertex 1.217792e+003 5.498173e+002 1.877890e+003
      endloop
   endfacet
   facet normal -6.271981e-017 9.983120e-001 5.807914e-002
      outer loop
         vertex 1.217792e+003 5.498173e+002 1.877890e+003
         vertex 1.220792e+003 5.498173e+002 1.877890e+003
         vertex 1.220792e+003 5.498416e+002 1.877612e+003
      endloop
   endfacet
   facet normal -6.277765e-017 9.932307e-001 1.161583e-001
      outer loop
         vertex 1.217792e+003 5.498173e+002 1.877890e+003
         vertex 1.220792e+003 5.498416e+002 1.877612e+003
         vertex 1.217792e+003 5.498416e+002 1.877612e+003
      endloop
   endfacet
   facet normal -6.225695e-017 9.730601e-001 2.305518e-001
      outer loop
         vertex 1.217792e+003 5.498416e+002 1.877612e+003
         vertex 1.220792e+003 5.498416e+002 1.877612e+003
         vertex 1.220792e+003 5.499138e+002 1.877343e+003
      endloop
   endfacet
   facet normal -6.167839e-017 9.579706e-001 2.868663e-001
      outer loop
         vertex 1.217792e+003 5.498416e+002 1.877612e+003
         vertex 1.220792e+003 5.499138e+002 1.877343e+003
         vertex 1.217792e+003 5.499138e+002 1.877343e+003
      endloop
   endfacet
   facet normal -5.990244e-017 9.182422e-001 3.960194e-001
      outer loop
         vertex 1.217792e+003 5.499138e+002 1.877343e+003
         vertex 1.220792e+003 5.499138e+002 1.877343e+003
         vertex 1.220792e+003 5.500317e+002 1.877090e+003
      endloop
   endfacet
   facet normal -5.870505e-017 8.936031e-001 4.488580e-001
      outer loop
         vertex 1.217792e+003 5.499138e+002 1.877343e+003
         vertex 1.220792e+003 5.500317e+002 1.877090e+003
         vertex 1.217792e+003 5.500317e+002 1.877090e+003
      endloop
   endfacet
   facet normal -5.572783e-017 8.355240e-001 5.494540e-001
      outer loop
         vertex 1.217792e+003 5.500317e+002 1.877090e+003
         vertex 1.220792e+003 5.500317e+002 1.877090e+003
         vertex 1.220792e+003 5.501917e+002 1.876861e+003
      endloop
   endfacet
   facet normal -5.394800e-017 8.020839e-001 5.972114e-001
      outer loop
         vertex 1.217792e+003 5.500317e+002 1.877090e+003
         vertex 1.220792e+003 5.501917e+002 1.876861e+003
         vertex 1.217792e+003 5.501917e+002 1.876861e+003
      endloop
   endfacet
   facet normal -4.985996e-017 7.274188e-001 6.861938e-001
      outer loop
         vertex 1.217792e+003 5.501917e+002 1.876861e+003
         vertex 1.220792e+003 5.501917e+002 1.876861e+003
         vertex 1.220792e+003 5.503889e+002 1.876664e+003
      endloop
   endfacet
   facet normal -4.755176e-017 6.861938e-001 7.274188e-001
      outer loop
         vertex 1.217792e+003 5.501917e+002 1.876861e+003
         vertex 1.220792e+003 5.503889e+002 1.876664e+003
         vertex 1.217792e+003 5.503889e+002 1.876664e+003
      endloop
   endfacet
   facet normal -4.247712e-017 5.972114e-001 8.020839e-001
      outer loop
         vertex 1.217792e+003 5.503889e+002 1.876664e+003
         vertex 1.220792e+003 5.503889e+002 1.876664e+003
         vertex 1.220792e+003 5.506173e+002 1.876504e+003
      endloop
   endfacet
   facet normal -3.971068e-017 5.494540e-001 8.355240e-001
      outer loop
         vertex 1.217792e+003 5.503889e+002 1.876664e+003
         vertex 1.220792e+003 5.506173e+002 1.876504e+003
         vertex 1.217792e+003 5.506173e+002 1.876504e+003
      endloop
   endfacet
   facet normal -3.380364e-017 4.488580e-001 8.936031e-001
      outer loop
         vertex 1.217792e+003 5.506173e+002 1.876504e+003
         vertex 1.220792e+003 5.506173e+002 1.876504e+003
         vertex 1.220792e+003 5.508701e+002 1.876386e+003
      endloop
   endfacet
   facet normal -3.066302e-017 3.960194e-001 9.182422e-001
      outer loop
         vertex 1.217792e+003 5.506173e+002 1.876504e+003
         vertex 1.220792e+003 5.508701e+002 1.876386e+003
         vertex 1.217792e+003 5.508701e+002 1.876386e+003
      endloop
   endfacet
   facet normal -2.410304e-017 2.868663e-001 9.579706e-001
      outer loop
         vertex 1.217792e+003 5.508701e+002 1.876386e+003
         vertex 1.220792e+003 5.508701e+002 1.876386e+003
         vertex 1.220792e+003 5.511395e+002 1.876314e+003
      endloop
   endfacet
   facet normal -2.068368e-017 2.305518e-001 9.730601e-001
      outer loop
         vertex 1.217792e+003 5.508701e+002 1.876386e+003
         vertex 1.220792e+003 5.511395e+002 1.876314e+003
         vertex 1.217792e+003 5.511395e+002 1.876314e+003
      endloop
   endfacet
   facet normal -1.367009e-017 1.161583e-001 9.932307e-001
      outer loop
         vertex 1.217792e+003 5.511395e+002 1.876314e+003
         vertex 1.220792e+003 5.511395e+002 1.876314e+003
         vertex 1.220792e+003 5.514174e+002 1.876290e+003
      endloop
   endfacet
   facet normal -1.007587e-017 5.807914e-002 9.983120e-001
      outer loop
         vertex 1.217792e+003 5.511395e+002 1.876314e+003
         vertex 1.220792e+003 5.514174e+002 1.876290e+003
         vertex 1.217792e+003 5.514174e+002 1.876290e+003
      endloop
   endfacet
   facet normal -2.821781e-018 -5.807914e-002 9.983120e-001
      outer loop
         vertex 1.217792e+003 5.514174e+002 1.876290e+003
         vertex 1.220792e+003 5.514174e+002 1.876290e+003
         vertex 1.220792e+003 5.516952e+002 1.876314e+003
      endloop
   endfacet
   facet normal 8.380871e-019 -1.161583e-001 9.932307e-001
      outer loop
         vertex 1.217792e+003 5.514174e+002 1.876290e+003
         vertex 1.220792e+003 5.516952e+002 1.876314e+003
         vertex 1.217792e+003 5.516952e+002 1.876314e+003
      endloop
   endfacet
   facet normal 8.112267e-018 -2.305518e-001 9.730601e-001
      outer loop
         vertex 1.217792e+003 5.516952e+002 1.876314e+003
         vertex 1.220792e+003 5.516952e+002 1.876314e+003
         vertex 1.220792e+003 5.519646e+002 1.876386e+003
      endloop
   endfacet
   facet normal 1.172658e-017 -2.868663e-001 9.579706e-001
      outer loop
         vertex 1.217792e+003 5.516952e+002 1.876314e+003
         vertex 1.220792e+003 5.519646e+002 1.876386e+003
         vertex 1.217792e+003 5.519646e+002 1.876386e+003
      endloop
   endfacet
   facet normal 1.879983e-017 -3.960194e-001 9.182422e-001
      outer loop
         vertex 1.217792e+003 5.519646e+002 1.876386e+003
         vertex 1.220792e+003 5.519646e+002 1.876386e+003
         vertex 1.220792e+003 5.522173e+002 1.876504e+003
      endloop
   endfacet
   facet normal 2.225877e-017 -4.488580e-001 8.936031e-001
      outer loop
         vertex 1.217792e+003 5.519646e+002 1.876386e+003
         vertex 1.220792e+003 5.522173e+002 1.876504e+003
         vertex 1.217792e+003 5.522173e+002 1.876504e+003
      endloop
   endfacet
   facet normal 2.891617e-017 -5.494540e-001 8.355240e-001
      outer loop
         vertex 1.217792e+003 5.522173e+002 1.876504e+003
         vertex 1.220792e+003 5.522173e+002 1.876504e+003
         vertex 1.220792e+003 5.524457e+002 1.876664e+003
      endloop
   endfacet
   facet normal 3.211463e-017 -5.972114e-001 8.020839e-001
      outer loop
         vertex 1.217792e+003 5.522173e+002 1.876504e+003
         vertex 1.220792e+003 5.524457e+002 1.876664e+003
         vertex 1.217792e+003 5.524457e+002 1.876664e+003
      endloop
   endfacet
   facet normal 3.815390e-017 -6.861938e-001 7.274188e-001
      outer loop
         vertex 1.217792e+003 5.524457e+002 1.876664e+003
         vertex 1.220792e+003 5.524457e+002 1.876664e+003
         vertex 1.220792e+003 5.526430e+002 1.876861e+003
      endloop
   endfacet
   facet normal 4.099471e-017 -7.274188e-001 6.861938e-001
      outer loop
         vertex 1.217792e+003 5.524457e+002 1.876664e+003
         vertex 1.220792e+003 5.526430e+002 1.876861e+003
         vertex 1.217792e+003 5.526430e+002 1.876861e+003
      endloop
   endfacet
   facet normal 4.623235e-017 -8.020839e-001 5.972114e-001
      outer loop
         vertex 1.217792e+003 5.526430e+002 1.876861e+003
         vertex 1.220792e+003 5.526430e+002 1.876861e+003
         vertex 1.220792e+003 5.528030e+002 1.877090e+003
      endloop
   endfacet
   facet normal 4.862919e-017 -8.355240e-001 5.494540e-001
      outer loop
         vertex 1.217792e+003 5.526430e+002 1.876861e+003
         vertex 1.220792e+003 5.528030e+002 1.877090e+003
         vertex 1.217792e+003 5.528030e+002 1.877090e+003
      endloop
   endfacet
   facet normal 5.290605e-017 -8.936031e-001 4.488580e-001
      outer loop
         vertex 1.217792e+003 5.528030e+002 1.877090e+003
         vertex 1.220792e+003 5.528030e+002 1.877090e+003
         vertex 1.220792e+003 5.529208e+002 1.877343e+003
      endloop
   endfacet
   facet normal 5.478608e-017 -9.182422e-001 3.960194e-001
      outer loop
         vertex 1.217792e+003 5.528030e+002 1.877090e+003
         vertex 1.220792e+003 5.529208e+002 1.877343e+003
         vertex 1.217792e+003 5.529208e+002 1.877343e+003
      endloop
   endfacet
   facet normal 5.797223e-017 -9.579706e-001 2.868663e-001
      outer loop
         vertex 1.217792e+003 5.529208e+002 1.877343e+003
         vertex 1.220792e+003 5.529208e+002 1.877343e+003
         vertex 1.220792e+003 5.529930e+002 1.877612e+003
      endloop
   endfacet
   facet normal 5.927834e-017 -9.730601e-001 2.305518e-001
      outer loop
         vertex 1.217792e+003 5.529208e+002 1.877343e+003
         vertex 1.220792e+003 5.529930e+002 1.877612e+003
         vertex 1.217792e+003 5.529930e+002 1.877612e+003
      endloop
   endfacet
   facet normal 6.127695e-017 -9.932307e-001 1.161583e-001
      outer loop
         vertex 1.217792e+003 5.529930e+002 1.877612e+003
         vertex 1.220792e+003 5.529930e+002 1.877612e+003
         vertex 1.220792e+003 5.530173e+002 1.877890e+003
      endloop
   endfacet
   facet normal 6.196945e-017 -9.983120e-001 5.807914e-002
      outer loop
         vertex 1.217792e+003 5.529930e+002 1.877612e+003
         vertex 1.220792e+003 5.530173e+002 1.877890e+003
         vertex 1.217792e+003 5.530173e+002 1.877890e+003
      endloop
   endfacet
   facet normal 6.271981e-017 -9.983120e-001 -5.807914e-002
      outer loop
         vertex 1.217792e+003 5.530173e+002 1.877890e+003
         vertex 1.220792e+003 5.530173e+002 1.877890e+003
         vertex 1.220792e+003 5.529930e+002 1.878168e+003
      endloop
   endfacet
   facet normal 6.277765e-017 -9.932307e-001 -1.161583e-001
      outer loop
         vertex 1.217792e+003 5.530173e+002 1.877890e+003
         vertex 1.220792e+003 5.529930e+002 1.878168e+003
         vertex 1.217792e+003 5.529930e+002 1.878168e+003
      endloop
   endfacet
   facet normal 6.225695e-017 -9.730601e-001 -2.305518e-001
      outer loop
         vertex 1.217792e+003 5.529930e+002 1.878168e+003
         vertex 1.220792e+003 5.529930e+002 1.878168e+003
         vertex 1.220792e+003 5.529208e+002 1.878437e+003
      endloop
   endfacet
   facet normal 6.167839e-017 -9.579706e-001 -2.868663e-001
      outer loop
         vertex 1.217792e+003 5.529930e+002 1.878168e+003
         vertex 1.220792e+003 5.529208e+002 1.878437e+003
         vertex 1.217792e+003 5.529208e+002 1.878437e+003
      endloop
   endfacet
   facet normal 5.990244e-017 -9.182422e-001 -3.960194e-001
      outer loop
         vertex 1.217792e+003 5.529208e+002 1.878437e+003
         vertex 1.220792e+003 5.529208e+002 1.878437e+003
         vertex 1.220792e+003 5.528030e+002 1.878690e+003
      endloop
   endfacet
   facet normal 5.870505e-017 -8.936031e-001 -4.488580e-001
      outer loop
         vertex 1.217792e+003 5.529208e+002 1.878437e+003
         vertex 1.220792e+003 5.528030e+002 1.878690e+003
         vertex 1.217792e+003 5.528030e+002 1.878690e+003
      endloop
   endfacet
   facet normal 5.572783e-017 -8.355240e-001 -5.494540e-001
      outer loop
         vertex 1.217792e+003 5.528030e+002 1.878690e+003
         vertex 1.220792e+003 5.528030e+002 1.878690e+003
         vertex 1.220792e+003 5.526430e+002 1.878918e+003
      endloop
   endfacet
   facet normal 5.394800e-017 -8.020839e-001 -5.972114e-001
      outer loop
         vertex 1.217792e+003 5.528030e+002 1.878690e+003
         vertex 1.220792e+003 5.526430e+002 1.878918e+003
         vertex 1.217792e+003 5.526430e+002 1.878918e+003
      endloop
   endfacet
   facet normal 4.985996e-017 -7.274188e-001 -6.861938e-001
      outer loop
         vertex 1.217792e+003 5.526430e+002 1.878918e+003
         vertex 1.220792e+003 5.526430e+002 1.878918e+003
         vertex 1.220792e+003 5.524457e+002 1.879116e+003
      endloop
   endfacet
   facet normal 4.755176e-017 -6.861938e-001 -7.274188e-001
      outer loop
         vertex 1.217792e+003 5.526430e+002 1.878918e+003
         vertex 1.220792e+003 5.524457e+002 1.879116e+003
         vertex 1.217792e+003 5.524457e+002 1.879116e+003
      endloop
   endfacet
   facet normal 4.247712e-017 -5.972114e-001 -8.020839e-001
      outer loop
         vertex 1.217792e+003 5.524457e+002 1.879116e+003
         vertex 1.220792e+003 5.524457e+002 1.879116e+003
         vertex 1.220792e+003 5.522173e+002 1.879276e+003
      endloop
   endfacet
   facet normal 3.971068e-017 -5.494540e-001 -8.355240e-001
      outer loop
         vertex 1.217792e+003 5.524457e+002 1.879116e+003
         vertex 1.220792e+003 5.522173e+002 1.879276e+003
         vertex 1.217792e+003 5.522173e+002 1.879276e+003
      endloop
   endfacet
   facet normal 3.380364e-017 -4.488580e-001 -8.936031e-001
      outer loop
         vertex 1.217792e+003 5.522173e+002 1.879276e+003
         vertex 1.220792e+003 5.522173e+002 1.879276e+003
         vertex 1.220792e+003 5.519646e+002 1.879393e+003
      endloop
   endfacet
   facet normal 3.066302e-017 -3.960194e-001 -9.182422e-001
      outer loop
         vertex 1.217792e+003 5.522173e+002 1.879276e+003
         vertex 1.220792e+003 5.519646e+002 1.879393e+003
         vertex 1.217792e+003 5.519646e+002 1.879393e+003
      endloop
   endfacet
   facet normal 2.410304e-017 -2.868663e-001 -9.579706e-001
      outer loop
         vertex 1.217792e+003 5.519646e+002 1.879393e+003
         vertex 1.220792e+003 5.519646e+002 1.879393e+003
         vertex 1.220792e+003 5.516952e+002 1.879466e+003
      endloop
   endfacet
   facet normal 2.068368e-017 -2.305518e-001 -9.730601e-001
      outer loop
         vertex 1.217792e+003 5.519646e+002 1.879393e+003
         vertex 1.220792e+003 5.516952e+002 1.879466e+003
         vertex 1.217792e+003 5.516952e+002 1.879466e+003
      endloop
   endfacet
   facet normal 1.367009e-017 -1.161583e-001 -9.932307e-001
      outer loop
         vertex 1.217792e+003 5.516952e+002 1.879466e+003
         vertex 1.220792e+003 5.516952e+002 1.879466e+003
         vertex 1.220792e+003 5.514174e+002 1.879490e+003
      endloop
   endfacet
   facet normal 1.007587e-017 -5.807914e-002 -9.983120e-001
      outer loop
         vertex 1.217792e+003 5.516952e+002 1.879466e+003
         vertex 1.220792e+003 5.514174e+002 1.879490e+003
         vertex 1.217792e+003 5.514174e+002 1.879490e+003
      endloop
   endfacet
   facet normal 2.821781e-018 5.807914e-002 -9.983120e-001
      outer loop
         vertex 1.217792e+003 5.514174e+002 1.879490e+003
         vertex 1.220792e+003 5.514174e+002 1.879490e+003
         vertex 1.220792e+003 5.511395e+002 1.879466e+003
      endloop
   endfacet
   facet normal -8.380871e-019 1.161583e-001 -9.932307e-001
      outer loop
         vertex 1.217792e+003 5.514174e+002 1.879490e+003
         vertex 1.220792e+003 5.511395e+002 1.879466e+003
         vertex 1.217792e+003 5.511395e+002 1.879466e+003
      endloop
   endfacet
   facet normal -8.112267e-018 2.305518e-001 -9.730601e-001
      outer loop
         vertex 1.217792e+003 5.511395e+002 1.879466e+003
         vertex 1.220792e+003 5.511395e+002 1.879466e+003
         vertex 1.220792e+003 5.508701e+002 1.879393e+003
      endloop
   endfacet
   facet normal -1.172658e-017 2.868663e-001 -9.579706e-001
      outer loop
         vertex 1.217792e+003 5.511395e+002 1.879466e+003
         vertex 1.220792e+003 5.508701e+002 1.879393e+003
         vertex 1.217792e+003 5.508701e+002 1.879393e+003
      endloop
   endfacet
   facet normal -1.879983e-017 3.960194e-001 -9.182422e-001
      outer loop
         vertex 1.217792e+003 5.508701e+002 1.879393e+003
         vertex 1.220792e+003 5.508701e+002 1.879393e+003
         vertex 1.220792e+003 5.506173e+002 1.879276e+003
      endloop
   endfacet
   facet normal -2.225877e-017 4.488580e-001 -8.936031e-001
      outer loop
         vertex 1.217792e+003 5.508701e+002 1.879393e+003
         vertex 1.220792e+003 5.506173e+002 1.879276e+003
         vertex 1.217792e+003 5.506173e+002 1.879276e+003
      endloop
   endfacet
   facet normal -2.891617e-017 5.494540e-001 -8.355240e-001
      outer loop
         vertex 1.217792e+003 5.506173e+002 1.879276e+003
         vertex 1.220792e+003 5.506173e+002 1.879276e+003
         vertex 1.220792e+003 5.503889e+002 1.879116e+003
      endloop
   endfacet
   facet normal -3.211463e-017 5.972114e-001 -8.020839e-001
      outer loop
         vertex 1.217792e+003 5.506173e+002 1.879276e+003
         vertex 1.220792e+003 5.503889e+002 1.879116e+003
         vertex 1.217792e+003 5.503889e+002 1.879116e+003
      endloop
   endfacet
   facet normal -3.815390e-017 6.861938e-001 -7.274188e-001
      outer loop
         vertex 1.217792e+003 5.503889e+002 1.879116e+003
         vertex 1.220792e+003 5.503889e+002 1.879116e+003
         vertex 1.220792e+003 5.501917e+002 1.878918e+003
      endloop
   endfacet
   facet normal -4.099471e-017 7.274188e-001 -6.861938e-001
      outer loop
         vertex 1.217792e+003 5.503889e+002 1.879116e+003
         vertex 1.220792e+003 5.501917e+002 1.878918e+003
         vertex 1.217792e+003 5.501917e+002 1.878918e+003
      endloop
   endfacet
   facet normal -4.623235e-017 8.020839e-001 -5.972114e-001
      outer loop
         vertex 1.217792e+003 5.501917e+002 1.878918e+003
         vertex 1.220792e+003 5.501917e+002 1.878918e+003
         vertex 1.220792e+003 5.500317e+002 1.878690e+003
      endloop
   endfacet
   facet normal -4.862919e-017 8.355240e-001 -5.494540e-001
      outer loop
         vertex 1.217792e+003 5.501917e+002 1.878918e+003
         vertex 1.220792e+003 5.500317e+002 1.878690e+003
         vertex 1.217792e+003 5.500317e+002 1.878690e+003
      endloop
   endfacet
   facet normal -5.290605e-017 8.936031e-001 -4.488580e-001
      outer loop
         vertex 1.217792e+003 5.500317e+002 1.878690e+003
         vertex 1.220792e+003 5.500317e+002 1.878690e+003
         vertex 1.220792e+003 5.499138e+002 1.878437e+003
      endloop
   endfacet
   facet normal -5.478608e-017 9.182422e-001 -3.960194e-001
      outer loop
         vertex 1.217792e+003 5.500317e+002 1.878690e+003
         vertex 1.220792e+003 5.499138e+002 1.878437e+003
         vertex 1.217792e+003 5.499138e+002 1.878437e+003
      endloop
   endfacet
   facet normal -5.797223e-017 9.579706e-001 -2.868663e-001
      outer loop
         vertex 1.217792e+003 5.499138e+002 1.878437e+003
         vertex 1.220792e+003 5.499138e+002 1.878437e+003
         vertex 1.220792e+003 5.498416e+002 1.878168e+003
      endloop
   endfacet
   facet normal -5.927834e-017 9.730601e-001 -2.305518e-001
      outer loop
         vertex 1.217792e+003 5.499138e+002 1.878437e+003
         vertex 1.220792e+003 5.498416e+002 1.878168e+003
         vertex 1.217792e+003 5.498416e+002 1.878168e+003
      endloop
   endfacet
   facet normal -6.127695e-017 9.932307e-001 -1.161583e-001
      outer loop
         vertex 1.217792e+003 5.498416e+002 1.878168e+003
         vertex 1.220792e+003 5.498416e+002 1.878168e+003
         vertex 1.220792e+003 5.498173e+002 1.877890e+003
      endloop
   endfacet
   facet normal -6.196945e-017 9.983120e-001 -5.807914e-002
      outer loop
         vertex 1.217792e+003 5.358416e+002 1.878168e+003
         vertex 1.220792e+003 5.358173e+002 1.877890e+003
         vertex 1.217792e+003 5.358173e+002 1.877890e+003
      endloop
   endfacet
   facet normal -6.271981e-017 9.983120e-001 5.807914e-002
      outer loop
         vertex 1.217792e+003 5.358173e+002 1.877890e+003
         vertex 1.220792e+003 5.358173e+002 1.877890e+003
         vertex 1.220792e+003 5.358416e+002 1.877612e+003
      endloop
   endfacet
   facet normal -6.277765e-017 9.932307e-001 1.161583e-001
      outer loop
         vertex 1.217792e+003 5.358173e+002 1.877890e+003
         vertex 1.220792e+003 5.358416e+002 1.877612e+003
         vertex 1.217792e+003 5.358416e+002 1.877612e+003
      endloop
   endfacet
   facet normal -6.225695e-017 9.730601e-001 2.305518e-001
      outer loop
         vertex 1.217792e+003 5.358416e+002 1.877612e+003
         vertex 1.220792e+003 5.358416e+002 1.877612e+003
         vertex 1.220792e+003 5.359138e+002 1.877343e+003
      endloop
   endfacet
   facet normal -6.167839e-017 9.579706e-001 2.868663e-001
      outer loop
         vertex 1.217792e+003 5.358416e+002 1.877612e+003
         vertex 1.220792e+003 5.359138e+002 1.877343e+003
         vertex 1.217792e+003 5.359138e+002 1.877343e+003
      endloop
   endfacet
   facet normal -5.990244e-017 9.182422e-001 3.960194e-001
      outer loop
         vertex 1.217792e+003 5.359138e+002 1.877343e+003
         vertex 1.220792e+003 5.359138e+002 1.877343e+003
         vertex 1.220792e+003 5.360317e+002 1.877090e+003
      endloop
   endfacet
   facet normal -5.870505e-017 8.936031e-001 4.488580e-001
      outer loop
         vertex 1.217792e+003 5.359138e+002 1.877343e+003
         vertex 1.220792e+003 5.360317e+002 1.877090e+003
         vertex 1.217792e+003 5.360317e+002 1.877090e+003
      endloop
   endfacet
   facet normal -5.572783e-017 8.355240e-001 5.494540e-001
      outer loop
         vertex 1.217792e+003 5.360317e+002 1.877090e+003
         vertex 1.220792e+003 5.360317e+002 1.877090e+003
         vertex 1.220792e+003 5.361917e+002 1.876861e+003
      endloop
   endfacet
   facet normal -5.394800e-017 8.020839e-001 5.972114e-001
      outer loop
         vertex 1.217792e+003 5.360317e+002 1.877090e+003
         vertex 1.220792e+003 5.361917e+002 1.876861e+003
         vertex 1.217792e+003 5.361917e+002 1.876861e+003
      endloop
   endfacet
   facet normal -4.985996e-017 7.274188e-001 6.861938e-001
      outer loop
         vertex 1.217792e+003 5.361917e+002 1.876861e+003
         vertex 1.220792e+003 5.361917e+002 1.876861e+003
         vertex 1.220792e+003 5.363889e+002 1.876664e+003
      endloop
   endfacet
   facet normal -4.755176e-017 6.861938e-001 7.274188e-001
      outer loop
         vertex 1.217792e+003 5.361917e+002 1.876861e+003
         vertex 1.220792e+003 5.363889e+002 1.876664e+003
         vertex 1.217792e+003 5.363889e+002 1.876664e+003
      endloop
   endfacet
   facet normal -4.247712e-017 5.972114e-001 8.020839e-001
      outer loop
         vertex 1.217792e+003 5.363889e+002 1.876664e+003
         vertex 1.220792e+003 5.363889e+002 1.876664e+003
         vertex 1.220792e+003 5.366173e+002 1.876504e+003
      endloop
   endfacet
   facet normal -3.971068e-017 5.494540e-001 8.355240e-001
      outer loop
         vertex 1.217792e+003 5.363889e+002 1.876664e+003
         vertex 1.220792e+003 5.366173e+002 1.876504e+003
         vertex 1.217792e+003 5.366173e+002 1.876504e+003
      endloop
   endfacet
   facet normal -3.380364e-017 4.488580e-001 8.936031e-001
      outer loop
         vertex 1.217792e+003 5.366173e+002 1.876504e+003
         vertex 1.220792e+003 5.366173e+002 1.876504e+003
         vertex 1.220792e+003 5.368701e+002 1.876386e+003
      endloop
   endfacet
   facet normal -3.066302e-017 3.960194e-001 9.182422e-001
      outer loop
         vertex 1.217792e+003 5.366173e+002 1.876504e+003
         vertex 1.220792e+003 5.368701e+002 1.876386e+003
         vertex 1.217792e+003 5.368701e+002 1.876386e+003
      endloop
   endfacet
   facet normal -2.410304e-017 2.868663e-001 9.579706e-001
      outer loop
         vertex 1.217792e+003 5.368701e+002 1.876386e+003
         vertex 1.220792e+003 5.368701e+002 1.876386e+003
         vertex 1.220792e+003 5.371395e+002 1.876314e+003
      endloop
   endfacet
   facet normal -2.068368e-017 2.305518e-001 9.730601e-001
      outer loop
         vertex 1.217792e+003 5.368701e+002 1.876386e+003
         vertex 1.220792e+003 5.371395e+002 1.876314e+003
         vertex 1.217792e+003 5.371395e+002 1.876314e+003
      endloop
   endfacet
   facet normal -1.367009e-017 1.161583e-001 9.932307e-001
      outer loop
         vertex 1.217792e+003 5.371395e+002 1.876314e+003
         vertex 1.220792e+003 5.371395e+002 1.876314e+003
         vertex 1.220792e+003 5.374174e+002 1.876290e+003
      endloop
   endfacet
   facet normal -1.007587e-017 5.807914e-002 9.983120e-001
      outer loop
         vertex 1.217792e+003 5.371395e+002 1.876314e+003
         vertex 1.220792e+003 5.374174e+002 1.876290e+003
         vertex 1.217792e+003 5.374174e+002 1.876290e+003
      endloop
   endfacet
   facet normal -2.821781e-018 -5.807914e-002 9.983120e-001
      outer loop
         vertex 1.217792e+003 5.374174e+002 1.876290e+003
         vertex 1.220792e+003 5.374174e+002 1.876290e+003
         vertex 1.220792e+003 5.376952e+002 1.876314e+003
      endloop
   endfacet
   facet normal 8.380871e-019 -1.161583e-001 9.932307e-001
      outer loop
         vertex 1.217792e+003 5.374174e+002 1.876290e+003
         vertex 1.220792e+003 5.376952e+002 1.876314e+003
         vertex 1.217792e+003 5.376952e+002 1.876314e+003
      endloop
   endfacet
   facet normal 8.112267e-018 -2.305518e-001 9.730601e-001
      outer loop
         vertex 1.217792e+003 5.376952e+002 1.876314e+003
         vertex 1.220792e+003 5.376952e+002 1.876314e+003
         vertex 1.220792e+003 5.379646e+002 1.876386e+003
      endloop
   endfacet
   facet normal 1.172658e-017 -2.868663e-001 9.579706e-001
      outer loop
         vertex 1.217792e+003 5.376952e+002 1.876314e+003
         vertex 1.220792e+003 5.379646e+002 1.876386e+003
         vertex 1.217792e+003 5.379646e+002 1.876386e+003
      endloop
   endfacet
   facet normal 1.879983e-017 -3.960194e-001 9.182422e-001
      outer loop
         vertex 1.217792e+003 5.379646e+002 1.876386e+003
         vertex 1.220792e+003 5.379646e+002 1.876386e+003
         vertex 1.220792e+003 5.382173e+002 1.876504e+003
      endloop
   endfacet
   facet normal 2.225877e-017 -4.488580e-001 8.936031e-001
      outer loop
         vertex 1.217792e+003 5.379646e+002 1.876386e+003
         vertex 1.220792e+003 5.382173e+002 1.876504e+003
         vertex 1.217792e+003 5.382173e+002 1.876504e+003
      endloop
   endfacet
   facet normal 2.891617e-017 -5.494540e-001 8.355240e-001
      outer loop
         vertex 1.217792e+003 5.382173e+002 1.876504e+003
         vertex 1.220792e+003 5.382173e+002 1.876504e+003
         vertex 1.220792e+003 5.384458e+002 1.876664e+003
      endloop
   endfacet
   facet normal 3.211463e-017 -5.972114e-001 8.020839e-001
      outer loop
         vertex 1.217792e+003 5.382173e+002 1.876504e+003
         vertex 1.220792e+003 5.384458e+002 1.876664e+003
         vertex 1.217792e+003 5.384458e+002 1.876664e+003
      endloop
   endfacet
   facet normal 3.815390e-017 -6.861938e-001 7.274188e-001
      outer loop
         vertex 1.217792e+003 5.384458e+002 1.876664e+003
         vertex 1.220792e+003 5.384458e+002 1.876664e+003
         vertex 1.220792e+003 5.386430e+002 1.876861e+003
      endloop
   endfacet
   facet normal 4.099471e-017 -7.274188e-001 6.861938e-001
      outer loop
         vertex 1.217792e+003 5.384458e+002 1.876664e+003
         vertex 1.220792e+003 5.386430e+002 1.876861e+003
         vertex 1.217792e+003 5.386430e+002 1.876861e+003
      endloop
   endfacet
   facet normal 4.623235e-017 -8.020839e-001 5.972114e-001
      outer loop
         vertex 1.217792e+003 5.386430e+002 1.876861e+003
         vertex 1.220792e+003 5.386430e+002 1.876861e+003
         vertex 1.220792e+003 5.388030e+002 1.877090e+003
      endloop
   endfacet
   facet normal 4.862919e-017 -8.355240e-001 5.494540e-001
      outer loop
         vertex 1.217792e+003 5.386430e+002 1.876861e+003
         vertex 1.220792e+003 5.388030e+002 1.877090e+003
         vertex 1.217792e+003 5.388030e+002 1.877090e+003
      endloop
   endfacet
   facet normal 5.290605e-017 -8.936031e-001 4.488580e-001
      outer loop
         vertex 1.217792e+003 5.388030e+002 1.877090e+003
         vertex 1.220792e+003 5.388030e+002 1.877090e+003
         vertex 1.220792e+003 5.389208e+002 1.877343e+003
      endloop
   endfacet
   facet normal 5.478608e-017 -9.182422e-001 3.960194e-001
      outer loop
         vertex 1.217792e+003 5.388030e+002 1.877090e+003
         vertex 1.220792e+003 5.389208e+002 1.877343e+003
         vertex 1.217792e+003 5.389208e+002 1.877343e+003
      endloop
   endfacet
   facet normal 5.797223e-017 -9.579706e-001 2.868663e-001
      outer loop
         vertex 1.217792e+003 5.389208e+002 1.877343e+003
         vertex 1.220792e+003 5.389208e+002 1.877343e+003
         vertex 1.220792e+003 5.389930e+002 1.877612e+003
      endloop
   endfacet
   facet normal 5.927834e-017 -9.730601e-001 2.305518e-001
      outer loop
         vertex 1.217792e+003 5.389208e+002 1.877343e+003
         vertex 1.220792e+003 5.389930e+002 1.877612e+003
         vertex 1.217792e+003 5.389930e+002 1.877612e+003
      endloop
   endfacet
   facet normal 6.127695e-017 -9.932307e-001 1.161583e-001
      outer loop
         vertex 1.217792e+003 5.389930e+002 1.877612e+003
         vertex 1.220792e+003 5.389930e+002 1.877612e+003
         vertex 1.220792e+003 5.390173e+002 1.877890e+003
      endloop
   endfacet
   facet normal 6.196945e-017 -9.983120e-001 5.807914e-002
      outer loop
         vertex 1.217792e+003 5.389930e+002 1.877612e+003
         vertex 1.220792e+003 5.390173e+002 1.877890e+003
         vertex 1.217792e+003 5.390173e+002 1.877890e+003
      endloop
   endfacet
   facet normal 6.271981e-017 -9.983120e-001 -5.807914e-002
      outer loop
         vertex 1.217792e+003 5.390173e+002 1.877890e+003
         vertex 1.220792e+003 5.390173e+002 1.877890e+003
         vertex 1.220792e+003 5.389930e+002 1.878168e+003
      endloop
   endfacet
   facet normal 6.277765e-017 -9.932307e-001 -1.161583e-001
      outer loop
         vertex 1.217792e+003 5.390173e+002 1.877890e+003
         vertex 1.220792e+003 5.389930e+002 1.878168e+003
         vertex 1.217792e+003 5.389930e+002 1.878168e+003
      endloop
   endfacet
   facet normal 6.225695e-017 -9.730601e-001 -2.305518e-001
      outer loop
         vertex 1.217792e+003 5.389930e+002 1.878168e+003
         vertex 1.220792e+003 5.389930e+002 1.878168e+003
         vertex 1.220792e+003 5.389208e+002 1.878437e+003
      endloop
   endfacet
   facet normal 6.167839e-017 -9.579706e-001 -2.868663e-001
      outer loop
         vertex 1.217792e+003 5.389930e+002 1.878168e+003
         vertex 1.220792e+003 5.389208e+002 1.878437e+003
         vertex 1.217792e+003 5.389208e+002 1.878437e+003
      endloop
   endfacet
   facet normal 5.990244e-017 -9.182422e-001 -3.960194e-001
      outer loop
         vertex 1.217792e+003 5.389208e+002 1.878437e+003
         vertex 1.220792e+003 5.389208e+002 1.878437e+003
         vertex 1.220792e+003 5.388030e+002 1.878690e+003
      endloop
   endfacet
   facet normal 5.870505e-017 -8.936031e-001 -4.488580e-001
      outer loop
         vertex 1.217792e+003 5.389208e+002 1.878437e+003
         vertex 1.220792e+003 5.388030e+002 1.878690e+003
         vertex 1.217792e+003 5.388030e+002 1.878690e+003
      endloop
   endfacet
   facet normal 5.572783e-017 -8.355240e-001 -5.494540e-001
      outer loop
         vertex 1.217792e+003 5.388030e+002 1.878690e+003
         vertex 1.220792e+003 5.388030e+002 1.878690e+003
         vertex 1.220792e+003 5.386430e+002 1.878918e+003
      endloop
   endfacet
   facet normal 5.394800e-017 -8.020839e-001 -5.972114e-001
      outer loop
         vertex 1.217792e+003 5.388030e+002 1.878690e+003
         vertex 1.220792e+003 5.386430e+002 1.878918e+003
         vertex 1.217792e+003 5.386430e+002 1.878918e+003
      endloop
   endfacet
   facet normal 4.985996e-017 -7.274188e-001 -6.861938e-001
      outer loop
         vertex 1.217792e+003 5.386430e+002 1.878918e+003
         vertex 1.220792e+003 5.386430e+002 1.878918e+003
         vertex 1.220792e+003 5.384458e+002 1.879116e+003
      endloop
   endfacet
   facet normal 4.755176e-017 -6.861938e-001 -7.274188e-001
      outer loop
         vertex 1.217792e+003 5.386430e+002 1.878918e+003
         vertex 1.220792e+003 5.384458e+002 1.879116e+003
         vertex 1.217792e+003 5.384458e+002 1.879116e+003
      endloop
   endfacet
   facet normal 4.247712e-017 -5.972114e-001 -8.020839e-001
      outer loop
         vertex 1.217792e+003 5.384458e+002 1.879116e+003
         vertex 1.220792e+003 5.384458e+002 1.879116e+003
         vertex 1.220792e+003 5.382173e+002 1.879276e+003
      endloop
   endfacet
   facet normal 3.971068e-017 -5.494540e-001 -8.355240e-001
      outer loop
         vertex 1.217792e+003 5.384458e+002 1.879116e+003
         vertex 1.220792e+003 5.382173e+002 1.879276e+003
         vertex 1.217792e+003 5.382173e+002 1.879276e+003
      endloop
   endfacet
   facet normal 3.380364e-017 -4.488580e-001 -8.936031e-001
      outer loop
         vertex 1.217792e+003 5.382173e+002 1.879276e+003
         vertex 1.220792e+003 5.382173e+002 1.879276e+003
         vertex 1.220792e+003 5.379646e+002 1.879393e+003
      endloop
   endfacet
   facet normal 3.066302e-017 -3.960194e-001 -9.182422e-001
      outer loop
         vertex 1.217792e+003 5.382173e+002 1.879276e+003
         vertex 1.220792e+003 5.379646e+002 1.879393e+003
         vertex 1.217792e+003 5.379646e+002 1.879393e+003
      endloop
   endfacet
   facet normal 2.410304e-017 -2.868663e-001 -9.579706e-001
      outer loop
         vertex 1.217792e+003 5.379646e+002 1.879393e+003
         vertex 1.220792e+003 5.379646e+002 1.879393e+003
         vertex 1.220792e+003 5.376952e+002 1.879466e+003
      endloop
   endfacet
   facet normal 2.068368e-017 -2.305518e-001 -9.730601e-001
      outer loop
         vertex 1.217792e+003 5.379646e+002 1.879393e+003
         vertex 1.220792e+003 5.376952e+002 1.879466e+003
         vertex 1.217792e+003 5.376952e+002 1.879466e+003
      endloop
   endfacet
   facet normal 1.367009e-017 -1.161583e-001 -9.932307e-001
      outer loop
         vertex 1.217792e+003 5.376952e+002 1.879466e+003
         vertex 1.220792e+003 5.376952e+002 1.879466e+003
         vertex 1.220792e+003 5.374174e+002 1.879490e+003
      endloop
   endfacet
   facet normal 1.007587e-017 -5.807914e-002 -9.983120e-001
      outer loop
         vertex 1.217792e+003 5.376952e+002 1.879466e+003
         vertex 1.220792e+003 5.374174e+002 1.879490e+003
         vertex 1.217792e+003 5.374174e+002 1.879490e+003
      endloop
   endfacet
   facet normal 2.821781e-018 5.807914e-002 -9.983120e-001
      outer loop
         vertex 1.217792e+003 5.374174e+002 1.879490e+003
         vertex 1.220792e+003 5.374174e+002 1.879490e+003
         vertex 1.220792e+003 5.371395e+002 1.879466e+003
      endloop
   endfacet
   facet normal -8.380871e-019 1.161583e-001 -9.932307e-001
      outer loop
         vertex 1.217792e+003 5.374174e+002 1.879490e+003
         vertex 1.220792e+003 5.371395e+002 1.879466e+003
         vertex 1.217792e+003 5.371395e+002 1.879466e+003
      endloop
   endfacet
   facet normal -8.112267e-018 2.305518e-001 -9.730601e-001
      outer loop
         vertex 1.217792e+003 5.371395e+002 1.879466e+003
         vertex 1.220792e+003 5.371395e+002 1.879466e+003
         vertex 1.220792e+003 5.368701e+002 1.879393e+003
      endloop
   endfacet
   facet normal -1.172658e-017 2.868663e-001 -9.579706e-001
      outer loop
         vertex 1.217792e+003 5.371395e+002 1.879466e+003
         vertex 1.220792e+003 5.368701e+002 1.879393e+003
         vertex 1.217792e+003 5.368701e+002 1.879393e+003
      endloop
   endfacet
   facet normal -1.879983e-017 3.960194e-001 -9.182422e-001
      outer loop
         vertex 1.217792e+003 5.368701e+002 1.879393e+003
         vertex 1.220792e+003 5.368701e+002 1.879393e+003
         vertex 1.220792e+003 5.366173e+002 1.879276e+003
      endloop
   endfacet
   facet normal -2.225877e-017 4.488580e-001 -8.936031e-001
      outer loop
         vertex 1.217792e+003 5.368701e+002 1.879393e+003
         vertex 1.220792e+003 5.366173e+002 1.879276e+003
         vertex 1.217792e+003 5.366173e+002 1.879276e+003
      endloop
   endfacet
   facet normal -2.891617e-017 5.494540e-001 -8.355240e-001
      outer loop
         vertex 1.217792e+003 5.366173e+002 1.879276e+003
         vertex 1.220792e+003 5.366173e+002 1.879276e+003
         vertex 1.220792e+003 5.363889e+002 1.879116e+003
      endloop
   endfacet
   facet normal -3.211463e-017 5.972114e-001 -8.020839e-001
      outer loop
         vertex 1.217792e+003 5.366173e+002 1.879276e+003
         vertex 1.220792e+003 5.363889e+002 1.879116e+003
         vertex 1.217792e+003 5.363889e+002 1.879116e+003
      endloop
   endfacet
   facet normal -3.815390e-017 6.861938e-001 -7.274188e-001
      outer loop
         vertex 1.217792e+003 5.363889e+002 1.879116e+003
         vertex 1.220792e+003 5.363889e+002 1.879116e+003
         vertex 1.220792e+003 5.361917e+002 1.878918e+003
      endloop
   endfacet
   facet normal -4.099471e-017 7.274188e-001 -6.861938e-001
      outer loop
         vertex 1.217792e+003 5.363889e+002 1.879116e+003
         vertex 1.220792e+003 5.361917e+002 1.878918e+003
         vertex 1.217792e+003 5.361917e+002 1.878918e+003
      endloop
   endfacet
   facet normal -4.623235e-017 8.020839e-001 -5.972114e-001
      outer loop
         vertex 1.217792e+003 5.361917e+002 1.878918e+003
         vertex 1.220792e+003 5.361917e+002 1.878918e+003
         vertex 1.220792e+003 5.360317e+002 1.878690e+003
      endloop
   endfacet
   facet normal -4.862919e-017 8.355240e-001 -5.494540e-001
      outer loop
         vertex 1.217792e+003 5.361917e+002 1.878918e+003
         vertex 1.220792e+003 5.360317e+002 1.878690e+003
         vertex 1.217792e+003 5.360317e+002 1.878690e+003
      endloop
   endfacet
   facet normal -5.290605e-017 8.936031e-001 -4.488580e-001
      outer loop
         vertex 1.217792e+003 5.360317e+002 1.878690e+003
         vertex 1.220792e+003 5.360317e+002 1.878690e+003
         vertex 1.220792e+003 5.359138e+002 1.878437e+003
      endloop
   endfacet
   facet normal -5.478608e-017 9.182422e-001 -3.960194e-001
      outer loop
         vertex 1.217792e+003 5.360317e+002 1.878690e+003
         vertex 1.220792e+003 5.359138e+002 1.878437e+003
         vertex 1.217792e+003 5.359138e+002 1.878437e+003
      endloop
   endfacet
   facet normal -5.797223e-017 9.579706e-001 -2.868663e-001
      outer loop
         vertex 1.217792e+003 5.359138e+002 1.878437e+003
         vertex 1.220792e+003 5.359138e+002 1.878437e+003
         vertex 1.220792e+003 5.358416e+002 1.878168e+003
      endloop
   endfacet
   facet normal -5.927834e-017 9.730601e-001 -2.305518e-001
      outer loop
         vertex 1.217792e+003 5.359138e+002 1.878437e+003
         vertex 1.220792e+003 5.358416e+002 1.878168e+003
         vertex 1.217792e+003 5.358416e+002 1.878168e+003
      endloop
   endfacet
   facet normal -6.127695e-017 9.932307e-001 -1.161583e-001
      outer loop
         vertex 1.217792e+003 5.358416e+002 1.878168e+003
         vertex 1.220792e+003 5.358416e+002 1.878168e+003
         vertex 1.220792e+003 5.358173e+002 1.877890e+003
      endloop
   endfacet
endsolid