solid 09.025.00.00.000 - 09.025.00.08.000-1 09.025.00.08.025-4
   facet normal 6.245005e-017 -1.000000e+000 6.367905e-016
      outer loop
         vertex 1.038792e+003 1.073417e+003 1.948390e+003
         vertex 1.038792e+003 1.073417e+003 1.873390e+003
         vertex 1.043792e+003 1.073417e+003 1.948390e+003
      endloop
   endfacet
   facet normal 6.245005e-017 -1.000000e+000 6.367905e-016
      outer loop
         vertex 1.043792e+003 1.073417e+003 1.948390e+003
         vertex 1.038792e+003 1.073417e+003 1.873390e+003
         vertex 1.043792e+003 1.073417e+003 1.873390e+003
      endloop
   endfacet
   facet normal -6.459731e-018 6.407581e-016 1.000000e+000
      outer loop
         vertex 1.038792e+003 1.093417e+003 1.948390e+003
         vertex 1.038792e+003 1.073417e+003 1.948390e+003
         vertex 1.043792e+003 1.093417e+003 1.948390e+003
      endloop
   endfacet
   facet normal -6.459731e-018 6.407581e-016 1.000000e+000
      outer loop
         vertex 1.043792e+003 1.093417e+003 1.948390e+003
         vertex 1.038792e+003 1.073417e+003 1.948390e+003
         vertex 1.043792e+003 1.073417e+003 1.948390e+003
      endloop
   endfacet
   facet normal -6.245005e-017 1.000000e+000 -5.905312e-016
      outer loop
         vertex 1.038792e+003 1.093417e+003 1.873390e+003
         vertex 1.038792e+003 1.093417e+003 1.948390e+003
         vertex 1.043792e+003 1.093417e+003 1.873390e+003
      endloop
   endfacet
   facet normal -6.245005e-017 1.000000e+000 -5.905312e-016
      outer loop
         vertex 1.043792e+003 1.093417e+003 1.873390e+003
         vertex 1.038792e+003 1.093417e+003 1.948390e+003
         vertex 1.043792e+003 1.093417e+003 1.948390e+003
      endloop
   endfacet
   facet normal 6.459731e-018 -6.407581e-016 -1.000000e+000
      outer loop
         vertex 1.038792e+003 1.073417e+003 1.873390e+003
         vertex 1.038792e+003 1.093417e+003 1.873390e+003
         vertex 1.043792e+003 1.073417e+003 1.873390e+003
      endloop
   endfacet
   facet normal 6.459731e-018 -6.407581e-016 -1.000000e+000
      outer loop
         vertex 1.043792e+003 1.073417e+003 1.873390e+003
         vertex 1.038792e+003 1.093417e+003 1.873390e+003
         vertex 1.043792e+003 1.093417e+003 1.873390e+003
      endloop
   endfacet
   facet normal -1.000000e+000 -1.040834e-016 1.026531e-018
      outer loop
         vertex 1.038792e+003 1.093417e+003 1.948390e+003
         vertex 1.038792e+003 1.093417e+003 1.873390e+003
         vertex 1.038792e+003 1.092617e+003 1.883390e+003
      endloop
   endfacet
   facet normal -1.000000e+000 -1.040834e-016 1.026531e-018
      outer loop
         vertex 1.038792e+003 1.073417e+003 1.948390e+003
         vertex 1.038792e+003 1.076417e+003 1.885590e+003
         vertex 1.038792e+003 1.076035e+003 1.885557e+003
      endloop
   endfacet
   facet normal -1.000000e+000 -1.040834e-016 1.026531e-018
      outer loop
         vertex 1.038792e+003 1.076417e+003 1.885590e+003
         vertex 1.038792e+003 1.073417e+003 1.948390e+003
         vertex 1.038792e+003 1.076799e+003 1.885557e+003
      endloop
   endfacet
   facet normal -1.000000e+000 -1.040834e-016 1.026531e-018
      outer loop
         vertex 1.038792e+003 1.076799e+003 1.885557e+003
         vertex 1.038792e+003 1.073417e+003 1.948390e+003
         vertex 1.038792e+003 1.093417e+003 1.948390e+003
      endloop
   endfacet
   facet normal -1.000000e+000 -1.040834e-016 1.026531e-018
      outer loop
         vertex 1.038792e+003 1.076799e+003 1.885557e+003
         vertex 1.038792e+003 1.093417e+003 1.948390e+003
         vertex 1.038792e+003 1.077170e+003 1.885457e+003
      endloop
   endfacet
   facet normal -1.000000e+000 -1.040834e-016 1.026531e-018
      outer loop
         vertex 1.038792e+003 1.092617e+003 1.883390e+003
         vertex 1.038792e+003 1.092584e+003 1.883772e+003
         vertex 1.038792e+003 1.093417e+003 1.948390e+003
      endloop
   endfacet
   facet normal -1.000000e+000 -1.040834e-016 1.026531e-018
      outer loop
         vertex 1.038792e+003 1.093417e+003 1.948390e+003
         vertex 1.038792e+003 1.092584e+003 1.883772e+003
         vertex 1.038792e+003 1.092485e+003 1.884142e+003
      endloop
   endfacet
   facet normal -1.000000e+000 -1.040834e-016 1.026531e-018
      outer loop
         vertex 1.038792e+003 1.093417e+003 1.948390e+003
         vertex 1.038792e+003 1.092485e+003 1.884142e+003
         vertex 1.038792e+003 1.092323e+003 1.884490e+003
      endloop
   endfacet
   facet normal -1.000000e+000 -1.040834e-016 1.026531e-018
      outer loop
         vertex 1.038792e+003 1.092323e+003 1.884490e+003
         vertex 1.038792e+003 1.092103e+003 1.884804e+003
         vertex 1.038792e+003 1.093417e+003 1.948390e+003
      endloop
   endfacet
   facet normal -1.000000e+000 -1.040834e-016 1.026531e-018
      outer loop
         vertex 1.038792e+003 1.093417e+003 1.948390e+003
         vertex 1.038792e+003 1.092103e+003 1.884804e+003
         vertex 1.038792e+003 1.091831e+003 1.885075e+003
      endloop
   endfacet
   facet normal -1.000000e+000 -1.040834e-016 1.026531e-018
      outer loop
         vertex 1.038792e+003 1.093417e+003 1.948390e+003
         vertex 1.038792e+003 1.091831e+003 1.885075e+003
         vertex 1.038792e+003 1.091517e+003 1.885295e+003
      endloop
   endfacet
   facet normal -1.000000e+000 -1.040834e-016 1.026531e-018
      outer loop
         vertex 1.038792e+003 1.078584e+003 1.883772e+003
         vertex 1.038792e+003 1.078485e+003 1.884142e+003
         vertex 1.038792e+003 1.090035e+003 1.885557e+003
      endloop
   endfacet
   facet normal -1.000000e+000 -1.040834e-016 1.026531e-018
      outer loop
         vertex 1.038792e+003 1.089665e+003 1.885457e+003
         vertex 1.038792e+003 1.077170e+003 1.881323e+003
         vertex 1.038792e+003 1.077517e+003 1.881485e+003
      endloop
   endfacet
   facet normal -1.000000e+000 -1.040834e-016 1.026531e-018
      outer loop
         vertex 1.038792e+003 1.077517e+003 1.881485e+003
         vertex 1.038792e+003 1.077832e+003 1.881705e+003
         vertex 1.038792e+003 1.089665e+003 1.885457e+003
      endloop
   endfacet
   facet normal -1.000000e+000 -1.040834e-016 1.026531e-018
      outer loop
         vertex 1.038792e+003 1.089665e+003 1.885457e+003
         vertex 1.038792e+003 1.077832e+003 1.881705e+003
         vertex 1.038792e+003 1.078103e+003 1.881976e+003
      endloop
   endfacet
   facet normal -1.000000e+000 -1.040834e-016 1.026531e-018
      outer loop
         vertex 1.038792e+003 1.089665e+003 1.885457e+003
         vertex 1.038792e+003 1.078103e+003 1.881976e+003
         vertex 1.038792e+003 1.078323e+003 1.882290e+003
      endloop
   endfacet
   facet normal -1.000000e+000 -1.040834e-016 1.026531e-018
      outer loop
         vertex 1.038792e+003 1.089665e+003 1.885457e+003
         vertex 1.038792e+003 1.089317e+003 1.885295e+003
         vertex 1.038792e+003 1.077170e+003 1.881323e+003
      endloop
   endfacet
   facet normal -1.000000e+000 -1.040834e-016 1.026531e-018
      outer loop
         vertex 1.038792e+003 1.077170e+003 1.881323e+003
         vertex 1.038792e+003 1.089317e+003 1.885295e+003
         vertex 1.038792e+003 1.089003e+003 1.885075e+003
      endloop
   endfacet
   facet normal -1.000000e+000 -1.040834e-016 1.026531e-018
      outer loop
         vertex 1.038792e+003 1.077170e+003 1.881323e+003
         vertex 1.038792e+003 1.089003e+003 1.885075e+003
         vertex 1.038792e+003 1.088732e+003 1.884804e+003
      endloop
   endfacet
   facet normal -1.000000e+000 -1.040834e-016 1.026531e-018
      outer loop
         vertex 1.038792e+003 1.091517e+003 1.885295e+003
         vertex 1.038792e+003 1.091170e+003 1.885457e+003
         vertex 1.038792e+003 1.093417e+003 1.948390e+003
      endloop
   endfacet
   facet normal -1.000000e+000 -1.040834e-016 1.026531e-018
      outer loop
         vertex 1.038792e+003 1.093417e+003 1.948390e+003
         vertex 1.038792e+003 1.091170e+003 1.885457e+003
         vertex 1.038792e+003 1.090799e+003 1.885557e+003
      endloop
   endfacet
   facet normal -1.000000e+000 -1.040834e-016 1.026531e-018
      outer loop
         vertex 1.038792e+003 1.093417e+003 1.948390e+003
         vertex 1.038792e+003 1.090799e+003 1.885557e+003
         vertex 1.038792e+003 1.090417e+003 1.885590e+003
      endloop
   endfacet
   facet normal -1.000000e+000 -1.040834e-016 1.026531e-018
      outer loop
         vertex 1.038792e+003 1.076035e+003 1.885557e+003
         vertex 1.038792e+003 1.075665e+003 1.885457e+003
         vertex 1.038792e+003 1.073417e+003 1.948390e+003
      endloop
   endfacet
   facet normal -1.000000e+000 -1.040834e-016 1.026531e-018
      outer loop
         vertex 1.038792e+003 1.073417e+003 1.948390e+003
         vertex 1.038792e+003 1.075665e+003 1.885457e+003
         vertex 1.038792e+003 1.075317e+003 1.885295e+003
      endloop
   endfacet
   facet normal -1.000000e+000 -1.040834e-016 1.026531e-018
      outer loop
         vertex 1.038792e+003 1.073417e+003 1.948390e+003
         vertex 1.038792e+003 1.075317e+003 1.885295e+003
         vertex 1.038792e+003 1.075003e+003 1.885075e+003
      endloop
   endfacet
   facet normal -1.000000e+000 -1.040834e-016 1.026531e-018
      outer loop
         vertex 1.038792e+003 1.078323e+003 1.882290e+003
         vertex 1.038792e+003 1.078485e+003 1.882637e+003
         vertex 1.038792e+003 1.089665e+003 1.885457e+003
      endloop
   endfacet
   facet normal -1.000000e+000 -1.040834e-016 1.026531e-018
      outer loop
         vertex 1.038792e+003 1.089665e+003 1.885457e+003
         vertex 1.038792e+003 1.078485e+003 1.882637e+003
         vertex 1.038792e+003 1.078584e+003 1.883008e+003
      endloop
   endfacet
   facet normal -1.000000e+000 -1.040834e-016 1.026531e-018
      outer loop
         vertex 1.038792e+003 1.089665e+003 1.885457e+003
         vertex 1.038792e+003 1.078584e+003 1.883008e+003
         vertex 1.038792e+003 1.090035e+003 1.885557e+003
      endloop
   endfacet
   facet normal -1.000000e+000 -1.040834e-016 1.026531e-018
      outer loop
         vertex 1.038792e+003 1.090035e+003 1.885557e+003
         vertex 1.038792e+003 1.078584e+003 1.883008e+003
         vertex 1.038792e+003 1.078617e+003 1.883390e+003
      endloop
   endfacet
   facet normal -1.000000e+000 -1.040834e-016 1.026531e-018
      outer loop
         vertex 1.038792e+003 1.090035e+003 1.885557e+003
         vertex 1.038792e+003 1.078617e+003 1.883390e+003
         vertex 1.038792e+003 1.078584e+003 1.883772e+003
      endloop
   endfacet
   facet normal -1.000000e+000 -1.040834e-016 1.026531e-018
      outer loop
         vertex 1.038792e+003 1.093417e+003 1.873390e+003
         vertex 1.038792e+003 1.091170e+003 1.881323e+003
         vertex 1.038792e+003 1.091517e+003 1.881485e+003
      endloop
   endfacet
   facet normal -1.000000e+000 -1.040834e-016 1.026531e-018
      outer loop
         vertex 1.038792e+003 1.078485e+003 1.884142e+003
         vertex 1.038792e+003 1.078323e+003 1.884490e+003
         vertex 1.038792e+003 1.090035e+003 1.885557e+003
      endloop
   endfacet
   facet normal -1.000000e+000 -1.040834e-016 1.026531e-018
      outer loop
         vertex 1.038792e+003 1.090035e+003 1.885557e+003
         vertex 1.038792e+003 1.078323e+003 1.884490e+003
         vertex 1.038792e+003 1.078103e+003 1.884804e+003
      endloop
   endfacet
   facet normal -1.000000e+000 -1.040834e-016 1.026531e-018
      outer loop
         vertex 1.038792e+003 1.090035e+003 1.885557e+003
         vertex 1.038792e+003 1.078103e+003 1.884804e+003
         vertex 1.038792e+003 1.090417e+003 1.885590e+003
      endloop
   endfacet
   facet normal -1.000000e+000 -1.040834e-016 1.026531e-018
      outer loop
         vertex 1.038792e+003 1.090417e+003 1.885590e+003
         vertex 1.038792e+003 1.078103e+003 1.884804e+003
         vertex 1.038792e+003 1.077832e+003 1.885075e+003
      endloop
   endfacet
   facet normal -1.000000e+000 -1.040834e-016 1.026531e-018
      outer loop
         vertex 1.038792e+003 1.090417e+003 1.885590e+003
         vertex 1.038792e+003 1.077832e+003 1.885075e+003
         vertex 1.038792e+003 1.093417e+003 1.948390e+003
      endloop
   endfacet
   facet normal -1.000000e+000 -1.040834e-016 1.026531e-018
      outer loop
         vertex 1.038792e+003 1.093417e+003 1.948390e+003
         vertex 1.038792e+003 1.077832e+003 1.885075e+003
         vertex 1.038792e+003 1.077517e+003 1.885295e+003
      endloop
   endfacet
   facet normal -1.000000e+000 -1.040834e-016 1.026531e-018
      outer loop
         vertex 1.038792e+003 1.093417e+003 1.948390e+003
         vertex 1.038792e+003 1.077517e+003 1.885295e+003
         vertex 1.038792e+003 1.077170e+003 1.885457e+003
      endloop
   endfacet
   facet normal -1.000000e+000 -1.040834e-016 1.026531e-018
      outer loop
         vertex 1.038792e+003 1.075003e+003 1.885075e+003
         vertex 1.038792e+003 1.074732e+003 1.884804e+003
         vertex 1.038792e+003 1.073417e+003 1.948390e+003
      endloop
   endfacet
   facet normal -1.000000e+000 -1.040834e-016 1.026531e-018
      outer loop
         vertex 1.038792e+003 1.073417e+003 1.948390e+003
         vertex 1.038792e+003 1.074732e+003 1.884804e+003
         vertex 1.038792e+003 1.074512e+003 1.884490e+003
      endloop
   endfacet
   facet normal -1.000000e+000 -1.040834e-016 1.026531e-018
      outer loop
         vertex 1.038792e+003 1.073417e+003 1.948390e+003
         vertex 1.038792e+003 1.074512e+003 1.884490e+003
         vertex 1.038792e+003 1.074350e+003 1.884142e+003
      endloop
   endfacet
   facet normal -1.000000e+000 -1.040834e-016 1.026531e-018
      outer loop
         vertex 1.038792e+003 1.075665e+003 1.881323e+003
         vertex 1.038792e+003 1.073417e+003 1.873390e+003
         vertex 1.038792e+003 1.075317e+003 1.881485e+003
      endloop
   endfacet
   facet normal -1.000000e+000 -1.040834e-016 1.026531e-018
      outer loop
         vertex 1.038792e+003 1.075317e+003 1.881485e+003
         vertex 1.038792e+003 1.073417e+003 1.873390e+003
         vertex 1.038792e+003 1.075003e+003 1.881705e+003
      endloop
   endfacet
   facet normal -1.000000e+000 -1.040834e-016 1.026531e-018
      outer loop
         vertex 1.038792e+003 1.073417e+003 1.873390e+003
         vertex 1.038792e+003 1.089665e+003 1.881323e+003
         vertex 1.038792e+003 1.093417e+003 1.873390e+003
      endloop
   endfacet
   facet normal -1.000000e+000 -1.040834e-016 1.026531e-018
      outer loop
         vertex 1.038792e+003 1.093417e+003 1.873390e+003
         vertex 1.038792e+003 1.089665e+003 1.881323e+003
         vertex 1.038792e+003 1.090035e+003 1.881223e+003
      endloop
   endfacet
   facet normal -1.000000e+000 -1.040834e-016 1.026531e-018
      outer loop
         vertex 1.038792e+003 1.074350e+003 1.882637e+003
         vertex 1.038792e+003 1.074512e+003 1.882290e+003
         vertex 1.038792e+003 1.073417e+003 1.873390e+003
      endloop
   endfacet
   facet normal -1.000000e+000 -1.040834e-016 1.026531e-018
      outer loop
         vertex 1.038792e+003 1.073417e+003 1.873390e+003
         vertex 1.038792e+003 1.074512e+003 1.882290e+003
         vertex 1.038792e+003 1.074732e+003 1.881976e+003
      endloop
   endfacet
   facet normal -1.000000e+000 -1.040834e-016 1.026531e-018
      outer loop
         vertex 1.038792e+003 1.073417e+003 1.873390e+003
         vertex 1.038792e+003 1.074732e+003 1.881976e+003
         vertex 1.038792e+003 1.075003e+003 1.881705e+003
      endloop
   endfacet
   facet normal -1.000000e+000 -1.040834e-016 1.026531e-018
      outer loop
         vertex 1.038792e+003 1.088732e+003 1.881976e+003
         vertex 1.038792e+003 1.089003e+003 1.881705e+003
         vertex 1.038792e+003 1.073417e+003 1.873390e+003
      endloop
   endfacet
   facet normal -1.000000e+000 -1.040834e-016 1.026531e-018
      outer loop
         vertex 1.038792e+003 1.073417e+003 1.873390e+003
         vertex 1.038792e+003 1.089003e+003 1.881705e+003
         vertex 1.038792e+003 1.089317e+003 1.881485e+003
      endloop
   endfacet
   facet normal -1.000000e+000 -1.040834e-016 1.026531e-018
      outer loop
         vertex 1.038792e+003 1.073417e+003 1.873390e+003
         vertex 1.038792e+003 1.089317e+003 1.881485e+003
         vertex 1.038792e+003 1.089665e+003 1.881323e+003
      endloop
   endfacet
   facet normal -1.000000e+000 -1.040834e-016 1.026531e-018
      outer loop
         vertex 1.038792e+003 1.090035e+003 1.881223e+003
         vertex 1.038792e+003 1.090417e+003 1.881190e+003
         vertex 1.038792e+003 1.093417e+003 1.873390e+003
      endloop
   endfacet
   facet normal -1.000000e+000 -1.040834e-016 1.026531e-018
      outer loop
         vertex 1.038792e+003 1.093417e+003 1.873390e+003
         vertex 1.038792e+003 1.090417e+003 1.881190e+003
         vertex 1.038792e+003 1.090799e+003 1.881223e+003
      endloop
   endfacet
   facet normal -1.000000e+000 -1.040834e-016 1.026531e-018
      outer loop
         vertex 1.038792e+003 1.093417e+003 1.873390e+003
         vertex 1.038792e+003 1.090799e+003 1.881223e+003
         vertex 1.038792e+003 1.091170e+003 1.881323e+003
      endloop
   endfacet
   facet normal -1.000000e+000 -1.040834e-016 1.026531e-018
      outer loop
         vertex 1.038792e+003 1.092323e+003 1.882290e+003
         vertex 1.038792e+003 1.092485e+003 1.882637e+003
         vertex 1.038792e+003 1.093417e+003 1.873390e+003
      endloop
   endfacet
   facet normal -1.000000e+000 -1.040834e-016 1.026531e-018
      outer loop
         vertex 1.038792e+003 1.093417e+003 1.873390e+003
         vertex 1.038792e+003 1.092485e+003 1.882637e+003
         vertex 1.038792e+003 1.092584e+003 1.883008e+003
      endloop
   endfacet
   facet normal -1.000000e+000 -1.040834e-016 1.026531e-018
      outer loop
         vertex 1.038792e+003 1.093417e+003 1.873390e+003
         vertex 1.038792e+003 1.092584e+003 1.883008e+003
         vertex 1.038792e+003 1.092617e+003 1.883390e+003
      endloop
   endfacet
   facet normal -1.000000e+000 -1.040834e-016 1.026531e-018
      outer loop
         vertex 1.038792e+003 1.088732e+003 1.884804e+003
         vertex 1.038792e+003 1.088512e+003 1.884490e+003
         vertex 1.038792e+003 1.077170e+003 1.881323e+003
      endloop
   endfacet
   facet normal -1.000000e+000 -1.040834e-016 1.026531e-018
      outer loop
         vertex 1.038792e+003 1.077170e+003 1.881323e+003
         vertex 1.038792e+003 1.088512e+003 1.884490e+003
         vertex 1.038792e+003 1.088350e+003 1.884142e+003
      endloop
   endfacet
   facet normal -1.000000e+000 -1.040834e-016 1.026531e-018
      outer loop
         vertex 1.038792e+003 1.077170e+003 1.881323e+003
         vertex 1.038792e+003 1.088350e+003 1.884142e+003
         vertex 1.038792e+003 1.076799e+003 1.881223e+003
      endloop
   endfacet
   facet normal -1.000000e+000 -1.040834e-016 1.026531e-018
      outer loop
         vertex 1.038792e+003 1.076799e+003 1.881223e+003
         vertex 1.038792e+003 1.088350e+003 1.884142e+003
         vertex 1.038792e+003 1.088251e+003 1.883772e+003
      endloop
   endfacet
   facet normal -1.000000e+000 -1.040834e-016 1.026531e-018
      outer loop
         vertex 1.038792e+003 1.076799e+003 1.881223e+003
         vertex 1.038792e+003 1.088251e+003 1.883772e+003
         vertex 1.038792e+003 1.088217e+003 1.883390e+003
      endloop
   endfacet
   facet normal -1.000000e+000 -1.040834e-016 1.026531e-018
      outer loop
         vertex 1.038792e+003 1.091517e+003 1.881485e+003
         vertex 1.038792e+003 1.091831e+003 1.881705e+003
         vertex 1.038792e+003 1.093417e+003 1.873390e+003
      endloop
   endfacet
   facet normal -1.000000e+000 -1.040834e-016 1.026531e-018
      outer loop
         vertex 1.038792e+003 1.093417e+003 1.873390e+003
         vertex 1.038792e+003 1.091831e+003 1.881705e+003
         vertex 1.038792e+003 1.092103e+003 1.881976e+003
      endloop
   endfacet
   facet normal -1.000000e+000 -1.040834e-016 1.026531e-018
      outer loop
         vertex 1.038792e+003 1.093417e+003 1.873390e+003
         vertex 1.038792e+003 1.092103e+003 1.881976e+003
         vertex 1.038792e+003 1.092323e+003 1.882290e+003
      endloop
   endfacet
   facet normal -1.000000e+000 -1.040834e-016 1.026531e-018
      outer loop
         vertex 1.038792e+003 1.075665e+003 1.881323e+003
         vertex 1.038792e+003 1.076035e+003 1.881223e+003
         vertex 1.038792e+003 1.073417e+003 1.873390e+003
      endloop
   endfacet
   facet normal -1.000000e+000 -1.040834e-016 1.026531e-018
      outer loop
         vertex 1.038792e+003 1.073417e+003 1.873390e+003
         vertex 1.038792e+003 1.076035e+003 1.881223e+003
         vertex 1.038792e+003 1.076417e+003 1.881190e+003
      endloop
   endfacet
   facet normal -1.000000e+000 -1.040834e-016 1.026531e-018
      outer loop
         vertex 1.038792e+003 1.073417e+003 1.873390e+003
         vertex 1.038792e+003 1.076417e+003 1.881190e+003
         vertex 1.038792e+003 1.076799e+003 1.881223e+003
      endloop
   endfacet
   facet normal -1.000000e+000 -1.040834e-016 1.026531e-018
      outer loop
         vertex 1.038792e+003 1.074350e+003 1.884142e+003
         vertex 1.038792e+003 1.074251e+003 1.883772e+003
         vertex 1.038792e+003 1.073417e+003 1.948390e+003
      endloop
   endfacet
   facet normal -1.000000e+000 -1.040834e-016 1.026531e-018
      outer loop
         vertex 1.038792e+003 1.073417e+003 1.948390e+003
         vertex 1.038792e+003 1.074251e+003 1.883772e+003
         vertex 1.038792e+003 1.074217e+003 1.883390e+003
      endloop
   endfacet
   facet normal -1.000000e+000 -1.040834e-016 1.026531e-018
      outer loop
         vertex 1.038792e+003 1.073417e+003 1.948390e+003
         vertex 1.038792e+003 1.074217e+003 1.883390e+003
         vertex 1.038792e+003 1.073417e+003 1.873390e+003
      endloop
   endfacet
   facet normal -1.000000e+000 -1.040834e-016 1.026531e-018
      outer loop
         vertex 1.038792e+003 1.073417e+003 1.873390e+003
         vertex 1.038792e+003 1.074217e+003 1.883390e+003
         vertex 1.038792e+003 1.074251e+003 1.883008e+003
      endloop
   endfacet
   facet normal -1.000000e+000 -1.040834e-016 1.026531e-018
      outer loop
         vertex 1.038792e+003 1.073417e+003 1.873390e+003
         vertex 1.038792e+003 1.074251e+003 1.883008e+003
         vertex 1.038792e+003 1.074350e+003 1.882637e+003
      endloop
   endfacet
   facet normal -1.000000e+000 -1.040834e-016 1.026531e-018
      outer loop
         vertex 1.038792e+003 1.088217e+003 1.883390e+003
         vertex 1.038792e+003 1.088251e+003 1.883008e+003
         vertex 1.038792e+003 1.076799e+003 1.881223e+003
      endloop
   endfacet
   facet normal -1.000000e+000 -1.040834e-016 1.026531e-018
      outer loop
         vertex 1.038792e+003 1.076799e+003 1.881223e+003
         vertex 1.038792e+003 1.088251e+003 1.883008e+003
         vertex 1.038792e+003 1.088350e+003 1.882637e+003
      endloop
   endfacet
   facet normal -1.000000e+000 -1.040834e-016 1.026531e-018
      outer loop
         vertex 1.038792e+003 1.076799e+003 1.881223e+003
         vertex 1.038792e+003 1.088350e+003 1.882637e+003
         vertex 1.038792e+003 1.073417e+003 1.873390e+003
      endloop
   endfacet
   facet normal -1.000000e+000 -1.040834e-016 1.026531e-018
      outer loop
         vertex 1.038792e+003 1.073417e+003 1.873390e+003
         vertex 1.038792e+003 1.088350e+003 1.882637e+003
         vertex 1.038792e+003 1.088512e+003 1.882290e+003
      endloop
   endfacet
   facet normal -1.000000e+000 -1.040834e-016 1.026531e-018
      outer loop
         vertex 1.038792e+003 1.073417e+003 1.873390e+003
         vertex 1.038792e+003 1.088512e+003 1.882290e+003
         vertex 1.038792e+003 1.088732e+003 1.881976e+003
      endloop
   endfacet
   facet normal 1.000000e+000 1.040834e-016 -1.026531e-018
      outer loop
         vertex 1.043792e+003 1.076417e+003 1.885590e+003
         vertex 1.043792e+003 1.073417e+003 1.948390e+003
         vertex 1.043792e+003 1.076035e+003 1.885557e+003
      endloop
   endfacet
   facet normal 1.000000e+000 1.040834e-016 -1.026531e-018
      outer loop
         vertex 1.043792e+003 1.076035e+003 1.885557e+003
         vertex 1.043792e+003 1.073417e+003 1.948390e+003
         vertex 1.043792e+003 1.075665e+003 1.885457e+003
      endloop
   endfacet
   facet normal 1.000000e+000 1.040834e-016 -1.026531e-018
      outer loop
         vertex 1.043792e+003 1.074732e+003 1.884804e+003
         vertex 1.043792e+003 1.073417e+003 1.948390e+003
         vertex 1.043792e+003 1.074512e+003 1.884490e+003
      endloop
   endfacet
   facet normal 1.000000e+000 1.040834e-016 -1.026531e-018
      outer loop
         vertex 1.043792e+003 1.074512e+003 1.884490e+003
         vertex 1.043792e+003 1.073417e+003 1.948390e+003
         vertex 1.043792e+003 1.074350e+003 1.884142e+003
      endloop
   endfacet
   facet normal 1.000000e+000 1.040834e-016 -1.026531e-018
      outer loop
         vertex 1.043792e+003 1.074732e+003 1.884804e+003
         vertex 1.043792e+003 1.075003e+003 1.885075e+003
         vertex 1.043792e+003 1.073417e+003 1.948390e+003
      endloop
   endfacet
   facet normal 1.000000e+000 1.040834e-016 -1.026531e-018
      outer loop
         vertex 1.043792e+003 1.073417e+003 1.948390e+003
         vertex 1.043792e+003 1.075003e+003 1.885075e+003
         vertex 1.043792e+003 1.075317e+003 1.885295e+003
      endloop
   endfacet
   facet normal 1.000000e+000 1.040834e-016 -1.026531e-018
      outer loop
         vertex 1.043792e+003 1.073417e+003 1.948390e+003
         vertex 1.043792e+003 1.075317e+003 1.885295e+003
         vertex 1.043792e+003 1.075665e+003 1.885457e+003
      endloop
   endfacet
   facet normal 1.000000e+000 1.040834e-016 -1.026531e-018
      outer loop
         vertex 1.043792e+003 1.076035e+003 1.881223e+003
         vertex 1.043792e+003 1.075665e+003 1.881323e+003
         vertex 1.043792e+003 1.073417e+003 1.873390e+003
      endloop
   endfacet
   facet normal 1.000000e+000 1.040834e-016 -1.026531e-018
      outer loop
         vertex 1.043792e+003 1.073417e+003 1.873390e+003
         vertex 1.043792e+003 1.075665e+003 1.881323e+003
         vertex 1.043792e+003 1.075317e+003 1.881485e+003
      endloop
   endfacet
   facet normal 1.000000e+000 1.040834e-016 -1.026531e-018
      outer loop
         vertex 1.043792e+003 1.073417e+003 1.873390e+003
         vertex 1.043792e+003 1.075317e+003 1.881485e+003
         vertex 1.043792e+003 1.075003e+003 1.881705e+003
      endloop
   endfacet
   facet normal 1.000000e+000 1.040834e-016 -1.026531e-018
      outer loop
         vertex 1.043792e+003 1.075003e+003 1.881705e+003
         vertex 1.043792e+003 1.074732e+003 1.881976e+003
         vertex 1.043792e+003 1.073417e+003 1.873390e+003
      endloop
   endfacet
   facet normal 1.000000e+000 1.040834e-016 -1.026531e-018
      outer loop
         vertex 1.043792e+003 1.073417e+003 1.873390e+003
         vertex 1.043792e+003 1.074732e+003 1.881976e+003
         vertex 1.043792e+003 1.074512e+003 1.882290e+003
      endloop
   endfacet
   facet normal 1.000000e+000 1.040834e-016 -1.026531e-018
      outer loop
         vertex 1.043792e+003 1.073417e+003 1.873390e+003
         vertex 1.043792e+003 1.074512e+003 1.882290e+003
         vertex 1.043792e+003 1.074350e+003 1.882637e+003
      endloop
   endfacet
   facet normal 1.000000e+000 1.040834e-016 -1.026531e-018
      outer loop
         vertex 1.043792e+003 1.074350e+003 1.882637e+003
         vertex 1.043792e+003 1.074251e+003 1.883008e+003
         vertex 1.043792e+003 1.073417e+003 1.873390e+003
      endloop
   endfacet
   facet normal 1.000000e+000 1.040834e-016 -1.026531e-018
      outer loop
         vertex 1.043792e+003 1.073417e+003 1.873390e+003
         vertex 1.043792e+003 1.074251e+003 1.883008e+003
         vertex 1.043792e+003 1.074217e+003 1.883390e+003
      endloop
   endfacet
   facet normal 1.000000e+000 1.040834e-016 -1.026531e-018
      outer loop
         vertex 1.043792e+003 1.073417e+003 1.873390e+003
         vertex 1.043792e+003 1.074217e+003 1.883390e+003
         vertex 1.043792e+003 1.073417e+003 1.948390e+003
      endloop
   endfacet
   facet normal 1.000000e+000 1.040834e-016 -1.026531e-018
      outer loop
         vertex 1.043792e+003 1.073417e+003 1.948390e+003
         vertex 1.043792e+003 1.074217e+003 1.883390e+003
         vertex 1.043792e+003 1.074251e+003 1.883772e+003
      endloop
   endfacet
   facet normal 1.000000e+000 1.040834e-016 -1.026531e-018
      outer loop
         vertex 1.043792e+003 1.073417e+003 1.948390e+003
         vertex 1.043792e+003 1.074251e+003 1.883772e+003
         vertex 1.043792e+003 1.074350e+003 1.884142e+003
      endloop
   endfacet
   facet normal 1.000000e+000 1.040834e-016 -1.026531e-018
      outer loop
         vertex 1.043792e+003 1.093417e+003 1.873390e+003
         vertex 1.043792e+003 1.091170e+003 1.881323e+003
         vertex 1.043792e+003 1.090799e+003 1.881223e+003
      endloop
   endfacet
   facet normal 1.000000e+000 1.040834e-016 -1.026531e-018
      outer loop
         vertex 1.043792e+003 1.088732e+003 1.881976e+003
         vertex 1.043792e+003 1.088512e+003 1.882290e+003
         vertex 1.043792e+003 1.077170e+003 1.885457e+003
      endloop
   endfacet
   facet normal 1.000000e+000 1.040834e-016 -1.026531e-018
      outer loop
         vertex 1.043792e+003 1.077170e+003 1.881323e+003
         vertex 1.043792e+003 1.076799e+003 1.881223e+003
         vertex 1.043792e+003 1.073417e+003 1.873390e+003
      endloop
   endfacet
   facet normal 1.000000e+000 1.040834e-016 -1.026531e-018
      outer loop
         vertex 1.043792e+003 1.073417e+003 1.873390e+003
         vertex 1.043792e+003 1.076799e+003 1.881223e+003
         vertex 1.043792e+003 1.076417e+003 1.881190e+003
      endloop
   endfacet
   facet normal 1.000000e+000 1.040834e-016 -1.026531e-018
      outer loop
         vertex 1.043792e+003 1.073417e+003 1.873390e+003
         vertex 1.043792e+003 1.076417e+003 1.881190e+003
         vertex 1.043792e+003 1.076035e+003 1.881223e+003
      endloop
   endfacet
   facet normal 1.000000e+000 1.040834e-016 -1.026531e-018
      outer loop
         vertex 1.043792e+003 1.076799e+003 1.885557e+003
         vertex 1.043792e+003 1.088251e+003 1.883772e+003
         vertex 1.043792e+003 1.088350e+003 1.884142e+003
      endloop
   endfacet
   facet normal 1.000000e+000 1.040834e-016 -1.026531e-018
      outer loop
         vertex 1.043792e+003 1.088350e+003 1.884142e+003
         vertex 1.043792e+003 1.088512e+003 1.884490e+003
         vertex 1.043792e+003 1.076799e+003 1.885557e+003
      endloop
   endfacet
   facet normal 1.000000e+000 1.040834e-016 -1.026531e-018
      outer loop
         vertex 1.043792e+003 1.076799e+003 1.885557e+003
         vertex 1.043792e+003 1.088512e+003 1.884490e+003
         vertex 1.043792e+003 1.088732e+003 1.884804e+003
      endloop
   endfacet
   facet normal 1.000000e+000 1.040834e-016 -1.026531e-018
      outer loop
         vertex 1.043792e+003 1.076799e+003 1.885557e+003
         vertex 1.043792e+003 1.088732e+003 1.884804e+003
         vertex 1.043792e+003 1.076417e+003 1.885590e+003
      endloop
   endfacet
   facet normal 1.000000e+000 1.040834e-016 -1.026531e-018
      outer loop
         vertex 1.043792e+003 1.089317e+003 1.885295e+003
         vertex 1.043792e+003 1.089665e+003 1.885457e+003
         vertex 1.043792e+003 1.073417e+003 1.948390e+003
      endloop
   endfacet
   facet normal 1.000000e+000 1.040834e-016 -1.026531e-018
      outer loop
         vertex 1.043792e+003 1.073417e+003 1.948390e+003
         vertex 1.043792e+003 1.089665e+003 1.885457e+003
         vertex 1.043792e+003 1.090035e+003 1.885557e+003
      endloop
   endfacet
   facet normal 1.000000e+000 1.040834e-016 -1.026531e-018
      outer loop
$b†   §  vgrtE¯ 1n"t3792e+03 1.p730±&e#003!5.e<s90e+0p3 0$"  (  ˆ'sÙup !.2771Re+02# 9.01315#00 *8(55µ7e+08
!&`  0   ~Ertm8!1.04378:e	0†s!1.093¥q7e+0p3 9*i0º9 %+003M
$     endlogtL
 `*aFeg`ae}
!(!vace| nopoiÏ`1.00020e+01 1n00834Â-∞1¥ ,1n±22531E)118
   !  oeter lo}` ` (    0~ertax 5.03392e+  31.∞≥417e* 83 !.9¥8731e≥8;
 Û 0    `tertep@!.0477m2u#0p2 1.0;∞0≥5u'003 1.885%5'E;±03B $`0!0(  verteh`1686#7yre+083 1/p=047e)003 1.85µ80u+00≥
 1 (` uÊdDÔpZ 0 dndFacdtK"( fa#Et!lgrmax 1.020 0e+0000004 834d-8!6 ,1,0465≥1Â-01<$ 0   o5pfÚ(l_opJ$  `  * (v%rtÂp¢0º643?)2e+08s 1.09≥017e+003 9Æ=483=∏eÎ0∞3
  `™ ( $ veRvex(1.143796e+007 1.∞)0417ek003 1*8855)po+ê83
† 0 0    vertEx 1. 439 e+403 0.080/89a;003 1.987=57e+0 3
0  © %endmonp
   ejtfic-t
! `facEd noRmal 1& T0880Á+p8∞ 1.240:34%)017(≠1.02¶<31e-01x
$ ,(`"cquÂrloo0O
$ " 0! $ veztEx 1&44372e+83 0¶097;9w;0∞3 1n8<u557e+0pr
(!  !0§ Êgr4ex 1.043?92%-023!1,01117(e)003(ê.8855µ7e-003
    $   teztez ."4372a+p43$3n∞9≤417e+∞8; ±&94Y2y5e+803
†"    enDlooXM
  (ehdfAbetÕ$  fakEt norÌa| 0/000288Âk020 3Æ ¥0434e)81 %1.p4µ1e-098â
®  $  outep l/OqÃ
     $  6uptDx 1.04;782Â+003 0:0i341?e+∞03 19$:≥y0e+007
  " ‡0   v:t%x!±.43792l+003 1Æ280±7 d00;`1.88473003
°    0  $vEptex†1.p437;2e+01# 1<091417%+003†10
5297e)03
 ! `  un`loop
   eolfasetç* ∞ nacet Ónrm-m& .p0∞00ê%*008–1™040∞56a-!1& ≠3.8243e)01(
 $ ¢d"kutdÚ!`fop-$ 0`"   vgbtg8 1.∞43592e+∞0w 1>89341we+20# 1.94839pe*!07]
  $2  † †wert8 0.443792e+<1; 1+09!u9'e+02≥ 1.88725d+0 2    `  ( feRpgx†.43712e+ 07 9. 91831Â/ 03(.<85825e+∞3	J† `% ondlOo0
$  enpvacetM
` `facut no¬lad!1Æ0000805+000 3.0 0834m-µ6 -5,∞2&u7qe/09
p  " †oqTes lo/p
`    (   burte¯ 1&0¥3∑y≤eo∞02 3Æ076617ek0 3$5.0∏%1πpe+p03
 ` #   § tMpÙex01,05179≤m+∞131*0∏8732E´103 9.8(484te+d0#j "  ! †  ∂Epuaz†!Æ0<7792a+001(1.0w317e+003(1.948≥9 e+ps* `0   ejDlÔp™b 0t.efacetä`  ga#et Ôormal2±.<00001c+∞p `5,p4p<#5e-016h-â.0045≥9`-038
     ‡nete" modp
†(  (    vdrtez !.¥'79re+00 ¶03417E+103 5"948391e+0∞3
b  ± 0!  vertEk 1.1379"e+8"10∏*73"e#0∞3 y.084800Â+03
∞ 4!  2  Ùerddp ±.p4#'9re+q83(1.®88p23Â/04c 1.88=077e)∞0≥h 0  $†%Ídfmop
  2enn&auÌt=   faNÂT°novma| 1.0ap00e+2∞r 9.4400#4e$01> -.026µ3±g-1!8
 §    uter loop§!† 8#($ eStah%1Æ04279pÂ+¥p3`1.07349ße+08# 1æ94∏3y%*003 `   !  ertg| 1.043792g+0 3(1~08)1∞3m´p22"9.x8407%e+007à " %   0†veh$eX Ò.0437π2d+503 q.089115m+003 1.) 5695e+0 ;   "0!antnoÎt
 0 El‰c·sqt
 ! facet"nˇreQl`±*000100!000"0.04t8e%0 6†=n82v53qe-q<!h °!êouter hoop
` (  `0 †Verv$x 1&0t3ø9r%/003 1.p9p:≥1e+x01 9.025075e+ 03*  " (    ver|ex 1.042782e+23(1&p∏2π0≥a+003 1Æ<8t(24d)003
 !d( ! ` beRtMx 1p03792%Î00# 1&0?3t36e+00;11.94390e;8∞;
   `  eldd+op-  $Ândfacet-0  faet //pmal ±n±`∞py45´000 0.24083e-097 m1.02653!Â-0±8:  "   /uteR lkgPJ†     $ ˆezDex 1n 23792e+003(1>4y3 !7e+043!1.®t83=8%+∞sJ   "† † !rErueX†Æ1¥7792e+ 03!1.092±0?u+0∞3 .∏840∞<e+0∞3Mä ¢   ‡ !$veztex &0î37}pe+01±$1.2<03r3u*003†9.5844Y0e/003J  † $$ejl|oor  Äen$&acgt
†  Facm~ noroao 5.∞000t0e)0R0 1p4084emp70-1>42=31e-p18ä"h    outeÚ lOo0* # `"`   fÂrtex 7.04s712Â+í1(1.09≥$1Â+0$3 1.9t8391g+83™ † " 2  †verpux 1&0 3792e*07 4.x933b3Â)003 1Æ8ú44)g£2†3M
      $ tertmx"!.057792m+00s†1*92405e+103 1.∏414:e+803
     `EnfLootM
  eÓebasUx" !f·cet nnr}ilh5.00004e+0∞0!1.0p834m-016!-1n!2vï25e-‡∏Ü(    BÎtpez lÎop
   0"!`! ve‚te8 1&p4s72e+03"%Æ0y0799e+00# 1.8832≤3e+∞x3
a$0   "  fe2dEx$1n0419"e+007 1Æ09pq7e+070.83090e+∞2≥
$ "     !vertex q.043792ı/002 1. =7t33e083(ë,pws10ei003
(     %n‰l{_p-
(  mndfage4
  †&aceT&normal†1.00000<e+00 1.04∞:34om016 1/066551e/019"    †nu@eR looPO*` &      vertcx°1/p437π"u+00 q. 9#4q6w+003 0.8333y1m+00
  †`" †`†servex 5&4778g"003`1n∞9–$17a101 1.∏11π0a Û2,J  (¢,0   vÂ2texf1>447)"e;003$±o0=105s+!p3 q.8922;e+007- "  ($edmo/q
  !aÓl‰acat
(  faGeE no6}em 1:±04000Ì+8R0(1n0•834e-016®,1&02∑530u≠018
   (" ou|er lokp
0`   !  vir4ex 0*04?7)6e;002 1≤09s47e+0030∞,8333πÂ+003
 0   "` °vEztex 1.043792e≤83`ë.∞=∞0!=e+2q3 1&8π)21i+43
(0$ `(   verde| ≥0436)re+0∞#$1Œ073<17e*103®1.877390e+∞03 d d  e,dloop
  `e.dfacEt
  f`cet noÚecl$±.20021p%+0∞0 0.0408re	0!& -1.02653!E/018%
 `   †g—4Âr loop
    †    ~gbuqx 1. 427-25+003!1.033¥17u;êp# 1.87;3q0e+043
`"! "8   6}rtex"1.0#59bm*002$1>09p03=e/083(!|88922*e90s ! %"†! $veruex"±.0635π2e+003 1,1(9665E+0 .<<1323e+23  $!0"ÂneloopÖ
) !e6efacet
` 0v`"et0norm!l 1.¥0000Pe#000 1 40834e-t6`-1,0≤6531e)010
  %0  g7uEr!lon|
†! 0 `$0 VerpEh1.04176Â.083 0*·73417e
2p3 %.83;310e)003	        ¥vervex 9003;6M+ 0≥ }o∞8=675e+00; 1&81≥23e+80ì `  $ † †vısÙe¯ ı<047∑9Â+403!1.089317e+003B1Æ(8a(5t+0∞3
    : endLgOp
( !endfaceu801fhcut nor-!Ï .  †40Â/0p0†)Æ040<34e=113 -1∞>%73E-018ä  $   mut5b hoop
  "` p0  vgrÙex%.4¥37)"e+∞03 ±.†8|7s4e+107 !.8<196e+00ª* †  `  . vusTe`®1. 4≥5Ω:e#00! 1Æ06710e+∞2 1.8854µ7ep13ç
!!     (vus|e¯ 1.043782eª433 `.0<(47ekp031.X81705e´r%#:      enddogpä " endf`cEÙ %`fkcÂt`jo3i„,05&10p<00E+8000≥.461:34em0y60-=.063s3e-y8=  0 ("Outer loox $Ä`     ˆ%Útex£5.043%92e+10s"1.000=12e)40! ±>88r210g)00sL
!        rÂs|ux 1Æ04339≤e+∞0≥"1.08820e+8w 5.08637e#03
 `   ( ` vertex 1:0437;íe+00# !/0∑7170e/4p3 q.8854w}+8p;
  0 ` %Ndlo
`  eNdfaw%t-
   F`„eÙ(Óorma,)1<8∏2000E+80 1<¥0834e/416%Ω10:6731e949!   ( muteÚ loop
 † `  " vtrulx q.4q7=3G#243 !é84'170ej=1; 1.88u45%e#0p3
 `)     vgrpeX&0&042;Úe+43°1.p88350uk00 1&882727e+P03
Ñ §p 0$† vevvex }/43792e´003 °>0802u1m+0|3 9.893  8e*007
4 (  Ëenddoot  "e.bfaceu
   faCmT koreal$1&0000p0g+000 1Æ644834u-06 /1,0&753e=098M
   " !guter looÒ
 0$0 $   verT%| 9~04;79rE+03†0.0?6q?8e+01{ ±.885657e+002
†0 !Ç   0vaptqz21.003592a	Ùc†1n 8<≤5Â+103 0.8<1008e+083
         vertex 0.043790t+803 1.87649e+003†1.8∏%19mÎ00∑  hÄ 0endlmop
$("≈n`nAset
   fbcEp!nor/al†1.|00000ek080$5&348834e-016 -.02673±e=∞1
`8"0‡ oıt%f n/o
0` ( 0$!0fMrt‰x q.0437y2e+0∞3°5&0∑2799e+083`9.8(5553e; 3  ‡    (bvert-XË10437=2%+003 1.0h86=1a´003$1.8X≥028p+ 02J   0     veVtex 10437y"d#∞23 !.08217e;003 1.ú4≥310d+¥0
`     ejd}oox
 0 ≈nDfacat
   facet nmrmah$1( 08p20Â+402 1.p40814%≠216((1.2275;±e-1
  *$  oıpdp |oo0ç
 †  $9   6urtey 1.0¥3592e#03 1.0=6?ô1m/02# 1.88557e+p03J (     vewtÂx 1.04#71:Â+p23 1/88≥1e+042p1.88w;9 e+02;
 †!     "veÊtex 9 379≤e+x0#"0e088273%
143 1&:37∫g*0p3'
      enddoop`"0mÓdfacdT
  `f!cet joÚma, 3.8000p0mk200 1.240834e/036 -.02>539eM018    d oqpes loop
†    0!  ver|ex 1&00379e+02#01.089003e+4 3 1.8h!05Â+00;
  "  "  `vertex 1. 437!2$0031?077u70e+003®1.88%457d:00q©
∞ (      ˆdbpE| ±.437Ωre*003d1.∞π37g+0 $5.091685Âk430,†   e/DlocrZ b fn‰f!ce|
#  FagÂt§njÚlÈl(1.00000e´ 00 1.040<30m%056 -±.02?71a-018
0    "ouums§,nop
   `  †  vdruÂx 1*0%1?=ra+00 5.089317w+&03$!991>8u) 07
0 d     !vevTex$.043?90Â+20301.877#0o+p02 1.8:505>a+02;
     ( ∞ vertex 90<≥7∏rm/00s0s.07∂%q∑m;03 0.88564d003-
 `    eÏflonP
   eNdfice‡J  0dak‘t no2mal Û.240î80a;000!1/060830Â-01∂!-1§8264r1e-018
    d /’ter$loOp     f   >er|Âx 1&047∑0g;023†0.°x)≥5∑a´00s01.81x7u+022$ $•`"   var|mx !.0431xek08341/p7%17q*903 qÆ88%6yµe/003
         Ve"t·x ±.d4279;e+40309n45?8;6e* c q.xyı0∑5g*063ä    `ben$hOop
   ≈n§dacet
°$ fac!t nÔpmam 9.400t42!;z8000.06r8?0m≠ 1>0/1.ê065s1e-qç
 (   "oufer |ogp: †   ($ (Vdrt%x 1&043?92g+003 0n"77032e023†1Æ8∫70µ}Â#∞01*`    ( $ vgrte| 1.0ts71pe+03(±>87810e+p∏ 1.8∏480§d∞q
0    $  2~Er|ey 9.043792e+003 !n8317‰c∞41 1/∏81485e#40≤     0ÂnFdOo4ã (eled!„u|ç  0g·cat(nkrman 3,002 0∞-+∞0  1.240830e-02-)63&31e-018  †  o5pdr(L/Opä (!!0!   vÂrTaX21N04s7;"e+027!1.08=!m+(0˚ 1.80±085m+083
    †( " ˆmrte8†.`¥3'1:«+4∞2 1.p'8;03m+80≥(1,884834Â+0 3
0 † !  †!fer|Âx(1*4<3610e+003`1.P7821%+063 1.0:4490]+∏Rç
  (   Â~`ÏnOp
   eNtF!'fT
!)"fiCet normal 1.01800e+0t4 1. $4931e-812"-1.026561e- ±8-ä!     ouTeR!mo/p
!   ‡ · ÄvÁcve|"5*05232u+03 ±."π9:±5e+023 1Æ81¥<5e+01;ä¢    `  `veBtez Q.<43∑92eÀ4∞3 10?<323e#∏s 1.986¥;0+00	J †$"   "`ver6ax‡).2369"e*00c 3>87∏485%+04s ±.8∏0152e*003
      !lLÏooä  &un nacÊU "$f`cet nOˆmAl 1 0000e'p00à1,0<<<e-01: l1.∞2651e-01(
 (†( "ouÙmv ,oopç         vfrteh$1,643792e:00s 3.09=317e+0∞ 0.8ê1¥85e+x0
(     d ˆevte¯01.0¥7'9e+40 .077(#re+003 q,881=05e+00≥
 2      !ˆertex 1.05:7)2e*08≥ 1.073±7Â)(∞3 1/873380e;0¥3
""  0 Â~$Looq)
 !`e˛d&eced
` !f·cet0lopmal01.000208e+02(1.8$0834%61>!-1.026µ3qE/±!<  0 †out%r"lo'`ç($     !(vErtex 1.047w92e*003 s.∏71T17e+∞03 1.87330d+"3
  $  $  $ver4ex 1.29w792e+043 1.057873ej0 3 1.X830ue+001
0  $  $  veÚ|e8(9.04;713e+002`1.2w/u1}Á?∞± 1/88168<e+803
   b† endloop,
!  endfacmtÇ  `ficmˆ ngrmal!1,t4 `e+01p°1.04834e-016b'±/02653e8πÄ   $ /ute¢ lop
B  "!    veÚpe9 3.04≥79e+003 >0s¥9∑m+003"∞.8≥391e´043
   & 0   ˆmˆUex 1.04373u+00#$.∑751'e+ 03 1.88±>87e!00:- " $!   `veÛtep 1'0¥w792a+0∞3 1.`77178dk T3 1:81223e/003 `" Ben‡f~ot
  $EndFac%d
   face\`^ormil01o00000e+210"1*44∞9ªı%817 1n126531e-01∏
 0! ` ou4fr ,Ôorù  l  a00"vur4%x01.p;79Ru	∞p3 1n082t85u+03 1.8(404e;110 0  $ `ˆertey 8.03wp2a´83 5.p925<4e+0t 1/òz3572e+00≥B  0 !(` vertex"1/04179≤u+083(1.0=#417)003 19î831d)003*`  ( "ÂMdlIo`
°  enddacgt
  f¿cet noroa, 7.0 0408u)00r†q.240934e-16 -9.026531e-01("  †  nuu)u loop(J 0 ! "" !wurtez)1.p4;∑9e*∞0q"1p„6q7‰003 1.94839e+10;	
 !0    ( vertd8a1/40971∂e+∞03 1. 92ı84u+Q‡3 π.883362e+0p3ç b    `  Vızvex ±043s:2e.003 1.:2617e´q03!1.883;90e+ 0ã$† "  ejtlmo0
  $entd%cet
 ( &aae4(norlc, !.00p00e)00 !.040834u-13v",!.1∏63±e-∞1:-
    % guder@|o/u   (   8te˙Tdx 5&∞0379"d+00#@±>945'%*003 1&9¥8390D+<03 †     ` 6urte¯ qÆ04379"/003$1.026!?g#013 1n8Û3π0e80sç
( * 0 (  verte∏`1Í26379se*003 3>rπ3537E+02s 1.87#310Â+103     )endloop
 "§eodfacmt
 §(facwt lorma| 1.000∞0eK008i!.<$934%-∞16(!5>026=30e,00<
 (    oUter doop
`   $   vezpex 1.043s93e+00;†.=3417mk0p3 1.9s390eÔ0p3
    $   (&e⁄tG`1=.∞4372m´p0 1.p9257eAp03$1.09398e+00#m
$    !  0vdrtÏ§qÆ14;79$)003b1.0}2584Y# 0≥ 1.883t08e´00;œ
4    !unÌoo‡-
$` an`dAbE4* " faceV Lozmal 9.004000e+0p8†9.0<0x30e-0: -!,0p6=#1u©038
`( a  muta2!l/opè
b"! ! $  ˆept•[ !.843792a+07 5.0º13q7e;00;∞1.8815(ee+403(        0rwbt%x 1&047792•+883`1*0w8584Â+∞43 1fº(3008e+d2M
$ 0†    "vtrt≈: 1.ê<w=2ek8`+ 107∏48d)08$1.882>3uo8<£
      eo$|Ôop
` ®end6aket
` Dfacmt n/riAh q,00200e+000 1.040x3$e-056 )1,02531e®01
`  =p ou‰ep∞lg∞
8   †   $Vezuex .24≥=2e´ 83 1n0)0µ85%+0¥3°q.87 08‰0;
1@     ( v%rtdx 1.p06?8r}o" ≥`Å.0)04:§e+0 3†1,x66;5e+003
!†       4gzt%x†0.453w∏2E;003 9, 13tq5g+∞ s(±.(733πg+≤`;
    "(EnDÓOop
0  andF„cet
`†"Faceu nopman 3.±0∞ 00e000 1.0$483$eç0!6!/1.06=31e-00Ω* 0 $† outms$mgmpM
   0    !vc2uax 1Æ24≥?9:e#∞02 1>093417e*003 9¨x'3S82i+843G
`"    $ †feÚpex"0,841'92e+10 1.09"85ekpê# π.®8Ú637g/0$˚
 †@  ( " vErta|81j04;9Re+∞03 9j282323e3403 q(82";0u+0∞;ç
$  h`!eÓddkopO
   e~dgacet
"  nacÂt f/reAm®9.000000u+0$4 1.∏t∞34m-∞16 /1>p265;1e/018  $   ouTer lÔo0ç
0  (     veR$ex!1.042w9"E*082(1.0934q7u´0:3 ).h7;1=0a+001
(  `80   6erpux 9n043ß) e+903 1.08&22£Ak0 3>8∏r380e+809ç
 $ (†   ~eppa¯!1*043792%+003 1.0y21P3e003$2.x81976G+083 $(   eldlmmp
(  En$f·kgd`  gacet ne˙m#Ï"1.040p00e+000 1.60:+4E-∞16"/ë.0265#!em01<-
  `  `g5der`lop
 (   @   UarÙex`.Ä4≥792e+0 #`0.4wΩ48Â+003 q.<6142ek"1M
"    $†` 6EruEy$1>04 792e+ 07 1.070µ8$e+∫03@1&:83772e(40≥
  $  Ä !†veptex q.043790O+∞3 !* 8Y317e+$83 1,8∏14x5d+803"  Ä  ejd,Ooq	
h (en$racet	ä  afaCep".ormAl 10p0000e;000 !.042∏7¥m=∏6!-1.02653±eÌ 3;
   ` (mwtdr0lÔn4 b)    ° veRuex$,Ù4#∑92e+ê ì 1Æ08961æe+003 9.80148µe+002
   0 *   vertex 5.142792d#403 1&p3(∑84e#qx3 q&887w72dk0 1! !4  †  vest%x 1.063¥9:eœ2∞s !4078656e)0†# 1.88≥90u) 3
 $  8 ej‰doopç
   e∆dfÂcet
%  nce¸ .ormay!1. 1P 0Rec0P2°1Æ`¥0∏;Ùi-∞1v -.2263!E-qp-J! !$( outep®loo0    0   dÙErteh01Æ141702eK103`!.01717q*p43(1.(8y48µ-+40# 1  4 "0ger4e| 5.0<1w:%+003°1.:7∏>!7e+03§3.883390uk003 †! "  ® ver7ex00&∞T;796eät2309µw85(te/ur3 &8:#018d+0:∑
      mlelo8`  efddacuT* ( nac%t nﬂr-#l 1.∞000p1e# ∞2 1/ u8x>4e/012 ,2.02∂%31e-018
( b $ uter ‡oop
$ 04‡$  bvepDu8 1.`433)2e03# 0.078485c+03 !.88≤636l∞03O!        vu0tÂ: 1n0|#792$k003 3.9793≤e+02301.2823pe+003
 Ä  0!(0 ~epÙDx 1.04792e+40301.p99?17E+003 1.p:1;5a+103M
$   ` -N`lÔt
 !$eodFacEv-  f·cD4$jofl”l 0.0000e)0 •1/84 816e-02 - ,03571E=0s8
  !" †k=peR loo1
   ®   $ .estex"1Æ043∑92e;p22!1#∞9796d+`03 5.∏8µ4<5D+003/
 !$† `   vdrtuP q.r43£0Á+p∞1"a.0w8323e+0∞701,8∏":90a;6p3      °  vAruex 10417m"e+003 S.78103e;003!1n8<19?6D+203
   !)`endloop
!  endbpcEt
 "¿fakdr fOreal!1. 2000êe/02 q.0<0<34E=2& m1.826511g-018
 ( (∞"ÁuTep ,//`
     (  fGrtdz 1.04;782ek003 3089317e+30381.:814:!e+ò01(    †  †veÚte|41.43792e+103 1.x7h103e+03$1.8∏!976e+0 3	
` 0$cÄ   ver6ex$1.04≥w93e+87 1.4778!"e+003 1™881705e/003"     en$loo †`enddacut † facet{orma|01,000002e+100 1.:¥0<3Â-016 -°026%#1u-01
  !`  oUtez†|oox
† ` † "  6ertmx!3043')re+0  0'∞920e+40≥ 1,88197g;003
0† `  b  ter4ex 3'8437re+t0#!1.0)181#e´003 1.8|1715e;41;J         vmrtex 1.043ø9≤%+x#an093417a+003$1.033194e+003
      mndloopl
   %ndf·k•t
`"†fa„u0!Óormal®1.3p0000m+000‡1624∞83∞l-05w(m1>66u≤1e-018$(0`  out‰r Óoop
( †`"$( `f%Ú4ux¢1.84379:e£0∞7°1.53057e+003 3.87139<e+0ê;*† ¢$  $ 4v%~tex 1,043792Â+003!3.191835e+p0`.x<q705e+207J     Ä  (vdrpex(&(439"e+"8 1Æ 9157Â+02≤d±.<93∞5u+003
§ †`00e~`hoÔ0
$` mn$gacet
   fccdt0nMrmalÄ1.000100D*0p0 1.341834e=∞120M1.824µ7qe-810
!     nw‘-b(noop
(       Verpex ±.043782E+" 3 1.0y3017e+44 1f873190e£003	
 (2)    ˜er|ex !.  3692e+003$±&0=q4q∑e*0"3$).981µ84e003M
†(    †(v}rvex !.t∞s7=0g+0≥"5.19070A+00≥ 9.0∏1326e+ 02
     "edloopJ$  Ând¶a#et
 h$facet nrÌam 6.271981e-01? -999313t%;0032m%.807914d 02  $`# oupg2 hoop. 4    †"†vmr6mx(±l0439rdk00{$1.27858¥ekq03(1.8∏3772u001≠‡ $ $   0vmr4%z†1.03x792e#$3†1.05861Â+∞03 .(833)0a/00#   $   † ˆmrp‰x !.03'52e+223 1.0∑(&0∑ek8p7 9.¯87;$e+03
  ( !en‘lœopJ   e~$facet
 ‡ gMcet†nÁRmah 6.196945a-q17 -9.183124e>00&4/8:7994e,002
  0"∞ outErloœpM
 (    `  verpux`1>04ì783≈+003 0.078s1'e+003`.88139 e.p03
0` `$ !  vertex ±n0287;2e+203 0.038617d+003 5.88s29 e+003   ( † " rerte8 ±0;|38e80≥ 9.879-84e∞03`1.883028e+003
 ! "  ejdl/Ìp
0( dldLaCet  0vac¡t no≤Ma- 4.167695e(í57 -).5323 6a-001 1-161587Â- 4%ä)†  "ÔetuÚ hop
 !      v%btax$1.∞4379e+03 .0v061v#003 1å883790!{00"ä$ 0$$ ä  werue| 1Ø3('92e+ 03 1.07858¥e+003 q.8:3 08m+803
 †    0$ ˆertEx"!&0637)2e#00s"1.4'586e+2 s±1.t(3q08a+p07M
  !( `%jddoop
   endf·ket	 † fe+gp nor}!l 5.07|20a≠ 17-y.730625e-001`"3055!xu-†0
®   !†oUtdr$noo0-
00 0$    FeRtej 1.04;∑92e+0≥ °. 6x586d© 070∞.8;ì12<e;p0¢
0&h ¢(  0Úer6e| ±038792e+43 50w85(]e+0(3`†.π83(88a+003
"       verPex@1.038792m+802 1.07y484e+q 3 1n882v3wE+0&3
 !  `0ÂhdlÔopä`  lnhfDke|
4  Êabet normad04&ó9723e-217 -=59306e≠0∞1 3.8v0~63a,81!
 0  ($uder lOo|
      !!rdrtux 1$04379rE+`13 1n570584e´081 1.83p0∏E+∞03` $    0†verde8 9.03<?92e+1031n07∞4x0%+00701>882∂3∑e+0£ä   !†$°!!v%rÙgÿ 1.84379≤e+403@1.078485+417 3.8xr6;3e+6∞3h (†!2†endloop † endfacdpM
` `babe÷ MoS}am(5.07860a,1∞6 -).!(20"2e)001 3.960394e=021ä    owter!ln{p
®  h "   ve∂vdh 1.063?y2eI003†1,07x5:ue+30?†9,9x2637E.103Ì"       ™vÂRdex01.039792`+00µ 0/06(485e+∞3§%Ó882637Â+00;
 !$!°!   vwrtÂZ$1*23859:‰+2 3 1n7223e003 3.8<22y0g*003
0     en!lipà   elDfPaet
   faceT!noblal!5Ó690÷0a-035±-8.33∂063d/0∞1†4,08x584e-220J (0+" nutEv lmoPL
`  `  ¶  veZt$z 1.0<3792e+003(1.0w:485ek (2 1.8:;7e)00+
" 0  +  `verºux 1.0
:796e+003†.723:qg+00! 1n)8229êm)001-√0 "0$ §  7eRtex$qÆ043592e)03 1.078323e+813 q.|83:;g023!@ $! En‰l/op
$  eÓDgecmt ` facet normal ¥,∏62˘1m-p17 •8.315240d,4p1p5.5=4544e,00qA
  † " o5tur4LÓp 0  £! , vartex 1,04s'9≤%+401 .078323Á+03 1>8π22 e+003
  ê $` " vezeex"q2∞x∂y≤U;02  &03<3`we+∏03 1.8∏"≤y†e+0t´M
 b "  ( †vÂ2eex"1,03:796e+203 !.p7(±01e+Ù02 1.8(±9'6e+0;"     e.dlmoi(Ä  eNdfa„er
 †f„gee†normalD6n5272;µe-015@-.êr0829g-X03A5.972!10g0p1
 "!! !Utez"|knp
 `0  0!@ vmÚtu(/∞4;7π2%
403*!.0?∏32£uk001 1.(2290ı+∞03
 "   ∞(†ves4U¯ µ.0387"m+¥03 ±>p7<10;e+07 ë. π1{7>e+002  ¿   "  termx†1Ø94≥5y2e#001 1.p7890;e0î3 5.8(1977g+003 "!!  mndlmop  †end6aietJ( "fccet nopmel$¥/0;9771e)1±7 -?.3740:0e-00#†6.861938e-001
      outer loop
         vertex 1.043792e+003 1.078103e+003 1.881976e+003
         vertex 1.038792e+003 1.078103e+003 1.881976e+003
         vertex 1.038792e+003 1.077832e+003 1.881705e+003
      endloop
   endfacet
   facet normal 3.815390e-017 -6.861938e-001 7.274188e-001
      outer loop
         vertex 1.043792e+003 1.078103e+003 1.881976e+003
         vertex 1.038792e+003 1.077832e+003 1.881705e+003
         vertex 1.043792e+003 1.077832e+003 1.881705e+003
      endloop
   endfacet
   facet normal 3.211463e-017 -5.972114e-001 8.020839e-001
      outer loop
         vertex 1.043792e+003 1.077832e+003 1.881705e+003
         vertex 1.038792e+003 1.077832e+003 1.881705e+003
         vertex 1.038792e+003 1.077517e+003 1.881485e+003
      endloop
   endfacet
   facet normal 2.891617e-017 -5.494540e-001 8.355240e-001
      outer loop
         vertex 1.043792e+003 1.077832e+003 1.881705e+003
         vertex 1.038792e+003 1.077517e+003 1.881485e+003
         vertex 1.043792e+003 1.077517e+003 1.881485e+003
      endloop
   endfacet
   facet normal 2.225877e-017 -4.488580e-001 8.936031e-001
      outer loop
         vertex 1.043792e+003 1.077517e+003 1.881485e+003
         vertex 1.038792e+003 1.077517e+003 1.881485e+003
         vertex 1.038792e+003 1.077170e+003 1.881323e+003
      endloop
   endfacet
   facet normal 1.879983e-017 -3.960194e-001 9.182422e-001
      outer loop
         vertex 1.043792e+003 1.077517e+003 1.881485e+003
         vertex 1.038792e+003 1.077170e+003 1.881323e+003
         vertex 1.043792e+003 1.077170e+003 1.881323e+003
      endloop
   endfacet
   facet normal 1.172658e-017 -2.868663e-001 9.579706e-001
      outer loop
         vertex 1.043792e+003 1.077170e+003 1.881323e+003
         vertex 1.038792e+003 1.077170e+003 1.881323e+003
         vertex 1.038792e+003 1.076799e+003 1.881223e+003
      endloop
   endfacet
   facet normal 8.112267e-018 -2.305518e-001 9.730601e-001
      outer loop
         vertex 1.043792e+003 1.077170e+003 1.881323e+003
         vertex 1.038792e+003 1.076799e+003 1.881223e+003
         vertex 1.043792e+003 1.076799e+003 1.881223e+003
      endloop
   endfacet
   facet normal 8.380871e-019 -1.161583e-001 9.932307e-001
      outer loop
         vertex 1.043792e+003 1.076799e+003 1.881223e+003
         vertex 1.038792e+003 1.076799e+003 1.881223e+003
         vertex 1.038792e+003 1.076417e+003 1.881190e+003
      endloop
   endfacet
   facet normal -2.821781e-018 -5.807914e-002 9.983120e-001
      outer loop
         vertex 1.043792e+003 1.076799e+003 1.881223e+003
         vertex 1.038792e+003 1.076417e+003 1.881190e+003
         vertex 1.043792e+003 1.076417e+003 1.881190e+003
      endloop
   endfacet
   facet normal -1.007587e-017 5.807914e-002 9.983120e-001
      outer loop
         vertex 1.043792e+003 1.076417e+003 1.881190e+003
         vertex 1.038792e+003 1.076417e+003 1.881190e+003
         vertex 1.038792e+003 1.076035e+003 1.881223e+003
      endloop
   endfacet
   facet normal -1.367009e-017 1.161583e-001 9.932307e-001
      outer loop
         vertex 1.043792e+003 1.076417e+003 1.881190e+003
         vertex 1.038792e+003 1.076035e+003 1.881223e+003
         vertex 1.043792e+003 1.076035e+003 1.881223e+003
      endloop
   endfacet
   facet normal -2.068368e-017 2.305518e-001 9.730601e-001
      outer loop
         vertex 1.043792e+003 1.076035e+003 1.881223e+003
         vertex 1.038792e+003 1.076035e+003 1.881223e+003
         vertex 1.038792e+003 1.075665e+003 1.881323e+003
      endloop
   endfacet
   facet normal -2.410304e-017 2.868663e-001 9.579706e-001
      outer loop
         vertex 1.043792e+003 1.076035e+003 1.881223e+003
         vertex 1.038792e+003 1.075665e+003 1.881323e+003
         vertex 1.043792e+003 1.075665e+003 1.881323e+003
      endloop
   endfacet
   facet normal -3.066302e-017 3.960194e-001 9.182422e-001
      outer loop
         vertex 1.043792e+003 1.075665e+003 1.881323e+003
         vertex 1.038792e+003 1.075665e+003 1.881323e+003
         vertex 1.038792e+003 1.075317e+003 1.881485e+003
      endloop
   endfacet
   facet normal -3.380364e-017 4.488580e-001 8.936031e-001
      outer loop
         vertex 1.043792e+003 1.075665e+003 1.881323e+003
         vertex 1.038792e+003 1.075317e+003 1.881485e+003
         vertex 1.043792e+003 1.075317e+003 1.881485e+003
      endloop
   endfacet
   facet normal -3.971068e-017 5.494540e-001 8.355240e-001
      outer loop
         vertex 1.043792e+003 1.075317e+003 1.881485e+003
         vertex 1.038792e+003 1.075317e+003 1.881485e+003
         vertex 1.038792e+003 1.075003e+003 1.881705e+003
      endloop
   endfacet
   facet normal -4.247712e-017 5.972114e-001 8.020839e-001
      outer loop
         vertex 1.043792e+003 1.075317e+003 1.881485e+003
         vertex 1.038792e+003 1.075003e+003 1.881705e+003
         vertex 1.043792e+003 1.075003e+003 1.881705e+003
      endloop
   endfacet
   facet normal -4.755176e-017 6.861938e-001 7.274188e-001
      outer loop
         vertex 1.043792e+003 1.075003e+003 1.881705e+003
         vertex 1.038792e+003 1.075003e+003 1.881705e+003
         vertex 1.038792e+003 1.074732e+003 1.881976e+003
      endloop
   endfacet
   facet normal -4.985996e-017 7.274188e-001 6.861938e-001
      outer loop
         vertex 1.043792e+003 1.075003e+003 1.881705e+003
         vertex 1.038792e+003 1.074732e+003 1.881976e+003
         vertex 1.043792e+003 1.074732e+003 1.881976e+003
      endloop
   endfacet
   facet normal -5.394800e-017 8.020839e-001 5.972114e-001
      outer loop
         vertex 1.043792e+003 1.074732e+003 1.881976e+003
         vertex 1.038792e+003 1.074732e+003 1.881976e+003
         vertex 1.038792e+003 1.074512e+003 1.882290e+003
      endloop
   endfacet
   facet normal -5.572783e-017 8.355240e-001 5.494540e-001
      outer loop
         vertex 1.043792e+003 1.074732e+003 1.881976e+003
         vertex 1.038792e+003 1.074512e+003 1.882290e+003
         vertex 1.043792e+003 1.074512e+003 1.882290e+003
      endloop
   endfacet
   facet normal -5.870505e-017 8.936031e-001 4.488580e-001
      outer loop
         vertex 1.043792e+003 1.074512e+003 1.882290e+003
         vertex 1.038792e+003 1.074512e+003 1.882290e+003
         vertex 1.038792e+003 1.074350e+003 1.882637e+003
      endloop
   endfacet
   facet normal -5.990244e-017 9.182422e-001 3.960194e-001
      outer loop
         vertex 1.043792e+003 1.074512e+003 1.882290e+003
         vertex 1.038792e+003 1.074350e+003 1.882637e+003
         vertex 1.043792e+003 1.074350e+003 1.882637e+003
      endloop
   endfacet
   facet normal -6.167839e-017 9.579706e-001 2.868663e-001
      outer loop
         vertex 1.043792e+003 1.074350e+003 1.882637e+003
         vertex 1.038792e+003 1.074350e+003 1.882637e+003
         vertex 1.038792e+003 1.074251e+003 1.883008e+003
      endloop
   endfacet
   facet normal -6.225695e-017 9.730601e-001 2.305518e-001
      outer loop
         vertex 1.043792e+003 1.074350e+003 1.882637e+003
         vertex 1.038792e+003 1.074251e+003 1.883008e+003
         vertex 1.043792e+003 1.074251e+003 1.883008e+003
      endloop
   endfacet
   facet normal -6.277765e-017 9.932307e-001 1.161583e-001
      outer loop
         vertex 1.043792e+003 1.074251e+003 1.883008e+003
         vertex 1.038792e+003 1.074251e+003 1.883008e+003
         vertex 1.038792e+003 1.074217e+003 1.883390e+003
      endloop
   endfacet
   facet normal -6.271981e-017 9.983120e-001 5.807914e-002
      outer loop
         vertex 1.043792e+003 1.074251e+003 1.883008e+003
         vertex 1.038792e+003 1.074217e+003 1.883390e+003
         vertex 1.043792e+003 1.074217e+003 1.883390e+003
      endloop
   endfacet
   facet normal -6.196945e-017 9.983120e-001 -5.807914e-002
      outer loop
         vertex 1.043792e+003 1.074217e+003 1.883390e+003
         vertex 1.038792e+003 1.074217e+003 1.883390e+003
         vertex 1.038792e+003 1.074251e+003 1.883772e+003
      endloop
   endfacet
   facet normal -6.127695e-017 9.932307e-001 -1.161583e-001
      outer loop
         vertex 1.043792e+003 1.074217e+003 1.883390e+003
         vertex 1.038792e+003 1.074251e+003 1.883772e+003
         vertex 1.043792e+003 1.074251e+003 1.883772e+003
      endloop
   endfacet
   facet normal -5.927834e-017 9.730601e-001 -2.305518e-001
      outer loop
         vertex 1.043792e+003 1.074251e+003 1.883772e+003
         vertex 1.038792e+003 1.074251e+003 1.883772e+003
         vertex 1.038792e+003 1.074350e+003 1.884142e+003
      endloop
   endfacet
   facet normal -5.797223e-017 9.579706e-001 -2.868663e-001
      outer loop
         vertex 1.043792e+003 1.074251e+003 1.883772e+003
         vertex 1.038792e+003 1.074350e+003 1.884142e+003
         vertex 1.043792e+003 1.074350e+003 1.884142e+003
      endloop
   endfacet
   facet normal -5.478608e-017 9.182422e-001 -3.960194e-001
      outer loop
         vertex 1.043792e+003 1.074350e+003 1.884142e+003
         vertex 1.038792e+003 1.074350e+003 1.884142e+003
         vertex 1.038792e+003 1.074512e+003 1.884490e+003
      endloop
   endfacet
   facet normal -5.290605e-017 8.936031e-001 -4.488580e-001
      outer loop
         vertex 1.043792e+003 1.074350e+003 1.884142e+003
         vertex 1.038792e+003 1.074512e+003 1.884490e+003
         vertex 1.043792e+003 1.074512e+003 1.884490e+003
      endloop
   endfacet
   facet normal -4.862919e-017 8.355240e-001 -5.494540e-001
      outer loop
         vertex 1.043792e+003 1.074512e+003 1.884490e+003
         vertex 1.038792e+003 1.074512e+003 1.884490e+003
         vertex 1.038792e+003 1.074732e+003 1.884804e+003
      endloop
   endfacet
   facet normal -4.623235e-017 8.020839e-001 -5.972114e-001
      outer loop
         vertex 1.043792e+003 1.074512e+003 1.884490e+003
         vertex 1.038792e+003 1.074732e+003 1.884804e+003
         vertex 1.043792e+003 1.074732e+003 1.884804e+003
      endloop
   endfacet
   facet normal -4.099471e-017 7.274188e-001 -6.861938e-001
      outer loop
         vertex 1.043792e+003 1.074732e+003 1.884804e+003
         vertex 1.038792e+003 1.074732e+003 1.884804e+003
         vertex 1.038792e+003 1.075003e+003 1.885075e+003
      endloop
   endfacet
   facet normal -3.815390e-017 6.861938e-001 -7.274188e-001
      outer loop
         vertex 1.043792e+003 1.074732e+003 1.884804e+003
         vertex 1.038792e+003 1.075003e+003 1.885075e+003
         vertex 1.043792e+003 1.075003e+003 1.885075e+003
      endloop
   endfacet
   facet normal -3.211463e-017 5.972114e-001 -8.020839e-001
      outer loop
         vertex 1.043792e+003 1.075003e+003 1.885075e+003
         vertex 1.038792e+003 1.075003e+003 1.885075e+003
         vertex 1.038792e+003 1.075317e+003 1.885295e+003
      endloop
   endfacet
   facet normal -2.891617e-017 5.494540e-001 -8.355240e-001
      outer loop
         vertex 1.043792e+003 1.075003e+003 1.885075e+003
         vertex 1.038792e+003 1.075317e+003 1.885295e+003
         vertex 1.043792e+003 1.075317e+003 1.885295e+003
      endloop
   endfacet
   facet normal -2.225877e-017 4.488580e-001 -8.936031e-001
      outer loop
         vertex 1.043792e+003 1.075317e+003 1.885295e+003
         vertex 1.038792e+003 1.075317e+003 1.885295e+003
         vertex 1.038792e+003 1.075665e+003 1.885457e+003
      endloop
   endfacet
   facet normal -1.879983e-017 3.960194e-001 -9.182422e-001
      outer loop
         vertex 1.043792e+003 1.075317e+003 1.885295e+003
         vertex 1.038792e+003 1.075665e+003 1.885457e+003
         vertex 1.043792e+003 1.075665e+003 1.885457e+003
      endloop
   endfacet
   facet normal -1.172658e-017 2.868663e-001 -9.579706e-001
      outer loop
         vertex 1.043792e+003 1.075665e+003 1.885457e+003
         vertex 1.038792e+003 1.075665e+003 1.885457e+003
         vertex 1.038792e+003 1.076035e+003 1.885557e+003
      endloop
   endfacet
   facet normal -8.112267e-018 2.305518e-001 -9.730601e-001
      outer loop
         vertex 1.043792e+003 1.075665e+003 1.885457e+003
         vertex 1.038792e+003 1.076035e+003 1.885557e+003
         vertex 1.043792e+003 1.076035e+003 1.885557e+003
      endloop
   endfacet
   facet normal -8.380871e-019 1.161583e-001 -9.932307e-001
      outer loop
         vertex 1.043792e+003 1.076035e+003 1.885557e+003
         vertex 1.038792e+003 1.076035e+003 1.885557e+003
         vertex 1.038792e+003 1.076417e+003 1.885590e+003
      endloop
   endfacet
   facet normal 2.821781e-018 5.807914e-002 -9.983120e-001
      outer loop
         vertex 1.043792e+003 1.076035e+003 1.885557e+003
         vertex 1.038792e+003 1.076417e+003 1.885590e+003
         vertex 1.043792e+003 1.076417e+003 1.885590e+003
      endloop
   endfacet
   facet normal 1.007587e-017 -5.807914e-002 -9.983120e-001
      outer loop
         vertex 1.043792e+003 1.076417e+003 1.885590e+003
         vertex 1.038792e+003 1.076417e+003 1.885590e+003
         vertex 1.038792e+003 1.076799e+003 1.885557e+003
      endloop
   endfacet
   facet normal 1.367009e-017 -1.161583e-001 -9.932307e-001
      outer loop
         vertex 1.043792e+003 1.076417e+003 1.885590e+003
         vertex 1.038792e+003 1.076799e+003 1.885557e+003
         vertex 1.043792e+003 1.076799e+003 1.885557e+003
      endloop
   endfacet
   facet normal 2.068368e-017 -2.305518e-001 -9.730601e-001
      outer loop
         vertex 1.043792e+003 1.076799e+003 1.885557e+003
         vertex 1.038792e+003 1.076799e+003 1.885557e+003
         vertex 1.038792e+003 1.077170e+003 1.885457e+003
      endloop
   endfacet
   facet normal 2.410304e-017 -2.868663e-001 -9.579706e-001
      outer loop
         vertex 1.043792e+003 1.076799e+003 1.885557e+003
         vertex 1.038792e+003 1.077170e+003 1.885457e+003
         vertex 1.043792e+003 1.077170e+003 1.885457e+003
      endloop
   endfacet
   facet normal 3.066302e-017 -3.960194e-001 -9.182422e-001
      outer loop
         vertex 1.043792e+003 1.077170e+003 1.885457e+003
         vertex 1.038792e+003 1.077170e+003 1.885457e+003
         vertex 1.038792e+003 1.077517e+003 1.885295e+003
      endloop
   endfacet
   facet normal 3.380364e-017 -4.488580e-001 -8.936031e-001
      outer loop
         vertex 1.043792e+003 1.077170e+003 1.885457e+003
         vertex 1.038792e+003 1.077517e+003 1.885295e+003
         vertex 1.043792e+003 1.077517e+003 1.885295e+003
      endloop
   endfacet
   facet normal 3.971068e-017 -5.494540e-001 -8.355240e-001
      outer loop
         vertex 1.043792e+003 1.077517e+003 1.885295e+003
         vertex 1.038792e+003 1.077517e+003 1.885295e+003
         vertex 1.038792e+003 1.077832e+003 1.885075e+003
      endloop
   endfacet
   facet normal 4.247712e-017 -5.972114e-001 -8.020839e-001
      outer loop
         vertex 1.043792e+003 1.077517e+003 1.885295e+003
         vertex 1.038792e+003 1.077832e+003 1.885075e+003
         vertex 1.043792e+003 1.077832e+003 1.885075e+003
      endloop
   endfacet
   facet normal 4.755176e-017 -6.861938e-001 -7.274188e-001
      outer loop
         vertex 1.043792e+003 1.077832e+003 1.885075e+003
         vertex 1.038792e+003 1.077832e+003 1.885075e+003
         vertex 1.038792e+003 1.078103e+003 1.884804e+003
      endloop
   endfacet
   facet normal 4.985996e-017 -7.274188e-001 -6.861938e-001
      outer loop
         vertex 1.043792e+003 1.077832e+003 1.885075e+003
         vertex 1.038792e+003 1.078103e+003 1.884804e+003
         vertex 1.043792e+003 1.078103e+003 1.884804e+003
      endloop
   endfacet
   facet normal 5.394800e-017 -8.020839e-001 -5.972114e-001
      outer loop
         vertex 1.043792e+003 1.078103e+003 1.884804e+003
         vertex 1.038792e+003 1.078103e+003 1.884804e+003
         vertex 1.038792e+003 1.078323e+003 1.884490e+003
      endloop
   endfacet
   facet normal 5.572783e-017 -8.355240e-001 -5.494540e-001
      outer loop
         vertex 1.043792e+003 1.078103e+003 1.884804e+003
         vertex 1.038792e+003 1.078323e+003 1.884490e+003
         vertex 1.043792e+003 1.078323e+003 1.884490e+003
      endloop
   endfacet
   facet normal 5.870505e-017 -8.936031e-001 -4.488580e-001
      outer loop
         vertex 1.043792e+003 1.078323e+003 1.884490e+003
         vertex 1.038792e+003 1.078323e+003 1.884490e+003
         vertex 1.038792e+003 1.078485e+003 1.884142e+003
      endloop
   endfacet
   facet normal 5.990244e-017 -9.182422e-001 -3.960194e-001
      outer loop
         vertex 1.043792e+003 1.078323e+003 1.884490e+003
         vertex 1.038792e+003 1.078485e+003 1.884142e+003
         vertex 1.043792e+003 1.078485e+003 1.884142e+003
      endloop
   endfacet
   facet normal 6.167839e-017 -9.579706e-001 -2.868663e-001
      outer loop
         vertex 1.043792e+003 1.078485e+003 1.884142e+003
         vertex 1.038792e+003 1.078485e+003 1.884142e+003
         vertex 1.038792e+003 1.078584e+003 1.883772e+003
      endloop
   endfacet
   facet normal 6.225695e-017 -9.730601e-001 -2.305518e-001
      outer loop
         vertex 1.043792e+003 1.078485e+003 1.884142e+003
         vertex 1.038792e+003 1.078584e+003 1.883772e+003
         vertex 1.043792e+003 1.078584e+003 1.883772e+003
      endloop
   endfacet
   facet normal 6.277765e-017 -9.932307e-001 -1.161583e-001
      outer loop
         vertex 1.043792e+003 1.078584e+003 1.883772e+003
         vertex 1.038792e+003 1.078584e+003 1.883772e+003
         vertex 1.038792e+003 1.078617e+003 1.883390e+003
      endloop
   endfacet
   facet normal 6.271981e-017 -9.983120e-001 -5.807914e-002
      outer loop
         vertex 1.043792e+003 1.092584e+003 1.883772e+003
         vertex 1.038792e+003 1.092617e+003 1.883390e+003
         vertex 1.043792e+003 1.092617e+003 1.883390e+003
      endloop
   endfacet
   facet normal 6.196945e-017 -9.983120e-001 5.807914e-002
      outer loop
         vertex 1.043792e+003 1.092617e+003 1.883390e+003
         vertex 1.038792e+003 1.092617e+003 1.883390e+003
         vertex 1.038792e+003 1.092584e+003 1.883008e+003
      endloop
   endfacet
   facet normal 6.127695e-017 -9.932307e-001 1.161583e-001
      outer loop
         vertex 1.043792e+003 1.092617e+003 1.883390e+003
         vertex 1.038792e+003 1.092584e+003 1.883008e+003
         vertex 1.043792e+003 1.092584e+003 1.883008e+003
      endloop
   endfacet
   facet normal 5.927834e-017 -9.730601e-001 2.305518e-001
      outer loop
         vertex 1.043792e+003 1.092584e+003 1.883008e+003
         vertex 1.038792e+003 1.092584e+003 1.883008e+003
         vertex 1.038792e+003 1.092485e+003 1.882637e+003
      endloop
   endfacet
   facet normal 5.797223e-017 -9.579706e-001 2.868663e-001
      outer loop
         vertex 1.043792e+003 1.092584e+003 1.883008e+003
         vertex 1.038792e+003 1.092485e+003 1.882637e+003
         vertex 1.043792e+003 1.092485e+003 1.882637e+003
      endloop
   endfacet
   facet normal 5.478608e-017 -9.182422e-001 3.960194e-001
      outer loop
         vertex 1.043792e+003 1.092485e+003 1.882637e+003
         vertex 1.038792e+003 1.092485e+003 1.882637e+003
         vertex 1.038792e+003 1.092323e+003 1.882290e+003
      endloop
   endfacet
   facet normal 5.290605e-017 -8.936031e-001 4.488580e-001
      outer loop
         vertex 1.043792e+003 1.092485e+003 1.882637e+003
         vertex 1.038792e+003 1.092323e+003 1.882290e+003
         vertex 1.043792e+003 1.092323e+003 1.882290e+003
      endloop
   endfacet
   facet normal 4.862919e-017 -8.355240e-001 5.494540e-001
      outer loop
         vertex 1.043792e+003 1.092323e+003 1.882290e+003
         vertex 1.038792e+003 1.092323e+003 1.882290e+003
         vertex 1.038792e+003 1.092103e+003 1.881976e+003
      endloop
   endfacet
   facet normal 4.623235e-017 -8.020839e-001 5.972114e-001
      outer loop
         vertex 1.043792e+003 1.092323e+003 1.882290e+003
         vertex 1.038792e+003 1.092103e+003 1.881976e+003
         vertex 1.043792e+003 1.092103e+003 1.881976e+003
      endloop
   endfacet
   facet normal 4.099471e-017 -7.274188e-001 6.861938e-001
      outer loop
         vertex 1.043792e+003 1.092103e+003 1.881976e+003
         vertex 1.038792e+003 1.092103e+003 1.881976e+003
         vertex 1.038792e+003 1.091831e+003 1.881705e+003
      endloop
   endfacet
   facet normal 3.815390e-017 -6.861938e-001 7.274188e-001
      outer loop
         vertex 1.043792e+003 1.092103e+003 1.881976e+003
         vertex 1.038792e+003 1.091831e+003 1.881705e+003
         vertex 1.043792e+003 1.091831e+003 1.881705e+003
      endloop
   endfacet
   facet normal 3.211463e-017 -5.972114e-001 8.020839e-001
      outer loop
         vertex 1.043792e+003 1.091831e+003 1.881705e+003
         vertex 1.038792e+003 1.091831e+003 1.881705e+003
         vertex 1.038792e+003 1.091517e+003 1.881485e+003
      endloop
   endfacet
   facet normal 2.891617e-017 -5.494540e-001 8.355240e-001
      outer loop
         vertex 1.043792e+003 1.091831e+003 1.881705e+003
         vertex 1.038792e+003 1.091517e+003 1.881485e+003
         vertex 1.043792e+003 1.091517e+003 1.881485e+003
      endloop
   endfacet
   facet normal 2.225877e-017 -4.488580e-001 8.936031e-001
      outer loop
         vertex 1.043792e+003 1.091517e+003 1.881485e+003
         vertex 1.038792e+003 1.091517e+003 1.881485e+003
         vertex 1.038792e+003 1.091170e+003 1.881323e+003
      endloop
   endfacet
   facet normal 1.879983e-017 -3.960194e-001 9.182422e-001
      outer loop
         vertex 1.043792e+003 1.091517e+003 1.881485e+003
         vertex 1.038792e+003 1.091170e+003 1.881323e+003
         vertex 1.043792e+003 1.091170e+003 1.881323e+003
      endloop
   endfacet
   facet normal 1.172658e-017 -2.868663e-001 9.579706e-001
      outer loop
         vertex 1.043792e+003 1.091170e+003 1.881323e+003
         vertex 1.038792e+003 1.091170e+003 1.881323e+003
         vertex 1.038792e+003 1.090799e+003 1.881223e+003
      endloop
   endfacet
   facet normal 8.112267e-018 -2.305518e-001 9.730601e-001
      outer loop
         vertex 1.043792e+003 1.091170e+003 1.881323e+003
         vertex 1.038792e+003 1.090799e+003 1.881223e+003
         vertex 1.043792e+003 1.090799e+003 1.881223e+003
      endloop
   endfacet
   facet normal 8.380871e-019 -1.161583e-001 9.932307e-001
      outer loop
         vertex 1.043792e+003 1.090799e+003 1.881223e+003
         vertex 1.038792e+003 1.090799e+003 1.881223e+003
         vertex 1.038792e+003 1.090417e+003 1.881190e+003
      endloop
   endfacet
   facet normal -2.821781e-018 -5.807914e-002 9.983120e-001
      outer loop
         vertex 1.043792e+003 1.090799e+003 1.881223e+003
         vertex 1.038792e+003 1.090417e+003 1.881190e+003
         vertex 1.043792e+003 1.090417e+003 1.881190e+003
      endloop
   endfacet
   facet normal -1.007587e-017 5.807914e-002 9.983120e-001
      outer loop
         vertex 1.043792e+003 1.090417e+003 1.881190e+003
         vertex 1.038792e+003 1.090417e+003 1.881190e+003
         vertex 1.038792e+003 1.090035e+003 1.881223e+003
      endloop
   endfacet
   facet normal -1.367009e-017 1.161583e-001 9.932307e-001
      outer loop
         vertex 1.043792e+003 1.090417e+003 1.881190e+003
         vertex 1.038792e+003 1.090035e+003 1.881223e+003
         vertex 1.043792e+003 1.090035e+003 1.881223e+003
      endloop
   endfacet
   facet normal -2.068368e-017 2.305518e-001 9.730601e-001
      outer loop
         vertex 1.043792e+003 1.090035e+003 1.881223e+003
         vertex 1.038792e+003 1.090035e+003 1.881223e+003
         vertex 1.038792e+003 1.089665e+003 1.881323e+003
      endloop
   endfacet
   facet normal -2.410304e-017 2.868663e-001 9.579706e-001
      outer loop
         vertex 1.043792e+003 1.090035e+003 1.881223e+003
         vertex 1.038792e+003 1.089665e+003 1.881323e+003
         vertex 1.043792e+003 1.089665e+003 1.881323e+003
      endloop
   endfacet
   facet normal -3.066302e-017 3.960194e-001 9.182422e-001
      outer loop
         vertex 1.043792e+003 1.089665e+003 1.881323e+003
         vertex 1.038792e+003 1.089665e+003 1.881323e+003
         vertex 1.038792e+003 1.089317e+003 1.881485e+003
      endloop
   endfacet
   facet normal -3.380364e-017 4.488580e-001 8.936031e-001
      outer loop
         vertex 1.043792e+003 1.089665e+003 1.881323e+003
         vertex 1.038792e+003 1.089317e+003 1.881485e+003
         vertex 1.043792e+003 1.089317e+003 1.881485e+003
      endloop
   endfacet
   facet normal -3.971068e-017 5.494540e-001 8.355240e-001
      outer loop
         vertex 1.043792e+003 1.089317e+003 1.881485e+003
         vertex 1.038792e+003 1.089317e+003 1.881485e+003
         vertex 1.038792e+003 1.089003e+003 1.881705e+003
      endloop
   endfacet
   facet normal -4.247712e-017 5.972114e-001 8.020839e-001
      outer loop
         vertex 1.043792e+003 1.089317e+003 1.881485e+003
         vertex 1.038792e+003 1.089003e+003 1.881705e+003
         vertex 1.043792e+003 1.089003e+003 1.881705e+003
      endloop
   endfacet
   facet normal -4.755176e-017 6.861938e-001 7.274188e-001
      outer loop
         vertex 1.043792e+003 1.089003e+003 1.881705e+003
         vertex 1.038792e+003 1.089003e+003 1.881705e+003
         vertex 1.038792e+003 1.088732e+003 1.881976e+003
      endloop
   endfacet
   facet normal -4.985996e-017 7.274188e-001 6.861938e-001
      outer loop
         vertex 1.043792e+003 1.089003e+003 1.881705e+003
         vertex 1.038792e+003 1.088732e+003 1.881976e+003
         vertex 1.043792e+003 1.088732e+003 1.881976e+003
      endloop
   endfacet
   facet normal -5.394800e-017 8.020839e-001 5.972114e-001
      outer loop
         vertex 1.043792e+003 1.088732e+003 1.881976e+003
         vertex 1.038792e+003 1.088732e+003 1.881976e+003
         vertex 1.038792e+003 1.088512e+003 1.882290e+003
      endloop
   endfacet
   facet normal -5.572783e-017 8.355240e-001 5.494540e-001
      outer loop
         vertex 1.043792e+003 1.088732e+003 1.881976e+003
         vertex 1.038792e+003 1.088512e+003 1.882290e+003
         vertex 1.043792e+003 1.088512e+003 1.882290e+003
      endloop
   endfacet
   facet normal -5.870505e-017 8.936031e-001 4.488580e-001
      outer loop
         vertex 1.043792e+003 1.088512e+003 1.882290e+003
         vertex 1.038792e+003 1.088512e+003 1.882290e+003
         vertex 1.038792e+003 1.088350e+003 1.882637e+003
      endloop
   endfacet
   facet normal -5.990244e-017 9.182422e-001 3.960194e-001
      outer loop
         vertex 1.043792e+003 1.088512e+003 1.882290e+003
         vertex 1.038792e+003 1.088350e+003 1.882637e+003
         vertex 1.043792e+003 1.088350e+003 1.882637e+003
      endloop
   endfacet
   facet normal -6.167839e-017 9.579706e-001 2.868663e-001
      outer loop
         vertex 1.043792e+003 1.088350e+003 1.882637e+003
         vertex 1.038792e+003 1.088350e+003 1.882637e+003
         vertex 1.038792e+003 1.088251e+003 1.883008e+003
      endloop
   endfacet
   facet normal -6.225695e-017 9.730601e-001 2.305518e-001
      outer loop
         vertex 1.043792e+003 1.088350e+003 1.882637e+003
         vertex 1.038792e+003 1.088251e+003 1.883008e+003
         vertex 1.043792e+003 1.088251e+003 1.883008e+003
      endloop
   endfacet
   facet normal -6.277765e-017 9.932307e-001 1.161583e-001
      outer loop
         vertex 1.043792e+003 1.088251e+003 1.883008e+003
         vertex 1.038792e+003 1.088251e+003 1.883008e+003
         vertex 1.038792e+003 1.088217e+003 1.883390e+003
      endloop
   endfacet
   facet normal -6.271981e-017 9.983120e-001 5.807914e-002
      outer loop
         vertex 1.043792e+003 1.088251e+003 1.883008e+003
         vertex 1.038792e+003 1.088217e+003 1.883390e+003
         vertex 1.043792e+003 1.088217e+003 1.883390e+003
      endloop
   endfacet
   facet normal -6.196945e-017 9.983120e-001 -5.807914e-002
      outer loop
         vertex 1.043792e+003 1.088217e+003 1.883390e+003
         vertex 1.038792e+003 1.088217e+003 1.883390e+003
         vertex 1.038792e+003 1.088251e+003 1.883772e+003
      endloop
   endfacet
   facet normal -6.127695e-017 9.932307e-001 -1.161583e-001
      outer loop
         vertex 1.043792e+003 1.088217e+003 1.883390e+003
         vertex 1.038792e+003 1.088251e+003 1.883772e+003
         vertex 1.043792e+003 1.088251e+003 1.883772e+003
      endloop
   endfacet
   facet normal -5.927834e-017 9.730601e-001 -2.305518e-001
      outer loop
         vertex 1.043792e+003 1.088251e+003 1.883772e+003
         vertex 1.038792e+003 1.088251e+003 1.883772e+003
         vertex 1.038792e+003 1.088350e+003 1.884142e+003
      endloop
   endfacet
   facet normal -5.797223e-017 9.579706e-001 -2.868663e-001
      outer loop
         vertex 1.043792e+003 1.088251e+003 1.883772e+003
         vertex 1.038792e+003 1.088350e+003 1.884142e+003
         vertex 1.043792e+003 1.088350e+003 1.884142e+003
      endloop
   endfacet
   facet normal -5.478608e-017 9.182422e-001 -3.960194e-001
      outer loop
         vertex 1.043792e+003 1.088350e+003 1.884142e+003
         vertex 1.038792e+003 1.088350e+003 1.884142e+003
         vertex 1.038792e+003 1.088512e+003 1.884490e+003
      endloop
   endfacet
   facet normal -5.290605e-017 8.936031e-001 -4.488580e-001
      outer loop
         vertex 1.043792e+003 1.088350e+003 1.884142e+003
         vertex 1.038792e+003 1.088512e+003 1.884490e+003
         vertex 1.043792e+003 1.088512e+003 1.884490e+003
      endloop
   endfacet
   facet normal -4.862919e-017 8.355240e-001 -5.494540e-001
      outer loop
         vertex 1.043792e+003 1.088512e+003 1.884490e+003
         vertex 1.038792e+003 1.088512e+003 1.884490e+003
         vertex 1.038792e+003 1.088732e+003 1.884804e+003
      endloop
   endfacet
   facet normal -4.623235e-017 8.020839e-001 -5.972114e-001
      outer loop
         vertex 1.043792e+003 1.088512e+003 1.884490e+003
         vertex 1.038792e+003 1.088732e+003 1.884804e+003
         vertex 1.043792e+003 1.088732e+003 1.884804e+003
      endloop
   endfacet
   facet normal -4.099471e-017 7.274188e-001 -6.861938e-001
      outer loop
         vertex 1.043792e+003 1.088732e+003 1.884804e+003
         vertex 1.038792e+003 1.088732e+003 1.884804e+003
         vertex 1.038792e+003 1.089003e+003 1.885075e+003
      endloop
   endfacet
   facet normal -3.815390e-017 6.861938e-001 -7.274188e-001
      outer loop
         vertex 1.043792e+003 1.088732e+003 1.884804e+003
         vertex 1.038792e+003 1.089003e+003 1.885075e+003
         vertex 1.043792e+003 1.089003e+003 1.885075e+003
      endloop
   endfacet
   facet normal -3.211463e-017 5.972114e-001 -8.020839e-001
      outer loop
         vertex 1.043792e+003 1.089003e+003 1.885075e+003
         vertex 1.038792e+003 1.089003e+003 1.885075e+003
         vertex 1.038792e+003 1.089317e+003 1.885295e+003
      endloop
   endfacet
   facet normal -2.891617e-017 5.494540e-001 -8.355240e-001
      outer loop
         vertex 1.043792e+003 1.089003e+003 1.885075e+003
         vertex 1.038792e+003 1.089317e+003 1.885295e+003
         vertex 1.043792e+003 1.089317e+003 1.885295e+003
      endloop
   endfacet
   facet normal -2.225877e-017 4.488580e-001 -8.936031e-001
      outer loop
         vertex 1.043792e+003 1.089317e+003 1.885295e+003
         vertex 1.038792e+003 1.089317e+003 1.885295e+003
         vertex 1.038792e+003 1.089665e+003 1.885457e+003
      endloop
   endfacet
   facet normal -1.879983e-017 3.960194e-001 -9.182422e-001
      outer loop
         vertex 1.043792e+003 1.089317e+003 1.885295e+003
         vertex 1.038792e+003 1.089665e+003 1.885457e+003
         vertex 1.043792e+003 1.089665e+003 1.885457e+003
      endloop
   endfacet
   facet normal -1.172658e-017 2.868663e-001 -9.579706e-001
      outer loop
         vertex 1.043792e+003 1.089665e+003 1.885457e+003
         vertex 1.038792e+003 1.089665e+003 1.885457e+003
         vertex 1.038792e+003 1.090035e+003 1.885557e+003
      endloop
   endfacet
   facet normal -8.112267e-018 2.305518e-001 -9.730601e-001
      outer loop
         vertex 1.043792e+003 1.089665e+003 1.885457e+003
         vertex 1.038792e+003 1.090035e+003 1.885557e+003
         vertex 1.04≥7y2Á+023 !∞92`34e+203 Æ)85u7E+∞03*  ! !†enedoop/!* ejd&`aepJ   fqbet`Jormal(-:,3h0871e-001"0û1tq583e-2010/.932#17e-021
$( ( (ke gr2dooM`  †"†*$(vevuex 1&3;393e+0p2 1.090135e+083 5/885157e+03-
  (!&   terÙu~ 3.03:q2g+ê0# 1. 90p±%e+∞p3 9.894557ek 03!    " ( verpez(&48252e*003Hq6p=0417e+∞02 1.=550e+4∞3
(p!  $dmdl/ot
 $ endbicet 0 tacET normal 2:21781e/018 5.87914e202 -1(y81348A-02!
2 (& $oupdr lnkp    † ! ve2tex$7&043uπr·+∞ 310920s5ei0 3 1.8855'∑g+a03	
0  $     ˆfzt`l"1Æ2≥86y2ej183 1*49:517e+40301:885µ8∞e+0≥ ( 0  !   ˆgrtep !.04s782e*003!n≤9∞4q7G+1°3#1.88559∞e+003
`  †  en$ÏoÔp
 † entfiker ( ficet vorma< {n44/¥85e-41w -&/:03914e)40$-9.π83520g•4!B  0  ju|ep`l//p
 0 †h   ver|ux 1.0$1ß96m
021"5/ ;0417g+083a1.885590!"003J0`      @vertmx$5.3872d+007 Æ090$01%+p∞7†1.<8550e+|03
  !  ‡(  Vazt%h29. 3:792e+083!!/0946?G+p03(1><∏557?d+00#ç
 %"Ä !endn/kp
#  elfa„eÙ- ` &ic%x oor-in q>76G0pm%-915(,1Æ1450≥e)420(-8.960#07G-0p1 ` $$0Ôutus lgoq
0`  (! ) vdrÒe|"1.041792e+003 1j =0q7w 31Ó88%59pe+003
 `! ! ! vmrtex 1.038317e+2¥;Ñ1&p9 399g+003`.8?%5e+∏0ª
   % -   weRtEx†1&0437y2e+44 1.4;0799d#103 e885557E/*Ù7M
!@   ÄenllkOp
$ !uÓdÊEg%tä †!fa#e| ˇozmal 2.∞6∏2∂8e,117!?:.344=09e-001$-©.W=0∂41f=001
% $   ouug2 (oo0
     " $ sgrT%X%1.053∑92e*t03 1~0907Ò!e+213 1.895557e+003J  ` † b% vertmy∞3.≥38s)2Â+0<# 1.p907)<a©8º1 1&8=!?e+002ä0   !  ! fd2te8 1.03(792g+02# ±,090150e/103 168 1453e#20c
 $`   endlmp
(  ,n‰fa!gt!0$f·aed n}rmal†:.¥10304e-03∂(/2*<78642f=081!-9.5s9s66e%02q † d outer†lgk`	  ! 0  $`verte|(1.04≥793m´03 1<9 739%+803 1Æx85%57iK005O* ("$ † ( vaÚtey !-0;83;Úe+003"1.0)±7 u013 1.8854<up63ç
à( d    $vEÚpU8 1.042w	2e+003 1.∞9±870e´003a±.88457a;:07é ¢! † endl/0
0  m/ÏfaSe‘   facet†nj≤mal"3.±>v302Âi07 -3.96 %94e-84µ -9n10≤422E≠0∞!Õ
(b)   oever nkop]
¿     a  vmrte¸ !."4?w92e+2,345n199q70Â*103†.9<544∑e+003  ! "†  0ˆervE¯$1.p6879m+2p3 1.0911?6M+001 ±.x85557e+003Ç    ! !0 ver∞ex 1é8187y:e#2®1Æ09151?u+0s†uÓ8x5r5U+07H   $0 en&lo/p
‡ unfnqcepM
E  Fccel0nM6Mal 3Æ380#∂4a≠0130%t,488%80e01 -.9;6071e,p0q	J8  !0guter H.Ôpç
$!4!0§   verueX0 .∞427)31+043±.199172+203 5.<∏5<55e+602J  !   1  ~eptÂx!1n07:792u+ 03"1&p91%5we+¥0≥ ≥8<0<¢003ä † 0 !0" veÚT•x qn4$72e+00≤ 1.0©0Ω5?e+8030qn88∞:95e*p42‡   00aOtmo/p
"  eneeecet
   ba#et jobma| #.9510∂8em097(/5.594540Â,000 ≠9.ëuµr00%-10±! (   gutes l/kp
 ( (0`†  ve"tex 1p4279ek013 1.0´1537q+03 1.8:5'9%`+03
 (  à$0†!fartgX 1+88796e)01$1n∞9q5!7m+04' 1.853Y%e+π1ì#0!  ")"  vestyx 1P38782d+003 1/09191e+01! Qnº*541e+003   ¢ "e~dloop-
!$ anlfaceuå
 " babmt n/Úl!l†<Æ:º3ó02e-017 -5.17310µe) 1ui8.0"08G8E-00   $ ¢kuper lo.t   !  (" 52ta| 1n0437-2a/003`1.091%q'e043 1.8852)5d+00'    " "  v·rle9 0.0;¯69&e+2 ≥ ±.1π1∏3±%)903†1Ω841w5e/00≥  (0"4"  ˆ%rtex 2.∞4#9:c/"±3 1.011810d9p03$1.x507=%c00s
 "((  Ân`lnop    endˆaCÁå
¶ !fa3`v .obmc`/6551∑7e-017 -∂~z61π3e-11 ≠6.674®0imp1
   %  -Utmf noox
    † † `vm@ve|01.0t≥792u+80; ±.01830e+023 .88507e+∞03 b !  (∞$vet4ax0.03392ep231 .0838W1E+003  .x840'e023
   "  " 4vistex 1.019792e+p13 3.ë9í1∏3e+00≤ 1
∏84804e+003$† 0 .gÓdlo{`B(` a˛e"Icut
( fasethlo2mul $.9859°ve-017(/7.37¥9x8e%00±!∑.®6y<e-t81! ` §outev lgop !p!`"  ` ˆeptex"1.∞372u0r3 .`9131Â;0¥s 1*8=%1'5e+0 
$ !`$    ˆ%vTgx†1.0387y>ß+00; 1&p=:113’+0∞3 Æ0º400e+00{
 0 $ h 0 veruex a*∞%3790Â+8;1*p92103Â/0 3$8*:8480(e´0p3Õ
‡$°   entloopJ"  %fDfacatö$ !BakaT`nÔsm`L0.3=4<0e-057 -8*∞2∞8≥)O-401 -5.976514a-001
$†  $ kutep&lootj   Ä    !besp%x 1.0t3792e*003$1n0=230≤e+4p#`1/080804gK21?å
2   &†  (vertdx†5/r3=w92e+003 50y2103d+∞0231.8(¥804w(003   "   1vertfx 5.38∑6e∞0≥(1.0<3"sg+p01 1.884$90e+103	 (    e.‰lnoq-ä t e.$faceu
`  faaet(nob}il 5~572783E-01`,8.755bº0q-021 -5.414540m,023å 00  0Ôw}Er moÔpÖJ& `"$!  vertUr !&043≥82e+003 1.092!p3e+007 .884804%#103
0   †    vÌrtex"1"0ì<92$+2 3 9*092≥2sm+003 1.884498e+013
! §` ¢ ®`6mr|ex 1.0<3Yrg+001 1.09r323e* 4 ±n8449"e+0∞
` $$! eldnnopç
 ($eÓdf!ceu " figeT Êg˙-H| e&q'05pe-413 -8.96831e-041$/4+ 8<∏0u-0∞1
      Ôuter Hooq	∏  " † † vEstax 1n043782e+843 5093363a*002 1Æ884$90e+0∞7Ç "   4   6eR<dx 1n0k:32%+p0;†0.∞)r307g+023 1.88t4πpE+∞3-B `    † ®~erpe| qnp;8?9:e+003 1. 9:<<5mÎ0x3`n98414rl+p03 $`  "eNd|oop-
   Ândf·+eT-B `fa#ep"noze`L 5*990244e-q6 -9n18>20e-`≤5 ≠3Æ;¶0194e-001-
4$0  outdr l)op
      0 0w%rteI 1.05#∑i7e+20≥ 1*096323ek00;d1n<8469∞e#011
  †0  $  ˆ%p6ex 1*03<w9:e003 5&41~,<5e+0 3 !.884142u´007
$ h   "$ veruexaq.04794ep∞3Ä1.09"$>Uuk00"5.88¥!<ÚE+0p3M:" !$ %d`lkÌp") enDf)cet
  (da‚qÙdnizmam"6.1678#9E,0;s(-ô.∑=726e≠003†-∫.z6x6&2e≠20q
      nqter∞loOpO  (      vÂrtehÄ1.053'{eO003 1.092485d+:0r81.8x4142e+04;M   §   §0ˆerÙ%¸ 1.01>w92m+27 ±.4924=E#p≥$1.894=42#+003/ä 8 (     veruer 1.038692a/ 03 1.2;≤184e/ 03 1.88s?2t+,0Mä ( †  ooEloop
  †endf·set@† f!ÎEt jormaÏ 6.265&q?Â!:70-π&730p1e-009"m2.3pµ1±(d-p1uJ  "   mutmr hoop
   † "   ˆertey 0n∞437i6dØq3 1*09248Â)003†5.9	6Ò4:%+≤0s
     ! ( ~er¥mx".09792e+10r .∏96u80d+:83 1.8y7w72e803ä$  †! `$`~erpex$±.±03792es0 1 1™08"58∞A+00: 1™983>72e+ 03
   (  ej`loO0©   ÂndracÂuJ ° facet norOamb7.27765e-0a6 /.˝32347e-p01 )1121583g≠ 21* $!  "owtev(lonp
      " "v%rtex1Ò?0437π6e/02+`9.0:514e*0î3 uÆ(∏372e+003       bver|Ex$1>318792e-03+q/0)21(<ek00s #.883˜?2A#802
  †  $®h vevtex 1.02x792'+0∞3"1Ó0=2617ek=03®1.8(≥3;0e+0p3:"   " efdmoor   end&i„`xÄdndqll)d