solid 09.025.00.00.000 - 09.025.00.08.000-1 09.025.00.08.025-3
   facet normal 6.245005e-017 -1.000000e+000 6.367905e-016
      outer loop
         vertex 1.223792e+003 1.073417e+003 1.948390e+003
         vertex 1.223792e+003 1.073417e+003 1.873390e+003
         vertex 1.228792e+003 1.073417e+003 1.948390e+003
      endloop
   endfacet
   facet normal 6.245005e-017 -1.000000e+000 6.367905e-016
      outer loop
         vertex 1.228792e+003 1.073417e+003 1.948390e+003
         vertex 1.223792e+003 1.073417e+003 1.873390e+003
         vertex 1.228792e+003 1.073417e+003 1.873390e+003
      endloop
   endfacet
   facet normal -6.459731e-018 6.407581e-016 1.000000e+000
      outer loop
         vertex 1.223792e+003 1.093417e+003 1.948390e+003
         vertex 1.223792e+003 1.073417e+003 1.948390e+003
         vertex 1.228792e+003 1.093417e+003 1.948390e+003
      endloop
   endfacet
   facet normal -6.459731e-018 6.407581e-016 1.000000e+000
      outer loop
         vertex 1.228792e+003 1.093417e+003 1.948390e+003
         vertex 1.223792e+003 1.073417e+003 1.948390e+003
         vertex 1.228792e+003 1.073417e+003 1.948390e+003
      endloop
   endfacet
   facet normal -6.245005e-017 1.000000e+000 -5.905312e-016
      outer loop
         vertex 1.223792e+003 1.093417e+003 1.873390e+003
         vertex 1.223792e+003 1.093417e+003 1.948390e+003
         vertex 1.228792e+003 1.093417e+003 1.873390e+003
      endloop
   endfacet
   facet normal -6.245005e-017 1.000000e+000 -5.905312e-016
      outer loop
         vertex 1.228792e+003 1.093417e+003 1.873390e+003
         vertex 1.223792e+003 1.093417e+003 1.948390e+003
         vertex 1.228792e+003 1.093417e+003 1.948390e+003
      endloop
   endfacet
   facet normal 6.459731e-018 -6.407581e-016 -1.000000e+000
      outer loop
         vertex 1.223792e+003 1.073417e+003 1.873390e+003
         vertex 1.223792e+003 1.093417e+003 1.873390e+003
         vertex 1.228792e+003 1.073417e+003 1.873390e+003
      endloop
   endfacet
   facet normal 6.459731e-018 -6.407581e-016 -1.000000e+000
      outer loop
         vertex 1.228792e+003 1.073417e+003 1.873390e+003
         vertex 1.223792e+003 1.093417e+003 1.873390e+003
         vertex 1.228792e+003 1.093417e+003 1.873390e+003
      endloop
   endfacet
   facet normal -1.000000e+000 -1.040834e-016 1.026531e-018
      outer loop
         vertex 1.223792e+003 1.093417e+003 1.948390e+003
         vertex 1.223792e+003 1.093417e+003 1.873390e+003
         vertex 1.223792e+003 1.092617e+003 1.883390e+003
      endloop
   endfacet
   facet normal -1.000000e+000 -1.040834e-016 1.026531e-018
      outer loop
         vertex 1.223792e+003 1.073417e+003 1.948390e+003
         vertex 1.223792e+003 1.076417e+003 1.885590e+003
         vertex 1.223792e+003 1.076035e+003 1.885557e+003
      endloop
   endfacet
   facet normal -1.000000e+000 -1.040834e-016 1.026531e-018
      outer loop
         vertex 1.223792e+003 1.076417e+003 1.885590e+003
         vertex 1.223792e+003 1.073417e+003 1.948390e+003
         vertex 1.223792e+003 1.076799e+003 1.885557e+003
      endloop
   endfacet
   facet normal -1.000000e+000 -1.040834e-016 1.026531e-018
      outer loop
         vertex 1.223792e+003 1.076799e+003 1.885557e+003
         vertex 1.223792e+003 1.073417e+003 1.948390e+003
         vertex 1.223792e+003 1.093417e+003 1.948390e+003
      endloop
   endfacet
   facet normal -1.000000e+000 -1.040834e-016 1.026531e-018
      outer loop
         vertex 1.223792e+003 1.076799e+003 1.885557e+003
         vertex 1.223792e+003 1.093417e+003 1.948390e+003
         vertex 1.223792e+003 1.077170e+003 1.885457e+003
      endloop
   endfacet
   facet normal -1.000000e+000 -1.040834e-016 1.026531e-018
      outer loop
         vertex 1.223792e+003 1.092617e+003 1.883390e+003
         vertex 1.223792e+003 1.092584e+003 1.883772e+003
         vertex 1.223792e+003 1.093417e+003 1.948390e+003
      endloop
   endfacet
   facet normal -1.000000e+000 -1.040834e-016 1.026531e-018
      outer loop
         vertex 1.223792e+003 1.093417e+003 1.948390e+003
         vertex 1.223792e+003 1.092584e+003 1.883772e+003
         vertex 1.223792e+003 1.092485e+003 1.884142e+003
      endloop
   endfacet
   facet normal -1.000000e+000 -1.040834e-016 1.026531e-018
      outer loop
         vertex 1.223792e+003 1.093417e+003 1.948390e+003
         vertex 1.223792e+003 1.092485e+003 1.884142e+003
         vertex 1.223792e+003 1.092323e+003 1.884490e+003
      endloop
   endfacet
   facet normal -1.000000e+000 -1.040834e-016 1.026531e-018
      outer loop
         vertex 1.223792e+003 1.092323e+003 1.884490e+003
         vertex 1.223792e+003 1.092103e+003 1.884804e+003
         vertex 1.223792e+003 1.093417e+003 1.948390e+003
      endloop
   endfacet
   facet normal -1.000000e+000 -1.040834e-016 1.026531e-018
      outer loop
         vertex 1.223792e+003 1.093417e+003 1.948390e+003
         vertex 1.223792e+003 1.092103e+003 1.884804e+003
         vertex 1.223792e+003 1.091831e+003 1.885075e+003
      endloop
   endfacet
   facet normal -1.000000e+000 -1.040834e-016 1.026531e-018
      outer loop
         vertex 1.223792e+003 1.093417e+003 1.948390e+003
         vertex 1.223792e+003 1.091831e+003 1.885075e+003
         vertex 1.223792e+003 1.091517e+003 1.885295e+003
      endloop
   endfacet
   facet normal -1.000000e+000 -1.040834e-016 1.026531e-018
      outer loop
         vertex 1.223792e+003 1.078584e+003 1.883772e+003
         vertex 1.223792e+003 1.078485e+003 1.884142e+003
         vertex 1.223792e+003 1.090035e+003 1.885557e+003
      endloop
   endfacet
   facet normal -1.000000e+000 -1.040834e-016 1.026531e-018
      outer loop
         vertex 1.223792e+003 1.089665e+003 1.885457e+003
         vertex 1.223792e+003 1.077170e+003 1.881323e+003
         vertex 1.223792e+003 1.077517e+003 1.881485e+003
      endloop
   endfacet
   facet normal -1.000000e+000 -1.040834e-016 1.026531e-018
      outer loop
         vertex 1.223792e+003 1.077517e+003 1.881485e+003
         vertex 1.223792e+003 1.077832e+003 1.881705e+003
         vertex 1.223792e+003 1.089665e+003 1.885457e+003
      endloop
   endfacet
   facet normal -1.000000e+000 -1.040834e-016 1.026531e-018
      outer loop
         vertex 1.223792e+003 1.089665e+003 1.885457e+003
         vertex 1.223792e+003 1.077832e+003 1.881705e+003
         vertex 1.223792e+003 1.078103e+003 1.881976e+003
      endloop
   endfacet
   facet normal -1.000000e+000 -1.040834e-016 1.026531e-018
      outer loop
         vertex 1.223792e+003 1.089665e+003 1.885457e+003
         vertex 1.223792e+003 1.078103e+003 1.881976e+003
         vertex 1.223792e+003 1.078323e+003 1.882290e+003
      endloop
   endfacet
   facet normal -1.000000e+000 -1.040834e-016 1.026531e-018
      outer loop
         vertex 1.223792e+003 1.089665e+003 1.885457e+003
         vertex 1.223792e+003 1.089317e+003 1.885295e+003
         vertex 1.223792e+003 1.077170e+003 1.881323e+003
      endloop
   endfacet
   facet normal -1.000000e+000 -1.040834e-016 1.026531e-018
      outer loop
         vertex 1.223792e+003 1.077170e+003 1.881323e+003
         vertex 1.223792e+003 1.089317e+003 1.885295e+003
         vertex 1.223792e+003 1.089003e+003 1.885075e+003
      endloop
   endfacet
   facet normal -1.000000e+000 -1.040834e-016 1.026531e-018
      outer loop
         vertex 1.223792e+003 1.077170e+003 1.881323e+003
         vertex 1.223792e+003 1.089003e+003 1.885075e+003
         vertex 1.223792e+003 1.088732e+003 1.884804e+003
      endloop
   endfacet
   facet normal -1.000000e+000 -1.040834e-016 1.026531e-018
      outer loop
         vertex 1.223792e+003 1.091517e+003 1.885295e+003
         vertex 1.223792e+003 1.091170e+003 1.885457e+003
         vertex 1.223792e+003 1.093417e+003 1.948390e+003
      endloop
   endfacet
   facet normal -1.000000e+000 -1.040834e-016 1.026531e-018
      outer loop
         vertex 1.223792e+003 1.093417e+003 1.948390e+003
         vertex 1.223792e+003 1.091170e+003 1.885457e+003
         vertex 1.223792e+003 1.090799e+003 1.885557e+003
      endloop
   endfacet
   facet normal -1.000000e+000 -1.040834e-016 1.026531e-018
      outer loop
         vertex 1.223792e+003 1.093417e+003 1.948390e+003
         vertex 1.223792e+003 1.090799e+003 1.885557e+003
         vertex 1.223792e+003 1.090417e+003 1.885590e+003
      endloop
   endfacet
   facet normal -1.000000e+000 -1.040834e-016 1.026531e-018
      outer loop
         vertex 1.223792e+003 1.076035e+003 1.885557e+003
         vertex 1.223792e+003 1.075665e+003 1.885457e+003
         vertex 1.223792e+003 1.073417e+003 1.948390e+003
      endloop
   endfacet
   facet normal -1.000000e+000 -1.040834e-016 1.026531e-018
      outer loop
         vertex 1.223792e+003 1.073417e+003 1.948390e+003
         vertex 1.223792e+003 1.075665e+003 1.885457e+003
         vertex 1.223792e+003 1.075317e+003 1.885295e+003
      endloop
   endfacet
   facet normal -1.000000e+000 -1.040834e-016 1.026531e-018
      outer loop
         vertex 1.223792e+003 1.073417e+003 1.948390e+003
         vertex 1.223792e+003 1.075317e+003 1.885295e+003
         vertex 1.223792e+003 1.075003e+003 1.885075e+003
      endloop
   endfacet
   facet normal -1.000000e+000 -1.040834e-016 1.026531e-018
      outer loop
         vertex 1.223792e+003 1.078323e+003 1.882290e+003
         vertex 1.223792e+003 1.078485e+003 1.882637e+003
         vertex 1.223792e+003 1.089665e+003 1.885457e+003
      endloop
   endfacet
   facet normal -1.000000e+000 -1.040834e-016 1.026531e-018
      outer loop
         vertex 1.223792e+003 1.089665e+003 1.885457e+003
         vertex 1.223792e+003 1.078485e+003 1.882637e+003
         vertex 1.223792e+003 1.078584e+003 1.883008e+003
      endloop
   endfacet
   facet normal -1.000000e+000 -1.040834e-016 1.026531e-018
      outer loop
         vertex 1.223792e+003 1.089665e+003 1.885457e+003
         vertex 1.223792e+003 1.078584e+003 1.883008e+003
         vertex 1.223792e+003 1.090035e+003 1.885557e+003
      endloop
   endfacet
   facet normal -1.000000e+000 -1.040834e-016 1.026531e-018
      outer loop
         vertex 1.223792e+003 1.090035e+003 1.885557e+003
         vertex 1.223792e+003 1.078584e+003 1.883008e+003
         vertex 1.223792e+003 1.078617e+003 1.883390e+003
      endloop
   endfacet
   facet normal -1.000000e+000 -1.040834e-016 1.026531e-018
      outer loop
         vertex 1.223792e+003 1.090035e+003 1.885557e+003
         vertex 1.223792e+003 1.078617e+003 1.883390e+003
         vertex 1.223792e+003 1.078584e+003 1.883772e+003
      endloop
   endfacet
   facet normal -1.000000e+000 -1.040834e-016 1.026531e-018
      outer loop
         vertex 1.223792e+003 1.093417e+003 1.873390e+003
         vertex 1.223792e+003 1.091170e+003 1.881323e+003
         vertex 1.223792e+003 1.091517e+003 1.881485e+003
      endloop
   endfacet
   facet normal -1.000000e+000 -1.040834e-016 1.026531e-018
      outer loop
         vertex 1.223792e+003 1.078485e+003 1.884142e+003
         vertex 1.223792e+003 1.078323e+003 1.884490e+003
         vertex 1.223792e+003 1.090035e+003 1.885557e+003
      endloop
   endfacet
   facet normal -1.000000e+000 -1.040834e-016 1.026531e-018
      outer loop
         vertex 1.223792e+003 1.090035e+003 1.885557e+003
         vertex 1.223792e+003 1.078323e+003 1.884490e+003
         vertex 1.223792e+003 1.078103e+003 1.884804e+003
      endloop
   endfacet
   facet normal -1.000000e+000 -1.040834e-016 1.026531e-018
      outer loop
         vertex 1.223792e+003 1.090035e+003 1.885557e+003
         vertex 1.223792e+003 1.078103e+003 1.884804e+003
         vertex 1.223792e+003 1.090417e+003 1.885590e+003
      endloop
   endfacet
   facet normal -1.000000e+000 -1.040834e-016 1.026531e-018
      outer loop
         vertex 1.223792e+003 1.090417e+003 1.885590e+003
         vertex 1.223792e+003 1.078103e+003 1.884804e+003
         vertex 1.223792e+003 1.077832e+003 1.885075e+003
      endloop
   endfacet
   facet normal -1.000000e+000 -1.040834e-016 1.026531e-018
      outer loop
         vertex 1.223792e+003 1.090417e+003 1.885590e+003
         vertex 1.223792e+003 1.077832e+003 1.885075e+003
         vertex 1.223792e+003 1.093417e+003 1.948390e+003
      endloop
   endfacet
   facet normal -1.000000e+000 -1.040834e-016 1.026531e-018
      outer loop
         vertex 1.223792e+003 1.093417e+003 1.948390e+003
         vertex 1.223792e+003 1.077832e+003 1.885075e+003
         vertex 1.223792e+003 1.077517e+003 1.885295e+003
      endloop
   endfacet
   facet normal -1.000000e+000 -1.040834e-016 1.026531e-018
      outer loop
         vertex 1.223792e+003 1.093417e+003 1.948390e+003
         vertex 1.223792e+003 1.077517e+003 1.885295e+003
         vertex 1.223792e+003 1.077170e+003 1.885457e+003
      endloop
   endfacet
   facet normal -1.000000e+000 -1.040834e-016 1.026531e-018
      outer loop
         vertex 1.223792e+003 1.075003e+003 1.885075e+003
         vertex 1.223792e+003 1.074732e+003 1.884804e+003
         vertex 1.223792e+003 1.073417e+003 1.948390e+003
      endloop
   endfacet
   facet normal -1.000000e+000 -1.040834e-016 1.026531e-018
      outer loop
         vertex 1.223792e+003 1.073417e+003 1.948390e+003
         vertex 1.223792e+003 1.074732e+003 1.884804e+003
         vertex 1.223792e+003 1.074512e+003 1.884490e+003
      endloop
   endfacet
   facet normal -1.000000e+000 -1.040834e-016 1.026531e-018
      outer loop
         vertex 1.223792e+003 1.073417e+003 1.948390e+003
         vertex 1.223792e+003 1.074512e+003 1.884490e+003
         vertex 1.223792e+003 1.074350e+003 1.884142e+003
      endloop
   endfacet
   facet normal -1.000000e+000 -1.040834e-016 1.026531e-018
      outer loop
         vertex 1.223792e+003 1.075665e+003 1.881323e+003
         vertex 1.223792e+003 1.073417e+003 1.873390e+003
         vertex 1.223792e+003 1.075317e+003 1.881485e+003
      endloop
   endfacet
   facet normal -1.000000e+000 -1.040834e-016 1.026531e-018
      outer loop
         vertex 1.223792e+003 1.075317e+003 1.881485e+003
         vertex 1.223792e+003 1.073417e+003 1.873390e+003
         vertex 1.223792e+003 1.075003e+003 1.881705e+003
      endloop
   endfacet
   facet normal -1.000000e+000 -1.040834e-016 1.026531e-018
      outer loop
         vertex 1.223792e+003 1.073417e+003 1.873390e+003
         vertex 1.223792e+003 1.089665e+003 1.881323e+003
         vertex 1.223792e+003 1.093417e+003 1.873390e+003
      endloop
   endfacet
   facet normal -1.000000e+000 -1.040834e-016 1.026531e-018
      outer loop
         vertex 1.223792e+003 1.093417e+003 1.873390e+003
         vertex 1.223792e+003 1.089665e+003 1.881323e+003
         vertex 1.223792e+003 1.090035e+003 1.881223e+003
      endloop
   endfacet
   facet normal -1.000000e+000 -1.040834e-016 1.026531e-018
      outer loop
         vertex 1.223792e+003 1.074350e+003 1.882637e+003
         vertex 1.223792e+003 1.074512e+003 1.882290e+003
         vertex 1.223792e+003 1.073417e+003 1.873390e+003
      endloop
   endfacet
   facet normal -1.000000e+000 -1.040834e-016 1.026531e-018
      outer loop
         vertex 1.223792e+003 1.073417e+003 1.873390e+003
         vertex 1.223792e+003 1.074512e+003 1.882290e+003
         vertex 1.223792e+003 1.074732e+003 1.881976e+003
      endloop
   endfacet
   facet normal -1.000000e+000 -1.040834e-016 1.026531e-018
      outer loop
         vertex 1.223792e+003 1.073417e+003 1.873390e+003
         vertex 1.223792e+003 1.074732e+003 1.881976e+003
         vertex 1.223792e+003 1.075003e+003 1.881705e+003
      endloop
   endfacet
   facet normal -1.000000e+000 -1.040834e-016 1.026531e-018
      outer loop
         vertex 1.223792e+003 1.088732e+003 1.881976e+003
         vertex 1.223792e+003 1.089003e+003 1.881705e+003
         vertex 1.223792e+003 1.073417e+003 1.873390e+003
      endloop
   endfacet
   facet normal -1.000000e+000 -1.040834e-016 1.026531e-018
      outer loop
         vertex 1.223792e+003 1.073417e+003 1.873390e+003
         vertex 1.223792e+003 1.089003e+003 1.881705e+003
         vertex 1.223792e+003 1.089317e+003 1.881485e+003
      endloop
   endfacet
   facet normal -1.000000e+000 -1.040834e-016 1.026531e-018
      outer loop
         vertex 1.223792e+003 1.073417e+003 1.873390e+003
         vertex 1.223792e+003 1.089317e+003 1.881485e+003
         vertex 1.223792e+003 1.089665e+003 1.881323e+003
      endloop
   endfacet
   facet normal -1.000000e+000 -1.040834e-016 1.026531e-018
      outer loop
         vertex 1.223792e+003 1.090035e+003 1.881223e+003
         vertex 1.223792e+003 1.090417e+003 1.881190e+003
         vertex 1.223792e+003 1.093417e+003 1.873390e+003
      endloop
   endfacet
   facet normal -1.000000e+000 -1.040834e-016 1.026531e-018
      outer loop
         vertex 1.223792e+003 1.093417e+003 1.873390e+003
         vertex 1.223792e+003 1.090417e+003 1.881190e+003
         vertex 1.223792e+003 1.090799e+003 1.881223e+003
      endloop
   endfacet
   facet normal -1.000000e+000 -1.040834e-016 1.026531e-018
      outer loop
         vertex 1.223792e+003 1.093417e+003 1.873390e+003
         vertex 1.223792e+003 1.090799e+003 1.881223e+003
         vertex 1.223792e+003 1.091170e+003 1.881323e+003
      endloop
   endfacet
   facet normal -1.000000e+000 -1.040834e-016 1.026531e-018
      outer loop
         vertex 1.223792e+003 1.092323e+003 1.882290e+003
         vertex 1.223792e+003 1.092485e+003 1.882637e+003
         vertex 1.223792e+003 1.093417e+003 1.873390e+003
      endloop
   endfacet
   facet normal -1.000000e+000 -1.040834e-016 1.026531e-018
      outer loop
         vertex 1.223792e+003 1.093417e+003 1.873390e+003
         vertex 1.223792e+003 1.092485e+003 1.882637e+003
         vertex 1.223792e+003 1.092584e+003 1.883008e+003
      endloop
   endfacet
   facet normal -1.000000e+000 -1.040834e-016 1.026531e-018
      outer loop
         vertex 1.223792e+003 1.093417e+003 1.873390e+003
         vertex 1.223792e+003 1.092584e+003 1.883008e+003
         vertex 1.223792e+003 1.092617e+003 1.883390e+003
      endloop
   endfacet
   facet normal -1.000000e+000 -1.040834e-016 1.026531e-018
      outer loop
         vertex 1.223792e+003 1.088732e+003 1.884804e+003
         vertex 1.223792e+003 1.088512e+003 1.884490e+003
         vertex 1.223792e+003 1.077170e+003 1.881323e+003
      endloop
   endfacet
   facet normal -1.000000e+000 -1.040834e-016 1.026531e-018
      outer loop
         vertex 1.223792e+003 1.077170e+003 1.881323e+003
         vertex 1.223792e+003 1.088512e+003 1.884490e+003
         vertex 1.223792e+003 1.088350e+003 1.884142e+003
      endloop
   endfacet
   facet normal -1.000000e+000 -1.040834e-016 1.026531e-018
      outer loop
         vertex 1.223792e+003 1.077170e+003 1.881323e+003
         vertex 1.223792e+003 1.088350e+003 1.884142e+003
         vertex 1.223792e+003 1.076799e+003 1.881223e+003
      endloop
   endfacet
   facet normal -1.000000e+000 -1.040834e-016 1.026531e-018
      outer loop
         vertex 1.223792e+003 1.076799e+003 1.881223e+003
         vertex 1.223792e+003 1.088350e+003 1.884142e+003
         vertex 1.223792e+003 1.088251e+003 1.883772e+003
      endloop
   endfacet
   facet normal -1.000000e+000 -1.040834e-016 1.026531e-018
      outer loop
         vertex 1.223792e+003 1.076799e+003 1.881223e+003
         vertex 1.223792e+003 1.088251e+003 1.883772e+003
         vertex 1.223792e+003 1.088217e+003 1.883390e+003
      endloop
   endfacet
   facet normal -1.000000e+000 -1.040834e-016 1.026531e-018
      outer loop
         vertex 1.223792e+003 1.091517e+003 1.881485e+003
         vertex 1.223792e+003 1.091831e+003 1.881705e+003
         vertex 1.223792e+003 1.093417e+003 1.873390e+003
      endloop
   endfacet
   facet normal -1.000000e+000 -1.040834e-016 1.026531e-018
      outer loop
         vertex 1.223792e+003 1.093417e+003 1.873390e+003
         vertex 1.223792e+003 1.091831e+003 1.881705e+003
         vertex 1.223792e+003 1.092103e+003 1.881976e+003
      endloop
   endfacet
   facet normal -1.000000e+000 -1.040834e-016 1.026531e-018
      outer loop
         vertex 1.223792e+003 1.093417e+003 1.873390e+003
         vertex 1.223792e+003 1.092103e+003 1.881976e+003
         vertex 1.223792e+003 1.092323e+003 1.882290e+003
      endloop
   endfacet
   facet normal -1.000000e+000 -1.040834e-016 1.026531e-018
      outer loop
         vertex 1.223792e+003 1.075665e+003 1.881323e+003
         vertex 1.223792e+003 1.076035e+003 1.881223e+003
         vertex 1.223792e+003 1.073417e+003 1.873390e+003
      endloop
   endfacet
   facet normal -1.000000e+000 -1.040834e-016 1.026531e-018
      outer loop
         vertex 1.223792e+003 1.073417e+003 1.873390e+003
         vertex 1.223792e+003 1.076035e+003 1.881223e+003
         vertex 1.223792e+003 1.076417e+003 1.881190e+003
      endloop
   endfacet
   facet normal -1.000000e+000 -1.040834e-016 1.026531e-018
      outer loop
         vertex 1.223792e+003 1.073417e+003 1.873390e+003
         vertex 1.223792e+003 1.076417e+003 1.881190e+003
         vertex 1.223792e+003 1.076799e+003 1.881223e+003
      endloop
   endfacet
   facet normal -1.000000e+000 -1.040834e-016 1.026531e-018
      outer loop
         vertex 1.223792e+003 1.074350e+003 1.884142e+003
         vertex 1.223792e+003 1.074251e+003 1.883772e+003
         vertex 1.223792e+003 1.073417e+003 1.948390e+003
      endloop
   endfacet
   facet normal -1.000000e+000 -1.040834e-016 1.026531e-018
      outer loop
         vertex 1.223792e+003 1.073417e+003 1.948390e+003
         vertex 1.223792e+003 1.074251e+003 1.883772e+003
         vertex 1.223792e+003 1.074217e+003 1.883390e+003
      endloop
   endfacet
   facet normal -1.000000e+000 -1.040834e-016 1.026531e-018
      outer loop
         vertex 1.223792e+003 1.073417e+003 1.948390e+003
         vertex 1.223792e+003 1.074217e+003 1.883390e+003
         vertex 1.223792e+003 1.073417e+003 1.873390e+003
      endloop
   endfacet
   facet normal -1.000000e+000 -1.040834e-016 1.026531e-018
      outer loop
         vertex 1.223792e+003 1.073417e+003 1.873390e+003
         vertex 1.223792e+003 1.074217e+003 1.883390e+003
         vertex 1.223792e+003 1.074251e+003 1.883008e+003
      endloop
   endfacet
   facet normal -1.000000e+000 -1.040834e-016 1.026531e-018
      outer loop
         vertex 1.223792e+003 1.073417e+003 1.873390e+003
         vertex 1.223792e+003 1.074251e+003 1.883008e+003
         vertex 1.223792e+003 1.074350e+003 1.882637e+003
      endloop
   endfacet
   facet normal -1.000000e+000 -1.040834e-016 1.026531e-018
      outer loop
         vertex 1.223792e+003 1.088217e+003 1.883390e+003
         vertex 1.223792e+003 1.088251e+003 1.883008e+003
         vertex 1.223792e+003 1.076799e+003 1.881223e+003
      endloop
   endfacet
   facet normal -1.000000e+000 -1.040834e-016 1.026531e-018
      outer loop
         vertex 1.223792e+003 1.076799e+003 1.881223e+003
         vertex 1.223792e+003 1.088251e+003 1.883008e+003
         vertex 1.223792e+003 1.088350e+003 1.882637e+003
      endloop
   endfacet
   facet normal -1.000000e+000 -1.040834e-016 1.026531e-018
      outer loop
         vertex 1.223792e+003 1.076799e+003 1.881223e+003
         vertex 1.223792e+003 1.088350e+003 1.882637e+003
         vertex 1.223792e+003 1.073417e+003 1.873390e+003
      endloop
   endfacet
   facet normal -1.000000e+000 -1.040834e-016 1.026531e-018
      outer loop
         vertex 1.223792e+003 1.073417e+003 1.873390e+003
         vertex 1.223792e+003 1.088350e+003 1.882637e+003
         vertex 1.223792e+003 1.088512e+003 1.882290e+003
      endloop
   endfacet
   facet normal -1.000000e+000 -1.040834e-016 1.026531e-018
      outer loop
         vertex 1.223792e+003 1.073417e+003 1.873390e+003
         vertex 1.223792e+003 1.088512e+003 1.882290e+003
         vertex 1.223792e+003 1.088732e+003 1.881976e+003
      endloop
   endfacet
   facet normal 1.000000e+000 1.040834e-016 -1.026531e-018
      outer loop
         vertex 1.228792e+003 1.076417e+003 1.885590e+003
         vertex 1.228792e+003 1.073417e+003 1.948390e+003
         vertex 1.228792e+003 1.076035e+003 1.885557e+003
      endloop
   endfacet
   facet normal 1.000000e+000 1.040834e-016 -1.026531e-018
      outer loop
         vertex 1.228792e+003 1.076035e+003 1.885557e+003
         vertex 1.228792e+003 1.073417e+003 1.948390e+003
         vertex 1.228792e+003 1.075665e+003 1.885457e+003
      endloop
   endfacet
   facet normal 1.000000e+000 1.040834e-016 -1.026531e-018
      outer loop
         vertex 1.228792e+003 1.074732e+003 1.884804e+003
         vertex 1.228792e+003 1.073417e+003 1.948390e+003
         vertex 1.228792e+003 1.074512e+003 1.884490e+003
      endloop
   endfacet
   facet normal 1.000000e+000 1.040834e-016 -1.026531e-018
      outer loop
         vertex 1.228792e+003 1.074512e+003 1.884490e+003
         vertex 1.228792e+003 1.073417e+003 1.948390e+003
         vertex 1.228792e+003 1.074350e+003 1.884142e+003
      endloop
   endfacet
   facet normal 1.000000e+000 1.040834e-016 -1.026531e-018
      outer loop
         vertex 1.228792e+003 1.074732e+003 1.884804e+003
         vertex 1.228792e+003 1.075003e+003 1.885075e+003
         vertex 1.228792e+003 1.073417e+003 1.948390e+003
      endloop
   endfacet
   facet normal 1.000000e+000 1.040834e-016 -1.026531e-018
      outer loop
         vertex 1.228792e+003 1.073417e+003 1.948390e+003
         vertex 1.228792e+003 1.075003e+003 1.885075e+003
         vertex 1.228792e+003 1.075317e+003 1.885295e+003
      endloop
   endfacet
   facet normal 1.000000e+000 1.040834e-016 -1.026531e-018
      outer loop
         vertex 1.228792e+003 1.073417e+003 1.948390e+003
         vertex 1.228792e+003 1.075317e+003 1.885295e+003
         vertex 1.228792e+003 1.075665e+003 1.885457e+003
      endloop
   endfacet
   facet normal 1.000000e+000 1.040834e-016 -1.026531e-018
      outer loop
         vertex 1.228792e+003 1.076035e+003 1.881223e+003
         vertex 1.228792e+003 1.075665e+003 1.881323e+003
         vertex 1.228792e+003 1.073417e+003 1.873390e+003
      endloop
   endfacet
   facet normal 1.000000e+000 1.040834e-016 -1.026531e-018
      outer loop
         vertex 1.228792e+003 1.073417e+003 1.873390e+003
         vertex 1.228792e+003 1.075665e+003 1.881323e+003
         vertex 1.228792e+003 1.075317e+003 1.881485e+003
      endloop
   endfacet
   facet normal 1.000000e+000 1.040834e-016 -1.026531e-018
      outer loop
         vertex 1.228792e+003 1.073417e+003 1.873390e+003
         vertex 1.228792e+003 1.075317e+003 1.881485e+003
         vertex 1.228792e+003 1.075003e+003 1.881705e+003
      endloop
   endfacet
   facet normal 1.000000e+000 1.040834e-016 -1.026531e-018
      outer loop
         vertex 1.228792e+003 1.075003e+003 1.881705e+003
         vertex 1.228792e+003 1.074732e+003 1.881976e+003
         vertex 1.228792e+003 1.073417e+003 1.873390e+003
      endloop
   endfacet
   facet normal 1.000000e+000 1.040834e-016 -1.026531e-018
      outer loop
         vertex 1.228792e+003 1.073417e+003 1.873390e+003
         vertex 1.228792e+003 1.074732e+003 1.881976e+003
         vertex 1.228792e+003 1.074512e+003 1.882290e+003
      endloop
   endfacet
   facet normal 1.000000e+000 1.040834e-016 -1.026531e-018
      outer loop
         vertex 1.228792e+003 1.073417e+003 1.873390e+003
         vertex 1.228792e+003 1.074512e+003 1.882290e+003
         vertex 1.228792e+003 1.074350e+003 1.882637e+003
      endloop
   endfacet
   facet normal 1.000000e+000 1.040834e-016 -1.026531e-018
      outer loop
         vertex 1.228792e+003 1.074350e+003 1.882637e+003
         vertex 1.228792e+003 1.074251e+003 1.883008e+003
         vertex 1.228792e+003 1.073417e+003 1.873390e+003
      endloop
   endfacet
   facet normal 1.000000e+000 1.040834e-016 -1.026531e-018
      outer loop
         vertex 1.228792e+003 1.073417e+003 1.873390e+003
         vertex 1.228792e+003 1.074251e+003 1.883008e+003
         vertex 1.228792e+003 1.074217e+003 1.883390e+003
      endloop
   endfacet
   facet normal 1.000000e+000 1.040834e-016 -1.026531e-018
      outer loop
         vertex 1.228792e+003 1.073417e+003 1.873390e+003
         vertex 1.228792e+003 1.074217e+003 1.883390e+003
         vertex 1.228792e+003 1.073417e+003 1.948390e+003
      endloop
   endfacet
   facet normal 1.000000e+000 1.040834e-016 -1.026531e-018
      outer loop
         vertex 1.228792e+003 1.073417e+003 1.948390e+003
         vertex 1.228792e+003 1.074217e+003 1.883390e+003
         vertex 1.228792e+003 1.074251e+003 1.883772e+003
      endloop
   endfacet
   facet normal 1.000000e+000 1.040834e-016 -1.026531e-018
      outer loop
         vertex 1.228792e+003 1.073417e+003 1.948390e+003
         vertex 1.228792e+003 1.074251e+003 1.883772e+003
         vertex 1.228792e+003 1.074350e+003 1.884142e+003
      endloop
   endfacet
   facet normal 1.000000e+000 1.040834e-016 -1.026531e-018
      outer loop
         vertex 1.228792e+003 1.093417e+003 1.873390e+003
         vertex 1.228792e+003 1.091170e+003 1.881323e+003
         vertex 1.228792e+003 1.090799e+003 1.881223e+003
      endloop
   endfacet
   facet normal 1.000000e+000 1.040834e-016 -1.026531e-018
      outer loop
         vertex 1.228792e+003 1.088732e+003 1.881976e+003
         vertex 1.228792e+003 1.088512e+003 1.882290e+003
         vertex 1.228792e+003 1.077170e+003 1.885457e+003
      endloop
   endfacet
   facet normal 1.000000e+000 1.040834e-016 -1.026531e-018
      outer loop
         vertex 1.228792e+003 1.077170e+003 1.881323e+003
         vertex 1.228792e+003 1.076799e+003 1.881223e+003
         vertex 1.228792e+003 1.073417e+003 1.873390e+003
      endloop
   endfacet
   facet normal 1.000000e+000 1.040834e-016 -1.026531e-018
      outer loop
         vertex 1.228792e+003 1.073417e+003 1.873390e+003
         vertex 1.228792e+003 1.076799e+003 1.881223e+003
         vertex 1.228792e+003 1.076417e+003 1.881190e+003
      endloop
   endfacet
   facet normal 1.000000e+000 1.040834e-016 -1.026531e-018
      outer loop
         vertex 1.228792e+003 1.073417e+003 1.873390e+003
         vertex 1.228792e+003 1.076417e+003 1.881190e+003
         vertex 1.228792e+003 1.076035e+003 1.881223e+003
      endloop
   endfacet
   facet normal 1.000000e+000 1.040834e-016 -1.026531e-018
      outer loop
         vertex 1.228792e+003 1.076799e+003 1.885557e+003
         vertex 1.228792e+003 1.088251e+003 1.883772e+003
         vertex 1.228792e+003 1.088350e+003 1.884142e+003
      endloop
   endfacet
   facet normal 1.000000e+000 1.040834e-016 -1.026531e-018
      outer loop
         vertex 1.228792e+003 1.088350e+003 1.884142e+003
         vertex 1.228792e+003 1.088512e+003 1.884490e+003
         vertex 1.228792e+003 1.076799e+003 1.885557e+003
      endloop
   endfacet
   facet normal 1.000000e+000 1.040834e-016 -1.026531e-018
      outer loop
         vertex 1.228792e+003 1.076799e+003 1.885557e+003
         vertex 1.228792e+003 1.088512e+003 1.884490e+003
         vertex 1.228792e+003 1.088732e+003 1.884804e+003
      endloop
   endfacet
   facet normal 1.000000e+000 1.040834e-016 -1.026531e-018
      outer loop
         vertex 1.228792e+003 1.076799e+003 1.885557e+003
         vertex 1.228792e+003 1.088732e+003 1.884804e+003
         vertex 1.228792e+003 1.076417e+003 1.885590e+003
      endloop
   endfacet
   facet normal 1.000000e+000 1.040834e-016 -1.026531e-018
      outer loop
         vertex 1.228792e+003 1.089317e+003 1.885295e+003
         vertex 1.228792e+003 1.089665e+003 1.885457e+003
         vertex 1.228792e+003 1.073417e+003 1.948390e+003
      endloop
   endfacet
   facet normal 1.000000e+000 1.040834e-016 -1.026531e-018
      outer loop
         vertex 1.228792e+003 1.073417e+003 1.948390e+003
         vertex 1.228792e+003 1.089665e+003 1.885457e+003
         vertex 1.228792e+003 1.090035e+003 1.885557e+003
      endloop
   endfacet
   facet normal 1.000000e+000 1.040834e-016 -1.026531e-018
      outer loop
         vertex 1.228792e+003 1.073417e+003 1.948390e+003
         vertex 1.228792e+003 1.090035e+003 1.885557e+003
         vertex 1.228792e+003 1.093417e+003 1.948390e+003
      endloop
   endfacet
   facet normal 1.000000e+000 1.040834e-016 -1.026531e-018
      outer loop
         vertex 1.228792e+003 1.093417e+003 1.948390e+003
         vertex 1.228792e+003 1.090035e+003 1.885557e+003
         vertex 1.228792e+003 1.090417e+003 1.885590e+003
      endloop
   endfacet
   facet normal 1.000000e+000 1.040834e-016 -1.026531e-018
      outer loop
         vertex 1.228792e+003 1.093417e+003 1.948390e+003
         vertex 1.228792e+003 1.090417e+003 1.885590e+003
         vertex 1.228792e+003 1.090799e+003 1.885557e+003
      endloop
   endfacet
   facet normal 1.000000e+000 1.040834e-016 -1.026531e-018
      outer loop
         vertex 1.228792e+003 1.090799e+003 1.885557e+003
         vertex 1.228792e+003 1.091170e+003 1.885457e+003
         vertex 1.228792e+003 1.093417e+003 1.948390e+003
      endloop
   endfacet
   facet normal 1.000000e+000 1.040834e-016 -1.026531e-018
      outer loop
         vertex 1.228792e+003 1.093417e+003 1.948390e+003
         vertex 1.228792e+003 1.091170e+003 1.885457e+003
         vertex 1.228792e+003 1.091517e+003 1.885295e+003
      endloop
   endfacet
   facet normal 1.000000e+000 1.040834e-016 -1.026531e-018
      outer loop
         vertex 1.228792e+003 1.093417e+003 1.948390e+003
         vertex 1.228792e+003 1.091517e+003 1.885295e+003
         vertex 1.228792e+003 1.091831e+003 1.885075e+003
      endloop
   endfacet
   facet normal 1.000000e+000 1.040834e-016 -1.026531e-018
      outer loop
         vertex 1.228792e+003 1.076417e+003 1.885590e+003
         vertex 1.228792e+003 1.088732e+003 1.884804e+003
         vertex 1.228792e+003 1.073417e+003 1.948390e+003
      endloop
   endfacet
   facet normal 1.000000e+000 1.040834e-016 -1.026531e-018
      outer loop
         vertex 1.228792e+003 1.073417e+003 1.948390e+003
         rArtex11n3:?y2e403*1&088732e´5p3 π,(∏4804%)003
 ®     (0Ve2tex†1.2243π2E+0 3 1o08x007E+∏03 ±.8147tk+10;
 †   `enflompè"$(Pendaggt
 $∞fa„e5 .orÌAh 1'000p01e)1∞0 1.2¥r83e-pqV ,0.026µS1e-0° (    Oµter lmÌp"    "$ §var|eh(120∑9≤a-0 ≥ 1.073417t+00S†9.9509∞e∏03
  Q (  ( ves|%x!1nr38596e+003 !.08900se#003 9Æx5∞75d+403
$0 † ° (avevte¯!q,2207π2d+8 3 1*0893!/ekp03a9.895∏95e*001" !i0$eÓdlÁop
"  undfacEdâ
 " fa#et norm·n ë&0000¥0e)000 1.00z24e-<q> =1*†26=31e-p19 `00 ogugr!loop  !0 "(  verÙg¯ q.228792e+0≥101.91839d+003 1.88=075ec0s3
0     ($ vesteÿ 1.628'π6e+0p3 9.92±03e+003(1Æ884804e+ 02
   §  ‰( veztfp 1.r"<?9r}+403 1*09;417u+003 s.y4839∂m)003
  °   endlo/p" #endbacÂdM
 ( v1cet normal&100000`u+∏p0$3Æ04130ad(1& -1.0r67≥3e-498   ", otv%` Ïo
  †0 $  ∞vdruex 1Ó"Úz7!2Â#043`1.09s<q7g;003 q.94:390e+101 †(§    †vÂp˛ex 3*32∑≤EØ00# 1,092311t+2®3 1.8ò4x4e+!p£  †  °"  T%Ûtex 1:r8712e´423`q49≤3:7w+p03 1N88449∞e+003J      Án`lonx
   undfa√et
   gccqt nk2lald1.0000 Â040 q. 030e- qV -0/†2∂431F%118
( !` †ouTeB |gnxç
†   $† "8verTex ±.028792·+00c 1.∞9417e+003 ±.96829 e+001ä%†`8  h  ~ertez 0.22X3;6e+00; 1.92303a+0830=.88ºt;êgØp03
† †(`" 2 vmr0Âx†12"8?)6e	03$10!2¥85Â+003 5Æ88414"·/003-
    $†endl/oXB   endfCcet
†"02acet0nÂrm@d 5.  0800W#1p0 1.0µ0834eq1&&1∞"6•31e-0±8
 ! †"†mUudr Ïoop
 (  m!0, vevtex"1Æb285q≤e) 83 q&0479Ùei<03 1*8:1003e+‡0”$°h    $ vEStdx 1.287=2e+∏3 y.0;84;7e+ps 4.8110E+003- † 0    vmr4ex 1.62879rg+00"$±/∞9301e-003(1.9?33ô0qix13
 $    andloo0Ç   dndfecuÙ
 0 fog%|†.ormal 1Æp¥0112Â+04!!/0<2832e-37 -564?+1m-0q8
!    0oı~ec`lOp
      ` 0vurte¯ ,228∑12e+001 1.093<q3e+ 03 1.87392e+10s-* ,       vÂrta¯01.3"87=·+0∞0 1,0)0t1wÂ+03 9.981!9(E≠01;

 @ ( $0`bl2pÂx ì/28792e+2 ≥ !.4;02s7e+p4 y.,8322m042
 0   afd,Îor
#  enefac`K&` NaC%p0normAn 1.000p 0Â"000"∞o040{36e-806 %1.06∂5#1e/p18J† ("  oPtEr(hoop0!,†` ∞`(viruex"q*:2878e+40Qh1.0=3417e;~03"0Æx71;π0g+00ÛÇ   "(a   vezvex n22869ek003 3.0;≤915ı+143 1n0<3203E+8∞M
 †    (  tertA8*1m2289:e#0∞c$1.0∑3$1óe;003 5n)¥3˚y1e(40≤ †    endloop  #ev,f`retJ0 `fa√e‘ .or-al qÆ0"¥0≥0e+0 101.¨ 1'q-01f  .122ı39ı%018
  !! $ouver§lœotJ"        Futex 1.220792A+003 1.473417g+0∏3)1.w390m+003
   `   !Vertex s.2r<w92u00≥ 0Ó94015e+00"1,88%233u+00≥
` (`    †veÚwÂ8 ±&32∏'±2u*0p+ 5.48=661e#103 ,88±23e+03% ( " endlkfp
  0eÊdnIcuv
  0vacetnormq< 1.000000Â+4T2P1Ø 4 34e503" -1.0255≥1e-0u8     ouuer0doo` ") "†  v%Rtex$1,26;79%+062±.∞734Q7e+0p3 3.07339∞e+Ò33
 `   ( `†verp%| 1.22(69e+103 .68πv∂5Â+003 1.∏813r3e´0ê3
 (0 $0" !vÂr4ut 1.≤3∫792e+043 1 0s17E+03`1.8:1685e+0A3
($†0  eÓ`lootJ  @e.dzqced
   gc!ep~nrmad 1.0p∞018e+000!5.∞p0∏#4u-∞q6 -1.016532e-01=     †otÙ%r loop
b "(!  $0vertax`1$228792ek003!1.∞x∏g32a+p03 1/:8i97ve80
`0 †  !!hGirTex Q.230∑9:d#∞83 1.0ø317∞c+003 1.∏8%44'!+003
 b $† !  vertux 5>22¯792e+0<3 1ø090pse+ ∂$5.88105e+001
†& !!`endlGk0E
   Ândfac`d    facet lorm`Ï 9.0∞0p00}+000"n 60:Û4e5876 -1.∞%6µ31e-u±9ä  (  !o5ter moopM
($ (†( ! rdr4ex†9Æ208∑=2-+003"1.0883Ò0a+00≥01,8828π8t):03
 (! *j (veptex!±.≤2868£e:002 1.∞8∏2%e+`8V$1*x86616a+73J  "    ‡ ter4exb1.218)2l)0<3ê1.177!70e+003 7.8:5417d+40
     +en`|˝op
 †"‰ndbace
b  fekeƒ noÚoal‡1&r0820pe˚00 1.04 834e-096"-1.02&5'1e-430
   d outE{ lnxç
    !    6ertex q&"283y≤e+003 1&2777vq/043 1.98u457e)07!($     $wertex 9.328790e+0 3"1.0ú8ª41e´0"3 1n8826;7e+817J  $b†`¢ ¢ver|Âx 1*2"7}2m+001†1608<211e+007!1,083098a!202J  !" 0undNokpM($  eofw!ced
0  Ïe#eÙ fmrm‡,(100000pe+0: 1.040<34e,216$-1.p4230e-11
  !$¢,oet%z"domP
 0 °`   bv`rtex 5.62792e+103(nW6 60%+203 1n<8u4%5e2s*"0   0® (nÁrtix`1.2287y:e;043 †¥(≤q1a+p0# ±n0<1808a;00!2#0!(!0  vfrpez p.2"8>=:%+007 0.∞76799q+00 .(8555#e+13
 ( †  enlLoop( `undlaset
   faKut n.vOqm 1/0 0∞0∞m+1  1.4|4835g-002$-1.0241;1u% 18ç
 †" $outer hon "  † 0  4vertg .2r:7q-+06s 1&0∑67)≥e´003 u.<85557e+40±	
(  `    †vervÂx 1.22<∑9e+603 1&r8"658e+003 9Ó89318ekπ"3J  %  `"  vrtex 1.2697}%Ø13h.∞<8Ú17Â+103 1>8:339"’+ê03    2$}Ndlko" "@oNeBaset  `f·bu‰!norm`d†1.0004Pc´00l∞nr488;tu-p=6!'∞.2:5ª1e-038å
     "nuter§nÔkr8  h  ¢ vevtex"1*0296y2e;08&!>7&∂)9ek 0≤ 1.*01557e+003
    )"   vertax 1.2!879e+80≥,±<0984qwm+0∞3 1&y3390e+003 < ` !!†!veruz°1.26:692m00S°1.088251g+803 3.8<3773e+0p3ç
  (`$(enlnofp
 †8endfase|]
` `Facud`~0m`N 1.00 080g+p 8 1*0tp(3<Ì-0=6 -9*µ26µS1e%0q0	
   0 %outup loOp         vertex 1n2299e;003 1.0890 3e
003a.881∑05e*02≥-ä0` (( Ä  vmrtex 1.6282e)0∏3 1.0771?4e;`13$1&881077a+007
 $ 0   !®vextEx†QÆ"5∏7ù2e/0≥`5.08917Â103 π,∏<1<e+∞03
 $   †an§lngz
   endfacgtM
`  f`sgt joral 1.044202m+80!n40<3<e-016 -1n42>5≥1e,1!0
     8outer$lo/xä     `   vÂÙex`!.2≤8s92e)p87a9±8π3±5e+043 5.881487e´t02M
      04`vaÚuex !.22792e+±03 Ò.771∑0e)00w∞1.x8¥)e+003  *( ‡$! VeBtÂ{h1.≤3879:dk∞83h1/775?a+∞03d1>8	1285u+00
  !   ellnntç
   E.$fqSetp  Êaset |orlal 1.000000e+p08 /p44820e,016 ≠1.022u#±D,018* (  $"gqt•r .ooq0$!!!"   vertep(5.2=59eã0∞3 1>0893!7e+0 3 1‰885485m+2 3
4       !ˆertgh 1.8"8w9eK003 1.077517u
08≥ q88129µe*0$1çz$(0  *! >epuey1.228392Â+483(1n077076g+00# 1885835e+23-
0 " ! el`loop
   dfe&asEt(  omc·t0jor-am !/000t40u+830"0,04 8#∂u-p57 -±.0∂739≈-018-J`$  (oıtgr"moop`   `  † v%ptExq.0"0794e+01s 1.07732e/003 1
88%∞7µe´0≥  $ †    6exrez!1.228'92%+0∞2`°.0810re+0237l<∏4804e´z03M!  `    (Ve2tey 1.2283-2e)043)1&0x357lk023 1*∏81595u+0p3
 $ †  eNdmooÿJ  e~‰faCet	ä  $n°cet nÔ2mal q.∞00400g+002 1.∞40<74u-056-¨02e1L-08*! (  `o5dÂr"h/gp
!$(  ®  "vertux ±,239e+p03 !.089317a+01 16891685%k203`        Ârpe  122*79∞e+1†3 ë.p∑8103e+013d1.9<¥92e)203
    )° $ v%ztyx 1.:∞8792e
4p3$1.0?8323e+00#	1.880790u+0¥2
  † - qndhog˘
( 1~lfaceT  (F!ae5 nopmcl 1. 00840g+000"1,04083v%-216 -1.0:6531m-019B d `!$oÂtez Ïo+p
"      !verÙe¯ 3.2:8>92e+003 1.083±e´00±(1/0h14x5e+0∞#
  !b $"h vertex$1.828792m*0∞3¢1Œ0∑8327e+003(1∏x4¥90e*003
0 $   †we{qex 1>228w9:e+03$±.27*485dk∞03 1.884%&2e´00s
   (!$jlloopM
† "an‰fabdp
 (¢nacoT noroam 1.01000!00%1.0408{4d-1 +5.020=#1e-21  "` (ouÙ}vbloÓx* "  `    dertex 122879>G+00301.00y17e+403 3.8∏94 5e´003
%`!`1 $d ~ertEx·1/í2∏79≤e)043 1.473<2g+ 4 1&84!705e+0035ä0$`†  !° v%ptex !.8206{2m∏`° 5.07∑417e+003(±*873#90e+022	j6"    ·ndloop
   e*dbaceˆ
   fe#gT nœr-a, 1. 01000m+000 0/086814a-01> -.:3653=e-058`   †-OuPÂr§noor- ! %  d @v%rTg8"1,"28∑=2e+043h. 334q7/+103 1.∏73390%/14
 $    !  vertex 1.228712g+043 !.057p4"ei∞1 q.<1505E´03M
  !! `0 $6dr|uh 5Ær2879:g+†03 i,06751ge+r07 °.∏8°687e0p3M
    † efdlÔop
 d endc)seu
` `f!ced n/rm·d¢3.p"x40e0$0.058∏34e/01 -1.p265ø1e-018
  ! O4Ter lmÁpç ` `04à (ve2teX 0Æ22x'82d+∞03 5.`707g*003±9,873390d+003-B† †   0$$w5P<ex .Z0x∂92a)003†5/03517e+283 3.8<±<5·;∞03  @ !$   &erDdx(qÆ0s878≤e+043 1>0∑u1w1e203q.:13:e+p0; †   $ end,ood]
"† endfaced
$! f`ce|†no2mad 1.0$0080e+00 1.00034D-≤!æ -1.p2653PÂ%018
!  ¢%(otter lk?p
 b  ∞  0 fAbÙaz"1Æ2∞8792%081@1.89349=e#01q 1.84∞42e+103	
(" `  ° `vertox†1/2287)re003 1Æ y298¥e9p13 1*(8772E*∞03	
   # `  b~ezteZ`1o28792e)∞0§.293417mk003 1.=≤h380uè403M
$ "!$ gnDloo  )endbq!etH$ 2naCet ~Ôr-ad"16820  ekp0"1,002834g-07v ¨3û0275;1e≠01:
   ` `o=ue2 lsÔ0
     †   fesˆey`1&z:(793e+88q"1.∞=s25e∏03 8.94 71pm+003
 ∞  08 ( reˆvm¯ 1.22839%+p0¢1.09250e+ ∞s 1~§3wß:e)83E
a a °"(` tgBtex0±.208792e+0q301.094697U+08s 1™8833˘0I*2p3
   ‡ !aÃ,lœ/p
( (endfacet
  &fa{et†.orm!h"!.0(080d+x 8 1,P40∏34e)p16 -3.026=s!ù0ë>
 ∞ `  owdar`loop(  "   h verpex`3Æ2:8s92!+00w 1/0?3t13Ek031,9¥0#π0e´25;
 ( ‡(†  `v%rtmx 1>328792e+∞03 0. ô06±ue)003 1.x8331 e+$1s ! 2†1  `vur|ep 1.x2∏'9≤e+003 1n!=3417e?13">8339∞e#02sã    ` endloop%$`%%n‰Dq£euB,  faÚetnorMel 1 0 00m+28∞ 1j8409#4m-12 -1Ø4:v%w1em∞98:†   " o}feb"hMop
 1 $ " "(vMr|ex21.2r87;2e+001 5.09349˜E*003 .8733:0e1”
∞  	     Vdrrqx$qé28?92·?003 9.r9≤617c+0P3(18833y0$+1;H  $h"*§8ˆer6ex 1/20∑=≤e+83 1.01∑:5u+!03 o08300ı!10#M
"` !&`unllnopM
‡& ÂndfecaT
 ( &aket oOriA, 5.000∞00e+100 a.0t4814e( 16 -1.822s9Dm29<0 !   outer`lgop
    ¢  †hrert%~∞1.3≤wY"m+0 6!Æ68=357ak083 1/88;¥05%123
2 0$ 0$4!2eRtÂx 3.26892m+00r 1.78584e+0 ≥ 1.|3008eo8p#
      ! vevTex 0&2î:'9rÂ+ <3 1.0v8$8=e+∞4! 1/88"67!;003
      endloop@  mnfba„e|
0 !fecep noroal$1800011e)000 1.04035e)0=w -1.0264s1d-0a8
     etes(loÔpÍ   †     verT-x !*208ß2e+∞0£ 1/092784e)103 1f<∏3±p8G+0 3» †5) ! d¢2ertAz$0.228792e*0`3 1.0):4®5ek402$1.8(2675e'p03
%†    !!%vaztex 1>22892e+∞4 1.09;415E+pp;  n87+194e+0≥
0    Ândlgopç†  ucdF·cgt
¢! face¯"Ngr}al 1.4002p0g/p00 1/808∂e,t14 -±.40v531d-098E
      ou4g” do`  ! (   !v'ÚtuX83.328∑9≤e+002 1.0=317e;4 s`1.8'3ì9∞e+0P;* (  `0 ™ 6Dr4d¯ 1.2Û879"ei113 9.092405e/23 1.8û26≥7e+∞ 3
  $‡ !  vurtex"1.22<79re+:43 1,∞yü33Âi003 1<:8r90m+p01
  † † endmogp
 " endfecÌt  †faCdx .ozÌaÏ ±.00∞01e*020 1Æ040834•-6$-3&026139E!21xMb "! 0out$r(lmop
(∞" † 3  taruEt 1 28∑y3e+4#§o0y3417•+0 3 1.8?3390e/0 3
 (    (  wurtdx 1.22879:ek8P#Ä1n8923p3e+083®3.880290$´03
 ( ( `&  ~itux)1*"2∏712e#∞89!!.09.q13e'003$!.88±9?6i)203â
     )end|oo0	"   e.dfac·t-!("fcSet ~ovea, 0Æ 40100e)004 1.8u8834E/4w> 1Æ8"f-31m-0%8
  `*  nutew d/op !  $  ! vevue8 12287Z2≈+ê0 !>0s(t85e+µ03 ∞.88$14u%07B   0@    6Âptdx 1*∞69792e+ :3 1.6~<∑87e+0≥c!9.~u'3m+023(! † "   vu‚te¯ 1,2#85=2e+107 ù.∞8Ω1'e+10S 1.081>Ω4e;001J `    andÃ}ot
   inlf`aeu !`f!cMt noRo`l !.010400u#000 s.0418#v%)π6°-1Æ0:v521e-21(	
†$   $Óuter |ngpä$ (   $ (6ept•X 1&268791e*0∞1 1/0(ª31?uj0H1§1Í8X1x5%+00*"!       vertu 1&≤2∏79re+0 3 q/47∏u84e+0±3 %.88#762e+003	
0  † $! 0vdrÙex 1/227Y2e+00w 11∑x617e/00;(1.8837)0e)∞03I     0e.flmmp ° wndfq#eT fqcmt n/rMÏl 1.0p1 00e+0∞ 4o050πsÑe)01>†=!¨0265∞em08
   % outer lgg`ä      (  vuztex§.2í 79≤e03Å1089s)ße0034q.891<86m+00?
       " 6uRte8 1/62∏7)0e+003 1,078∑1wm+047"1.83ì9∞%™801
 0 ! `%† v%rtmx 5.308?y2Â)08≥ 1ép7858Â+00s 1&820%!t´801E
    0 e~$loop  2e.dÊ`cet	" 0Fac%t nkzialhë.000e+02p"1.xî8814%)4s. e1/0r6521El†!8œ: †    oEter nomp
† † $ $  vertdx$1.287=2e)00"p9/078<84e+083 1>883637Â+ 03å
 †  `! 0 vurpEx05<228792e+ 0701&4832sm*803 !.<8269∞g+0 3
   !  ∏$aS|dh2).≤"8792%+00 1/0∏9317e+08 1¨(<048µE+443M 0  0 %ndlogpM
 ° dnmfacet  hfageU nÔrma,!1.8∞ ∞ 8a#000 1$0< º34m-116 -1>0251!w-P!8
     (mu|er kOp
 " $   †&fa2td8 9.22(3y≤e+003 µ.4∫93≥'Á+003 0>8:5t85Â+∞03
  `(p  ` ˆertmx1.22869:e*13`±>0∑333e+08"!5/0∞2380m+68≤!    ( ( rarµex .638792a'1!3!1.08103M.2 q.881976w+002]
(! &` $nllona! 0andg%"at
   vacet†nmÚmal#.000000e+p00†1&050(14e,11 $-1.1r6531e-018
  0!! o˝t-r&Doop  !  0†  vazteXd1.0≤8796e+03c1,00131e
003$1>∏85485n+4 ;
   ($   Fd“4e˙1é2p>?pe30p3 1078183e+8p3!±/88!176e+003	
 "  "( (`veRtE¯01."28782e;†q3(1.67xs≤e+02# 99817 µe+103N !   †'nfmoop
   el$fecgtM
 3 race4 norlaL(1.00800 d+4 0 q™060	34g,0±6 ≠2.12∂}3!m,018* ` `"doıder nor
$` h `!  vÂrtex 5,2:|?96e+08+ 5/052q0sa+001 !.∞81952e+00≥   $  † vurtÌ8 1.:68µ:2e+0p3 1/09381e+01 1.88)V05e+813â
Ä !     (vmvve| 5.≤08712e;0∞: 1.0;417e+∞3 987390e+00$  ``efdmoop
0< enefa#ut‡ †facet j'2mam 1.000800ec04p 0>040¯35e=∞6 -1
026511e≠018
µ$ ` `outer(neg
  (   p ®re≤tex 1.229ø97e+005`1¶0π3=17· 23 1.87119∞e+00s" êp  ® †v%rtex$1.2;8796e+082 ∞.0=1831%+ 0001.8875E+003
 p0      veRtex 0.r2:32e	p0# 1.0y153∑e+047 µ.8:3405e+803-
  `   eNtlop/
 "†dndfagm4
,$ fasat formaÏ ∞-∞0 3Pe+40 q.1t083e-;1& -1.026530%-018ä   `  kuTer(|oœ9
      (§ Vevfex 9n288692e+209!1.09!Ù1?u+0p3 1.0u3;0}k003†  †0 $``~Erpa; .228w92m+003 q&"91U16d+005‡1.8<9485m+03
      ` `p5rt·x 1.228792e´p0r 2.09±172a00s *88321e´003     4endl&op0  edTfacıtö   dac}t"noÚmad$6*2;1981m-0q†);.=z3100m) 11h-=.886914Âm056
 * 0 outer logpJ c   †   vez‰e˘ 1.20∏71zek$p1 1.058584t#043 1.:(3772d+4∞3  (  ∞  wurtex 1>"23?z2e+007 ±>∞'1∂Q7a+023°.º8;34e+40#,
0 0  a¢  vert`x 1.3≤:69≤E+p# 1Ø6?8±7e´0∏3°1/8(33yPi+`03 §   0m~dlwopŒ0  undbas5t
   f`ce¸ norMaÓ0¶n±16945a,117 )9n92120e-001 5.027914e/12 !    ouTlr ,oo
` @,    (restex01/28?=:%+∞07!±.078207e+807`1.x8;q0e+02;   0     vmrt'8(1n23w;re+003(ë.07417g+003 q.<87390e;043
$   a 0vErgx 3.20≥7πe+x0∑1.47∏y4e+080π0:380(e083 @†   (MfdlooqK  †e.dfacet
   f·Cet ÓozÕa,0.12761g%017$]9é9"007mØ001 1.141383g-029
$ †  †oıdEr ¸oopM*         we2tAx 0.2279&Â03 1;47x61?e*0p3 .807#9e´2∞3(   (    vebtax0q2#;79re+0 1 1.18784Â:1p3 1.<8:20(u/00s=
  02 † 5 weste|∞1.2<792e+003 &87858e+02≥ !l8(#∞qxe+203
( !)  endhoop   enddaket†  dccu oo2mal!5&9"?4E,017 -π.7; 601e-≤00!.'304518e)$01
  00!$œudes†lOo|B     (   ve8tEx 1N22:792e+0¥;0.0'∏5†4g+04s5¨89700e+∞0K∏`   `( (v•rtey !.2"37ªe+p(3 1.∞w81<4e+003!5.∏830∞8c/001
  ( !  `tmrtDy q,023592Ì+(°? π.0388e+013 1.83633d)813
  b   elddO-∞
 † endfacmt
  |·cdT Ókbmel u.795223Â-007(m9*79706a801 88663e-00qM
   !  oudmr!loop     †0 $vErtex 1.3879"E+02`&'8p88e08c 1.08301(e#803â
   "$"  !vepte¯"/:2;7=2m+00!s.:7884e+≤07 1.89227e+00;-J ` £  #( rÌ6tep 1.r2®583e/423°1.0g848ue+003 1,88243øg+04:
  0b !eo‡lgÎt,
$ $gfdgicmv
"  &acmt nozmƒl 5/4'x600e- 17 -9/18"26e-001 3™860195m-09M   $  o}dgr`moÔq
   @ 0(  ~e2pdx 1.62879re+003,14'(∂85e*<$301n88r≤s7mÎ01ë
 !  †    v%rtuzl1
22359:e+00w00.07∏4∏3E*07 !<8∏2∑37e/003Ç        0tÂRÙext3.r≤w2e+s(2.∞7:326e{:03 1
8:290e#003
 "!  endlo?p
`  mn$facDt
   f`cau novml s&29005e-0p7 ,8.9360:1e-22± n4∏8µ80a-001'$    !outgÚpdooPB    ("`† feb6mxb±.2287;2ep0; 1/06x<84e)v43 q.8826#7e+003
  !`  $0 vestdh ".22#590d+003 0.∞78;2≥Ek003 +.8p"294e+03	
 °   †  "veb4G| 1&607y≤%/04# 9.058323e+003`5h(:290f.043
 p 1` qL$loopMä` †endfa'et   facet norm·h <869q8e-217 ,8.342<0e-009$5.494540m-043	* "`Ä  ouveS l/op
$"       7ıbtl|†9.24:9 e#003†1/878#3m+08 3.82291e´003N    0(!  eztgx"1*2317y2%*0îr†Y.0733E+07 1.∏82&90e´ ∞;$0(   " vertAË ±*2237=2m+03@1.078103g	0∞3$1*∏x1176e+p0
0  †$`gldlo@
 ! ejdÊacetà   f·cEÙ nopmal$\/4r32;uÂ%017†9.±289-0p1h5.6219e=001 4  " o=tev nNop
2 †   †! 6ertE¸ Ø10ú#2e+103 1178323d+003†1Æ<0229∞U+407ä`†     &*veWÙ% 1*2≥792e?08 #.078523ek0r3 2.(818S4e/003M
   "!0  ¿vertex(.2µ92e+∞ 3 q&068qp≥e+443 18ºq976e+ 07
   $ 1edmÍnpõ  $eoff!·ed
 ( Fk√e5pnozmal 4.09947#e-x37!≠#.≤74388%ep01 6.861938e-001
      outer loop
         vertex 1.228792e+003 1.078103e+003 1.881976e+003
         vertex 1.223792e+003 1.078103e+003 1.881976e+003
         vertex 1.223792e+003 1.077832e+003 1.881705e+003
      endloop
   endfacet
   facet normal 3.815390e-017 -6.861938e-001 7.274188e-001
      outer loop
         vertex 1.228792e+003 1.078103e+003 1.881976e+003
         vertex 1.223792e+003 1.077832e+003 1.881705e+003
         vertex 1.228792e+003 1.077832e+003 1.881705e+003
      endloop
   endfacet
   facet normal 3.211463e-017 -5.972114e-001 8.020839e-001
      outer loop
         vertex 1.228792e+003 1.077832e+003 1.881705e+003
         vertex 1.223792e+003 1.077832e+003 1.881705e+003
         vertex 1.223792e+003 1.077517e+003 1.881485e+003
      endloop
   endfacet
   facet normal 2.891617e-017 -5.494540e-001 8.355240e-001
      outer loop
         vertex 1.228792e+003 1.077832e+003 1.881705e+003
         vertex 1.223792e+003 1.077517e+003 1.881485e+003
         vertex 1.228792e+003 1.077517e+003 1.881485e+003
      endloop
   endfacet
   facet normal 2.225877e-017 -4.488580e-001 8.936031e-001
      outer loop
         vertex 1.228792e+003 1.077517e+003 1.881485e+003
         vertex 1.223792e+003 1.077517e+003 1.881485e+003
         vertex 1.223792e+003 1.077170e+003 1.881323e+003
      endloop
   endfacet
   facet normal 1.879983e-017 -3.960194e-001 9.182422e-001
      outer loop
         vertex 1.228792e+003 1.077517e+003 1.881485e+003
         vertex 1.223792e+003 1.077170e+003 1.881323e+003
         vertex 1.228792e+003 1.077170e+003 1.881323e+003
      endloop
   endfacet
   facet normal 1.172658e-017 -2.868663e-001 9.579706e-001
      outer loop
         vertex 1.228792e+003 1.077170e+003 1.881323e+003
         vertex 1.223792e+003 1.077170e+003 1.881323e+003
         vertex 1.223792e+003 1.076799e+003 1.881223e+003
      endloop
   endfacet
   facet normal 8.112267e-018 -2.305518e-001 9.730601e-001
      outer loop
         vertex 1.228792e+003 1.077170e+003 1.881323e+003
         vertex 1.223792e+003 1.076799e+003 1.881223e+003
         vertex 1.228792e+003 1.076799e+003 1.881223e+003
      endloop
   endfacet
   facet normal 8.380871e-019 -1.161583e-001 9.932307e-001
      outer loop
         vertex 1.228792e+003 1.076799e+003 1.881223e+003
         vertex 1.223792e+003 1.076799e+003 1.881223e+003
         vertex 1.223792e+003 1.076417e+003 1.881190e+003
      endloop
   endfacet
   facet normal -2.821781e-018 -5.807914e-002 9.983120e-001
      outer loop
         vertex 1.228792e+003 1.076799e+003 1.881223e+003
         vertex 1.223792e+003 1.076417e+003 1.881190e+003
         vertex 1.228792e+003 1.076417e+003 1.881190e+003
      endloop
   endfacet
   facet normal -1.007587e-017 5.807914e-002 9.983120e-001
      outer loop
         vertex 1.228792e+003 1.076417e+003 1.881190e+003
         vertex 1.223792e+003 1.076417e+003 1.881190e+003
         vertex 1.223792e+003 1.076035e+003 1.881223e+003
      endloop
   endfacet
   facet normal -1.367009e-017 1.161583e-001 9.932307e-001
      outer loop
         vertex 1.228792e+003 1.076417e+003 1.881190e+003
         vertex 1.223792e+003 1.076035e+003 1.881223e+003
         vertex 1.228792e+003 1.076035e+003 1.881223e+003
      endloop
   endfacet
   facet normal -2.068368e-017 2.305518e-001 9.730601e-001
      outer loop
         vertex 1.228792e+003 1.076035e+003 1.881223e+003
         vertex 1.223792e+003 1.076035e+003 1.881223e+003
         vertex 1.223792e+003 1.075665e+003 1.881323e+003
      endloop
   endfacet
   facet normal -2.410304e-017 2.868663e-001 9.579706e-001
      outer loop
         vertex 1.228792e+003 1.076035e+003 1.881223e+003
         vertex 1.223792e+003 1.075665e+003 1.881323e+003
         vertex 1.228792e+003 1.075665e+003 1.881323e+003
      endloop
   endfacet
   facet normal -3.066302e-017 3.960194e-001 9.182422e-001
      outer loop
         vertex 1.228792e+003 1.075665e+003 1.881323e+003
         vertex 1.223792e+003 1.075665e+003 1.881323e+003
         vertex 1.223792e+003 1.075317e+003 1.881485e+003
      endloop
   endfacet
   facet normal -3.380364e-017 4.488580e-001 8.936031e-001
      outer loop
         vertex 1.228792e+003 1.075665e+003 1.881323e+003
         vertex 1.223792e+003 1.075317e+003 1.881485e+003
         vertex 1.228792e+003 1.075317e+003 1.881485e+003
      endloop
   endfacet
   facet normal -3.971068e-017 5.494540e-001 8.355240e-001
      outer loop
         vertex 1.228792e+003 1.075317e+003 1.881485e+003
         vertex 1.223792e+003 1.075317e+003 1.881485e+003
         vertex 1.223792e+003 1.075003e+003 1.881705e+003
      endloop
   endfacet
   facet normal -4.247712e-017 5.972114e-001 8.020839e-001
      outer loop
         vertex 1.228792e+003 1.075317e+003 1.881485e+003
         vertex 1.223792e+003 1.075003e+003 1.881705e+003
         vertex 1.228792e+003 1.075003e+003 1.881705e+003
      endloop
   endfacet
   facet normal -4.755176e-017 6.861938e-001 7.274188e-001
      outer loop
         vertex 1.228792e+003 1.075003e+003 1.881705e+003
         vertex 1.223792e+003 1.075003e+003 1.881705e+003
         vertex 1.223792e+003 1.074732e+003 1.881976e+003
      endloop
   endfacet
   facet normal -4.985996e-017 7.274188e-001 6.861938e-001
      outer loop
         vertex 1.228792e+003 1.075003e+003 1.881705e+003
         vertex 1.223792e+003 1.074732e+003 1.881976e+003
         vertex 1.228792e+003 1.074732e+003 1.881976e+003
      endloop
   endfacet
   facet normal -5.394800e-017 8.020839e-001 5.972114e-001
      outer loop
         vertex 1.228792e+003 1.074732e+003 1.881976e+003
         vertex 1.223792e+003 1.074732e+003 1.881976e+003
         vertex 1.223792e+003 1.074512e+003 1.882290e+003
      endloop
   endfacet
   facet normal -5.572783e-017 8.355240e-001 5.494540e-001
      outer loop
         vertex 1.228792e+003 1.074732e+003 1.881976e+003
         vertex 1.223792e+003 1.074512e+003 1.882290e+003
         vertex 1.228792e+003 1.074512e+003 1.882290e+003
      endloop
   endfacet
   facet normal -5.870505e-017 8.936031e-001 4.488580e-001
      outer loop
         vertex 1.228792e+003 1.074512e+003 1.882290e+003
         vertex 1.223792e+003 1.074512e+003 1.882290e+003
         vertex 1.223792e+003 1.074350e+003 1.882637e+003
      endloop
   endfacet
   facet normal -5.990244e-017 9.182422e-001 3.960194e-001
      outer loop
         vertex 1.228792e+003 1.074512e+003 1.882290e+003
         vertex 1.223792e+003 1.074350e+003 1.882637e+003
         vertex 1.228792e+003 1.074350e+003 1.882637e+003
      endloop
   endfacet
   facet normal -6.167839e-017 9.579706e-001 2.868663e-001
      outer loop
         vertex 1.228792e+003 1.074350e+003 1.882637e+003
         vertex 1.223792e+003 1.074350e+003 1.882637e+003
         vertex 1.223792e+003 1.074251e+003 1.883008e+003
      endloop
   endfacet
   facet normal -6.225695e-017 9.730601e-001 2.305518e-001
      outer loop
         vertex 1.228792e+003 1.074350e+003 1.882637e+003
         vertex 1.223792e+003 1.074251e+003 1.883008e+003
         vertex 1.228792e+003 1.074251e+003 1.883008e+003
      endloop
   endfacet
   facet normal -6.277765e-017 9.932307e-001 1.161583e-001
      outer loop
         vertex 1.228792e+003 1.074251e+003 1.883008e+003
         vertex 1.223792e+003 1.074251e+003 1.883008e+003
         vertex 1.223792e+003 1.074217e+003 1.883390e+003
      endloop
   endfacet
   facet normal -6.271981e-017 9.983120e-001 5.807914e-002
      outer loop
         vertex 1.228792e+003 1.074251e+003 1.883008e+003
         vertex 1.223792e+003 1.074217e+003 1.883390e+003
         vertex 1.228792e+003 1.074217e+003 1.883390e+003
      endloop
   endfacet
   facet normal -6.196945e-017 9.983120e-001 -5.807914e-002
      outer loop
         vertex 1.228792e+003 1.074217e+003 1.883390e+003
         vertex 1.223792e+003 1.074217e+003 1.883390e+003
         vertex 1.223792e+003 1.074251e+003 1.883772e+003
      endloop
   endfacet
   facet normal -6.127695e-017 9.932307e-001 -1.161583e-001
      outer loop
         vertex 1.228792e+003 1.074217e+003 1.883390e+003
         vertex 1.223792e+003 1.074251e+003 1.883772e+003
         vertex 1.228792e+003 1.074251e+003 1.883772e+003
      endloop
   endfacet
   facet normal -5.927834e-017 9.730601e-001 -2.305518e-001
      outer loop
         vertex 1.228792e+003 1.074251e+003 1.883772e+003
         vertex 1.223792e+003 1.074251e+003 1.883772e+003
         vertex 1.223792e+003 1.074350e+003 1.884142e+003
      endloop
   endfacet
   facet normal -5.797223e-017 9.579706e-001 -2.868663e-001
      outer loop
         vertex 1.228792e+003 1.074251e+003 1.883772e+003
         vertex 1.223792e+003 1.074350e+003 1.884142e+003
         vertex 1.228792e+003 1.074350e+003 1.884142e+003
      endloop
   endfacet
   facet normal -5.478608e-017 9.182422e-001 -3.960194e-001
      outer loop
         vertex 1.228792e+003 1.074350e+003 1.884142e+003
         vertex 1.223792e+003 1.074350e+003 1.884142e+003
         vertex 1.223792e+003 1.074512e+003 1.884490e+003
      endloop
   endfacet
   facet normal -5.290605e-017 8.936031e-001 -4.488580e-001
      outer loop
         vertex 1.228792e+003 1.074350e+003 1.884142e+003
         vertex 1.223792e+003 1.074512e+003 1.884490e+003
         vertex 1.228792e+003 1.074512e+003 1.884490e+003
      endloop
   endfacet
   facet normal -4.862919e-017 8.355240e-001 -5.494540e-001
      outer loop
         vertex 1.228792e+003 1.074512e+003 1.884490e+003
         vertex 1.223792e+003 1.074512e+003 1.884490e+003
         vertex 1.223792e+003 1.074732e+003 1.884804e+003
      endloop
   endfacet
   facet normal -4.623235e-017 8.020839e-001 -5.972114e-001
      outer loop
         vertex 1.228792e+003 1.074512e+003 1.884490e+003
         vertex 1.223792e+003 1.074732e+003 1.884804e+003
         vertex 1.228792e+003 1.074732e+003 1.884804e+003
      endloop
   endfacet
   facet normal -4.099471e-017 7.274188e-001 -6.861938e-001
      outer loop
         vertex 1.228792e+003 1.074732e+003 1.884804e+003
         vertex 1.223792e+003 1.074732e+003 1.884804e+003
         vertex 1.223792e+003 1.075003e+003 1.885075e+003
      endloop
   endfacet
   facet normal -3.815390e-017 6.861938e-001 -7.274188e-001
      outer loop
         vertex 1.228792e+003 1.074732e+003 1.884804e+003
         vertex 1.223792e+003 1.075003e+003 1.885075e+003
         vertex 1.228792e+003 1.075003e+003 1.885075e+003
      endloop
   endfacet
   facet normal -3.211463e-017 5.972114e-001 -8.020839e-001
      outer loop
         vertex 1.228792e+003 1.075003e+003 1.885075e+003
         vertex 1.223792e+003 1.075003e+003 1.885075e+003
         vertex 1.223792e+003 1.075317e+003 1.885295e+003
      endloop
   endfacet
   facet normal -2.891617e-017 5.494540e-001 -8.355240e-001
      outer loop
         vertex 1.228792e+003 1.075003e+003 1.885075e+003
         vertex 1.223792e+003 1.075317e+003 1.885295e+003
         vertex 1.228792e+003 1.075317e+003 1.885295e+003
      endloop
   endfacet
   facet normal -2.225877e-017 4.488580e-001 -8.936031e-001
      outer loop
         vertex 1.228792e+003 1.075317e+003 1.885295e+003
         vertex 1.223792e+003 1.075317e+003 1.885295e+003
         vertex 1.223792e+003 1.075665e+003 1.885457e+003
      endloop
   endfacet
   facet normal -1.879983e-017 3.960194e-001 -9.182422e-001
      outer loop
         vertex 1.228792e+003 1.075317e+003 1.885295e+003
         vertex 1.223792e+003 1.075665e+003 1.885457e+003
         vertex 1.228792e+003 1.075665e+003 1.885457e+003
      endloop
   endfacet
   facet normal -1.172658e-017 2.868663e-001 -9.579706e-001
      outer loop
         vertex 1.228792e+003 1.075665e+003 1.885457e+003
         vertex 1.223792e+003 1.075665e+003 1.885457e+003
         vertex 1.223792e+003 1.076035e+003 1.885557e+003
      endloop
   endfacet
   facet normal -8.112267e-018 2.305518e-001 -9.730601e-001
      outer loop
         vertex 1.228792e+003 1.075665e+003 1.885457e+003
         vertex 1.223792e+003 1.076035e+003 1.885557e+003
         vertex 1.228792e+003 1.076035e+003 1.885557e+003
      endloop
   endfacet
   facet normal -8.380871e-019 1.161583e-001 -9.932307e-001
      outer loop
         vertex 1.228792e+003 1.076035e+003 1.885557e+003
         vertex 1.223792e+003 1.076035e+003 1.885557e+003
         vertex 1.223792e+003 1.076417e+003 1.885590e+003
      endloop
   endfacet
   facet normal 2.821781e-018 5.807914e-002 -9.983120e-001
      outer loop
         vertex 1.228792e+003 1.076035e+003 1.885557e+003
         vertex 1.223792e+003 1.076417e+003 1.885590e+003
         vertex 1.228792e+003 1.076417e+003 1.885590e+003
      endloop
   endfacet
   facet normal 1.007587e-017 -5.807914e-002 -9.983120e-001
      outer loop
         vertex 1.228792e+003 1.076417e+003 1.885590e+003
         vertex 1.223792e+003 1.076417e+003 1.885590e+003
         vertex 1.223792e+003 1.076799e+003 1.885557e+003
      endloop
   endfacet
   facet normal 1.367009e-017 -1.161583e-001 -9.932307e-001
      outer loop
         vertex 1.228792e+003 1.076417e+003 1.885590e+003
         vertex 1.223792e+003 1.076799e+003 1.885557e+003
         vertex 1.228792e+003 1.076799e+003 1.885557e+003
      endloop
   endfacet
   facet normal 2.068368e-017 -2.305518e-001 -9.730601e-001
      outer loop
         vertex 1.228792e+003 1.076799e+003 1.885557e+003
         vertex 1.223792e+003 1.076799e+003 1.885557e+003
         vertex 1.223792e+003 1.077170e+003 1.885457e+003
      endloop
   endfacet
   facet normal 2.410304e-017 -2.868663e-001 -9.579706e-001
      outer loop
         vertex 1.228792e+003 1.076799e+003 1.885557e+003
         vertex 1.223792e+003 1.077170e+003 1.885457e+003
         vertex 1.228792e+003 1.077170e+003 1.885457e+003
      endloop
   endfacet
   facet normal 3.066302e-017 -3.960194e-001 -9.182422e-001
      outer loop
         vertex 1.228792e+003 1.077170e+003 1.885457e+003
         vertex 1.223792e+003 1.077170e+003 1.885457e+003
         vertex 1.223792e+003 1.077517e+003 1.885295e+003
      endloop
   endfacet
   facet normal 3.380364e-017 -4.488580e-001 -8.936031e-001
      outer loop
         vertex 1.228792e+003 1.077170e+003 1.885457e+003
         vertex 1.223792e+003 1.077517e+003 1.885295e+003
         vertex 1.228792e+003 1.077517e+003 1.885295e+003
      endloop
   endfacet
   facet normal 3.971068e-017 -5.494540e-001 -8.355240e-001
      outer loop
         vertex 1.228792e+003 1.077517e+003 1.885295e+003
         vertex 1.223792e+003 1.077517e+003 1.885295e+003
         vertex 1.223792e+003 1.077832e+003 1.885075e+003
      endloop
   endfacet
   facet normal 4.247712e-017 -5.972114e-001 -8.020839e-001
      outer loop
         vertex 1.228792e+003 1.077517e+003 1.885295e+003
         vertex 1.223792e+003 1.077832e+003 1.885075e+003
         vertex 1.228792e+003 1.077832e+003 1.885075e+003
      endloop
   endfacet
   facet normal 4.755176e-017 -6.861938e-001 -7.274188e-001
      outer loop
         vertex 1.228792e+003 1.077832e+003 1.885075e+003
         vertex 1.223792e+003 1.077832e+003 1.885075e+003
         vertex 1.223792e+003 1.078103e+003 1.884804e+003
      endloop
   endfacet
   facet normal 4.985996e-017 -7.274188e-001 -6.861938e-001
      outer loop
         vertex 1.228792e+003 1.077832e+003 1.885075e+003
         vertex 1.223792e+003 1.078103e+003 1.884804e+003
         vertex 1.228792e+003 1.078103e+003 1.884804e+003
      endloop
   endfacet
   facet normal 5.394800e-017 -8.020839e-001 -5.972114e-001
      outer loop
         vertex 1.228792e+003 1.078103e+003 1.884804e+003
         vertex 1.223792e+003 1.078103e+003 1.884804e+003
         vertex 1.223792e+003 1.078323e+003 1.884490e+003
      endloop
   endfacet
   facet normal 5.572783e-017 -8.355240e-001 -5.494540e-001
      outer loop
         vertex 1.228792e+003 1.078103e+003 1.884804e+003
         vertex 1.223792e+003 1.078323e+003 1.884490e+003
         vertex 1.228792e+003 1.078323e+003 1.884490e+003
      endloop
   endfacet
   facet normal 5.870505e-017 -8.936031e-001 -4.488580e-001
      outer loop
         vertex 1.228792e+003 1.078323e+003 1.884490e+003
         vertex 1.223792e+003 1.078323e+003 1.884490e+003
         vertex 1.223792e+003 1.078485e+003 1.884142e+003
      endloop
   endfacet
   facet normal 5.990244e-017 -9.182422e-001 -3.960194e-001
      outer loop
         vertex 1.228792e+003 1.078323e+003 1.884490e+003
         vertex 1.223792e+003 1.078485e+003 1.884142e+003
         vertex 1.228792e+003 1.078485e+003 1.884142e+003
      endloop
   endfacet
   facet normal 6.167839e-017 -9.579706e-001 -2.868663e-001
      outer loop
         vertex 1.228792e+003 1.078485e+003 1.884142e+003
         vertex 1.223792e+003 1.078485e+003 1.884142e+003
         vertex 1.223792e+003 1.078584e+003 1.883772e+003
      endloop
   endfacet
   facet normal 6.225695e-017 -9.730601e-001 -2.305518e-001
      outer loop
         vertex 1.228792e+003 1.078485e+003 1.884142e+003
         vertex 1.223792e+003 1.078584e+003 1.883772e+003
         vertex 1.228792e+003 1.078584e+003 1.883772e+003
      endloop
   endfacet
   facet normal 6.277765e-017 -9.932307e-001 -1.161583e-001
      outer loop
         vertex 1.228792e+003 1.078584e+003 1.883772e+003
         vertex 1.223792e+003 1.078584e+003 1.883772e+003
         vertex 1.223792e+003 1.078617e+003 1.883390e+003
      endloop
   endfacet
   facet normal 6.271981e-017 -9.983120e-001 -5.807914e-002
      outer loop
         vertex 1.228792e+003 1.092584e+003 1.883772e+003
         vertex 1.223792e+003 1.092617e+003 1.883390e+003
         vertex 1.228792e+003 1.092617e+003 1.883390e+003
      endloop
   endfacet
   facet normal 6.196945e-017 -9.983120e-001 5.807914e-002
      outer loop
         vertex 1.228792e+003 1.092617e+003 1.883390e+003
         vertex 1.223792e+003 1.092617e+003 1.883390e+003
         vertex 1.223792e+003 1.092584e+003 1.883008e+003
      endloop
   endfacet
   facet normal 6.127695e-017 -9.932307e-001 1.161583e-001
      outer loop
         vertex 1.228792e+003 1.092617e+003 1.883390e+003
         vertex 1.223792e+003 1.092584e+003 1.883008e+003
         vertex 1.228792e+003 1.092584e+003 1.883008e+003
      endloop
   endfacet
   facet normal 5.927834e-017 -9.730601e-001 2.305518e-001
      outer loop
         vertex 1.228792e+003 1.092584e+003 1.883008e+003
         vertex 1.223792e+003 1.092584e+003 1.883008e+003
         vertex 1.223792e+003 1.092485e+003 1.882637e+003
      endloop
   endfacet
   facet normal 5.797223e-017 -9.579706e-001 2.868663e-001
      outer loop
         vertex 1.228792e+003 1.092584e+003 1.883008e+003
         vertex 1.223792e+003 1.092485e+003 1.882637e+003
         vertex 1.228792e+003 1.092485e+003 1.882637e+003
      endloop
   endfacet
   facet normal 5.478608e-017 -9.182422e-001 3.960194e-001
      outer loop
         vertex 1.228792e+003 1.092485e+003 1.882637e+003
         vertex 1.223792e+003 1.092485e+003 1.882637e+003
         vertex 1.223792e+003 1.092323e+003 1.882290e+003
      endloop
   endfacet
   facet normal 5.290605e-017 -8.936031e-001 4.488580e-001
      outer loop
         vertex 1.228792e+003 1.092485e+003 1.882637e+003
         vertex 1.223792e+003 1.092323e+003 1.882290e+003
         vertex 1.228792e+003 1.092323e+003 1.882290e+003
      endloop
   endfacet
   facet normal 4.862919e-017 -8.355240e-001 5.494540e-001
      outer loop
         vertex 1.228792e+003 1.092323e+003 1.882290e+003
         vertex 1.223792e+003 1.092323e+003 1.882290e+003
         vertex 1.223792e+003 1.092103e+003 1.881976e+003
      endloop
   endfacet
   facet normal 4.623235e-017 -8.020839e-001 5.972114e-001
      outer loop
         vertex 1.228792e+003 1.092323e+003 1.882290e+003
         vertex 1.223792e+003 1.092103e+003 1.881976e+003
         vertex 1.228792e+003 1.092103e+003 1.881976e+003
      endloop
   endfacet
   facet normal 4.099471e-017 -7.274188e-001 6.861938e-001
      outer loop
         vertex 1.228792e+003 1.092103e+003 1.881976e+003
         vertex 1.223792e+003 1.092103e+003 1.881976e+003
         vertex 1.223792e+003 1.091831e+003 1.881705e+003
      endloop
   endfacet
   facet normal 3.815390e-017 -6.861938e-001 7.274188e-001
      outer loop
         vertex 1.228792e+003 1.092103e+003 1.881976e+003
         vertex 1.223792e+003 1.091831e+003 1.881705e+003
         vertex 1.228792e+003 1.091831e+003 1.881705e+003
      endloop
   endfacet
   facet normal 3.211463e-017 -5.972114e-001 8.020839e-001
      outer loop
         vertex 1.228792e+003 1.091831e+003 1.881705e+003
         vertex 1.223792e+003 1.091831e+003 1.881705e+003
         vertex 1.223792e+003 1.091517e+003 1.881485e+003
      endloop
   endfacet
   facet normal 2.891617e-017 -5.494540e-001 8.355240e-001
      outer loop
         vertex 1.228792e+003 1.091831e+003 1.881705e+003
         vertex 1.223792e+003 1.091517e+003 1.881485e+003
         vertex 1.228792e+003 1.091517e+003 1.881485e+003
      endloop
   endfacet
   facet normal 2.225877e-017 -4.488580e-001 8.936031e-001
      outer loop
         vertex 1.228792e+003 1.091517e+003 1.881485e+003
         vertex 1.223792e+003 1.091517e+003 1.881485e+003
         vertex 1.223792e+003 1.091170e+003 1.881323e+003
      endloop
   endfacet
   facet normal 1.879983e-017 -3.960194e-001 9.182422e-001
      outer loop
         vertex 1.228792e+003 1.091517e+003 1.881485e+003
         vertex 1.223792e+003 1.091170e+003 1.881323e+003
         vertex 1.228792e+003 1.091170e+003 1.881323e+003
      endloop
   endfacet
   facet normal 1.172658e-017 -2.868663e-001 9.579706e-001
      outer loop
         vertex 1.228792e+003 1.091170e+003 1.881323e+003
         vertex 1.223792e+003 1.091170e+003 1.881323e+003
         vertex 1.223792e+003 1.090799e+003 1.881223e+003
      endloop
   endfacet
   facet normal 8.112267e-018 -2.305518e-001 9.730601e-001
      outer loop
         vertex 1.228792e+003 1.091170e+003 1.881323e+003
         vertex 1.223792e+003 1.090799e+003 1.881223e+003
         vertex 1.228792e+003 1.090799e+003 1.881223e+003
      endloop
   endfacet
   facet normal 8.380871e-019 -1.161583e-001 9.932307e-001
      outer loop
         vertex 1.228792e+003 1.090799e+003 1.881223e+003
         vertex 1.223792e+003 1.090799e+003 1.881223e+003
         vertex 1.223792e+003 1.090417e+003 1.881190e+003
      endloop
   endfacet
   facet normal -2.821781e-018 -5.807914e-002 9.983120e-001
      outer loop
         vertex 1.228792e+003 1.090799e+003 1.881223e+003
         vertex 1.223792e+003 1.090417e+003 1.881190e+003
         vertex 1.228792e+003 1.090417e+003 1.881190e+003
      endloop
   endfacet
   facet normal -1.007587e-017 5.807914e-002 9.983120e-001
      outer loop
         vertex 1.228792e+003 1.090417e+003 1.881190e+003
         vertex 1.223792e+003 1.090417e+003 1.881190e+003
         vertex 1.223792e+003 1.090035e+003 1.881223e+003
      endloop
   endfacet
   facet normal -1.367009e-017 1.161583e-001 9.932307e-001
      outer loop
         vertex 1.228792e+003 1.090417e+003 1.881190e+003
         vertex 1.223792e+003 1.090035e+003 1.881223e+003
         vertex 1.228792e+003 1.090035e+003 1.881223e+003
      endloop
   endfacet
   facet normal -2.068368e-017 2.305518e-001 9.730601e-001
      outer loop
         vertex 1.228792e+003 1.090035e+003 1.881223e+003
         vertex 1.223792e+003 1.090035e+003 1.881223e+003
         vertex 1.223792e+003 1.089665e+003 1.881323e+003
      endloop
   endfacet
   facet normal -2.410304e-017 2.868663e-001 9.579706e-001
      outer loop
         vertex 1.228792e+003 1.090035e+003 1.881223e+003
         vertex 1.223792e+003 1.089665e+003 1.881323e+003
         vertex 1.228792e+003 1.089665e+003 1.881323e+003
      endloop
   endfacet
   facet normal -3.066302e-017 3.960194e-001 9.182422e-001
      outer loop
         vertex 1.228792e+003 1.089665e+003 1.881323e+003
         vertex 1.223792e+003 1.089665e+003 1.881323e+003
         vertex 1.223792e+003 1.089317e+003 1.881485e+003
      endloop
   endfacet
   facet normal -3.380364e-017 4.488580e-001 8.936031e-001
      outer loop
         vertex 1.228792e+003 1.089665e+003 1.881323e+003
         vertex 1.223792e+003 1.089317e+003 1.881485e+003
         vertex 1.228792e+003 1.089317e+003 1.881485e+003
      endloop
   endfacet
   facet normal -3.971068e-017 5.494540e-001 8.355240e-001
      outer loop
         vertex 1.228792e+003 1.089317e+003 1.881485e+003
         vertex 1.223792e+003 1.089317e+003 1.881485e+003
         vertex 1.223792e+003 1.089003e+003 1.881705e+003
      endloop
   endfacet
   facet normal -4.247712e-017 5.972114e-001 8.020839e-001
      outer loop
         vertex 1.228792e+003 1.089317e+003 1.881485e+003
         vertex 1.223792e+003 1.089003e+003 1.881705e+003
         vertex 1.228792e+003 1.089003e+003 1.881705e+003
      endloop
   endfacet
   facet normal -4.755176e-017 6.861938e-001 7.274188e-001
      outer loop
         vertex 1.228792e+003 1.089003e+003 1.881705e+003
         vertex 1.223792e+003 1.089003e+003 1.881705e+003
         vertex 1.223792e+003 1.088732e+003 1.881976e+003
      endloop
   endfacet
   facet normal -4.985996e-017 7.274188e-001 6.861938e-001
      outer loop
         vertex 1.228792e+003 1.089003e+003 1.881705e+003
         vertex 1.223792e+003 1.088732e+003 1.881976e+003
         vertex 1.228792e+003 1.088732e+003 1.881976e+003
      endloop
   endfacet
   facet normal -5.394800e-017 8.020839e-001 5.972114e-001
      outer loop
         vertex 1.228792e+003 1.088732e+003 1.881976e+003
         vertex 1.223792e+003 1.088732e+003 1.881976e+003
         vertex 1.223792e+003 1.088512e+003 1.882290e+003
      endloop
   endfacet
   facet normal -5.572783e-017 8.355240e-001 5.494540e-001
      outer loop
         vertex 1.228792e+003 1.088732e+003 1.881976e+003
         vertex 1.223792e+003 1.088512e+003 1.882290e+003
         vertex 1.228792e+003 1.088512e+003 1.882290e+003
      endloop
   endfacet
   facet normal -5.870505e-017 8.936031e-001 4.488580e-001
      outer loop
         vertex 1.228792e+003 1.088512e+003 1.882290e+003
         vertex 1.223792e+003 1.088512e+003 1.882290e+003
         vertex 1.223792e+003 1.088350e+003 1.882637e+003
      endloop
   endfacet
   facet normal -5.990244e-017 9.182422e-001 3.960194e-001
      outer loop
         vertex 1.228792e+003 1.088512e+003 1.882290e+003
         vertex 1.223792e+003 1.088350e+003 1.882637e+003
         vertex 1.228792e+003 1.088350e+003 1.882637e+003
      endloop
   endfacet
   facet normal -6.167839e-017 9.579706e-001 2.868663e-001
      outer loop
         vertex 1.228792e+003 1.088350e+003 1.882637e+003
         vertex 1.223792e+003 1.088350e+003 1.882637e+003
         vertex 1.223792e+003 1.088251e+003 1.883008e+003
      endloop
   endfacet
   facet normal -6.225695e-017 9.730601e-001 2.305518e-001
      outer loop
         vertex 1.228792e+003 1.088350e+003 1.882637e+003
         vertex 1.223792e+003 1.088251e+003 1.883008e+003
         vertex 1.228792e+003 1.088251e+003 1.883008e+003
      endloop
   endfacet
   facet normal -6.277765e-017 9.932307e-001 1.161583e-001
      outer loop
         vertex 1.228792e+003 1.088251e+003 1.883008e+003
         vertex 1.223792e+003 1.088251e+003 1.883008e+003
         vertex 1.223792e+003 1.088217e+003 1.883390e+003
      endloop
   endfacet
   facet normal -6.271981e-017 9.983120e-001 5.807914e-002
      outer loop
         vertex 1.228792e+003 1.088251e+003 1.883008e+003
         vertex 1.223792e+003 1.088217e+003 1.883390e+003
         vertex 1.228792e+003 1.088217e+003 1.883390e+003
      endloop
   endfacet
   facet normal -6.196945e-017 9.983120e-001 -5.807914e-002
      outer loop
         vertex 1.228792e+003 1.088217e+003 1.883390e+003
         vertex 1.223792e+003 1.088217e+003 1.883390e+003
         vertex 1.223792e+003 1.088251e+003 1.883772e+003
      endloop
   endfacet
   facet normal -6.127695e-017 9.932307e-001 -1.161583e-001
      outer loop
         vertex 1.228792e+003 1.088217e+003 1.883390e+003
         vertex 1.223792e+003 1.088251e+003 1.883772e+003
         vertex 1.228792e+003 1.088251e+003 1.883772e+003
      endloop
   endfacet
   facet normal -5.927834e-017 9.730601e-001 -2.305518e-001
      outer loop
         vertex 1.228792e+003 1.088251e+003 1.883772e+003
         vertex 1.223792e+003 1.088251e+003 1.883772e+003
         vertex 1.223792e+003 1.088350e+003 1.884142e+003
      endloop
   endfacet
   facet normal -5.797223e-017 9.579706e-001 -2.868663e-001
      outer loop
         vertex 1.228792e+003 1.088251e+003 1.883772e+003
         vertex 1.223792e+003 1.088350e+003 1.884142e+003
         vertex 1.228792e+003 1.088350e+003 1.884142e+003
      endloop
   endfacet
   facet normal -5.478608e-017 9.182422e-001 -3.960194e-001
      outer loop
         vertex 1.228792e+003 1.088350e+003 1.884142e+003
         vertex 1.223792e+003 1.088350e+003 1.884142e+003
         vertex 1.223792e+003 1.088512e+003 1.884490e+003
      endloop
   endfacet
   facet normal -5.290605e-017 8.936031e-001 -4.488580e-001
      outer loop
         vertex 1.228792e+003 1.088350e+003 1.884142e+003
         vertex 1.223792e+003 1.088512e+003 1.884490e+003
         vertex 1.228792e+003 1.088512e+003 1.884490e+003
      endloop
   endfacet
   facet normal -4.862919e-017 8.355240e-001 -5.494540e-001
      outer loop
         vertex 1.228792e+003 1.088512e+003 1.884490e+003
         vertex 1.223792e+003 1.088512e+003 1.884490e+003
         vertex 1.223792e+003 1.088732e+003 1.884804e+003
      endloop
   endfacet
   facet normal -4.623235e-017 8.020839e-001 -5.972114e-001
      outer loop
         vertex 1.228792e+003 1.088512e+003 1.884490e+003
         vertex 1.223792e+003 1.088732e+003 1.884804e+003
         vertex 1.228792e+003 1.088732e+003 1.884804e+003
      endloop
   endfacet
   facet normal -4.099471e-017 7.274188e-001 -6.861938e-001
      outer loop
         vertex 1.228792e+003 1.088732e+003 1.884804e+003
         vertex 1.223792e+003 1.088732e+003 1.884804e+003
         vertex 1.223792e+003 1.089003e+003 1.885075e+003
      endloop
   endfacet
   facet normal -3.815390e-017 6.861938e-001 -7.274188e-001
      outer loop
         vertex 1.228792e+003 1.088732e+003 1.884804e+003
         vertex 1.223792e+003 1.089003e+003 1.885075e+003
         vertex 1.228792e+003 1.089003e+003 1.885075e+003
      endloop
   endfacet
   facet normal -3.211463e-017 5.972114e-001 -8.020839e-001
      outer loop
         vertex 1.228792e+003 1.089003e+003 1.885075e+003
         vertex 1.223792e+003 1.089003e+003 1.885075e+003
         vertex 1.223792e+003 1.089317e+003 1.885295e+003
      endloop
   endfacet
   facet normal -2.891617e-017 5.494540e-001 -8.355240e-001
      outer loop
         vertex 1.228792e+003 1.089003e+003 1.885075e+003
         vertex 1.223792e+003 1.089317e+003 1.885295e+003
         vertex 1.228792e+003 1.089317e+003 1.885295e+003
      endloop
   endfacet
   facet normal -2.225877e-017 4.488580e-001 -8.936031e-001
      outer loop
         vertex 1.228792e+003 1.089317e+003 1.885295e+003
         vertex 1.223792e+003 1.089317e+003 1.885295e+003
         vertex 1.223792e+003 1.089665e+003 1.885457e+003
      endloop
   endfacet
   facet normal -1.879983e-017 3.960194e-001 -9.182422e-001
      outer loop
         vertex 1.228792e+003 1.089317e+003 1.885295e+003
         vertex 1.223792e+003 1.089665e+003 1.885457e+003
         vertex 1.228792e+003 1.089665e+003 1.885457e+003
      endloop
   endfacet
   facet normal -1.172658e-017 2.868663e-001 -9.579706e-001
      outer loop
         vertex 1.228792e+003 1.089665e+003 1.885457e+003
         vertex 1.223792e+003 1.089665e+003 1.885457e+003
         vertex 1.223792e+003 1.090035e+003 1.885557e+003
      endloop
   endfacet
   facet normal -8.112267e-018 2.305518e-001 -9.730601e-001
      outer loop
         vertex 1.228792e+003 1.089665e+003 1.885457e+003
         vertex 1.223792e+003 1.090035e+003 1.885557e+003
         vertex 1.228792e+003 1.090035e+003 1.885557e+003
      endloop
   endfacet
   facet normal -8.380871e-019 1.161583e-001 -9.932307e-001
      outer loop
         vertex 1.228792e+003 1.090035e+003 1.885557e+003
         vertex 1.223792e+003 1.090035e+003 1.885557e+003
         vertex 1.223792e+003 1.090417e+003 1.885590e+003
      endloop
   endfacet
   facet normal 2.821781e-018 5.807914e-002 -9.983120e-001
      outer loop
         vertex 1.228792e+003 1.090035e+003 1.885557e+003
         vertex 1.223792e+003 1.090417e+003 1.885590e+003
         vertex 1.228792e+003 1.090417e+003 1.885590e+003
      endloop
   endfacet
   facet normal 1.007587e-017 -5.807914e-002 -9.983120e-001
      outer loop
         vertex 1.228792e+003 1.090417e+003 1.885590e+003
         vertex 1.223792e+003 1.090417e+003 1.885590e+003
         vertex 1.223792e+003 1.090799e+003 1.885557e+003
      endloop
   endfacet
   facet normal 1.367009e-017 -1.161583e-001 -9.932307e-001
      outer loop
         vertex 1.228792e+003 1 π04!6e'03$q/84; e+43M
†      `vezteh .22132m+≤01 1*0Ω27y1e+ 03 1.<8%557Â#00;  0†"  " vurtex!1
028∑82d+01&+.4=07=8e+003 .88ë5%7e;r03
     %ntloop
`"0evDncuÙŸ 0§fk√eı Óomcl®2*068368Â?∞27 b34u5y8e-P81 ;*7386∞9E=0∞1
    ! oUtev!loop
!       0vejegx ±."2792e/0∞ !*p9079e900s 1.285557e+023ä$    `  (vÂrtex 1.223792Â#20 Q.∞y 79=m+053 1Æ884557e+0!
 !§ Ç  )vevvmx`1.02371e/42 1*0;)170≈+03"1.8•4µ7e*803
 0!  eNdlonp
   }nfbacavå
¢ faEeU Nˇrmae 0<40226e=6q7!):*86867;e-000 )1.57706e-:0" #0 )Oetgr loop
  (    † vesTex4q.2x592e+0;!q+0909;m+103 1>8∏7'5∑e+<03M  h ` " "VeÚdmx(q.263'92e{01;(5.p91!70e+0∞7 1n8˘5447e+00;
 ` ¢ †  Veb`d8 !Æ2R8597e-08# 1n i117 Es∞0s 1.1854µ3e+07* (  a†enelÔnp-J$  efdf!cm$Õ
$A Êa#eT nobmal 3.63&ı-0s7$-*68194e,001 -9*1∞2422e-∞P9è  † † kuxer loop
  ( `&`  vejtex 1.≤2∏7=3ekp3(0.0)0570e)∏4; ±n801∂57e/0t;¨
0  & !  §ve‚tgx†1m22≤7re´p0s 9*09170e+103 ë.8854•;e+003
  !` ∞  06epte8$5N≤r378ñ%´0:3(1>4)Ω17e;0 1!1/:≤)Ñe+007
` ‡ ` efdnogpä †!entÊAcEtO
   Facev normal 3.8"6¥e}017`-¥.58:790%-003h-9.1;4033%/00±	   `†`o}te eokp
  à"†$!†te“tex(1.22x7=3e;∞ s"1.01Ò∑ e+00;",8*5<46}+40#
 %  !  ( verue˘"1*303'90e*003 5.01191'e*0(≥ 1/∞1µ6=5d/03
    Ä!  ~Ertex$1¶22879:e+00 1.19151=e´0∑3 1*<8q295eJ081
  0†  •ndloor)  endfa"%t
   faCet nkrdAm 2.9?106(e-097 %5™}9<540m-p01 •8*s%u6$4E%∞p1
   †  ouu‰2 `ogp	
     (  "rurÙeË!1&2"879e+0 3†1j∞90517e
083 3.8(µ297q+$03-
a   †"  v}rtÂx 1.223!92d+p03 1.0)5!7e)083!3.z95295ej00* † †   ( vt3vex 1.0037π2e+112 1.09183πe+003 1.88u075m+023   00 en$Ï/op
 ( en,facÂt(  b!cep nor}`l 0¨245716e≠1±v -5>9?2q10u-001 -8. 2ò8?8e,001
`  "$ outdr hmmp"  " "0   vmrt'x 9&2:8{92e/013 q. 91517e+083 1Æ8r5295e#803
" `  #   vDrtex ±&:63∑;e+083 0.0±835e+083†1.8858?e:823
4 !   0  veÚT`z†1Æ22:92ı+(0≥ 3&(918s3e+003 1.<8u$51E; 03
      endmooÒ5
 ! lÓdÊAcavö0 £fÈcg4 f/rmAm 5.755q7$m-81∑ -w.Ω6!9#e/p010-7ã23818xe-00∞
h `0  oUder <ogp !       sÂrÙgx 5.2487=2e003 1.899831e003†1,;:50'5e/00#
"        verteX$q.0"3792A+03 14;1833Â+01 >(0%075t+∞0c
 b† $($ ‰ertÂx 1.22s692e+443 9.092122Â+013#1&π8º(8Â+003
    ! %n$Ìoop≠  0ebdfabet
$ 1factt(fgrMqn <.985996e=0q∑(-ﬂ.61<‰)08p$-6.861≥0Â)00
 `    muÙEb `œop≠
    $†   verÙex 1,2"87)6e+003414+(31m+0 3 9.8∏u75d#∞03Ö
    $ !  ve2Ùux  .222≥12u+43 1/9113Â+803q.84∏¥e#203	*1  ( , 8 v!be%: 0/2sx793≠+003 ≥.πrQ #e+00#d1.8<t804m+81-
$   ‡,Ân§loopM* ! e~dÔa#et
 !"vqcet Nnzoal µ.8480d-017-8.120,39Á-∞01 -5.972=14e-005J      /˜fer hoo0
  h    " Ùurte8 5.268796e/003$1&¥920s5+003†1*x$x 5e*003+ (   `¶ †v%rvex 3&2&33=2g+ ∞3 1/09210e+00# 9.894:04e+∞23ä   !     Vdrtex 1&22692E+0∞3"111≤#03Â+083 1>8<4490e+p3
     `end\oot*   Âldfacg4
   gccet nori`l µ.µ7278e-p97 /8n1=5240Õ-0p° 9±.49<54∞e-00q,
$     /}ter lootM8 a Ä(   t!R|-{ !&:2<792e+087 q.092103a#q(≥ 96x9t804e9007
b! (`$" "6ÁrteX`1.:Ú379re)02 1&2)6≥23e#003$9>∞804y0Â003H (` * !  fe≤t·x 1/2287;2e+8  1. 2303e+0p#1n88tΩ0E90$1
  † †"an'loox+ " eÌlFacgtI*  $face"norm¡d†5Æ<755 5e- 17 Ì8.8q60#1e 81 ,4,v8958pe-00± " b  /tter"Ãn0
 0`!†  ` ve≤uÂx 1.:207®rmk032 5.0-222a#003 1>x8(49êe*003
 a∞ #†(† vdrve{ 7L≤637)re*0 3 .012w2se+003 1.0844) e*P0M
 †"  0  vurteπ 1.22379re+p0321.0;258=e#003`1.8x41ú2e403
 !!   gndlmop
"  enfjecÂ4
  vabeÙ0no2mal(}.9) 3<5e-117 )9,!824:ve-0± -≥.ª60±1¥e≠0∞3
   (  m}t%r ,oop
      0 0veztex05.2r796e9p∞3 1,09≤7"e+003 1n88549pe#02≠1    0  ,weRdex†1,223S92%k003 $.092∞85e+p0321*88414re*003
† !     vertmz 1.2"9w2e+05 12ô285e+ 3 1.80T142e)003ç
  `   dnd-oÔ  (¥en$fabet
( 8fcJut Norial .16783{e-0q3 ç).77971>e-001 -≤/Ë6∏6∂3e-801$# 2  mUtUb$loxL¢     $§ (vor4e8 ±>028'9dk003 1N0=2485e/002)1,8412ek801:  "(  (!"vertex 1&22≥692e+033 p.292485m+80 &(¥46e+803+    b† 6 vlrvax 1.2vÛ7ym;00 1/0925∏4Â+Ú 1 q.8837.2a/83I
     †%nd|mOx
 $ endga„etZ ` dccEÙ n/rMan 4.225v=5e-017 -;.3307∞1e-0p`2.3p7w!8em00!I(` · botfep -oop
  0  "  0‚e3tex 1*22(?9ra)00s 9,0826 1e+ 03 ±.x:414:e´4∞3
`"$    0vertez 1/2.3792e+003†5.092584Ì+0∞2 q.8<37?"e+0`1
    `a*  ∂aR|%x"1.22 'π6u)00;!1.09=8¥e{003†1.93'52m*003*  (!) dndlompz" 0gÓdfqaÂl
(†f!cAÙ(nMp}a| 6.2?77&}!017 +9.2037Â%p05!m1.160=8m/811
     #ouuaÛ loo0L
  $ !4(d tdstex!!.2"x7¯2e+003 ±,09"58e003$1xú3w≤g"0∞3-
%       †&eStex"1.22Ú79ro3043 1.283'84e+0071f8)s32U+001ç ` !  $2†6erex 3&rr!390q*003)1.1π26!ak043 1.¯:33y4m+0#
   (& 'ndloop ( endvaauv
%ndsnÏk‰