solid 09.025.00.00.000 - 09.025.00.08.000-1 09.025.00.08.025-1
   facet normal 6.245005e-017 -1.000000e+000 6.367905e-016
      outer loop
         vertex 1.223792e+003 7.934174e+002 1.948390e+003
         vertex 1.223792e+003 7.934174e+002 1.873390e+003
         vertex 1.228792e+003 7.934174e+002 1.948390e+003
      endloop
   endfacet
   facet normal 6.245005e-017 -1.000000e+000 6.367905e-016
      outer loop
         vertex 1.228792e+003 7.934174e+002 1.948390e+003
         vertex 1.223792e+003 7.934174e+002 1.873390e+003
         vertex 1.228792e+003 7.934174e+002 1.873390e+003
      endloop
   endfacet
   facet normal -6.459731e-018 6.407581e-016 1.000000e+000
      outer loop
         vertex 1.223792e+003 8.134173e+002 1.948390e+003
         vertex 1.223792e+003 7.934174e+002 1.948390e+003
         vertex 1.228792e+003 8.134173e+002 1.948390e+003
      endloop
   endfacet
   facet normal -6.459731e-018 6.407581e-016 1.000000e+000
      outer loop
         vertex 1.228792e+003 8.134173e+002 1.948390e+003
         vertex 1.223792e+003 7.934174e+002 1.948390e+003
         vertex 1.228792e+003 7.934174e+002 1.948390e+003
      endloop
   endfacet
   facet normal -6.245005e-017 1.000000e+000 -5.905312e-016
      outer loop
         vertex 1.223792e+003 8.134173e+002 1.873390e+003
         vertex 1.223792e+003 8.134173e+002 1.948390e+003
         vertex 1.228792e+003 8.134173e+002 1.873390e+003
      endloop
   endfacet
   facet normal -6.245005e-017 1.000000e+000 -5.905312e-016
      outer loop
         vertex 1.228792e+003 8.134173e+002 1.873390e+003
         vertex 1.223792e+003 8.134173e+002 1.948390e+003
         vertex 1.228792e+003 8.134173e+002 1.948390e+003
      endloop
   endfacet
   facet normal 6.459731e-018 -6.407581e-016 -1.000000e+000
      outer loop
         vertex 1.223792e+003 7.934174e+002 1.873390e+003
         vertex 1.223792e+003 8.134173e+002 1.873390e+003
         vertex 1.228792e+003 7.934174e+002 1.873390e+003
      endloop
   endfacet
   facet normal 6.459731e-018 -6.407581e-016 -1.000000e+000
      outer loop
         vertex 1.228792e+003 7.934174e+002 1.873390e+003
         vertex 1.223792e+003 8.134173e+002 1.873390e+003
         vertex 1.228792e+003 8.134173e+002 1.873390e+003
      endloop
   endfacet
   facet normal -1.000000e+000 -1.040834e-016 1.026531e-018
      outer loop
         vertex 1.223792e+003 8.134173e+002 1.948390e+003
         vertex 1.223792e+003 8.134173e+002 1.873390e+003
         vertex 1.223792e+003 8.126174e+002 1.883390e+003
      endloop
   endfacet
   facet normal -1.000000e+000 -1.040834e-016 1.026531e-018
      outer loop
         vertex 1.223792e+003 7.934174e+002 1.948390e+003
         vertex 1.223792e+003 7.964174e+002 1.885590e+003
         vertex 1.223792e+003 7.960353e+002 1.885557e+003
      endloop
   endfacet
   facet normal -1.000000e+000 -1.040834e-016 1.026531e-018
      outer loop
         vertex 1.223792e+003 7.964174e+002 1.885590e+003
         vertex 1.223792e+003 7.934174e+002 1.948390e+003
         vertex 1.223792e+003 7.967994e+002 1.885557e+003
      endloop
   endfacet
   facet normal -1.000000e+000 -1.040834e-016 1.026531e-018
      outer loop
         vertex 1.223792e+003 7.967994e+002 1.885557e+003
         vertex 1.223792e+003 7.934174e+002 1.948390e+003
         vertex 1.223792e+003 8.134173e+002 1.948390e+003
      endloop
   endfacet
   facet normal -1.000000e+000 -1.040834e-016 1.026531e-018
      outer loop
         vertex 1.223792e+003 7.967994e+002 1.885557e+003
         vertex 1.223792e+003 8.134173e+002 1.948390e+003
         vertex 1.223792e+003 7.971698e+002 1.885457e+003
      endloop
   endfacet
   facet normal -1.000000e+000 -1.040834e-016 1.026531e-018
      outer loop
         vertex 1.223792e+003 8.126174e+002 1.883390e+003
         vertex 1.223792e+003 8.125839e+002 1.883772e+003
         vertex 1.223792e+003 8.134173e+002 1.948390e+003
      endloop
   endfacet
   facet normal -1.000000e+000 -1.040834e-016 1.026531e-018
      outer loop
         vertex 1.223792e+003 8.134173e+002 1.948390e+003
         vertex 1.223792e+003 8.125839e+002 1.883772e+003
         vertex 1.223792e+003 8.124847e+002 1.884142e+003
      endloop
   endfacet
   facet normal -1.000000e+000 -1.040834e-016 1.026531e-018
      outer loop
         vertex 1.223792e+003 8.134173e+002 1.948390e+003
         vertex 1.223792e+003 8.124847e+002 1.884142e+003
         vertex 1.223792e+003 8.123226e+002 1.884490e+003
      endloop
   endfacet
   facet normal -1.000000e+000 -1.040834e-016 1.026531e-018
      outer loop
         vertex 1.223792e+003 8.123226e+002 1.884490e+003
         vertex 1.223792e+003 8.121026e+002 1.884804e+003
         vertex 1.223792e+003 8.134173e+002 1.948390e+003
      endloop
   endfacet
   facet normal -1.000000e+000 -1.040834e-016 1.026531e-018
      outer loop
         vertex 1.223792e+003 8.134173e+002 1.948390e+003
         vertex 1.223792e+003 8.121026e+002 1.884804e+003
         vertex 1.223792e+003 8.118315e+002 1.885075e+003
      endloop
   endfacet
   facet normal -1.000000e+000 -1.040834e-016 1.026531e-018
      outer loop
         vertex 1.223792e+003 8.134173e+002 1.948390e+003
         vertex 1.223792e+003 8.118315e+002 1.885075e+003
         vertex 1.223792e+003 8.115173e+002 1.885295e+003
      endloop
   endfacet
   facet normal -1.000000e+000 -1.040834e-016 1.026531e-018
      outer loop
         vertex 1.223792e+003 7.985839e+002 1.883772e+003
         vertex 1.223792e+003 7.984847e+002 1.884142e+003
         vertex 1.223792e+003 8.100353e+002 1.885557e+003
      endloop
   endfacet
   facet normal -1.000000e+000 -1.040834e-016 1.026531e-018
      outer loop
         vertex 1.223792e+003 8.096649e+002 1.885457e+003
         vertex 1.223792e+003 7.971698e+002 1.881323e+003
         vertex 1.223792e+003 7.975173e+002 1.881485e+003
      endloop
   endfacet
   facet normal -1.000000e+000 -1.040834e-016 1.026531e-018
      outer loop
         vertex 1.223792e+003 7.975173e+002 1.881485e+003
         vertex 1.223792e+003 7.978315e+002 1.881705e+003
         vertex 1.223792e+003 8.096649e+002 1.885457e+003
      endloop
   endfacet
   facet normal -1.000000e+000 -1.040834e-016 1.026531e-018
      outer loop
         vertex 1.223792e+003 8.096649e+002 1.885457e+003
         vertex 1.223792e+003 7.978315e+002 1.881705e+003
         vertex 1.223792e+003 7.981026e+002 1.881976e+003
      endloop
   endfacet
   facet normal -1.000000e+000 -1.040834e-016 1.026531e-018
      outer loop
         vertex 1.223792e+003 8.096649e+002 1.885457e+003
         vertex 1.223792e+003 7.981026e+002 1.881976e+003
         vertex 1.223792e+003 7.983226e+002 1.882290e+003
      endloop
   endfacet
   facet normal -1.000000e+000 -1.040834e-016 1.026531e-018
      outer loop
         vertex 1.223792e+003 8.096649e+002 1.885457e+003
         vertex 1.223792e+003 8.093173e+002 1.885295e+003
         vertex 1.223792e+003 7.971698e+002 1.881323e+003
      endloop
   endfacet
   facet normal -1.000000e+000 -1.040834e-016 1.026531e-018
      outer loop
         vertex 1.223792e+003 7.971698e+002 1.881323e+003
         vertex 1.223792e+003 8.093173e+002 1.885295e+003
         vertex 1.223792e+003 8.090032e+002 1.885075e+003
      endloop
   endfacet
   facet normal -1.000000e+000 -1.040834e-016 1.026531e-018
      outer loop
         vertex 1.223792e+003 7.971698e+002 1.881323e+003
         vertex 1.223792e+003 8.090032e+002 1.885075e+003
         vertex 1.223792e+003 8.087321e+002 1.884804e+003
      endloop
   endfacet
   facet normal -1.000000e+000 -1.040834e-016 1.026531e-018
      outer loop
         vertex 1.223792e+003 8.115173e+002 1.885295e+003
         vertex 1.223792e+003 8.111698e+002 1.885457e+003
         vertex 1.223792e+003 8.134173e+002 1.948390e+003
      endloop
   endfacet
   facet normal -1.000000e+000 -1.040834e-016 1.026531e-018
      outer loop
         vertex 1.223792e+003 8.134173e+002 1.948390e+003
         vertex 1.223792e+003 8.111698e+002 1.885457e+003
         vertex 1.223792e+003 8.107994e+002 1.885557e+003
      endloop
   endfacet
   facet normal -1.000000e+000 -1.040834e-016 1.026531e-018
      outer loop
         vertex 1.223792e+003 8.134173e+002 1.948390e+003
         vertex 1.223792e+003 8.107994e+002 1.885557e+003
         vertex 1.223792e+003 8.104174e+002 1.885590e+003
      endloop
   endfacet
   facet normal -1.000000e+000 -1.040834e-016 1.026531e-018
      outer loop
         vertex 1.223792e+003 7.960353e+002 1.885557e+003
         vertex 1.223792e+003 7.956649e+002 1.885457e+003
         vertex 1.223792e+003 7.934174e+002 1.948390e+003
      endloop
   endfacet
   facet normal -1.000000e+000 -1.040834e-016 1.026531e-018
      outer loop
         vertex 1.223792e+003 7.934174e+002 1.948390e+003
         vertex 1.223792e+003 7.956649e+002 1.885457e+003
         vertex 1.223792e+003 7.953173e+002 1.885295e+003
      endloop
   endfacet
   facet normal -1.000000e+000 -1.040834e-016 1.026531e-018
      outer loop
         vertex 1.223792e+003 7.934174e+002 1.948390e+003
         vertex 1.223792e+003 7.953173e+002 1.885295e+003
         vertex 1.223792e+003 7.950032e+002 1.885075e+003
      endloop
   endfacet
   facet normal -1.000000e+000 -1.040834e-016 1.026531e-018
      outer loop
         vertex 1.223792e+003 7.983226e+002 1.882290e+003
         vertex 1.223792e+003 7.984847e+002 1.882637e+003
         vertex 1.223792e+003 8.096649e+002 1.885457e+003
      endloop
   endfacet
   facet normal -1.000000e+000 -1.040834e-016 1.026531e-018
      outer loop
         vertex 1.223792e+003 8.096649e+002 1.885457e+003
         vertex 1.223792e+003 7.984847e+002 1.882637e+003
         vertex 1.223792e+003 7.985839e+002 1.883008e+003
      endloop
   endfacet
   facet normal -1.000000e+000 -1.040834e-016 1.026531e-018
      outer loop
         vertex 1.223792e+003 8.096649e+002 1.885457e+003
         vertex 1.223792e+003 7.985839e+002 1.883008e+003
         vertex 1.223792e+003 8.100353e+002 1.885557e+003
      endloop
   endfacet
   facet normal -1.000000e+000 -1.040834e-016 1.026531e-018
      outer loop
         vertex 1.223792e+003 8.100353e+002 1.885557e+003
         vertex 1.223792e+003 7.985839e+002 1.883008e+003
         vertex 1.223792e+003 7.986173e+002 1.883390e+003
      endloop
   endfacet
   facet normal -1.000000e+000 -1.040834e-016 1.026531e-018
      outer loop
         vertex 1.223792e+003 8.100353e+002 1.885557e+003
         vertex 1.223792e+003 7.986173e+002 1.883390e+003
         vertex 1.223792e+003 7.985839e+002 1.883772e+003
      endloop
   endfacet
   facet normal -1.000000e+000 -1.040834e-016 1.026531e-018
      outer loop
         vertex 1.223792e+003 8.134173e+002 1.873390e+003
         vertex 1.223792e+003 8.111698e+002 1.881323e+003
         vertex 1.223792e+003 8.115173e+002 1.881485e+003
      endloop
   endfacet
   facet normal -1.000000e+000 -1.040834e-016 1.026531e-018
      outer loop
         vertex 1.223792e+003 7.984847e+002 1.884142e+003
         vertex 1.223792e+003 7.983226e+002 1.884490e+003
         vertex 1.223792e+003 8.100353e+002 1.885557e+003
      endloop
   endfacet
   facet normal -1.000000e+000 -1.040834e-016 1.026531e-018
      outer loop
         vertex 1.223792e+003 8.100353e+002 1.885557e+003
         vertex 1.223792e+003 7.983226e+002 1.884490e+003
         vertex 1.223792e+003 7.981026e+002 1.884804e+003
      endloop
   endfacet
   facet normal -1.000000e+000 -1.040834e-016 1.026531e-018
      outer loop
         vertex 1.223792e+003 8.100353e+002 1.885557e+003
         vertex 1.223792e+003 7.981026e+002 1.884804e+003
         vertex 1.223792e+003 8.104174e+002 1.885590e+003
      endloop
   endfacet
   facet normal -1.000000e+000 -1.040834e-016 1.026531e-018
      outer loop
         vertex 1.223792e+003 8.104174e+002 1.885590e+003
         vertex 1.223792e+003 7.981026e+002 1.884804e+003
         vertex 1.223792e+003 7.978315e+002 1.885075e+003
      endloop
   endfacet
   facet normal -1.000000e+000 -1.040834e-016 1.026531e-018
      outer loop
         vertex 1.223792e+003 8.104174e+002 1.885590e+003
         vertex 1.223792e+003 7.978315e+002 1.885075e+003
         vertex 1.223792e+003 8.134173e+002 1.948390e+003
      endloop
   endfacet
   facet normal -1.000000e+000 -1.040834e-016 1.026531e-018
      outer loop
         vertex 1.223792e+003 8.134173e+002 1.948390e+003
         vertex 1.223792e+003 7.978315e+002 1.885075e+003
         vertex 1.223792e+003 7.975173e+002 1.885295e+003
      endloop
   endfacet
   facet normal -1.000000e+000 -1.040834e-016 1.026531e-018
      outer loop
         vertex 1.223792e+003 8.134173e+002 1.948390e+003
         vertex 1.223792e+003 7.975173e+002 1.885295e+003
         vertex 1.223792e+003 7.971698e+002 1.885457e+003
      endloop
   endfacet
   facet normal -1.000000e+000 -1.040834e-016 1.026531e-018
      outer loop
         vertex 1.223792e+003 7.950032e+002 1.885075e+003
         vertex 1.223792e+003 7.947321e+002 1.884804e+003
         vertex 1.223792e+003 7.934174e+002 1.948390e+003
      endloop
   endfacet
   facet normal -1.000000e+000 -1.040834e-016 1.026531e-018
      outer loop
         vertex 1.223792e+003 7.934174e+002 1.948390e+003
         vertex 1.223792e+003 7.947321e+002 1.884804e+003
         vertex 1.223792e+003 7.945121e+002 1.884490e+003
      endloop
   endfacet
   facet normal -1.000000e+000 -1.040834e-016 1.026531e-018
      outer loop
         vertex 1.223792e+003 7.934174e+002 1.948390e+003
         vertex 1.223792e+003 7.945121e+002 1.884490e+003
         vertex 1.223792e+003 7.943500e+002 1.884142e+003
      endloop
   endfacet
   facet normal -1.000000e+000 -1.040834e-016 1.026531e-018
      outer loop
         vertex 1.223792e+003 7.956649e+002 1.881323e+003
         vertex 1.223792e+003 7.934174e+002 1.873390e+003
         vertex 1.223792e+003 7.953173e+002 1.881485e+003
      endloop
   endfacet
   facet normal -1.000000e+000 -1.040834e-016 1.026531e-018
      outer loop
         vertex 1.223792e+003 7.953173e+002 1.881485e+003
         vertex 1.223792e+003 7.934174e+002 1.873390e+003
         vertex 1.223792e+003 7.950032e+002 1.881705e+003
      endloop
   endfacet
   facet normal -1.000000e+000 -1.040834e-016 1.026531e-018
      outer loop
         vertex 1.223792e+003 7.934174e+002 1.873390e+003
         vertex 1.223792e+003 8.096649e+002 1.881323e+003
         vertex 1.223792e+003 8.134173e+002 1.873390e+003
      endloop
   endfacet
   facet normal -1.000000e+000 -1.040834e-016 1.026531e-018
      outer loop
         vertex 1.223792e+003 8.134173e+002 1.873390e+003
         vertex 1.223792e+003 8.096649e+002 1.881323e+003
         vertex 1.223792e+003 8.100353e+002 1.881223e+003
      endloop
   endfacet
   facet normal -1.000000e+000 -1.040834e-016 1.026531e-018
      outer loop
         vertex 1.223792e+003 7.943500e+002 1.882637e+003
         vertex 1.223792e+003 7.945121e+002 1.882290e+003
         vertex 1.223792e+003 7.934174e+002 1.873390e+003
      endloop
   endfacet
   facet normal -1.000000e+000 -1.040834e-016 1.026531e-018
      outer loop
         vertex 1.223792e+003 7.934174e+002 1.873390e+003
         vertex 1.223792e+003 7.945121e+002 1.882290e+003
         vertex 1.223792e+003 7.947321e+002 1.881976e+003
      endloop
   endfacet
   facet normal -1.000000e+000 -1.040834e-016 1.026531e-018
      outer loop
         vertex 1.223792e+003 7.934174e+002 1.873390e+003
         vertex 1.223792e+003 7.947321e+002 1.881976e+003
         vertex 1.223792e+003 7.950032e+002 1.881705e+003
      endloop
   endfacet
   facet normal -1.000000e+000 -1.040834e-016 1.026531e-018
      outer loop
         vertex 1.223792e+003 8.087321e+002 1.881976e+003
         vertex 1.223792e+003 8.090032e+002 1.881705e+003
         vertex 1.223792e+003 7.934174e+002 1.873390e+003
      endloop
   endfacet
   facet normal -1.000000e+000 -1.040834e-016 1.026531e-018
      outer loop
         vertex 1.223792e+003 7.934174e+002 1.873390e+003
         vertex 1.223792e+003 8.090032e+002 1.881705e+003
         vertex 1.223792e+003 8.093173e+002 1.881485e+003
      endloop
   endfacet
   facet normal -1.000000e+000 -1.040834e-016 1.026531e-018
      outer loop
         vertex 1.223792e+003 7.934174e+002 1.873390e+003
         vertex 1.223792e+003 8.093173e+002 1.881485e+003
         vertex 1.223792e+003 8.096649e+002 1.881323e+003
      endloop
   endfacet
   facet normal -1.000000e+000 -1.040834e-016 1.026531e-018
      outer loop
         vertex 1.223792e+003 8.100353e+002 1.881223e+003
         vertex 1.223792e+003 8.104174e+002 1.881190e+003
         vertex 1.223792e+003 8.134173e+002 1.873390e+003
      endloop
   endfacet
   facet normal -1.000000e+000 -1.040834e-016 1.026531e-018
      outer loop
         vertex 1.223792e+003 8.134173e+002 1.873390e+003
         vertex 1.223792e+003 8.104174e+002 1.881190e+003
         vertex 1.223792e+003 8.107994e+002 1.881223e+003
      endloop
   endfacet
   facet normal -1.000000e+000 -1.040834e-016 1.026531e-018
      outer loop
         vertex 1.223792e+003 8.134173e+002 1.873390e+003
         vertex 1.223792e+003 8.107994e+002 1.881223e+003
         vertex 1.223792e+003 8.111698e+002 1.881323e+003
      endloop
   endfacet
   facet normal -1.000000e+000 -1.040834e-016 1.026531e-018
      outer loop
         vertex 1.223792e+003 8.123226e+002 1.882290e+003
         vertex 1.223792e+003 8.124847e+002 1.882637e+003
         vertex 1.223792e+003 8.134173e+002 1.873390e+003
      endloop
   endfacet
   facet normal -1.000000e+000 -1.040834e-016 1.026531e-018
      outer loop
         vertex 1.223792e+003 8.134173e+002 1.873390e+003
         vertex 1.223792e+003 8.124847e+002 1.882637e+003
         vertex 1.223792e+003 8.125839e+002 1.883008e+003
      endloop
   endfacet
   facet normal -1.000000e+000 -1.040834e-016 1.026531e-018
      outer loop
         vertex 1.223792e+003 8.134173e+002 1.873390e+003
         vertex 1.223792e+003 8.125839e+002 1.883008e+003
         vertex 1.223792e+003 8.126174e+002 1.883390e+003
      endloop
   endfacet
   facet normal -1.000000e+000 -1.040834e-016 1.026531e-018
      outer loop
         vertex 1.223792e+003 8.087321e+002 1.884804e+003
         vertex 1.223792e+003 8.085121e+002 1.884490e+003
         vertex 1.223792e+003 7.971698e+002 1.881323e+003
      endloop
   endfacet
   facet normal -1.000000e+000 -1.040834e-016 1.026531e-018
      outer loop
         vertex 1.223792e+003 7.971698e+002 1.881323e+003
         vertex 1.223792e+003 8.085121e+002 1.884490e+003
         vertex 1.223792e+003 8.083500e+002 1.884142e+003
      endloop
   endfacet
   facet normal -1.000000e+000 -1.040834e-016 1.026531e-018
      outer loop
         vertex 1.223792e+003 7.971698e+002 1.881323e+003
         vertex 1.223792e+003 8.083500e+002 1.884142e+003
         vertex 1.223792e+003 7.967994e+002 1.881223e+003
      endloop
   endfacet
   facet normal -1.000000e+000 -1.040834e-016 1.026531e-018
      outer loop
         vertex 1.223792e+003 7.967994e+002 1.881223e+003
         vertex 1.223792e+003 8.083500e+002 1.884142e+003
         vertex 1.223792e+003 8.082508e+002 1.883772e+003
      endloop
   endfacet
   facet normal -1.000000e+000 -1.040834e-016 1.026531e-018
      outer loop
         vertex 1.223792e+003 7.967994e+002 1.881223e+003
         vertex 1.223792e+003 8.082508e+002 1.883772e+003
         vertex 1.223792e+003 8.082173e+002 1.883390e+003
      endloop
   endfacet
   facet normal -1.000000e+000 -1.040834e-016 1.026531e-018
      outer loop
         vertex 1.223792e+003 8.115173e+002 1.881485e+003
         vertex 1.223792e+003 8.118315e+002 1.881705e+003
         vertex 1.223792e+003 8.134173e+002 1.873390e+003
      endloop
   endfacet
   facet normal -1.000000e+000 -1.040834e-016 1.026531e-018
      outer loop
         vertex 1.223792e+003 8.134173e+002 1.873390e+003
         vertex 1.223792e+003 8.118315e+002 1.881705e+003
         vertex 1.223792e+003 8.121026e+002 1.881976e+003
      endloop
   endfacet
   facet normal -1.000000e+000 -1.040834e-016 1.026531e-018
      outer loop
         vertex 1.223792e+003 8.134173e+002 1.873390e+003
         vertex 1.223792e+003 8.121026e+002 1.881976e+003
         vertex 1.223792e+003 8.123226e+002 1.882290e+003
      endloop
   endfacet
   facet normal -1.000000e+000 -1.040834e-016 1.026531e-018
      outer loop
         vertex 1.223792e+003 7.956649e+002 1.881323e+003
         vertex 1.223792e+003 7.960353e+002 1.881223e+003
         vertex 1.223792e+003 7.934174e+002 1.873390e+003
      endloop
   endfacet
   facet normal -1.000000e+000 -1.040834e-016 1.026531e-018
      outer loop
         vertex 1.223792e+003 7.934174e+002 1.873390e+003
         vertex 1.223792e+003 7.960353e+002 1.881223e+003
         vertex 1.223792e+003 7.964174e+002 1.881190e+003
      endloop
   endfacet
   facet normal -1.000000e+000 -1.040834e-016 1.026531e-018
      outer loop
         vertex 1.223792e+003 7.934174e+002 1.873390e+003
         vertex 1.223792e+003 7.964174e+002 1.881190e+003
         vertex 1.223792e+003 7.967994e+002 1.881223e+003
      endloop
   endfacet
   facet normal -1.000000e+000 -1.040834e-016 1.026531e-018
      outer loop
         vertex 1.223792e+003 7.943500e+002 1.884142e+003
         vertex 1.223792e+003 7.942507e+002 1.883772e+003
         vertex 1.223792e+003 7.934174e+002 1.948390e+003
      endloop
   endfacet
   facet normal -1.000000e+000 -1.040834e-016 1.026531e-018
      outer loop
         vertex 1.223792e+003 7.934174e+002 1.948390e+003
         vertex 1.223792e+003 7.942507e+002 1.883772e+003
         vertex 1.223792e+003 7.942173e+002 1.883390e+003
      endloop
   endfacet
   facet normal -1.000000e+000 -1.040834e-016 1.026531e-018
      outer loop
         vertex 1.223792e+003 7.934174e+002 1.948390e+003
         vertex 1.223792e+003 7.942173e+002 1.883390e+003
         vertex 1.223792e+003 7.934174e+002 1.873390e+003
      endloop
   endfacet
   facet normal -1.000000e+000 -1.040834e-016 1.026531e-018
      outer loop
         vertex 1.223792e+003 7.934174e+002 1.873390e+003
         vertex 1.223792e+003 7.942173e+002 1.883390e+003
         vertex 1.223792e+003 7.942507e+002 1.883008e+003
      endloop
   endfacet
   facet normal -1.000000e+000 -1.040834e-016 1.026531e-018
      outer loop
         vertex 1.223792e+003 7.934174e+002 1.873390e+003
         vertex 1.223792e+003 7.942507e+002 1.883008e+003
         vertex 1.223792e+003 7.943500e+002 1.882637e+003
      endloop
   endfacet
   facet normal -1.000000e+000 -1.040834e-016 1.026531e-018
      outer loop
         vertex 1.223792e+003 8.082173e+002 1.883390e+003
         vertex 1.223792e+003 8.082508e+002 1.883008e+003
         vertex 1.223792e+003 7.967994e+002 1.881223e+003
      endloop
   endfacet
   facet normal -1.000000e+000 -1.040834e-016 1.026531e-018
      outer loop
         vertex 1.223792e+003 7.967994e+002 1.881223e+003
         vertex 1.223792e+003 8.082508e+002 1.883008e+003
         vertex 1.223792e+003 8.083500e+002 1.882637e+003
      endloop
   endfacet
   facet normal -1.000000e+000 -1.040834e-016 1.026531e-018
      outer loop
         vertex 1.223792e+003 7.967994e+002 1.881223e+003
         vertex 1.223792e+003 8.083500e+002 1.882637e+003
         vertex 1.223792e+003 7.934174e+002 1.873390e+003
      endloop
   endfacet
   facet normal -1.000000e+000 -1.040834e-016 1.026531e-018
      outer loop
         vertex 1.223792e+003 7.934174e+002 1.873390e+003
         vertex 1.223792e+003 8.083500e+002 1.882637e+003
         vertex 1.223792e+003 8.085121e+002 1.882290e+003
      endloop
   endfacet
   facet normal -1.000000e+000 -1.040834e-016 1.026531e-018
      outer loop
         vertex 1.223792e+003 7.934174e+002 1.873390e+003
         vertex 1.223792e+003 8.085121e+002 1.882290e+003
         vertex 1.223792e+003 8.087321e+002 1.881976e+003
      endloop
   endfacet
   facet normal 1.000000e+000 1.040834e-016 -1.026531e-018
      outer loop
         vertex 1.228792e+003 7.964174e+002 1.885590e+003
         vertex 1.228792e+003 7.934174e+002 1.948390e+003
         vertex 1.228792e+003 7.960353e+002 1.885557e+003
      endloop
   endfacet
   facet normal 1.000000e+000 1.040834e-016 -1.026531e-018
      outer loop
         vertex 1.228792e+003 7.960353e+002 1.885557e+003
         vertex 1.228792e+003 7.934174e+002 1.948390e+003
         vertex 1.228792e+003 7.956649e+002 1.885457e+003
      endloop
   endfacet
   facet normal 1.000000e+000 1.040834e-016 -1.026531e-018
      outer loop
         vertex 1.228792e+003 7.947321e+002 1.884804e+003
         vertex 1.228792e+003 7.934174e+002 1.948390e+003
         vertex 1.228792e+003 7.945121e+002 1.884490e+003
      endloop
   endfacet
   facet normal 1.000000e+000 1.040834e-016 -1.026531e-018
      outer loop
         vertex 1.228792e+003 7.945121e+002 1.884490e+003
         vertex 1.228792e+003 7.934174e+002 1.948390e+003
         vertex 1.228792e+003 7.943500e+002 1.884142e+003
      endloop
   endfacet
   facet normal 1.000000e+000 1.040834e-016 -1.026531e-018
      outer loop
         vertex 1.228792e+003 7.947321e+002 1.884804e+003
         vertex 1.228792e+003 7.950032e+002 1.885075e+003
         vertex 1.228792e+003 7.934174e+002 1.948390e+003
      endloop
   endfacet
   facet normal 1.000000e+000 1.040834e-016 -1.026531e-018
      outer loop
         vertex 1.228792e+003 7.934174e+002 1.948390e+003
         vertex 1.228792e+003 7.950032e+002 1.885075e+003
         vertex 1.228792e+003 7.953173e+002 1.885295e+003
      endloop
   endfacet
   facet normal 1.000000e+000 1.040834e-016 -1.026531e-018
      outer loop
         vertex 1.228792e+003 7.934174e+002 1.948390e+003
         vertex 1.228792e+003 7.953173e+002 1.885295e+003
         vertex 1.228792e+003 7.956649e+002 1.885457e+003
      endloop
   endfacet
   facet normal 1.000000e+000 1.040834e-016 -1.026531e-018
      outer loop
         vertex 1.228792e+003 7.960353e+002 1.881223e+003
         vertex 1.228792e+003 7.956649e+002 1.881323e+003
         vertex 1.228792e+003 7.934174e+002 1.873390e+003
      endloop
   endfacet
   facet normal 1.000000e+000 1.040834e-016 -1.026531e-018
      outer loop
         vertex 1.228792e+003 7.934174e+002 1.873390e+003
         vertex 1.228792e+003 7.956649e+002 1.881323e+003
         vertex 1.228792e+003 7.953173e+002 1.881485e+003
      endloop
   endfacet
   facet normal 1.000000e+000 1.040834e-016 -1.026531e-018
      outer loop
         vertex 1.228792e+003 7.934174e+002 1.873390e+003
         vertex 1.228792e+003 7.953173e+002 1.881485e+003
         vertex 1.228792e+003 7.950032e+002 1.881705e+003
      endloop
   endfacet
   facet normal 1.000000e+000 1.040834e-016 -1.026531e-018
      outer loop
         vertex 1.228792e+003 7.950032e+002 1.881705e+003
         vertex 1.228792e+003 7.947321e+002 1.881976e+003
         vertex 1.228792e+003 7.934174e+002 1.873390e+003
      endloop
   endfacet
   facet normal 1.000000e+000 1.040834e-016 -1.026531e-018
      outer loop
         vertex 1.228792e+003 7.934174e+002 1.873390e+003
         vertex 1.228792e+003 7.947321e+002 1.881976e+003
         vertex 1.228792e+003 7.945121e+002 1.882290e+003
      endloop
   endfacet
   facet normal 1.000000e+000 1.040834e-016 -1.026531e-018
      outer loop
         vertex 1.228792e+003 7.934174e+002 1.873390e+003
         vertex 1.228792e+003 7.945121e+002 1.882290e+003
         vertex 1.228792e+003 7.943500e+002 1.882637e+003
      endloop
   endfacet
   facet normal 1.000000e+000 1.040834e-016 -1.026531e-018
      outer loop
         vertex 1.228792e+003 7.943500e+002 1.882637e+003
         vertex 1.228792e+003 7.942507e+002 1.883008e+003
         vertex 1.228792e+003 7.934174e+002 1.873390e+003
      endloop
   endfacet
   facet normal 1.000000e+000 1.040834e-016 -1.026531e-018
      outer loop
         vertex 1.228792e+003 7.934174e+002 1.873390e+003
         vertex 1.228792e+003 7.942507e+002 1.883008e+003
         vertex 1.228792e+003 7.942173e+002 1.883390e+003
      endloop
   endfacet
   facet normal 1.000000e+000 1.040834e-016 -1.026531e-018
      outer loop
         vertex 1.228792e+003 7.934174e+002 1.873390e+003
         vertex 1.228792e+003 7.942173e+002 1.883390e+003
         vertex 1.228792e+003 7.934174e+002 1.948390e+003
      endloop
   endfacet
   facet normal 1.000000e+000 1.040834e-016 -1.026531e-018
      outer loop
         vertex 1.228792e+003 7.934174e+002 1.948390e+003
         vertex 1.228792e+003 7.942173e+002 1.883390e+003
         vertex 1.228792e+003 7.942507e+002 1.883772e+003
      endloop
   endfacet
   facet normal 1.000000e+000 1.040834e-016 -1.026531e-018
      outer loop
         vertex 1.228792e+003 7.934174e+002 1.948390e+003
         vertex 1.228792e+003 7.942507e+002 1.883772e+003
         vertex 1.228792e+003 7.943500e+002 1.884142e+003
      endloop
   endfacet
   facet normal 1.000000e+000 1.040834e-016 -1.026531e-018
      outer loop
         vertex 1.228792e+003 8.134173e+002 1.873390e+003
         vertex 1.228792e+003 8.111698e+002 1.881323e+003
         vertex 1.228792e+003 8.107994e+002 1.881223e+003
      endloop
   endfacet
   facet normal 1.000000e+000 1.040834e-016 -1.026531e-018
      outer loop
         vertex 1.228792e+003 8.087321e+002 1.881976e+003
         vertex 1.228792e+003 8.085121e+002 1.882290e+003
         vertex 1.228792e+003 7.971698e+002 1.885457e+003
      endloop
   endfacet
   facet normal 1.000000e+000 1.040834e-016 -1.026531e-018
      outer loop
         vertex 1.228792e+003 7.971698e+002 1.881323e+003
         vertex 1.228792e+003 7.967994e+002 1.881223e+003
         vertex 1.228792e+003 7.934174e+002 1.873390e+003
      endloop
   endfacet
   facet normal 1.000000e+000 1.040834e-016 -1.026531e-018
      outer loop
         vertex 1.228792e+003 7.934174e+002 1.873390e+003
         vertex 1.228792e+003 7.967994e+002 1.881223e+003
         vertex 1.228792e+003 7.964174e+002 1.881190e+003
      endloop
   endfacet
   facet normal 1.000000e+000 1.040834e-016 -1.026531e-018
      outer loop
         vertex 1.228792e+003 7.934174e+002 1.873390e+003
         vertex 1.228792e+003 7.964174e+002 1.881190e+003
         vertex 1.228792e+003 7.960353e+002 1.881223e+003
      endloop
   endfacet
   facet normal 1.000000e+000 1.040834e-016 -1.026531e-018
      outer loop
         vertex 1.228792e+003 7.967994e+002 1.885557e+003
         vertex 1.228792e+003 8.082508e+002 1.883772e+003
         vertex 1.228792e+003 8.083500e+002 1.884142e+003
      endloop
   endfacet
   facet normal 1.000000e+000 1.040834e-016 -1.026531e-018
      outer loop
         vertex 1.228792e+003 8.083500e+002 1.884142e+003
         vertex 1.228792e+003 8.085121e+002 1.884490e+003
         vertex 1.228792e+003 7.967994e+002 1.885557e+003
      endloop
   endfacet
   facet normal 1.000000e+000 1.040834e-016 -1.026531e-018
      outer loop
         vertex 1.228792e+003 7.967994e+002 1.885557e+003
         vertex 1.228792e+003 8.085121e+002 1.884490e+003
         vertex 1.228792e+003 8.087321e+002 1.884804e+003
      endloop
   endfacet
   facet normal 1.000000e+000 1.040834e-016 -1.026531e-018
      outer loop
         vertex 1.228792e+003 7.967994e+002 1.885557e+003
         vertex 1.228792e+003 8.087321e+002 1.884804e+003
         vertex 1.228792e+003 7.964174e+002 1.885590e+003
      endloop
   endfacet
   facet normal 1.000000e+000 1.040834e-016 -1.026531e-018
      outer loop
         vertex 1.228792e+003 8.093173e+002 1.885295e+003
         vertex 1.228792e+003 8.096649e+002 1.885457e+003
         vertex 1.228792e+003 7.934174e+002 1.948390e+003
      endloop
   endfacet
   facet normal 1.000000e+000 1.040834e-016 -1.026531e-018
      outer loop
         vertex 1.228792e+003 7.934174e+002 1.948390e+003
         vertex 1.228792e+003 8.096649e+002 1.885457e+003
         vertex 1.228792e+003 8.100353e+002 1.885557e+003
      endloop
   endfacet
   facet normal 1.000000e+000 1.040834e-016 -1.026531e-018
      outer loop
         vertex 1.228792e+003 7.934174e+002 1.948390e+003
         vertex 1.228792e+003 8.100353e+002 1.885557e+003
         vertex 1.228792e+003 8.134173e+002 1.948390e+003
      endloop
   endfacet
   facet normal 1.000000e+000 1.040834e-016 -1.026531e-018
      outer loop
         vertex 1.228792e+003 8.134173e+002 1.948390e+003
         vertex 1.228792e+003 8.100353e+002 1.885557e+003
         vertex 1.228792e+003 8.104174e+002 1.885590e+003
      endloop
   endfacet
   facet normal 1.000000e+000 1.040834e-016 -1.026531e-018
      outer loop
         vertex 1.228792e+003 8.134173e+002 1.948390e+003
         vertex 1.228792e+003 8.104174e+002 1.885590e+003
         vertex 1.228792e+003 8.107994e+002 1.885557e+003
      endloop
   endfacet
   facet normal 1.000000e+000 1.040834e-016 -1.026531e-018
      outer loop
         vertex 1.228792e+003 8.107994e+002 1.885557e+003
         vertex 1.228792e+003 8.111698e+002 1.885457e+003
         vertex 1.228792e+003 8.134173e+002 1.948390e+00q-ä   †  enddoÔp
  endfac%u
  !facet horial ±.400800e#040!5.2$0(1$e/032 %1/02&771gm00
)"   "oqtEr loorù® 8  0 ( verveR ë.228792g+003$8.03$133e)002 1.54839`e©003
 (   ! 1Änebtex 1."87x2u0∏(ú.≥11>98g+±02 q.885Ù=∑%´0 7$)!     (Vmrt%z 1>˙"79≤e+00108.115133e+22 1,88595e+803
   !dmdlkoqü
   dndfgcet	
† en!ca| .osial$ß.8∞p000e+0≤0`,0&083$e-0µ6"-1.0>534g-09∏
$! 8§ ouer lop
(† †    "vÂztex"1Æ285y2+003 8.134573E+4∞285.π∏38 a+00#N        vartex 1.22839:e*∞0081957sa#p0s01.88=2)3lk801
 †(     Tertgx s228792ekpb3 8.1135e)002 1Æ88u4'5e´10≥
0`!  end,ggp	
!  enFfac%t $ f`kEt normal!1.002 08e*2d0 !.0$ 83$e+ 15 -1.06&531e-018Ç0 !  kvtEz looP( !®2†  `v%Rtex1.R"8492e#xr"7.π6të9¥d´p00 ±.88µ30g0T7<
  , ∞!†@0Ùmptey"3""28792a´ 03 ò&08/321e+02: ≥*944¥e308çJ( 0  8 @ vertex 1."v87=2Â#4≤3†wÓ9≥4074ek00# 3.948s9peÈ003M
`   + eldlomp
` !cndnaae~†`$gÌbev .Orma| 1<:0∞00e+∞0 °2p4¥8s1e≠22%≠q.0#753qe-118 c ï $gu6eb |oop     †   7epTax`1.26:79e£003 7,934±6¥e;002 4.94979™e#0p` °$   `(v%vte˘ 1.:v0∑92U+00s 828331g+q82!1.88480¥ok123!  h     6e˚tÏx 122971"e+ ∞3 8.090832e+03`1.0850∑7Âk00µH"    undIog4ç   e:tfacAÙ   na#et!lnbmal 0.00 40pa#10001n044x34e˝t16 -±.022531e	218 († 0 ∑wteÚ loOp †  " § àfRwe: 1.2:<79bm+003 #+y34174e+†0≤ 9.948#90a+p∞7! 0 †( vmv4ex ;>22(792e+093,8#0=±432e+002 1.8(<p75e+∞03
  † $8   ~er|ex 1.22(792Â;∞91(8.1≥173!+002 1,8x5"9-a+809	
$p !  a&dlo/p   endb‚ge4
!® lacet nkbÌil 1.0020 0g+00±"1æ0409#4%-2!7$-1x22u31e-19ä † "`!ouTep loop
 ` 2 Ä  $6erpm8$1/r29792a+003 <.28355eã002'1>2le075e+0 30    "   t%s4%8 1/"2879≤e)∞9 (.52±022ej002`.8808pe+10#$d   9   2epte8¢=.≤28ó92e+003 8N134+7;e+002®1.(4039(e+003    ¢ eN$noop
 4 endfa#et
  (dace4ÄnOrial 1.0020p0ek030"0,p40h34Â-017†)1.42>q33e)≥8	
 ¢  !†ouuur†lJop-
   0  † "ve"ta 1.≤2∏?92eo0∞7‡8Æ361#359006 1.148s80e(182
!" `$  0VErtÂx†1.268791Â003 :.121¥∂%+ 42 1.88$805g007Ä!  ® $`Êertez Æ"í878≥e+03(8.9223∂dk002 0.ò;6590m+003 1∞(  ÂndLor2
  @Ándfa#gpÅ$!faceî nsmah01.00004d+008$q.p448≥5e-012 lQ.022u31m-21x™ †    outdradkp
 l     00vÂrtEh %.2r878zE#43$8n1341˜3e+00í “>â483Ω1ı+80∞M
    ` !  ve“eÂz 1Æp68792e)001 8.%222"m+04201&884=94u+00≥ Ä` ` p veRÙe¯#1>2287π:e´0∞s 8.12$:45E10∫1.8ò|1ı:e+0p3Õ` `   enÙlmmp	*  ®GldFacutO   na#et"ÓozmaL 1.0000±0e*0 2(1.1:4:∑<g≠01`,±.02∂5qe-018 #  ($ku‘gr†lmopä  # †   <tmr4ex q.2686;rgk 03 8.907=9$e+00r"1h81≤21e+0(2   `¢ † ˜dÚt%|"5.20873re+03":304175e+00&q.881Ò90e+r3 $ 
$  " tmrTÂ8†1.0>'i2o+003 8.1341w#e#0 r 1.873390d+003J  (Ä 0eldlgopä $ e~dfacet0  faceu ÓbMul 1/08∞000g(!1 1Æ0¥0:≥4e`16 -8.<36571e- 18 (0 $(m5tmr(l/kt
   1  $®wer4ex 1.r2>752e+ 0 8.1341w3Â)00"±.8?33=0g+8 3- 2   `  )vevumx 16087±1e+∏03 8.004175e)p02`1.8x91Ω0Â*00#M  !   0` verte}  n≤28˜92e´0p3 0.100;53g+∞0&`1&80±627e-0≥h     en$,oop $#efd&Ècut-0 !facDt"ÓoÚ}am !81084e)000 9.:6 834E-81∂ -±.026=#1-148å
 ®   outdrdÏoop
   $0`  wertex†1.≤r87r%+12; 8.1c0?3mk 0" 1.873≥91e/20sJ $       ˆeÚtex"1n628;92d+00"<.≥00341e+40"d1n∏80≤3e;0#`0  !†  TdZtÂx .*28∑96e+002 1.=3¥974u™102!1.83ì90e+03`  0 (efulomP]
   Ânffac$4
   focet nor{al 1Ø ∞0000e,008 1.0∞830dm0;6 -∞.27131e,418
 "` 0†/uter loop
  $ $`† ˆertex 1&:2∏92e+003 7.(3p1<ek0 2 .873"90e™03
p    (d$ fgrtex q&2289:e+003 <.µ00'µ'e/∞p2†1.89q2r3f+`*   ! 4  %ˆevtex@1."∏7; e+003 ∏&¥)2648e+00: 1l81;23m+423
 †0 "0o~adkor   uddgqcÂt
   Êakat vovial 9*p 000e+∞00$1.448074e-0Q4`-1&02R135e-019L
 ` †  Ôuter l-p
  $ ,0  0Retex(1n22x79Re+03`7.;34174e+02&†.8=3390e!803
$   ( !† rerte¯ 1.0087q2%+003(8*pπ0649e+0011.881;≤;e01#   b!"! terti8!5.2r8390e+∞0≥ 8.9±1w3e+0: !&891485E+00±
"$  ¨ mjBl.op
!  enlFesgu
" !&`ced onrmal$3~p0001ekpp231.∞<1836d43∂ -0.02652±e-018
 ! 0 †outer ,Ogp
 († (8  06eptex†1>228393ei083$r.08';2pm+04:01l∏x19≥6e+003M
  0 ` $(0VertGx∞1>3≤x;2E+003$'>9∑168pÂ+±02 Ø8856=7e+00{-ä0     $ 0ˆerpex$1328wre*<03 8.∞80∞s≤e+002 1f880704e+0%c  & & en‡hØoı
  `envfaÎmt   gacuT normah°&00090Â+∞00 9æ080x74p-0q -!*0≤7531g-!p   †$  uÙer`lgop
"   !  e ver0eH$±/26∏72ek30; 8$485125e+00r 1.88Ú:y0e+003 !h $ 0r vert%x :2x7!0e+0 3 ®.002∑r2c+∞2!Ò,∏826s7e)02
 f 0    %vepvE| 1.r2v9"e/003 7/97)698e+4ê2 1-8(5%%µe+20>
*``!  dndLoodK  (en`fÒc%V
†"†ficmt .ormad%1.000 00e„0∏0 1,0:883te,17 m1p265≥1e-11)     kuucp loOq
 "! $   d~wrpmx`1.22∏592uk∞0s`7n9'1.;8e# 0 9Æ0(5457e/003    # )b vert%x 0.22<u;2e+p0≥ 9* :2%0pd002h0.88 62')+003
 0" )$  terax`ë.≤rºw:2e´03 8.182588w+ 02†1.x0≥t08e+103&)1  @ en`Noop
   'ndFq„et-
   fag%v .oR-qh†1& 3000e+000@q.040(34a-016(-1æ02¶uq3e-$18
   ` `o5ter ~`Õ
   (   $VgpÙGx†q>r2x7x6u#007 7.978698e+0p2 °^8405∑g+003 " †% 0* vwrtg8 1.∫:879ru003 8.082508e+0p≤ 1,x8r≤08e+ 0±-
(   0 $  ~ervu8 1>328'92e#"03!7.947894E{042 9,<80115m+0
  †   ÂJd|No*  `ondÊkceuM `!facatÄnosmal,3.0 p004e+00P%0Æ0î0814e-016 -9.826531e-∞18
 t    outeÊ$looQE
$ (   "§(~grpex†1*224792mk∞23$7Æ967994e+002*1∫8∫5µu7!+00c-
 "  $ ) `ˆavtE805.22879re+00408.¯65 Â*02 1.083008e+003ç
 †     † rurpa8 1g2r87;3e+2p3 9.t255£U+0 2 ±.8º33˘:E+053
   † eÓ`loopç
 : eNdfac%t4@"FaCcuÄnOrmal$±.0‡00µ0e+1∞0b!.06083¥e<0u4 -1,02603 d}p18
 0  $ cut-R"lOop
`    $ ∞(vdrtex!3.2079se)003 7.966994%+002 .<™%55u+P0;=
 h` , ±" vertep 1.26879:a+123!8/082∑3e)∞8≤d!/803390m´ 3$       (vest}x!1.228692e+203 (.(8208e+r∞p#. 83572e+003
 $ " dÓllÔox	
   u>dv`cet	†  Êccet lorOal"5.p8000E+000†1.04 830e-01>0-1.02673±e-∞18  0 †"c˝teZ!|o~p	
 $$$ `   &grtex(1.≤2872ek(07 8.p0032e!802 1*881505e+∞p#" `$ 0   ˆer|ex,1.≤3<7=2l/007 7.97±218e´006 1<8<<%?e#003J1  " !  0vebtex °.∫&792e0∞S†(¥9≥}'#eK0q6`q.884π5˜+0∑
  $  !mŒfloÔpB   e.Ddaaed
$ $faggQ"nÔreal 1.0000p2t)000†1.0pP814e- q& 0&1265#3m)018!Ñ ∞  outer†lnkp
00!  "   veÚ|ex 1>120w;:e+003*8Ó099173d*602 1.º81485g+003     $Ä  verd%8`1,22Ë71≤e;0020.870698Â+ 2(1.(8µ4%7·+∞3	    "   06mrt%Ë 1*22879cE´003 Ø.9711?3•+012!.82i5‰'023
   0 $endLo0 $ e~E&acet
   f!cep opmel‡1.00t00pe+ 01 1.0$∞8#4e≠0q>0-2.p2v7S1e-018
  † † outmr`lk/p
    `  ¿ ve~texa1.22X792e/083 9é01317≥e+02 ).8q4∏ue+03Ì
    &h"  rertdh ±l2∫8792m#80≥07975173e;0p2b1Æ805295e/∞0s  † ®`$! vÊrtex$.229792e+90? 6Æ97∏7±1e/1p6 1,x8= 75e*013ç
Ä ( ``eÓ$moop
  †eldfacetJ!" facet fobmal 5.0008 0*P0 1.040<74et16 -5.026=3e01∏
 `$† Äoq|ur"loorç
"( !!   "veruex$1.2∂:792e/0w 7.π58559e+03 .807075w+00≥	
& † † ¢$0ˆer‰x ±.020792e+003$7Ø98Ò826e´00¢d1.88¥8!$ek83
¢ ! († 0vDreX`.22892e/00 8*393173ek028nx0!4uek43™$(%   endhooP
   mnegac≈p
B "bÒcet jkˆ-an ±.800 ∞0d+p00"∞o041824!-017 °0,0265≥1e/98ç   `$ ouTe&(lkoqD! †d0  0verTeX 1Æ"28792a+00≥ 8*π0S71e+00r 5.>8145%!003
!†! 0  b fertex 1&r68sπ2a/007 7.98∞r¥E+00í .8:48 4e+0 ;
`  2    !nEÚte\ !.628?2e©00! ?¨9<32s>m+1p2`!.884480e+ p1
$ " ¢pendloOp
$© e&dfccÂt   tace< LoRll 1. 80080d*00 8.4483u/0p6 -5.1675c1em038
(  " !outes lmob™$†  " ¢  rdrtex$1.3x792e#ê0≥!8.083;33g+002 ±.8±885e;∞01
b0 `   $Ùteruah`0.20=/)2e+00≥$7.9(12:&e+p*2 4æ884590e/1p3
 †0  0 †vePtex 1Ó2≤8'90g+†0Û 7.9∏44g+04∂ 1&3841<2Ì+303
   ¢$ Ân&do/pE
  (Und&cc$tä   fcc%t norma|`1.10000 e+ p0 104034e)060.1.∞0655e-118
  " !†outgc loop-
   (0`!  rgbtdx Ò,02<v)2a%q0s <n093173e+006 1$x8!48=ek203
`     Å ¨vertgx 1&2087=2e ;0.8683q1t+002 3n8<∑ 5e9q3
  $   0 (veÚtex†!."≥072#003 7.1341∑4•/∞0: 1.<7338:e00ª
   `( end~okr
   ·nlfqgEtH0† &aaep Ôo2m·|†3.000p00e+010 3:4p8;$e-09∂0-9n "v=31e=018
    0 ottaz loop›0!  !†   6aÚtex 1.22792m?8030>934164%+006 q.87s3øpa8 ;    ( $  V$6tdP!1.22859"e/03 7Æ97031=gj00" 5.00=705Â+003
   `! °0ÄveRte|$1j22<716d(p07†7.=11w3Â+0"2(1&8∏185okt1#ä	† 4  Anllnot
 ∏ enhb¡su|M
 2 faCet"nobm@l 1Æ0 0000e+0∞ s.04083·-r±& l.∏2653a 98
` `  "oute3 loor ($  0$ ¢v•rtex 1,b2|79e;03†7.y34178‰'202 q.8032a0u´0ê#
 "    † wavÙe¸ 1.2b8782w;003 w.z≥597u%/00 a"84145e:r03
  (    † tartmH 5.220792E+00s®7n971∂9∏e00:`1Ø8z132g;20q   "  Ejdlg&
   unBfeCetç
$$ faget fnrÌam"1.r8002d+040†1,044<34d%016 ¨1.224431a-18
 "H @†o5tar lor
 (  `    ~eptex ±l22x7pe+802§8.32<47dK082@π.ò84qrd+003  ∞04   ver|Ex 1.22872e+006 8/12%x3g+0:†1/8x7∑w0e+4 3-B % $c `  r]rtex∞1n2287y2a+0a8/934π7;e+0≤3 1.958s94$+023† 0(@ Endmoop
   anFfÂkÂt
 ! f!„etoorlal q00 420w+020 1.040834-096 ≠1n∞26531m- !8ç
"(†  "outez"dÔo`
   †   `†vertex 9"228782e+043 8,0361?3u´00r °y0890Â+003
!      $ vErtey 1."381e+083 8&12=+9m+02: 1.9837≤D+003
  `("    bdzpax 9n2r8w;2e;003)8&12æ174e)02 0.88332g+083©
†  ∞  e.dloopJ   !Óeb·ie6	
   vm„et jobm!˜ 1.00∞000m+800 ∞>4$H8#4m-06 -1026731em018
 `$   œuîwr l>op`       `reRtdh*.638780e+;03(,1{µ1™3u+00b 1Æ9t83!0e+03
  !†  °  fertex 1:2æ8392d+03"8.±261'4Â*002 1Æ88≥#90qk082
      " $ˆertex ±.22:3y2e+003$8.134173u+00(!.9's39%;011
   († Ân `mor
   Endfecet
`  faAe‰ noRm!l 1Æ020 00%+00000*x4084g-∞16 -s.026=3e-t!8
$& ` $oup$r ,+op
 ! †     v%vtwx(0.228')"e/ 03 8n3s617¢e*023(1Ï8∑3∑4u+42! a `  ¢ ÚurÙey 9,0r<7q2e+40s†81:v1?4e+00:Öa.(83390e)00sd $`$    rerxex ±&:≤8792e+003$0Æ1≤5π3;ek000`1&88;108-+00;
$†   ÄeO‰loop-ö(‡ endf`cetä  ®facep n/r]gL 1.080000a+000 5.4¥0,4e/0162-1.024539E-05(    ( outer`Ïm/p
   i$  `®vhbtÂy 1*2≤(692e+4∞3 8¶991o3e+00R‡7>83485e+p03
 "†    !!wer5ep 1,22702e+003 '.9808;9%/08≤".8<3008e+003
$$       t%rpUx 1*29>7:f;003 7.:8∞847e08E1,882635Â+40M( $   andxOnt
 $"dlfface}
† (fcceı nozlal q.00080e+28 900`87e-!$ -1*126531e-018"$"`(0nupmr looPM
""  p*¢ (veÚdwx 1.2"<&i"e)∞4≥"8.52939·042†1.88≥008e:003E
 ,†a"d ‡peÚtÂx$I'4∏392e+042 8.034047e+∞:01.<8≤636d+003(   $  4ve0tÂx 1*r28792e+003 8&1ì41'3Â/¥12(1.8∑13!0m+00#à    ( e~e‰OkP
(" %fn&ace|ä  0f!Cut noRmim 5.002t0%+000 1.040<34·-016 -1<02∂531d,01ú	    $ Outer lol
"""®    wE~te` q.2287?2$+ p; (.!≤4¥w3Â*q02 ±6833#0u+003
!$†`†    v$rtdx 1."379"%+¥ 3†8´94843e+00* 1/x:2&37g+001®  ( ¶($ vertwh‡1.2≤512e+003 ∏.123226e'403±*922ypq)0∞3
 "!!  endloop	ä`§0elfgas%*!  fac%t°lmrecÏ"1N020018Âk∞00 1é0¥03te/096†-u.006µ2∞e-018Ω
`     outer lo+x!` (    0vmr|Âx01.r28;9~e403 8-1341?3d+006 1n8/33ª0e+`03ç(      ($vejtex$16r"85y2e*083 8.2322vu´0ê2 9,882290e+p03
    (0†  vdrtex 0.2879≤E+023 8*121826Â+032 1*(819'5e200:M
  $   en‰lÔop
( !enmvacu4
 , $ac%vÄoormaÏd100x pe#000 1.∞4 =34$-016g=!.0630e-08≠
   Ä& o%t%r mOoj-
      "†$vg{Tmx 9.≤20?9e)007 7.9y49'Ö+08"†1.8x494rÂ+0X3	ä    $    vert%x Q.2r87π2ı+003 µ985x39e+082(3N88;73eÎ 13ö"`"     ror0Ex†0.22879ñ%+∞0 8.0=sπ?#e+0 2 ±,<1$85I+1L`!*   ınudkoa
†$ gNe@yce|
  !f!Ced no2m·l 1µ80p)00e+8<01-848*34u-01∂ -1.06531Ìo098ç,     ottmr$ÌoÓp
†  `  !$ ve2tex 1.3r792E+83 (.09!73e002&±.88348%g+0Ë3Õ
   "!! 0 vÂr4ex 1.22<693e 08ª ∑.98=819akX02 1.88377"e+0q
""!"    (bertay 1.20871 ek003!'2986367e©01‰1.x8339pe+0
†     aÓdhooyM†pen$fecEt
 00Êaba$ NoRÏal 1>00400E∫000†!&00 82<E-60-.00ñe31e-∞38ç: `` †!ouWer dOp
(   "0` 0te∫tez 1.:p792e+0∏3(8Æ0<3±73e+0•7 1&8x1¥<5u*003 ,`      6Ârtey 2&0287=3e£203 7/98&977e#0 2 1.8®37)0e+823
 "@(  ( !vmRtux 5Æ228712e©0∞3 7.9850±ek∞2 q.80320:e+003
  ( $ ‡nflooP
  <end&acut  †facit nkvmql 9/000 p0'+00µ >14 85te/0±6!-0.0265s=e-`18
   (  n’teÚ"loG0
 (    §  webtmX(0.027©2ej0 3 3.9848t7t+0021.:"637d+023  ( ($ † ~µvt§x !/226q0e- 03†6Æ9h3:26a"$02 1>883r)pe*∏03*  ¥ † `4`Vertex 92í879m/00; ∏0y?5#3e*012 5.889(5g/093ç
     eonlom ` eldlas't"t facet nkBmah&p.0111∞ E+000 9∫q40(34e-0360!*∞2753!e,058
"   $oUtdr!loop
  0  ™ !r%stex$.2∂8∂92E+20W 8.19#±73e;1 205æ<(14∏5%+003   ! †  $v%StEy"1.2r ø92Â+p0#!w.9822"6e´40≤ 1Æ82294d+`03
†$` $(† (vmrtmy a*0z(s	:%+00s 7.983026e+p0 1,8)9'7E+003
 8` &$entnoop
"  enffacet#   fagE0(nojmaL 1.p0∞801m*020 0.0$034e-0±6 -1.245;qeL03:$(    ou4er loop
"„$   Ä" vertex 1,2"x391Gk043(8Æ093?73e+0 2(!&:808e+803ã (   `  !verd≈x 1.268ó9∞u{†0sÄ7.?9x6e+002 1>;<1916a+20≥
@ $   † `RerVex 102879≤e∞03 7>;?z315Ì+00 	.<8q∂05e+00s
` (   e~ddkOpG  †qjdg`ceT† !&asÂt!ooream .200000m) 00†1,848¯3<ee016†=1.022731‰-2°8 ∞   0Outep dkoT
 †  !    vertey$~≤287π2g+003h8.523026%+00r!±&8x1iø6e+0≥-!†(0!   $vEÚtex$1":22v;2eª203 8.1±:315d+02 5®81605E+103ç
      $ "fcrÙex"1/2&8796e+003 <.13413seÎ40 /873(0o+101
   †!undloop
  (dnddacmt)
< $fcce5$nov}a, .020000e)0∞0 1n1<083$E-03w`,q>∞2653µt-0<8
`p   !o5ter ÏoÌ`  $ `"    ÊerÙdx 9.228s9∞t+003Ä0.17450a+006†1™8?13ª4e+003
   $†   $verte¯ 1.2∏79∏g+003 8.1∞8315ek000(1,∏81w05a;003
       p |ertux†!*22∏39êe80s x.q1373eqP2 1.:81485e+20≥
!† ∞  enedo}pç+ ! Â.‰gacet " f`jev jnr}al1.0810l†e*Ú 0!±>0º 83p%- µ %9.026µs5mh018ç (@ $(oeÙeQ§loop
  `   ` ÄtEztex 1æ2∂896e+083 8,114173%+000.∑3790g{407
 $`  0  (wartex¢9.2r:w	2d+1±1 8*1q433e+002 1.8x±4(7e/003
  f†&%§wert5x 0.Ú2878e™003 (/10169∏e+00 1.∏8132e+04;
   ( "•ndloopJ   enefacer
8! dRrut†n/smal 6>27198±u=0# ≠)*?8#}0e%∞00 )5*(0W91 e/003
(    †outer Ln*p
`!   ( 0 vdrtgx 1§2592e'∞03 7*Ω8±839e 02`1&x8377:e+007
  * (0   vgvt%X 3&≤+3792e/0p: 7/m∏60';ek80Ç01n0∫S380d#0≥
!$    !("vdrtux1$62:703e*0 + 7.986±?£e*016 3.887790e+p∞3
"0b( †enDlOop’  $en|dakduE
  0fdcdt f~rmclp&Ó5π695E-≤µ ≠1.903120Â-120 5.8379q4e)212  & ( Outer l/op	
  !  $&  6mvtmx$p,"28692e#003 5j97173e+0pí 0.882390u#423	
( ` "  ` ver|ex 12r3792e+êr3 7.9916s5.08 9.<8#390e+40r
 6      06≈vtex01o6s7≤+00; 3.π8µ839E#∞ 6 1/x83019e+0;
 † $! Gh$Nopç
   enlf·aet
   lqcmt nomCl ˆ.127¶95u-086†;.9Q2307o,000Ä1Æ)205<e}01-
  !  †outev$loopä †$ 0 †`!vÂr4er09.2"8392d+0 3!'.8863?3m´0120.883+;0e-00    † §$¢vurtex &223?:2Õ)07 7&985∏38e+p36 1.88#p08e?0°3ù
0("`"  % veztmx !*"28g=2uk00w 7.901939e)012 3*893148≈+†03
  ‡   en$loc|
,` dndzAcut
0 $fqcet f/v,al 3*:≤5836e-217"-9.'2V01e- 0≥`2.215y8Â-r5#
""  00kut%q"lÎop
Ñ (  † 1`vertex 9.02892a+03`'.)x5038mØ 0" !.88≥028o003!&     Ä`VmrÙex 1.:23'9:ek001 7Æ95831e202(∞n∏50 :e+003   Ä £   v%rtMx01.2#393o23 *8<84#m´40Ú 1,89277G+203 0    aÓdloOpM
 $ end`aaetå
& `f·`o4`no3Mah!577≤r2d?8!w -9.53yá0&i-101p2.8682e-801ç
    $ outer loop
†$(  $(  veV4ey$1&285)0e/20:†79950Wym+2 1.883p0g+003ç
  † " ( veR|Â8 1&23378"dk00`*9X4:l3+00: ;.(063'Á*03
         vÂrlÂx y.228wª2Â?107#7.π841*7e/002 1,886P37d+003 0  † mjdhkop!  enÊgecet   fa#et no2mal 5.|782p<eÖ01' -?n580$22a/0209≥.90194u-47
  ` $ o}Ter loop-ä` $   $$®bezDep ;."39?92A+003°7.:8<847e)002`5/802';7m+003-
      †0(÷%rtex0Ò.2r1792M/π,3(7.98t847e+ 02$q.8(Ú63=et 3
†!0   !  vaÚ|!b 1.2"35=2Âg0p3 7.98Ú2&e+0 2(1.8<22p* 03      e~dloop
 0"endgacet	
  hf!ce4 no2Man 5.214605e-01w -8:3∂431e-001 4.˝885x0g-∞41*†  0  kuter ,o0
   ! ( ` ÷gruEh  .2"879"e)0x≥ 7.884857e´000)1.x:2>37l+00{
  4  "   p%rdex 9.2337;2e+243 ∑*}93r2∂e*002*±.x8220w-20;
`    $  r≈btÂx 1.2r8792Â 03 7<1<3≤"4e+8 3$1&8:2r0e+1p#L
    a Mn|`Nkt
  §ejdfakE|-   fawlv%ÓOrm`l U.62919e¨87 ,13µ4Ú40d=01"5.#4500e=001
 d   `o=per loo–N†(∞  !$  veqTÁ8"1/r2,3=2e)(83`7')83026eo002 0.88292e)0≥
!"    †  V`zVd| 1.2879zdk003 3.y8322e´400$/X:620f403ö `  i0†!¥~Âr|Âx†q.22#792ı‚42 7:1010"6u+012 3.<8#97e´043-äh  0" %Ólloor
∏  e*tfy#gtä!0 f`cet noÚial`§n62323ue%077%-8.p:8∏38em∏:≥ ∑*972!±0e-081
   (	`nut-p LmOp	
 *  $ 0 `v%b|`x 1n≤r8792e#40†7.98:27e+p2$1.882280‰+043"$      !veÚtei 5.223∑y>e+∞01†7&98±226a+002 ±*8<≥976Â+002* ,    §.bfmrd%x$1.22#92e+00 6.9∏!06Â+00r 9.x8aπ76e)003
‡!!   endlÔot- " aF$g`cet-
  ,fac- |mrmal609∏$71e-p1' =7.2¥0188u-p∞1"∂.861938e-001
      outer loop
         vertex 1.228792e+003 7.981026e+002 1.881976e+003
         vertex 1.223792e+003 7.981026e+002 1.881976e+003
         vertex 1.223792e+003 7.978315e+002 1.881705e+003
      endloop
   endfacet
   facet normal 3.815390e-017 -6.861938e-001 7.274188e-001
      outer loop
         vertex 1.228792e+003 7.981026e+002 1.881976e+003
         vertex 1.223792e+003 7.978315e+002 1.881705e+003
         vertex 1.228792e+003 7.978315e+002 1.881705e+003
      endloop
   endfacet
   facet normal 3.211463e-017 -5.972114e-001 8.020839e-001
      outer loop
         vertex 1.228792e+003 7.978315e+002 1.881705e+003
         vertex 1.223792e+003 7.978315e+002 1.881705e+003
         vertex 1.223792e+003 7.975173e+002 1.881485e+003
      endloop
   endfacet
   facet normal 2.891617e-017 -5.494540e-001 8.355240e-001
      outer loop
         vertex 1.228792e+003 7.978315e+002 1.881705e+003
         vertex 1.223792e+003 7.975173e+002 1.881485e+003
         vertex 1.228792e+003 7.975173e+002 1.881485e+003
      endloop
   endfacet
   facet normal 2.225877e-017 -4.488580e-001 8.936031e-001
      outer loop
         vertex 1.228792e+003 7.975173e+002 1.881485e+003
         vertex 1.223792e+003 7.975173e+002 1.881485e+003
         vertex 1.223792e+003 7.971698e+002 1.881323e+003
      endloop
   endfacet
   facet normal 1.879983e-017 -3.960194e-001 9.182422e-001
      outer loop
         vertex 1.228792e+003 7.975173e+002 1.881485e+003
         vertex 1.223792e+003 7.971698e+002 1.881323e+003
         vertex 1.228792e+003 7.971698e+002 1.881323e+003
      endloop
   endfacet
   facet normal 1.172658e-017 -2.868663e-001 9.579706e-001
      outer loop
         vertex 1.228792e+003 7.971698e+002 1.881323e+003
         vertex 1.223792e+003 7.971698e+002 1.881323e+003
         vertex 1.223792e+003 7.967994e+002 1.881223e+003
      endloop
   endfacet
   facet normal 8.112267e-018 -2.305518e-001 9.730601e-001
      outer loop
         vertex 1.228792e+003 7.971698e+002 1.881323e+003
         vertex 1.223792e+003 7.967994e+002 1.881223e+003
         vertex 1.228792e+003 7.967994e+002 1.881223e+003
      endloop
   endfacet
   facet normal 8.380871e-019 -1.161583e-001 9.932307e-001
      outer loop
         vertex 1.228792e+003 7.967994e+002 1.881223e+003
         vertex 1.223792e+003 7.967994e+002 1.881223e+003
         vertex 1.223792e+003 7.964174e+002 1.881190e+003
      endloop
   endfacet
   facet normal -2.821781e-018 -5.807914e-002 9.983120e-001
      outer loop
         vertex 1.228792e+003 7.967994e+002 1.881223e+003
         vertex 1.223792e+003 7.964174e+002 1.881190e+003
         vertex 1.228792e+003 7.964174e+002 1.881190e+003
      endloop
   endfacet
   facet normal -1.007587e-017 5.807914e-002 9.983120e-001
      outer loop
         vertex 1.228792e+003 7.964174e+002 1.881190e+003
         vertex 1.223792e+003 7.964174e+002 1.881190e+003
         vertex 1.223792e+003 7.960353e+002 1.881223e+003
      endloop
   endfacet
   facet normal -1.367009e-017 1.161583e-001 9.932307e-001
      outer loop
         vertex 1.228792e+003 7.964174e+002 1.881190e+003
         vertex 1.223792e+003 7.960353e+002 1.881223e+003
         vertex 1.228792e+003 7.960353e+002 1.881223e+003
      endloop
   endfacet
   facet normal -2.068368e-017 2.305518e-001 9.730601e-001
      outer loop
         vertex 1.228792e+003 7.960353e+002 1.881223e+003
         vertex 1.223792e+003 7.960353e+002 1.881223e+003
         vertex 1.223792e+003 7.956649e+002 1.881323e+003
      endloop
   endfacet
   facet normal -2.410304e-017 2.868663e-001 9.579706e-001
      outer loop
         vertex 1.228792e+003 7.960353e+002 1.881223e+003
         vertex 1.223792e+003 7.956649e+002 1.881323e+003
         vertex 1.228792e+003 7.956649e+002 1.881323e+003
      endloop
   endfacet
   facet normal -3.066302e-017 3.960194e-001 9.182422e-001
      outer loop
         vertex 1.228792e+003 7.956649e+002 1.881323e+003
         vertex 1.223792e+003 7.956649e+002 1.881323e+003
         vertex 1.223792e+003 7.953173e+002 1.881485e+003
      endloop
   endfacet
   facet normal -3.380364e-017 4.488580e-001 8.936031e-001
      outer loop
         vertex 1.228792e+003 7.956649e+002 1.881323e+003
         vertex 1.223792e+003 7.953173e+002 1.881485e+003
         vertex 1.228792e+003 7.953173e+002 1.881485e+003
      endloop
   endfacet
   facet normal -3.971068e-017 5.494540e-001 8.355240e-001
      outer loop
         vertex 1.228792e+003 7.953173e+002 1.881485e+003
         vertex 1.223792e+003 7.953173e+002 1.881485e+003
         vertex 1.223792e+003 7.950032e+002 1.881705e+003
      endloop
   endfacet
   facet normal -4.247712e-017 5.972114e-001 8.020839e-001
      outer loop
         vertex 1.228792e+003 7.953173e+002 1.881485e+003
         vertex 1.223792e+003 7.950032e+002 1.881705e+003
         vertex 1.228792e+003 7.950032e+002 1.881705e+003
      endloop
   endfacet
   facet normal -4.755176e-017 6.861938e-001 7.274188e-001
      outer loop
         vertex 1.228792e+003 7.950032e+002 1.881705e+003
         vertex 1.223792e+003 7.950032e+002 1.881705e+003
         vertex 1.223792e+003 7.947321e+002 1.881976e+003
      endloop
   endfacet
   facet normal -4.985996e-017 7.274188e-001 6.861938e-001
      outer loop
         vertex 1.228792e+003 7.950032e+002 1.881705e+003
         vertex 1.223792e+003 7.947321e+002 1.881976e+003
         vertex 1.228792e+003 7.947321e+002 1.881976e+003
      endloop
   endfacet
   facet normal -5.394800e-017 8.020839e-001 5.972114e-001
      outer loop
         vertex 1.228792e+003 7.947321e+002 1.881976e+003
         vertex 1.223792e+003 7.947321e+002 1.881976e+003
         vertex 1.223792e+003 7.945121e+002 1.882290e+003
      endloop
   endfacet
   facet normal -5.572783e-017 8.355240e-001 5.494540e-001
      outer loop
         vertex 1.228792e+003 7.947321e+002 1.881976e+003
         vertex 1.223792e+003 7.945121e+002 1.882290e+003
         vertex 1.228792e+003 7.945121e+002 1.882290e+003
      endloop
   endfacet
   facet normal -5.870505e-017 8.936031e-001 4.488580e-001
      outer loop
         vertex 1.228792e+003 7.945121e+002 1.882290e+003
         vertex 1.223792e+003 7.945121e+002 1.882290e+003
         vertex 1.223792e+003 7.943500e+002 1.882637e+003
      endloop
   endfacet
   facet normal -5.990244e-017 9.182422e-001 3.960194e-001
      outer loop
         vertex 1.228792e+003 7.945121e+002 1.882290e+003
         vertex 1.223792e+003 7.943500e+002 1.882637e+003
         vertex 1.228792e+003 7.943500e+002 1.882637e+003
      endloop
   endfacet
   facet normal -6.167839e-017 9.579706e-001 2.868663e-001
      outer loop
         vertex 1.228792e+003 7.943500e+002 1.882637e+003
         vertex 1.223792e+003 7.943500e+002 1.882637e+003
         vertex 1.223792e+003 7.942507e+002 1.883008e+003
      endloop
   endfacet
   facet normal -6.225695e-017 9.730601e-001 2.305518e-001
      outer loop
         vertex 1.228792e+003 7.943500e+002 1.882637e+003
         vertex 1.223792e+003 7.942507e+002 1.883008e+003
         vertex 1.228792e+003 7.942507e+002 1.883008e+003
      endloop
   endfacet
   facet normal -6.277765e-017 9.932307e-001 1.161583e-001
      outer loop
         vertex 1.228792e+003 7.942507e+002 1.883008e+003
         vertex 1.223792e+003 7.942507e+002 1.883008e+003
         vertex 1.223792e+003 7.942173e+002 1.883390e+003
      endloop
   endfacet
   facet normal -6.271981e-017 9.983120e-001 5.807914e-002
      outer loop
         vertex 1.228792e+003 7.942507e+002 1.883008e+003
         vertex 1.223792e+003 7.942173e+002 1.883390e+003
         vertex 1.228792e+003 7.942173e+002 1.883390e+003
      endloop
   endfacet
   facet normal -6.196945e-017 9.983120e-001 -5.807914e-002
      outer loop
         vertex 1.228792e+003 7.942173e+002 1.883390e+003
         vertex 1.223792e+003 7.942173e+002 1.883390e+003
         vertex 1.223792e+003 7.942507e+002 1.883772e+003
      endloop
   endfacet
   facet normal -6.127695e-017 9.932307e-001 -1.161583e-001
      outer loop
         vertex 1.228792e+003 7.942173e+002 1.883390e+003
         vertex 1.223792e+003 7.942507e+002 1.883772e+003
         vertex 1.228792e+003 7.942507e+002 1.883772e+003
      endloop
   endfacet
   facet normal -5.927834e-017 9.730601e-001 -2.305518e-001
      outer loop
         vertex 1.228792e+003 7.942507e+002 1.883772e+003
         vertex 1.223792e+003 7.942507e+002 1.883772e+003
         vertex 1.223792e+003 7.943500e+002 1.884142e+003
      endloop
   endfacet
   facet normal -5.797223e-017 9.579706e-001 -2.868663e-001
      outer loop
         vertex 1.228792e+003 7.942507e+002 1.883772e+003
         vertex 1.223792e+003 7.943500e+002 1.884142e+003
         vertex 1.228792e+003 7.943500e+002 1.884142e+003
      endloop
   endfacet
   facet normal -5.478608e-017 9.182422e-001 -3.960194e-001
      outer loop
         vertex 1.228792e+003 7.943500e+002 1.884142e+003
         vertex 1.223792e+003 7.943500e+002 1.884142e+003
         vertex 1.223792e+003 7.945121e+002 1.884490e+003
      endloop
   endfacet
   facet normal -5.290605e-017 8.936031e-001 -4.488580e-001
      outer loop
         vertex 1.228792e+003 7.943500e+002 1.884142e+003
         vertex 1.223792e+003 7.945121e+002 1.884490e+003
         vertex 1.228792e+003 7.945121e+002 1.884490e+003
      endloop
   endfacet
   facet normal -4.862919e-017 8.355240e-001 -5.494540e-001
      outer loop
         vertex 1.228792e+003 7.945121e+002 1.884490e+003
         vertex 1.223792e+003 7.945121e+002 1.884490e+003
         vertex 1.223792e+003 7.947321e+002 1.884804e+003
      endloop
   endfacet
   facet normal -4.623235e-017 8.020839e-001 -5.972114e-001
      outer loop
         vertex 1.228792e+003 7.945121e+002 1.884490e+003
         vertex 1.223792e+003 7.947321e+002 1.884804e+003
         vertex 1.228792e+003 7.947321e+002 1.884804e+003
      endloop
   endfacet
   facet normal -4.099471e-017 7.274188e-001 -6.861938e-001
      outer loop
         vertex 1.228792e+003 7.947321e+002 1.884804e+003
         vertex 1.223792e+003 7.947321e+002 1.884804e+003
         vertex 1.223792e+003 7.950032e+002 1.885075e+003
      endloop
   endfacet
   facet normal -3.815390e-017 6.861938e-001 -7.274188e-001
      outer loop
         vertex 1.228792e+003 7.947321e+002 1.884804e+003
         vertex 1.223792e+003 7.950032e+002 1.885075e+003
         vertex 1.228792e+003 7.950032e+002 1.885075e+003
      endloop
   endfacet
   facet normal -3.211463e-017 5.972114e-001 -8.020839e-001
      outer loop
         vertex 1.228792e+003 7.950032e+002 1.885075e+003
         vertex 1.223792e+003 7.950032e+002 1.885075e+003
         vertex 1.223792e+003 7.953173e+002 1.885295e+003
      endloop
   endfacet
   facet normal -2.891617e-017 5.494540e-001 -8.355240e-001
      outer loop
         vertex 1.228792e+003 7.950032e+002 1.885075e+003
         vertex 1.223792e+003 7.953173e+002 1.885295e+003
         vertex 1.228792e+003 7.953173e+002 1.885295e+003
      endloop
   endfacet
   facet normal -2.225877e-017 4.488580e-001 -8.936031e-001
      outer loop
         vertex 1.228792e+003 7.953173e+002 1.885295e+003
         vertex 1.223792e+003 7.953173e+002 1.885295e+003
         vertex 1.223792e+003 7.956649e+002 1.885457e+003
      endloop
   endfacet
   facet normal -1.879983e-017 3.960194e-001 -9.182422e-001
      outer loop
         vertex 1.228792e+003 7.953173e+002 1.885295e+003
         vertex 1.223792e+003 7.956649e+002 1.885457e+003
         vertex 1.228792e+003 7.956649e+002 1.885457e+003
      endloop
   endfacet
   facet normal -1.172658e-017 2.868663e-001 -9.579706e-001
      outer loop
         vertex 1.228792e+003 7.956649e+002 1.885457e+003
         vertex 1.223792e+003 7.956649e+002 1.885457e+003
         vertex 1.223792e+003 7.960353e+002 1.885557e+003
      endloop
   endfacet
   facet normal -8.112267e-018 2.305518e-001 -9.730601e-001
      outer loop
         vertex 1.228792e+003 7.956649e+002 1.885457e+003
         vertex 1.223792e+003 7.960353e+002 1.885557e+003
         vertex 1.228792e+003 7.960353e+002 1.885557e+003
      endloop
   endfacet
   facet normal -8.380871e-019 1.161583e-001 -9.932307e-001
      outer loop
         vertex 1.228792e+003 7.960353e+002 1.885557e+003
         vertex 1.223792e+003 7.960353e+002 1.885557e+003
         vertex 1.223792e+003 7.964174e+002 1.885590e+003
      endloop
   endfacet
   facet normal 2.821781e-018 5.807914e-002 -9.983120e-001
      outer loop
         vertex 1.228792e+003 7.960353e+002 1.885557e+003
         vertex 1.223792e+003 7.964174e+002 1.885590e+003
         vertex 1.228792e+003 7.964174e+002 1.885590e+003
      endloop
   endfacet
   facet normal 1.007587e-017 -5.807914e-002 -9.983120e-001
      outer loop
         vertex 1.228792e+003 7.964174e+002 1.885590e+003
         vertex 1.223792e+003 7.964174e+002 1.885590e+003
         vertex 1.223792e+003 7.967994e+002 1.885557e+003
      endloop
   endfacet
   facet normal 1.367009e-017 -1.161583e-001 -9.932307e-001
      outer loop
         vertex 1.228792e+003 7.964174e+002 1.885590e+003
         vertex 1.223792e+003 7.967994e+002 1.885557e+003
         vertex 1.228792e+003 7.967994e+002 1.885557e+003
      endloop
   endfacet
   facet normal 2.068368e-017 -2.305518e-001 -9.730601e-001
      outer loop
         vertex 1.228792e+003 7.967994e+002 1.885557e+003
         vertex 1.223792e+003 7.967994e+002 1.885557e+003
         vertex 1.223792e+003 7.971698e+002 1.885457e+003
      endloop
   endfacet
   facet normal 2.410304e-017 -2.868663e-001 -9.579706e-001
      outer loop
         vertex 1.228792e+003 7.967994e+002 1.885557e+003
         vertex 1.223792e+003 7.971698e+002 1.885457e+003
         vertex 1.228792e+003 7.971698e+002 1.885457e+003
      endloop
   endfacet
   facet normal 3.066302e-017 -3.960194e-001 -9.182422e-001
      outer loop
         vertex 1.228792e+003 7.971698e+002 1.885457e+003
         vertex 1.223792e+003 7.971698e+002 1.885457e+003
         vertex 1.223792e+003 7.975173e+002 1.885295e+003
      endloop
   endfacet
   facet normal 3.380364e-017 -4.488580e-001 -8.936031e-001
      outer loop
         vertex 1.228792e+003 7.971698e+002 1.885457e+003
         vertex 1.223792e+003 7.975173e+002 1.885295e+003
         vertex 1.228792e+003 7.975173e+002 1.885295e+003
      endloop
   endfacet
   facet normal 3.971068e-017 -5.494540e-001 -8.355240e-001
      outer loop
         vertex 1.228792e+003 7.975173e+002 1.885295e+003
         vertex 1.223792e+003 7.975173e+002 1.885295e+003
         vertex 1.223792e+003 7.978315e+002 1.885075e+003
      endloop
   endfacet
   facet normal 4.247712e-017 -5.972114e-001 -8.020839e-001
      outer loop
         vertex 1.228792e+003 7.975173e+002 1.885295e+003
         vertex 1.223792e+003 7.978315e+002 1.885075e+003
         vertex 1.228792e+003 7.978315e+002 1.885075e+003
      endloop
   endfacet
   facet normal 4.755176e-017 -6.861938e-001 -7.274188e-001
      outer loop
         vertex 1.228792e+003 7.978315e+002 1.885075e+003
         vertex 1.223792e+003 7.978315e+002 1.885075e+003
         vertex 1.223792e+003 7.981026e+002 1.884804e+003
      endloop
   endfacet
   facet normal 4.985996e-017 -7.274188e-001 -6.861938e-001
      outer loop
         vertex 1.228792e+003 7.978315e+002 1.885075e+003
         vertex 1.223792e+003 7.981026e+002 1.884804e+003
         vertex 1.228792e+003 7.981026e+002 1.884804e+003
      endloop
   endfacet
   facet normal 5.394800e-017 -8.020839e-001 -5.972114e-001
      outer loop
         vertex 1.228792e+003 7.981026e+002 1.884804e+003
         vertex 1.223792e+003 7.981026e+002 1.884804e+003
         vertex 1.223792e+003 7.983226e+002 1.884490e+003
      endloop
   endfacet
   facet normal 5.572783e-017 -8.355240e-001 -5.494540e-001
      outer loop
         vertex 1.228792e+003 7.981026e+002 1.884804e+003
         vertex 1.223792e+003 7.983226e+002 1.884490e+003
         vertex 1.228792e+003 7.983226e+002 1.884490e+003
      endloop
   endfacet
   facet normal 5.870505e-017 -8.936031e-001 -4.488580e-001
      outer loop
         vertex 1.228792e+003 7.983226e+002 1.884490e+003
         vertex 1.223792e+003 7.983226e+002 1.884490e+003
         vertex 1.223792e+003 7.984847e+002 1.884142e+003
      endloop
   endfacet
   facet normal 5.990244e-017 -9.182422e-001 -3.960194e-001
      outer loop
         vertex 1.228792e+003 7.983226e+002 1.884490e+003
         vertex 1.223792e+003 7.984847e+002 1.884142e+003
         vertex 1.228792e+003 7.984847e+002 1.884142e+003
      endloop
   endfacet
   facet normal 6.167839e-017 -9.579706e-001 -2.868663e-001
      outer loop
         vertex 1.228792e+003 7.984847e+002 1.884142e+003
         vertex 1.223792e+003 7.984847e+002 1.884142e+003
         vertex 1.223792e+003 7.985839e+002 1.883772e+003
      endloop
   endfacet
   facet normal 6.225695e-017 -9.730601e-001 -2.305518e-001
      outer loop
         vertex 1.228792e+003 7.984847e+002 1.884142e+003
         vertex 1.223792e+003 7.985839e+002 1.883772e+003
         vertex 1.228792e+003 7.985839e+002 1.883772e+003
      endloop
   endfacet
   facet normal 6.277765e-017 -9.932307e-001 -1.161583e-001
      outer loop
         vertex 1.228792e+003 7.985839e+002 1.883772e+003
         vertex 1.223792e+003 7.985839e+002 1.883772e+003
         vertex 1.223792e+003 7.986173e+002 1.883390e+003
      endloop
   endfacet
   facet normal 6.271981e-017 -9.983120e-001 -5.807914e-002
      outer loop
         vertex 1.228792e+003 8.125839e+002 1.883772e+003
         vertex 1.223792e+003 8.126174e+002 1.883390e+003
         vertex 1.228792e+003 8.126174e+002 1.883390e+003
      endloop
   endfacet
   facet normal 6.196945e-017 -9.983120e-001 5.807914e-002
      outer loop
         vertex 1.228792e+003 8.126174e+002 1.883390e+003
         vertex 1.223792e+003 8.126174e+002 1.883390e+003
         vertex 1.223792e+003 8.125839e+002 1.883008e+003
      endloop
   endfacet
   facet normal 6.127695e-017 -9.932307e-001 1.161583e-001
      outer loop
         vertex 1.228792e+003 8.126174e+002 1.883390e+003
         vertex 1.223792e+003 8.125839e+002 1.883008e+003
         vertex 1.228792e+003 8.125839e+002 1.883008e+003
      endloop
   endfacet
   facet normal 5.927834e-017 -9.730601e-001 2.305518e-001
      outer loop
         vertex 1.228792e+003 8.125839e+002 1.883008e+003
         vertex 1.223792e+003 8.125839e+002 1.883008e+003
         vertex 1.223792e+003 8.124847e+002 1.882637e+003
      endloop
   endfacet
   facet normal 5.797223e-017 -9.579706e-001 2.868663e-001
      outer loop
         vertex 1.228792e+003 8.125839e+002 1.883008e+003
         vertex 1.223792e+003 8.124847e+002 1.882637e+003
         vertex 1.228792e+003 8.124847e+002 1.882637e+003
      endloop
   endfacet
   facet normal 5.478608e-017 -9.182422e-001 3.960194e-001
      outer loop
         vertex 1.228792e+003 8.124847e+002 1.882637e+003
         vertex 1.223792e+003 8.124847e+002 1.882637e+003
         vertex 1.223792e+003 8.123226e+002 1.882290e+003
      endloop
   endfacet
   facet normal 5.290605e-017 -8.936031e-001 4.488580e-001
      outer loop
         vertex 1.228792e+003 8.124847e+002 1.882637e+003
         vertex 1.223792e+003 8.123226e+002 1.882290e+003
         vertex 1.228792e+003 8.123226e+002 1.882290e+003
      endloop
   endfacet
   facet normal 4.862919e-017 -8.355240e-001 5.494540e-001
      outer loop
         vertex 1.228792e+003 8.123226e+002 1.882290e+003
         vertex 1.223792e+003 8.123226e+002 1.882290e+003
         vertex 1.223792e+003 8.121026e+002 1.881976e+003
      endloop
   endfacet
   facet normal 4.623235e-017 -8.020839e-001 5.972114e-001
      outer loop
         vertex 1.228792e+003 8.123226e+002 1.882290e+003
         vertex 1.223792e+003 8.121026e+002 1.881976e+003
         vertex 1.228792e+003 8.121026e+002 1.881976e+003
      endloop
   endfacet
   facet normal 4.099471e-017 -7.274188e-001 6.861938e-001
      outer loop
         vertex 1.228792e+003 8.121026e+002 1.881976e+003
         vertex 1.223792e+003 8.121026e+002 1.881976e+003
         vertex 1.223792e+003 8.118315e+002 1.881705e+003
      endloop
   endfacet
   facet normal 3.815390e-017 -6.861938e-001 7.274188e-001
      outer loop
         vertex 1.228792e+003 8.121026e+002 1.881976e+003
         vertex 1.223792e+003 8.118315e+002 1.881705e+003
         vertex 1.228792e+003 8.118315e+002 1.881705e+003
      endloop
   endfacet
   facet normal 3.211463e-017 -5.972114e-001 8.020839e-001
      outer loop
         vertex 1.228792e+003 8.118315e+002 1.881705e+003
         vertex 1.223792e+003 8.118315e+002 1.881705e+003
         vertex 1.223792e+003 8.115173e+002 1.881485e+003
      endloop
   endfacet
   facet normal 2.891617e-017 -5.494540e-001 8.355240e-001
      outer loop
         vertex 1.228792e+003 8.118315e+002 1.881705e+003
         vertex 1.223792e+003 8.115173e+002 1.881485e+003
         vertex 1.228792e+003 8.115173e+002 1.881485e+003
      endloop
   endfacet
   facet normal 2.225877e-017 -4.488580e-001 8.936031e-001
      outer loop
         vertex 1.228792e+003 8.115173e+002 1.881485e+003
         vertex 1.223792e+003 8.115173e+002 1.881485e+003
         vertex 1.223792e+003 8.111698e+002 1.881323e+003
      endloop
   endfacet
   facet normal 1.879983e-017 -3.960194e-001 9.182422e-001
      outer loop
         vertex 1.228792e+003 8.115173e+002 1.881485e+003
         vertex 1.223792e+003 8.111698e+002 1.881323e+003
         vertex 1.228792e+003 8.111698e+002 1.881323e+003
      endloop
   endfacet
   facet normal 1.172658e-017 -2.868663e-001 9.579706e-001
      outer loop
         vertex 1.228792e+003 8.111698e+002 1.881323e+003
         vertex 1.223792e+003 8.111698e+002 1.881323e+003
         vertex 1.223792e+003 8.107994e+002 1.881223e+003
      endloop
   endfacet
   facet normal 8.112267e-018 -2.305518e-001 9.730601e-001
      outer loop
         vertex 1.228792e+003 8.111698e+002 1.881323e+003
         vertex 1.223792e+003 8.107994e+002 1.881223e+003
         vertex 1.228792e+003 8.107994e+002 1.881223e+003
      endloop
   endfacet
   facet normal 8.380871e-019 -1.161583e-001 9.932307e-001
      outer loop
         vertex 1.228792e+003 8.107994e+002 1.881223e+003
         vertex 1.223792e+003 8.107994e+002 1.881223e+003
         vertex 1.223792e+003 8.104174e+002 1.881190e+003
      endloop
   endfacet
   facet normal -2.821781e-018 -5.807914e-002 9.983120e-001
      outer loop
         vertex 1.228792e+003 8.107994e+002 1.881223e+003
         vertex 1.223792e+003 8.104174e+002 1.881190e+003
         vertex 1.228792e+003 8.104174e+002 1.881190e+003
      endloop
   endfacet
   facet normal -1.007587e-017 5.807914e-002 9.983120e-001
      outer loop
         vertex 1.228792e+003 8.104174e+002 1.881190e+003
         vertex 1.223792e+003 8.104174e+002 1.881190e+003
         vertex 1.223792e+003 8.100353e+002 1.881223e+003
      endloop
   endfacet
   facet normal -1.367009e-017 1.161583e-001 9.932307e-001
      outer loop
         vertex 1.228792e+003 8.104174e+002 1.881190e+003
         vertex 1.223792e+003 8.100353e+002 1.881223e+003
         vertex 1.228792e+003 8.100353e+002 1.881223e+003
      endloop
   endfacet
   facet normal -2.068368e-017 2.305518e-001 9.730601e-001
      outer loop
         vertex 1.228792e+003 8.100353e+002 1.881223e+003
         vertex 1.223792e+003 8.100353e+002 1.881223e+003
         vertex 1.223792e+003 8.096649e+002 1.881323e+003
      endloop
   endfacet
   facet normal -2.410304e-017 2.868663e-001 9.579706e-001
      outer loop
         vertex 1.228792e+003 8.100353e+002 1.881223e+003
         vertex 1.223792e+003 8.096649e+002 1.881323e+003
         vertex 1.228792e+003 8.096649e+002 1.881323e+003
      endloop
   endfacet
   facet normal -3.066302e-017 3.960194e-001 9.182422e-001
      outer loop
         vertex 1.228792e+003 8.096649e+002 1.881323e+003
         vertex 1.223792e+003 8.096649e+002 1.881323e+003
         vertex 1.223792e+003 8.093173e+002 1.881485e+003
      endloop
   endfacet
   facet normal -3.380364e-017 4.488580e-001 8.936031e-001
      outer loop
         vertex 1.228792e+003 8.096649e+002 1.881323e+003
         vertex 1.223792e+003 8.093173e+002 1.881485e+003
         vertex 1.228792e+003 8.093173e+002 1.881485e+003
      endloop
   endfacet
   facet normal -3.971068e-017 5.494540e-001 8.355240e-001
      outer loop
         vertex 1.228792e+003 8.093173e+002 1.881485e+003
         vertex 1.223792e+003 8.093173e+002 1.881485e+003
         vertex 1.223792e+003 8.090032e+002 1.881705e+003
      endloop
   endfacet
   facet normal -4.247712e-017 5.972114e-001 8.020839e-001
      outer loop
         vertex 1.228792e+003 8.093173e+002 1.881485e+003
         vertex 1.223792e+003 8.090032e+002 1.881705e+003
         vertex 1.228792e+003 8.090032e+002 1.881705e+003
      endloop
   endfacet
   facet normal -4.755176e-017 6.861938e-001 7.274188e-001
      outer loop
         vertex 1.228792e+003 8.090032e+002 1.881705e+003
         vertex 1.223792e+003 8.090032e+002 1.881705e+003
         vertex 1.223792e+003 8.087321e+002 1.881976e+003
      endloop
   endfacet
   facet normal -4.985996e-017 7.274188e-001 6.861938e-001
      outer loop
         vertex 1.228792e+003 8.090032e+002 1.881705e+003
         vertex 1.223792e+003 8.087321e+002 1.881976e+003
         vertex 1.228792e+003 8.087321e+002 1.881976e+003
      endloop
   endfacet
   facet normal -5.394800e-017 8.020839e-001 5.972114e-001
      outer loop
         vertex 1.228792e+003 8.087321e+002 1.881976e+003
         vertex 1.223792e+003 8.087321e+002 1.881976e+003
         vertex 1.223792e+003 8.085121e+002 1.882290e+003
      endloop
   endfacet
   facet normal -5.572783e-017 8.355240e-001 5.494540e-001
      outer loop
         vertex 1.228792e+003 8.087321e+002 1.881976e+003
         vertex 1.223792e+003 8.085121e+002 1.882290e+003
         vertex 1.228792e+003 8.085121e+002 1.882290e+003
      endloop
   endfacet
   facet normal -5.870505e-017 8.936031e-001 4.488580e-001
      outer loop
         vertex 1.228792e+003 8.085121e+002 1.882290e+003
         vertex 1.223792e+003 8.085121e+002 1.882290e+003
         vertex 1.223792e+003 8.083500e+002 1.882637e+003
      endloop
   endfacet
   facet normal -5.990244e-017 9.182422e-001 3.960194e-001
      outer loop
         vertex 1.228792e+003 8.085121e+002 1.882290e+003
         vertex 1.223792e+003 8.083500e+002 1.882637e+003
         vertex 1.228792e+003 8.083500e+002 1.882637e+003
      endloop
   endfacet
   facet normal -6.167839e-017 9.579706e-001 2.868663e-001
      outer loop
         vertex 1.228792e+003 8.083500e+002 1.882637e+003
         vertex 1.223792e+003 8.083500e+002 1.882637e+003
         vertex 1.223792e+003 8.082508e+002 1.883008e+003
      endloop
   endfacet
   facet normal -6.225695e-017 9.730601e-001 2.305518e-001
      outer loop
         vertex 1.228792e+003 8.083500e+002 1.882637e+003
         vertex 1.223792e+003 8.082508e+002 1.883008e+003
         vertex 1.228792e+003 8.082508e+002 1.883008e+003
      endloop
   endfacet
   facet normal -6.277765e-017 9.932307e-001 1.161583e-001
      outer loop
         vertex 1.228792e+003 8.082508e+002 1.883008e+003
         vertex 1.223792e+003 8.082508e+002 1.883008e+003
         vertex 1.223792e+003 8.082173e+002 1.883390e+003
      endloop
   endfacet
   facet normal -6.271981e-017 9.983120e-001 5.807914e-002
      outer loop
         vertex 1.228792e+003 8.082508e+002 1.883008e+003
         vertex 1.223792e+003 8.082173e+002 1.883390e+003
         vertex 1.228792e+003 8.082173e+002 1.883390e+003
      endloop
   endfacet
   facet normal -6.196945e-017 9.983120e-001 -5.807914e-002
      outer loop
         vertex 1.228792e+003 8.082173e+002 1.883390e+003
         vertex 1.223792e+003 8.082173e+002 1.883390e+003
         vertex 1.223792e+003 8.082508e+002 1.883772e+003
      endloop
   endfacet
   facet normal -6.127695e-017 9.932307e-001 -1.161583e-001
      outer loop
         vertex 1.228792e+003 8.082173e+002 1.883390e+003
         vertex 1.223792e+003 8.082508e+002 1.883772e+003
         vertex 1.228792e+003 8.082508e+002 1.883772e+003
      endloop
   endfacet
   facet normal -5.927834e-017 9.730601e-001 -2.305518e-001
      outer loop
         vertex 1.228792e+003 8.082508e+002 1.883772e+003
         vertex 1.223792e+003 8.082508e+002 1.883772e+003
         vertex 1.223792e+003 8.083500e+002 1.884142e+003
      endloop
   endfacet
   facet normal -5.797223e-017 9.579706e-001 -2.868663e-001
      outer loop
         vertex 1.228792e+003 8.082508e+002 1.883772e+003
         vertex 1.223792e+003 8.083500e+002 1.884142e+003
         vertex 1.228792e+003 8.083500e+002 1.884142e+003
      endloop
   endfacet
   facet normal -5.478608e-017 9.182422e-001 -3.960194e-001
      outer loop
         vertex 1.228792e+003 8.083500e+002 1.884142e+003
         vertex 1.223792e+003 8.083500e+002 1.884142e+003
         vertex 1.223792e+003 8.085121e+002 1.884490e+003
      endloop
   endfacet
   facet normal -5.290605e-017 8.936031e-001 -4.488580e-001
      outer loop
         vertex 1.228792e+003 8.083500e+002 1.884142e+003
         vertex 1.223792e+003 8.085121e+002 1.884490e+003
         vertex 1.228792e+003 8.085121e+002 1.884490e+003
      endloop
   endfacet
   facet normal -4.862919e-017 8.355240e-001 -5.494540e-001
      outer loop
         vertex 1.228792e+003 8.085121e+002 1.884490e+003
         vertex 1.223792e+003 8.085121e+002 1.884490e+003
         vertex 1.223792e+003 8.087321e+002 1.884804e+003
      endloop
   endfacet
   facet normal -4.623235e-017 8.020839e-001 -5.972114e-001
      outer loop
         vertex 1.228792e+003 8.085121e+002 1.884490e+003
         vertex 1.223792e+003 8.087321e+002 1.884804e+003
         vertex 1.228792e+003 8.087321e+002 1.884804e+003
      endloop
   endfacet
   facet normal -4.099471e-017 7.274188e-001 -6.861938e-001
      outer loop
         vertex 1.228792e+003 8.087321e+002 1.884804e+003
         vertex 1.223792e+003 8.087321e+002 1.884804e+003
         vertex 1.223792e+003 8.090032e+002 1.885075e+003
      endloop
   endfacet
   facet normal -3.815390e-017 6.861938e-001 -7.274188e-001
      outer loop
         vertex 1.228792e+003 8.087321e+002 1.884804e+003
         vertex 1.223792e+003 8.090032e+002 1.885075e+003
         vertex 1.228792e+003 8.090032e+002 1.885075e+003
      endloop
   endfacet
   facet normal -3.211463e-017 5.972114e-001 -8.020839e-001
      outer loop
         vertex 1.228792e+003 8.090032e+002 1.885075e+003
         vertex 1.223792e+003 8.090032e+002 1.885075e+003
         vertex 1.223792e+003 8.093173e+002 1.885295e+003
      endloop
   endfacet
   facet normal -2.891617e-017 5.494540e-001 -8.355240e-001
      outer loop
         vertex 1.228792e+003 8.090032e+002 1.885075e+003
         vertex 1.223792e+003 8.093173e+002 1.885295e+003
         vertex 1.228792e+003 8.093173e+002 1.885295e+003
      endloop
   endfacet
   facet normal -2.225877e-017 4.488580e-001 -8.936031e-001
      outer loop
         vertex 1.228792e+003 8.093173e+002 1.885295e+003
         vertex 1.223792e+003 8.093173e+002 1.885295e+003
         vertex 1.223792e+003 8.096649e+002 1.885457e+003
      endloop
   endfacet
   facet normal -1.879983e-017 3.960194e-001 -9.182422e-001
      outer loop
         vertex 1.228792e+003 8.093173e+002 1.885295e+003
         vertex 1.223792e+003 8.096649e+002 1.885457e+003
         vertex 1.228792e+003 8.096649e+002 1.885457e+003
      endloop
   endfacet
   facet normal -1.172658e-017 2.868663e-001 -9.579706e-001
      outer loop
         vertex 1.228792e+003 8.096649e+002 1.885457e+003
         vertex 1.223792e+003 8.096649e+002 1.885457e+003
         vertex 1.223792e+003 8.100353e+002 1.885557e+003
      endloop
   endfacet
   facet normal -8.112267e-018 2.305518e-001 -9.730601e-001
      outer loop
         vertex 1.228792e+003 8.096649e+002 1.885457e+003
         vertex 1.223792e+003 8.100353e+002 1.885557e+003
         vertex 1.228783f+p06 8.1003=3Â/40j!9.(85u57gk0p1 d  † endmoopç
   %~dFa„et   faat4 ~o2m`la?∏&7∏08#!am01y 1.9v±=83%•01 -9.9#233d)00 
      oute0 lo/p
 )00  0"!vdztEx¢!.2'8∂90e*2p3 8&π00;µa#81: a~ 5557e#027-
 `  % `  Vm3t%h 1"037y2g08308>100r73~+002"ê.885517e+∞23ä   h† !  7ertea 1.3379:a+00{d8.100?4u+002 1n:055q %+003]   ` 0Äen‡lÔgp (  eneface5 † Facmf†fkrmal rn82178!D-0!2`5.003914g-0∞2†-9.98310e-055
0`    ottep lmotJ " !"!   Vertdy 1':2:79≤e+003 01<0352d)∞0≤!9.855=7u00Õ
     †   vertex(q.223';2e+0∞3 8n104±#5e/00r`1.28µu=0e;043
†  a     v‰ruax‡1Æ228792e+003 8.a041w4ak083 1.(8µuª0e/p2
°  0" endlÎkp
   en facepä$ 0¶aced dˇrm!l 1.0275xse-017`-5>8079!4e-002 -9*983121a-80s
 "  h†nudec ¨oop	é  "   ` vdrtqx 9.008µ92Á#0# (.10<q74eØ000 1>8:=•92u;003
! `  $0  tgzta| 1."392e+003 0/0841teÎ02 0.(85590e+0≥- († (†  )Vobtey$5*0:3792e*pP3 8.1:?954e+02 1.8555e;2	
"   ( 5nd,mo0ç
+$(eotDace4
   fa„et`fri·l†1.167009e/8q7 ,).161583eop0  -9.9?2305%t3
0$" p!outm2 loot
 $   % ! vertep u/2287)e+†03";.10T1w4%+002 1"=855)4e003
 " !   0verÙdx!1.22793e+2p≥ 8*12?)94m+01: 3n8∏55u5a+0"3*8(   † ( |Drt≈p®1.2:8792e+p13 4Ã107)14e+002 1.885557e+003ï
  $ !ekd,oot-ä$d %nvfm·mt
! "fAcdt Óormal :é0∂83<8e%037 )0.20=51∏d-05!-9.73060gM001
1""§ @o5ter lOnp
†"  $  ! fep4ex (028792ak00Ú .00799tm+042 u.895557e#0 3*  !   ! $vmÚt%¯ 9.26;wª2d007(8*1∞w;94e+00 1.8<55'7§o003ç
 ( 0  $ (Rmr4dx 1.2237;2g+0p: <.111)8g+00r 1.885457T+403(    (%ndlop
  "%nefacet 0(dacet oopeaL$2/510¥<a-p1u -2.∏28∂2&e-8 3a-∏.u79626U-∞00-
0   " itumr l/op
    %   vebtgx 1.#28792E+0 8>087994e82†1.(557e 1#
    °i 1 verpEx 1.66#1íe+003"x131618m+402 1.8854=7E+03∞ ( $""  tErter ı.28792a(843†0>1·1698e)02(1.8854ï6Âk001
   $ (ej,Lop
  ∏endfaaat
0  fAc%t4.ÔrmAl¿3$1663d2e-∞17¢-3962±94e-∞1 1.182t2&e-010
b ! p /ıteÚ ÏoÔ`M
†b(!"    rer|az 1.6xy2e+q07 8.315<)8ej482 5Æ:05457Â;00≥
      (  vÂzuex"1&203w92ec2∞308.π1129ºe"40;`3n85657e+p0ª    *h   vurteo !ær23792E+003`∞/}ë?#e+006 .∏52=5ek097
  ¢   en`L//p
 ` end&aamt
† (fa„etÄlormim 3.321274e-017 4.88580e=! ± -8/#36431g-∞0  0   out§z(looxç
   *(    vezP%X π*2r479≤e'003 8.Y114π8Â+p02 1.88≥4%7e+p43	 $  à    ˆe6|ex±,33w=2ek0`7!<.11e17≥e+006h1.8"y<e+13M
0     !  veRÙdx43é2:(792m+013 Æq1597#E*02 ±,∏8529Ωe+0030h   !Endloop
†  ÂjfFageU
 !$fage4 norma.03.9'1078e$017 -5.414540e≠0$1†-8~3543$0d-p43
  0 $ utep l}{p0  (   $0ver|ex 1/028792ek∞03 8.11573`+0Ä" 1>88521µ%+003
  (‡  " !6ertey"0.2327ô2e;003(9.!337~; p2a1,8052π5Â/ p3      $ Vertep1.22s#z3e+03 8.1s93±1ek82"5.8:4b77e/023
 $   †'nthoop*"p gndfacgp`  n!ceu nOrman ¥/257w!re-13Ï-1.π7≤194e,6p1 -8,02081ye=±42è
  `  "ouper looQ
%   0    rerte8pqn378'93d/0  0.15±73g#00r 1.<x52=5t+q0"ç
  0 #  ( vezt%h 0/2r369"Â+0q≥ (,9±8715e+002 !.∏8µ07∑eª0±!
!(   ! ( vds|ex 5/2(79≤e#601†8.183±5Â+∞R2 1Æ885075%+0030  `  undmooä  "%ndg·cÂtM   dacE¥ nnrmAh ¥ø51!76a)017 m6.0ñ1=38eµ 01 m2.r∂188g-01ç
  0  /outÂr mooqç
"  $   Ä!ve2t}xh1.228730e#00? 8n31821e+≤22"9j88747%+ Ä3)("   (  v}pvÌh05/#21712e´003 (.91831=e)002!1.x8µ075a+03	 !( 8` † vr4tx 1.rÒ92m+523$8.520≤4e;002 q*8d824‰{ê13"†   $eNflootJ ` enddase¸   fa`dt n/rmak 4.985=16e-z17 -7>274588e≠p0Ö ≠v.81938em605
†  †  o}ter oot
  h !†q† vezvex 5.428w82Â+0∞3 <.95:3°4m+0021.8803`+02∫
¥     %  vÂrt$x 1.33792Ö+p03 &121¥2&e002 1.:8$8∞4e+0z3
† †   § drerTeX 1.22∏6*6e+003 8.1)126e+006 n80,824D+003J """  endlonp
$‡$endvccmu-
  0b`ket nOrm!j ul39428e-097 -:00:3xd-80 -5.-72±14g-0!
 $   (ou|dr loop
$      `vertex 1":29∑92e/0p2 8.12:"2ve+002 1>94x06e+00;
    ! `  vectey ±.22Û?)2g)0; 8.q210re´002)q.)4844i/00;™  (  `$†0vevtox 1.027512e+005 8n1: b6e´42"±.9(4<9pU+003-
 ` !0 uOeh/op
( `endFecet
∞ `fËaet nkpmA| 5&u72w83a,41∑ -(n35q340e-"01 -=.4y448e≠00≥
"†   gUtur2lokh         4er\e¯ 1.68?9e/ 23 <123226%´00r 1.8082$e+p0˚  !      V%rbex$q.2r37π"E+0`ª#<é123224t+p02 5.884412g´007
   0 †`" vertex 3.2r879≤e+03 :.1:3666e+8p2 1
8804=0g#ê 3L
,  ®  un‰loop$ al$nag‰p 0!raCdt nmzmhl 007Uµ(5mç0±7†-.936031%-001†-t0∏4=0e-8∏qJ    ` /etÂR lgna
 0†""‰" vmrpgx ±.:2879≤}+00†8.12≥r;4d/002 1/88449pe+003
    ∞(   vertey 1.8≤;692g#10#d∏.16322vek00 9&88,4π0a+003
"$"!" $  ~eÚ4eh(3.22379d+07 8.1r5847g+80(9.084142ek01;¨
 0`†  Ed,o`M$ !endfecet
 !`fccet†for|El 5*8y0244e,0!609582$22e,401†)3n9&099e-0"1ö4 0   o5Ùe2&|gk0
!    ( !,vgrtuX 1>22<69ek403 8.323226a£p$6 3.<x44905+80/
  $ `    rÂp5dx 1.2"7w1
d	0 ! :n34847e+&92 1.884142E+013Z   $ ( ``6eptaP 1.228ß9pe+003 8.924847D+002 0.2ò414"ak003
    (0mndlÎop/
 `°%nd&ac%u*   facetÑnl2mcl 616839e≠21 %1&5w9?r6g01 =2.986wa-00± ! † †outer Ïor
 "!(0  ~estex 1.b38?92E+88≥ 8.1≤$4wg+r2d1.884142d+ 13
 ` !     verpe|†1:"33ø2e+q03$8*124847%+002(3.884342m+48J ©  "8( Ver4ex #Æ2:37;2u+003 8>125829mj802 1. 8°772e+02s
   `  enT,gop
 0endÊaaet`  fAcdt norMql02.2¢!69µG- 1'-;Æw30601e-:∞1`r.3∏4518e-x04
! ` d ouues lgp
    `0   vertax 1>28≥9:e#$03!z,1:4y87e+p02$qÜ80414ra+1c 5† h`` †vmrtex 1.:23792e+803 ∏.325(3ek012 ±.88;'∑0g+ 07* $   !`$`vuvt!x 1ors8∑92a/423!8.46µ8≥9u+ 02 1.yx;≥7re+013
0!(0,undl'or
   mn`nacet	
  Íacet¢nkrmqÏ$6Æ2∑3r65d/06 )i}3:#p7e-0 1 5361u:qe-001m
  (" (oyder mo`.  ! ∞  08vevtu| 1n228g92e+30#)8.16µ=3;q+∞0≤$!.9h972e+0 3
Ñ)"  "  vertex 9≤;6ye+03 <±2=83=g+002 1.893'72e;01+% !    ‡wÂrte 1.27792}+∞03`0.126±74e;00 1Æ0839pg+003M
#` `)`eÓd.ogp `(%ftnacetmnesolHd