solid 09.025.00.00.000 - 09.025.00.08.000-1 09.025.00.08.025-2
   facet normal 6.245005e-017 -1.000000e+000 6.367905e-016
      outer loop
         vertex 1.038792e+003 7.934174e+002 1.948390e+003
         vertex 1.038792e+003 7.934174e+002 1.873390e+003
         vertex 1.043792e+003 7.934174e+002 1.948390e+003
      endloop
   endfacet
   facet normal 6.245005e-017 -1.000000e+000 6.367905e-016
      outer loop
         vertex 1.043792e+003 7.934174e+002 1.948390e+003
         vertex 1.038792e+003 7.934174e+002 1.873390e+003
         vertex 1.043792e+003 7.934174e+002 1.873390e+003
      endloop
   endfacet
   facet normal -6.459731e-018 6.407581e-016 1.000000e+000
      outer loop
         vertex 1.038792e+003 8.134173e+002 1.948390e+003
         vertex 1.038792e+003 7.934174e+002 1.948390e+003
         vertex 1.043792e+003 8.134173e+002 1.948390e+003
      endloop
   endfacet
   facet normal -6.459731e-018 6.407581e-016 1.000000e+000
      outer loop
         vertex 1.043792e+003 8.134173e+002 1.948390e+003
         vertex 1.038792e+003 7.934174e+002 1.948390e+003
         vertex 1.043792e+003 7.934174e+002 1.948390e+003
      endloop
   endfacet
   facet normal -6.245005e-017 1.000000e+000 -5.905312e-016
      outer loop
         vertex 1.038792e+003 8.134173e+002 1.873390e+003
         vertex 1.038792e+003 8.134173e+002 1.948390e+003
         vertex 1.043792e+003 8.134173e+002 1.873390e+003
      endloop
   endfacet
   facet normal -6.245005e-017 1.000000e+000 -5.905312e-016
      outer loop
         vertex 1.043792e+003 8.134173e+002 1.873390e+003
         vertex 1.038792e+003 8.134173e+002 1.948390e+003
         vertex 1.043792e+003 8.134173e+002 1.948390e+003
      endloop
   endfacet
   facet normal 6.459731e-018 -6.407581e-016 -1.000000e+000
      outer loop
         vertex 1.038792e+003 7.934174e+002 1.873390e+003
         vertex 1.038792e+003 8.134173e+002 1.873390e+003
         vertex 1.043792e+003 7.934174e+002 1.873390e+003
      endloop
   endfacet
   facet normal 6.459731e-018 -6.407581e-016 -1.000000e+000
      outer loop
         vertex 1.043792e+003 7.934174e+002 1.873390e+003
         vertex 1.038792e+003 8.134173e+002 1.873390e+003
         vertex 1.043792e+003 8.134173e+002 1.873390e+003
      endloop
   endfacet
   facet normal -1.000000e+000 -1.040834e-016 1.026531e-018
      outer loop
         vertex 1.038792e+003 8.134173e+002 1.948390e+003
         vertex 1.038792e+003 8.134173e+002 1.873390e+003
         vertex 1.038792e+003 8.126174e+002 1.883390e+003
      endloop
   endfacet
   facet normal -1.000000e+000 -1.040834e-016 1.026531e-018
      outer loop
         vertex 1.038792e+003 7.934174e+002 1.948390e+003
         vertex 1.038792e+003 7.964174e+002 1.885590e+003
         vertex 1.038792e+003 7.960353e+002 1.885557e+003
      endloop
   endfacet
   facet normal -1.000000e+000 -1.040834e-016 1.026531e-018
      outer loop
         vertex 1.038792e+003 7.964174e+002 1.885590e+003
         vertex 1.038792e+003 7.934174e+002 1.948390e+003
         vertex 1.038792e+003 7.967994e+002 1.885557e+003
      endloop
   endfacet
   facet normal -1.000000e+000 -1.040834e-016 1.026531e-018
      outer loop
         vertex 1.038792e+003 7.967994e+002 1.885557e+003
         vertex 1.038792e+003 7.934174e+002 1.948390e+003
         vertex 1.038792e+003 8.134173e+002 1.948390e+003
      endloop
   endfacet
   facet normal -1.000000e+000 -1.040834e-016 1.026531e-018
      outer loop
         vertex 1.038792e+003 7.967994e+002 1.885557e+003
         vertex 1.038792e+003 8.134173e+002 1.948390e+003
         vertex 1.038792e+003 7.971698e+002 1.885457e+003
      endloop
   endfacet
   facet normal -1.000000e+000 -1.040834e-016 1.026531e-018
      outer loop
         vertex 1.038792e+003 8.126174e+002 1.883390e+003
         vertex 1.038792e+003 8.125839e+002 1.883772e+003
         vertex 1.038792e+003 8.134173e+002 1.948390e+003
      endloop
   endfacet
   facet normal -1.000000e+000 -1.040834e-016 1.026531e-018
      outer loop
         vertex 1.038792e+003 8.134173e+002 1.948390e+003
         vertex 1.038792e+003 8.125839e+002 1.883772e+003
         vertex 1.038792e+003 8.124847e+002 1.884142e+003
      endloop
   endfacet
   facet normal -1.000000e+000 -1.040834e-016 1.026531e-018
      outer loop
         vertex 1.038792e+003 8.134173e+002 1.948390e+003
         vertex 1.038792e+003 8.124847e+002 1.884142e+003
         vertex 1.038792e+003 8.123226e+002 1.884490e+003
      endloop
   endfacet
   facet normal -1.000000e+000 -1.040834e-016 1.026531e-018
      outer loop
         vertex 1.038792e+003 8.123226e+002 1.884490e+003
         vertex 1.038792e+003 8.121026e+002 1.884804e+003
         vertex 1.038792e+003 8.134173e+002 1.948390e+003
      endloop
   endfacet
   facet normal -1.000000e+000 -1.040834e-016 1.026531e-018
      outer loop
         vertex 1.038792e+003 8.134173e+002 1.948390e+003
         vertex 1.038792e+003 8.121026e+002 1.884804e+003
         vertex 1.038792e+003 8.118315e+002 1.885075e+003
      endloop
   endfacet
   facet normal -1.000000e+000 -1.040834e-016 1.026531e-018
      outer loop
         vertex 1.038792e+003 8.134173e+002 1.948390e+003
         vertex 1.038792e+003 8.118315e+002 1.885075e+003
         vertex 1.038792e+003 8.115173e+002 1.885295e+003
      endloop
   endfacet
   facet normal -1.000000e+000 -1.040834e-016 1.026531e-018
      outer loop
         vertex 1.038792e+003 7.985839e+002 1.883772e+003
         vertex 1.038792e+003 7.984847e+002 1.884142e+003
         vertex 1.038792e+003 8.100353e+002 1.885557e+003
      endloop
   endfacet
   facet normal -1.000000e+000 -1.040834e-016 1.026531e-018
      outer loop
         vertex 1.038792e+003 8.096649e+002 1.885457e+003
         vertex 1.038792e+003 7.971698e+002 1.881323e+003
         vertex 1.038792e+003 7.975173e+002 1.881485e+003
      endloop
   endfacet
   facet normal -1.000000e+000 -1.040834e-016 1.026531e-018
      outer loop
         vertex 1.038792e+003 7.975173e+002 1.881485e+003
         vertex 1.038792e+003 7.978315e+002 1.881705e+003
         vertex 1.038792e+003 8.096649e+002 1.885457e+003
      endloop
   endfacet
   facet normal -1.000000e+000 -1.040834e-016 1.026531e-018
      outer loop
         vertex 1.038792e+003 8.096649e+002 1.885457e+003
         vertex 1.038792e+003 7.978315e+002 1.881705e+003
         vertex 1.038792e+003 7.981026e+002 1.881976e+003
      endloop
   endfacet
   facet normal -1.000000e+000 -1.040834e-016 1.026531e-018
      outer loop
         vertex 1.038792e+003 8.096649e+002 1.885457e+003
         vertex 1.038792e+003 7.981026e+002 1.881976e+003
         vertex 1.038792e+003 7.983226e+002 1.882290e+003
      endloop
   endfacet
   facet normal -1.000000e+000 -1.040834e-016 1.026531e-018
      outer loop
         vertex 1.038792e+003 8.096649e+002 1.885457e+003
         vertex 1.038792e+003 8.093173e+002 1.885295e+003
         vertex 1.038792e+003 7.971698e+002 1.881323e+003
      endloop
   endfacet
   facet normal -1.000000e+000 -1.040834e-016 1.026531e-018
      outer loop
         vertex 1.038792e+003 7.971698e+002 1.881323e+003
         vertex 1.038792e+003 8.093173e+002 1.885295e+003
         vertex 1.038792e+003 8.090032e+002 1.885075e+003
      endloop
   endfacet
   facet normal -1.000000e+000 -1.040834e-016 1.026531e-018
      outer loop
         vertex 1.038792e+003 7.971698e+002 1.881323e+003
         vertex 1.038792e+003 8.090032e+002 1.885075e+003
         vertex 1.038792e+003 8.087321e+002 1.884804e+003
      endloop
   endfacet
   facet normal -1.000000e+000 -1.040834e-016 1.026531e-018
      outer loop
         vertex 1.038792e+003 8.115173e+002 1.885295e+003
         vertex 1.038792e+003 8.111698e+002 1.885457e+003
         vertex 1.038792e+003 8.134173e+002 1.948390e+003
      endloop
   endfacet
   facet normal -1.000000e+000 -1.040834e-016 1.026531e-018
      outer loop
         vertex 1.038792e+003 8.134173e+002 1.948390e+003
         vertex 1.038792e+003 8.111698e+002 1.885457e+003
         vertex 1.038792e+003 8.107994e+002 1.885557e+003
      endloop
   endfacet
   facet normal -1.000000e+000 -1.040834e-016 1.026531e-018
      outer loop
         vertex 1.038792e+003 8.134173e+002 1.948390e+003
         vertex 1.038792e+003 8.107994e+002 1.885557e+003
         vertex 1.038792e+003 8.104174e+002 1.885590e+003
      endloop
   endfacet
   facet normal -1.000000e+000 -1.040834e-016 1.026531e-018
      outer loop
         vertex 1.038792e+003 7.960353e+002 1.885557e+003
         vertex 1.038792e+003 7.956649e+002 1.885457e+003
         vertex 1.038792e+003 7.934174e+002 1.948390e+003
      endloop
   endfacet
   facet normal -1.000000e+000 -1.040834e-016 1.026531e-018
      outer loop
         vertex 1.038792e+003 7.934174e+002 1.948390e+003
         vertex 1.038792e+003 7.956649e+002 1.885457e+003
         vertex 1.038792e+003 7.953173e+002 1.885295e+003
      endloop
   endfacet
   facet normal -1.000000e+000 -1.040834e-016 1.026531e-018
      outer loop
         vertex 1.038792e+003 7.934174e+002 1.948390e+003
         vertex 1.038792e+003 7.953173e+002 1.885295e+003
         vertex 1.038792e+003 7.950032e+002 1.885075e+003
      endloop
   endfacet
   facet normal -1.000000e+000 -1.040834e-016 1.026531e-018
      outer loop
         vertex 1.038792e+003 7.983226e+002 1.882290e+003
         vertex 1.038792e+003 7.984847e+002 1.882637e+003
         vertex 1.038792e+003 8.096649e+002 1.885457e+003
      endloop
   endfacet
   facet normal -1.000000e+000 -1.040834e-016 1.026531e-018
      outer loop
         vertex 1.038792e+003 8.096649e+002 1.885457e+003
         vertex 1.038792e+003 7.984847e+002 1.882637e+003
         vertex 1.038792e+003 7.985839e+002 1.883008e+003
      endloop
   endfacet
   facet normal -1.000000e+000 -1.040834e-016 1.026531e-018
      outer loop
         vertex 1.038792e+003 8.096649e+002 1.885457e+003
         vertex 1.038792e+003 7.985839e+002 1.883008e+003
         vertex 1.038792e+003 8.100353e+002 1.885557e+003
      endloop
   endfacet
   facet normal -1.000000e+000 -1.040834e-016 1.026531e-018
      outer loop
         vertex 1.038792e+003 8.100353e+002 1.885557e+003
         vertex 1.038792e+003 7.985839e+002 1.883008e+003
         vertex 1.038792e+003 7.986173e+002 1.883390e+003
      endloop
   endfacet
   facet normal -1.000000e+000 -1.040834e-016 1.026531e-018
      outer loop
         vertex 1.038792e+003 8.100353e+002 1.885557e+003
         vertex 1.038792e+003 7.986173e+002 1.883390e+003
         vertex 1.038792e+003 7.985839e+002 1.883772e+003
      endloop
   endfacet
   facet normal -1.000000e+000 -1.040834e-016 1.026531e-018
      outer loop
         vertex 1.038792e+003 8.134173e+002 1.873390e+003
         vertex 1.038792e+003 8.111698e+002 1.881323e+003
         vertex 1.038792e+003 8.115173e+002 1.881485e+003
      endloop
   endfacet
   facet normal -1.000000e+000 -1.040834e-016 1.026531e-018
      outer loop
         vertex 1.038792e+003 7.984847e+002 1.884142e+003
         vertex 1.038792e+003 7.983226e+002 1.884490e+003
         vertex 1.038792e+003 8.100353e+002 1.885557e+003
      endloop
   endfacet
   facet normal -1.000000e+000 -1.040834e-016 1.026531e-018
      outer loop
         vertex 1.038792e+003 8.100353e+002 1.885557e+003
         vertex 1.038792e+003 7.983226e+002 1.884490e+003
         vertex 1.038792e+003 7.981026e+002 1.884804e+003
      endloop
   endfacet
   facet normal -1.000000e+000 -1.040834e-016 1.026531e-018
      outer loop
         vertex 1.038792e+003 8.100353e+002 1.885557e+003
         vertex 1.038792e+003 7.981026e+002 1.884804e+003
         vertex 1.038792e+003 8.104174e+002 1.885590e+003
      endloop
   endfacet
   facet normal -1.000000e+000 -1.040834e-016 1.026531e-018
      outer loop
         vertex 1.038792e+003 8.104174e+002 1.885590e+003
         vertex 1.038792e+003 7.981026e+002 1.884804e+003
         vertex 1.038792e+003 7.978315e+002 1.885075e+003
      endloop
   endfacet
   facet normal -1.000000e+000 -1.040834e-016 1.026531e-018
      outer loop
         vertex 1.038792e+003 8.104174e+002 1.885590e+003
         vertex 1.038792e+003 7.978315e+002 1.885075e+003
         vertex 1.038792e+003 8.134173e+002 1.948390e+003
      endloop
   endfacet
   facet normal -1.000000e+000 -1.040834e-016 1.026531e-018
      outer loop
         vertex 1.038792e+003 8.134173e+002 1.948390e+003
         vertex 1.038792e+003 7.978315e+002 1.885075e+003
         vertex 1.038792e+003 7.975173e+002 1.885295e+003
      endloop
   endfacet
   facet normal -1.000000e+000 -1.040834e-016 1.026531e-018
      outer loop
         vertex 1.038792e+003 8.134173e+002 1.948390e+003
         vertex 1.038792e+003 7.975173e+002 1.885295e+003
         vertex 1.038792e+003 7.971698e+002 1.885457e+003
      endloop
   endfacet
   facet normal -1.000000e+000 -1.040834e-016 1.026531e-018
      outer loop
         vertex 1.038792e+003 7.950032e+002 1.885075e+003
         vertex 1.038792e+003 7.947321e+002 1.884804e+003
         vertex 1.038792e+003 7.934174e+002 1.948390e+003
      endloop
   endfacet
   facet normal -1.000000e+000 -1.040834e-016 1.026531e-018
      outer loop
         vertex 1.038792e+003 7.934174e+002 1.948390e+003
         vertex 1.038792e+003 7.947321e+002 1.884804e+003
         vertex 1.038792e+003 7.945121e+002 1.884490e+003
      endloop
   endfacet
   facet normal -1.000000e+000 -1.040834e-016 1.026531e-018
      outer loop
         vertex 1.038792e+003 7.934174e+002 1.948390e+003
         vertex 1.038792e+003 7.945121e+002 1.884490e+003
         vertex 1.038792e+003 7.943500e+002 1.884142e+003
      endloop
   endfacet
   facet normal -1.000000e+000 -1.040834e-016 1.026531e-018
      outer loop
         vertex 1.038792e+003 7.956649e+002 1.881323e+003
         vertex 1.038792e+003 7.934174e+002 1.873390e+003
         vertex 1.038792e+003 7.953173e+002 1.881485e+003
      endloop
   endfacet
   facet normal -1.000000e+000 -1.040834e-016 1.026531e-018
      outer loop
         vertex 1.038792e+003 7.953173e+002 1.881485e+003
         vertex 1.038792e+003 7.934174e+002 1.873390e+003
         vertex 1.038792e+003 7.950032e+002 1.881705e+003
      endloop
   endfacet
   facet normal -1.000000e+000 -1.040834e-016 1.026531e-018
      outer loop
         vertex 1.038792e+003 7.934174e+002 1.873390e+003
         vertex 1.038792e+003 8.096649e+002 1.881323e+003
         vertex 1.038792e+003 8.134173e+002 1.873390e+003
      endloop
   endfacet
   facet normal -1.000000e+000 -1.040834e-016 1.026531e-018
      outer loop
         vertex 1.038792e+003 8.134173e+002 1.873390e+003
         vertex 1.038792e+003 8.096649e+002 1.881323e+003
         vertex 1.038792e+003 8.100353e+002 1.881223e+003
      endloop
   endfacet
   facet normal -1.000000e+000 -1.040834e-016 1.026531e-018
      outer loop
         vertex 1.038792e+003 7.943500e+002 1.882637e+003
         vertex 1.038792e+003 7.945121e+002 1.882290e+003
         vertex 1.038792e+003 7.934174e+002 1.873390e+003
      endloop
   endfacet
   facet normal -1.000000e+000 -1.040834e-016 1.026531e-018
      outer loop
         vertex 1.038792e+003 7.934174e+002 1.873390e+003
         vertex 1.038792e+003 7.945121e+002 1.882290e+003
         vertex 1.038792e+003 7.947321e+002 1.881976e+003
      endloop
   endfacet
   facet normal -1.000000e+000 -1.040834e-016 1.026531e-018
      outer loop
         vertex 1.038792e+003 7.934174e+002 1.873390e+003
         vertex 1.038792e+003 7.947321e+002 1.881976e+003
         vertex 1.038792e+003 7.950032e+002 1.881705e+003
      endloop
   endfacet
   facet normal -1.000000e+000 -1.040834e-016 1.026531e-018
      outer loop
         vertex 1.038792e+003 8.087321e+002 1.881976e+003
         vertex 1.038792e+003 8.090032e+002 1.881705e+003
         vertex 1.038792e+003 7.934174e+002 1.873390e+003
      endloop
   endfacet
   facet normal -1.000000e+000 -1.040834e-016 1.026531e-018
      outer loop
         vertex 1.038792e+003 7.934174e+002 1.873390e+003
         vertex 1.038792e+003 8.090032e+002 1.881705e+003
         vertex 1.038792e+003 8.093173e+002 1.881485e+003
      endloop
   endfacet
   facet normal -1.000000e+000 -1.040834e-016 1.026531e-018
      outer loop
         vertex 1.038792e+003 7.934174e+002 1.873390e+003
         vertex 1.038792e+003 8.093173e+002 1.881485e+003
         vertex 1.038792e+003 8.096649e+002 1.881323e+003
      endloop
   endfacet
   facet normal -1.000000e+000 -1.040834e-016 1.026531e-018
      outer loop
         vertex 1.038792e+003 8.100353e+002 1.881223e+003
         vertex 1.038792e+003 8.104174e+002 1.881190e+003
         vertex 1.038792e+003 8.134173e+002 1.873390e+003
      endloop
   endfacet
   facet normal -1.000000e+000 -1.040834e-016 1.026531e-018
      outer loop
         vertex 1.038792e+003 8.134173e+002 1.873390e+003
         vertex 1.038792e+003 8.104174e+002 1.881190e+003
         vertex 1.038792e+003 8.107994e+002 1.881223e+003
      endloop
   endfacet
   facet normal -1.000000e+000 -1.040834e-016 1.026531e-018
      outer loop
         vertex 1.038792e+003 8.134173e+002 1.873390e+003
         vertex 1.038792e+003 8.107994e+002 1.881223e+003
         vertex 1.038792e+003 8.111698e+002 1.881323e+003
      endloop
   endfacet
   facet normal -1.000000e+000 -1.040834e-016 1.026531e-018
      outer loop
         vertex 1.038792e+003 8.123226e+002 1.882290e+003
         vertex 1.038792e+003 8.124847e+002 1.882637e+003
         vertex 1.038792e+003 8.134173e+002 1.873390e+003
      endloop
   endfacet
   facet normal -1.000000e+000 -1.040834e-016 1.026531e-018
      outer loop
         vertex 1.038792e+003 8.134173e+002 1.873390e+003
         vertex 1.038792e+003 8.124847e+002 1.882637e+003
         vertex 1.038792e+003 8.125839e+002 1.883008e+003
      endloop
   endfacet
   facet normal -1.000000e+000 -1.040834e-016 1.026531e-018
      outer loop
         vertex 1.038792e+003 8.134173e+002 1.873390e+003
         vertex 1.038792e+003 8.125839e+002 1.883008e+003
         vertex 1.038792e+003 8.126174e+002 1.883390e+003
      endloop
   endfacet
   facet normal -1.000000e+000 -1.040834e-016 1.026531e-018
      outer loop
         vertex 1.038792e+003 8.087321e+002 1.884804e+003
         vertex 1.038792e+003 8.085121e+002 1.884490e+003
         vertex 1.038792e+003 7.971698e+002 1.881323e+003
      endloop
   endfacet
   facet normal -1.000000e+000 -1.040834e-016 1.026531e-018
      outer loop
         vertex 1.038792e+003 7.971698e+002 1.881323e+003
         vertex 1.038792e+003 8.085121e+002 1.884490e+003
         vertex 1.038792e+003 8.083500e+002 1.884142e+003
      endloop
   endfacet
   facet normal -1.000000e+000 -1.040834e-016 1.026531e-018
      outer loop
         vertex 1.038792e+003 7.971698e+002 1.881323e+003
         vertex 1.038792e+003 8.083500e+002 1.884142e+003
         vertex 1.038792e+003 7.967994e+002 1.881223e+003
      endloop
   endfacet
   facet normal -1.000000e+000 -1.040834e-016 1.026531e-018
      outer loop
         vertex 1.038792e+003 7.967994e+002 1.881223e+003
         vertex 1.038792e+003 8.083500e+002 1.884142e+003
         vertex 1.038792e+003 8.082508e+002 1.883772e+003
      endloop
   endfacet
   facet normal -1.000000e+000 -1.040834e-016 1.026531e-018
      outer loop
         vertex 1.038792e+003 7.967994e+002 1.881223e+003
         vertex 1.038792e+003 8.082508e+002 1.883772e+003
         vertex 1.038792e+003 8.082173e+002 1.883390e+003
      endloop
   endfacet
   facet normal -1.000000e+000 -1.040834e-016 1.026531e-018
      outer loop
         vertex 1.038792e+003 8.115173e+002 1.881485e+003
         vertex 1.038792e+003 8.118315e+002 1.881705e+003
         vertex 1.038792e+003 8.134173e+002 1.873390e+003
      endloop
   endfacet
   facet normal -1.000000e+000 -1.040834e-016 1.026531e-018
      outer loop
         vertex 1.038792e+003 8.134173e+002 1.873390e+003
         vertex 1.038792e+003 8.118315e+002 1.881705e+003
         vertex 1.038792e+003 8.121026e+002 1.881976e+003
      endloop
   endfacet
   facet normal -1.000000e+000 -1.040834e-016 1.026531e-018
      outer loop
         vertex 1.038792e+003 8.134173e+002 1.873390e+003
         vertex 1.038792e+003 8.121026e+002 1.881976e+003
         vertex 1.038792e+003 8.123226e+002 1.882290e+003
      endloop
   endfacet
   facet normal -1.000000e+000 -1.040834e-016 1.026531e-018
      outer loop
         vertex 1.038792e+003 7.956649e+002 1.881323e+003
         vertex 1.038792e+003 7.960353e+002 1.881223e+003
         vertex 1.038792e+003 7.934174e+002 1.873390e+003
      endloop
   endfacet
   facet normal -1.000000e+000 -1.040834e-016 1.026531e-018
      outer loop
         vertex 1.038792e+003 7.934174e+002 1.873390e+003
         vertex 1.038792e+003 7.960353e+002 1.881223e+003
         vertex 1.038792e+003 7.964174e+002 1.881190e+003
      endloop
   endfacet
   facet normal -1.000000e+000 -1.040834e-016 1.026531e-018
      outer loop
         vertex 1.038792e+003 7.934174e+002 1.873390e+003
         vertex 1.038792e+003 7.964174e+002 1.881190e+003
         vertex 1.038792e+003 7.967994e+002 1.881223e+003
      endloop
   endfacet
   facet normal -1.000000e+000 -1.040834e-016 1.026531e-018
      outer loop
         vertex 1.038792e+003 7.943500e+002 1.884142e+003
         vertex 1.038792e+003 7.942507e+002 1.883772e+003
         vertex 1.038792e+003 7.934174e+002 1.948390e+003
      endloop
   endfacet
   facet normal -1.000000e+000 -1.040834e-016 1.026531e-018
      outer loop
         vertex 1.038792e+003 7.934174e+002 1.948390e+003
         vertex 1.038792e+003 7.942507e+002 1.883772e+003
         vertex 1.038792e+003 7.942173e+002 1.883390e+003
      endloop
   endfacet
   facet normal -1.000000e+000 -1.040834e-016 1.026531e-018
      outer loop
         vertex 1.038792e+003 7.934174e+002 1.948390e+003
         vertex 1.038792e+003 7.942173e+002 1.883390e+003
         vertex 1.038792e+003 7.934174e+002 1.873390e+003
      endloop
   endfacet
   facet normal -1.000000e+000 -1.040834e-016 1.026531e-018
      outer loop
         vertex 1.038792e+003 7.934174e+002 1.873390e+003
         vertex 1.038792e+003 7.942173e+002 1.883390e+003
         vertex 1.038792e+003 7.942507e+002 1.883008e+003
      endloop
   endfacet
   facet normal -1.000000e+000 -1.040834e-016 1.026531e-018
      outer loop
         vertex 1.038792e+003 7.934174e+002 1.873390e+003
         vertex 1.038792e+003 7.942507e+002 1.883008e+003
         vertex 1.038792e+003 7.943500e+002 1.882637e+003
      endloop
   endfacet
   facet normal -1.000000e+000 -1.040834e-016 1.026531e-018
      outer loop
         vertex 1.038792e+003 8.082173e+002 1.883390e+003
         vertex 1.038792e+003 8.082508e+002 1.883008e+003
         vertex 1.038792e+003 7.967994e+002 1.881223e+003
      endloop
   endfacet
   facet normal -1.000000e+000 -1.040834e-016 1.026531e-018
      outer loop
         vertex 1.038792e+003 7.967994e+002 1.881223e+003
         vertex 1.038792e+003 8.082508e+002 1.883008e+003
         vertex 1.038792e+003 8.083500e+002 1.882637e+003
      endloop
   endfacet
   facet normal -1.000000e+000 -1.040834e-016 1.026531e-018
      outer loop
         vertex 1.038792e+003 7.967994e+002 1.881223e+003
         vertex 1.038792e+003 8.083500e+002 1.882637e+003
         vertex 1.038792e+003 7.934174e+002 1.873390e+003
      endloop
   endfacet
   facet normal -1.000000e+000 -1.040834e-016 1.026531e-018
      outer loop
         vertex 1.038792e+003 7.934174e+002 1.873390e+003
         vertex 1.038792e+003 8.083500e+002 1.882637e+003
         vertex 1.038792e+003 8.085121e+002 1.882290e+003
      endloop
   endfacet
   facet normal -1.000000e+000 -1.040834e-016 1.026531e-018
      outer loop
         vertex 1.038792e+003 7.934174e+002 1.873390e+003
         vertex 1.038792e+003 8.085121e+002 1.882290e+003
         vertex 1.038792e+003 8.087321e+002 1.881976e+003
      endloop
   endfacet
   facet normal 1.000000e+000 1.040834e-016 -1.026531e-018
      outer loop
         vertex 1.043792e+003 7.964174e+002 1.885590e+003
         vertex 1.043792e+003 7.934174e+002 1.948390e+003
         vertex 1.043792e+003 7.960353e+002 1.885557e+003
      endloop
   endfacet
   facet normal 1.000000e+000 1.040834e-016 -1.026531e-018
      outer loop
         vertex 1.043792e+003 7.960353e+002 1.885557e+003
         vertex 1.043792e+003 7.934174e+002 1.948390e+003
         vertex 1.043792e+003 7.956649e+002 1.885457e+003
      endloop
   endfacet
   facet normal 1.000000e+000 1.040834e-016 -1.026531e-018
      outer loop
         vertex 1.043792e+003 7.947321e+002 1.884804e+003
         vertex 1.043792e+003 7.934174e+002 1.948390e+003
         vertex 1.043792e+003 7.945121e+002 1.884490e+003
      endloop
   endfacet
   facet normal 1.000000e+000 1.040834e-016 -1.026531e-018
      outer loop
         vertex 1.043792e+003 7.945121e+002 1.884490e+003
         vertex 1.043792e+003 7.934174e+002 1.948390e+003
         vertex 1.043792e+003 7.943500e+002 1.884142e+003
      endloop
   endfacet
   facet normal 1.000000e+000 1.040834e-016 -1.026531e-018
      outer loop
         vertex 1.043792e+003 7.947321e+002 1.884804e+003
         vertex 1.043792e+003 7.950032e+002 1.885075e+003
         vertex 1.043792e+003 7.934174e+002 1.948390e+003
      endloop
   endfacet
   facet normal 1.000000e+000 1.040834e-016 -1.026531e-018
      outer loop
         vertex 1.043792e+003 7.934174e+002 1.948390e+003
         vertex 1.043792e+003 7.950032e+002 1.885075e+003
         vertex 1.043792e+003 7.953173e+002 1.885295e+003
      endloop
   endfacet
   facet normal 1.000000e+000 1.040834e-016 -1.026531e-018
      outer loop
         vertex 1.043792e+003 7.934174e+002 1.948390e+003
         vertex 1.043792e+003 7.953173e+002 1.885295e+003
         vertex 1.043792e+003 7.956649e+002 1.885457e+003
      endloop
   endfacet
   facet normal 1.000000e+000 1.040834e-016 -1.026531e-018
      outer loop
         vertex 1.043792e+003 7.960353e+002 1.881223e+003
         vertex 1.043792e+003 7.956649e+002 1.881323e+003
         vertex 1.043792e+003 7.934174e+002 1.873390e+003
      endloop
   endfacet
   facet normal 1.000000e+000 1.040834e-016 -1.026531e-018
      outer loop
         vertex 1.043792e+003 7.934174e+002 1.873390e+003
         vertex 1.043792e+003 7.956649e+002 1.881323e+003
         vertex 1.043792e+003 7.953173e+002 1.881485e+003
      endloop
   endfacet
   facet normal 1.000000e+000 1.040834e-016 -1.026531e-018
      outer loop
         vertex 1.043792e+003 7.934174e+002 1.873390e+003
         vertex 1.043792e+003 7.953173e+002 1.881485e+003
         vertex 1.043792e+003 7.950032e+002 1.881705e+003
      endloop
   endfacet
   facet normal 1.000000e+000 1.040834e-016 -1.026531e-018
      outer loop
         vertex 1.043792e+003 7.950032e+002 1.881705e+003
         vertex 1.043792e+003 7.947321e+002 1.881976e+003
         vertex 1.043792e+003 7.934174e+002 1.873390e+003
      endloop
   endfacet
   facet normal 1.000000e+000 1.040834e-016 -1.026531e-018
      outer loop
         vertex 1.043792e+003 7.934174e+002 1.873390e+003
         vertex 1.043792e+003 7.947321e+002 1.881976e+003
         vertex 1.043792e+003 7.945121e+002 1.882290e+003
      endloop
   endfacet
   facet normal 1.000000e+000 1.040834e-016 -1.026531e-018
      outer loop
         vertex 1.043792e+003 7.934174e+002 1.873390e+003
         vertex 1.043792e+003 7.945121e+002 1.882290e+003
         vertex 1.043792e+003 7.943500e+002 1.882637e+003
      endloop
   endfacet
   facet normal 1.000000e+000 1.040834e-016 -1.026531e-018
      outer loop
         vertex 1.043792e+003 7.943500e+002 1.882637e+003
         vertex 1.043792e+003 7.942507e+002 1.883008e+003
         vertex 1.043792e+003 7.934174e+002 1.873390e+003
      endloop
   endfacet
   facet normal 1.000000e+000 1.040834e-016 -1.026531e-018
      outer loop
         vertex 1.043792e+003 7.934174e+002 1.873390e+003
         vertex 1.043792e+003 7.942507e+002 1.883008e+003
         vertex 1.043792e+003 7.942173e+002 1.883390e+003
      endloop
   endfacet
   facet normal 1.000000e+000 1.040834e-016 -1.026531e-018
      outer loop
         vertex 1.043792e+003 7.934174e+002 1.873390e+003
         vertex 1.043792e+003 7.942173e+002 1.883390e+003
         vertex 1.043792e+003 7.934174e+002 1.948390e+003
      endloop
   endfacet
   facet normal 1.000000e+000 1.040834e-016 -1.026531e-018
      outer loop
         vertex 1.043792e+003 7.934174e+002 1.948390e+003
         vertex 1.043792e+003 7.942173e+002 1.883390e+003
         vertex 1.043792e+003 7.942507e+002 1.883772e+003
      endloop
   endfacet
   facet normal 1.000000e+000 1.040834e-016 -1.026531e-018
      outer loop
         vertex 1.043792e+003 7.934174e+002 1.948390e+003
         vertex 1.043792e+003 7.942507e+002 1.883772e+003
         vertex 1.043792e+003 7.943500e+002 1.884142e+003
      endloop
   endfacet
   facet normal 1.000000e+000 1.040834e-016 -1.026531e-018
      outer loop
         vertex 1.043792e+003 8.134173e+002 1.873390e+003
         vertex 1.043792e+003 8.111698e+002 1.881323e+003
         vertex 1.043792e+003 8.107994e+002 1.881223e+003
      endloop
   endfacet
   facet normal 1.000000e+000 1.040834e-016 -1.026531e-018
      outer loop
         vertex 1.043792e+003 8.087321e+002 1.881976e+003
         vertex 1.043792e+003 8.085121e+002 1.882290e+003
         vertex 1.043792e+003 7.971698e+002 1.885457e+003
      endloop
   endfacet
   facet normal 1.000000e+000 1.040834e-016 -1.026531e-018
      outer loop
         vertex 1.043792e+003 7.971698e+002 1.881323e+003
         vertex 1.043792e+003 7.967994e+002 1.881223e+003
         vertex 1.043792e+003 7.934174e+002 1.873390e+003
      endloop
   endfacet
   facet normal 1.000000e+000 1.040834e-016 -1.026531e-018
      outer loop
         vertex 1.043792e+003 7.934174e+002 1.873390e+003
         vertex 1.043792e+003 7.967994e+002 1.881223e+003
         vertex 1.043792e+003 7.964174e+002 1.881190e+003
      endloop
   endfacet
   facet normal 1.000000e+000 1.040834e-016 -1.026531e-018
      outer loop
         vertex 1.043792e+003 7.934174e+002 1.873390e+003
         vertex 1.043792e+003 7.964174e+002 1.881190e+003
         vertex 1.043792e+003 7.960353e+002 1.881223e+003
      endloop
   endfacet
   facet normal 1.000000e+000 1.040834e-016 -1.026531e-018
      outer loop
         vertex 1.043792e+003 7.967994e+002 1.885557e+003
         vertex 1.043792e+003 8.082508e+002 1.883772e+003
         vertex 1.043792e+003 8.083500e+002 1.884142e+003
      endloop
   endfacet
   facet normal 1.000000e+000 1.040834e-016 -1.026531e-018
      outer loop
         vertex 1.043792e+003 8.083500e+002 1.884142e+003
         vertex 1.043792e+003 8.085121e+002 1.884490e+003
         vertex 1.043792e+003 7.967994e+002 1.885557e+003
      endloop
   endfacet
   facet normal 1.000000e+000 1.040834e-016 -1.026531e-018
      outer loop
         vertex 1.043792e+003 7.967994e+002 1.885557e+003
         vertex 1.043792e+003 8.085121e+002 1.884490e+003
         vertex 1.043792e+003 8.087321e+002 1.884804e+003
      endloop
   endfacet
   facet normal 1.000000e+000 1.040834e-016 -1.026531e-018
      outer loop
         vertex 1.043792e+003 7.967994e+002 1.885557e+003
         vertex 1.043792e+003 8.087321e+002 1.884804e+003
         vertex 1.043792e+003 7.964174e+002 1.885590e+003
      endloop
   endfacet
   facet normal 1.000000e+000 1.040834e-016 -1.026531e-018
      outer loop
         vertex 1.043792e+003 8.093173e+002 1.885295e+003
         vertex 1.043792e+003 8.096649e+002 1.885457e+003
         vertex 1.043792e+003 7.934174e+002 1.948390e+003
      endloop
   endfacet
   facet normal 1.000000e+000 1.040834e-016 -1.026531e-018
      outer loop
         vertex 1.043792e+003 7.934174e+002 1.948390e+003
         vertex 1.043792e+003 8.096649e+002 1.885457e+003
         vertex 1.043792e+003 8.100353e+002 1.885557e+003
      endloop
   endfacet
   facet normal 1.000000e+000 1.040834e-016 -1.026531e-018
      outer loop
         vertex 1.043792e+003 7.934174e+002 1.948390e+003
         vertex 1.043792e+003 8.100353e+002 1.885557e+003
         vertex 1.043792e+003 8.134173e+002 1.948390e+003
      endloop
   endfacet
   facet normal 1.000000e+000 1.040834e-016 -1.026531e-018
      outer loop
         vertex 1.043792e+003 8.134173e+002 1.948390e+003
         vertex 1.043792e+003 8.100353e+002 1.885557e+003
         vertex 1.043792e+003 8.104174e+002 1.885590e+003
      endloop
   endfacet
   facet normal 1.000000e+000 1.040834e-016 -1.026531e-018
      outer loop
         vertex 1.043792e+003 8.134173e+002 1.948390e+003
         vertex 1.043792e+003 8.104174e+002 1.885590e+003
         vertex 1.043792e+003 8.107994e+002 1.885557e+003
      endloop
   endfacet
   facet normal 1.000000e+000 1.040834e-016 -1.026531e-018
      outer loop
         vertex 1.043792e+003 8.107994e+002 1.885557e+003
         vertex 1.043792e+003 8.111698e+002 1.885457e+003
         vertex 1.043792e+003 8.134173e+002 1.948390e+003
      endloop
   endfacet
   facet normal 1.000000e+000 1.040834e-016 -1.026531e-018
      outer loop
         vertex 1.043792e+003 8.134173e+002 1.948390e+003
         vertex 1.043792e+003 8.111698e+002 1.885457e+003
         vertex 1.043792e+003 8.115173e+002 1.885295e+003
      endloop
   endfacet
   facet normal 1.000000e+000 1.040834e-016 -1.026531e-018
      outer loop
         vertex 1.043792e+003 8.134173e+002 1.948390e+003
         vertex 1.043792e+003 8.115173e+002 1.885295e+003
         vertex 1.043792e+003 8.118315e+002 1.885075e+003
      endloop
   endfacet
   facet normal 1.000000e+000 1.040834e-016 -1.026531e-018
      outer loop
         vertex 1.043792e+003 7.964174e+002 1.885590e+003
         vertex 1.043792e+003 8.087321e+002 1.884804e+003
         vertex 1.043792e+003 7.934174e+002 1.948390e+003
      endloop
   endfacet
   facet normal 1.000000e+000 1.040834e-016 -1.026531e-018
      outer loop
         vertex 1.043792e+003 7.934174e+002 1.948390e+003
         vertex 1.043792e+003 8.087321e+002 1.884804e+003
         vertex 1.043792e+003 8.090032e+002 1.885075e+003
      endloop
   endfacet
   facet normal 1.000000e+000 1.040834e-016 -1.026531e-018
      outer loop
         vertex 1.043792e+003 7.934174e+002 1.948390e+003
         vertex 1.043792e+003 8.090032e+002 1.885075e+003
         vertex 1.043792e+003 8.093173e+002 1.885295e+003
      endloop
   endfacet
   facet normal 1.000000e+000 1.040834e-016 -1.026531e-018
      outer loop
         vertex 1.043792e+003 8.118315e+002 1.885075e+003
         vertex 1.043792e+003 8.121026e+002 1.884804e+003
         vertex 1.043792e+003 8.134173e+002 1.948390e+003
      endloop
   endfacet
   facet normal 1.000000e+000 1.040834e-016 -1.026531e-018
      outer loop
         vertex 1.043792e+003 8.134173e+002 1.948390e+003
         vertex 1.043792e+003 8.121026e+002 1.884804e+003
         vertex 1.043792e+003 8.123226e+002 1.884490e+003
      endloop
   endfacet
   facet normal 1.000000e+000 1.040834e-016 -1.026531e-018
      outer loop
         vertex 1.043792e+003 8.134173e+002 1.948390e+003
         vertex 1.043792e+003 8.123226e+002 1.884490e+003
         vertex 1.043792e+003 8.124847e+002 1.884142e+003
      endloop
   endfacet
   facet normal 1.000000e+000 1.040834e-016 -1.026531e-018
      outer loop
         vertex 1.043792e+003 8.107994e+002 1.881223e+003
         vertex 1.043792e+003 8.104174e+002 1.881190e+003
         vertex 1.043792e+003 8.134173e+002 1.873390e+003
      endloop
   endfacet
   facet normal 1.000000e+000 1.040834e-016 -1.026531e-018
      outer loop
         vertex 1.043792e+003 8.134173e+002 1.873390e+003
         vertex 1.043792e+003 8.104174e+002 1.881190e+003
         vertex 1.043792e+003 8.100353e+002 1.881223e+003
      endloop
   endfacet
   facet normal 1.000000e+000 1.040834e-016 -1.026531e-018
      outer loop
         vertex 1.043792e+003 8.134173e+002 1.873390e+003
         vertex 1.043792e+003 8.100353e+002 1.881223e+003
         vertex 1.043792e+003 7.934174e+002 1.873390e+003
      endloop
   endfacet
   facet normal 1.000000e+000 1.040834e-016 -1.026531e-018
      outer loop
         vertex 1.043792e+003 7.934174e+002 1.873390e+003
         vertex 1.043792e+003 8.100353e+002 1.881223e+003
         vertex 1.043792e+003 8.096649e+002 1.881323e+003
      endloop
   endfacet
   facet normal 1.000000e+000 1.040834e-016 -1.026531e-018
      outer loop
         vertex 1.043792e+003 7.934174e+002 1.873390e+003
         vertex 1.043792e+003 8.096649e+002 1.881323e+003
         vertex 1.043792e+003 8.093173e+002 1.881485e+003
      endloop
   endfacet
   facet normal 1.000000e+000 1.040834e-016 -1.026531e-018
      outer loop
         vertex 1.043792e+003 8.087321e+002 1.881976e+003
         vertex 1.043792e+003 7.971698e+002 1.885457e+003
         vertex 1.043792e+003 8.090032e+002 1.881705e+003
      endloop
   endfacet
   facet normal 1.000000e+000 1.040834e-016 -1.026531e-018
      outer loop
         vertex 1.043792e+003 8.085121e+002 1.882290e+003
         vertex 1.043792e+003 8.083500e+002 1.882637e+003
         vertex 1.043792e+003 7.971698e+002 1.885457e+003
      endloop
   endfacet
   facet normal 1.000000e+000 1.040834e-016 -1.026531e-018
      outer loop
         vertex 1.043792e+003 7.971698e+002 1.885457e+003
         vertex 1.043792e+003 8.083500e+002 1.882637e+003
         vertex 1.043792e+003 8.082508e+002 1.883008e+003
      endloop
   endfacet
   facet normal 1.000000e+000 1.040834e-016 -1.026531e-018
      outer loop
         vertex 1.043792e+003 7.971698e+002 1.885457e+003
         vertex 1.043792e+003 8.082508e+002 1.883008e+003
         vertex 1.043792e+003 7.967994e+002 1.885557e+003
      endloop
   endfacet
   facet normal 1.000000e+000 1.040834e-016 -1.026531e-018
      outer loop
         vertex 1.043792e+003 7.967994e+002 1.885557e+003
         vertex 1.043792e+003 8.082508e+002 1.883008e+003
         vertex 1.043792e+003 8.082173e+002 1.883390e+003
      endloop
   endfacet
   facet normal 1.000000e+000 1.040834e-016 -1.026531e-018
      outer loop
         vertex 1.043792e+003 7.967994e+002 1.885557e+003
         vertex 1.043792e+003 8.082173e+002 1.883390e+003
         vertex 1.043792e+003 8.082508e+002 1.883772e+003
      endloop
   endfacet
   facet normal 1.000000e+000 1.040834e-016 -1.026531e-018
      outer loop
         vertex 1.043792e+003 8.090032e+002 1.881705e+003
         vertex 1.043792e+003 7.971698e+002 1.885457e+003
         vertex 1.043792e+003 8.093173e+002 1.881485e+003
      endloop
   endfacet
   facet normal 1.000000e+000 1.040834e-016 -1.026531e-018
      outer loop
         vertex 1.043792e+003 8.093173e+002 1.881485e+003
         vertex 1.043792e+003 7.971698e+002 1.885457e+003
         vertex 1.043792e+003 7.975173e+002 1.885295e+003
      endloop
   endfacet
   facet normal 1.000000e+000 1.040834e-016 -1.026531e-018
      outer loop
         vertex 1.043792e+003 8.093173e+002 1.881485e+003
         vertex 1.043792e+003 7.975173e+002 1.885295e+003
         vertex 1.043792e+003 7.978315e+002 1.885075e+003
      endloop
   endfacet
   facet normal 1.000000e+000 1.040834e-016 -1.026531e-018
      outer loop
         vertex 1.043792e+003 7.978315e+002 1.885075e+003
         vertex 1.043792e+003 7.981026e+002 1.884804e+003
         vertex 1.043792e+003 8.093173e+002 1.881485e+003
      endloop
   endfacet
   facet normal 1.000000e+000 1.040834e-016 -1.026531e-018
      outer loop
         vertex 1.043792e+003 8.093173e+002 1.881485e+003
         vertex 1.043792e+003 7.981026e+002 1.884804e+003
         vertex 1.043792e+003 7.983226e+002 1.884490e+003
      endloop
   endfacet
   facet normal 1.000000e+000 1.040834e-016 -1.026531e-018
      outer loop
         vertex 1.043792e+003 8.093173e+002 1.881485e+003
         vertex 1.043792e+003 7.983226e+002 1.884490e+003
         vertex 1.043792e+003 7.984847e+002 1.884142e+003
      endloop
   endfacet
   facet normal 1.000000e+000 1.040834e-016 -1.026531e-018
      outer loop
         vertex 1.043792e+003 8.093173e+002 1.881485e+003
         vertex 1.043792e+003 7.978315e+002 1.881705e+003
         vertex 1.043792e+003 7.934174e+002 1.873390e+003
      endloop
   endfacet
   facet normal 1.000000e+000 1.040834e-016 -1.026531e-018
      outer loop
         vertex 1.043792e+003 7.934174e+002 1.873390e+003
         vertex 1.043792e+003 7.978315e+002 1.881705e+003
         vertex 1.043792e+003 7.975173e+002 1.881485e+003
      endloop
   endfacet
   facet normal 1.000000e+000 1.040834e-016 -1.026531e-018
      outer loop
         vertex 1.043792e+003 7.934174e+002 1.873390e+003
         vertex 1.043792e+003 7.975173e+002 1.881485e+003
         vertex 1.043792e+003 7.971698e+002 1.881323e+003
      endloop
   endfacet
   facet normal 1.000000e+000 1.040834e-016 -1.026531e-018
      outer loop
         vertex 1.043792e+003 8.124847e+002 1.884142e+003
         vertex 1.043792e+003 8.125839e+002 1.883772e+003
         vertex 1.043792e+003 8.134173e+002 1.948390e+003
      endloop
   endfacet
   facet normal 1.000000e+000 1.040834e-016 -1.026531e-018
      outer loop
         vertex 1.043792e+003 8.134173e+002 1.948390e+003
         vertex 1.043792e+003 8.125839e+002 1.883772e+003
         vertex 1.043792e+003 8.126174e+002 1.883390e+003
      endloop
   endfacet
   facet normal 1.000000e+000 1.040834e-016 -1.026531e-018
      outer loop
         vertex 1.043792e+003 8.134173e+002 1.948390e+003
         vertex 1.043792e+003 8.126174e+002 1.883390e+003
         vertex 1.043792e+003 8.134173e+002 1.873390e+003
      endloop
   endfacet
   facet normal 1.000000e+000 1.040834e-016 -1.026531e-018
      outer loop
         vertex 1.043792e+003 8.134173e+002 1.873390e+003
         vertex 1.043792e+003 8.126174e+002 1.883390e+003
         vertex 1.043792e+003 8.125839e+002 1.883008e+003
      endloop
   endfacet
   facet normal 1.000000e+000 1.040834e-016 -1.026531e-018
      outer loop
         vertex 1.043792e+003 8.093173e+002 1.881485e+003
         vertex 1.043792e+003 7.985839e+002 1.883008e+003
         vertex 1.043792e+003 7.984847e+002 1.882637e+003
      endloop
   endfacet
   facet normal 1.000000e+000 1.040834e-016 -1.026531e-018
      outer loop
         vertex 1.043792e+003 8.125839e+002 1.883008e+003
         vertex 1.043792e+003 8.124847e+002 1.882637e+003
         vertex 1.043792e+003 8.134173e+002 1.873390e+003
      endloop
   endfacet
   facet normal 1.000000e+000 1.040834e-016 -1.026531e-018
      outer loop
         vertex 1.043792e+003 8.134173e+002 1.873390e+003
         vertex 1.043792e+003 8.124847e+002 1.882637e+003
         vertex 1.043792e+003 8.123226e+002 1.882290e+003
      endloop
   endfacet
   facet normal 1.000000e+000 1.040834e-016 -1.026531e-018
      outer loop
         vertex 1.043792e+003 8.134173e+002 1.873390e+003
         vertex 1.043792e+003 8.123226e+002 1.882290e+003
         vertex 1.043792e+003 8.121026e+002 1.881976e+003
      endloop
   endfacet
   facet normal 1.000000e+000 1.040834e-016 -1.026531e-018
      outer loop
         vertex 1.043792e+003 7.984847e+002 1.884142e+003
         vertex 1.043792e+003 7.985839e+002 1.883772e+003
         vertex 1.043792e+003 8.093173e+002 1.881485e+003
      endloop
   endfacet
   facet normal 1.000000e+000 1.040834e-016 -1.026531e-018
      outer loop
         vertex 1.043792e+003 8.093173e+002 1.881485e+003
         vertex 1.043792e+003 7.985839e+002 1.883772e+003
         vertex 1.043792e+003 7.986173e+002 1.883390e+003
      endloop
   endfacet
   facet normal 1.000000e+000 1.040834e-016 -1.026531e-018
      outer loop
         vertex 1.043792e+003 8.093173e+002 1.881485e+003
         vertex 1.043792e+003 7.986173e+002 1.883390e+003
         vertex 1.043792e+003 7.985839e+002 1.883008e+003
      endloop
   endfacet
   facet normal 1.000000e+000 1.040834e-016 -1.026531e-018
      outer loop
         vertex 1.043792e+003 7.984847e+002 1.882637e+003
         vertex 1.043792e+003 7.983226e+002 1.882290e+003
         vertex 1.043792e+003 8.093173e+002 1.881485e+003
      endloop
   endfacet
   facet normal 1.000000e+000 1.040834e-016 -1.026531e-018
      outer loop
         vertex 1.043792e+003 8.093173e+002 1.881485e+003
         vertex 1.043792e+003 7.983226e+002 1.882290e+003
         vertex 1.043792e+003 7.981026e+002 1.881976e+003
      endloop
   endfacet
   facet normal 1.000000e+000 1.040834e-016 -1.026531e-018
      outer loop
         vertex 1.043792e+003 8.093173e+002 1.881485e+003
         vertex 1.043792e+003 7.981026e+002 1.881976e+003
         vertex 1.043792e+003 7.978315e+002 1.881705e+003
      endloop
   endfacet
   facet normal 1.000000e+000 1.040834e-016 -1.026531e-018
      outer loop
         vertex 1.043792e+003 8.121026e+002 1.881976e+003
         vertex 1.043792e+003 8.118315e+002 1.881705e+003
         vertex 1.043792e+003 8.134173e+002 1.873390e+003
      endloop
   endfacet
   facet normal 1.000000e+000 1.040834e-016 -1.026531e-018
      outer loop
         vertex 1.043792e+003 8.134173e+002 1.873390e+003
         vertex 1.043792e+003 8.118315e+002 1.881705e+003
         vertex 1.043792e+003 8.115173e+002 1.881485e+003
      endloop
   endfacet
   facet normal 1.000000e+000 1.040834e-016 -1.026531e-018
      outer loop
         vertex 1.043792e+003 8.134173e+002 1.873390e+003
         vertex 1.043792e+003 8.115173e+002 1.881485e+003
         vertex 1.043792e+003 8.111698e+002 1.881323e+003
      endloop
   endfacet
   facet normal 6.271981e-017 -9.983120e-001 -5.807914e-002
      outer loop
         vertex 1.043792e+003 7.985839e+002 1.883772e+003
         vertex 1.038792e+003 7.986173e+002 1.883390e+003
         vertex 1.043792e+003 7.986173e+002 1.883390e+003
      endloop
   endfacet
   facet normal 6.196945e-017 -9.983120e-001 5.807914e-002
      outer loop
         vertex 1.043792e+003 7.986173e+002 1.883390e+003
         vertex 1.038792e+003 7.986173e+002 1.883390e+003
         vertex 1.038792e+003 7.985839e+002 1.883008e+003
      endloop
   endfacet
   facet normal 6.127695e-017 -9.932307e-001 1.161583e-001
      outer loop
         vertex 1.043792e+003 7.986173e+002 1.883390e+003
         vertex 1.038792e+003 7.985839e+002 1.883008e+003
         vertex 1.043792e+003 7.985839e+002 1.883008e+003
      endloop
   endfacet
   facet normal 5.927834e-017 -9.730601e-001 2.305518e-001
      outer loop
         vertex 1.043792e+003 7.985839e+002 1.883008e+003
         vertex 1.038792e+003 7.985839e+002 1.883008e+003
         vertex 1.038792e+003 7.984847e+002 1.882637e+003
      endloop
   endfacet
   facet normal 5.797223e-017 -9.579706e-001 2.868663e-001
      outer loop
         vertex 1.043792e+003 7.985839e+002 1.883008e+003
         vertex 1.038792e+003 7.984847e+002 1.882637e+003
         vertex 1.043792e+003 7.984847e+002 1.882637e+003
      endloop
   endfacet
   facet normal 5.478608e-017 -9.182422e-001 3.960194e-001
      outer loop
         vertex 1.043792e+003 7.984847e+002 1.882637e+003
         vertex 1.038792e+003 7.984847e+002 1.882637e+003
         vertex 1.038792e+003 7.983226e+002 1.882290e+003
      endloop
   endfacet
   facet normal 5.290605e-017 -8.936031e-001 4.488580e-001
      outer loop
         vertex 1.043792e+003 7.984847e+002 1.882637e+003
         vertex 1.038792e+003 7.983226e+002 1.882290e+003
         vertex 1.043792e+003 7.983226e+002 1.882290e+003
      endloop
   endfacet
   facet normal 4.862919e-017 -8.355240e-001 5.494540e-001
      outer loop
         vertex 1.043792e+003 7.983226e+002 1.882290e+003
         vertex 1.038792e+003 7.983226e+002 1.882290e+003
         vertex 1.038792e+003 7.981026e+002 1.881976e+003
      endloop
   endfacet
   facet normal 4.623235e-017 -8.020839e-001 5.972114e-001
      outer loop
         vertex 1.043792e+003 7.983226e+002 1.882290e+003
         vertex 1.038792e+003 7.981026e+002 1.881976e+003
         vertex 1.043792e+003 7.981026e+002 1.881976e+003
      endloop
   endfacet
   facet normal 4.099471e-017 -7.274188e-001 6.861938e-001
      outer loop
         vertex 1.043792e+003 7.981026e+002 1.881976e+003
         vertex 1.038792e+003 7.981026e+002 1.881976e+003
         vertex 1.038792e+003 7.978315e+002 1.881705e+003
      endloop
   endfacet
   facet normal 3.815390e-017 -6.861938e-001 7.274188e-001
      outer loop
         vertex 1.043792e+003 7.981026e+002 1.881976e+003
         vertex 1.038792e+003 7.978315e+002 1.881705e+003
         vertex 1.043792e+003 7.978315e+002 1.881705e+003
      endloop
   endfacet
   facet normal 3.211463e-017 -5.972114e-001 8.020839e-001
      outer loop
         vertex 1.043792e+003 7.978315e+002 1.881705e+003
         vertex 1.038792e+003 7.978315e+002 1.881705e+003
         vertex 1.038792e+003 7.975173e+002 1.881485e+003
      endloop
   endfacet
   facet normal 2.891617e-017 -5.494540e-001 8.355240e-001
      outer loop
         vertex 1.043792e+003 7.978315e+002 1.881705e+003
         vertex 1.038792e+003 7.975173e+002 1.881485e+003
         vertex 1.043792e+003 7.975173e+002 1.881485e+003
      endloop
   endfacet
   facet normal 2.225877e-017 -4.488580e-001 8.936031e-001
      outer loop
         vertex 1.043792e+003 7.975173e+002 1.881485e+003
         vertex 1.038792e+003 7.975173e+002 1.881485e+003
         vertex 1.038792e+003 7.971698e+002 1.881323e+003
      endloop
   endfacet
   facet normal 1.879983e-017 -3.960194e-001 9.182422e-001
      outer loop
         vertex 1.043792e+003 7.975173e+002 1.881485e+003
         vertex 1.038792e+003 7.971698e+002 1.881323e+003
         vertex 1.043792e+003 7.971698e+002 1.881323e+003
      endloop
   endfacet
   facet normal 1.172658e-017 -2.868663e-001 9.579706e-001
      outer loop
         vertex 1.043792e+003 7.971698e+002 1.881323e+003
         vertex 1.038792e+003 7.971698e+002 1.881323e+003
         vertex 1.038792e+003 7.967994e+002 1.881223e+003
      endloop
   endfacet
   facet normal 8.112267e-018 -2.305518e-001 9.730601e-001
      outer loop
         vertex 1.043792e+003 7.971698e+002 1.881323e+003
         vertex 1.038792e+003 7.967994e+002 1.881223e+003
         vertex 1.043792e+003 7.967994e+002 1.881223e+003
      endloop
   endfacet
   facet normal 8.380871e-019 -1.161583e-001 9.932307e-001
      outer loop
         vertex 1.043792e+003 7.967994e+002 1.881223e+003
         vertex 1.038792e+003 7.967994e+002 1.881223e+003
         vertex 1.038792e+003 7.964174e+002 1.881190e+003
      endloop
   endfacet
   facet normal -2.821781e-018 -5.807914e-002 9.983120e-001
      outer loop
         vertex 1.043792e+003 7.967994e+002 1.881223e+003
         vertex 1.038792e+003 7.964174e+002 1.881190e+003
         vertex 1.043792e+003 7.964174e+002 1.881190e+003
      endloop
   endfacet
   facet normal -1.007587e-017 5.807914e-002 9.983120e-001
      outer loop
         vertex 1.043792e+003 7.964174e+002 1.881190e+003
         vertex 1.038792e+003 7.964174e+002 1.881190e+003
         vertex 1.038792e+003 7.960353e+002 1.881223e+003
      endloop
   endfacet
   facet normal -1.367009e-017 1.161583e-001 9.932307e-001
      outer loop
         vertex 1.043792e+003 7.964174e+002 1.881190e+003
         vertex 1.038792e+003 7.960353e+002 1.881223e+003
         vertex 1.043792e+003 7.960353e+002 1.881223e+003
      endloop
   endfacet
   facet normal -2.068368e-017 2.305518e-001 9.730601e-001
      outer loop
         vertex 1.043792e+003 7.960353e+002 1.881223e+003
         vertex 1.038792e+003 7.960353e+002 1.881223e+003
         vertex 1.038792e+003 7.956649e+002 1.881323e+003
      endloop
   endfacet
   facet normal -2.410304e-017 2.868663e-001 9.579706e-001
      outer loop
         vertex 1.043792e+003 7.960353e+002 1.881223e+003
         vertex 1.038792e+003 7.956649e+002 1.881323e+003
         vertex 1.043792e+003 7.956649e+002 1.881323e+003
      endloop
   endfacet
   facet normal -3.066302e-017 3.960194e-001 9.182422e-001
      outer loop
         vertex 1.043792e+003 7.956649e+002 1.881323e+003
         vertex 1.038792e+003 7.956649e+002 1.881323e+003
         vertex 1.038792e+003 7.953173e+002 1.881485e+003
      endloop
   endfacet
   facet normal -3.380364e-017 4.488580e-001 8.936031e-001
      outer loop
         vertex 1.043792e+003 7.956649e+002 1.881323e+003
         vertex 1.038792e+003 7.953173e+002 1.881485e+003
         vertex 1.043792e+003 7.953173e+002 1.881485e+003
      endloop
   endfacet
   facet normal -3.971068e-017 5.494540e-001 8.355240e-001
      outer loop
         vertex 1.043792e+003 7.953173e+002 1.881485e+003
         vertex 1.038792e+003 7.953173e+002 1.881485e+003
         vertex 1.038792e+003 7.950032e+002 1.881705e+003
      endloop
   endfacet
   facet normal -4.247712e-017 5.972114e-001 8.020839e-001
      outer loop
         vertex 1.043792e+003 7.953173e+002 1.881485e+003
         vertex 1.038792e+003 7.950032e+002 1.881705e+003
         vertex 1.043792e+003 7.950032e+002 1.881705e+003
      endloop
   endfacet
   facet normal -4.755176e-017 6.861938e-001 7.274188e-001
      outer loop
         vertex 1.043792e+003 7.950032e+002 1.881705e+003
         vertex 1.038792e+003 7.950032e+002 1.881705e+003
         vertex 1.038792e+003 7.947321e+002 1.881976e+003
      endloop
   endfacet
   facet normal -4.985996e-017 7.274188e-001 6.861938e-001
      outer loop
         vertex 1.043792e+003 7.950032e+002 1.881705e+003
         vertex 1.038792e+003 7.947321e+002 1.881976e+003
         vertex 1.043792e+003 7.947321e+002 1.881976e+003
      endloop
   endfacet
   facet normal -5.394800e-017 8.020839e-001 5.972114e-001
      outer loop
         vertex 1.043792e+003 7.947321e+002 1.881976e+003
         vertex 1.038792e+003 7.947321e+002 1.881976e+003
         vertex 1.038792e+003 7.945121e+002 1.882290e+003
      endloop
   endfacet
   facet normal -5.572783e-017 8.355240e-001 5.494540e-001
      outer loop
         vertex 1.043792e+003 7.947321e+002 1.881976e+003
         vertex 1.038792e+003 7.945121e+002 1.882290e+003
         vertex 1.043792e+003 7.945121e+002 1.882290e+003
      endloop
   endfacet
   facet normal -5.870505e-017 8.936031e-001 4.488580e-001
      outer loop
         vertex 1.043792e+003 7.945121e+002 1.882290e+003
         vertex 1.038792e+003 7.945121e+002 1.882290e+003
         vertex 1.038792e+003 7.943500e+002 1.882637e+003
      endloop
   endfacet
   facet normal -5.990244e-017 9.182422e-001 3.960194e-001
      outer loop
         vertex 1.043792e+003 7.945121e+002 1.882290e+003
         vertex 1.038792e+003 7.943500e+002 1.882637e+003
         vertex 1.043792e+003 7.943500e+002 1.882637e+003
      endloop
   endfacet
   facet normal -6.167839e-017 9.579706e-001 2.868663e-001
      outer loop
         vertex 1.043792e+003 7.943500e+002 1.882637e+003
         vertex 1.038792e+003 7.943500e+002 1.882637e+003
         vertex 1.038792e+003 7.942507e+002 1.883008e+003
      endloop
   endfacet
   facet normal -6.225695e-017 9.730601e-001 2.305518e-001
      outer loop
         vertex 1.043792e+003 7.943500e+002 1.882637e+003
         vertex 1.038792e+003 7.942507e+002 1.883008e+003
         vertex 1.043792e+003 7.942507e+002 1.883008e+003
      endloop
   endfacet
   facet normal -6.277765e-017 9.932307e-001 1.161583e-001
      outer loop
         vertex 1.043792e+003 7.942507e+002 1.883008e+003
         vertex 1.038792e+003 7.942507e+002 1.883008e+003
         vertex 1.038792e+003 7.942173e+002 1.883390e+003
      endloop
   endfacet
   facet normal -6.271981e-017 9.983120e-001 5.807914e-002
      outer loop
         vertex 1.043792e+003 7.942507e+002 1.883008e+003
         vertex 1.038792e+003 7.942173e+002 1.883390e+003
         vertex 1.043792e+003 7.942173e+002 1.883390e+003
      endloop
   endfacet
   facet normal -6.196945e-017 9.983120e-001 -5.807914e-002
      outer loop
         vertex 1.043792e+003 7.942173e+002 1.883390e+003
         vertex 1.038792e+003 7.942173e+002 1.883390e+003
         vertex 1.038792e+003 7.942507e+002 1.883772e+003
      endloop
   endfacet
   facet normal -6.127695e-017 9.932307e-001 -1.161583e-001
      outer loop
         vertex 1.043792e+003 7.942173e+002 1.883390e+003
         vertex 1.038792e+003 7.942507e+002 1.883772e+003
         vertex 1.043792e+003 7.942507e+002 1.883772e+003
      endloop
   endfacet
   facet normal -5.927834e-017 9.730601e-001 -2.305518e-001
      outer loop
         vertex 1.043792e+003 7.942507e+002 1.883772e+003
         vertex 1.038792e+003 7.942507e+002 1.883772e+003
         vertex 1.038792e+003 7.943500e+002 1.884142e+003
      endloop
   endfacet
   facet normal -5.797223e-017 9.579706e-001 -2.868663e-001
      outer loop
         vertex 1.043792e+003 7.942507e+002 1.883772e+003
         vertex 1.038792e+003 7.943500e+002 1.884142e+003
         vertex 1.043792e+003 7.943500e+002 1.884142e+003
      endloop
   endfacet
   facet normal -5.478608e-017 9.182422e-001 -3.960194e-001
      outer loop
         vertex 1.043792e+003 7.943500e+002 1.884142e+003
         vertex 1.038792e+003 7.943500e+002 1.884142e+003
         vertex 1.038792e+003 7.945121e+002 1.884490e+003
      endloop
   endfacet
   facet normal -5.290605e-017 8.936031e-001 -4.488580e-001
      outer loop
         vertex 1.043792e+003 7.943500e+002 1.884142e+003
         vertex 1.038792e+003 7.945121e+002 1.884490e+003
         vertex 1.043792e+003 7.945121e+002 1.884490e+003
      endloop
   endfacet
   facet normal -4.862919e-017 8.355240e-001 -5.494540e-001
      outer loop
         vertex 1.043792e+003 7.945121e+002 1.884490e+003
         vertex 1.038792e+003 7.945121e+002 1.884490e+003
         vertex 1.038792e+003 7.947321e+002 1.884804e+003
      endloop
   endfacet
   facet normal -4.623235e-017 8.020839e-001 -5.972114e-001
      outer loop
         vertex 1.043792e+003 7.945121e+002 1.884490e+003
         vertex 1.038792e+003 7.947321e+002 1.884804e+003
         vertex 1.043792e+003 7.947321e+002 1.884804e+003
      endloop
   endfacet
   facet normal -4.099471e-017 7.274188e-001 -6.861938e-001
      outer loop
         vertex 1.043792e+003 7.947321e+002 1.884804e+003
         vertex 1.038792e+003 7.947321e+002 1.884804e+003
         vertex 1.038792e+003 7.950032e+002 1.885075e+003
      endloop
   endfacet
   facet normal -3.815390e-017 6.861938e-001 -7.274188e-001
      outer loop
         vertex 1.043792e+003 7.947321e+002 1.884804e+003
         vertex 1.038792e+003 7.950032e+002 1.885075e+003
         vertex 1.043792e+003 7.950032e+002 1.885075e+003
      endloop
   endfacet
   facet normal -3.211463e-017 5.972114e-001 -8.020839e-001
      outer loop
         vertex 1.043792e+003 7.950032e+002 1.885075e+003
         vertex 1.038792e+003 7.950032e+002 1.885075e+003
         vertex 1.038792e+003 7.953173e+002 1.885295e+003
      endloop
   endfacet
   facet normal -2.891617e-017 5.494540e-001 -8.355240e-001
      outer loop
         vertex 1.043792e+003 7.950032e+002 1.885075e+003
         vertex 1.038792e+003 7.953173e+002 1.885295e+003
         vertex 1.043792e+003 7.953173e+002 1.885295e+003
      endloop
   endfacet
   facet normal -2.225877e-017 4.488580e-001 -8.936031e-001
      outer loop
         vertex 1.043792e+003 7.953173e+002 1.885295e+003
         vertex 1.038792e+003 7.953173e+002 1.885295e+003
         vertex 1.038792e+003 7.956649e+002 1.885457e+003
      endloop
   endfacet
   facet normal -1.879983e-017 3.960194e-001 -9.182422e-001
      outer loop
         vertex 1.043792e+003 7.953173e+002 1.885295e+003
         vertex 1.038792e+003 7.956649e+002 1.885457e+003
         vertex 1.043792e+003 7.956649e+002 1.885457e+003
      endloop
   endfacet
   facet normal -1.172658e-017 2.868663e-001 -9.579706e-001
      outer loop
         vertex 1.043792e+003 7.956649e+002 1.885457e+003
         vertex 1.038792e+003 7.956649e+002 1.885457e+003
         vertex 1.038792e+003 7.960353e+002 1.885557e+003
      endloop
   endfacet
   facet normal -8.112267e-018 2.305518e-001 -9.730601e-001
      outer loop
         vertex 1.043792e+003 7.956649e+002 1.885457e+003
         vertex 1.038792e+003 7.960353e+002 1.885557e+003
         vertex 1.043792e+003 7.960353e+002 1.885557e+003
      endloop
   endfacet
   facet normal -8.380871e-019 1.161583e-001 -9.932307e-001
      outer loop
         vertex 1.043792e+003 7.960353e+002 1.885557e+003
         vertex 1.038792e+003 7.960353e+002 1.885557e+003
         vertex 1.038792e+003 7.964174e+002 1.885590e+003
      endloop
   endfacet
   facet normal 2.821781e-018 5.807914e-002 -9.983120e-001
      outer loop
         vertex 1.043792e+003 7.960353e+002 1.885557e+003
         vertex 1.038792e+003 7.964174e+002 1.885590e+003
         vertex 1.043792e+003 7.964174e+002 1.885590e+003
      endloop
   endfacet
   facet normal 1.007587e-017 -5.807914e-002 -9.983120e-001
      outer loop
         vertex 1.043792e+003 7.964174e+002 1.885590e+003
         vertex 1.038792e+003 7.964174e+002 1.885590e+003
         vertex 1.038792e+003 7.967994e+002 1.885557e+003
      endloop
   endfacet
   facet normal 1.367009e-017 -1.161583e-001 -9.932307e-001
      outer loop
         vertex 1.043792e+003 7.964174e+002 1.885590e+003
         vertex 1.038792e+003 7.967994e+002 1.885557e+003
         vertex 1.043792e+003 7.967994e+002 1.885557e+003
      endloop
   endfacet
   facet normal 2.068368e-017 -2.305518e-001 -9.730601e-001
      outer loop
         vertex 1.043792e+003 7.967994e+002 1.885557e+003
         vertex 1.038792e+003 7.967994e+002 1.885557e+003
         vertex 1.038792e+003 7.971698e+002 1.885457e+003
      endloop
   endfacet
   facet normal 2.410304e-017 -2.868663e-001 -9.579706e-001
      outer loop
         vertex 1.043792e+003 7.967994e+002 1.885557e+003
         vertex 1.038792e+003 7.971698e+002 1.885457e+003
         vertex 1.043792e+003 7.971698e+002 1.885457e+003
      endloop
   endfacet
   facet normal 3.066302e-017 -3.960194e-001 -9.182422e-001
      outer loop
         vertex 1.043792e+003 7.971698e+002 1.885457e+003
         vertex 1.038792e+003 7.971698e+002 1.885457e+003
         vertex 1.038792e+003 7.975173e+002 1.885295e+003
      endloop
   endfacet
   facet normal 3.380364e-017 -4.488580e-001 -8.936031e-001
      outer loop
         vertex 1.043792e+003 7.971698e+002 1.885457e+003
         vertex 1.038792e+003 7.975173e+002 1.885295e+003
         vertex 1.043792e+003 7.975173e+002 1.885295e+003
      endloop
   endfacet
   facet normal 3.971068e-017 -5.494540e-001 -8.355240e-001
      outer loop
         vertex 1.043792e+003 7.975173e+002 1.885295e+003
         vertex 1.038792e+003 7.975173e+002 1.885295e+003
         vertex 1.038792e+003 7.978315e+002 1.885075e+003
      endloop
   endfacet
   facet normal 4.247712e-017 -5.972114e-001 -8.020839e-001
      outer loop
         vertex 1.043792e+003 7.975173e+002 1.885295e+003
         vertex 1.038792e+003 7.978315e+002 1.885075e+003
         vertex 1.043792e+003 7.978315e+002 1.885075e+003
      endloop
   endfacet
   facet normal 4.755176e-017 -6.861938e-001 -7.274188e-001
      outer loop
         vertex 1.043792e+003 7.978315e+002 1.885075e+003
         vertex 1.038792e+003 7.978315e+002 1.885075e+003
         vertex 1.038792e+003 7.981026e+002 1.884804e+003
      endloop
   endfacet
   facet normal 4.985996e-017 -7.274188e-001 -6.861938e-001
      outer loop
         vertex 1.043792e+003 7.978315e+002 1.885075e+003
         vertex 1.038792e+003 7.981026e+002 1.884804e+003
         vertex 1.043792e+003 7.981026e+002 1.884804e+003
      endloop
   endfacet
   facet normal 5.394800e-017 -8.020839e-001 -5.972114e-001
      outer loop
         vertex 1.043792e+003 7.981026e+002 1.884804e+003
         vertex 1.038792e+003 7.981026e+002 1.884804e+003
         vertex 1.038792e+003 7.983226e+002 1.884490e+003
      endloop
   endfacet
   facet normal 5.572783e-017 -8.355240e-001 -5.494540e-001
      outer loop
         vertex 1.043792e+003 7.981026e+002 1.884804e+003
         vertex 1.038792e+003 7.983226e+002 1.884490e+003
         vertex 1.043792e+003 7.983226e+002 1.884490e+003
      endloop
   endfacet
   facet normal 5.870505e-017 -8.936031e-001 -4.488580e-001
      outer loop
         vertex 1.043792e+003 7.983226e+002 1.884490e+003
         vertex 1.038792e+003 7.983226e+002 1.884490e+003
         vertex 1.038792e+003 7.984847e+002 1.884142e+003
      endloop
   endfacet
   facet normal 5.990244e-017 -9.182422e-001 -3.960194e-001
      outer loop
         vertex 1.043792e+003 7.983226e+002 1.884490e+003
         vertex 1.038792e+003 7.984847e+002 1.884142e+003
         vertex 1.043792e+003 7.984847e+002 1.884142e+003
      endloop
   endfacet
   facet normal 6.167839e-017 -9.579706e-001 -2.868663e-001
      outer loop
         vertex 1.043792e+003 7.984847e+002 1.884142e+003
         vertex 1.038792e+003 7.984847e+002 1.884142e+003
         vertex 1.038792e+003 7.985839e+002 1.883772e+003
      endloop
   endfacet
   facet normal 6.225695e-017 -9.730601e-001 -2.305518e-001
      outer loop
         vertex 1.043792e+003 7.984847e+002 1.884142e+003
         vertex 1.038792e+003 7.985839e+002 1.883772e+003
         vertex 1.043792e+003 7.985839e+002 1.883772e+003
      endloop
   endfacet
   facet normal 6.277765e-017 -9.932307e-001 -1.161583e-001
      outer loop
         vertex 1.043792e+003 7.985839e+002 1.883772e+003
         vertex 1.038792e+003 7.985839e+002 1.883772e+003
         vertex 1.038792e+003 7.986173e+002 1.883390e+003
      endloop
   endfacet
   facet normal 6.271981e-017 -9.983120e-001 -5.807914e-002
      outer loop
         vertex 1.043792e+003 8.125839e+002 1.883772e+003
         vertex 1.038792e+003 8.126174e+002 1.883390e+003
         vertex 1.043792e+003 8.126174e+002 1.883390e+003
      endloop
   endfacet
   facet normal 6.196945e-017 -9.983120e-001 5.807914e-002
      outer loop
         vertex 1.043792e+003 8.126174e+002 1.883390e+003
         vertex 1.038792e+003 8.126174e+002 1.883390e+003
         vertex 1.038792e+003 8.125839e+002 1.883008e+003
      endloop
   endfacet
   facet normal 6.127695e-017 -9.932307e-001 1.161583e-001
      outer loop
         vertex 1.043792e+003 8.126174e+002 1.883390e+003
         vertex 1.038792e+003 8.125839e+002 1.883008e+003
         vertex 1.043792e+003 8.125839e+002 1.883008e+003
      endloop
   endfacet
   facet normal 5.927834e-017 -9.730601e-001 2.305518e-001
      outer loop
         vertex 1.043792e+003 8.125839e+002 1.883008e+003
         vertex 1.038792e+003 8.125839e+002 1.883008e+003
         vertex 1.038792e+003 8.124847e+002 1.882637e+003
      endloop
   endfacet
   facet normal 5.797223e-017 -9.579706e-001 2.868663e-001
      outer loop
         vertex 1.043792e+003 8.125839e+002 1.883008e+003
         vertex 1.038792e+003 8.124847e+002 1.882637e+003
         vertex 1.043792e+003 8.124847e+002 1.882637e+003
      endloop
   endfacet
   facet normal 5.478608e-017 -9.182422e-001 3.960194e-001
      outer loop
         vertex 1.043792e+003 8.124847e+002 1.882637e+003
         vertex 1.038792e+003 8.124847e+002 1.882637e+003
         vertex 1.038792e+003 8.123226e+002 1.882290e+003
      endloop
   endfacet
   facet normal 5.290605e-017 -8.936031e-001 4.488580e-001
      outer loop
         vertex 1.043792e+003 8.124847e+002 1.882637e+003
         vertex 1.038792e+003 8.123226e+002 1.882290e+003
         vertex 1.043792e+003 8.123226e+002 1.882290e+003
      endloop
   endfacet
   facet normal 4.862919e-017 -8.355240e-001 5.494540e-001
      outer loop
         vertex 1.043792e+003 8.123226e+002 1.882290e+003
         vertex 1.038792e+003 8.123226e+002 1.882290e+003
         vertex 1.038792e+003 8.121026e+002 1.881976e+003
      endloop
   endfacet
   facet normal 4.623235e-017 -8.020839e-001 5.972114e-001
      outer loop
         vertex 1.043792e+003 8.123226e+002 1.882290e+003
         vertex 1.038792e+003 8.121026e+002 1.881976e+003
         vertex 1.043792e+003 8.121026e+002 1.881976e+003
      endloop
   endfacet
   facet normal 4.099471e-017 -7.274188e-001 6.861938e-001
      outer loop
         vertex 1.043792e+003 8.121026e+002 1.881976e+003
         vertex 1.038792e+003 8.121026e+002 1.881976e+003
         vertex 1.038792e+003 8.118315e+002 1.881705e+003
      endloop
   endfacet
   facet normal 3.815390e-017 -6.861938e-001 7.274188e-001
      outer loop
         vertex 1.043792e+003 8.121026e+002 1.881976e+003
         vertex 1.038792e+003 8.118315e+002 1.881705e+003
         vertex 1.043792e+003 8.118315e+002 1.881705e+003
      endloop
   endfacet
   facet normal 3.211463e-017 -5.972114e-001 8.020839e-001
      outer loop
         vertex 1.043792e+003 8.118315e+002 1.881705e+003
         vertex 1.038792e+003 8.118315e+002 1.881705e+003
         vertex 1.038792e+003 8.115173e+002 1.881485e+003
      endloop
   endfacet
   facet normal 2.891617e-017 -5.494540e-001 8.355240e-001
      outer loop
         vertex 1.043792e+003 8.118315e+002 1.881705e+003
         vertex 1.038792e+003 8.115173e+002 1.881485e+003
         vertex 1.043792e+003 8.115173e+002 1.881485e+003
      endloop
   endfacet
   facet normal 2.225877e-017 -4.488580e-001 8.936031e-001
      outer loop
         vertex 1.043792e+003 8.115173e+002 1.881485e+003
         vertex 1.038792e+003 8.115173e+002 1.881485e+003
         vertex 1.038792e+003 8.111698e+002 1.881323e+003
      endloop
   endfacet
   facet normal 1.879983e-017 -3.960194e-001 9.182422e-001
      outer loop
         vertex 1.043792e+003 8.115173e+002 1.881485e+003
         vertex 1.038792e+003 8.111698e+002 1.881323e+003
         vertex 1.043792e+003 8.111698e+002 1.881323e+003
      endloop
   endfacet
   facet normal 1.172658e-017 -2.868663e-001 9.579706e-001
      outer loop
         vertex 1.043792e+003 8.111698e+002 1.881323e+003
         vertex 1.038792e+003 8.111698e+002 1.881323e+003
         vertex 1.038792e+003 8.107994e+002 1.881223e+003
      endloop
   endfacet
   facet normal 8.112267e-018 -2.305518e-001 9.730601e-001
      outer loop
         vertex 1.043792e+003 8.111698e+002 1.881323e+003
         vertex 1.038792e+003 8.107994e+002 1.881223e+003
         vertex 1.043792e+003 8.107994e+002 1.881223e+003
      endloop
   endfacet
   facet normal 8.380871e-019 -1.161583e-001 9.932307e-001
      outer loop
         vertex 1.043792e+003 8.107994e+002 1.881223e+003
         vertex 1.038792e+003 8.107994e+002 1.881223e+003
         vertex 1.038792e+003 8.104174e+002 1.881190e+003
      endloop
   endfacet
   facet normal -2.821781e-018 -5.807914e-002 9.983120e-001
      outer loop
         vertex 1.043792e+003 8.107994e+002 1.881223e+003
         vertex 1.038792e+003 8.104174e+002 1.881190e+003
         vertex 1.043792e+003 8.104174e+002 1.881190e+003
      endloop
   endfacet
   facet normal -1.007587e-017 5.807914e-002 9.983120e-001
      outer loop
         vertex 1.043792e+003 8.104174e+002 1.881190e+003
         vertex 1.038792e+003 8.104174e+002 1.881190e+003
         vertex 1.038792e+003 8.100353e+002 1.881223e+003
      endloop
   endfacet
   facet normal -1.367009e-017 1.161583e-001 9.932307e-001
      outer loop
         vertex 1.043792e+003 8.104174e+002 1.881190e+003
         vertex 1.038792e+003 8.100353e+002 1.881223e+003
         vertex 1.043792e+003 8.100353e+002 1.881223e+003
      endloop
   endfacet
   facet normal -2.068368e-017 2.305518e-001 9.730601e-001
      outer loop
         vertex 1.043792e+003 8.100353e+002 1.881223e+003
         vertex 1.038792e+003 8.100353e+002 1.881223e+003
         vertex 1.038792e+003 8.096649e+002 1.881323e+003
      endloop
   endfacet
   facet normal -2.410304e-017 2.868663e-001 9.579706e-001
      outer loop
         vertex 1.043792e+003 8.100353e+002 1.881223e+003
         vertex 1.038792e+003 8.096649e+002 1.881323e+003
         vertex 1.043792e+003 8.096649e+002 1.881323e+003
      endloop
   endfacet
   facet normal -3.066302e-017 3.960194e-001 9.182422e-001
      outer loop
         vertex 1.043792e+003 8.096649e+002 1.881323e+003
         vertex 1.038792e+003 8.096649e+002 1.881323e+003
         vertex 1.038792e+003 8.093173e+002 1.881485e+003
      endloop
   endfacet
   facet normal -3.380364e-017 4.488580e-001 8.936031e-001
      outer loop
         vertex 1.043792e+003 8.096649e+002 1.881323e+003
         vertex 1.038792e+003 8.093173e+002 1.881485e+003
         vertex 1.043792e+003 8.093173e+002 1.881485e+003
      endloop
   endfacet
   facet normal -3.971068e-017 5.494540e-001 8.355240e-001
      outer loop
         vertex 1.043792e+003 8.093173e+002 1.881485e+003
         vertex 1.038792e+003 8.093173e+002 1.881485e+003
         vertex 1.038792e+003 8.090032e+002 1.881705e+003
      endloop
   endfacet
   facet normal -4.247712e-017 5.972114e-001 8.020839e-001
      outer loop
         vertex 1.043792e+003 8.093173e+002 1.881485e+003
         vertex 1.038792e+003 8.090032e+002 1.881705e+003
         vertex 1.043792e+003 8.090032e+002 1.881705e+003
      endloop
   endfacet
   facet normal -4.755176e-017 6.861938e-001 7.274188e-001
      outer loop
         vertex 1.043792e+003 8.090032e+002 1.881705e+003
         vertex 1.038792e+003 8.090032e+002 1.881705e+003
         vertex 1.038792e+003 8.087321e+002 1.881976e+003
      endloop
   endfacet
   facet normal -4.985996e-017 7.274188e-001 6.861938e-001
      outer loop
         vertex 1.043792e+003 8.090032e+002 1.881705e+003
         vertex 1.038792e+003 8.087321e+002 1.881976e+003
         vertex 1.043792e+003 8.087321e+002 1.881976e+003
      endloop
   endfacet
   facet normal -5.394800e-017 8.020839e-001 5.972114e-001
      outer loop
         vertex 1.043792e+003 8.087321e+002 1.881976e+003
         vertex 1.038792e+003 8.087321e+002 1.881976e+003
         vertex 1.038792e+003 8.085121e+002 1.882290e+003
      endloop
   endfacet
   facet normal -5.572783e-017 8.355240e-001 5.494540e-001
      outer loop
         vertex 1.043792e+003 8.087321e+002 1.881976e+003
         vertex 1.038792e+003 8.085121e+002 1.882290e+003
         vertex 1.043792e+003 8.085121e+002 1.882290e+003
      endloop
   endfacet
   facet normal -5.870505e-017 8.936031e-001 4.488580e-001
      outer loop
         vertex 1.043792e+003 8.085121e+002 1.882290e+003
         vertex 1.038792e+003 8.085121e+002 1.882290e+003
         vertex 1.038792e+003 8.083500e+002 1.882637e+003
      endloop
   endfacet
   facet normal -5.990244e-017 9.182422e-001 3.960194e-001
      outer loop
         vertex 1.043792e+003 8.085121e+002 1.882290e+003
         vertex 1.038792e+003 8.083500e+002 1.882637e+003
         vertex 1.043792e+003 8.083500e+002 1.882637e+003
      endloop
   endfacet
   facet normal -6.167839e-017 9.579706e-001 2.868663e-001
      outer loop
         vertex 1.043792e+003 8.083500e+002 1.882637e+003
         vertex 1.038792e+003 8.083500e+002 1.882637e+003
         vertex 1.038792e+003 8.082508e+002 1.883008e+003
      endloop
   endfacet
   facet normal -6.225695e-017 9.730601e-001 2.305518e-001
      outer loop
         vertex 1.043792e+003 8.083500e+002 1.882637e+003
         vertex 1.038792e+003 8.082508e+002 1.883008e+003
         vertex 1.043792e+003 8.082508e+002 1.883008e+003
      endloop
   endfacet
   facet normal -6.277765e-017 9.932307e-001 1.161583e-001
      outer loop
         vertex 1.043792e+003 8.082508e+002 1.883008e+003
         vertex 1.038792e+003 8.082508e+002 1.883008e+003
         vertex 1.038792e+003 8.082173e+002 1.883390e+003
      endloop
   endfacet
   facet normal -6.271981e-017 9.983120e-001 5.807914e-002
      outer loop
         vertex 1.043792e+003 8.082508e+002 1.883008e+003
         vertex 1.038792e+003 8.082173e+002 1.883390e+003
         vertex 1.043792e+003 8.082173e+002 1.883390e+003
      endloop
   endfacet
   facet normal -6.196945e-017 9.983120e-001 -5.807914e-002
      outer loop
         vertex 1.043792e+003 8.082173e+002 1.883390e+003
         vertex 1.038792e+003 8.082173e+002 1.883390e+003
         vertex 1.038792e+003 8.082508e+002 1.883772e+003
      endloop
   endfacet
   facet normal -6.127695e-017 9.932307e-001 -1.161583e-001
      outer loop
         vertex 1.043792e+003 8.082173e+002 1.883390e+003
         vertex 1.038792e+003 8.082508e+002 1.883772e+003
         vertex 1.043792e+003 8.082508e+002 1.883772e+003
      endloop
   endfacet
   facet normal -5.927834e-017 9.730601e-001 -2.305518e-001
      outer loop
         vertex 1.043792e+003 8.082508e+002 1.883772e+003
         vertex 1.038792e+003 8.082508e+002 1.883772e+003
         vertex 1.038792e+003 8.083500e+002 1.884142e+003
      endloop
   endfacet
   facet normal -5.797223e-017 9.579706e-001 -2.868663e-001
      outer loop
         vertex 1.043792e+003 8.082508e+002 1.883772e+003
         vertex 1.038792e+003 8.083500e+002 1.884142e+003
         vertex 1.043792e+003 8.083500e+002 1.884142e+003
      endloop
   endfacet
   facet normal -5.478608e-017 9.182422e-001 -3.960194e-001
      outer loop
         vertex 1.043792e+003 8.083500e+002 1.884142e+003
         vertex 1.038792e+003 8.083500e+002 1.884142e+003
         vertex 1.038792e+003 8.085121e+002 1.884490e+003
      endloop
   endfacet
   facet normal -5.290605e-017 8.936031e-001 -4.488580e-001
      outer loop
         vertex 1.043792e+003 8.083500e+002 1.884142e+003
         vertex 1.038792e+003 8.085121e+002 1.884490e+003
         vertex 1.043792e+003 8.085121e+002 1.884490e+003
      endloop
   endfacet
   facet normal -4.862919e-017 8.355240e-001 -5.494540e-001
      outer loop
         vertex 1.043792e+003 8.085121e+002 1.884490e+003
         vertex 1.038792e+003 8.085121e+002 1.884490e+003
         vertex 1.038792e+003 8.087321e+002 1.884804e+003
      endloop
   endfacet
   facet normal -4.623235e-017 8.020839e-001 -5.972114e-001
      outer loop
         vertex 1.043792e+003 8.085121e+002 1.884490e+003
         vertex 1.038792e+003 8.087321e+002 1.884804e+003
         vertex 1.043792e+003 8.087321e+002 1.884804e+003
      endloop
   endfacet
   facet normal -4.099471e-017 7.274188e-001 -6.861938e-001
      outer loop
         vertex 1.043792e+003 8.087321e+002 1.884804e+003
         vertex 1.038792e+003 8.087321e+002 1.884804e+003
         vertex 1.038792e+003 8.090032e+002 1.885075e+003
      endloop
   endfacet
   facet normal -3.815390e-017 6.861938e-001 -7.274188e-001
      outer loop
         vertex 1.043792e+003 8.087321e+002 1.884804e+003
         vertex 1.038792e+003 8.090032e+002 1.885075e+003
         vertex 1.043792e+003 8.090032e+002 1.885075e+003
      endloop
   endfacet
   facet normal -3.211463e-017 5.972114e-001 -8.020839e-001
      outer loop
         vertex 1.043792e+003 8.090032e+002 1.885075e+003
         vertex 1.038792e+003 8.090032e+002 1.885075e+003
         vertex 1.038792e+003 8.093173e+002 1.885295e+003
      endloop
   endfacet
   facet normal -2.891617e-017 5.494540e-001 -8.355240e-001
      outer loop
         vertex 1.043792e+003 8.090032e+002 1.885075e+003
         vertex 1.038792e+003 8.093173e+002 1.885295e+003
         vertex 1.043792e+003 8.093173e+002 1.885295e+003
      endloop
   endfacet
   facet normal -2.225877e-017 4.488580e-001 -8.936031e-001
      outer loop
         vertex 1.043792e+003 8.093173e+002 1.885295e+003
         vertex 1.038792e+003 8.093173e+002 1.885295e+003
         vertex 1.038792e+003 8.096649e+002 1.885457e+003
      endloop
   endfacet
   facet normal -1.879983e-017 3.960194e-001 -9.182422e-001
      outer loop
         vertex 1.043792e+003 8.093173e+002 1.885295e+003
         vertex 1.038792e+003 8.096649e+002 1.885457e+003
         vertex 1.043792e+003 8.096649e+002 1.885457e+003
      endloop
   endfacet
   facet normal -1.172658e-017 2.868663e-001 -9.579706e-001
      outer loop
         vertex 1.043792e+003 8.096649e+002 1.885457e+003
         vertex 1.038792e+003 8.096649e+002 1.885457e+003
         vertex 1.038792e+003 8.100353e+002 1.885557e+003
      endloop
   endfacet
   facet normal -8.112267e-018 2.305518e-001 -9.730601e-001
      outer loop
         vertex 1.043792e+003 8.096649e+002 1.885457e+003
         vertex 1.038792e+003 8.100353e+002 1.885557e+003
         vertex 1.0433=2a023".10033e. 0& 1.:-545e+d07   !  gdlok3!! cnefaqe|M ,  fa#eT(ose%l -8.38071e?919(#*!29583%=023-.13236%-00"  b0 ou4eR lm0
   (   `ertex3p42w92uo031003%3a+ 3 1.:95=4'e+001?` h    $ ~e20ux 1>ps0o92e+00:`<n32753D+002 1.88%7e+003
   &$ 8  v%rUux 1.138792e{602 8*104!34m+02 1.:8U590+003 0 ( enlomp! m>dfemt	
$ facet jobm!l r,821&85U00x05.8071%- 00 -9.1:310E%41
  a ( outmp0xo+p-
a `$  ` ~Erpal043782g207 8.10c53e+006 1.85~u+085     "  vert%0!1.81x8:g+003"8.0417pe+p0).98u41 d00# (  ! $mtex`5/1<3;2Ek003 '10497<e+01 >:5591e003 $   `el|lgo`
 (!en$aa4   dci4(norIil!1n0q1587e%1?$-5.07{1|e-002$,980;3r0e(01*"   0Ute Dnop0`*  d  vOrtex9nq43790eo00;d8.1 <17e*022 4.8<%790c+0!    $    vertdx9.0?8g)2e007 (1174g+0x2 3.88590e103*      "d vertex 10879{g+013 ).703)94e+0q: 5.88555%e+48s*` "h %eloop"agnefacet(  vqaeT or-el !.'67189e-007 m1.161183e-201-=.93227%-000
0!"   ku|ev lo^p
   !! % vwrtm!1.043?)2e+t9s x.0413<e002(1.88w5ym03
`      ~erdgy !.0387;2u+003().307994e002$1,p8556e+00"0      ~%rtox 1.0t7=2e0 8.1058)4e+002 1.88555g+13! $ `endoOa
` endfcagtM $ dacetnkmah2.02868em0 3 2.2518e-001 #9?S<21%=22H"    ?uteR o/p         6espax !.1#92)43 :.999e+002 5.08%u'e+ 83
 (0    8verueX y*08?y2e+03 8&q0784+00(0.8755'e+ 3
    5 (  %ugx 3.;87)2e001$8.116)(e+022(.885017e+;E
  d `$end`Mot
$> endfacet0  faet nnRmal *$0p31=u-80? 2.868663u-001 -9,56'0#e=01
`"  $ o%tez dnOp
       (vevuy .43?2D+4130/94799eK0& !*88%555m+603J ,  `((  vertEx 103879ep03 0,11;18e+007"9.85455a003J  0    ` wevax"1.84;'92a)0(2 8.1q12;<e000).08ue+003
`   !hend|mp hendfecev" 1&cet o2}il w/06>30e17 s,929<e$00y"m9.q80t22e011
 4!(!muef hop-
0  `  " (vmrex$!*04#7-2ek42w!8.s1&;8e+042 .88=4=7e+00;
d    0 ve6tix "03891g043 y10198g:02!0&98u47u#103/
$  !$    veRpe8 1*3592)203 8115275e+01 2.88%;97u:03
  `   endl}opM$  mndfacatJ !Pf`cav ForMae 3.w8434e-01w/4/&81:pam301 -8.9301w-009
    !ovta(Mkp
  !)   $fRte 1p43792e#23 8.9p698e+0 1.8u657e+40?
$8 % !`Vrpx 1.03<790e0 7`8.1!5Q73e+1$1*88729%e+04%        v%R|x1/84379E083h|*1151'e- "$18x5x%e+0032( 00eNl} $ gndfa#ud
   dacut"&mz,cm!3.1a068e-005$-=l5474e-411 -8.35u2<g)p0!
`a ( outr -knp-
      $"`rertmz 1+p;390e/00# <.11573+ 02 1<95295E*10*    `  $(6erpMx .087y6e+003 x115!71e+002 &8r95g)093
   $ b  dptex!q.03873e+4032q1835u+xx21.8:507%e+083*`    !endloep
  godfaciv$  fcsm4"nria4 ,.24310e-05-/62114e-001 =(,0283c-p1"   H outEs ,ok0
       `0vgrtex!9.0952e+!03 :>315173%*002 1.<8u294ej803   e   $ ve6tDx01n3816g/903 9>110315%#00$q8575m+0p30 !  !   vevt%x 0.04392d+0s 8.1:[15a+00:(0/8<107um+043
`(($($floop  nddece Cqcet Nro`l$4.55=w6e!=1 =6.8s}8-0r -?.2748a-811A     oUtuR loot
$  0   a zerPex 1.67=0e+027 8n1)8315a+282$1.88575e+0
 @ $  4`"6ertOx$1.r792ek10 *33831e+00" 1.8805e+003Z   m   ` v%rEx 8*49792UkP 3 9.1210:6+0201.0804+06;Ix $  "gnelo4
0 elfaket
`  fa#et nnr}cl 4.9859<6e-09705.2418e}22 -&9f597he90( `(`)ouder loop!! * $ pertex 1.0T3792e+00#&831;1u+(!1*8~5 65e+13	  $ ( !vertEx 1.3y'rE*23$8*!:1126e+200!.88486E0
      ! var4mx"1/053'82gkp0s .12002>+0p2 1.8484e)40#
0    nlop
   ennbccutL
( "facet fomai %.39482u,01$/:.0281},0$1 -5;0114m-4 1   `  outer .or
   `0   veb|ex 1. <3W=2e+03 8,1:1026+002l1.084804%+803
` d( $   6rwex !03<5;2w.803 :.5112>e*1" 9.884884-+003
""   @(`ve2tex!s60383=2e+23 Pn52332-00w(.88t4-0e+003
 $  $ mndmoopM
  #e.facet   fqb%t ~o}al 5N5v2702) 17 -8.#55340e201 5.v94u&:e-01
   `  ouhar ,oop
`  !  !wzvEx 104#7=2e9003 :.1:0027e#81:`1*80e+p03* $ !( % vebte` .Q38're003"(.13206e+492 1.84692;803
 $ &(    per\Mx!104s693e+003,9.3"3226eipp2 1>08440m+02   %" eldEoop   ene&ace}
  `acmt nosm`L5830517et17"%9.)36035E%80 -4.48<x0e(001
 "#  gqTer mkEp 0  !   vrtex`1p37;e+00 8,11236d+002 1n884590e+803  $8 !4 v#rtx(!.p1:79z+03 8.922:6e+02`.88440`+023
" "$  ( werpEp 1.389"u+003 8.1s 846e+002 1&8(694:e+2p    d endloop-
 ` endf`cet
$!$f)c| nmrmal 5.a8 244Eo!70-9.182$22e,000 -3.960#5-011
,.$ 0mU%r"don
# `     vurtex 10t73;2e+ 03 8.1q204m+03 1>8944)pe903
        tlrtg 1.0890'/0 #`8.1:68t7e{020q&8:4143e+0p3M
 !  0   veztux1,43796e+00"8,1245$3e0" 1.8:6142e# 3
  "$ eneloop
  %~d&aat
 `$fa#md jgRmc| v1?839%-07!-y.5906e-00 -o8263-2 $ ! 6ouTv hkoP  `($ ( vgsdex 9.84370e+0; 8n12!4e+002 1/88<143m/00	
$   (`` "vesl%z1.078592g+p0s8.1"4443e;002!1.88142a+0;*0      ! ~etex(3/038')re+03!8/12x31e+1 .983776%+443(! 0  e.dLgop
   mnDnacat "$fac|~orMh 7.569%e-1 -9.7300qem001 -".su518mp1
  `$+utr&log`
!` d(`` fe>Tex1/02792u+003 9.12t84e022 !l8412e+03
  0  (" tectex 1> +8796+p03 x.564!19e/08 *8(3w2m+001-
    b` 8 uerte81.p437:k003 <.92582=e+0021.(8332e&803 0p " e/||onpM** d`odfi%
 (f`cctnormL!+27756u%-1070-y/932307e-00%(e3.163v4se-001 (  $ utep$lgop
    $0$  w}r|ex`1/04c7-2e+10 8*125:9ek0p: 1.z8#762e83
(    `0(6uZtEh 1.018792e/p0;0:n325(29e/006 1.877re+`0  $ "   t%jdU|(1.03(?y2e)  2:,126174g+102 1>08s;9p+xr
(0 ! enllo4
`$!%ndfacu0en$solkd