solid 09.025.00.00.000 - 09.025.00.08.000-2 09.025.00.08.004-2
   facet normal 4.648671e-017 -8.936031e-001 -4.488580e-001
      outer loop
         vertex 2.217292e+003 5.397189e+002 1.881680e+003
         vertex 2.217792e+003 5.400872e+002 1.880890e+003
         vertex 2.220792e+003 5.400872e+002 1.880890e+003
      endloop
   endfacet
   facet normal 4.648671e-017 -8.936031e-001 -4.488580e-001
      outer loop
         vertex 2.217292e+003 5.397189e+002 1.881680e+003
         vertex 2.217292e+003 5.400872e+002 1.880890e+003
         vertex 2.217792e+003 5.400872e+002 1.880890e+003
      endloop
   endfacet
   facet normal 7.303902e-017 -8.355240e-001 -5.494540e-001
      outer loop
         vertex 2.217792e+003 5.400872e+002 1.880890e+003
         vertex 2.217292e+003 5.400872e+002 1.880890e+003
         vertex 2.217292e+003 5.405871e+002 1.880176e+003
      endloop
   endfacet
   facet normal 8.601100e-017 -8.020839e-001 -5.972114e-001
      outer loop
         vertex 2.217792e+003 5.400872e+002 1.880890e+003
         vertex 2.217292e+003 5.405871e+002 1.880176e+003
         vertex 2.217792e+003 5.405871e+002 1.880176e+003
      endloop
   endfacet
   facet normal 1.109524e-016 -7.274188e-001 -6.861938e-001
      outer loop
         vertex 2.217792e+003 5.405871e+002 1.880176e+003
         vertex 2.217292e+003 5.405871e+002 1.880176e+003
         vertex 2.217292e+003 5.412034e+002 1.879560e+003
      endloop
   endfacet
   facet normal 1.229219e-016 -6.861938e-001 -7.274188e-001
      outer loop
         vertex 2.217792e+003 5.405871e+002 1.880176e+003
         vertex 2.217292e+003 5.412034e+002 1.879560e+003
         vertex 2.217792e+003 5.412034e+002 1.879560e+003
      endloop
   endfacet
   facet normal 1.454946e-016 -5.972114e-001 -8.020839e-001
      outer loop
         vertex 2.217792e+003 5.412034e+002 1.879560e+003
         vertex 2.217292e+003 5.412034e+002 1.879560e+003
         vertex 2.217292e+003 5.419173e+002 1.879060e+003
      endloop
   endfacet
   facet normal 1.560979e-016 -5.494540e-001 -8.355240e-001
      outer loop
         vertex 2.217792e+003 5.412034e+002 1.879560e+003
         vertex 2.217292e+003 5.419173e+002 1.879060e+003
         vertex 2.217792e+003 5.419173e+002 1.879060e+003
      endloop
   endfacet
   facet normal 1.756160e-016 -4.488580e-001 -8.936031e-001
      outer loop
         vertex 2.217792e+003 5.419173e+002 1.879060e+003
         vertex 2.217292e+003 5.419173e+002 1.879060e+003
         vertex 2.217292e+003 5.427072e+002 1.878691e+003
      endloop
   endfacet
   facet normal 1.845309e-016 -3.960194e-001 -9.182422e-001
      outer loop
         vertex 2.217792e+003 5.419173e+002 1.879060e+003
         vertex 2.217292e+003 5.427072e+002 1.878691e+003
         vertex 2.217792e+003 5.427072e+002 1.878691e+003
      endloop
   endfacet
   facet normal 2.004014e-016 -2.868663e-001 -9.579706e-001
      outer loop
         vertex 2.217792e+003 5.427072e+002 1.878691e+003
         vertex 2.217292e+003 5.427072e+002 1.878691e+003
         vertex 2.217292e+003 5.435491e+002 1.878466e+003
      endloop
   endfacet
   facet normal 2.073570e-016 -2.305518e-001 -9.730601e-001
      outer loop
         vertex 2.217792e+003 5.427072e+002 1.878691e+003
         vertex 2.217292e+003 5.435491e+002 1.878466e+003
         vertex 2.217792e+003 5.435491e+002 1.878466e+003
      endloop
   endfacet
   facet normal 2.190977e-016 -1.161583e-001 -9.932307e-001
      outer loop
         vertex 2.217792e+003 5.435491e+002 1.878466e+003
         vertex 2.217292e+003 5.435491e+002 1.878466e+003
         vertex 2.217292e+003 5.444173e+002 1.878390e+003
      endloop
   endfacet
   facet normal 2.238827e-016 -5.807914e-002 -9.983120e-001
      outer loop
         vertex 2.217792e+003 5.435491e+002 1.878466e+003
         vertex 2.217292e+003 5.444173e+002 1.878390e+003
         vertex 2.217792e+003 5.444173e+002 1.878390e+003
      endloop
   endfacet
   facet normal 2.311368e-016 5.807914e-002 -9.983120e-001
      outer loop
         vertex 2.217792e+003 5.444173e+002 1.878390e+003
         vertex 2.217292e+003 5.444173e+002 1.878390e+003
         vertex 2.217292e+003 5.452856e+002 1.878466e+003
      endloop
   endfacet
   facet normal 2.336059e-016 1.161583e-001 -9.932307e-001
      outer loop
         vertex 2.217792e+003 5.444173e+002 1.878390e+003
         vertex 2.217292e+003 5.452856e+002 1.878466e+003
         vertex 2.217792e+003 5.452856e+002 1.878466e+003
      endloop
   endfacet
   facet normal 2.361530e-016 2.305518e-001 -9.730601e-001
      outer loop
         vertex 2.217792e+003 5.452856e+002 1.878466e+003
         vertex 2.217292e+003 5.452856e+002 1.878466e+003
         vertex 2.217292e+003 5.461274e+002 1.878691e+003
      endloop
   endfacet
   facet normal 2.362310e-016 2.868663e-001 -9.579706e-001
      outer loop
         vertex 2.217792e+003 5.452856e+002 1.878466e+003
         vertex 2.217292e+003 5.461274e+002 1.878691e+003
         vertex 2.217792e+003 5.461274e+002 1.878691e+003
      endloop
   endfacet
   facet normal 2.339938e-016 3.960194e-001 -9.182422e-001
      outer loop
         vertex 2.217792e+003 5.461274e+002 1.878691e+003
         vertex 2.217292e+003 5.461274e+002 1.878691e+003
         vertex 2.217292e+003 5.469173e+002 1.879060e+003
      endloop
   endfacet
   facet normal 2.316784e-016 4.488580e-001 -8.936031e-001
      outer loop
         vertex 2.217792e+003 5.461274e+002 1.878691e+003
         vertex 2.217292e+003 5.469173e+002 1.879060e+003
         vertex 2.217792e+003 5.469173e+002 1.879060e+003
      endloop
   endfacet
   facet normal 2.247247e-016 5.494540e-001 -8.355240e-001
      outer loop
         vertex 2.217792e+003 5.469173e+002 1.879060e+003
         vertex 2.217292e+003 5.469173e+002 1.879060e+003
         vertex 2.217292e+003 5.476313e+002 1.879560e+003
      endloop
   endfacet
   facet normal 2.200864e-016 5.972114e-001 -8.020839e-001
      outer loop
         vertex 2.217792e+003 5.469173e+002 1.879060e+003
         vertex 2.217292e+003 5.476313e+002 1.879560e+003
         vertex 2.217792e+003 5.476313e+002 1.879560e+003
      endloop
   endfacet
   facet normal 2.086276e-016 6.861938e-001 -7.274188e-001
      outer loop
         vertex 2.217792e+003 5.476313e+002 1.879560e+003
         vertex 2.217292e+003 5.476313e+002 1.879560e+003
         vertex 2.217292e+003 5.482476e+002 1.880176e+003
      endloop
   endfacet
   facet normal 2.018071e-016 7.274188e-001 -6.861938e-001
      outer loop
         vertex 2.217792e+003 5.476313e+002 1.879560e+003
         vertex 2.217292e+003 5.482476e+002 1.880176e+003
         vertex 2.217792e+003 5.482476e+002 1.880176e+003
      endloop
   endfacet
   facet normal 1.861914e-016 8.020839e-001 -5.972114e-001
      outer loop
         vertex 2.217792e+003 5.482476e+002 1.880176e+003
         vertex 2.217292e+003 5.482476e+002 1.880176e+003
         vertex 2.217292e+003 5.487475e+002 1.880890e+003
      endloop
   endfacet
   facet normal 1.773960e-016 8.355240e-001 -5.494540e-001
      outer loop
         vertex 2.217792e+003 5.482476e+002 1.880176e+003
         vertex 2.217292e+003 5.487475e+002 1.880890e+003
         vertex 2.217792e+003 5.487475e+002 1.880890e+003
      endloop
   endfacet
   facet normal 1.580978e-016 8.936031e-001 -4.488580e-001
      outer loop
         vertex 2.217792e+003 5.487475e+002 1.880890e+003
         vertex 2.217292e+003 5.487475e+002 1.880890e+003
         vertex 2.217292e+003 5.491158e+002 1.881680e+003
      endloop
   endfacet
   facet normal 1.580978e-016 8.936031e-001 -4.488580e-001
      outer loop
         vertex 2.217792e+003 5.487475e+002 1.880890e+003
         vertex 2.217292e+003 5.491158e+002 1.881680e+003
         vertex 2.220792e+003 5.487475e+002 1.880890e+003
      endloop
   endfacet
   facet normal -7.558054e-017 -9.983120e-001 5.807914e-002
      outer loop
         vertex 2.254292e+003 5.394933e+002 1.884258e+003
         vertex 2.217292e+003 5.394173e+002 1.883390e+003
         vertex 2.254292e+003 5.394173e+002 1.883390e+003
      endloop
   endfacet
   facet normal -4.910871e-017 -9.983120e-001 -5.807914e-002
      outer loop
         vertex 2.254292e+003 5.394173e+002 1.883390e+003
         vertex 2.217292e+003 5.394173e+002 1.883390e+003
         vertex 2.217292e+003 5.394933e+002 1.882522e+003
      endloop
   endfacet
   facet normal -3.555547e-017 -9.932307e-001 -1.161583e-001
      outer loop
         vertex 2.254292e+003 5.394173e+002 1.883390e+003
         vertex 2.217292e+003 5.394933e+002 1.882522e+003
         vertex 2.254292e+003 5.394933e+002 1.882522e+003
      endloop
   endfacet
   facet normal -8.226154e-018 -9.730601e-001 -2.305518e-001
      outer loop
         vertex 2.254292e+003 5.394933e+002 1.882522e+003
         vertex 2.217292e+003 5.394933e+002 1.882522e+003
         vertex 2.217292e+003 5.397189e+002 1.881680e+003
      endloop
   endfacet
   facet normal 5.549933e-018 -9.579706e-001 -2.868663e-001
      outer loop
         vertex 2.254292e+003 5.394933e+002 1.882522e+003
         vertex 2.217292e+003 5.397189e+002 1.881680e+003
         vertex 2.254292e+003 5.397189e+002 1.881680e+003
      endloop
   endfacet
   facet normal 3.290636e-017 -9.182422e-001 -3.960194e-001
      outer loop
         vertex 2.254292e+003 5.397189e+002 1.881680e+003
         vertex 2.217292e+003 5.397189e+002 1.881680e+003
         vertex 2.220792e+003 5.400872e+002 1.880890e+003
      endloop
   endfacet
   facet normal 4.648671e-017 -8.936031e-001 -4.488580e-001
      outer loop
         vertex 2.254292e+003 5.397189e+002 1.881680e+003
         vertex 2.220792e+003 5.400872e+002 1.880890e+003
         vertex 2.254292e+003 5.400872e+002 1.880890e+003
      endloop
   endfacet
   facet normal 7.303902e-017 -8.355240e-001 -5.494540e-001
      outer loop
         vertex 2.254292e+003 5.400872e+002 1.880890e+003
         vertex 2.220792e+003 5.400872e+002 1.880890e+003
         vertex 2.220792e+003 5.405871e+002 1.880176e+003
      endloop
   endfacet
   facet normal 8.601100e-017 -8.020839e-001 -5.972114e-001
      outer loop
         vertex 2.254292e+003 5.400872e+002 1.880890e+003
         vertex 2.220792e+003 5.405871e+002 1.880176e+003
         vertex 2.254292e+003 5.405871e+002 1.880176e+003
      endloop
   endfacet
   facet normal 1.109524e-016 -7.274188e-001 -6.861938e-001
      outer loop
         vertex 2.254292e+003 5.405871e+002 1.880176e+003
         vertex 2.220792e+003 5.405871e+002 1.880176e+003
         vertex 2.220792e+003 5.412034e+002 1.879560e+003
      endloop
   endfacet
   facet normal 1.229219e-016 -6.861938e-001 -7.274188e-001
      outer loop
         vertex 2.254292e+003 5.405871e+002 1.880176e+003
         vertex 2.220792e+003 5.412034e+002 1.879560e+003
         vertex 2.254292e+003 5.412034e+002 1.879560e+003
      endloop
   endfacet
   facet normal 1.454946e-016 -5.972114e-001 -8.020839e-001
      outer loop
         vertex 2.254292e+003 5.412034e+002 1.879560e+003
         vertex 2.220792e+003 5.412034e+002 1.879560e+003
         vertex 2.220792e+003 5.419173e+002 1.879060e+003
      endloop
   endfacet
   facet normal 1.560979e-016 -5.494540e-001 -8.355240e-001
      outer loop
         vertex 2.254292e+003 5.412034e+002 1.879560e+003
         vertex 2.220792e+003 5.419173e+002 1.879060e+003
         vertex 2.254292e+003 5.419173e+002 1.879060e+003
      endloop
   endfacet
   facet normal 1.756160e-016 -4.488580e-001 -8.936031e-001
      outer loop
         vertex 2.254292e+003 5.419173e+002 1.879060e+003
         vertex 2.220792e+003 5.419173e+002 1.879060e+003
         vertex 2.220792e+003 5.427072e+002 1.878691e+003
      endloop
   endfacet
   facet normal 1.845309e-016 -3.960194e-001 -9.182422e-001
      outer loop
         vertex 2.254292e+003 5.419173e+002 1.879060e+003
         vertex 2.220792e+003 5.427072e+002 1.878691e+003
         vertex 2.254292e+003 5.427072e+002 1.878691e+003
      endloop
   endfacet
   facet normal 2.004014e-016 -2.868663e-001 -9.579706e-001
      outer loop
         vertex 2.254292e+003 5.427072e+002 1.878691e+003
         vertex 2.220792e+003 5.427072e+002 1.878691e+003
         vertex 2.220792e+003 5.435491e+002 1.878466e+003
      endloop
   endfacet
   facet normal 2.073570e-016 -2.305518e-001 -9.730601e-001
      outer loop
         vertex 2.254292e+003 5.427072e+002 1.878691e+003
         vertex 2.220792e+003 5.435491e+002 1.878466e+003
         vertex 2.254292e+003 5.435491e+002 1.878466e+003
      endloop
   endfacet
   facet normal 2.190977e-016 -1.161583e-001 -9.932307e-001
      outer loop
         vertex 2.254292e+003 5.435491e+002 1.878466e+003
         vertex 2.220792e+003 5.435491e+002 1.878466e+003
         vertex 2.220792e+003 5.444173e+002 1.878390e+003
      endloop
   endfacet
   facet normal 2.238827e-016 -5.807914e-002 -9.983120e-001
      outer loop
         vertex 2.254292e+003 5.435491e+002 1.878466e+003
         vertex 2.220792e+003 5.444173e+002 1.878390e+003
         vertex 2.254292e+003 5.444173e+002 1.878390e+003
      endloop
   endfacet
   facet normal 2.311368e-016 5.807914e-002 -9.983120e-001
      outer loop
         vertex 2.254292e+003 5.444173e+002 1.878390e+003
         vertex 2.220792e+003 5.444173e+002 1.878390e+003
         vertex 2.220792e+003 5.452856e+002 1.878466e+003
      endloop
   endfacet
   facet normal 2.336059e-016 1.161583e-001 -9.932307e-001
      outer loop
         vertex 2.254292e+003 5.444173e+002 1.878390e+003
         vertex 2.220792e+003 5.452856e+002 1.878466e+003
         vertex 2.254292e+003 5.452856e+002 1.878466e+003
      endloop
   endfacet
   facet normal 2.361530e-016 2.305518e-001 -9.730601e-001
      outer loop
         vertex 2.254292e+003 5.452856e+002 1.878466e+003
         vertex 2.220792e+003 5.452856e+002 1.878466e+003
         vertex 2.220792e+003 5.461274e+002 1.878691e+003
      endloop
   endfacet
   facet normal 2.362310e-016 2.868663e-001 -9.579706e-001
      outer loop
         vertex 2.254292e+003 5.452856e+002 1.878466e+003
         vertex 2.220792e+003 5.461274e+002 1.878691e+003
         vertex 2.254292e+003 5.461274e+002 1.878691e+003
      endloop
   endfacet
   facet normal 2.339938e-016 3.960194e-001 -9.182422e-001
      outer loop
         vertex 2.254292e+003 5.461274e+002 1.878691e+003
         vertex 2.220792e+003 5.461274e+002 1.878691e+003
         vertex 2.220792e+003 5.469173e+002 1.879060e+003
      endloop
   endfacet
   facet normal 2.316784e-016 4.488580e-001 -8.936031e-001
      outer loop
         vertex 2.254292e+003 5.461274e+002 1.878691e+003
         vertex 2.220792e+003 5.469173e+002 1.879060e+003
         vertex 2.254292e+003 5.469173e+002 1.879060e+003
      endloop
   endfacet
   facet normal 2.247247e-016 5.494540e-001 -8.355240e-001
      outer loop
         vertex 2.254292e+003 5.469173e+002 1.879060e+003
         vertex 2.220792e+003 5.469173e+002 1.879060e+003
         vertex 2.220792e+003 5.476313e+002 1.879560e+003
      endloop
   endfacet
   facet normal 2.200864e-016 5.972114e-001 -8.020839e-001
      outer loop
         vertex 2.254292e+003 5.469173e+002 1.879060e+003
         vertex 2.220792e+003 5.476313e+002 1.879560e+003
         vertex 2.254292e+003 5.476313e+002 1.879560e+003
      endloop
   endfacet
   facet normal 2.086276e-016 6.861938e-001 -7.274188e-001
      outer loop
         vertex 2.254292e+003 5.476313e+002 1.879560e+003
         vertex 2.220792e+003 5.476313e+002 1.879560e+003
         vertex 2.220792e+003 5.482476e+002 1.880176e+003
      endloop
   endfacet
   facet normal 2.018071e-016 7.274188e-001 -6.861938e-001
      outer loop
         vertex 2.254292e+003 5.476313e+002 1.879560e+003
         vertex 2.220792e+003 5.482476e+002 1.880176e+003
         vertex 2.254292e+003 5.482476e+002 1.880176e+003
      endloop
   endfacet
   facet normal 1.861914e-016 8.020839e-001 -5.972114e-001
      outer loop
         vertex 2.254292e+003 5.482476e+002 1.880176e+003
         vertex 2.220792e+003 5.482476e+002 1.880176e+003
         vertex 2.220792e+003 5.487475e+002 1.880890e+003
      endloop
   endfacet
   facet normal 1.773960e-016 8.355240e-001 -5.494540e-001
      outer loop
         vertex 2.254292e+003 5.482476e+002 1.880176e+003
         vertex 2.220792e+003 5.487475e+002 1.880890e+003
         vertex 2.254292e+003 5.487475e+002 1.880890e+003
      endloop
   endfacet
   facet normal 1.580978e-016 8.936031e-001 -4.488580e-001
      outer loop
         vertex 2.254292e+003 5.487475e+002 1.880890e+003
         vertex 2.220792e+003 5.487475e+002 1.880890e+003
         vertex 2.217292e+003 5.491158e+002 1.881680e+003
      endloop
   endfacet
   facet normal 1.475949e-016 9.182422e-001 -3.960194e-001
      outer loop
         vertex 2.254292e+003 5.487475e+002 1.880890e+003
         vertex 2.217292e+003 5.491158e+002 1.881680e+003
         vertex 2.254292e+003 5.491158e+002 1.881680e+003
      endloop
   endfacet
   facet normal 1.252005e-016 9.579706e-001 -2.868663e-001
      outer loop
         vertex 2.254292e+003 5.491158e+002 1.881680e+003
         vertex 2.217292e+003 5.491158e+002 1.881680e+003
         vertex 2.217292e+003 5.493414e+002 1.882522e+003
      endloop
   endfacet
   facet normal 1.133091e-016 9.730601e-001 -2.305518e-001
      outer loop
         vertex 2.254292e+003 5.491158e+002 1.881680e+003
         vertex 2.217292e+003 5.493414e+002 1.882522e+003
         vertex 2.254292e+003 5.493414e+002 1.882522e+003
      endloop
   endfacet
   facet normal 8.849913e-017 9.932307e-001 -1.161583e-001
      outer loop
         vertex 2.254292e+003 5.493414e+002 1.882522e+003
         vertex 2.217292e+003 5.493414e+002 1.882522e+003
         vertex 2.217292e+003 5.494173e+002 1.883390e+003
      endloop
   endfacet
   facet normal 7.558054e-017 9.983120e-001 -5.807914e-002
      outer loop
         vertex 2.254292e+003 5.493414e+002 1.882522e+003
         vertex 2.217292e+003 5.494173e+002 1.883390e+003
         vertex 2.254292e+003 5.494173e+002 1.883390e+003
      endloop
   endfacet
   facet normal 4.910871e-017 9.983120e-001 5.807914e-002
      outer loop
         vertex 2.254292e+003 5.494173e+002 1.883390e+003
         vertex 2.217292e+003 5.494173e+002 1.883390e+003
         vertex 2.217292e+003 5.493414e+002 1.884258e+003
      endloop
   endfacet
   facet normal 3.555547e-017 9.932307e-001 1.161583e-001
      outer loop
         vertex 2.254292e+003 5.494173e+002 1.883390e+003
         vertex 2.217292e+003 5.493414e+002 1.884258e+003
         vertex 2.254292e+003 5.493414e+002 1.884258e+003
      endloop
   endfacet
   facet normal 8.226154e-018 9.730601e-001 2.305518e-001
      outer loop
         vertex 2.254292e+003 5.493414e+002 1.884258e+003
         vertex 2.217292e+003 5.493414e+002 1.884258e+003
         vertex 2.217292e+003 5.491158e+002 1.885100e+003
      endloop
   endfacet
   facet normal -5.549933e-018 9.579706e-001 2.868663e-001
      outer loop
         vertex 2.254292e+003 5.493414e+002 1.884258e+003
         vertex 2.217292e+003 5.491158e+002 1.885100e+003
         vertex 2.254292e+003 5.491158e+002 1.885100e+003
      endloop
   endfacet
   facet normal -3.290636e-017 9.182422e-001 3.960194e-001
      outer loop
         vertex 2.254292e+003 5.491158e+002 1.885100e+003
         vertex 2.217292e+003 5.491158e+002 1.885100e+003
         vertex 2.217292e+003 5.487475e+002 1.885890e+003
      endloop
   endfacet
   facet normal -4.648671e-017 8.936031e-001 4.488580e-001
      outer loop
         vertex 2.254292e+003 5.491158e+002 1.885100e+003
         vertex 2.217292e+003 5.487475e+002 1.885890e+003
         vertex 2.254292e+003 5.487475e+002 1.885890e+003
      endloop
   endfacet
   facet normal -7.303902e-017 8.355240e-001 5.494540e-001
      outer loop
         vertex 2.254292e+003 5.487475e+002 1.885890e+003
         vertex 2.217292e+003 5.487475e+002 1.885890e+003
         vertex 2.217292e+003 5.482476e+002 1.886604e+003
      endloop
   endfacet
   facet normal -8.601100e-017 8.020839e-001 5.972114e-001
      outer loop
         vertex 2.254292e+003 5.487475e+002 1.885890e+003
         vertex 2.217292e+003 5.482476e+002 1.886604e+003
         vertex 2.254292e+003 5.482476e+002 1.886604e+003
      endloop
   endfacet
   facet normal -1.109524e-016 7.274188e-001 6.861938e-001
      outer loop
         vertex 2.254292e+003 5.482476e+002 1.886604e+003
         vertex 2.217292e+003 5.482476e+002 1.886604e+003
         vertex 2.217292e+003 5.476313e+002 1.887220e+003
      endloop
   endfacet
   facet normal -1.229219e-016 6.861938e-001 7.274188e-001
      outer loop
         vertex 2.254292e+003 5.482476e+002 1.886604e+003
         vertex 2.217292e+003 5.476313e+002 1.887220e+003
         vertex 2.254292e+003 5.476313e+002 1.887220e+003
      endloop
   endfacet
   facet normal -1.454946e-016 5.972114e-001 8.020839e-001
      outer loop
         vertex 2.254292e+003 5.476313e+002 1.887220e+003
         vertex 2.217292e+003 5.476313e+002 1.887220e+003
         vertex 2.217292e+003 5.469173e+002 1.887720e+003
      endloop
   endfacet
   facet normal -1.560979e-016 5.494540e-001 8.355240e-001
      outer loop
         vertex 2.254292e+003 5.476313e+002 1.887220e+003
         vertex 2.217292e+003 5.469173e+002 1.887720e+003
         vertex 2.254292e+003 5.469173e+002 1.887720e+003
      endloop
   endfacet
   facet normal -1.756160e-016 4.488580e-001 8.936031e-001
      outer loop
         vertex 2.254292e+003 5.469173e+002 1.887720e+003
         vertex 2.217292e+003 5.469173e+002 1.887720e+003
         vertex 2.217292e+003 5.461274e+002 1.888088e+003
      endloop
   endfacet
   facet normal -1.845309e-016 3.960194e-001 9.182422e-001
      outer loop
         vertex 2.254292e+003 5.469173e+002 1.887720e+003
         vertex 2.217292e+003 5.461274e+002 1.888088e+003
         vertex 2.254292e+003 5.461274e+002 1.888088e+003
      endloop
   endfacet
   facet normal -2.004014e-016 2.868663e-001 9.579706e-001
      outer loop
         vertex 2.254292e+003 5.461274e+002 1.888088e+003
         vertex 2.217292e+003 5.461274e+002 1.888088e+003
         vertex 2.217292e+003 5.452856e+002 1.888314e+003
      endloop
   endfacet
   facet normal -2.073570e-016 2.305518e-001 9.730601e-001
      outer loop
         vertex 2.254292e+003 5.461274e+002 1.888088e+003
         vertex 2.217292e+003 5.452856e+002 1.888314e+003
         vertex 2.254292e+003 5.452856e+002 1.888314e+003
      endloop
   endfacet
   facet normal -2.190977e-016 1.161583e-001 9.932307e-001
      outer loop
         vertex 2.254292e+003 5.452856e+002 1.888314e+003
         vertex 2.217292e+003 5.452856e+002 1.888314e+003
         vertex 2.217292e+003 5.444173e+002 1.888390e+003
      endloop
   endfacet
   facet normal -2.238827e-016 5.807914e-002 9.983120e-001
      outer loop
         vertex 2.254292e+003 5.452856e+002 1.888314e+003
         vertex 2.217292e+003 5.444173e+002 1.888390e+003
         vertex 2.254292e+003 5.444173e+002 1.888390e+003
      endloop
   endfacet
   facet normal -2.311368e-016 -5.807914e-002 9.983120e-001
      outer loop
         vertex 2.254292e+003 5.444173e+002 1.888390e+003
         vertex 2.217292e+003 5.444173e+002 1.888390e+003
         vertex 2.217292e+003 5.435491e+002 1.888314e+003
      endloop
   endfacet
   facet normal -2.336059e-016 -1.161583e-001 9.932307e-001
      outer loop
         vertex 2.254292e+003 5.444173e+002 1.888390e+003
         vertex 2.217292e+003 5.435491e+002 1.888314e+003
         vertex 2.254292e+003 5.435491e+002 1.888314e+003
      endloop
   endfacet
   facet normal -2.361530e-016 -2.305518e-001 9.730601e-001
      outer loop
         vertex 2.254292e+003 5.435491e+002 1.888314e+003
         vertex 2.217292e+003 5.435491e+002 1.888314e+003
         vertex 2.217292e+003 5.427072e+002 1.888088e+003
      endloop
   endfacet
   facet normal -2.362310e-016 -2.868663e-001 9.579706e-001
      outer loop
         vertex 2.254292e+003 5.435491e+002 1.888314e+003
         vertex 2.217292e+003 5.427072e+002 1.888088e+003
         vertex 2.254292e+003 5.427072e+002 1.888088e+003
      endloop
   endfacet
   facet normal -2.339938e-016 -3.960194e-001 9.182422e-001
      outer loop
         vertex 2.254292e+003 5.427072e+002 1.888088e+003
         vertex 2.217292e+003 5.427072e+002 1.888088e+003
         vertex 2.217292e+003 5.419173e+002 1.887720e+003
      endloop
   endfacet
   facet normal -2.316784e-016 -4.488580e-001 8.936031e-001
      outer loop
         vertex 2.254292e+003 5.427072e+002 1.888088e+003
         vertex 2.217292e+003 5.419173e+002 1.887720e+003
         vertex 2.254292e+003 5.419173e+002 1.887720e+003
      endloop
   endfacet
   facet normal -2.247247e-016 -5.494540e-001 8.355240e-001
      outer loop
         vertex 2.254292e+003 5.419173e+002 1.887720e+003
         vertex 2.217292e+003 5.419173e+002 1.887720e+003
         vertex 2.217292e+003 5.412034e+002 1.887220e+003
      endloop
   endfacet
   facet normal -2.200864e-016 -5.972114e-001 8.020839e-001
      outer loop
         vertex 2.254292e+003 5.419173e+002 1.887720e+003
         vertex 2.217292e+003 5.412034e+002 1.887220e+003
         vertex 2.254292e+003 5.412034e+002 1.887220e+003
      endloop
   endfacet
   facet normal -2.086276e-016 -6.861938e-001 7.274188e-001
      outer loop
         vertex 2.254292e+003 5.412034e+002 1.887220e+003
         vertex 2.217292e+003 5.412034e+002 1.887220e+003
         vertex 2.217292e+003 5.405871e+002 1.886604e+003
      endloop
   endfacet
   facet normal -2.018071e-016 -7.274188e-001 6.861938e-001
      outer loop
         vertex 2.254292e+003 5.412034e+002 1.887220e+003
         vertex 2.217292e+003 5.405871e+002 1.886604e+003
         vertex 2.254292e+003 5.405871e+002 1.886604e+003
      endloop
   endfacet
   facet normal -1.861914e-016 -8.020839e-001 5.972114e-001
      outer loop
         vertex 2.254292e+003 5.405871e+002 1.886604e+003
         vertex 2.217292e+003 5.405871e+002 1.886604e+003
         vertex 2.217292e+003 5.400872e+002 1.885890e+003
      endloop
   endfacet
   facet normal -1.773960e-016 -8.355240e-001 5.494540e-001
      outer loop
         vertex 2.254292e+003 5.405871e+002 1.886604e+003
         vertex 2.217292e+003 5.400872e+002 1.885890e+003
         vertex 2.254292e+003 5.400872e+002 1.885890e+003
      endloop
   endfacet
   facet normal -1.580978e-016 -8.936031e-001 4.488580e-001
      outer loop
         vertex 2.254292e+003 5.400872e+002 1.885890e+003
         vertex 2.217292e+003 5.400872e+002 1.885890e+003
         vertex 2.217292e+003 5.397189e+002 1.885100e+003
      endloop
   endfacet
   facet normal -1.475949e-016 -9.182422e-001 3.960194e-001
      outer loop
         vertex 2.254292e+003 5.400872e+002 1.885890e+003
         vertex 2.217292e+003 5.397189e+002 1.885100e+003
         vertex 2.254292e+003 5.397189e+002 1.885100e+003
      endloop
   endfacet
   facet normal -1.252005e-016 -9.579706e-001 2.868663e-001
      outer loop
         vertex 2.254292e+003 5.397189e+002 1.885100e+003
         vertex 2.217292e+003 5.397189e+002 1.885100e+003
         vertex 2.217292e+003 5.394933e+002 1.884258e+003
      endloop
   endfacet
   facet normal -1.133091e-016 -9.730601e-001 2.305518e-001
      outer loop
         vertex 2.254292e+003 5.397189e+002 1.885100e+003
         vertex 2.217292e+003 5.394933e+002 1.884258e+003
         vertex 2.254292e+003 5.394933e+002 1.884258e+003
      endloop
   endfacet
   facet normal -8.849913e-017 -9.932307e-001 1.161583e-001
      outer loop
         vertex 2.254292e+003 5.394933e+002 1.884258e+003
         vertex 2.217292e+003 5.394933e+002 1.884258e+003
         vertex 2.217292e+003 5.394173e+002 1.883390e+003
      endloop
   endfacet
   facet normal 1.000000e+000 -7.285839e-017 2.012279e-016
      outer loop
         vertex 2.254792e+003 5.409702e+002 1.886282e+003
         vertex 2.254792e+003 5.405202e+002 1.885640e+003
         vertex 2.254792e+003 5.401887e+002 1.884929e+003
      endloop
   endfacet
   facet normal 1.000000e+000 -7.285839e-017 2.012279e-016
      outer loop
         vertex 2.254792e+003 5.478646e+002 1.880497e+003
         vertex 2.254792e+003 5.483145e+002 1.881140e+003
         vertex 2.254792e+003 5.486460e+002 1.881851e+003
      endloop
   endfacet
   facet normal 1.000000e+000 -7.285839e-017 2.012279e-016
      outer loop
         vertex 2.254792e+003 5.399857e+002 1.882609e+003
         vertex 2.254792e+003 5.401887e+002 1.881851e+003
         vertex 2.254792e+003 5.486460e+002 1.881851e+003
      endloop
   endfacet
   facet normal 1.000000e+000 -7.285839e-017 2.012279e-016
      outer loop
         vertex 2.254792e+003 5.405202e+002 1.881140e+003
         vertex 2.254792e+003 5.409702e+002 1.880497e+003
         vertex 2.254792e+003 5.415248e+002 1.879943e+003
      endloop
   endfacet
   facet normal 1.000000e+000 -7.285839e-017 2.012279e-016
      outer loop
         vertex 2.254792e+003 5.399174e+002 1.883390e+003
         vertex 2.254792e+003 5.399857e+002 1.882609e+003
         vertex 2.254792e+003 5.399857e+002 1.884171e+003
      endloop
   endfacet
   facet normal 1.000000e+000 -7.285839e-017 2.012279e-016
      outer loop
         vertex 2.254792e+003 5.399857e+002 1.884171e+003
         vertex 2.254792e+003 5.399857e+002 1.882609e+003
         vertex 2.254792e+003 5.486460e+002 1.881851e+003
      endloop
   endfacet
   facet normal 1.000000e+000 -7.285839e-017 2.012279e-016
      outer loop
         vertex 2.254792e+003 5.399857e+002 1.884171e+003
         vertex 2.254792e+003 5.486460e+002 1.881851e+003
         vertex 2.254792e+003 5.401887e+002 1.884929e+003
      endloop
   endfacet
   facet normal 1.000000e+000 -7.285839e-017 2.012279e-016
      outer loop
         vertex 2.254792e+003 5.466674e+002 1.879493e+003
         vertex 2.254792e+003 5.473099e+002 1.879943e+003
         vertex 2.254792e+003 5.478646e+002 1.880497e+003
      endloop
   endfacet
   facet normal 1.000000e+000 -7.285839e-017 2.012279e-016
      outer loop
         vertex 2.254792e+003 5.486460e+002 1.884929e+003
         vertex 2.254792e+003 5.483145e+002 1.885640e+003
         vertex 2.254792e+003 5.401887e+002 1.884929e+003
      endloop
   endfacet
   facet normal 1.000000e+000 -7.285839e-017 2.012279e-016
      outer loop
         vertex 2.254792e+003 5.401887e+002 1.884929e+003
         vertex 2.254792e+003 5.483145e+002 1.885640e+003
         vertex 2.254792e+003 5.478646e+002 1.886282e+003
      endloop
   endfacet
   facet normal 1.000000e+000 -7.285839e-017 2.012279e-016
      outer loop
         vertex 2.254792e+003 5.488490e+002 1.884171e+003
         vertex 2.254792e+003 5.486460e+002 1.884929e+003
         vertex 2.254792e+003 5.489174e+002 1.883390e+003
      endloop
   endfacet
   facet normal 1.000000e+000 -7.285839e-017 2.012279e-016
      outer loop
         vertex 2.254792e+003 5.489174e+002 1.883390e+003
         vertex 2.254792e+003 5.486460e+002 1.884929e+003
         vertex 2.254792e+003 5.401887e+002 1.884929e+003
      endloop
   endfacet
   facet normal 1.000000e+000 -7.285839e-017 2.012279e-016
      outer loop
         vertex 2.254792e+003 5.489174e+002 1.883390e+003
         vertex 2.254792e+003 5.401887e+002 1.884929e+003
         vertex 2.254792e+003 5.488490e+002 1.882609e+003
      endloop
   endfacet
   facet normal 1.000000e+000 -7.285839e-017 2.012279e-016
      outer loop
         vertex 2.254792e+003 5.488490e+002 1.882609e+003
         vertex 2.254792e+003 5.401887e+002 1.884929e+003
         vertex 2.254792e+003 5.486460e+002 1.881851e+003
      endloop
   endfacet
   facet normal 1.000000e+000 -7.285839e-017 2.012279e-016
      outer loop
         vertex 2.254792e+003 5.421673e+002 1.887287e+003
         vertex 2.254792e+003 5.415248e+002 1.886837e+003
         vertex 2.254792e+003 5.409702e+002 1.886282e+003
      endloop
   endfacet
   facet normal 1.000000e+000 -7.285839e-017 2.012279e-016
      outer loop
         vertex 2.254792e+003 5.415248e+002 1.879943e+003
         vertex 2.254792e+003 5.421673e+002 1.879493e+003
         vertex 2.254792e+003 5.428783e+002 1.879161e+003
      endloop
   endfacet
   facet normal 1.000000e+000 -7.285839e-017 2.012279e-016
      outer loop
         vertex 2.254792e+003 5.401887e+002 1.881851e+003
         vertex 2.254792e+003 5.405202e+002 1.881140e+003
         vertex 2.254792e+003 5.486460e+002 1.881851e+003
      endloop
   endfacet
   facet normal 1.000000e+000 -7.285839e-017 2.012279e-016
      outer loop
         vertex 2.254792e+003 5.486460e+002 1.881851e+003
         vertex 2.254792e+003 5.405202e+002 1.881140e+003
         vertex 2.254792e+003 5.415248e+002 1.879943e+003
      endloop
   endfacet
   facet normal 1.000000e+000 -7.285839e-017 2.012279e-016
      outer loop
         vertex 2.254792e+003 5.486460e+002 1.881851e+003
         vertex 2.254792e+003 5.415248e+002 1.879943e+003
         vertex 2.254792e+003 5.478646e+002 1.880497e+003
      endloop
   endfacet
   facet normal 1.000000e+000 -7.285839e-017 2.012279e-016
      outer loop
         vertex 2.254792e+003 5.478646e+002 1.880497e+003
         vertex 2.254792e+003 5.415248e+002 1.879943e+003
         vertex 2.254792e+003 5.428783e+002 1.879161e+003
      endloop
   endfacet
   facet normal 1.000000e+000 -7.285839e-017 2.012279e-016
      outer loop
         vertex 2.254792e+003 5.478646e+002 1.880497e+003
         vertex 2.254792e+003 5.428783e+002 1.879161e+003
         vertex 2.254792e+003 5.436359e+002 1.878958e+003
      endloop
   endfacet
   facet normal 1.000000e+000 -7.285839e-017 2.012279e-016
      outer loop
         vertex 2.254792e+003 5.478646e+002 1.886282e+003
         vertex 2.254792e+003 5.473099e+002 1.886837e+003
         vertex 2.254792e+003 5.401887e+002 1.884929e+003
      endloop
   endfacet
   facet normal 1.000000e+000 -7.285839e-017 2.012279e-016
      outer loop
         vertex 2.254792e+003 5.401887e+002 1.884929e+003
         vertex 2.254792e+003 5.473099e+002 1.886837e+003
         vertex 2.254792e+003 5.466674e+002 1.887287e+003
      endloop
   endfacet
   facet normal 1.000000e+000 -7.285839e-017 2.012279e-016
      outer loop
         vertex 2.254792e+003 5.401887e+002 1.884929e+003
         vertex 2.254792e+003 5.466674e+002 1.887287e+003
         vertex 2.254792e+003 5.409702e+002 1.886282e+003
      endloop
   endfacet
   facet normal 1.000000e+000 -7.285839e-017 2.012279e-016
      outer loop
         vertex 2.254792e+003 5.409702e+002 1.886282e+003
         vertex 2.254792e+003 5.466674e+002 1.887287e+003
         vertex 2.254792e+003 5.459564e+002 1.887619e+003
      endloop
   endfacet
   facet normal 1.000000e+000 -7.285839e-017 2.012279e-016
      outer loop
         vertex 2.254792e+003 5.409702e+002 1.886282e+003
         vertex 2.254792e+003 5.459564e+002 1.887619e+003
         vertex 2.254792e+003 5.451987e+002 1.887822e+003
      endloop
   endfacet
   facet normal 1.000000e+000 -7.285839e-017 2.012279e-016
      outer loop
         vertex 2.254792e+003 5.459564e+002 1.879161e+003
         vertex 2.254792e+003 5.466674e+002 1.879493e+003
         vertex 2.254792e+003 5.451987e+002 1.878958e+003
      endloop
   endfacet
   facet normal 1.000000e+000 -7.285839e-017 2.012279e-016
      outer loop
         vertex 2.254792e+003 5.451987e+002 1.878958e+003
         vertex 2.254792e+003 5.466674e+002 1.879493e+003
         vertex 2.254792e+003 5.478646e+002 1.880497e+003
      endloop
   endfacet
   facet normal 1.000000e+000 -7.285839e-017 2.012279e-016
      outer loop
         vertex 2.254792e+003 5.451987e+002 1.878958e+003
         vertex 2.254792e+003 5.478646e+002 1.880497e+003
         vertex 2.254792e+003 5.444173e+002 1.878890e+003
      endloop
   endfacet
   facet normal 1.000000e+000 -7.285839e-017 2.012279e-016
      outer loop
         vertex 2.254792e+003 5.444173e+002 1.878890e+003
         vertex 2.254792e+003 5.478646e+002 1.880497e+003
         vertex 2.254792e+003 5.436359e+002 1.878958e+003
      endloop
   endfacet
   facet normal 1.000000e+000 -7.285839e-017 2.012279e-016
      outer loop
         vertex 2.254792e+003 5.428783e+002 1.887619e+003
         vertex 2.254792e+003 5.421673e+002 1.887287e+003
         vertex 2.254792e+003 5.436359e+002 1.887822e+003
      endloop
   endfacet
   facet normal 1.000000e+000 -7.285839e-017 2.012279e-016
      outer loop
         vertex 2.254792e+003 5.436359e+002 1.887822e+003
         vertex 2.254792e+003 5.421673e+002 1.887287e+003
         vertex 2.254792e+003 5.409702e+002 1.886282e+003
      endloop
   endfacet
   facet normal 1.000000e+000 -7.285839e-017 2.012279e-016
      outer loop
         vertex 2.254792e+003 5.436359e+002 1.887822e+003
         vertex 2.254792e+003 5.409702e+002 1.886282e+003
         vertex 2.254792e+003 5.444173e+002 1.887890e+003
      endloop
   endfacet
   facet normal 1.000000e+000 -7.285839e-017 2.012279e-016
      outer loop
         vertex 2.254792e+003 5.444173e+002 1.887890e+003
         vertex 2.254792e+003 5.409702e+002 1.886282e+003
         vertex 2.254792e+003 5.451987e+002 1.887822e+003
      endloop
   endfacet
   facet normal -1.000000e+000 7.285839e-017 -2.012279e-016
      outer loop
         vertex 2.216792e+003 5.478646e+002 1.886282e+003
         vertex 2.216792e+003 5.483145e+002 1.885640e+003
         vertex 2.216792e+003 5.486460e+002 1.884929e+003
      endloop
   endfacet
   facet normal -1.000000e+000 7.285839e-017 -2.012279e-016
      outer loop
         vertex 2.216792e+003 5.409702e+002 1.880497e+003
         vertex 2.216792e+003 5.405202e+002 1.881140e+003
         vertex 2.216792e+003 5.401887e+002 1.881851e+003
      endloop
   endfacet
   facet normal -1.000000e+000 7.285839e-017 -2.012279e-016
      outer loop
         vertex 2.216792e+003 5.488490e+002 1.882609e+003
         vertex 2.216792e+003 5.486460e+002 1.881851e+003
         vertex 2.216792e+003 5.401887e+002 1.881851e+003
      endloop
   endfacet
   facet normal -1.000000e+000 7.285839e-017 -2.012279e-016
      outer loop
         vertex 2.216792e+003 5.483145e+002 1.881140e+003
         vertex 2.216792e+003 5.478646e+002 1.880497e+003
         vertex 2.216792e+003 5.473099e+002 1.879943e+003
      endloop
   endfacet
   facet normal -1.000000e+000 7.285839e-017 -2.012279e-016
      outer loop
         vertex 2.216792e+003 5.399857e+002 1.884171e+003
         vertex 2.216792e+003 5.401887e+002 1.881851e+003
         vertex 2.216792e+003 5.399174e+002 1.883390e+003
      endloop
   endfacet
   facet normal -1.000000e+000 7.285839e-017 -2.012279e-016
      outer loop
         vertex 2.216792e+003 5.399174e+002 1.883390e+003
         vertex 2.216792e+003 5.401887e+002 1.881851e+003
         vertex 2.216792e+003 5.399857e+002 1.882609e+003
      endloop
   endfacet
   facet normal -1.000000e+000 7.285839e-017 -2.012279e-016
      outer loop
         vertex 2.216792e+003 5.489174e+002 1.883390e+003
         vertex 2.216792e+003 5.488490e+002 1.882609e+003
         vertex 2.216792e+003 5.488490e+002 1.884171e+003
      endloop
   endfacet
   facet normal -1.000000e+000 7.285839e-017 -2.012279e-016
      outer loop
         vertex 2.216792e+003 5.488490e+002 1.884171e+003
         vertex 2.216792e+003 5.488490e+002 1.882609e+003
         vertex 2.216792e+003 5.401887e+002 1.881851e+003
      endloop
   endfacet
   facet normal -1.000000e+000 7.285839e-017 -2.012279e-016
      outer loop
         vertex 2.216792e+003 5.488490e+002 1.884171e+003
         vertex 2.216792e+003 5.401887e+002 1.881851e+003
         vertex 2.216792e+003 5.486460e+002 1.884929e+003
      endloop
   endfacet
   facet normal -1.000000e+000 7.285839e-017 -2.012279e-016
      outer loop
         vertex 2.216792e+003 5.486460e+002 1.884929e+003
         vertex 2.216792e+003 5.401887e+002 1.881851e+003
         vertex 2.216792e+003 5.399857e+002 1.884171e+003
      endloop
   endfacet
   facet normal -1.000000e+000 7.285839e-017 -2.012279e-016
      outer loop
         vertex 2.216792e+003 5.421673e+002 1.879493e+003
         vertex 2.216792e+003 5.415248e+002 1.879943e+003
         vertex 2.216792e+003 5.409702e+002 1.880497e+003
      endloop
   endfacet
   facet normal -1.000000e+000 7.285839e-017 -2.012279e-016
      outer loop
         vertex 2.216792e+003 5.399857e+002 1.884171e+003
         vertex 2.216792e+003 5.401887e+002 1.884929e+003
         vertex 2.216792e+003 5.486460e+002 1.884929e+003
      endloop
   endfacet
   facet normal -1.000000e+000 7.285839e-017 -2.012279e-016
      outer loop
         vertex 2.216792e+003 5.486460e+002 1.884929e+003
         vertex 2.216792e+003 5.401887e+002 1.884929e+003
         vertex 2.216792e+003 5.405202e+002 1.885640e+003
      endloop
   endfacet
   facet normal -1.000000e+000 7.285839e-017 -2.012279e-016
      outer loop
         vertex 2.216792e+003 5.486460e+002 1.884929e+003
         vertex 2.216792e+003 5.405202e+002 1.885640e+003
         vertex 2.216792e+003 5.409702e+002 1.886282e+003
      endloop
   endfacet
   facet normal -1.000000e+000 7.285839e-017 -2.012279e-016
      outer loop
         vertex 2.216792e+003 5.466674e+002 1.887287e+003
         vertex 2.216792e+003 5.473099e+002 1.886837e+003
         vertex 2.216792e+003 5.478646e+002 1.886282e+003
      endloop
   endfacet
   facet normal -1.000000e+000 7.285839e-017 -2.012279e-016
      outer loop
         vertex 2.216792e+003 5.473099e+002 1.879943e+003
         vertex 2.216792e+003 5.466674e+002 1.879493e+003
         vertex 2.216792e+003 5.459564e+002 1.879161e+003
      endloop
   endfacet
   facet normal -1.000000e+000 7.285839e-017 -2.012279e-016
      outer loop
         vertex 2.216792e+003 5.486460e+002 1.881851e+003
         vertex 2.216792e+003 5.483145e+002 1.881140e+003
         vertex 2.216792e+003 5.401887e+002 1.881851e+003
      endloop
   endfacet
   facet normal -1.000000e+000 7.285839e-017 -2.012279e-016
      outer loop
         vertex 2.216792e+003 5.401887e+002 1.881851e+003
         vertex 2.216792e+003 5.483145e+002 1.881140e+003
         vertex 2.216792e+003 5.473099e+002 1.879943e+003
      endloop
   endfacet
   facet normal -1.000000e+000 7.285839e-017 -2.012279e-016
      outer loop
         vertex 2.216792e+003 5.401887e+002 1.881851e+003
         vertex 2.216792e+003 5.473099e+002 1.879943e+003
         vertex 2.216792e+003 5.409702e+002 1.880497e+003
      endloop
   endfacet
   facet normal -1.000000e+000 7.285839e-017 -2.012279e-016
      outer loop
         vertex 2.216792e+003 5.409702e+002 1.880497e+003
         vertex 2.216792e+003 5.473099e+002 1.879943e+003
         vertex 2.216792e+003 5.459564e+002 1.879161e+003
      endloop
   endfacet
   facet normal -1.000000e+000 7.285839e-017 -2.012279e-016
      outer loop
         vertex 2.216792e+003 5.409702e+002 1.880497e+003
         vertex 2.216792e+003 5.459564e+002 1.879161e+003
         vertex 2.216792e+003 5.451987e+002 1.878958e+003
      endloop
   endfacet
   facet normal -1.000000e+000 7.285839e-017 -2.012279e-016
      outer loop
         vertex 2.216792e+003 5.409702e+002 1.886282e+003
         vertex 2.216792e+003 5.415248e+002 1.886837e+003
         vertex 2.216792e+003 5.486460e+002 1.884929e+003
      endloop
   endfacet
   facet normal -1.000000e+000 7.285839e-017 -2.012279e-016
      outer loop
         vertex 2.216792e+003 5.486460e+002 1.884929e+003
         vertex 2.216792e+003 5.415248e+002 1.886837e+003
         vertex 2.216792e+003 5.421673e+002 1.887287e+003
      endloop
   endfacet
   facet normal -1.000000e+000 7.285839e-017 -2.012279e-016
      outer loop
         vertex 2.216792e+003 5.486460e+002 1.884929e+003
         vertex 2.216792e+003 5.421673e+002 1.887287e+003
         vertex 2.216792e+003 5.478646e+002 1.886282e+003
      endloop
   endfacet
   facet normal -1.000000e+000 7.285839e-017 -2.012279e-016
      outer loop
         vertex 2.216792e+003 5.478646e+002 1.886282e+003
         vertex 2.216792e+003 5.421673e+002 1.887287e+003
         vertex 2.216792e+003 5.428783e+002 1.887619e+003
      endloop
   endfacet
   facet normal -1.000000e+000 7.285839e-017 -2.012279e-016
      outer loop
         vertex 2.216792e+003 5.478646e+002 1.886282e+003
         vertex 2.216792e+003 5.428783e+002 1.887619e+003
         vertex 2.216792e+003 5.436359e+002 1.887822e+003
      endloop
   endfacet
   facet normal -1.000000e+000 7.285839e-017 -2.012279e-016
      outer loop
         vertex 2.216792e+003 5.428783e+002 1.879161e+003
         vertex 2.216792e+003 5.421673e+002 1.879493e+003
         vertex 2.216792e+003 5.436359e+002 1.878958e+003
      endloop
   endfacet
   facet normal -1.000000e+000 7.285839e-017 -2.012279e-016
      outer loop
         vertex 2.216792e+003 5.436359e+002 1.878958e+003
         vertex 2.216792e+003 5.421673e+002 1.879493e+003
         vertex 2.216792e+003 5.409702e+002 1.880497e+003
      endloop
   endfacet
   facet normal -1.000000e+000 7.285839e-017 -2.012279e-016
      outer loop
         vertex 2.216792e+003 5.436359e+002 1.878958e+003
         vertex 2.216792e+003 5.409702e+002 1.880497e+003
         vertex 2.216792e+003 5.444173e+002 1.878890e+003
      endloop
   endfacet
   facet normal -1.000000e+000 7.285839e-017 -2.012279e-016
      outer loop
         vertex 2.216792e+003 5.444173e+002 1.878890e+003
         vertex 2.216792e+003 5.409702e+002 1.880497e+003
         vertex 2.216792e+003 5.451987e+002 1.878958e+003
      endloop
   endfacet
   facet normal -1.000000e+000 7.285839e-017 -2.012279e-016
      outer loop
         vertex 2.216792e+003 5.459564e+002 1.887619e+003
         vertex 2.216792e+003 5.466674e+002 1.887287e+003
         vertex 2.216792e+003 5.451987e+002 1.887822e+003
      endloop
   endfacet
   facet normal -1.000000e+000 7.285839e-017 -2.012279e-016
      outer loop
         vertex 2.216792e+003 5.451987e+002 1.887822e+003
         vertex 2.216792e+003 5.466674e+002 1.887287e+003
         vertex 2.216792e+003 5.478646e+002 1.886282e+003
      endloop
   endfacet
   facet normal -1.000000e+000 7.285839e-017 -2.012279e-016
      outer loop
         vertex 2.216792e+003 5.451987e+002 1.887822e+003
         vertex 2.216792e+003 5.478646e+002 1.886282e+003
         vertex 2.216792e+003 5.444173e+002 1.887890e+003
      endloop
   endfacet
   facet normal -1.000000e+000 7.285839e-017 -2.012279e-016
      outer loop
         vertex 2.216792e+003 5.444173e+002 1.887890e+003
         vertex 2.216792e+003 5.478646e+002 1.886282e+003
         vertex 2.216792e+003 5.436359e+002 1.887822e+003
      endloop
   endfacet
   facet normal 7.083034e-001 -6.868910e-001 1.627484e-001
      outer loop
         vertex 2.254292e+003 5.394933e+002 1.884258e+003
         vertex 2.254792e+003 5.399857e+002 1.884171e+003
         vertex 2.254292e+003 5.397189e+002 1.885100e+003
      endloop
   endfacet
   facet normal 7.083035e-001 -6.762393e-001 2.025012e-001
      outer loop
         vertex 2.254292e+003 5.397189e+002 1.885100e+003
         vertex 2.254792e+003 5.399857e+002 1.884171e+003
         vertex 2.254792e+003 5.401887e+002 1.884929e+003
      endloop
   endfacet
   facet normal 7.083035e-001 -6.481946e-001 2.795533e-001
      outer loop
         vertex 2.254292e+003 5.397189e+002 1.885100e+003
         vertex 2.254792e+003 5.401887e+002 1.884929e+003
         vertex 2.254292e+003 5.400872e+002 1.885890e+003
      endloop
   endfacet
   facet normal 7.083034e-001 -6.308017e-001 3.168525e-001
      outer loop
         vertex 2.254292e+003 5.400872e+002 1.885890e+003
         vertex 2.254792e+003 5.401887e+002 1.884929e+003
         vertex 2.254792e+003 5.405202e+002 1.885640e+003
      endloop
   endfacet
   facet normal 7.083035e-001 -5.898032e-001 3.878641e-001
      outer loop
         vertex 2.254292e+003 5.400872e+002 1.885890e+003
         vertex 2.254792e+003 5.405202e+002 1.885640e+003
         vertex 2.254292e+003 5.405871e+002 1.886604e+003
      endloop
   endfacet
   facet normal 7.083035e-001 -5.661975e-001 4.215764e-001
      outer loop
         vertex 2.254292e+003 5.405871e+002 1.886604e+003
         vertex 2.254792e+003 5.405202e+002 1.885640e+003
         vertex 2.254792e+003 5.409702e+002 1.886282e+003
      endloop
   endfacet
   facet normal 7.083035e-001 -5.134908e-001 4.843898e-001
      outer loop
         vertex 2.254292e+003 5.405871e+002 1.886604e+003
         vertex 2.254792e+003 5.409702e+002 1.886282e+003
         vertex 2.254292e+003 5.412034e+002 1.887220e+003
      endloop
   endfacet
   facet normal 7.083035e-001 -4.843898e-001 5.134908e-001
      outer loop
         vertex 2.254292e+003 5.412034e+002 1.887220e+003
         vertex 2.254792e+003 5.409702e+002 1.886282e+003
         vertex 2.254792e+003 5.415248e+002 1.886837e+003
      endloop
   endfacet
   facet normal 7.083035e-001 -4.215764e-001 5.661975e-001
      outer loop
         vertex 2.254292e+003 5.412034e+002 1.887220e+003
         vertex 2.254792e+003 5.415248e+002 1.886837e+003
         vertex 2.254292e+003 5.419173e+002 1.887720e+003
      endloop
   endfacet
   facet normal 7.083035e-001 -3.878641e-001 5.898032e-001
      outer loop
         vertex 2.254292e+003 5.419173e+002 1.887720e+003
         vertex 2.254792e+003 5.415248e+002 1.886837e+003
         vertex 2.254792e+003 5.421673e+002 1.887287e+003
      endloop
   endfacet
   facet normal 7.083034e-001 -3.168525e-001 6.308017e-001
      outer loop
         vertex 2.254292e+003 5.419173e+002 1.887720e+003
         vertex 2.254792e+003 5.421673e+002 1.887287e+003
         vertex 2.254292e+003 5.427072e+002 1.888088e+003
      endloop
   endfacet
   facet normal 7.083035e-001 -2.795533e-001 6.481946e-001
      outer loop
         vertex 2.254292e+003 5.427072e+002 1.888088e+003
         vertex 2.254792e+003 5.421673e+002 1.887287e+003
         vertex 2.254792e+003 5.428783e+002 1.887619e+003
      endloop
   endfacet
   facet normal 7.083035e-001 -2.025012e-001 6.762393e-001
      outer loop
         vertex 2.254292e+003 5.427072e+002 1.888088e+003
         vertex 2.254792e+003 5.428783e+002 1.887619e+003
         vertex 2.254292e+003 5.435491e+002 1.888314e+003
      endloop
   endfacet
   facet normal 7.083034e-001 -1.627484e-001 6.868910e-001
      outer loop
         vertex 2.254292e+003 5.435491e+002 1.888314e+003
         vertex 2.254792e+003 5.428783e+002 1.887619e+003
         vertex 2.254792e+003 5.436359e+002 1.887822e+003
      endloop
   endfacet
   facet normal 7.083034e-001 -8.199707e-002 7.011296e-001
      outer loop
         vertex 2.254292e+003 5.435491e+002 1.888314e+003
         vertex 2.254792e+003 5.436359e+002 1.887822e+003
         vertex 2.254292e+003 5.444173e+002 1.888390e+003
      endloop
   endfacet
   facet normal 7.083035e-001 -4.099854e-002 7.047165e-001
      outer loop
         vertex 2.254292e+003 5.444173e+002 1.888390e+003
         vertex 2.254792e+003 5.436359e+002 1.887822e+003
         vertex 2.254792e+003 5.444173e+002 1.887890e+003
      endloop
   endfacet
   facet normal 7.083035e-001 4.099854e-002 7.047165e-001
      outer loop
         vertex 2.254292e+003 5.444173e+002 1.888390e+003
         vertex 2.254792e+003 5.444173e+002 1.887890e+003
         vertex 2.254292e+003 5.452856e+002 1.888314e+003
      endloop
   endfacet
   facet normal 7.083034e-001 8.199707e-002 7.011296e-001
      outer loop
         vertex 2.254292e+003 5.452856e+002 1.888314e+003
         vertex 2.254792e+003 5.444173e+002 1.887890e+003
         vertex 2.254792e+003 5.451987e+002 1.887822e+003
      endloop
   endfacet
   facet normal 7.083034e-001 1.627484e-001 6.868910e-001
      outer loop
         vertex 2.254292e+003 5.452856e+002 1.888314e+003
         vertex 2.254792e+003 5.451987e+002 1.887822e+003
         vertex 2.254292e+003 5.461274e+002 1.888088e+003
      endloop
   endfacet
   facet normal 7.083035e-001 2.025012e-001 6.762393e-001
      outer loop
         vertex 2.254292e+003 5.461274e+002 1.888088e+003
         vertex 2.254792e+003 5.451987e+002 1.887822e+003
         vertex 2.254792e+003 5.459564e+002 1.887619e+003
      endloop
   endfacet
   facet normal 7.083035e-001 2.795533e-001 6.481946e-001
      outer loop
         vertex 2.254292e+003 5.461274e+002 1.888088e+003
         vertex 2.254792e+003 5.459564e+002 1.887619e+003
         vertex 2.254292e+003 5.469173e+002 1.887720e+003
      endloop
   endfacet
   facet normal 7.083034e-001 3.168525e-001 6.308017e-001
      outer loop
         vertex 2.254292e+003 5.469173e+002 1.887720e+003
         vertex 2.254792e+003 5.459564e+002 1.887619e+003
         vertex 2.254792e+003 5.466674e+002 1.887287e+003
      endloop
   endfacet
   facet normal 7.083035e-001 3.878641e-001 5.898032e-001
      outer loop
         vertex 2.254292e+003 5.469173e+002 1.887720e+003
         vertex 2.254792e+003 5.466674e+002 1.887287e+003
         vertex 2.254292e+003 5.476313e+002 1.887220e+003
      endloop
   endfacet
   facet normal 7.083035e-001 4.215764e-001 5.661975e-001
      outer loop
         vertex 2.254292e+003 5.476313e+002 1.887220e+003
         vertex 2.254792e+003 5.466674e+002 1.887287e+003
         vertex 2.254792e+003 5.473099e+002 1.886837e+003
      endloop
   endfacet
   facet normal 7.083035e-001 4.843898e-001 5.134908e-001
      outer loop
         vertex 2.254292e+003 5.476313e+002 1.887220e+003
         vertex 2.254792e+003 5.473099e+002 1.886837e+003
         vertex 2.254292e+003 5.482476e+002 1.886604e+003
      endloop
   endfacet
   facet normal 7.083035e-001 5.134908e-001 4.843898e-001
      outer loop
         vertex 2.254292e+003 5.482476e+002 1.886604e+003
         vertex 2.254792e+003 5.473099e+002 1.886837e+003
         vertex 2.254792e+003 5.478646e+002 1.886282e+003
      endloop
   endfacet
   facet normal 7.083035e-001 5.661975e-001 4.215764e-001
      outer loop
         vertex 2.254292e+003 5.482476e+002 1.886604e+003
         vertex 2.254792e+003 5.478646e+002 1.886282e+003
         vertex 2.254292e+003 5.487475e+002 1.885890e+003
      endloop
   endfacet
   facet normal 7.083035e-001 5.898032e-001 3.878641e-001
      outer loop
         vertex 2.254292e+003 5.487475e+002 1.885890e+003
         vertex 2.254792e+003 5.478646e+002 1.886282e+003
         vertex 2.254792e+003 5.483145e+002 1.885640e+003
      endloop
   endfacet
   facet normal 7.083034e-001 6.308017e-001 3.168525e-001
      outer loop
         vertex 2.254292e+003 5.487475e+002 1.885890e+003
         vertex 2.254792e+003 5.483145e+002 1.885640e+003
         vertex 2.254292e+003 5.491158e+002 1.885100e+003
      endloop
   endfacet
   facet normal 7.083035e-001 6.481946e-001 2.795533e-001
      outer loop
         vertex 2.254292e+003 5.491158e+002 1.885100e+003
         vertex 2.254792e+003 5.483145e+002 1.885640e+003
         vertex 2.254792e+003 5.486460e+002 1.884929e+003
      endloop
   endfacet
   facet normal 7.083035e-001 6.762393e-001 2.025012e-001
      outer loop
         vertex 2.254292e+003 5.491158e+002 1.885100e+003
         vertex 2.254792e+003 5.486460e+002 1.884929e+003
         vertex 2.254292e+003 5.493414e+002 1.884258e+003
      endloop
   endfacet
   facet normal 7.083034e-001 6.868910e-001 1.627484e-001
      outer loop
         vertex 2.254292e+003 5.493414e+002 1.884258e+003
         vertex 2.254792e+003 5.486460e+002 1.884929e+003
         vertex 2.254792e+003 5.488490e+002 1.884171e+003
      endloop
   endfacet
   facet normal 7.083034e-001 7.011296e-001 8.199707e-002
      outer loop
         vertex 2.254292e+003 5.493414e+002 1.884258e+003
         vertex 2.254792e+003 5.488490e+002 1.884171e+003
         vertex 2.254292e+003 5.494173e+002 1.883390e+003
      endloop
   endfacet
   facet normal 7.083035e-001 7.047165e-001 4.099854e-002
      outer loop
         vertex 2.254292e+003 5.494173e+002 1.883390e+003
         vertex 2.254792e+003 5.488490e+002 1.884171e+003
         vertex 2.254792e+003 5.489174e+002 1.883390e+003
      endloop
   endfacet
   facet normal 7.083035e-001 7.047165e-001 -4.099854e-002
      outer loop
         vertex 2.254292e+003 5.494173e+002 1.883390e+003
         vertex 2.254792e+003 5.489174e+002 1.883390e+003
         vertex 2.254292e+003 5.493414e+002 1.882522e+003
      endloop
   endfacet
   facet normal 7.083034e-001 7.011296e-001 -8.199707e-002
      outer loop
         vertex 2.254292e+003 5.493414e+002 1.882522e+003
         vertex 2.254792e+003 5.489174e+002 1.883390e+003
         vertex 2.254792e+003 5.488490e+002 1.882609e+003
      endloop
   endfacet
   facet normal 7.083034e-001 6.868910e-001 -1.627484e-001
      outer loop
         vertex 2.254292e+003 5.493414e+002 1.882522e+003
         vertex 2.254792e+003 5.488490e+002 1.882609e+003
         vertex 2.254292e+003 5.491158e+002 1.881680e+003
      endloop
   endfacet
   facet normal 7.083035e-001 6.762393e-001 -2.025012e-001
      outer loop
         vertex 2.254292e+003 5.491158e+002 1.881680e+003
         vertex 2.254792e+003 5.488490e+002 1.882609e+003
         vertex 2.254792e+003 5.486460e+002 1.881851e+003
      endloop
   endfacet
   facet normal 7.083035e-001 6.481946e-001 -2.795533e-001
      outer loop
         vertex 2.254292e+003 5.491158e+002 1.881680e+003
         vertex 2.254792e+003 5.486460e+002 1.881851e+003
         vertex 2.254292e+003 5.487475e+002 1.880890e+003
      endloop
   endfacet
   facet normal 7.083034e-001 6.308017e-001 -3.168525e-001
      outer loop
         vertex 2.254292e+003 5.487475e+002 1.880890e+003
         vertex 2.254792e+003 5.486460e+002 1.881851e+003
         vertex 2.254792e+003 5.483145e+002 1.881140e+003
      endloop
   endfacet
   facet normal 7.083035e-001 5.898032e-001 -3.878641e-001
      outer loop
         vertex 2.254292e+003 5.487475e+002 1.880890e+003
         vertex 2.254792e+003 5.483145e+002 1.881140e+003
         vertex 2.254292e+003 5.482476e+002 1.880176e+003
      endloop
   endfacet
   facet normal 7.083035e-001 5.661975e-001 -4.215764e-001
      outer loop
         vertex 2.254292e+003 5.482476e+002 1.880176e+003
         vertex 2.254792e+003 5.483145e+002 1.881140e+003
         vertex 2.254792e+003 5.478646e+002 1.880497e+003
      endloop
   endfacet
   facet normal 7.083035e-001 5.134908e-001 -4.843898e-001
      outer loop
         vertex 2.254292e+003 5.482476e+002 1.880176e+003
         vertex 2.254792e+003 5.478646e+002 1.880497e+003
         vertex 2.254292e+003 5.476313e+002 1.879560e+003
      endloop
   endfacet
   facet normal 7.083035e-001 4.843898e-001 -5.134908e-001
      outer loop
         vertex 2.254292e+003 5.476313e+002 1.879560e+003
         vertex 2.254792e+003 5.478646e+002 1.880497e+003
         vertex 2.254792e+003 5.473099e+002 1.879943e+003
      endloop
   endfacet
   facet normal 7.083035e-001 4.215764e-001 -5.661975e-001
      outer loop
         vertex 2.254292e+003 5.476313e+002 1.879560e+003
         vertex 2.254792e+003 5.473099e+002 1.879943e+003
         vertex 2.254292e+003 5.469173e+002 1.879060e+003
      endloop
   endfacet
   facet normal 7.083035e-001 3.878641e-001 -5.898032e-001
      outer loop
         vertex 2.254292e+003 5.469173e+002 1.879060e+003
         vertex 2.254792e+003 5.473099e+002 1.879943e+003
         vertex 2.254792e+003 5.466674e+002 1.879493e+003
      endloop
   endfacet
   facet normal 7.083034e-001 3.168525e-001 -6.308017e-001
      outer loop
         vertex 2.254292e+003 5.469173e+002 1.879060e+003
         vertex 2.254792e+003 5.466674e+002 1.879493e+003
         vertex 2.254292e+003 5.461274e+002 1.878691e+003
      endloop
   endfacet
   facet normal 7.083035e-001 2.795533e-001 -6.481946e-001
      outer loop
         vertex 2.254292e+003 5.461274e+002 1.878691e+003
         vertex 2.254792e+003 5.466674e+002 1.879493e+003
         vertex 2.254792e+003 5.459564e+002 1.879161e+003
      endloop
   endfacet
   facet normal 7.083035e-001 2.025012e-001 -6.762393e-001
      outer loop
         vertex 2.254292e+003 5.461274e+002 1.878691e+003
         vertex 2.254792e+003 5.459564e+002 1.879161e+003
         vertex 2.254292e+003 5.452856e+002 1.878466e+003
      endloop
   endfacet
   facet normal 7.083034e-001 1.627484e-001 -6.868910e-001
      outer loop
         vertex 2.254292e+003 5.452856e+002 1.878466e+003
         vertex 2.254792e+003 5.459564e+002 1.879161e+003
         vertex 2.254792e+003 5.451987e+002 1.878958e+003
      endloop
   endfacet
   facet normal 7.083034e-001 8.199707e-002 -7.011296e-001
      outer loop
         vertex 2.254292e+003 5.452856e+002 1.878466e+003
         vertex 2.254792e+003 5.451987e+002 1.878958e+003
         vertex 2.254292e+003 5.444173e+002 1.878390e+003
      endloop
   endfacet
   facet normal 7.083035e-001 4.099854e-002 -7.047165e-001
      outer loop
         vertex 2.254292e+003 5.444173e+002 1.878390e+003
         vertex 2.254792e+003 5.451987e+002 1.878958e+003
         vertex 2.254792e+003 5.444173e+002 1.878890e+003
      endloop
   endfacet
   facet normal 7.083035e-001 -4.099854e-002 -7.047165e-001
      outer loop
         vertex 2.254292e+003 5.444173e+002 1.878390e+003
         vertex 2.254792e+003 5.444173e+002 1.878890e+003
         vertex 2.254292e+003 5.435491e+002 1.878466e+003
      endloop
   endfacet
   facet normal 7.083034e-001 -8.199707e-002 -7.011296e-001
      outer loop
         vertex 2.254292e+003 5.435491e+002 1.878466e+003
         vertex 2.254792e+003 5.444173e+002 1.878890e+003
         vertex 2.254792e+003 5.436359e+002 1.878958e+003
      endloop
   endfacet
   facet normal 7.083034e-001 -1.627484e-001 -6.868910e-001
      outer loop
         vertex 2.254292e+003 5.435491e+002 1.878466e+003
         vertex 2.254792e+003 5.436359e+002 1.878958e+003
         vertex 2.254292e+003 5.427072e+002 1.878691e+003
      endloop
   endfacet
   facet normal 7.083035e-001 -2.025012e-001 -6.762393e-001
      outer loop
         vertex 2.254292e+003 5.427072e+002 1.878691e+003
         vertex 2.254792e+003 5.436359e+002 1.878958e+003
         vertex 2.254792e+003 5.428783e+002 1.879161e+003
      endloop
   endfacet
   facet normal 7.083035e-001 -2.795533e-001 -6.481946e-001
      outer loop
         vertex 2.254292e+003 5.427072e+002 1.878691e+003
         vertex 2.254792e+003 5.428783e+002 1.879161e+003
         vertex 2.254292e+003 5.419173e+002 1.879060e+003
      endloop
   endfacet
   facet normal 7.083034e-001 -3.168525e-001 -6.308017e-001
      outer loop
         vertex 2.254292e+003 5.419173e+002 1.879060e+003
         vertex 2.254792e+003 5.428783e+002 1.879161e+003
         vertex 2.254792e+003 5.421673e+002 1.879493e+003
      endloop
   endfacet
   facet normal 7.083035e-001 -3.878641e-001 -5.898032e-001
      outer loop
         vertex 2.254292e+003 5.419173e+002 1.879060e+003
         vertex 2.254792e+003 5.421673e+002 1.879493e+003
         vertex 2.254292e+003 5.412034e+002 1.879560e+003
      endloop
   endfacet
   facet normal 7.083035e-001 -4.215764e-001 -5.661975e-001
      outer loop
         vertex 2.254292e+003 5.412034e+002 1.879560e+003
         vertex 2.254792e+003 5.421673e+002 1.879493e+003
         vertex 2.254792e+003 5.415248e+002 1.879943e+003
      endloop
   endfacet
   facet normal 7.083035e-001 -4.843898e-001 -5.134908e-001
      outer loop
         vertex 2.254292e+003 5.412034e+002 1.879560e+003
         vertex 2.254792e+003 5.415248e+002 1.879943e+003
         vertex 2.254292e+003 5.405871e+002 1.880176e+003
      endloop
   endfacet
   facet normal 7.083035e-001 -5.134908e-001 -4.843898e-001
      outer loop
         vertex 2.254292e+003 5.405871e+002 1.880176e+003
         vertex 2.254792e+003 5.415248e+002 1.879943e+003
         vertex 2.254792e+003 5.409702e+002 1.880497e+003
      endloop
   endfacet
   facet normal 7.083035e-001 -5.661975e-001 -4.215764e-001
      outer loop
         vertex 2.254292e+003 5.405871e+002 1.880176e+003
         vertex 2.254792e+003 5.409702e+002 1.880497e+003
         vertex 2.254292e+003 5.400872e+002 1.880890e+003
      endloop
   endfacet
   facet normal 7.083035e-001 -5.898032e-001 -3.878641e-001
      outer loop
         vertex 2.254292e+003 5.400872e+002 1.880890e+003
         vertex 2.254792e+003 5.409702e+002 1.880497e+003
         vertex 2.254792e+003 5.405202e+002 1.881140e+003
      endloop
   endfacet
   facet normal 7.083034e-001 -6.308017e-001 -3.168525e-001
      outer loop
         vertex 2.254292e+003 5.400872e+002 1.880890e+003
         vertex 2.254792e+003 5.405202e+002 1.881140e+003
         vertex 2.254292e+003 5.397189e+002 1.881680e+003
      endloop
   endfacet
   facet normal 7.083035e-001 -6.481946e-001 -2.795533e-001
      outer loop
         vertex 2.254292e+003 5.397189e+002 1.881680e+003
         vertex 2.254792e+003 5.405202e+002 1.881140e+003
         vertex 2.254792e+003 5.401887e+002 1.881851e+003
      endloop
   endfacet
   facet normal 7.083035e-001 -6.762393e-001 -2.025012e-001
      outer loop
         vertex 2.254292e+003 5.397189e+002 1.881680e+003
         vertex 2.254792e+003 5.401887e+002 1.881851e+003
         vertex 2.254292e+003 5.394933e+002 1.882522e+003
      endloop
   endfacet
   facet normal 7.083034e-001 -6.868910e-001 -1.627484e-001
      outer loop
         vertex 2.254292e+003 5.394933e+002 1.882522e+003
         vertex 2.254792e+003 5.401887e+002 1.881851e+003
         vertex 2.254792e+003 5.399857e+002 1.882609e+003
      endloop
   endfacet
   facet normal 7.083034e-001 -7.011296e-001 -8.199707e-002
      outer loop
         vertex 2.254292e+003 5.394933e+002 1.882522e+003
         vertex 2.254792e+003 5.399857e+002 1.882609e+003
         vertex 2.254292e+003 5.394173e+002 1.883390e+003
      endloop
   endfacet
   facet normal 7.083035e-001 -7.047165e-001 -4.099854e-002
      outer loop
         vertex 2.254292e+003 5.394173e+002 1.883390e+003
         vertex 2.254792e+003 5.399857e+002 1.882609e+003
         vertex 2.254792e+003 5.399174e+002 1.883390e+003
      endloop
   endfacet
   facet normal 7.083035e-001 -7.047165e-001 4.099854e-002
      outer loop
         vertex 2.254292e+003 5.394173e+002 1.883390e+003
         vertex 2.254792e+003 5.399174e+002 1.883390e+003
         vertex 2.254292e+003 5.394933e+002 1.884258e+003
      endloop
   endfacet
   facet normal 7.083034e-001 -7.011296e-001 8.199707e-002
      outer loop
         vertex 2.254292e+003 5.394933e+002 1.884258e+003
         vertex 2.254792e+003 5.399174e+002 1.883390e+003
         vertex 2.254792e+003 5.399857e+002 1.884171e+003
      endloop
   endfacet
   facet normal -7.083034e-001 6.868910e-001 1.627484e-001
      outer loop
         vertex 2.217292e+003 5.493414e+002 1.884258e+003
         vertex 2.216792e+003 5.488490e+002 1.884171e+003
         vertex 2.217292e+003 5.491158e+002 1.885100e+003
      endloop
   endfacet
   facet normal -7.083035e-001 6.762393e-001 2.025012e-001
      outer loop
         vertex 2.217292e+003 5.491158e+002 1.885100e+003
         vertex 2.216792e+003 5.488490e+002 1.884171e+003
         vertex 2.216792e+003 5.486460e+002 1.884929e+003
      endloop
   endfacet
   facet normal -7.083035e-001 6.481946e-001 2.795533e-001
      outer loop
         vertex 2.217292e+003 5.491158e+002 1.885100e+003
         vertex 2.216792e+003 5.486460e+002 1.884929e+003
         vertex 2.217292e+003 5.487475e+002 1.885890e+003
      endloop
   endfacet
   facet normal -7.083034e-001 6.308017e-001 3.168525e-001
      outer loop
         vertex 2.217292e+003 5.487475e+002 1.885890e+003
         vertex 2.216792e+003 5.486460e+002 1.884929e+003
         vertex 2.216792e+003 5.483145e+002 1.885640e+003
      endloop
   endfacet
   facet normal -7.083035e-001 5.898032e-001 3.878641e-001
      outer loop
         vertex 2.217292e+003 5.487475e+002 1.885890e+003
         vertex 2.216792e+003 5.483145e+002 1.885640e+003
         vertex 2.217292e+003 5.482476e+002 1.886604e+003
      endloop
   endfacet
   facet normal -7.083035e-001 5.661975e-001 4.215764e-001
      outer loop
         vertex 2.217292e+003 5.482476e+002 1.886604e+003
         vertex 2.216792e+003 5.483145e+002 1.885640e+003
         vertex 2.216792e+003 5.478646e+002 1.886282e+003
      endloop
   endfacet
   facet normal -7.083035e-001 5.134908e-001 4.843898e-001
      outer loop
         vertex 2.217292e+003 5.482476e+002 1.886604e+003
         vertex 2.216792e+003 5.478646e+002 1.886282e+003
         vertex 2.217292e+003 5.476313e+002 1.887220e+003
      endloop
   endfacet
   facet normal -7.083035e-001 4.843898e-001 5.134908e-001
      outer loop
         vertex 2.217292e+003 5.476313e+002 1.887220e+003
         vertex 2.216792e+003 5.478646e+002 1.886282e+003
         vertex 2.216792e+003 5.473099e+002 1.886837e+003
      endloop
   endfacet
   facet normal -7.083035e-001 4.215764e-001 5.661975e-001
      outer loop
         vertex 2.217292e+003 5.476313e+002 1.887220e+003
         vertex 2.216792e+003 5.473099e+002 1.886837e+003
         vertex 2.217292e+003 5.469173e+002 1.887720e+003
      endloop
   endfacet
   facet normal -7.083035e-001 3.878641e-001 5.898032e-001
      outer loop
         vertex 2.217292e+003 5.469173e+002 1.887720e+003
         vertex 2.216792e+003 5.473099e+002 1.886837e+003
         vertex 2.216792e+003 5.466674e+002 1.887287e+003
      endloop
   endfacet
   facet normal -7.083034e-001 3.168525e-001 6.308017e-001
      outer loop
         vertex 2.217292e+003 5.469173e+002 1.887720e+003
         vertex 2.216792e+003 5.466674e+002 1.887287e+003
         vertex 2.217292e+003 5.461274e+002 1.888088e+003
      endloop
   endfacet
   facet normal -7.083035e-001 2.795533e-001 6.481946e-001
      outer loop
         vertex 2.217292e+003 5.461274e+002 1.888088e+003
         vertex 2.216792e+003 5.466674e+002 1.887287e+003
         vertex 2.216792e+003 5.459564e+002 1.887619e+003
      endloop
   endfacet
   facet normal -7.083035e-001 2.025012e-001 6.762393e-001
      outer loop
         vertex 2.217292e+003 5.461274e+002 1.888088e+003
         vertex 2.216792e+003 5.459564e+002 1.887619e+003
         vertex 2.217292e+003 5.452856e+002 1.888314e+003
      endloop
   endfacet
   facet normal -7.083034e-001 1.627484e-001 6.868910e-001
      outer loop
         vertex 2.217292e+003 5.452856e+002 1.888314e+003
         vertex 2.216792e+003 5.459564e+002 1.887619e+003
         vertex 2.216792e+003 5.451987e+002 1.887822e+003
      endloop
   endfacet
   facet normal -7.083034e-001 8.199707e-002 7.011296e-001
      outer loop
         vertex 2.217292e+003 5.452856e+002 1.888314e+003
         vertex 2.216792e+003 5.451987e+002 1.887822e+003
         vertex 2.217292e+003 5.444173e+002 1.888390e+003
      endloop
   endfacet
   facet normal -7.083035e-001 4.099854e-002 7.047165e-001
      outer loop
         vertex 2.217292e+003 5.444173e+002 1.888390e+003
         vertex 2.216792e+003 5.451987e+002 1.887822e+003
         vertex 2.216792e+003 5.444173e+002 1.887890e+003
      endloop
   endfacet
   facet normal -7.083035e-001 -4.099854e-002 7.047165e-001
      outer loop
         vertex 2.217292e+003 5.444173e+002 1.888390e+003
         vertex 2.216792e+003 5.444173e+002 1.887890e+003
         vertex 2.217292e+003 5.435491e+002 1.888314e+003
      endloop
   endfacet
   facet normal -7.083034e-001 -8.199707e-002 7.011296e-001
      outer loop
         vertex 2.217292e+003 5.435491e+002 1.888314e+003
         vertex 2.216792e+003 5.444173e+002 1.887890e+003
         vertex 2.216792e+003 5.436359e+002 1.887822e+003
      endloop
   endfacet
   facet normal -7.083034e-001 -1.627484e-001 6.868910e-001
      outer loop
         vertex 2.217292e+003 5.435491e+002 1.888314e+003
         vertex 2.216792e+003 5.436359e+002 1.887822e+003
         vertex 2.217292e+003 5.427072e+002 1.888088e+003
      endloop
   endfacet
   facet normal -7.083035e-001 -2.025012e-001 6.762393e-001
      outer loop
         vertex 2.217292e+003 5.427072e+002 1.888088e+003
         vertex 2.216792e+003 5.436359e+002 1.887822e+003
         vertex 2.216792e+003 5.428783e+002 1.887619e+003
      endloop
   endfacet
   facet normal -7.083035e-001 -2.795533e-001 6.481946e-001
      outer loop
         vertex 2.217292e+003 5.427072e+002 1.888088e+003
         vertex 2.216792e+003 5.428783e+002 1.887619e+003
         vertex 2.217292e+003 5.419173e+002 1.887720e+003
      endloop
   endfacet
   facet normal -7.083034e-001 -3.168525e-001 6.308017e-001
      outer loop
         vertex 2.217292e+003 5.419173e+002 1.887720e+003
         vertex 2.216792e+003 5.428783e+002 1.887619e+003
         vertex 2.216792e+003 5.421673e+002 1.887287e+003
      endloop
   endfacet
   facet normal -7.083035e-001 -3.878641e-001 5.898032e-001
      outer loop
         vertex 2.217292e+003 5.419173e+002 1.887720e+003
         vertex 2.216792e+003 5.421673e+002 1.887287e+003
         vertex 2.217292e+003 5.412034e+002 1.887220e+003
      endloop
   endfacet
   facet normal -7.083035e-001 -4.215764e-001 5.661975e-001
      outer loop
         vertex 2.217292e+003 5.412034e+002 1.887220e+003
         vertex 2.216792e+003 5.421673e+002 1.887287e+003
         vertex 2.216792e+003 5.415248e+002 1.886837e+003
      endloop
   endfacet
   facet normal -7.083035e-001 -4.843898e-001 5.134908e-001
      outer loop
         vertex 2.217292e+003 5.412034e+002 1.887220e+003
         vertex 2.216792e+003 5.415248e+002 1.886837e+003
         vertex 2.217292e+003 5.405871e+002 1.886604e+003
      endloop
   endfacet
   facet normal -7.083035e-001 -5.134908e-001 4.843898e-001
      outer loop
         vertex 2.217292e+003 5.405871e+002 1.886604e+003
         vertex 2.216792e+003 5.415248e+002 1.886837e+003
         vertex 2.216792e+003 5.409702e+002 1.886282e+003
      endloop
   endfacet
   facet normal -7.083035e-001 -5.661975e-001 4.215764e-001
      outer loop
         vertex 2.217292e+003 5.405871e+002 1.886604e+003
         vertex 2.216792e+003 5.409702e+002 1.886282e+003
         vertex 2.217292e+003 5.400872e+002 1.885890e+003
      endloop
   endfacet
   facet normal -7.083035e-001 -5.898032e-001 3.878641e-001
      outer loop
         vertex 2.217292e+003 5.400872e+002 1.885890e+003
         vertex 2.216792e+003 5.409702e+002 1.886282e+003
         vertex 2.216792e+003 5.405202e+002 1.885640e+003
      endloop
   endfacet
   facet normal -7.083034e-001 -6.308017e-001 3.168525e-001
      outer loop
         vertex 2.217292e+003 5.400872e+002 1.885890e+003
         vertex 2.216792e+003 5.405202e+002 1.885640e+003
         vertex 2.217292e+003 5.397189e+002 1.885100e+003
      endloop
   endfacet
   facet normal -7.083035e-001 -6.481946e-001 2.795533e-001
      outer loop
         vertex 2.217292e+003 5.397189e+002 1.885100e+003
         vertex 2.216792e+003 5.405202e+002 1.885640e+003
         vertex 2.216792e+003 5.401887e+002 1.884929e+003
      endloop
   endfacet
   facet normal -7.083035e-001 -6.762393e-001 2.025012e-001
      outer loop
         vertex 2.217292e+003 5.397189e+002 1.885100e+003
         vertex 2.216792e+003 5.401887e+002 1.884929e+003
         vertex 2.217292e+003 5.394933e+002 1.884258e+003
      endloop
   endfacet
   facet normal -7.083034e-001 -6.868910e-001 1.627484e-001
      outer loop
         vertex 2.217292e+003 5.394933e+002 1.884258e+003
         vertex 2.216792e+003 5.401887e+002 1.884929e+003
         vertex 2.216792e+003 5.399857e+002 1.884171e+003
      endloop
   endfacet
   facet normal -7.083034e-001 -7.011296e-001 8.199707e-002
      outer loop
         vertex 2.217292e+003 5.394933e+002 1.884258e+003
         vertex 2.216792e+003 5.399857e+002 1.884171e+003
         vertex 2.217292e+003 5.394173e+002 1.883390e+003
      endloop
   endfacet
   facet normal -7.083035e-001 -7.047165e-001 4.099854e-002
      outer loop
         vertex 2.217292e+003 5.394173e+002 1.883390e+003
         vertex 2.216792e+003 5.399857e+002 1.884171e+003
         vertex 2.216792e+003 5.399174e+002 1.883390e+003
      endloop
   endfacet
   facet normal -7.083035e-001 -7.047165e-001 -4.099854e-002
      outer loop
         vertex 2.217292e+003 5.394173e+002 1.883390e+003
         vertex 2.216792e+003 5.399174e+002 1.883390e+003
         vertex 2.217292e+003 5.394933e+002 1.882522e+003
      endloop
   endfacet
   facet normal -7.083034e-001 -7.011296e-001 -8.199707e-002
      outer loop
         vertex 2.217292e+003 5.394933e+002 1.882522e+003
         vertex 2.216792e+003 5.399174e+002 1.883390e+003
         vertex 2.216792e+003 5.399857e+002 1.882609e+003
      endloop
   endfacet
   facet normal -7.083034e-001 -6.868910e-001 -1.627484e-001
      outer loop
         vertex 2.217292e+003 5.394933e+002 1.882522e+003
         vertex 2.216792e+003 5.399857e+002 1.882609e+003
         vertex 2.217292e+003 5.397189e+002 1.881680e+003
      endloop
   endfacet
   facet normal -7.083035e-001 -6.762393e-001 -2.025012e-001
      outer loop
         vertex 2.217292e+003 5.397189e+002 1.881680e+003
         vertex 2.216792e+003 5.399857e+002 1.882609e+003
         vertex 2.216792e+003 5.401887e+002 1.881851e+003
      endloop
   endfacet
   facet normal -7.083035e-001 -6.481946e-001 -2.795533e-001
      outer loop
         vertex 2.217292e+003 5.397189e+002 1.881680e+003
         vertex 2.216792e+003 5.401887e+002 1.881851e+003
         vertex 2.217292e+003 5.400872e+002 1.880890e+003
      endloop
   endfacet
   facet normal -7.083034e-001 -6.308017e-001 -3.168525e-001
      outer loop
         vertex 2.217292e+003 5.400872e+002 1.880890e+003
         vertex 2.216792e+003 5.401887e+002 1.881851e+003
         vertex 2.216792e+003 5.405202e+002 1.881140e+003
      endloop
   endfacet
   facet normal -7.083035e-001 -5.898032e-001 -3.878641e-001
      outer loop
         vertex 2.217292e+003 5.400872e+002 1.880890e+003
         vertex 2.216792e+003 5.405202e+002 1.881140e+003
         vertex 2.217292e+003 5.405871e+002 1.880176e+003
      endloop
   endfacet
   facet normal -7.083035e-001 -5.661975e-001 -4.215764e-001
      outer loop
         vertex 2.217292e+003 5.405871e+002 1.880176e+003
         vertex 2.216792e+003 5.405202e+002 1.881140e+003
         vertex 2.216792e+003 5.409702e+002 1.880497e+003
      endloop
   endfacet
   facet normal -7.083035e-001 -5.134908e-001 -4.843898e-001
      outer loop
         vertex 2.217292e+003 5.405871e+002 1.880176e+003
         vertex 2.216792e+003 5.409702e+002 1.880497e+003
         vertex 2.217292e+003 5.412034e+002 1.879560e+003
      endloop
   endfacet
   facet normal -7.083035e-001 -4.843898e-001 -5.134908e-001
      outer loop
         vertex 2.217292e+003 5.412034e+002 1.879560e+003
         vertex 2.216792e+003 5.409702e+002 1.880497e+003
         vertex 2.216792e+003 5.415248e+002 1.879943e+003
      endloop
   endfacet
   facet normal -7.083035e-001 -4.215764e-001 -5.661975e-001
      outer loop
         vertex 2.217292e+003 5.412034e+002 1.879560e+003
         vertex 2.216792e+003 5.415248e+002 1.879943e+003
         vertex 2.217292e+003 5.419173e+002 1.879060e+003
      endloop
   endfacet
   facet normal -7.083035e-001 -3.878641e-001 -5.898032e-001
      outer loop
         vertex 2.217292e+003 5.419173e+002 1.879060e+003
         vertex 2.216792e+003 5.415248e+002 1.879943e+003
         vertex 2.216792e+003 5.421673e+002 1.879493e+003
      endloop
   endfacet
   facet normal -7.083034e-001 -3.168525e-001 -6.308017e-001
      outer loop
         vertex 2.217292e+003 5.419173e+002 1.879060e+003
         vertex 2.216792e+003 5.421673e+002 1.879493e+003
         vertex 2.217292e+003 5.427072e+002 1.878691e+003
      endloop
   endfacet
   facet normal -7.083035e-001 -2.795533e-001 -6.481946e-001
      outer loop
         vertex 2.217292e+003 5.427072e+002 1.878691e+003
         vertex 2.216792e+003 5.421673e+002 1.879493e+003
         vertex 2.216792e+003 5.428783e+002 1.879161e+003
      endloop
   endfacet
   facet normal -7.083035e-001 -2.025012e-001 -6.762393e-001
      outer loop
         vertex 2.217292e+003 5.427072e+002 1.878691e+003
         vertex 2.216792e+003 5.428783e+002 1.879161e+003
         vertex 2.217292e+003 5.435491e+002 1.878466e+003
      endloop
   endfacet
   facet normal -7.083034e-001 -1.627484e-001 -6.868910e-001
      outer loop
         vertex 2.217292e+003 5.435491e+002 1.878466e+003
         vertex 2.216792e+003 5.428783e+002 1.879161e+003
         vertex 2.216792e+003 5.436359e+002 1.878958e+003
      endloop
   endfacet
   facet normal -7.083034e-001 -8.199707e-002 -7.011296e-001
      outer loop
         vertex 2.217292e+003 5.435491e+002 1.878466e+003
         vertex 2.216792e+003 5.436359e+002 1.878958e+003
         vertex 2.217292e+003 5.444173e+002 1.878390e+003
      endloop
   endfacet
   facet normal -7.083035e-001 -4.099854e-002 -7.047165e-001
      outer loop
         vertex 2.217292e+003 5.444173e+002 1.878390e+003
         vertex 2.216792e+003 5.436359e+002 1.878958e+003
         vertex 2.216792e+003 5.444173e+002 1.878890e+003
      endloop
   endfacet
   facet normal -7.083035e-001 4.099854e-002 -7.047165e-001
      outer loop
         vertex 2.217292e+003 5.444173e+002 1.878390e+003
         vertex 2.216792e+003 5.444173e+002 1.878890e+003
         vertex 2.217292e+003 5.452856e+002 1.878466e+003
      endloop
   endfacet
   facet normal -7.083034e-001 8.199707e-002 -7.011296e-001
      outer loop
         vertex 2.217292e+003 5.452856e+002 1.878466e+003
         vertex 2.216792e+003 5.444173e+002 1.878890e+003
         vertex 2.216792e+003 5.451987e+002 1.878958e+003
      endloop
   endfacet
   facet normal -7.083034e-001 1.627484e-001 -6.868910e-001
      outer loop
         vertex 2.217292e+003 5.452856e+002 1.878466e+003
         vertex 2.216792e+003 5.451987e+002 1.878958e+003
         vertex 2.217292e+003 5.461274e+002 1.878691e+003
      endloop
   endfacet
   facet normal -7.083035e-001 2.025012e-001 -6.762393e-001
      outer loop
         vertex 2.217292e+003 5.461274e+002 1.878691e+003
         vertex 2.216792e+003 5.451987e+002 1.878958e+003
         vertex 2.216792e+003 5.459564e+002 1.879161e+003
      endloop
   endfacet
   facet normal -7.083035e-001 2.795533e-001 -6.481946e-001
      outer loop
         vertex 2.217292e+003 5.461274e+002 1.878691e+003
         vertex 2.216792e+003 5.459564e+002 1.879161e+003
         vertex 2.217292e+003 5.469173e+002 1.879060e+003
      endloop
   endfacet
   facet normal -7.083034e-001 3.168525e-001 -6.308017e-001
      outer loop
         vertex 2.217292e+003 5.469173e+002 1.879060e+003
         vertex 2.216792e+003 5.459564e+002 1.879161e+003
         vertex 2.216792e+003 5.466674e+002 1.879493e+003
      endloop
   endfacet
   facet normal -7.083035e-001 3.878641e-001 -5.898032e-001
      outer loop
         vertex 2.217292e+003 5.469173e+002 1.879060e+003
         vertex 2.216792e+003 5.466674e+002 1.879493e+003
         vertex 2.217292e+003 5.476313e+002 1.879560e+003
      endloop
   endfacet
   facet normal -7.083035e-001 4.215764e-001 -5.661975e-001
      outer loop
         vertex 2.217292e+003 5.476313e+002 1.879560e+003
         vertex 2.216792e+003 5.466674e+002 1.879493e+003
         vertex 2.216792e+003 5.473099e+002 1.879943e+003
      endloop
   endfacet
   facet normal -7.083035e-001 4.843898e-001 -5.134908e-001
      outer loop
         vertex 2.217292e+003 5.476313e+002 1.879560e+003
         vertex 2.216792e+003 5.473099e+002 1.879943e+003
         vertex 2.217292e+003 5.482476e+002 1.880176e+003
      endloop
   endfacet
   facet normal -7.083035e-001 5.134908e-001 -4.843898e-001
      outer loop
         vertex 2.217292e+003 5.482476e+002 1.880176e+003
         vertex 2.216792e+003 5.473099e+002 1.879943e+003
         vertex 2.216792e+003 5.478646e+002 1.880497e+003
      endloop
   endfacet
   facet normal -7.083035e-001 5.661975e-001 -4.215764e-001
      outer loop
         vertex 2.217292e+003 5.482476e+002 1.880176e+003
         vertex 2.216792e+003 5.478646e+002 1.880497e+003
         vertex 2.217292e+003 5.487475e+002 1.880890e+003
      endloop
   endfacet
   facet normal -7.083035e-001 5.898032e-001 -3.878641e-001
      outer loop
         vertex 2.217292e+003 5.487475e+002 1.880890e+003
         vertex 2.216792e+003 5.478646e+002 1.880497e+003
         vertex 2.216792e+003 5.483145e+002 1.881140e+003
      endloop
   endfacet
   facet normal -7.083034e-001 6.308017e-001 -3.168525e-001
      outer loop
         vertex 2.217292e+003 5.487475e+002 1.880890e+003
         vertex 2.216792e+003 5.483145e+002 1.881140e+003
         vertex 2.217292e+003 5.491158e+002 1.881680e+003
      endloop
   endfacet
   facet normal -7.083035e-001 6.481946e-001 -2.795533e-001
      outer loop
         vertex 2.217292e+003 5.491158e+002 1.881680e+003
         vertex 2.216792e+003 5.483145e+002 1.881140e+003
         vertex 2.216792e+003 5.486460e+002 1.881851e+003
      endloop
   endfacet
   facet normal -7.083035e-001 6.762393e-001 -2.025012e-001
      outer loop
         vertex 2.217292e+003 5.491158e+002 1.881680e+003
         vertex 2.216792e+003 5.486460e+002 1.881851e+003
         vertex 2.217292e+003 5.493414e+002 1.882522e+003
      endloop
   endfacet
   facet normal -7.083034e-001 6.868910e-001 -1.627484e-001
      outer loop
         vertex 2.217292e+003 5.493414e+002 1.882522e+003
         vertex 2.216792e+003 5.486460e+002 1.881851e+003
         vertex 2.216792e+003 5.488490e+002 1.882609e+003
      endloop
   endfacet
   facet normal -7.083034e-001 7.011296e-001 -8.199707e-002
      outer loop
         vertex 2.217292e+003 5.493414e+002 1.882522e+003
         vertex 2.216792e+003 5.488490e+002 1.882609e+003
         vertex 2.217292e+003 5.494173e+002 1.883390e+003
      endloop
   endfacet
   facet normal -7.083035e-001 7.047165e-001 -4.099854e-002
      outer loop
         vertex 2.217292e+003 5.494173e+002 1.883390e+003
         vertex 2.216792e+003 5.488490e+002 1.882609e+003
         vertex 2.216792e+003 5.489174e+002 1.883390e+003
      endloop
   endfacet
   facet normal -7.083035e-001 7.047165e-001 4.099854e-002
      outer loop
         vertex 2.217292e+003 5.494173e+002 1.883390e+003
         vertex 2.216792e+003 5.489174e+002 1.883390e+003
         vertex 2.217292e+003 5.493414e+002 1.884258e+003
      endloop
   endfacet
   facet normal -7.083034e-001 7.011296e-001 8.199707e-002
      outer loop
         vertex 2.217292e+003 5.493414e+002 1.884258e+003
         vertex 2.216792e+003 5.489174e+002 1.883390e+003
         vertex 2.216792e+003 5.488490e+002 1.884171e+003
      endloop
   endfacet
   facet normal -1.000000e+000 7.285839e-017 -2.012279e-016
      outer loop
         vertex 2.220792e+003 5.400872e+002 1.880890e+003
         vertex 2.220792e+003 5.487475e+002 1.880890e+003
         vertex 2.220792e+003 5.405871e+002 1.880176e+003
      endloop
   endfacet
   facet normal -1.000000e+000 7.285839e-017 -2.012279e-016
      outer loop
         vertex 2.220792e+003 5.405871e+002 1.880176e+003
         vertex 2.220792e+003 5.487475e+002 1.880890e+003
         vertex 2.220792e+003 5.482476e+002 1.880176e+003
      endloop
   endfacet
   facet normal -1.000000e+000 7.285839e-017 -2.012279e-016
      outer loop
         vertex 2.220792e+003 5.405871e+002 1.880176e+003
         vertex 2.220792e+003 5.482476e+002 1.880176e+003
         vertex 2.220792e+003 5.412034e+002 1.879560e+003
      endloop
   endfacet
   facet normal -1.000000e+000 7.285839e-017 -2.012279e-016
      outer loop
         vertex 2.220792e+003 5.412034e+002 1.879560e+003
         vertex 2.220792e+003 5.482476e+002 1.880176e+003
         vertex 2.220792e+003 5.476313e+002 1.879560e+003
      endloop
   endfacet
   facet normal -1.000000e+000 7.285839e-017 -2.012279e-016
      outer loop
         vertex 2.220792e+003 5.412034e+002 1.879560e+003
         vertex 2.220792e+003 5.476313e+002 1.879560e+003
         vertex 2.220792e+003 5.419173e+002 1.879060e+003
      endloop
   endfacet
   facet normal -1.000000e+000 7.285839e-017 -2.012279e-016
      outer loop
         vertex 2.220792e+003 5.419173e+002 1.879060e+003
         vertex 2.220792e+003 5.476313e+002 1.879560e+003
         vertex 2.220792e+003 5.469173e+002 1.879060e+003
      endloop
   endfacet
   facet normal -1.000000e+000 7.285839e-017 -2.012279e-016
      outer loop
         vertex 2.220792e+003 5.419173e+002 1.879060e+003
         vertex 2.220792e+003 5.469173e+002 1.879060e+003
         vertex 2.220792e+003 5.427072e+002 1.878691e+003
      endloop
   endfacet
   facet normal -1.000000e+000 7.285839e-017 -2.012279e-016
      outer loop
         vertex 2.220792e+003 5.427072e+002 1.878691e+003
         vertex 2.220792e+003 5.469173e+002 1.879060e+003
         vertex 2.220792e+003 5.461274e+002 1.878691e+003
      endloop
   endfacet
   facet normal -1.000000e+000 7.285839e-017 -2.012279e-016
      outer loop
         vertex 2.220792e+003 5.427072e+002 1.878691e+003
         vertex 2.220792e+003 5.461274e+002 1.878691e+003
         vertex 2.220792e+003 5.435491e+002 1.878466e+003
      endloop
   endfacet
   facet normal -1.000000e+000 7.285839e-017 -2.012279e-016
      outer loop
         vertex 2.220792e+003 5.435491e+002 1.878466e+003
         vertex 2.220792e+003 5.461274e+002 1.878691e+003
         vertex 2.220792e+003 5.452856e+002 1.878466e+003
      endloop
   endfacet
   facet normal -1.000000e+000 7.285839e-017 -2.012279e-016
      outer loop
         vertex 2.220792e+003 5.435491e+002 1.878466e+003
         vertex 2.220792e+003 5.452856e+002 1.878466e+003
         vertex 2.220792e+003 5.444173e+002 1.878390e+003
      endloop
   endfacet
   facet normal 1.000000e+000 -7.285839e-017 2.012279e-016
      outer loop
         vertex 2.217792e+003 5.487475e+002 1.880890e+003
         vertex 2.217792e+003 5.400872e+002 1.880890e+003
         vertex 2.217792e+003 5.405871e+002 1.880176e+003
      endloop
   endfacet
   facet normal 1.000000e+000 -7.285839e-017 2.012279e-016
      outer loop
         vertex 2.217792e+003 5.482476e+002 1.880176e+003
         vertex 2.217792e+003 5.487475e+002 1.880890e+003
         vertex 2.217792e+003 5.476313e+002 1.879560e+003
      endloop
   endfacet
   facet normal 1.000000e+000 -7.285839e-017 2.012279e-016
      outer loop
         vertex 2.217792e+003 5.476313e+002 1.879560e+003
         vertex 2.217792e+003 5.487475e+002 1.880890e+003
         vertex 2.217792e+003 5.405871e+002 1.880176e+003
      endloop
   endfacet
   facet normal 1.000000e+000 -7.285839e-017 2.012279e-016
      outer loop
         vertex 2.217792e+003 5.476313e+002 1.879560e+003
         vertex 2.217792e+003 5.405871e+002 1.880176e+003
         vertex 2.217792e+003 5.469173e+002 1.879060e+003
      endloop
   endfacet
   facet normal 1.000000e+000 -7.285839e-017 2.012279e-016
      outer loop
         vertex 2.217792e+003 5.412034e+002 1.879560e+003
         vertex 2.217792e+003 5.419173e+002 1.879060e+003
         vertex 2.217792e+003 5.405871e+002 1.880176e+003
      endloop
   endfacet
   facet normal 1.000000e+000 -7.285839e-017 2.012279e-016
      outer loop
         vertex 2.217792e+003 5.405871e+002 1.880176e+003
         vertex 2.217792e+003 5.419173e+002 1.879060e+003
         vertex 2.217792e+003 5.427072e+002 1.878691e+003
      endloop
   endfacet
   facet normal 1.000000e+000 -7.285839e-017 2.012279e-016
      outer loop
         vertex 2.217792e+003 5.461274e+002 1.878691e+003
         vertex 2.217792e+003 5.469173e+002 1.879060e+003
         vertex 2.217792e+003 5.452856e+002 1.878466e+003
      endloop
   endfacet
   facet normal 1.000000e+000 -7.285839e-017 2.012279e-016
      outer loop
         vertex 2.217792e+003 5.452856e+002 1.878466e+003
         vertex 2.217792e+003 5.469173e+002 1.879060e+003
         vertex 2.217792e+003 5.405871e+002 1.880176e+003
      endloop
   endfacet
   facet normal 1.000000e+000 -7.285839e-017 2.012279e-016
      outer loop
         vertex 2.217792e+003 5.452856e+002 1.878466e+003
         vertex 2.217792e+003 5.405871e+002 1.880176e+003
         vertex 2.217792e+003 5.444173e+002 1.878390e+003
      endloop
   endfacet
   facet normal 1.000000e+000 -7.285839e-017 2.012279e-016
      outer loop
         vertex 2.217792e+003 5.444173e+002 1.878390e+003
         vertex 2.217792e+003 5.405871e+002 1.880176e+003
         vertex 2.217792e+003 5.427072e+002 1.878691e+003
      endloop
   endfacet
   facet normal 1.000000e+000 -7.285839e-017 2.012279e-016
      outer loop
         vertex 2.217792e+003 5.444173e+002 1.878390e+003
         vertex 2.217792e+003 5.427072e+002 1.878691e+003
         vertex 2.217792e+003 5.435491e+002 1.878466e+003
      endloop
   endfacet
   facet normal 2.278945e-016 -9.884223e-016 -1.000000e+000
      outer loop
         vertex 2.217792e+003 5.400872e+002 1.880890e+003
         vertex 2.217792e+003 5.487475e+002 1.880890e+003
         vertex 2.220792e+003 5.400872e+002 1.880890e+003
      endloop
   endfacet
   facet normal 2.278945e-016 -9.884223e-016 -1.000000e+000
      outer loop
         vertex 2.220792e+003 5.400872e+002 1.880890e+003
         vertex 2.217792e+003 5.487475e+002 1.880890e+003
         vertex 2.220792e+003 5.487475e+002 1.880890e+003
      endloop
   endfacet
endsolid