solid 09.025.00.00.000 - 09.025.00.08.000-2 09.025.00.08.004-3
   facet normal -1.025625e-016 8.936031e-001 -4.488580e-001
      outer loop
         vertex 2.050292e+003 1.347116e+003 1.881680e+003
         vertex 2.049792e+003 1.346748e+003 1.880890e+003
         vertex 2.046792e+003 1.346748e+003 1.880890e+003
      endloop
   endfacet
   facet normal -1.025625e-016 8.936031e-001 -4.488580e-001
      outer loop
         vertex 2.050292e+003 1.347116e+003 1.881680e+003
         vertex 2.050292e+003 1.346748e+003 1.880890e+003
         vertex 2.049792e+003 1.346748e+003 1.880890e+003
      endloop
   endfacet
   facet normal -1.073004e-016 8.355240e-001 -5.494540e-001
      outer loop
         vertex 2.049792e+003 1.346748e+003 1.880890e+003
         vertex 2.050292e+003 1.346748e+003 1.880890e+003
         vertex 2.050292e+003 1.346248e+003 1.880176e+003
      endloop
   endfacet
   facet normal -1.091352e-016 8.020839e-001 -5.972114e-001
      outer loop
         vertex 2.049792e+003 1.346748e+003 1.880890e+003
         vertex 2.050292e+003 1.346248e+003 1.880176e+003
         vertex 2.049792e+003 1.346248e+003 1.880176e+003
      endloop
   endfacet
   facet normal -1.116809e-016 7.274188e-001 -6.861938e-001
      outer loop
         vertex 2.049792e+003 1.346248e+003 1.880176e+003
         vertex 2.050292e+003 1.346248e+003 1.880176e+003
         vertex 2.050292e+003 1.345631e+003 1.879560e+003
      endloop
   endfacet
   facet normal -1.123919e-016 6.861938e-001 -7.274188e-001
      outer loop
         vertex 2.049792e+003 1.346248e+003 1.880176e+003
         vertex 2.050292e+003 1.345631e+003 1.879560e+003
         vertex 2.049792e+003 1.345631e+003 1.879560e+003
      endloop
   endfacet
   facet normal -1.126682e-016 5.972114e-001 -8.020839e-001
      outer loop
         vertex 2.049792e+003 1.345631e+003 1.879560e+003
         vertex 2.050292e+003 1.345631e+003 1.879560e+003
         vertex 2.050292e+003 1.344917e+003 1.879060e+003
      endloop
   endfacet
   facet normal -1.122336e-016 5.494540e-001 -8.355240e-001
      outer loop
         vertex 2.049792e+003 1.345631e+003 1.879560e+003
         vertex 2.050292e+003 1.344917e+003 1.879060e+003
         vertex 2.049792e+003 1.344917e+003 1.879060e+003
      endloop
   endfacet
   facet normal -1.102320e-016 4.488580e-001 -8.936031e-001
      outer loop
         vertex 2.049792e+003 1.344917e+003 1.879060e+003
         vertex 2.050292e+003 1.344917e+003 1.879060e+003
         vertex 2.050292e+003 1.344127e+003 1.878691e+003
      endloop
   endfacet
   facet normal -1.086651e-016 3.960194e-001 -9.182422e-001
      outer loop
         vertex 2.049792e+003 1.344917e+003 1.879060e+003
         vertex 2.050292e+003 1.344127e+003 1.878691e+003
         vertex 2.049792e+003 1.344127e+003 1.878691e+003
      endloop
   endfacet
   facet normal -1.044465e-016 2.868663e-001 -9.579706e-001
      outer loop
         vertex 2.049792e+003 1.344127e+003 1.878691e+003
         vertex 2.050292e+003 1.344127e+003 1.878691e+003
         vertex 2.050292e+003 1.343286e+003 1.878466e+003
      endloop
   endfacet
   facet normal -1.017949e-016 2.305518e-001 -9.730601e-001
      outer loop
         vertex 2.049792e+003 1.344127e+003 1.878691e+003
         vertex 2.050292e+003 1.343286e+003 1.878466e+003
         vertex 2.049792e+003 1.343286e+003 1.878466e+003
      endloop
   endfacet
   facet normal -9.548748e-017 1.161583e-001 -9.932307e-001
      outer loop
         vertex 2.049792e+003 1.343286e+003 1.878466e+003
         vertex 2.050292e+003 1.343286e+003 1.878466e+003
         vertex 2.050292e+003 1.342417e+003 1.878390e+003
      endloop
   endfacet
   facet normal -9.183171e-017 5.807914e-002 -9.983120e-001
      outer loop
         vertex 2.049792e+003 1.343286e+003 1.878466e+003
         vertex 2.050292e+003 1.342417e+003 1.878390e+003
         vertex 2.049792e+003 1.342417e+003 1.878390e+003
      endloop
   endfacet
   facet normal -8.362709e-017 -5.807914e-002 -9.983120e-001
      outer loop
         vertex 2.049792e+003 1.342417e+003 1.878390e+003
         vertex 2.050292e+003 1.342417e+003 1.878390e+003
         vertex 2.050292e+003 1.341549e+003 1.878466e+003
      endloop
   endfacet
   facet normal -7.907826e-017 -1.161583e-001 -9.932307e-001
      outer loop
         vertex 2.049792e+003 1.342417e+003 1.878390e+003
         vertex 2.050292e+003 1.341549e+003 1.878466e+003
         vertex 2.049792e+003 1.341549e+003 1.878466e+003
      endloop
   endfacet
   facet normal -6.922575e-017 -2.305518e-001 -9.730601e-001
      outer loop
         vertex 2.049792e+003 1.341549e+003 1.878466e+003
         vertex 2.050292e+003 1.341549e+003 1.878466e+003
         vertex 2.050292e+003 1.340707e+003 1.878691e+003
      endloop
   endfacet
   facet normal -6.392206e-017 -2.868663e-001 -9.579706e-001
      outer loop
         vertex 2.049792e+003 1.341549e+003 1.878466e+003
         vertex 2.050292e+003 1.340707e+003 1.878691e+003
         vertex 2.049792e+003 1.340707e+003 1.878691e+003
      endloop
   endfacet
   facet normal -5.272100e-017 -3.960194e-001 -9.182422e-001
      outer loop
         vertex 2.049792e+003 1.340707e+003 1.878691e+003
         vertex 2.050292e+003 1.340707e+003 1.878691e+003
         vertex 2.050292e+003 1.339917e+003 1.879060e+003
      endloop
   endfacet
   facet normal -4.682362e-017 -4.488580e-001 -8.936031e-001
      outer loop
         vertex 2.049792e+003 1.340707e+003 1.878691e+003
         vertex 2.050292e+003 1.339917e+003 1.879060e+003
         vertex 2.049792e+003 1.339917e+003 1.879060e+003
      endloop
   endfacet
   facet normal -3.461436e-017 -5.494540e-001 -8.355240e-001
      outer loop
         vertex 2.049792e+003 1.339917e+003 1.879060e+003
         vertex 2.050292e+003 1.339917e+003 1.879060e+003
         vertex 2.050292e+003 1.339203e+003 1.879560e+003
      endloop
   endfacet
   facet normal -2.830247e-017 -5.972114e-001 -8.020839e-001
      outer loop
         vertex 2.049792e+003 1.339917e+003 1.879060e+003
         vertex 2.050292e+003 1.339203e+003 1.879560e+003
         vertex 2.049792e+003 1.339203e+003 1.879560e+003
      endloop
   endfacet
   facet normal -1.545598e-017 -6.861938e-001 -7.274188e-001
      outer loop
         vertex 2.049792e+003 1.339203e+003 1.879560e+003
         vertex 2.050292e+003 1.339203e+003 1.879560e+003
         vertex 2.050292e+003 1.338587e+003 1.880176e+003
      endloop
   endfacet
   facet normal -8.921366e-018 -7.274188e-001 -6.861938e-001
      outer loop
         vertex 2.049792e+003 1.339203e+003 1.879560e+003
         vertex 2.050292e+003 1.338587e+003 1.880176e+003
         vertex 2.049792e+003 1.338587e+003 1.880176e+003
      endloop
   endfacet
   facet normal 4.172026e-018 -8.020839e-001 -5.972114e-001
      outer loop
         vertex 2.049792e+003 1.338587e+003 1.880176e+003
         vertex 2.050292e+003 1.338587e+003 1.880176e+003
         vertex 2.050292e+003 1.338087e+003 1.880890e+003
      endloop
   endfacet
   facet normal 1.073081e-017 -8.355240e-001 -5.494540e-001
      outer loop
         vertex 2.049792e+003 1.338587e+003 1.880176e+003
         vertex 2.050292e+003 1.338087e+003 1.880890e+003
         vertex 2.049792e+003 1.338087e+003 1.880890e+003
      endloop
   endfacet
   facet normal 2.367327e-017 -8.936031e-001 -4.488580e-001
      outer loop
         vertex 2.049792e+003 1.338087e+003 1.880890e+003
         vertex 2.050292e+003 1.338087e+003 1.880890e+003
         vertex 2.050292e+003 1.337719e+003 1.881680e+003
      endloop
   endfacet
   facet normal 2.367327e-017 -8.936031e-001 -4.488580e-001
      outer loop
         vertex 2.049792e+003 1.338087e+003 1.880890e+003
         vertex 2.050292e+003 1.337719e+003 1.881680e+003
         vertex 2.046792e+003 1.338087e+003 1.880890e+003
      endloop
   endfacet
   facet normal -6.540994e-017 9.983120e-001 5.807914e-002
      outer loop
         vertex 2.013292e+003 1.347341e+003 1.884258e+003
         vertex 2.050292e+003 1.347417e+003 1.883390e+003
         vertex 2.013292e+003 1.347417e+003 1.883390e+003
      endloop
   endfacet
   facet normal -7.561766e-017 9.983120e-001 -5.807914e-002
      outer loop
         vertex 2.013292e+003 1.347417e+003 1.883390e+003
         vertex 2.050292e+003 1.347417e+003 1.883390e+003
         vertex 2.050292e+003 1.347341e+003 1.882522e+003
      endloop
   endfacet
   facet normal -8.036262e-017 9.932307e-001 -1.161583e-001
      outer loop
         vertex 2.013292e+003 1.347417e+003 1.883390e+003
         vertex 2.050292e+003 1.347341e+003 1.882522e+003
         vertex 2.013292e+003 1.347341e+003 1.882522e+003
      endloop
   endfacet
   facet normal -8.899055e-017 9.730601e-001 -2.305518e-001
      outer loop
         vertex 2.013292e+003 1.347341e+003 1.882522e+003
         vertex 2.050292e+003 1.347341e+003 1.882522e+003
         vertex 2.050292e+003 1.347116e+003 1.881680e+003
      endloop
   endfacet
   facet normal -9.287352e-017 9.579706e-001 -2.868663e-001
      outer loop
         vertex 2.013292e+003 1.347341e+003 1.882522e+003
         vertex 2.050292e+003 1.347116e+003 1.881680e+003
         vertex 2.013292e+003 1.347116e+003 1.881680e+003
      endloop
   endfacet
   facet normal -9.965951e-017 9.182422e-001 -3.960194e-001
      outer loop
         vertex 2.013292e+003 1.347116e+003 1.881680e+003
         vertex 2.050292e+003 1.347116e+003 1.881680e+003
         vertex 2.046792e+003 1.346748e+003 1.880890e+003
      endloop
   endfacet
   facet normal -1.025625e-016 8.936031e-001 -4.488580e-001
      outer loop
         vertex 2.013292e+003 1.347116e+003 1.881680e+003
         vertex 2.046792e+003 1.346748e+003 1.880890e+003
         vertex 2.013292e+003 1.346748e+003 1.880890e+003
      endloop
   endfacet
   facet normal -1.073004e-016 8.355240e-001 -5.494540e-001
      outer loop
         vertex 2.013292e+003 1.346748e+003 1.880890e+003
         vertex 2.046792e+003 1.346748e+003 1.880890e+003
         vertex 2.046792e+003 1.346248e+003 1.880176e+003
      endloop
   endfacet
   facet normal -1.091352e-016 8.020839e-001 -5.972114e-001
      outer loop
         vertex 2.013292e+003 1.346748e+003 1.880890e+003
         vertex 2.046792e+003 1.346248e+003 1.880176e+003
         vertex 2.013292e+003 1.346248e+003 1.880176e+003
      endloop
   endfacet
   facet normal -1.116809e-016 7.274188e-001 -6.861938e-001
      outer loop
         vertex 2.013292e+003 1.346248e+003 1.880176e+003
         vertex 2.046792e+003 1.346248e+003 1.880176e+003
         vertex 2.046792e+003 1.345631e+003 1.879560e+003
      endloop
   endfacet
   facet normal -1.123919e-016 6.861938e-001 -7.274188e-001
      outer loop
         vertex 2.013292e+003 1.346248e+003 1.880176e+003
         vertex 2.046792e+003 1.345631e+003 1.879560e+003
         vertex 2.013292e+003 1.345631e+003 1.879560e+003
      endloop
   endfacet
   facet normal -1.126682e-016 5.972114e-001 -8.020839e-001
      outer loop
         vertex 2.013292e+003 1.345631e+003 1.879560e+003
         vertex 2.046792e+003 1.345631e+003 1.879560e+003
         vertex 2.046792e+003 1.344917e+003 1.879060e+003
      endloop
   endfacet
   facet normal -1.122336e-016 5.494540e-001 -8.355240e-001
      outer loop
         vertex 2.013292e+003 1.345631e+003 1.879560e+003
         vertex 2.046792e+003 1.344917e+003 1.879060e+003
         vertex 2.013292e+003 1.344917e+003 1.879060e+003
      endloop
   endfacet
   facet normal -1.102320e-016 4.488580e-001 -8.936031e-001
      outer loop
         vertex 2.013292e+003 1.344917e+003 1.879060e+003
         vertex 2.046792e+003 1.344917e+003 1.879060e+003
         vertex 2.046792e+003 1.344127e+003 1.878691e+003
      endloop
   endfacet
   facet normal -1.086651e-016 3.960194e-001 -9.182422e-001
      outer loop
         vertex 2.013292e+003 1.344917e+003 1.879060e+003
         vertex 2.046792e+003 1.344127e+003 1.878691e+003
         vertex 2.013292e+003 1.344127e+003 1.878691e+003
      endloop
   endfacet
   facet normal -1.044465e-016 2.868663e-001 -9.579706e-001
      outer loop
         vertex 2.013292e+003 1.344127e+003 1.878691e+003
         vertex 2.046792e+003 1.344127e+003 1.878691e+003
         vertex 2.046792e+003 1.343286e+003 1.878466e+003
      endloop
   endfacet
   facet normal -1.017949e-016 2.305518e-001 -9.730601e-001
      outer loop
         vertex 2.013292e+003 1.344127e+003 1.878691e+003
         vertex 2.046792e+003 1.343286e+003 1.878466e+003
         vertex 2.013292e+003 1.343286e+003 1.878466e+003
      endloop
   endfacet
   facet normal -9.548748e-017 1.161583e-001 -9.932307e-001
      outer loop
         vertex 2.013292e+003 1.343286e+003 1.878466e+003
         vertex 2.046792e+003 1.343286e+003 1.878466e+003
         vertex 2.046792e+003 1.342417e+003 1.878390e+003
      endloop
   endfacet
   facet normal -9.183171e-017 5.807914e-002 -9.983120e-001
      outer loop
         vertex 2.013292e+003 1.343286e+003 1.878466e+003
         vertex 2.046792e+003 1.342417e+003 1.878390e+003
         vertex 2.013292e+003 1.342417e+003 1.878390e+003
      endloop
   endfacet
   facet normal -8.362709e-017 -5.807914e-002 -9.983120e-001
      outer loop
         vertex 2.013292e+003 1.342417e+003 1.878390e+003
         vertex 2.046792e+003 1.342417e+003 1.878390e+003
         vertex 2.046792e+003 1.341549e+003 1.878466e+003
      endloop
   endfacet
   facet normal -7.907826e-017 -1.161583e-001 -9.932307e-001
      outer loop
         vertex 2.013292e+003 1.342417e+003 1.878390e+003
         vertex 2.046792e+003 1.341549e+003 1.878466e+003
         vertex 2.013292e+003 1.341549e+003 1.878466e+003
      endloop
   endfacet
   facet normal -6.922575e-017 -2.305518e-001 -9.730601e-001
      outer loop
         vertex 2.013292e+003 1.341549e+003 1.878466e+003
         vertex 2.046792e+003 1.341549e+003 1.878466e+003
         vertex 2.046792e+003 1.340707e+003 1.878691e+003
      endloop
   endfacet
   facet normal -6.392206e-017 -2.868663e-001 -9.579706e-001
      outer loop
         vertex 2.013292e+003 1.341549e+003 1.878466e+003
         vertex 2.046792e+003 1.340707e+003 1.878691e+003
         vertex 2.013292e+003 1.340707e+003 1.878691e+003
      endloop
   endfacet
   facet normal -5.272100e-017 -3.960194e-001 -9.182422e-001
      outer loop
         vertex 2.013292e+003 1.340707e+003 1.878691e+003
         vertex 2.046792e+003 1.340707e+003 1.878691e+003
         vertex 2.046792e+003 1.339917e+003 1.879060e+003
      endloop
   endfacet
   facet normal -4.682362e-017 -4.488580e-001 -8.936031e-001
      outer loop
         vertex 2.013292e+003 1.340707e+003 1.878691e+003
         vertex 2.046792e+003 1.339917e+003 1.879060e+003
         vertex 2.013292e+003 1.339917e+003 1.879060e+003
      endloop
   endfacet
   facet normal -3.461436e-017 -5.494540e-001 -8.355240e-001
      outer loop
         vertex 2.013292e+003 1.339917e+003 1.879060e+003
         vertex 2.046792e+003 1.339917e+003 1.879060e+003
         vertex 2.046792e+003 1.339203e+003 1.879560e+003
      endloop
   endfacet
   facet normal -2.830247e-017 -5.972114e-001 -8.020839e-001
      outer loop
         vertex 2.013292e+003 1.339917e+003 1.879060e+003
         vertex 2.046792e+003 1.339203e+003 1.879560e+003
         vertex 2.013292e+003 1.339203e+003 1.879560e+003
      endloop
   endfacet
   facet normal -1.545598e-017 -6.861938e-001 -7.274188e-001
      outer loop
         vertex 2.013292e+003 1.339203e+003 1.879560e+003
         vertex 2.046792e+003 1.339203e+003 1.879560e+003
         vertex 2.046792e+003 1.338587e+003 1.880176e+003
      endloop
   endfacet
   facet normal -8.921366e-018 -7.274188e-001 -6.861938e-001
      outer loop
         vertex 2.013292e+003 1.339203e+003 1.879560e+003
         vertex 2.046792e+003 1.338587e+003 1.880176e+003
         vertex 2.013292e+003 1.338587e+003 1.880176e+003
      endloop
   endfacet
   facet normal 4.172026e-018 -8.020839e-001 -5.972114e-001
      outer loop
         vertex 2.013292e+003 1.338587e+003 1.880176e+003
         vertex 2.046792e+003 1.338587e+003 1.880176e+003
         vertex 2.046792e+003 1.338087e+003 1.880890e+003
      endloop
   endfacet
   facet normal 1.073081e-017 -8.355240e-001 -5.494540e-001
      outer loop
         vertex 2.013292e+003 1.338587e+003 1.880176e+003
         vertex 2.046792e+003 1.338087e+003 1.880890e+003
         vertex 2.013292e+003 1.338087e+003 1.880890e+003
      endloop
   endfacet
   facet normal 2.367327e-017 -8.936031e-001 -4.488580e-001
      outer loop
         vertex 2.013292e+003 1.338087e+003 1.880890e+003
         vertex 2.046792e+003 1.338087e+003 1.880890e+003
         vertex 2.050292e+003 1.337719e+003 1.881680e+003
      endloop
   endfacet
   facet normal 3.005694e-017 -9.182422e-001 -3.960194e-001
      outer loop
         vertex 2.013292e+003 1.338087e+003 1.880890e+003
         vertex 2.050292e+003 1.337719e+003 1.881680e+003
         vertex 2.013292e+003 1.337719e+003 1.881680e+003
      endloop
   endfacet
   facet normal 4.245521e-017 -9.579706e-001 -2.868663e-001
      outer loop
         vertex 2.013292e+003 1.337719e+003 1.881680e+003
         vertex 2.050292e+003 1.337719e+003 1.881680e+003
         vertex 2.050292e+003 1.337493e+003 1.882522e+003
      endloop
   endfacet
   facet normal 4.846980e-017 -9.730601e-001 -2.305518e-001
      outer loop
         vertex 2.013292e+003 1.337719e+003 1.881680e+003
         vertex 2.050292e+003 1.337493e+003 1.882522e+003
         vertex 2.013292e+003 1.337493e+003 1.882522e+003
      endloop
   endfacet
   facet normal 5.994716e-017 -9.932307e-001 -1.161583e-001
      outer loop
         vertex 2.013292e+003 1.337493e+003 1.882522e+003
         vertex 2.050292e+003 1.337493e+003 1.882522e+003
         vertex 2.050292e+003 1.337417e+003 1.883390e+003
      endloop
   endfacet
   facet normal 6.540994e-017 -9.983120e-001 -5.807914e-002
      outer loop
         vertex 2.013292e+003 1.337493e+003 1.882522e+003
         vertex 2.050292e+003 1.337417e+003 1.883390e+003
         vertex 2.013292e+003 1.337417e+003 1.883390e+003
      endloop
   endfacet
   facet normal 7.561766e-017 -9.983120e-001 5.807914e-002
      outer loop
         vertex 2.013292e+003 1.337417e+003 1.883390e+003
         vertex 2.050292e+003 1.337417e+003 1.883390e+003
         vertex 2.050292e+003 1.337493e+003 1.884258e+003
      endloop
   endfacet
   facet normal 8.036262e-017 -9.932307e-001 1.161583e-001
      outer loop
         vertex 2.013292e+003 1.337417e+003 1.883390e+003
         vertex 2.050292e+003 1.337493e+003 1.884258e+003
         vertex 2.013292e+003 1.337493e+003 1.884258e+003
      endloop
   endfacet
   facet normal 8.899055e-017 -9.730601e-001 2.305518e-001
      outer loop
         vertex 2.013292e+003 1.337493e+003 1.884258e+003
         vertex 2.050292e+003 1.337493e+003 1.884258e+003
         vertex 2.050292e+003 1.337719e+003 1.885100e+003
      endloop
   endfacet
   facet normal 9.287352e-017 -9.579706e-001 2.868663e-001
      outer loop
         vertex 2.013292e+003 1.337493e+003 1.884258e+003
         vertex 2.050292e+003 1.337719e+003 1.885100e+003
         vertex 2.013292e+003 1.337719e+003 1.885100e+003
      endloop
   endfacet
   facet normal 9.965951e-017 -9.182422e-001 3.960194e-001
      outer loop
         vertex 2.013292e+003 1.337719e+003 1.885100e+003
         vertex 2.050292e+003 1.337719e+003 1.885100e+003
         vertex 2.050292e+003 1.338087e+003 1.885890e+003
      endloop
   endfacet
   facet normal 1.025625e-016 -8.936031e-001 4.488580e-001
      outer loop
         vertex 2.013292e+003 1.337719e+003 1.885100e+003
         vertex 2.050292e+003 1.338087e+003 1.885890e+003
         vertex 2.013292e+003 1.338087e+003 1.885890e+003
      endloop
   endfacet
   facet normal 1.073004e-016 -8.355240e-001 5.494540e-001
      outer loop
         vertex 2.013292e+003 1.338087e+003 1.885890e+003
         vertex 2.050292e+003 1.338087e+003 1.885890e+003
         vertex 2.050292e+003 1.338587e+003 1.886604e+003
      endloop
   endfacet
   facet normal 1.091352e-016 -8.020839e-001 5.972114e-001
      outer loop
         vertex 2.013292e+003 1.338087e+003 1.885890e+003
         vertex 2.050292e+003 1.338587e+003 1.886604e+003
         vertex 2.013292e+003 1.338587e+003 1.886604e+003
      endloop
   endfacet
   facet normal 1.116809e-016 -7.274188e-001 6.861938e-001
      outer loop
         vertex 2.013292e+003 1.338587e+003 1.886604e+003
         vertex 2.050292e+003 1.338587e+003 1.886604e+003
         vertex 2.050292e+003 1.339203e+003 1.887220e+003
      endloop
   endfacet
   facet normal 1.123919e-016 -6.861938e-001 7.274188e-001
      outer loop
         vertex 2.013292e+003 1.338587e+003 1.886604e+003
         vertex 2.050292e+003 1.339203e+003 1.887220e+003
         vertex 2.013292e+003 1.339203e+003 1.887220e+003
      endloop
   endfacet
   facet normal 1.126682e-016 -5.972114e-001 8.020839e-001
      outer loop
         vertex 2.013292e+003 1.339203e+003 1.887220e+003
         vertex 2.050292e+003 1.339203e+003 1.887220e+003
         vertex 2.050292e+003 1.339917e+003 1.887720e+003
      endloop
   endfacet
   facet normal 1.122336e-016 -5.494540e-001 8.355240e-001
      outer loop
         vertex 2.013292e+003 1.339203e+003 1.887220e+003
         vertex 2.050292e+003 1.339917e+003 1.887720e+003
         vertex 2.013292e+003 1.339917e+003 1.887720e+003
      endloop
   endfacet
   facet normal 1.102320e-016 -4.488580e-001 8.936031e-001
      outer loop
         vertex 2.013292e+003 1.339917e+003 1.887720e+003
         vertex 2.050292e+003 1.339917e+003 1.887720e+003
         vertex 2.050292e+003 1.340707e+003 1.888088e+003
      endloop
   endfacet
   facet normal 1.086651e-016 -3.960194e-001 9.182422e-001
      outer loop
         vertex 2.013292e+003 1.339917e+003 1.887720e+003
         vertex 2.050292e+003 1.340707e+003 1.888088e+003
         vertex 2.013292e+003 1.340707e+003 1.888088e+003
      endloop
   endfacet
   facet normal 1.044465e-016 -2.868663e-001 9.579706e-001
      outer loop
         vertex 2.013292e+003 1.340707e+003 1.888088e+003
         vertex 2.050292e+003 1.340707e+003 1.888088e+003
         vertex 2.050292e+003 1.341549e+003 1.888314e+003
      endloop
   endfacet
   facet normal 1.017949e-016 -2.305518e-001 9.730601e-001
      outer loop
         vertex 2.013292e+003 1.340707e+003 1.888088e+003
         vertex 2.050292e+003 1.341549e+003 1.888314e+003
         vertex 2.013292e+003 1.341549e+003 1.888314e+003
      endloop
   endfacet
   facet normal 9.548748e-017 -1.161583e-001 9.932307e-001
      outer loop
         vertex 2.013292e+003 1.341549e+003 1.888314e+003
         vertex 2.050292e+003 1.341549e+003 1.888314e+003
         vertex 2.050292e+003 1.342417e+003 1.888390e+003
      endloop
   endfacet
   facet normal 9.183171e-017 -5.807914e-002 9.983120e-001
      outer loop
         vertex 2.013292e+003 1.341549e+003 1.888314e+003
         vertex 2.050292e+003 1.342417e+003 1.888390e+003
         vertex 2.013292e+003 1.342417e+003 1.888390e+003
      endloop
   endfacet
   facet normal 8.362709e-017 5.807914e-002 9.983120e-001
      outer loop
         vertex 2.013292e+003 1.342417e+003 1.888390e+003
         vertex 2.050292e+003 1.342417e+003 1.888390e+003
         vertex 2.050292e+003 1.343286e+003 1.888314e+003
      endloop
   endfacet
   facet normal 7.907826e-017 1.161583e-001 9.932307e-001
      outer loop
         vertex 2.013292e+003 1.342417e+003 1.888390e+003
         vertex 2.050292e+003 1.343286e+003 1.888314e+003
         vertex 2.013292e+003 1.343286e+003 1.888314e+003
      endloop
   endfacet
   facet normal 6.922575e-017 2.305518e-001 9.730601e-001
      outer loop
         vertex 2.013292e+003 1.343286e+003 1.888314e+003
         vertex 2.050292e+003 1.343286e+003 1.888314e+003
         vertex 2.050292e+003 1.344127e+003 1.888088e+003
      endloop
   endfacet
   facet normal 6.392206e-017 2.868663e-001 9.579706e-001
      outer loop
         vertex 2.013292e+003 1.343286e+003 1.888314e+003
         vertex 2.050292e+003 1.344127e+003 1.888088e+003
         vertex 2.013292e+003 1.344127e+003 1.888088e+003
      endloop
   endfacet
   facet normal 5.272100e-017 3.960194e-001 9.182422e-001
      outer loop
         vertex 2.013292e+003 1.344127e+003 1.888088e+003
         vertex 2.050292e+003 1.344127e+003 1.888088e+003
         vertex 2.050292e+003 1.344917e+003 1.887720e+003
      endloop
   endfacet
   facet normal 4.682362e-017 4.488580e-001 8.936031e-001
      outer loop
         vertex 2.013292e+003 1.344127e+003 1.888088e+003
         vertex 2.050292e+003 1.344917e+003 1.887720e+003
         vertex 2.013292e+003 1.344917e+003 1.887720e+003
      endloop
   endfacet
   facet normal 3.461436e-017 5.494540e-001 8.355240e-001
      outer loop
         vertex 2.013292e+003 1.344917e+003 1.887720e+003
         vertex 2.050292e+003 1.344917e+003 1.887720e+003
         vertex 2.050292e+003 1.345631e+003 1.887220e+003
      endloop
   endfacet
   facet normal 2.830247e-017 5.972114e-001 8.020839e-001
      outer loop
         vertex 2.013292e+003 1.344917e+003 1.887720e+003
         vertex 2.050292e+003 1.345631e+003 1.887220e+003
         vertex 2.013292e+003 1.345631e+003 1.887220e+003
      endloop
   endfacet
   facet normal 1.545598e-017 6.861938e-001 7.274188e-001
      outer loop
         vertex 2.013292e+003 1.345631e+003 1.887220e+003
         vertex 2.050292e+003 1.345631e+003 1.887220e+003
         vertex 2.050292e+003 1.346248e+003 1.886604e+003
      endloop
   endfacet
   facet normal 8.921366e-018 7.274188e-001 6.861938e-001
      outer loop
         vertex 2.013292e+003 1.345631e+003 1.887220e+003
         vertex 2.050292e+003 1.346248e+003 1.886604e+003
         vertex 2.013292e+003 1.346248e+003 1.886604e+003
      endloop
   endfacet
   facet normal -4.172026e-018 8.020839e-001 5.972114e-001
      outer loop
         vertex 2.013292e+003 1.346248e+003 1.886604e+003
         vertex 2.050292e+003 1.346248e+003 1.886604e+003
         vertex 2.050292e+003 1.346748e+003 1.885890e+003
      endloop
   endfacet
   facet normal -1.073081e-017 8.355240e-001 5.494540e-001
      outer loop
         vertex 2.013292e+003 1.346248e+003 1.886604e+003
         vertex 2.050292e+003 1.346748e+003 1.885890e+003
         vertex 2.013292e+003 1.346748e+003 1.885890e+003
      endloop
   endfacet
   facet normal -2.367327e-017 8.936031e-001 4.488580e-001
      outer loop
         vertex 2.013292e+003 1.346748e+003 1.885890e+003
         vertex 2.050292e+003 1.346748e+003 1.885890e+003
         vertex 2.050292e+003 1.347116e+003 1.885100e+003
      endloop
   endfacet
   facet normal -3.005694e-017 9.182422e-001 3.960194e-001
      outer loop
         vertex 2.013292e+003 1.346748e+003 1.885890e+003
         vertex 2.050292e+003 1.347116e+003 1.885100e+003
         vertex 2.013292e+003 1.347116e+003 1.885100e+003
      endloop
   endfacet
   facet normal -4.245521e-017 9.579706e-001 2.868663e-001
      outer loop
         vertex 2.013292e+003 1.347116e+003 1.885100e+003
         vertex 2.050292e+003 1.347116e+003 1.885100e+003
         vertex 2.050292e+003 1.347341e+003 1.884258e+003
      endloop
   endfacet
   facet normal -4.846980e-017 9.730601e-001 2.305518e-001
      outer loop
         vertex 2.013292e+003 1.347116e+003 1.885100e+003
         vertex 2.050292e+003 1.347341e+003 1.884258e+003
         vertex 2.013292e+003 1.347341e+003 1.884258e+003
      endloop
   endfacet
   facet normal -5.994716e-017 9.932307e-001 1.161583e-001
      outer loop
         vertex 2.013292e+003 1.347341e+003 1.884258e+003
         vertex 2.050292e+003 1.347341e+003 1.884258e+003
         vertex 2.050292e+003 1.347417e+003 1.883390e+003
      endloop
   endfacet
   facet normal -1.000000e+000 -6.022468e-017 1.145443e-016
      outer loop
         vertex 2.012792e+003 1.345865e+003 1.886282e+003
         vertex 2.012792e+003 1.346314e+003 1.885640e+003
         vertex 2.012792e+003 1.346646e+003 1.884929e+003
      endloop
   endfacet
   facet normal -1.000000e+000 -6.022468e-017 1.145443e-016
      outer loop
         vertex 2.012792e+003 1.338970e+003 1.880497e+003
         vertex 2.012792e+003 1.338520e+003 1.881140e+003
         vertex 2.012792e+003 1.338189e+003 1.881851e+003
      endloop
   endfacet
   facet normal -1.000000e+000 -6.022468e-017 1.145443e-016
      outer loop
         vertex 2.012792e+003 1.346849e+003 1.882609e+003
         vertex 2.012792e+003 1.346646e+003 1.881851e+003
         vertex 2.012792e+003 1.338189e+003 1.881851e+003
      endloop
   endfacet
   facet normal -1.000000e+000 -6.022468e-017 1.145443e-016
      outer loop
         vertex 2.012792e+003 1.346314e+003 1.881140e+003
         vertex 2.012792e+003 1.345865e+003 1.880497e+003
         vertex 2.012792e+003 1.345310e+003 1.879943e+003
      endloop
   endfacet
   facet normal -1.000000e+000 -6.022468e-017 1.145443e-016
      outer loop
         vertex 2.012792e+003 1.346917e+003 1.883390e+003
         vertex 2.012792e+003 1.346849e+003 1.882609e+003
         vertex 2.012792e+003 1.346849e+003 1.884171e+003
      endloop
   endfacet
   facet normal -1.000000e+000 -6.022468e-017 1.145443e-016
      outer loop
         vertex 2.012792e+003 1.346849e+003 1.884171e+003
         vertex 2.012792e+003 1.346849e+003 1.882609e+003
         vertex 2.012792e+003 1.338189e+003 1.881851e+003
      endloop
   endfacet
   facet normal -1.000000e+000 -6.022468e-017 1.145443e-016
      outer loop
         vertex 2.012792e+003 1.346849e+003 1.884171e+003
         vertex 2.012792e+003 1.338189e+003 1.881851e+003
         vertex 2.012792e+003 1.346646e+003 1.884929e+003
      endloop
   endfacet
   facet normal -1.000000e+000 -6.022468e-017 1.145443e-016
      outer loop
         vertex 2.012792e+003 1.340167e+003 1.879493e+003
         vertex 2.012792e+003 1.339525e+003 1.879943e+003
         vertex 2.012792e+003 1.338970e+003 1.880497e+003
      endloop
   endfacet
   facet normal -1.000000e+000 -6.022468e-017 1.145443e-016
      outer loop
         vertex 2.012792e+003 1.338189e+003 1.884929e+003
         vertex 2.012792e+003 1.338520e+003 1.885640e+003
         vertex 2.012792e+003 1.346646e+003 1.884929e+003
      endloop
   endfacet
   facet normal -1.000000e+000 -6.022468e-017 1.145443e-016
      outer loop
         vertex 2.012792e+003 1.346646e+003 1.884929e+003
         vertex 2.012792e+003 1.338520e+003 1.885640e+003
         vertex 2.012792e+003 1.338970e+003 1.886282e+003
      endloop
   endfacet
   facet normal -1.000000e+000 -6.022468e-017 1.145443e-016
      outer loop
         vertex 2.012792e+003 1.337986e+003 1.884171e+003
         vertex 2.012792e+003 1.338189e+003 1.884929e+003
         vertex 2.012792e+003 1.337917e+003 1.883390e+003
      endloop
   endfacet
   facet normal -1.000000e+000 -6.022468e-017 1.145443e-016
      outer loop
         vertex 2.012792e+003 1.337917e+003 1.883390e+003
         vertex 2.012792e+003 1.338189e+003 1.884929e+003
         vertex 2.012792e+003 1.346646e+003 1.884929e+003
      endloop
   endfacet
   facet normal -1.000000e+000 -6.022468e-017 1.145443e-016
      outer loop
         vertex 2.012792e+003 1.337917e+003 1.883390e+003
         vertex 2.012792e+003 1.346646e+003 1.884929e+003
         vertex 2.012792e+003 1.337986e+003 1.882609e+003
      endloop
   endfacet
   facet normal -1.000000e+000 -6.022468e-017 1.145443e-016
      outer loop
         vertex 2.012792e+003 1.337986e+003 1.882609e+003
         vertex 2.012792e+003 1.346646e+003 1.884929e+003
         vertex 2.012792e+003 1.338189e+003 1.881851e+003
      endloop
   endfacet
   facet normal -1.000000e+000 -6.022468e-017 1.145443e-016
      outer loop
         vertex 2.012792e+003 1.344667e+003 1.887287e+003
         vertex 2.012792e+003 1.345310e+003 1.886837e+003
         vertex 2.012792e+003 1.345865e+003 1.886282e+003
      endloop
   endfacet
   facet normal -1.000000e+000 -6.022468e-017 1.145443e-016
      outer loop
         vertex 2.012792e+003 1.345310e+003 1.879943e+003
         vertex 2.012792e+003 1.344667e+003 1.879493e+003
         vertex 2.012792e+003 1.343956e+003 1.879161e+003
      endloop
   endfacet
   facet normal -1.000000e+000 -6.022468e-017 1.145443e-016
      outer loop
         vertex 2.012792e+003 1.346646e+003 1.881851e+003
         vertex 2.012792e+003 1.346314e+003 1.881140e+003
         vertex 2.012792e+003 1.338189e+003 1.881851e+003
      endloop
   endfacet
   facet normal -1.000000e+000 -6.022468e-017 1.145443e-016
      outer loop
         vertex 2.012792e+003 1.338189e+003 1.881851e+003
         vertex 2.012792e+003 1.346314e+003 1.881140e+003
         vertex 2.012792e+003 1.345310e+003 1.879943e+003
      endloop
   endfacet
   facet normal -1.000000e+000 -6.022468e-017 1.145443e-016
      outer loop
         vertex 2.012792e+003 1.338189e+003 1.881851e+003
         vertex 2.012792e+003 1.345310e+003 1.879943e+003
         vertex 2.012792e+003 1.338970e+003 1.880497e+003
      endloop
   endfacet
   facet normal -1.000000e+000 -6.022468e-017 1.145443e-016
      outer loop
         vertex 2.012792e+003 1.338970e+003 1.880497e+003
         vertex 2.012792e+003 1.345310e+003 1.879943e+003
         vertex 2.012792e+003 1.343956e+003 1.879161e+003
      endloop
   endfacet
   facet normal -1.000000e+000 -6.022468e-017 1.145443e-016
      outer loop
         vertex 2.012792e+003 1.338970e+003 1.880497e+003
         vertex 2.012792e+003 1.343956e+003 1.879161e+003
         vertex 2.012792e+003 1.343199e+003 1.878958e+003
      endloop
   endfacet
   facet normal -1.000000e+000 -6.022468e-017 1.145443e-016
      outer loop
         vertex 2.012792e+003 1.338970e+003 1.886282e+003
         vertex 2.012792e+003 1.339525e+003 1.886837e+003
         vertex 2.012792e+003 1.346646e+003 1.884929e+003
      endloop
   endfacet
   facet normal -1.000000e+000 -6.022468e-017 1.145443e-016
      outer loop
         vertex 2.012792e+003 1.346646e+003 1.884929e+003
         vertex 2.012792e+003 1.339525e+003 1.886837e+003
         vertex 2.012792e+003 1.340167e+003 1.887287e+003
      endloop
   endfacet
   facet normal -1.000000e+000 -6.022468e-017 1.145443e-016
      outer loop
         vertex 2.012792e+003 1.346646e+003 1.884929e+003
         vertex 2.012792e+003 1.340167e+003 1.887287e+003
         vertex 2.012792e+003 1.345865e+003 1.886282e+003
      endloop
   endfacet
   facet normal -1.000000e+000 -6.022468e-017 1.145443e-016
      outer loop
         vertex 2.012792e+003 1.345865e+003 1.886282e+003
         vertex 2.012792e+003 1.340167e+003 1.887287e+003
         vertex 2.012792e+003 1.340878e+003 1.887619e+003
      endloop
   endfacet
   facet normal -1.000000e+000 -6.022468e-017 1.145443e-016
      outer loop
         vertex 2.012792e+003 1.345865e+003 1.886282e+003
         vertex 2.012792e+003 1.340878e+003 1.887619e+003
         vertex 2.012792e+003 1.341636e+003 1.887822e+003
      endloop
   endfacet
   facet normal -1.000000e+000 -6.022468e-017 1.145443e-016
      outer loop
         vertex 2.012792e+003 1.340878e+003 1.879161e+003
         vertex 2.012792e+003 1.340167e+003 1.879493e+003
         vertex 2.012792e+003 1.341636e+003 1.878958e+003
      endloop
   endfacet
   facet normal -1.000000e+000 -6.022468e-017 1.145443e-016
      outer loop
         vertex 2.012792e+003 1.341636e+003 1.878958e+003
         vertex 2.012792e+003 1.340167e+003 1.879493e+003
         vertex 2.012792e+003 1.338970e+003 1.880497e+003
      endloop
   endfacet
   facet normal -1.000000e+000 -6.022468e-017 1.145443e-016
      outer loop
         vertex 2.012792e+003 1.341636e+003 1.878958e+003
         vertex 2.012792e+003 1.338970e+003 1.880497e+003
         vertex 2.012792e+003 1.342417e+003 1.878890e+003
      endloop
   endfacet
   facet normal -1.000000e+000 -6.022468e-017 1.145443e-016
      outer loop
         vertex 2.012792e+003 1.342417e+003 1.878890e+003
         vertex 2.012792e+003 1.338970e+003 1.880497e+003
         vertex 2.012792e+003 1.343199e+003 1.878958e+003
      endloop
   endfacet
   facet normal -1.000000e+000 -6.022468e-017 1.145443e-016
      outer loop
         vertex 2.012792e+003 1.343956e+003 1.887619e+003
         vertex 2.012792e+003 1.344667e+003 1.887287e+003
         vertex 2.012792e+003 1.343199e+003 1.887822e+003
      endloop
   endfacet
   facet normal -1.000000e+000 -6.022468e-017 1.145443e-016
      outer loop
         vertex 2.012792e+003 1.343199e+003 1.887822e+003
         vertex 2.012792e+003 1.344667e+003 1.887287e+003
         vertex 2.012792e+003 1.345865e+003 1.886282e+003
      endloop
   endfacet
   facet normal -1.000000e+000 -6.022468e-017 1.145443e-016
      outer loop
         vertex 2.012792e+003 1.343199e+003 1.887822e+003
         vertex 2.012792e+003 1.345865e+003 1.886282e+003
         vertex 2.012792e+003 1.342417e+003 1.887890e+003
      endloop
   endfacet
   facet normal -1.000000e+000 -6.022468e-017 1.145443e-016
      outer loop
         vertex 2.012792e+003 1.342417e+003 1.887890e+003
         vertex 2.012792e+003 1.345865e+003 1.886282e+003
         vertex 2.012792e+003 1.341636e+003 1.887822e+003
      endloop
   endfacet
   facet normal 1.000000e+000 6.022468e-017 -1.145443e-016
      outer loop
         vertex 2.050792e+003 1.338970e+003 1.886282e+003
         vertex 2.050792e+003 1.338520e+003 1.885640e+003
         vertex 2.050792e+003 1.338189e+003 1.884929e+003
      endloop
   endfacet
   facet normal 1.000000e+000 6.022468e-017 -1.145443e-016
      outer loop
         vertex 2.050792e+003 1.345865e+003 1.880497e+003
         vertex 2.050792e+003 1.346314e+003 1.881140e+003
         vertex 2.050792e+003 1.346646e+003 1.881851e+003
      endloop
   endfacet
   facet normal 1.000000e+000 6.022468e-017 -1.145443e-016
      outer loop
         vertex 2.050792e+003 1.337986e+003 1.882609e+003
         vertex 2.050792e+003 1.338189e+003 1.881851e+003
         vertex 2.050792e+003 1.346646e+003 1.881851e+003
      endloop
   endfacet
   facet normal 1.000000e+000 6.022468e-017 -1.145443e-016
      outer loop
         vertex 2.050792e+003 1.338520e+003 1.881140e+003
         vertex 2.050792e+003 1.338970e+003 1.880497e+003
         vertex 2.050792e+003 1.339525e+003 1.879943e+003
      endloop
   endfacet
   facet normal 1.000000e+000 6.022468e-017 -1.145443e-016
      outer loop
         vertex 2.050792e+003 1.346849e+003 1.884171e+003
         vertex 2.050792e+003 1.346646e+003 1.881851e+003
         vertex 2.050792e+003 1.346917e+003 1.883390e+003
      endloop
   endfacet
   facet normal 1.000000e+000 6.022468e-017 -1.145443e-016
      outer loop
         vertex 2.050792e+003 1.346917e+003 1.883390e+003
         vertex 2.050792e+003 1.346646e+003 1.881851e+003
         vertex 2.050792e+003 1.346849e+003 1.882609e+003
      endloop
   endfacet
   facet normal 1.000000e+000 6.022468e-017 -1.145443e-016
      outer loop
         vertex 2.050792e+003 1.337917e+003 1.883390e+003
         vertex 2.050792e+003 1.337986e+003 1.882609e+003
         vertex 2.050792e+003 1.337986e+003 1.884171e+003
      endloop
   endfacet
   facet normal 1.000000e+000 6.022468e-017 -1.145443e-016
      outer loop
         vertex 2.050792e+003 1.337986e+003 1.884171e+003
         vertex 2.050792e+003 1.337986e+003 1.882609e+003
         vertex 2.050792e+003 1.346646e+003 1.881851e+003
      endloop
   endfacet
   facet normal 1.000000e+000 6.022468e-017 -1.145443e-016
      outer loop
         vertex 2.050792e+003 1.337986e+003 1.884171e+003
         vertex 2.050792e+003 1.346646e+003 1.881851e+003
         vertex 2.050792e+003 1.338189e+003 1.884929e+003
      endloop
   endfacet
   facet normal 1.000000e+000 6.022468e-017 -1.145443e-016
      outer loop
         vertex 2.050792e+003 1.338189e+003 1.884929e+003
         vertex 2.050792e+003 1.346646e+003 1.881851e+003
         vertex 2.050792e+003 1.346849e+003 1.884171e+003
      endloop
   endfacet
   facet normal 1.000000e+000 6.022468e-017 -1.145443e-016
      outer loop
         vertex 2.050792e+003 1.344667e+003 1.879493e+003
         vertex 2.050792e+003 1.345310e+003 1.879943e+003
         vertex 2.050792e+003 1.345865e+003 1.880497e+003
      endloop
   endfacet
   facet normal 1.000000e+000 6.022468e-017 -1.145443e-016
      outer loop
         vertex 2.050792e+003 1.346849e+003 1.884171e+003
         vertex 2.050792e+003 1.346646e+003 1.884929e+003
         vertex 2.050792e+003 1.338189e+003 1.884929e+003
      endloop
   endfacet
   facet normal 1.000000e+000 6.022468e-017 -1.145443e-016
      outer loop
         vertex 2.050792e+003 1.338189e+003 1.884929e+003
         vertex 2.050792e+003 1.346646e+003 1.884929e+003
         vertex 2.050792e+003 1.346314e+003 1.885640e+003
      endloop
   endfacet
   facet normal 1.000000e+000 6.022468e-017 -1.145443e-016
      outer loop
         vertex 2.050792e+003 1.338189e+003 1.884929e+003
         vertex 2.050792e+003 1.346314e+003 1.885640e+003
         vertex 2.050792e+003 1.345865e+003 1.886282e+003
      endloop
   endfacet
   facet normal 1.000000e+000 6.022468e-017 -1.145443e-016
      outer loop
         vertex 2.050792e+003 1.340167e+003 1.887287e+003
         vertex 2.050792e+003 1.339525e+003 1.886837e+003
         vertex 2.050792e+003 1.338970e+003 1.886282e+003
      endloop
   endfacet
   facet normal 1.000000e+000 6.022468e-017 -1.145443e-016
      outer loop
         vertex 2.050792e+003 1.339525e+003 1.879943e+003
         vertex 2.050792e+003 1.340167e+003 1.879493e+003
         vertex 2.050792e+003 1.340878e+003 1.879161e+003
      endloop
   endfacet
   facet normal 1.000000e+000 6.022468e-017 -1.145443e-016
      outer loop
         vertex 2.050792e+003 1.338189e+003 1.881851e+003
         vertex 2.050792e+003 1.338520e+003 1.881140e+003
         vertex 2.050792e+003 1.346646e+003 1.881851e+003
      endloop
   endfacet
   facet normal 1.000000e+000 6.022468e-017 -1.145443e-016
      outer loop
         vertex 2.050792e+003 1.346646e+003 1.881851e+003
         vertex 2.050792e+003 1.338520e+003 1.881140e+003
         vertex 2.050792e+003 1.339525e+003 1.879943e+003
      endloop
   endfacet
   facet normal 1.000000e+000 6.022468e-017 -1.145443e-016
      outer loop
         vertex 2.050792e+003 1.346646e+003 1.881851e+003
         vertex 2.050792e+003 1.339525e+003 1.879943e+003
         vertex 2.050792e+003 1.345865e+003 1.880497e+003
      endloop
   endfacet
   facet normal 1.000000e+000 6.022468e-017 -1.145443e-016
      outer loop
         vertex 2.050792e+003 1.345865e+003 1.880497e+003
         vertex 2.050792e+003 1.339525e+003 1.879943e+003
         vertex 2.050792e+003 1.340878e+003 1.879161e+003
      endloop
   endfacet
   facet normal 1.000000e+000 6.022468e-017 -1.145443e-016
      outer loop
         vertex 2.050792e+003 1.345865e+003 1.880497e+003
         vertex 2.050792e+003 1.340878e+003 1.879161e+003
         vertex 2.050792e+003 1.341636e+003 1.878958e+003
      endloop
   endfacet
   facet normal 1.000000e+000 6.022468e-017 -1.145443e-016
      outer loop
         vertex 2.050792e+003 1.345865e+003 1.886282e+003
         vertex 2.050792e+003 1.345310e+003 1.886837e+003
         vertex 2.050792e+003 1.338189e+003 1.884929e+003
      endloop
   endfacet
   facet normal 1.000000e+000 6.022468e-017 -1.145443e-016
      outer loop
         vertex 2.050792e+003 1.338189e+003 1.884929e+003
         vertex 2.050792e+003 1.345310e+003 1.886837e+003
         vertex 2.050792e+003 1.344667e+003 1.887287e+003
      endloop
   endfacet
   facet normal 1.000000e+000 6.022468e-017 -1.145443e-016
      outer loop
         vertex 2.050792e+003 1.338189e+003 1.884929e+003
         vertex 2.050792e+003 1.344667e+003 1.887287e+003
         vertex 2.050792e+003 1.338970e+003 1.886282e+003
      endloop
   endfacet
   facet normal 1.000000e+000 6.022468e-017 -1.145443e-016
      outer loop
         vertex 2.050792e+003 1.338970e+003 1.886282e+003
         vertex 2.050792e+003 1.344667e+003 1.887287e+003
         vertex 2.050792e+003 1.343956e+003 1.887619e+003
      endloop
   endfacet
   facet normal 1.000000e+000 6.022468e-017 -1.145443e-016
      outer loop
         vertex 2.050792e+003 1.338970e+003 1.886282e+003
         vertex 2.050792e+003 1.343956e+003 1.887619e+003
         vertex 2.050792e+003 1.343199e+003 1.887822e+003
      endloop
   endfacet
   facet normal 1.000000e+000 6.022468e-017 -1.145443e-016
      outer loop
         vertex 2.050792e+003 1.343956e+003 1.879161e+003
         vertex 2.050792e+003 1.344667e+003 1.879493e+003
         vertex 2.050792e+003 1.343199e+003 1.878958e+003
      endloop
   endfacet
   facet normal 1.000000e+000 6.022468e-017 -1.145443e-016
      outer loop
         vertex 2.050792e+003 1.343199e+003 1.878958e+003
         vertex 2.050792e+003 1.344667e+003 1.879493e+003
         vertex 2.050792e+003 1.345865e+003 1.880497e+003
      endloop
   endfacet
   facet normal 1.000000e+000 6.022468e-017 -1.145443e-016
      outer loop
         vertex 2.050792e+003 1.343199e+003 1.878958e+003
         vertex 2.050792e+003 1.345865e+003 1.880497e+003
         vertex 2.050792e+003 1.342417e+003 1.878890e+003
      endloop
   endfacet
   facet normal 1.000000e+000 6.022468e-017 -1.145443e-016
      outer loop
         vertex 2.050792e+003 1.342417e+003 1.878890e+003
         vertex 2.050792e+003 1.345865e+003 1.880497e+003
         vertex 2.050792e+003 1.341636e+003 1.878958e+003
      endloop
   endfacet
   facet normal 1.000000e+000 6.022468e-017 -1.145443e-016
      outer loop
         vertex 2.050792e+003 1.340878e+003 1.887619e+003
         vertex 2.050792e+003 1.340167e+003 1.887287e+003
         vertex 2.050792e+003 1.341636e+003 1.887822e+003
      endloop
   endfacet
   facet normal 1.000000e+000 6.022468e-017 -1.145443e-016
      outer loop
         vertex 2.050792e+003 1.341636e+003 1.887822e+003
         vertex 2.050792e+003 1.340167e+003 1.887287e+003
         vertex 2.050792e+003 1.338970e+003 1.886282e+003
      endloop
   endfacet
   facet normal 1.000000e+000 6.022468e-017 -1.145443e-016
      outer loop
         vertex 2.050792e+003 1.341636e+003 1.887822e+003
         vertex 2.050792e+003 1.338970e+003 1.886282e+003
         vertex 2.050792e+003 1.342417e+003 1.887890e+003
      endloop
   endfacet
   facet normal 1.000000e+000 6.022468e-017 -1.145443e-016
      outer loop
         vertex 2.050792e+003 1.342417e+003 1.887890e+003
         vertex 2.050792e+003 1.338970e+003 1.886282e+003
         vertex 2.050792e+003 1.343199e+003 1.887822e+003
      endloop
   endfacet
   facet normal -7.083034e-001 6.868910e-001 1.627484e-001
      outer loop
         vertex 2.013292e+003 1.347341e+003 1.884258e+003
         vertex 2.012792e+003 1.346849e+003 1.884171e+003
         vertex 2.013292e+003 1.347116e+003 1.885100e+003
      endloop
   endfacet
   facet normal -7.083035e-001 6.762393e-001 2.025012e-001
      outer loop
         vertex 2.013292e+003 1.347116e+003 1.885100e+003
         vertex 2.012792e+003 1.346849e+003 1.884171e+003
         vertex 2.012792e+003 1.346646e+003 1.884929e+003
      endloop
   endfacet
   facet normal -7.083035e-001 6.481946e-001 2.795533e-001
      outer loop
         vertex 2.013292e+003 1.347116e+003 1.885100e+003
         vertex 2.012792e+003 1.346646e+003 1.884929e+003
         vertex 2.013292e+003 1.346748e+003 1.885890e+003
      endloop
   endfacet
   facet normal -7.083034e-001 6.308017e-001 3.168525e-001
      outer loop
         vertex 2.013292e+003 1.346748e+003 1.885890e+003
         vertex 2.012792e+003 1.346646e+003 1.884929e+003
         vertex 2.012792e+003 1.346314e+003 1.885640e+003
      endloop
   endfacet
   facet normal -7.083035e-001 5.898032e-001 3.878641e-001
      outer loop
         vertex 2.013292e+003 1.346748e+003 1.885890e+003
         vertex 2.012792e+003 1.346314e+003 1.885640e+003
         vertex 2.013292e+003 1.346248e+003 1.886604e+003
      endloop
   endfacet
   facet normal -7.083035e-001 5.661975e-001 4.215764e-001
      outer loop
         vertex 2.013292e+003 1.346248e+003 1.886604e+003
         vertex 2.012792e+003 1.346314e+003 1.885640e+003
         vertex 2.012792e+003 1.345865e+003 1.886282e+003
      endloop
   endfacet
   facet normal -7.083035e-001 5.134908e-001 4.843898e-001
      outer loop
         vertex 2.013292e+003 1.346248e+003 1.886604e+003
         vertex 2.012792e+003 1.345865e+003 1.886282e+003
         vertex 2.013292e+003 1.345631e+003 1.887220e+003
      endloop
   endfacet
   facet normal -7.083035e-001 4.843898e-001 5.134908e-001
      outer loop
         vertex 2.013292e+003 1.345631e+003 1.887220e+003
         vertex 2.012792e+003 1.345865e+003 1.886282e+003
         vertex 2.012792e+003 1.345310e+003 1.886837e+003
      endloop
   endfacet
   facet normal -7.083035e-001 4.215764e-001 5.661975e-001
      outer loop
         vertex 2.013292e+003 1.345631e+003 1.887220e+003
         vertex 2.012792e+003 1.345310e+003 1.886837e+003
         vertex 2.013292e+003 1.344917e+003 1.887720e+003
      endloop
   endfacet
   facet normal -7.083035e-001 3.878641e-001 5.898032e-001
      outer loop
         vertex 2.013292e+003 1.344917e+003 1.887720e+003
         vertex 2.012792e+003 1.345310e+003 1.886837e+003
         vertex 2.012792e+003 1.344667e+003 1.887287e+003
      endloop
   endfacet
   facet normal -7.083034e-001 3.168525e-001 6.308017e-001
      outer loop
         vertex 2.013292e+003 1.344917e+003 1.887720e+003
         vertex 2.012792e+003 1.344667e+003 1.887287e+003
         vertex 2.013292e+003 1.344127e+003 1.888088e+003
      endloop
   endfacet
   facet normal -7.083035e-001 2.795533e-001 6.481946e-001
      outer loop
         vertex 2.013292e+003 1.344127e+003 1.888088e+003
         vertex 2.012792e+003 1.344667e+003 1.887287e+003
         vertex 2.012792e+003 1.343956e+003 1.887619e+003
      endloop
   endfacet
   facet normal -7.083035e-001 2.025012e-001 6.762393e-001
      outer loop
         vertex 2.013292e+003 1.344127e+003 1.888088e+003
         vertex 2.012792e+003 1.343956e+003 1.887619e+003
         vertex 2.013292e+003 1.343286e+003 1.888314e+003
      endloop
   endfacet
   facet normal -7.083034e-001 1.627484e-001 6.868910e-001
      outer loop
         vertex 2.013292e+003 1.343286e+003 1.888314e+003
         vertex 2.012792e+003 1.343956e+003 1.887619e+003
         vertex 2.012792e+003 1.343199e+003 1.887822e+003
      endloop
   endfacet
   facet normal -7.083034e-001 8.199707e-002 7.011296e-001
      outer loop
         vertex 2.013292e+003 1.343286e+003 1.888314e+003
         vertex 2.012792e+003 1.343199e+003 1.887822e+003
         vertex 2.013292e+003 1.342417e+003 1.888390e+003
      endloop
   endfacet
   facet normal -7.083035e-001 4.099854e-002 7.047165e-001
      outer loop
         vertex 2.013292e+003 1.342417e+003 1.888390e+003
         vertex 2.012792e+003 1.343199e+003 1.887822e+003
         vertex 2.012792e+003 1.342417e+003 1.887890e+003
      endloop
   endfacet
   facet normal -7.083035e-001 -4.099854e-002 7.047165e-001
      outer loop
         vertex 2.013292e+003 1.342417e+003 1.888390e+003
         vertex 2.012792e+003 1.342417e+003 1.887890e+003
         vertex 2.013292e+003 1.341549e+003 1.888314e+003
      endloop
   endfacet
   facet normal -7.083034e-001 -8.199707e-002 7.011296e-001
      outer loop
         vertex 2.013292e+003 1.341549e+003 1.888314e+003
         vertex 2.012792e+003 1.342417e+003 1.887890e+003
         vertex 2.012792e+003 1.341636e+003 1.887822e+003
      endloop
   endfacet
   facet normal -7.083034e-001 -1.627484e-001 6.868910e-001
      outer loop
         vertex 2.013292e+003 1.341549e+003 1.888314e+003
         vertex 2.012792e+003 1.341636e+003 1.887822e+003
         vertex 2.013292e+003 1.340707e+003 1.888088e+003
      endloop
   endfacet
   facet normal -7.083035e-001 -2.025012e-001 6.762393e-001
      outer loop
         vertex 2.013292e+003 1.340707e+003 1.888088e+003
         vertex 2.012792e+003 1.341636e+003 1.887822e+003
         vertex 2.012792e+003 1.340878e+003 1.887619e+003
      endloop
   endfacet
   facet normal -7.083035e-001 -2.795533e-001 6.481946e-001
      outer loop
         vertex 2.013292e+003 1.340707e+003 1.888088e+003
         vertex 2.012792e+003 1.340878e+003 1.887619e+003
         vertex 2.013292e+003 1.339917e+003 1.887720e+003
      endloop
   endfacet
   facet normal -7.083034e-001 -3.168525e-001 6.308017e-001
      outer loop
         vertex 2.013292e+003 1.339917e+003 1.887720e+003
         vertex 2.012792e+003 1.340878e+003 1.887619e+003
         vertex 2.012792e+003 1.340167e+003 1.887287e+003
      endloop
   endfacet
   facet normal -7.083035e-001 -3.878641e-001 5.898032e-001
      outer loop
         vertex 2.013292e+003 1.339917e+003 1.887720e+003
         vertex 2.012792e+003 1.340167e+003 1.887287e+003
         vertex 2.013292e+003 1.339203e+003 1.887220e+003
      endloop
   endfacet
   facet normal -7.083035e-001 -4.215764e-001 5.661975e-001
      outer loop
         vertex 2.013292e+003 1.339203e+003 1.887220e+003
         vertex 2.012792e+003 1.340167e+003 1.887287e+003
         vertex 2.012792e+003 1.339525e+003 1.886837e+003
      endloop
   endfacet
   facet normal -7.083035e-001 -4.843898e-001 5.134908e-001
      outer loop
         vertex 2.013292e+003 1.339203e+003 1.887220e+003
         vertex 2.012792e+003 1.339525e+003 1.886837e+003
         vertex 2.013292e+003 1.338587e+003 1.886604e+003
      endloop
   endfacet
   facet normal -7.083035e-001 -5.134908e-001 4.843898e-001
      outer loop
         vertex 2.013292e+003 1.338587e+003 1.886604e+003
         vertex 2.012792e+003 1.339525e+003 1.886837e+003
         vertex 2.012792e+003 1.338970e+003 1.886282e+003
      endloop
   endfacet
   facet normal -7.083035e-001 -5.661975e-001 4.215764e-001
      outer loop
         vertex 2.013292e+003 1.338587e+003 1.886604e+003
         vertex 2.012792e+003 1.338970e+003 1.886282e+003
         vertex 2.013292e+003 1.338087e+003 1.885890e+003
      endloop
   endfacet
   facet normal -7.083035e-001 -5.898032e-001 3.878641e-001
      outer loop
         vertex 2.013292e+003 1.338087e+003 1.885890e+003
         vertex 2.012792e+003 1.338970e+003 1.886282e+003
         vertex 2.012792e+003 1.338520e+003 1.885640e+003
      endloop
   endfacet
   facet normal -7.083034e-001 -6.308017e-001 3.168525e-001
      outer loop
         vertex 2.013292e+003 1.338087e+003 1.885890e+003
         vertex 2.012792e+003 1.338520e+003 1.885640e+003
         vertex 2.013292e+003 1.337719e+003 1.885100e+003
      endloop
   endfacet
   facet normal -7.083035e-001 -6.481946e-001 2.795533e-001
      outer loop
         vertex 2.013292e+003 1.337719e+003 1.885100e+003
         vertex 2.012792e+003 1.338520e+003 1.885640e+003
         vertex 2.012792e+003 1.338189e+003 1.884929e+003
      endloop
   endfacet
   facet normal -7.083035e-001 -6.762393e-001 2.025012e-001
      outer loop
         vertex 2.013292e+003 1.337719e+003 1.885100e+003
         vertex 2.012792e+003 1.338189e+003 1.884929e+003
         vertex 2.013292e+003 1.337493e+003 1.884258e+003
      endloop
   endfacet
   facet normal -7.083034e-001 -6.868910e-001 1.627484e-001
      outer loop
         vertex 2.013292e+003 1.337493e+003 1.884258e+003
         vertex 2.012792e+003 1.338189e+003 1.884929e+003
         vertex 2.012792e+003 1.337986e+003 1.884171e+003
      endloop
   endfacet
   facet normal -7.083034e-001 -7.011296e-001 8.199707e-002
      outer loop
         vertex 2.013292e+003 1.337493e+003 1.884258e+003
         vertex 2.012792e+003 1.337986e+003 1.884171e+003
         vertex 2.013292e+003 1.337417e+003 1.883390e+003
      endloop
   endfacet
   facet normal -7.083035e-001 -7.047165e-001 4.099854e-002
      outer loop
         vertex 2.013292e+003 1.337417e+003 1.883390e+003
         vertex 2.012792e+003 1.337986e+003 1.884171e+003
         vertex 2.012792e+003 1.337917e+003 1.883390e+003
      endloop
   endfacet
   facet normal -7.083035e-001 -7.047165e-001 -4.099854e-002
      outer loop
         vertex 2.013292e+003 1.337417e+003 1.883390e+003
         vertex 2.012792e+003 1.337917e+003 1.883390e+003
         vertex 2.013292e+003 1.337493e+003 1.882522e+003
      endloop
   endfacet
   facet normal -7.083034e-001 -7.011296e-001 -8.199707e-002
      outer loop
         vertex 2.013292e+003 1.337493e+003 1.882522e+003
         vertex 2.012792e+003 1.337917e+003 1.883390e+003
         vertex 2.012792e+003 1.337986e+003 1.882609e+003
      endloop
   endfacet
   facet normal -7.083034e-001 -6.868910e-001 -1.627484e-001
      outer loop
         vertex 2.013292e+003 1.337493e+003 1.882522e+003
         vertex 2.012792e+003 1.337986e+003 1.882609e+003
         vertex 2.013292e+003 1.337719e+003 1.881680e+003
      endloop
   endfacet
   facet normal -7.083035e-001 -6.762393e-001 -2.025012e-001
      outer loop
         vertex 2.013292e+003 1.337719e+003 1.881680e+003
         vertex 2.012792e+003 1.337986e+003 1.882609e+003
         vertex 2.012792e+003 1.338189e+003 1.881851e+003
      endloop
   endfacet
   facet normal -7.083035e-001 -6.481946e-001 -2.795533e-001
      outer loop
         vertex 2.013292e+003 1.337719e+003 1.881680e+003
         vertex 2.012792e+003 1.338189e+003 1.881851e+003
         vertex 2.013292e+003 1.338087e+003 1.880890e+003
      endloop
   endfacet
   facet normal -7.083034e-001 -6.308017e-001 -3.168525e-001
      outer loop
         vertex 2.013292e+003 1.338087e+003 1.880890e+003
         vertex 2.012792e+003 1.338189e+003 1.881851e+003
         vertex 2.012792e+003 1.338520e+003 1.881140e+003
      endloop
   endfacet
   facet normal -7.083035e-001 -5.898032e-001 -3.878641e-001
      outer loop
         vertex 2.013292e+003 1.338087e+003 1.880890e+003
         vertex 2.012792e+003 1.338520e+003 1.881140e+003
         vertex 2.013292e+003 1.338587e+003 1.880176e+003
      endloop
   endfacet
   facet normal -7.083035e-001 -5.661975e-001 -4.215764e-001
      outer loop
         vertex 2.013292e+003 1.338587e+003 1.880176e+003
         vertex 2.012792e+003 1.338520e+003 1.881140e+003
         vertex 2.012792e+003 1.338970e+003 1.880497e+003
      endloop
   endfacet
   facet normal -7.083035e-001 -5.134908e-001 -4.843898e-001
      outer loop
         vertex 2.013292e+003 1.338587e+003 1.880176e+003
         vertex 2.012792e+003 1.338970e+003 1.880497e+003
         vertex 2.013292e+003 1.339203e+003 1.879560e+003
      endloop
   endfacet
   facet normal -7.083035e-001 -4.843898e-001 -5.134908e-001
      outer loop
         vertex 2.013292e+003 1.339203e+003 1.879560e+003
         vertex 2.012792e+003 1.338970e+003 1.880497e+003
         vertex 2.012792e+003 1.339525e+003 1.879943e+003
      endloop
   endfacet
   facet normal -7.083035e-001 -4.215764e-001 -5.661975e-001
      outer loop
         vertex 2.013292e+003 1.339203e+003 1.879560e+003
         vertex 2.012792e+003 1.339525e+003 1.879943e+003
         vertex 2.013292e+003 1.339917e+003 1.879060e+003
      endloop
   endfacet
   facet normal -7.083035e-001 -3.878641e-001 -5.898032e-001
      outer loop
         vertex 2.013292e+003 1.339917e+003 1.879060e+003
         vertex 2.012792e+003 1.339525e+003 1.879943e+003
         vertex 2.012792e+003 1.340167e+003 1.879493e+003
      endloop
   endfacet
   facet normal -7.083034e-001 -3.168525e-001 -6.308017e-001
      outer loop
         vertex 2.013292e+003 1.339917e+003 1.879060e+003
         vertex 2.012792e+003 1.340167e+003 1.879493e+003
         vertex 2.013292e+003 1.340707e+003 1.878691e+003
      endloop
   endfacet
   facet normal -7.083035e-001 -2.795533e-001 -6.481946e-001
      outer loop
         vertex 2.013292e+003 1.340707e+003 1.878691e+003
         vertex 2.012792e+003 1.340167e+003 1.879493e+003
         vertex 2.012792e+003 1.340878e+003 1.879161e+003
      endloop
   endfacet
   facet normal -7.083035e-001 -2.025012e-001 -6.762393e-001
      outer loop
         vertex 2.013292e+003 1.340707e+003 1.878691e+003
         vertex 2.012792e+003 1.340878e+003 1.879161e+003
         vertex 2.013292e+003 1.341549e+003 1.878466e+003
      endloop
   endfacet
   facet normal -7.083034e-001 -1.627484e-001 -6.868910e-001
      outer loop
         vertex 2.013292e+003 1.341549e+003 1.878466e+003
         vertex 2.012792e+003 1.340878e+003 1.879161e+003
         vertex 2.012792e+003 1.341636e+003 1.878958e+003
      endloop
   endfacet
   facet normal -7.083034e-001 -8.199707e-002 -7.011296e-001
      outer loop
         vertex 2.013292e+003 1.341549e+003 1.878466e+003
         vertex 2.012792e+003 1.341636e+003 1.878958e+003
         vertex 2.013292e+003 1.342417e+003 1.878390e+003
      endloop
   endfacet
   facet normal -7.083035e-001 -4.099854e-002 -7.047165e-001
      outer loop
         vertex 2.013292e+003 1.342417e+003 1.878390e+003
         vertex 2.012792e+003 1.341636e+003 1.878958e+003
         vertex 2.012792e+003 1.342417e+003 1.878890e+003
      endloop
   endfacet
   facet normal -7.083035e-001 4.099854e-002 -7.047165e-001
      outer loop
         vertex 2.013292e+003 1.342417e+003 1.878390e+003
         vertex 2.012792e+003 1.342417e+003 1.878890e+003
         vertex 2.013292e+003 1.343286e+003 1.878466e+003
      endloop
   endfacet
   facet normal -7.083034e-001 8.199707e-002 -7.011296e-001
      outer loop
         vertex 2.013292e+003 1.343286e+003 1.878466e+003
         vertex 2.012792e+003 1.342417e+003 1.878890e+003
         vertex 2.012792e+003 1.343199e+003 1.878958e+003
      endloop
   endfacet
   facet normal -7.083034e-001 1.627484e-001 -6.868910e-001
      outer loop
         vertex 2.013292e+003 1.343286e+003 1.878466e+003
         vertex 2.012792e+003 1.343199e+003 1.878958e+003
         vertex 2.013292e+003 1.344127e+003 1.878691e+003
      endloop
   endfacet
   facet normal -7.083035e-001 2.025012e-001 -6.762393e-001
      outer loop
         vertex 2.013292e+003 1.344127e+003 1.878691e+003
         vertex 2.012792e+003 1.343199e+003 1.878958e+003
         vertex 2.012792e+003 1.343956e+003 1.879161e+003
      endloop
   endfacet
   facet normal -7.083035e-001 2.795533e-001 -6.481946e-001
      outer loop
         vertex 2.013292e+003 1.344127e+003 1.878691e+003
         vertex 2.012792e+003 1.343956e+003 1.879161e+003
         vertex 2.013292e+003 1.344917e+003 1.879060e+003
      endloop
   endfacet
   facet normal -7.083034e-001 3.168525e-001 -6.308017e-001
      outer loop
         vertex 2.013292e+003 1.344917e+003 1.879060e+003
         vertex 2.012792e+003 1.343956e+003 1.879161e+003
         vertex 2.012792e+003 1.344667e+003 1.879493e+003
      endloop
   endfacet
   facet normal -7.083035e-001 3.878641e-001 -5.898032e-001
      outer loop
         vertex 2.013292e+003 1.344917e+003 1.879060e+003
         vertex 2.012792e+003 1.344667e+003 1.879493e+003
         vertex 2.013292e+003 1.345631e+003 1.879560e+003
      endloop
   endfacet
   facet normal -7.083035e-001 4.215764e-001 -5.661975e-001
      outer loop
         vertex 2.013292e+003 1.345631e+003 1.879560e+003
         vertex 2.012792e+003 1.344667e+003 1.879493e+003
         vertex 2.012792e+003 1.345310e+003 1.879943e+003
      endloop
   endfacet
   facet normal -7.083035e-001 4.843898e-001 -5.134908e-001
      outer loop
         vertex 2.013292e+003 1.345631e+003 1.879560e+003
         vertex 2.012792e+003 1.345310e+003 1.879943e+003
         vertex 2.013292e+003 1.346248e+003 1.880176e+003
      endloop
   endfacet
   facet normal -7.083035e-001 5.134908e-001 -4.843898e-001
      outer loop
         vertex 2.013292e+003 1.346248e+003 1.880176e+003
         vertex 2.012792e+003 1.345310e+003 1.879943e+003
         vertex 2.012792e+003 1.345865e+003 1.880497e+003
      endloop
   endfacet
   facet normal -7.083035e-001 5.661975e-001 -4.215764e-001
      outer loop
         vertex 2.013292e+003 1.346248e+003 1.880176e+003
         vertex 2.012792e+003 1.345865e+003 1.880497e+003
         vertex 2.013292e+003 1.346748e+003 1.880890e+003
      endloop
   endfacet
   facet normal -7.083035e-001 5.898032e-001 -3.878641e-001
      outer loop
         vertex 2.013292e+003 1.346748e+003 1.880890e+003
         vertex 2.012792e+003 1.345865e+003 1.880497e+003
         vertex 2.012792e+003 1.346314e+003 1.881140e+003
      endloop
   endfacet
   facet normal -7.083034e-001 6.308017e-001 -3.168525e-001
      outer loop
         vertex 2.013292e+003 1.346748e+003 1.880890e+003
         vertex 2.012792e+003 1.346314e+003 1.881140e+003
         vertex 2.013292e+003 1.347116e+003 1.881680e+003
      endloop
   endfacet
   facet normal -7.083035e-001 6.481946e-001 -2.795533e-001
      outer loop
         vertex 2.013292e+003 1.347116e+003 1.881680e+003
         vertex 2.012792e+003 1.346314e+003 1.881140e+003
         vertex 2.012792e+003 1.346646e+003 1.881851e+003
      endloop
   endfacet
   facet normal -7.083035e-001 6.762393e-001 -2.025012e-001
      outer loop
         vertex 2.013292e+003 1.347116e+003 1.881680e+003
         vertex 2.012792e+003 1.346646e+003 1.881851e+003
         vertex 2.013292e+003 1.347341e+003 1.882522e+003
      endloop
   endfacet
   facet normal -7.083034e-001 6.868910e-001 -1.627484e-001
      outer loop
         vertex 2.013292e+003 1.347341e+003 1.882522e+003
         vertex 2.012792e+003 1.346646e+003 1.881851e+003
         vertex 2.012792e+003 1.346849e+003 1.882609e+003
      endloop
   endfacet
   facet normal -7.083034e-001 7.011296e-001 -8.199707e-002
      outer loop
         vertex 2.013292e+003 1.347341e+003 1.882522e+003
         vertex 2.012792e+003 1.346849e+003 1.882609e+003
         vertex 2.013292e+003 1.347417e+003 1.883390e+003
      endloop
   endfacet
   facet normal -7.083035e-001 7.047165e-001 -4.099854e-002
      outer loop
         vertex 2.013292e+003 1.347417e+003 1.883390e+003
         vertex 2.012792e+003 1.346849e+003 1.882609e+003
         vertex 2.012792e+003 1.346917e+003 1.883390e+003
      endloop
   endfacet
   facet normal -7.083035e-001 7.047165e-001 4.099854e-002
      outer loop
         vertex 2.013292e+003 1.347417e+003 1.883390e+003
         vertex 2.012792e+003 1.346917e+003 1.883390e+003
         vertex 2.013292e+003 1.347341e+003 1.884258e+003
      endloop
   endfacet
   facet normal -7.083034e-001 7.011296e-001 8.199707e-002
      outer loop
         vertex 2.013292e+003 1.347341e+003 1.884258e+003
         vertex 2.012792e+003 1.346917e+003 1.883390e+003
         vertex 2.012792e+003 1.346849e+003 1.884171e+003
      endloop
   endfacet
   facet normal 7.083034e-001 -6.868910e-001 1.627484e-001
      outer loop
         vertex 2.050292e+003 1.337493e+003 1.884258e+003
         vertex 2.050792e+003 1.337986e+003 1.884171e+003
         vertex 2.050292e+003 1.337719e+003 1.885100e+003
      endloop
   endfacet
   facet normal 7.083035e-001 -6.762393e-001 2.025012e-001
      outer loop
         vertex 2.050292e+003 1.337719e+003 1.885100e+003
         vertex 2.050792e+003 1.337986e+003 1.884171e+003
         vertex 2.050792e+003 1.338189e+003 1.884929e+003
      endloop
   endfacet
   facet normal 7.083035e-001 -6.481946e-001 2.795533e-001
      outer loop
         vertex 2.050292e+003 1.337719e+003 1.885100e+003
         vertex 2.050792e+003 1.338189e+003 1.884929e+003
         vertex 2.050292e+003 1.338087e+003 1.885890e+003
      endloop
   endfacet
   facet normal 7.083034e-001 -6.308017e-001 3.168525e-001
      outer loop
         vertex 2.050292e+003 1.338087e+003 1.885890e+003
         vertex 2.050792e+003 1.338189e+003 1.884929e+003
         vertex 2.050792e+003 1.338520e+003 1.885640e+003
      endloop
   endfacet
   facet normal 7.083035e-001 -5.898032e-001 3.878641e-001
      outer loop
         vertex 2.050292e+003 1.338087e+003 1.885890e+003
         vertex 2.050792e+003 1.338520e+003 1.885640e+003
         vertex 2.050292e+003 1.338587e+003 1.886604e+003
      endloop
   endfacet
   facet normal 7.083035e-001 -5.661975e-001 4.215764e-001
      outer loop
         vertex 2.050292e+003 1.338587e+003 1.886604e+003
         vertex 2.050792e+003 1.338520e+003 1.885640e+003
         vertex 2.050792e+003 1.338970e+003 1.886282e+003
      endloop
   endfacet
   facet normal 7.083035e-001 -5.134908e-001 4.843898e-001
      outer loop
         vertex 2.050292e+003 1.338587e+003 1.886604e+003
         vertex 2.050792e+003 1.338970e+003 1.886282e+003
         vertex 2.050292e+003 1.339203e+003 1.887220e+003
      endloop
   endfacet
   facet normal 7.083035e-001 -4.843898e-001 5.134908e-001
      outer loop
         vertex 2.050292e+003 1.339203e+003 1.887220e+003
         vertex 2.050792e+003 1.338970e+003 1.886282e+003
         vertex 2.050792e+003 1.339525e+003 1.886837e+003
      endloop
   endfacet
   facet normal 7.083035e-001 -4.215764e-001 5.661975e-001
      outer loop
         vertex 2.050292e+003 1.339203e+003 1.887220e+003
         vertex 2.050792e+003 1.339525e+003 1.886837e+003
         vertex 2.050292e+003 1.339917e+003 1.887720e+003
      endloop
   endfacet
   facet normal 7.083035e-001 -3.878641e-001 5.898032e-001
      outer loop
         vertex 2.050292e+003 1.339917e+003 1.887720e+003
         vertex 2.050792e+003 1.339525e+003 1.886837e+003
         vertex 2.050792e+003 1.340167e+003 1.887287e+003
      endloop
   endfacet
   facet normal 7.083034e-001 -3.168525e-001 6.308017e-001
      outer loop
         vertex 2.050292e+003 1.339917e+003 1.887720e+003
         vertex 2.050792e+003 1.340167e+003 1.887287e+003
         vertex 2.050292e+003 1.340707e+003 1.888088e+003
      endloop
   endfacet
   facet normal 7.083035e-001 -2.795533e-001 6.481946e-001
      outer loop
         vertex 2.050292e+003 1.340707e+003 1.888088e+003
         vertex 2.050792e+003 1.340167e+003 1.887287e+003
         vertex 2.050792e+003 1.340878e+003 1.887619e+003
      endloop
   endfacet
   facet normal 7.083035e-001 -2.025012e-001 6.762393e-001
      outer loop
         vertex 2.050292e+003 1.340707e+003 1.888088e+003
         vertex 2.050792e+003 1.340878e+003 1.887619e+003
         vertex 2.050292e+003 1.341549e+003 1.888314e+003
      endloop
   endfacet
   facet normal 7.083034e-001 -1.627484e-001 6.868910e-001
      outer loop
         vertex 2.050292e+003 1.341549e+003 1.888314e+003
         vertex 2.050792e+003 1.340878e+003 1.887619e+003
         vertex 2.050792e+003 1.341636e+003 1.887822e+003
      endloop
   endfacet
   facet normal 7.083034e-001 -8.199707e-002 7.011296e-001
      outer loop
         vertex 2.050292e+003 1.341549e+003 1.888314e+003
         vertex 2.050792e+003 1.341636e+003 1.887822e+003
         vertex 2.050292e+003 1.342417e+003 1.888390e+003
      endloop
   endfacet
   facet normal 7.083035e-001 -4.099854e-002 7.047165e-001
      outer loop
         vertex 2.050292e+003 1.342417e+003 1.888390e+003
         vertex 2.050792e+003 1.341636e+003 1.887822e+003
         vertex 2.050792e+003 1.342417e+003 1.887890e+003
      endloop
   endfacet
   facet normal 7.083035e-001 4.099854e-002 7.047165e-001
      outer loop
         vertex 2.050292e+003 1.342417e+003 1.888390e+003
         vertex 2.050792e+003 1.342417e+003 1.887890e+003
         vertex 2.050292e+003 1.343286e+003 1.888314e+003
      endloop
   endfacet
   facet normal 7.083034e-001 8.199707e-002 7.011296e-001
      outer loop
         vertex 2.050292e+003 1.343286e+003 1.888314e+003
         vertex 2.050792e+003 1.342417e+003 1.887890e+003
         vertex 2.050792e+003 1.343199e+003 1.887822e+003
      endloop
   endfacet
   facet normal 7.083034e-001 1.627484e-001 6.868910e-001
      outer loop
         vertex 2.050292e+003 1.343286e+003 1.888314e+003
         vertex 2.050792e+003 1.343199e+003 1.887822e+003
         vertex 2.050292e+003 1.344127e+003 1.888088e+003
      endloop
   endfacet
   facet normal 7.083035e-001 2.025012e-001 6.762393e-001
      outer loop
         vertex 2.050292e+003 1.344127e+003 1.888088e+003
         vertex 2.050792e+003 1.343199e+003 1.887822e+003
         vertex 2.050792e+003 1.343956e+003 1.887619e+003
      endloop
   endfacet
   facet normal 7.083035e-001 2.795533e-001 6.481946e-001
      outer loop
         vertex 2.050292e+003 1.344127e+003 1.888088e+003
         vertex 2.050792e+003 1.343956e+003 1.887619e+003
         vertex 2.050292e+003 1.344917e+003 1.887720e+003
      endloop
   endfacet
   facet normal 7.083034e-001 3.168525e-001 6.308017e-001
      outer loop
         vertex 2.050292e+003 1.344917e+003 1.887720e+003
         vertex 2.050792e+003 1.343956e+003 1.887619e+003
         vertex 2.050792e+003 1.344667e+003 1.887287e+003
      endloop
   endfacet
   facet normal 7.083035e-001 3.878641e-001 5.898032e-001
      outer loop
         vertex 2.050292e+003 1.344917e+003 1.887720e+003
         vertex 2.050792e+003 1.344667e+003 1.887287e+003
         vertex 2.050292e+003 1.345631e+003 1.887220e+003
      endloop
   endfacet
   facet normal 7.083035e-001 4.215764e-001 5.661975e-001
      outer loop
         vertex 2.050292e+003 1.345631e+003 1.887220e+003
         vertex 2.050792e+003 1.344667e+003 1.887287e+003
         vertex 2.050792e+003 1.345310e+003 1.886837e+003
      endloop
   endfacet
   facet normal 7.083035e-001 4.843898e-001 5.134908e-001
      outer loop
         vertex 2.050292e+003 1.345631e+003 1.887220e+003
         vertex 2.050792e+003 1.345310e+003 1.886837e+003
         vertex 2.050292e+003 1.346248e+003 1.886604e+003
      endloop
   endfacet
   facet normal 7.083035e-001 5.134908e-001 4.843898e-001
      outer loop
         vertex 2.050292e+003 1.346248e+003 1.886604e+003
         vertex 2.050792e+003 1.345310e+003 1.886837e+003
         vertex 2.050792e+003 1.345865e+003 1.886282e+003
      endloop
   endfacet
   facet normal 7.083035e-001 5.661975e-001 4.215764e-001
      outer loop
         vertex 2.050292e+003 1.346248e+003 1.886604e+003
         vertex 2.050792e+003 1.345865e+003 1.886282e+003
         vertex 2.050292e+003 1.346748e+003 1.885890e+003
      endloop
   endfacet
   facet normal 7.083035e-001 5.898032e-001 3.878641e-001
      outer loop
         vertex 2.050292e+003 1.346748e+003 1.885890e+003
         vertex 2.050792e+003 1.345865e+003 1.886282e+003
         vertex 2.050792e+003 1.346314e+003 1.885640e+003
      endloop
   endfacet
   facet normal 7.083034e-001 6.308017e-001 3.168525e-001
      outer loop
         vertex 2.050292e+003 1.346748e+003 1.885890e+003
         vertex 2.050792e+003 1.346314e+003 1.885640e+003
         vertex 2.050292e+003 1.347116e+003 1.885100e+003
      endloop
   endfacet
   facet normal 7.083035e-001 6.481946e-001 2.795533e-001
      outer loop
         vertex 2.050292e+003 1.347116e+003 1.885100e+003
         vertex 2.050792e+003 1.346314e+003 1.885640e+003
         vertex 2.050792e+003 1.346646e+003 1.884929e+003
      endloop
   endfacet
   facet normal 7.083035e-001 6.762393e-001 2.025012e-001
      outer loop
         vertex 2.050292e+003 1.347116e+003 1.885100e+003
         vertex 2.050792e+003 1.346646e+003 1.884929e+003
         vertex 2.050292e+003 1.347341e+003 1.884258e+003
      endloop
   endfacet
   facet normal 7.083034e-001 6.868910e-001 1.627484e-001
      outer loop
         vertex 2.050292e+003 1.347341e+003 1.884258e+003
         vertex 2.050792e+003 1.346646e+003 1.884929e+003
         vertex 2.050792e+003 1.346849e+003 1.884171e+003
      endloop
   endfacet
   facet normal 7.083034e-001 7.011296e-001 8.199707e-002
      outer loop
         vertex 2.050292e+003 1.347341e+003 1.884258e+003
         vertex 2.050792e+003 1.346849e+003 1.884171e+003
         vertex 2.050292e+003 1.347417e+003 1.883390e+003
      endloop
   endfacet
   facet normal 7.083035e-001 7.047165e-001 4.099854e-002
      outer loop
         vertex 2.050292e+003 1.347417e+003 1.883390e+003
         vertex 2.050792e+003 1.346849e+003 1.884171e+003
         vertex 2.050792e+003 1.346917e+003 1.883390e+003
      endloop
   endfacet
   facet normal 7.083035e-001 7.047165e-001 -4.099854e-002
      outer loop
         vertex 2.050292e+003 1.347417e+003 1.883390e+003
         vertex 2.050792e+003 1.346917e+003 1.883390e+003
         vertex 2.050292e+003 1.347341e+003 1.882522e+003
      endloop
   endfacet
   facet normal 7.083034e-001 7.011296e-001 -8.199707e-002
      outer loop
         vertex 2.050292e+003 1.347341e+003 1.882522e+003
         vertex 2.050792e+003 1.346917e+003 1.883390e+003
         vertex 2.050792e+003 1.346849e+003 1.882609e+003
      endloop
   endfacet
   facet normal 7.083034e-001 6.868910e-001 -1.627484e-001
      outer loop
         vertex 2.050292e+003 1.347341e+003 1.882522e+003
         vertex 2.050792e+003 1.346849e+003 1.882609e+003
         vertex 2.050292e+003 1.347116e+003 1.881680e+003
      endloop
   endfacet
   facet normal 7.083035e-001 6.762393e-001 -2.025012e-001
      outer loop
         vertex 2.050292e+003 1.347116e+003 1.881680e+003
         vertex 2.050792e+003 1.346849e+003 1.882609e+003
         vertex 2.050792e+003 1.346646e+003 1.881851e+003
      endloop
   endfacet
   facet normal 7.083035e-001 6.481946e-001 -2.795533e-001
      outer loop
         vertex 2.050292e+003 1.347116e+003 1.881680e+003
         vertex 2.050792e+003 1.346646e+003 1.881851e+003
         vertex 2.050292e+003 1.346748e+003 1.880890e+003
      endloop
   endfacet
   facet normal 7.083034e-001 6.308017e-001 -3.168525e-001
      outer loop
         vertex 2.050292e+003 1.346748e+003 1.880890e+003
         vertex 2.050792e+003 1.346646e+003 1.881851e+003
         vertex 2.050792e+003 1.346314e+003 1.881140e+003
      endloop
   endfacet
   facet normal 7.083035e-001 5.898032e-001 -3.878641e-001
      outer loop
         vertex 2.050292e+003 1.346748e+003 1.880890e+003
         vertex 2.050792e+003 1.346314e+003 1.881140e+003
         vertex 2.050292e+003 1.346248e+003 1.880176e+003
      endloop
   endfacet
   facet normal 7.083035e-001 5.661975e-001 -4.215764e-001
      outer loop
         vertex 2.050292e+003 1.346248e+003 1.880176e+003
         vertex 2.050792e+003 1.346314e+003 1.881140e+003
         vertex 2.050792e+003 1.345865e+003 1.880497e+003
      endloop
   endfacet
   facet normal 7.083035e-001 5.134908e-001 -4.843898e-001
      outer loop
         vertex 2.050292e+003 1.346248e+003 1.880176e+003
         vertex 2.050792e+003 1.345865e+003 1.880497e+003
         vertex 2.050292e+003 1.345631e+003 1.879560e+003
      endloop
   endfacet
   facet normal 7.083035e-001 4.843898e-001 -5.134908e-001
      outer loop
         vertex 2.050292e+003 1.345631e+003 1.879560e+003
         vertex 2.050792e+003 1.345865e+003 1.880497e+003
         vertex 2.050792e+003 1.345310e+003 1.879943e+003
      endloop
   endfacet
   facet normal 7.083035e-001 4.215764e-001 -5.661975e-001
      outer loop
         vertex 2.050292e+003 1.345631e+003 1.879560e+003
         vertex 2.050792e+003 1.345310e+003 1.879943e+003
         vertex 2.050292e+003 1.344917e+003 1.879060e+003
      endloop
   endfacet
   facet normal 7.083035e-001 3.878641e-001 -5.898032e-001
      outer loop
         vertex 2.050292e+003 1.344917e+003 1.879060e+003
         vertex 2.050792e+003 1.345310e+003 1.879943e+003
         vertex 2.050792e+003 1.344667e+003 1.879493e+003
      endloop
   endfacet
   facet normal 7.083034e-001 3.168525e-001 -6.308017e-001
      outer loop
         vertex 2.050292e+003 1.344917e+003 1.879060e+003
         vertex 2.050792e+003 1.344667e+003 1.879493e+003
         vertex 2.050292e+003 1.344127e+003 1.878691e+003
      endloop
   endfacet
   facet normal 7.083035e-001 2.795533e-001 -6.481946e-001
      outer loop
         vertex 2.050292e+003 1.344127e+003 1.878691e+003
         vertex 2.050792e+003 1.344667e+003 1.879493e+003
         vertex 2.050792e+003 1.343956e+003 1.879161e+003
      endloop
   endfacet
   facet normal 7.083035e-001 2.025012e-001 -6.762393e-001
      outer loop
         vertex 2.050292e+003 1.344127e+003 1.878691e+003
         vertex 2.050792e+003 1.343956e+003 1.879161e+003
         vertex 2.050292e+003 1.343286e+003 1.878466e+003
      endloop
   endfacet
   facet normal 7.083034e-001 1.627484e-001 -6.868910e-001
      outer loop
         vertex 2.050292e+003 1.343286e+003 1.878466e+003
         vertex 2.050792e+003 1.343956e+003 1.879161e+003
         vertex 2.050792e+003 1.343199e+003 1.878958e+003
      endloop
   endfacet
   facet normal 7.083034e-001 8.199707e-002 -7.011296e-001
      outer loop
         vertex 2.050292e+003 1.343286e+003 1.878466e+003
         vertex 2.050792e+003 1.343199e+003 1.878958e+003
         vertex 2.050292e+003 1.342417e+003 1.878390e+003
      endloop
   endfacet
   facet normal 7.083035e-001 4.099854e-002 -7.047165e-001
      outer loop
         vertex 2.050292e+003 1.342417e+003 1.878390e+003
         vertex 2.050792e+003 1.343199e+003 1.878958e+003
         vertex 2.050792e+003 1.342417e+003 1.878890e+003
      endloop
   endfacet
   facet normal 7.083035e-001 -4.099854e-002 -7.047165e-001
      outer loop
         vertex 2.050292e+003 1.342417e+003 1.878390e+003
         vertex 2.050792e+003 1.342417e+003 1.878890e+003
         vertex 2.050292e+003 1.341549e+003 1.878466e+003
      endloop
   endfacet
   facet normal 7.083034e-001 -8.199707e-002 -7.011296e-001
      outer loop
         vertex 2.050292e+003 1.341549e+003 1.878466e+003
         vertex 2.050792e+003 1.342417e+003 1.878890e+003
         vertex 2.050792e+003 1.341636e+003 1.878958e+003
      endloop
   endfacet
   facet normal 7.083034e-001 -1.627484e-001 -6.868910e-001
      outer loop
         vertex 2.050292e+003 1.341549e+003 1.878466e+003
         vertex 2.050792e+003 1.341636e+003 1.878958e+003
         vertex 2.050292e+003 1.340707e+003 1.878691e+003
      endloop
   endfacet
   facet normal 7.083035e-001 -2.025012e-001 -6.762393e-001
      outer loop
         vertex 2.050292e+003 1.340707e+003 1.878691e+003
         vertex 2.050792e+003 1.341636e+003 1.878958e+003
         vertex 2.050792e+003 1.340878e+003 1.879161e+003
      endloop
   endfacet
   facet normal 7.083035e-001 -2.795533e-001 -6.481946e-001
      outer loop
         vertex 2.050292e+003 1.340707e+003 1.878691e+003
         vertex 2.050792e+003 1.340878e+003 1.879161e+003
         vertex 2.050292e+003 1.339917e+003 1.879060e+003
      endloop
   endfacet
   facet normal 7.083034e-001 -3.168525e-001 -6.308017e-001
      outer loop
         vertex 2.050292e+003 1.339917e+003 1.879060e+003
         vertex 2.050792e+003 1.340878e+003 1.879161e+003
         vertex 2.050792e+003 1.340167e+003 1.879493e+003
      endloop
   endfacet
   facet normal 7.083035e-001 -3.878641e-001 -5.898032e-001
      outer loop
         vertex 2.050292e+003 1.339917e+003 1.879060e+003
         vertex 2.050792e+003 1.340167e+003 1.879493e+003
         vertex 2.050292e+003 1.339203e+003 1.879560e+003
      endloop
   endfacet
   facet normal 7.083035e-001 -4.215764e-001 -5.661975e-001
      outer loop
         vertex 2.050292e+003 1.339203e+003 1.879560e+003
         vertex 2.050792e+003 1.340167e+003 1.879493e+003
         vertex 2.050792e+003 1.339525e+003 1.879943e+003
      endloop
   endfacet
   facet normal 7.083035e-001 -4.843898e-001 -5.134908e-001
      outer loop
         vertex 2.050292e+003 1.339203e+003 1.879560e+003
         vertex 2.050792e+003 1.339525e+003 1.879943e+003
         vertex 2.050292e+003 1.338587e+003 1.880176e+003
      endloop
   endfacet
   facet normal 7.083035e-001 -5.134908e-001 -4.843898e-001
      outer loop
         vertex 2.050292e+003 1.338587e+003 1.880176e+003
         vertex 2.050792e+003 1.339525e+003 1.879943e+003
         vertex 2.050792e+003 1.338970e+003 1.880497e+003
      endloop
   endfacet
   facet normal 7.083035e-001 -5.661975e-001 -4.215764e-001
      outer loop
         vertex 2.050292e+003 1.338587e+003 1.880176e+003
         vertex 2.050792e+003 1.338970e+003 1.880497e+003
         vertex 2.050292e+003 1.338087e+003 1.880890e+003
      endloop
   endfacet
   facet normal 7.083035e-001 -5.898032e-001 -3.878641e-001
      outer loop
         vertex 2.050292e+003 1.338087e+003 1.880890e+003
         vertex 2.050792e+003 1.338970e+003 1.880497e+003
         vertex 2.050792e+003 1.338520e+003 1.881140e+003
      endloop
   endfacet
   facet normal 7.083034e-001 -6.308017e-001 -3.168525e-001
      outer loop
         vertex 2.050292e+003 1.338087e+003 1.880890e+003
         vertex 2.050792e+003 1.338520e+003 1.881140e+003
         vertex 2.050292e+003 1.337719e+003 1.881680e+003
      endloop
   endfacet
   facet normal 7.083035e-001 -6.481946e-001 -2.795533e-001
      outer loop
         vertex 2.050292e+003 1.337719e+003 1.881680e+003
         vertex 2.050792e+003 1.338520e+003 1.881140e+003
         vertex 2.050792e+003 1.338189e+003 1.881851e+003
      endloop
   endfacet
   facet normal 7.083035e-001 -6.762393e-001 -2.025012e-001
      outer loop
         vertex 2.050292e+003 1.337719e+003 1.881680e+003
         vertex 2.050792e+003 1.338189e+003 1.881851e+003
         vertex 2.050292e+003 1.337493e+003 1.882522e+003
      endloop
   endfacet
   facet normal 7.083034e-001 -6.868910e-001 -1.627484e-001
      outer loop
         vertex 2.050292e+003 1.337493e+003 1.882522e+003
         vertex 2.050792e+003 1.338189e+003 1.881851e+003
         vertex 2.050792e+003 1.337986e+003 1.882609e+003
      endloop
   endfacet
   facet normal 7.083034e-001 -7.011296e-001 -8.199707e-002
      outer loop
         vertex 2.050292e+003 1.337493e+003 1.882522e+003
         vertex 2.050792e+003 1.337986e+003 1.882609e+003
         vertex 2.050292e+003 1.337417e+003 1.883390e+003
      endloop
   endfacet
   facet normal 7.083035e-001 -7.047165e-001 -4.099854e-002
      outer loop
         vertex 2.050292e+003 1.337417e+003 1.883390e+003
         vertex 2.050792e+003 1.337986e+003 1.882609e+003
         vertex 2.050792e+003 1.337917e+003 1.883390e+003
      endloop
   endfacet
   facet normal 7.083035e-001 -7.047165e-001 4.099854e-002
      outer loop
         vertex 2.050292e+003 1.337417e+003 1.883390e+003
         vertex 2.050792e+003 1.337917e+003 1.883390e+003
         vertex 2.050292e+003 1.337493e+003 1.884258e+003
      endloop
   endfacet
   facet normal 7.083034e-001 -7.011296e-001 8.199707e-002
      outer loop
         vertex 2.050292e+003 1.337493e+003 1.884258e+003
         vertex 2.050792e+003 1.337917e+003 1.883390e+003
         vertex 2.050792e+003 1.337986e+003 1.884171e+003
      endloop
   endfacet
   facet normal 1.000000e+000 6.022468e-017 -1.145443e-016
      outer loop
         vertex 2.046792e+003 1.346748e+003 1.880890e+003
         vertex 2.046792e+003 1.338087e+003 1.880890e+003
         vertex 2.046792e+003 1.346248e+003 1.880176e+003
      endloop
   endfacet
   facet normal 1.000000e+000 6.022468e-017 -1.145443e-016
      outer loop
         vertex 2.046792e+003 1.346248e+003 1.880176e+003
         vertex 2.046792e+003 1.338087e+003 1.880890e+003
         vertex 2.046792e+003 1.338587e+003 1.880176e+003
      endloop
   endfacet
   facet normal 1.000000e+000 6.022468e-017 -1.145443e-016
      outer loop
         vertex 2.046792e+003 1.346248e+003 1.880176e+003
         vertex 2.046792e+003 1.338587e+003 1.880176e+003
         vertex 2.046792e+003 1.345631e+003 1.879560e+003
      endloop
   endfacet
   facet normal 1.000000e+000 6.022468e-017 -1.145443e-016
      outer loop
         vertex 2.046792e+003 1.345631e+003 1.879560e+003
         vertex 2.046792e+003 1.338587e+003 1.880176e+003
         vertex 2.046792e+003 1.339203e+003 1.879560e+003
      endloop
   endfacet
   facet normal 1.000000e+000 6.022468e-017 -1.145443e-016
      outer loop
         vertex 2.046792e+003 1.345631e+003 1.879560e+003
         vertex 2.046792e+003 1.339203e+003 1.879560e+003
         vertex 2.046792e+003 1.344917e+003 1.879060e+003
      endloop
   endfacet
   facet normal 1.000000e+000 6.022468e-017 -1.145443e-016
      outer loop
         vertex 2.046792e+003 1.344917e+003 1.879060e+003
         vertex 2.046792e+003 1.339203e+003 1.879560e+003
         vertex 2.046792e+003 1.339917e+003 1.879060e+003
      endloop
   endfacet
   facet normal 1.000000e+000 6.022468e-017 -1.145443e-016
      outer loop
         vertex 2.046792e+003 1.344917e+003 1.879060e+003
         vertex 2.046792e+003 1.339917e+003 1.879060e+003
         vertex 2.046792e+003 1.344127e+003 1.878691e+003
      endloop
   endfacet
   facet normal 1.000000e+000 6.022468e-017 -1.145443e-016
      outer loop
         vertex 2.046792e+003 1.344127e+003 1.878691e+003
         vertex 2.046792e+003 1.339917e+003 1.879060e+003
         vertex 2.046792e+003 1.340707e+003 1.878691e+003
      endloop
   endfacet
   facet normal 1.000000e+000 6.022468e-017 -1.145443e-016
      outer loop
         vertex 2.046792e+003 1.344127e+003 1.878691e+003
         vertex 2.046792e+003 1.340707e+003 1.878691e+003
         vertex 2.046792e+003 1.343286e+003 1.878466e+003
      endloop
   endfacet
   facet normal 1.000000e+000 6.022468e-017 -1.145443e-016
      outer loop
         vertex 2.046792e+003 1.343286e+003 1.878466e+003
         vertex 2.046792e+003 1.340707e+003 1.878691e+003
         vertex 2.046792e+003 1.341549e+003 1.878466e+003
      endloop
   endfacet
   facet normal 1.000000e+000 6.022468e-017 -1.145443e-016
      outer loop
         vertex 2.046792e+003 1.343286e+003 1.878466e+003
         vertex 2.046792e+003 1.341549e+003 1.878466e+003
         vertex 2.046792e+003 1.342417e+003 1.878390e+003
      endloop
   endfacet
   facet normal -1.000000e+000 -6.022468e-017 1.145443e-016
      outer loop
         vertex 2.049792e+003 1.338087e+003 1.880890e+003
         vertex 2.049792e+003 1.346748e+003 1.880890e+003
         vertex 2.049792e+003 1.346248e+003 1.880176e+003
      endloop
   endfacet
   facet normal -1.000000e+000 -6.022468e-017 1.145443e-016
      outer loop
         vertex 2.049792e+003 1.338587e+003 1.880176e+003
         vertex 2.049792e+003 1.338087e+003 1.880890e+003
         vertex 2.049792e+003 1.339203e+003 1.879560e+003
      endloop
   endfacet
   facet normal -1.000000e+000 -6.022468e-017 1.145443e-016
      outer loop
         vertex 2.049792e+003 1.339203e+003 1.879560e+003
         vertex 2.049792e+003 1.338087e+003 1.880890e+003
         vertex 2.049792e+003 1.346248e+003 1.880176e+003
      endloop
   endfacet
   facet normal -1.000000e+000 -6.022468e-017 1.145443e-016
      outer loop
         vertex 2.049792e+003 1.339203e+003 1.879560e+003
         vertex 2.049792e+003 1.346248e+003 1.880176e+003
         vertex 2.049792e+003 1.339917e+003 1.879060e+003
      endloop
   endfacet
   facet normal -1.000000e+000 -6.022468e-017 1.145443e-016
      outer loop
         vertex 2.049792e+003 1.345631e+003 1.879560e+003
         vertex 2.049792e+003 1.344917e+003 1.879060e+003
         vertex 2.049792e+003 1.346248e+003 1.880176e+003
      endloop
   endfacet
   facet normal -1.000000e+000 -6.022468e-017 1.145443e-016
      outer loop
         vertex 2.049792e+003 1.346248e+003 1.880176e+003
         vertex 2.049792e+003 1.344917e+003 1.879060e+003
         vertex 2.049792e+003 1.344127e+003 1.878691e+003
      endloop
   endfacet
   facet normal -1.000000e+000 -6.022468e-017 1.145443e-016
      outer loop
         vertex 2.049792e+003 1.340707e+003 1.878691e+003
         vertex 2.049792e+003 1.339917e+003 1.879060e+003
         vertex 2.049792e+003 1.341549e+003 1.878466e+003
      endloop
   endfacet
   facet normal -1.000000e+000 -6.022468e-017 1.145443e-016
      outer loop
         vertex 2.049792e+003 1.341549e+003 1.878466e+003
         vertex 2.049792e+003 1.339917e+003 1.879060e+003
         vertex 2.049792e+003 1.346248e+003 1.880176e+003
      endloop
   endfacet
   facet normal -1.000000e+000 -6.022468e-017 1.145443e-016
      outer loop
         vertex 2.049792e+003 1.341549e+003 1.878466e+003
         vertex 2.049792e+003 1.346248e+003 1.880176e+003
         vertex 2.049792e+003 1.342417e+003 1.878390e+003
      endloop
   endfacet
   facet normal -1.000000e+000 -6.022468e-017 1.145443e-016
      outer loop
         vertex 2.049792e+003 1.342417e+003 1.878390e+003
         vertex 2.049792e+003 1.346248e+003 1.880176e+003
         vertex 2.049792e+003 1.344127e+003 1.878691e+003
      endloop
   endfacet
   facet normal -1.000000e+000 -6.022468e-017 1.145443e-016
      outer loop
         vertex 2.049792e+003 1.342417e+003 1.878390e+003
         vertex 2.049792e+003 1.344127e+003 1.878691e+003
         vertex 2.049792e+003 1.343286e+003 1.878466e+003
      endloop
   endfacet
   facet normal -8.787774e-017 -6.690164e-016 -1.000000e+000
      outer loop
         vertex 2.049792e+003 1.346748e+003 1.880890e+003
         vertex 2.049792e+003 1.338087e+003 1.880890e+003
         vertex 2.046792e+003 1.346748e+003 1.880890e+003
      endloop
   endfacet
   facet normal -8.787774e-017 -6.690164e-016 -1.000000e+000
      outer loop
         vertex 2.046792e+003 1.346748e+003 1.880890e+003
         vertex 2.049792e+003 1.338087e+003 1.880890e+003
         vertex 2.046792e+003 1.338087e+003 1.880890e+003
      endloop
   endfacet
endsolid