solid 09.025.00.00.000 - 09.025.00.08.000-2 09.025.00.08.008-2
   facet normal 3.515347e-016 1.000000e+000 -2.206199e-005
      outer loop
         vertex 2.041292e+003 5.554188e+002 1.948390e+003
         vertex 2.041292e+003 5.554171e+002 1.873390e+003
         vertex 2.033292e+003 5.554188e+002 1.948390e+003
      endloop
   endfacet
   facet normal 3.515347e-016 1.000000e+000 -2.206199e-005
      outer loop
         vertex 2.033292e+003 5.554188e+002 1.948390e+003
         vertex 2.041292e+003 5.554171e+002 1.873390e+003
         vertex 2.033292e+003 5.554171e+002 1.873390e+003
      endloop
   endfacet
   facet normal -1.518086e-016 2.206199e-005 1.000000e+000
      outer loop
         vertex 2.041292e+003 5.334188e+002 1.948390e+003
         vertex 2.041292e+003 5.554188e+002 1.948390e+003
         vertex 2.033292e+003 5.334188e+002 1.948390e+003
      endloop
   endfacet
   facet normal -1.518086e-016 2.206199e-005 1.000000e+000
      outer loop
         vertex 2.033292e+003 5.334188e+002 1.948390e+003
         vertex 2.041292e+003 5.554188e+002 1.948390e+003
         vertex 2.033292e+003 5.554188e+002 1.948390e+003
      endloop
   endfacet
   facet normal -3.515347e-016 -1.000000e+000 2.206199e-005
      outer loop
         vertex 2.041292e+003 5.334172e+002 1.877390e+003
         vertex 2.041292e+003 5.334188e+002 1.948390e+003
         vertex 2.033292e+003 5.334172e+002 1.877390e+003
      endloop
   endfacet
   facet normal -3.515347e-016 -1.000000e+000 2.206199e-005
      outer loop
         vertex 2.033292e+003 5.334172e+002 1.877390e+003
         vertex 2.041292e+003 5.334188e+002 1.948390e+003
         vertex 2.033292e+003 5.334188e+002 1.948390e+003
      endloop
   endfacet
   facet normal 1.518086e-016 -2.206199e-005 -1.000000e+000
      outer loop
         vertex 2.033292e+003 5.374171e+002 1.873390e+003
         vertex 2.033292e+003 5.554171e+002 1.873390e+003
         vertex 2.041292e+003 5.374171e+002 1.873390e+003
      endloop
   endfacet
   facet normal 1.518086e-016 -2.206199e-005 -1.000000e+000
      outer loop
         vertex 2.041292e+003 5.374171e+002 1.873390e+003
         vertex 2.033292e+003 5.554171e+002 1.873390e+003
         vertex 2.041292e+003 5.554171e+002 1.873390e+003
      endloop
   endfacet
   facet normal 1.000000e+000 -3.619397e-016 1.251498e-016
      outer loop
         vertex 2.041292e+003 5.423651e+002 1.877752e+003
         vertex 2.041292e+003 5.374171e+002 1.873390e+003
         vertex 2.041292e+003 5.433753e+002 1.877481e+003
      endloop
   endfacet
   facet normal 1.000000e+000 -3.619397e-016 1.251498e-016
      outer loop
         vertex 2.041292e+003 5.433753e+002 1.877481e+003
         vertex 2.041292e+003 5.374171e+002 1.873390e+003
         vertex 2.041292e+003 5.444172e+002 1.877390e+003
      endloop
   endfacet
   facet normal 1.000000e+000 -3.619397e-016 1.251498e-016
      outer loop
         vertex 2.041292e+003 5.398223e+002 1.941247e+003
         vertex 2.041292e+003 5.405619e+002 1.941986e+003
         vertex 2.041292e+003 5.334188e+002 1.948390e+003
      endloop
   endfacet
   facet normal 1.000000e+000 -3.619397e-016 1.251498e-016
      outer loop
         vertex 2.041292e+003 5.334188e+002 1.948390e+003
         vertex 2.041292e+003 5.405619e+002 1.941986e+003
         vertex 2.041292e+003 5.414186e+002 1.942586e+003
      endloop
   endfacet
   facet normal 1.000000e+000 -3.619397e-016 1.251498e-016
      outer loop
         vertex 2.041292e+003 5.444172e+002 1.877390e+003
         vertex 2.041292e+003 5.374171e+002 1.873390e+003
         vertex 2.041292e+003 5.454591e+002 1.877481e+003
      endloop
   endfacet
   facet normal 1.000000e+000 -3.619397e-016 1.251498e-016
      outer loop
         vertex 2.041292e+003 5.454591e+002 1.877481e+003
         vertex 2.041292e+003 5.374171e+002 1.873390e+003
         vertex 2.041292e+003 5.554171e+002 1.873390e+003
      endloop
   endfacet
   facet normal 1.000000e+000 -3.619397e-016 1.251498e-016
      outer loop
         vertex 2.041292e+003 5.454591e+002 1.877481e+003
         vertex 2.041292e+003 5.554171e+002 1.873390e+003
         vertex 2.041292e+003 5.464694e+002 1.877752e+003
      endloop
   endfacet
   facet normal 1.000000e+000 -3.619397e-016 1.251498e-016
      outer loop
         vertex 2.041292e+003 5.392211e+002 1.880390e+003
         vertex 2.041292e+003 5.387791e+002 1.881338e+003
         vertex 2.041292e+003 5.334172e+002 1.877390e+003
      endloop
   endfacet
   facet normal 1.000000e+000 -3.619397e-016 1.251498e-016
      outer loop
         vertex 2.041292e+003 5.334172e+002 1.877390e+003
         vertex 2.041292e+003 5.387791e+002 1.881338e+003
         vertex 2.041292e+003 5.385085e+002 1.882348e+003
      endloop
   endfacet
   facet normal 1.000000e+000 -3.619397e-016 1.251498e-016
      outer loop
         vertex 2.041292e+003 5.385097e+002 1.938432e+003
         vertex 2.041292e+003 5.387804e+002 1.939442e+003
         vertex 2.041292e+003 5.334188e+002 1.948390e+003
      endloop
   endfacet
   facet normal 1.000000e+000 -3.619397e-016 1.251498e-016
      outer loop
         vertex 2.041292e+003 5.334188e+002 1.948390e+003
         vertex 2.041292e+003 5.387804e+002 1.939442e+003
         vertex 2.041292e+003 5.392224e+002 1.940390e+003
      endloop
   endfacet
   facet normal 1.000000e+000 -3.619397e-016 1.251498e-016
      outer loop
         vertex 2.041292e+003 5.334188e+002 1.948390e+003
         vertex 2.041292e+003 5.392224e+002 1.940390e+003
         vertex 2.041292e+003 5.398223e+002 1.941247e+003
      endloop
   endfacet
   facet normal 1.000000e+000 -3.619397e-016 1.251498e-016
      outer loop
         vertex 2.041292e+003 5.490135e+002 1.879533e+003
         vertex 2.041292e+003 5.482740e+002 1.878794e+003
         vertex 2.041292e+003 5.554171e+002 1.873390e+003
      endloop
   endfacet
   facet normal 1.000000e+000 -3.619397e-016 1.251498e-016
      outer loop
         vertex 2.041292e+003 5.554171e+002 1.873390e+003
         vertex 2.041292e+003 5.482740e+002 1.878794e+003
         vertex 2.041292e+003 5.474172e+002 1.878194e+003
      endloop
   endfacet
   facet normal 1.000000e+000 -3.619397e-016 1.251498e-016
      outer loop
         vertex 2.041292e+003 5.554171e+002 1.873390e+003
         vertex 2.041292e+003 5.474172e+002 1.878194e+003
         vertex 2.041292e+003 5.464694e+002 1.877752e+003
      endloop
   endfacet
   facet normal 1.000000e+000 -3.619397e-016 1.251498e-016
      outer loop
         vertex 2.041292e+003 5.444186e+002 1.943390e+003
         vertex 2.041292e+003 5.554188e+002 1.948390e+003
         vertex 2.041292e+003 5.433768e+002 1.943299e+003
      endloop
   endfacet
   facet normal 1.000000e+000 -3.619397e-016 1.251498e-016
      outer loop
         vertex 2.041292e+003 5.433768e+002 1.943299e+003
         vertex 2.041292e+003 5.554188e+002 1.948390e+003
         vertex 2.041292e+003 5.334188e+002 1.948390e+003
      endloop
   endfacet
   facet normal 1.000000e+000 -3.619397e-016 1.251498e-016
      outer loop
         vertex 2.041292e+003 5.433768e+002 1.943299e+003
         vertex 2.041292e+003 5.334188e+002 1.948390e+003
         vertex 2.041292e+003 5.423665e+002 1.943028e+003
      endloop
   endfacet
   facet normal 1.000000e+000 -3.619397e-016 1.251498e-016
      outer loop
         vertex 2.041292e+003 5.423665e+002 1.943028e+003
         vertex 2.041292e+003 5.334188e+002 1.948390e+003
         vertex 2.041292e+003 5.414186e+002 1.942586e+003
      endloop
   endfacet
   facet normal 1.000000e+000 -3.619397e-016 1.251498e-016
      outer loop
         vertex 2.041292e+003 5.423651e+002 1.877752e+003
         vertex 2.041292e+003 5.414172e+002 1.878194e+003
         vertex 2.041292e+003 5.374171e+002 1.873390e+003
      endloop
   endfacet
   facet normal 1.000000e+000 -3.619397e-016 1.251498e-016
      outer loop
         vertex 2.041292e+003 5.374171e+002 1.873390e+003
         vertex 2.041292e+003 5.414172e+002 1.878194e+003
         vertex 2.041292e+003 5.405605e+002 1.878794e+003
      endloop
   endfacet
   facet normal 1.000000e+000 -3.619397e-016 1.251498e-016
      outer loop
         vertex 2.041292e+003 5.374171e+002 1.873390e+003
         vertex 2.041292e+003 5.405605e+002 1.878794e+003
         vertex 2.041292e+003 5.334172e+002 1.877390e+003
      endloop
   endfacet
   facet normal 1.000000e+000 -3.619397e-016 1.251498e-016
      outer loop
         vertex 2.041292e+003 5.334172e+002 1.877390e+003
         vertex 2.041292e+003 5.405605e+002 1.878794e+003
         vertex 2.041292e+003 5.398210e+002 1.879533e+003
      endloop
   endfacet
   facet normal 1.000000e+000 -3.619397e-016 1.251498e-016
      outer loop
         vertex 2.041292e+003 5.334172e+002 1.877390e+003
         vertex 2.041292e+003 5.398210e+002 1.879533e+003
         vertex 2.041292e+003 5.392211e+002 1.880390e+003
      endloop
   endfacet
   facet normal 1.000000e+000 -3.619397e-016 1.251498e-016
      outer loop
         vertex 2.041292e+003 5.554188e+002 1.948390e+003
         vertex 2.041292e+003 5.474186e+002 1.942586e+003
         vertex 2.041292e+003 5.482753e+002 1.941986e+003
      endloop
   endfacet
   facet normal 1.000000e+000 -3.619397e-016 1.251498e-016
      outer loop
         vertex 2.041292e+003 5.334172e+002 1.877390e+003
         vertex 2.041292e+003 5.398221e+002 1.933533e+003
         vertex 2.041292e+003 5.392223e+002 1.934390e+003
      endloop
   endfacet
   facet normal 1.000000e+000 -3.619397e-016 1.251498e-016
      outer loop
         vertex 2.041292e+003 5.444186e+002 1.943390e+003
         vertex 2.041292e+003 5.454605e+002 1.943299e+003
         vertex 2.041292e+003 5.554188e+002 1.948390e+003
      endloop
   endfacet
   facet normal 1.000000e+000 -3.619397e-016 1.251498e-016
      outer loop
         vertex 2.041292e+003 5.554188e+002 1.948390e+003
         vertex 2.041292e+003 5.454605e+002 1.943299e+003
         vertex 2.041292e+003 5.464708e+002 1.943028e+003
      endloop
   endfacet
   facet normal 1.000000e+000 -3.619397e-016 1.251498e-016
      outer loop
         vertex 2.041292e+003 5.554188e+002 1.948390e+003
         vertex 2.041292e+003 5.464708e+002 1.943028e+003
         vertex 2.041292e+003 5.474186e+002 1.942586e+003
      endloop
   endfacet
   facet normal 1.000000e+000 -3.619397e-016 1.251498e-016
      outer loop
         vertex 2.041292e+003 5.482753e+002 1.941986e+003
         vertex 2.041292e+003 5.490149e+002 1.941246e+003
         vertex 2.041292e+003 5.554188e+002 1.948390e+003
      endloop
   endfacet
   facet normal 1.000000e+000 -3.619397e-016 1.251498e-016
      outer loop
         vertex 2.041292e+003 5.554188e+002 1.948390e+003
         vertex 2.041292e+003 5.490149e+002 1.941246e+003
         vertex 2.041292e+003 5.496147e+002 1.940390e+003
      endloop
   endfacet
   facet normal 1.000000e+000 -3.619397e-016 1.251498e-016
      outer loop
         vertex 2.041292e+003 5.554188e+002 1.948390e+003
         vertex 2.041292e+003 5.496147e+002 1.940390e+003
         vertex 2.041292e+003 5.500567e+002 1.939442e+003
      endloop
   endfacet
   facet normal 1.000000e+000 -3.619397e-016 1.251498e-016
      outer loop
         vertex 2.041292e+003 5.385085e+002 1.882348e+003
         vertex 2.041292e+003 5.384174e+002 1.883390e+003
         vertex 2.041292e+003 5.334172e+002 1.877390e+003
      endloop
   endfacet
   facet normal 1.000000e+000 -3.619397e-016 1.251498e-016
      outer loop
         vertex 2.041292e+003 5.334172e+002 1.877390e+003
         vertex 2.041292e+003 5.384174e+002 1.883390e+003
         vertex 2.041292e+003 5.385085e+002 1.884432e+003
      endloop
   endfacet
   facet normal 1.000000e+000 -3.619397e-016 1.251498e-016
      outer loop
         vertex 2.041292e+003 5.334172e+002 1.877390e+003
         vertex 2.041292e+003 5.385085e+002 1.884432e+003
         vertex 2.041292e+003 5.423663e+002 1.931752e+003
      endloop
   endfacet
   facet normal 1.000000e+000 -3.619397e-016 1.251498e-016
      outer loop
         vertex 2.041292e+003 5.423663e+002 1.931752e+003
         vertex 2.041292e+003 5.414185e+002 1.932194e+003
         vertex 2.041292e+003 5.334172e+002 1.877390e+003
      endloop
   endfacet
   facet normal 1.000000e+000 -3.619397e-016 1.251498e-016
      outer loop
         vertex 2.041292e+003 5.334172e+002 1.877390e+003
         vertex 2.041292e+003 5.414185e+002 1.932194e+003
         vertex 2.041292e+003 5.405616e+002 1.932794e+003
      endloop
   endfacet
   facet normal 1.000000e+000 -3.619397e-016 1.251498e-016
      outer loop
         vertex 2.041292e+003 5.334172e+002 1.877390e+003
         vertex 2.041292e+003 5.405616e+002 1.932794e+003
         vertex 2.041292e+003 5.398221e+002 1.933533e+003
      endloop
   endfacet
   facet normal 1.000000e+000 -3.619397e-016 1.251498e-016
      outer loop
         vertex 2.041292e+003 5.423653e+002 1.889028e+003
         vertex 2.041292e+003 5.433755e+002 1.889299e+003
         vertex 2.041292e+003 5.423663e+002 1.931752e+003
      endloop
   endfacet
   facet normal 1.000000e+000 -3.619397e-016 1.251498e-016
      outer loop
         vertex 2.041292e+003 5.392223e+002 1.934390e+003
         vertex 2.041292e+003 5.387803e+002 1.935338e+003
         vertex 2.041292e+003 5.334172e+002 1.877390e+003
      endloop
   endfacet
   facet normal 1.000000e+000 -3.619397e-016 1.251498e-016
      outer loop
         vertex 2.041292e+003 5.334172e+002 1.877390e+003
         vertex 2.041292e+003 5.387803e+002 1.935338e+003
         vertex 2.041292e+003 5.385096e+002 1.936348e+003
      endloop
   endfacet
   facet normal 1.000000e+000 -3.619397e-016 1.251498e-016
      outer loop
         vertex 2.041292e+003 5.334172e+002 1.877390e+003
         vertex 2.041292e+003 5.385096e+002 1.936348e+003
         vertex 2.041292e+003 5.334188e+002 1.948390e+003
      endloop
   endfacet
   facet normal 1.000000e+000 -3.619397e-016 1.251498e-016
      outer loop
         vertex 2.041292e+003 5.334188e+002 1.948390e+003
         vertex 2.041292e+003 5.385096e+002 1.936348e+003
         vertex 2.041292e+003 5.384185e+002 1.937390e+003
      endloop
   endfacet
   facet normal 1.000000e+000 -3.619397e-016 1.251498e-016
      outer loop
         vertex 2.041292e+003 5.334188e+002 1.948390e+003
         vertex 2.041292e+003 5.384185e+002 1.937390e+003
         vertex 2.041292e+003 5.385097e+002 1.938432e+003
      endloop
   endfacet
   facet normal 1.000000e+000 -3.619397e-016 1.251498e-016
      outer loop
         vertex 2.041292e+003 5.500566e+002 1.935338e+003
         vertex 2.041292e+003 5.496146e+002 1.934390e+003
         vertex 2.041292e+003 5.554171e+002 1.873390e+003
      endloop
   endfacet
   facet normal 1.000000e+000 -3.619397e-016 1.251498e-016
      outer loop
         vertex 2.041292e+003 5.554171e+002 1.873390e+003
         vertex 2.041292e+003 5.496146e+002 1.934390e+003
         vertex 2.041292e+003 5.490147e+002 1.933533e+003
      endloop
   endfacet
   facet normal 1.000000e+000 -3.619397e-016 1.251498e-016
      outer loop
         vertex 2.041292e+003 5.554171e+002 1.873390e+003
         vertex 2.041292e+003 5.490147e+002 1.933533e+003
         vertex 2.041292e+003 5.482751e+002 1.932794e+003
      endloop
   endfacet
   facet normal 1.000000e+000 -3.619397e-016 1.251498e-016
      outer loop
         vertex 2.041292e+003 5.423663e+002 1.931752e+003
         vertex 2.041292e+003 5.433755e+002 1.889299e+003
         vertex 2.041292e+003 5.433765e+002 1.931481e+003
      endloop
   endfacet
   facet normal 1.000000e+000 -3.619397e-016 1.251498e-016
      outer loop
         vertex 2.041292e+003 5.500567e+002 1.939442e+003
         vertex 2.041292e+003 5.503274e+002 1.938432e+003
         vertex 2.041292e+003 5.554188e+002 1.948390e+003
      endloop
   endfacet
   facet normal 1.000000e+000 -3.619397e-016 1.251498e-016
      outer loop
         vertex 2.041292e+003 5.554188e+002 1.948390e+003
         vertex 2.041292e+003 5.503274e+002 1.938432e+003
         vertex 2.041292e+003 5.504185e+002 1.937390e+003
      endloop
   endfacet
   facet normal 1.000000e+000 -3.619397e-016 1.251498e-016
      outer loop
         vertex 2.041292e+003 5.554188e+002 1.948390e+003
         vertex 2.041292e+003 5.504185e+002 1.937390e+003
         vertex 2.041292e+003 5.554171e+002 1.873390e+003
      endloop
   endfacet
   facet normal 1.000000e+000 -3.619397e-016 1.251498e-016
      outer loop
         vertex 2.041292e+003 5.554171e+002 1.873390e+003
         vertex 2.041292e+003 5.504185e+002 1.937390e+003
         vertex 2.041292e+003 5.503273e+002 1.936348e+003
      endloop
   endfacet
   facet normal 1.000000e+000 -3.619397e-016 1.251498e-016
      outer loop
         vertex 2.041292e+003 5.554171e+002 1.873390e+003
         vertex 2.041292e+003 5.503273e+002 1.936348e+003
         vertex 2.041292e+003 5.500566e+002 1.935338e+003
      endloop
   endfacet
   facet normal 1.000000e+000 -3.619397e-016 1.251498e-016
      outer loop
         vertex 2.041292e+003 5.385085e+002 1.884432e+003
         vertex 2.041292e+003 5.387792e+002 1.885442e+003
         vertex 2.041292e+003 5.423663e+002 1.931752e+003
      endloop
   endfacet
   facet normal 1.000000e+000 -3.619397e-016 1.251498e-016
      outer loop
         vertex 2.041292e+003 5.423663e+002 1.931752e+003
         vertex 2.041292e+003 5.387792e+002 1.885442e+003
         vertex 2.041292e+003 5.392213e+002 1.886390e+003
      endloop
   endfacet
   facet normal 1.000000e+000 -3.619397e-016 1.251498e-016
      outer loop
         vertex 2.041292e+003 5.423663e+002 1.931752e+003
         vertex 2.041292e+003 5.392213e+002 1.886390e+003
         vertex 2.041292e+003 5.398212e+002 1.887247e+003
      endloop
   endfacet
   facet normal 1.000000e+000 -3.619397e-016 1.251498e-016
      outer loop
         vertex 2.041292e+003 5.398212e+002 1.887247e+003
         vertex 2.041292e+003 5.405607e+002 1.887986e+003
         vertex 2.041292e+003 5.423663e+002 1.931752e+003
      endloop
   endfacet
   facet normal 1.000000e+000 -3.619397e-016 1.251498e-016
      outer loop
         vertex 2.041292e+003 5.423663e+002 1.931752e+003
         vertex 2.041292e+003 5.405607e+002 1.887986e+003
         vertex 2.041292e+003 5.414174e+002 1.888586e+003
      endloop
   endfacet
   facet normal 1.000000e+000 -3.619397e-016 1.251498e-016
      outer loop
         vertex 2.041292e+003 5.423663e+002 1.931752e+003
         vertex 2.041292e+003 5.414174e+002 1.888586e+003
         vertex 2.041292e+003 5.423653e+002 1.889028e+003
      endloop
   endfacet
   facet normal 1.000000e+000 -3.619397e-016 1.251498e-016
      outer loop
         vertex 2.041292e+003 5.474175e+002 1.888586e+003
         vertex 2.041292e+003 5.482742e+002 1.887986e+003
         vertex 2.041292e+003 5.464705e+002 1.931752e+003
      endloop
   endfacet
   facet normal 1.000000e+000 -3.619397e-016 1.251498e-016
      outer loop
         vertex 2.041292e+003 5.464705e+002 1.931752e+003
         vertex 2.041292e+003 5.482742e+002 1.887986e+003
         vertex 2.041292e+003 5.490137e+002 1.887247e+003
      endloop
   endfacet
   facet normal 1.000000e+000 -3.619397e-016 1.251498e-016
      outer loop
         vertex 2.041292e+003 5.464705e+002 1.931752e+003
         vertex 2.041292e+003 5.490137e+002 1.887247e+003
         vertex 2.041292e+003 5.496135e+002 1.886390e+003
      endloop
   endfacet
   facet normal 1.000000e+000 -3.619397e-016 1.251498e-016
      outer loop
         vertex 2.041292e+003 5.433765e+002 1.931481e+003
         vertex 2.041292e+003 5.433755e+002 1.889299e+003
         vertex 2.041292e+003 5.444184e+002 1.931390e+003
      endloop
   endfacet
   facet normal 1.000000e+000 -3.619397e-016 1.251498e-016
      outer loop
         vertex 2.041292e+003 5.444184e+002 1.931390e+003
         vertex 2.041292e+003 5.433755e+002 1.889299e+003
         vertex 2.041292e+003 5.444174e+002 1.889390e+003
      endloop
   endfacet
   facet normal 1.000000e+000 -3.619397e-016 1.251498e-016
      outer loop
         vertex 2.041292e+003 5.444184e+002 1.931390e+003
         vertex 2.041292e+003 5.444174e+002 1.889390e+003
         vertex 2.041292e+003 5.454603e+002 1.931481e+003
      endloop
   endfacet
   facet normal 1.000000e+000 -3.619397e-016 1.251498e-016
      outer loop
         vertex 2.041292e+003 5.454603e+002 1.931481e+003
         vertex 2.041292e+003 5.444174e+002 1.889390e+003
         vertex 2.041292e+003 5.454594e+002 1.889299e+003
      endloop
   endfacet
   facet normal 1.000000e+000 -3.619397e-016 1.251498e-016
      outer loop
         vertex 2.041292e+003 5.454603e+002 1.931481e+003
         vertex 2.041292e+003 5.454594e+002 1.889299e+003
         vertex 2.041292e+003 5.464705e+002 1.931752e+003
      endloop
   endfacet
   facet normal 1.000000e+000 -3.619397e-016 1.251498e-016
      outer loop
         vertex 2.041292e+003 5.464705e+002 1.931752e+003
         vertex 2.041292e+003 5.454594e+002 1.889299e+003
         vertex 2.041292e+003 5.464695e+002 1.889028e+003
      endloop
   endfacet
   facet normal 1.000000e+000 -3.619397e-016 1.251498e-016
      outer loop
         vertex 2.041292e+003 5.464705e+002 1.931752e+003
         vertex 2.041292e+003 5.464695e+002 1.889028e+003
         vertex 2.041292e+003 5.474175e+002 1.888586e+003
      endloop
   endfacet
   facet normal 1.000000e+000 -3.619397e-016 1.251498e-016
      outer loop
         vertex 2.041292e+003 5.496135e+002 1.886390e+003
         vertex 2.041292e+003 5.500555e+002 1.885442e+003
         vertex 2.041292e+003 5.464705e+002 1.931752e+003
      endloop
   endfacet
   facet normal 1.000000e+000 -3.619397e-016 1.251498e-016
      outer loop
         vertex 2.041292e+003 5.464705e+002 1.931752e+003
         vertex 2.041292e+003 5.500555e+002 1.885442e+003
         vertex 2.041292e+003 5.554171e+002 1.873390e+003
      endloop
   endfacet
   facet normal 1.000000e+000 -3.619397e-016 1.251498e-016
      outer loop
         vertex 2.041292e+003 5.464705e+002 1.931752e+003
         vertex 2.041292e+003 5.554171e+002 1.873390e+003
         vertex 2.041292e+003 5.474184e+002 1.932194e+003
      endloop
   endfacet
   facet normal 1.000000e+000 -3.619397e-016 1.251498e-016
      outer loop
         vertex 2.041292e+003 5.474184e+002 1.932194e+003
         vertex 2.041292e+003 5.554171e+002 1.873390e+003
         vertex 2.041292e+003 5.482751e+002 1.932794e+003
      endloop
   endfacet
   facet normal 1.000000e+000 -3.619397e-016 1.251498e-016
      outer loop
         vertex 2.041292e+003 5.500555e+002 1.885442e+003
         vertex 2.041292e+003 5.503262e+002 1.884432e+003
         vertex 2.041292e+003 5.554171e+002 1.873390e+003
      endloop
   endfacet
   facet normal 1.000000e+000 -3.619397e-016 1.251498e-016
      outer loop
         vertex 2.041292e+003 5.554171e+002 1.873390e+003
         vertex 2.041292e+003 5.503262e+002 1.884432e+003
         vertex 2.041292e+003 5.504173e+002 1.883390e+003
      endloop
   endfacet
   facet normal 1.000000e+000 -3.619397e-016 1.251498e-016
      outer loop
         vertex 2.041292e+003 5.554171e+002 1.873390e+003
         vertex 2.041292e+003 5.504173e+002 1.883390e+003
         vertex 2.041292e+003 5.503262e+002 1.882348e+003
      endloop
   endfacet
   facet normal 1.000000e+000 -3.619397e-016 1.251498e-016
      outer loop
         vertex 2.041292e+003 5.503262e+002 1.882348e+003
         vertex 2.041292e+003 5.500554e+002 1.881338e+003
         vertex 2.041292e+003 5.554171e+002 1.873390e+003
      endloop
   endfacet
   facet normal 1.000000e+000 -3.619397e-016 1.251498e-016
      outer loop
         vertex 2.041292e+003 5.554171e+002 1.873390e+003
         vertex 2.041292e+003 5.500554e+002 1.881338e+003
         vertex 2.041292e+003 5.496134e+002 1.880390e+003
      endloop
   endfacet
   facet normal 1.000000e+000 -3.619397e-016 1.251498e-016
      outer loop
         vertex 2.041292e+003 5.554171e+002 1.873390e+003
         vertex 2.041292e+003 5.496134e+002 1.880390e+003
         vertex 2.041292e+003 5.490135e+002 1.879533e+003
      endloop
   endfacet
   facet normal -1.000000e+000 3.619397e-016 -1.251498e-016
      outer loop
         vertex 2.033292e+003 5.464694e+002 1.877752e+003
         vertex 2.033292e+003 5.474172e+002 1.878194e+003
         vertex 2.033292e+003 5.554171e+002 1.873390e+003
      endloop
   endfacet
   facet normal -1.000000e+000 3.619397e-016 -1.251498e-016
      outer loop
         vertex 2.033292e+003 5.554171e+002 1.873390e+003
         vertex 2.033292e+003 5.474172e+002 1.878194e+003
         vertex 2.033292e+003 5.482740e+002 1.878794e+003
      endloop
   endfacet
   facet normal -1.000000e+000 3.619397e-016 -1.251498e-016
      outer loop
         vertex 2.033292e+003 5.554171e+002 1.873390e+003
         vertex 2.033292e+003 5.482740e+002 1.878794e+003
         vertex 2.033292e+003 5.490135e+002 1.879533e+003
      endloop
   endfacet
   facet normal -1.000000e+000 3.619397e-016 -1.251498e-016
      outer loop
         vertex 2.033292e+003 5.414172e+002 1.878194e+003
         vertex 2.033292e+003 5.423651e+002 1.877752e+003
         vertex 2.033292e+003 5.374171e+002 1.873390e+003
      endloop
   endfacet
   facet normal -1.000000e+000 3.619397e-016 -1.251498e-016
      outer loop
         vertex 2.033292e+003 5.554171e+002 1.873390e+003
         vertex 2.033292e+003 5.464705e+002 1.931752e+003
         vertex 2.033292e+003 5.474184e+002 1.932194e+003
      endloop
   endfacet
   facet normal -1.000000e+000 3.619397e-016 -1.251498e-016
      outer loop
         vertex 2.033292e+003 5.423651e+002 1.877752e+003
         vertex 2.033292e+003 5.433753e+002 1.877481e+003
         vertex 2.033292e+003 5.374171e+002 1.873390e+003
      endloop
   endfacet
   facet normal -1.000000e+000 3.619397e-016 -1.251498e-016
      outer loop
         vertex 2.033292e+003 5.374171e+002 1.873390e+003
         vertex 2.033292e+003 5.433753e+002 1.877481e+003
         vertex 2.033292e+003 5.444172e+002 1.877390e+003
      endloop
   endfacet
   facet normal -1.000000e+000 3.619397e-016 -1.251498e-016
      outer loop
         vertex 2.033292e+003 5.374171e+002 1.873390e+003
         vertex 2.033292e+003 5.444172e+002 1.877390e+003
         vertex 2.033292e+003 5.554171e+002 1.873390e+003
      endloop
   endfacet
   facet normal -1.000000e+000 3.619397e-016 -1.251498e-016
      outer loop
         vertex 2.033292e+003 5.554171e+002 1.873390e+003
         vertex 2.033292e+003 5.444172e+002 1.877390e+003
         vertex 2.033292e+003 5.454591e+002 1.877481e+003
      endloop
   endfacet
   facet normal -1.000000e+000 3.619397e-016 -1.251498e-016
      outer loop
         vertex 2.033292e+003 5.554171e+002 1.873390e+003
         vertex 2.033292e+003 5.454591e+002 1.877481e+003
         vertex 2.033292e+003 5.464694e+002 1.877752e+003
      endloop
   endfacet
   facet normal -1.000000e+000 3.619397e-016 -1.251498e-016
      outer loop
         vertex 2.033292e+003 5.490135e+002 1.879533e+003
         vertex 2.033292e+003 5.496134e+002 1.880390e+003
         vertex 2.033292e+003 5.554171e+002 1.873390e+003
      endloop
   endfacet
   facet normal -1.000000e+000 3.619397e-016 -1.251498e-016
      outer loop
         vertex 2.033292e+003 5.554171e+002 1.873390e+003
         vertex 2.033292e+003 5.496134e+002 1.880390e+003
         vertex 2.033292e+003 5.500554e+002 1.881338e+003
      endloop
   endfacet
   facet normal -1.000000e+000 3.619397e-016 -1.251498e-016
      outer loop
         vertex 2.033292e+003 5.554171e+002 1.873390e+003
         vertex 2.033292e+003 5.500554e+002 1.881338e+003
         vertex 2.033292e+003 5.503262e+002 1.882348e+003
      endloop
   endfacet
   facet normal -1.000000e+000 3.619397e-016 -1.251498e-016
      outer loop
         vertex 2.033292e+003 5.433768e+002 1.943299e+003
         vertex 2.033292e+003 5.423665e+002 1.943028e+003
         vertex 2.033292e+003 5.334188e+002 1.948390e+003
      endloop
   endfacet
   facet normal -1.000000e+000 3.619397e-016 -1.251498e-016
      outer loop
         vertex 2.033292e+003 5.334188e+002 1.948390e+003
         vertex 2.033292e+003 5.423665e+002 1.943028e+003
         vertex 2.033292e+003 5.414186e+002 1.942586e+003
      endloop
   endfacet
   facet normal -1.000000e+000 3.619397e-016 -1.251498e-016
      outer loop
         vertex 2.033292e+003 5.334188e+002 1.948390e+003
         vertex 2.033292e+003 5.414186e+002 1.942586e+003
         vertex 2.033292e+003 5.405619e+002 1.941986e+003
      endloop
   endfacet
   facet normal -1.000000e+000 3.619397e-016 -1.251498e-016
      outer loop
         vertex 2.033292e+003 5.496147e+002 1.940390e+003
         vertex 2.033292e+003 5.554188e+002 1.948390e+003
         vertex 2.033292e+003 5.500567e+002 1.939442e+003
      endloop
   endfacet
   facet normal -1.000000e+000 3.619397e-016 -1.251498e-016
      outer loop
         vertex 2.033292e+003 5.500567e+002 1.939442e+003
         vertex 2.033292e+003 5.554188e+002 1.948390e+003
         vertex 2.033292e+003 5.503274e+002 1.938432e+003
      endloop
   endfacet
   facet normal -1.000000e+000 3.619397e-016 -1.251498e-016
      outer loop
         vertex 2.033292e+003 5.474184e+002 1.932194e+003
         vertex 2.033292e+003 5.482751e+002 1.932794e+003
         vertex 2.033292e+003 5.554171e+002 1.873390e+003
      endloop
   endfacet
   facet normal -1.000000e+000 3.619397e-016 -1.251498e-016
      outer loop
         vertex 2.033292e+003 5.554171e+002 1.873390e+003
         vertex 2.033292e+003 5.482751e+002 1.932794e+003
         vertex 2.033292e+003 5.490147e+002 1.933533e+003
      endloop
   endfacet
   facet normal -1.000000e+000 3.619397e-016 -1.251498e-016
      outer loop
         vertex 2.033292e+003 5.554171e+002 1.873390e+003
         vertex 2.033292e+003 5.490147e+002 1.933533e+003
         vertex 2.033292e+003 5.496146e+002 1.934390e+003
      endloop
   endfacet
   facet normal -1.000000e+000 3.619397e-016 -1.251498e-016
      outer loop
         vertex 2.033292e+003 5.496147e+002 1.940390e+003
         vertex 2.033292e+003 5.490149e+002 1.941246e+003
         vertex 2.033292e+003 5.554188e+002 1.948390e+003
      endloop
   endfacet
   facet normal -1.000000e+000 3.619397e-016 -1.251498e-016
      outer loop
         vertex 2.033292e+003 5.554188e+002 1.948390e+003
         vertex 2.033292e+003 5.490149e+002 1.941246e+003
         vertex 2.033292e+003 5.482753e+002 1.941986e+003
      endloop
   endfacet
   facet normal -1.000000e+000 3.619397e-016 -1.251498e-016
      outer loop
         vertex 2.033292e+003 5.554188e+002 1.948390e+003
         vertex 2.033292e+003 5.482753e+002 1.941986e+003
         vertex 2.033292e+003 5.474186e+002 1.942586e+003
      endloop
   endfacet
   facet normal -1.000000e+000 3.619397e-016 -1.251498e-016
      outer loop
         vertex 2.033292e+003 5.474186e+002 1.942586e+003
         vertex 2.033292e+003 5.464708e+002 1.943028e+003
         vertex 2.033292e+003 5.554188e+002 1.948390e+003
      endloop
   endfacet
   facet normal -1.000000e+000 3.619397e-016 -1.251498e-016
      outer loop
         vertex 2.033292e+003 5.554188e+002 1.948390e+003
         vertex 2.033292e+003 5.464708e+002 1.943028e+003
         vertex 2.033292e+003 5.454605e+002 1.943299e+003
      endloop
   endfacet
   facet normal -1.000000e+000 3.619397e-016 -1.251498e-016
      outer loop
         vertex 2.033292e+003 5.554188e+002 1.948390e+003
         vertex 2.033292e+003 5.454605e+002 1.943299e+003
         vertex 2.033292e+003 5.334188e+002 1.948390e+003
      endloop
   endfacet
   facet normal -1.000000e+000 3.619397e-016 -1.251498e-016
      outer loop
         vertex 2.033292e+003 5.334188e+002 1.948390e+003
         vertex 2.033292e+003 5.454605e+002 1.943299e+003
         vertex 2.033292e+003 5.444186e+002 1.943390e+003
      endloop
   endfacet
   facet normal -1.000000e+000 3.619397e-016 -1.251498e-016
      outer loop
         vertex 2.033292e+003 5.334188e+002 1.948390e+003
         vertex 2.033292e+003 5.444186e+002 1.943390e+003
         vertex 2.033292e+003 5.433768e+002 1.943299e+003
      endloop
   endfacet
   facet normal -1.000000e+000 3.619397e-016 -1.251498e-016
      outer loop
         vertex 2.033292e+003 5.496146e+002 1.934390e+003
         vertex 2.033292e+003 5.500566e+002 1.935338e+003
         vertex 2.033292e+003 5.554171e+002 1.873390e+003
      endloop
   endfacet
   facet normal -1.000000e+000 3.619397e-016 -1.251498e-016
      outer loop
         vertex 2.033292e+003 5.554171e+002 1.873390e+003
         vertex 2.033292e+003 5.500566e+002 1.935338e+003
         vertex 2.033292e+003 5.503273e+002 1.936348e+003
      endloop
   endfacet
   facet normal -1.000000e+000 3.619397e-016 -1.251498e-016
      outer loop
         vertex 2.033292e+003 5.554171e+002 1.873390e+003
         vertex 2.033292e+003 5.503273e+002 1.936348e+003
         vertex 2.033292e+003 5.554188e+002 1.948390e+003
      endloop
   endfacet
   facet normal -1.000000e+000 3.619397e-016 -1.251498e-016
      outer loop
         vertex 2.033292e+003 5.554188e+002 1.948390e+003
         vertex 2.033292e+003 5.503273e+002 1.936348e+003
         vertex 2.033292e+003 5.504185e+002 1.937390e+003
      endloop
   endfacet
   facet normal -1.000000e+000 3.619397e-016 -1.251498e-016
      outer loop
         vertex 2.033292e+003 5.554188e+002 1.948390e+003
         vertex 2.033292e+003 5.504185e+002 1.937390e+003
         vertex 2.033292e+003 5.503274e+002 1.938432e+003
      endloop
   endfacet
   facet normal -1.000000e+000 3.619397e-016 -1.251498e-016
      outer loop
         vertex 2.033292e+003 5.405619e+002 1.941986e+003
         vertex 2.033292e+003 5.398223e+002 1.941247e+003
         vertex 2.033292e+003 5.334188e+002 1.948390e+003
      endloop
   endfacet
   facet normal -1.000000e+000 3.619397e-016 -1.251498e-016
      outer loop
         vertex 2.033292e+003 5.334188e+002 1.948390e+003
         vertex 2.033292e+003 5.398223e+002 1.941247e+003
         vertex 2.033292e+003 5.392224e+002 1.940390e+003
      endloop
   endfacet
   facet normal -1.000000e+000 3.619397e-016 -1.251498e-016
      outer loop
         vertex 2.033292e+003 5.334188e+002 1.948390e+003
         vertex 2.033292e+003 5.392224e+002 1.940390e+003
         vertex 2.033292e+003 5.387804e+002 1.939442e+003
      endloop
   endfacet
   facet normal -1.000000e+000 3.619397e-016 -1.251498e-016
      outer loop
         vertex 2.033292e+003 5.398221e+002 1.933533e+003
         vertex 2.033292e+003 5.334172e+002 1.877390e+003
         vertex 2.033292e+003 5.392223e+002 1.934390e+003
      endloop
   endfacet
   facet normal -1.000000e+000 3.619397e-016 -1.251498e-016
      outer loop
         vertex 2.033292e+003 5.392223e+002 1.934390e+003
         vertex 2.033292e+003 5.334172e+002 1.877390e+003
         vertex 2.033292e+003 5.387803e+002 1.935338e+003
      endloop
   endfacet
   facet normal -1.000000e+000 3.619397e-016 -1.251498e-016
      outer loop
         vertex 2.033292e+003 5.398221e+002 1.933533e+003
         vertex 2.033292e+003 5.405616e+002 1.932794e+003
         vertex 2.033292e+003 5.334172e+002 1.877390e+003
      endloop
   endfacet
   facet normal -1.000000e+000 3.619397e-016 -1.251498e-016
      outer loop
         vertex 2.033292e+003 5.334172e+002 1.877390e+003
         vertex 2.033292e+003 5.405616e+002 1.932794e+003
         vertex 2.033292e+003 5.414185e+002 1.932194e+003
      endloop
   endfacet
   facet normal -1.000000e+000 3.619397e-016 -1.251498e-016
      outer loop
         vertex 2.033292e+003 5.334172e+002 1.877390e+003
         vertex 2.033292e+003 5.414185e+002 1.932194e+003
         vertex 2.033292e+003 5.423663e+002 1.931752e+003
      endloop
   endfacet
   facet normal -1.000000e+000 3.619397e-016 -1.251498e-016
      outer loop
         vertex 2.033292e+003 5.496135e+002 1.886390e+003
         vertex 2.033292e+003 5.490137e+002 1.887247e+003
         vertex 2.033292e+003 5.464705e+002 1.931752e+003
      endloop
   endfacet
   facet normal -1.000000e+000 3.619397e-016 -1.251498e-016
      outer loop
         vertex 2.033292e+003 5.464705e+002 1.931752e+003
         vertex 2.033292e+003 5.490137e+002 1.887247e+003
         vertex 2.033292e+003 5.482742e+002 1.887986e+003
      endloop
   endfacet
   facet normal -1.000000e+000 3.619397e-016 -1.251498e-016
      outer loop
         vertex 2.033292e+003 5.387791e+002 1.881338e+003
         vertex 2.033292e+003 5.334172e+002 1.877390e+003
         vertex 2.033292e+003 5.385085e+002 1.882348e+003
      endloop
   endfacet
   facet normal -1.000000e+000 3.619397e-016 -1.251498e-016
      outer loop
         vertex 2.033292e+003 5.385085e+002 1.882348e+003
         vertex 2.033292e+003 5.334172e+002 1.877390e+003
         vertex 2.033292e+003 5.384174e+002 1.883390e+003
      endloop
   endfacet
   facet normal -1.000000e+000 3.619397e-016 -1.251498e-016
      outer loop
         vertex 2.033292e+003 5.387791e+002 1.881338e+003
         vertex 2.033292e+003 5.392211e+002 1.880390e+003
         vertex 2.033292e+003 5.334172e+002 1.877390e+003
      endloop
   endfacet
   facet normal -1.000000e+000 3.619397e-016 -1.251498e-016
      outer loop
         vertex 2.033292e+003 5.334172e+002 1.877390e+003
         vertex 2.033292e+003 5.392211e+002 1.880390e+003
         vertex 2.033292e+003 5.398210e+002 1.879533e+003
      endloop
   endfacet
   facet normal -1.000000e+000 3.619397e-016 -1.251498e-016
      outer loop
         vertex 2.033292e+003 5.334172e+002 1.877390e+003
         vertex 2.033292e+003 5.398210e+002 1.879533e+003
         vertex 2.033292e+003 5.374171e+002 1.873390e+003
      endloop
   endfacet
   facet normal -1.000000e+000 3.619397e-016 -1.251498e-016
      outer loop
         vertex 2.033292e+003 5.374171e+002 1.873390e+003
         vertex 2.033292e+003 5.398210e+002 1.879533e+003
         vertex 2.033292e+003 5.405605e+002 1.878794e+003
      endloop
   endfacet
   facet normal -1.000000e+000 3.619397e-016 -1.251498e-016
      outer loop
         vertex 2.033292e+003 5.374171e+002 1.873390e+003
         vertex 2.033292e+003 5.405605e+002 1.878794e+003
         vertex 2.033292e+003 5.414172e+002 1.878194e+003
      endloop
   endfacet
   facet normal -1.000000e+000 3.619397e-016 -1.251498e-016
      outer loop
         vertex 2.033292e+003 5.503262e+002 1.882348e+003
         vertex 2.033292e+003 5.504173e+002 1.883390e+003
         vertex 2.033292e+003 5.554171e+002 1.873390e+003
      endloop
   endfacet
   facet normal -1.000000e+000 3.619397e-016 -1.251498e-016
      outer loop
         vertex 2.033292e+003 5.554171e+002 1.873390e+003
         vertex 2.033292e+003 5.504173e+002 1.883390e+003
         vertex 2.033292e+003 5.503262e+002 1.884432e+003
      endloop
   endfacet
   facet normal -1.000000e+000 3.619397e-016 -1.251498e-016
      outer loop
         vertex 2.033292e+003 5.554171e+002 1.873390e+003
         vertex 2.033292e+003 5.503262e+002 1.884432e+003
         vertex 2.033292e+003 5.464705e+002 1.931752e+003
      endloop
   endfacet
   facet normal -1.000000e+000 3.619397e-016 -1.251498e-016
      outer loop
         vertex 2.033292e+003 5.464705e+002 1.931752e+003
         vertex 2.033292e+003 5.503262e+002 1.884432e+003
         vertex 2.033292e+003 5.500555e+002 1.885442e+003
      endloop
   endfacet
   facet normal -1.000000e+000 3.619397e-016 -1.251498e-016
      outer loop
         vertex 2.033292e+003 5.464705e+002 1.931752e+003
         vertex 2.033292e+003 5.500555e+002 1.885442e+003
         vertex 2.033292e+003 5.496135e+002 1.886390e+003
      endloop
   endfacet
   facet normal -1.000000e+000 3.619397e-016 -1.251498e-016
      outer loop
         vertex 2.033292e+003 5.482742e+002 1.887986e+003
         vertex 2.033292e+003 5.474175e+002 1.888586e+003
         vertex 2.033292e+003 5.464705e+002 1.931752e+003
      endloop
   endfacet
   facet normal -1.000000e+000 3.619397e-016 -1.251498e-016
      outer loop
         vertex 2.033292e+003 5.464705e+002 1.931752e+003
         vertex 2.033292e+003 5.474175e+002 1.888586e+003
         vertex 2.033292e+003 5.464695e+002 1.889028e+003
      endloop
   endfacet
   facet normal -1.000000e+000 3.619397e-016 -1.251498e-016
      outer loop
         vertex 2.033292e+003 5.464705e+002 1.931752e+003
         vertex 2.033292e+003 5.464695e+002 1.889028e+003
         vertex 2.033292e+003 5.454594e+002 1.889299e+003
      endloop
   endfacet
   facet normal -1.000000e+000 3.619397e-016 -1.251498e-016
      outer loop
         vertex 2.033292e+003 5.423653e+002 1.889028e+003
         vertex 2.033292e+003 5.414174e+002 1.888586e+003
         vertex 2.033292e+003 5.423663e+002 1.931752e+003
      endloop
   endfacet
   facet normal -1.000000e+000 3.619397e-016 -1.251498e-016
      outer loop
         vertex 2.033292e+003 5.423663e+002 1.931752e+003
         vertex 2.033292e+003 5.414174e+002 1.888586e+003
         vertex 2.033292e+003 5.405607e+002 1.887986e+003
      endloop
   endfacet
   facet normal -1.000000e+000 3.619397e-016 -1.251498e-016
      outer loop
         vertex 2.033292e+003 5.423663e+002 1.931752e+003
         vertex 2.033292e+003 5.405607e+002 1.887986e+003
         vertex 2.033292e+003 5.398212e+002 1.887247e+003
      endloop
   endfacet
   facet normal -1.000000e+000 3.619397e-016 -1.251498e-016
      outer loop
         vertex 2.033292e+003 5.387804e+002 1.939442e+003
         vertex 2.033292e+003 5.385097e+002 1.938432e+003
         vertex 2.033292e+003 5.334188e+002 1.948390e+003
      endloop
   endfacet
   facet normal -1.000000e+000 3.619397e-016 -1.251498e-016
      outer loop
         vertex 2.033292e+003 5.334188e+002 1.948390e+003
         vertex 2.033292e+003 5.385097e+002 1.938432e+003
         vertex 2.033292e+003 5.384185e+002 1.937390e+003
      endloop
   endfacet
   facet normal -1.000000e+000 3.619397e-016 -1.251498e-016
      outer loop
         vertex 2.033292e+003 5.334188e+002 1.948390e+003
         vertex 2.033292e+003 5.384185e+002 1.937390e+003
         vertex 2.033292e+003 5.334172e+002 1.877390e+003
      endloop
   endfacet
   facet normal -1.000000e+000 3.619397e-016 -1.251498e-016
      outer loop
         vertex 2.033292e+003 5.334172e+002 1.877390e+003
         vertex 2.033292e+003 5.384185e+002 1.937390e+003
         vertex 2.033292e+003 5.385096e+002 1.936348e+003
      endloop
   endfacet
   facet normal -1.000000e+000 3.619397e-016 -1.251498e-016
      outer loop
         vertex 2.033292e+003 5.334172e+002 1.877390e+003
         vertex 2.033292e+003 5.385096e+002 1.936348e+003
         vertex 2.033292e+003 5.387803e+002 1.935338e+003
      endloop
   endfacet
   facet normal -1.000000e+000 3.619397e-016 -1.251498e-016
      outer loop
         vertex 2.033292e+003 5.423653e+002 1.889028e+003
         vertex 2.033292e+003 5.423663e+002 1.931752e+003
         vertex 2.033292e+003 5.433755e+002 1.889299e+003
      endloop
   endfacet
   facet normal -1.000000e+000 3.619397e-016 -1.251498e-016
      outer loop
         vertex 2.033292e+003 5.433755e+002 1.889299e+003
         vertex 2.033292e+003 5.423663e+002 1.931752e+003
         vertex 2.033292e+003 5.433765e+002 1.931481e+003
      endloop
   endfacet
   facet normal -1.000000e+000 3.619397e-016 -1.251498e-016
      outer loop
         vertex 2.033292e+003 5.433755e+002 1.889299e+003
         vertex 2.033292e+003 5.433765e+002 1.931481e+003
         vertex 2.033292e+003 5.444174e+002 1.889390e+003
      endloop
   endfacet
   facet normal -1.000000e+000 3.619397e-016 -1.251498e-016
      outer loop
         vertex 2.033292e+003 5.444174e+002 1.889390e+003
         vertex 2.033292e+003 5.433765e+002 1.931481e+003
         vertex 2.033292e+003 5.444184e+002 1.931390e+003
      endloop
   endfacet
   facet normal -1.000000e+000 3.619397e-016 -1.251498e-016
      outer loop
         vertex 2.033292e+003 5.444174e+002 1.889390e+003
         vertex 2.033292e+003 5.444184e+002 1.931390e+003
         vertex 2.033292e+003 5.454594e+002 1.889299e+003
      endloop
   endfacet
   facet normal -1.000000e+000 3.619397e-016 -1.251498e-016
      outer loop
         vertex 2.033292e+003 5.454594e+002 1.889299e+003
         vertex 2.033292e+003 5.444184e+002 1.931390e+003
         vertex 2.033292e+003 5.454603e+002 1.931481e+003
      endloop
   endfacet
   facet normal -1.000000e+000 3.619397e-016 -1.251498e-016
      outer loop
         vertex 2.033292e+003 5.454594e+002 1.889299e+003
         vertex 2.033292e+003 5.454603e+002 1.931481e+003
         vertex 2.033292e+003 5.464705e+002 1.931752e+003
      endloop
   endfacet
   facet normal -1.000000e+000 3.619397e-016 -1.251498e-016
      outer loop
         vertex 2.033292e+003 5.398212e+002 1.887247e+003
         vertex 2.033292e+003 5.392213e+002 1.886390e+003
         vertex 2.033292e+003 5.423663e+002 1.931752e+003
      endloop
   endfacet
   facet normal -1.000000e+000 3.619397e-016 -1.251498e-016
      outer loop
         vertex 2.033292e+003 5.423663e+002 1.931752e+003
         vertex 2.033292e+003 5.392213e+002 1.886390e+003
         vertex 2.033292e+003 5.387792e+002 1.885442e+003
      endloop
   endfacet
   facet normal -1.000000e+000 3.619397e-016 -1.251498e-016
      outer loop
         vertex 2.033292e+003 5.423663e+002 1.931752e+003
         vertex 2.033292e+003 5.387792e+002 1.885442e+003
         vertex 2.033292e+003 5.334172e+002 1.877390e+003
      endloop
   endfacet
   facet normal -1.000000e+000 3.619397e-016 -1.251498e-016
      outer loop
         vertex 2.033292e+003 5.334172e+002 1.877390e+003
         vertex 2.033292e+003 5.387792e+002 1.885442e+003
         vertex 2.033292e+003 5.385085e+002 1.884432e+003
      endloop
   endfacet
   facet normal -1.000000e+000 3.619397e-016 -1.251498e-016
      outer loop
         vertex 2.033292e+003 5.334172e+002 1.877390e+003
         vertex 2.033292e+003 5.385085e+002 1.884432e+003
         vertex 2.033292e+003 5.384174e+002 1.883390e+003
      endloop
   endfacet
   facet normal 3.597582e-016 9.983107e-001 -5.810116e-002
      outer loop
         vertex 2.033292e+003 5.385085e+002 1.884432e+003
         vertex 2.041292e+003 5.384174e+002 1.883390e+003
         vertex 2.033292e+003 5.384174e+002 1.883390e+003
      endloop
   endfacet
   facet normal 3.421244e-016 9.983132e-001 5.805711e-002
      outer loop
         vertex 2.033292e+003 5.384174e+002 1.883390e+003
         vertex 2.041292e+003 5.384174e+002 1.883390e+003
         vertex 2.041292e+003 5.385085e+002 1.882348e+003
      endloop
   endfacet
   facet normal 3.315212e-016 9.932333e-001 1.161364e-001
      outer loop
         vertex 2.033292e+003 5.384174e+002 1.883390e+003
         vertex 2.041292e+003 5.385085e+002 1.882348e+003
         vertex 2.033292e+003 5.385085e+002 1.882348e+003
      endloop
   endfacet
   facet normal 3.070646e-016 9.730651e-001 2.305304e-001
      outer loop
         vertex 2.033292e+003 5.385085e+002 1.882348e+003
         vertex 2.041292e+003 5.385085e+002 1.882348e+003
         vertex 2.041292e+003 5.387791e+002 1.881338e+003
      endloop
   endfacet
   facet normal 2.932111e-016 9.579769e-001 2.868451e-001
      outer loop
         vertex 2.033292e+003 5.385085e+002 1.882348e+003
         vertex 2.041292e+003 5.387791e+002 1.881338e+003
         vertex 2.033292e+003 5.387791e+002 1.881338e+003
      endloop
   endfacet
   facet normal 2.626748e-016 9.182509e-001 3.959991e-001
      outer loop
         vertex 2.033292e+003 5.387791e+002 1.881338e+003
         vertex 2.041292e+003 5.387791e+002 1.881338e+003
         vertex 2.041292e+003 5.392211e+002 1.880390e+003
      endloop
   endfacet
   facet normal 2.459920e-016 8.936130e-001 4.488383e-001
      outer loop
         vertex 2.033292e+003 5.387791e+002 1.881338e+003
         vertex 2.041292e+003 5.392211e+002 1.880390e+003
         vertex 2.033292e+003 5.392211e+002 1.880390e+003
      endloop
   endfacet
   facet normal 2.103038e-016 8.355361e-001 5.494356e-001
      outer loop
         vertex 2.033292e+003 5.392211e+002 1.880390e+003
         vertex 2.041292e+003 5.392211e+002 1.880390e+003
         vertex 2.041292e+003 5.398210e+002 1.879533e+003
      endloop
   endfacet
   facet normal 1.912985e-016 8.020971e-001 5.971937e-001
      outer loop
         vertex 2.033292e+003 5.392211e+002 1.880390e+003
         vertex 2.041292e+003 5.398210e+002 1.879533e+003
         vertex 2.033292e+003 5.398210e+002 1.879533e+003
      endloop
   endfacet
   facet normal 1.515428e-016 7.274339e-001 6.861777e-001
      outer loop
         vertex 2.033292e+003 5.398210e+002 1.879533e+003
         vertex 2.041292e+003 5.398210e+002 1.879533e+003
         vertex 2.041292e+003 5.405605e+002 1.878794e+003
      endloop
   endfacet
   facet normal 1.307925e-016 6.862098e-001 7.274036e-001
      outer loop
         vertex 2.033292e+003 5.398210e+002 1.879533e+003
         vertex 2.041292e+003 5.405605e+002 1.878794e+003
         vertex 2.033292e+003 5.405605e+002 1.878794e+003
      endloop
   endfacet
   facet normal 8.817725e-017 5.972291e-001 8.020707e-001
      outer loop
         vertex 2.033292e+003 5.405605e+002 1.878794e+003
         vertex 2.041292e+003 5.405605e+002 1.878794e+003
         vertex 2.041292e+003 5.414172e+002 1.878194e+003
      endloop
   endfacet
   facet normal 6.631238e-017 5.494724e-001 8.355119e-001
      outer loop
         vertex 2.033292e+003 5.405605e+002 1.878794e+003
         vertex 2.041292e+003 5.414172e+002 1.878194e+003
         vertex 2.033292e+003 5.414172e+002 1.878194e+003
      endloop
   endfacet
   facet normal 2.213248e-017 4.488777e-001 8.935932e-001
      outer loop
         vertex 2.033292e+003 5.414172e+002 1.878194e+003
         vertex 2.041292e+003 5.414172e+002 1.878194e+003
         vertex 2.041292e+003 5.423651e+002 1.877752e+003
      endloop
   endfacet
   facet normal -1.825489e-019 3.960396e-001 9.182334e-001
      outer loop
         vertex 2.033292e+003 5.414172e+002 1.878194e+003
         vertex 2.041292e+003 5.423651e+002 1.877752e+003
         vertex 2.033292e+003 5.423651e+002 1.877752e+003
      endloop
   endfacet
   facet normal -4.458477e-017 2.868874e-001 9.579643e-001
      outer loop
         vertex 2.033292e+003 5.423651e+002 1.877752e+003
         vertex 2.041292e+003 5.423651e+002 1.877752e+003
         vertex 2.041292e+003 5.433753e+002 1.877481e+003
      endloop
   endfacet
   facet normal -6.667196e-017 2.305733e-001 9.730549e-001
      outer loop
         vertex 2.033292e+003 5.423651e+002 1.877752e+003
         vertex 2.041292e+003 5.433753e+002 1.877481e+003
         vertex 2.033292e+003 5.433753e+002 1.877481e+003
      endloop
   endfacet
   facet normal -1.099473e-016 1.161802e-001 9.932281e-001
      outer loop
         vertex 2.033292e+003 5.433753e+002 1.877481e+003
         vertex 2.041292e+003 5.433753e+002 1.877481e+003
         vertex 2.041292e+003 5.444172e+002 1.877390e+003
      endloop
   endfacet
   facet normal -1.311356e-016 5.810116e-002 9.983107e-001
      outer loop
         vertex 2.033292e+003 5.433753e+002 1.877481e+003
         vertex 2.041292e+003 5.444172e+002 1.877390e+003
         vertex 2.033292e+003 5.444172e+002 1.877390e+003
      endloop
   endfacet
   facet normal -1.719692e-016 -5.805711e-002 9.983132e-001
      outer loop
         vertex 2.033292e+003 5.444172e+002 1.877390e+003
         vertex 2.041292e+003 5.444172e+002 1.877390e+003
         vertex 2.041292e+003 5.454591e+002 1.877481e+003
      endloop
   endfacet
   facet normal -1.916147e-016 -1.161364e-001 9.932333e-001
      outer loop
         vertex 2.033292e+003 5.444172e+002 1.877390e+003
         vertex 2.041292e+003 5.454591e+002 1.877481e+003
         vertex 2.033292e+003 5.454591e+002 1.877481e+003
      endloop
   endfacet
   facet normal -2.287659e-016 -2.305304e-001 9.730651e-001
      outer loop
         vertex 2.033292e+003 5.454591e+002 1.877481e+003
         vertex 2.041292e+003 5.454591e+002 1.877481e+003
         vertex 2.041292e+003 5.464694e+002 1.877752e+003
      endloop
   endfacet
   facet normal -2.462717e-016 -2.868451e-001 9.579769e-001
      outer loop
         vertex 2.033292e+003 5.454591e+002 1.877481e+003
         vertex 2.041292e+003 5.464694e+002 1.877752e+003
         vertex 2.033292e+003 5.464694e+002 1.877752e+003
      endloop
   endfacet
   facet normal -2.786117e-016 -3.959991e-001 9.182509e-001
      outer loop
         vertex 2.033292e+003 5.464694e+002 1.877752e+003
         vertex 2.041292e+003 5.464694e+002 1.877752e+003
         vertex 2.041292e+003 5.474172e+002 1.878194e+003
      endloop
   endfacet
   facet normal -2.934458e-016 -4.488383e-001 8.936130e-001
      outer loop
         vertex 2.033292e+003 5.464694e+002 1.877752e+003
         vertex 2.041292e+003 5.474172e+002 1.878194e+003
         vertex 2.033292e+003 5.474172e+002 1.878194e+003
      endloop
   endfacet
   facet normal -3.199919e-016 -5.494356e-001 8.355361e-001
      outer loop
         vertex 2.033292e+003 5.474172e+002 1.878194e+003
         vertex 2.041292e+003 5.474172e+002 1.878194e+003
         vertex 2.041292e+003 5.482740e+002 1.878794e+003
      endloop
   endfacet
   facet normal -3.317038e-016 -5.971937e-001 8.020971e-001
      outer loop
         vertex 2.033292e+003 5.474172e+002 1.878194e+003
         vertex 2.041292e+003 5.482740e+002 1.878794e+003
         vertex 2.033292e+003 5.482740e+002 1.878794e+003
      endloop
   endfacet
   facet normal -3.516494e-016 -6.861777e-001 7.274339e-001
      outer loop
         vertex 2.033292e+003 5.482740e+002 1.878794e+003
         vertex 2.041292e+003 5.482740e+002 1.878794e+003
         vertex 2.041292e+003 5.490135e+002 1.879533e+003
      endloop
   endfacet
   facet normal -3.598831e-016 -7.274036e-001 6.862098e-001
      outer loop
         vertex 2.033292e+003 5.482740e+002 1.878794e+003
         vertex 2.041292e+003 5.490135e+002 1.879533e+003
         vertex 2.033292e+003 5.490135e+002 1.879533e+003
      endloop
   endfacet
   facet normal -3.726222e-016 -8.020707e-001 5.972291e-001
      outer loop
         vertex 2.033292e+003 5.490135e+002 1.879533e+003
         vertex 2.041292e+003 5.490135e+002 1.879533e+003
         vertex 2.041292e+003 5.496134e+002 1.880390e+003
      endloop
   endfacet
   facet normal -3.771275e-016 -8.355119e-001 5.494724e-001
      outer loop
         vertex 2.033292e+003 5.490135e+002 1.879533e+003
         vertex 2.041292e+003 5.496134e+002 1.880390e+003
         vertex 2.033292e+003 5.496134e+002 1.880390e+003
      endloop
   endfacet
   facet normal -3.822730e-016 -8.935932e-001 4.488777e-001
      outer loop
         vertex 2.033292e+003 5.496134e+002 1.880390e+003
         vertex 2.041292e+003 5.496134e+002 1.880390e+003
         vertex 2.041292e+003 5.500554e+002 1.881338e+003
      endloop
   endfacet
   facet normal -3.829132e-016 -9.182334e-001 3.960396e-001
      outer loop
         vertex 2.033292e+003 5.496134e+002 1.880390e+003
         vertex 2.041292e+003 5.500554e+002 1.881338e+003
         vertex 2.033292e+003 5.500554e+002 1.881338e+003
      endloop
   endfacet
   facet normal -3.803087e-016 -9.579643e-001 2.868874e-001
      outer loop
         vertex 2.033292e+003 5.500554e+002 1.881338e+003
         vertex 2.041292e+003 5.500554e+002 1.881338e+003
         vertex 2.041292e+003 5.503262e+002 1.882348e+003
      endloop
   endfacet
   facet normal -3.770641e-016 -9.730549e-001 2.305733e-001
      outer loop
         vertex 2.033292e+003 5.500554e+002 1.881338e+003
         vertex 2.041292e+003 5.503262e+002 1.882348e+003
         vertex 2.033292e+003 5.503262e+002 1.882348e+003
      endloop
   endfacet
   facet normal -3.667889e-016 -9.932281e-001 1.161802e-001
      outer loop
         vertex 2.033292e+003 5.503262e+002 1.882348e+003
         vertex 2.041292e+003 5.503262e+002 1.882348e+003
         vertex 2.041292e+003 5.504173e+002 1.883390e+003
      endloop
   endfacet
   facet normal -3.597582e-016 -9.983107e-001 5.810116e-002
      outer loop
         vertex 2.033292e+003 5.503262e+002 1.882348e+003
         vertex 2.041292e+003 5.504173e+002 1.883390e+003
         vertex 2.033292e+003 5.504173e+002 1.883390e+003
      endloop
   endfacet
   facet normal -3.421244e-016 -9.983132e-001 -5.805711e-002
      outer loop
         vertex 2.033292e+003 5.504173e+002 1.883390e+003
         vertex 2.041292e+003 5.504173e+002 1.883390e+003
         vertex 2.041292e+003 5.503262e+002 1.884432e+003
      endloop
   endfacet
   facet normal -3.315212e-016 -9.932333e-001 -1.161364e-001
      outer loop
         vertex 2.033292e+003 5.504173e+002 1.883390e+003
         vertex 2.041292e+003 5.503262e+002 1.884432e+003
         vertex 2.033292e+003 5.503262e+002 1.884432e+003
      endloop
   endfacet
   facet normal -3.070646e-016 -9.730651e-001 -2.305304e-001
      outer loop
         vertex 2.033292e+003 5.503262e+002 1.884432e+003
         vertex 2.041292e+003 5.503262e+002 1.884432e+003
         vertex 2.041292e+003 5.500555e+002 1.885442e+003
      endloop
   endfacet
   facet normal -2.932111e-016 -9.579769e-001 -2.868451e-001
      outer loop
         vertex 2.033292e+003 5.503262e+002 1.884432e+003
         vertex 2.041292e+003 5.500555e+002 1.885442e+003
         vertex 2.033292e+003 5.500555e+002 1.885442e+003
      endloop
   endfacet
   facet normal -2.626748e-016 -9.182509e-001 -3.959991e-001
      outer loop
         vertex 2.033292e+003 5.500555e+002 1.885442e+003
         vertex 2.041292e+003 5.500555e+002 1.885442e+003
         vertex 2.041292e+003 5.496135e+002 1.886390e+003
      endloop
   endfacet
   facet normal -2.459920e-016 -8.936130e-001 -4.488383e-001
      outer loop
         vertex 2.033292e+003 5.500555e+002 1.885442e+003
         vertex 2.041292e+003 5.496135e+002 1.886390e+003
         vertex 2.033292e+003 5.496135e+002 1.886390e+003
      endloop
   endfacet
   facet normal -2.103038e-016 -8.355361e-001 -5.494356e-001
      outer loop
         vertex 2.033292e+003 5.496135e+002 1.886390e+003
         vertex 2.041292e+003 5.496135e+002 1.886390e+003
         vertex 2.041292e+003 5.490137e+002 1.887247e+003
      endloop
   endfacet
   facet normal -1.912985e-016 -8.020971e-001 -5.971937e-001
      outer loop
         vertex 2.033292e+003 5.496135e+002 1.886390e+003
         vertex 2.041292e+003 5.490137e+002 1.887247e+003
         vertex 2.033292e+003 5.490137e+002 1.887247e+003
      endloop
   endfacet
   facet normal -1.515428e-016 -7.274339e-001 -6.861777e-001
      outer loop
         vertex 2.033292e+003 5.490137e+002 1.887247e+003
         vertex 2.041292e+003 5.490137e+002 1.887247e+003
         vertex 2.041292e+003 5.482742e+002 1.887986e+003
      endloop
   endfacet
   facet normal -1.307925e-016 -6.862098e-001 -7.274036e-001
      outer loop
         vertex 2.033292e+003 5.490137e+002 1.887247e+003
         vertex 2.041292e+003 5.482742e+002 1.887986e+003
         vertex 2.033292e+003 5.482742e+002 1.887986e+003
      endloop
   endfacet
   facet normal -8.817725e-017 -5.972291e-001 -8.020707e-001
      outer loop
         vertex 2.033292e+003 5.482742e+002 1.887986e+003
         vertex 2.041292e+003 5.482742e+002 1.887986e+003
         vertex 2.041292e+003 5.474175e+002 1.888586e+003
      endloop
   endfacet
   facet normal -6.631238e-017 -5.494724e-001 -8.355119e-001
      outer loop
         vertex 2.033292e+003 5.482742e+002 1.887986e+003
         vertex 2.041292e+003 5.474175e+002 1.888586e+003
         vertex 2.033292e+003 5.474175e+002 1.888586e+003
      endloop
   endfacet
   facet normal -2.213248e-017 -4.488777e-001 -8.935932e-001
      outer loop
         vertex 2.033292e+003 5.474175e+002 1.888586e+003
         vertex 2.041292e+003 5.474175e+002 1.888586e+003
         vertex 2.041292e+003 5.464695e+002 1.889028e+003
      endloop
   endfacet
   facet normal 1.825489e-019 -3.960396e-001 -9.182334e-001
      outer loop
         vertex 2.033292e+003 5.474175e+002 1.888586e+003
         vertex 2.041292e+003 5.464695e+002 1.889028e+003
         vertex 2.033292e+003 5.464695e+002 1.889028e+003
      endloop
   endfacet
   facet normal 4.458477e-017 -2.868874e-001 -9.579643e-001
      outer loop
         vertex 2.033292e+003 5.464695e+002 1.889028e+003
         vertex 2.041292e+003 5.464695e+002 1.889028e+003
         vertex 2.041292e+003 5.454594e+002 1.889299e+003
      endloop
   endfacet
   facet normal 6.667196e-017 -2.305733e-001 -9.730549e-001
      outer loop
         vertex 2.033292e+003 5.464695e+002 1.889028e+003
         vertex 2.041292e+003 5.454594e+002 1.889299e+003
         vertex 2.033292e+003 5.454594e+002 1.889299e+003
      endloop
   endfacet
   facet normal 1.099473e-016 -1.161802e-001 -9.932281e-001
      outer loop
         vertex 2.033292e+003 5.454594e+002 1.889299e+003
         vertex 2.041292e+003 5.454594e+002 1.889299e+003
         vertex 2.041292e+003 5.444174e+002 1.889390e+003
      endloop
   endfacet
   facet normal 1.311356e-016 -5.810116e-002 -9.983107e-001
      outer loop
         vertex 2.033292e+003 5.454594e+002 1.889299e+003
         vertex 2.041292e+003 5.444174e+002 1.889390e+003
         vertex 2.033292e+003 5.444174e+002 1.889390e+003
      endloop
   endfacet
   facet normal 1.719692e-016 5.805711e-002 -9.983132e-001
      outer loop
         vertex 2.033292e+003 5.444174e+002 1.889390e+003
         vertex 2.041292e+003 5.444174e+002 1.889390e+003
         vertex 2.041292e+003 5.433755e+002 1.889299e+003
      endloop
   endfacet
   facet normal 1.916147e-016 1.161364e-001 -9.932333e-001
      outer loop
         vertex 2.033292e+003 5.444174e+002 1.889390e+003
         vertex 2.041292e+003 5.433755e+002 1.889299e+003
         vertex 2.033292e+003 5.433755e+002 1.889299e+003
      endloop
   endfacet
   facet normal 2.287659e-016 2.305304e-001 -9.730651e-001
      outer loop
         vertex 2.033292e+003 5.433755e+002 1.889299e+003
         vertex 2.041292e+003 5.433755e+002 1.889299e+003
         vertex 2.041292e+003 5.423653e+002 1.889028e+003
      endloop
   endfacet
   facet normal 2.462717e-016 2.868451e-001 -9.579769e-001
      outer loop
         vertex 2.033292e+003 5.433755e+002 1.889299e+003
         vertex 2.041292e+003 5.423653e+002 1.889028e+003
         vertex 2.033292e+003 5.423653e+002 1.889028e+003
      endloop
   endfacet
   facet normal 2.786117e-016 3.959991e-001 -9.182509e-001
      outer loop
         vertex 2.033292e+003 5.423653e+002 1.889028e+003
         vertex 2.041292e+003 5.423653e+002 1.889028e+003
         vertex 2.041292e+003 5.414174e+002 1.888586e+003
      endloop
   endfacet
   facet normal 2.934458e-016 4.488383e-001 -8.936130e-001
      outer loop
         vertex 2.033292e+003 5.423653e+002 1.889028e+003
         vertex 2.041292e+003 5.414174e+002 1.888586e+003
         vertex 2.033292e+003 5.414174e+002 1.888586e+003
      endloop
   endfacet
   facet normal 3.199919e-016 5.494356e-001 -8.355361e-001
      outer loop
         vertex 2.033292e+003 5.414174e+002 1.888586e+003
         vertex 2.041292e+003 5.414174e+002 1.888586e+003
         vertex 2.041292e+003 5.405607e+002 1.887986e+003
      endloop
   endfacet
   facet normal 3.317038e-016 5.971937e-001 -8.020971e-001
      outer loop
         vertex 2.033292e+003 5.414174e+002 1.888586e+003
         vertex 2.041292e+003 5.405607e+002 1.887986e+003
         vertex 2.033292e+003 5.405607e+002 1.887986e+003
      endloop
   endfacet
   facet normal 3.516494e-016 6.861777e-001 -7.274339e-001
      outer loop
         vertex 2.033292e+003 5.405607e+002 1.887986e+003
         vertex 2.041292e+003 5.405607e+002 1.887986e+003
         vertex 2.041292e+003 5.398212e+002 1.887247e+003
      endloop
   endfacet
   facet normal 3.598831e-016 7.274036e-001 -6.862098e-001
      outer loop
         vertex 2.033292e+003 5.405607e+002 1.887986e+003
         vertex 2.041292e+003 5.398212e+002 1.887247e+003
         vertex 2.033292e+003 5.398212e+002 1.887247e+003
      endloop
   endfacet
   facet normal 3.726222e-016 8.020707e-001 -5.972291e-001
      outer loop
         vertex 2.033292e+003 5.398212e+002 1.887247e+003
         vertex 2.041292e+003 5.398212e+002 1.887247e+003
         vertex 2.041292e+003 5.392213e+002 1.886390e+003
      endloop
   endfacet
   facet normal 3.771275e-016 8.355119e-001 -5.494724e-001
      outer loop
         vertex 2.033292e+003 5.398212e+002 1.887247e+003
         vertex 2.041292e+003 5.392213e+002 1.886390e+003
         vertex 2.033292e+003 5.392213e+002 1.886390e+003
      endloop
   endfacet
   facet normal 3.822730e-016 8.935932e-001 -4.488777e-001
      outer loop
         vertex 2.033292e+003 5.392213e+002 1.886390e+003
         vertex 2.041292e+003 5.392213e+002 1.886390e+003
         vertex 2.041292e+003 5.387792e+002 1.885442e+003
      endloop
   endfacet
   facet normal 3.829132e-016 9.182334e-001 -3.960396e-001
      outer loop
         vertex 2.033292e+003 5.392213e+002 1.886390e+003
         vertex 2.041292e+003 5.387792e+002 1.885442e+003
         vertex 2.033292e+003 5.387792e+002 1.885442e+003
      endloop
   endfacet
   facet normal 3.803087e-016 9.579643e-001 -2.868874e-001
      outer loop
         vertex 2.033292e+003 5.387792e+002 1.885442e+003
         vertex 2.041292e+003 5.387792e+002 1.885442e+003
         vertex 2.041292e+003 5.385085e+002 1.884432e+003
      endloop
   endfacet
   facet normal 3.770641e-016 9.730549e-001 -2.305733e-001
      outer loop
         vertex 2.033292e+003 5.387792e+002 1.885442e+003
         vertex 2.041292e+003 5.385085e+002 1.884432e+003
         vertex 2.033292e+003 5.385085e+002 1.884432e+003
      endloop
   endfacet
   facet normal 3.667889e-016 9.932281e-001 -1.161802e-001
      outer loop
         vertex 2.033292e+003 5.385085e+002 1.884432e+003
         vertex 2.041292e+003 5.385085e+002 1.884432e+003
         vertex 2.041292e+003 5.384174e+002 1.883390e+003
      endloop
   endfacet
   facet normal 3.597582e-016 9.983107e-001 -5.810116e-002
      outer loop
         vertex 2.033292e+003 5.385097e+002 1.938432e+003
         vertex 2.041292e+003 5.384185e+002 1.937390e+003
         vertex 2.033292e+003 5.384185e+002 1.937390e+003
      endloop
   endfacet
   facet normal 3.421244e-016 9.983132e-001 5.805711e-002
      outer loop
         vertex 2.033292e+003 5.384185e+002 1.937390e+003
         vertex 2.041292e+003 5.384185e+002 1.937390e+003
         vertex 2.041292e+003 5.385096e+002 1.936348e+003
      endloop
   endfacet
   facet normal 3.315212e-016 9.932333e-001 1.161364e-001
      outer loop
         vertex 2.033292e+003 5.384185e+002 1.937390e+003
         vertex 2.041292e+003 5.385096e+002 1.936348e+003
         vertex 2.033292e+003 5.385096e+002 1.936348e+003
      endloop
   endfacet
   facet normal 3.070646e-016 9.730651e-001 2.305304e-001
      outer loop
         vertex 2.033292e+003 5.385096e+002 1.936348e+003
         vertex 2.041292e+003 5.385096e+002 1.936348e+003
         vertex 2.041292e+003 5.387803e+002 1.935338e+003
      endloop
   endfacet
   facet normal 2.932111e-016 9.579769e-001 2.868451e-001
      outer loop
         vertex 2.033292e+003 5.385096e+002 1.936348e+003
         vertex 2.041292e+003 5.387803e+002 1.935338e+003
         vertex 2.033292e+003 5.387803e+002 1.935338e+003
      endloop
   endfacet
   facet normal 2.626748e-016 9.182509e-001 3.959991e-001
      outer loop
         vertex 2.033292e+003 5.387803e+002 1.935338e+003
         vertex 2.041292e+003 5.387803e+002 1.935338e+003
         vertex 2.041292e+003 5.392223e+002 1.934390e+003
      endloop
   endfacet
   facet normal 2.459920e-016 8.936130e-001 4.488383e-001
      outer loop
         vertex 2.033292e+003 5.387803e+002 1.935338e+003
         vertex 2.041292e+003 5.392223e+002 1.934390e+003
         vertex 2.033292e+003 5.392223e+002 1.934390e+003
      endloop
   endfacet
   facet normal 2.103038e-016 8.355361e-001 5.494356e-001
      outer loop
         vertex 2.033292e+003 5.392223e+002 1.934390e+003
         vertex 2.041292e+003 5.392223e+002 1.934390e+003
         vertex 2.041292e+003 5.398221e+002 1.933533e+003
      endloop
   endfacet
   facet normal 1.912985e-016 8.020971e-001 5.971937e-001
      outer loop
         vertex 2.033292e+003 5.392223e+002 1.934390e+003
         vertex 2.041292e+003 5.398221e+002 1.933533e+003
         vertex 2.033292e+003 5.398221e+002 1.933533e+003
      endloop
   endfacet
   facet normal 1.515428e-016 7.274339e-001 6.861777e-001
      outer loop
         vertex 2.033292e+003 5.398221e+002 1.933533e+003
         vertex 2.041292e+003 5.398221e+002 1.933533e+003
         vertex 2.041292e+003 5.405616e+002 1.932794e+003
      endloop
   endfacet
   facet normal 1.307925e-016 6.862098e-001 7.274036e-001
      outer loop
         vertex 2.033292e+003 5.398221e+002 1.933533e+003
         vertex 2.041292e+003 5.405616e+002 1.932794e+003
         vertex 2.033292e+003 5.405616e+002 1.932794e+003
      endloop
   endfacet
   facet normal 8.817725e-017 5.972291e-001 8.020707e-001
      outer loop
         vertex 2.033292e+003 5.405616e+002 1.932794e+003
         vertex 2.041292e+003 5.405616e+002 1.932794e+003
         vertex 2.041292e+003 5.414185e+002 1.932194e+003
      endloop
   endfacet
   facet normal 6.631238e-017 5.494724e-001 8.355119e-001
      outer loop
         vertex 2.033292e+003 5.405616e+002 1.932794e+003
         vertex 2.041292e+003 5.414185e+002 1.932194e+003
         vertex 2.033292e+003 5.414185e+002 1.932194e+003
      endloop
   endfacet
   facet normal 2.213248e-017 4.488777e-001 8.935932e-001
      outer loop
         vertex 2.033292e+003 5.414185e+002 1.932194e+003
         vertex 2.041292e+003 5.414185e+002 1.932194e+003
         vertex 2.041292e+003 5.423663e+002 1.931752e+003
      endloop
   endfacet
   facet normal -1.825489e-019 3.960396e-001 9.182334e-001
      outer loop
         vertex 2.033292e+003 5.414185e+002 1.932194e+003
         vertex 2.041292e+003 5.423663e+002 1.931752e+003
         vertex 2.033292e+003 5.423663e+002 1.931752e+003
      endloop
   endfacet
   facet normal -4.458477e-017 2.868874e-001 9.579643e-001
      outer loop
         vertex 2.033292e+003 5.423663e+002 1.931752e+003
         vertex 2.041292e+003 5.423663e+002 1.931752e+003
         vertex 2.041292e+003 5.433765e+002 1.931481e+003
      endloop
   endfacet
   facet normal -6.667196e-017 2.305733e-001 9.730549e-001
      outer loop
         vertex 2.033292e+003 5.423663e+002 1.931752e+003
         vertex 2.041292e+003 5.433765e+002 1.931481e+003
         vertex 2.033292e+003 5.433765e+002 1.931481e+003
      endloop
   endfacet
   facet normal -1.099473e-016 1.161802e-001 9.932281e-001
      outer loop
         vertex 2.033292e+003 5.433765e+002 1.931481e+003
         vertex 2.041292e+003 5.433765e+002 1.931481e+003
         vertex 2.041292e+003 5.444184e+002 1.931390e+003
      endloop
   endfacet
   facet normal -1.311356e-016 5.810116e-002 9.983107e-001
      outer loop
         vertex 2.033292e+003 5.433765e+002 1.931481e+003
         vertex 2.041292e+003 5.444184e+002 1.931390e+003
         vertex 2.033292e+003 5.444184e+002 1.931390e+003
      endloop
   endfacet
   facet normal -1.719692e-016 -5.805711e-002 9.983132e-001
      outer loop
         vertex 2.033292e+003 5.444184e+002 1.931390e+003
         vertex 2.041292e+003 5.444184e+002 1.931390e+003
         vertex 2.041292e+003 5.454603e+002 1.931481e+003
      endloop
   endfacet
   facet normal -1.916147e-016 -1.161364e-001 9.932333e-001
      outer loop
         vertex 2.033292e+003 5.444184e+002 1.931390e+003
         vertex 2.041292e+003 5.454603e+002 1.931481e+003
         vertex 2.033292e+003 5.454603e+002 1.931481e+003
      endloop
   endfacet
   facet normal -2.287659e-016 -2.305304e-001 9.730651e-001
      outer loop
         vertex 2.033292e+003 5.454603e+002 1.931481e+003
         vertex 2.041292e+003 5.454603e+002 1.931481e+003
         vertex 2.041292e+003 5.464705e+002 1.931752e+003
      endloop
   endfacet
   facet normal -2.462717e-016 -2.868451e-001 9.579769e-001
      outer loop
         vertex 2.033292e+003 5.454603e+002 1.931481e+003
         vertex 2.041292e+003 5.464705e+002 1.931752e+003
         vertex 2.033292e+003 5.464705e+002 1.931752e+003
      endloop
   endfacet
   facet normal -2.786117e-016 -3.959991e-001 9.182509e-001
      outer loop
         vertex 2.033292e+003 5.464705e+002 1.931752e+003
         vertex 2.041292e+003 5.464705e+002 1.931752e+003
         vertex 2.041292e+003 5.474184e+002 1.932194e+003
      endloop
   endfacet
   facet normal -2.934458e-016 -4.488383e-001 8.936130e-001
      outer loop
         vertex 2.033292e+003 5.464705e+002 1.931752e+003
         vertex 2.041292e+003 5.474184e+002 1.932194e+003
         vertex 2.033292e+003 5.474184e+002 1.932194e+003
      endloop
   endfacet
   facet normal -3.199919e-016 -5.494356e-001 8.355361e-001
      outer loop
         vertex 2.033292e+003 5.474184e+002 1.932194e+003
         vertex 2.041292e+003 5.474184e+002 1.932194e+003
         vertex 2.041292e+003 5.482751e+002 1.932794e+003
      endloop
   endfacet
   facet normal -3.317038e-016 -5.971937e-001 8.020971e-001
      outer loop
         vertex 2.033292e+003 5.474184e+002 1.932194e+003
         vertex 2.041292e+003 5.482751e+002 1.932794e+003
         vertex 2.033292e+003 5.482751e+002 1.932794e+003
      endloop
   endfacet
   facet normal -3.516494e-016 -6.861777e-001 7.274339e-001
      outer loop
         vertex 2.033292e+003 5.482751e+002 1.932794e+003
         vertex 2.041292e+003 5.482751e+002 1.932794e+003
         vertex 2.041292e+003 5.490147e+002 1.933533e+003
      endloop
   endfacet
   facet normal -3.598831e-016 -7.274036e-001 6.862098e-001
      outer loop
         vertex 2.033292e+003 5.482751e+002 1.932794e+003
         vertex 2.041292e+003 5.490147e+002 1.933533e+003
         vertex 2.033292e+003 5.490147e+002 1.933533e+003
      endloop
   endfacet
   facet normal -3.726222e-016 -8.020707e-001 5.972291e-001
      outer loop
         vertex 2.033292e+003 5.490147e+002 1.933533e+003
         vertex 2.041292e+003 5.490147e+002 1.933533e+003
         vertex 2.041292e+003 5.496146e+002 1.934390e+003
      endloop
   endfacet
   facet normal -3.771275e-016 -8.355119e-001 5.494724e-001
      outer loop
         vertex 2.033292e+003 5.490147e+002 1.933533e+003
         vertex 2.041292e+003 5.496146e+002 1.934390e+003
         vertex 2.033292e+003 5.496146e+002 1.934390e+003
      endloop
   endfacet
   facet normal -3.822730e-016 -8.935932e-001 4.488777e-001
      outer loop
         vertex 2.033292e+003 5.496146e+002 1.934390e+003
         vertex 2.041292e+003 5.496146e+002 1.934390e+003
         vertex 2.041292e+003 5.500566e+002 1.935338e+003
      endloop
   endfacet
   facet normal -3.829132e-016 -9.182334e-001 3.960396e-001
      outer loop
         vertex 2.033292e+003 5.496146e+002 1.934390e+003
         vertex 2.041292e+003 5.500566e+002 1.935338e+003
         vertex 2.033292e+003 5.500566e+002 1.935338e+003
      endloop
   endfacet
   facet normal -3.803087e-016 -9.579643e-001 2.868874e-001
      outer loop
         vertex 2.033292e+003 5.500566e+002 1.935338e+003
         vertex 2.041292e+003 5.500566e+002 1.935338e+003
         vertex 2.041292e+003 5.503273e+002 1.936348e+003
      endloop
   endfacet
   facet normal -3.770641e-016 -9.730549e-001 2.305733e-001
      outer loop
         vertex 2.033292e+003 5.500566e+002 1.935338e+003
         vertex 2.041292e+003 5.503273e+002 1.936348e+003
         vertex 2.033292e+003 5.503273e+002 1.936348e+003
      endloop
   endfacet
   facet normal -3.667889e-016 -9.932281e-001 1.161802e-001
      outer loop
         vertex 2.033292e+003 5.503273e+002 1.936348e+003
         vertex 2.041292e+003 5.503273e+002 1.936348e+003
         vertex 2.041292e+003 5.504185e+002 1.937390e+003
      endloop
   endfacet
   facet normal -3.597582e-016 -9.983107e-001 5.810116e-002
      outer loop
         vertex 2.033292e+003 5.503273e+002 1.936348e+003
         vertex 2.041292e+003 5.504185e+002 1.937390e+003
         vertex 2.033292e+003 5.504185e+002 1.937390e+003
      endloop
   endfacet
   facet normal -3.421244e-016 -9.983132e-001 -5.805711e-002
      outer loop
         vertex 2.033292e+003 5.504185e+002 1.937390e+003
         vertex 2.041292e+003 5.504185e+002 1.937390e+003
         vertex 2.041292e+003 5.503274e+002 1.938432e+003
      endloop
   endfacet
   facet normal -3.315212e-016 -9.932333e-001 -1.161364e-001
      outer loop
         vertex 2.033292e+003 5.504185e+002 1.937390e+003
         vertex 2.041292e+003 5.503274e+002 1.938432e+003
         vertex 2.033292e+003 5.503274e+002 1.938432e+003
      endloop
   endfacet
   facet normal -3.070646e-016 -9.730651e-001 -2.305304e-001
      outer loop
         vertex 2.033292e+003 5.503274e+002 1.938432e+003
         vertex 2.041292e+003 5.503274e+002 1.938432e+003
         vertex 2.041292e+003 5.500567e+002 1.939442e+003
      endloop
   endfacet
   facet normal -2.932111e-016 -9.579769e-001 -2.868451e-001
      outer loop
         vertex 2.033292e+003 5.503274e+002 1.938432e+003
         vertex 2.041292e+003 5.500567e+002 1.939442e+003
         vertex 2.033292e+003 5.500567e+002 1.939442e+003
      endloop
   endfacet
   facet normal -2.626748e-016 -9.182509e-001 -3.959991e-001
      outer loop
         vertex 2.033292e+003 5.500567e+002 1.939442e+003
         vertex 2.041292e+003 5.500567e+002 1.939442e+003
         vertex 2.041292e+003 5.496147e+002 1.940390e+003
      endloop
   endfacet
   facet normal -2.459920e-016 -8.936130e-001 -4.488383e-001
      outer loop
         vertex 2.033292e+003 5.500567e+002 1.939442e+003
         vertex 2.041292e+003 5.496147e+002 1.940390e+003
         vertex 2.033292e+003 5.496147e+002 1.940390e+003
      endloop
   endfacet
   facet normal -2.103038e-016 -8.355361e-001 -5.494356e-001
      outer loop
         vertex 2.033292e+003 5.496147e+002 1.940390e+003
         vertex 2.041292e+003 5.496147e+002 1.940390e+003
         vertex 2.041292e+003 5.490149e+002 1.941246e+003
      endloop
   endfacet
   facet normal -1.912985e-016 -8.020971e-001 -5.971937e-001
      outer loop
         vertex 2.033292e+003 5.496147e+002 1.940390e+003
         vertex 2.041292e+003 5.490149e+002 1.941246e+003
         vertex 2.033292e+003 5.490149e+002 1.941246e+003
      endloop
   endfacet
   facet normal -1.515428e-016 -7.274339e-001 -6.861777e-001
      outer loop
         vertex 2.033292e+003 5.490149e+002 1.941246e+003
         vertex 2.041292e+003 5.490149e+002 1.941246e+003
         vertex 2.041292e+003 5.482753e+002 1.941986e+003
      endloop
   endfacet
   facet normal -1.307925e-016 -6.862098e-001 -7.274036e-001
      outer loop
         vertex 2.033292e+003 5.490149e+002 1.941246e+003
         vertex 2.041292e+003 5.482753e+002 1.941986e+003
         vertex 2.033292e+003 5.482753e+002 1.941986e+003
      endloop
   endfacet
   facet normal -8.817725e-017 -5.972291e-001 -8.020707e-001
      outer loop
         vertex 2.033292e+003 5.482753e+002 1.941986e+003
         vertex 2.041292e+003 5.482753e+002 1.941986e+003
         vertex 2.041292e+003 5.474186e+002 1.942586e+003
      endloop
   endfacet
   facet normal -6.631238e-017 -5.494724e-001 -8.355119e-001
      outer loop
         vertex 2.033292e+003 5.482753e+002 1.941986e+003
         vertex 2.041292e+003 5.474186e+002 1.942586e+003
         vertex 2.033292e+003 5.474186e+002 1.942586e+003
      endloop
   endfacet
   facet normal -2.213248e-017 -4.488777e-001 -8.935932e-001
      outer loop
         vertex 2.033292e+003 5.474186e+002 1.942586e+003
         vertex 2.041292e+003 5.474186e+002 1.942586e+003
         vertex 2.041292e+003 5.464708e+002 1.943028e+003
      endloop
   endfacet
   facet normal 1.825489e-019 -3.960396e-001 -9.182334e-001
      outer loop
         vertex 2.033292e+003 5.474186e+002 1.942586e+003
         vertex 2.041292e+003 5.464708e+002 1.943028e+003
         vertex 2.033292e+003 5.464708e+002 1.943028e+003
      endloop
   endfacet
   facet normal 4.458477e-017 -2.868874e-001 -9.579643e-001
      outer loop
         vertex 2.033292e+003 5.464708e+002 1.943028e+003
         vertex 2.041292e+003 5.464708e+002 1.943028e+003
         vertex 2.041292e+003 5.454605e+002 1.943299e+003
      endloop
   endfacet
   facet normal 6.667196e-017 -2.305733e-001 -9.730549e-001
      outer loop
         vertex 2.033292e+003 5.464708e+002 1.943028e+003
         vertex 2.041292e+003 5.454605e+002 1.943299e+003
         vertex 2.033292e+003 5.454605e+002 1.943299e+003
      endloop
   endfacet
   facet normal 1.099473e-016 -1.161802e-001 -9.932281e-001
      outer loop
         vertex 2.033292e+003 5.454605e+002 1.943299e+003
         vertex 2.041292e+003 5.454605e+002 1.943299e+003
         vertex 2.041292e+003 5.444186e+002 1.943390e+003
      endloop
   endfacet
   facet normal 1.311356e-016 -5.810116e-002 -9.983107e-001
      outer loop
         vertex 2.033292e+003 5.454605e+002 1.943299e+003
         vertex 2.041292e+003 5.444186e+002 1.943390e+003
         vertex 2.033292e+003 5.444186e+002 1.943390e+003
      endloop
   endfacet
   facet normal 1.719692e-016 5.805711e-002 -9.983132e-001
      outer loop
         vertex 2.033292e+003 5.444186e+002 1.943390e+003
         vertex 2.041292e+003 5.444186e+002 1.943390e+003
         vertex 2.041292e+003 5.433768e+002 1.943299e+003
      endloop
   endfacet
   facet normal 1.916147e-016 1.161364e-001 -9.932333e-001
      outer loop
         vertex 2.033292e+003 5.444186e+002 1.943390e+003
         vertex 2.041292e+003 5.433768e+002 1.943299e+003
         vertex 2.033292e+003 5.433768e+002 1.943299e+003
      endloop
   endfacet
   facet normal 2.287659e-016 2.305304e-001 -9.730651e-001
      outer loop
         vertex 2.033292e+003 5.433768e+002 1.943299e+003
         vertex 2.041292e+003 5.433768e+002 1.943299e+003
         vertex 2.041292e+003 5.423665e+002 1.943028e+003
      endloop
   endfacet
   facet normal 2.462717e-016 2.868451e-001 -9.579769e-001
      outer loop
         vertex 2.033292e+003 5.433768e+002 1.943299e+003
         vertex 2.041292e+003 5.423665e+002 1.943028e+003
         vertex 2.033292e+003 5.423665e+002 1.943028e+003
      endloop
   endfacet
   facet normal 2.786117e-016 3.959991e-001 -9.182509e-001
      outer loop
         vertex 2.033292e+003 5.423665e+002 1.943028e+003
         vertex 2.041292e+003 5.423665e+002 1.943028e+003
         vertex 2.041292e+003 5.414186e+002 1.942586e+003
      endloop
   endfacet
   facet normal 2.934458e-016 4.488383e-001 -8.936130e-001
      outer loop
         vertex 2.033292e+003 5.423665e+002 1.943028e+003
         vertex 2.041292e+003 5.414186e+002 1.942586e+003
         vertex 2.033292e+003 5.414186e+002 1.942586e+003
      endloop
   endfacet
   facet normal 3.199919e-016 5.494356e-001 -8.355361e-001
      outer loop
         vertex 2.033292e+003 5.414186e+002 1.942586e+003
         vertex 2.041292e+003 5.414186e+002 1.942586e+003
         vertex 2.041292e+003 5.405619e+002 1.941986e+003
      endloop
   endfacet
   facet normal 3.317038e-016 5.971937e-001 -8.020971e-001
      outer loop
         vertex 2.033292e+003 5.414186e+002 1.942586e+003
         vertex 2.041292e+003 5.405619e+002 1.941986e+003
         vertex 2.033292e+003 5.405619e+002 1.941986e+003
      endloop
   endfacet
   facet normal 3.516494e-016 6.861777e-001 -7.274339e-001
      outer loop
         vertex 2.033292e+003 5.405619e+002 1.941986e+003
         vertex 2.041292e+003 5.405619e+002 1.941986e+003
         vertex 2.041292e+003 5.398223e+002 1.941247e+003
      endloop
   endfacet
   facet normal 3.598831e-016 7.274036e-001 -6.862098e-001
      outer loop
         vertex 2.033292e+003 5.405619e+002 1.941986e+003
         vertex 2.041292e+003 5.398223e+002 1.941247e+003
         vertex 2.033292e+003 5.398223e+002 1.941247e+003
      endloop
   endfacet
   facet normal 3.726222e-016 8.020707e-001 -5.972291e-001
      outer loop
         vertex 2.033292e+003 5.398223e+002 1.941247e+003
         vertex 2.041292e+003 5.398223e+002 1.941247e+003
         vertex 2.041292e+003 5.392224e+002 1.940390e+003
      endloop
   endfacet
   facet normal 3.771275e-016 8.355119e-001 -5.494724e-001
      outer loop
         vertex 2.033292e+003 5.398223e+002 1.941247e+003
         vertex 2.041292e+003 5.392224e+002 1.940390e+003
         vertex 2.033292e+003 5.392224e+002 1.940390e+003
      endloop
   endfacet
   facet normal 3.822730e-016 8.935932e-001 -4.488777e-001
      outer loop
         vertex 2.033292e+003 5.392224e+002 1.940390e+003
         vertex 2.041292e+003 5.392224e+002 1.940390e+003
         vertex 2.041292e+003 5.387804e+002 1.939442e+003
      endloop
   endfacet
   facet normal 3.829132e-016 9.182334e-001 -3.960396e-001
      outer loop
         vertex 2.033292e+003 5.392224e+002 1.940390e+003
         vertex 2.041292e+003 5.387804e+002 1.939442e+003
         vertex 2.033292e+003 5.387804e+002 1.939442e+003
      endloop
   endfacet
   facet normal 3.803087e-016 9.579643e-001 -2.868874e-001
      outer loop
         vertex 2.033292e+003 5.387804e+002 1.939442e+003
         vertex 2.041292e+003 5.387804e+002 1.939442e+003
         vertex 2.041292e+003 5.385097e+002 1.938432e+003
      endloop
   endfacet
   facet normal 3.770641e-016 9.730549e-001 -2.305733e-001
      outer loop
         vertex 2.033292e+003 5.387804e+002 1.939442e+003
         vertex 2.041292e+003 5.385097e+002 1.938432e+003
         vertex 2.033292e+003 5.385097e+002 1.938432e+003
      endloop
   endfacet
   facet normal 3.667889e-016 9.932281e-001 -1.161802e-001
      outer loop
         vertex 2.033292e+003 5.385097e+002 1.938432e+003
         vertex 2.041292e+003 5.385097e+002 1.938432e+003
         vertex 2.041292e+003 5.384185e+002 1.937390e+003
      endloop
   endfacet
   facet normal -1.412276e-016 -7.071224e-001 -7.070912e-001
      outer loop
         vertex 2.033292e+003 5.334172e+002 1.877390e+003
         vertex 2.033292e+003 5.374171e+002 1.873390e+003
         vertex 2.041292e+003 5.334172e+002 1.877390e+003
      endloop
   endfacet
   facet normal -1.412276e-016 -7.071224e-001 -7.070912e-001
      outer loop
         vertex 2.041292e+003 5.334172e+002 1.877390e+003
         vertex 2.033292e+003 5.374171e+002 1.873390e+003
         vertex 2.041292e+003 5.374171e+002 1.873390e+003
      endloop
   endfacet
endsolid