solid 09.025.00.00.000 - 09.025.00.08.000-2 09.025.00.08.011-1 09.025.00.08.0AB-1
   facet normal 6.917168e-018 -1.000000e+000 6.659066e-016
      outer loop
         vertex 2.051792e+003 1.331417e+003 1.931390e+003
         vertex 2.051792e+003 1.331417e+003 1.948390e+003
         vertex 2.041792e+003 1.331417e+003 1.931390e+003
      endloop
   endfacet
   facet normal 6.917168e-018 -1.000000e+000 6.659066e-016
      outer loop
         vertex 2.041792e+003 1.331417e+003 1.931390e+003
         vertex 2.051792e+003 1.331417e+003 1.948390e+003
         vertex 2.041792e+003 1.331417e+003 1.948390e+003
      endloop
   endfacet
   facet normal -2.223162e-016 6.659066e-016 1.000000e+000
      outer loop
         vertex 2.041792e+003 1.425417e+003 1.948390e+003
         vertex 2.041792e+003 1.331417e+003 1.948390e+003
         vertex 2.051792e+003 1.425417e+003 1.948390e+003
      endloop
   endfacet
   facet normal -2.223162e-016 6.659066e-016 1.000000e+000
      outer loop
         vertex 2.051792e+003 1.425417e+003 1.948390e+003
         vertex 2.041792e+003 1.331417e+003 1.948390e+003
         vertex 2.051792e+003 1.331417e+003 1.948390e+003
      endloop
   endfacet
   facet normal -6.917168e-018 1.000000e+000 -6.659066e-016
      outer loop
         vertex 2.051792e+003 1.435417e+003 1.938390e+003
         vertex 2.051792e+003 1.435417e+003 1.926390e+003
         vertex 2.041792e+003 1.435417e+003 1.938390e+003
      endloop
   endfacet
   facet normal -6.917168e-018 1.000000e+000 -6.659066e-016
      outer loop
         vertex 2.041792e+003 1.435417e+003 1.938390e+003
         vertex 2.051792e+003 1.435417e+003 1.926390e+003
         vertex 2.041792e+003 1.435417e+003 1.926390e+003
      endloop
   endfacet
   facet normal 2.223162e-016 -6.659066e-016 -1.000000e+000
      outer loop
         vertex 2.041792e+003 1.336417e+003 1.926390e+003
         vertex 2.041792e+003 1.435417e+003 1.926390e+003
         vertex 2.051792e+003 1.336417e+003 1.926390e+003
      endloop
   endfacet
   facet normal 2.223162e-016 -6.659066e-016 -1.000000e+000
      outer loop
         vertex 2.051792e+003 1.336417e+003 1.926390e+003
         vertex 2.041792e+003 1.435417e+003 1.926390e+003
         vertex 2.051792e+003 1.435417e+003 1.926390e+003
      endloop
   endfacet
   facet normal -1.000000e+000 -6.917168e-018 -2.223162e-016
      outer loop
         vertex 2.041792e+003 1.341549e+003 1.932466e+003
         vertex 2.041792e+003 1.336417e+003 1.926390e+003
         vertex 2.041792e+003 1.340707e+003 1.932691e+003
      endloop
   endfacet
   facet normal -1.000000e+000 -6.917168e-018 -2.223162e-016
      outer loop
         vertex 2.041792e+003 1.340707e+003 1.932691e+003
         vertex 2.041792e+003 1.336417e+003 1.926390e+003
         vertex 2.041792e+003 1.339917e+003 1.933060e+003
      endloop
   endfacet
   facet normal -1.000000e+000 -6.917168e-018 -2.223162e-016
      outer loop
         vertex 2.041792e+003 1.347116e+003 1.939100e+003
         vertex 2.041792e+003 1.346748e+003 1.939890e+003
         vertex 2.041792e+003 1.425417e+003 1.948390e+003
      endloop
   endfacet
   facet normal -1.000000e+000 -6.917168e-018 -2.223162e-016
      outer loop
         vertex 2.041792e+003 1.425417e+003 1.948390e+003
         vertex 2.041792e+003 1.346748e+003 1.939890e+003
         vertex 2.041792e+003 1.346248e+003 1.940604e+003
      endloop
   endfacet
   facet normal -1.000000e+000 -6.917168e-018 -2.223162e-016
      outer loop
         vertex 2.041792e+003 1.425417e+003 1.948390e+003
         vertex 2.041792e+003 1.346248e+003 1.940604e+003
         vertex 2.041792e+003 1.345631e+003 1.941220e+003
      endloop
   endfacet
   facet normal -1.000000e+000 -6.917168e-018 -2.223162e-016
      outer loop
         vertex 2.041792e+003 1.331417e+003 1.931390e+003
         vertex 2.041792e+003 1.337493e+003 1.936522e+003
         vertex 2.041792e+003 1.337719e+003 1.935680e+003
      endloop
   endfacet
   facet normal -1.000000e+000 -6.917168e-018 -2.223162e-016
      outer loop
         vertex 2.041792e+003 1.342417e+003 1.942390e+003
         vertex 2.041792e+003 1.341549e+003 1.942314e+003
         vertex 2.041792e+003 1.331417e+003 1.948390e+003
      endloop
   endfacet
   facet normal -1.000000e+000 -6.917168e-018 -2.223162e-016
      outer loop
         vertex 2.041792e+003 1.331417e+003 1.948390e+003
         vertex 2.041792e+003 1.341549e+003 1.942314e+003
         vertex 2.041792e+003 1.340707e+003 1.942088e+003
      endloop
   endfacet
   facet normal -1.000000e+000 -6.917168e-018 -2.223162e-016
      outer loop
         vertex 2.041792e+003 1.331417e+003 1.948390e+003
         vertex 2.041792e+003 1.340707e+003 1.942088e+003
         vertex 2.041792e+003 1.339917e+003 1.941720e+003
      endloop
   endfacet
   facet normal -1.000000e+000 -6.917168e-018 -2.223162e-016
      outer loop
         vertex 2.041792e+003 1.339917e+003 1.941720e+003
         vertex 2.041792e+003 1.339203e+003 1.941220e+003
         vertex 2.041792e+003 1.331417e+003 1.948390e+003
      endloop
   endfacet
   facet normal -1.000000e+000 -6.917168e-018 -2.223162e-016
      outer loop
         vertex 2.041792e+003 1.331417e+003 1.948390e+003
         vertex 2.041792e+003 1.339203e+003 1.941220e+003
         vertex 2.041792e+003 1.338587e+003 1.940604e+003
      endloop
   endfacet
   facet normal -1.000000e+000 -6.917168e-018 -2.223162e-016
      outer loop
         vertex 2.041792e+003 1.331417e+003 1.948390e+003
         vertex 2.041792e+003 1.338587e+003 1.940604e+003
         vertex 2.041792e+003 1.338087e+003 1.939890e+003
      endloop
   endfacet
   facet normal -1.000000e+000 -6.917168e-018 -2.223162e-016
      outer loop
         vertex 2.041792e+003 1.341549e+003 1.932466e+003
         vertex 2.041792e+003 1.342417e+003 1.932390e+003
         vertex 2.041792e+003 1.336417e+003 1.926390e+003
      endloop
   endfacet
   facet normal -1.000000e+000 -6.917168e-018 -2.223162e-016
      outer loop
         vertex 2.041792e+003 1.336417e+003 1.926390e+003
         vertex 2.041792e+003 1.342417e+003 1.932390e+003
         vertex 2.041792e+003 1.343286e+003 1.932466e+003
      endloop
   endfacet
   facet normal -1.000000e+000 -6.917168e-018 -2.223162e-016
      outer loop
         vertex 2.041792e+003 1.336417e+003 1.926390e+003
         vertex 2.041792e+003 1.343286e+003 1.932466e+003
         vertex 2.041792e+003 1.435417e+003 1.926390e+003
      endloop
   endfacet
   facet normal -1.000000e+000 -6.917168e-018 -2.223162e-016
      outer loop
         vertex 2.041792e+003 1.435417e+003 1.926390e+003
         vertex 2.041792e+003 1.343286e+003 1.932466e+003
         vertex 2.041792e+003 1.344127e+003 1.932691e+003
      endloop
   endfacet
   facet normal -1.000000e+000 -6.917168e-018 -2.223162e-016
      outer loop
         vertex 2.041792e+003 1.435417e+003 1.926390e+003
         vertex 2.041792e+003 1.344127e+003 1.932691e+003
         vertex 2.041792e+003 1.344917e+003 1.933060e+003
      endloop
   endfacet
   facet normal -1.000000e+000 -6.917168e-018 -2.223162e-016
      outer loop
         vertex 2.041792e+003 1.344917e+003 1.933060e+003
         vertex 2.041792e+003 1.345631e+003 1.933560e+003
         vertex 2.041792e+003 1.435417e+003 1.926390e+003
      endloop
   endfacet
   facet normal -1.000000e+000 -6.917168e-018 -2.223162e-016
      outer loop
         vertex 2.041792e+003 1.435417e+003 1.926390e+003
         vertex 2.041792e+003 1.345631e+003 1.933560e+003
         vertex 2.041792e+003 1.346248e+003 1.934176e+003
      endloop
   endfacet
   facet normal -1.000000e+000 -6.917168e-018 -2.223162e-016
      outer loop
         vertex 2.041792e+003 1.435417e+003 1.926390e+003
         vertex 2.041792e+003 1.346248e+003 1.934176e+003
         vertex 2.041792e+003 1.346748e+003 1.934890e+003
      endloop
   endfacet
   facet normal -1.000000e+000 -6.917168e-018 -2.223162e-016
      outer loop
         vertex 2.041792e+003 1.345631e+003 1.941220e+003
         vertex 2.041792e+003 1.344917e+003 1.941720e+003
         vertex 2.041792e+003 1.425417e+003 1.948390e+003
      endloop
   endfacet
   facet normal -1.000000e+000 -6.917168e-018 -2.223162e-016
      outer loop
         vertex 2.041792e+003 1.425417e+003 1.948390e+003
         vertex 2.041792e+003 1.344917e+003 1.941720e+003
         vertex 2.041792e+003 1.344127e+003 1.942088e+003
      endloop
   endfacet
   facet normal -1.000000e+000 -6.917168e-018 -2.223162e-016
      outer loop
         vertex 2.041792e+003 1.425417e+003 1.948390e+003
         vertex 2.041792e+003 1.344127e+003 1.942088e+003
         vertex 2.041792e+003 1.331417e+003 1.948390e+003
      endloop
   endfacet
   facet normal -1.000000e+000 -6.917168e-018 -2.223162e-016
      outer loop
         vertex 2.041792e+003 1.331417e+003 1.948390e+003
         vertex 2.041792e+003 1.344127e+003 1.942088e+003
         vertex 2.041792e+003 1.343286e+003 1.942314e+003
      endloop
   endfacet
   facet normal -1.000000e+000 -6.917168e-018 -2.223162e-016
      outer loop
         vertex 2.041792e+003 1.331417e+003 1.948390e+003
         vertex 2.041792e+003 1.343286e+003 1.942314e+003
         vertex 2.041792e+003 1.342417e+003 1.942390e+003
      endloop
   endfacet
   facet normal -1.000000e+000 -6.917168e-018 -2.223162e-016
      outer loop
         vertex 2.041792e+003 1.337719e+003 1.935680e+003
         vertex 2.041792e+003 1.338087e+003 1.934890e+003
         vertex 2.041792e+003 1.331417e+003 1.931390e+003
      endloop
   endfacet
   facet normal -1.000000e+000 -6.917168e-018 -2.223162e-016
      outer loop
         vertex 2.041792e+003 1.331417e+003 1.931390e+003
         vertex 2.041792e+003 1.338087e+003 1.934890e+003
         vertex 2.041792e+003 1.338587e+003 1.934176e+003
      endloop
   endfacet
   facet normal -1.000000e+000 -6.917168e-018 -2.223162e-016
      outer loop
         vertex 2.041792e+003 1.331417e+003 1.931390e+003
         vertex 2.041792e+003 1.338587e+003 1.934176e+003
         vertex 2.041792e+003 1.336417e+003 1.926390e+003
      endloop
   endfacet
   facet normal -1.000000e+000 -6.917168e-018 -2.223162e-016
      outer loop
         vertex 2.041792e+003 1.336417e+003 1.926390e+003
         vertex 2.041792e+003 1.338587e+003 1.934176e+003
         vertex 2.041792e+003 1.339203e+003 1.933560e+003
      endloop
   endfacet
   facet normal -1.000000e+000 -6.917168e-018 -2.223162e-016
      outer loop
         vertex 2.041792e+003 1.336417e+003 1.926390e+003
         vertex 2.041792e+003 1.339203e+003 1.933560e+003
         vertex 2.041792e+003 1.339917e+003 1.933060e+003
      endloop
   endfacet
   facet normal -1.000000e+000 -6.917168e-018 -2.223162e-016
      outer loop
         vertex 2.041792e+003 1.346748e+003 1.934890e+003
         vertex 2.041792e+003 1.347116e+003 1.935680e+003
         vertex 2.041792e+003 1.435417e+003 1.926390e+003
      endloop
   endfacet
   facet normal -1.000000e+000 -6.917168e-018 -2.223162e-016
      outer loop
         vertex 2.041792e+003 1.435417e+003 1.926390e+003
         vertex 2.041792e+003 1.347116e+003 1.935680e+003
         vertex 2.041792e+003 1.347341e+003 1.936522e+003
      endloop
   endfacet
   facet normal -1.000000e+000 -6.917168e-018 -2.223162e-016
      outer loop
         vertex 2.041792e+003 1.435417e+003 1.926390e+003
         vertex 2.041792e+003 1.347341e+003 1.936522e+003
         vertex 2.041792e+003 1.435417e+003 1.938390e+003
      endloop
   endfacet
   facet normal -1.000000e+000 -6.917168e-018 -2.223162e-016
      outer loop
         vertex 2.041792e+003 1.435417e+003 1.938390e+003
         vertex 2.041792e+003 1.347341e+003 1.936522e+003
         vertex 2.041792e+003 1.347417e+003 1.937390e+003
      endloop
   endfacet
   facet normal -1.000000e+000 -6.917168e-018 -2.223162e-016
      outer loop
         vertex 2.041792e+003 1.435417e+003 1.938390e+003
         vertex 2.041792e+003 1.347417e+003 1.937390e+003
         vertex 2.041792e+003 1.425417e+003 1.948390e+003
      endloop
   endfacet
   facet normal -1.000000e+000 -6.917168e-018 -2.223162e-016
      outer loop
         vertex 2.041792e+003 1.425417e+003 1.948390e+003
         vertex 2.041792e+003 1.347417e+003 1.937390e+003
         vertex 2.041792e+003 1.347341e+003 1.938258e+003
      endloop
   endfacet
   facet normal -1.000000e+000 -6.917168e-018 -2.223162e-016
      outer loop
         vertex 2.041792e+003 1.425417e+003 1.948390e+003
         vertex 2.041792e+003 1.347341e+003 1.938258e+003
         vertex 2.041792e+003 1.347116e+003 1.939100e+003
      endloop
   endfacet
   facet normal -1.000000e+000 -6.917168e-018 -2.223162e-016
      outer loop
         vertex 2.041792e+003 1.338087e+003 1.939890e+003
         vertex 2.041792e+003 1.337719e+003 1.939100e+003
         vertex 2.041792e+003 1.331417e+003 1.948390e+003
      endloop
   endfacet
   facet normal -1.000000e+000 -6.917168e-018 -2.223162e-016
      outer loop
         vertex 2.041792e+003 1.331417e+003 1.948390e+003
         vertex 2.041792e+003 1.337719e+003 1.939100e+003
         vertex 2.041792e+003 1.337493e+003 1.938258e+003
      endloop
   endfacet
   facet normal -1.000000e+000 -6.917168e-018 -2.223162e-016
      outer loop
         vertex 2.041792e+003 1.331417e+003 1.948390e+003
         vertex 2.041792e+003 1.337493e+003 1.938258e+003
         vertex 2.041792e+003 1.331417e+003 1.931390e+003
      endloop
   endfacet
   facet normal -1.000000e+000 -6.917168e-018 -2.223162e-016
      outer loop
         vertex 2.041792e+003 1.331417e+003 1.931390e+003
         vertex 2.041792e+003 1.337493e+003 1.938258e+003
         vertex 2.041792e+003 1.337417e+003 1.937390e+003
      endloop
   endfacet
   facet normal -1.000000e+000 -6.917168e-018 -2.223162e-016
      outer loop
         vertex 2.041792e+003 1.331417e+003 1.931390e+003
         vertex 2.041792e+003 1.337417e+003 1.937390e+003
         vertex 2.041792e+003 1.337493e+003 1.936522e+003
      endloop
   endfacet
   facet normal 1.000000e+000 6.917168e-018 2.223162e-016
      outer loop
         vertex 2.051792e+003 1.331417e+003 1.948390e+003
         vertex 2.051792e+003 1.331417e+003 1.931390e+003
         vertex 2.051792e+003 1.337417e+003 1.937390e+003
      endloop
   endfacet
   facet normal 1.000000e+000 6.917168e-018 2.223162e-016
      outer loop
         vertex 2.051792e+003 1.338087e+003 1.934890e+003
         vertex 2.051792e+003 1.337719e+003 1.935680e+003
         vertex 2.051792e+003 1.331417e+003 1.931390e+003
      endloop
   endfacet
   facet normal 1.000000e+000 6.917168e-018 2.223162e-016
      outer loop
         vertex 2.051792e+003 1.331417e+003 1.931390e+003
         vertex 2.051792e+003 1.337719e+003 1.935680e+003
         vertex 2.051792e+003 1.337493e+003 1.936522e+003
      endloop
   endfacet
   facet normal 1.000000e+000 6.917168e-018 2.223162e-016
      outer loop
         vertex 2.051792e+003 1.331417e+003 1.931390e+003
         vertex 2.051792e+003 1.337493e+003 1.936522e+003
         vertex 2.051792e+003 1.337417e+003 1.937390e+003
      endloop
   endfacet
   facet normal 1.000000e+000 6.917168e-018 2.223162e-016
      outer loop
         vertex 2.051792e+003 1.344917e+003 1.941720e+003
         vertex 2.051792e+003 1.345631e+003 1.941220e+003
         vertex 2.051792e+003 1.425417e+003 1.948390e+003
      endloop
   endfacet
   facet normal 1.000000e+000 6.917168e-018 2.223162e-016
      outer loop
         vertex 2.051792e+003 1.425417e+003 1.948390e+003
         vertex 2.051792e+003 1.345631e+003 1.941220e+003
         vertex 2.051792e+003 1.346248e+003 1.940604e+003
      endloop
   endfacet
   facet normal 1.000000e+000 6.917168e-018 2.223162e-016
      outer loop
         vertex 2.051792e+003 1.425417e+003 1.948390e+003
         vertex 2.051792e+003 1.346248e+003 1.940604e+003
         vertex 2.051792e+003 1.346748e+003 1.939890e+003
      endloop
   endfacet
   facet normal 1.000000e+000 6.917168e-018 2.223162e-016
      outer loop
         vertex 2.051792e+003 1.337417e+003 1.937390e+003
         vertex 2.051792e+003 1.337493e+003 1.938258e+003
         vertex 2.051792e+003 1.331417e+003 1.948390e+003
      endloop
   endfacet
   facet normal 1.000000e+000 6.917168e-018 2.223162e-016
      outer loop
         vertex 2.051792e+003 1.331417e+003 1.948390e+003
         vertex 2.051792e+003 1.337493e+003 1.938258e+003
         vertex 2.051792e+003 1.337719e+003 1.939100e+003
      endloop
   endfacet
   facet normal 1.000000e+000 6.917168e-018 2.223162e-016
      outer loop
         vertex 2.051792e+003 1.331417e+003 1.948390e+003
         vertex 2.051792e+003 1.337719e+003 1.939100e+003
         vertex 2.051792e+003 1.338087e+003 1.939890e+003
      endloop
   endfacet
   facet normal 1.000000e+000 6.917168e-018 2.223162e-016
      outer loop
         vertex 2.051792e+003 1.339917e+003 1.941720e+003
         vertex 2.051792e+003 1.340707e+003 1.942088e+003
         vertex 2.051792e+003 1.331417e+003 1.948390e+003
      endloop
   endfacet
   facet normal 1.000000e+000 6.917168e-018 2.223162e-016
      outer loop
         vertex 2.051792e+003 1.331417e+003 1.948390e+003
         vertex 2.051792e+003 1.340707e+003 1.942088e+003
         vertex 2.051792e+003 1.341549e+003 1.942314e+003
      endloop
   endfacet
   facet normal 1.000000e+000 6.917168e-018 2.223162e-016
      outer loop
         vertex 2.051792e+003 1.338087e+003 1.939890e+003
         vertex 2.051792e+003 1.338587e+003 1.940604e+003
         vertex 2.051792e+003 1.331417e+003 1.948390e+003
      endloop
   endfacet
   facet normal 1.000000e+000 6.917168e-018 2.223162e-016
      outer loop
         vertex 2.051792e+003 1.331417e+003 1.948390e+003
         vertex 2.051792e+003 1.338587e+003 1.940604e+003
         vertex 2.051792e+003 1.339203e+003 1.941220e+003
      endloop
   endfacet
   facet normal 1.000000e+000 6.917168e-018 2.223162e-016
      outer loop
         vertex 2.051792e+003 1.331417e+003 1.948390e+003
         vertex 2.051792e+003 1.339203e+003 1.941220e+003
         vertex 2.051792e+003 1.339917e+003 1.941720e+003
      endloop
   endfacet
   facet normal 1.000000e+000 6.917168e-018 2.223162e-016
      outer loop
         vertex 2.051792e+003 1.341549e+003 1.942314e+003
         vertex 2.051792e+003 1.342417e+003 1.942390e+003
         vertex 2.051792e+003 1.331417e+003 1.948390e+003
      endloop
   endfacet
   facet normal 1.000000e+000 6.917168e-018 2.223162e-016
      outer loop
         vertex 2.051792e+003 1.331417e+003 1.948390e+003
         vertex 2.051792e+003 1.342417e+003 1.942390e+003
         vertex 2.051792e+003 1.343286e+003 1.942314e+003
      endloop
   endfacet
   facet normal 1.000000e+000 6.917168e-018 2.223162e-016
      outer loop
         vertex 2.051792e+003 1.331417e+003 1.948390e+003
         vertex 2.051792e+003 1.343286e+003 1.942314e+003
         vertex 2.051792e+003 1.425417e+003 1.948390e+003
      endloop
   endfacet
   facet normal 1.000000e+000 6.917168e-018 2.223162e-016
      outer loop
         vertex 2.051792e+003 1.425417e+003 1.948390e+003
         vertex 2.051792e+003 1.343286e+003 1.942314e+003
         vertex 2.051792e+003 1.344127e+003 1.942088e+003
      endloop
   endfacet
   facet normal 1.000000e+000 6.917168e-018 2.223162e-016
      outer loop
         vertex 2.051792e+003 1.425417e+003 1.948390e+003
         vertex 2.051792e+003 1.344127e+003 1.942088e+003
         vertex 2.051792e+003 1.344917e+003 1.941720e+003
      endloop
   endfacet
   facet normal 1.000000e+000 6.917168e-018 2.223162e-016
      outer loop
         vertex 2.051792e+003 1.347116e+003 1.935680e+003
         vertex 2.051792e+003 1.346748e+003 1.934890e+003
         vertex 2.051792e+003 1.435417e+003 1.926390e+003
      endloop
   endfacet
   facet normal 1.000000e+000 6.917168e-018 2.223162e-016
      outer loop
         vertex 2.051792e+003 1.435417e+003 1.926390e+003
         vertex 2.051792e+003 1.346748e+003 1.934890e+003
         vertex 2.051792e+003 1.346248e+003 1.934176e+003
      endloop
   endfacet
   facet normal 1.000000e+000 6.917168e-018 2.223162e-016
      outer loop
         vertex 2.051792e+003 1.346748e+003 1.939890e+003
         vertex 2.051792e+003 1.347116e+003 1.939100e+003
         vertex 2.051792e+003 1.425417e+003 1.948390e+003
      endloop
   endfacet
   facet normal 1.000000e+000 6.917168e-018 2.223162e-016
      outer loop
         vertex 2.051792e+003 1.425417e+003 1.948390e+003
         vertex 2.051792e+003 1.347116e+003 1.939100e+003
         vertex 2.051792e+003 1.347341e+003 1.938258e+003
      endloop
   endfacet
   facet normal 1.000000e+000 6.917168e-018 2.223162e-016
      outer loop
         vertex 2.051792e+003 1.425417e+003 1.948390e+003
         vertex 2.051792e+003 1.347341e+003 1.938258e+003
         vertex 2.051792e+003 1.435417e+003 1.938390e+003
      endloop
   endfacet
   facet normal 1.000000e+000 6.917168e-018 2.223162e-016
      outer loop
         vertex 2.051792e+003 1.435417e+003 1.938390e+003
         vertex 2.051792e+003 1.347341e+003 1.938258e+003
         vertex 2.051792e+003 1.347417e+003 1.937390e+003
      endloop
   endfacet
   facet normal 1.000000e+000 6.917168e-018 2.223162e-016
      outer loop
         vertex 2.051792e+003 1.435417e+003 1.938390e+003
         vertex 2.051792e+003 1.347417e+003 1.937390e+003
         vertex 2.051792e+003 1.435417e+003 1.926390e+003
      endloop
   endfacet
   facet normal 1.000000e+000 6.917168e-018 2.223162e-016
      outer loop
         vertex 2.051792e+003 1.435417e+003 1.926390e+003
         vertex 2.051792e+003 1.347417e+003 1.937390e+003
         vertex 2.051792e+003 1.347341e+003 1.936522e+003
      endloop
   endfacet
   facet normal 1.000000e+000 6.917168e-018 2.223162e-016
      outer loop
         vertex 2.051792e+003 1.435417e+003 1.926390e+003
         vertex 2.051792e+003 1.347341e+003 1.936522e+003
         vertex 2.051792e+003 1.347116e+003 1.935680e+003
      endloop
   endfacet
   facet normal 1.000000e+000 6.917168e-018 2.223162e-016
      outer loop
         vertex 2.051792e+003 1.343286e+003 1.932466e+003
         vertex 2.051792e+003 1.342417e+003 1.932390e+003
         vertex 2.051792e+003 1.336417e+003 1.926390e+003
      endloop
   endfacet
   facet normal 1.000000e+000 6.917168e-018 2.223162e-016
      outer loop
         vertex 2.051792e+003 1.336417e+003 1.926390e+003
         vertex 2.051792e+003 1.342417e+003 1.932390e+003
         vertex 2.051792e+003 1.341549e+003 1.932466e+003
      endloop
   endfacet
   facet normal 1.000000e+000 6.917168e-018 2.223162e-016
      outer loop
         vertex 2.051792e+003 1.336417e+003 1.926390e+003
         vertex 2.051792e+003 1.341549e+003 1.932466e+003
         vertex 2.051792e+003 1.340707e+003 1.932691e+003
      endloop
   endfacet
   facet normal 1.000000e+000 6.917168e-018 2.223162e-016
      outer loop
         vertex 2.051792e+003 1.346248e+003 1.934176e+003
         vertex 2.051792e+003 1.345631e+003 1.933560e+003
         vertex 2.051792e+003 1.435417e+003 1.926390e+003
      endloop
   endfacet
   facet normal 1.000000e+000 6.917168e-018 2.223162e-016
      outer loop
         vertex 2.051792e+003 1.435417e+003 1.926390e+003
         vertex 2.051792e+003 1.345631e+003 1.933560e+003
         vertex 2.051792e+003 1.344917e+003 1.933060e+003
      endloop
   endfacet
   facet normal 1.000000e+000 6.917168e-018 2.223162e-016
      outer loop
         vertex 2.051792e+003 1.435417e+003 1.926390e+003
         vertex 2.051792e+003 1.344917e+003 1.933060e+003
         vertex 2.051792e+003 1.336417e+003 1.926390e+003
      endloop
   endfacet
   facet normal 1.000000e+000 6.917168e-018 2.223162e-016
      outer loop
         vertex 2.051792e+003 1.336417e+003 1.926390e+003
         vertex 2.051792e+003 1.344917e+003 1.933060e+003
         vertex 2.051792e+003 1.344127e+003 1.932691e+003
      endloop
   endfacet
   facet normal 1.000000e+000 6.917168e-018 2.223162e-016
      outer loop
         vertex 2.051792e+003 1.336417e+003 1.926390e+003
         vertex 2.051792e+003 1.344127e+003 1.932691e+003
         vertex 2.051792e+003 1.343286e+003 1.932466e+003
      endloop
   endfacet
   facet normal 1.000000e+000 6.917168e-018 2.223162e-016
      outer loop
         vertex 2.051792e+003 1.340707e+003 1.932691e+003
         vertex 2.051792e+003 1.339917e+003 1.933060e+003
         vertex 2.051792e+003 1.336417e+003 1.926390e+003
      endloop
   endfacet
   facet normal 1.000000e+000 6.917168e-018 2.223162e-016
      outer loop
         vertex 2.051792e+003 1.336417e+003 1.926390e+003
         vertex 2.051792e+003 1.339917e+003 1.933060e+003
         vertex 2.051792e+003 1.339203e+003 1.933560e+003
      endloop
   endfacet
   facet normal 1.000000e+000 6.917168e-018 2.223162e-016
      outer loop
         vertex 2.051792e+003 1.336417e+003 1.926390e+003
         vertex 2.051792e+003 1.339203e+003 1.933560e+003
         vertex 2.051792e+003 1.331417e+003 1.931390e+003
      endloop
   endfacet
   facet normal 1.000000e+000 6.917168e-018 2.223162e-016
      outer loop
         vertex 2.051792e+003 1.331417e+003 1.931390e+003
         vertex 2.051792e+003 1.339203e+003 1.933560e+003
         vertex 2.051792e+003 1.338587e+003 1.934176e+003
      endloop
   endfacet
   facet normal 1.000000e+000 6.917168e-018 2.223162e-016
      outer loop
         vertex 2.051792e+003 1.331417e+003 1.931390e+003
         vertex 2.051792e+003 1.338587e+003 1.934176e+003
         vertex 2.051792e+003 1.338087e+003 1.934890e+003
      endloop
   endfacet
   facet normal -1.620924e-016 7.071068e-001 7.071068e-001
      outer loop
         vertex 2.051792e+003 1.425417e+003 1.948390e+003
         vertex 2.051792e+003 1.435417e+003 1.938390e+003
         vertex 2.041792e+003 1.425417e+003 1.948390e+003
      endloop
   endfacet
   facet normal -1.620924e-016 7.071068e-001 7.071068e-001
      outer loop
         vertex 2.041792e+003 1.425417e+003 1.948390e+003
         vertex 2.051792e+003 1.435417e+003 1.938390e+003
         vertex 2.041792e+003 1.435417e+003 1.938390e+003
      endloop
   endfacet
   facet normal 6.006440e-018 9.983120e-001 -5.807914e-002
      outer loop
         vertex 2.041792e+003 1.337493e+003 1.938258e+003
         vertex 2.051792e+003 1.337417e+003 1.937390e+003
         vertex 2.041792e+003 1.337417e+003 1.937390e+003
      endloop
   endfacet
   facet normal -1.981742e-017 9.983120e-001 5.807914e-002
      outer loop
         vertex 2.041792e+003 1.337417e+003 1.937390e+003
         vertex 2.051792e+003 1.337417e+003 1.937390e+003
         vertex 2.051792e+003 1.337493e+003 1.936522e+003
      endloop
   endfacet
   facet normal -3.269421e-017 9.932307e-001 1.161583e-001
      outer loop
         vertex 2.041792e+003 1.337417e+003 1.937390e+003
         vertex 2.051792e+003 1.337493e+003 1.936522e+003
         vertex 2.041792e+003 1.337493e+003 1.936522e+003
      endloop
   endfacet
   facet normal -5.798622e-017 9.730601e-001 2.305518e-001
      outer loop
         vertex 2.041792e+003 1.337493e+003 1.936522e+003
         vertex 2.051792e+003 1.337493e+003 1.936522e+003
         vertex 2.051792e+003 1.337719e+003 1.935680e+003
      endloop
   endfacet
   facet normal -7.040146e-017 9.579706e-001 2.868663e-001
      outer loop
         vertex 2.041792e+003 1.337493e+003 1.936522e+003
         vertex 2.051792e+003 1.337719e+003 1.935680e+003
         vertex 2.041792e+003 1.337719e+003 1.935680e+003
      endloop
   endfacet
   facet normal -9.439315e-017 9.182422e-001 3.960194e-001
      outer loop
         vertex 2.041792e+003 1.337719e+003 1.935680e+003
         vertex 2.051792e+003 1.337719e+003 1.935680e+003
         vertex 2.051792e+003 1.338087e+003 1.934890e+003
      endloop
   endfacet
   facet normal -1.059696e-016 8.936031e-001 4.488580e-001
      outer loop
         vertex 2.041792e+003 1.337719e+003 1.935680e+003
         vertex 2.051792e+003 1.338087e+003 1.934890e+003
         vertex 2.041792e+003 1.338087e+003 1.934890e+003
      endloop
   endfacet
   facet normal -1.279320e-016 8.355240e-001 5.494540e-001
      outer loop
         vertex 2.041792e+003 1.338087e+003 1.934890e+003
         vertex 2.051792e+003 1.338087e+003 1.934890e+003
         vertex 2.051792e+003 1.338587e+003 1.934176e+003
      endloop
   endfacet
   facet normal -1.383179e-016 8.020839e-001 5.972114e-001
      outer loop
         vertex 2.041792e+003 1.338087e+003 1.934890e+003
         vertex 2.051792e+003 1.338587e+003 1.934176e+003
         vertex 2.041792e+003 1.338587e+003 1.934176e+003
      endloop
   endfacet
   facet normal -1.575837e-016 7.274188e-001 6.861938e-001
      outer loop
         vertex 2.041792e+003 1.338587e+003 1.934176e+003
         vertex 2.051792e+003 1.338587e+003 1.934176e+003
         vertex 2.051792e+003 1.339203e+003 1.933560e+003
      endloop
   endfacet
   facet normal -1.664635e-016 6.861938e-001 7.274188e-001
      outer loop
         vertex 2.041792e+003 1.338587e+003 1.934176e+003
         vertex 2.051792e+003 1.339203e+003 1.933560e+003
         vertex 2.041792e+003 1.339203e+003 1.933560e+003
      endloop
   endfacet
   facet normal -1.824472e-016 5.972114e-001 8.020839e-001
      outer loop
         vertex 2.041792e+003 1.339203e+003 1.933560e+003
         vertex 2.051792e+003 1.339203e+003 1.933560e+003
         vertex 2.051792e+003 1.339917e+003 1.933060e+003
      endloop
   endfacet
   facet normal -1.895512e-016 5.494540e-001 8.355240e-001
      outer loop
         vertex 2.041792e+003 1.339203e+003 1.933560e+003
         vertex 2.051792e+003 1.339917e+003 1.933060e+003
         vertex 2.041792e+003 1.339917e+003 1.933060e+003
      endloop
   endfacet
   facet normal -2.017672e-016 4.488580e-001 8.936031e-001
      outer loop
         vertex 2.041792e+003 1.339917e+003 1.933060e+003
         vertex 2.051792e+003 1.339917e+003 1.933060e+003
         vertex 2.051792e+003 1.340707e+003 1.932691e+003
      endloop
   endfacet
   facet normal -2.068794e-016 3.960194e-001 9.182422e-001
      outer loop
         vertex 2.041792e+003 1.339917e+003 1.933060e+003
         vertex 2.051792e+003 1.340707e+003 1.932691e+003
         vertex 2.041792e+003 1.340707e+003 1.932691e+003
      endloop
   endfacet
   facet normal -2.149567e-016 2.868663e-001 9.579706e-001
      outer loop
         vertex 2.041792e+003 1.340707e+003 1.932691e+003
         vertex 2.051792e+003 1.340707e+003 1.932691e+003
         vertex 2.051792e+003 1.341549e+003 1.932466e+003
      endloop
   endfacet
   facet normal -2.179218e-016 2.305518e-001 9.730601e-001
      outer loop
         vertex 2.041792e+003 1.340707e+003 1.932691e+003
         vertex 2.051792e+003 1.341549e+003 1.932466e+003
         vertex 2.041792e+003 1.341549e+003 1.932466e+003
      endloop
   endfacet
   facet normal -2.216147e-016 1.161583e-001 9.932307e-001
      outer loop
         vertex 2.041792e+003 1.341549e+003 1.932466e+003
         vertex 2.051792e+003 1.341549e+003 1.932466e+003
         vertex 2.051792e+003 1.342417e+003 1.932390e+003
      endloop
   endfacet
   facet normal -2.223427e-016 5.807914e-002 9.983120e-001
      outer loop
         vertex 2.041792e+003 1.341549e+003 1.932466e+003
         vertex 2.051792e+003 1.342417e+003 1.932390e+003
         vertex 2.041792e+003 1.342417e+003 1.932390e+003
      endloop
   endfacet
   facet normal -2.215392e-016 -5.807914e-002 9.983120e-001
      outer loop
         vertex 2.041792e+003 1.342417e+003 1.932390e+003
         vertex 2.051792e+003 1.342417e+003 1.932390e+003
         vertex 2.051792e+003 1.343286e+003 1.932466e+003
      endloop
   endfacet
   facet normal -2.200078e-016 -1.161583e-001 9.932307e-001
      outer loop
         vertex 2.041792e+003 1.342417e+003 1.932390e+003
         vertex 2.051792e+003 1.343286e+003 1.932466e+003
         vertex 2.041792e+003 1.343286e+003 1.932466e+003
      endloop
   endfacet
   facet normal -2.147322e-016 -2.305518e-001 9.730601e-001
      outer loop
         vertex 2.041792e+003 1.343286e+003 1.932466e+003
         vertex 2.051792e+003 1.343286e+003 1.932466e+003
         vertex 2.051792e+003 1.344127e+003 1.932691e+003
      endloop
   endfacet
   facet normal -2.109881e-016 -2.868663e-001 9.579706e-001
      outer loop
         vertex 2.041792e+003 1.343286e+003 1.932466e+003
         vertex 2.051792e+003 1.344127e+003 1.932691e+003
         vertex 2.041792e+003 1.344127e+003 1.932691e+003
      endloop
   endfacet
   facet normal -2.014008e-016 -3.960194e-001 9.182422e-001
      outer loop
         vertex 2.041792e+003 1.344127e+003 1.932691e+003
         vertex 2.051792e+003 1.344127e+003 1.932691e+003
         vertex 2.051792e+003 1.344917e+003 1.933060e+003
      endloop
   endfacet
   facet normal -1.955576e-016 -4.488580e-001 8.936031e-001
      outer loop
         vertex 2.041792e+003 1.344127e+003 1.932691e+003
         vertex 2.051792e+003 1.344917e+003 1.933060e+003
         vertex 2.041792e+003 1.344917e+003 1.933060e+003
      endloop
   endfacet
   facet normal -1.819498e-016 -5.494540e-001 8.355240e-001
      outer loop
         vertex 2.041792e+003 1.344917e+003 1.933060e+003
         vertex 2.051792e+003 1.344917e+003 1.933060e+003
         vertex 2.051792e+003 1.345631e+003 1.933560e+003
      endloop
   endfacet
   facet normal -1.741852e-016 -5.972114e-001 8.020839e-001
      outer loop
         vertex 2.041792e+003 1.344917e+003 1.933060e+003
         vertex 2.051792e+003 1.345631e+003 1.933560e+003
         vertex 2.041792e+003 1.345631e+003 1.933560e+003
      endloop
   endfacet
   facet normal -1.569705e-016 -6.861938e-001 7.274188e-001
      outer loop
         vertex 2.041792e+003 1.345631e+003 1.933560e+003
         vertex 2.051792e+003 1.345631e+003 1.933560e+003
         vertex 2.051792e+003 1.346248e+003 1.934176e+003
      endloop
   endfacet
   facet normal -1.475203e-016 -7.274188e-001 6.861938e-001
      outer loop
         vertex 2.041792e+003 1.345631e+003 1.933560e+003
         vertex 2.051792e+003 1.346248e+003 1.934176e+003
         vertex 2.041792e+003 1.346248e+003 1.934176e+003
      endloop
   endfacet
   facet normal -1.272216e-016 -8.020839e-001 5.972114e-001
      outer loop
         vertex 2.041792e+003 1.346248e+003 1.934176e+003
         vertex 2.051792e+003 1.346248e+003 1.934176e+003
         vertex 2.051792e+003 1.346748e+003 1.934890e+003
      endloop
   endfacet
   facet normal -1.163730e-016 -8.355240e-001 5.494540e-001
      outer loop
         vertex 2.041792e+003 1.346248e+003 1.934176e+003
         vertex 2.051792e+003 1.346748e+003 1.934890e+003
         vertex 2.041792e+003 1.346748e+003 1.934890e+003
      endloop
   endfacet
   facet normal -9.360719e-017 -8.936031e-001 4.488580e-001
      outer loop
         vertex 2.041792e+003 1.346748e+003 1.934890e+003
         vertex 2.051792e+003 1.346748e+003 1.934890e+003
         vertex 2.051792e+003 1.347116e+003 1.935680e+003
      endloop
   endfacet
   facet normal -8.168988e-017 -9.182422e-001 3.960194e-001
      outer loop
         vertex 2.041792e+003 1.346748e+003 1.934890e+003
         vertex 2.051792e+003 1.347116e+003 1.935680e+003
         vertex 2.041792e+003 1.347116e+003 1.935680e+003
      endloop
   endfacet
   facet normal -5.714857e-017 -9.579706e-001 2.868663e-001
      outer loop
         vertex 2.041792e+003 1.347116e+003 1.935680e+003
         vertex 2.051792e+003 1.347116e+003 1.935680e+003
         vertex 2.051792e+003 1.347341e+003 1.936522e+003
      endloop
   endfacet
   facet normal -4.452458e-017 -9.730601e-001 2.305518e-001
      outer loop
         vertex 2.041792e+003 1.347116e+003 1.935680e+003
         vertex 2.051792e+003 1.347341e+003 1.936522e+003
         vertex 2.041792e+003 1.347341e+003 1.936522e+003
      endloop
   endfacet
   facet normal -1.895352e-017 -9.932307e-001 1.161583e-001
      outer loop
         vertex 2.041792e+003 1.347341e+003 1.936522e+003
         vertex 2.051792e+003 1.347341e+003 1.936522e+003
         vertex 2.051792e+003 1.347417e+003 1.937390e+003
      endloop
   endfacet
   facet normal -6.006440e-018 -9.983120e-001 5.807914e-002
      outer loop
         vertex 2.041792e+003 1.347341e+003 1.936522e+003
         vertex 2.051792e+003 1.347417e+003 1.937390e+003
         vertex 2.041792e+003 1.347417e+003 1.937390e+003
      endloop
   endfacet
   facet normal 1.981742e-017 -9.983120e-001 -5.807914e-002
      outer loop
         vertex 2.041792e+003 1.347417e+003 1.937390e+003
         vertex 2.051792e+003 1.347417e+003 1.937390e+003
         vertex 2.051792e+003 1.347341e+003 1.938258e+003
      endloop
   endfacet
   facet normal 3.269421e-017 -9.932307e-001 -1.161583e-001
      outer loop
         vertex 2.041792e+003 1.347417e+003 1.937390e+003
         vertex 2.051792e+003 1.347341e+003 1.938258e+003
         vertex 2.041792e+003 1.347341e+003 1.938258e+003
      endloop
   endfacet
   facet normal 5.798622e-017 -9.730601e-001 -2.305518e-001
      outer loop
         vertex 2.041792e+003 1.347341e+003 1.938258e+003
         vertex 2.051792e+003 1.347341e+003 1.938258e+003
         vertex 2.051792e+003 1.347116e+003 1.939100e+003
      endloop
   endfacet
   facet normal 7.040146e-017 -9.579706e-001 -2.868663e-001
      outer loop
         vertex 2.041792e+003 1.347341e+003 1.938258e+003
         vertex 2.051792e+003 1.347116e+003 1.939100e+003
         vertex 2.041792e+003 1.347116e+003 1.939100e+003
      endloop
   endfacet
   facet normal 9.439315e-017 -9.182422e-001 -3.960194e-001
      outer loop
         vertex 2.041792e+003 1.347116e+003 1.939100e+003
         vertex 2.051792e+003 1.347116e+003 1.939100e+003
         vertex 2.051792e+003 1.346748e+003 1.939890e+003
      endloop
   endfacet
   facet normal 1.059696e-016 -8.936031e-001 -4.488580e-001
      outer loop
         vertex 2.041792e+003 1.347116e+003 1.939100e+003
         vertex 2.051792e+003 1.346748e+003 1.939890e+003
         vertex 2.041792e+003 1.346748e+003 1.939890e+003
      endloop
   endfacet
   facet normal 1.279320e-016 -8.355240e-001 -5.494540e-001
      outer loop
         vertex 2.041792e+003 1.346748e+003 1.939890e+003
         vertex 2.051792e+003 1.346748e+003 1.939890e+003
         vertex 2.051792e+003 1.346248e+003 1.940604e+003
      endloop
   endfacet
   facet normal 1.383179e-016 -8.020839e-001 -5.972114e-001
      outer loop
         vertex 2.041792e+003 1.346748e+003 1.939890e+003
         vertex 2.051792e+003 1.346248e+003 1.940604e+003
         vertex 2.041792e+003 1.346248e+003 1.940604e+003
      endloop
   endfacet
   facet normal 1.575837e-016 -7.274188e-001 -6.861938e-001
      outer loop
         vertex 2.041792e+003 1.346248e+003 1.940604e+003
         vertex 2.051792e+003 1.346248e+003 1.940604e+003
         vertex 2.051792e+003 1.345631e+003 1.941220e+003
      endloop
   endfacet
   facet normal 1.664635e-016 -6.861938e-001 -7.274188e-001
      outer loop
         vertex 2.041792e+003 1.346248e+003 1.940604e+003
         vertex 2.051792e+003 1.345631e+003 1.941220e+003
         vertex 2.041792e+003 1.345631e+003 1.941220e+003
      endloop
   endfacet
   facet normal 1.824472e-016 -5.972114e-001 -8.020839e-001
      outer loop
         vertex 2.041792e+003 1.345631e+003 1.941220e+003
         vertex 2.051792e+003 1.345631e+003 1.941220e+003
         vertex 2.051792e+003 1.344917e+003 1.941720e+003
      endloop
   endfacet
   facet normal 1.895512e-016 -5.494540e-001 -8.355240e-001
      outer loop
         vertex 2.041792e+003 1.345631e+003 1.941220e+003
         vertex 2.051792e+003 1.344917e+003 1.941720e+003
         vertex 2.041792e+003 1.344917e+003 1.941720e+003
      endloop
   endfacet
   facet normal 2.017672e-016 -4.488580e-001 -8.936031e-001
      outer loop
         vertex 2.041792e+003 1.344917e+003 1.941720e+003
         vertex 2.051792e+003 1.344917e+003 1.941720e+003
         vertex 2.051792e+003 1.344127e+003 1.942088e+003
      endloop
   endfacet
   facet normal 2.068794e-016 -3.960194e-001 -9.182422e-001
      outer loop
         vertex 2.041792e+003 1.344917e+003 1.941720e+003
         vertex 2.051792e+003 1.344127e+003 1.942088e+003
         vertex 2.041792e+003 1.344127e+003 1.942088e+003
      endloop
   endfacet
   facet normal 2.149567e-016 -2.868663e-001 -9.579706e-001
      outer loop
         vertex 2.041792e+003 1.344127e+003 1.942088e+003
         vertex 2.051792e+003 1.344127e+003 1.942088e+003
         vertex 2.051792e+003 1.343286e+003 1.942314e+003
      endloop
   endfacet
   facet normal 2.179218e-016 -2.305518e-001 -9.730601e-001
      outer loop
         vertex 2.041792e+003 1.344127e+003 1.942088e+003
         vertex 2.051792e+003 1.343286e+003 1.942314e+003
         vertex 2.041792e+003 1.343286e+003 1.942314e+003
      endloop
   endfacet
   facet normal 2.216147e-016 -1.161583e-001 -9.932307e-001
      outer loop
         vertex 2.041792e+003 1.343286e+003 1.942314e+003
         vertex 2.051792e+003 1.343286e+003 1.942314e+003
         vertex 2.051792e+003 1.342417e+003 1.942390e+003
      endloop
   endfacet
   facet normal 2.223427e-016 -5.807914e-002 -9.983120e-001
      outer loop
         vertex 2.041792e+003 1.343286e+003 1.942314e+003
         vertex 2.051792e+003 1.342417e+003 1.942390e+003
         vertex 2.041792e+003 1.342417e+003 1.942390e+003
      endloop
   endfacet
   facet normal 2.215392e-016 5.807914e-002 -9.983120e-001
      outer loop
         vertex 2.041792e+003 1.342417e+003 1.942390e+003
         vertex 2.051792e+003 1.342417e+003 1.942390e+003
         vertex 2.051792e+003 1.341549e+003 1.942314e+003
      endloop
   endfacet
   facet normal 2.200078e-016 1.161583e-001 -9.932307e-001
      outer loop
         vertex 2.041792e+003 1.342417e+003 1.942390e+003
         vertex 2.051792e+003 1.341549e+003 1.942314e+003
         vertex 2.041792e+003 1.341549e+003 1.942314e+003
      endloop
   endfacet
   facet normal 2.147322e-016 2.305518e-001 -9.730601e-001
      outer loop
         vertex 2.041792e+003 1.341549e+003 1.942314e+003
         vertex 2.051792e+003 1.341549e+003 1.942314e+003
         vertex 2.051792e+003 1.340707e+003 1.942088e+003
      endloop
   endfacet
   facet normal 2.109881e-016 2.868663e-001 -9.579706e-001
      outer loop
         vertex 2.041792e+003 1.341549e+003 1.942314e+003
         vertex 2.051792e+003 1.340707e+003 1.942088e+003
         vertex 2.041792e+003 1.340707e+003 1.942088e+003
      endloop
   endfacet
   facet normal 2.014008e-016 3.960194e-001 -9.182422e-001
      outer loop
         vertex 2.041792e+003 1.340707e+003 1.942088e+003
         vertex 2.051792e+003 1.340707e+003 1.942088e+003
         vertex 2.051792e+003 1.339917e+003 1.941720e+003
      endloop
   endfacet
   facet normal 1.955576e-016 4.488580e-001 -8.936031e-001
      outer loop
         vertex 2.041792e+003 1.340707e+003 1.942088e+003
         vertex 2.051792e+003 1.339917e+003 1.941720e+003
         vertex 2.041792e+003 1.339917e+003 1.941720e+003
      endloop
   endfacet
   facet normal 1.819498e-016 5.494540e-001 -8.355240e-001
      outer loop
         vertex 2.041792e+003 1.339917e+003 1.941720e+003
         vertex 2.051792e+003 1.339917e+003 1.941720e+003
         vertex 2.051792e+003 1.339203e+003 1.941220e+003
      endloop
   endfacet
   facet normal 1.741852e-016 5.972114e-001 -8.020839e-001
      outer loop
         vertex 2.041792e+003 1.339917e+003 1.941720e+003
         vertex 2.051792e+003 1.339203e+003 1.941220e+003
         vertex 2.041792e+003 1.339203e+003 1.941220e+003
      endloop
   endfacet
   facet normal 1.569705e-016 6.861938e-001 -7.274188e-001
      outer loop
         vertex 2.041792e+003 1.339203e+003 1.941220e+003
         vertex 2.051792e+003 1.339203e+003 1.941220e+003
         vertex 2.051792e+003 1.338587e+003 1.940604e+003
      endloop
   endfacet
   facet normal 1.475203e-016 7.274188e-001 -6.861938e-001
      outer loop
         vertex 2.041792e+003 1.339203e+003 1.941220e+003
         vertex 2.051792e+003 1.338587e+003 1.940604e+003
         vertex 2.041792e+003 1.338587e+003 1.940604e+003
      endloop
   endfacet
   facet normal 1.272216e-016 8.020839e-001 -5.972114e-001
      outer loop
         vertex 2.041792e+003 1.338587e+003 1.940604e+003
         vertex 2.051792e+003 1.338587e+003 1.940604e+003
         vertex 2.051792e+003 1.338087e+003 1.939890e+003
      endloop
   endfacet
   facet normal 1.163730e-016 8.355240e-001 -5.494540e-001
      outer loop
         vertex 2.041792e+003 1.338587e+003 1.940604e+003
         vertex 2.051792e+003 1.338087e+003 1.939890e+003
         vertex 2.041792e+003 1.338087e+003 1.939890e+003
      endloop
   endfacet
   facet normal 9.360719e-017 8.936031e-001 -4.488580e-001
      outer loop
         vertex 2.041792e+003 1.338087e+003 1.939890e+003
         vertex 2.051792e+003 1.338087e+003 1.939890e+003
         vertex 2.051792e+003 1.337719e+003 1.939100e+003
      endloop
   endfacet
   facet normal 8.168988e-017 9.182422e-001 -3.960194e-001
      outer loop
         vertex 2.041792e+003 1.338087e+003 1.939890e+003
         vertex 2.051792e+003 1.337719e+003 1.939100e+003
         vertex 2.041792e+003 1.337719e+003 1.939100e+003
      endloop
   endfacet
   facet normal 5.714857e-017 9.579706e-001 -2.868663e-001
      outer loop
         vertex 2.041792e+003 1.337719e+003 1.939100e+003
         vertex 2.051792e+003 1.337719e+003 1.939100e+003
         vertex 2.051792e+003 1.337493e+003 1.938258e+003
      endloop
   endfacet
   facet normal 4.452458e-017 9.730601e-001 -2.305518e-001
      outer loop
         vertex 2.041792e+003 1.337719e+003 1.939100e+003
         vertex 2.051792e+003 1.337493e+003 1.938258e+003
         vertex 2.041792e+003 1.337493e+003 1.938258e+003
      endloop
   endfacet
   facet normal 1.895352e-017 9.932307e-001 -1.161583e-001
      outer loop
         vertex 2.041792e+003 1.337493e+003 1.938258e+003
         vertex 2.051792e+003 1.337493e+003 1.938258e+003
         vertex 2.051792e+003 1.337417e+003 1.937390e+003
      endloop
   endfacet
   facet normal 1.620924e-016 -7.071068e-001 -7.071068e-001
      outer loop
         vertex 2.051792e+003 1.336417e+003 1.926390e+003
         vertex 2.051792e+003 1.331417e+003 1.931390e+003
         vertex 2.041792e+003 1.336417e+003 1.926390e+003
      endloop
   endfacet
   facet normal 1.620924e-016 -7.071068e-001 -7.071068e-001
      outer loop
         vertex 2.041792e+003 1.336417e+003 1.926390e+003
         vertex 2.051792e+003 1.331417e+003 1.931390e+003
         vertex 2.041792e+003 1.331417e+003 1.931390e+003
      endloop
   endfacet
endsolid