solid 09.025.00.00.000 - 09.025.00.08.000-2 09.025.00.08.008-1
   facet normal 6.245005e-017 1.000000e+000 -1.162265e-016
      outer loop
         vertex 2.234292e+003 5.554174e+002 1.948390e+003
         vertex 2.234292e+003 5.554174e+002 1.873390e+003
         vertex 2.226292e+003 5.554174e+002 1.948390e+003
      endloop
   endfacet
   facet normal 6.245005e-017 1.000000e+000 -1.162265e-016
      outer loop
         vertex 2.226292e+003 5.554174e+002 1.948390e+003
         vertex 2.234292e+003 5.554174e+002 1.873390e+003
         vertex 2.226292e+003 5.554174e+002 1.873390e+003
      endloop
   endfacet
   facet normal -2.278945e-016 9.677449e-017 1.000000e+000
      outer loop
         vertex 2.234292e+003 5.334174e+002 1.948390e+003
         vertex 2.234292e+003 5.554174e+002 1.948390e+003
         vertex 2.226292e+003 5.334174e+002 1.948390e+003
      endloop
   endfacet
   facet normal -2.278945e-016 9.677449e-017 1.000000e+000
      outer loop
         vertex 2.226292e+003 5.334174e+002 1.948390e+003
         vertex 2.234292e+003 5.554174e+002 1.948390e+003
         vertex 2.226292e+003 5.554174e+002 1.948390e+003
      endloop
   endfacet
   facet normal -6.245005e-017 -1.000000e+000 1.162265e-016
      outer loop
         vertex 2.234292e+003 5.334174e+002 1.877390e+003
         vertex 2.234292e+003 5.334174e+002 1.948390e+003
         vertex 2.226292e+003 5.334174e+002 1.877390e+003
      endloop
   endfacet
   facet normal -6.245005e-017 -1.000000e+000 1.162265e-016
      outer loop
         vertex 2.226292e+003 5.334174e+002 1.877390e+003
         vertex 2.234292e+003 5.334174e+002 1.948390e+003
         vertex 2.226292e+003 5.334174e+002 1.948390e+003
      endloop
   endfacet
   facet normal 2.278945e-016 -9.677449e-017 -1.000000e+000
      outer loop
         vertex 2.226292e+003 5.374174e+002 1.873390e+003
         vertex 2.226292e+003 5.554174e+002 1.873390e+003
         vertex 2.234292e+003 5.374174e+002 1.873390e+003
      endloop
   endfacet
   facet normal 2.278945e-016 -9.677449e-017 -1.000000e+000
      outer loop
         vertex 2.234292e+003 5.374174e+002 1.873390e+003
         vertex 2.226292e+003 5.554174e+002 1.873390e+003
         vertex 2.234292e+003 5.554174e+002 1.873390e+003
      endloop
   endfacet
   facet normal 1.000000e+000 -7.285839e-017 2.012279e-016
      outer loop
         vertex 2.234292e+003 5.423652e+002 1.877752e+003
         vertex 2.234292e+003 5.374174e+002 1.873390e+003
         vertex 2.234292e+003 5.433754e+002 1.877481e+003
      endloop
   endfacet
   facet normal 1.000000e+000 -7.285839e-017 2.012279e-016
      outer loop
         vertex 2.234292e+003 5.433754e+002 1.877481e+003
         vertex 2.234292e+003 5.374174e+002 1.873390e+003
         vertex 2.234292e+003 5.444173e+002 1.877390e+003
      endloop
   endfacet
   facet normal 1.000000e+000 -7.285839e-017 2.012279e-016
      outer loop
         vertex 2.234292e+003 5.398211e+002 1.941247e+003
         vertex 2.234292e+003 5.405606e+002 1.941986e+003
         vertex 2.234292e+003 5.334174e+002 1.948390e+003
      endloop
   endfacet
   facet normal 1.000000e+000 -7.285839e-017 2.012279e-016
      outer loop
         vertex 2.234292e+003 5.334174e+002 1.948390e+003
         vertex 2.234292e+003 5.405606e+002 1.941986e+003
         vertex 2.234292e+003 5.414174e+002 1.942586e+003
      endloop
   endfacet
   facet normal 1.000000e+000 -7.285839e-017 2.012279e-016
      outer loop
         vertex 2.234292e+003 5.444173e+002 1.877390e+003
         vertex 2.234292e+003 5.374174e+002 1.873390e+003
         vertex 2.234292e+003 5.454592e+002 1.877481e+003
      endloop
   endfacet
   facet normal 1.000000e+000 -7.285839e-017 2.012279e-016
      outer loop
         vertex 2.234292e+003 5.454592e+002 1.877481e+003
         vertex 2.234292e+003 5.374174e+002 1.873390e+003
         vertex 2.234292e+003 5.554174e+002 1.873390e+003
      endloop
   endfacet
   facet normal 1.000000e+000 -7.285839e-017 2.012279e-016
      outer loop
         vertex 2.234292e+003 5.454592e+002 1.877481e+003
         vertex 2.234292e+003 5.554174e+002 1.873390e+003
         vertex 2.234292e+003 5.464694e+002 1.877752e+003
      endloop
   endfacet
   facet normal 1.000000e+000 -7.285839e-017 2.012279e-016
      outer loop
         vertex 2.234292e+003 5.392212e+002 1.880390e+003
         vertex 2.234292e+003 5.387792e+002 1.881338e+003
         vertex 2.234292e+003 5.334174e+002 1.877390e+003
      endloop
   endfacet
   facet normal 1.000000e+000 -7.285839e-017 2.012279e-016
      outer loop
         vertex 2.234292e+003 5.334174e+002 1.877390e+003
         vertex 2.234292e+003 5.387792e+002 1.881338e+003
         vertex 2.234292e+003 5.385085e+002 1.882348e+003
      endloop
   endfacet
   facet normal 1.000000e+000 -7.285839e-017 2.012279e-016
      outer loop
         vertex 2.234292e+003 5.385085e+002 1.938432e+003
         vertex 2.234292e+003 5.387792e+002 1.939442e+003
         vertex 2.234292e+003 5.334174e+002 1.948390e+003
      endloop
   endfacet
   facet normal 1.000000e+000 -7.285839e-017 2.012279e-016
      outer loop
         vertex 2.234292e+003 5.334174e+002 1.948390e+003
         vertex 2.234292e+003 5.387792e+002 1.939442e+003
         vertex 2.234292e+003 5.392212e+002 1.940390e+003
      endloop
   endfacet
   facet normal 1.000000e+000 -7.285839e-017 2.012279e-016
      outer loop
         vertex 2.234292e+003 5.334174e+002 1.948390e+003
         vertex 2.234292e+003 5.392212e+002 1.940390e+003
         vertex 2.234292e+003 5.398211e+002 1.941247e+003
      endloop
   endfacet
   facet normal 1.000000e+000 -7.285839e-017 2.012279e-016
      outer loop
         vertex 2.234292e+003 5.490136e+002 1.879533e+003
         vertex 2.234292e+003 5.482740e+002 1.878794e+003
         vertex 2.234292e+003 5.554174e+002 1.873390e+003
      endloop
   endfacet
   facet normal 1.000000e+000 -7.285839e-017 2.012279e-016
      outer loop
         vertex 2.234292e+003 5.554174e+002 1.873390e+003
         vertex 2.234292e+003 5.482740e+002 1.878794e+003
         vertex 2.234292e+003 5.474174e+002 1.878194e+003
      endloop
   endfacet
   facet normal 1.000000e+000 -7.285839e-017 2.012279e-016
      outer loop
         vertex 2.234292e+003 5.554174e+002 1.873390e+003
         vertex 2.234292e+003 5.474174e+002 1.878194e+003
         vertex 2.234292e+003 5.464694e+002 1.877752e+003
      endloop
   endfacet
   facet normal 1.000000e+000 -7.285839e-017 2.012279e-016
      outer loop
         vertex 2.234292e+003 5.444173e+002 1.943390e+003
         vertex 2.234292e+003 5.554174e+002 1.948390e+003
         vertex 2.234292e+003 5.433754e+002 1.943299e+003
      endloop
   endfacet
   facet normal 1.000000e+000 -7.285839e-017 2.012279e-016
      outer loop
         vertex 2.234292e+003 5.433754e+002 1.943299e+003
         vertex 2.234292e+003 5.554174e+002 1.948390e+003
         vertex 2.234292e+003 5.334174e+002 1.948390e+003
      endloop
   endfacet
   facet normal 1.000000e+000 -7.285839e-017 2.012279e-016
      outer loop
         vertex 2.234292e+003 5.433754e+002 1.943299e+003
         vertex 2.234292e+003 5.334174e+002 1.948390e+003
         vertex 2.234292e+003 5.423652e+002 1.943028e+003
      endloop
   endfacet
   facet normal 1.000000e+000 -7.285839e-017 2.012279e-016
      outer loop
         vertex 2.234292e+003 5.423652e+002 1.943028e+003
         vertex 2.234292e+003 5.334174e+002 1.948390e+003
         vertex 2.234292e+003 5.414174e+002 1.942586e+003
      endloop
   endfacet
   facet normal 1.000000e+000 -7.285839e-017 2.012279e-016
      outer loop
         vertex 2.234292e+003 5.423652e+002 1.877752e+003
         vertex 2.234292e+003 5.414174e+002 1.878194e+003
         vertex 2.234292e+003 5.374174e+002 1.873390e+003
      endloop
   endfacet
   facet normal 1.000000e+000 -7.285839e-017 2.012279e-016
      outer loop
         vertex 2.234292e+003 5.374174e+002 1.873390e+003
         vertex 2.234292e+003 5.414174e+002 1.878194e+003
         vertex 2.234292e+003 5.405606e+002 1.878794e+003
      endloop
   endfacet
   facet normal 1.000000e+000 -7.285839e-017 2.012279e-016
      outer loop
         vertex 2.234292e+003 5.374174e+002 1.873390e+003
         vertex 2.234292e+003 5.405606e+002 1.878794e+003
         vertex 2.234292e+003 5.334174e+002 1.877390e+003
      endloop
   endfacet
   facet normal 1.000000e+000 -7.285839e-017 2.012279e-016
      outer loop
         vertex 2.234292e+003 5.334174e+002 1.877390e+003
         vertex 2.234292e+003 5.405606e+002 1.878794e+003
         vertex 2.234292e+003 5.398211e+002 1.879533e+003
      endloop
   endfacet
   facet normal 1.000000e+000 -7.285839e-017 2.012279e-016
      outer loop
         vertex 2.234292e+003 5.334174e+002 1.877390e+003
         vertex 2.234292e+003 5.398211e+002 1.879533e+003
         vertex 2.234292e+003 5.392212e+002 1.880390e+003
      endloop
   endfacet
   facet normal 1.000000e+000 -7.285839e-017 2.012279e-016
      outer loop
         vertex 2.234292e+003 5.554174e+002 1.948390e+003
         vertex 2.234292e+003 5.474174e+002 1.942586e+003
         vertex 2.234292e+003 5.482740e+002 1.941986e+003
      endloop
   endfacet
   facet normal 1.000000e+000 -7.285839e-017 2.012279e-016
      outer loop
         vertex 2.234292e+003 5.334174e+002 1.877390e+003
         vertex 2.234292e+003 5.398211e+002 1.933533e+003
         vertex 2.234292e+003 5.392212e+002 1.934390e+003
      endloop
   endfacet
   facet normal 1.000000e+000 -7.285839e-017 2.012279e-016
      outer loop
         vertex 2.234292e+003 5.444173e+002 1.943390e+003
         vertex 2.234292e+003 5.454592e+002 1.943299e+003
         vertex 2.234292e+003 5.554174e+002 1.948390e+003
      endloop
   endfacet
   facet normal 1.000000e+000 -7.285839e-017 2.012279e-016
      outer loop
         vertex 2.234292e+003 5.554174e+002 1.948390e+003
         vertex 2.234292e+003 5.454592e+002 1.943299e+003
         vertex 2.234292e+003 5.464694e+002 1.943028e+003
      endloop
   endfacet
   facet normal 1.000000e+000 -7.285839e-017 2.012279e-016
      outer loop
         vertex 2.234292e+003 5.554174e+002 1.948390e+003
         vertex 2.234292e+003 5.464694e+002 1.943028e+003
         vertex 2.234292e+003 5.474174e+002 1.942586e+003
      endloop
   endfacet
   facet normal 1.000000e+000 -7.285839e-017 2.012279e-016
      outer loop
         vertex 2.234292e+003 5.482740e+002 1.941986e+003
         vertex 2.234292e+003 5.490136e+002 1.941247e+003
         vertex 2.234292e+003 5.554174e+002 1.948390e+003
      endloop
   endfacet
   facet normal 1.000000e+000 -7.285839e-017 2.012279e-016
      outer loop
         vertex 2.234292e+003 5.554174e+002 1.948390e+003
         vertex 2.234292e+003 5.490136e+002 1.941247e+003
         vertex 2.234292e+003 5.496135e+002 1.940390e+003
      endloop
   endfacet
   facet normal 1.000000e+000 -7.285839e-017 2.012279e-016
      outer loop
         vertex 2.234292e+003 5.554174e+002 1.948390e+003
         vertex 2.234292e+003 5.496135e+002 1.940390e+003
         vertex 2.234292e+003 5.500555e+002 1.939442e+003
      endloop
   endfacet
   facet normal 1.000000e+000 -7.285839e-017 2.012279e-016
      outer loop
         vertex 2.234292e+003 5.385085e+002 1.882348e+003
         vertex 2.234292e+003 5.384174e+002 1.883390e+003
         vertex 2.234292e+003 5.334174e+002 1.877390e+003
      endloop
   endfacet
   facet normal 1.000000e+000 -7.285839e-017 2.012279e-016
      outer loop
         vertex 2.234292e+003 5.334174e+002 1.877390e+003
         vertex 2.234292e+003 5.384174e+002 1.883390e+003
         vertex 2.234292e+003 5.385085e+002 1.884432e+003
      endloop
   endfacet
   facet normal 1.000000e+000 -7.285839e-017 2.012279e-016
      outer loop
         vertex 2.234292e+003 5.334174e+002 1.877390e+003
         vertex 2.234292e+003 5.385085e+002 1.884432e+003
         vertex 2.234292e+003 5.423652e+002 1.931752e+003
      endloop
   endfacet
   facet normal 1.000000e+000 -7.285839e-017 2.012279e-016
      outer loop
         vertex 2.234292e+003 5.423652e+002 1.931752e+003
         vertex 2.234292e+003 5.414174e+002 1.932194e+003
         vertex 2.234292e+003 5.334174e+002 1.877390e+003
      endloop
   endfacet
   facet normal 1.000000e+000 -7.285839e-017 2.012279e-016
      outer loop
         vertex 2.234292e+003 5.334174e+002 1.877390e+003
         vertex 2.234292e+003 5.414174e+002 1.932194e+003
         vertex 2.234292e+003 5.405606e+002 1.932794e+003
      endloop
   endfacet
   facet normal 1.000000e+000 -7.285839e-017 2.012279e-016
      outer loop
         vertex 2.234292e+003 5.334174e+002 1.877390e+003
         vertex 2.234292e+003 5.405606e+002 1.932794e+003
         vertex 2.234292e+003 5.398211e+002 1.933533e+003
      endloop
   endfacet
   facet normal 1.000000e+000 -7.285839e-017 2.012279e-016
      outer loop
         vertex 2.234292e+003 5.423652e+002 1.889028e+003
         vertex 2.234292e+003 5.433754e+002 1.889299e+003
         vertex 2.234292e+003 5.423652e+002 1.931752e+003
      endloop
   endfacet
   facet normal 1.000000e+000 -7.285839e-017 2.012279e-016
      outer loop
         vertex 2.234292e+003 5.392212e+002 1.934390e+003
         vertex 2.234292e+003 5.387792e+002 1.935338e+003
         vertex 2.234292e+003 5.334174e+002 1.877390e+003
      endloop
   endfacet
   facet normal 1.000000e+000 -7.285839e-017 2.012279e-016
      outer loop
         vertex 2.234292e+003 5.334174e+002 1.877390e+003
         vertex 2.234292e+003 5.387792e+002 1.935338e+003
         vertex 2.234292e+003 5.385085e+002 1.936348e+003
      endloop
   endfacet
   facet normal 1.000000e+000 -7.285839e-017 2.012279e-016
      outer loop
         vertex 2.234292e+003 5.334174e+002 1.877390e+003
         vertex 2.234292e+003 5.385085e+002 1.936348e+003
         vertex 2.234292e+003 5.334174e+002 1.948390e+003
      endloop
   endfacet
   facet normal 1.000000e+000 -7.285839e-017 2.012279e-016
      outer loop
         vertex 2.234292e+003 5.334174e+002 1.948390e+003
         vertex 2.234292e+003 5.385085e+002 1.936348e+003
         vertex 2.234292e+003 5.384174e+002 1.937390e+003
      endloop
   endfacet
   facet normal 1.000000e+000 -7.285839e-017 2.012279e-016
      outer loop
         vertex 2.234292e+003 5.334174e+002 1.948390e+003
         vertex 2.234292e+003 5.384174e+002 1.937390e+003
         vertex 2.234292e+003 5.385085e+002 1.938432e+003
      endloop
   endfacet
   facet normal 1.000000e+000 -7.285839e-017 2.012279e-016
      outer loop
         vertex 2.234292e+003 5.500555e+002 1.935338e+003
         vertex 2.234292e+003 5.496135e+002 1.934390e+003
         vertex 2.234292e+003 5.554174e+002 1.873390e+003
      endloop
   endfacet
   facet normal 1.000000e+000 -7.285839e-017 2.012279e-016
      outer loop
         vertex 2.234292e+003 5.554174e+002 1.873390e+003
         vertex 2.234292e+003 5.496135e+002 1.934390e+003
         vertex 2.234292e+003 5.490136e+002 1.933533e+003
      endloop
   endfacet
   facet normal 1.000000e+000 -7.285839e-017 2.012279e-016
      outer loop
         vertex 2.234292e+003 5.554174e+002 1.873390e+003
         vertex 2.234292e+003 5.490136e+002 1.933533e+003
         vertex 2.234292e+003 5.482740e+002 1.932794e+003
      endloop
   endfacet
   facet normal 1.000000e+000 -7.285839e-017 2.012279e-016
      outer loop
         vertex 2.234292e+003 5.423652e+002 1.931752e+003
         vertex 2.234292e+003 5.433754e+002 1.889299e+003
         vertex 2.234292e+003 5.433754e+002 1.931481e+003
      endloop
   endfacet
   facet normal 1.000000e+000 -7.285839e-017 2.012279e-016
      outer loop
         vertex 2.234292e+003 5.500555e+002 1.939442e+003
         vertex 2.234292e+003 5.503262e+002 1.938432e+003
         vertex 2.234292e+003 5.554174e+002 1.948390e+003
      endloop
   endfacet
   facet normal 1.000000e+000 -7.285839e-017 2.012279e-016
      outer loop
         vertex 2.234292e+003 5.554174e+002 1.948390e+003
         vertex 2.234292e+003 5.503262e+002 1.938432e+003
         vertex 2.234292e+003 5.504173e+002 1.937390e+003
      endloop
   endfacet
   facet normal 1.000000e+000 -7.285839e-017 2.012279e-016
      outer loop
         vertex 2.234292e+003 5.554174e+002 1.948390e+003
         vertex 2.234292e+003 5.504173e+002 1.937390e+003
         vertex 2.234292e+003 5.554174e+002 1.873390e+003
      endloop
   endfacet
   facet normal 1.000000e+000 -7.285839e-017 2.012279e-016
      outer loop
         vertex 2.234292e+003 5.554174e+002 1.873390e+003
         vertex 2.234292e+003 5.504173e+002 1.937390e+003
         vertex 2.234292e+003 5.503262e+002 1.936348e+003
      endloop
   endfacet
   facet normal 1.000000e+000 -7.285839e-017 2.012279e-016
      outer loop
         vertex 2.234292e+003 5.554174e+002 1.873390e+003
         vertex 2.234292e+003 5.503262e+002 1.936348e+003
         vertex 2.234292e+003 5.500555e+002 1.935338e+003
      endloop
   endfacet
   facet normal 1.000000e+000 -7.285839e-017 2.012279e-016
      outer loop
         vertex 2.234292e+003 5.385085e+002 1.884432e+003
         vertex 2.234292e+003 5.387792e+002 1.885442e+003
         vertex 2.234292e+003 5.423652e+002 1.931752e+003
      endloop
   endfacet
   facet normal 1.000000e+000 -7.285839e-017 2.012279e-016
      outer loop
         vertex 2.234292e+003 5.423652e+002 1.931752e+003
         vertex 2.234292e+003 5.387792e+002 1.885442e+003
         vertex 2.234292e+003 5.392212e+002 1.886390e+003
      endloop
   endfacet
   facet normal 1.000000e+000 -7.285839e-017 2.012279e-016
      outer loop
         vertex 2.234292e+003 5.423652e+002 1.931752e+003
         vertex 2.234292e+003 5.392212e+002 1.886390e+003
         vertex 2.234292e+003 5.398211e+002 1.887247e+003
      endloop
   endfacet
   facet normal 1.000000e+000 -7.285839e-017 2.012279e-016
      outer loop
         vertex 2.234292e+003 5.398211e+002 1.887247e+003
         vertex 2.234292e+003 5.405606e+002 1.887986e+003
         vertex 2.234292e+003 5.423652e+002 1.931752e+003
      endloop
   endfacet
   facet normal 1.000000e+000 -7.285839e-017 2.012279e-016
      outer loop
         vertex 2.234292e+003 5.423652e+002 1.931752e+003
         vertex 2.234292e+003 5.405606e+002 1.887986e+003
         vertex 2.234292e+003 5.414174e+002 1.888586e+003
      endloop
   endfacet
   facet normal 1.000000e+000 -7.285839e-017 2.012279e-016
      outer loop
         vertex 2.234292e+003 5.423652e+002 1.931752e+003
         vertex 2.234292e+003 5.414174e+002 1.888586e+003
         vertex 2.234292e+003 5.423652e+002 1.889028e+003
      endloop
   endfacet
   facet normal 1.000000e+000 -7.285839e-017 2.012279e-016
      outer loop
         vertex 2.234292e+003 5.474174e+002 1.888586e+003
         vertex 2.234292e+003 5.482740e+002 1.887986e+003
         vertex 2.234292e+003 5.464694e+002 1.931752e+003
      endloop
   endfacet
   facet normal 1.000000e+000 -7.285839e-017 2.012279e-016
      outer loop
         vertex 2.234292e+003 5.464694e+002 1.931752e+003
         vertex 2.234292e+003 5.482740e+002 1.887986e+003
         vertex 2.234292e+003 5.490136e+002 1.887247e+003
      endloop
   endfacet
   facet normal 1.000000e+000 -7.285839e-017 2.012279e-016
      outer loop
         vertex 2.234292e+003 5.464694e+002 1.931752e+003
         vertex 2.234292e+003 5.490136e+002 1.887247e+003
         vertex 2.234292e+003 5.496135e+002 1.886390e+003
      endloop
   endfacet
   facet normal 1.000000e+000 -7.285839e-017 2.012279e-016
      outer loop
         vertex 2.234292e+003 5.433754e+002 1.931481e+003
         vertex 2.234292e+003 5.433754e+002 1.889299e+003
         vertex 2.234292e+003 5.444173e+002 1.931390e+003
      endloop
   endfacet
   facet normal 1.000000e+000 -7.285839e-017 2.012279e-016
      outer loop
         vertex 2.234292e+003 5.444173e+002 1.931390e+003
         vertex 2.234292e+003 5.433754e+002 1.889299e+003
         vertex 2.234292e+003 5.444173e+002 1.889390e+003
      endloop
   endfacet
   facet normal 1.000000e+000 -7.285839e-017 2.012279e-016
      outer loop
         vertex 2.234292e+003 5.444173e+002 1.931390e+003
         vertex 2.234292e+003 5.444173e+002 1.889390e+003
         vertex 2.234292e+003 5.454592e+002 1.931481e+003
      endloop
   endfacet
   facet normal 1.000000e+000 -7.285839e-017 2.012279e-016
      outer loop
         vertex 2.234292e+003 5.454592e+002 1.931481e+003
         vertex 2.234292e+003 5.444173e+002 1.889390e+003
         vertex 2.234292e+003 5.454592e+002 1.889299e+003
      endloop
   endfacet
   facet normal 1.000000e+000 -7.285839e-017 2.012279e-016
      outer loop
         vertex 2.234292e+003 5.454592e+002 1.931481e+003
         vertex 2.234292e+003 5.454592e+002 1.889299e+003
         vertex 2.234292e+003 5.464694e+002 1.931752e+003
      endloop
   endfacet
   facet normal 1.000000e+000 -7.285839e-017 2.012279e-016
      outer loop
         vertex 2.234292e+003 5.464694e+002 1.931752e+003
         vertex 2.234292e+003 5.454592e+002 1.889299e+003
         vertex 2.234292e+003 5.464694e+002 1.889028e+003
      endloop
   endfacet
   facet normal 1.000000e+000 -7.285839e-017 2.012279e-016
      outer loop
         vertex 2.234292e+003 5.464694e+002 1.931752e+003
         vertex 2.234292e+003 5.464694e+002 1.889028e+003
         vertex 2.234292e+003 5.474174e+002 1.888586e+003
      endloop
   endfacet
   facet normal 1.000000e+000 -7.285839e-017 2.012279e-016
      outer loop
         vertex 2.234292e+003 5.496135e+002 1.886390e+003
         vertex 2.234292e+003 5.500555e+002 1.885442e+003
         vertex 2.234292e+003 5.464694e+002 1.931752e+003
      endloop
   endfacet
   facet normal 1.000000e+000 -7.285839e-017 2.012279e-016
      outer loop
         vertex 2.234292e+003 5.464694e+002 1.931752e+003
         vertex 2.234292e+003 5.500555e+002 1.885442e+003
         vertex 2.234292e+003 5.554174e+002 1.873390e+003
      endloop
   endfacet
   facet normal 1.000000e+000 -7.285839e-017 2.012279e-016
      outer loop
         vertex 2.234292e+003 5.464694e+002 1.931752e+003
         vertex 2.234292e+003 5.554174e+002 1.873390e+003
         vertex 2.234292e+003 5.474174e+002 1.932194e+003
      endloop
   endfacet
   facet normal 1.000000e+000 -7.285839e-017 2.012279e-016
      outer loop
         vertex 2.234292e+003 5.474174e+002 1.932194e+003
         vertex 2.234292e+003 5.554174e+002 1.873390e+003
         vertex 2.234292e+003 5.482740e+002 1.932794e+003
      endloop
   endfacet
   facet normal 1.000000e+000 -7.285839e-017 2.012279e-016
      outer loop
         vertex 2.234292e+003 5.500555e+002 1.885442e+003
         vertex 2.234292e+003 5.503262e+002 1.884432e+003
         vertex 2.234292e+003 5.554174e+002 1.873390e+003
      endloop
   endfacet
   facet normal 1.000000e+000 -7.285839e-017 2.012279e-016
      outer loop
         vertex 2.234292e+003 5.554174e+002 1.873390e+003
         vertex 2.234292e+003 5.503262e+002 1.884432e+003
         vertex 2.234292e+003 5.504173e+002 1.883390e+003
      endloop
   endfacet
   facet normal 1.000000e+000 -7.285839e-017 2.012279e-016
      outer loop
         vertex 2.234292e+003 5.554174e+002 1.873390e+003
         vertex 2.234292e+003 5.504173e+002 1.883390e+003
         vertex 2.234292e+003 5.503262e+002 1.882348e+003
      endloop
   endfacet
   facet normal 1.000000e+000 -7.285839e-017 2.012279e-016
      outer loop
         vertex 2.234292e+003 5.503262e+002 1.882348e+003
         vertex 2.234292e+003 5.500555e+002 1.881338e+003
         vertex 2.234292e+003 5.554174e+002 1.873390e+003
      endloop
   endfacet
   facet normal 1.000000e+000 -7.285839e-017 2.012279e-016
      outer loop
         vertex 2.234292e+003 5.554174e+002 1.873390e+003
         vertex 2.234292e+003 5.500555e+002 1.881338e+003
         vertex 2.234292e+003 5.496135e+002 1.880390e+003
      endloop
   endfacet
   facet normal 1.000000e+000 -7.285839e-017 2.012279e-016
      outer loop
         vertex 2.234292e+003 5.554174e+002 1.873390e+003
         vertex 2.234292e+003 5.496135e+002 1.880390e+003
         vertex 2.234292e+003 5.490136e+002 1.879533e+003
      endloop
   endfacet
   facet normal -1.000000e+000 7.285839e-017 -2.012279e-016
      outer loop
         vertex 2.226292e+003 5.464694e+002 1.877752e+003
         vertex 2.226292e+003 5.474174e+002 1.878194e+003
         vertex 2.226292e+003 5.554174e+002 1.873390e+003
      endloop
   endfacet
   facet normal -1.000000e+000 7.285839e-017 -2.012279e-016
      outer loop
         vertex 2.226292e+003 5.554174e+002 1.873390e+003
         vertex 2.226292e+003 5.474174e+002 1.878194e+003
         vertex 2.226292e+003 5.482740e+002 1.878794e+003
      endloop
   endfacet
   facet normal -1.000000e+000 7.285839e-017 -2.012279e-016
      outer loop
         vertex 2.226292e+003 5.554174e+002 1.873390e+003
         vertex 2.226292e+003 5.482740e+002 1.878794e+003
         vertex 2.226292e+003 5.490136e+002 1.879533e+003
      endloop
   endfacet
   facet normal -1.000000e+000 7.285839e-017 -2.012279e-016
      outer loop
         vertex 2.226292e+003 5.414174e+002 1.878194e+003
         vertex 2.226292e+003 5.423652e+002 1.877752e+003
         vertex 2.226292e+003 5.374174e+002 1.873390e+003
      endloop
   endfacet
   facet normal -1.000000e+000 7.285839e-017 -2.012279e-016
      outer loop
         vertex 2.226292e+003 5.554174e+002 1.873390e+003
         vertex 2.226292e+003 5.464694e+002 1.931752e+003
         vertex 2.226292e+003 5.474174e+002 1.932194e+003
      endloop
   endfacet
   facet normal -1.000000e+000 7.285839e-017 -2.012279e-016
      outer loop
         vertex 2.226292e+003 5.423652e+002 1.877752e+003
         vertex 2.226292e+003 5.433754e+002 1.877481e+003
         vertex 2.226292e+003 5.374174e+002 1.873390e+003
      endloop
   endfacet
   facet normal -1.000000e+000 7.285839e-017 -2.012279e-016
      outer loop
         vertex 2.226292e+003 5.374174e+002 1.873390e+003
         vertex 2.226292e+003 5.433754e+002 1.877481e+003
         vertex 2.226292e+003 5.444173e+002 1.877390e+003
      endloop
   endfacet
   facet normal -1.000000e+000 7.285839e-017 -2.012279e-016
      outer loop
         vertex 2.226292e+003 5.374174e+002 1.873390e+003
         vertex 2.226292e+003 5.444173e+002 1.877390e+003
         vertex 2.226292e+003 5.554174e+002 1.873390e+003
      endloop
   endfacet
   facet normal -1.000000e+000 7.285839e-017 -2.012279e-016
      outer loop
         vertex 2.226292e+003 5.554174e+002 1.873390e+003
         vertex 2.226292e+003 5.444173e+002 1.877390e+003
         vertex 2.226292e+003 5.454592e+002 1.877481e+003
      endloop
   endfacet
   facet normal -1.000000e+000 7.285839e-017 -2.012279e-016
      outer loop
         vertex 2.226292e+003 5.554174e+002 1.873390e+003
         vertex 2.226292e+003 5.454592e+002 1.877481e+003
         vertex 2.226292e+003 5.464694e+002 1.877752e+003
      endloop
   endfacet
   facet normal -1.000000e+000 7.285839e-017 -2.012279e-016
      outer loop
         vertex 2.226292e+003 5.490136e+002 1.879533e+003
         vertex 2.226292e+003 5.496135e+002 1.880390e+003
         vertex 2.226292e+003 5.554174e+002 1.873390e+003
      endloop
   endfacet
   facet normal -1.000000e+000 7.285839e-017 -2.012279e-016
      outer loop
         vertex 2.226292e+003 5.554174e+002 1.873390e+003
         vertex 2.226292e+003 5.496135e+002 1.880390e+003
         vertex 2.226292e+003 5.500555e+002 1.881338e+003
      endloop
   endfacet
   facet normal -1.000000e+000 7.285839e-017 -2.012279e-016
      outer loop
         vertex 2.226292e+003 5.554174e+002 1.873390e+003
         vertex 2.226292e+003 5.500555e+002 1.881338e+003
         vertex 2.226292e+003 5.503262e+002 1.882348e+003
      endloop
   endfacet
   facet normal -1.000000e+000 7.285839e-017 -2.012279e-016
      outer loop
         vertex 2.226292e+003 5.433754e+002 1.943299e+003
         vertex 2.226292e+003 5.423652e+002 1.943028e+003
         vertex 2.226292e+003 5.334174e+002 1.948390e+003
      endloop
   endfacet
   facet normal -1.000000e+000 7.285839e-017 -2.012279e-016
      outer loop
         vertex 2.226292e+003 5.334174e+002 1.948390e+003
         vertex 2.226292e+003 5.423652e+002 1.943028e+003
         vertex 2.226292e+003 5.414174e+002 1.942586e+003
      endloop
   endfacet
   facet normal -1.000000e+000 7.285839e-017 -2.012279e-016
      outer loop
         vertex 2.226292e+003 5.334174e+002 1.948390e+003
         vertex 2.226292e+003 5.414174e+002 1.942586e+003
         vertex 2.226292e+003 5.405606e+002 1.941986e+003
      endloop
   endfacet
   facet normal -1.000000e+000 7.285839e-017 -2.012279e-016
      outer loop
         vertex 2.226292e+003 5.496135e+002 1.940390e+003
         vertex 2.226292e+003 5.554174e+002 1.948390e+003
         vertex 2.226292e+003 5.500555e+002 1.939442e+003
      endloop
   endfacet
   facet normal -1.000000e+000 7.285839e-017 -2.012279e-016
      outer loop
         vertex 2.226292e+003 5.500555e+002 1.939442e+003
         vertex 2.226292e+003 5.554174e+002 1.948390e+003
         vertex 2.226292e+003 5.503262e+002 1.938432e+003
      endloop
   endfacet
   facet normal -1.000000e+000 7.285839e-017 -2.012279e-016
      outer loop
         vertex 2.226292e+003 5.474174e+002 1.932194e+003
         vertex 2.226292e+003 5.482740e+002 1.932794e+003
         vertex 2.226292e+003 5.554174e+002 1.873390e+003
      endloop
   endfacet
   facet normal -1.000000e+000 7.285839e-017 -2.012279e-016
      outer loop
         vertex 2.226292e+003 5.554174e+002 1.873390e+003
         vertex 2.226292e+003 5.482740e+002 1.932794e+003
         vertex 2.226292e+003 5.490136e+002 1.933533e+003
      endloop
   endfacet
   facet normal -1.000000e+000 7.285839e-017 -2.012279e-016
      outer loop
         vertex 2.226292e+003 5.554174e+002 1.873390e+003
         vertex 2.226292e+003 5.490136e+002 1.933533e+003
         vertex 2.226292e+003 5.496135e+002 1.934390e+003
      endloop
   endfacet
   facet normal -1.000000e+000 7.285839e-017 -2.012279e-016
      outer loop
         vertex 2.226292e+003 5.496135e+002 1.940390e+003
         vertex 2.226292e+003 5.490136e+002 1.941247e+003
         vertex 2.226292e+003 5.554174e+002 1.948390e+003
      endloop
   endfacet
   facet normal -1.000000e+000 7.285839e-017 -2.012279e-016
      outer loop
         vertex 2.226292e+003 5.554174e+002 1.948390e+003
         vertex 2.226292e+003 5.490136e+002 1.941247e+003
         vertex 2.226292e+003 5.482740e+002 1.941986e+003
      endloop
   endfacet
   facet normal -1.000000e+000 7.285839e-017 -2.012279e-016
      outer loop
         vertex 2.226292e+003 5.554174e+002 1.948390e+003
         vertex 2.226292e+003 5.482740e+002 1.941986e+003
         vertex 2.226292e+003 5.474174e+002 1.942586e+003
      endloop
   endfacet
   facet normal -1.000000e+000 7.285839e-017 -2.012279e-016
      outer loop
         vertex 2.226292e+003 5.474174e+002 1.942586e+003
         vertex 2.226292e+003 5.464694e+002 1.943028e+003
         vertex 2.226292e+003 5.554174e+002 1.948390e+003
      endloop
   endfacet
   facet normal -1.000000e+000 7.285839e-017 -2.012279e-016
      outer loop
         vertex 2.226292e+003 5.554174e+002 1.948390e+003
         vertex 2.226292e+003 5.464694e+002 1.943028e+003
         vertex 2.226292e+003 5.454592e+002 1.943299e+003
      endloop
   endfacet
   facet normal -1.000000e+000 7.285839e-017 -2.012279e-016
      outer loop
         vertex 2.226292e+003 5.554174e+002 1.948390e+003
         vertex 2.226292e+003 5.454592e+002 1.943299e+003
         vertex 2.226292e+003 5.334174e+002 1.948390e+003
      endloop
   endfacet
   facet normal -1.000000e+000 7.285839e-017 -2.012279e-016
      outer loop
         vertex 2.226292e+003 5.334174e+002 1.948390e+003
         vertex 2.226292e+003 5.454592e+002 1.943299e+003
         vertex 2.226292e+003 5.444173e+002 1.943390e+003
      endloop
   endfacet
   facet normal -1.000000e+000 7.285839e-017 -2.012279e-016
      outer loop
         vertex 2.226292e+003 5.334174e+002 1.948390e+003
         vertex 2.226292e+003 5.444173e+002 1.943390e+003
         vertex 2.226292e+003 5.433754e+002 1.943299e+003
      endloop
   endfacet
   facet normal -1.000000e+000 7.285839e-017 -2.012279e-016
      outer loop
         vertex 2.226292e+003 5.496135e+002 1.934390e+003
         vertex 2.226292e+003 5.500555e+002 1.935338e+003
         vertex 2.226292e+003 5.554174e+002 1.873390e+003
      endloop
   endfacet
   facet normal -1.000000e+000 7.285839e-017 -2.012279e-016
      outer loop
         vertex 2.226292e+003 5.554174e+002 1.873390e+003
         vertex 2.226292e+003 5.500555e+002 1.935338e+003
         vertex 2.226292e+003 5.503262e+002 1.936348e+003
      endloop
   endfacet
   facet normal -1.000000e+000 7.285839e-017 -2.012279e-016
      outer loop
         vertex 2.226292e+003 5.554174e+002 1.873390e+003
         vertex 2.226292e+003 5.503262e+002 1.936348e+003
         vertex 2.226292e+003 5.554174e+002 1.948390e+003
      endloop
   endfacet
   facet normal -1.000000e+000 7.285839e-017 -2.012279e-016
      outer loop
         vertex 2.226292e+003 5.554174e+002 1.948390e+003
         vertex 2.226292e+003 5.503262e+002 1.936348e+003
         vertex 2.226292e+003 5.504173e+002 1.937390e+003
      endloop
   endfacet
   facet normal -1.000000e+000 7.285839e-017 -2.012279e-016
      outer loop
         vertex 2.226292e+003 5.554174e+002 1.948390e+003
         vertex 2.226292e+003 5.504173e+002 1.937390e+003
         vertex 2.226292e+003 5.503262e+002 1.938432e+003
      endloop
   endfacet
   facet normal -1.000000e+000 7.285839e-017 -2.012279e-016
      outer loop
         vertex 2.226292e+003 5.405606e+002 1.941986e+003
         vertex 2.226292e+003 5.398211e+002 1.941247e+003
         vertex 2.226292e+003 5.334174e+002 1.948390e+003
      endloop
   endfacet
   facet normal -1.000000e+000 7.285839e-017 -2.012279e-016
      outer loop
         vertex 2.226292e+003 5.334174e+002 1.948390e+003
         vertex 2.226292e+003 5.398211e+002 1.941247e+003
         vertex 2.226292e+003 5.392212e+002 1.940390e+003
      endloop
   endfacet
   facet normal -1.000000e+000 7.285839e-017 -2.012279e-016
      outer loop
         vertex 2.226292e+003 5.334174e+002 1.948390e+003
         vertex 2.226292e+003 5.392212e+002 1.940390e+003
         vertex 2.226292e+003 5.387792e+002 1.939442e+003
      endloop
   endfacet
   facet normal -1.000000e+000 7.285839e-017 -2.012279e-016
      outer loop
         vertex 2.226292e+003 5.398211e+002 1.933533e+003
         vertex 2.226292e+003 5.334174e+002 1.877390e+003
         vertex 2.226292e+003 5.392212e+002 1.934390e+003
      endloop
   endfacet
   facet normal -1.000000e+000 7.285839e-017 -2.012279e-016
      outer loop
         vertex 2.226292e+003 5.392212e+002 1.934390e+003
         vertex 2.226292e+003 5.334174e+002 1.877390e+003
         vertex 2.226292e+003 5.387792e+002 1.935338e+003
      endloop
   endfacet
   facet normal -1.000000e+000 7.285839e-017 -2.012279e-016
      outer loop
         vertex 2.226292e+003 5.398211e+002 1.933533e+003
         vertex 2.226292e+003 5.405606e+002 1.932794e+003
         vertex 2.226292e+003 5.334174e+002 1.877390e+003
      endloop
   endfacet
   facet normal -1.000000e+000 7.285839e-017 -2.012279e-016
      outer loop
         vertex 2.226292e+003 5.334174e+002 1.877390e+003
         vertex 2.226292e+003 5.405606e+002 1.932794e+003
         vertex 2.226292e+003 5.414174e+002 1.932194e+003
      endloop
   endfacet
   facet normal -1.000000e+000 7.285839e-017 -2.012279e-016
      outer loop
         vertex 2.226292e+003 5.334174e+002 1.877390e+003
         vertex 2.226292e+003 5.414174e+002 1.932194e+003
         vertex 2.226292e+003 5.423652e+002 1.931752e+003
      endloop
   endfacet
   facet normal -1.000000e+000 7.285839e-017 -2.012279e-016
      outer loop
         vertex 2.226292e+003 5.496135e+002 1.886390e+003
         vertex 2.226292e+003 5.490136e+002 1.887247e+003
         vertex 2.226292e+003 5.464694e+002 1.931752e+003
      endloop
   endfacet
   facet normal -1.000000e+000 7.285839e-017 -2.012279e-016
      outer loop
         vertex 2.226292e+003 5.464694e+002 1.931752e+003
         vertex 2.226292e+003 5.490136e+002 1.887247e+003
         vertex 2.226292e+003 5.482740e+002 1.887986e+003
      endloop
   endfacet
   facet normal -1.000000e+000 7.285839e-017 -2.012279e-016
      outer loop
         vertex 2.226292e+003 5.387792e+002 1.881338e+003
         vertex 2.226292e+003 5.334174e+002 1.877390e+003
         vertex 2.226292e+003 5.385085e+002 1.882348e+003
      endloop
   endfacet
   facet normal -1.000000e+000 7.285839e-017 -2.012279e-016
      outer loop
         vertex 2.226292e+003 5.385085e+002 1.882348e+003
         vertex 2.226292e+003 5.334174e+002 1.877390e+003
         vertex 2.226292e+003 5.384174e+002 1.883390e+003
      endloop
   endfacet
   facet normal -1.000000e+000 7.285839e-017 -2.012279e-016
      outer loop
         vertex 2.226292e+003 5.387792e+002 1.881338e+003
         vertex 2.226292e+003 5.392212e+002 1.880390e+003
         vertex 2.226292e+003 5.334174e+002 1.877390e+003
      endloop
   endfacet
   facet normal -1.000000e+000 7.285839e-017 -2.012279e-016
      outer loop
         vertex 2.226292e+003 5.334174e+002 1.877390e+003
         vertex 2.226292e+003 5.392212e+002 1.880390e+003
         vertex 2.226292e+003 5.398211e+002 1.879533e+003
      endloop
   endfacet
   facet normal -1.000000e+000 7.285839e-017 -2.012279e-016
      outer loop
         vertex 2.226292e+003 5.334174e+002 1.877390e+003
         vertex 2.226292e+003 5.398211e+002 1.879533e+003
         vertex 2.226292e+003 5.374174e+002 1.873390e+003
      endloop
   endfacet
   facet normal -1.000000e+000 7.285839e-017 -2.012279e-016
      outer loop
         vertex 2.226292e+003 5.374174e+002 1.873390e+003
         vertex 2.226292e+003 5.398211e+002 1.879533e+003
         vertex 2.226292e+003 5.405606e+002 1.878794e+003
      endloop
   endfacet
   facet normal -1.000000e+000 7.285839e-017 -2.012279e-016
      outer loop
         vertex 2.226292e+003 5.374174e+002 1.873390e+003
         vertex 2.226292e+003 5.405606e+002 1.878794e+003
         vertex 2.226292e+003 5.414174e+002 1.878194e+003
      endloop
   endfacet
   facet normal -1.000000e+000 7.285839e-017 -2.012279e-016
      outer loop
         vertex 2.226292e+003 5.503262e+002 1.882348e+003
         vertex 2.226292e+003 5.504173e+002 1.883390e+003
         vertex 2.226292e+003 5.554174e+002 1.873390e+003
      endloop
   endfacet
   facet normal -1.000000e+000 7.285839e-017 -2.012279e-016
      outer loop
         vertex 2.226292e+003 5.554174e+002 1.873390e+003
         vertex 2.226292e+003 5.504173e+002 1.883390e+003
         vertex 2.226292e+003 5.503262e+002 1.884432e+003
      endloop
   endfacet
   facet normal -1.000000e+000 7.285839e-017 -2.012279e-016
      outer loop
         vertex 2.226292e+003 5.554174e+002 1.873390e+003
         vertex 2.226292e+003 5.503262e+002 1.884432e+003
         vertex 2.226292e+003 5.464694e+002 1.931752e+003
      endloop
   endfacet
   facet normal -1.000000e+000 7.285839e-017 -2.012279e-016
      outer loop
         vertex 2.226292e+003 5.464694e+002 1.931752e+003
         vertex 2.226292e+003 5.503262e+002 1.884432e+003
         vertex 2.226292e+003 5.500555e+002 1.885442e+003
      endloop
   endfacet
   facet normal -1.000000e+000 7.285839e-017 -2.012279e-016
      outer loop
         vertex 2.226292e+003 5.464694e+002 1.931752e+003
         vertex 2.226292e+003 5.500555e+002 1.885442e+003
         vertex 2.226292e+003 5.496135e+002 1.886390e+003
      endloop
   endfacet
   facet normal -1.000000e+000 7.285839e-017 -2.012279e-016
      outer loop
         vertex 2.226292e+003 5.482740e+002 1.887986e+003
         vertex 2.226292e+003 5.474174e+002 1.888586e+003
         vertex 2.226292e+003 5.464694e+002 1.931752e+003
      endloop
   endfacet
   facet normal -1.000000e+000 7.285839e-017 -2.012279e-016
      outer loop
         vertex 2.226292e+003 5.464694e+002 1.931752e+003
         vertex 2.226292e+003 5.474174e+002 1.888586e+003
         vertex 2.226292e+003 5.464694e+002 1.889028e+003
      endloop
   endfacet
   facet normal -1.000000e+000 7.285839e-017 -2.012279e-016
      outer loop
         vertex 2.226292e+003 5.464694e+002 1.931752e+003
         vertex 2.226292e+003 5.464694e+002 1.889028e+003
         vertex 2.226292e+003 5.454592e+002 1.889299e+003
      endloop
   endfacet
   facet normal -1.000000e+000 7.285839e-017 -2.012279e-016
      outer loop
         vertex 2.226292e+003 5.423652e+002 1.889028e+003
         vertex 2.226292e+003 5.414174e+002 1.888586e+003
         vertex 2.226292e+003 5.423652e+002 1.931752e+003
      endloop
   endfacet
   facet normal -1.000000e+000 7.285839e-017 -2.012279e-016
      outer loop
         vertex 2.226292e+003 5.423652e+002 1.931752e+003
         vertex 2.226292e+003 5.414174e+002 1.888586e+003
         vertex 2.226292e+003 5.405606e+002 1.887986e+003
      endloop
   endfacet
   facet normal -1.000000e+000 7.285839e-017 -2.012279e-016
      outer loop
         vertex 2.226292e+003 5.423652e+002 1.931752e+003
         vertex 2.226292e+003 5.405606e+002 1.887986e+003
         vertex 2.226292e+003 5.398211e+002 1.887247e+003
      endloop
   endfacet
   facet normal -1.000000e+000 7.285839e-017 -2.012279e-016
      outer loop
         vertex 2.226292e+003 5.387792e+002 1.939442e+003
         vertex 2.226292e+003 5.385085e+002 1.938432e+003
         vertex 2.226292e+003 5.334174e+002 1.948390e+003
      endloop
   endfacet
   facet normal -1.000000e+000 7.285839e-017 -2.012279e-016
      outer loop
         vertex 2.226292e+003 5.334174e+002 1.948390e+003
         vertex 2.226292e+003 5.385085e+002 1.938432e+003
         vertex 2.226292e+003 5.384174e+002 1.937390e+003
      endloop
   endfacet
   facet normal -1.000000e+000 7.285839e-017 -2.012279e-016
      outer loop
         vertex 2.226292e+003 5.334174e+002 1.948390e+003
         vertex 2.226292e+003 5.384174e+002 1.937390e+003
         vertex 2.226292e+003 5.334174e+002 1.877390e+003
      endloop
   endfacet
   facet normal -1.000000e+000 7.285839e-017 -2.012279e-016
      outer loop
         vertex 2.226292e+003 5.334174e+002 1.877390e+003
         vertex 2.226292e+003 5.384174e+002 1.937390e+003
         vertex 2.226292e+003 5.385085e+002 1.936348e+003
      endloop
   endfacet
   facet normal -1.000000e+000 7.285839e-017 -2.012279e-016
      outer loop
         vertex 2.226292e+003 5.334174e+002 1.877390e+003
         vertex 2.226292e+003 5.385085e+002 1.936348e+003
         vertex 2.226292e+003 5.387792e+002 1.935338e+003
      endloop
   endfacet
   facet normal -1.000000e+000 7.285839e-017 -2.012279e-016
      outer loop
         vertex 2.226292e+003 5.423652e+002 1.889028e+003
         vertex 2.226292e+003 5.423652e+002 1.931752e+003
         vertex 2.226292e+003 5.433754e+002 1.889299e+003
      endloop
   endfacet
   facet normal -1.000000e+000 7.285839e-017 -2.012279e-016
      outer loop
         vertex 2.226292e+003 5.433754e+002 1.889299e+003
         vertex 2.226292e+003 5.423652e+002 1.931752e+003
         vertex 2.226292e+003 5.433754e+002 1.931481e+003
      endloop
   endfacet
   facet normal -1.000000e+000 7.285839e-017 -2.012279e-016
      outer loop
         vertex 2.226292e+003 5.433754e+002 1.889299e+003
         vertex 2.226292e+003 5.433754e+002 1.931481e+003
         vertex 2.226292e+003 5.444173e+002 1.889390e+003
      endloop
   endfacet
   facet normal -1.000000e+000 7.285839e-017 -2.012279e-016
      outer loop
         vertex 2.226292e+003 5.444173e+002 1.889390e+003
         vertex 2.226292e+003 5.433754e+002 1.931481e+003
         vertex 2.226292e+003 5.444173e+002 1.931390e+003
      endloop
   endfacet
   facet normal -1.000000e+000 7.285839e-017 -2.012279e-016
      outer loop
         vertex 2.226292e+003 5.444173e+002 1.889390e+003
         vertex 2.226292e+003 5.444173e+002 1.931390e+003
         vertex 2.226292e+003 5.454592e+002 1.889299e+003
      endloop
   endfacet
   facet normal -1.000000e+000 7.285839e-017 -2.012279e-016
      outer loop
         vertex 2.226292e+003 5.454592e+002 1.889299e+003
         vertex 2.226292e+003 5.444173e+002 1.931390e+003
         vertex 2.226292e+003 5.454592e+002 1.931481e+003
      endloop
   endfacet
   facet normal -1.000000e+000 7.285839e-017 -2.012279e-016
      outer loop
         vertex 2.226292e+003 5.454592e+002 1.889299e+003
         vertex 2.226292e+003 5.454592e+002 1.931481e+003
         vertex 2.226292e+003 5.464694e+002 1.931752e+003
      endloop
   endfacet
   facet normal -1.000000e+000 7.285839e-017 -2.012279e-016
      outer loop
         vertex 2.226292e+003 5.398211e+002 1.887247e+003
         vertex 2.226292e+003 5.392212e+002 1.886390e+003
         vertex 2.226292e+003 5.423652e+002 1.931752e+003
      endloop
   endfacet
   facet normal -1.000000e+000 7.285839e-017 -2.012279e-016
      outer loop
         vertex 2.226292e+003 5.423652e+002 1.931752e+003
         vertex 2.226292e+003 5.392212e+002 1.886390e+003
         vertex 2.226292e+003 5.387792e+002 1.885442e+003
      endloop
   endfacet
   facet normal -1.000000e+000 7.285839e-017 -2.012279e-016
      outer loop
         vertex 2.226292e+003 5.423652e+002 1.931752e+003
         vertex 2.226292e+003 5.387792e+002 1.885442e+003
         vertex 2.226292e+003 5.334174e+002 1.877390e+003
      endloop
   endfacet
   facet normal -1.000000e+000 7.285839e-017 -2.012279e-016
      outer loop
         vertex 2.226292e+003 5.334174e+002 1.877390e+003
         vertex 2.226292e+003 5.387792e+002 1.885442e+003
         vertex 2.226292e+003 5.385085e+002 1.884432e+003
      endloop
   endfacet
   facet normal -1.000000e+000 7.285839e-017 -2.012279e-016
      outer loop
         vertex 2.226292e+003 5.334174e+002 1.877390e+003
         vertex 2.226292e+003 5.385085e+002 1.884432e+003
         vertex 2.226292e+003 5.384174e+002 1.883390e+003
      endloop
   endfacet
   facet normal 7.558054e-017 9.983120e-001 -5.807914e-002
      outer loop
         vertex 2.226292e+003 5.385085e+002 1.884432e+003
         vertex 2.234292e+003 5.384174e+002 1.883390e+003
         vertex 2.226292e+003 5.384174e+002 1.883390e+003
      endloop
   endfacet
   facet normal 4.910871e-017 9.983120e-001 5.807914e-002
      outer loop
         vertex 2.226292e+003 5.384174e+002 1.883390e+003
         vertex 2.234292e+003 5.384174e+002 1.883390e+003
         vertex 2.234292e+003 5.385085e+002 1.882348e+003
      endloop
   endfacet
   facet normal 3.555547e-017 9.932307e-001 1.161583e-001
      outer loop
         vertex 2.226292e+003 5.384174e+002 1.883390e+003
         vertex 2.234292e+003 5.385085e+002 1.882348e+003
         vertex 2.226292e+003 5.385085e+002 1.882348e+003
      endloop
   endfacet
   facet normal 8.226154e-018 9.730601e-001 2.305518e-001
      outer loop
         vertex 2.226292e+003 5.385085e+002 1.882348e+003
         vertex 2.234292e+003 5.385085e+002 1.882348e+003
         vertex 2.234292e+003 5.387792e+002 1.881338e+003
      endloop
   endfacet
   facet normal -5.549933e-018 9.579706e-001 2.868663e-001
      outer loop
         vertex 2.226292e+003 5.385085e+002 1.882348e+003
         vertex 2.234292e+003 5.387792e+002 1.881338e+003
         vertex 2.226292e+003 5.387792e+002 1.881338e+003
      endloop
   endfacet
   facet normal -3.290636e-017 9.182422e-001 3.960194e-001
      outer loop
         vertex 2.226292e+003 5.387792e+002 1.881338e+003
         vertex 2.234292e+003 5.387792e+002 1.881338e+003
         vertex 2.234292e+003 5.392212e+002 1.880390e+003
      endloop
   endfacet
   facet normal -4.648671e-017 8.936031e-001 4.488580e-001
      outer loop
         vertex 2.226292e+003 5.387792e+002 1.881338e+003
         vertex 2.234292e+003 5.392212e+002 1.880390e+003
         vertex 2.226292e+003 5.392212e+002 1.880390e+003
      endloop
   endfacet
   facet normal -7.303902e-017 8.355240e-001 5.494540e-001
      outer loop
         vertex 2.226292e+003 5.392212e+002 1.880390e+003
         vertex 2.234292e+003 5.392212e+002 1.880390e+003
         vertex 2.234292e+003 5.398211e+002 1.879533e+003
      endloop
   endfacet
   facet normal -8.601100e-017 8.020839e-001 5.972114e-001
      outer loop
         vertex 2.226292e+003 5.392212e+002 1.880390e+003
         vertex 2.234292e+003 5.398211e+002 1.879533e+003
         vertex 2.226292e+003 5.398211e+002 1.879533e+003
      endloop
   endfacet
   facet normal -1.109524e-016 7.274188e-001 6.861938e-001
      outer loop
         vertex 2.226292e+003 5.398211e+002 1.879533e+003
         vertex 2.234292e+003 5.398211e+002 1.879533e+003
         vertex 2.234292e+003 5.405606e+002 1.878794e+003
      endloop
   endfacet
   facet normal -1.229219e-016 6.861938e-001 7.274188e-001
      outer loop
         vertex 2.226292e+003 5.398211e+002 1.879533e+003
         vertex 2.234292e+003 5.405606e+002 1.878794e+003
         vertex 2.226292e+003 5.405606e+002 1.878794e+003
      endloop
   endfacet
   facet normal -1.454946e-016 5.972114e-001 8.020839e-001
      outer loop
         vertex 2.226292e+003 5.405606e+002 1.878794e+003
         vertex 2.234292e+003 5.405606e+002 1.878794e+003
         vertex 2.234292e+003 5.414174e+002 1.878194e+003
      endloop
   endfacet
   facet normal -1.560979e-016 5.494540e-001 8.355240e-001
      outer loop
         vertex 2.226292e+003 5.405606e+002 1.878794e+003
         vertex 2.234292e+003 5.414174e+002 1.878194e+003
         vertex 2.226292e+003 5.414174e+002 1.878194e+003
      endloop
   endfacet
   facet normal -1.756160e-016 4.488580e-001 8.936031e-001
      outer loop
         vertex 2.226292e+003 5.414174e+002 1.878194e+003
         vertex 2.234292e+003 5.414174e+002 1.878194e+003
         vertex 2.234292e+003 5.423652e+002 1.877752e+003
      endloop
   endfacet
   facet normal -1.845309e-016 3.960194e-001 9.182422e-001
      outer loop
         vertex 2.226292e+003 5.414174e+002 1.878194e+003
         vertex 2.234292e+003 5.423652e+002 1.877752e+003
         vertex 2.226292e+003 5.423652e+002 1.877752e+003
      endloop
   endfacet
   facet normal -2.004014e-016 2.868663e-001 9.579706e-001
      outer loop
         vertex 2.226292e+003 5.423652e+002 1.877752e+003
         vertex 2.234292e+003 5.423652e+002 1.877752e+003
         vertex 2.234292e+003 5.433754e+002 1.877481e+003
      endloop
   endfacet
   facet normal -2.073570e-016 2.305518e-001 9.730601e-001
      outer loop
         vertex 2.226292e+003 5.423652e+002 1.877752e+003
         vertex 2.234292e+003 5.433754e+002 1.877481e+003
         vertex 2.226292e+003 5.433754e+002 1.877481e+003
      endloop
   endfacet
   facet normal -2.190977e-016 1.161583e-001 9.932307e-001
      outer loop
         vertex 2.226292e+003 5.433754e+002 1.877481e+003
         vertex 2.234292e+003 5.433754e+002 1.877481e+003
         vertex 2.234292e+003 5.444173e+002 1.877390e+003
      endloop
   endfacet
   facet normal -2.238827e-016 5.807914e-002 9.983120e-001
      outer loop
         vertex 2.226292e+003 5.433754e+002 1.877481e+003
         vertex 2.234292e+003 5.444173e+002 1.877390e+003
         vertex 2.226292e+003 5.444173e+002 1.877390e+003
      endloop
   endfacet
   facet normal -2.311368e-016 -5.807914e-002 9.983120e-001
      outer loop
         vertex 2.226292e+003 5.444173e+002 1.877390e+003
         vertex 2.234292e+003 5.444173e+002 1.877390e+003
         vertex 2.234292e+003 5.454592e+002 1.877481e+003
      endloop
   endfacet
   facet normal -2.336059e-016 -1.161583e-001 9.932307e-001
      outer loop
         vertex 2.226292e+003 5.444173e+002 1.877390e+003
         vertex 2.234292e+003 5.454592e+002 1.877481e+003
         vertex 2.226292e+003 5.454592e+002 1.877481e+003
      endloop
   endfacet
   facet normal -2.361530e-016 -2.305518e-001 9.730601e-001
      outer loop
         vertex 2.226292e+003 5.454592e+002 1.877481e+003
         vertex 2.234292e+003 5.454592e+002 1.877481e+003
         vertex 2.234292e+003 5.464694e+002 1.877752e+003
      endloop
   endfacet
   facet normal -2.362310e-016 -2.868663e-001 9.579706e-001
      outer loop
         vertex 2.226292e+003 5.454592e+002 1.877481e+003
         vertex 2.234292e+003 5.464694e+002 1.877752e+003
         vertex 2.226292e+003 5.464694e+002 1.877752e+003
      endloop
   endfacet
   facet normal -2.339938e-016 -3.960194e-001 9.182422e-001
      outer loop
         vertex 2.226292e+003 5.464694e+002 1.877752e+003
         vertex 2.234292e+003 5.464694e+002 1.877752e+003
         vertex 2.234292e+003 5.474174e+002 1.878194e+003
      endloop
   endfacet
   facet normal -2.316784e-016 -4.488580e-001 8.936031e-001
      outer loop
         vertex 2.226292e+003 5.464694e+002 1.877752e+003
         vertex 2.234292e+003 5.474174e+002 1.878194e+003
         vertex 2.226292e+003 5.474174e+002 1.878194e+003
      endloop
   endfacet
   facet normal -2.247247e-016 -5.494540e-001 8.355240e-001
      outer loop
         vertex 2.226292e+003 5.474174e+002 1.878194e+003
         vertex 2.234292e+003 5.474174e+002 1.878194e+003
         vertex 2.234292e+003 5.482740e+002 1.878794e+003
      endloop
   endfacet
   facet normal -2.200864e-016 -5.972114e-001 8.020839e-001
      outer loop
         vertex 2.226292e+003 5.474174e+002 1.878194e+003
         vertex 2.234292e+003 5.482740e+002 1.878794e+003
         vertex 2.226292e+003 5.482740e+002 1.878794e+003
      endloop
   endfacet
   facet normal -2.086276e-016 -6.861938e-001 7.274188e-001
      outer loop
         vertex 2.226292e+003 5.482740e+002 1.878794e+003
         vertex 2.234292e+003 5.482740e+002 1.878794e+003
         vertex 2.234292e+003 5.490136e+002 1.879533e+003
      endloop
   endfacet
   facet normal -2.018071e-016 -7.274188e-001 6.861938e-001
      outer loop
         vertex 2.226292e+003 5.482740e+002 1.878794e+003
         vertex 2.234292e+003 5.490136e+002 1.879533e+003
         vertex 2.226292e+003 5.490136e+002 1.879533e+003
      endloop
   endfacet
   facet normal -1.861914e-016 -8.020839e-001 5.972114e-001
      outer loop
         vertex 2.226292e+003 5.490136e+002 1.879533e+003
         vertex 2.234292e+003 5.490136e+002 1.879533e+003
         vertex 2.234292e+003 5.496135e+002 1.880390e+003
      endloop
   endfacet
   facet normal -1.773960e-016 -8.355240e-001 5.494540e-001
      outer loop
         vertex 2.226292e+003 5.490136e+002 1.879533e+003
         vertex 2.234292e+003 5.496135e+002 1.880390e+003
         vertex 2.226292e+003 5.496135e+002 1.880390e+003
      endloop
   endfacet
   facet normal -1.580978e-016 -8.936031e-001 4.488580e-001
      outer loop
         vertex 2.226292e+003 5.496135e+002 1.880390e+003
         vertex 2.234292e+003 5.496135e+002 1.880390e+003
         vertex 2.234292e+003 5.500555e+002 1.881338e+003
      endloop
   endfacet
   facet normal -1.475949e-016 -9.182422e-001 3.960194e-001
      outer loop
         vertex 2.226292e+003 5.496135e+002 1.880390e+003
         vertex 2.234292e+003 5.500555e+002 1.881338e+003
         vertex 2.226292e+003 5.500555e+002 1.881338e+003
      endloop
   endfacet
   facet normal -1.252005e-016 -9.579706e-001 2.868663e-001
      outer loop
         vertex 2.226292e+003 5.500555e+002 1.881338e+003
         vertex 2.234292e+003 5.500555e+002 1.881338e+003
         vertex 2.234292e+003 5.503262e+002 1.882348e+003
      endloop
   endfacet
   facet normal -1.133091e-016 -9.730601e-001 2.305518e-001
      outer loop
         vertex 2.226292e+003 5.500555e+002 1.881338e+003
         vertex 2.234292e+003 5.503262e+002 1.882348e+003
         vertex 2.226292e+003 5.503262e+002 1.882348e+003
      endloop
   endfacet
   facet normal -8.849913e-017 -9.932307e-001 1.161583e-001
      outer loop
         vertex 2.226292e+003 5.503262e+002 1.882348e+003
         vertex 2.234292e+003 5.503262e+002 1.882348e+003
         vertex 2.234292e+003 5.504173e+002 1.883390e+003
      endloop
   endfacet
   facet normal -7.558054e-017 -9.983120e-001 5.807914e-002
      outer loop
         vertex 2.226292e+003 5.503262e+002 1.882348e+003
         vertex 2.234292e+003 5.504173e+002 1.883390e+003
         vertex 2.226292e+003 5.504173e+002 1.883390e+003
      endloop
   endfacet
   facet normal -4.910871e-017 -9.983120e-001 -5.807914e-002
      outer loop
         vertex 2.226292e+003 5.504173e+002 1.883390e+003
         vertex 2.234292e+003 5.504173e+002 1.883390e+003
         vertex 2.234292e+003 5.503262e+002 1.884432e+003
      endloop
   endfacet
   facet normal -3.555547e-017 -9.932307e-001 -1.161583e-001
      outer loop
         vertex 2.226292e+003 5.504173e+002 1.883390e+003
         vertex 2.234292e+003 5.503262e+002 1.884432e+003
         vertex 2.226292e+003 5.503262e+002 1.884432e+003
      endloop
   endfacet
   facet normal -8.226154e-018 -9.730601e-001 -2.305518e-001
      outer loop
         vertex 2.226292e+003 5.503262e+002 1.884432e+003
         vertex 2.234292e+003 5.503262e+002 1.884432e+003
         vertex 2.234292e+003 5.500555e+002 1.885442e+003
      endloop
   endfacet
   facet normal 5.549933e-018 -9.579706e-001 -2.868663e-001
      outer loop
         vertex 2.226292e+003 5.503262e+002 1.884432e+003
         vertex 2.234292e+003 5.500555e+002 1.885442e+003
         vertex 2.226292e+003 5.500555e+002 1.885442e+003
      endloop
   endfacet
   facet normal 3.290636e-017 -9.182422e-001 -3.960194e-001
      outer loop
         vertex 2.226292e+003 5.500555e+002 1.885442e+003
         vertex 2.234292e+003 5.500555e+002 1.885442e+003
         vertex 2.234292e+003 5.496135e+002 1.886390e+003
      endloop
   endfacet
   facet normal 4.648671e-017 -8.936031e-001 -4.488580e-001
      outer loop
         vertex 2.226292e+003 5.500555e+002 1.885442e+003
         vertex 2.234292e+003 5.496135e+002 1.886390e+003
         vertex 2.226292e+003 5.496135e+002 1.886390e+003
      endloop
   endfacet
   facet normal 7.303902e-017 -8.355240e-001 -5.494540e-001
      outer loop
         vertex 2.226292e+003 5.496135e+002 1.886390e+003
         vertex 2.234292e+003 5.496135e+002 1.886390e+003
         vertex 2.234292e+003 5.490136e+002 1.887247e+003
      endloop
   endfacet
   facet normal 8.601100e-017 -8.020839e-001 -5.972114e-001
      outer loop
         vertex 2.226292e+003 5.496135e+002 1.886390e+003
         vertex 2.234292e+003 5.490136e+002 1.887247e+003
         vertex 2.226292e+003 5.490136e+002 1.887247e+003
      endloop
   endfacet
   facet normal 1.109524e-016 -7.274188e-001 -6.861938e-001
      outer loop
         vertex 2.226292e+003 5.490136e+002 1.887247e+003
         vertex 2.234292e+003 5.490136e+002 1.887247e+003
         vertex 2.234292e+003 5.482740e+002 1.887986e+003
      endloop
   endfacet
   facet normal 1.229219e-016 -6.861938e-001 -7.274188e-001
      outer loop
         vertex 2.226292e+003 5.490136e+002 1.887247e+003
         vertex 2.234292e+003 5.482740e+002 1.887986e+003
         vertex 2.226292e+003 5.482740e+002 1.887986e+003
      endloop
   endfacet
   facet normal 1.454946e-016 -5.972114e-001 -8.020839e-001
      outer loop
         vertex 2.226292e+003 5.482740e+002 1.887986e+003
         vertex 2.234292e+003 5.482740e+002 1.887986e+003
         vertex 2.234292e+003 5.474174e+002 1.888586e+003
      endloop
   endfacet
   facet normal 1.560979e-016 -5.494540e-001 -8.355240e-001
      outer loop
         vertex 2.226292e+003 5.482740e+002 1.887986e+003
         vertex 2.234292e+003 5.474174e+002 1.888586e+003
         vertex 2.226292e+003 5.474174e+002 1.888586e+003
      endloop
   endfacet
   facet normal 1.756160e-016 -4.488580e-001 -8.936031e-001
      outer loop
         vertex 2.226292e+003 5.474174e+002 1.888586e+003
         vertex 2.234292e+003 5.474174e+002 1.888586e+003
         vertex 2.234292e+003 5.464694e+002 1.889028e+003
      endloop
   endfacet
   facet normal 1.845309e-016 -3.960194e-001 -9.182422e-001
      outer loop
         vertex 2.226292e+003 5.474174e+002 1.888586e+003
         vertex 2.234292e+003 5.464694e+002 1.889028e+003
         vertex 2.226292e+003 5.464694e+002 1.889028e+003
      endloop
   endfacet
   facet normal 2.004014e-016 -2.868663e-001 -9.579706e-001
      outer loop
         vertex 2.226292e+003 5.464694e+002 1.889028e+003
         vertex 2.234292e+003 5.464694e+002 1.889028e+003
         vertex 2.234292e+003 5.454592e+002 1.889299e+003
      endloop
   endfacet
   facet normal 2.073570e-016 -2.305518e-001 -9.730601e-001
      outer loop
         vertex 2.226292e+003 5.464694e+002 1.889028e+003
         vertex 2.234292e+003 5.454592e+002 1.889299e+003
         vertex 2.226292e+003 5.454592e+002 1.889299e+003
      endloop
   endfacet
   facet normal 2.190977e-016 -1.161583e-001 -9.932307e-001
      outer loop
         vertex 2.226292e+003 5.454592e+002 1.889299e+003
         vertex 2.234292e+003 5.454592e+002 1.889299e+003
         vertex 2.234292e+003 5.444173e+002 1.889390e+003
      endloop
   endfacet
   facet normal 2.238827e-016 -5.807914e-002 -9.983120e-001
      outer loop
         vertex 2.226292e+003 5.454592e+002 1.889299e+003
         vertex 2.234292e+003 5.444173e+002 1.889390e+003
         vertex 2.226292e+003 5.444173e+002 1.889390e+003
      endloop
   endfacet
   facet normal 2.311368e-016 5.807914e-002 -9.983120e-001
      outer loop
         vertex 2.226292e+003 5.444173e+002 1.889390e+003
         vertex 2.234292e+003 5.444173e+002 1.889390e+003
         vertex 2.234292e+003 5.433754e+002 1.889299e+003
      endloop
   endfacet
   facet normal 2.336059e-016 1.161583e-001 -9.932307e-001
      outer loop
         vertex 2.226292e+003 5.444173e+002 1.889390e+003
         vertex 2.234292e+003 5.433754e+002 1.889299e+003
         vertex 2.226292e+003 5.433754e+002 1.889299e+003
      endloop
   endfacet
   facet normal 2.361530e-016 2.305518e-001 -9.730601e-001
      outer loop
         vertex 2.226292e+003 5.433754e+002 1.889299e+003
         vertex 2.234292e+003 5.433754e+002 1.889299e+003
         vertex 2.234292e+003 5.423652e+002 1.889028e+003
      endloop
   endfacet
   facet normal 2.362310e-016 2.868663e-001 -9.579706e-001
      outer loop
         vertex 2.226292e+003 5.433754e+002 1.889299e+003
         vertex 2.234292e+003 5.423652e+002 1.889028e+003
         vertex 2.226292e+003 5.423652e+002 1.889028e+003
      endloop
   endfacet
   facet normal 2.339938e-016 3.960194e-001 -9.182422e-001
      outer loop
         vertex 2.226292e+003 5.423652e+002 1.889028e+003
         vertex 2.234292e+003 5.423652e+002 1.889028e+003
         vertex 2.234292e+003 5.414174e+002 1.888586e+003
      endloop
   endfacet
   facet normal 2.316784e-016 4.488580e-001 -8.936031e-001
      outer loop
         vertex 2.226292e+003 5.423652e+002 1.889028e+003
         vertex 2.234292e+003 5.414174e+002 1.888586e+003
         vertex 2.226292e+003 5.414174e+002 1.888586e+003
      endloop
   endfacet
   facet normal 2.247247e-016 5.494540e-001 -8.355240e-001
      outer loop
         vertex 2.226292e+003 5.414174e+002 1.888586e+003
         vertex 2.234292e+003 5.414174e+002 1.888586e+003
         vertex 2.234292e+003 5.405606e+002 1.887986e+003
      endloop
   endfacet
   facet normal 2.200864e-016 5.972114e-001 -8.020839e-001
      outer loop
         vertex 2.226292e+003 5.414174e+002 1.888586e+003
         vertex 2.234292e+003 5.405606e+002 1.887986e+003
         vertex 2.226292e+003 5.405606e+002 1.887986e+003
      endloop
   endfacet
   facet normal 2.086276e-016 6.861938e-001 -7.274188e-001
      outer loop
         vertex 2.226292e+003 5.405606e+002 1.887986e+003
         vertex 2.234292e+003 5.405606e+002 1.887986e+003
         vertex 2.234292e+003 5.398211e+002 1.887247e+003
      endloop
   endfacet
   facet normal 2.018071e-016 7.274188e-001 -6.861938e-001
      outer loop
         vertex 2.226292e+003 5.405606e+002 1.887986e+003
         vertex 2.234292e+003 5.398211e+002 1.887247e+003
         vertex 2.226292e+003 5.398211e+002 1.887247e+003
      endloop
   endfacet
   facet normal 1.861914e-016 8.020839e-001 -5.972114e-001
      outer loop
         vertex 2.226292e+003 5.398211e+002 1.887247e+003
         vertex 2.234292e+003 5.398211e+002 1.887247e+003
         vertex 2.234292e+003 5.392212e+002 1.886390e+003
      endloop
   endfacet
   facet normal 1.773960e-016 8.355240e-001 -5.494540e-001
      outer loop
         vertex 2.226292e+003 5.398211e+002 1.887247e+003
         vertex 2.234292e+003 5.392212e+002 1.886390e+003
         vertex 2.226292e+003 5.392212e+002 1.886390e+003
      endloop
   endfacet
   facet normal 1.580978e-016 8.936031e-001 -4.488580e-001
      outer loop
         vertex 2.226292e+003 5.392212e+002 1.886390e+003
         vertex 2.234292e+003 5.392212e+002 1.886390e+003
         vertex 2.234292e+003 5.387792e+002 1.885442e+003
      endloop
   endfacet
   facet normal 1.475949e-016 9.182422e-001 -3.960194e-001
      outer loop
         vertex 2.226292e+003 5.392212e+002 1.886390e+003
         vertex 2.234292e+003 5.387792e+002 1.885442e+003
         vertex 2.226292e+003 5.387792e+002 1.885442e+003
      endloop
   endfacet
   facet normal 1.252005e-016 9.579706e-001 -2.868663e-001
      outer loop
         vertex 2.226292e+003 5.387792e+002 1.885442e+003
         vertex 2.234292e+003 5.387792e+002 1.885442e+003
         vertex 2.234292e+003 5.385085e+002 1.884432e+003
      endloop
   endfacet
   facet normal 1.133091e-016 9.730601e-001 -2.305518e-001
      outer loop
         vertex 2.226292e+003 5.387792e+002 1.885442e+003
         vertex 2.234292e+003 5.385085e+002 1.884432e+003
         vertex 2.226292e+003 5.385085e+002 1.884432e+003
      endloop
   endfacet
   facet normal 8.849913e-017 9.932307e-001 -1.161583e-001
      outer loop
         vertex 2.226292e+003 5.385085e+002 1.884432e+003
         vertex 2.234292e+003 5.385085e+002 1.884432e+003
         vertex 2.234292e+003 5.384174e+002 1.883390e+003
      endloop
   endfacet
   facet normal 7.558054e-017 9.983120e-001 -5.807914e-002
      outer loop
         vertex 2.226292e+003 5.385085e+002 1.938432e+003
         vertex 2.234292e+003 5.384174e+002 1.937390e+003
         vertex 2.226292e+003 5.384174e+002 1.937390e+003
      endloop
   endfacet
   facet normal 4.910871e-017 9.983120e-001 5.807914e-002
      outer loop
         vertex 2.226292e+003 5.384174e+002 1.937390e+003
         vertex 2.234292e+003 5.384174e+002 1.937390e+003
         vertex 2.234292e+003 5.385085e+002 1.936348e+003
      endloop
   endfacet
   facet normal 3.555547e-017 9.932307e-001 1.161583e-001
      outer loop
         vertex 2.226292e+003 5.384174e+002 1.937390e+003
         vertex 2.234292e+003 5.385085e+002 1.936348e+003
         vertex 2.226292e+003 5.385085e+002 1.936348e+003
      endloop
   endfacet
   facet normal 8.226154e-018 9.730601e-001 2.305518e-001
      outer loop
         vertex 2.226292e+003 5.385085e+002 1.936348e+003
         vertex 2.234292e+003 5.385085e+002 1.936348e+003
         vertex 2.234292e+003 5.387792e+002 1.935338e+003
      endloop
   endfacet
   facet normal -5.549933e-018 9.579706e-001 2.868663e-001
      outer loop
         vertex 2.226292e+003 5.385085e+002 1.936348e+003
         vertex 2.234292e+003 5.387792e+002 1.935338e+003
         vertex 2.226292e+003 5.387792e+002 1.935338e+003
      endloop
   endfacet
   facet normal -3.290636e-017 9.182422e-001 3.960194e-001
      outer loop
         vertex 2.226292e+003 5.387792e+002 1.935338e+003
         vertex 2.234292e+003 5.387792e+002 1.935338e+003
         vertex 2.234292e+003 5.392212e+002 1.934390e+003
      endloop
   endfacet
   facet normal -4.648671e-017 8.936031e-001 4.488580e-001
      outer loop
         vertex 2.226292e+003 5.387792e+002 1.935338e+003
         vertex 2.234292e+003 5.392212e+002 1.934390e+003
         vertex 2.226292e+003 5.392212e+002 1.934390e+003
      endloop
   endfacet
   facet normal -7.303902e-017 8.355240e-001 5.494540e-001
      outer loop
         vertex 2.226292e+003 5.392212e+002 1.934390e+003
         vertex 2.234292e+003 5.392212e+002 1.934390e+003
         vertex 2.234292e+003 5.398211e+002 1.933533e+003
      endloop
   endfacet
   facet normal -8.601100e-017 8.020839e-001 5.972114e-001
      outer loop
         vertex 2.226292e+003 5.392212e+002 1.934390e+003
         vertex 2.234292e+003 5.398211e+002 1.933533e+003
         vertex 2.226292e+003 5.398211e+002 1.933533e+003
      endloop
   endfacet
   facet normal -1.109524e-016 7.274188e-001 6.861938e-001
      outer loop
         vertex 2.226292e+003 5.398211e+002 1.933533e+003
         vertex 2.234292e+003 5.398211e+002 1.933533e+003
         vertex 2.234292e+003 5.405606e+002 1.932794e+003
      endloop
   endfacet
   facet normal -1.229219e-016 6.861938e-001 7.274188e-001
      outer loop
         vertex 2.226292e+003 5.398211e+002 1.933533e+003
         vertex 2.234292e+003 5.405606e+002 1.932794e+003
         vertex 2.226292e+003 5.405606e+002 1.932794e+003
      endloop
   endfacet
   facet normal -1.454946e-016 5.972114e-001 8.020839e-001
      outer loop
         vertex 2.226292e+003 5.405606e+002 1.932794e+003
         vertex 2.234292e+003 5.405606e+002 1.932794e+003
         vertex 2.234292e+003 5.414174e+002 1.932194e+003
      endloop
   endfacet
   facet normal -1.560979e-016 5.494540e-001 8.355240e-001
      outer loop
         vertex 2.226292e+003 5.405606e+002 1.932794e+003
         vertex 2.234292e+003 5.414174e+002 1.932194e+003
         vertex 2.226292e+003 5.414174e+002 1.932194e+003
      endloop
   endfacet
   facet normal -1.756160e-016 4.488580e-001 8.936031e-001
      outer loop
         vertex 2.226292e+003 5.414174e+002 1.932194e+003
         vertex 2.234292e+003 5.414174e+002 1.932194e+003
         vertex 2.234292e+003 5.423652e+002 1.931752e+003
      endloop
   endfacet
   facet normal -1.845309e-016 3.960194e-001 9.182422e-001
      outer loop
         vertex 2.226292e+003 5.414174e+002 1.932194e+003
         vertex 2.234292e+003 5.423652e+002 1.931752e+003
         vertex 2.226292e+003 5.423652e+002 1.931752e+003
      endloop
   endfacet
   facet normal -2.004014e-016 2.868663e-001 9.579706e-001
      outer loop
         vertex 2.226292e+003 5.423652e+002 1.931752e+003
         vertex 2.234292e+003 5.423652e+002 1.931752e+003
         vertex 2.234292e+003 5.433754e+002 1.931481e+003
      endloop
   endfacet
   facet normal -2.073570e-016 2.305518e-001 9.730601e-001
      outer loop
         vertex 2.226292e+003 5.423652e+002 1.931752e+003
         vertex 2.234292e+003 5.433754e+002 1.931481e+003
         vertex 2.226292e+003 5.433754e+002 1.931481e+003
      endloop
   endfacet
   facet normal -2.190977e-016 1.161583e-001 9.932307e-001
      outer loop
         vertex 2.226292e+003 5.433754e+002 1.931481e+003
         vertex 2.234292e+003 5.433754e+002 1.931481e+003
         vertex 2.234292e+003 5.444173e+002 1.931390e+003
      endloop
   endfacet
   facet normal -2.238827e-016 5.807914e-002 9.983120e-001
      outer loop
         vertex 2.226292e+003 5.433754e+002 1.931481e+003
         vertex 2.234292e+003 5.444173e+002 1.931390e+003
         vertex 2.226292e+003 5.444173e+002 1.931390e+003
      endloop
   endfacet
   facet normal -2.311368e-016 -5.807914e-002 9.983120e-001
      outer loop
         vertex 2.226292e+003 5.444173e+002 1.931390e+003
         vertex 2.234292e+003 5.444173e+002 1.931390e+003
         vertex 2.234292e+003 5.454592e+002 1.931481e+003
      endloop
   endfacet
   facet normal -2.336059e-016 -1.161583e-001 9.932307e-001
      outer loop
         vertex 2.226292e+003 5.444173e+002 1.931390e+003
         vertex 2.234292e+003 5.454592e+002 1.931481e+003
         vertex 2.226292e+003 5.454592e+002 1.931481e+003
      endloop
   endfacet
   facet normal -2.361530e-016 -2.305518e-001 9.730601e-001
      outer loop
         vertex 2.226292e+003 5.454592e+002 1.931481e+003
         vertex 2.234292e+003 5.454592e+002 1.931481e+003
         vertex 2.234292e+003 5.464694e+002 1.931752e+003
      endloop
   endfacet
   facet normal -2.362310e-016 -2.868663e-001 9.579706e-001
      outer loop
         vertex 2.226292e+003 5.454592e+002 1.931481e+003
         vertex 2.234292e+003 5.464694e+002 1.931752e+003
         vertex 2.226292e+003 5.464694e+002 1.931752e+003
      endloop
   endfacet
   facet normal -2.339938e-016 -3.960194e-001 9.182422e-001
      outer loop
         vertex 2.226292e+003 5.464694e+002 1.931752e+003
         vertex 2.234292e+003 5.464694e+002 1.931752e+003
         vertex 2.234292e+003 5.474174e+002 1.932194e+003
      endloop
   endfacet
   facet normal -2.316784e-016 -4.488580e-001 8.936031e-001
      outer loop
         vertex 2.226292e+003 5.464694e+002 1.931752e+003
         vertex 2.234292e+003 5.474174e+002 1.932194e+003
         vertex 2.226292e+003 5.474174e+002 1.932194e+003
      endloop
   endfacet
   facet normal -2.247247e-016 -5.494540e-001 8.355240e-001
      outer loop
         vertex 2.226292e+003 5.474174e+002 1.932194e+003
         vertex 2.234292e+003 5.474174e+002 1.932194e+003
         vertex 2.234292e+003 5.482740e+002 1.932794e+003
      endloop
   endfacet
   facet normal -2.200864e-016 -5.972114e-001 8.020839e-001
      outer loop
         vertex 2.226292e+003 5.474174e+002 1.932194e+003
         vertex 2.234292e+003 5.482740e+002 1.932794e+003
         vertex 2.226292e+003 5.482740e+002 1.932794e+003
      endloop
   endfacet
   facet normal -2.086276e-016 -6.861938e-001 7.274188e-001
      outer loop
         vertex 2.226292e+003 5.482740e+002 1.932794e+003
         vertex 2.234292e+003 5.482740e+002 1.932794e+003
         vertex 2.234292e+003 5.490136e+002 1.933533e+003
      endloop
   endfacet
   facet normal -2.018071e-016 -7.274188e-001 6.861938e-001
      outer loop
         vertex 2.226292e+003 5.482740e+002 1.932794e+003
         vertex 2.234292e+003 5.490136e+002 1.933533e+003
         vertex 2.226292e+003 5.490136e+002 1.933533e+003
      endloop
   endfacet
   facet normal -1.861914e-016 -8.020839e-001 5.972114e-001
      outer loop
         vertex 2.226292e+003 5.490136e+002 1.933533e+003
         vertex 2.234292e+003 5.490136e+002 1.933533e+003
         vertex 2.234292e+003 5.496135e+002 1.934390e+003
      endloop
   endfacet
   facet normal -1.773960e-016 -8.355240e-001 5.494540e-001
      outer loop
         vertex 2.226292e+003 5.490136e+002 1.933533e+003
         vertex 2.234292e+003 5.496135e+002 1.934390e+003
         vertex 2.226292e+003 5.496135e+002 1.934390e+003
      endloop
   endfacet
   facet normal -1.580978e-016 -8.936031e-001 4.488580e-001
      outer loop
         vertex 2.226292e+003 5.496135e+002 1.934390e+003
         vertex 2.234292e+003 5.496135e+002 1.934390e+003
         vertex 2.234292e+003 5.500555e+002 1.935338e+003
      endloop
   endfacet
   facet normal -1.475949e-016 -9.182422e-001 3.960194e-001
      outer loop
         vertex 2.226292e+003 5.496135e+002 1.934390e+003
         vertex 2.234292e+003 5.500555e+002 1.935338e+003
         vertex 2.226292e+003 5.500555e+002 1.935338e+003
      endloop
   endfacet
   facet normal -1.252005e-016 -9.579706e-001 2.868663e-001
      outer loop
         vertex 2.226292e+003 5.500555e+002 1.935338e+003
         vertex 2.234292e+003 5.500555e+002 1.935338e+003
         vertex 2.234292e+003 5.503262e+002 1.936348e+003
      endloop
   endfacet
   facet normal -1.133091e-016 -9.730601e-001 2.305518e-001
      outer loop
         vertex 2.226292e+003 5.500555e+002 1.935338e+003
         vertex 2.234292e+003 5.503262e+002 1.936348e+003
         vertex 2.226292e+003 5.503262e+002 1.936348e+003
      endloop
   endfacet
   facet normal -8.849913e-017 -9.932307e-001 1.161583e-001
      outer loop
         vertex 2.226292e+003 5.503262e+002 1.936348e+003
         vertex 2.234292e+003 5.503262e+002 1.936348e+003
         vertex 2.234292e+003 5.504173e+002 1.937390e+003
      endloop
   endfacet
   facet normal -7.558054e-017 -9.983120e-001 5.807914e-002
      outer loop
         vertex 2.226292e+003 5.503262e+002 1.936348e+003
         vertex 2.234292e+003 5.504173e+002 1.937390e+003
         vertex 2.226292e+003 5.504173e+002 1.937390e+003
      endloop
   endfacet
   facet normal -4.910871e-017 -9.983120e-001 -5.807914e-002
      outer loop
         vertex 2.226292e+003 5.504173e+002 1.937390e+003
         vertex 2.234292e+003 5.504173e+002 1.937390e+003
         vertex 2.234292e+003 5.503262e+002 1.938432e+003
      endloop
   endfacet
   facet normal -3.555547e-017 -9.932307e-001 -1.161583e-001
      outer loop
         vertex 2.226292e+003 5.504173e+002 1.937390e+003
         vertex 2.234292e+003 5.503262e+002 1.938432e+003
         vertex 2.226292e+003 5.503262e+002 1.938432e+003
      endloop
   endfacet
   facet normal -8.226154e-018 -9.730601e-001 -2.305518e-001
      outer loop
         vertex 2.226292e+003 5.503262e+002 1.938432e+003
         vertex 2.234292e+003 5.503262e+002 1.938432e+003
         vertex 2.234292e+003 5.500555e+002 1.939442e+003
      endloop
   endfacet
   facet normal 5.549933e-018 -9.579706e-001 -2.868663e-001
      outer loop
         vertex 2.226292e+003 5.503262e+002 1.938432e+003
         vertex 2.234292e+003 5.500555e+002 1.939442e+003
         vertex 2.226292e+003 5.500555e+002 1.939442e+003
      endloop
   endfacet
   facet normal 3.290636e-017 -9.182422e-001 -3.960194e-001
      outer loop
         vertex 2.226292e+003 5.500555e+002 1.939442e+003
         vertex 2.234292e+003 5.500555e+002 1.939442e+003
         vertex 2.234292e+003 5.496135e+002 1.940390e+003
      endloop
   endfacet
   facet normal 4.648671e-017 -8.936031e-001 -4.488580e-001
      outer loop
         vertex 2.226292e+003 5.500555e+002 1.939442e+003
         vertex 2.234292e+003 5.496135e+002 1.940390e+003
         vertex 2.226292e+003 5.496135e+002 1.940390e+003
      endloop
   endfacet
   facet normal 7.303902e-017 -8.355240e-001 -5.494540e-001
      outer loop
         vertex 2.226292e+003 5.496135e+002 1.940390e+003
         vertex 2.234292e+003 5.496135e+002 1.940390e+003
         vertex 2.234292e+003 5.490136e+002 1.941247e+003
      endloop
   endfacet
   facet normal 8.601100e-017 -8.020839e-001 -5.972114e-001
      outer loop
         vertex 2.226292e+003 5.496135e+002 1.940390e+003
         vertex 2.234292e+003 5.490136e+002 1.941247e+003
         vertex 2.226292e+003 5.490136e+002 1.941247e+003
      endloop
   endfacet
   facet normal 1.109524e-016 -7.274188e-001 -6.861938e-001
      outer loop
         vertex 2.226292e+003 5.490136e+002 1.941247e+003
         vertex 2.234292e+003 5.490136e+002 1.941247e+003
         vertex 2.234292e+003 5.482740e+002 1.941986e+003
      endloop
   endfacet
   facet normal 1.229219e-016 -6.861938e-001 -7.274188e-001
      outer loop
         vertex 2.226292e+003 5.490136e+002 1.941247e+003
         vertex 2.234292e+003 5.482740e+002 1.941986e+003
         vertex 2.226292e+003 5.482740e+002 1.941986e+003
      endloop
   endfacet
   facet normal 1.454946e-016 -5.972114e-001 -8.020839e-001
      outer loop
         vertex 2.226292e+003 5.482740e+002 1.941986e+003
         vertex 2.234292e+003 5.482740e+002 1.941986e+003
         vertex 2.234292e+003 5.474174e+002 1.942586e+003
      endloop
   endfacet
   facet normal 1.560979e-016 -5.494540e-001 -8.355240e-001
      outer loop
         vertex 2.226292e+003 5.482740e+002 1.941986e+003
         vertex 2.234292e+003 5.474174e+002 1.942586e+003
         vertex 2.226292e+003 5.474174e+002 1.942586e+003
      endloop
   endfacet
   facet normal 1.756160e-016 -4.488580e-001 -8.936031e-001
      outer loop
         vertex 2.226292e+003 5.474174e+002 1.942586e+003
         vertex 2.234292e+003 5.474174e+002 1.942586e+003
         vertex 2.234292e+003 5.464694e+002 1.943028e+003
      endloop
   endfacet
   facet normal 1.845309e-016 -3.960194e-001 -9.182422e-001
      outer loop
         vertex 2.226292e+003 5.474174e+002 1.942586e+003
         vertex 2.234292e+003 5.464694e+002 1.943028e+003
         vertex 2.226292e+003 5.464694e+002 1.943028e+003
      endloop
   endfacet
   facet normal 2.004014e-016 -2.868663e-001 -9.579706e-001
      outer loop
         vertex 2.226292e+003 5.464694e+002 1.943028e+003
         vertex 2.234292e+003 5.464694e+002 1.943028e+003
         vertex 2.234292e+003 5.454592e+002 1.943299e+003
      endloop
   endfacet
   facet normal 2.073570e-016 -2.305518e-001 -9.730601e-001
      outer loop
         vertex 2.226292e+003 5.464694e+002 1.943028e+003
         vertex 2.234292e+003 5.454592e+002 1.943299e+003
         vertex 2.226292e+003 5.454592e+002 1.943299e+003
      endloop
   endfacet
   facet normal 2.190977e-016 -1.161583e-001 -9.932307e-001
      outer loop
         vertex 2.226292e+003 5.454592e+002 1.943299e+003
         vertex 2.234292e+003 5.454592e+002 1.943299e+003
         vertex 2.234292e+003 5.444173e+002 1.943390e+003
      endloop
   endfacet
   facet normal 2.238827e-016 -5.807914e-002 -9.983120e-001
      outer loop
         vertex 2.226292e+003 5.454592e+002 1.943299e+003
         vertex 2.234292e+003 5.444173e+002 1.943390e+003
         vertex 2.226292e+003 5.444173e+002 1.943390e+003
      endloop
   endfacet
   facet normal 2.311368e-016 5.807914e-002 -9.983120e-001
      outer loop
         vertex 2.226292e+003 5.444173e+002 1.943390e+003
         vertex 2.234292e+003 5.444173e+002 1.943390e+003
         vertex 2.234292e+003 5.433754e+002 1.943299e+003
      endloop
   endfacet
   facet normal 2.336059e-016 1.161583e-001 -9.932307e-001
      outer loop
         vertex 2.226292e+003 5.444173e+002 1.943390e+003
         vertex 2.234292e+003 5.433754e+002 1.943299e+003
         vertex 2.226292e+003 5.433754e+002 1.943299e+003
      endloop
   endfacet
   facet normal 2.361530e-016 2.305518e-001 -9.730601e-001
      outer loop
         vertex 2.226292e+003 5.433754e+002 1.943299e+003
         vertex 2.234292e+003 5.433754e+002 1.943299e+003
         vertex 2.234292e+003 5.423652e+002 1.943028e+003
      endloop
   endfacet
   facet normal 2.362310e-016 2.868663e-001 -9.579706e-001
      outer loop
         vertex 2.226292e+003 5.433754e+002 1.943299e+003
         vertex 2.234292e+003 5.423652e+002 1.943028e+003
         vertex 2.226292e+003 5.423652e+002 1.943028e+003
      endloop
   endfacet
   facet normal 2.339938e-016 3.960194e-001 -9.182422e-001
      outer loop
         vertex 2.226292e+003 5.423652e+002 1.943028e+003
         vertex 2.234292e+003 5.423652e+002 1.943028e+003
         vertex 2.234292e+003 5.414174e+002 1.942586e+003
      endloop
   endfacet
   facet normal 2.316784e-016 4.488580e-001 -8.936031e-001
      outer loop
         vertex 2.226292e+003 5.423652e+002 1.943028e+003
         vertex 2.234292e+003 5.414174e+002 1.942586e+003
         vertex 2.226292e+003 5.414174e+002 1.942586e+003
      endloop
   endfacet
   facet normal 2.247247e-016 5.494540e-001 -8.355240e-001
      outer loop
         vertex 2.226292e+003 5.414174e+002 1.942586e+003
         vertex 2.234292e+003 5.414174e+002 1.942586e+003
         vertex 2.234292e+003 5.405606e+002 1.941986e+003
      endloop
   endfacet
   facet normal 2.200864e-016 5.972114e-001 -8.020839e-001
      outer loop
         vertex 2.226292e+003 5.414174e+002 1.942586e+003
         vertex 2.234292e+003 5.405606e+002 1.941986e+003
         vertex 2.226292e+003 5.405606e+002 1.941986e+003
      endloop
   endfacet
   facet normal 2.086276e-016 6.861938e-001 -7.274188e-001
      outer loop
         vertex 2.226292e+003 5.405606e+002 1.941986e+003
         vertex 2.234292e+003 5.405606e+002 1.941986e+003
         vertex 2.234292e+003 5.398211e+002 1.941247e+003
      endloop
   endfacet
   facet normal 2.018071e-016 7.274188e-001 -6.861938e-001
      outer loop
         vertex 2.226292e+003 5.405606e+002 1.941986e+003
         vertex 2.234292e+003 5.398211e+002 1.941247e+003
         vertex 2.226292e+003 5.398211e+002 1.941247e+003
      endloop
   endfacet
   facet normal 1.861914e-016 8.020839e-001 -5.972114e-001
      outer loop
         vertex 2.226292e+003 5.398211e+002 1.941247e+003
         vertex 2.234292e+003 5.398211e+002 1.941247e+003
         vertex 2.234292e+003 5.392212e+002 1.940390e+003
      endloop
   endfacet
   facet normal 1.773960e-016 8.355240e-001 -5.494540e-001
      outer loop
         vertex 2.226292e+003 5.398211e+002 1.941247e+003
         vertex 2.234292e+003 5.392212e+002 1.940390e+003
         vertex 2.226292e+003 5.392212e+002 1.940390e+003
      endloop
   endfacet
   facet normal 1.580978e-016 8.936031e-001 -4.488580e-001
      outer loop
         vertex 2.226292e+003 5.392212e+002 1.940390e+003
         vertex 2.234292e+003 5.392212e+002 1.940390e+003
         vertex 2.234292e+003 5.387792e+002 1.939442e+003
      endloop
   endfacet
   facet normal 1.475949e-016 9.182422e-001 -3.960194e-001
      outer loop
         vertex 2.226292e+003 5.392212e+002 1.940390e+003
         vertex 2.234292e+003 5.387792e+002 1.939442e+003
         vertex 2.226292e+003 5.387792e+002 1.939442e+003
      endloop
   endfacet
   facet normal 1.252005e-016 9.579706e-001 -2.868663e-001
      outer loop
         vertex 2.226292e+003 5.387792e+002 1.939442e+003
         vertex 2.234292e+003 5.387792e+002 1.939442e+003
         vertex 2.234292e+003 5.385085e+002 1.938432e+003
      endloop
   endfacet
   facet normal 1.133091e-016 9.730601e-001 -2.305518e-001
      outer loop
         vertex 2.226292e+003 5.387792e+002 1.939442e+003
         vertex 2.234292e+003 5.385085e+002 1.938432e+003
         vertex 2.226292e+003 5.385085e+002 1.938432e+003
      endloop
   endfacet
   facet normal 8.849913e-017 9.932307e-001 -1.161583e-001
      outer loop
         vertex 2.226292e+003 5.385085e+002 1.938432e+003
         vertex 2.234292e+003 5.385085e+002 1.938432e+003
         vertex 2.234292e+003 5.384174e+002 1.937390e+003
      endloop
   endfacet
   facet normal 1.169869e-016 -7.071068e-001 -7.071068e-001
      outer loop
         vertex 2.226292e+003 5.334174e+002 1.877390e+003
         vertex 2.226292e+003 5.374174e+002 1.873390e+003
         vertex 2.234292e+003 5.334174e+002 1.877390e+003
      endloop
   endfacet
   facet normal 1.169869e-016 -7.071068e-001 -7.071068e-001
      outer loop
         vertex 2.234292e+003 5.334174e+002 1.877390e+003
         vertex 2.226292e+003 5.374174e+002 1.873390e+003
         vertex 2.234292e+003 5.374174e+002 1.873390e+003
      endloop
   endfacet
endsolid