solid 09.025.00.00.000 - 09.025.00.08.000-2 09.025.00.08.011-1 09.025.00.08.0AB-2
   facet normal 6.917168e-018 -1.000000e+000 2.311116e-032
      outer loop
         vertex 2.225792e+003 1.331417e+003 1.931390e+003
         vertex 2.225792e+003 1.331417e+003 1.948390e+003
         vertex 2.215792e+003 1.331417e+003 1.931390e+003
      endloop
   endfacet
   facet normal 6.917168e-018 -1.000000e+000 2.311116e-032
      outer loop
         vertex 2.215792e+003 1.331417e+003 1.931390e+003
         vertex 2.225792e+003 1.331417e+003 1.948390e+003
         vertex 2.215792e+003 1.331417e+003 1.948390e+003
      endloop
   endfacet
   facet normal -2.548926e-017 3.697785e-032 1.000000e+000
      outer loop
         vertex 2.215792e+003 1.425417e+003 1.948390e+003
         vertex 2.215792e+003 1.331417e+003 1.948390e+003
         vertex 2.225792e+003 1.425417e+003 1.948390e+003
      endloop
   endfacet
   facet normal -2.548926e-017 3.697785e-032 1.000000e+000
      outer loop
         vertex 2.225792e+003 1.425417e+003 1.948390e+003
         vertex 2.215792e+003 1.331417e+003 1.948390e+003
         vertex 2.225792e+003 1.331417e+003 1.948390e+003
      endloop
   endfacet
   facet normal -6.917168e-018 1.000000e+000 -2.311116e-032
      outer loop
         vertex 2.225792e+003 1.435417e+003 1.938390e+003
         vertex 2.225792e+003 1.435417e+003 1.926390e+003
         vertex 2.215792e+003 1.435417e+003 1.938390e+003
      endloop
   endfacet
   facet normal -6.917168e-018 1.000000e+000 -2.311116e-032
      outer loop
         vertex 2.215792e+003 1.435417e+003 1.938390e+003
         vertex 2.225792e+003 1.435417e+003 1.926390e+003
         vertex 2.215792e+003 1.435417e+003 1.926390e+003
      endloop
   endfacet
   facet normal 2.548926e-017 -3.697785e-032 -1.000000e+000
      outer loop
         vertex 2.215792e+003 1.336417e+003 1.926390e+003
         vertex 2.215792e+003 1.435417e+003 1.926390e+003
         vertex 2.225792e+003 1.336417e+003 1.926390e+003
      endloop
   endfacet
   facet normal 2.548926e-017 -3.697785e-032 -1.000000e+000
      outer loop
         vertex 2.225792e+003 1.336417e+003 1.926390e+003
         vertex 2.215792e+003 1.435417e+003 1.926390e+003
         vertex 2.225792e+003 1.435417e+003 1.926390e+003
      endloop
   endfacet
   facet normal -1.000000e+000 -6.917168e-018 -2.548926e-017
      outer loop
         vertex 2.215792e+003 1.341549e+003 1.932466e+003
         vertex 2.215792e+003 1.336417e+003 1.926390e+003
         vertex 2.215792e+003 1.340707e+003 1.932691e+003
      endloop
   endfacet
   facet normal -1.000000e+000 -6.917168e-018 -2.548926e-017
      outer loop
         vertex 2.215792e+003 1.340707e+003 1.932691e+003
         vertex 2.215792e+003 1.336417e+003 1.926390e+003
         vertex 2.215792e+003 1.339917e+003 1.933060e+003
      endloop
   endfacet
   facet normal -1.000000e+000 -6.917168e-018 -2.548926e-017
      outer loop
         vertex 2.215792e+003 1.347116e+003 1.939100e+003
         vertex 2.215792e+003 1.346748e+003 1.939890e+003
         vertex 2.215792e+003 1.425417e+003 1.948390e+003
      endloop
   endfacet
   facet normal -1.000000e+000 -6.917168e-018 -2.548926e-017
      outer loop
         vertex 2.215792e+003 1.425417e+003 1.948390e+003
         vertex 2.215792e+003 1.346748e+003 1.939890e+003
         vertex 2.215792e+003 1.346248e+003 1.940604e+003
      endloop
   endfacet
   facet normal -1.000000e+000 -6.917168e-018 -2.548926e-017
      outer loop
         vertex 2.215792e+003 1.425417e+003 1.948390e+003
         vertex 2.215792e+003 1.346248e+003 1.940604e+003
         vertex 2.215792e+003 1.345631e+003 1.941220e+003
      endloop
   endfacet
   facet normal -1.000000e+000 -6.917168e-018 -2.548926e-017
      outer loop
         vertex 2.215792e+003 1.331417e+003 1.931390e+003
         vertex 2.215792e+003 1.337493e+003 1.936522e+003
         vertex 2.215792e+003 1.337719e+003 1.935680e+003
      endloop
   endfacet
   facet normal -1.000000e+000 -6.917168e-018 -2.548926e-017
      outer loop
         vertex 2.215792e+003 1.342417e+003 1.942390e+003
         vertex 2.215792e+003 1.341549e+003 1.942314e+003
         vertex 2.215792e+003 1.331417e+003 1.948390e+003
      endloop
   endfacet
   facet normal -1.000000e+000 -6.917168e-018 -2.548926e-017
      outer loop
         vertex 2.215792e+003 1.331417e+003 1.948390e+003
         vertex 2.215792e+003 1.341549e+003 1.942314e+003
         vertex 2.215792e+003 1.340707e+003 1.942088e+003
      endloop
   endfacet
   facet normal -1.000000e+000 -6.917168e-018 -2.548926e-017
      outer loop
         vertex 2.215792e+003 1.331417e+003 1.948390e+003
         vertex 2.215792e+003 1.340707e+003 1.942088e+003
         vertex 2.215792e+003 1.339917e+003 1.941720e+003
      endloop
   endfacet
   facet normal -1.000000e+000 -6.917168e-018 -2.548926e-017
      outer loop
         vertex 2.215792e+003 1.339917e+003 1.941720e+003
         vertex 2.215792e+003 1.339203e+003 1.941220e+003
         vertex 2.215792e+003 1.331417e+003 1.948390e+003
      endloop
   endfacet
   facet normal -1.000000e+000 -6.917168e-018 -2.548926e-017
      outer loop
         vertex 2.215792e+003 1.331417e+003 1.948390e+003
         vertex 2.215792e+003 1.339203e+003 1.941220e+003
         vertex 2.215792e+003 1.338587e+003 1.940604e+003
      endloop
   endfacet
   facet normal -1.000000e+000 -6.917168e-018 -2.548926e-017
      outer loop
         vertex 2.215792e+003 1.331417e+003 1.948390e+003
         vertex 2.215792e+003 1.338587e+003 1.940604e+003
         vertex 2.215792e+003 1.338087e+003 1.939890e+003
      endloop
   endfacet
   facet normal -1.000000e+000 -6.917168e-018 -2.548926e-017
      outer loop
         vertex 2.215792e+003 1.341549e+003 1.932466e+003
         vertex 2.215792e+003 1.342417e+003 1.932390e+003
         vertex 2.215792e+003 1.336417e+003 1.926390e+003
      endloop
   endfacet
   facet normal -1.000000e+000 -6.917168e-018 -2.548926e-017
      outer loop
         vertex 2.215792e+003 1.336417e+003 1.926390e+003
         vertex 2.215792e+003 1.342417e+003 1.932390e+003
         vertex 2.215792e+003 1.343286e+003 1.932466e+003
      endloop
   endfacet
   facet normal -1.000000e+000 -6.917168e-018 -2.548926e-017
      outer loop
         vertex 2.215792e+003 1.336417e+003 1.926390e+003
         vertex 2.215792e+003 1.343286e+003 1.932466e+003
         vertex 2.215792e+003 1.435417e+003 1.926390e+003
      endloop
   endfacet
   facet normal -1.000000e+000 -6.917168e-018 -2.548926e-017
      outer loop
         vertex 2.215792e+003 1.435417e+003 1.926390e+003
         vertex 2.215792e+003 1.343286e+003 1.932466e+003
         vertex 2.215792e+003 1.344127e+003 1.932691e+003
      endloop
   endfacet
   facet normal -1.000000e+000 -6.917168e-018 -2.548926e-017
      outer loop
         vertex 2.215792e+003 1.435417e+003 1.926390e+003
         vertex 2.215792e+003 1.344127e+003 1.932691e+003
         vertex 2.215792e+003 1.344917e+003 1.933060e+003
      endloop
   endfacet
   facet normal -1.000000e+000 -6.917168e-018 -2.548926e-017
      outer loop
         vertex 2.215792e+003 1.344917e+003 1.933060e+003
         vertex 2.215792e+003 1.345631e+003 1.933560e+003
         vertex 2.215792e+003 1.435417e+003 1.926390e+003
      endloop
   endfacet
   facet normal -1.000000e+000 -6.917168e-018 -2.548926e-017
      outer loop
         vertex 2.215792e+003 1.435417e+003 1.926390e+003
         vertex 2.215792e+003 1.345631e+003 1.933560e+003
         vertex 2.215792e+003 1.346248e+003 1.934176e+003
      endloop
   endfacet
   facet normal -1.000000e+000 -6.917168e-018 -2.548926e-017
      outer loop
         vertex 2.215792e+003 1.435417e+003 1.926390e+003
         vertex 2.215792e+003 1.346248e+003 1.934176e+003
         vertex 2.215792e+003 1.346748e+003 1.934890e+003
      endloop
   endfacet
   facet normal -1.000000e+000 -6.917168e-018 -2.548926e-017
      outer loop
         vertex 2.215792e+003 1.345631e+003 1.941220e+003
         vertex 2.215792e+003 1.344917e+003 1.941720e+003
         vertex 2.215792e+003 1.425417e+003 1.948390e+003
      endloop
   endfacet
   facet normal -1.000000e+000 -6.917168e-018 -2.548926e-017
      outer loop
         vertex 2.215792e+003 1.425417e+003 1.948390e+003
         vertex 2.215792e+003 1.344917e+003 1.941720e+003
         vertex 2.215792e+003 1.344127e+003 1.942088e+003
      endloop
   endfacet
   facet normal -1.000000e+000 -6.917168e-018 -2.548926e-017
      outer loop
         vertex 2.215792e+003 1.425417e+003 1.948390e+003
         vertex 2.215792e+003 1.344127e+003 1.942088e+003
         vertex 2.215792e+003 1.331417e+003 1.948390e+003
      endloop
   endfacet
   facet normal -1.000000e+000 -6.917168e-018 -2.548926e-017
      outer loop
         vertex 2.215792e+003 1.331417e+003 1.948390e+003
         vertex 2.215792e+003 1.344127e+003 1.942088e+003
         vertex 2.215792e+003 1.343286e+003 1.942314e+003
      endloop
   endfacet
   facet normal -1.000000e+000 -6.917168e-018 -2.548926e-017
      outer loop
         vertex 2.215792e+003 1.331417e+003 1.948390e+003
         vertex 2.215792e+003 1.343286e+003 1.942314e+003
         vertex 2.215792e+003 1.342417e+003 1.942390e+003
      endloop
   endfacet
   facet normal -1.000000e+000 -6.917168e-018 -2.548926e-017
      outer loop
         vertex 2.215792e+003 1.337719e+003 1.935680e+003
         vertex 2.215792e+003 1.338087e+003 1.934890e+003
         vertex 2.215792e+003 1.331417e+003 1.931390e+003
      endloop
   endfacet
   facet normal -1.000000e+000 -6.917168e-018 -2.548926e-017
      outer loop
         vertex 2.215792e+003 1.331417e+003 1.931390e+003
         vertex 2.215792e+003 1.338087e+003 1.934890e+003
         vertex 2.215792e+003 1.338587e+003 1.934176e+003
      endloop
   endfacet
   facet normal -1.000000e+000 -6.917168e-018 -2.548926e-017
      outer loop
         vertex 2.215792e+003 1.331417e+003 1.931390e+003
         vertex 2.215792e+003 1.338587e+003 1.934176e+003
         vertex 2.215792e+003 1.336417e+003 1.926390e+003
      endloop
   endfacet
   facet normal -1.000000e+000 -6.917168e-018 -2.548926e-017
      outer loop
         vertex 2.215792e+003 1.336417e+003 1.926390e+003
         vertex 2.215792e+003 1.338587e+003 1.934176e+003
         vertex 2.215792e+003 1.339203e+003 1.933560e+003
      endloop
   endfacet
   facet normal -1.000000e+000 -6.917168e-018 -2.548926e-017
      outer loop
         vertex 2.215792e+003 1.336417e+003 1.926390e+003
         vertex 2.215792e+003 1.339203e+003 1.933560e+003
         vertex 2.215792e+003 1.339917e+003 1.933060e+003
      endloop
   endfacet
   facet normal -1.000000e+000 -6.917168e-018 -2.548926e-017
      outer loop
         vertex 2.215792e+003 1.346748e+003 1.934890e+003
         vertex 2.215792e+003 1.347116e+003 1.935680e+003
         vertex 2.215792e+003 1.435417e+003 1.926390e+003
      endloop
   endfacet
   facet normal -1.000000e+000 -6.917168e-018 -2.548926e-017
      outer loop
         vertex 2.215792e+003 1.435417e+003 1.926390e+003
         vertex 2.215792e+003 1.347116e+003 1.935680e+003
         vertex 2.215792e+003 1.347341e+003 1.936522e+003
      endloop
   endfacet
   facet normal -1.000000e+000 -6.917168e-018 -2.548926e-017
      outer loop
         vertex 2.215792e+003 1.435417e+003 1.926390e+003
         vertex 2.215792e+003 1.347341e+003 1.936522e+003
         vertex 2.215792e+003 1.435417e+003 1.938390e+003
      endloop
   endfacet
   facet normal -1.000000e+000 -6.917168e-018 -2.548926e-017
      outer loop
         vertex 2.215792e+003 1.435417e+003 1.938390e+003
         vertex 2.215792e+003 1.347341e+003 1.936522e+003
         vertex 2.215792e+003 1.347417e+003 1.937390e+003
      endloop
   endfacet
   facet normal -1.000000e+000 -6.917168e-018 -2.548926e-017
      outer loop
         vertex 2.215792e+003 1.435417e+003 1.938390e+003
         vertex 2.215792e+003 1.347417e+003 1.937390e+003
         vertex 2.215792e+003 1.425417e+003 1.948390e+003
      endloop
   endfacet
   facet normal -1.000000e+000 -6.917168e-018 -2.548926e-017
      outer loop
         vertex 2.215792e+003 1.425417e+003 1.948390e+003
         vertex 2.215792e+003 1.347417e+003 1.937390e+003
         vertex 2.215792e+003 1.347341e+003 1.938258e+003
      endloop
   endfacet
   facet normal -1.000000e+000 -6.917168e-018 -2.548926e-017
      outer loop
         vertex 2.215792e+003 1.425417e+003 1.948390e+003
         vertex 2.215792e+003 1.347341e+003 1.938258e+003
         vertex 2.215792e+003 1.347116e+003 1.939100e+003
      endloop
   endfacet
   facet normal -1.000000e+000 -6.917168e-018 -2.548926e-017
      outer loop
         vertex 2.215792e+003 1.338087e+003 1.939890e+003
         vertex 2.215792e+003 1.337719e+003 1.939100e+003
         vertex 2.215792e+003 1.331417e+003 1.948390e+003
      endloop
   endfacet
   facet normal -1.000000e+000 -6.917168e-018 -2.548926e-017
      outer loop
         vertex 2.215792e+003 1.331417e+003 1.948390e+003
         vertex 2.215792e+003 1.337719e+003 1.939100e+003
         vertex 2.215792e+003 1.337493e+003 1.938258e+003
      endloop
   endfacet
   facet normal -1.000000e+000 -6.917168e-018 -2.548926e-017
      outer loop
         vertex 2.215792e+003 1.331417e+003 1.948390e+003
         vertex 2.215792e+003 1.337493e+003 1.938258e+003
         vertex 2.215792e+003 1.331417e+003 1.931390e+003
      endloop
   endfacet
   facet normal -1.000000e+000 -6.917168e-018 -2.548926e-017
      outer loop
         vertex 2.215792e+003 1.331417e+003 1.931390e+003
         vertex 2.215792e+003 1.337493e+003 1.938258e+003
         vertex 2.215792e+003 1.337417e+003 1.937390e+003
      endloop
   endfacet
   facet normal -1.000000e+000 -6.917168e-018 -2.548926e-017
      outer loop
         vertex 2.215792e+003 1.331417e+003 1.931390e+003
         vertex 2.215792e+003 1.337417e+003 1.937390e+003
         vertex 2.215792e+003 1.337493e+003 1.936522e+003
      endloop
   endfacet
   facet normal 1.000000e+000 6.917168e-018 2.548926e-017
      outer loop
         vertex 2.225792e+003 1.331417e+003 1.948390e+003
         vertex 2.225792e+003 1.331417e+003 1.931390e+003
         vertex 2.225792e+003 1.337417e+003 1.937390e+003
      endloop
   endfacet
   facet normal 1.000000e+000 6.917168e-018 2.548926e-017
      outer loop
         vertex 2.225792e+003 1.338087e+003 1.934890e+003
         vertex 2.225792e+003 1.337719e+003 1.935680e+003
         vertex 2.225792e+003 1.331417e+003 1.931390e+003
      endloop
   endfacet
   facet normal 1.000000e+000 6.917168e-018 2.548926e-017
      outer loop
         vertex 2.225792e+003 1.331417e+003 1.931390e+003
         vertex 2.225792e+003 1.337719e+003 1.935680e+003
         vertex 2.225792e+003 1.337493e+003 1.936522e+003
      endloop
   endfacet
   facet normal 1.000000e+000 6.917168e-018 2.548926e-017
      outer loop
         vertex 2.225792e+003 1.331417e+003 1.931390e+003
         vertex 2.225792e+003 1.337493e+003 1.936522e+003
         vertex 2.225792e+003 1.337417e+003 1.937390e+003
      endloop
   endfacet
   facet normal 1.000000e+000 6.917168e-018 2.548926e-017
      outer loop
         vertex 2.225792e+003 1.344917e+003 1.941720e+003
         vertex 2.225792e+003 1.345631e+003 1.941220e+003
         vertex 2.225792e+003 1.425417e+003 1.948390e+003
      endloop
   endfacet
   facet normal 1.000000e+000 6.917168e-018 2.548926e-017
      outer loop
         vertex 2.225792e+003 1.425417e+003 1.948390e+003
         vertex 2.225792e+003 1.345631e+003 1.941220e+003
         vertex 2.225792e+003 1.346248e+003 1.940604e+003
      endloop
   endfacet
   facet normal 1.000000e+000 6.917168e-018 2.548926e-017
      outer loop
         vertex 2.225792e+003 1.425417e+003 1.948390e+003
         vertex 2.225792e+003 1.346248e+003 1.940604e+003
         vertex 2.225792e+003 1.346748e+003 1.939890e+003
      endloop
   endfacet
   facet normal 1.000000e+000 6.917168e-018 2.548926e-017
      outer loop
         vertex 2.225792e+003 1.337417e+003 1.937390e+003
         vertex 2.225792e+003 1.337493e+003 1.938258e+003
         vertex 2.225792e+003 1.331417e+003 1.948390e+003
      endloop
   endfacet
   facet normal 1.000000e+000 6.917168e-018 2.548926e-017
      outer loop
         vertex 2.225792e+003 1.331417e+003 1.948390e+003
         vertex 2.225792e+003 1.337493e+003 1.938258e+003
         vertex 2.225792e+003 1.337719e+003 1.939100e+003
      endloop
   endfacet
   facet normal 1.000000e+000 6.917168e-018 2.548926e-017
      outer loop
         vertex 2.225792e+003 1.331417e+003 1.948390e+003
         vertex 2.225792e+003 1.337719e+003 1.939100e+003
         vertex 2.225792e+003 1.338087e+003 1.939890e+003
      endloop
   endfacet
   facet normal 1.000000e+000 6.917168e-018 2.548926e-017
      outer loop
         vertex 2.225792e+003 1.339917e+003 1.941720e+003
         vertex 2.225792e+003 1.340707e+003 1.942088e+003
         vertex 2.225792e+003 1.331417e+003 1.948390e+003
      endloop
   endfacet
   facet normal 1.000000e+000 6.917168e-018 2.548926e-017
      outer loop
         vertex 2.225792e+003 1.331417e+003 1.948390e+003
         vertex 2.225792e+003 1.340707e+003 1.942088e+003
         vertex 2.225792e+003 1.341549e+003 1.942314e+003
      endloop
   endfacet
   facet normal 1.000000e+000 6.917168e-018 2.548926e-017
      outer loop
         vertex 2.225792e+003 1.338087e+003 1.939890e+003
         vertex 2.225792e+003 1.338587e+003 1.940604e+003
         vertex 2.225792e+003 1.331417e+003 1.948390e+003
      endloop
   endfacet
   facet normal 1.000000e+000 6.917168e-018 2.548926e-017
      outer loop
         vertex 2.225792e+003 1.331417e+003 1.948390e+003
         vertex 2.225792e+003 1.338587e+003 1.940604e+003
         vertex 2.225792e+003 1.339203e+003 1.941220e+003
      endloop
   endfacet
   facet normal 1.000000e+000 6.917168e-018 2.548926e-017
      outer loop
         vertex 2.225792e+003 1.331417e+003 1.948390e+003
         vertex 2.225792e+003 1.339203e+003 1.941220e+003
         vertex 2.225792e+003 1.339917e+003 1.941720e+003
      endloop
   endfacet
   facet normal 1.000000e+000 6.917168e-018 2.548926e-017
      outer loop
         vertex 2.225792e+003 1.341549e+003 1.942314e+003
         vertex 2.225792e+003 1.342417e+003 1.942390e+003
         vertex 2.225792e+003 1.331417e+003 1.948390e+003
      endloop
   endfacet
   facet normal 1.000000e+000 6.917168e-018 2.548926e-017
      outer loop
         vertex 2.225792e+003 1.331417e+003 1.948390e+003
         vertex 2.225792e+003 1.342417e+003 1.942390e+003
         vertex 2.225792e+003 1.343286e+003 1.942314e+003
      endloop
   endfacet
   facet normal 1.000000e+000 6.917168e-018 2.548926e-017
      outer loop
         vertex 2.225792e+003 1.331417e+003 1.948390e+003
         vertex 2.225792e+003 1.343286e+003 1.942314e+003
         vertex 2.225792e+003 1.425417e+003 1.948390e+003
      endloop
   endfacet
   facet normal 1.000000e+000 6.917168e-018 2.548926e-017
      outer loop
         vertex 2.225792e+003 1.425417e+003 1.948390e+003
         vertex 2.225792e+003 1.343286e+003 1.942314e+003
         vertex 2.225792e+003 1.344127e+003 1.942088e+003
      endloop
   endfacet
   facet normal 1.000000e+000 6.917168e-018 2.548926e-017
      outer loop
         vertex 2.225792e+003 1.425417e+003 1.948390e+003
         vertex 2.225792e+003 1.344127e+003 1.942088e+003
         vertex 2.225792e+003 1.344917e+003 1.941720e+003
      endloop
   endfacet
   facet normal 1.000000e+000 6.917168e-018 2.548926e-017
      outer loop
         vertex 2.225792e+003 1.347116e+003 1.935680e+003
         vertex 2.225792e+003 1.346748e+003 1.934890e+003
         vertex 2.225792e+003 1.435417e+003 1.926390e+003
      endloop
   endfacet
   facet normal 1.000000e+000 6.917168e-018 2.548926e-017
      outer loop
         vertex 2.225792e+003 1.435417e+003 1.926390e+003
         vertex 2.225792e+003 1.346748e+003 1.934890e+003
         vertex 2.225792e+003 1.346248e+003 1.934176e+003
      endloop
   endfacet
   facet normal 1.000000e+000 6.917168e-018 2.548926e-017
      outer loop
         vertex 2.225792e+003 1.346748e+003 1.939890e+003
         vertex 2.225792e+003 1.347116e+003 1.939100e+003
         vertex 2.225792e+003 1.425417e+003 1.948390e+003
      endloop
   endfacet
   facet normal 1.000000e+000 6.917168e-018 2.548926e-017
      outer loop
         vertex 2.225792e+003 1.425417e+003 1.948390e+003
         vertex 2.225792e+003 1.347116e+003 1.939100e+003
         vertex 2.225792e+003 1.347341e+003 1.938258e+003
      endloop
   endfacet
   facet normal 1.000000e+000 6.917168e-018 2.548926e-017
      outer loop
         vertex 2.225792e+003 1.425417e+003 1.948390e+003
         vertex 2.225792e+003 1.347341e+003 1.938258e+003
         vertex 2.225792e+003 1.435417e+003 1.938390e+003
      endloop
   endfacet
   facet normal 1.000000e+000 6.917168e-018 2.548926e-017
      outer loop
         vertex 2.225792e+003 1.435417e+003 1.938390e+003
         vertex 2.225792e+003 1.347341e+003 1.938258e+003
         vertex 2.225792e+003 1.347417e+003 1.937390e+003
      endloop
   endfacet
   facet normal 1.000000e+000 6.917168e-018 2.548926e-017
      outer loop
         vertex 2.225792e+003 1.435417e+003 1.938390e+003
         vertex 2.225792e+003 1.347417e+003 1.937390e+003
         vertex 2.225792e+003 1.435417e+003 1.926390e+003
      endloop
   endfacet
   facet normal 1.000000e+000 6.917168e-018 2.548926e-017
      outer loop
         vertex 2.225792e+003 1.435417e+003 1.926390e+003
         vertex 2.225792e+003 1.347417e+003 1.937390e+003
         vertex 2.225792e+003 1.347341e+003 1.936522e+003
      endloop
   endfacet
   facet normal 1.000000e+000 6.917168e-018 2.548926e-017
      outer loop
         vertex 2.225792e+003 1.435417e+003 1.926390e+003
         vertex 2.225792e+003 1.347341e+003 1.936522e+003
         vertex 2.225792e+003 1.347116e+003 1.935680e+003
      endloop
   endfacet
   facet normal 1.000000e+000 6.917168e-018 2.548926e-017
      outer loop
         vertex 2.225792e+003 1.343286e+003 1.932466e+003
         vertex 2.225792e+003 1.342417e+003 1.932390e+003
         vertex 2.225792e+003 1.336417e+003 1.926390e+003
      endloop
   endfacet
   facet normal 1.000000e+000 6.917168e-018 2.548926e-017
      outer loop
         vertex 2.225792e+003 1.336417e+003 1.926390e+003
         vertex 2.225792e+003 1.342417e+003 1.932390e+003
         vertex 2.225792e+003 1.341549e+003 1.932466e+003
      endloop
   endfacet
   facet normal 1.000000e+000 6.917168e-018 2.548926e-017
      outer loop
         vertex 2.225792e+003 1.336417e+003 1.926390e+003
         vertex 2.225792e+003 1.341549e+003 1.932466e+003
         vertex 2.225792e+003 1.340707e+003 1.932691e+003
      endloop
   endfacet
   facet normal 1.000000e+000 6.917168e-018 2.548926e-017
      outer loop
         vertex 2.225792e+003 1.346248e+003 1.934176e+003
         vertex 2.225792e+003 1.345631e+003 1.933560e+003
         vertex 2.225792e+003 1.435417e+003 1.926390e+003
      endloop
   endfacet
   facet normal 1.000000e+000 6.917168e-018 2.548926e-017
      outer loop
         vertex 2.225792e+003 1.435417e+003 1.926390e+003
         vertex 2.225792e+003 1.345631e+003 1.933560e+003
         vertex 2.225792e+003 1.344917e+003 1.933060e+003
      endloop
   endfacet
   facet normal 1.000000e+000 6.917168e-018 2.548926e-017
      outer loop
         vertex 2.225792e+003 1.435417e+003 1.926390e+003
         vertex 2.225792e+003 1.344917e+003 1.933060e+003
         vertex 2.225792e+003 1.336417e+003 1.926390e+003
      endloop
   endfacet
   facet normal 1.000000e+000 6.917168e-018 2.548926e-017
      outer loop
         vertex 2.225792e+003 1.336417e+003 1.926390e+003
         vertex 2.225792e+003 1.344917e+003 1.933060e+003
         vertex 2.225792e+003 1.344127e+003 1.932691e+003
      endloop
   endfacet
   facet normal 1.000000e+000 6.917168e-018 2.548926e-017
      outer loop
         vertex 2.225792e+003 1.336417e+003 1.926390e+003
         vertex 2.225792e+003 1.344127e+003 1.932691e+003
         vertex 2.225792e+003 1.343286e+003 1.932466e+003
      endloop
   endfacet
   facet normal 1.000000e+000 6.917168e-018 2.548926e-017
      outer loop
         vertex 2.225792e+003 1.340707e+003 1.932691e+003
         vertex 2.225792e+003 1.339917e+003 1.933060e+003
         vertex 2.225792e+003 1.336417e+003 1.926390e+003
      endloop
   endfacet
   facet normal 1.000000e+000 6.917168e-018 2.548926e-017
      outer loop
         vertex 2.225792e+003 1.336417e+003 1.926390e+003
         vertex 2.225792e+003 1.339917e+003 1.933060e+003
         vertex 2.225792e+003 1.339203e+003 1.933560e+003
      endloop
   endfacet
   facet normal 1.000000e+000 6.917168e-018 2.548926e-017
      outer loop
         vertex 2.225792e+003 1.336417e+003 1.926390e+003
         vertex 2.225792e+003 1.339203e+003 1.933560e+003
         vertex 2.225792e+003 1.331417e+003 1.931390e+003
      endloop
   endfacet
   facet normal 1.000000e+000 6.917168e-018 2.548926e-017
      outer loop
         vertex 2.225792e+003 1.331417e+003 1.931390e+003
         vertex 2.225792e+003 1.339203e+003 1.933560e+003
         vertex 2.225792e+003 1.338587e+003 1.934176e+003
      endloop
   endfacet
   facet normal 1.000000e+000 6.917168e-018 2.548926e-017
      outer loop
         vertex 2.225792e+003 1.331417e+003 1.931390e+003
         vertex 2.225792e+003 1.338587e+003 1.934176e+003
         vertex 2.225792e+003 1.338087e+003 1.934890e+003
      endloop
   endfacet
   facet normal -2.291481e-017 7.071068e-001 7.071068e-001
      outer loop
         vertex 2.225792e+003 1.425417e+003 1.948390e+003
         vertex 2.225792e+003 1.435417e+003 1.938390e+003
         vertex 2.215792e+003 1.425417e+003 1.948390e+003
      endloop
   endfacet
   facet normal -2.291481e-017 7.071068e-001 7.071068e-001
      outer loop
         vertex 2.215792e+003 1.425417e+003 1.948390e+003
         vertex 2.225792e+003 1.435417e+003 1.938390e+003
         vertex 2.215792e+003 1.435417e+003 1.938390e+003
      endloop
   endfacet
   facet normal -5.425098e-018 9.983120e-001 -5.807914e-002
      outer loop
         vertex 2.215792e+003 1.337493e+003 1.938258e+003
         vertex 2.225792e+003 1.337417e+003 1.937390e+003
         vertex 2.215792e+003 1.337417e+003 1.937390e+003
      endloop
   endfacet
   facet normal -8.385886e-018 9.983120e-001 5.807914e-002
      outer loop
         vertex 2.215792e+003 1.337417e+003 1.937390e+003
         vertex 2.225792e+003 1.337417e+003 1.937390e+003
         vertex 2.225792e+003 1.337493e+003 1.936522e+003
      endloop
   endfacet
   facet normal -9.831133e-018 9.932307e-001 1.161583e-001
      outer loop
         vertex 2.215792e+003 1.337417e+003 1.937390e+003
         vertex 2.225792e+003 1.337493e+003 1.936522e+003
         vertex 2.215792e+003 1.337493e+003 1.936522e+003
      endloop
   endfacet
   facet normal -1.260742e-017 9.730601e-001 2.305518e-001
      outer loop
         vertex 2.215792e+003 1.337493e+003 1.936522e+003
         vertex 2.225792e+003 1.337493e+003 1.936522e+003
         vertex 2.225792e+003 1.337719e+003 1.935680e+003
      endloop
   endfacet
   facet normal -1.393845e-017 9.579706e-001 2.868663e-001
      outer loop
         vertex 2.215792e+003 1.337493e+003 1.936522e+003
         vertex 2.225792e+003 1.337719e+003 1.935680e+003
         vertex 2.215792e+003 1.337719e+003 1.935680e+003
      endloop
   endfacet
   facet normal -1.644588e-017 9.182422e-001 3.960194e-001
      outer loop
         vertex 2.215792e+003 1.337719e+003 1.935680e+003
         vertex 2.225792e+003 1.337719e+003 1.935680e+003
         vertex 2.225792e+003 1.338087e+003 1.934890e+003
      endloop
   endfacet
   facet normal -1.762226e-017 8.936031e-001 4.488580e-001
      outer loop
         vertex 2.215792e+003 1.337719e+003 1.935680e+003
         vertex 2.225792e+003 1.338087e+003 1.934890e+003
         vertex 2.215792e+003 1.338087e+003 1.934890e+003
      endloop
   endfacet
   facet normal -1.978464e-017 8.355240e-001 5.494540e-001
      outer loop
         vertex 2.215792e+003 1.338087e+003 1.934890e+003
         vertex 2.225792e+003 1.338087e+003 1.934890e+003
         vertex 2.225792e+003 1.338587e+003 1.934176e+003
      endloop
   endfacet
   facet normal -2.077063e-017 8.020839e-001 5.972114e-001
      outer loop
         vertex 2.215792e+003 1.338087e+003 1.934890e+003
         vertex 2.225792e+003 1.338587e+003 1.934176e+003
         vertex 2.215792e+003 1.338587e+003 1.934176e+003
      endloop
   endfacet
   facet normal -2.252225e-017 7.274188e-001 6.861938e-001
      outer loop
         vertex 2.215792e+003 1.338587e+003 1.934176e+003
         vertex 2.225792e+003 1.338587e+003 1.934176e+003
         vertex 2.225792e+003 1.339203e+003 1.933560e+003
      endloop
   endfacet
   facet normal -2.328789e-017 6.861938e-001 7.274188e-001
      outer loop
         vertex 2.215792e+003 1.338587e+003 1.934176e+003
         vertex 2.225792e+003 1.339203e+003 1.933560e+003
         vertex 2.215792e+003 1.339203e+003 1.933560e+003
      endloop
   endfacet
   facet normal -2.457554e-017 5.972114e-001 8.020839e-001
      outer loop
         vertex 2.215792e+003 1.339203e+003 1.933560e+003
         vertex 2.225792e+003 1.339203e+003 1.933560e+003
         vertex 2.225792e+003 1.339917e+003 1.933060e+003
      endloop
   endfacet
   facet normal -2.509755e-017 5.494540e-001 8.355240e-001
      outer loop
         vertex 2.215792e+003 1.339203e+003 1.933560e+003
         vertex 2.225792e+003 1.339917e+003 1.933060e+003
         vertex 2.215792e+003 1.339917e+003 1.933060e+003
      endloop
   endfacet
   facet normal -2.588211e-017 4.488580e-001 8.936031e-001
      outer loop
         vertex 2.215792e+003 1.339917e+003 1.933060e+003
         vertex 2.225792e+003 1.339917e+003 1.933060e+003
         vertex 2.225792e+003 1.340707e+003 1.932691e+003
      endloop
   endfacet
   facet normal -2.614465e-017 3.960194e-001 9.182422e-001
      outer loop
         vertex 2.215792e+003 1.339917e+003 1.933060e+003
         vertex 2.225792e+003 1.340707e+003 1.932691e+003
         vertex 2.215792e+003 1.340707e+003 1.932691e+003
      endloop
   endfacet
   facet normal -2.640227e-017 2.868663e-001 9.579706e-001
      outer loop
         vertex 2.215792e+003 1.340707e+003 1.932691e+003
         vertex 2.225792e+003 1.340707e+003 1.932691e+003
         vertex 2.225792e+003 1.341549e+003 1.932466e+003
      endloop
   endfacet
   facet normal -2.639735e-017 2.305518e-001 9.730601e-001
      outer loop
         vertex 2.215792e+003 1.340707e+003 1.932691e+003
         vertex 2.225792e+003 1.341549e+003 1.932466e+003
         vertex 2.215792e+003 1.341549e+003 1.932466e+003
      endloop
   endfacet
   facet normal -2.612020e-017 1.161583e-001 9.932307e-001
      outer loop
         vertex 2.215792e+003 1.341549e+003 1.932466e+003
         vertex 2.225792e+003 1.341549e+003 1.932466e+003
         vertex 2.225792e+003 1.342417e+003 1.932390e+003
      endloop
   endfacet
   facet normal -2.584798e-017 5.807914e-002 9.983120e-001
      outer loop
         vertex 2.215792e+003 1.341549e+003 1.932466e+003
         vertex 2.225792e+003 1.342417e+003 1.932390e+003
         vertex 2.215792e+003 1.342417e+003 1.932390e+003
      endloop
   endfacet
   facet normal -2.504449e-017 -5.807914e-002 9.983120e-001
      outer loop
         vertex 2.215792e+003 1.342417e+003 1.932390e+003
         vertex 2.225792e+003 1.342417e+003 1.932390e+003
         vertex 2.225792e+003 1.343286e+003 1.932466e+003
      endloop
   endfacet
   facet normal -2.451323e-017 -1.161583e-001 9.932307e-001
      outer loop
         vertex 2.215792e+003 1.342417e+003 1.932390e+003
         vertex 2.225792e+003 1.343286e+003 1.932466e+003
         vertex 2.215792e+003 1.343286e+003 1.932466e+003
      endloop
   endfacet
   facet normal -2.320782e-017 -2.305518e-001 9.730601e-001
      outer loop
         vertex 2.215792e+003 1.343286e+003 1.932466e+003
         vertex 2.225792e+003 1.343286e+003 1.932466e+003
         vertex 2.225792e+003 1.344127e+003 1.932691e+003
      endloop
   endfacet
   facet normal -2.243366e-017 -2.868663e-001 9.579706e-001
      outer loop
         vertex 2.215792e+003 1.343286e+003 1.932466e+003
         vertex 2.225792e+003 1.344127e+003 1.932691e+003
         vertex 2.215792e+003 1.344127e+003 1.932691e+003
      endloop
   endfacet
   facet normal -2.066598e-017 -3.960194e-001 9.182422e-001
      outer loop
         vertex 2.215792e+003 1.344127e+003 1.932691e+003
         vertex 2.225792e+003 1.344127e+003 1.932691e+003
         vertex 2.225792e+003 1.344917e+003 1.933060e+003
      endloop
   endfacet
   facet normal -1.967246e-017 -4.488580e-001 8.936031e-001
      outer loop
         vertex 2.215792e+003 1.344127e+003 1.932691e+003
         vertex 2.225792e+003 1.344917e+003 1.933060e+003
         vertex 2.215792e+003 1.344917e+003 1.933060e+003
      endloop
   endfacet
   facet normal -1.749622e-017 -5.494540e-001 8.355240e-001
      outer loop
         vertex 2.215792e+003 1.344917e+003 1.933060e+003
         vertex 2.225792e+003 1.344917e+003 1.933060e+003
         vertex 2.225792e+003 1.345631e+003 1.933560e+003
      endloop
   endfacet
   facet normal -1.631351e-017 -5.972114e-001 8.020839e-001
      outer loop
         vertex 2.215792e+003 1.344917e+003 1.933060e+003
         vertex 2.225792e+003 1.345631e+003 1.933560e+003
         vertex 2.215792e+003 1.345631e+003 1.933560e+003
      endloop
   endfacet
   facet normal -1.379485e-017 -6.861938e-001 7.274188e-001
      outer loop
         vertex 2.215792e+003 1.345631e+003 1.933560e+003
         vertex 2.225792e+003 1.345631e+003 1.933560e+003
         vertex 2.225792e+003 1.346248e+003 1.934176e+003
      endloop
   endfacet
   facet normal -1.245889e-017 -7.274188e-001 6.861938e-001
      outer loop
         vertex 2.215792e+003 1.345631e+003 1.933560e+003
         vertex 2.225792e+003 1.346248e+003 1.934176e+003
         vertex 2.215792e+003 1.346248e+003 1.934176e+003
      endloop
   endfacet
   facet normal -9.674328e-018 -8.020839e-001 5.972114e-001
      outer loop
         vertex 2.215792e+003 1.346248e+003 1.934176e+003
         vertex 2.225792e+003 1.346248e+003 1.934176e+003
         vertex 2.225792e+003 1.346748e+003 1.934890e+003
      endloop
   endfacet
   facet normal -8.225716e-018 -8.355240e-001 5.494540e-001
      outer loop
         vertex 2.215792e+003 1.346248e+003 1.934176e+003
         vertex 2.225792e+003 1.346748e+003 1.934890e+003
         vertex 2.215792e+003 1.346748e+003 1.934890e+003
      endloop
   endfacet
   facet normal -5.259856e-018 -8.936031e-001 4.488580e-001
      outer loop
         vertex 2.215792e+003 1.346748e+003 1.934890e+003
         vertex 2.225792e+003 1.346748e+003 1.934890e+003
         vertex 2.225792e+003 1.347116e+003 1.935680e+003
      endloop
   endfacet
   facet normal -3.742606e-018 -9.182422e-001 3.960194e-001
      outer loop
         vertex 2.215792e+003 1.346748e+003 1.934890e+003
         vertex 2.225792e+003 1.347116e+003 1.935680e+003
         vertex 2.215792e+003 1.347116e+003 1.935680e+003
      endloop
   endfacet
   facet normal -6.855657e-019 -9.579706e-001 2.868663e-001
      outer loop
         vertex 2.215792e+003 1.347116e+003 1.935680e+003
         vertex 2.225792e+003 1.347116e+003 1.935680e+003
         vertex 2.225792e+003 1.347341e+003 1.936522e+003
      endloop
   endfacet
   facet normal 8.542240e-019 -9.730601e-001 2.305518e-001
      outer loop
         vertex 2.215792e+003 1.347116e+003 1.935680e+003
         vertex 2.225792e+003 1.347341e+003 1.936522e+003
         vertex 2.215792e+003 1.347341e+003 1.936522e+003
      endloop
   endfacet
   facet normal 3.909555e-018 -9.932307e-001 1.161583e-001
      outer loop
         vertex 2.215792e+003 1.347341e+003 1.936522e+003
         vertex 2.225792e+003 1.347341e+003 1.936522e+003
         vertex 2.225792e+003 1.347417e+003 1.937390e+003
      endloop
   endfacet
   facet normal 5.425098e-018 -9.983120e-001 5.807914e-002
      outer loop
         vertex 2.215792e+003 1.347341e+003 1.936522e+003
         vertex 2.225792e+003 1.347417e+003 1.937390e+003
         vertex 2.215792e+003 1.347417e+003 1.937390e+003
      endloop
   endfacet
   facet normal 8.385886e-018 -9.983120e-001 -5.807914e-002
      outer loop
         vertex 2.215792e+003 1.347417e+003 1.937390e+003
         vertex 2.225792e+003 1.347417e+003 1.937390e+003
         vertex 2.225792e+003 1.347341e+003 1.938258e+003
      endloop
   endfacet
   facet normal 9.831133e-018 -9.932307e-001 -1.161583e-001
      outer loop
         vertex 2.215792e+003 1.347417e+003 1.937390e+003
         vertex 2.225792e+003 1.347341e+003 1.938258e+003
         vertex 2.215792e+003 1.347341e+003 1.938258e+003
      endloop
   endfacet
   facet normal 1.260742e-017 -9.730601e-001 -2.305518e-001
      outer loop
         vertex 2.215792e+003 1.347341e+003 1.938258e+003
         vertex 2.225792e+003 1.347341e+003 1.938258e+003
         vertex 2.225792e+003 1.347116e+003 1.939100e+003
      endloop
   endfacet
   facet normal 1.393845e-017 -9.579706e-001 -2.868663e-001
      outer loop
         vertex 2.215792e+003 1.347341e+003 1.938258e+003
         vertex 2.225792e+003 1.347116e+003 1.939100e+003
         vertex 2.215792e+003 1.347116e+003 1.939100e+003
      endloop
   endfacet
   facet normal 1.644588e-017 -9.182422e-001 -3.960194e-001
      outer loop
         vertex 2.215792e+003 1.347116e+003 1.939100e+003
         vertex 2.225792e+003 1.347116e+003 1.939100e+003
         vertex 2.225792e+003 1.346748e+003 1.939890e+003
      endloop
   endfacet
   facet normal 1.762226e-017 -8.936031e-001 -4.488580e-001
      outer loop
         vertex 2.215792e+003 1.347116e+003 1.939100e+003
         vertex 2.225792e+003 1.346748e+003 1.939890e+003
         vertex 2.215792e+003 1.346748e+003 1.939890e+003
      endloop
   endfacet
   facet normal 1.978464e-017 -8.355240e-001 -5.494540e-001
      outer loop
         vertex 2.215792e+003 1.346748e+003 1.939890e+003
         vertex 2.225792e+003 1.346748e+003 1.939890e+003
         vertex 2.225792e+003 1.346248e+003 1.940604e+003
      endloop
   endfacet
   facet normal 2.077063e-017 -8.020839e-001 -5.972114e-001
      outer loop
         vertex 2.215792e+003 1.346748e+003 1.939890e+003
         vertex 2.225792e+003 1.346248e+003 1.940604e+003
         vertex 2.215792e+003 1.346248e+003 1.940604e+003
      endloop
   endfacet
   facet normal 2.252225e-017 -7.274188e-001 -6.861938e-001
      outer loop
         vertex 2.215792e+003 1.346248e+003 1.940604e+003
         vertex 2.225792e+003 1.346248e+003 1.940604e+003
         vertex 2.225792e+003 1.345631e+003 1.941220e+003
      endloop
   endfacet
   facet normal 2.328789e-017 -6.861938e-001 -7.274188e-001
      outer loop
         vertex 2.215792e+003 1.346248e+003 1.940604e+003
         vertex 2.225792e+003 1.345631e+003 1.941220e+003
         vertex 2.215792e+003 1.345631e+003 1.941220e+003
      endloop
   endfacet
   facet normal 2.457554e-017 -5.972114e-001 -8.020839e-001
      outer loop
         vertex 2.215792e+003 1.345631e+003 1.941220e+003
         vertex 2.225792e+003 1.345631e+003 1.941220e+003
         vertex 2.225792e+003 1.344917e+003 1.941720e+003
      endloop
   endfacet
   facet normal 2.509755e-017 -5.494540e-001 -8.355240e-001
      outer loop
         vertex 2.215792e+003 1.345631e+003 1.941220e+003
         vertex 2.225792e+003 1.344917e+003 1.941720e+003
         vertex 2.215792e+003 1.344917e+003 1.941720e+003
      endloop
   endfacet
   facet normal 2.588211e-017 -4.488580e-001 -8.936031e-001
      outer loop
         vertex 2.215792e+003 1.344917e+003 1.941720e+003
         vertex 2.225792e+003 1.344917e+003 1.941720e+003
         vertex 2.225792e+003 1.344127e+003 1.942088e+003
      endloop
   endfacet
   facet normal 2.614465e-017 -3.960194e-001 -9.182422e-001
      outer loop
         vertex 2.215792e+003 1.344917e+003 1.941720e+003
         vertex 2.225792e+003 1.344127e+003 1.942088e+003
         vertex 2.215792e+003 1.344127e+003 1.942088e+003
      endloop
   endfacet
   facet normal 2.640227e-017 -2.868663e-001 -9.579706e-001
      outer loop
         vertex 2.215792e+003 1.344127e+003 1.942088e+003
         vertex 2.225792e+003 1.344127e+003 1.942088e+003
         vertex 2.225792e+003 1.343286e+003 1.942314e+003
      endloop
   endfacet
   facet normal 2.639735e-017 -2.305518e-001 -9.730601e-001
      outer loop
         vertex 2.215792e+003 1.344127e+003 1.942088e+003
         vertex 2.225792e+003 1.343286e+003 1.942314e+003
         vertex 2.215792e+003 1.343286e+003 1.942314e+003
      endloop
   endfacet
   facet normal 2.612020e-017 -1.161583e-001 -9.932307e-001
      outer loop
         vertex 2.215792e+003 1.343286e+003 1.942314e+003
         vertex 2.225792e+003 1.343286e+003 1.942314e+003
         vertex 2.225792e+003 1.342417e+003 1.942390e+003
      endloop
   endfacet
   facet normal 2.584798e-017 -5.807914e-002 -9.983120e-001
      outer loop
         vertex 2.215792e+003 1.343286e+003 1.942314e+003
         vertex 2.225792e+003 1.342417e+003 1.942390e+003
         vertex 2.215792e+003 1.342417e+003 1.942390e+003
      endloop
   endfacet
   facet normal 2.504449e-017 5.807914e-002 -9.983120e-001
      outer loop
         vertex 2.215792e+003 1.342417e+003 1.942390e+003
         vertex 2.225792e+003 1.342417e+003 1.942390e+003
         vertex 2.225792e+003 1.341549e+003 1.942314e+003
      endloop
   endfacet
   facet normal 2.451323e-017 1.161583e-001 -9.932307e-001
      outer loop
         vertex 2.215792e+003 1.342417e+003 1.942390e+003
         vertex 2.225792e+003 1.341549e+003 1.942314e+003
         vertex 2.215792e+003 1.341549e+003 1.942314e+003
      endloop
   endfacet
   facet normal 2.320782e-017 2.305518e-001 -9.730601e-001
      outer loop
         vertex 2.215792e+003 1.341549e+003 1.942314e+003
         vertex 2.225792e+003 1.341549e+003 1.942314e+003
         vertex 2.225792e+003 1.340707e+003 1.942088e+003
      endloop
   endfacet
   facet normal 2.243366e-017 2.868663e-001 -9.579706e-001
      outer loop
         vertex 2.215792e+003 1.341549e+003 1.942314e+003
         vertex 2.225792e+003 1.340707e+003 1.942088e+003
         vertex 2.215792e+003 1.340707e+003 1.942088e+003
      endloop
   endfacet
   facet normal 2.066598e-017 3.960194e-001 -9.182422e-001
      outer loop
         vertex 2.215792e+003 1.340707e+003 1.942088e+003
         vertex 2.225792e+003 1.340707e+003 1.942088e+003
         vertex 2.225792e+003 1.339917e+003 1.941720e+003
      endloop
   endfacet
   facet normal 1.967246e-017 4.488580e-001 -8.936031e-001
      outer loop
         vertex 2.215792e+003 1.340707e+003 1.942088e+003
         vertex 2.225792e+003 1.339917e+003 1.941720e+003
         vertex 2.215792e+003 1.339917e+003 1.941720e+003
      endloop
   endfacet
   facet normal 1.749622e-017 5.494540e-001 -8.355240e-001
      outer loop
         vertex 2.215792e+003 1.339917e+003 1.941720e+003
         vertex 2.225792e+003 1.339917e+003 1.941720e+003
         vertex 2.225792e+003 1.339203e+003 1.941220e+003
      endloop
   endfacet
   facet normal 1.631351e-017 5.972114e-001 -8.020839e-001
      outer loop
         vertex 2.215792e+003 1.339917e+003 1.941720e+003
         vertex 2.225792e+003 1.339203e+003 1.941220e+003
         vertex 2.215792e+003 1.339203e+003 1.941220e+003
      endloop
   endfacet
   facet normal 1.379485e-017 6.861938e-001 -7.274188e-001
      outer loop
         vertex 2.215792e+003 1.339203e+003 1.941220e+003
         vertex 2.225792e+003 1.339203e+003 1.941220e+003
         vertex 2.225792e+003 1.338587e+003 1.940604e+003
      endloop
   endfacet
   facet normal 1.245889e-017 7.274188e-001 -6.861938e-001
      outer loop
         vertex 2.215792e+003 1.339203e+003 1.941220e+003
         vertex 2.225792e+003 1.338587e+003 1.940604e+003
         vertex 2.215792e+003 1.338587e+003 1.940604e+003
      endloop
   endfacet
   facet normal 9.674328e-018 8.020839e-001 -5.972114e-001
      outer loop
         vertex 2.215792e+003 1.338587e+003 1.940604e+003
         vertex 2.225792e+003 1.338587e+003 1.940604e+003
         vertex 2.225792e+003 1.338087e+003 1.939890e+003
      endloop
   endfacet
   facet normal 8.225716e-018 8.355240e-001 -5.494540e-001
      outer loop
         vertex 2.215792e+003 1.338587e+003 1.940604e+003
         vertex 2.225792e+003 1.338087e+003 1.939890e+003
         vertex 2.215792e+003 1.338087e+003 1.939890e+003
      endloop
   endfacet
   facet normal 5.259856e-018 8.936031e-001 -4.488580e-001
      outer loop
         vertex 2.215792e+003 1.338087e+003 1.939890e+003
         vertex 2.225792e+003 1.338087e+003 1.939890e+003
         vertex 2.225792e+003 1.337719e+003 1.939100e+003
      endloop
   endfacet
   facet normal 3.742606e-018 9.182422e-001 -3.960194e-001
      outer loop
         vertex 2.215792e+003 1.338087e+003 1.939890e+003
         vertex 2.225792e+003 1.337719e+003 1.939100e+003
         vertex 2.215792e+003 1.337719e+003 1.939100e+003
      endloop
   endfacet
   facet normal 6.855657e-019 9.579706e-001 -2.868663e-001
      outer loop
         vertex 2.215792e+003 1.337719e+003 1.939100e+003
         vertex 2.225792e+003 1.337719e+003 1.939100e+003
         vertex 2.225792e+003 1.337493e+003 1.938258e+003
      endloop
   endfacet
   facet normal -8.542240e-019 9.730601e-001 -2.305518e-001
      outer loop
         vertex 2.215792e+003 1.337719e+003 1.939100e+003
         vertex 2.225792e+003 1.337493e+003 1.938258e+003
         vertex 2.215792e+003 1.337493e+003 1.938258e+003
      endloop
   endfacet
   facet normal -3.909555e-018 9.932307e-001 -1.161583e-001
      outer loop
         vertex 2.215792e+003 1.337493e+003 1.938258e+003
         vertex 2.225792e+003 1.337493e+003 1.938258e+003
         vertex 2.225792e+003 1.337417e+003 1.937390e+003
      endloop
   endfacet
   facet normal 2.291481e-017 -7.071068e-001 -7.071068e-001
      outer loop
         vertex 2.225792e+003 1.336417e+003 1.926390e+003
         vertex 2.225792e+003 1.331417e+003 1.931390e+003
         vertex 2.215792e+003 1.336417e+003 1.926390e+003
      endloop
   endfacet
   facet normal 2.291481e-017 -7.071068e-001 -7.071068e-001
      outer loop
         vertex 2.215792e+003 1.336417e+003 1.926390e+003
         vertex 2.225792e+003 1.331417e+003 1.931390e+003
         vertex 2.215792e+003 1.331417e+003 1.931390e+003
      endloop
   endfacet
endsolid