solid 09.025.00.00.000 - 09.025.00.08.000-2 09.025.00.08.015-1 09.025.00.08.0BC-1
   facet normal -1.000000e+000 7.941546e-016 -2.219066e-016
      outer loop
         vertex 2.083792e+003 1.395417e+003 2.292390e+003
         vertex 2.083792e+003 1.395417e+003 2.252390e+003
         vertex 2.083792e+003 1.391417e+003 2.292390e+003
      endloop
   endfacet
   facet normal -1.000000e+000 7.941546e-016 -2.219066e-016
      outer loop
         vertex 2.083792e+003 1.391417e+003 2.292390e+003
         vertex 2.083792e+003 1.395417e+003 2.252390e+003
         vertex 2.083792e+003 1.391417e+003 2.252390e+003
      endloop
   endfacet
   facet normal -2.382558e-016 7.490305e-016 1.000000e+000
      outer loop
         vertex 2.183792e+003 1.395417e+003 2.292390e+003
         vertex 2.083792e+003 1.395417e+003 2.292390e+003
         vertex 2.183792e+003 1.391417e+003 2.292390e+003
      endloop
   endfacet
   facet normal -2.382558e-016 7.490305e-016 1.000000e+000
      outer loop
         vertex 2.183792e+003 1.391417e+003 2.292390e+003
         vertex 2.083792e+003 1.395417e+003 2.292390e+003
         vertex 2.083792e+003 1.391417e+003 2.292390e+003
      endloop
   endfacet
   facet normal 1.000000e+000 -7.941546e-016 2.219066e-016
      outer loop
         vertex 2.183792e+003 1.395417e+003 2.252390e+003
         vertex 2.183792e+003 1.395417e+003 2.292390e+003
         vertex 2.183792e+003 1.391417e+003 2.252390e+003
      endloop
   endfacet
   facet normal 1.000000e+000 -7.941546e-016 2.219066e-016
      outer loop
         vertex 2.183792e+003 1.391417e+003 2.252390e+003
         vertex 2.183792e+003 1.395417e+003 2.292390e+003
         vertex 2.183792e+003 1.391417e+003 2.292390e+003
      endloop
   endfacet
   facet normal 2.382558e-016 -7.490305e-016 -1.000000e+000
      outer loop
         vertex 2.083792e+003 1.395417e+003 2.252390e+003
         vertex 2.183792e+003 1.395417e+003 2.252390e+003
         vertex 2.083792e+003 1.391417e+003 2.252390e+003
      endloop
   endfacet
   facet normal 2.382558e-016 -7.490305e-016 -1.000000e+000
      outer loop
         vertex 2.083792e+003 1.391417e+003 2.252390e+003
         vertex 2.183792e+003 1.395417e+003 2.252390e+003
         vertex 2.183792e+003 1.391417e+003 2.252390e+003
      endloop
   endfacet
   facet normal 6.731398e-016 1.000000e+000 -6.019490e-016
      outer loop
         vertex 2.172663e+003 1.395417e+003 2.275491e+003
         vertex 2.172142e+003 1.395417e+003 2.275248e+003
         vertex 2.097092e+003 1.395417e+003 2.272390e+003
      endloop
   endfacet
   facet normal 6.731398e-016 1.000000e+000 -6.019490e-016
      outer loop
         vertex 2.097092e+003 1.395417e+003 2.272390e+003
         vertex 2.172142e+003 1.395417e+003 2.275248e+003
         vertex 2.171671e+003 1.395417e+003 2.274918e+003
      endloop
   endfacet
   facet normal 6.731398e-016 1.000000e+000 -6.019490e-016
      outer loop
         vertex 2.097092e+003 1.395417e+003 2.272390e+003
         vertex 2.171671e+003 1.395417e+003 2.274918e+003
         vertex 2.097042e+003 1.395417e+003 2.271817e+003
      endloop
   endfacet
   facet normal 6.731398e-016 1.000000e+000 -6.019490e-016
      outer loop
         vertex 2.171671e+003 1.395417e+003 2.274918e+003
         vertex 2.094365e+003 1.395417e+003 2.269140e+003
         vertex 2.094921e+003 1.395417e+003 2.269289e+003
      endloop
   endfacet
   facet normal 6.731398e-016 1.000000e+000 -6.019490e-016
      outer loop
         vertex 2.170934e+003 1.395417e+003 2.274040e+003
         vertex 2.170691e+003 1.395417e+003 2.273519e+003
         vertex 2.093792e+003 1.395417e+003 2.269090e+003
      endloop
   endfacet
   facet normal 6.731398e-016 1.000000e+000 -6.019490e-016
      outer loop
         vertex 2.093792e+003 1.395417e+003 2.269090e+003
         vertex 2.170691e+003 1.395417e+003 2.273519e+003
         vertex 2.170542e+003 1.395417e+003 2.272963e+003
      endloop
   endfacet
   facet normal 6.731398e-016 1.000000e+000 -6.019490e-016
      outer loop
         vertex 2.176893e+003 1.395417e+003 2.271261e+003
         vertex 2.177042e+003 1.395417e+003 2.271817e+003
         vertex 2.183792e+003 1.395417e+003 2.252390e+003
      endloop
   endfacet
   facet normal 6.731398e-016 1.000000e+000 -6.019490e-016
      outer loop
         vertex 2.183792e+003 1.395417e+003 2.252390e+003
         vertex 2.177042e+003 1.395417e+003 2.271817e+003
         vertex 2.177092e+003 1.395417e+003 2.272390e+003
      endloop
   endfacet
   facet normal 6.731398e-016 1.000000e+000 -6.019490e-016
      outer loop
         vertex 2.183792e+003 1.395417e+003 2.252390e+003
         vertex 2.177092e+003 1.395417e+003 2.272390e+003
         vertex 2.183792e+003 1.395417e+003 2.292390e+003
      endloop
   endfacet
   facet normal 6.731398e-016 1.000000e+000 -6.019490e-016
      outer loop
         vertex 2.094365e+003 1.395417e+003 2.269140e+003
         vertex 2.171671e+003 1.395417e+003 2.274918e+003
         vertex 2.093792e+003 1.395417e+003 2.269090e+003
      endloop
   endfacet
   facet normal 6.731398e-016 1.000000e+000 -6.019490e-016
      outer loop
         vertex 2.093792e+003 1.395417e+003 2.269090e+003
         vertex 2.171671e+003 1.395417e+003 2.274918e+003
         vertex 2.171264e+003 1.395417e+003 2.274511e+003
      endloop
   endfacet
   facet normal 6.731398e-016 1.000000e+000 -6.019490e-016
      outer loop
         vertex 2.093792e+003 1.395417e+003 2.269090e+003
         vertex 2.171264e+003 1.395417e+003 2.274511e+003
         vertex 2.170934e+003 1.395417e+003 2.274040e+003
      endloop
   endfacet
   facet normal 6.731398e-016 1.000000e+000 -6.019490e-016
      outer loop
         vertex 2.094921e+003 1.395417e+003 2.269289e+003
         vertex 2.095442e+003 1.395417e+003 2.269532e+003
         vertex 2.171671e+003 1.395417e+003 2.274918e+003
      endloop
   endfacet
   facet normal 6.731398e-016 1.000000e+000 -6.019490e-016
      outer loop
         vertex 2.171671e+003 1.395417e+003 2.274918e+003
         vertex 2.095442e+003 1.395417e+003 2.269532e+003
         vertex 2.095913e+003 1.395417e+003 2.269862e+003
      endloop
   endfacet
   facet normal 6.731398e-016 1.000000e+000 -6.019490e-016
      outer loop
         vertex 2.171671e+003 1.395417e+003 2.274918e+003
         vertex 2.095913e+003 1.395417e+003 2.269862e+003
         vertex 2.096320e+003 1.395417e+003 2.270269e+003
      endloop
   endfacet
   facet normal 6.731398e-016 1.000000e+000 -6.019490e-016
      outer loop
         vertex 2.096320e+003 1.395417e+003 2.270269e+003
         vertex 2.096650e+003 1.395417e+003 2.270740e+003
         vertex 2.171671e+003 1.395417e+003 2.274918e+003
      endloop
   endfacet
   facet normal 6.731398e-016 1.000000e+000 -6.019490e-016
      outer loop
         vertex 2.171671e+003 1.395417e+003 2.274918e+003
         vertex 2.096650e+003 1.395417e+003 2.270740e+003
         vertex 2.096893e+003 1.395417e+003 2.271261e+003
      endloop
   endfacet
   facet normal 6.731398e-016 1.000000e+000 -6.019490e-016
      outer loop
         vertex 2.171671e+003 1.395417e+003 2.274918e+003
         vertex 2.096893e+003 1.395417e+003 2.271261e+003
         vertex 2.097042e+003 1.395417e+003 2.271817e+003
      endloop
   endfacet
   facet normal 6.731398e-016 1.000000e+000 -6.019490e-016
      outer loop
         vertex 2.183792e+003 1.395417e+003 2.252390e+003
         vertex 2.172663e+003 1.395417e+003 2.269289e+003
         vertex 2.173219e+003 1.395417e+003 2.269140e+003
      endloop
   endfacet
   facet normal 6.731398e-016 1.000000e+000 -6.019490e-016
      outer loop
         vertex 2.174921e+003 1.395417e+003 2.269289e+003
         vertex 2.175442e+003 1.395417e+003 2.269532e+003
         vertex 2.183792e+003 1.395417e+003 2.252390e+003
      endloop
   endfacet
   facet normal 6.731398e-016 1.000000e+000 -6.019490e-016
      outer loop
         vertex 2.183792e+003 1.395417e+003 2.252390e+003
         vertex 2.175442e+003 1.395417e+003 2.269532e+003
         vertex 2.175913e+003 1.395417e+003 2.269862e+003
      endloop
   endfacet
   facet normal 6.731398e-016 1.000000e+000 -6.019490e-016
      outer loop
         vertex 2.175913e+003 1.395417e+003 2.269862e+003
         vertex 2.176320e+003 1.395417e+003 2.270269e+003
         vertex 2.183792e+003 1.395417e+003 2.252390e+003
      endloop
   endfacet
   facet normal 6.731398e-016 1.000000e+000 -6.019490e-016
      outer loop
         vertex 2.183792e+003 1.395417e+003 2.252390e+003
         vertex 2.176320e+003 1.395417e+003 2.270269e+003
         vertex 2.176650e+003 1.395417e+003 2.270740e+003
      endloop
   endfacet
   facet normal 6.731398e-016 1.000000e+000 -6.019490e-016
      outer loop
         vertex 2.183792e+003 1.395417e+003 2.252390e+003
         vertex 2.176650e+003 1.395417e+003 2.270740e+003
         vertex 2.176893e+003 1.395417e+003 2.271261e+003
      endloop
   endfacet
   facet normal 6.731398e-016 1.000000e+000 -6.019490e-016
      outer loop
         vertex 2.177092e+003 1.395417e+003 2.272390e+003
         vertex 2.177042e+003 1.395417e+003 2.272963e+003
         vertex 2.183792e+003 1.395417e+003 2.292390e+003
      endloop
   endfacet
   facet normal 6.731398e-016 1.000000e+000 -6.019490e-016
      outer loop
         vertex 2.183792e+003 1.395417e+003 2.292390e+003
         vertex 2.177042e+003 1.395417e+003 2.272963e+003
         vertex 2.176893e+003 1.395417e+003 2.273519e+003
      endloop
   endfacet
   facet normal 6.731398e-016 1.000000e+000 -6.019490e-016
      outer loop
         vertex 2.183792e+003 1.395417e+003 2.292390e+003
         vertex 2.176893e+003 1.395417e+003 2.273519e+003
         vertex 2.176650e+003 1.395417e+003 2.274040e+003
      endloop
   endfacet
   facet normal 6.731398e-016 1.000000e+000 -6.019490e-016
      outer loop
         vertex 2.176650e+003 1.395417e+003 2.274040e+003
         vertex 2.176320e+003 1.395417e+003 2.274511e+003
         vertex 2.183792e+003 1.395417e+003 2.292390e+003
      endloop
   endfacet
   facet normal 6.731398e-016 1.000000e+000 -6.019490e-016
      outer loop
         vertex 2.183792e+003 1.395417e+003 2.292390e+003
         vertex 2.176320e+003 1.395417e+003 2.274511e+003
         vertex 2.175913e+003 1.395417e+003 2.274918e+003
      endloop
   endfacet
   facet normal 6.731398e-016 1.000000e+000 -6.019490e-016
      outer loop
         vertex 2.183792e+003 1.395417e+003 2.292390e+003
         vertex 2.175913e+003 1.395417e+003 2.274918e+003
         vertex 2.175442e+003 1.395417e+003 2.275248e+003
      endloop
   endfacet
   facet normal 6.731398e-016 1.000000e+000 -6.019490e-016
      outer loop
         vertex 2.091671e+003 1.395417e+003 2.269862e+003
         vertex 2.092142e+003 1.395417e+003 2.269532e+003
         vertex 2.083792e+003 1.395417e+003 2.252390e+003
      endloop
   endfacet
   facet normal 6.731398e-016 1.000000e+000 -6.019490e-016
      outer loop
         vertex 2.170934e+003 1.395417e+003 2.270740e+003
         vertex 2.171264e+003 1.395417e+003 2.270269e+003
         vertex 2.083792e+003 1.395417e+003 2.252390e+003
      endloop
   endfacet
   facet normal 6.731398e-016 1.000000e+000 -6.019490e-016
      outer loop
         vertex 2.083792e+003 1.395417e+003 2.252390e+003
         vertex 2.171264e+003 1.395417e+003 2.270269e+003
         vertex 2.171671e+003 1.395417e+003 2.269862e+003
      endloop
   endfacet
   facet normal 6.731398e-016 1.000000e+000 -6.019490e-016
      outer loop
         vertex 2.083792e+003 1.395417e+003 2.252390e+003
         vertex 2.171671e+003 1.395417e+003 2.269862e+003
         vertex 2.183792e+003 1.395417e+003 2.252390e+003
      endloop
   endfacet
   facet normal 6.731398e-016 1.000000e+000 -6.019490e-016
      outer loop
         vertex 2.183792e+003 1.395417e+003 2.252390e+003
         vertex 2.171671e+003 1.395417e+003 2.269862e+003
         vertex 2.172142e+003 1.395417e+003 2.269532e+003
      endloop
   endfacet
   facet normal 6.731398e-016 1.000000e+000 -6.019490e-016
      outer loop
         vertex 2.183792e+003 1.395417e+003 2.252390e+003
         vertex 2.172142e+003 1.395417e+003 2.269532e+003
         vertex 2.172663e+003 1.395417e+003 2.269289e+003
      endloop
   endfacet
   facet normal 6.731398e-016 1.000000e+000 -6.019490e-016
      outer loop
         vertex 2.173219e+003 1.395417e+003 2.269140e+003
         vertex 2.173792e+003 1.395417e+003 2.269090e+003
         vertex 2.183792e+003 1.395417e+003 2.252390e+003
      endloop
   endfacet
   facet normal 6.731398e-016 1.000000e+000 -6.019490e-016
      outer loop
         vertex 2.183792e+003 1.395417e+003 2.252390e+003
         vertex 2.173792e+003 1.395417e+003 2.269090e+003
         vertex 2.174365e+003 1.395417e+003 2.269140e+003
      endloop
   endfacet
   facet normal 6.731398e-016 1.000000e+000 -6.019490e-016
      outer loop
         vertex 2.183792e+003 1.395417e+003 2.252390e+003
         vertex 2.174365e+003 1.395417e+003 2.269140e+003
         vertex 2.174921e+003 1.395417e+003 2.269289e+003
      endloop
   endfacet
   facet normal 6.731398e-016 1.000000e+000 -6.019490e-016
      outer loop
         vertex 2.083792e+003 1.395417e+003 2.292390e+003
         vertex 2.092664e+003 1.395417e+003 2.275491e+003
         vertex 2.092142e+003 1.395417e+003 2.275248e+003
      endloop
   endfacet
   facet normal 6.731398e-016 1.000000e+000 -6.019490e-016
      outer loop
         vertex 2.092142e+003 1.395417e+003 2.269532e+003
         vertex 2.092664e+003 1.395417e+003 2.269289e+003
         vertex 2.083792e+003 1.395417e+003 2.252390e+003
      endloop
   endfacet
   facet normal 6.731398e-016 1.000000e+000 -6.019490e-016
      outer loop
         vertex 2.083792e+003 1.395417e+003 2.252390e+003
         vertex 2.092664e+003 1.395417e+003 2.269289e+003
         vertex 2.093219e+003 1.395417e+003 2.269140e+003
      endloop
   endfacet
   facet normal 6.731398e-016 1.000000e+000 -6.019490e-016
      outer loop
         vertex 2.083792e+003 1.395417e+003 2.252390e+003
         vertex 2.093219e+003 1.395417e+003 2.269140e+003
         vertex 2.093792e+003 1.395417e+003 2.269090e+003
      endloop
   endfacet
   facet normal 6.731398e-016 1.000000e+000 -6.019490e-016
      outer loop
         vertex 2.175442e+003 1.395417e+003 2.275248e+003
         vertex 2.174921e+003 1.395417e+003 2.275491e+003
         vertex 2.183792e+003 1.395417e+003 2.292390e+003
      endloop
   endfacet
   facet normal 6.731398e-016 1.000000e+000 -6.019490e-016
      outer loop
         vertex 2.183792e+003 1.395417e+003 2.292390e+003
         vertex 2.174921e+003 1.395417e+003 2.275491e+003
         vertex 2.174365e+003 1.395417e+003 2.275640e+003
      endloop
   endfacet
   facet normal 6.731398e-016 1.000000e+000 -6.019490e-016
      outer loop
         vertex 2.183792e+003 1.395417e+003 2.292390e+003
         vertex 2.174365e+003 1.395417e+003 2.275640e+003
         vertex 2.173792e+003 1.395417e+003 2.275690e+003
      endloop
   endfacet
   facet normal 6.731398e-016 1.000000e+000 -6.019490e-016
      outer loop
         vertex 2.096893e+003 1.395417e+003 2.273519e+003
         vertex 2.096650e+003 1.395417e+003 2.274040e+003
         vertex 2.183792e+003 1.395417e+003 2.292390e+003
      endloop
   endfacet
   facet normal 6.731398e-016 1.000000e+000 -6.019490e-016
      outer loop
         vertex 2.094921e+003 1.395417e+003 2.275491e+003
         vertex 2.094365e+003 1.395417e+003 2.275640e+003
         vertex 2.083792e+003 1.395417e+003 2.292390e+003
      endloop
   endfacet
   facet normal 6.731398e-016 1.000000e+000 -6.019490e-016
      outer loop
         vertex 2.170542e+003 1.395417e+003 2.272963e+003
         vertex 2.170492e+003 1.395417e+003 2.272390e+003
         vertex 2.093792e+003 1.395417e+003 2.269090e+003
      endloop
   endfacet
   facet normal 6.731398e-016 1.000000e+000 -6.019490e-016
      outer loop
         vertex 2.093792e+003 1.395417e+003 2.269090e+003
         vertex 2.170492e+003 1.395417e+003 2.272390e+003
         vertex 2.170542e+003 1.395417e+003 2.271817e+003
      endloop
   endfacet
   facet normal 6.731398e-016 1.000000e+000 -6.019490e-016
      outer loop
         vertex 2.093792e+003 1.395417e+003 2.269090e+003
         vertex 2.170542e+003 1.395417e+003 2.271817e+003
         vertex 2.083792e+003 1.395417e+003 2.252390e+003
      endloop
   endfacet
   facet normal 6.731398e-016 1.000000e+000 -6.019490e-016
      outer loop
         vertex 2.083792e+003 1.395417e+003 2.252390e+003
         vertex 2.170542e+003 1.395417e+003 2.271817e+003
         vertex 2.170691e+003 1.395417e+003 2.271261e+003
      endloop
   endfacet
   facet normal 6.731398e-016 1.000000e+000 -6.019490e-016
      outer loop
         vertex 2.083792e+003 1.395417e+003 2.252390e+003
         vertex 2.170691e+003 1.395417e+003 2.271261e+003
         vertex 2.170934e+003 1.395417e+003 2.270740e+003
      endloop
   endfacet
   facet normal 6.731398e-016 1.000000e+000 -6.019490e-016
      outer loop
         vertex 2.096893e+003 1.395417e+003 2.273519e+003
         vertex 2.183792e+003 1.395417e+003 2.292390e+003
         vertex 2.097042e+003 1.395417e+003 2.272963e+003
      endloop
   endfacet
   facet normal 6.731398e-016 1.000000e+000 -6.019490e-016
      outer loop
         vertex 2.097042e+003 1.395417e+003 2.272963e+003
         vertex 2.183792e+003 1.395417e+003 2.292390e+003
         vertex 2.173792e+003 1.395417e+003 2.275690e+003
      endloop
   endfacet
   facet normal 6.731398e-016 1.000000e+000 -6.019490e-016
      outer loop
         vertex 2.097042e+003 1.395417e+003 2.272963e+003
         vertex 2.173792e+003 1.395417e+003 2.275690e+003
         vertex 2.097092e+003 1.395417e+003 2.272390e+003
      endloop
   endfacet
   facet normal 6.731398e-016 1.000000e+000 -6.019490e-016
      outer loop
         vertex 2.097092e+003 1.395417e+003 2.272390e+003
         vertex 2.173792e+003 1.395417e+003 2.275690e+003
         vertex 2.173219e+003 1.395417e+003 2.275640e+003
      endloop
   endfacet
   facet normal 6.731398e-016 1.000000e+000 -6.019490e-016
      outer loop
         vertex 2.097092e+003 1.395417e+003 2.272390e+003
         vertex 2.173219e+003 1.395417e+003 2.275640e+003
         vertex 2.172663e+003 1.395417e+003 2.275491e+003
      endloop
   endfacet
   facet normal 6.731398e-016 1.000000e+000 -6.019490e-016
      outer loop
         vertex 2.096650e+003 1.395417e+003 2.274040e+003
         vertex 2.096320e+003 1.395417e+003 2.274511e+003
         vertex 2.183792e+003 1.395417e+003 2.292390e+003
      endloop
   endfacet
   facet normal 6.731398e-016 1.000000e+000 -6.019490e-016
      outer loop
         vertex 2.183792e+003 1.395417e+003 2.292390e+003
         vertex 2.096320e+003 1.395417e+003 2.274511e+003
         vertex 2.095913e+003 1.395417e+003 2.274918e+003
      endloop
   endfacet
   facet normal 6.731398e-016 1.000000e+000 -6.019490e-016
      outer loop
         vertex 2.183792e+003 1.395417e+003 2.292390e+003
         vertex 2.095913e+003 1.395417e+003 2.274918e+003
         vertex 2.083792e+003 1.395417e+003 2.292390e+003
      endloop
   endfacet
   facet normal 6.731398e-016 1.000000e+000 -6.019490e-016
      outer loop
         vertex 2.083792e+003 1.395417e+003 2.292390e+003
         vertex 2.095913e+003 1.395417e+003 2.274918e+003
         vertex 2.095442e+003 1.395417e+003 2.275248e+003
      endloop
   endfacet
   facet normal 6.731398e-016 1.000000e+000 -6.019490e-016
      outer loop
         vertex 2.083792e+003 1.395417e+003 2.292390e+003
         vertex 2.095442e+003 1.395417e+003 2.275248e+003
         vertex 2.094921e+003 1.395417e+003 2.275491e+003
      endloop
   endfacet
   facet normal 6.731398e-016 1.000000e+000 -6.019490e-016
      outer loop
         vertex 2.094365e+003 1.395417e+003 2.275640e+003
         vertex 2.093792e+003 1.395417e+003 2.275690e+003
         vertex 2.083792e+003 1.395417e+003 2.292390e+003
      endloop
   endfacet
   facet normal 6.731398e-016 1.000000e+000 -6.019490e-016
      outer loop
         vertex 2.083792e+003 1.395417e+003 2.292390e+003
         vertex 2.093792e+003 1.395417e+003 2.275690e+003
         vertex 2.093219e+003 1.395417e+003 2.275640e+003
      endloop
   endfacet
   facet normal 6.731398e-016 1.000000e+000 -6.019490e-016
      outer loop
         vertex 2.083792e+003 1.395417e+003 2.292390e+003
         vertex 2.093219e+003 1.395417e+003 2.275640e+003
         vertex 2.092664e+003 1.395417e+003 2.275491e+003
      endloop
   endfacet
   facet normal 6.731398e-016 1.000000e+000 -6.019490e-016
      outer loop
         vertex 2.092142e+003 1.395417e+003 2.275248e+003
         vertex 2.091671e+003 1.395417e+003 2.274918e+003
         vertex 2.083792e+003 1.395417e+003 2.292390e+003
      endloop
   endfacet
   facet normal 6.731398e-016 1.000000e+000 -6.019490e-016
      outer loop
         vertex 2.083792e+003 1.395417e+003 2.292390e+003
         vertex 2.091671e+003 1.395417e+003 2.274918e+003
         vertex 2.091264e+003 1.395417e+003 2.274511e+003
      endloop
   endfacet
   facet normal 6.731398e-016 1.000000e+000 -6.019490e-016
      outer loop
         vertex 2.083792e+003 1.395417e+003 2.292390e+003
         vertex 2.091264e+003 1.395417e+003 2.274511e+003
         vertex 2.090934e+003 1.395417e+003 2.274040e+003
      endloop
   endfacet
   facet normal 6.731398e-016 1.000000e+000 -6.019490e-016
      outer loop
         vertex 2.090542e+003 1.395417e+003 2.271817e+003
         vertex 2.090691e+003 1.395417e+003 2.271261e+003
         vertex 2.083792e+003 1.395417e+003 2.252390e+003
      endloop
   endfacet
   facet normal 6.731398e-016 1.000000e+000 -6.019490e-016
      outer loop
         vertex 2.090691e+003 1.395417e+003 2.271261e+003
         vertex 2.090934e+003 1.395417e+003 2.270740e+003
         vertex 2.083792e+003 1.395417e+003 2.252390e+003
      endloop
   endfacet
   facet normal 6.731398e-016 1.000000e+000 -6.019490e-016
      outer loop
         vertex 2.083792e+003 1.395417e+003 2.252390e+003
         vertex 2.090934e+003 1.395417e+003 2.270740e+003
         vertex 2.091264e+003 1.395417e+003 2.270269e+003
      endloop
   endfacet
   facet normal 6.731398e-016 1.000000e+000 -6.019490e-016
      outer loop
         vertex 2.083792e+003 1.395417e+003 2.252390e+003
         vertex 2.091264e+003 1.395417e+003 2.270269e+003
         vertex 2.091671e+003 1.395417e+003 2.269862e+003
      endloop
   endfacet
   facet normal 6.731398e-016 1.000000e+000 -6.019490e-016
      outer loop
         vertex 2.090934e+003 1.395417e+003 2.274040e+003
         vertex 2.090691e+003 1.395417e+003 2.273519e+003
         vertex 2.083792e+003 1.395417e+003 2.292390e+003
      endloop
   endfacet
   facet normal 6.731398e-016 1.000000e+000 -6.019490e-016
      outer loop
         vertex 2.083792e+003 1.395417e+003 2.292390e+003
         vertex 2.090691e+003 1.395417e+003 2.273519e+003
         vertex 2.090542e+003 1.395417e+003 2.272963e+003
      endloop
   endfacet
   facet normal 6.731398e-016 1.000000e+000 -6.019490e-016
      outer loop
         vertex 2.083792e+003 1.395417e+003 2.292390e+003
         vertex 2.090542e+003 1.395417e+003 2.272963e+003
         vertex 2.083792e+003 1.395417e+003 2.252390e+003
      endloop
   endfacet
   facet normal 6.731398e-016 1.000000e+000 -6.019490e-016
      outer loop
         vertex 2.083792e+003 1.395417e+003 2.252390e+003
         vertex 2.090542e+003 1.395417e+003 2.272963e+003
         vertex 2.090492e+003 1.395417e+003 2.272390e+003
      endloop
   endfacet
   facet normal 6.731398e-016 1.000000e+000 -6.019490e-016
      outer loop
         vertex 2.083792e+003 1.395417e+003 2.252390e+003
         vertex 2.090492e+003 1.395417e+003 2.272390e+003
         vertex 2.090542e+003 1.395417e+003 2.271817e+003
      endloop
   endfacet
   facet normal -6.731398e-016 -1.000000e+000 6.019490e-016
      outer loop
         vertex 2.170691e+003 1.391417e+003 2.273519e+003
         vertex 2.170934e+003 1.391417e+003 2.274040e+003
         vertex 2.083792e+003 1.391417e+003 2.292390e+003
      endloop
   endfacet
   facet normal -6.731398e-016 -1.000000e+000 6.019490e-016
      outer loop
         vertex 2.183792e+003 1.391417e+003 2.252390e+003
         vertex 2.183792e+003 1.391417e+003 2.292390e+003
         vertex 2.177092e+003 1.391417e+003 2.272390e+003
      endloop
   endfacet
   facet normal -6.731398e-016 -1.000000e+000 6.019490e-016
      outer loop
         vertex 2.083792e+003 1.391417e+003 2.292390e+003
         vertex 2.093219e+003 1.391417e+003 2.275640e+003
         vertex 2.093792e+003 1.391417e+003 2.275690e+003
      endloop
   endfacet
   facet normal -6.731398e-016 -1.000000e+000 6.019490e-016
      outer loop
         vertex 2.177092e+003 1.391417e+003 2.272390e+003
         vertex 2.177042e+003 1.391417e+003 2.271817e+003
         vertex 2.183792e+003 1.391417e+003 2.252390e+003
      endloop
   endfacet
   facet normal -6.731398e-016 -1.000000e+000 6.019490e-016
      outer loop
         vertex 2.183792e+003 1.391417e+003 2.252390e+003
         vertex 2.177042e+003 1.391417e+003 2.271817e+003
         vertex 2.176893e+003 1.391417e+003 2.271261e+003
      endloop
   endfacet
   facet normal -6.731398e-016 -1.000000e+000 6.019490e-016
      outer loop
         vertex 2.183792e+003 1.391417e+003 2.252390e+003
         vertex 2.176893e+003 1.391417e+003 2.271261e+003
         vertex 2.176650e+003 1.391417e+003 2.270740e+003
      endloop
   endfacet
   facet normal -6.731398e-016 -1.000000e+000 6.019490e-016
      outer loop
         vertex 2.170691e+003 1.391417e+003 2.271261e+003
         vertex 2.170542e+003 1.391417e+003 2.271817e+003
         vertex 2.083792e+003 1.391417e+003 2.252390e+003
      endloop
   endfacet
   facet normal -6.731398e-016 -1.000000e+000 6.019490e-016
      outer loop
         vertex 2.176650e+003 1.391417e+003 2.270740e+003
         vertex 2.176320e+003 1.391417e+003 2.270269e+003
         vertex 2.183792e+003 1.391417e+003 2.252390e+003
      endloop
   endfacet
   facet normal -6.731398e-016 -1.000000e+000 6.019490e-016
      outer loop
         vertex 2.183792e+003 1.391417e+003 2.252390e+003
         vertex 2.176320e+003 1.391417e+003 2.270269e+003
         vertex 2.175913e+003 1.391417e+003 2.269862e+003
      endloop
   endfacet
   facet normal -6.731398e-016 -1.000000e+000 6.019490e-016
      outer loop
         vertex 2.183792e+003 1.391417e+003 2.252390e+003
         vertex 2.175913e+003 1.391417e+003 2.269862e+003
         vertex 2.175442e+003 1.391417e+003 2.269532e+003
      endloop
   endfacet
   facet normal -6.731398e-016 -1.000000e+000 6.019490e-016
      outer loop
         vertex 2.090691e+003 1.391417e+003 2.273519e+003
         vertex 2.090934e+003 1.391417e+003 2.274040e+003
         vertex 2.083792e+003 1.391417e+003 2.292390e+003
      endloop
   endfacet
   facet normal -6.731398e-016 -1.000000e+000 6.019490e-016
      outer loop
         vertex 2.083792e+003 1.391417e+003 2.292390e+003
         vertex 2.090934e+003 1.391417e+003 2.274040e+003
         vertex 2.091264e+003 1.391417e+003 2.274511e+003
      endloop
   endfacet
   facet normal -6.731398e-016 -1.000000e+000 6.019490e-016
      outer loop
         vertex 2.083792e+003 1.391417e+003 2.292390e+003
         vertex 2.091264e+003 1.391417e+003 2.274511e+003
         vertex 2.091671e+003 1.391417e+003 2.274918e+003
      endloop
   endfacet
   facet normal -6.731398e-016 -1.000000e+000 6.019490e-016
      outer loop
         vertex 2.091671e+003 1.391417e+003 2.274918e+003
         vertex 2.092142e+003 1.391417e+003 2.275248e+003
         vertex 2.083792e+003 1.391417e+003 2.292390e+003
      endloop
   endfacet
   facet normal -6.731398e-016 -1.000000e+000 6.019490e-016
      outer loop
         vertex 2.083792e+003 1.391417e+003 2.292390e+003
         vertex 2.092142e+003 1.391417e+003 2.275248e+003
         vertex 2.092664e+003 1.391417e+003 2.275491e+003
      endloop
   endfacet
   facet normal -6.731398e-016 -1.000000e+000 6.019490e-016
      outer loop
         vertex 2.083792e+003 1.391417e+003 2.292390e+003
         vertex 2.092664e+003 1.391417e+003 2.275491e+003
         vertex 2.093219e+003 1.391417e+003 2.275640e+003
      endloop
   endfacet
   facet normal -6.731398e-016 -1.000000e+000 6.019490e-016
      outer loop
         vertex 2.172663e+003 1.391417e+003 2.275491e+003
         vertex 2.173219e+003 1.391417e+003 2.275640e+003
         vertex 2.183792e+003 1.391417e+003 2.292390e+003
      endloop
   endfacet
   facet normal -6.731398e-016 -1.000000e+000 6.019490e-016
      outer loop
         vertex 2.171671e+003 1.391417e+003 2.269862e+003
         vertex 2.171264e+003 1.391417e+003 2.270269e+003
         vertex 2.083792e+003 1.391417e+003 2.252390e+003
      endloop
   endfacet
   facet normal -6.731398e-016 -1.000000e+000 6.019490e-016
      outer loop
         vertex 2.083792e+003 1.391417e+003 2.252390e+003
         vertex 2.171264e+003 1.391417e+003 2.270269e+003
         vertex 2.170934e+003 1.391417e+003 2.270740e+003
      endloop
   endfacet
   facet normal -6.731398e-016 -1.000000e+000 6.019490e-016
      outer loop
         vertex 2.083792e+003 1.391417e+003 2.252390e+003
         vertex 2.170934e+003 1.391417e+003 2.270740e+003
         vertex 2.170691e+003 1.391417e+003 2.271261e+003
      endloop
   endfacet
   facet normal -6.731398e-016 -1.000000e+000 6.019490e-016
      outer loop
         vertex 2.095913e+003 1.391417e+003 2.274918e+003
         vertex 2.170492e+003 1.391417e+003 2.272390e+003
         vertex 2.095442e+003 1.391417e+003 2.275248e+003
      endloop
   endfacet
   facet normal -6.731398e-016 -1.000000e+000 6.019490e-016
      outer loop
         vertex 2.095442e+003 1.391417e+003 2.275248e+003
         vertex 2.170492e+003 1.391417e+003 2.272390e+003
         vertex 2.094921e+003 1.391417e+003 2.275491e+003
      endloop
   endfacet
   facet normal -6.731398e-016 -1.000000e+000 6.019490e-016
      outer loop
         vertex 2.170691e+003 1.391417e+003 2.273519e+003
         vertex 2.083792e+003 1.391417e+003 2.292390e+003
         vertex 2.170542e+003 1.391417e+003 2.272963e+003
      endloop
   endfacet
   facet normal -6.731398e-016 -1.000000e+000 6.019490e-016
      outer loop
         vertex 2.170542e+003 1.391417e+003 2.272963e+003
         vertex 2.083792e+003 1.391417e+003 2.292390e+003
         vertex 2.093792e+003 1.391417e+003 2.275690e+003
      endloop
   endfacet
   facet normal -6.731398e-016 -1.000000e+000 6.019490e-016
      outer loop
         vertex 2.170542e+003 1.391417e+003 2.272963e+003
         vertex 2.093792e+003 1.391417e+003 2.275690e+003
         vertex 2.170492e+003 1.391417e+003 2.272390e+003
      endloop
   endfacet
   facet normal -6.731398e-016 -1.000000e+000 6.019490e-016
      outer loop
         vertex 2.170492e+003 1.391417e+003 2.272390e+003
         vertex 2.093792e+003 1.391417e+003 2.275690e+003
         vertex 2.094365e+003 1.391417e+003 2.275640e+003
      endloop
   endfacet
   facet normal -6.731398e-016 -1.000000e+000 6.019490e-016
      outer loop
         vertex 2.170492e+003 1.391417e+003 2.272390e+003
         vertex 2.094365e+003 1.391417e+003 2.275640e+003
         vertex 2.094921e+003 1.391417e+003 2.275491e+003
      endloop
   endfacet
   facet normal -6.731398e-016 -1.000000e+000 6.019490e-016
      outer loop
         vertex 2.170934e+003 1.391417e+003 2.274040e+003
         vertex 2.171264e+003 1.391417e+003 2.274511e+003
         vertex 2.083792e+003 1.391417e+003 2.292390e+003
      endloop
   endfacet
   facet normal -6.731398e-016 -1.000000e+000 6.019490e-016
      outer loop
         vertex 2.083792e+003 1.391417e+003 2.292390e+003
         vertex 2.171264e+003 1.391417e+003 2.274511e+003
         vertex 2.171671e+003 1.391417e+003 2.274918e+003
      endloop
   endfacet
   facet normal -6.731398e-016 -1.000000e+000 6.019490e-016
      outer loop
         vertex 2.083792e+003 1.391417e+003 2.292390e+003
         vertex 2.171671e+003 1.391417e+003 2.274918e+003
         vertex 2.183792e+003 1.391417e+003 2.292390e+003
      endloop
   endfacet
   facet normal -6.731398e-016 -1.000000e+000 6.019490e-016
      outer loop
         vertex 2.183792e+003 1.391417e+003 2.292390e+003
         vertex 2.171671e+003 1.391417e+003 2.274918e+003
         vertex 2.172142e+003 1.391417e+003 2.275248e+003
      endloop
   endfacet
   facet normal -6.731398e-016 -1.000000e+000 6.019490e-016
      outer loop
         vertex 2.183792e+003 1.391417e+003 2.292390e+003
         vertex 2.172142e+003 1.391417e+003 2.275248e+003
         vertex 2.172663e+003 1.391417e+003 2.275491e+003
      endloop
   endfacet
   facet normal -6.731398e-016 -1.000000e+000 6.019490e-016
      outer loop
         vertex 2.183792e+003 1.391417e+003 2.292390e+003
         vertex 2.174921e+003 1.391417e+003 2.275491e+003
         vertex 2.175442e+003 1.391417e+003 2.275248e+003
      endloop
   endfacet
   facet normal -6.731398e-016 -1.000000e+000 6.019490e-016
      outer loop
         vertex 2.175442e+003 1.391417e+003 2.275248e+003
         vertex 2.175913e+003 1.391417e+003 2.274918e+003
         vertex 2.183792e+003 1.391417e+003 2.292390e+003
      endloop
   endfacet
   facet normal -6.731398e-016 -1.000000e+000 6.019490e-016
      outer loop
         vertex 2.183792e+003 1.391417e+003 2.292390e+003
         vertex 2.175913e+003 1.391417e+003 2.274918e+003
         vertex 2.176320e+003 1.391417e+003 2.274511e+003
      endloop
   endfacet
   facet normal -6.731398e-016 -1.000000e+000 6.019490e-016
      outer loop
         vertex 2.183792e+003 1.391417e+003 2.292390e+003
         vertex 2.176320e+003 1.391417e+003 2.274511e+003
         vertex 2.176650e+003 1.391417e+003 2.274040e+003
      endloop
   endfacet
   facet normal -6.731398e-016 -1.000000e+000 6.019490e-016
      outer loop
         vertex 2.176650e+003 1.391417e+003 2.274040e+003
         vertex 2.176893e+003 1.391417e+003 2.273519e+003
         vertex 2.183792e+003 1.391417e+003 2.292390e+003
      endloop
   endfacet
   facet normal -6.731398e-016 -1.000000e+000 6.019490e-016
      outer loop
         vertex 2.183792e+003 1.391417e+003 2.292390e+003
         vertex 2.176893e+003 1.391417e+003 2.273519e+003
         vertex 2.177042e+003 1.391417e+003 2.272963e+003
      endloop
   endfacet
   facet normal -6.731398e-016 -1.000000e+000 6.019490e-016
      outer loop
         vertex 2.183792e+003 1.391417e+003 2.292390e+003
         vertex 2.177042e+003 1.391417e+003 2.272963e+003
         vertex 2.177092e+003 1.391417e+003 2.272390e+003
      endloop
   endfacet
   facet normal -6.731398e-016 -1.000000e+000 6.019490e-016
      outer loop
         vertex 2.175442e+003 1.391417e+003 2.269532e+003
         vertex 2.174921e+003 1.391417e+003 2.269289e+003
         vertex 2.183792e+003 1.391417e+003 2.252390e+003
      endloop
   endfacet
   facet normal -6.731398e-016 -1.000000e+000 6.019490e-016
      outer loop
         vertex 2.183792e+003 1.391417e+003 2.252390e+003
         vertex 2.174921e+003 1.391417e+003 2.269289e+003
         vertex 2.174365e+003 1.391417e+003 2.269140e+003
      endloop
   endfacet
   facet normal -6.731398e-016 -1.000000e+000 6.019490e-016
      outer loop
         vertex 2.183792e+003 1.391417e+003 2.252390e+003
         vertex 2.174365e+003 1.391417e+003 2.269140e+003
         vertex 2.173792e+003 1.391417e+003 2.269090e+003
      endloop
   endfacet
   facet normal -6.731398e-016 -1.000000e+000 6.019490e-016
      outer loop
         vertex 2.173792e+003 1.391417e+003 2.269090e+003
         vertex 2.173219e+003 1.391417e+003 2.269140e+003
         vertex 2.183792e+003 1.391417e+003 2.252390e+003
      endloop
   endfacet
   facet normal -6.731398e-016 -1.000000e+000 6.019490e-016
      outer loop
         vertex 2.183792e+003 1.391417e+003 2.252390e+003
         vertex 2.173219e+003 1.391417e+003 2.269140e+003
         vertex 2.172663e+003 1.391417e+003 2.269289e+003
      endloop
   endfacet
   facet normal -6.731398e-016 -1.000000e+000 6.019490e-016
      outer loop
         vertex 2.183792e+003 1.391417e+003 2.252390e+003
         vertex 2.172663e+003 1.391417e+003 2.269289e+003
         vertex 2.083792e+003 1.391417e+003 2.252390e+003
      endloop
   endfacet
   facet normal -6.731398e-016 -1.000000e+000 6.019490e-016
      outer loop
         vertex 2.083792e+003 1.391417e+003 2.252390e+003
         vertex 2.172663e+003 1.391417e+003 2.269289e+003
         vertex 2.172142e+003 1.391417e+003 2.269532e+003
      endloop
   endfacet
   facet normal -6.731398e-016 -1.000000e+000 6.019490e-016
      outer loop
         vertex 2.083792e+003 1.391417e+003 2.252390e+003
         vertex 2.172142e+003 1.391417e+003 2.269532e+003
         vertex 2.171671e+003 1.391417e+003 2.269862e+003
      endloop
   endfacet
   facet normal -6.731398e-016 -1.000000e+000 6.019490e-016
      outer loop
         vertex 2.173219e+003 1.391417e+003 2.275640e+003
         vertex 2.173792e+003 1.391417e+003 2.275690e+003
         vertex 2.183792e+003 1.391417e+003 2.292390e+003
      endloop
   endfacet
   facet normal -6.731398e-016 -1.000000e+000 6.019490e-016
      outer loop
         vertex 2.183792e+003 1.391417e+003 2.292390e+003
         vertex 2.173792e+003 1.391417e+003 2.275690e+003
         vertex 2.174365e+003 1.391417e+003 2.275640e+003
      endloop
   endfacet
   facet normal -6.731398e-016 -1.000000e+000 6.019490e-016
      outer loop
         vertex 2.183792e+003 1.391417e+003 2.292390e+003
         vertex 2.174365e+003 1.391417e+003 2.275640e+003
         vertex 2.174921e+003 1.391417e+003 2.275491e+003
      endloop
   endfacet
   facet normal -6.731398e-016 -1.000000e+000 6.019490e-016
      outer loop
         vertex 2.095913e+003 1.391417e+003 2.274918e+003
         vertex 2.096320e+003 1.391417e+003 2.274511e+003
         vertex 2.170492e+003 1.391417e+003 2.272390e+003
      endloop
   endfacet
   facet normal -6.731398e-016 -1.000000e+000 6.019490e-016
      outer loop
         vertex 2.170492e+003 1.391417e+003 2.272390e+003
         vertex 2.096320e+003 1.391417e+003 2.274511e+003
         vertex 2.096650e+003 1.391417e+003 2.274040e+003
      endloop
   endfacet
   facet normal -6.731398e-016 -1.000000e+000 6.019490e-016
      outer loop
         vertex 2.170492e+003 1.391417e+003 2.272390e+003
         vertex 2.096650e+003 1.391417e+003 2.274040e+003
         vertex 2.096893e+003 1.391417e+003 2.273519e+003
      endloop
   endfacet
   facet normal -6.731398e-016 -1.000000e+000 6.019490e-016
      outer loop
         vertex 2.091671e+003 1.391417e+003 2.269862e+003
         vertex 2.091264e+003 1.391417e+003 2.270269e+003
         vertex 2.083792e+003 1.391417e+003 2.252390e+003
      endloop
   endfacet
   facet normal -6.731398e-016 -1.000000e+000 6.019490e-016
      outer loop
         vertex 2.083792e+003 1.391417e+003 2.252390e+003
         vertex 2.091264e+003 1.391417e+003 2.270269e+003
         vertex 2.090934e+003 1.391417e+003 2.270740e+003
      endloop
   endfacet
   facet normal -6.731398e-016 -1.000000e+000 6.019490e-016
      outer loop
         vertex 2.083792e+003 1.391417e+003 2.252390e+003
         vertex 2.090934e+003 1.391417e+003 2.270740e+003
         vertex 2.090691e+003 1.391417e+003 2.271261e+003
      endloop
   endfacet
   facet normal -6.731398e-016 -1.000000e+000 6.019490e-016
      outer loop
         vertex 2.090691e+003 1.391417e+003 2.271261e+003
         vertex 2.090542e+003 1.391417e+003 2.271817e+003
         vertex 2.083792e+003 1.391417e+003 2.252390e+003
      endloop
   endfacet
   facet normal -6.731398e-016 -1.000000e+000 6.019490e-016
      outer loop
         vertex 2.083792e+003 1.391417e+003 2.252390e+003
         vertex 2.090542e+003 1.391417e+003 2.271817e+003
         vertex 2.090492e+003 1.391417e+003 2.272390e+003
      endloop
   endfacet
   facet normal -6.731398e-016 -1.000000e+000 6.019490e-016
      outer loop
         vertex 2.083792e+003 1.391417e+003 2.252390e+003
         vertex 2.090492e+003 1.391417e+003 2.272390e+003
         vertex 2.083792e+003 1.391417e+003 2.292390e+003
      endloop
   endfacet
   facet normal -6.731398e-016 -1.000000e+000 6.019490e-016
      outer loop
         vertex 2.083792e+003 1.391417e+003 2.292390e+003
         vertex 2.090492e+003 1.391417e+003 2.272390e+003
         vertex 2.090542e+003 1.391417e+003 2.272963e+003
      endloop
   endfacet
   facet normal -6.731398e-016 -1.000000e+000 6.019490e-016
      outer loop
         vertex 2.083792e+003 1.391417e+003 2.292390e+003
         vertex 2.090542e+003 1.391417e+003 2.272963e+003
         vertex 2.090691e+003 1.391417e+003 2.273519e+003
      endloop
   endfacet
   facet normal -6.731398e-016 -1.000000e+000 6.019490e-016
      outer loop
         vertex 2.094365e+003 1.391417e+003 2.269140e+003
         vertex 2.093792e+003 1.391417e+003 2.269090e+003
         vertex 2.083792e+003 1.391417e+003 2.252390e+003
      endloop
   endfacet
   facet normal -6.731398e-016 -1.000000e+000 6.019490e-016
      outer loop
         vertex 2.083792e+003 1.391417e+003 2.252390e+003
         vertex 2.093792e+003 1.391417e+003 2.269090e+003
         vertex 2.093219e+003 1.391417e+003 2.269140e+003
      endloop
   endfacet
   facet normal -6.731398e-016 -1.000000e+000 6.019490e-016
      outer loop
         vertex 2.093219e+003 1.391417e+003 2.269140e+003
         vertex 2.092664e+003 1.391417e+003 2.269289e+003
         vertex 2.083792e+003 1.391417e+003 2.252390e+003
      endloop
   endfacet
   facet normal -6.731398e-016 -1.000000e+000 6.019490e-016
      outer loop
         vertex 2.083792e+003 1.391417e+003 2.252390e+003
         vertex 2.092664e+003 1.391417e+003 2.269289e+003
         vertex 2.092142e+003 1.391417e+003 2.269532e+003
      endloop
   endfacet
   facet normal -6.731398e-016 -1.000000e+000 6.019490e-016
      outer loop
         vertex 2.083792e+003 1.391417e+003 2.252390e+003
         vertex 2.092142e+003 1.391417e+003 2.269532e+003
         vertex 2.091671e+003 1.391417e+003 2.269862e+003
      endloop
   endfacet
   facet normal -6.731398e-016 -1.000000e+000 6.019490e-016
      outer loop
         vertex 2.096893e+003 1.391417e+003 2.271261e+003
         vertex 2.096650e+003 1.391417e+003 2.270740e+003
         vertex 2.170542e+003 1.391417e+003 2.271817e+003
      endloop
   endfacet
   facet normal -6.731398e-016 -1.000000e+000 6.019490e-016
      outer loop
         vertex 2.170542e+003 1.391417e+003 2.271817e+003
         vertex 2.096650e+003 1.391417e+003 2.270740e+003
         vertex 2.096320e+003 1.391417e+003 2.270269e+003
      endloop
   endfacet
   facet normal -6.731398e-016 -1.000000e+000 6.019490e-016
      outer loop
         vertex 2.096320e+003 1.391417e+003 2.270269e+003
         vertex 2.095913e+003 1.391417e+003 2.269862e+003
         vertex 2.170542e+003 1.391417e+003 2.271817e+003
      endloop
   endfacet
   facet normal -6.731398e-016 -1.000000e+000 6.019490e-016
      outer loop
         vertex 2.170542e+003 1.391417e+003 2.271817e+003
         vertex 2.095913e+003 1.391417e+003 2.269862e+003
         vertex 2.095442e+003 1.391417e+003 2.269532e+003
      endloop
   endfacet
   facet normal -6.731398e-016 -1.000000e+000 6.019490e-016
      outer loop
         vertex 2.170542e+003 1.391417e+003 2.271817e+003
         vertex 2.095442e+003 1.391417e+003 2.269532e+003
         vertex 2.083792e+003 1.391417e+003 2.252390e+003
      endloop
   endfacet
   facet normal -6.731398e-016 -1.000000e+000 6.019490e-016
      outer loop
         vertex 2.083792e+003 1.391417e+003 2.252390e+003
         vertex 2.095442e+003 1.391417e+003 2.269532e+003
         vertex 2.094921e+003 1.391417e+003 2.269289e+003
      endloop
   endfacet
   facet normal -6.731398e-016 -1.000000e+000 6.019490e-016
      outer loop
         vertex 2.083792e+003 1.391417e+003 2.252390e+003
         vertex 2.094921e+003 1.391417e+003 2.269289e+003
         vertex 2.094365e+003 1.391417e+003 2.269140e+003
      endloop
   endfacet
   facet normal -6.731398e-016 -1.000000e+000 6.019490e-016
      outer loop
         vertex 2.096893e+003 1.391417e+003 2.273519e+003
         vertex 2.097042e+003 1.391417e+003 2.272963e+003
         vertex 2.170492e+003 1.391417e+003 2.272390e+003
      endloop
   endfacet
   facet normal -6.731398e-016 -1.000000e+000 6.019490e-016
      outer loop
         vertex 2.170492e+003 1.391417e+003 2.272390e+003
         vertex 2.097042e+003 1.391417e+003 2.272963e+003
         vertex 2.097092e+003 1.391417e+003 2.272390e+003
      endloop
   endfacet
   facet normal -6.731398e-016 -1.000000e+000 6.019490e-016
      outer loop
         vertex 2.170492e+003 1.391417e+003 2.272390e+003
         vertex 2.097092e+003 1.391417e+003 2.272390e+003
         vertex 2.170542e+003 1.391417e+003 2.271817e+003
      endloop
   endfacet
   facet normal -6.731398e-016 -1.000000e+000 6.019490e-016
      outer loop
         vertex 2.170542e+003 1.391417e+003 2.271817e+003
         vertex 2.097092e+003 1.391417e+003 2.272390e+003
         vertex 2.097042e+003 1.391417e+003 2.271817e+003
      endloop
   endfacet
   facet normal -6.731398e-016 -1.000000e+000 6.019490e-016
      outer loop
         vertex 2.170542e+003 1.391417e+003 2.271817e+003
         vertex 2.097042e+003 1.391417e+003 2.271817e+003
         vertex 2.096893e+003 1.391417e+003 2.271261e+003
      endloop
   endfacet
   facet normal -9.983120e-001 7.493110e-016 -5.807914e-002
      outer loop
         vertex 2.097042e+003 1.391417e+003 2.272963e+003
         vertex 2.097092e+003 1.395417e+003 2.272390e+003
         vertex 2.097092e+003 1.391417e+003 2.272390e+003
      endloop
   endfacet
   facet normal -9.983120e-001 8.363171e-016 5.807914e-002
      outer loop
         vertex 2.097092e+003 1.391417e+003 2.272390e+003
         vertex 2.097092e+003 1.395417e+003 2.272390e+003
         vertex 2.097042e+003 1.395417e+003 2.271817e+003
      endloop
   endfacet
   facet normal -9.932307e-001 8.757848e-016 1.161583e-001
      outer loop
         vertex 2.097092e+003 1.391417e+003 2.272390e+003
         vertex 2.097042e+003 1.395417e+003 2.271817e+003
         vertex 2.097042e+003 1.391417e+003 2.271817e+003
      endloop
   endfacet
   facet normal -9.730601e-001 9.454504e-016 2.305518e-001
      outer loop
         vertex 2.097042e+003 1.391417e+003 2.271817e+003
         vertex 2.097042e+003 1.395417e+003 2.271817e+003
         vertex 2.096893e+003 1.395417e+003 2.271261e+003
      endloop
   endfacet
   facet normal -9.579706e-001 9.756483e-016 2.868663e-001
      outer loop
         vertex 2.097042e+003 1.391417e+003 2.271817e+003
         vertex 2.096893e+003 1.395417e+003 2.271261e+003
         vertex 2.096893e+003 1.391417e+003 2.271261e+003
      endloop
   endfacet
   facet normal -9.182422e-001 1.025857e-015 3.960194e-001
      outer loop
         vertex 2.096893e+003 1.391417e+003 2.271261e+003
         vertex 2.096893e+003 1.395417e+003 2.271261e+003
         vertex 2.096650e+003 1.395417e+003 2.270740e+003
      endloop
   endfacet
   facet normal -8.936031e-001 1.045867e-015 4.488580e-001
      outer loop
         vertex 2.096893e+003 1.391417e+003 2.271261e+003
         vertex 2.096650e+003 1.395417e+003 2.270740e+003
         vertex 2.096650e+003 1.391417e+003 2.270740e+003
      endloop
   endfacet
   facet normal -8.355240e-001 1.075093e-015 5.494540e-001
      outer loop
         vertex 2.096650e+003 1.391417e+003 2.270740e+003
         vertex 2.096650e+003 1.395417e+003 2.270740e+003
         vertex 2.096320e+003 1.395417e+003 2.270269e+003
      endloop
   endfacet
   facet normal -8.020839e-001 1.084308e-015 5.972114e-001
      outer loop
         vertex 2.096650e+003 1.391417e+003 2.270740e+003
         vertex 2.096320e+003 1.395417e+003 2.270269e+003
         vertex 2.096320e+003 1.391417e+003 2.270269e+003
      endloop
   endfacet
   facet normal -7.274188e-001 1.091663e-015 6.861938e-001
      outer loop
         vertex 2.096320e+003 1.391417e+003 2.270269e+003
         vertex 2.096320e+003 1.395417e+003 2.270269e+003
         vertex 2.095913e+003 1.395417e+003 2.269862e+003
      endloop
   endfacet
   facet normal -6.861938e-001 1.089803e-015 7.274188e-001
      outer loop
         vertex 2.096320e+003 1.391417e+003 2.270269e+003
         vertex 2.095913e+003 1.395417e+003 2.269862e+003
         vertex 2.095913e+003 1.391417e+003 2.269862e+003
      endloop
   endfacet
   facet normal -5.972114e-001 1.075063e-015 8.020839e-001
      outer loop
         vertex 2.095913e+003 1.391417e+003 2.269862e+003
         vertex 2.095913e+003 1.395417e+003 2.269862e+003
         vertex 2.095442e+003 1.395417e+003 2.269532e+003
      endloop
   endfacet
   facet normal -5.494540e-001 1.062184e-015 8.355240e-001
      outer loop
         vertex 2.095913e+003 1.391417e+003 2.269862e+003
         vertex 2.095442e+003 1.395417e+003 2.269532e+003
         vertex 2.095442e+003 1.391417e+003 2.269532e+003
      endloop
   endfacet
   facet normal -4.488580e-001 1.025799e-015 8.936031e-001
      outer loop
         vertex 2.095442e+003 1.391417e+003 2.269532e+003
         vertex 2.095442e+003 1.395417e+003 2.269532e+003
         vertex 2.094921e+003 1.395417e+003 2.269289e+003
      endloop
   endfacet
   facet normal -3.960194e-001 1.002292e-015 9.182422e-001
      outer loop
         vertex 2.095442e+003 1.391417e+003 2.269532e+003
         vertex 2.094921e+003 1.395417e+003 2.269289e+003
         vertex 2.094921e+003 1.391417e+003 2.269289e+003
      endloop
   endfacet
   facet normal -2.868663e-001 9.453654e-016 9.579706e-001
      outer loop
         vertex 2.094921e+003 1.391417e+003 2.269289e+003
         vertex 2.094921e+003 1.395417e+003 2.269289e+003
         vertex 2.094365e+003 1.395417e+003 2.269140e+003
      endloop
   endfacet
   facet normal -2.305518e-001 9.119454e-016 9.730601e-001
      outer loop
         vertex 2.094921e+003 1.391417e+003 2.269289e+003
         vertex 2.094365e+003 1.395417e+003 2.269140e+003
         vertex 2.094365e+003 1.391417e+003 2.269140e+003
      endloop
   endfacet
   facet normal -1.161583e-001 8.362078e-016 9.932307e-001
      outer loop
         vertex 2.094365e+003 1.391417e+003 2.269140e+003
         vertex 2.094365e+003 1.395417e+003 2.269140e+003
         vertex 2.093792e+003 1.395417e+003 2.269090e+003
      endloop
   endfacet
   facet normal -5.807914e-002 7.938899e-016 9.983120e-001
      outer loop
         vertex 2.094365e+003 1.391417e+003 2.269140e+003
         vertex 2.093792e+003 1.395417e+003 2.269090e+003
         vertex 2.093792e+003 1.391417e+003 2.269090e+003
      endloop
   endfacet
   facet normal 5.807914e-002 7.016423e-016 9.983120e-001
      outer loop
         vertex 2.093792e+003 1.391417e+003 2.269090e+003
         vertex 2.093792e+003 1.395417e+003 2.269090e+003
         vertex 2.093219e+003 1.395417e+003 2.269140e+003
      endloop
   endfacet
   facet normal 1.161583e-001 6.517125e-016 9.932307e-001
      outer loop
         vertex 2.093792e+003 1.391417e+003 2.269090e+003
         vertex 2.093219e+003 1.395417e+003 2.269140e+003
         vertex 2.093219e+003 1.391417e+003 2.269140e+003
      endloop
   endfacet
   facet normal 2.305518e-001 5.457579e-016 9.730601e-001
      outer loop
         vertex 2.093219e+003 1.391417e+003 2.269140e+003
         vertex 2.093219e+003 1.395417e+003 2.269140e+003
         vertex 2.092664e+003 1.395417e+003 2.269289e+003
      endloop
   endfacet
   facet normal 2.868663e-001 4.897331e-016 9.579706e-001
      outer loop
         vertex 2.093219e+003 1.391417e+003 2.269140e+003
         vertex 2.092664e+003 1.395417e+003 2.269289e+003
         vertex 2.092664e+003 1.391417e+003 2.269289e+003
      endloop
   endfacet
   facet normal 3.960194e-001 3.732908e-016 9.182422e-001
      outer loop
         vertex 2.092664e+003 1.391417e+003 2.269289e+003
         vertex 2.092664e+003 1.395417e+003 2.269289e+003
         vertex 2.092142e+003 1.395417e+003 2.269532e+003
      endloop
   endfacet
   facet normal 4.488580e-001 3.128734e-016 8.936031e-001
      outer loop
         vertex 2.092664e+003 1.391417e+003 2.269289e+003
         vertex 2.092142e+003 1.395417e+003 2.269532e+003
         vertex 2.092142e+003 1.391417e+003 2.269532e+003
      endloop
   endfacet
   facet normal 5.494540e-001 1.894816e-016 8.355240e-001
      outer loop
         vertex 2.092142e+003 1.391417e+003 2.269532e+003
         vertex 2.092142e+003 1.395417e+003 2.269532e+003
         vertex 2.091671e+003 1.395417e+003 2.269862e+003
      endloop
   endfacet
   facet normal 5.972114e-001 1.265072e-016 8.020839e-001
      outer loop
         vertex 2.092142e+003 1.391417e+003 2.269532e+003
         vertex 2.091671e+003 1.395417e+003 2.269862e+003
         vertex 2.091671e+003 1.391417e+003 2.269862e+003
      endloop
   endfacet
   facet normal 6.861938e-001 -8.504018e-020 7.274188e-001
      outer loop
         vertex 2.091671e+003 1.391417e+003 2.269862e+003
         vertex 2.091671e+003 1.395417e+003 2.269862e+003
         vertex 2.091264e+003 1.395417e+003 2.270269e+003
      endloop
   endfacet
   facet normal 7.274188e-001 -6.370287e-017 6.861938e-001
      outer loop
         vertex 2.091671e+003 1.391417e+003 2.269862e+003
         vertex 2.091264e+003 1.395417e+003 2.270269e+003
         vertex 2.091264e+003 1.391417e+003 2.270269e+003
      endloop
   endfacet
   facet normal 8.020839e-001 -1.896490e-016 5.972114e-001
      outer loop
         vertex 2.091264e+003 1.391417e+003 2.270269e+003
         vertex 2.091264e+003 1.395417e+003 2.270269e+003
         vertex 2.090934e+003 1.395417e+003 2.270740e+003
      endloop
   endfacet
   facet normal 8.355240e-001 -2.519774e-016 5.494540e-001
      outer loop
         vertex 2.091264e+003 1.391417e+003 2.270269e+003
         vertex 2.090934e+003 1.395417e+003 2.270740e+003
         vertex 2.090934e+003 1.391417e+003 2.270740e+003
      endloop
   endfacet
   facet normal 8.936031e-001 -3.734506e-016 4.488580e-001
      outer loop
         vertex 2.090934e+003 1.391417e+003 2.270740e+003
         vertex 2.090934e+003 1.395417e+003 2.270740e+003
         vertex 2.090691e+003 1.395417e+003 2.271261e+003
      endloop
   endfacet
   facet normal 9.182422e-001 -4.325956e-016 3.960194e-001
      outer loop
         vertex 2.090934e+003 1.391417e+003 2.270740e+003
         vertex 2.090691e+003 1.395417e+003 2.271261e+003
         vertex 2.090691e+003 1.391417e+003 2.271261e+003
      endloop
   endfacet
   facet normal 9.579706e-001 -5.459052e-016 2.868663e-001
      outer loop
         vertex 2.090691e+003 1.391417e+003 2.271261e+003
         vertex 2.090691e+003 1.395417e+003 2.271261e+003
         vertex 2.090542e+003 1.395417e+003 2.271817e+003
      endloop
   endfacet
   facet normal 9.730601e-001 -6.000697e-016 2.305518e-001
      outer loop
         vertex 2.090691e+003 1.391417e+003 2.271261e+003
         vertex 2.090542e+003 1.395417e+003 2.271817e+003
         vertex 2.090542e+003 1.391417e+003 2.271817e+003
      endloop
   endfacet
   facet normal 9.932307e-001 -7.017726e-016 1.161583e-001
      outer loop
         vertex 2.090542e+003 1.391417e+003 2.271817e+003
         vertex 2.090542e+003 1.395417e+003 2.271817e+003
         vertex 2.090492e+003 1.395417e+003 2.272390e+003
      endloop
   endfacet
   facet normal 9.983120e-001 -7.493110e-016 5.807914e-002
      outer loop
         vertex 2.090542e+003 1.391417e+003 2.271817e+003
         vertex 2.090492e+003 1.395417e+003 2.272390e+003
         vertex 2.090492e+003 1.391417e+003 2.272390e+003
      endloop
   endfacet
   facet normal 9.983120e-001 -8.363171e-016 -5.807914e-002
      outer loop
         vertex 2.090492e+003 1.391417e+003 2.272390e+003
         vertex 2.090492e+003 1.395417e+003 2.272390e+003
         vertex 2.090542e+003 1.395417e+003 2.272963e+003
      endloop
   endfacet
   facet normal 9.932307e-001 -8.757848e-016 -1.161583e-001
      outer loop
         vertex 2.090492e+003 1.391417e+003 2.272390e+003
         vertex 2.090542e+003 1.395417e+003 2.272963e+003
         vertex 2.090542e+003 1.391417e+003 2.272963e+003
      endloop
   endfacet
   facet normal 9.730601e-001 -9.454504e-016 -2.305518e-001
      outer loop
         vertex 2.090542e+003 1.391417e+003 2.272963e+003
         vertex 2.090542e+003 1.395417e+003 2.272963e+003
         vertex 2.090691e+003 1.395417e+003 2.273519e+003
      endloop
   endfacet
   facet normal 9.579706e-001 -9.756483e-016 -2.868663e-001
      outer loop
         vertex 2.090542e+003 1.391417e+003 2.272963e+003
         vertex 2.090691e+003 1.395417e+003 2.273519e+003
         vertex 2.090691e+003 1.391417e+003 2.273519e+003
      endloop
   endfacet
   facet normal 9.182422e-001 -1.025857e-015 -3.960194e-001
      outer loop
         vertex 2.090691e+003 1.391417e+003 2.273519e+003
         vertex 2.090691e+003 1.395417e+003 2.273519e+003
         vertex 2.090934e+003 1.395417e+003 2.274040e+003
      endloop
   endfacet
   facet normal 8.936031e-001 -1.045867e-015 -4.488580e-001
      outer loop
         vertex 2.090691e+003 1.391417e+003 2.273519e+003
         vertex 2.090934e+003 1.395417e+003 2.274040e+003
         vertex 2.090934e+003 1.391417e+003 2.274040e+003
      endloop
   endfacet
   facet normal 8.355240e-001 -1.075093e-015 -5.494540e-001
      outer loop
         vertex 2.090934e+003 1.391417e+003 2.274040e+003
         vertex 2.090934e+003 1.395417e+003 2.274040e+003
         vertex 2.091264e+003 1.395417e+003 2.274511e+003
      endloop
   endfacet
   facet normal 8.020839e-001 -1.084308e-015 -5.972114e-001
      outer loop
         vertex 2.090934e+003 1.391417e+003 2.274040e+003
         vertex 2.091264e+003 1.395417e+003 2.274511e+003
         vertex 2.091264e+003 1.391417e+003 2.274511e+003
      endloop
   endfacet
   facet normal 7.274188e-001 -1.091663e-015 -6.861938e-001
      outer loop
         vertex 2.091264e+003 1.391417e+003 2.274511e+003
         vertex 2.091264e+003 1.395417e+003 2.274511e+003
         vertex 2.091671e+003 1.395417e+003 2.274918e+003
      endloop
   endfacet
   facet normal 6.861938e-001 -1.089803e-015 -7.274188e-001
      outer loop
         vertex 2.091264e+003 1.391417e+003 2.274511e+003
         vertex 2.091671e+003 1.395417e+003 2.274918e+003
         vertex 2.091671e+003 1.391417e+003 2.274918e+003
      endloop
   endfacet
   facet normal 5.972114e-001 -1.075063e-015 -8.020839e-001
      outer loop
         vertex 2.091671e+003 1.391417e+003 2.274918e+003
         vertex 2.091671e+003 1.395417e+003 2.274918e+003
         vertex 2.092142e+003 1.395417e+003 2.275248e+003
      endloop
   endfacet
   facet normal 5.494540e-001 -1.062184e-015 -8.355240e-001
      outer loop
         vertex 2.091671e+003 1.391417e+003 2.274918e+003
         vertex 2.092142e+003 1.395417e+003 2.275248e+003
         vertex 2.092142e+003 1.391417e+003 2.275248e+003
      endloop
   endfacet
   facet normal 4.488580e-001 -1.025799e-015 -8.936031e-001
      outer loop
         vertex 2.092142e+003 1.391417e+003 2.275248e+003
         vertex 2.092142e+003 1.395417e+003 2.275248e+003
         vertex 2.092664e+003 1.395417e+003 2.275491e+003
      endloop
   endfacet
   facet normal 3.960194e-001 -1.002292e-015 -9.182422e-001
      outer loop
         vertex 2.092142e+003 1.391417e+003 2.275248e+003
         vertex 2.092664e+003 1.395417e+003 2.275491e+003
         vertex 2.092664e+003 1.391417e+003 2.275491e+003
      endloop
   endfacet
   facet normal 2.868663e-001 -9.453654e-016 -9.579706e-001
      outer loop
         vertex 2.092664e+003 1.391417e+003 2.275491e+003
         vertex 2.092664e+003 1.395417e+003 2.275491e+003
         vertex 2.093219e+003 1.395417e+003 2.275640e+003
      endloop
   endfacet
   facet normal 2.305518e-001 -9.119454e-016 -9.730601e-001
      outer loop
         vertex 2.092664e+003 1.391417e+003 2.275491e+003
         vertex 2.093219e+003 1.395417e+003 2.275640e+003
         vertex 2.093219e+003 1.391417e+003 2.275640e+003
      endloop
   endfacet
   facet normal 1.161583e-001 -8.362078e-016 -9.932307e-001
      outer loop
         vertex 2.093219e+003 1.391417e+003 2.275640e+003
         vertex 2.093219e+003 1.395417e+003 2.275640e+003
         vertex 2.093792e+003 1.395417e+003 2.275690e+003
      endloop
   endfacet
   facet normal 5.807914e-002 -7.938899e-016 -9.983120e-001
      outer loop
         vertex 2.093219e+003 1.391417e+003 2.275640e+003
         vertex 2.093792e+003 1.395417e+003 2.275690e+003
         vertex 2.093792e+003 1.391417e+003 2.275690e+003
      endloop
   endfacet
   facet normal -5.807914e-002 -7.016423e-016 -9.983120e-001
      outer loop
         vertex 2.093792e+003 1.391417e+003 2.275690e+003
         vertex 2.093792e+003 1.395417e+003 2.275690e+003
         vertex 2.094365e+003 1.395417e+003 2.275640e+003
      endloop
   endfacet
   facet normal -1.161583e-001 -6.517125e-016 -9.932307e-001
      outer loop
         vertex 2.093792e+003 1.391417e+003 2.275690e+003
         vertex 2.094365e+003 1.395417e+003 2.275640e+003
         vertex 2.094365e+003 1.391417e+003 2.275640e+003
      endloop
   endfacet
   facet normal -2.305518e-001 -5.457579e-016 -9.730601e-001
      outer loop
         vertex 2.094365e+003 1.391417e+003 2.275640e+003
         vertex 2.094365e+003 1.395417e+003 2.275640e+003
         vertex 2.094921e+003 1.395417e+003 2.275491e+003
      endloop
   endfacet
   facet normal -2.868663e-001 -4.897331e-016 -9.579706e-001
      outer loop
         vertex 2.094365e+003 1.391417e+003 2.275640e+003
         vertex 2.094921e+003 1.395417e+003 2.275491e+003
         vertex 2.094921e+003 1.391417e+003 2.275491e+003
      endloop
   endfacet
   facet normal -3.960194e-001 -3.732908e-016 -9.182422e-001
      outer loop
         vertex 2.094921e+003 1.391417e+003 2.275491e+003
         vertex 2.094921e+003 1.395417e+003 2.275491e+003
         vertex 2.095442e+003 1.395417e+003 2.275248e+003
      endloop
   endfacet
   facet normal -4.488580e-001 -3.128734e-016 -8.936031e-001
      outer loop
         vertex 2.094921e+003 1.391417e+003 2.275491e+003
         vertex 2.095442e+003 1.395417e+003 2.275248e+003
         vertex 2.095442e+003 1.391417e+003 2.275248e+003
      endloop
   endfacet
   facet normal -5.494540e-001 -1.894816e-016 -8.355240e-001
      outer loop
         vertex 2.095442e+003 1.391417e+003 2.275248e+003
         vertex 2.095442e+003 1.395417e+003 2.275248e+003
         vertex 2.095913e+003 1.395417e+003 2.274918e+003
      endloop
   endfacet
   facet normal -5.972114e-001 -1.265072e-016 -8.020839e-001
      outer loop
         vertex 2.095442e+003 1.391417e+003 2.275248e+003
         vertex 2.095913e+003 1.395417e+003 2.274918e+003
         vertex 2.095913e+003 1.391417e+003 2.274918e+003
      endloop
   endfacet
   facet normal -6.861938e-001 8.504018e-020 -7.274188e-001
      outer loop
         vertex 2.095913e+003 1.391417e+003 2.274918e+003
         vertex 2.095913e+003 1.395417e+003 2.274918e+003
         vertex 2.096320e+003 1.395417e+003 2.274511e+003
      endloop
   endfacet
   facet normal -7.274188e-001 6.370287e-017 -6.861938e-001
      outer loop
         vertex 2.095913e+003 1.391417e+003 2.274918e+003
         vertex 2.096320e+003 1.395417e+003 2.274511e+003
         vertex 2.096320e+003 1.391417e+003 2.274511e+003
      endloop
   endfacet
   facet normal -8.020839e-001 1.896490e-016 -5.972114e-001
      outer loop
         vertex 2.096320e+003 1.391417e+003 2.274511e+003
         vertex 2.096320e+003 1.395417e+003 2.274511e+003
         vertex 2.096650e+003 1.395417e+003 2.274040e+003
      endloop
   endfacet
   facet normal -8.355240e-001 2.519774e-016 -5.494540e-001
      outer loop
         vertex 2.096320e+003 1.391417e+003 2.274511e+003
         vertex 2.096650e+003 1.395417e+003 2.274040e+003
         vertex 2.096650e+003 1.391417e+003 2.274040e+003
      endloop
   endfacet
   facet normal -8.936031e-001 3.734506e-016 -4.488580e-001
      outer loop
         vertex 2.096650e+003 1.391417e+003 2.274040e+003
         vertex 2.096650e+003 1.395417e+003 2.274040e+003
         vertex 2.096893e+003 1.395417e+003 2.273519e+003
      endloop
   endfacet
   facet normal -9.182422e-001 4.325956e-016 -3.960194e-001
      outer loop
         vertex 2.096650e+003 1.391417e+003 2.274040e+003
         vertex 2.096893e+003 1.395417e+003 2.273519e+003
         vertex 2.096893e+003 1.391417e+003 2.273519e+003
      endloop
   endfacet
   facet normal -9.579706e-001 5.459052e-016 -2.868663e-001
      outer loop
         vertex 2.096893e+003 1.391417e+003 2.273519e+003
         vertex 2.096893e+003 1.395417e+003 2.273519e+003
         vertex 2.097042e+003 1.395417e+003 2.272963e+003
      endloop
   endfacet
   facet normal -9.730601e-001 6.000697e-016 -2.305518e-001
      outer loop
         vertex 2.096893e+003 1.391417e+003 2.273519e+003
         vertex 2.097042e+003 1.395417e+003 2.272963e+003
         vertex 2.097042e+003 1.391417e+003 2.272963e+003
      endloop
   endfacet
   facet normal -9.932307e-001 7.017726e-016 -1.161583e-001
      outer loop
         vertex 2.097042e+003 1.391417e+003 2.272963e+003
         vertex 2.097042e+003 1.395417e+003 2.272963e+003
         vertex 2.097092e+003 1.395417e+003 2.272390e+003
      endloop
   endfacet
   facet normal -9.983120e-001 7.493110e-016 -5.807914e-002
      outer loop
         vertex 2.177042e+003 1.391417e+003 2.272963e+003
         vertex 2.177092e+003 1.395417e+003 2.272390e+003
         vertex 2.177092e+003 1.391417e+003 2.272390e+003
      endloop
   endfacet
   facet normal -9.983120e-001 8.363171e-016 5.807914e-002
      outer loop
         vertex 2.177092e+003 1.391417e+003 2.272390e+003
         vertex 2.177092e+003 1.395417e+003 2.272390e+003
         vertex 2.177042e+003 1.395417e+003 2.271817e+003
      endloop
   endfacet
   facet normal -9.932307e-001 8.757848e-016 1.161583e-001
      outer loop
         vertex 2.177092e+003 1.391417e+003 2.272390e+003
         vertex 2.177042e+003 1.395417e+003 2.271817e+003
         vertex 2.177042e+003 1.391417e+003 2.271817e+003
      endloop
   endfacet
   facet normal -9.730601e-001 9.454504e-016 2.305518e-001
      outer loop
         vertex 2.177042e+003 1.391417e+003 2.271817e+003
         vertex 2.177042e+003 1.395417e+003 2.271817e+003
         vertex 2.176893e+003 1.395417e+003 2.271261e+003
      endloop
   endfacet
   facet normal -9.579706e-001 9.756483e-016 2.868663e-001
      outer loop
         vertex 2.177042e+003 1.391417e+003 2.271817e+003
         vertex 2.176893e+003 1.395417e+003 2.271261e+003
         vertex 2.176893e+003 1.391417e+003 2.271261e+003
      endloop
   endfacet
   facet normal -9.182422e-001 1.025857e-015 3.960194e-001
      outer loop
         vertex 2.176893e+003 1.391417e+003 2.271261e+003
         vertex 2.176893e+003 1.395417e+003 2.271261e+003
         vertex 2.176650e+003 1.395417e+003 2.270740e+003
      endloop
   endfacet
   facet normal -8.936031e-001 1.045867e-015 4.488580e-001
      outer loop
         vertex 2.176893e+003 1.391417e+003 2.271261e+003
         vertex 2.176650e+003 1.395417e+003 2.270740e+003
         vertex 2.176650e+003 1.391417e+003 2.270740e+003
      endloop
   endfacet
   facet normal -8.355240e-001 1.075093e-015 5.494540e-001
      outer loop
         vertex 2.176650e+003 1.391417e+003 2.270740e+003
         vertex 2.176650e+003 1.395417e+003 2.270740e+003
         vertex 2.176320e+003 1.395417e+003 2.270269e+003
      endloop
   endfacet
   facet normal -8.020839e-001 1.084308e-015 5.972114e-001
      outer loop
         vertex 2.176650e+003 1.391417e+003 2.270740e+003
         vertex 2.176320e+003 1.395417e+003 2.270269e+003
         vertex 2.176320e+003 1.391417e+003 2.270269e+003
      endloop
   endfacet
   facet normal -7.274188e-001 1.091663e-015 6.861938e-001
      outer loop
         vertex 2.176320e+003 1.391417e+003 2.270269e+003
         vertex 2.176320e+003 1.395417e+003 2.270269e+003
         vertex 2.175913e+003 1.395417e+003 2.269862e+003
      endloop
   endfacet
   facet normal -6.861938e-001 1.089803e-015 7.274188e-001
      outer loop
         vertex 2.176320e+003 1.391417e+003 2.270269e+003
         vertex 2.175913e+003 1.395417e+003 2.269862e+003
         vertex 2.175913e+003 1.391417e+003 2.269862e+003
      endloop
   endfacet
   facet normal -5.972114e-001 1.075063e-015 8.020839e-001
      outer loop
         vertex 2.175913e+003 1.391417e+003 2.269862e+003
         vertex 2.175913e+003 1.395417e+003 2.269862e+003
         vertex 2.175442e+003 1.395417e+003 2.269532e+003
      endloop
   endfacet
   facet normal -5.494540e-001 1.062184e-015 8.355240e-001
      outer loop
         vertex 2.175913e+003 1.391417e+003 2.269862e+003
         vertex 2.175442e+003 1.395417e+003 2.269532e+003
         vertex 2.175442e+003 1.391417e+003 2.269532e+003
      endloop
   endfacet
   facet normal -4.488580e-001 1.025799e-015 8.936031e-001
      outer loop
         vertex 2.175442e+003 1.391417e+003 2.269532e+003
         vertex 2.175442e+003 1.395417e+003 2.269532e+003
         vertex 2.174921e+003 1.395417e+003 2.269289e+003
      endloop
   endfacet
   facet normal -3.960194e-001 1.002292e-015 9.182422e-001
      outer loop
         vertex 2.175442e+003 1.391417e+003 2.269532e+003
         vertex 2.174921e+003 1.395417e+003 2.269289e+003
         vertex 2.174921e+003 1.391417e+003 2.269289e+003
      endloop
   endfacet
   facet normal -2.868663e-001 9.453654e-016 9.579706e-001
      outer loop
         vertex 2.174921e+003 1.391417e+003 2.269289e+003
         vertex 2.174921e+003 1.395417e+003 2.269289e+003
         vertex 2.174365e+003 1.395417e+003 2.269140e+003
      endloop
   endfacet
   facet normal -2.305518e-001 9.119454e-016 9.730601e-001
      outer loop
         vertex 2.174921e+003 1.391417e+003 2.269289e+003
         vertex 2.174365e+003 1.395417e+003 2.269140e+003
         vertex 2.174365e+003 1.391417e+003 2.269140e+003
      endloop
   endfacet
   facet normal -1.161583e-001 8.362078e-016 9.932307e-001
      outer loop
         vertex 2.174365e+003 1.391417e+003 2.269140e+003
         vertex 2.174365e+003 1.395417e+003 2.269140e+003
         vertex 2.173792e+003 1.395417e+003 2.269090e+003
      endloop
   endfacet
   facet normal -5.807914e-002 7.938899e-016 9.983120e-001
      outer loop
         vertex 2.174365e+003 1.391417e+003 2.269140e+003
         vertex 2.173792e+003 1.395417e+003 2.269090e+003
         vertex 2.173792e+003 1.391417e+003 2.269090e+003
      endloop
   endfacet
   facet normal 5.807914e-002 7.016423e-016 9.983120e-001
      outer loop
         vertex 2.173792e+003 1.391417e+003 2.269090e+003
         vertex 2.173792e+003 1.395417e+003 2.269090e+003
         vertex 2.173219e+003 1.395417e+003 2.269140e+003
      endloop
   endfacet
   facet normal 1.161583e-001 6.517125e-016 9.932307e-001
      outer loop
         vertex 2.173792e+003 1.391417e+003 2.269090e+003
         vertex 2.173219e+003 1.395417e+003 2.269140e+003
         vertex 2.173219e+003 1.391417e+003 2.269140e+003
      endloop
   endfacet
   facet normal 2.305518e-001 5.457579e-016 9.730601e-001
      outer loop
         vertex 2.173219e+003 1.391417e+003 2.269140e+003
         vertex 2.173219e+003 1.395417e+003 2.269140e+003
         vertex 2.172663e+003 1.395417e+003 2.269289e+003
      endloop
   endfacet
   facet normal 2.868663e-001 4.897331e-016 9.579706e-001
      outer loop
         vertex 2.173219e+003 1.391417e+003 2.269140e+003
         vertex 2.172663e+003 1.395417e+003 2.269289e+003
         vertex 2.172663e+003 1.391417e+003 2.269289e+003
      endloop
   endfacet
   facet normal 3.960194e-001 3.732908e-016 9.182422e-001
      outer loop
         vertex 2.172663e+003 1.391417e+003 2.269289e+003
         vertex 2.172663e+003 1.395417e+003 2.269289e+003
         vertex 2.172142e+003 1.395417e+003 2.269532e+003
      endloop
   endfacet
   facet normal 4.488580e-001 3.128734e-016 8.936031e-001
      outer loop
         vertex 2.172663e+003 1.391417e+003 2.269289e+003
         vertex 2.172142e+003 1.395417e+003 2.269532e+003
         vertex 2.172142e+003 1.391417e+003 2.269532e+003
      endloop
   endfacet
   facet normal 5.494540e-001 1.894816e-016 8.355240e-001
      outer loop
         vertex 2.172142e+003 1.391417e+003 2.269532e+003
         vertex 2.172142e+003 1.395417e+003 2.269532e+003
         vertex 2.171671e+003 1.395417e+003 2.269862e+003
      endloop
   endfacet
   facet normal 5.972114e-001 1.265072e-016 8.020839e-001
      outer loop
         vertex 2.172142e+003 1.391417e+003 2.269532e+003
         vertex 2.171671e+003 1.395417e+003 2.269862e+003
         vertex 2.171671e+003 1.391417e+003 2.269862e+003
      endloop
   endfacet
   facet normal 6.861938e-001 -8.504018e-020 7.274188e-001
      outer loop
         vertex 2.171671e+003 1.391417e+003 2.269862e+003
         vertex 2.171671e+003 1.395417e+003 2.269862e+003
         vertex 2.171264e+003 1.395417e+003 2.270269e+003
      endloop
   endfacet
   facet normal 7.274188e-001 -6.370287e-017 6.861938e-001
      outer loop
         vertex 2.171671e+003 1.391417e+003 2.269862e+003
         vertex 2.171264e+003 1.395417e+003 2.270269e+003
         vertex 2.171264e+003 1.391417e+003 2.270269e+003
      endloop
   endfacet
   facet normal 8.020839e-001 -1.896490e-016 5.972114e-001
      outer loop
         vertex 2.171264e+003 1.391417e+003 2.270269e+003
         vertex 2.171264e+003 1.395417e+003 2.270269e+003
         vertex 2.170934e+003 1.395417e+003 2.270740e+003
      endloop
   endfacet
   facet normal 8.355240e-001 -2.519774e-016 5.494540e-001
      outer loop
         vertex 2.171264e+003 1.391417e+003 2.270269e+003
         vertex 2.170934e+003 1.395417e+003 2.270740e+003
         vertex 2.170934e+003 1.391417e+003 2.270740e+003
      endloop
   endfacet
   facet normal 8.936031e-001 -3.734506e-016 4.488580e-001
      outer loop
         vertex 2.170934e+003 1.391417e+003 2.270740e+003
         vertex 2.170934e+003 1.395417e+003 2.270740e+003
         vertex 2.170691e+003 1.395417e+003 2.271261e+003
      endloop
   endfacet
   facet normal 9.182422e-001 -4.325956e-016 3.960194e-001
      outer loop
         vertex 2.170934e+003 1.391417e+003 2.270740e+003
         vertex 2.170691e+003 1.395417e+003 2.271261e+003
         vertex 2.170691e+003 1.391417e+003 2.271261e+003
      endloop
   endfacet
   facet normal 9.579706e-001 -5.459052e-016 2.868663e-001
      outer loop
         vertex 2.170691e+003 1.391417e+003 2.271261e+003
         vertex 2.170691e+003 1.395417e+003 2.271261e+003
         vertex 2.170542e+003 1.395417e+003 2.271817e+003
      endloop
   endfacet
   facet normal 9.730601e-001 -6.000697e-016 2.305518e-001
      outer loop
         vertex 2.170691e+003 1.391417e+003 2.271261e+003
         vertex 2.170542e+003 1.395417e+003 2.271817e+003
         vertex 2.170542e+003 1.391417e+003 2.271817e+003
      endloop
   endfacet
   facet normal 9.932307e-001 -7.017726e-016 1.161583e-001
      outer loop
         vertex 2.170542e+003 1.391417e+003 2.271817e+003
         vertex 2.170542e+003 1.395417e+003 2.271817e+003
         vertex 2.170492e+003 1.395417e+003 2.272390e+003
      endloop
   endfacet
   facet normal 9.983120e-001 -7.493110e-016 5.807914e-002
      outer loop
         vertex 2.170542e+003 1.391417e+003 2.271817e+003
         vertex 2.170492e+003 1.395417e+003 2.272390e+003
         vertex 2.170492e+003 1.391417e+003 2.272390e+003
      endloop
   endfacet
   facet normal 9.983120e-001 -8.363171e-016 -5.807914e-002
      outer loop
         vertex 2.170492e+003 1.391417e+003 2.272390e+003
         vertex 2.170492e+003 1.395417e+003 2.272390e+003
         vertex 2.170542e+003 1.395417e+003 2.272963e+003
      endloop
   endfacet
   facet normal 9.932307e-001 -8.757848e-016 -1.161583e-001
      outer loop
         vertex 2.170492e+003 1.391417e+003 2.272390e+003
         vertex 2.170542e+003 1.395417e+003 2.272963e+003
         vertex 2.170542e+003 1.391417e+003 2.272963e+003
      endloop
   endfacet
   facet normal 9.730601e-001 -9.454504e-016 -2.305518e-001
      outer loop
         vertex 2.170542e+003 1.391417e+003 2.272963e+003
         vertex 2.170542e+003 1.395417e+003 2.272963e+003
         vertex 2.170691e+003 1.395417e+003 2.273519e+003
      endloop
   endfacet
   facet normal 9.579706e-001 -9.756483e-016 -2.868663e-001
      outer loop
         vertex 2.170542e+003 1.391417e+003 2.272963e+003
         vertex 2.170691e+003 1.395417e+003 2.273519e+003
         vertex 2.170691e+003 1.391417e+003 2.273519e+003
      endloop
   endfacet
   facet normal 9.182422e-001 -1.025857e-015 -3.960194e-001
      outer loop
         vertex 2.170691e+003 1.391417e+003 2.273519e+003
         vertex 2.170691e+003 1.395417e+003 2.273519e+003
         vertex 2.170934e+003 1.395417e+003 2.274040e+003
      endloop
   endfacet
   facet normal 8.936031e-001 -1.045867e-015 -4.488580e-001
      outer loop
         vertex 2.170691e+003 1.391417e+003 2.273519e+003
         vertex 2.170934e+003 1.395417e+003 2.274040e+003
         vertex 2.170934e+003 1.391417e+003 2.274040e+003
      endloop
   endfacet
   facet normal 8.355240e-001 -1.075093e-015 -5.494540e-001
      outer loop
         vertex 2.170934e+003 1.391417e+003 2.274040e+003
         vertex 2.170934e+003 1.395417e+003 2.274040e+003
         vertex 2.171264e+003 1.395417e+003 2.274511e+003
      endloop
   endfacet
   facet normal 8.020839e-001 -1.084308e-015 -5.972114e-001
      outer loop
         vertex 2.170934e+003 1.391417e+003 2.274040e+003
         vertex 2.171264e+003 1.395417e+003 2.274511e+003
         vertex 2.171264e+003 1.391417e+003 2.274511e+003
      endloop
   endfacet
   facet normal 7.274188e-001 -1.091663e-015 -6.861938e-001
      outer loop
         vertex 2.171264e+003 1.391417e+003 2.274511e+003
         vertex 2.171264e+003 1.395417e+003 2.274511e+003
         vertex 2.171671e+003 1.395417e+003 2.274918e+003
      endloop
   endfacet
   facet normal 6.861938e-001 -1.089803e-015 -7.274188e-001
      outer loop
         vertex 2.171264e+003 1.391417e+003 2.274511e+003
         vertex 2.171671e+003 1.395417e+003 2.274918e+003
         vertex 2.171671e+003 1.391417e+003 2.274918e+003
      endloop
   endfacet
   facet normal 5.972114e-001 -1.075063e-015 -8.020839e-001
      outer loop
         vertex 2.171671e+003 1.391417e+003 2.274918e+003
         vertex 2.171671e+003 1.395417e+003 2.274918e+003
         vertex 2.172142e+003 1.395417e+003 2.275248e+003
      endloop
   endfacet
   facet normal 5.494540e-001 -1.062184e-015 -8.355240e-001
      outer loop
         vertex 2.171671e+003 1.391417e+003 2.274918e+003
         vertex 2.172142e+003 1.395417e+003 2.275248e+003
         vertex 2.172142e+003 1.391417e+003 2.275248e+003
      endloop
   endfacet
   facet normal 4.488580e-001 -1.025799e-015 -8.936031e-001
      outer loop
         vertex 2.172142e+003 1.391417e+003 2.275248e+003
         vertex 2.172142e+003 1.395417e+003 2.275248e+003
         vertex 2.172663e+003 1.395417e+003 2.275491e+003
      endloop
   endfacet
   facet normal 3.960194e-001 -1.002292e-015 -9.182422e-001
      outer loop
         vertex 2.172142e+003 1.391417e+003 2.275248e+003
         vertex 2.172663e+003 1.395417e+003 2.275491e+003
         vertex 2.172663e+003 1.391417e+003 2.275491e+003
      endloop
   endfacet
   facet normal 2.868663e-001 -9.453654e-016 -9.579706e-001
      outer loop
         vertex 2.172663e+003 1.391417e+003 2.275491e+003
         vertex 2.172663e+003 1.395417e+003 2.275491e+003
         vertex 2.173219e+003 1.395417e+003 2.275640e+003
      endloop
   endfacet
   facet normal 2.305518e-001 -9.119454e-016 -9.730601e-001
      outer loop
         vertex 2.172663e+003 1.391417e+003 2.275491e+003
         vertex 2.173219e+003 1.395417e+003 2.275640e+003
         vertex 2.173219e+003 1.391417e+003 2.275640e+003
      endloop
   endfacet
   facet normal 1.161583e-001 -8.362078e-016 -9.932307e-001
      outer loop
         vertex 2.173219e+003 1.391417e+003 2.275640e+003
         vertex 2.173219e+003 1.395417e+003 2.275640e+003
         vertex 2.173792e+003 1.395417e+003 2.275690e+003
      endloop
   endfacet
   facet normal 5.807914e-002 -7.938899e-016 -9.983120e-001
      outer loop
         vertex 2.173219e+003 1.391417e+003 2.275640e+003
         vertex 2.173792e+003 1.395417e+003 2.275690e+003
         vertex 2.173792e+003 1.391417e+003 2.275690e+003
      endloop
   endfacet
   facet normal -5.807914e-002 -7.016423e-016 -9.983120e-001
      outer loop
         vertex 2.173792e+003 1.391417e+003 2.275690e+003
         vertex 2.173792e+003 1.395417e+003 2.275690e+003
         vertex 2.174365e+003 1.395417e+003 2.275640e+003
      endloop
   endfacet
   facet normal -1.161583e-001 -6.517125e-016 -9.932307e-001
      outer loop
         vertex 2.173792e+003 1.391417e+003 2.275690e+003
         vertex 2.174365e+003 1.395417e+003 2.275640e+003
         vertex 2.174365e+003 1.391417e+003 2.275640e+003
      endloop
   endfacet
   facet normal -2.305518e-001 -5.457579e-016 -9.730601e-001
      outer loop
         vertex 2.174365e+003 1.391417e+003 2.275640e+003
         vertex 2.174365e+003 1.395417e+003 2.275640e+003
         vertex 2.174921e+003 1.395417e+003 2.275491e+003
      endloop
   endfacet
   facet normal -2.868663e-001 -4.897331e-016 -9.579706e-001
      outer loop
         vertex 2.174365e+003 1.391417e+003 2.275640e+003
         vertex 2.174921e+003 1.395417e+003 2.275491e+003
         vertex 2.174921e+003 1.391417e+003 2.275491e+003
      endloop
   endfacet
   facet normal -3.960194e-001 -3.732908e-016 -9.182422e-001
      outer loop
         vertex 2.174921e+003 1.391417e+003 2.275491e+003
         vertex 2.174921e+003 1.395417e+003 2.275491e+003
         vertex 2.175442e+003 1.395417e+003 2.275248e+003
      endloop
   endfacet
   facet normal -4.488580e-001 -3.128734e-016 -8.936031e-001
      outer loop
         vertex 2.174921e+003 1.391417e+003 2.275491e+003
         vertex 2.175442e+003 1.395417e+003 2.275248e+003
         vertex 2.175442e+003 1.391417e+003 2.275248e+003
      endloop
   endfacet
   facet normal -5.494540e-001 -1.894816e-016 -8.355240e-001
      outer loop
         vertex 2.175442e+003 1.391417e+003 2.275248e+003
         vertex 2.175442e+003 1.395417e+003 2.275248e+003
         vertex 2.175913e+003 1.395417e+003 2.274918e+003
      endloop
   endfacet
   facet normal -5.972114e-001 -1.265072e-016 -8.020839e-001
      outer loop
         vertex 2.175442e+003 1.391417e+003 2.275248e+003
         vertex 2.175913e+003 1.395417e+003 2.274918e+003
         vertex 2.175913e+003 1.391417e+003 2.274918e+003
      endloop
   endfacet
   facet normal -6.861938e-001 8.504018e-020 -7.274188e-001
      outer loop
         vertex 2.175913e+003 1.391417e+003 2.274918e+003
         vertex 2.175913e+003 1.395417e+003 2.274918e+003
         vertex 2.176320e+003 1.395417e+003 2.274511e+003
      endloop
   endfacet
   facet normal -7.274188e-001 6.370287e-017 -6.861938e-001
      outer loop
         vertex 2.175913e+003 1.391417e+003 2.274918e+003
         vertex 2.176320e+003 1.395417e+003 2.274511e+003
         vertex 2.176320e+003 1.391417e+003 2.274511e+003
      endloop
   endfacet
   facet normal -8.020839e-001 1.896490e-016 -5.972114e-001
      outer loop
         vertex 2.176320e+003 1.391417e+003 2.274511e+003
         vertex 2.176320e+003 1.395417e+003 2.274511e+003
         vertex 2.176650e+003 1.395417e+003 2.274040e+003
      endloop
   endfacet
   facet normal -8.355240e-001 2.519774e-016 -5.494540e-001
      outer loop
         vertex 2.176320e+003 1.391417e+003 2.274511e+003
         vertex 2.176650e+003 1.395417e+003 2.274040e+003
         vertex 2.176650e+003 1.391417e+003 2.274040e+003
      endloop
   endfacet
   facet normal -8.936031e-001 3.734506e-016 -4.488580e-001
      outer loop
         vertex 2.176650e+003 1.391417e+003 2.274040e+003
         vertex 2.176650e+003 1.395417e+003 2.274040e+003
         vertex 2.176893e+003 1.395417e+003 2.273519e+003
      endloop
   endfacet
   facet normal -9.182422e-001 4.325956e-016 -3.960194e-001
      outer loop
         vertex 2.176650e+003 1.391417e+003 2.274040e+003
         vertex 2.176893e+003 1.395417e+003 2.273519e+003
         vertex 2.176893e+003 1.391417e+003 2.273519e+003
      endloop
   endfacet
   facet normal -9.579706e-001 5.459052e-016 -2.868663e-001
      outer loop
         vertex 2.176893e+003 1.391417e+003 2.273519e+003
         vertex 2.176893e+003 1.395417e+003 2.273519e+003
         vertex 2.177042e+003 1.395417e+003 2.272963e+003
      endloop
   endfacet
   facet normal -9.730601e-001 6.000697e-016 -2.305518e-001
      outer loop
         vertex 2.176893e+003 1.391417e+003 2.273519e+003
         vertex 2.177042e+003 1.395417e+003 2.272963e+003
         vertex 2.177042e+003 1.391417e+003 2.272963e+003
      endloop
   endfacet
   facet normal -9.932307e-001 7.017726e-016 -1.161583e-001
      outer loop
         vertex 2.177042e+003 1.391417e+003 2.272963e+003
         vertex 2.177042e+003 1.395417e+003 2.272963e+003
         vertex 2.177092e+003 1.395417e+003 2.272390e+003
      endloop
   endfacet
endsolid