solid 09.025.00.00.000 - 09.025.00.08.000-2 09.025.00.08.011-2 09.025.00.08.0AB-2
   facet normal 2.151700e-016 1.000000e+000 -7.771561e-016
      outer loop
         vertex 2.041792e+003 5.554174e+002 1.931390e+003
         vertex 2.041792e+003 5.554174e+002 1.948390e+003
         vertex 2.051792e+003 5.554174e+002 1.931390e+003
      endloop
   endfacet
   facet normal 2.151700e-016 1.000000e+000 -7.771561e-016
      outer loop
         vertex 2.051792e+003 5.554174e+002 1.931390e+003
         vertex 2.041792e+003 5.554174e+002 1.948390e+003
         vertex 2.051792e+003 5.554174e+002 1.948390e+003
      endloop
   endfacet
   facet normal -2.388910e-016 7.771561e-016 1.000000e+000
      outer loop
         vertex 2.051792e+003 4.614174e+002 1.948390e+003
         vertex 2.051792e+003 5.554174e+002 1.948390e+003
         vertex 2.041792e+003 4.614174e+002 1.948390e+003
      endloop
   endfacet
   facet normal -2.388910e-016 7.771561e-016 1.000000e+000
      outer loop
         vertex 2.041792e+003 4.614174e+002 1.948390e+003
         vertex 2.051792e+003 5.554174e+002 1.948390e+003
         vertex 2.041792e+003 5.554174e+002 1.948390e+003
      endloop
   endfacet
   facet normal -2.151700e-016 -1.000000e+000 7.771561e-016
      outer loop
         vertex 2.041792e+003 4.514173e+002 1.938390e+003
         vertex 2.041792e+003 4.514173e+002 1.926390e+003
         vertex 2.051792e+003 4.514173e+002 1.938390e+003
      endloop
   endfacet
   facet normal -2.151700e-016 -1.000000e+000 7.771561e-016
      outer loop
         vertex 2.051792e+003 4.514173e+002 1.938390e+003
         vertex 2.041792e+003 4.514173e+002 1.926390e+003
         vertex 2.051792e+003 4.514173e+002 1.926390e+003
      endloop
   endfacet
   facet normal 2.388910e-016 -7.771561e-016 -1.000000e+000
      outer loop
         vertex 2.051792e+003 5.504173e+002 1.926390e+003
         vertex 2.051792e+003 4.514173e+002 1.926390e+003
         vertex 2.041792e+003 5.504173e+002 1.926390e+003
      endloop
   endfacet
   facet normal 2.388910e-016 -7.771561e-016 -1.000000e+000
      outer loop
         vertex 2.041792e+003 5.504173e+002 1.926390e+003
         vertex 2.051792e+003 4.514173e+002 1.926390e+003
         vertex 2.041792e+003 4.514173e+002 1.926390e+003
      endloop
   endfacet
   facet normal 1.000000e+000 -2.151700e-016 2.388910e-016
      outer loop
         vertex 2.051792e+003 5.452856e+002 1.932466e+003
         vertex 2.051792e+003 5.504173e+002 1.926390e+003
         vertex 2.051792e+003 5.461274e+002 1.932691e+003
      endloop
   endfacet
   facet normal 1.000000e+000 -2.151700e-016 2.388910e-016
      outer loop
         vertex 2.051792e+003 5.461274e+002 1.932691e+003
         vertex 2.051792e+003 5.504173e+002 1.926390e+003
         vertex 2.051792e+003 5.469173e+002 1.933060e+003
      endloop
   endfacet
   facet normal 1.000000e+000 -2.151700e-016 2.388910e-016
      outer loop
         vertex 2.051792e+003 5.397189e+002 1.939100e+003
         vertex 2.051792e+003 5.400872e+002 1.939890e+003
         vertex 2.051792e+003 4.614174e+002 1.948390e+003
      endloop
   endfacet
   facet normal 1.000000e+000 -2.151700e-016 2.388910e-016
      outer loop
         vertex 2.051792e+003 4.614174e+002 1.948390e+003
         vertex 2.051792e+003 5.400872e+002 1.939890e+003
         vertex 2.051792e+003 5.405871e+002 1.940604e+003
      endloop
   endfacet
   facet normal 1.000000e+000 -2.151700e-016 2.388910e-016
      outer loop
         vertex 2.051792e+003 4.614174e+002 1.948390e+003
         vertex 2.051792e+003 5.405871e+002 1.940604e+003
         vertex 2.051792e+003 5.412034e+002 1.941220e+003
      endloop
   endfacet
   facet normal 1.000000e+000 -2.151700e-016 2.388910e-016
      outer loop
         vertex 2.051792e+003 5.554174e+002 1.931390e+003
         vertex 2.051792e+003 5.493414e+002 1.936522e+003
         vertex 2.051792e+003 5.491158e+002 1.935680e+003
      endloop
   endfacet
   facet normal 1.000000e+000 -2.151700e-016 2.388910e-016
      outer loop
         vertex 2.051792e+003 5.444173e+002 1.942390e+003
         vertex 2.051792e+003 5.452856e+002 1.942314e+003
         vertex 2.051792e+003 5.554174e+002 1.948390e+003
      endloop
   endfacet
   facet normal 1.000000e+000 -2.151700e-016 2.388910e-016
      outer loop
         vertex 2.051792e+003 5.554174e+002 1.948390e+003
         vertex 2.051792e+003 5.452856e+002 1.942314e+003
         vertex 2.051792e+003 5.461274e+002 1.942088e+003
      endloop
   endfacet
   facet normal 1.000000e+000 -2.151700e-016 2.388910e-016
      outer loop
         vertex 2.051792e+003 5.554174e+002 1.948390e+003
         vertex 2.051792e+003 5.461274e+002 1.942088e+003
         vertex 2.051792e+003 5.469173e+002 1.941720e+003
      endloop
   endfacet
   facet normal 1.000000e+000 -2.151700e-016 2.388910e-016
      outer loop
         vertex 2.051792e+003 5.469173e+002 1.941720e+003
         vertex 2.051792e+003 5.476313e+002 1.941220e+003
         vertex 2.051792e+003 5.554174e+002 1.948390e+003
      endloop
   endfacet
   facet normal 1.000000e+000 -2.151700e-016 2.388910e-016
      outer loop
         vertex 2.051792e+003 5.554174e+002 1.948390e+003
         vertex 2.051792e+003 5.476313e+002 1.941220e+003
         vertex 2.051792e+003 5.482476e+002 1.940604e+003
      endloop
   endfacet
   facet normal 1.000000e+000 -2.151700e-016 2.388910e-016
      outer loop
         vertex 2.051792e+003 5.554174e+002 1.948390e+003
         vertex 2.051792e+003 5.482476e+002 1.940604e+003
         vertex 2.051792e+003 5.487475e+002 1.939890e+003
      endloop
   endfacet
   facet normal 1.000000e+000 -2.151700e-016 2.388910e-016
      outer loop
         vertex 2.051792e+003 5.452856e+002 1.932466e+003
         vertex 2.051792e+003 5.444173e+002 1.932390e+003
         vertex 2.051792e+003 5.504173e+002 1.926390e+003
      endloop
   endfacet
   facet normal 1.000000e+000 -2.151700e-016 2.388910e-016
      outer loop
         vertex 2.051792e+003 5.504173e+002 1.926390e+003
         vertex 2.051792e+003 5.444173e+002 1.932390e+003
         vertex 2.051792e+003 5.435491e+002 1.932466e+003
      endloop
   endfacet
   facet normal 1.000000e+000 -2.151700e-016 2.388910e-016
      outer loop
         vertex 2.051792e+003 5.504173e+002 1.926390e+003
         vertex 2.051792e+003 5.435491e+002 1.932466e+003
         vertex 2.051792e+003 4.514173e+002 1.926390e+003
      endloop
   endfacet
   facet normal 1.000000e+000 -2.151700e-016 2.388910e-016
      outer loop
         vertex 2.051792e+003 4.514173e+002 1.926390e+003
         vertex 2.051792e+003 5.435491e+002 1.932466e+003
         vertex 2.051792e+003 5.427072e+002 1.932691e+003
      endloop
   endfacet
   facet normal 1.000000e+000 -2.151700e-016 2.388910e-016
      outer loop
         vertex 2.051792e+003 4.514173e+002 1.926390e+003
         vertex 2.051792e+003 5.427072e+002 1.932691e+003
         vertex 2.051792e+003 5.419173e+002 1.933060e+003
      endloop
   endfacet
   facet normal 1.000000e+000 -2.151700e-016 2.388910e-016
      outer loop
         vertex 2.051792e+003 5.419173e+002 1.933060e+003
         vertex 2.051792e+003 5.412034e+002 1.933560e+003
         vertex 2.051792e+003 4.514173e+002 1.926390e+003
      endloop
   endfacet
   facet normal 1.000000e+000 -2.151700e-016 2.388910e-016
      outer loop
         vertex 2.051792e+003 4.514173e+002 1.926390e+003
         vertex 2.051792e+003 5.412034e+002 1.933560e+003
         vertex 2.051792e+003 5.405871e+002 1.934176e+003
      endloop
   endfacet
   facet normal 1.000000e+000 -2.151700e-016 2.388910e-016
      outer loop
         vertex 2.051792e+003 4.514173e+002 1.926390e+003
         vertex 2.051792e+003 5.405871e+002 1.934176e+003
         vertex 2.051792e+003 5.400872e+002 1.934890e+003
      endloop
   endfacet
   facet normal 1.000000e+000 -2.151700e-016 2.388910e-016
      outer loop
         vertex 2.051792e+003 5.412034e+002 1.941220e+003
         vertex 2.051792e+003 5.419173e+002 1.941720e+003
         vertex 2.051792e+003 4.614174e+002 1.948390e+003
      endloop
   endfacet
   facet normal 1.000000e+000 -2.151700e-016 2.388910e-016
      outer loop
         vertex 2.051792e+003 4.614174e+002 1.948390e+003
         vertex 2.051792e+003 5.419173e+002 1.941720e+003
         vertex 2.051792e+003 5.427072e+002 1.942088e+003
      endloop
   endfacet
   facet normal 1.000000e+000 -2.151700e-016 2.388910e-016
      outer loop
         vertex 2.051792e+003 4.614174e+002 1.948390e+003
         vertex 2.051792e+003 5.427072e+002 1.942088e+003
         vertex 2.051792e+003 5.554174e+002 1.948390e+003
      endloop
   endfacet
   facet normal 1.000000e+000 -2.151700e-016 2.388910e-016
      outer loop
         vertex 2.051792e+003 5.554174e+002 1.948390e+003
         vertex 2.051792e+003 5.427072e+002 1.942088e+003
         vertex 2.051792e+003 5.435491e+002 1.942314e+003
      endloop
   endfacet
   facet normal 1.000000e+000 -2.151700e-016 2.388910e-016
      outer loop
         vertex 2.051792e+003 5.554174e+002 1.948390e+003
         vertex 2.051792e+003 5.435491e+002 1.942314e+003
         vertex 2.051792e+003 5.444173e+002 1.942390e+003
      endloop
   endfacet
   facet normal 1.000000e+000 -2.151700e-016 2.388910e-016
      outer loop
         vertex 2.051792e+003 5.491158e+002 1.935680e+003
         vertex 2.051792e+003 5.487475e+002 1.934890e+003
         vertex 2.051792e+003 5.554174e+002 1.931390e+003
      endloop
   endfacet
   facet normal 1.000000e+000 -2.151700e-016 2.388910e-016
      outer loop
         vertex 2.051792e+003 5.554174e+002 1.931390e+003
         vertex 2.051792e+003 5.487475e+002 1.934890e+003
         vertex 2.051792e+003 5.482476e+002 1.934176e+003
      endloop
   endfacet
   facet normal 1.000000e+000 -2.151700e-016 2.388910e-016
      outer loop
         vertex 2.051792e+003 5.554174e+002 1.931390e+003
         vertex 2.051792e+003 5.482476e+002 1.934176e+003
         vertex 2.051792e+003 5.504173e+002 1.926390e+003
      endloop
   endfacet
   facet normal 1.000000e+000 -2.151700e-016 2.388910e-016
      outer loop
         vertex 2.051792e+003 5.504173e+002 1.926390e+003
         vertex 2.051792e+003 5.482476e+002 1.934176e+003
         vertex 2.051792e+003 5.476313e+002 1.933560e+003
      endloop
   endfacet
   facet normal 1.000000e+000 -2.151700e-016 2.388910e-016
      outer loop
         vertex 2.051792e+003 5.504173e+002 1.926390e+003
         vertex 2.051792e+003 5.476313e+002 1.933560e+003
         vertex 2.051792e+003 5.469173e+002 1.933060e+003
      endloop
   endfacet
   facet normal 1.000000e+000 -2.151700e-016 2.388910e-016
      outer loop
         vertex 2.051792e+003 5.400872e+002 1.934890e+003
         vertex 2.051792e+003 5.397189e+002 1.935680e+003
         vertex 2.051792e+003 4.514173e+002 1.926390e+003
      endloop
   endfacet
   facet normal 1.000000e+000 -2.151700e-016 2.388910e-016
      outer loop
         vertex 2.051792e+003 4.514173e+002 1.926390e+003
         vertex 2.051792e+003 5.397189e+002 1.935680e+003
         vertex 2.051792e+003 5.394933e+002 1.936522e+003
      endloop
   endfacet
   facet normal 1.000000e+000 -2.151700e-016 2.388910e-016
      outer loop
         vertex 2.051792e+003 4.514173e+002 1.926390e+003
         vertex 2.051792e+003 5.394933e+002 1.936522e+003
         vertex 2.051792e+003 4.514173e+002 1.938390e+003
      endloop
   endfacet
   facet normal 1.000000e+000 -2.151700e-016 2.388910e-016
      outer loop
         vertex 2.051792e+003 4.514173e+002 1.938390e+003
         vertex 2.051792e+003 5.394933e+002 1.936522e+003
         vertex 2.051792e+003 5.394173e+002 1.937390e+003
      endloop
   endfacet
   facet normal 1.000000e+000 -2.151700e-016 2.388910e-016
      outer loop
         vertex 2.051792e+003 4.514173e+002 1.938390e+003
         vertex 2.051792e+003 5.394173e+002 1.937390e+003
         vertex 2.051792e+003 4.614174e+002 1.948390e+003
      endloop
   endfacet
   facet normal 1.000000e+000 -2.151700e-016 2.388910e-016
      outer loop
         vertex 2.051792e+003 4.614174e+002 1.948390e+003
         vertex 2.051792e+003 5.394173e+002 1.937390e+003
         vertex 2.051792e+003 5.394933e+002 1.938258e+003
      endloop
   endfacet
   facet normal 1.000000e+000 -2.151700e-016 2.388910e-016
      outer loop
         vertex 2.051792e+003 4.614174e+002 1.948390e+003
         vertex 2.051792e+003 5.394933e+002 1.938258e+003
         vertex 2.051792e+003 5.397189e+002 1.939100e+003
      endloop
   endfacet
   facet normal 1.000000e+000 -2.151700e-016 2.388910e-016
      outer loop
         vertex 2.051792e+003 5.487475e+002 1.939890e+003
         vertex 2.051792e+003 5.491158e+002 1.939100e+003
         vertex 2.051792e+003 5.554174e+002 1.948390e+003
      endloop
   endfacet
   facet normal 1.000000e+000 -2.151700e-016 2.388910e-016
      outer loop
         vertex 2.051792e+003 5.554174e+002 1.948390e+003
         vertex 2.051792e+003 5.491158e+002 1.939100e+003
         vertex 2.051792e+003 5.493414e+002 1.938258e+003
      endloop
   endfacet
   facet normal 1.000000e+000 -2.151700e-016 2.388910e-016
      outer loop
         vertex 2.051792e+003 5.554174e+002 1.948390e+003
         vertex 2.051792e+003 5.493414e+002 1.938258e+003
         vertex 2.051792e+003 5.554174e+002 1.931390e+003
      endloop
   endfacet
   facet normal 1.000000e+000 -2.151700e-016 2.388910e-016
      outer loop
         vertex 2.051792e+003 5.554174e+002 1.931390e+003
         vertex 2.051792e+003 5.493414e+002 1.938258e+003
         vertex 2.051792e+003 5.494173e+002 1.937390e+003
      endloop
   endfacet
   facet normal 1.000000e+000 -2.151700e-016 2.388910e-016
      outer loop
         vertex 2.051792e+003 5.554174e+002 1.931390e+003
         vertex 2.051792e+003 5.494173e+002 1.937390e+003
         vertex 2.051792e+003 5.493414e+002 1.936522e+003
      endloop
   endfacet
   facet normal -1.000000e+000 2.151700e-016 -2.388910e-016
      outer loop
         vertex 2.041792e+003 5.554174e+002 1.948390e+003
         vertex 2.041792e+003 5.554174e+002 1.931390e+003
         vertex 2.041792e+003 5.494173e+002 1.937390e+003
      endloop
   endfacet
   facet normal -1.000000e+000 2.151700e-016 -2.388910e-016
      outer loop
         vertex 2.041792e+003 5.487475e+002 1.934890e+003
         vertex 2.041792e+003 5.491158e+002 1.935680e+003
         vertex 2.041792e+003 5.554174e+002 1.931390e+003
      endloop
   endfacet
   facet normal -1.000000e+000 2.151700e-016 -2.388910e-016
      outer loop
         vertex 2.041792e+003 5.554174e+002 1.931390e+003
         vertex 2.041792e+003 5.491158e+002 1.935680e+003
         vertex 2.041792e+003 5.493414e+002 1.936522e+003
      endloop
   endfacet
   facet normal -1.000000e+000 2.151700e-016 -2.388910e-016
      outer loop
         vertex 2.041792e+003 5.554174e+002 1.931390e+003
         vertex 2.041792e+003 5.493414e+002 1.936522e+003
         vertex 2.041792e+003 5.494173e+002 1.937390e+003
      endloop
   endfacet
   facet normal -1.000000e+000 2.151700e-016 -2.388910e-016
      outer loop
         vertex 2.041792e+003 5.419173e+002 1.941720e+003
         vertex 2.041792e+003 5.412034e+002 1.941220e+003
         vertex 2.041792e+003 4.614174e+002 1.948390e+003
      endloop
   endfacet
   facet normal -1.000000e+000 2.151700e-016 -2.388910e-016
      outer loop
         vertex 2.041792e+003 4.614174e+002 1.948390e+003
         vertex 2.041792e+003 5.412034e+002 1.941220e+003
         vertex 2.041792e+003 5.405871e+002 1.940604e+003
      endloop
   endfacet
   facet normal -1.000000e+000 2.151700e-016 -2.388910e-016
      outer loop
         vertex 2.041792e+003 4.614174e+002 1.948390e+003
         vertex 2.041792e+003 5.405871e+002 1.940604e+003
         vertex 2.041792e+003 5.400872e+002 1.939890e+003
      endloop
   endfacet
   facet normal -1.000000e+000 2.151700e-016 -2.388910e-016
      outer loop
         vertex 2.041792e+003 5.494173e+002 1.937390e+003
         vertex 2.041792e+003 5.493414e+002 1.938258e+003
         vertex 2.041792e+003 5.554174e+002 1.948390e+003
      endloop
   endfacet
   facet normal -1.000000e+000 2.151700e-016 -2.388910e-016
      outer loop
         vertex 2.041792e+003 5.554174e+002 1.948390e+003
         vertex 2.041792e+003 5.493414e+002 1.938258e+003
         vertex 2.041792e+003 5.491158e+002 1.939100e+003
      endloop
   endfacet
   facet normal -1.000000e+000 2.151700e-016 -2.388910e-016
      outer loop
         vertex 2.041792e+003 5.554174e+002 1.948390e+003
         vertex 2.041792e+003 5.491158e+002 1.939100e+003
         vertex 2.041792e+003 5.487475e+002 1.939890e+003
      endloop
   endfacet
   facet normal -1.000000e+000 2.151700e-016 -2.388910e-016
      outer loop
         vertex 2.041792e+003 5.469173e+002 1.941720e+003
         vertex 2.041792e+003 5.461274e+002 1.942088e+003
         vertex 2.041792e+003 5.554174e+002 1.948390e+003
      endloop
   endfacet
   facet normal -1.000000e+000 2.151700e-016 -2.388910e-016
      outer loop
         vertex 2.041792e+003 5.554174e+002 1.948390e+003
         vertex 2.041792e+003 5.461274e+002 1.942088e+003
         vertex 2.041792e+003 5.452856e+002 1.942314e+003
      endloop
   endfacet
   facet normal -1.000000e+000 2.151700e-016 -2.388910e-016
      outer loop
         vertex 2.041792e+003 5.487475e+002 1.939890e+003
         vertex 2.041792e+003 5.482476e+002 1.940604e+003
         vertex 2.041792e+003 5.554174e+002 1.948390e+003
      endloop
   endfacet
   facet normal -1.000000e+000 2.151700e-016 -2.388910e-016
      outer loop
         vertex 2.041792e+003 5.554174e+002 1.948390e+003
         vertex 2.041792e+003 5.482476e+002 1.940604e+003
         vertex 2.041792e+003 5.476313e+002 1.941220e+003
      endloop
   endfacet
   facet normal -1.000000e+000 2.151700e-016 -2.388910e-016
      outer loop
         vertex 2.041792e+003 5.554174e+002 1.948390e+003
         vertex 2.041792e+003 5.476313e+002 1.941220e+003
         vertex 2.041792e+003 5.469173e+002 1.941720e+003
      endloop
   endfacet
   facet normal -1.000000e+000 2.151700e-016 -2.388910e-016
      outer loop
         vertex 2.041792e+003 5.452856e+002 1.942314e+003
         vertex 2.041792e+003 5.444173e+002 1.942390e+003
         vertex 2.041792e+003 5.554174e+002 1.948390e+003
      endloop
   endfacet
   facet normal -1.000000e+000 2.151700e-016 -2.388910e-016
      outer loop
         vertex 2.041792e+003 5.554174e+002 1.948390e+003
         vertex 2.041792e+003 5.444173e+002 1.942390e+003
         vertex 2.041792e+003 5.435491e+002 1.942314e+003
      endloop
   endfacet
   facet normal -1.000000e+000 2.151700e-016 -2.388910e-016
      outer loop
         vertex 2.041792e+003 5.554174e+002 1.948390e+003
         vertex 2.041792e+003 5.435491e+002 1.942314e+003
         vertex 2.041792e+003 4.614174e+002 1.948390e+003
      endloop
   endfacet
   facet normal -1.000000e+000 2.151700e-016 -2.388910e-016
      outer loop
         vertex 2.041792e+003 4.614174e+002 1.948390e+003
         vertex 2.041792e+003 5.435491e+002 1.942314e+003
         vertex 2.041792e+003 5.427072e+002 1.942088e+003
      endloop
   endfacet
   facet normal -1.000000e+000 2.151700e-016 -2.388910e-016
      outer loop
         vertex 2.041792e+003 4.614174e+002 1.948390e+003
         vertex 2.041792e+003 5.427072e+002 1.942088e+003
         vertex 2.041792e+003 5.419173e+002 1.941720e+003
      endloop
   endfacet
   facet normal -1.000000e+000 2.151700e-016 -2.388910e-016
      outer loop
         vertex 2.041792e+003 5.397189e+002 1.935680e+003
         vertex 2.041792e+003 5.400872e+002 1.934890e+003
         vertex 2.041792e+003 4.514173e+002 1.926390e+003
      endloop
   endfacet
   facet normal -1.000000e+000 2.151700e-016 -2.388910e-016
      outer loop
         vertex 2.041792e+003 4.514173e+002 1.926390e+003
         vertex 2.041792e+003 5.400872e+002 1.934890e+003
         vertex 2.041792e+003 5.405871e+002 1.934176e+003
      endloop
   endfacet
   facet normal -1.000000e+000 2.151700e-016 -2.388910e-016
      outer loop
         vertex 2.041792e+003 5.400872e+002 1.939890e+003
         vertex 2.041792e+003 5.397189e+002 1.939100e+003
         vertex 2.041792e+003 4.614174e+002 1.948390e+003
      endloop
   endfacet
   facet normal -1.000000e+000 2.151700e-016 -2.388910e-016
      outer loop
         vertex 2.041792e+003 4.614174e+002 1.948390e+003
         vertex 2.041792e+003 5.397189e+002 1.939100e+003
         vertex 2.041792e+003 5.394933e+002 1.938258e+003
      endloop
   endfacet
   facet normal -1.000000e+000 2.151700e-016 -2.388910e-016
      outer loop
         vertex 2.041792e+003 4.614174e+002 1.948390e+003
         vertex 2.041792e+003 5.394933e+002 1.938258e+003
         vertex 2.041792e+003 4.514173e+002 1.938390e+003
      endloop
   endfacet
   facet normal -1.000000e+000 2.151700e-016 -2.388910e-016
      outer loop
         vertex 2.041792e+003 4.514173e+002 1.938390e+003
         vertex 2.041792e+003 5.394933e+002 1.938258e+003
         vertex 2.041792e+003 5.394173e+002 1.937390e+003
      endloop
   endfacet
   facet normal -1.000000e+000 2.151700e-016 -2.388910e-016
      outer loop
         vertex 2.041792e+003 4.514173e+002 1.938390e+003
         vertex 2.041792e+003 5.394173e+002 1.937390e+003
         vertex 2.041792e+003 4.514173e+002 1.926390e+003
      endloop
   endfacet
   facet normal -1.000000e+000 2.151700e-016 -2.388910e-016
      outer loop
         vertex 2.041792e+003 4.514173e+002 1.926390e+003
         vertex 2.041792e+003 5.394173e+002 1.937390e+003
         vertex 2.041792e+003 5.394933e+002 1.936522e+003
      endloop
   endfacet
   facet normal -1.000000e+000 2.151700e-016 -2.388910e-016
      outer loop
         vertex 2.041792e+003 4.514173e+002 1.926390e+003
         vertex 2.041792e+003 5.394933e+002 1.936522e+003
         vertex 2.041792e+003 5.397189e+002 1.935680e+003
      endloop
   endfacet
   facet normal -1.000000e+000 2.151700e-016 -2.388910e-016
      outer loop
         vertex 2.041792e+003 5.435491e+002 1.932466e+003
         vertex 2.041792e+003 5.444173e+002 1.932390e+003
         vertex 2.041792e+003 5.504173e+002 1.926390e+003
      endloop
   endfacet
   facet normal -1.000000e+000 2.151700e-016 -2.388910e-016
      outer loop
         vertex 2.041792e+003 5.504173e+002 1.926390e+003
         vertex 2.041792e+003 5.444173e+002 1.932390e+003
         vertex 2.041792e+003 5.452856e+002 1.932466e+003
      endloop
   endfacet
   facet normal -1.000000e+000 2.151700e-016 -2.388910e-016
      outer loop
         vertex 2.041792e+003 5.504173e+002 1.926390e+003
         vertex 2.041792e+003 5.452856e+002 1.932466e+003
         vertex 2.041792e+003 5.461274e+002 1.932691e+003
      endloop
   endfacet
   facet normal -1.000000e+000 2.151700e-016 -2.388910e-016
      outer loop
         vertex 2.041792e+003 5.405871e+002 1.934176e+003
         vertex 2.041792e+003 5.412034e+002 1.933560e+003
         vertex 2.041792e+003 4.514173e+002 1.926390e+003
      endloop
   endfacet
   facet normal -1.000000e+000 2.151700e-016 -2.388910e-016
      outer loop
         vertex 2.041792e+003 4.514173e+002 1.926390e+003
         vertex 2.041792e+003 5.412034e+002 1.933560e+003
         vertex 2.041792e+003 5.419173e+002 1.933060e+003
      endloop
   endfacet
   facet normal -1.000000e+000 2.151700e-016 -2.388910e-016
      outer loop
         vertex 2.041792e+003 4.514173e+002 1.926390e+003
         vertex 2.041792e+003 5.419173e+002 1.933060e+003
         vertex 2.041792e+003 5.504173e+002 1.926390e+003
      endloop
   endfacet
   facet normal -1.000000e+000 2.151700e-016 -2.388910e-016
      outer loop
         vertex 2.041792e+003 5.504173e+002 1.926390e+003
         vertex 2.041792e+003 5.419173e+002 1.933060e+003
         vertex 2.041792e+003 5.427072e+002 1.932691e+003
      endloop
   endfacet
   facet normal -1.000000e+000 2.151700e-016 -2.388910e-016
      outer loop
         vertex 2.041792e+003 5.504173e+002 1.926390e+003
         vertex 2.041792e+003 5.427072e+002 1.932691e+003
         vertex 2.041792e+003 5.435491e+002 1.932466e+003
      endloop
   endfacet
   facet normal -1.000000e+000 2.151700e-016 -2.388910e-016
      outer loop
         vertex 2.041792e+003 5.461274e+002 1.932691e+003
         vertex 2.041792e+003 5.469173e+002 1.933060e+003
         vertex 2.041792e+003 5.504173e+002 1.926390e+003
      endloop
   endfacet
   facet normal -1.000000e+000 2.151700e-016 -2.388910e-016
      outer loop
         vertex 2.041792e+003 5.504173e+002 1.926390e+003
         vertex 2.041792e+003 5.469173e+002 1.933060e+003
         vertex 2.041792e+003 5.476313e+002 1.933560e+003
      endloop
   endfacet
   facet normal -1.000000e+000 2.151700e-016 -2.388910e-016
      outer loop
         vertex 2.041792e+003 5.504173e+002 1.926390e+003
         vertex 2.041792e+003 5.476313e+002 1.933560e+003
         vertex 2.041792e+003 5.554174e+002 1.931390e+003
      endloop
   endfacet
   facet normal -1.000000e+000 2.151700e-016 -2.388910e-016
      outer loop
         vertex 2.041792e+003 5.554174e+002 1.931390e+003
         vertex 2.041792e+003 5.476313e+002 1.933560e+003
         vertex 2.041792e+003 5.482476e+002 1.934176e+003
      endloop
   endfacet
   facet normal -1.000000e+000 2.151700e-016 -2.388910e-016
      outer loop
         vertex 2.041792e+003 5.554174e+002 1.931390e+003
         vertex 2.041792e+003 5.482476e+002 1.934176e+003
         vertex 2.041792e+003 5.487475e+002 1.934890e+003
      endloop
   endfacet
   facet normal -3.210697e-016 -7.071068e-001 7.071068e-001
      outer loop
         vertex 2.041792e+003 4.614174e+002 1.948390e+003
         vertex 2.041792e+003 4.514173e+002 1.938390e+003
         vertex 2.051792e+003 4.614174e+002 1.948390e+003
      endloop
   endfacet
   facet normal -3.210697e-016 -7.071068e-001 7.071068e-001
      outer loop
         vertex 2.051792e+003 4.614174e+002 1.948390e+003
         vertex 2.041792e+003 4.514173e+002 1.938390e+003
         vertex 2.051792e+003 4.514173e+002 1.938390e+003
      endloop
   endfacet
   facet normal -2.009322e-016 -9.983120e-001 -5.807914e-002
      outer loop
         vertex 2.051792e+003 5.493414e+002 1.938258e+003
         vertex 2.041792e+003 5.494173e+002 1.937390e+003
         vertex 2.051792e+003 5.494173e+002 1.937390e+003
      endloop
   endfacet
   facet normal -2.286814e-016 -9.983120e-001 5.807914e-002
      outer loop
         vertex 2.051792e+003 5.494173e+002 1.937390e+003
         vertex 2.041792e+003 5.494173e+002 1.937390e+003
         vertex 2.041792e+003 5.493414e+002 1.936522e+003
      endloop
   endfacet
   facet normal -2.414626e-016 -9.932307e-001 1.161583e-001
      outer loop
         vertex 2.051792e+003 5.494173e+002 1.937390e+003
         vertex 2.041792e+003 5.493414e+002 1.936522e+003
         vertex 2.051792e+003 5.493414e+002 1.936522e+003
      endloop
   endfacet
   facet normal -2.644501e-016 -9.730601e-001 2.305518e-001
      outer loop
         vertex 2.051792e+003 5.493414e+002 1.936522e+003
         vertex 2.041792e+003 5.493414e+002 1.936522e+003
         vertex 2.041792e+003 5.491158e+002 1.935680e+003
      endloop
   endfacet
   facet normal -2.746564e-016 -9.579706e-001 2.868663e-001
      outer loop
         vertex 2.051792e+003 5.493414e+002 1.936522e+003
         vertex 2.041792e+003 5.491158e+002 1.935680e+003
         vertex 2.051792e+003 5.491158e+002 1.935680e+003
      endloop
   endfacet
   facet normal -2.921837e-016 -9.182422e-001 3.960194e-001
      outer loop
         vertex 2.051792e+003 5.491158e+002 1.935680e+003
         vertex 2.041792e+003 5.491158e+002 1.935680e+003
         vertex 2.041792e+003 5.487475e+002 1.934890e+003
      endloop
   endfacet
   facet normal -2.995048e-016 -8.936031e-001 4.488580e-001
      outer loop
         vertex 2.051792e+003 5.491158e+002 1.935680e+003
         vertex 2.041792e+003 5.487475e+002 1.934890e+003
         vertex 2.051792e+003 5.487475e+002 1.934890e+003
      endloop
   endfacet
   facet normal -3.110393e-016 -8.355240e-001 5.494540e-001
      outer loop
         vertex 2.051792e+003 5.487475e+002 1.934890e+003
         vertex 2.041792e+003 5.487475e+002 1.934890e+003
         vertex 2.041792e+003 5.482476e+002 1.934176e+003
      endloop
   endfacet
   facet normal -3.152529e-016 -8.020839e-001 5.972114e-001
      outer loop
         vertex 2.051792e+003 5.487475e+002 1.934890e+003
         vertex 2.041792e+003 5.482476e+002 1.934176e+003
         vertex 2.051792e+003 5.482476e+002 1.934176e+003
      endloop
   endfacet
   facet normal -3.204443e-016 -7.274188e-001 6.861938e-001
      outer loop
         vertex 2.051792e+003 5.482476e+002 1.934176e+003
         vertex 2.041792e+003 5.482476e+002 1.934176e+003
         vertex 2.041792e+003 5.476313e+002 1.933560e+003
      endloop
   endfacet
   facet normal -3.214222e-016 -6.861938e-001 7.274188e-001
      outer loop
         vertex 2.051792e+003 5.482476e+002 1.934176e+003
         vertex 2.041792e+003 5.476313e+002 1.933560e+003
         vertex 2.051792e+003 5.476313e+002 1.933560e+003
      endloop
   endfacet
   facet normal -3.201127e-016 -5.972114e-001 8.020839e-001
      outer loop
         vertex 2.051792e+003 5.476313e+002 1.933560e+003
         vertex 2.041792e+003 5.476313e+002 1.933560e+003
         vertex 2.041792e+003 5.469173e+002 1.933060e+003
      endloop
   endfacet
   facet normal -3.178252e-016 -5.494540e-001 8.355240e-001
      outer loop
         vertex 2.051792e+003 5.476313e+002 1.933560e+003
         vertex 2.041792e+003 5.469173e+002 1.933060e+003
         vertex 2.051792e+003 5.469173e+002 1.933060e+003
      endloop
   endfacet
   facet normal -3.100546e-016 -4.488580e-001 8.936031e-001
      outer loop
         vertex 2.051792e+003 5.469173e+002 1.933060e+003
         vertex 2.041792e+003 5.469173e+002 1.933060e+003
         vertex 2.041792e+003 5.461274e+002 1.932691e+003
      endloop
   endfacet
   facet normal -3.045713e-016 -3.960194e-001 9.182422e-001
      outer loop
         vertex 2.051792e+003 5.469173e+002 1.933060e+003
         vertex 2.041792e+003 5.461274e+002 1.932691e+003
         vertex 2.051792e+003 5.461274e+002 1.932691e+003
      endloop
   endfacet
   facet normal -2.905756e-016 -2.868663e-001 9.579706e-001
      outer loop
         vertex 2.051792e+003 5.461274e+002 1.932691e+003
         vertex 2.041792e+003 5.461274e+002 1.932691e+003
         vertex 2.041792e+003 5.452856e+002 1.932466e+003
      endloop
   endfacet
   facet normal -2.820632e-016 -2.305518e-001 9.730601e-001
      outer loop
         vertex 2.051792e+003 5.461274e+002 1.932691e+003
         vertex 2.041792e+003 5.452856e+002 1.932466e+003
         vertex 2.051792e+003 5.452856e+002 1.932466e+003
      endloop
   endfacet
   facet normal -2.622677e-016 -1.161583e-001 9.932307e-001
      outer loop
         vertex 2.051792e+003 5.452856e+002 1.932466e+003
         vertex 2.041792e+003 5.452856e+002 1.932466e+003
         vertex 2.041792e+003 5.444173e+002 1.932390e+003
      endloop
   endfacet
   facet normal -2.509847e-016 -5.807914e-002 9.983120e-001
      outer loop
         vertex 2.051792e+003 5.452856e+002 1.932466e+003
         vertex 2.041792e+003 5.444173e+002 1.932390e+003
         vertex 2.051792e+003 5.444173e+002 1.932390e+003
      endloop
   endfacet
   facet normal -2.259909e-016 5.807914e-002 9.983120e-001
      outer loop
         vertex 2.051792e+003 5.444173e+002 1.932390e+003
         vertex 2.041792e+003 5.444173e+002 1.932390e+003
         vertex 2.041792e+003 5.435491e+002 1.932466e+003
      endloop
   endfacet
   facet normal -2.122801e-016 1.161583e-001 9.932307e-001
      outer loop
         vertex 2.051792e+003 5.444173e+002 1.932390e+003
         vertex 2.041792e+003 5.435491e+002 1.932466e+003
         vertex 2.051792e+003 5.435491e+002 1.932466e+003
      endloop
   endfacet
   facet normal -1.828475e-016 2.305518e-001 9.730601e-001
      outer loop
         vertex 2.051792e+003 5.435491e+002 1.932466e+003
         vertex 2.041792e+003 5.435491e+002 1.932466e+003
         vertex 2.041792e+003 5.427072e+002 1.932691e+003
      endloop
   endfacet
   facet normal -1.671256e-016 2.868663e-001 9.579706e-001
      outer loop
         vertex 2.051792e+003 5.435491e+002 1.932466e+003
         vertex 2.041792e+003 5.427072e+002 1.932691e+003
         vertex 2.051792e+003 5.427072e+002 1.932691e+003
      endloop
   endfacet
   facet normal -1.341483e-016 3.960194e-001 9.182422e-001
      outer loop
         vertex 2.051792e+003 5.427072e+002 1.932691e+003
         vertex 2.041792e+003 5.427072e+002 1.932691e+003
         vertex 2.041792e+003 5.419173e+002 1.933060e+003
      endloop
   endfacet
   facet normal -1.168930e-016 4.488580e-001 8.936031e-001
      outer loop
         vertex 2.051792e+003 5.427072e+002 1.932691e+003
         vertex 2.041792e+003 5.419173e+002 1.933060e+003
         vertex 2.051792e+003 5.419173e+002 1.933060e+003
      endloop
   endfacet
   facet normal -8.137316e-017 5.494540e-001 8.355240e-001
      outer loop
         vertex 2.051792e+003 5.419173e+002 1.933060e+003
         vertex 2.041792e+003 5.419173e+002 1.933060e+003
         vertex 2.041792e+003 5.412034e+002 1.933560e+003
      endloop
   endfacet
   facet normal -6.310865e-017 5.972114e-001 8.020839e-001
      outer loop
         vertex 2.051792e+003 5.419173e+002 1.933060e+003
         vertex 2.041792e+003 5.412034e+002 1.933560e+003
         vertex 2.051792e+003 5.412034e+002 1.933560e+003
      endloop
   endfacet
   facet normal -2.612549e-017 6.861938e-001 7.274188e-001
      outer loop
         vertex 2.051792e+003 5.412034e+002 1.933560e+003
         vertex 2.041792e+003 5.412034e+002 1.933560e+003
         vertex 2.041792e+003 5.405871e+002 1.934176e+003
      endloop
   endfacet
   facet normal -7.406817e-018 7.274188e-001 6.861938e-001
      outer loop
         vertex 2.051792e+003 5.412034e+002 1.933560e+003
         vertex 2.041792e+003 5.405871e+002 1.934176e+003
         vertex 2.051792e+003 5.405871e+002 1.934176e+003
      endloop
   endfacet
   facet normal 2.991597e-017 8.020839e-001 5.972114e-001
      outer loop
         vertex 2.051792e+003 5.405871e+002 1.934176e+003
         vertex 2.041792e+003 5.405871e+002 1.934176e+003
         vertex 2.041792e+003 5.400872e+002 1.934890e+003
      endloop
   endfacet
   facet normal 4.852009e-017 8.355240e-001 5.494540e-001
      outer loop
         vertex 2.051792e+003 5.405871e+002 1.934176e+003
         vertex 2.041792e+003 5.400872e+002 1.934890e+003
         vertex 2.051792e+003 5.400872e+002 1.934890e+003
      endloop
   endfacet
   facet normal 8.504845e-017 8.936031e-001 4.488580e-001
      outer loop
         vertex 2.051792e+003 5.400872e+002 1.934890e+003
         vertex 2.041792e+003 5.400872e+002 1.934890e+003
         vertex 2.041792e+003 5.397189e+002 1.935680e+003
      endloop
   endfacet
   facet normal 1.029727e-016 9.182422e-001 3.960194e-001
      outer loop
         vertex 2.051792e+003 5.400872e+002 1.934890e+003
         vertex 2.041792e+003 5.397189e+002 1.935680e+003
         vertex 2.051792e+003 5.397189e+002 1.935680e+003
      endloop
   endfacet
   facet normal 1.375968e-016 9.579706e-001 2.868663e-001
      outer loop
         vertex 2.051792e+003 5.397189e+002 1.935680e+003
         vertex 2.041792e+003 5.397189e+002 1.935680e+003
         vertex 2.041792e+003 5.394933e+002 1.936522e+003
      endloop
   endfacet
   facet normal 1.542966e-016 9.730601e-001 2.305518e-001
      outer loop
         vertex 2.051792e+003 5.397189e+002 1.935680e+003
         vertex 2.041792e+003 5.394933e+002 1.936522e+003
         vertex 2.051792e+003 5.394933e+002 1.936522e+003
      endloop
   endfacet
   facet normal 1.859643e-016 9.932307e-001 1.161583e-001
      outer loop
         vertex 2.051792e+003 5.394933e+002 1.936522e+003
         vertex 2.041792e+003 5.394933e+002 1.936522e+003
         vertex 2.041792e+003 5.394173e+002 1.937390e+003
      endloop
   endfacet
   facet normal 2.009322e-016 9.983120e-001 5.807914e-002
      outer loop
         vertex 2.051792e+003 5.394933e+002 1.936522e+003
         vertex 2.041792e+003 5.394173e+002 1.937390e+003
         vertex 2.051792e+003 5.394173e+002 1.937390e+003
      endloop
   endfacet
   facet normal 2.286814e-016 9.983120e-001 -5.807914e-002
      outer loop
         vertex 2.051792e+003 5.394173e+002 1.937390e+003
         vertex 2.041792e+003 5.394173e+002 1.937390e+003
         vertex 2.041792e+003 5.394933e+002 1.938258e+003
      endloop
   endfacet
   facet normal 2.414626e-016 9.932307e-001 -1.161583e-001
      outer loop
         vertex 2.051792e+003 5.394173e+002 1.937390e+003
         vertex 2.041792e+003 5.394933e+002 1.938258e+003
         vertex 2.051792e+003 5.394933e+002 1.938258e+003
      endloop
   endfacet
   facet normal 2.644501e-016 9.730601e-001 -2.305518e-001
      outer loop
         vertex 2.051792e+003 5.394933e+002 1.938258e+003
         vertex 2.041792e+003 5.394933e+002 1.938258e+003
         vertex 2.041792e+003 5.397189e+002 1.939100e+003
      endloop
   endfacet
   facet normal 2.746564e-016 9.579706e-001 -2.868663e-001
      outer loop
         vertex 2.051792e+003 5.394933e+002 1.938258e+003
         vertex 2.041792e+003 5.397189e+002 1.939100e+003
         vertex 2.051792e+003 5.397189e+002 1.939100e+003
      endloop
   endfacet
   facet normal 2.921837e-016 9.182422e-001 -3.960194e-001
      outer loop
         vertex 2.051792e+003 5.397189e+002 1.939100e+003
         vertex 2.041792e+003 5.397189e+002 1.939100e+003
         vertex 2.041792e+003 5.400872e+002 1.939890e+003
      endloop
   endfacet
   facet normal 2.995048e-016 8.936031e-001 -4.488580e-001
      outer loop
         vertex 2.051792e+003 5.397189e+002 1.939100e+003
         vertex 2.041792e+003 5.400872e+002 1.939890e+003
         vertex 2.051792e+003 5.400872e+002 1.939890e+003
      endloop
   endfacet
   facet normal 3.110393e-016 8.355240e-001 -5.494540e-001
      outer loop
         vertex 2.051792e+003 5.400872e+002 1.939890e+003
         vertex 2.041792e+003 5.400872e+002 1.939890e+003
         vertex 2.041792e+003 5.405871e+002 1.940604e+003
      endloop
   endfacet
   facet normal 3.152529e-016 8.020839e-001 -5.972114e-001
      outer loop
         vertex 2.051792e+003 5.400872e+002 1.939890e+003
         vertex 2.041792e+003 5.405871e+002 1.940604e+003
         vertex 2.051792e+003 5.405871e+002 1.940604e+003
      endloop
   endfacet
   facet normal 3.204443e-016 7.274188e-001 -6.861938e-001
      outer loop
         vertex 2.051792e+003 5.405871e+002 1.940604e+003
         vertex 2.041792e+003 5.405871e+002 1.940604e+003
         vertex 2.041792e+003 5.412034e+002 1.941220e+003
      endloop
   endfacet
   facet normal 3.214222e-016 6.861938e-001 -7.274188e-001
      outer loop
         vertex 2.051792e+003 5.405871e+002 1.940604e+003
         vertex 2.041792e+003 5.412034e+002 1.941220e+003
         vertex 2.051792e+003 5.412034e+002 1.941220e+003
      endloop
   endfacet
   facet normal 3.201127e-016 5.972114e-001 -8.020839e-001
      outer loop
         vertex 2.051792e+003 5.412034e+002 1.941220e+003
         vertex 2.041792e+003 5.412034e+002 1.941220e+003
         vertex 2.041792e+003 5.419173e+002 1.941720e+003
      endloop
   endfacet
   facet normal 3.178252e-016 5.494540e-001 -8.355240e-001
      outer loop
         vertex 2.051792e+003 5.412034e+002 1.941220e+003
         vertex 2.041792e+003 5.419173e+002 1.941720e+003
         vertex 2.051792e+003 5.419173e+002 1.941720e+003
      endloop
   endfacet
   facet normal 3.100546e-016 4.488580e-001 -8.936031e-001
      outer loop
         vertex 2.051792e+003 5.419173e+002 1.941720e+003
         vertex 2.041792e+003 5.419173e+002 1.941720e+003
         vertex 2.041792e+003 5.427072e+002 1.942088e+003
      endloop
   endfacet
   facet normal 3.045713e-016 3.960194e-001 -9.182422e-001
      outer loop
         vertex 2.051792e+003 5.419173e+002 1.941720e+003
         vertex 2.041792e+003 5.427072e+002 1.942088e+003
         vertex 2.051792e+003 5.427072e+002 1.942088e+003
      endloop
   endfacet
   facet normal 2.905756e-016 2.868663e-001 -9.579706e-001
      outer loop
         vertex 2.051792e+003 5.427072e+002 1.942088e+003
         vertex 2.041792e+003 5.427072e+002 1.942088e+003
         vertex 2.041792e+003 5.435491e+002 1.942314e+003
      endloop
   endfacet
   facet normal 2.820632e-016 2.305518e-001 -9.730601e-001
      outer loop
         vertex 2.051792e+003 5.427072e+002 1.942088e+003
         vertex 2.041792e+003 5.435491e+002 1.942314e+003
         vertex 2.051792e+003 5.435491e+002 1.942314e+003
      endloop
   endfacet
   facet normal 2.622677e-016 1.161583e-001 -9.932307e-001
      outer loop
         vertex 2.051792e+003 5.435491e+002 1.942314e+003
         vertex 2.041792e+003 5.435491e+002 1.942314e+003
         vertex 2.041792e+003 5.444173e+002 1.942390e+003
      endloop
   endfacet
   facet normal 2.509847e-016 5.807914e-002 -9.983120e-001
      outer loop
         vertex 2.051792e+003 5.435491e+002 1.942314e+003
         vertex 2.041792e+003 5.444173e+002 1.942390e+003
         vertex 2.051792e+003 5.444173e+002 1.942390e+003
      endloop
   endfacet
   facet normal 2.259909e-016 -5.807914e-002 -9.983120e-001
      outer loop
         vertex 2.051792e+003 5.444173e+002 1.942390e+003
         vertex 2.041792e+003 5.444173e+002 1.942390e+003
         vertex 2.041792e+003 5.452856e+002 1.942314e+003
      endloop
   endfacet
   facet normal 2.122801e-016 -1.161583e-001 -9.932307e-001
      outer loop
         vertex 2.051792e+003 5.444173e+002 1.942390e+003
         vertex 2.041792e+003 5.452856e+002 1.942314e+003
         vertex 2.051792e+003 5.452856e+002 1.942314e+003
      endloop
   endfacet
   facet normal 1.828475e-016 -2.305518e-001 -9.730601e-001
      outer loop
         vertex 2.051792e+003 5.452856e+002 1.942314e+003
         vertex 2.041792e+003 5.452856e+002 1.942314e+003
         vertex 2.041792e+003 5.461274e+002 1.942088e+003
      endloop
   endfacet
   facet normal 1.671256e-016 -2.868663e-001 -9.579706e-001
      outer loop
         vertex 2.051792e+003 5.452856e+002 1.942314e+003
         vertex 2.041792e+003 5.461274e+002 1.942088e+003
         vertex 2.051792e+003 5.461274e+002 1.942088e+003
      endloop
   endfacet
   facet normal 1.341483e-016 -3.960194e-001 -9.182422e-001
      outer loop
         vertex 2.051792e+003 5.461274e+002 1.942088e+003
         vertex 2.041792e+003 5.461274e+002 1.942088e+003
         vertex 2.041792e+003 5.469173e+002 1.941720e+003
      endloop
   endfacet
   facet normal 1.168930e-016 -4.488580e-001 -8.936031e-001
      outer loop
         vertex 2.051792e+003 5.461274e+002 1.942088e+003
         vertex 2.041792e+003 5.469173e+002 1.941720e+003
         vertex 2.051792e+003 5.469173e+002 1.941720e+003
      endloop
   endfacet
   facet normal 8.137316e-017 -5.494540e-001 -8.355240e-001
      outer loop
         vertex 2.051792e+003 5.469173e+002 1.941720e+003
         vertex 2.041792e+003 5.469173e+002 1.941720e+003
         vertex 2.041792e+003 5.476313e+002 1.941220e+003
      endloop
   endfacet
   facet normal 6.310865e-017 -5.972114e-001 -8.020839e-001
      outer loop
         vertex 2.051792e+003 5.469173e+002 1.941720e+003
         vertex 2.041792e+003 5.476313e+002 1.941220e+003
         vertex 2.051792e+003 5.476313e+002 1.941220e+003
      endloop
   endfacet
   facet normal 2.612549e-017 -6.861938e-001 -7.274188e-001
      outer loop
         vertex 2.051792e+003 5.476313e+002 1.941220e+003
         vertex 2.041792e+003 5.476313e+002 1.941220e+003
         vertex 2.041792e+003 5.482476e+002 1.940604e+003
      endloop
   endfacet
   facet normal 7.406817e-018 -7.274188e-001 -6.861938e-001
      outer loop
         vertex 2.051792e+003 5.476313e+002 1.941220e+003
         vertex 2.041792e+003 5.482476e+002 1.940604e+003
         vertex 2.051792e+003 5.482476e+002 1.940604e+003
      endloop
   endfacet
   facet normal -2.991597e-017 -8.020839e-001 -5.972114e-001
      outer loop
         vertex 2.051792e+003 5.482476e+002 1.940604e+003
         vertex 2.041792e+003 5.482476e+002 1.940604e+003
         vertex 2.041792e+003 5.487475e+002 1.939890e+003
      endloop
   endfacet
   facet normal -4.852009e-017 -8.355240e-001 -5.494540e-001
      outer loop
         vertex 2.051792e+003 5.482476e+002 1.940604e+003
         vertex 2.041792e+003 5.487475e+002 1.939890e+003
         vertex 2.051792e+003 5.487475e+002 1.939890e+003
      endloop
   endfacet
   facet normal -8.504845e-017 -8.936031e-001 -4.488580e-001
      outer loop
         vertex 2.051792e+003 5.487475e+002 1.939890e+003
         vertex 2.041792e+003 5.487475e+002 1.939890e+003
         vertex 2.041792e+003 5.491158e+002 1.939100e+003
      endloop
   endfacet
   facet normal -1.029727e-016 -9.182422e-001 -3.960194e-001
      outer loop
         vertex 2.051792e+003 5.487475e+002 1.939890e+003
         vertex 2.041792e+003 5.491158e+002 1.939100e+003
         vertex 2.051792e+003 5.491158e+002 1.939100e+003
      endloop
   endfacet
   facet normal -1.375968e-016 -9.579706e-001 -2.868663e-001
      outer loop
         vertex 2.051792e+003 5.491158e+002 1.939100e+003
         vertex 2.041792e+003 5.491158e+002 1.939100e+003
         vertex 2.041792e+003 5.493414e+002 1.938258e+003
      endloop
   endfacet
   facet normal -1.542966e-016 -9.730601e-001 -2.305518e-001
      outer loop
         vertex 2.051792e+003 5.491158e+002 1.939100e+003
         vertex 2.041792e+003 5.493414e+002 1.938258e+003
         vertex 2.051792e+003 5.493414e+002 1.938258e+003
      endloop
   endfacet
   facet normal -1.859643e-016 -9.932307e-001 -1.161583e-001
      outer loop
         vertex 2.051792e+003 5.493414e+002 1.938258e+003
         vertex 2.041792e+003 5.493414e+002 1.938258e+003
         vertex 2.041792e+003 5.494173e+002 1.937390e+003
      endloop
   endfacet
   facet normal 3.210697e-016 7.071068e-001 -7.071068e-001
      outer loop
         vertex 2.041792e+003 5.504173e+002 1.926390e+003
         vertex 2.041792e+003 5.554174e+002 1.931390e+003
         vertex 2.051792e+003 5.504173e+002 1.926390e+003
      endloop
   endfacet
   facet normal 3.210697e-016 7.071068e-001 -7.071068e-001
      outer loop
         vertex 2.051792e+003 5.504173e+002 1.926390e+003
         vertex 2.041792e+003 5.554174e+002 1.931390e+003
         vertex 2.051792e+003 5.554174e+002 1.931390e+003
      endloop
   endfacet
endsolid