solid 09.025.00.00.000 - 09.025.00.08.000-2 09.025.00.08.015-1 09.025.00.08.0BB-2
   facet normal -1.000000e+000 6.019817e-016 -2.219066e-016
      outer loop
         vertex 2.113792e+003 5.354173e+002 2.248390e+003
         vertex 2.113792e+003 4.524174e+002 2.248390e+003
         vertex 2.113792e+003 5.354173e+002 2.252390e+003
      endloop
   endfacet
   facet normal -1.000000e+000 6.019817e-016 -2.219066e-016
      outer loop
         vertex 2.113792e+003 5.354173e+002 2.252390e+003
         vertex 2.113792e+003 4.524174e+002 2.248390e+003
         vertex 2.113792e+003 4.524174e+002 2.252390e+003
      endloop
   endfacet
   facet normal 1.000000e+000 -6.019817e-016 2.219066e-016
      outer loop
         vertex 2.153792e+003 4.524174e+002 2.248390e+003
         vertex 2.153792e+003 5.354173e+002 2.248390e+003
         vertex 2.153792e+003 4.524174e+002 2.252390e+003
      endloop
   endfacet
   facet normal 1.000000e+000 -6.019817e-016 2.219066e-016
      outer loop
         vertex 2.153792e+003 4.524174e+002 2.252390e+003
         vertex 2.153792e+003 5.354173e+002 2.248390e+003
         vertex 2.153792e+003 5.354173e+002 2.252390e+003
      endloop
   endfacet
   facet normal -4.809670e-016 -1.000000e+000 4.909267e-016
      outer loop
         vertex 2.113792e+003 4.524174e+002 2.248390e+003
         vertex 2.153792e+003 4.524174e+002 2.248390e+003
         vertex 2.113792e+003 4.524174e+002 2.252390e+003
      endloop
   endfacet
   facet normal -4.809670e-016 -1.000000e+000 4.909267e-016
      outer loop
         vertex 2.113792e+003 4.524174e+002 2.252390e+003
         vertex 2.153792e+003 4.524174e+002 2.248390e+003
         vertex 2.153792e+003 4.524174e+002 2.252390e+003
      endloop
   endfacet
   facet normal 2.382558e-016 -6.380082e-016 -1.000000e+000
      outer loop
         vertex 2.146650e+003 4.740673e+002 2.248390e+003
         vertex 2.146320e+003 4.745385e+002 2.248390e+003
         vertex 2.153792e+003 5.354173e+002 2.248390e+003
      endloop
   endfacet
   facet normal 2.382558e-016 -6.380082e-016 -1.000000e+000
      outer loop
         vertex 2.113792e+003 5.354173e+002 2.248390e+003
         vertex 2.142664e+003 4.755183e+002 2.248390e+003
         vertex 2.142142e+003 4.752752e+002 2.248390e+003
      endloop
   endfacet
   facet normal 2.382558e-016 -6.380082e-016 -1.000000e+000
      outer loop
         vertex 2.141671e+003 4.698894e+002 2.248390e+003
         vertex 2.113792e+003 4.524174e+002 2.248390e+003
         vertex 2.141264e+003 4.702961e+002 2.248390e+003
      endloop
   endfacet
   facet normal 2.382558e-016 -6.380082e-016 -1.000000e+000
      outer loop
         vertex 2.141264e+003 4.702961e+002 2.248390e+003
         vertex 2.113792e+003 4.524174e+002 2.248390e+003
         vertex 2.140934e+003 4.707673e+002 2.248390e+003
      endloop
   endfacet
   facet normal 2.382558e-016 -6.380082e-016 -1.000000e+000
      outer loop
         vertex 2.146650e+003 4.740673e+002 2.248390e+003
         vertex 2.153792e+003 5.354173e+002 2.248390e+003
         vertex 2.146893e+003 4.735460e+002 2.248390e+003
      endloop
   endfacet
   facet normal 2.382558e-016 -6.380082e-016 -1.000000e+000
      outer loop
         vertex 2.146320e+003 4.745385e+002 2.248390e+003
         vertex 2.145913e+003 4.749453e+002 2.248390e+003
         vertex 2.153792e+003 5.354173e+002 2.248390e+003
      endloop
   endfacet
   facet normal 2.382558e-016 -6.380082e-016 -1.000000e+000
      outer loop
         vertex 2.153792e+003 5.354173e+002 2.248390e+003
         vertex 2.145913e+003 4.749453e+002 2.248390e+003
         vertex 2.145442e+003 4.752752e+002 2.248390e+003
      endloop
   endfacet
   facet normal 2.382558e-016 -6.380082e-016 -1.000000e+000
      outer loop
         vertex 2.153792e+003 5.354173e+002 2.248390e+003
         vertex 2.145442e+003 4.752752e+002 2.248390e+003
         vertex 2.144921e+003 4.755183e+002 2.248390e+003
      endloop
   endfacet
   facet normal 2.382558e-016 -6.380082e-016 -1.000000e+000
      outer loop
         vertex 2.144921e+003 4.755183e+002 2.248390e+003
         vertex 2.144365e+003 4.756672e+002 2.248390e+003
         vertex 2.153792e+003 5.354173e+002 2.248390e+003
      endloop
   endfacet
   facet normal 2.382558e-016 -6.380082e-016 -1.000000e+000
      outer loop
         vertex 2.153792e+003 5.354173e+002 2.248390e+003
         vertex 2.144365e+003 4.756672e+002 2.248390e+003
         vertex 2.143792e+003 4.757173e+002 2.248390e+003
      endloop
   endfacet
   facet normal 2.382558e-016 -6.380082e-016 -1.000000e+000
      outer loop
         vertex 2.153792e+003 5.354173e+002 2.248390e+003
         vertex 2.143792e+003 4.757173e+002 2.248390e+003
         vertex 2.113792e+003 5.354173e+002 2.248390e+003
      endloop
   endfacet
   facet normal 2.382558e-016 -6.380082e-016 -1.000000e+000
      outer loop
         vertex 2.113792e+003 5.354173e+002 2.248390e+003
         vertex 2.143792e+003 4.757173e+002 2.248390e+003
         vertex 2.143219e+003 4.756672e+002 2.248390e+003
      endloop
   endfacet
   facet normal 2.382558e-016 -6.380082e-016 -1.000000e+000
      outer loop
         vertex 2.113792e+003 5.354173e+002 2.248390e+003
         vertex 2.143219e+003 4.756672e+002 2.248390e+003
         vertex 2.142664e+003 4.755183e+002 2.248390e+003
      endloop
   endfacet
   facet normal 2.382558e-016 -6.380082e-016 -1.000000e+000
      outer loop
         vertex 2.142142e+003 4.752752e+002 2.248390e+003
         vertex 2.141671e+003 4.749453e+002 2.248390e+003
         vertex 2.113792e+003 5.354173e+002 2.248390e+003
      endloop
   endfacet
   facet normal 2.382558e-016 -6.380082e-016 -1.000000e+000
      outer loop
         vertex 2.113792e+003 5.354173e+002 2.248390e+003
         vertex 2.141671e+003 4.749453e+002 2.248390e+003
         vertex 2.141264e+003 4.745385e+002 2.248390e+003
      endloop
   endfacet
   facet normal 2.382558e-016 -6.380082e-016 -1.000000e+000
      outer loop
         vertex 2.113792e+003 5.354173e+002 2.248390e+003
         vertex 2.141264e+003 4.745385e+002 2.248390e+003
         vertex 2.140934e+003 4.740673e+002 2.248390e+003
      endloop
   endfacet
   facet normal 2.382558e-016 -6.380082e-016 -1.000000e+000
      outer loop
         vertex 2.123219e+003 4.756672e+002 2.248390e+003
         vertex 2.122664e+003 4.755183e+002 2.248390e+003
         vertex 2.113792e+003 5.354173e+002 2.248390e+003
      endloop
   endfacet
   facet normal 2.382558e-016 -6.380082e-016 -1.000000e+000
      outer loop
         vertex 2.113792e+003 5.354173e+002 2.248390e+003
         vertex 2.122664e+003 4.755183e+002 2.248390e+003
         vertex 2.122142e+003 4.752752e+002 2.248390e+003
      endloop
   endfacet
   facet normal 2.382558e-016 -6.380082e-016 -1.000000e+000
      outer loop
         vertex 2.153792e+003 4.524174e+002 2.248390e+003
         vertex 2.146650e+003 4.707673e+002 2.248390e+003
         vertex 2.146893e+003 4.712887e+002 2.248390e+003
      endloop
   endfacet
   facet normal 2.382558e-016 -6.380082e-016 -1.000000e+000
      outer loop
         vertex 2.146893e+003 4.712887e+002 2.248390e+003
         vertex 2.147042e+003 4.718443e+002 2.248390e+003
         vertex 2.153792e+003 4.524174e+002 2.248390e+003
      endloop
   endfacet
   facet normal 2.382558e-016 -6.380082e-016 -1.000000e+000
      outer loop
         vertex 2.153792e+003 4.524174e+002 2.248390e+003
         vertex 2.147042e+003 4.718443e+002 2.248390e+003
         vertex 2.147092e+003 4.724173e+002 2.248390e+003
      endloop
   endfacet
   facet normal 2.382558e-016 -6.380082e-016 -1.000000e+000
      outer loop
         vertex 2.153792e+003 4.524174e+002 2.248390e+003
         vertex 2.147092e+003 4.724173e+002 2.248390e+003
         vertex 2.153792e+003 5.354173e+002 2.248390e+003
      endloop
   endfacet
   facet normal 2.382558e-016 -6.380082e-016 -1.000000e+000
      outer loop
         vertex 2.153792e+003 5.354173e+002 2.248390e+003
         vertex 2.147092e+003 4.724173e+002 2.248390e+003
         vertex 2.147042e+003 4.729904e+002 2.248390e+003
      endloop
   endfacet
   facet normal 2.382558e-016 -6.380082e-016 -1.000000e+000
      outer loop
         vertex 2.153792e+003 5.354173e+002 2.248390e+003
         vertex 2.147042e+003 4.729904e+002 2.248390e+003
         vertex 2.146893e+003 4.735460e+002 2.248390e+003
      endloop
   endfacet
   facet normal 2.382558e-016 -6.380082e-016 -1.000000e+000
      outer loop
         vertex 2.122142e+003 4.752752e+002 2.248390e+003
         vertex 2.121671e+003 4.749453e+002 2.248390e+003
         vertex 2.113792e+003 5.354173e+002 2.248390e+003
      endloop
   endfacet
   facet normal 2.382558e-016 -6.380082e-016 -1.000000e+000
      outer loop
         vertex 2.113792e+003 5.354173e+002 2.248390e+003
         vertex 2.121671e+003 4.749453e+002 2.248390e+003
         vertex 2.121264e+003 4.745385e+002 2.248390e+003
      endloop
   endfacet
   facet normal 2.382558e-016 -6.380082e-016 -1.000000e+000
      outer loop
         vertex 2.113792e+003 5.354173e+002 2.248390e+003
         vertex 2.121264e+003 4.745385e+002 2.248390e+003
         vertex 2.120934e+003 4.740673e+002 2.248390e+003
      endloop
   endfacet
   facet normal 2.382558e-016 -6.380082e-016 -1.000000e+000
      outer loop
         vertex 2.125442e+003 4.752752e+002 2.248390e+003
         vertex 2.124921e+003 4.755183e+002 2.248390e+003
         vertex 2.140934e+003 4.740673e+002 2.248390e+003
      endloop
   endfacet
   facet normal 2.382558e-016 -6.380082e-016 -1.000000e+000
      outer loop
         vertex 2.140934e+003 4.740673e+002 2.248390e+003
         vertex 2.124921e+003 4.755183e+002 2.248390e+003
         vertex 2.124365e+003 4.756672e+002 2.248390e+003
      endloop
   endfacet
   facet normal 2.382558e-016 -6.380082e-016 -1.000000e+000
      outer loop
         vertex 2.140934e+003 4.740673e+002 2.248390e+003
         vertex 2.124365e+003 4.756672e+002 2.248390e+003
         vertex 2.113792e+003 5.354173e+002 2.248390e+003
      endloop
   endfacet
   facet normal 2.382558e-016 -6.380082e-016 -1.000000e+000
      outer loop
         vertex 2.113792e+003 5.354173e+002 2.248390e+003
         vertex 2.124365e+003 4.756672e+002 2.248390e+003
         vertex 2.123792e+003 4.757173e+002 2.248390e+003
      endloop
   endfacet
   facet normal 2.382558e-016 -6.380082e-016 -1.000000e+000
      outer loop
         vertex 2.113792e+003 5.354173e+002 2.248390e+003
         vertex 2.123792e+003 4.757173e+002 2.248390e+003
         vertex 2.123219e+003 4.756672e+002 2.248390e+003
      endloop
   endfacet
   facet normal 2.382558e-016 -6.380082e-016 -1.000000e+000
      outer loop
         vertex 2.141671e+003 4.698894e+002 2.248390e+003
         vertex 2.142142e+003 4.695594e+002 2.248390e+003
         vertex 2.113792e+003 4.524174e+002 2.248390e+003
      endloop
   endfacet
   facet normal 2.382558e-016 -6.380082e-016 -1.000000e+000
      outer loop
         vertex 2.113792e+003 4.524174e+002 2.248390e+003
         vertex 2.142142e+003 4.695594e+002 2.248390e+003
         vertex 2.142664e+003 4.693163e+002 2.248390e+003
      endloop
   endfacet
   facet normal 2.382558e-016 -6.380082e-016 -1.000000e+000
      outer loop
         vertex 2.113792e+003 4.524174e+002 2.248390e+003
         vertex 2.142664e+003 4.693163e+002 2.248390e+003
         vertex 2.153792e+003 4.524174e+002 2.248390e+003
      endloop
   endfacet
   facet normal 2.382558e-016 -6.380082e-016 -1.000000e+000
      outer loop
         vertex 2.153792e+003 4.524174e+002 2.248390e+003
         vertex 2.142664e+003 4.693163e+002 2.248390e+003
         vertex 2.143219e+003 4.691675e+002 2.248390e+003
      endloop
   endfacet
   facet normal 2.382558e-016 -6.380082e-016 -1.000000e+000
      outer loop
         vertex 2.153792e+003 4.524174e+002 2.248390e+003
         vertex 2.143219e+003 4.691675e+002 2.248390e+003
         vertex 2.143792e+003 4.691173e+002 2.248390e+003
      endloop
   endfacet
   facet normal 2.382558e-016 -6.380082e-016 -1.000000e+000
      outer loop
         vertex 2.143792e+003 4.691173e+002 2.248390e+003
         vertex 2.144365e+003 4.691675e+002 2.248390e+003
         vertex 2.153792e+003 4.524174e+002 2.248390e+003
      endloop
   endfacet
   facet normal 2.382558e-016 -6.380082e-016 -1.000000e+000
      outer loop
         vertex 2.153792e+003 4.524174e+002 2.248390e+003
         vertex 2.144365e+003 4.691675e+002 2.248390e+003
         vertex 2.144921e+003 4.693163e+002 2.248390e+003
      endloop
   endfacet
   facet normal 2.382558e-016 -6.380082e-016 -1.000000e+000
      outer loop
         vertex 2.153792e+003 4.524174e+002 2.248390e+003
         vertex 2.144921e+003 4.693163e+002 2.248390e+003
         vertex 2.145442e+003 4.695594e+002 2.248390e+003
      endloop
   endfacet
   facet normal 2.382558e-016 -6.380082e-016 -1.000000e+000
      outer loop
         vertex 2.120542e+003 4.718443e+002 2.248390e+003
         vertex 2.120691e+003 4.712887e+002 2.248390e+003
         vertex 2.113792e+003 4.524174e+002 2.248390e+003
      endloop
   endfacet
   facet normal 2.382558e-016 -6.380082e-016 -1.000000e+000
      outer loop
         vertex 2.113792e+003 4.524174e+002 2.248390e+003
         vertex 2.120691e+003 4.712887e+002 2.248390e+003
         vertex 2.120934e+003 4.707673e+002 2.248390e+003
      endloop
   endfacet
   facet normal 2.382558e-016 -6.380082e-016 -1.000000e+000
      outer loop
         vertex 2.122142e+003 4.695594e+002 2.248390e+003
         vertex 2.122664e+003 4.693163e+002 2.248390e+003
         vertex 2.113792e+003 4.524174e+002 2.248390e+003
      endloop
   endfacet
   facet normal 2.382558e-016 -6.380082e-016 -1.000000e+000
      outer loop
         vertex 2.113792e+003 4.524174e+002 2.248390e+003
         vertex 2.122664e+003 4.693163e+002 2.248390e+003
         vertex 2.123219e+003 4.691675e+002 2.248390e+003
      endloop
   endfacet
   facet normal 2.382558e-016 -6.380082e-016 -1.000000e+000
      outer loop
         vertex 2.113792e+003 4.524174e+002 2.248390e+003
         vertex 2.123219e+003 4.691675e+002 2.248390e+003
         vertex 2.123792e+003 4.691173e+002 2.248390e+003
      endloop
   endfacet
   facet normal 2.382558e-016 -6.380082e-016 -1.000000e+000
      outer loop
         vertex 2.123792e+003 4.691173e+002 2.248390e+003
         vertex 2.124365e+003 4.691675e+002 2.248390e+003
         vertex 2.113792e+003 4.524174e+002 2.248390e+003
      endloop
   endfacet
   facet normal 2.382558e-016 -6.380082e-016 -1.000000e+000
      outer loop
         vertex 2.113792e+003 4.524174e+002 2.248390e+003
         vertex 2.124365e+003 4.691675e+002 2.248390e+003
         vertex 2.124921e+003 4.693163e+002 2.248390e+003
      endloop
   endfacet
   facet normal 2.382558e-016 -6.380082e-016 -1.000000e+000
      outer loop
         vertex 2.113792e+003 4.524174e+002 2.248390e+003
         vertex 2.124921e+003 4.693163e+002 2.248390e+003
         vertex 2.125442e+003 4.695594e+002 2.248390e+003
      endloop
   endfacet
   facet normal 2.382558e-016 -6.380082e-016 -1.000000e+000
      outer loop
         vertex 2.140934e+003 4.707673e+002 2.248390e+003
         vertex 2.113792e+003 4.524174e+002 2.248390e+003
         vertex 2.140691e+003 4.712887e+002 2.248390e+003
      endloop
   endfacet
   facet normal 2.382558e-016 -6.380082e-016 -1.000000e+000
      outer loop
         vertex 2.140691e+003 4.712887e+002 2.248390e+003
         vertex 2.113792e+003 4.524174e+002 2.248390e+003
         vertex 2.125442e+003 4.695594e+002 2.248390e+003
      endloop
   endfacet
   facet normal 2.382558e-016 -6.380082e-016 -1.000000e+000
      outer loop
         vertex 2.140691e+003 4.712887e+002 2.248390e+003
         vertex 2.125442e+003 4.695594e+002 2.248390e+003
         vertex 2.140542e+003 4.718443e+002 2.248390e+003
      endloop
   endfacet
   facet normal 2.382558e-016 -6.380082e-016 -1.000000e+000
      outer loop
         vertex 2.145442e+003 4.695594e+002 2.248390e+003
         vertex 2.145913e+003 4.698894e+002 2.248390e+003
         vertex 2.153792e+003 4.524174e+002 2.248390e+003
      endloop
   endfacet
   facet normal 2.382558e-016 -6.380082e-016 -1.000000e+000
      outer loop
         vertex 2.153792e+003 4.524174e+002 2.248390e+003
         vertex 2.145913e+003 4.698894e+002 2.248390e+003
         vertex 2.146320e+003 4.702961e+002 2.248390e+003
      endloop
   endfacet
   facet normal 2.382558e-016 -6.380082e-016 -1.000000e+000
      outer loop
         vertex 2.153792e+003 4.524174e+002 2.248390e+003
         vertex 2.146320e+003 4.702961e+002 2.248390e+003
         vertex 2.146650e+003 4.707673e+002 2.248390e+003
      endloop
   endfacet
   facet normal 2.382558e-016 -6.380082e-016 -1.000000e+000
      outer loop
         vertex 2.120934e+003 4.707673e+002 2.248390e+003
         vertex 2.121264e+003 4.702961e+002 2.248390e+003
         vertex 2.113792e+003 4.524174e+002 2.248390e+003
      endloop
   endfacet
   facet normal 2.382558e-016 -6.380082e-016 -1.000000e+000
      outer loop
         vertex 2.113792e+003 4.524174e+002 2.248390e+003
         vertex 2.121264e+003 4.702961e+002 2.248390e+003
         vertex 2.121671e+003 4.698894e+002 2.248390e+003
      endloop
   endfacet
   facet normal 2.382558e-016 -6.380082e-016 -1.000000e+000
      outer loop
         vertex 2.113792e+003 4.524174e+002 2.248390e+003
         vertex 2.121671e+003 4.698894e+002 2.248390e+003
         vertex 2.122142e+003 4.695594e+002 2.248390e+003
      endloop
   endfacet
   facet normal 2.382558e-016 -6.380082e-016 -1.000000e+000
      outer loop
         vertex 2.127042e+003 4.729904e+002 2.248390e+003
         vertex 2.126893e+003 4.735460e+002 2.248390e+003
         vertex 2.140934e+003 4.740673e+002 2.248390e+003
      endloop
   endfacet
   facet normal 2.382558e-016 -6.380082e-016 -1.000000e+000
      outer loop
         vertex 2.140934e+003 4.740673e+002 2.248390e+003
         vertex 2.126893e+003 4.735460e+002 2.248390e+003
         vertex 2.126650e+003 4.740673e+002 2.248390e+003
      endloop
   endfacet
   facet normal 2.382558e-016 -6.380082e-016 -1.000000e+000
      outer loop
         vertex 2.120934e+003 4.740673e+002 2.248390e+003
         vertex 2.120691e+003 4.735460e+002 2.248390e+003
         vertex 2.113792e+003 5.354173e+002 2.248390e+003
      endloop
   endfacet
   facet normal 2.382558e-016 -6.380082e-016 -1.000000e+000
      outer loop
         vertex 2.113792e+003 5.354173e+002 2.248390e+003
         vertex 2.120691e+003 4.735460e+002 2.248390e+003
         vertex 2.120542e+003 4.729904e+002 2.248390e+003
      endloop
   endfacet
   facet normal 2.382558e-016 -6.380082e-016 -1.000000e+000
      outer loop
         vertex 2.113792e+003 5.354173e+002 2.248390e+003
         vertex 2.120542e+003 4.729904e+002 2.248390e+003
         vertex 2.113792e+003 4.524174e+002 2.248390e+003
      endloop
   endfacet
   facet normal 2.382558e-016 -6.380082e-016 -1.000000e+000
      outer loop
         vertex 2.113792e+003 4.524174e+002 2.248390e+003
         vertex 2.120542e+003 4.729904e+002 2.248390e+003
         vertex 2.120492e+003 4.724173e+002 2.248390e+003
      endloop
   endfacet
   facet normal 2.382558e-016 -6.380082e-016 -1.000000e+000
      outer loop
         vertex 2.113792e+003 4.524174e+002 2.248390e+003
         vertex 2.120492e+003 4.724173e+002 2.248390e+003
         vertex 2.120542e+003 4.718443e+002 2.248390e+003
      endloop
   endfacet
   facet normal 2.382558e-016 -6.380082e-016 -1.000000e+000
      outer loop
         vertex 2.126650e+003 4.740673e+002 2.248390e+003
         vertex 2.126320e+003 4.745385e+002 2.248390e+003
         vertex 2.140934e+003 4.740673e+002 2.248390e+003
      endloop
   endfacet
   facet normal 2.382558e-016 -6.380082e-016 -1.000000e+000
      outer loop
         vertex 2.140934e+003 4.740673e+002 2.248390e+003
         vertex 2.126320e+003 4.745385e+002 2.248390e+003
         vertex 2.125913e+003 4.749453e+002 2.248390e+003
      endloop
   endfacet
   facet normal 2.382558e-016 -6.380082e-016 -1.000000e+000
      outer loop
         vertex 2.140934e+003 4.740673e+002 2.248390e+003
         vertex 2.125913e+003 4.749453e+002 2.248390e+003
         vertex 2.125442e+003 4.752752e+002 2.248390e+003
      endloop
   endfacet
   facet normal 2.382558e-016 -6.380082e-016 -1.000000e+000
      outer loop
         vertex 2.125442e+003 4.695594e+002 2.248390e+003
         vertex 2.125913e+003 4.698894e+002 2.248390e+003
         vertex 2.140542e+003 4.718443e+002 2.248390e+003
      endloop
   endfacet
   facet normal 2.382558e-016 -6.380082e-016 -1.000000e+000
      outer loop
         vertex 2.140542e+003 4.718443e+002 2.248390e+003
         vertex 2.125913e+003 4.698894e+002 2.248390e+003
         vertex 2.126320e+003 4.702961e+002 2.248390e+003
      endloop
   endfacet
   facet normal 2.382558e-016 -6.380082e-016 -1.000000e+000
      outer loop
         vertex 2.140542e+003 4.718443e+002 2.248390e+003
         vertex 2.126320e+003 4.702961e+002 2.248390e+003
         vertex 2.126650e+003 4.707673e+002 2.248390e+003
      endloop
   endfacet
   facet normal 2.382558e-016 -6.380082e-016 -1.000000e+000
      outer loop
         vertex 2.140934e+003 4.740673e+002 2.248390e+003
         vertex 2.140691e+003 4.735460e+002 2.248390e+003
         vertex 2.127042e+003 4.729904e+002 2.248390e+003
      endloop
   endfacet
   facet normal 2.382558e-016 -6.380082e-016 -1.000000e+000
      outer loop
         vertex 2.127042e+003 4.729904e+002 2.248390e+003
         vertex 2.140691e+003 4.735460e+002 2.248390e+003
         vertex 2.140542e+003 4.729904e+002 2.248390e+003
      endloop
   endfacet
   facet normal 2.382558e-016 -6.380082e-016 -1.000000e+000
      outer loop
         vertex 2.127042e+003 4.729904e+002 2.248390e+003
         vertex 2.140542e+003 4.729904e+002 2.248390e+003
         vertex 2.127092e+003 4.724173e+002 2.248390e+003
      endloop
   endfacet
   facet normal 2.382558e-016 -6.380082e-016 -1.000000e+000
      outer loop
         vertex 2.127092e+003 4.724173e+002 2.248390e+003
         vertex 2.140542e+003 4.729904e+002 2.248390e+003
         vertex 2.140492e+003 4.724173e+002 2.248390e+003
      endloop
   endfacet
   facet normal 2.382558e-016 -6.380082e-016 -1.000000e+000
      outer loop
         vertex 2.127092e+003 4.724173e+002 2.248390e+003
         vertex 2.140492e+003 4.724173e+002 2.248390e+003
         vertex 2.127042e+003 4.718443e+002 2.248390e+003
      endloop
   endfacet
   facet normal 2.382558e-016 -6.380082e-016 -1.000000e+000
      outer loop
         vertex 2.127042e+003 4.718443e+002 2.248390e+003
         vertex 2.140492e+003 4.724173e+002 2.248390e+003
         vertex 2.140542e+003 4.718443e+002 2.248390e+003
      endloop
   endfacet
   facet normal 2.382558e-016 -6.380082e-016 -1.000000e+000
      outer loop
         vertex 2.127042e+003 4.718443e+002 2.248390e+003
         vertex 2.140542e+003 4.718443e+002 2.248390e+003
         vertex 2.126893e+003 4.712887e+002 2.248390e+003
      endloop
   endfacet
   facet normal 2.382558e-016 -6.380082e-016 -1.000000e+000
      outer loop
         vertex 2.126893e+003 4.712887e+002 2.248390e+003
         vertex 2.140542e+003 4.718443e+002 2.248390e+003
         vertex 2.126650e+003 4.707673e+002 2.248390e+003
      endloop
   endfacet
   facet normal -2.382558e-016 6.380082e-016 1.000000e+000
      outer loop
         vertex 2.125913e+003 4.749453e+002 2.252390e+003
         vertex 2.141671e+003 4.698894e+002 2.252390e+003
         vertex 2.125442e+003 4.752752e+002 2.252390e+003
      endloop
   endfacet
   facet normal -2.382558e-016 6.380082e-016 1.000000e+000
      outer loop
         vertex 2.125442e+003 4.752752e+002 2.252390e+003
         vertex 2.141671e+003 4.698894e+002 2.252390e+003
         vertex 2.124921e+003 4.755183e+002 2.252390e+003
      endloop
   endfacet
   facet normal -2.382558e-016 6.380082e-016 1.000000e+000
      outer loop
         vertex 2.145913e+003 4.749453e+002 2.252390e+003
         vertex 2.146320e+003 4.745385e+002 2.252390e+003
         vertex 2.153792e+003 5.354173e+002 2.252390e+003
      endloop
   endfacet
   facet normal -2.382558e-016 6.380082e-016 1.000000e+000
      outer loop
         vertex 2.153792e+003 5.354173e+002 2.252390e+003
         vertex 2.146320e+003 4.745385e+002 2.252390e+003
         vertex 2.146650e+003 4.740673e+002 2.252390e+003
      endloop
   endfacet
   facet normal -2.382558e-016 6.380082e-016 1.000000e+000
      outer loop
         vertex 2.143219e+003 4.691675e+002 2.252390e+003
         vertex 2.142664e+003 4.693163e+002 2.252390e+003
         vertex 2.153792e+003 4.524174e+002 2.252390e+003
      endloop
   endfacet
   facet normal -2.382558e-016 6.380082e-016 1.000000e+000
      outer loop
         vertex 2.141671e+003 4.698894e+002 2.252390e+003
         vertex 2.141264e+003 4.702961e+002 2.252390e+003
         vertex 2.124921e+003 4.755183e+002 2.252390e+003
      endloop
   endfacet
   facet normal -2.382558e-016 6.380082e-016 1.000000e+000
      outer loop
         vertex 2.124921e+003 4.755183e+002 2.252390e+003
         vertex 2.141264e+003 4.702961e+002 2.252390e+003
         vertex 2.140934e+003 4.707673e+002 2.252390e+003
      endloop
   endfacet
   facet normal -2.382558e-016 6.380082e-016 1.000000e+000
      outer loop
         vertex 2.124921e+003 4.755183e+002 2.252390e+003
         vertex 2.140934e+003 4.707673e+002 2.252390e+003
         vertex 2.140691e+003 4.712887e+002 2.252390e+003
      endloop
   endfacet
   facet normal -2.382558e-016 6.380082e-016 1.000000e+000
      outer loop
         vertex 2.144921e+003 4.693163e+002 2.252390e+003
         vertex 2.144365e+003 4.691675e+002 2.252390e+003
         vertex 2.153792e+003 4.524174e+002 2.252390e+003
      endloop
   endfacet
   facet normal -2.382558e-016 6.380082e-016 1.000000e+000
      outer loop
         vertex 2.153792e+003 4.524174e+002 2.252390e+003
         vertex 2.144365e+003 4.691675e+002 2.252390e+003
         vertex 2.143792e+003 4.691173e+002 2.252390e+003
      endloop
   endfacet
   facet normal -2.382558e-016 6.380082e-016 1.000000e+000
      outer loop
         vertex 2.153792e+003 4.524174e+002 2.252390e+003
         vertex 2.143792e+003 4.691173e+002 2.252390e+003
         vertex 2.143219e+003 4.691675e+002 2.252390e+003
      endloop
   endfacet
   facet normal -2.382558e-016 6.380082e-016 1.000000e+000
      outer loop
         vertex 2.113792e+003 4.524174e+002 2.252390e+003
         vertex 2.153792e+003 4.524174e+002 2.252390e+003
         vertex 2.124921e+003 4.693163e+002 2.252390e+003
      endloop
   endfacet
   facet normal -2.382558e-016 6.380082e-016 1.000000e+000
      outer loop
         vertex 2.124921e+003 4.693163e+002 2.252390e+003
         vertex 2.124365e+003 4.691675e+002 2.252390e+003
         vertex 2.113792e+003 4.524174e+002 2.252390e+003
      endloop
   endfacet
   facet normal -2.382558e-016 6.380082e-016 1.000000e+000
      outer loop
         vertex 2.113792e+003 4.524174e+002 2.252390e+003
         vertex 2.124365e+003 4.691675e+002 2.252390e+003
         vertex 2.123792e+003 4.691173e+002 2.252390e+003
      endloop
   endfacet
   facet normal -2.382558e-016 6.380082e-016 1.000000e+000
      outer loop
         vertex 2.113792e+003 4.524174e+002 2.252390e+003
         vertex 2.123792e+003 4.691173e+002 2.252390e+003
         vertex 2.123219e+003 4.691675e+002 2.252390e+003
      endloop
   endfacet
   facet normal -2.382558e-016 6.380082e-016 1.000000e+000
      outer loop
         vertex 2.146650e+003 4.740673e+002 2.252390e+003
         vertex 2.146893e+003 4.735460e+002 2.252390e+003
         vertex 2.153792e+003 5.354173e+002 2.252390e+003
      endloop
   endfacet
   facet normal -2.382558e-016 6.380082e-016 1.000000e+000
      outer loop
         vertex 2.153792e+003 5.354173e+002 2.252390e+003
         vertex 2.146893e+003 4.735460e+002 2.252390e+003
         vertex 2.147042e+003 4.729904e+002 2.252390e+003
      endloop
   endfacet
   facet normal -2.382558e-016 6.380082e-016 1.000000e+000
      outer loop
         vertex 2.153792e+003 5.354173e+002 2.252390e+003
         vertex 2.147042e+003 4.729904e+002 2.252390e+003
         vertex 2.153792e+003 4.524174e+002 2.252390e+003
      endloop
   endfacet
   facet normal -2.382558e-016 6.380082e-016 1.000000e+000
      outer loop
         vertex 2.153792e+003 4.524174e+002 2.252390e+003
         vertex 2.147042e+003 4.729904e+002 2.252390e+003
         vertex 2.147092e+003 4.724173e+002 2.252390e+003
      endloop
   endfacet
   facet normal -2.382558e-016 6.380082e-016 1.000000e+000
      outer loop
         vertex 2.153792e+003 4.524174e+002 2.252390e+003
         vertex 2.147092e+003 4.724173e+002 2.252390e+003
         vertex 2.147042e+003 4.718443e+002 2.252390e+003
      endloop
   endfacet
   facet normal -2.382558e-016 6.380082e-016 1.000000e+000
      outer loop
         vertex 2.144365e+003 4.756672e+002 2.252390e+003
         vertex 2.144921e+003 4.755183e+002 2.252390e+003
         vertex 2.153792e+003 5.354173e+002 2.252390e+003
      endloop
   endfacet
   facet normal -2.382558e-016 6.380082e-016 1.000000e+000
      outer loop
         vertex 2.153792e+003 5.354173e+002 2.252390e+003
         vertex 2.144921e+003 4.755183e+002 2.252390e+003
         vertex 2.145442e+003 4.752752e+002 2.252390e+003
      endloop
   endfacet
   facet normal -2.382558e-016 6.380082e-016 1.000000e+000
      outer loop
         vertex 2.153792e+003 5.354173e+002 2.252390e+003
         vertex 2.145442e+003 4.752752e+002 2.252390e+003
         vertex 2.145913e+003 4.749453e+002 2.252390e+003
      endloop
   endfacet
   facet normal -2.382558e-016 6.380082e-016 1.000000e+000
      outer loop
         vertex 2.147042e+003 4.718443e+002 2.252390e+003
         vertex 2.146893e+003 4.712887e+002 2.252390e+003
         vertex 2.153792e+003 4.524174e+002 2.252390e+003
      endloop
   endfacet
   facet normal -2.382558e-016 6.380082e-016 1.000000e+000
      outer loop
         vertex 2.153792e+003 4.524174e+002 2.252390e+003
         vertex 2.146893e+003 4.712887e+002 2.252390e+003
         vertex 2.146650e+003 4.707673e+002 2.252390e+003
      endloop
   endfacet
   facet normal -2.382558e-016 6.380082e-016 1.000000e+000
      outer loop
         vertex 2.153792e+003 4.524174e+002 2.252390e+003
         vertex 2.146650e+003 4.707673e+002 2.252390e+003
         vertex 2.146320e+003 4.702961e+002 2.252390e+003
      endloop
   endfacet
   facet normal -2.382558e-016 6.380082e-016 1.000000e+000
      outer loop
         vertex 2.125913e+003 4.749453e+002 2.252390e+003
         vertex 2.126320e+003 4.745385e+002 2.252390e+003
         vertex 2.141671e+003 4.698894e+002 2.252390e+003
      endloop
   endfacet
   facet normal -2.382558e-016 6.380082e-016 1.000000e+000
      outer loop
         vertex 2.141671e+003 4.698894e+002 2.252390e+003
         vertex 2.126320e+003 4.745385e+002 2.252390e+003
         vertex 2.126650e+003 4.740673e+002 2.252390e+003
      endloop
   endfacet
   facet normal -2.382558e-016 6.380082e-016 1.000000e+000
      outer loop
         vertex 2.141671e+003 4.698894e+002 2.252390e+003
         vertex 2.126650e+003 4.740673e+002 2.252390e+003
         vertex 2.126893e+003 4.735460e+002 2.252390e+003
      endloop
   endfacet
   facet normal -2.382558e-016 6.380082e-016 1.000000e+000
      outer loop
         vertex 2.126320e+003 4.702961e+002 2.252390e+003
         vertex 2.125913e+003 4.698894e+002 2.252390e+003
         vertex 2.153792e+003 4.524174e+002 2.252390e+003
      endloop
   endfacet
   facet normal -2.382558e-016 6.380082e-016 1.000000e+000
      outer loop
         vertex 2.153792e+003 4.524174e+002 2.252390e+003
         vertex 2.125913e+003 4.698894e+002 2.252390e+003
         vertex 2.125442e+003 4.695594e+002 2.252390e+003
      endloop
   endfacet
   facet normal -2.382558e-016 6.380082e-016 1.000000e+000
      outer loop
         vertex 2.153792e+003 4.524174e+002 2.252390e+003
         vertex 2.125442e+003 4.695594e+002 2.252390e+003
         vertex 2.124921e+003 4.693163e+002 2.252390e+003
      endloop
   endfacet
   facet normal -2.382558e-016 6.380082e-016 1.000000e+000
      outer loop
         vertex 2.140691e+003 4.712887e+002 2.252390e+003
         vertex 2.140542e+003 4.718443e+002 2.252390e+003
         vertex 2.124921e+003 4.755183e+002 2.252390e+003
      endloop
   endfacet
   facet normal -2.382558e-016 6.380082e-016 1.000000e+000
      outer loop
         vertex 2.124921e+003 4.755183e+002 2.252390e+003
         vertex 2.140542e+003 4.718443e+002 2.252390e+003
         vertex 2.140492e+003 4.724173e+002 2.252390e+003
      endloop
   endfacet
   facet normal -2.382558e-016 6.380082e-016 1.000000e+000
      outer loop
         vertex 2.124921e+003 4.755183e+002 2.252390e+003
         vertex 2.140492e+003 4.724173e+002 2.252390e+003
         vertex 2.124365e+003 4.756672e+002 2.252390e+003
      endloop
   endfacet
   facet normal -2.382558e-016 6.380082e-016 1.000000e+000
      outer loop
         vertex 2.124365e+003 4.756672e+002 2.252390e+003
         vertex 2.140492e+003 4.724173e+002 2.252390e+003
         vertex 2.140542e+003 4.729904e+002 2.252390e+003
      endloop
   endfacet
   facet normal -2.382558e-016 6.380082e-016 1.000000e+000
      outer loop
         vertex 2.124365e+003 4.756672e+002 2.252390e+003
         vertex 2.140542e+003 4.729904e+002 2.252390e+003
         vertex 2.140691e+003 4.735460e+002 2.252390e+003
      endloop
   endfacet
   facet normal -2.382558e-016 6.380082e-016 1.000000e+000
      outer loop
         vertex 2.122664e+003 4.755183e+002 2.252390e+003
         vertex 2.113792e+003 5.354173e+002 2.252390e+003
         vertex 2.122142e+003 4.752752e+002 2.252390e+003
      endloop
   endfacet
   facet normal -2.382558e-016 6.380082e-016 1.000000e+000
      outer loop
         vertex 2.122142e+003 4.752752e+002 2.252390e+003
         vertex 2.113792e+003 5.354173e+002 2.252390e+003
         vertex 2.121671e+003 4.749453e+002 2.252390e+003
      endloop
   endfacet
   facet normal -2.382558e-016 6.380082e-016 1.000000e+000
      outer loop
         vertex 2.146320e+003 4.702961e+002 2.252390e+003
         vertex 2.145913e+003 4.698894e+002 2.252390e+003
         vertex 2.153792e+003 4.524174e+002 2.252390e+003
      endloop
   endfacet
   facet normal -2.382558e-016 6.380082e-016 1.000000e+000
      outer loop
         vertex 2.153792e+003 4.524174e+002 2.252390e+003
         vertex 2.145913e+003 4.698894e+002 2.252390e+003
         vertex 2.145442e+003 4.695594e+002 2.252390e+003
      endloop
   endfacet
   facet normal -2.382558e-016 6.380082e-016 1.000000e+000
      outer loop
         vertex 2.153792e+003 4.524174e+002 2.252390e+003
         vertex 2.145442e+003 4.695594e+002 2.252390e+003
         vertex 2.144921e+003 4.693163e+002 2.252390e+003
      endloop
   endfacet
   facet normal -2.382558e-016 6.380082e-016 1.000000e+000
      outer loop
         vertex 2.123219e+003 4.691675e+002 2.252390e+003
         vertex 2.122664e+003 4.693163e+002 2.252390e+003
         vertex 2.113792e+003 4.524174e+002 2.252390e+003
      endloop
   endfacet
   facet normal -2.382558e-016 6.380082e-016 1.000000e+000
      outer loop
         vertex 2.113792e+003 4.524174e+002 2.252390e+003
         vertex 2.122664e+003 4.693163e+002 2.252390e+003
         vertex 2.122142e+003 4.695594e+002 2.252390e+003
      endloop
   endfacet
   facet normal -2.382558e-016 6.380082e-016 1.000000e+000
      outer loop
         vertex 2.113792e+003 4.524174e+002 2.252390e+003
         vertex 2.122142e+003 4.695594e+002 2.252390e+003
         vertex 2.121671e+003 4.698894e+002 2.252390e+003
      endloop
   endfacet
   facet normal -2.382558e-016 6.380082e-016 1.000000e+000
      outer loop
         vertex 2.142142e+003 4.752752e+002 2.252390e+003
         vertex 2.142664e+003 4.755183e+002 2.252390e+003
         vertex 2.113792e+003 5.354173e+002 2.252390e+003
      endloop
   endfacet
   facet normal -2.382558e-016 6.380082e-016 1.000000e+000
      outer loop
         vertex 2.113792e+003 5.354173e+002 2.252390e+003
         vertex 2.142664e+003 4.755183e+002 2.252390e+003
         vertex 2.143219e+003 4.756672e+002 2.252390e+003
      endloop
   endfacet
   facet normal -2.382558e-016 6.380082e-016 1.000000e+000
      outer loop
         vertex 2.113792e+003 5.354173e+002 2.252390e+003
         vertex 2.143219e+003 4.756672e+002 2.252390e+003
         vertex 2.153792e+003 5.354173e+002 2.252390e+003
      endloop
   endfacet
   facet normal -2.382558e-016 6.380082e-016 1.000000e+000
      outer loop
         vertex 2.153792e+003 5.354173e+002 2.252390e+003
         vertex 2.143219e+003 4.756672e+002 2.252390e+003
         vertex 2.143792e+003 4.757173e+002 2.252390e+003
      endloop
   endfacet
   facet normal -2.382558e-016 6.380082e-016 1.000000e+000
      outer loop
         vertex 2.153792e+003 5.354173e+002 2.252390e+003
         vertex 2.143792e+003 4.757173e+002 2.252390e+003
         vertex 2.144365e+003 4.756672e+002 2.252390e+003
      endloop
   endfacet
   facet normal -2.382558e-016 6.380082e-016 1.000000e+000
      outer loop
         vertex 2.126893e+003 4.735460e+002 2.252390e+003
         vertex 2.127042e+003 4.729904e+002 2.252390e+003
         vertex 2.141671e+003 4.698894e+002 2.252390e+003
      endloop
   endfacet
   facet normal -2.382558e-016 6.380082e-016 1.000000e+000
      outer loop
         vertex 2.141671e+003 4.698894e+002 2.252390e+003
         vertex 2.127042e+003 4.729904e+002 2.252390e+003
         vertex 2.127092e+003 4.724173e+002 2.252390e+003
      endloop
   endfacet
   facet normal -2.382558e-016 6.380082e-016 1.000000e+000
      outer loop
         vertex 2.141671e+003 4.698894e+002 2.252390e+003
         vertex 2.127092e+003 4.724173e+002 2.252390e+003
         vertex 2.142142e+003 4.695594e+002 2.252390e+003
      endloop
   endfacet
   facet normal -2.382558e-016 6.380082e-016 1.000000e+000
      outer loop
         vertex 2.142142e+003 4.695594e+002 2.252390e+003
         vertex 2.127092e+003 4.724173e+002 2.252390e+003
         vertex 2.127042e+003 4.718443e+002 2.252390e+003
      endloop
   endfacet
   facet normal -2.382558e-016 6.380082e-016 1.000000e+000
      outer loop
         vertex 2.142142e+003 4.695594e+002 2.252390e+003
         vertex 2.127042e+003 4.718443e+002 2.252390e+003
         vertex 2.142664e+003 4.693163e+002 2.252390e+003
      endloop
   endfacet
   facet normal -2.382558e-016 6.380082e-016 1.000000e+000
      outer loop
         vertex 2.142664e+003 4.693163e+002 2.252390e+003
         vertex 2.127042e+003 4.718443e+002 2.252390e+003
         vertex 2.126893e+003 4.712887e+002 2.252390e+003
      endloop
   endfacet
   facet normal -2.382558e-016 6.380082e-016 1.000000e+000
      outer loop
         vertex 2.142664e+003 4.693163e+002 2.252390e+003
         vertex 2.126893e+003 4.712887e+002 2.252390e+003
         vertex 2.153792e+003 4.524174e+002 2.252390e+003
      endloop
   endfacet
   facet normal -2.382558e-016 6.380082e-016 1.000000e+000
      outer loop
         vertex 2.153792e+003 4.524174e+002 2.252390e+003
         vertex 2.126893e+003 4.712887e+002 2.252390e+003
         vertex 2.126650e+003 4.707673e+002 2.252390e+003
      endloop
   endfacet
   facet normal -2.382558e-016 6.380082e-016 1.000000e+000
      outer loop
         vertex 2.153792e+003 4.524174e+002 2.252390e+003
         vertex 2.126650e+003 4.707673e+002 2.252390e+003
         vertex 2.126320e+003 4.702961e+002 2.252390e+003
      endloop
   endfacet
   facet normal -2.382558e-016 6.380082e-016 1.000000e+000
      outer loop
         vertex 2.120691e+003 4.735460e+002 2.252390e+003
         vertex 2.120934e+003 4.740673e+002 2.252390e+003
         vertex 2.113792e+003 5.354173e+002 2.252390e+003
      endloop
   endfacet
   facet normal -2.382558e-016 6.380082e-016 1.000000e+000
      outer loop
         vertex 2.113792e+003 5.354173e+002 2.252390e+003
         vertex 2.120934e+003 4.740673e+002 2.252390e+003
         vertex 2.121264e+003 4.745385e+002 2.252390e+003
      endloop
   endfacet
   facet normal -2.382558e-016 6.380082e-016 1.000000e+000
      outer loop
         vertex 2.113792e+003 5.354173e+002 2.252390e+003
         vertex 2.121264e+003 4.745385e+002 2.252390e+003
         vertex 2.121671e+003 4.749453e+002 2.252390e+003
      endloop
   endfacet
   facet normal -2.382558e-016 6.380082e-016 1.000000e+000
      outer loop
         vertex 2.121671e+003 4.698894e+002 2.252390e+003
         vertex 2.121264e+003 4.702961e+002 2.252390e+003
         vertex 2.113792e+003 4.524174e+002 2.252390e+003
      endloop
   endfacet
   facet normal -2.382558e-016 6.380082e-016 1.000000e+000
      outer loop
         vertex 2.113792e+003 4.524174e+002 2.252390e+003
         vertex 2.121264e+003 4.702961e+002 2.252390e+003
         vertex 2.120934e+003 4.707673e+002 2.252390e+003
      endloop
   endfacet
   facet normal -2.382558e-016 6.380082e-016 1.000000e+000
      outer loop
         vertex 2.113792e+003 4.524174e+002 2.252390e+003
         vertex 2.120934e+003 4.707673e+002 2.252390e+003
         vertex 2.120691e+003 4.712887e+002 2.252390e+003
      endloop
   endfacet
   facet normal -2.382558e-016 6.380082e-016 1.000000e+000
      outer loop
         vertex 2.122664e+003 4.755183e+002 2.252390e+003
         vertex 2.123219e+003 4.756672e+002 2.252390e+003
         vertex 2.113792e+003 5.354173e+002 2.252390e+003
      endloop
   endfacet
   facet normal -2.382558e-016 6.380082e-016 1.000000e+000
      outer loop
         vertex 2.113792e+003 5.354173e+002 2.252390e+003
         vertex 2.123219e+003 4.756672e+002 2.252390e+003
         vertex 2.123792e+003 4.757173e+002 2.252390e+003
      endloop
   endfacet
   facet normal -2.382558e-016 6.380082e-016 1.000000e+000
      outer loop
         vertex 2.113792e+003 5.354173e+002 2.252390e+003
         vertex 2.123792e+003 4.757173e+002 2.252390e+003
         vertex 2.124365e+003 4.756672e+002 2.252390e+003
      endloop
   endfacet
   facet normal -2.382558e-016 6.380082e-016 1.000000e+000
      outer loop
         vertex 2.120691e+003 4.712887e+002 2.252390e+003
         vertex 2.120542e+003 4.718443e+002 2.252390e+003
         vertex 2.113792e+003 4.524174e+002 2.252390e+003
      endloop
   endfacet
   facet normal -2.382558e-016 6.380082e-016 1.000000e+000
      outer loop
         vertex 2.113792e+003 4.524174e+002 2.252390e+003
         vertex 2.120542e+003 4.718443e+002 2.252390e+003
         vertex 2.120492e+003 4.724173e+002 2.252390e+003
      endloop
   endfacet
   facet normal -2.382558e-016 6.380082e-016 1.000000e+000
      outer loop
         vertex 2.113792e+003 4.524174e+002 2.252390e+003
         vertex 2.120492e+003 4.724173e+002 2.252390e+003
         vertex 2.113792e+003 5.354173e+002 2.252390e+003
      endloop
   endfacet
   facet normal -2.382558e-016 6.380082e-016 1.000000e+000
      outer loop
         vertex 2.113792e+003 5.354173e+002 2.252390e+003
         vertex 2.120492e+003 4.724173e+002 2.252390e+003
         vertex 2.120542e+003 4.729904e+002 2.252390e+003
      endloop
   endfacet
   facet normal -2.382558e-016 6.380082e-016 1.000000e+000
      outer loop
         vertex 2.113792e+003 5.354173e+002 2.252390e+003
         vertex 2.120542e+003 4.729904e+002 2.252390e+003
         vertex 2.120691e+003 4.735460e+002 2.252390e+003
      endloop
   endfacet
   facet normal -2.382558e-016 6.380082e-016 1.000000e+000
      outer loop
         vertex 2.140691e+003 4.735460e+002 2.252390e+003
         vertex 2.140934e+003 4.740673e+002 2.252390e+003
         vertex 2.124365e+003 4.756672e+002 2.252390e+003
      endloop
   endfacet
   facet normal -2.382558e-016 6.380082e-016 1.000000e+000
      outer loop
         vertex 2.124365e+003 4.756672e+002 2.252390e+003
         vertex 2.140934e+003 4.740673e+002 2.252390e+003
         vertex 2.141264e+003 4.745385e+002 2.252390e+003
      endloop
   endfacet
   facet normal -2.382558e-016 6.380082e-016 1.000000e+000
      outer loop
         vertex 2.124365e+003 4.756672e+002 2.252390e+003
         vertex 2.141264e+003 4.745385e+002 2.252390e+003
         vertex 2.113792e+003 5.354173e+002 2.252390e+003
      endloop
   endfacet
   facet normal -2.382558e-016 6.380082e-016 1.000000e+000
      outer loop
         vertex 2.113792e+003 5.354173e+002 2.252390e+003
         vertex 2.141264e+003 4.745385e+002 2.252390e+003
         vertex 2.141671e+003 4.749453e+002 2.252390e+003
      endloop
   endfacet
   facet normal -2.382558e-016 6.380082e-016 1.000000e+000
      outer loop
         vertex 2.113792e+003 5.354173e+002 2.252390e+003
         vertex 2.141671e+003 4.749453e+002 2.252390e+003
         vertex 2.142142e+003 4.752752e+002 2.252390e+003
      endloop
   endfacet
   facet normal -9.983120e-001 -5.807914e-002 -1.930194e-016
      outer loop
         vertex 2.127042e+003 4.729904e+002 2.252390e+003
         vertex 2.127092e+003 4.724173e+002 2.248390e+003
         vertex 2.127092e+003 4.724173e+002 2.252390e+003
      endloop
   endfacet
   facet normal -9.983120e-001 5.807914e-002 -2.500446e-016
      outer loop
         vertex 2.127092e+003 4.724173e+002 2.252390e+003
         vertex 2.127092e+003 4.724173e+002 2.248390e+003
         vertex 2.127042e+003 4.718443e+002 2.248390e+003
      endloop
   endfacet
   facet normal -9.932307e-001 1.161583e-001 -2.774297e-016
      outer loop
         vertex 2.127092e+003 4.724173e+002 2.252390e+003
         vertex 2.127042e+003 4.718443e+002 2.248390e+003
         vertex 2.127042e+003 4.718443e+002 2.252390e+003
      endloop
   endfacet
   facet normal -9.730601e-001 2.305518e-001 -3.291125e-016
      outer loop
         vertex 2.127042e+003 4.718443e+002 2.252390e+003
         vertex 2.127042e+003 4.718443e+002 2.248390e+003
         vertex 2.126893e+003 4.712887e+002 2.248390e+003
      endloop
   endfacet
   facet normal -9.579706e-001 2.868663e-001 -3.534103e-016
      outer loop
         vertex 2.127042e+003 4.718443e+002 2.252390e+003
         vertex 2.126893e+003 4.712887e+002 2.248390e+003
         vertex 2.126893e+003 4.712887e+002 2.252390e+003
      endloop
   endfacet
   facet normal -9.182422e-001 3.960194e-001 -3.981805e-016
      outer loop
         vertex 2.126893e+003 4.712887e+002 2.252390e+003
         vertex 2.126893e+003 4.712887e+002 2.248390e+003
         vertex 2.126650e+003 4.707673e+002 2.248390e+003
      endloop
   endfacet
   facet normal -8.936031e-001 4.488580e-001 -4.186528e-016
      outer loop
         vertex 2.126893e+003 4.712887e+002 2.252390e+003
         vertex 2.126650e+003 4.707673e+002 2.248390e+003
         vertex 2.126650e+003 4.707673e+002 2.252390e+003
      endloop
   endfacet
   facet normal -8.355240e-001 5.494540e-001 -4.551499e-016
      outer loop
         vertex 2.126650e+003 4.707673e+002 2.252390e+003
         vertex 2.126650e+003 4.707673e+002 2.248390e+003
         vertex 2.126320e+003 4.702961e+002 2.248390e+003
      endloop
   endfacet
   facet normal -8.020839e-001 5.972114e-001 -4.711748e-016
      outer loop
         vertex 2.126650e+003 4.707673e+002 2.252390e+003
         vertex 2.126320e+003 4.702961e+002 2.248390e+003
         vertex 2.126320e+003 4.702961e+002 2.252390e+003
      endloop
   endfacet
   facet normal -7.274188e-001 6.861938e-001 -4.982899e-016
      outer loop
         vertex 2.126320e+003 4.702961e+002 2.252390e+003
         vertex 2.126320e+003 4.702961e+002 2.248390e+003
         vertex 2.125913e+003 4.698894e+002 2.248390e+003
      endloop
   endfacet
   facet normal -6.861938e-001 7.274188e-001 -5.093803e-016
      outer loop
         vertex 2.126320e+003 4.702961e+002 2.252390e+003
         vertex 2.125913e+003 4.698894e+002 2.248390e+003
         vertex 2.125913e+003 4.698894e+002 2.252390e+003
      endloop
   endfacet
   facet normal -5.972114e-001 8.020839e-001 -5.262896e-016
      outer loop
         vertex 2.125913e+003 4.698894e+002 2.252390e+003
         vertex 2.125913e+003 4.698894e+002 2.248390e+003
         vertex 2.125442e+003 4.695594e+002 2.248390e+003
      endloop
   endfacet
   facet normal -5.494540e-001 8.355240e-001 -5.321085e-016
      outer loop
         vertex 2.125913e+003 4.698894e+002 2.252390e+003
         vertex 2.125442e+003 4.695594e+002 2.248390e+003
         vertex 2.125442e+003 4.695594e+002 2.252390e+003
      endloop
   endfacet
   facet normal -4.488580e-001 8.936031e-001 -5.382982e-016
      outer loop
         vertex 2.125442e+003 4.695594e+002 2.252390e+003
         vertex 2.125442e+003 4.695594e+002 2.248390e+003
         vertex 2.124921e+003 4.693163e+002 2.248390e+003
      endloop
   endfacet
   facet normal -3.960194e-001 9.182422e-001 -5.386690e-016
      outer loop
         vertex 2.125442e+003 4.695594e+002 2.252390e+003
         vertex 2.124921e+003 4.693163e+002 2.248390e+003
         vertex 2.124921e+003 4.693163e+002 2.252390e+003
      endloop
   endfacet
   facet normal -2.868663e-001 9.579706e-001 -5.339509e-016
      outer loop
         vertex 2.124921e+003 4.693163e+002 2.252390e+003
         vertex 2.124921e+003 4.693163e+002 2.248390e+003
         vertex 2.124365e+003 4.691675e+002 2.248390e+003
      endloop
   endfacet
   facet normal -2.305518e-001 9.730601e-001 -5.288622e-016
      outer loop
         vertex 2.124921e+003 4.693163e+002 2.252390e+003
         vertex 2.124365e+003 4.691675e+002 2.248390e+003
         vertex 2.124365e+003 4.691675e+002 2.252390e+003
      endloop
   endfacet
   facet normal -1.161583e-001 9.932307e-001 -5.133798e-016
      outer loop
         vertex 2.124365e+003 4.691675e+002 2.252390e+003
         vertex 2.124365e+003 4.691675e+002 2.248390e+003
         vertex 2.123792e+003 4.691173e+002 2.248390e+003
      endloop
   endfacet
   facet normal -5.807914e-002 9.983120e-001 -5.029862e-016
      outer loop
         vertex 2.124365e+003 4.691675e+002 2.252390e+003
         vertex 2.123792e+003 4.691173e+002 2.248390e+003
         vertex 2.123792e+003 4.691173e+002 2.252390e+003
      endloop
   endfacet
   facet normal 5.807914e-002 9.983120e-001 -4.772099e-016
      outer loop
         vertex 2.123792e+003 4.691173e+002 2.252390e+003
         vertex 2.123792e+003 4.691173e+002 2.248390e+003
         vertex 2.123219e+003 4.691675e+002 2.248390e+003
      endloop
   endfacet
   facet normal 1.161583e-001 9.932307e-001 -4.618272e-016
      outer loop
         vertex 2.123792e+003 4.691173e+002 2.252390e+003
         vertex 2.123219e+003 4.691675e+002 2.248390e+003
         vertex 2.123219e+003 4.691675e+002 2.252390e+003
      endloop
   endfacet
   facet normal 2.305518e-001 9.730601e-001 -4.265402e-016
      outer loop
         vertex 2.123219e+003 4.691675e+002 2.252390e+003
         vertex 2.123219e+003 4.691675e+002 2.248390e+003
         vertex 2.122664e+003 4.693163e+002 2.248390e+003
      endloop
   endfacet
   facet normal 2.868663e-001 9.579706e-001 -4.066359e-016
      outer loop
         vertex 2.123219e+003 4.691675e+002 2.252390e+003
         vertex 2.122664e+003 4.693163e+002 2.248390e+003
         vertex 2.122664e+003 4.693163e+002 2.252390e+003
      endloop
   endfacet
   facet normal 3.960194e-001 9.182422e-001 -3.629103e-016
      outer loop
         vertex 2.122664e+003 4.693163e+002 2.252390e+003
         vertex 2.122664e+003 4.693163e+002 2.248390e+003
         vertex 2.122142e+003 4.695594e+002 2.248390e+003
      endloop
   endfacet
   facet normal 4.488580e-001 8.936031e-001 -3.390891e-016
      outer loop
         vertex 2.122664e+003 4.693163e+002 2.252390e+003
         vertex 2.122142e+003 4.695594e+002 2.248390e+003
         vertex 2.122142e+003 4.695594e+002 2.252390e+003
      endloop
   endfacet
   facet normal 5.494540e-001 8.355240e-001 -2.882536e-016
      outer loop
         vertex 2.122142e+003 4.695594e+002 2.252390e+003
         vertex 2.122142e+003 4.695594e+002 2.248390e+003
         vertex 2.121671e+003 4.698894e+002 2.248390e+003
      endloop
   endfacet
   facet normal 5.972114e-001 8.020839e-001 -2.612393e-016
      outer loop
         vertex 2.122142e+003 4.695594e+002 2.252390e+003
         vertex 2.121671e+003 4.698894e+002 2.248390e+003
         vertex 2.121671e+003 4.698894e+002 2.252390e+003
      endloop
   endfacet
   facet normal 6.861938e-001 7.274188e-001 -2.048384e-016
      outer loop
         vertex 2.121671e+003 4.698894e+002 2.252390e+003
         vertex 2.121671e+003 4.698894e+002 2.248390e+003
         vertex 2.121264e+003 4.702961e+002 2.248390e+003
      endloop
   endfacet
   facet normal 7.274188e-001 6.861938e-001 -1.754518e-016
      outer loop
         vertex 2.121671e+003 4.698894e+002 2.252390e+003
         vertex 2.121264e+003 4.702961e+002 2.248390e+003
         vertex 2.121264e+003 4.702961e+002 2.252390e+003
      endloop
   endfacet
   facet normal 8.020839e-001 5.972114e-001 -1.151993e-016
      outer loop
         vertex 2.121264e+003 4.702961e+002 2.252390e+003
         vertex 2.121264e+003 4.702961e+002 2.248390e+003
         vertex 2.120934e+003 4.707673e+002 2.248390e+003
      endloop
   endfacet
   facet normal 8.355240e-001 5.494540e-001 -8.433336e-017
      outer loop
         vertex 2.121264e+003 4.702961e+002 2.252390e+003
         vertex 2.120934e+003 4.707673e+002 2.248390e+003
         vertex 2.120934e+003 4.707673e+002 2.252390e+003
      endloop
   endfacet
   facet normal 8.936031e-001 4.488580e-001 -2.205996e-017
      outer loop
         vertex 2.120934e+003 4.707673e+002 2.252390e+003
         vertex 2.120934e+003 4.707673e+002 2.248390e+003
         vertex 2.120691e+003 4.712887e+002 2.248390e+003
      endloop
   endfacet
   facet normal 9.182422e-001 3.960194e-001 9.347507e-018
      outer loop
         vertex 2.120934e+003 4.707673e+002 2.252390e+003
         vertex 2.120691e+003 4.712887e+002 2.248390e+003
         vertex 2.120691e+003 4.712887e+002 2.252390e+003
      endloop
   endfacet
   facet normal 9.579706e-001 2.868663e-001 7.174969e-017
      outer loop
         vertex 2.120691e+003 4.712887e+002 2.252390e+003
         vertex 2.120691e+003 4.712887e+002 2.248390e+003
         vertex 2.120542e+003 4.718443e+002 2.248390e+003
      endloop
   endfacet
   facet normal 9.730601e-001 2.305518e-001 1.027444e-016
      outer loop
         vertex 2.120691e+003 4.712887e+002 2.252390e+003
         vertex 2.120542e+003 4.718443e+002 2.248390e+003
         vertex 2.120542e+003 4.718443e+002 2.252390e+003
      endloop
   endfacet
   facet normal 9.932307e-001 1.161583e-001 1.633793e-016
      outer loop
         vertex 2.120542e+003 4.718443e+002 2.252390e+003
         vertex 2.120542e+003 4.718443e+002 2.248390e+003
         vertex 2.120492e+003 4.724173e+002 2.248390e+003
      endloop
   endfacet
   facet normal 9.983120e-001 5.807914e-002 1.930194e-016
      outer loop
         vertex 2.120542e+003 4.718443e+002 2.252390e+003
         vertex 2.120492e+003 4.724173e+002 2.248390e+003
         vertex 2.120492e+003 4.724173e+002 2.252390e+003
      endloop
   endfacet
   facet normal 9.983120e-001 -5.807914e-002 2.500446e-016
      outer loop
         vertex 2.120492e+003 4.724173e+002 2.252390e+003
         vertex 2.120492e+003 4.724173e+002 2.248390e+003
         vertex 2.120542e+003 4.729904e+002 2.248390e+003
      endloop
   endfacet
   facet normal 9.932307e-001 -1.161583e-001 2.774297e-016
      outer loop
         vertex 2.120492e+003 4.724173e+002 2.252390e+003
         vertex 2.120542e+003 4.729904e+002 2.248390e+003
         vertex 2.120542e+003 4.729904e+002 2.252390e+003
      endloop
   endfacet
   facet normal 9.730601e-001 -2.305518e-001 3.291125e-016
      outer loop
         vertex 2.120542e+003 4.729904e+002 2.252390e+003
         vertex 2.120542e+003 4.729904e+002 2.248390e+003
         vertex 2.120691e+003 4.735460e+002 2.248390e+003
      endloop
   endfacet
   facet normal 9.579706e-001 -2.868663e-001 3.534103e-016
      outer loop
         vertex 2.120542e+003 4.729904e+002 2.252390e+003
         vertex 2.120691e+003 4.735460e+002 2.248390e+003
         vertex 2.120691e+003 4.735460e+002 2.252390e+003
      endloop
   endfacet
   facet normal 9.182422e-001 -3.960194e-001 3.981805e-016
      outer loop
         vertex 2.120691e+003 4.735460e+002 2.252390e+003
         vertex 2.120691e+003 4.735460e+002 2.248390e+003
         vertex 2.120934e+003 4.740673e+002 2.248390e+003
      endloop
   endfacet
   facet normal 8.936031e-001 -4.488580e-001 4.186528e-016
      outer loop
         vertex 2.120691e+003 4.735460e+002 2.252390e+003
         vertex 2.120934e+003 4.740673e+002 2.248390e+003
         vertex 2.120934e+003 4.740673e+002 2.252390e+003
      endloop
   endfacet
   facet normal 8.355240e-001 -5.494540e-001 4.551499e-016
      outer loop
         vertex 2.120934e+003 4.740673e+002 2.252390e+003
         vertex 2.120934e+003 4.740673e+002 2.248390e+003
         vertex 2.121264e+003 4.745385e+002 2.248390e+003
      endloop
   endfacet
   facet normal 8.020839e-001 -5.972114e-001 4.711748e-016
      outer loop
         vertex 2.120934e+003 4.740673e+002 2.252390e+003
         vertex 2.121264e+003 4.745385e+002 2.248390e+003
         vertex 2.121264e+003 4.745385e+002 2.252390e+003
      endloop
   endfacet
   facet normal 7.274188e-001 -6.861938e-001 4.982899e-016
      outer loop
         vertex 2.121264e+003 4.745385e+002 2.252390e+003
         vertex 2.121264e+003 4.745385e+002 2.248390e+003
         vertex 2.121671e+003 4.749453e+002 2.248390e+003
      endloop
   endfacet
   facet normal 6.861938e-001 -7.274188e-001 5.093803e-016
      outer loop
         vertex 2.121264e+003 4.745385e+002 2.252390e+003
         vertex 2.121671e+003 4.749453e+002 2.248390e+003
         vertex 2.121671e+003 4.749453e+002 2.252390e+003
      endloop
   endfacet
   facet normal 5.972114e-001 -8.020839e-001 5.262896e-016
      outer loop
         vertex 2.121671e+003 4.749453e+002 2.252390e+003
         vertex 2.121671e+003 4.749453e+002 2.248390e+003
         vertex 2.122142e+003 4.752752e+002 2.248390e+003
      endloop
   endfacet
   facet normal 5.494540e-001 -8.355240e-001 5.321085e-016
      outer loop
         vertex 2.121671e+003 4.749453e+002 2.252390e+003
         vertex 2.122142e+003 4.752752e+002 2.248390e+003
         vertex 2.122142e+003 4.752752e+002 2.252390e+003
      endloop
   endfacet
   facet normal 4.488580e-001 -8.936031e-001 5.382982e-016
      outer loop
         vertex 2.122142e+003 4.752752e+002 2.252390e+003
         vertex 2.122142e+003 4.752752e+002 2.248390e+003
         vertex 2.122664e+003 4.755183e+002 2.248390e+003
      endloop
   endfacet
   facet normal 3.960194e-001 -9.182422e-001 5.386690e-016
      outer loop
         vertex 2.122142e+003 4.752752e+002 2.252390e+003
         vertex 2.122664e+003 4.755183e+002 2.248390e+003
         vertex 2.122664e+003 4.755183e+002 2.252390e+003
      endloop
   endfacet
   facet normal 2.868663e-001 -9.579706e-001 5.339509e-016
      outer loop
         vertex 2.122664e+003 4.755183e+002 2.252390e+003
         vertex 2.122664e+003 4.755183e+002 2.248390e+003
         vertex 2.123219e+003 4.756672e+002 2.248390e+003
      endloop
   endfacet
   facet normal 2.305518e-001 -9.730601e-001 5.288622e-016
      outer loop
         vertex 2.122664e+003 4.755183e+002 2.252390e+003
         vertex 2.123219e+003 4.756672e+002 2.248390e+003
         vertex 2.123219e+003 4.756672e+002 2.252390e+003
      endloop
   endfacet
   facet normal 1.161583e-001 -9.932307e-001 5.133798e-016
      outer loop
         vertex 2.123219e+003 4.756672e+002 2.252390e+003
         vertex 2.123219e+003 4.756672e+002 2.248390e+003
         vertex 2.123792e+003 4.757173e+002 2.248390e+003
      endloop
   endfacet
   facet normal 5.807914e-002 -9.983120e-001 5.029862e-016
      outer loop
         vertex 2.123219e+003 4.756672e+002 2.252390e+003
         vertex 2.123792e+003 4.757173e+002 2.248390e+003
         vertex 2.123792e+003 4.757173e+002 2.252390e+003
      endloop
   endfacet
   facet normal -5.807914e-002 -9.983120e-001 4.772099e-016
      outer loop
         vertex 2.123792e+003 4.757173e+002 2.252390e+003
         vertex 2.123792e+003 4.757173e+002 2.248390e+003
         vertex 2.124365e+003 4.756672e+002 2.248390e+003
      endloop
   endfacet
   facet normal -1.161583e-001 -9.932307e-001 4.618272e-016
      outer loop
         vertex 2.123792e+003 4.757173e+002 2.252390e+003
         vertex 2.124365e+003 4.756672e+002 2.248390e+003
         vertex 2.124365e+003 4.756672e+002 2.252390e+003
      endloop
   endfacet
   facet normal -2.305518e-001 -9.730601e-001 4.265402e-016
      outer loop
         vertex 2.124365e+003 4.756672e+002 2.252390e+003
         vertex 2.124365e+003 4.756672e+002 2.248390e+003
         vertex 2.124921e+003 4.755183e+002 2.248390e+003
      endloop
   endfacet
   facet normal -2.868663e-001 -9.579706e-001 4.066359e-016
      outer loop
         vertex 2.124365e+003 4.756672e+002 2.252390e+003
         vertex 2.124921e+003 4.755183e+002 2.248390e+003
         vertex 2.124921e+003 4.755183e+002 2.252390e+003
      endloop
   endfacet
   facet normal -3.960194e-001 -9.182422e-001 3.629103e-016
      outer loop
         vertex 2.124921e+003 4.755183e+002 2.252390e+003
         vertex 2.124921e+003 4.755183e+002 2.248390e+003
         vertex 2.125442e+003 4.752752e+002 2.248390e+003
      endloop
   endfacet
   facet normal -4.488580e-001 -8.936031e-001 3.390891e-016
      outer loop
         vertex 2.124921e+003 4.755183e+002 2.252390e+003
         vertex 2.125442e+003 4.752752e+002 2.248390e+003
         vertex 2.125442e+003 4.752752e+002 2.252390e+003
      endloop
   endfacet
   facet normal -5.494540e-001 -8.355240e-001 2.882536e-016
      outer loop
         vertex 2.125442e+003 4.752752e+002 2.252390e+003
         vertex 2.125442e+003 4.752752e+002 2.248390e+003
         vertex 2.125913e+003 4.749453e+002 2.248390e+003
      endloop
   endfacet
   facet normal -5.972114e-001 -8.020839e-001 2.612393e-016
      outer loop
         vertex 2.125442e+003 4.752752e+002 2.252390e+003
         vertex 2.125913e+003 4.749453e+002 2.248390e+003
         vertex 2.125913e+003 4.749453e+002 2.252390e+003
      endloop
   endfacet
   facet normal -6.861938e-001 -7.274188e-001 2.048384e-016
      outer loop
         vertex 2.125913e+003 4.749453e+002 2.252390e+003
         vertex 2.125913e+003 4.749453e+002 2.248390e+003
         vertex 2.126320e+003 4.745385e+002 2.248390e+003
      endloop
   endfacet
   facet normal -7.274188e-001 -6.861938e-001 1.754518e-016
      outer loop
         vertex 2.125913e+003 4.749453e+002 2.252390e+003
         vertex 2.126320e+003 4.745385e+002 2.248390e+003
         vertex 2.126320e+003 4.745385e+002 2.252390e+003
      endloop
   endfacet
   facet normal -8.020839e-001 -5.972114e-001 1.151993e-016
      outer loop
         vertex 2.126320e+003 4.745385e+002 2.252390e+003
         vertex 2.126320e+003 4.745385e+002 2.248390e+003
         vertex 2.126650e+003 4.740673e+002 2.248390e+003
      endloop
   endfacet
   facet normal -8.355240e-001 -5.494540e-001 8.433336e-017
      outer loop
         vertex 2.126320e+003 4.745385e+002 2.252390e+003
         vertex 2.126650e+003 4.740673e+002 2.248390e+003
         vertex 2.126650e+003 4.740673e+002 2.252390e+003
      endloop
   endfacet
   facet normal -8.936031e-001 -4.488580e-001 2.205996e-017
      outer loop
         vertex 2.126650e+003 4.740673e+002 2.252390e+003
         vertex 2.126650e+003 4.740673e+002 2.248390e+003
         vertex 2.126893e+003 4.735460e+002 2.248390e+003
      endloop
   endfacet
   facet normal -9.182422e-001 -3.960194e-001 -9.347507e-018
      outer loop
         vertex 2.126650e+003 4.740673e+002 2.252390e+003
         vertex 2.126893e+003 4.735460e+002 2.248390e+003
         vertex 2.126893e+003 4.735460e+002 2.252390e+003
      endloop
   endfacet
   facet normal -9.579706e-001 -2.868663e-001 -7.174969e-017
      outer loop
         vertex 2.126893e+003 4.735460e+002 2.252390e+003
         vertex 2.126893e+003 4.735460e+002 2.248390e+003
         vertex 2.127042e+003 4.729904e+002 2.248390e+003
      endloop
   endfacet
   facet normal -9.730601e-001 -2.305518e-001 -1.027444e-016
      outer loop
         vertex 2.126893e+003 4.735460e+002 2.252390e+003
         vertex 2.127042e+003 4.729904e+002 2.248390e+003
         vertex 2.127042e+003 4.729904e+002 2.252390e+003
      endloop
   endfacet
   facet normal -9.932307e-001 -1.161583e-001 -1.633793e-016
      outer loop
         vertex 2.127042e+003 4.729904e+002 2.252390e+003
         vertex 2.127042e+003 4.729904e+002 2.248390e+003
         vertex 2.127092e+003 4.724173e+002 2.248390e+003
      endloop
   endfacet
   facet normal -9.983120e-001 -5.807914e-002 -1.930194e-016
      outer loop
         vertex 2.147042e+003 4.729904e+002 2.252390e+003
         vertex 2.147092e+003 4.724173e+002 2.248390e+003
         vertex 2.147092e+003 4.724173e+002 2.252390e+003
      endloop
   endfacet
   facet normal -9.983120e-001 5.807914e-002 -2.500446e-016
      outer loop
         vertex 2.147092e+003 4.724173e+002 2.252390e+003
         vertex 2.147092e+003 4.724173e+002 2.248390e+003
         vertex 2.147042e+003 4.718443e+002 2.248390e+003
      endloop
   endfacet
   facet normal -9.932307e-001 1.161583e-001 -2.774297e-016
      outer loop
         vertex 2.147092e+003 4.724173e+002 2.252390e+003
         vertex 2.147042e+003 4.718443e+002 2.248390e+003
         vertex 2.147042e+003 4.718443e+002 2.252390e+003
      endloop
   endfacet
   facet normal -9.730601e-001 2.305518e-001 -3.291125e-016
      outer loop
         vertex 2.147042e+003 4.718443e+002 2.252390e+003
         vertex 2.147042e+003 4.718443e+002 2.248390e+003
         vertex 2.146893e+003 4.712887e+002 2.248390e+003
      endloop
   endfacet
   facet normal -9.579706e-001 2.868663e-001 -3.534103e-016
      outer loop
         vertex 2.147042e+003 4.718443e+002 2.252390e+003
         vertex 2.146893e+003 4.712887e+002 2.248390e+003
         vertex 2.146893e+003 4.712887e+002 2.252390e+003
      endloop
   endfacet
   facet normal -9.182422e-001 3.960194e-001 -3.981805e-016
      outer loop
         vertex 2.146893e+003 4.712887e+002 2.252390e+003
         vertex 2.146893e+003 4.712887e+002 2.248390e+003
         vertex 2.146650e+003 4.707673e+002 2.248390e+003
      endloop
   endfacet
   facet normal -8.936031e-001 4.488580e-001 -4.186528e-016
      outer loop
         vertex 2.146893e+003 4.712887e+002 2.252390e+003
         vertex 2.146650e+003 4.707673e+002 2.248390e+003
         vertex 2.146650e+003 4.707673e+002 2.252390e+003
      endloop
   endfacet
   facet normal -8.355240e-001 5.494540e-001 -4.551499e-016
      outer loop
         vertex 2.146650e+003 4.707673e+002 2.252390e+003
         vertex 2.146650e+003 4.707673e+002 2.248390e+003
         vertex 2.146320e+003 4.702961e+002 2.248390e+003
      endloop
   endfacet
   facet normal -8.020839e-001 5.972114e-001 -4.711748e-016
      outer loop
         vertex 2.146650e+003 4.707673e+002 2.252390e+003
         vertex 2.146320e+003 4.702961e+002 2.248390e+003
         vertex 2.146320e+003 4.702961e+002 2.252390e+003
      endloop
   endfacet
   facet normal -7.274188e-001 6.861938e-001 -4.982899e-016
      outer loop
         vertex 2.146320e+003 4.702961e+002 2.252390e+003
         vertex 2.146320e+003 4.702961e+002 2.248390e+003
         vertex 2.145913e+003 4.698894e+002 2.248390e+003
      endloop
   endfacet
   facet normal -6.861938e-001 7.274188e-001 -5.093803e-016
      outer loop
         vertex 2.146320e+003 4.702961e+002 2.252390e+003
         vertex 2.145913e+003 4.698894e+002 2.248390e+003
         vertex 2.145913e+003 4.698894e+002 2.252390e+003
      endloop
   endfacet
   facet normal -5.972114e-001 8.020839e-001 -5.262896e-016
      outer loop
         vertex 2.145913e+003 4.698894e+002 2.252390e+003
         vertex 2.145913e+003 4.698894e+002 2.248390e+003
         vertex 2.145442e+003 4.695594e+002 2.248390e+003
      endloop
   endfacet
   facet normal -5.494540e-001 8.355240e-001 -5.321085e-016
      outer loop
         vertex 2.145913e+003 4.698894e+002 2.252390e+003
         vertex 2.145442e+003 4.695594e+002 2.248390e+003
         vertex 2.145442e+003 4.695594e+002 2.252390e+003
      endloop
   endfacet
   facet normal -4.488580e-001 8.936031e-001 -5.382982e-016
      outer loop
         vertex 2.145442e+003 4.695594e+002 2.252390e+003
         vertex 2.145442e+003 4.695594e+002 2.248390e+003
         vertex 2.144921e+003 4.693163e+002 2.248390e+003
      endloop
   endfacet
   facet normal -3.960194e-001 9.182422e-001 -5.386690e-016
      outer loop
         vertex 2.145442e+003 4.695594e+002 2.252390e+003
         vertex 2.144921e+003 4.693163e+002 2.248390e+003
         vertex 2.144921e+003 4.693163e+002 2.252390e+003
      endloop
   endfacet
   facet normal -2.868663e-001 9.579706e-001 -5.339509e-016
      outer loop
         vertex 2.144921e+003 4.693163e+002 2.252390e+003
         vertex 2.144921e+003 4.693163e+002 2.248390e+003
         vertex 2.144365e+003 4.691675e+002 2.248390e+003
      endloop
   endfacet
   facet normal -2.305518e-001 9.730601e-001 -5.288622e-016
      outer loop
         vertex 2.144921e+003 4.693163e+002 2.252390e+003
         vertex 2.144365e+003 4.691675e+002 2.248390e+003
         vertex 2.144365e+003 4.691675e+002 2.252390e+003
      endloop
   endfacet
   facet normal -1.161583e-001 9.932307e-001 -5.133798e-016
      outer loop
         vertex 2.144365e+003 4.691675e+002 2.252390e+003
         vertex 2.144365e+003 4.691675e+002 2.248390e+003
         vertex 2.143792e+003 4.691173e+002 2.248390e+003
      endloop
   endfacet
   facet normal -5.807914e-002 9.983120e-001 -5.029862e-016
      outer loop
         vertex 2.144365e+003 4.691675e+002 2.252390e+003
         vertex 2.143792e+003 4.691173e+002 2.248390e+003
         vertex 2.143792e+003 4.691173e+002 2.252390e+003
      endloop
   endfacet
   facet normal 5.807914e-002 9.983120e-001 -4.772099e-016
      outer loop
         vertex 2.143792e+003 4.691173e+002 2.252390e+003
         vertex 2.143792e+003 4.691173e+002 2.248390e+003
         vertex 2.143219e+003 4.691675e+002 2.248390e+003
      endloop
   endfacet
   facet normal 1.161583e-001 9.932307e-001 -4.618272e-016
      outer loop
         vertex 2.143792e+003 4.691173e+002 2.252390e+003
         vertex 2.143219e+003 4.691675e+002 2.248390e+003
         vertex 2.143219e+003 4.691675e+002 2.252390e+003
      endloop
   endfacet
   facet normal 2.305518e-001 9.730601e-001 -4.265402e-016
      outer loop
         vertex 2.143219e+003 4.691675e+002 2.252390e+003
         vertex 2.143219e+003 4.691675e+002 2.248390e+003
         vertex 2.142664e+003 4.693163e+002 2.248390e+003
      endloop
   endfacet
   facet normal 2.868663e-001 9.579706e-001 -4.066359e-016
      outer loop
         vertex 2.143219e+003 4.691675e+002 2.252390e+003
         vertex 2.142664e+003 4.693163e+002 2.248390e+003
         vertex 2.142664e+003 4.693163e+002 2.252390e+003
      endloop
   endfacet
   facet normal 3.960194e-001 9.182422e-001 -3.629103e-016
      outer loop
         vertex 2.142664e+003 4.693163e+002 2.252390e+003
         vertex 2.142664e+003 4.693163e+002 2.248390e+003
         vertex 2.142142e+003 4.695594e+002 2.248390e+003
      endloop
   endfacet
   facet normal 4.488580e-001 8.936031e-001 -3.390891e-016
      outer loop
         vertex 2.142664e+003 4.693163e+002 2.252390e+003
         vertex 2.142142e+003 4.695594e+002 2.248390e+003
         vertex 2.142142e+003 4.695594e+002 2.252390e+003
      endloop
   endfacet
   facet normal 5.494540e-001 8.355240e-001 -2.882536e-016
      outer loop
         vertex 2.142142e+003 4.695594e+002 2.252390e+003
         vertex 2.142142e+003 4.695594e+002 2.248390e+003
         vertex 2.141671e+003 4.698894e+002 2.248390e+003
      endloop
   endfacet
   facet normal 5.972114e-001 8.020839e-001 -2.612393e-016
      outer loop
         vertex 2.142142e+003 4.695594e+002 2.252390e+003
         vertex 2.141671e+003 4.698894e+002 2.248390e+003
         vertex 2.141671e+003 4.698894e+002 2.252390e+003
      endloop
   endfacet
   facet normal 6.861938e-001 7.274188e-001 -2.048384e-016
      outer loop
         vertex 2.141671e+003 4.698894e+002 2.252390e+003
         vertex 2.141671e+003 4.698894e+002 2.248390e+003
         vertex 2.141264e+003 4.702961e+002 2.248390e+003
      endloop
   endfacet
   facet normal 7.274188e-001 6.861938e-001 -1.754518e-016
      outer loop
         vertex 2.141671e+003 4.698894e+002 2.252390e+003
         vertex 2.141264e+003 4.702961e+002 2.248390e+003
         vertex 2.141264e+003 4.702961e+002 2.252390e+003
      endloop
   endfacet
   facet normal 8.020839e-001 5.972114e-001 -1.151993e-016
      outer loop
         vertex 2.141264e+003 4.702961e+002 2.252390e+003
         vertex 2.141264e+003 4.702961e+002 2.248390e+003
         vertex 2.140934e+003 4.707673e+002 2.248390e+003
      endloop
   endfacet
   facet normal 8.355240e-001 5.494540e-001 -8.433336e-017
      outer loop
         vertex 2.141264e+003 4.702961e+002 2.252390e+003
         vertex 2.140934e+003 4.707673e+002 2.248390e+003
         vertex 2.140934e+003 4.707673e+002 2.252390e+003
      endloop
   endfacet
   facet normal 8.936031e-001 4.488580e-001 -2.205996e-017
      outer loop
         vertex 2.140934e+003 4.707673e+002 2.252390e+003
         vertex 2.140934e+003 4.707673e+002 2.248390e+003
         vertex 2.140691e+003 4.712887e+002 2.248390e+003
      endloop
   endfacet
   facet normal 9.182422e-001 3.960194e-001 9.347507e-018
      outer loop
         vertex 2.140934e+003 4.707673e+002 2.252390e+003
         vertex 2.140691e+003 4.712887e+002 2.248390e+003
         vertex 2.140691e+003 4.712887e+002 2.252390e+003
      endloop
   endfacet
   facet normal 9.579706e-001 2.868663e-001 7.174969e-017
      outer loop
         vertex 2.140691e+003 4.712887e+002 2.252390e+003
         vertex 2.140691e+003 4.712887e+002 2.248390e+003
         vertex 2.140542e+003 4.718443e+002 2.248390e+003
      endloop
   endfacet
   facet normal 9.730601e-001 2.305518e-001 1.027444e-016
      outer loop
         vertex 2.140691e+003 4.712887e+002 2.252390e+003
         vertex 2.140542e+003 4.718443e+002 2.248390e+003
         vertex 2.140542e+003 4.718443e+002 2.252390e+003
      endloop
   endfacet
   facet normal 9.932307e-001 1.161583e-001 1.633793e-016
      outer loop
         vertex 2.140542e+003 4.718443e+002 2.252390e+003
         vertex 2.140542e+003 4.718443e+002 2.248390e+003
         vertex 2.140492e+003 4.724173e+002 2.248390e+003
      endloop
   endfacet
   facet normal 9.983120e-001 5.807914e-002 1.930194e-016
      outer loop
         vertex 2.140542e+003 4.718443e+002 2.252390e+003
         vertex 2.140492e+003 4.724173e+002 2.248390e+003
         vertex 2.140492e+003 4.724173e+002 2.252390e+003
      endloop
   endfacet
   facet normal 9.983120e-001 -5.807914e-002 2.500446e-016
      outer loop
         vertex 2.140492e+003 4.724173e+002 2.252390e+003
         vertex 2.140492e+003 4.724173e+002 2.248390e+003
         vertex 2.140542e+003 4.729904e+002 2.248390e+003
      endloop
   endfacet
   facet normal 9.932307e-001 -1.161583e-001 2.774297e-016
      outer loop
         vertex 2.140492e+003 4.724173e+002 2.252390e+003
         vertex 2.140542e+003 4.729904e+002 2.248390e+003
         vertex 2.140542e+003 4.729904e+002 2.252390e+003
      endloop
   endfacet
   facet normal 9.730601e-001 -2.305518e-001 3.291125e-016
      outer loop
         vertex 2.140542e+003 4.729904e+002 2.252390e+003
         vertex 2.140542e+003 4.729904e+002 2.248390e+003
         vertex 2.140691e+003 4.735460e+002 2.248390e+003
      endloop
   endfacet
   facet normal 9.579706e-001 -2.868663e-001 3.534103e-016
      outer loop
         vertex 2.140542e+003 4.729904e+002 2.252390e+003
         vertex 2.140691e+003 4.735460e+002 2.248390e+003
         vertex 2.140691e+003 4.735460e+002 2.252390e+003
      endloop
   endfacet
   facet normal 9.182422e-001 -3.960194e-001 3.981805e-016
      outer loop
         vertex 2.140691e+003 4.735460e+002 2.252390e+003
         vertex 2.140691e+003 4.735460e+002 2.248390e+003
         vertex 2.140934e+003 4.740673e+002 2.248390e+003
      endloop
   endfacet
   facet normal 8.936031e-001 -4.488580e-001 4.186528e-016
      outer loop
         vertex 2.140691e+003 4.735460e+002 2.252390e+003
         vertex 2.140934e+003 4.740673e+002 2.248390e+003
         vertex 2.140934e+003 4.740673e+002 2.252390e+003
      endloop
   endfacet
   facet normal 8.355240e-001 -5.494540e-001 4.551499e-016
      outer loop
         vertex 2.140934e+003 4.740673e+002 2.252390e+003
         vertex 2.140934e+003 4.740673e+002 2.248390e+003
         vertex 2.141264e+003 4.745385e+002 2.248390e+003
      endloop
   endfacet
   facet normal 8.020839e-001 -5.972114e-001 4.711748e-016
      outer loop
         vertex 2.140934e+003 4.740673e+002 2.252390e+003
         vertex 2.141264e+003 4.745385e+002 2.248390e+003
         vertex 2.141264e+003 4.745385e+002 2.252390e+003
      endloop
   endfacet
   facet normal 7.274188e-001 -6.861938e-001 4.982899e-016
      outer loop
         vertex 2.141264e+003 4.745385e+002 2.252390e+003
         vertex 2.141264e+003 4.745385e+002 2.248390e+003
         vertex 2.141671e+003 4.749453e+002 2.248390e+003
      endloop
   endfacet
   facet normal 6.861938e-001 -7.274188e-001 5.093803e-016
      outer loop
         vertex 2.141264e+003 4.745385e+002 2.252390e+003
         vertex 2.141671e+003 4.749453e+002 2.248390e+003
         vertex 2.141671e+003 4.749453e+002 2.252390e+003
      endloop
   endfacet
   facet normal 5.972114e-001 -8.020839e-001 5.262896e-016
      outer loop
         vertex 2.141671e+003 4.749453e+002 2.252390e+003
         vertex 2.141671e+003 4.749453e+002 2.248390e+003
         vertex 2.142142e+003 4.752752e+002 2.248390e+003
      endloop
   endfacet
   facet normal 5.494540e-001 -8.355240e-001 5.321085e-016
      outer loop
         vertex 2.141671e+003 4.749453e+002 2.252390e+003
         vertex 2.142142e+003 4.752752e+002 2.248390e+003
         vertex 2.142142e+003 4.752752e+002 2.252390e+003
      endloop
   endfacet
   facet normal 4.488580e-001 -8.936031e-001 5.382982e-016
      outer loop
         vertex 2.142142e+003 4.752752e+002 2.252390e+003
         vertex 2.142142e+003 4.752752e+002 2.248390e+003
         vertex 2.142664e+003 4.755183e+002 2.248390e+003
      endloop
   endfacet
   facet normal 3.960194e-001 -9.182422e-001 5.386690e-016
      outer loop
         vertex 2.142142e+003 4.752752e+002 2.252390e+003
         vertex 2.142664e+003 4.755183e+002 2.248390e+003
         vertex 2.142664e+003 4.755183e+002 2.252390e+003
      endloop
   endfacet
   facet normal 2.868663e-001 -9.579706e-001 5.339509e-016
      outer loop
         vertex 2.142664e+003 4.755183e+002 2.252390e+003
         vertex 2.142664e+003 4.755183e+002 2.248390e+003
         vertex 2.143219e+003 4.756672e+002 2.248390e+003
      endloop
   endfacet
   facet normal 2.305518e-001 -9.730601e-001 5.288622e-016
      outer loop
         vertex 2.142664e+003 4.755183e+002 2.252390e+003
         vertex 2.143219e+003 4.756672e+002 2.248390e+003
         vertex 2.143219e+003 4.756672e+002 2.252390e+003
      endloop
   endfacet
   facet normal 1.161583e-001 -9.932307e-001 5.133798e-016
      outer loop
         vertex 2.143219e+003 4.756672e+002 2.252390e+003
         vertex 2.143219e+003 4.756672e+002 2.248390e+003
         vertex 2.143792e+003 4.757173e+002 2.248390e+003
      endloop
   endfacet
   facet normal 5.807914e-002 -9.983120e-001 5.029862e-016
      outer loop
         vertex 2.143219e+003 4.756672e+002 2.252390e+003
         vertex 2.143792e+003 4.757173e+002 2.248390e+003
         vertex 2.143792e+003 4.757173e+002 2.252390e+003
      endloop
   endfacet
   facet normal -5.807914e-002 -9.983120e-001 4.772099e-016
      outer loop
         vertex 2.143792e+003 4.757173e+002 2.252390e+003
         vertex 2.143792e+003 4.757173e+002 2.248390e+003
         vertex 2.144365e+003 4.756672e+002 2.248390e+003
      endloop
   endfacet
   facet normal -1.161583e-001 -9.932307e-001 4.618272e-016
      outer loop
         vertex 2.143792e+003 4.757173e+002 2.252390e+003
         vertex 2.144365e+003 4.756672e+002 2.248390e+003
         vertex 2.144365e+003 4.756672e+002 2.252390e+003
      endloop
   endfacet
   facet normal -2.305518e-001 -9.730601e-001 4.265402e-016
      outer loop
         vertex 2.144365e+003 4.756672e+002 2.252390e+003
         vertex 2.144365e+003 4.756672e+002 2.248390e+003
         vertex 2.144921e+003 4.755183e+002 2.248390e+003
      endloop
   endfacet
   facet normal -2.868663e-001 -9.579706e-001 4.066359e-016
      outer loop
         vertex 2.144365e+003 4.756672e+002 2.252390e+003
         vertex 2.144921e+003 4.755183e+002 2.248390e+003
         vertex 2.144921e+003 4.755183e+002 2.252390e+003
      endloop
   endfacet
   facet normal -3.960194e-001 -9.182422e-001 3.629103e-016
      outer loop
         vertex 2.144921e+003 4.755183e+002 2.252390e+003
         vertex 2.144921e+003 4.755183e+002 2.248390e+003
         vertex 2.145442e+003 4.752752e+002 2.248390e+003
      endloop
   endfacet
   facet normal -4.488580e-001 -8.936031e-001 3.390891e-016
      outer loop
         vertex 2.144921e+003 4.755183e+002 2.252390e+003
         vertex 2.145442e+003 4.752752e+002 2.248390e+003
         vertex 2.145442e+003 4.752752e+002 2.252390e+003
      endloop
   endfacet
   facet normal -5.494540e-001 -8.355240e-001 2.882536e-016
      outer loop
         vertex 2.145442e+003 4.752752e+002 2.252390e+003
         vertex 2.145442e+003 4.752752e+002 2.248390e+003
         vertex 2.145913e+003 4.749453e+002 2.248390e+003
      endloop
   endfacet
   facet normal -5.972114e-001 -8.020839e-001 2.612393e-016
      outer loop
         vertex 2.145442e+003 4.752752e+002 2.252390e+003
         vertex 2.145913e+003 4.749453e+002 2.248390e+003
         vertex 2.145913e+003 4.749453e+002 2.252390e+003
      endloop
   endfacet
   facet normal -6.861938e-001 -7.274188e-001 2.048384e-016
      outer loop
         vertex 2.145913e+003 4.749453e+002 2.252390e+003
         vertex 2.145913e+003 4.749453e+002 2.248390e+003
         vertex 2.146320e+003 4.745385e+002 2.248390e+003
      endloop
   endfacet
   facet normal -7.274188e-001 -6.861938e-001 1.754518e-016
      outer loop
         vertex 2.145913e+003 4.749453e+002 2.252390e+003
         vertex 2.146320e+003 4.745385e+002 2.248390e+003
         vertex 2.146320e+003 4.745385e+002 2.252390e+003
      endloop
   endfacet
   facet normal -8.020839e-001 -5.972114e-001 1.151993e-016
      outer loop
         vertex 2.146320e+003 4.745385e+002 2.252390e+003
         vertex 2.146320e+003 4.745385e+002 2.248390e+003
         vertex 2.146650e+003 4.740673e+002 2.248390e+003
      endloop
   endfacet
   facet normal -8.355240e-001 -5.494540e-001 8.433336e-017
      outer loop
         vertex 2.146320e+003 4.745385e+002 2.252390e+003
         vertex 2.146650e+003 4.740673e+002 2.248390e+003
         vertex 2.146650e+003 4.740673e+002 2.252390e+003
      endloop
   endfacet
   facet normal -8.936031e-001 -4.488580e-001 2.205996e-017
      outer loop
         vertex 2.146650e+003 4.740673e+002 2.252390e+003
         vertex 2.146650e+003 4.740673e+002 2.248390e+003
         vertex 2.146893e+003 4.735460e+002 2.248390e+003
      endloop
   endfacet
   facet normal -9.182422e-001 -3.960194e-001 -9.347507e-018
      outer loop
         vertex 2.146650e+003 4.740673e+002 2.252390e+003
         vertex 2.146893e+003 4.735460e+002 2.248390e+003
         vertex 2.146893e+003 4.735460e+002 2.252390e+003
      endloop
   endfacet
   facet normal -9.579706e-001 -2.868663e-001 -7.174969e-017
      outer loop
         vertex 2.146893e+003 4.735460e+002 2.252390e+003
         vertex 2.146893e+003 4.735460e+002 2.248390e+003
         vertex 2.147042e+003 4.729904e+002 2.248390e+003
      endloop
   endfacet
   facet normal -9.730601e-001 -2.305518e-001 -1.027444e-016
      outer loop
         vertex 2.146893e+003 4.735460e+002 2.252390e+003
         vertex 2.147042e+003 4.729904e+002 2.248390e+003
         vertex 2.147042e+003 4.729904e+002 2.252390e+003
      endloop
   endfacet
   facet normal -9.932307e-001 -1.161583e-001 -1.633793e-016
      outer loop
         vertex 2.147042e+003 4.729904e+002 2.252390e+003
         vertex 2.147042e+003 4.729904e+002 2.248390e+003
         vertex 2.147092e+003 4.724173e+002 2.248390e+003
      endloop
   endfacet
   facet normal 4.809670e-016 1.000000e+000 -4.909267e-016
      outer loop
         vertex 2.153792e+003 5.354173e+002 2.252390e+003
         vertex 2.153792e+003 5.354173e+002 2.248390e+003
         vertex 2.113792e+003 5.354173e+002 2.252390e+003
      endloop
   endfacet
   facet normal 4.809670e-016 1.000000e+000 -4.909267e-016
      outer loop
         vertex 2.113792e+003 5.354173e+002 2.252390e+003
         vertex 2.153792e+003 5.354173e+002 2.248390e+003
         vertex 2.113792e+003 5.354173e+002 2.248390e+003
      endloop
   endfacet
endsolid