solid 09.025.00.00.000 - 09.025.00.08.000-2 09.025.00.08.011-2 09.025.00.08.0AB-1
   facet normal 2.151700e-016 1.000000e+000 -1.112495e-016
      outer loop
         vertex 2.215792e+003 5.554174e+002 1.931390e+003
         vertex 2.215792e+003 5.554174e+002 1.948390e+003
         vertex 2.225792e+003 5.554174e+002 1.931390e+003
      endloop
   endfacet
   facet normal 2.151700e-016 1.000000e+000 -1.112495e-016
      outer loop
         vertex 2.225792e+003 5.554174e+002 1.931390e+003
         vertex 2.215792e+003 5.554174e+002 1.948390e+003
         vertex 2.225792e+003 5.554174e+002 1.948390e+003
      endloop
   endfacet
   facet normal -4.206412e-017 1.112495e-016 1.000000e+000
      outer loop
         vertex 2.225792e+003 4.614174e+002 1.948390e+003
         vertex 2.225792e+003 5.554174e+002 1.948390e+003
         vertex 2.215792e+003 4.614174e+002 1.948390e+003
      endloop
   endfacet
   facet normal -4.206412e-017 1.112495e-016 1.000000e+000
      outer loop
         vertex 2.215792e+003 4.614174e+002 1.948390e+003
         vertex 2.225792e+003 5.554174e+002 1.948390e+003
         vertex 2.215792e+003 5.554174e+002 1.948390e+003
      endloop
   endfacet
   facet normal -2.151700e-016 -1.000000e+000 1.112495e-016
      outer loop
         vertex 2.215792e+003 4.514173e+002 1.938390e+003
         vertex 2.215792e+003 4.514173e+002 1.926390e+003
         vertex 2.225792e+003 4.514173e+002 1.938390e+003
      endloop
   endfacet
   facet normal -2.151700e-016 -1.000000e+000 1.112495e-016
      outer loop
         vertex 2.225792e+003 4.514173e+002 1.938390e+003
         vertex 2.215792e+003 4.514173e+002 1.926390e+003
         vertex 2.225792e+003 4.514173e+002 1.926390e+003
      endloop
   endfacet
   facet normal 4.206412e-017 -1.112495e-016 -1.000000e+000
      outer loop
         vertex 2.225792e+003 5.504173e+002 1.926390e+003
         vertex 2.225792e+003 4.514173e+002 1.926390e+003
         vertex 2.215792e+003 5.504173e+002 1.926390e+003
      endloop
   endfacet
   facet normal 4.206412e-017 -1.112495e-016 -1.000000e+000
      outer loop
         vertex 2.215792e+003 5.504173e+002 1.926390e+003
         vertex 2.225792e+003 4.514173e+002 1.926390e+003
         vertex 2.215792e+003 4.514173e+002 1.926390e+003
      endloop
   endfacet
   facet normal 1.000000e+000 -2.151700e-016 4.206412e-017
      outer loop
         vertex 2.225792e+003 5.452856e+002 1.932466e+003
         vertex 2.225792e+003 5.504173e+002 1.926390e+003
         vertex 2.225792e+003 5.461274e+002 1.932691e+003
      endloop
   endfacet
   facet normal 1.000000e+000 -2.151700e-016 4.206412e-017
      outer loop
         vertex 2.225792e+003 5.461274e+002 1.932691e+003
         vertex 2.225792e+003 5.504173e+002 1.926390e+003
         vertex 2.225792e+003 5.469173e+002 1.933060e+003
      endloop
   endfacet
   facet normal 1.000000e+000 -2.151700e-016 4.206412e-017
      outer loop
         vertex 2.225792e+003 5.397189e+002 1.939100e+003
         vertex 2.225792e+003 5.400872e+002 1.939890e+003
         vertex 2.225792e+003 4.614174e+002 1.948390e+003
      endloop
   endfacet
   facet normal 1.000000e+000 -2.151700e-016 4.206412e-017
      outer loop
         vertex 2.225792e+003 4.614174e+002 1.948390e+003
         vertex 2.225792e+003 5.400872e+002 1.939890e+003
         vertex 2.225792e+003 5.405871e+002 1.940604e+003
      endloop
   endfacet
   facet normal 1.000000e+000 -2.151700e-016 4.206412e-017
      outer loop
         vertex 2.225792e+003 4.614174e+002 1.948390e+003
         vertex 2.225792e+003 5.405871e+002 1.940604e+003
         vertex 2.225792e+003 5.412034e+002 1.941220e+003
      endloop
   endfacet
   facet normal 1.000000e+000 -2.151700e-016 4.206412e-017
      outer loop
         vertex 2.225792e+003 5.554174e+002 1.931390e+003
         vertex 2.225792e+003 5.493414e+002 1.936522e+003
         vertex 2.225792e+003 5.491158e+002 1.935680e+003
      endloop
   endfacet
   facet normal 1.000000e+000 -2.151700e-016 4.206412e-017
      outer loop
         vertex 2.225792e+003 5.444173e+002 1.942390e+003
         vertex 2.225792e+003 5.452856e+002 1.942314e+003
         vertex 2.225792e+003 5.554174e+002 1.948390e+003
      endloop
   endfacet
   facet normal 1.000000e+000 -2.151700e-016 4.206412e-017
      outer loop
         vertex 2.225792e+003 5.554174e+002 1.948390e+003
         vertex 2.225792e+003 5.452856e+002 1.942314e+003
         vertex 2.225792e+003 5.461274e+002 1.942088e+003
      endloop
   endfacet
   facet normal 1.000000e+000 -2.151700e-016 4.206412e-017
      outer loop
         vertex 2.225792e+003 5.554174e+002 1.948390e+003
         vertex 2.225792e+003 5.461274e+002 1.942088e+003
         vertex 2.225792e+003 5.469173e+002 1.941720e+003
      endloop
   endfacet
   facet normal 1.000000e+000 -2.151700e-016 4.206412e-017
      outer loop
         vertex 2.225792e+003 5.469173e+002 1.941720e+003
         vertex 2.225792e+003 5.476313e+002 1.941220e+003
         vertex 2.225792e+003 5.554174e+002 1.948390e+003
      endloop
   endfacet
   facet normal 1.000000e+000 -2.151700e-016 4.206412e-017
      outer loop
         vertex 2.225792e+003 5.554174e+002 1.948390e+003
         vertex 2.225792e+003 5.476313e+002 1.941220e+003
         vertex 2.225792e+003 5.482476e+002 1.940604e+003
      endloop
   endfacet
   facet normal 1.000000e+000 -2.151700e-016 4.206412e-017
      outer loop
         vertex 2.225792e+003 5.554174e+002 1.948390e+003
         vertex 2.225792e+003 5.482476e+002 1.940604e+003
         vertex 2.225792e+003 5.487475e+002 1.939890e+003
      endloop
   endfacet
   facet normal 1.000000e+000 -2.151700e-016 4.206412e-017
      outer loop
         vertex 2.225792e+003 5.452856e+002 1.932466e+003
         vertex 2.225792e+003 5.444173e+002 1.932390e+003
         vertex 2.225792e+003 5.504173e+002 1.926390e+003
      endloop
   endfacet
   facet normal 1.000000e+000 -2.151700e-016 4.206412e-017
      outer loop
         vertex 2.225792e+003 5.504173e+002 1.926390e+003
         vertex 2.225792e+003 5.444173e+002 1.932390e+003
         vertex 2.225792e+003 5.435491e+002 1.932466e+003
      endloop
   endfacet
   facet normal 1.000000e+000 -2.151700e-016 4.206412e-017
      outer loop
         vertex 2.225792e+003 5.504173e+002 1.926390e+003
         vertex 2.225792e+003 5.435491e+002 1.932466e+003
         vertex 2.225792e+003 4.514173e+002 1.926390e+003
      endloop
   endfacet
   facet normal 1.000000e+000 -2.151700e-016 4.206412e-017
      outer loop
         vertex 2.225792e+003 4.514173e+002 1.926390e+003
         vertex 2.225792e+003 5.435491e+002 1.932466e+003
         vertex 2.225792e+003 5.427072e+002 1.932691e+003
      endloop
   endfacet
   facet normal 1.000000e+000 -2.151700e-016 4.206412e-017
      outer loop
         vertex 2.225792e+003 4.514173e+002 1.926390e+003
         vertex 2.225792e+003 5.427072e+002 1.932691e+003
         vertex 2.225792e+003 5.419173e+002 1.933060e+003
      endloop
   endfacet
   facet normal 1.000000e+000 -2.151700e-016 4.206412e-017
      outer loop
         vertex 2.225792e+003 5.419173e+002 1.933060e+003
         vertex 2.225792e+003 5.412034e+002 1.933560e+003
         vertex 2.225792e+003 4.514173e+002 1.926390e+003
      endloop
   endfacet
   facet normal 1.000000e+000 -2.151700e-016 4.206412e-017
      outer loop
         vertex 2.225792e+003 4.514173e+002 1.926390e+003
         vertex 2.225792e+003 5.412034e+002 1.933560e+003
         vertex 2.225792e+003 5.405871e+002 1.934176e+003
      endloop
   endfacet
   facet normal 1.000000e+000 -2.151700e-016 4.206412e-017
      outer loop
         vertex 2.225792e+003 4.514173e+002 1.926390e+003
         vertex 2.225792e+003 5.405871e+002 1.934176e+003
         vertex 2.225792e+003 5.400872e+002 1.934890e+003
      endloop
   endfacet
   facet normal 1.000000e+000 -2.151700e-016 4.206412e-017
      outer loop
         vertex 2.225792e+003 5.412034e+002 1.941220e+003
         vertex 2.225792e+003 5.419173e+002 1.941720e+003
         vertex 2.225792e+003 4.614174e+002 1.948390e+003
      endloop
   endfacet
   facet normal 1.000000e+000 -2.151700e-016 4.206412e-017
      outer loop
         vertex 2.225792e+003 4.614174e+002 1.948390e+003
         vertex 2.225792e+003 5.419173e+002 1.941720e+003
         vertex 2.225792e+003 5.427072e+002 1.942088e+003
      endloop
   endfacet
   facet normal 1.000000e+000 -2.151700e-016 4.206412e-017
      outer loop
         vertex 2.225792e+003 4.614174e+002 1.948390e+003
         vertex 2.225792e+003 5.427072e+002 1.942088e+003
         vertex 2.225792e+003 5.554174e+002 1.948390e+003
      endloop
   endfacet
   facet normal 1.000000e+000 -2.151700e-016 4.206412e-017
      outer loop
         vertex 2.225792e+003 5.554174e+002 1.948390e+003
         vertex 2.225792e+003 5.427072e+002 1.942088e+003
         vertex 2.225792e+003 5.435491e+002 1.942314e+003
      endloop
   endfacet
   facet normal 1.000000e+000 -2.151700e-016 4.206412e-017
      outer loop
         vertex 2.225792e+003 5.554174e+002 1.948390e+003
         vertex 2.225792e+003 5.435491e+002 1.942314e+003
         vertex 2.225792e+003 5.444173e+002 1.942390e+003
      endloop
   endfacet
   facet normal 1.000000e+000 -2.151700e-016 4.206412e-017
      outer loop
         vertex 2.225792e+003 5.491158e+002 1.935680e+003
         vertex 2.225792e+003 5.487475e+002 1.934890e+003
         vertex 2.225792e+003 5.554174e+002 1.931390e+003
      endloop
   endfacet
   facet normal 1.000000e+000 -2.151700e-016 4.206412e-017
      outer loop
         vertex 2.225792e+003 5.554174e+002 1.931390e+003
         vertex 2.225792e+003 5.487475e+002 1.934890e+003
         vertex 2.225792e+003 5.482476e+002 1.934176e+003
      endloop
   endfacet
   facet normal 1.000000e+000 -2.151700e-016 4.206412e-017
      outer loop
         vertex 2.225792e+003 5.554174e+002 1.931390e+003
         vertex 2.225792e+003 5.482476e+002 1.934176e+003
         vertex 2.225792e+003 5.504173e+002 1.926390e+003
      endloop
   endfacet
   facet normal 1.000000e+000 -2.151700e-016 4.206412e-017
      outer loop
         vertex 2.225792e+003 5.504173e+002 1.926390e+003
         vertex 2.225792e+003 5.482476e+002 1.934176e+003
         vertex 2.225792e+003 5.476313e+002 1.933560e+003
      endloop
   endfacet
   facet normal 1.000000e+000 -2.151700e-016 4.206412e-017
      outer loop
         vertex 2.225792e+003 5.504173e+002 1.926390e+003
         vertex 2.225792e+003 5.476313e+002 1.933560e+003
         vertex 2.225792e+003 5.469173e+002 1.933060e+003
      endloop
   endfacet
   facet normal 1.000000e+000 -2.151700e-016 4.206412e-017
      outer loop
         vertex 2.225792e+003 5.400872e+002 1.934890e+003
         vertex 2.225792e+003 5.397189e+002 1.935680e+003
         vertex 2.225792e+003 4.514173e+002 1.926390e+003
      endloop
   endfacet
   facet normal 1.000000e+000 -2.151700e-016 4.206412e-017
      outer loop
         vertex 2.225792e+003 4.514173e+002 1.926390e+003
         vertex 2.225792e+003 5.397189e+002 1.935680e+003
         vertex 2.225792e+003 5.394933e+002 1.936522e+003
      endloop
   endfacet
   facet normal 1.000000e+000 -2.151700e-016 4.206412e-017
      outer loop
         vertex 2.225792e+003 4.514173e+002 1.926390e+003
         vertex 2.225792e+003 5.394933e+002 1.936522e+003
         vertex 2.225792e+003 4.514173e+002 1.938390e+003
      endloop
   endfacet
   facet normal 1.000000e+000 -2.151700e-016 4.206412e-017
      outer loop
         vertex 2.225792e+003 4.514173e+002 1.938390e+003
         vertex 2.225792e+003 5.394933e+002 1.936522e+003
         vertex 2.225792e+003 5.394173e+002 1.937390e+003
      endloop
   endfacet
   facet normal 1.000000e+000 -2.151700e-016 4.206412e-017
      outer loop
         vertex 2.225792e+003 4.514173e+002 1.938390e+003
         vertex 2.225792e+003 5.394173e+002 1.937390e+003
         vertex 2.225792e+003 4.614174e+002 1.948390e+003
      endloop
   endfacet
   facet normal 1.000000e+000 -2.151700e-016 4.206412e-017
      outer loop
         vertex 2.225792e+003 4.614174e+002 1.948390e+003
         vertex 2.225792e+003 5.394173e+002 1.937390e+003
         vertex 2.225792e+003 5.394933e+002 1.938258e+003
      endloop
   endfacet
   facet normal 1.000000e+000 -2.151700e-016 4.206412e-017
      outer loop
         vertex 2.225792e+003 4.614174e+002 1.948390e+003
         vertex 2.225792e+003 5.394933e+002 1.938258e+003
         vertex 2.225792e+003 5.397189e+002 1.939100e+003
      endloop
   endfacet
   facet normal 1.000000e+000 -2.151700e-016 4.206412e-017
      outer loop
         vertex 2.225792e+003 5.487475e+002 1.939890e+003
         vertex 2.225792e+003 5.491158e+002 1.939100e+003
         vertex 2.225792e+003 5.554174e+002 1.948390e+003
      endloop
   endfacet
   facet normal 1.000000e+000 -2.151700e-016 4.206412e-017
      outer loop
         vertex 2.225792e+003 5.554174e+002 1.948390e+003
         vertex 2.225792e+003 5.491158e+002 1.939100e+003
         vertex 2.225792e+003 5.493414e+002 1.938258e+003
      endloop
   endfacet
   facet normal 1.000000e+000 -2.151700e-016 4.206412e-017
      outer loop
         vertex 2.225792e+003 5.554174e+002 1.948390e+003
         vertex 2.225792e+003 5.493414e+002 1.938258e+003
         vertex 2.225792e+003 5.554174e+002 1.931390e+003
      endloop
   endfacet
   facet normal 1.000000e+000 -2.151700e-016 4.206412e-017
      outer loop
         vertex 2.225792e+003 5.554174e+002 1.931390e+003
         vertex 2.225792e+003 5.493414e+002 1.938258e+003
         vertex 2.225792e+003 5.494173e+002 1.937390e+003
      endloop
   endfacet
   facet normal 1.000000e+000 -2.151700e-016 4.206412e-017
      outer loop
         vertex 2.225792e+003 5.554174e+002 1.931390e+003
         vertex 2.225792e+003 5.494173e+002 1.937390e+003
         vertex 2.225792e+003 5.493414e+002 1.936522e+003
      endloop
   endfacet
   facet normal -1.000000e+000 2.151700e-016 -4.206412e-017
      outer loop
         vertex 2.215792e+003 5.554174e+002 1.948390e+003
         vertex 2.215792e+003 5.554174e+002 1.931390e+003
         vertex 2.215792e+003 5.494173e+002 1.937390e+003
      endloop
   endfacet
   facet normal -1.000000e+000 2.151700e-016 -4.206412e-017
      outer loop
         vertex 2.215792e+003 5.487475e+002 1.934890e+003
         vertex 2.215792e+003 5.491158e+002 1.935680e+003
         vertex 2.215792e+003 5.554174e+002 1.931390e+003
      endloop
   endfacet
   facet normal -1.000000e+000 2.151700e-016 -4.206412e-017
      outer loop
         vertex 2.215792e+003 5.554174e+002 1.931390e+003
         vertex 2.215792e+003 5.491158e+002 1.935680e+003
         vertex 2.215792e+003 5.493414e+002 1.936522e+003
      endloop
   endfacet
   facet normal -1.000000e+000 2.151700e-016 -4.206412e-017
      outer loop
         vertex 2.215792e+003 5.554174e+002 1.931390e+003
         vertex 2.215792e+003 5.493414e+002 1.936522e+003
         vertex 2.215792e+003 5.494173e+002 1.937390e+003
      endloop
   endfacet
   facet normal -1.000000e+000 2.151700e-016 -4.206412e-017
      outer loop
         vertex 2.215792e+003 5.419173e+002 1.941720e+003
         vertex 2.215792e+003 5.412034e+002 1.941220e+003
         vertex 2.215792e+003 4.614174e+002 1.948390e+003
      endloop
   endfacet
   facet normal -1.000000e+000 2.151700e-016 -4.206412e-017
      outer loop
         vertex 2.215792e+003 4.614174e+002 1.948390e+003
         vertex 2.215792e+003 5.412034e+002 1.941220e+003
         vertex 2.215792e+003 5.405871e+002 1.940604e+003
      endloop
   endfacet
   facet normal -1.000000e+000 2.151700e-016 -4.206412e-017
      outer loop
         vertex 2.215792e+003 4.614174e+002 1.948390e+003
         vertex 2.215792e+003 5.405871e+002 1.940604e+003
         vertex 2.215792e+003 5.400872e+002 1.939890e+003
      endloop
   endfacet
   facet normal -1.000000e+000 2.151700e-016 -4.206412e-017
      outer loop
         vertex 2.215792e+003 5.494173e+002 1.937390e+003
         vertex 2.215792e+003 5.493414e+002 1.938258e+003
         vertex 2.215792e+003 5.554174e+002 1.948390e+003
      endloop
   endfacet
   facet normal -1.000000e+000 2.151700e-016 -4.206412e-017
      outer loop
         vertex 2.215792e+003 5.554174e+002 1.948390e+003
         vertex 2.215792e+003 5.493414e+002 1.938258e+003
         vertex 2.215792e+003 5.491158e+002 1.939100e+003
      endloop
   endfacet
   facet normal -1.000000e+000 2.151700e-016 -4.206412e-017
      outer loop
         vertex 2.215792e+003 5.554174e+002 1.948390e+003
         vertex 2.215792e+003 5.491158e+002 1.939100e+003
         vertex 2.215792e+003 5.487475e+002 1.939890e+003
      endloop
   endfacet
   facet normal -1.000000e+000 2.151700e-016 -4.206412e-017
      outer loop
         vertex 2.215792e+003 5.469173e+002 1.941720e+003
         vertex 2.215792e+003 5.461274e+002 1.942088e+003
         vertex 2.215792e+003 5.554174e+002 1.948390e+003
      endloop
   endfacet
   facet normal -1.000000e+000 2.151700e-016 -4.206412e-017
      outer loop
         vertex 2.215792e+003 5.554174e+002 1.948390e+003
         vertex 2.215792e+003 5.461274e+002 1.942088e+003
         vertex 2.215792e+003 5.452856e+002 1.942314e+003
      endloop
   endfacet
   facet normal -1.000000e+000 2.151700e-016 -4.206412e-017
      outer loop
         vertex 2.215792e+003 5.487475e+002 1.939890e+003
         vertex 2.215792e+003 5.482476e+002 1.940604e+003
         vertex 2.215792e+003 5.554174e+002 1.948390e+003
      endloop
   endfacet
   facet normal -1.000000e+000 2.151700e-016 -4.206412e-017
      outer loop
         vertex 2.215792e+003 5.554174e+002 1.948390e+003
         vertex 2.215792e+003 5.482476e+002 1.940604e+003
         vertex 2.215792e+003 5.476313e+002 1.941220e+003
      endloop
   endfacet
   facet normal -1.000000e+000 2.151700e-016 -4.206412e-017
      outer loop
         vertex 2.215792e+003 5.554174e+002 1.948390e+003
         vertex 2.215792e+003 5.476313e+002 1.941220e+003
         vertex 2.215792e+003 5.469173e+002 1.941720e+003
      endloop
   endfacet
   facet normal -1.000000e+000 2.151700e-016 -4.206412e-017
      outer loop
         vertex 2.215792e+003 5.452856e+002 1.942314e+003
         vertex 2.215792e+003 5.444173e+002 1.942390e+003
         vertex 2.215792e+003 5.554174e+002 1.948390e+003
      endloop
   endfacet
   facet normal -1.000000e+000 2.151700e-016 -4.206412e-017
      outer loop
         vertex 2.215792e+003 5.554174e+002 1.948390e+003
         vertex 2.215792e+003 5.444173e+002 1.942390e+003
         vertex 2.215792e+003 5.435491e+002 1.942314e+003
      endloop
   endfacet
   facet normal -1.000000e+000 2.151700e-016 -4.206412e-017
      outer loop
         vertex 2.215792e+003 5.554174e+002 1.948390e+003
         vertex 2.215792e+003 5.435491e+002 1.942314e+003
         vertex 2.215792e+003 4.614174e+002 1.948390e+003
      endloop
   endfacet
   facet normal -1.000000e+000 2.151700e-016 -4.206412e-017
      outer loop
         vertex 2.215792e+003 4.614174e+002 1.948390e+003
         vertex 2.215792e+003 5.435491e+002 1.942314e+003
         vertex 2.215792e+003 5.427072e+002 1.942088e+003
      endloop
   endfacet
   facet normal -1.000000e+000 2.151700e-016 -4.206412e-017
      outer loop
         vertex 2.215792e+003 4.614174e+002 1.948390e+003
         vertex 2.215792e+003 5.427072e+002 1.942088e+003
         vertex 2.215792e+003 5.419173e+002 1.941720e+003
      endloop
   endfacet
   facet normal -1.000000e+000 2.151700e-016 -4.206412e-017
      outer loop
         vertex 2.215792e+003 5.397189e+002 1.935680e+003
         vertex 2.215792e+003 5.400872e+002 1.934890e+003
         vertex 2.215792e+003 4.514173e+002 1.926390e+003
      endloop
   endfacet
   facet normal -1.000000e+000 2.151700e-016 -4.206412e-017
      outer loop
         vertex 2.215792e+003 4.514173e+002 1.926390e+003
         vertex 2.215792e+003 5.400872e+002 1.934890e+003
         vertex 2.215792e+003 5.405871e+002 1.934176e+003
      endloop
   endfacet
   facet normal -1.000000e+000 2.151700e-016 -4.206412e-017
      outer loop
         vertex 2.215792e+003 5.400872e+002 1.939890e+003
         vertex 2.215792e+003 5.397189e+002 1.939100e+003
         vertex 2.215792e+003 4.614174e+002 1.948390e+003
      endloop
   endfacet
   facet normal -1.000000e+000 2.151700e-016 -4.206412e-017
      outer loop
         vertex 2.215792e+003 4.614174e+002 1.948390e+003
         vertex 2.215792e+003 5.397189e+002 1.939100e+003
         vertex 2.215792e+003 5.394933e+002 1.938258e+003
      endloop
   endfacet
   facet normal -1.000000e+000 2.151700e-016 -4.206412e-017
      outer loop
         vertex 2.215792e+003 4.614174e+002 1.948390e+003
         vertex 2.215792e+003 5.394933e+002 1.938258e+003
         vertex 2.215792e+003 4.514173e+002 1.938390e+003
      endloop
   endfacet
   facet normal -1.000000e+000 2.151700e-016 -4.206412e-017
      outer loop
         vertex 2.215792e+003 4.514173e+002 1.938390e+003
         vertex 2.215792e+003 5.394933e+002 1.938258e+003
         vertex 2.215792e+003 5.394173e+002 1.937390e+003
      endloop
   endfacet
   facet normal -1.000000e+000 2.151700e-016 -4.206412e-017
      outer loop
         vertex 2.215792e+003 4.514173e+002 1.938390e+003
         vertex 2.215792e+003 5.394173e+002 1.937390e+003
         vertex 2.215792e+003 4.514173e+002 1.926390e+003
      endloop
   endfacet
   facet normal -1.000000e+000 2.151700e-016 -4.206412e-017
      outer loop
         vertex 2.215792e+003 4.514173e+002 1.926390e+003
         vertex 2.215792e+003 5.394173e+002 1.937390e+003
         vertex 2.215792e+003 5.394933e+002 1.936522e+003
      endloop
   endfacet
   facet normal -1.000000e+000 2.151700e-016 -4.206412e-017
      outer loop
         vertex 2.215792e+003 4.514173e+002 1.926390e+003
         vertex 2.215792e+003 5.394933e+002 1.936522e+003
         vertex 2.215792e+003 5.397189e+002 1.935680e+003
      endloop
   endfacet
   facet normal -1.000000e+000 2.151700e-016 -4.206412e-017
      outer loop
         vertex 2.215792e+003 5.435491e+002 1.932466e+003
         vertex 2.215792e+003 5.444173e+002 1.932390e+003
         vertex 2.215792e+003 5.504173e+002 1.926390e+003
      endloop
   endfacet
   facet normal -1.000000e+000 2.151700e-016 -4.206412e-017
      outer loop
         vertex 2.215792e+003 5.504173e+002 1.926390e+003
         vertex 2.215792e+003 5.444173e+002 1.932390e+003
         vertex 2.215792e+003 5.452856e+002 1.932466e+003
      endloop
   endfacet
   facet normal -1.000000e+000 2.151700e-016 -4.206412e-017
      outer loop
         vertex 2.215792e+003 5.504173e+002 1.926390e+003
         vertex 2.215792e+003 5.452856e+002 1.932466e+003
         vertex 2.215792e+003 5.461274e+002 1.932691e+003
      endloop
   endfacet
   facet normal -1.000000e+000 2.151700e-016 -4.206412e-017
      outer loop
         vertex 2.215792e+003 5.405871e+002 1.934176e+003
         vertex 2.215792e+003 5.412034e+002 1.933560e+003
         vertex 2.215792e+003 4.514173e+002 1.926390e+003
      endloop
   endfacet
   facet normal -1.000000e+000 2.151700e-016 -4.206412e-017
      outer loop
         vertex 2.215792e+003 4.514173e+002 1.926390e+003
         vertex 2.215792e+003 5.412034e+002 1.933560e+003
         vertex 2.215792e+003 5.419173e+002 1.933060e+003
      endloop
   endfacet
   facet normal -1.000000e+000 2.151700e-016 -4.206412e-017
      outer loop
         vertex 2.215792e+003 4.514173e+002 1.926390e+003
         vertex 2.215792e+003 5.419173e+002 1.933060e+003
         vertex 2.215792e+003 5.504173e+002 1.926390e+003
      endloop
   endfacet
   facet normal -1.000000e+000 2.151700e-016 -4.206412e-017
      outer loop
         vertex 2.215792e+003 5.504173e+002 1.926390e+003
         vertex 2.215792e+003 5.419173e+002 1.933060e+003
         vertex 2.215792e+003 5.427072e+002 1.932691e+003
      endloop
   endfacet
   facet normal -1.000000e+000 2.151700e-016 -4.206412e-017
      outer loop
         vertex 2.215792e+003 5.504173e+002 1.926390e+003
         vertex 2.215792e+003 5.427072e+002 1.932691e+003
         vertex 2.215792e+003 5.435491e+002 1.932466e+003
      endloop
   endfacet
   facet normal -1.000000e+000 2.151700e-016 -4.206412e-017
      outer loop
         vertex 2.215792e+003 5.461274e+002 1.932691e+003
         vertex 2.215792e+003 5.469173e+002 1.933060e+003
         vertex 2.215792e+003 5.504173e+002 1.926390e+003
      endloop
   endfacet
   facet normal -1.000000e+000 2.151700e-016 -4.206412e-017
      outer loop
         vertex 2.215792e+003 5.504173e+002 1.926390e+003
         vertex 2.215792e+003 5.469173e+002 1.933060e+003
         vertex 2.215792e+003 5.476313e+002 1.933560e+003
      endloop
   endfacet
   facet normal -1.000000e+000 2.151700e-016 -4.206412e-017
      outer loop
         vertex 2.215792e+003 5.504173e+002 1.926390e+003
         vertex 2.215792e+003 5.476313e+002 1.933560e+003
         vertex 2.215792e+003 5.554174e+002 1.931390e+003
      endloop
   endfacet
   facet normal -1.000000e+000 2.151700e-016 -4.206412e-017
      outer loop
         vertex 2.215792e+003 5.554174e+002 1.931390e+003
         vertex 2.215792e+003 5.476313e+002 1.933560e+003
         vertex 2.215792e+003 5.482476e+002 1.934176e+003
      endloop
   endfacet
   facet normal -1.000000e+000 2.151700e-016 -4.206412e-017
      outer loop
         vertex 2.215792e+003 5.554174e+002 1.931390e+003
         vertex 2.215792e+003 5.482476e+002 1.934176e+003
         vertex 2.215792e+003 5.487475e+002 1.934890e+003
      endloop
   endfacet
   facet normal -1.818920e-016 -7.071068e-001 7.071068e-001
      outer loop
         vertex 2.215792e+003 4.614174e+002 1.948390e+003
         vertex 2.215792e+003 4.514173e+002 1.938390e+003
         vertex 2.225792e+003 4.614174e+002 1.948390e+003
      endloop
   endfacet
   facet normal -1.818920e-016 -7.071068e-001 7.071068e-001
      outer loop
         vertex 2.225792e+003 4.614174e+002 1.948390e+003
         vertex 2.215792e+003 4.514173e+002 1.938390e+003
         vertex 2.225792e+003 4.514173e+002 1.938390e+003
      endloop
   endfacet
   facet normal -2.123638e-016 -9.983120e-001 -5.807914e-002
      outer loop
         vertex 2.225792e+003 5.493414e+002 1.938258e+003
         vertex 2.215792e+003 5.494173e+002 1.937390e+003
         vertex 2.225792e+003 5.494173e+002 1.937390e+003
      endloop
   endfacet
   facet normal -2.172499e-016 -9.983120e-001 5.807914e-002
      outer loop
         vertex 2.225792e+003 5.494173e+002 1.937390e+003
         vertex 2.215792e+003 5.494173e+002 1.937390e+003
         vertex 2.215792e+003 5.493414e+002 1.936522e+003
      endloop
   endfacet
   facet normal -2.185996e-016 -9.932307e-001 1.161583e-001
      outer loop
         vertex 2.225792e+003 5.494173e+002 1.937390e+003
         vertex 2.215792e+003 5.493414e+002 1.936522e+003
         vertex 2.225792e+003 5.493414e+002 1.936522e+003
      endloop
   endfacet
   facet normal -2.190713e-016 -9.730601e-001 2.305518e-001
      outer loop
         vertex 2.225792e+003 5.493414e+002 1.936522e+003
         vertex 2.215792e+003 5.493414e+002 1.936522e+003
         vertex 2.215792e+003 5.491158e+002 1.935680e+003
      endloop
   endfacet
   facet normal -2.181933e-016 -9.579706e-001 2.868663e-001
      outer loop
         vertex 2.225792e+003 5.493414e+002 1.936522e+003
         vertex 2.215792e+003 5.491158e+002 1.935680e+003
         vertex 2.225792e+003 5.491158e+002 1.935680e+003
      endloop
   endfacet
   facet normal -2.142364e-016 -9.182422e-001 3.960194e-001
      outer loop
         vertex 2.225792e+003 5.491158e+002 1.935680e+003
         vertex 2.215792e+003 5.491158e+002 1.935680e+003
         vertex 2.215792e+003 5.487475e+002 1.934890e+003
      endloop
   endfacet
   facet normal -2.111574e-016 -8.936031e-001 4.488580e-001
      outer loop
         vertex 2.225792e+003 5.491158e+002 1.935680e+003
         vertex 2.215792e+003 5.487475e+002 1.934890e+003
         vertex 2.225792e+003 5.487475e+002 1.934890e+003
      endloop
   endfacet
   facet normal -2.028920e-016 -8.355240e-001 5.494540e-001
      outer loop
         vertex 2.225792e+003 5.487475e+002 1.934890e+003
         vertex 2.215792e+003 5.487475e+002 1.934890e+003
         vertex 2.215792e+003 5.482476e+002 1.934176e+003
      endloop
   endfacet
   facet normal -1.977056e-016 -8.020839e-001 5.972114e-001
      outer loop
         vertex 2.225792e+003 5.487475e+002 1.934890e+003
         vertex 2.215792e+003 5.482476e+002 1.934176e+003
         vertex 2.225792e+003 5.482476e+002 1.934176e+003
      endloop
   endfacet
   facet normal -1.853829e-016 -7.274188e-001 6.861938e-001
      outer loop
         vertex 2.225792e+003 5.482476e+002 1.934176e+003
         vertex 2.215792e+003 5.482476e+002 1.934176e+003
         vertex 2.215792e+003 5.476313e+002 1.933560e+003
      endloop
   endfacet
   facet normal -1.782466e-016 -6.861938e-001 7.274188e-001
      outer loop
         vertex 2.225792e+003 5.482476e+002 1.934176e+003
         vertex 2.215792e+003 5.476313e+002 1.933560e+003
         vertex 2.225792e+003 5.476313e+002 1.933560e+003
      endloop
   endfacet
   facet normal -1.622409e-016 -5.972114e-001 8.020839e-001
      outer loop
         vertex 2.225792e+003 5.476313e+002 1.933560e+003
         vertex 2.215792e+003 5.476313e+002 1.933560e+003
         vertex 2.215792e+003 5.469173e+002 1.933060e+003
      endloop
   endfacet
   facet normal -1.533716e-016 -5.494540e-001 8.355240e-001
      outer loop
         vertex 2.225792e+003 5.476313e+002 1.933560e+003
         vertex 2.215792e+003 5.469173e+002 1.933060e+003
         vertex 2.225792e+003 5.469173e+002 1.933060e+003
      endloop
   endfacet
   facet normal -1.341694e-016 -4.488580e-001 8.936031e-001
      outer loop
         vertex 2.225792e+003 5.469173e+002 1.933060e+003
         vertex 2.215792e+003 5.469173e+002 1.933060e+003
         vertex 2.215792e+003 5.461274e+002 1.932691e+003
      endloop
   endfacet
   facet normal -1.238365e-016 -3.960194e-001 9.182422e-001
      outer loop
         vertex 2.225792e+003 5.469173e+002 1.933060e+003
         vertex 2.215792e+003 5.461274e+002 1.932691e+003
         vertex 2.225792e+003 5.461274e+002 1.932691e+003
      endloop
   endfacet
   facet normal -1.020212e-016 -2.868663e-001 9.579706e-001
      outer loop
         vertex 2.225792e+003 5.461274e+002 1.932691e+003
         vertex 2.215792e+003 5.461274e+002 1.932691e+003
         vertex 2.215792e+003 5.452856e+002 1.932466e+003
      endloop
   endfacet
   facet normal -9.053876e-017 -2.305518e-001 9.730601e-001
      outer loop
         vertex 2.225792e+003 5.461274e+002 1.932691e+003
         vertex 2.215792e+003 5.452856e+002 1.932466e+003
         vertex 2.225792e+003 5.452856e+002 1.932466e+003
      endloop
   endfacet
   facet normal -6.677316e-017 -1.161583e-001 9.932307e-001
      outer loop
         vertex 2.225792e+003 5.452856e+002 1.932466e+003
         vertex 2.215792e+003 5.452856e+002 1.932466e+003
         vertex 2.215792e+003 5.444173e+002 1.932390e+003
      endloop
   endfacet
   facet normal -5.449000e-017 -5.807914e-002 9.983120e-001
      outer loop
         vertex 2.225792e+003 5.452856e+002 1.932466e+003
         vertex 2.215792e+003 5.444173e+002 1.932390e+003
         vertex 2.225792e+003 5.444173e+002 1.932390e+003
      endloop
   endfacet
   facet normal -2.949623e-017 5.807914e-002 9.983120e-001
      outer loop
         vertex 2.225792e+003 5.444173e+002 1.932390e+003
         vertex 2.215792e+003 5.444173e+002 1.932390e+003
         vertex 2.215792e+003 5.435491e+002 1.932466e+003
      endloop
   endfacet
   facet normal -1.678560e-017 1.161583e-001 9.932307e-001
      outer loop
         vertex 2.225792e+003 5.444173e+002 1.932390e+003
         vertex 2.215792e+003 5.435491e+002 1.932466e+003
         vertex 2.225792e+003 5.435491e+002 1.932466e+003
      endloop
   endfacet
   facet normal 8.676930e-018 2.305518e-001 9.730601e-001
      outer loop
         vertex 2.225792e+003 5.435491e+002 1.932466e+003
         vertex 2.215792e+003 5.435491e+002 1.932466e+003
         vertex 2.215792e+003 5.427072e+002 1.932691e+003
      endloop
   endfacet
   facet normal 2.142884e-017 2.868663e-001 9.579706e-001
      outer loop
         vertex 2.225792e+003 5.435491e+002 1.932466e+003
         vertex 2.215792e+003 5.427072e+002 1.932691e+003
         vertex 2.225792e+003 5.427072e+002 1.932691e+003
      endloop
   endfacet
   facet normal 4.658645e-017 3.960194e-001 9.182422e-001
      outer loop
         vertex 2.225792e+003 5.427072e+002 1.932691e+003
         vertex 2.215792e+003 5.427072e+002 1.932691e+003
         vertex 2.215792e+003 5.419173e+002 1.933060e+003
      endloop
   endfacet
   facet normal 5.899216e-017 4.488580e-001 8.936031e-001
      outer loop
         vertex 2.225792e+003 5.427072e+002 1.932691e+003
         vertex 2.215792e+003 5.419173e+002 1.933060e+003
         vertex 2.225792e+003 5.419173e+002 1.933060e+003
      endloop
   endfacet
   facet normal 8.308045e-017 5.494540e-001 8.355240e-001
      outer loop
         vertex 2.225792e+003 5.419173e+002 1.933060e+003
         vertex 2.215792e+003 5.419173e+002 1.933060e+003
         vertex 2.215792e+003 5.412034e+002 1.933560e+003
      endloop
   endfacet
   facet normal 9.476304e-017 5.972114e-001 8.020839e-001
      outer loop
         vertex 2.225792e+003 5.419173e+002 1.933060e+003
         vertex 2.215792e+003 5.412034e+002 1.933560e+003
         vertex 2.225792e+003 5.412034e+002 1.933560e+003
      endloop
   endfacet
   facet normal 1.170501e-016 6.861938e-001 7.274188e-001
      outer loop
         vertex 2.225792e+003 5.412034e+002 1.933560e+003
         vertex 2.215792e+003 5.412034e+002 1.933560e+003
         vertex 2.215792e+003 5.405871e+002 1.934176e+003
      endloop
   endfacet
   facet normal 1.276546e-016 7.274188e-001 6.861938e-001
      outer loop
         vertex 2.225792e+003 5.412034e+002 1.933560e+003
         vertex 2.215792e+003 5.405871e+002 1.934176e+003
         vertex 2.225792e+003 5.405871e+002 1.934176e+003
      endloop
   endfacet
   facet normal 1.474632e-016 8.020839e-001 5.972114e-001
      outer loop
         vertex 2.225792e+003 5.405871e+002 1.934176e+003
         vertex 2.215792e+003 5.405871e+002 1.934176e+003
         vertex 2.215792e+003 5.400872e+002 1.934890e+003
      endloop
   endfacet
   facet normal 1.566674e-016 8.355240e-001 5.494540e-001
      outer loop
         vertex 2.225792e+003 5.405871e+002 1.934176e+003
         vertex 2.215792e+003 5.400872e+002 1.934890e+003
         vertex 2.225792e+003 5.400872e+002 1.934890e+003
      endloop
   endfacet
   facet normal 1.733958e-016 8.936031e-001 4.488580e-001
      outer loop
         vertex 2.225792e+003 5.400872e+002 1.934890e+003
         vertex 2.215792e+003 5.400872e+002 1.934890e+003
         vertex 2.215792e+003 5.397189e+002 1.935680e+003
      endloop
   endfacet
   facet normal 1.809200e-016 9.182422e-001 3.960194e-001
      outer loop
         vertex 2.225792e+003 5.400872e+002 1.934890e+003
         vertex 2.215792e+003 5.397189e+002 1.935680e+003
         vertex 2.225792e+003 5.397189e+002 1.935680e+003
      endloop
   endfacet
   facet normal 1.940598e-016 9.579706e-001 2.868663e-001
      outer loop
         vertex 2.225792e+003 5.397189e+002 1.935680e+003
         vertex 2.215792e+003 5.397189e+002 1.935680e+003
         vertex 2.215792e+003 5.394933e+002 1.936522e+003
      endloop
   endfacet
   facet normal 1.996754e-016 9.730601e-001 2.305518e-001
      outer loop
         vertex 2.225792e+003 5.397189e+002 1.935680e+003
         vertex 2.215792e+003 5.394933e+002 1.936522e+003
         vertex 2.225792e+003 5.394933e+002 1.936522e+003
      endloop
   endfacet
   facet normal 2.088274e-016 9.932307e-001 1.161583e-001
      outer loop
         vertex 2.225792e+003 5.394933e+002 1.936522e+003
         vertex 2.215792e+003 5.394933e+002 1.936522e+003
         vertex 2.215792e+003 5.394173e+002 1.937390e+003
      endloop
   endfacet
   facet normal 2.123638e-016 9.983120e-001 5.807914e-002
      outer loop
         vertex 2.225792e+003 5.394933e+002 1.936522e+003
         vertex 2.215792e+003 5.394173e+002 1.937390e+003
         vertex 2.225792e+003 5.394173e+002 1.937390e+003
      endloop
   endfacet
   facet normal 2.172499e-016 9.983120e-001 -5.807914e-002
      outer loop
         vertex 2.225792e+003 5.394173e+002 1.937390e+003
         vertex 2.215792e+003 5.394173e+002 1.937390e+003
         vertex 2.215792e+003 5.394933e+002 1.938258e+003
      endloop
   endfacet
   facet normal 2.185996e-016 9.932307e-001 -1.161583e-001
      outer loop
         vertex 2.225792e+003 5.394173e+002 1.937390e+003
         vertex 2.215792e+003 5.394933e+002 1.938258e+003
         vertex 2.225792e+003 5.394933e+002 1.938258e+003
      endloop
   endfacet
   facet normal 2.190713e-016 9.730601e-001 -2.305518e-001
      outer loop
         vertex 2.225792e+003 5.394933e+002 1.938258e+003
         vertex 2.215792e+003 5.394933e+002 1.938258e+003
         vertex 2.215792e+003 5.397189e+002 1.939100e+003
      endloop
   endfacet
   facet normal 2.181933e-016 9.579706e-001 -2.868663e-001
      outer loop
         vertex 2.225792e+003 5.394933e+002 1.938258e+003
         vertex 2.215792e+003 5.397189e+002 1.939100e+003
         vertex 2.225792e+003 5.397189e+002 1.939100e+003
      endloop
   endfacet
   facet normal 2.142364e-016 9.182422e-001 -3.960194e-001
      outer loop
         vertex 2.225792e+003 5.397189e+002 1.939100e+003
         vertex 2.215792e+003 5.397189e+002 1.939100e+003
         vertex 2.215792e+003 5.400872e+002 1.939890e+003
      endloop
   endfacet
   facet normal 2.111574e-016 8.936031e-001 -4.488580e-001
      outer loop
         vertex 2.225792e+003 5.397189e+002 1.939100e+003
         vertex 2.215792e+003 5.400872e+002 1.939890e+003
         vertex 2.225792e+003 5.400872e+002 1.939890e+003
      endloop
   endfacet
   facet normal 2.028920e-016 8.355240e-001 -5.494540e-001
      outer loop
         vertex 2.225792e+003 5.400872e+002 1.939890e+003
         vertex 2.215792e+003 5.400872e+002 1.939890e+003
         vertex 2.215792e+003 5.405871e+002 1.940604e+003
      endloop
   endfacet
   facet normal 1.977056e-016 8.020839e-001 -5.972114e-001
      outer loop
         vertex 2.225792e+003 5.400872e+002 1.939890e+003
         vertex 2.215792e+003 5.405871e+002 1.940604e+003
         vertex 2.225792e+003 5.405871e+002 1.940604e+003
      endloop
   endfacet
   facet normal 1.853829e-016 7.274188e-001 -6.861938e-001
      outer loop
         vertex 2.225792e+003 5.405871e+002 1.940604e+003
         vertex 2.215792e+003 5.405871e+002 1.940604e+003
         vertex 2.215792e+003 5.412034e+002 1.941220e+003
      endloop
   endfacet
   facet normal 1.782466e-016 6.861938e-001 -7.274188e-001
      outer loop
         vertex 2.225792e+003 5.405871e+002 1.940604e+003
         vertex 2.215792e+003 5.412034e+002 1.941220e+003
         vertex 2.225792e+003 5.412034e+002 1.941220e+003
      endloop
   endfacet
   facet normal 1.622409e-016 5.972114e-001 -8.020839e-001
      outer loop
         vertex 2.225792e+003 5.412034e+002 1.941220e+003
         vertex 2.215792e+003 5.412034e+002 1.941220e+003
         vertex 2.215792e+003 5.419173e+002 1.941720e+003
      endloop
   endfacet
   facet normal 1.533716e-016 5.494540e-001 -8.355240e-001
      outer loop
         vertex 2.225792e+003 5.412034e+002 1.941220e+003
         vertex 2.215792e+003 5.419173e+002 1.941720e+003
         vertex 2.225792e+003 5.419173e+002 1.941720e+003
      endloop
   endfacet
   facet normal 1.341694e-016 4.488580e-001 -8.936031e-001
      outer loop
         vertex 2.225792e+003 5.419173e+002 1.941720e+003
         vertex 2.215792e+003 5.419173e+002 1.941720e+003
         vertex 2.215792e+003 5.427072e+002 1.942088e+003
      endloop
   endfacet
   facet normal 1.238365e-016 3.960194e-001 -9.182422e-001
      outer loop
         vertex 2.225792e+003 5.419173e+002 1.941720e+003
         vertex 2.215792e+003 5.427072e+002 1.942088e+003
         vertex 2.225792e+003 5.427072e+002 1.942088e+003
      endloop
   endfacet
   facet normal 1.020212e-016 2.868663e-001 -9.579706e-001
      outer loop
         vertex 2.225792e+003 5.427072e+002 1.942088e+003
         vertex 2.215792e+003 5.427072e+002 1.942088e+003
         vertex 2.215792e+003 5.435491e+002 1.942314e+003
      endloop
   endfacet
   facet normal 9.053876e-017 2.305518e-001 -9.730601e-001
      outer loop
         vertex 2.225792e+003 5.427072e+002 1.942088e+003
         vertex 2.215792e+003 5.435491e+002 1.942314e+003
         vertex 2.225792e+003 5.435491e+002 1.942314e+003
      endloop
   endfacet
   facet normal 6.677316e-017 1.161583e-001 -9.932307e-001
      outer loop
         vertex 2.225792e+003 5.435491e+002 1.942314e+003
         vertex 2.215792e+003 5.435491e+002 1.942314e+003
         vertex 2.215792e+003 5.444173e+002 1.942390e+003
      endloop
   endfacet
   facet normal 5.449000e-017 5.807914e-002 -9.983120e-001
      outer loop
         vertex 2.225792e+003 5.435491e+002 1.942314e+003
         vertex 2.215792e+003 5.444173e+002 1.942390e+003
         vertex 2.225792e+003 5.444173e+002 1.942390e+003
      endloop
   endfacet
   facet normal 2.949623e-017 -5.807914e-002 -9.983120e-001
      outer loop
         vertex 2.225792e+003 5.444173e+002 1.942390e+003
         vertex 2.215792e+003 5.444173e+002 1.942390e+003
         vertex 2.215792e+003 5.452856e+002 1.942314e+003
      endloop
   endfacet
   facet normal 1.678560e-017 -1.161583e-001 -9.932307e-001
      outer loop
         vertex 2.225792e+003 5.444173e+002 1.942390e+003
         vertex 2.215792e+003 5.452856e+002 1.942314e+003
         vertex 2.225792e+003 5.452856e+002 1.942314e+003
      endloop
   endfacet
   facet normal -8.676930e-018 -2.305518e-001 -9.730601e-001
      outer loop
         vertex 2.225792e+003 5.452856e+002 1.942314e+003
         vertex 2.215792e+003 5.452856e+002 1.942314e+003
         vertex 2.215792e+003 5.461274e+002 1.942088e+003
      endloop
   endfacet
   facet normal -2.142884e-017 -2.868663e-001 -9.579706e-001
      outer loop
         vertex 2.225792e+003 5.452856e+002 1.942314e+003
         vertex 2.215792e+003 5.461274e+002 1.942088e+003
         vertex 2.225792e+003 5.461274e+002 1.942088e+003
      endloop
   endfacet
   facet normal -4.658645e-017 -3.960194e-001 -9.182422e-001
      outer loop
         vertex 2.225792e+003 5.461274e+002 1.942088e+003
         vertex 2.215792e+003 5.461274e+002 1.942088e+003
         vertex 2.215792e+003 5.469173e+002 1.941720e+003
      endloop
   endfacet
   facet normal -5.899216e-017 -4.488580e-001 -8.936031e-001
      outer loop
         vertex 2.225792e+003 5.461274e+002 1.942088e+003
         vertex 2.215792e+003 5.469173e+002 1.941720e+003
         vertex 2.225792e+003 5.469173e+002 1.941720e+003
      endloop
   endfacet
   facet normal -8.308045e-017 -5.494540e-001 -8.355240e-001
      outer loop
         vertex 2.225792e+003 5.469173e+002 1.941720e+003
         vertex 2.215792e+003 5.469173e+002 1.941720e+003
         vertex 2.215792e+003 5.476313e+002 1.941220e+003
      endloop
   endfacet
   facet normal -9.476304e-017 -5.972114e-001 -8.020839e-001
      outer loop
         vertex 2.225792e+003 5.469173e+002 1.941720e+003
         vertex 2.215792e+003 5.476313e+002 1.941220e+003
         vertex 2.225792e+003 5.476313e+002 1.941220e+003
      endloop
   endfacet
   facet normal -1.170501e-016 -6.861938e-001 -7.274188e-001
      outer loop
         vertex 2.225792e+003 5.476313e+002 1.941220e+003
         vertex 2.215792e+003 5.476313e+002 1.941220e+003
         vertex 2.215792e+003 5.482476e+002 1.940604e+003
      endloop
   endfacet
   facet normal -1.276546e-016 -7.274188e-001 -6.861938e-001
      outer loop
         vertex 2.225792e+003 5.476313e+002 1.941220e+003
         vertex 2.215792e+003 5.482476e+002 1.940604e+003
         vertex 2.225792e+003 5.482476e+002 1.940604e+003
      endloop
   endfacet
   facet normal -1.474632e-016 -8.020839e-001 -5.972114e-001
      outer loop
         vertex 2.225792e+003 5.482476e+002 1.940604e+003
         vertex 2.215792e+003 5.482476e+002 1.940604e+003
         vertex 2.215792e+003 5.487475e+002 1.939890e+003
      endloop
   endfacet
   facet normal -1.566674e-016 -8.355240e-001 -5.494540e-001
      outer loop
         vertex 2.225792e+003 5.482476e+002 1.940604e+003
         vertex 2.215792e+003 5.487475e+002 1.939890e+003
         vertex 2.225792e+003 5.487475e+002 1.939890e+003
      endloop
   endfacet
   facet normal -1.733958e-016 -8.936031e-001 -4.488580e-001
      outer loop
         vertex 2.225792e+003 5.487475e+002 1.939890e+003
         vertex 2.215792e+003 5.487475e+002 1.939890e+003
         vertex 2.215792e+003 5.491158e+002 1.939100e+003
      endloop
   endfacet
   facet normal -1.809200e-016 -9.182422e-001 -3.960194e-001
      outer loop
         vertex 2.225792e+003 5.487475e+002 1.939890e+003
         vertex 2.215792e+003 5.491158e+002 1.939100e+003
         vertex 2.225792e+003 5.491158e+002 1.939100e+003
      endloop
   endfacet
   facet normal -1.940598e-016 -9.579706e-001 -2.868663e-001
      outer loop
         vertex 2.225792e+003 5.491158e+002 1.939100e+003
         vertex 2.215792e+003 5.491158e+002 1.939100e+003
         vertex 2.215792e+003 5.493414e+002 1.938258e+003
      endloop
   endfacet
   facet normal -1.996754e-016 -9.730601e-001 -2.305518e-001
      outer loop
         vertex 2.225792e+003 5.491158e+002 1.939100e+003
         vertex 2.215792e+003 5.493414e+002 1.938258e+003
         vertex 2.225792e+003 5.493414e+002 1.938258e+003
      endloop
   endfacet
   facet normal -2.088274e-016 -9.932307e-001 -1.161583e-001
      outer loop
         vertex 2.225792e+003 5.493414e+002 1.938258e+003
         vertex 2.215792e+003 5.493414e+002 1.938258e+003
         vertex 2.215792e+003 5.494173e+002 1.937390e+003
      endloop
   endfacet
   facet normal 1.818920e-016 7.071068e-001 -7.071068e-001
      outer loop
         vertex 2.215792e+003 5.504173e+002 1.926390e+003
         vertex 2.215792e+003 5.554174e+002 1.931390e+003
         vertex 2.225792e+003 5.504173e+002 1.926390e+003
      endloop
   endfacet
   facet normal 1.818920e-016 7.071068e-001 -7.071068e-001
      outer loop
         vertex 2.225792e+003 5.504173e+002 1.926390e+003
         vertex 2.215792e+003 5.554174e+002 1.931390e+003
         vertex 2.225792e+003 5.554174e+002 1.931390e+003
      endloop
   endfacet
endsolid