solid 09.025.00.00.000 - 09.025.00.08.000-2 09.025.00.08.020-4
   facet normal -9.020562e-017 -1.000000e+000 1.680513e-016
      outer loop
         vertex 2.049792e+003 5.334174e+002 1.877390e+003
         vertex 2.049792e+003 5.334174e+002 1.880890e+003
         vertex 2.046792e+003 5.334174e+002 1.877390e+003
      endloop
   endfacet
   facet normal -9.020562e-017 -1.000000e+000 1.680513e-016
      outer loop
         vertex 2.046792e+003 5.334174e+002 1.877390e+003
         vertex 2.049792e+003 5.334174e+002 1.880890e+003
         vertex 2.046792e+003 5.334174e+002 1.880890e+003
      endloop
   endfacet
   facet normal -2.278945e-016 1.485994e-016 1.000000e+000
      outer loop
         vertex 2.046792e+003 5.554174e+002 1.880890e+003
         vertex 2.046792e+003 5.334174e+002 1.880890e+003
         vertex 2.049792e+003 5.554174e+002 1.880890e+003
      endloop
   endfacet
   facet normal -2.278945e-016 1.485994e-016 1.000000e+000
      outer loop
         vertex 2.049792e+003 5.554174e+002 1.880890e+003
         vertex 2.046792e+003 5.334174e+002 1.880890e+003
         vertex 2.049792e+003 5.334174e+002 1.880890e+003
      endloop
   endfacet
   facet normal 9.020562e-017 1.000000e+000 -1.680513e-016
      outer loop
         vertex 2.046792e+003 5.554174e+002 1.873390e+003
         vertex 2.046792e+003 5.554174e+002 1.880890e+003
         vertex 2.049792e+003 5.554174e+002 1.873390e+003
      endloop
   endfacet
   facet normal 9.020562e-017 1.000000e+000 -1.680513e-016
      outer loop
         vertex 2.049792e+003 5.554174e+002 1.873390e+003
         vertex 2.046792e+003 5.554174e+002 1.880890e+003
         vertex 2.049792e+003 5.554174e+002 1.880890e+003
      endloop
   endfacet
   facet normal 2.278945e-016 -1.485994e-016 -1.000000e+000
      outer loop
         vertex 2.046792e+003 5.374174e+002 1.873390e+003
         vertex 2.046792e+003 5.554174e+002 1.873390e+003
         vertex 2.049792e+003 5.374174e+002 1.873390e+003
      endloop
   endfacet
   facet normal 2.278945e-016 -1.485994e-016 -1.000000e+000
      outer loop
         vertex 2.049792e+003 5.374174e+002 1.873390e+003
         vertex 2.046792e+003 5.554174e+002 1.873390e+003
         vertex 2.049792e+003 5.554174e+002 1.873390e+003
      endloop
   endfacet
   facet normal -1.000000e+000 1.006140e-016 -2.012279e-016
      outer loop
         vertex 2.046792e+003 5.382173e+002 1.876504e+003
         vertex 2.046792e+003 5.501917e+002 1.878918e+003
         vertex 2.046792e+003 5.379646e+002 1.876386e+003
      endloop
   endfacet
   facet normal -1.000000e+000 1.006140e-016 -2.012279e-016
      outer loop
         vertex 2.046792e+003 5.379646e+002 1.876386e+003
         vertex 2.046792e+003 5.501917e+002 1.878918e+003
         vertex 2.046792e+003 5.376952e+002 1.876314e+003
      endloop
   endfacet
   facet normal -1.000000e+000 1.006140e-016 -2.012279e-016
      outer loop
         vertex 2.046792e+003 5.511395e+002 1.879466e+003
         vertex 2.046792e+003 5.508701e+002 1.879393e+003
         vertex 2.046792e+003 5.389930e+002 1.877612e+003
      endloop
   endfacet
   facet normal -1.000000e+000 1.006140e-016 -2.012279e-016
      outer loop
         vertex 2.046792e+003 5.389930e+002 1.877612e+003
         vertex 2.046792e+003 5.508701e+002 1.879393e+003
         vertex 2.046792e+003 5.506173e+002 1.879276e+003
      endloop
   endfacet
   facet normal -1.000000e+000 1.006140e-016 -2.012279e-016
      outer loop
         vertex 2.046792e+003 5.382173e+002 1.876504e+003
         vertex 2.046792e+003 5.384458e+002 1.876664e+003
         vertex 2.046792e+003 5.501917e+002 1.878918e+003
      endloop
   endfacet
   facet normal -1.000000e+000 1.006140e-016 -2.012279e-016
      outer loop
         vertex 2.046792e+003 5.501917e+002 1.878918e+003
         vertex 2.046792e+003 5.384458e+002 1.876664e+003
         vertex 2.046792e+003 5.386430e+002 1.876861e+003
      endloop
   endfacet
   facet normal -1.000000e+000 1.006140e-016 -2.012279e-016
      outer loop
         vertex 2.046792e+003 5.501917e+002 1.878918e+003
         vertex 2.046792e+003 5.386430e+002 1.876861e+003
         vertex 2.046792e+003 5.388030e+002 1.877090e+003
      endloop
   endfacet
   facet normal -1.000000e+000 1.006140e-016 -2.012279e-016
      outer loop
         vertex 2.046792e+003 5.498173e+002 1.877890e+003
         vertex 2.046792e+003 5.498416e+002 1.877612e+003
         vertex 2.046792e+003 5.374174e+002 1.873390e+003
      endloop
   endfacet
   facet normal -1.000000e+000 1.006140e-016 -2.012279e-016
      outer loop
         vertex 2.046792e+003 5.374174e+002 1.873390e+003
         vertex 2.046792e+003 5.498416e+002 1.877612e+003
         vertex 2.046792e+003 5.499138e+002 1.877343e+003
      endloop
   endfacet
   facet normal -1.000000e+000 1.006140e-016 -2.012279e-016
      outer loop
         vertex 2.046792e+003 5.506173e+002 1.879276e+003
         vertex 2.046792e+003 5.503889e+002 1.879116e+003
         vertex 2.046792e+003 5.389930e+002 1.877612e+003
      endloop
   endfacet
   facet normal -1.000000e+000 1.006140e-016 -2.012279e-016
      outer loop
         vertex 2.046792e+003 5.389930e+002 1.877612e+003
         vertex 2.046792e+003 5.503889e+002 1.879116e+003
         vertex 2.046792e+003 5.501917e+002 1.878918e+003
      endloop
   endfacet
   facet normal -1.000000e+000 1.006140e-016 -2.012279e-016
      outer loop
         vertex 2.046792e+003 5.389930e+002 1.877612e+003
         vertex 2.046792e+003 5.501917e+002 1.878918e+003
         vertex 2.046792e+003 5.389208e+002 1.877343e+003
      endloop
   endfacet
   facet normal -1.000000e+000 1.006140e-016 -2.012279e-016
      outer loop
         vertex 2.046792e+003 5.389208e+002 1.877343e+003
         vertex 2.046792e+003 5.501917e+002 1.878918e+003
         vertex 2.046792e+003 5.388030e+002 1.877090e+003
      endloop
   endfacet
   facet normal -1.000000e+000 1.006140e-016 -2.012279e-016
      outer loop
         vertex 2.046792e+003 5.529930e+002 1.878168e+003
         vertex 2.046792e+003 5.529208e+002 1.878437e+003
         vertex 2.046792e+003 5.554174e+002 1.880890e+003
      endloop
   endfacet
   facet normal -1.000000e+000 1.006140e-016 -2.012279e-016
      outer loop
         vertex 2.046792e+003 5.554174e+002 1.880890e+003
         vertex 2.046792e+003 5.529208e+002 1.878437e+003
         vertex 2.046792e+003 5.528030e+002 1.878690e+003
      endloop
   endfacet
   facet normal -1.000000e+000 1.006140e-016 -2.012279e-016
      outer loop
         vertex 2.046792e+003 5.554174e+002 1.880890e+003
         vertex 2.046792e+003 5.528030e+002 1.878690e+003
         vertex 2.046792e+003 5.526430e+002 1.878918e+003
      endloop
   endfacet
   facet normal -1.000000e+000 1.006140e-016 -2.012279e-016
      outer loop
         vertex 2.046792e+003 5.499138e+002 1.877343e+003
         vertex 2.046792e+003 5.500317e+002 1.877090e+003
         vertex 2.046792e+003 5.374174e+002 1.873390e+003
      endloop
   endfacet
   facet normal -1.000000e+000 1.006140e-016 -2.012279e-016
      outer loop
         vertex 2.046792e+003 5.374174e+002 1.873390e+003
         vertex 2.046792e+003 5.500317e+002 1.877090e+003
         vertex 2.046792e+003 5.501917e+002 1.876861e+003
      endloop
   endfacet
   facet normal -1.000000e+000 1.006140e-016 -2.012279e-016
      outer loop
         vertex 2.046792e+003 5.374174e+002 1.873390e+003
         vertex 2.046792e+003 5.501917e+002 1.876861e+003
         vertex 2.046792e+003 5.503889e+002 1.876664e+003
      endloop
   endfacet
   facet normal -1.000000e+000 1.006140e-016 -2.012279e-016
      outer loop
         vertex 2.046792e+003 5.528030e+002 1.877090e+003
         vertex 2.046792e+003 5.529208e+002 1.877343e+003
         vertex 2.046792e+003 5.554174e+002 1.873390e+003
      endloop
   endfacet
   facet normal -1.000000e+000 1.006140e-016 -2.012279e-016
      outer loop
         vertex 2.046792e+003 5.554174e+002 1.873390e+003
         vertex 2.046792e+003 5.529208e+002 1.877343e+003
         vertex 2.046792e+003 5.529930e+002 1.877612e+003
      endloop
   endfacet
   facet normal -1.000000e+000 1.006140e-016 -2.012279e-016
      outer loop
         vertex 2.046792e+003 5.554174e+002 1.873390e+003
         vertex 2.046792e+003 5.529930e+002 1.877612e+003
         vertex 2.046792e+003 5.554174e+002 1.880890e+003
      endloop
   endfacet
   facet normal -1.000000e+000 1.006140e-016 -2.012279e-016
      outer loop
         vertex 2.046792e+003 5.554174e+002 1.880890e+003
         vertex 2.046792e+003 5.529930e+002 1.877612e+003
         vertex 2.046792e+003 5.530173e+002 1.877890e+003
      endloop
   endfacet
   facet normal -1.000000e+000 1.006140e-016 -2.012279e-016
      outer loop
         vertex 2.046792e+003 5.554174e+002 1.880890e+003
         vertex 2.046792e+003 5.530173e+002 1.877890e+003
         vertex 2.046792e+003 5.529930e+002 1.878168e+003
      endloop
   endfacet
   facet normal -1.000000e+000 1.006140e-016 -2.012279e-016
      outer loop
         vertex 2.046792e+003 5.334174e+002 1.880890e+003
         vertex 2.046792e+003 5.363889e+002 1.879116e+003
         vertex 2.046792e+003 5.361917e+002 1.878918e+003
      endloop
   endfacet
   facet normal -1.000000e+000 1.006140e-016 -2.012279e-016
      outer loop
         vertex 2.046792e+003 5.526430e+002 1.878918e+003
         vertex 2.046792e+003 5.524457e+002 1.879116e+003
         vertex 2.046792e+003 5.554174e+002 1.880890e+003
      endloop
   endfacet
   facet normal -1.000000e+000 1.006140e-016 -2.012279e-016
      outer loop
         vertex 2.046792e+003 5.554174e+002 1.880890e+003
         vertex 2.046792e+003 5.524457e+002 1.879116e+003
         vertex 2.046792e+003 5.522173e+002 1.879276e+003
      endloop
   endfacet
   facet normal -1.000000e+000 1.006140e-016 -2.012279e-016
      outer loop
         vertex 2.046792e+003 5.554174e+002 1.880890e+003
         vertex 2.046792e+003 5.522173e+002 1.879276e+003
         vertex 2.046792e+003 5.519646e+002 1.879393e+003
      endloop
   endfacet
   facet normal -1.000000e+000 1.006140e-016 -2.012279e-016
      outer loop
         vertex 2.046792e+003 5.358416e+002 1.878168e+003
         vertex 2.046792e+003 5.334174e+002 1.877390e+003
         vertex 2.046792e+003 5.359138e+002 1.878437e+003
      endloop
   endfacet
   facet normal -1.000000e+000 1.006140e-016 -2.012279e-016
      outer loop
         vertex 2.046792e+003 5.359138e+002 1.878437e+003
         vertex 2.046792e+003 5.334174e+002 1.877390e+003
         vertex 2.046792e+003 5.334174e+002 1.880890e+003
      endloop
   endfacet
   facet normal -1.000000e+000 1.006140e-016 -2.012279e-016
      outer loop
         vertex 2.046792e+003 5.359138e+002 1.878437e+003
         vertex 2.046792e+003 5.334174e+002 1.880890e+003
         vertex 2.046792e+003 5.360317e+002 1.878690e+003
      endloop
   endfacet
   facet normal -1.000000e+000 1.006140e-016 -2.012279e-016
      outer loop
         vertex 2.046792e+003 5.360317e+002 1.878690e+003
         vertex 2.046792e+003 5.334174e+002 1.880890e+003
         vertex 2.046792e+003 5.361917e+002 1.878918e+003
      endloop
   endfacet
   facet normal -1.000000e+000 1.006140e-016 -2.012279e-016
      outer loop
         vertex 2.046792e+003 5.358416e+002 1.878168e+003
         vertex 2.046792e+003 5.358173e+002 1.877890e+003
         vertex 2.046792e+003 5.334174e+002 1.877390e+003
      endloop
   endfacet
   facet normal -1.000000e+000 1.006140e-016 -2.012279e-016
      outer loop
         vertex 2.046792e+003 5.334174e+002 1.877390e+003
         vertex 2.046792e+003 5.358173e+002 1.877890e+003
         vertex 2.046792e+003 5.358416e+002 1.877612e+003
      endloop
   endfacet
   facet normal -1.000000e+000 1.006140e-016 -2.012279e-016
      outer loop
         vertex 2.046792e+003 5.334174e+002 1.877390e+003
         vertex 2.046792e+003 5.358416e+002 1.877612e+003
         vertex 2.046792e+003 5.359138e+002 1.877343e+003
      endloop
   endfacet
   facet normal -1.000000e+000 1.006140e-016 -2.012279e-016
      outer loop
         vertex 2.046792e+003 5.503889e+002 1.876664e+003
         vertex 2.046792e+003 5.506173e+002 1.876504e+003
         vertex 2.046792e+003 5.374174e+002 1.873390e+003
      endloop
   endfacet
   facet normal -1.000000e+000 1.006140e-016 -2.012279e-016
      outer loop
         vertex 2.046792e+003 5.374174e+002 1.873390e+003
         vertex 2.046792e+003 5.506173e+002 1.876504e+003
         vertex 2.046792e+003 5.508701e+002 1.876386e+003
      endloop
   endfacet
   facet normal -1.000000e+000 1.006140e-016 -2.012279e-016
      outer loop
         vertex 2.046792e+003 5.374174e+002 1.873390e+003
         vertex 2.046792e+003 5.508701e+002 1.876386e+003
         vertex 2.046792e+003 5.554174e+002 1.873390e+003
      endloop
   endfacet
   facet normal -1.000000e+000 1.006140e-016 -2.012279e-016
      outer loop
         vertex 2.046792e+003 5.554174e+002 1.873390e+003
         vertex 2.046792e+003 5.508701e+002 1.876386e+003
         vertex 2.046792e+003 5.511395e+002 1.876314e+003
      endloop
   endfacet
   facet normal -1.000000e+000 1.006140e-016 -2.012279e-016
      outer loop
         vertex 2.046792e+003 5.554174e+002 1.873390e+003
         vertex 2.046792e+003 5.511395e+002 1.876314e+003
         vertex 2.046792e+003 5.514174e+002 1.876290e+003
      endloop
   endfacet
   facet normal -1.000000e+000 1.006140e-016 -2.012279e-016
      outer loop
         vertex 2.046792e+003 5.359138e+002 1.877343e+003
         vertex 2.046792e+003 5.360317e+002 1.877090e+003
         vertex 2.046792e+003 5.334174e+002 1.877390e+003
      endloop
   endfacet
   facet normal -1.000000e+000 1.006140e-016 -2.012279e-016
      outer loop
         vertex 2.046792e+003 5.334174e+002 1.877390e+003
         vertex 2.046792e+003 5.360317e+002 1.877090e+003
         vertex 2.046792e+003 5.361917e+002 1.876861e+003
      endloop
   endfacet
   facet normal -1.000000e+000 1.006140e-016 -2.012279e-016
      outer loop
         vertex 2.046792e+003 5.334174e+002 1.877390e+003
         vertex 2.046792e+003 5.361917e+002 1.876861e+003
         vertex 2.046792e+003 5.374174e+002 1.873390e+003
      endloop
   endfacet
   facet normal -1.000000e+000 1.006140e-016 -2.012279e-016
      outer loop
         vertex 2.046792e+003 5.514174e+002 1.876290e+003
         vertex 2.046792e+003 5.516952e+002 1.876314e+003
         vertex 2.046792e+003 5.554174e+002 1.873390e+003
      endloop
   endfacet
   facet normal -1.000000e+000 1.006140e-016 -2.012279e-016
      outer loop
         vertex 2.046792e+003 5.554174e+002 1.873390e+003
         vertex 2.046792e+003 5.516952e+002 1.876314e+003
         vertex 2.046792e+003 5.519646e+002 1.876386e+003
      endloop
   endfacet
   facet normal -1.000000e+000 1.006140e-016 -2.012279e-016
      outer loop
         vertex 2.046792e+003 5.554174e+002 1.873390e+003
         vertex 2.046792e+003 5.519646e+002 1.876386e+003
         vertex 2.046792e+003 5.522173e+002 1.876504e+003
      endloop
   endfacet
   facet normal -1.000000e+000 1.006140e-016 -2.012279e-016
      outer loop
         vertex 2.046792e+003 5.371395e+002 1.879466e+003
         vertex 2.046792e+003 5.368701e+002 1.879393e+003
         vertex 2.046792e+003 5.334174e+002 1.880890e+003
      endloop
   endfacet
   facet normal -1.000000e+000 1.006140e-016 -2.012279e-016
      outer loop
         vertex 2.046792e+003 5.334174e+002 1.880890e+003
         vertex 2.046792e+003 5.368701e+002 1.879393e+003
         vertex 2.046792e+003 5.366173e+002 1.879276e+003
      endloop
   endfacet
   facet normal -1.000000e+000 1.006140e-016 -2.012279e-016
      outer loop
         vertex 2.046792e+003 5.334174e+002 1.880890e+003
         vertex 2.046792e+003 5.366173e+002 1.879276e+003
         vertex 2.046792e+003 5.363889e+002 1.879116e+003
      endloop
   endfacet
   facet normal -1.000000e+000 1.006140e-016 -2.012279e-016
      outer loop
         vertex 2.046792e+003 5.361917e+002 1.876861e+003
         vertex 2.046792e+003 5.363889e+002 1.876664e+003
         vertex 2.046792e+003 5.374174e+002 1.873390e+003
      endloop
   endfacet
   facet normal -1.000000e+000 1.006140e-016 -2.012279e-016
      outer loop
         vertex 2.046792e+003 5.374174e+002 1.873390e+003
         vertex 2.046792e+003 5.363889e+002 1.876664e+003
         vertex 2.046792e+003 5.366173e+002 1.876504e+003
      endloop
   endfacet
   facet normal -1.000000e+000 1.006140e-016 -2.012279e-016
      outer loop
         vertex 2.046792e+003 5.374174e+002 1.873390e+003
         vertex 2.046792e+003 5.366173e+002 1.876504e+003
         vertex 2.046792e+003 5.368701e+002 1.876386e+003
      endloop
   endfacet
   facet normal -1.000000e+000 1.006140e-016 -2.012279e-016
      outer loop
         vertex 2.046792e+003 5.522173e+002 1.876504e+003
         vertex 2.046792e+003 5.524457e+002 1.876664e+003
         vertex 2.046792e+003 5.554174e+002 1.873390e+003
      endloop
   endfacet
   facet normal -1.000000e+000 1.006140e-016 -2.012279e-016
      outer loop
         vertex 2.046792e+003 5.554174e+002 1.873390e+003
         vertex 2.046792e+003 5.524457e+002 1.876664e+003
         vertex 2.046792e+003 5.526430e+002 1.876861e+003
      endloop
   endfacet
   facet normal -1.000000e+000 1.006140e-016 -2.012279e-016
      outer loop
         vertex 2.046792e+003 5.554174e+002 1.873390e+003
         vertex 2.046792e+003 5.526430e+002 1.876861e+003
         vertex 2.046792e+003 5.528030e+002 1.877090e+003
      endloop
   endfacet
   facet normal -1.000000e+000 1.006140e-016 -2.012279e-016
      outer loop
         vertex 2.046792e+003 5.519646e+002 1.879393e+003
         vertex 2.046792e+003 5.516952e+002 1.879466e+003
         vertex 2.046792e+003 5.554174e+002 1.880890e+003
      endloop
   endfacet
   facet normal -1.000000e+000 1.006140e-016 -2.012279e-016
      outer loop
         vertex 2.046792e+003 5.554174e+002 1.880890e+003
         vertex 2.046792e+003 5.516952e+002 1.879466e+003
         vertex 2.046792e+003 5.514174e+002 1.879490e+003
      endloop
   endfacet
   facet normal -1.000000e+000 1.006140e-016 -2.012279e-016
      outer loop
         vertex 2.046792e+003 5.554174e+002 1.880890e+003
         vertex 2.046792e+003 5.514174e+002 1.879490e+003
         vertex 2.046792e+003 5.511395e+002 1.879466e+003
      endloop
   endfacet
   facet normal -1.000000e+000 1.006140e-016 -2.012279e-016
      outer loop
         vertex 2.046792e+003 5.388030e+002 1.878690e+003
         vertex 2.046792e+003 5.386430e+002 1.878918e+003
         vertex 2.046792e+003 5.554174e+002 1.880890e+003
      endloop
   endfacet
   facet normal -1.000000e+000 1.006140e-016 -2.012279e-016
      outer loop
         vertex 2.046792e+003 5.554174e+002 1.880890e+003
         vertex 2.046792e+003 5.386430e+002 1.878918e+003
         vertex 2.046792e+003 5.384458e+002 1.879116e+003
      endloop
   endfacet
   facet normal -1.000000e+000 1.006140e-016 -2.012279e-016
      outer loop
         vertex 2.046792e+003 5.554174e+002 1.880890e+003
         vertex 2.046792e+003 5.384458e+002 1.879116e+003
         vertex 2.046792e+003 5.382173e+002 1.879276e+003
      endloop
   endfacet
   facet normal -1.000000e+000 1.006140e-016 -2.012279e-016
      outer loop
         vertex 2.046792e+003 5.368701e+002 1.876386e+003
         vertex 2.046792e+003 5.371395e+002 1.876314e+003
         vertex 2.046792e+003 5.374174e+002 1.873390e+003
      endloop
   endfacet
   facet normal -1.000000e+000 1.006140e-016 -2.012279e-016
      outer loop
         vertex 2.046792e+003 5.374174e+002 1.873390e+003
         vertex 2.046792e+003 5.371395e+002 1.876314e+003
         vertex 2.046792e+003 5.374174e+002 1.876290e+003
      endloop
   endfacet
   facet normal -1.000000e+000 1.006140e-016 -2.012279e-016
      outer loop
         vertex 2.046792e+003 5.374174e+002 1.873390e+003
         vertex 2.046792e+003 5.374174e+002 1.876290e+003
         vertex 2.046792e+003 5.376952e+002 1.876314e+003
      endloop
   endfacet
   facet normal -1.000000e+000 1.006140e-016 -2.012279e-016
      outer loop
         vertex 2.046792e+003 5.389930e+002 1.877612e+003
         vertex 2.046792e+003 5.390173e+002 1.877890e+003
         vertex 2.046792e+003 5.511395e+002 1.879466e+003
      endloop
   endfacet
   facet normal -1.000000e+000 1.006140e-016 -2.012279e-016
      outer loop
         vertex 2.046792e+003 5.511395e+002 1.879466e+003
         vertex 2.046792e+003 5.390173e+002 1.877890e+003
         vertex 2.046792e+003 5.389930e+002 1.878168e+003
      endloop
   endfacet
   facet normal -1.000000e+000 1.006140e-016 -2.012279e-016
      outer loop
         vertex 2.046792e+003 5.511395e+002 1.879466e+003
         vertex 2.046792e+003 5.389930e+002 1.878168e+003
         vertex 2.046792e+003 5.554174e+002 1.880890e+003
      endloop
   endfacet
   facet normal -1.000000e+000 1.006140e-016 -2.012279e-016
      outer loop
         vertex 2.046792e+003 5.554174e+002 1.880890e+003
         vertex 2.046792e+003 5.389930e+002 1.878168e+003
         vertex 2.046792e+003 5.389208e+002 1.878437e+003
      endloop
   endfacet
   facet normal -1.000000e+000 1.006140e-016 -2.012279e-016
      outer loop
         vertex 2.046792e+003 5.554174e+002 1.880890e+003
         vertex 2.046792e+003 5.389208e+002 1.878437e+003
         vertex 2.046792e+003 5.388030e+002 1.878690e+003
      endloop
   endfacet
   facet normal -1.000000e+000 1.006140e-016 -2.012279e-016
      outer loop
         vertex 2.046792e+003 5.382173e+002 1.879276e+003
         vertex 2.046792e+003 5.379646e+002 1.879393e+003
         vertex 2.046792e+003 5.554174e+002 1.880890e+003
      endloop
   endfacet
   facet normal -1.000000e+000 1.006140e-016 -2.012279e-016
      outer loop
         vertex 2.046792e+003 5.554174e+002 1.880890e+003
         vertex 2.046792e+003 5.379646e+002 1.879393e+003
         vertex 2.046792e+003 5.376952e+002 1.879466e+003
      endloop
   endfacet
   facet normal -1.000000e+000 1.006140e-016 -2.012279e-016
      outer loop
         vertex 2.046792e+003 5.554174e+002 1.880890e+003
         vertex 2.046792e+003 5.376952e+002 1.879466e+003
         vertex 2.046792e+003 5.334174e+002 1.880890e+003
      endloop
   endfacet
   facet normal -1.000000e+000 1.006140e-016 -2.012279e-016
      outer loop
         vertex 2.046792e+003 5.334174e+002 1.880890e+003
         vertex 2.046792e+003 5.376952e+002 1.879466e+003
         vertex 2.046792e+003 5.374174e+002 1.879490e+003
      endloop
   endfacet
   facet normal -1.000000e+000 1.006140e-016 -2.012279e-016
      outer loop
         vertex 2.046792e+003 5.334174e+002 1.880890e+003
         vertex 2.046792e+003 5.374174e+002 1.879490e+003
         vertex 2.046792e+003 5.371395e+002 1.879466e+003
      endloop
   endfacet
   facet normal -1.000000e+000 1.006140e-016 -2.012279e-016
      outer loop
         vertex 2.046792e+003 5.501917e+002 1.878918e+003
         vertex 2.046792e+003 5.500317e+002 1.878690e+003
         vertex 2.046792e+003 5.376952e+002 1.876314e+003
      endloop
   endfacet
   facet normal -1.000000e+000 1.006140e-016 -2.012279e-016
      outer loop
         vertex 2.046792e+003 5.376952e+002 1.876314e+003
         vertex 2.046792e+003 5.500317e+002 1.878690e+003
         vertex 2.046792e+003 5.499138e+002 1.878437e+003
      endloop
   endfacet
   facet normal -1.000000e+000 1.006140e-016 -2.012279e-016
      outer loop
         vertex 2.046792e+003 5.376952e+002 1.876314e+003
         vertex 2.046792e+003 5.499138e+002 1.878437e+003
         vertex 2.046792e+003 5.374174e+002 1.873390e+003
      endloop
   endfacet
   facet normal -1.000000e+000 1.006140e-016 -2.012279e-016
      outer loop
         vertex 2.046792e+003 5.374174e+002 1.873390e+003
         vertex 2.046792e+003 5.499138e+002 1.878437e+003
         vertex 2.046792e+003 5.498416e+002 1.878168e+003
      endloop
   endfacet
   facet normal -1.000000e+000 1.006140e-016 -2.012279e-016
      outer loop
         vertex 2.046792e+003 5.374174e+002 1.873390e+003
         vertex 2.046792e+003 5.498416e+002 1.878168e+003
         vertex 2.046792e+003 5.498173e+002 1.877890e+003
      endloop
   endfacet
   facet normal 1.000000e+000 -1.006140e-016 2.012279e-016
      outer loop
         vertex 2.049792e+003 5.334174e+002 1.880890e+003
         vertex 2.049792e+003 5.499138e+002 1.878437e+003
         vertex 2.049792e+003 5.500317e+002 1.878690e+003
      endloop
   endfacet
   facet normal 1.000000e+000 -1.006140e-016 2.012279e-016
      outer loop
         vertex 2.049792e+003 5.334174e+002 1.877390e+003
         vertex 2.049792e+003 5.358173e+002 1.877890e+003
         vertex 2.049792e+003 5.358416e+002 1.878168e+003
      endloop
   endfacet
   facet normal 1.000000e+000 -1.006140e-016 2.012279e-016
      outer loop
         vertex 2.049792e+003 5.516952e+002 1.879466e+003
         vertex 2.049792e+003 5.519646e+002 1.879393e+003
         vertex 2.049792e+003 5.554174e+002 1.880890e+003
      endloop
   endfacet
   facet normal 1.000000e+000 -1.006140e-016 2.012279e-016
      outer loop
         vertex 2.049792e+003 5.529208e+002 1.878437e+003
         vertex 2.049792e+003 5.554174e+002 1.880890e+003
         vertex 2.049792e+003 5.528030e+002 1.878690e+003
      endloop
   endfacet
   facet normal 1.000000e+000 -1.006140e-016 2.012279e-016
      outer loop
         vertex 2.049792e+003 5.528030e+002 1.878690e+003
         vertex 2.049792e+003 5.554174e+002 1.880890e+003
         vertex 2.049792e+003 5.526430e+002 1.878918e+003
      endloop
   endfacet
   facet normal 1.000000e+000 -1.006140e-016 2.012279e-016
      outer loop
         vertex 2.049792e+003 5.529930e+002 1.877612e+003
         vertex 2.049792e+003 5.554174e+002 1.873390e+003
         vertex 2.049792e+003 5.530173e+002 1.877890e+003
      endloop
   endfacet
   facet normal 1.000000e+000 -1.006140e-016 2.012279e-016
      outer loop
         vertex 2.049792e+003 5.530173e+002 1.877890e+003
         vertex 2.049792e+003 5.554174e+002 1.873390e+003
         vertex 2.049792e+003 5.554174e+002 1.880890e+003
      endloop
   endfacet
   facet normal 1.000000e+000 -1.006140e-016 2.012279e-016
      outer loop
         vertex 2.049792e+003 5.530173e+002 1.877890e+003
         vertex 2.049792e+003 5.554174e+002 1.880890e+003
         vertex 2.049792e+003 5.529930e+002 1.878168e+003
      endloop
   endfacet
   facet normal 1.000000e+000 -1.006140e-016 2.012279e-016
      outer loop
         vertex 2.049792e+003 5.529930e+002 1.878168e+003
         vertex 2.049792e+003 5.554174e+002 1.880890e+003
         vertex 2.049792e+003 5.529208e+002 1.878437e+003
      endloop
   endfacet
   facet normal 1.000000e+000 -1.006140e-016 2.012279e-016
      outer loop
         vertex 2.049792e+003 5.529930e+002 1.877612e+003
         vertex 2.049792e+003 5.529208e+002 1.877343e+003
         vertex 2.049792e+003 5.554174e+002 1.873390e+003
      endloop
   endfacet
   facet normal 1.000000e+000 -1.006140e-016 2.012279e-016
      outer loop
         vertex 2.049792e+003 5.554174e+002 1.873390e+003
         vertex 2.049792e+003 5.529208e+002 1.877343e+003
         vertex 2.049792e+003 5.528030e+002 1.877090e+003
      endloop
   endfacet
   facet normal 1.000000e+000 -1.006140e-016 2.012279e-016
      outer loop
         vertex 2.049792e+003 5.554174e+002 1.873390e+003
         vertex 2.049792e+003 5.528030e+002 1.877090e+003
         vertex 2.049792e+003 5.526430e+002 1.876861e+003
      endloop
   endfacet
   facet normal 1.000000e+000 -1.006140e-016 2.012279e-016
      outer loop
         vertex 2.049792e+003 5.334174e+002 1.880890e+003
         vertex 2.049792e+003 5.360317e+002 1.878690e+003
         vertex 2.049792e+003 5.361917e+002 1.878918e+003
      endloop
   endfacet
   facet normal 1.000000e+000 -1.006140e-016 2.012279e-016
      outer loop
         vertex 2.049792e+003 5.361917e+002 1.878918e+003
         vertex 2.049792e+003 5.363889e+002 1.879116e+003
         vertex 2.049792e+003 5.334174e+002 1.880890e+003
      endloop
   endfacet
   facet normal 1.000000e+000 -1.006140e-016 2.012279e-016
      outer loop
         vertex 2.049792e+003 5.334174e+002 1.880890e+003
         vertex 2.049792e+003 5.363889e+002 1.879116e+003
         vertex 2.049792e+003 5.366173e+002 1.879276e+003
      endloop
   endfacet
   facet normal 1.000000e+000 -1.006140e-016 2.012279e-016
      outer loop
         vertex 2.049792e+003 5.334174e+002 1.880890e+003
         vertex 2.049792e+003 5.366173e+002 1.879276e+003
         vertex 2.049792e+003 5.368701e+002 1.879393e+003
      endloop
   endfacet
   facet normal 1.000000e+000 -1.006140e-016 2.012279e-016
      outer loop
         vertex 2.049792e+003 5.368701e+002 1.879393e+003
         vertex 2.049792e+003 5.371395e+002 1.879466e+003
         vertex 2.049792e+003 5.334174e+002 1.880890e+003
      endloop
   endfacet
   facet normal 1.000000e+000 -1.006140e-016 2.012279e-016
      outer loop
         vertex 2.049792e+003 5.334174e+002 1.880890e+003
         vertex 2.049792e+003 5.371395e+002 1.879466e+003
         vertex 2.049792e+003 5.374174e+002 1.879490e+003
      endloop
   endfacet
   facet normal 1.000000e+000 -1.006140e-016 2.012279e-016
      outer loop
         vertex 2.049792e+003 5.334174e+002 1.880890e+003
         vertex 2.049792e+003 5.374174e+002 1.879490e+003
         vertex 2.049792e+003 5.376952e+002 1.879466e+003
      endloop
   endfacet
   facet normal 1.000000e+000 -1.006140e-016 2.012279e-016
      outer loop
         vertex 2.049792e+003 5.519646e+002 1.879393e+003
         vertex 2.049792e+003 5.522173e+002 1.879276e+003
         vertex 2.049792e+003 5.554174e+002 1.880890e+003
      endloop
   endfacet
   facet normal 1.000000e+000 -1.006140e-016 2.012279e-016
      outer loop
         vertex 2.049792e+003 5.554174e+002 1.880890e+003
         vertex 2.049792e+003 5.522173e+002 1.879276e+003
         vertex 2.049792e+003 5.524457e+002 1.879116e+003
      endloop
   endfacet
   facet normal 1.000000e+000 -1.006140e-016 2.012279e-016
      outer loop
         vertex 2.049792e+003 5.554174e+002 1.880890e+003
         vertex 2.049792e+003 5.524457e+002 1.879116e+003
         vertex 2.049792e+003 5.526430e+002 1.878918e+003
      endloop
   endfacet
   facet normal 1.000000e+000 -1.006140e-016 2.012279e-016
      outer loop
         vertex 2.049792e+003 5.519646e+002 1.876386e+003
         vertex 2.049792e+003 5.516952e+002 1.876314e+003
         vertex 2.049792e+003 5.554174e+002 1.873390e+003
      endloop
   endfacet
   facet normal 1.000000e+000 -1.006140e-016 2.012279e-016
      outer loop
         vertex 2.049792e+003 5.501917e+002 1.876861e+003
         vertex 2.049792e+003 5.374174e+002 1.873390e+003
         vertex 2.049792e+003 5.503889e+002 1.876664e+003
      endloop
   endfacet
   facet normal 1.000000e+000 -1.006140e-016 2.012279e-016
      outer loop
         vertex 2.049792e+003 5.503889e+002 1.876664e+003
         vertex 2.049792e+003 5.374174e+002 1.873390e+003
         vertex 2.049792e+003 5.506173e+002 1.876504e+003
      endloop
   endfacet
   facet normal 1.000000e+000 -1.006140e-016 2.012279e-016
      outer loop
         vertex 2.049792e+003 5.382173e+002 1.879276e+003
         vertex 2.049792e+003 5.384458e+002 1.879116e+003
         vertex 2.049792e+003 5.498173e+002 1.877890e+003
      endloop
   endfacet
   facet normal 1.000000e+000 -1.006140e-016 2.012279e-016
      outer loop
         vertex 2.049792e+003 5.334174e+002 1.877390e+003
         vertex 2.049792e+003 5.358416e+002 1.878168e+003
         vertex 2.049792e+003 5.334174e+002 1.880890e+003
      endloop
   endfacet
   facet normal 1.000000e+000 -1.006140e-016 2.012279e-016
      outer loop
         vertex 2.049792e+003 5.334174e+002 1.880890e+003
         vertex 2.049792e+003 5.358416e+002 1.878168e+003
         vertex 2.049792e+003 5.359138e+002 1.878437e+003
      endloop
   endfacet
   facet normal 1.000000e+000 -1.006140e-016 2.012279e-016
      outer loop
         vertex 2.049792e+003 5.334174e+002 1.880890e+003
         vertex 2.049792e+003 5.359138e+002 1.878437e+003
         vertex 2.049792e+003 5.360317e+002 1.878690e+003
      endloop
   endfacet
   facet normal 1.000000e+000 -1.006140e-016 2.012279e-016
      outer loop
         vertex 2.049792e+003 5.382173e+002 1.876504e+003
         vertex 2.049792e+003 5.498416e+002 1.877612e+003
         vertex 2.049792e+003 5.384458e+002 1.876664e+003
      endloop
   endfacet
   facet normal 1.000000e+000 -1.006140e-016 2.012279e-016
      outer loop
         vertex 2.049792e+003 5.384458e+002 1.876664e+003
         vertex 2.049792e+003 5.498416e+002 1.877612e+003
         vertex 2.049792e+003 5.386430e+002 1.876861e+003
      endloop
   endfacet
   facet normal 1.000000e+000 -1.006140e-016 2.012279e-016
      outer loop
         vertex 2.049792e+003 5.500317e+002 1.878690e+003
         vertex 2.049792e+003 5.501917e+002 1.878918e+003
         vertex 2.049792e+003 5.334174e+002 1.880890e+003
      endloop
   endfacet
   facet normal 1.000000e+000 -1.006140e-016 2.012279e-016
      outer loop
         vertex 2.049792e+003 5.334174e+002 1.880890e+003
         vertex 2.049792e+003 5.501917e+002 1.878918e+003
         vertex 2.049792e+003 5.503889e+002 1.879116e+003
      endloop
   endfacet
   facet normal 1.000000e+000 -1.006140e-016 2.012279e-016
      outer loop
         vertex 2.049792e+003 5.334174e+002 1.880890e+003
         vertex 2.049792e+003 5.503889e+002 1.879116e+003
         vertex 2.049792e+003 5.506173e+002 1.879276e+003
      endloop
   endfacet
   facet normal 1.000000e+000 -1.006140e-016 2.012279e-016
      outer loop
         vertex 2.049792e+003 5.506173e+002 1.879276e+003
         vertex 2.049792e+003 5.508701e+002 1.879393e+003
         vertex 2.049792e+003 5.334174e+002 1.880890e+003
      endloop
   endfacet
   facet normal 1.000000e+000 -1.006140e-016 2.012279e-016
      outer loop
         vertex 2.049792e+003 5.334174e+002 1.880890e+003
         vertex 2.049792e+003 5.508701e+002 1.879393e+003
         vertex 2.049792e+003 5.511395e+002 1.879466e+003
      endloop
   endfacet
   facet normal 1.000000e+000 -1.006140e-016 2.012279e-016
      outer loop
         vertex 2.049792e+003 5.334174e+002 1.880890e+003
         vertex 2.049792e+003 5.511395e+002 1.879466e+003
         vertex 2.049792e+003 5.554174e+002 1.880890e+003
      endloop
   endfacet
   facet normal 1.000000e+000 -1.006140e-016 2.012279e-016
      outer loop
         vertex 2.049792e+003 5.554174e+002 1.880890e+003
         vertex 2.049792e+003 5.511395e+002 1.879466e+003
         vertex 2.049792e+003 5.514174e+002 1.879490e+003
      endloop
   endfacet
   facet normal 1.000000e+000 -1.006140e-016 2.012279e-016
      outer loop
         vertex 2.049792e+003 5.554174e+002 1.880890e+003
         vertex 2.049792e+003 5.514174e+002 1.879490e+003
         vertex 2.049792e+003 5.516952e+002 1.879466e+003
      endloop
   endfacet
   facet normal 1.000000e+000 -1.006140e-016 2.012279e-016
      outer loop
         vertex 2.049792e+003 5.360317e+002 1.877090e+003
         vertex 2.049792e+003 5.359138e+002 1.877343e+003
         vertex 2.049792e+003 5.334174e+002 1.877390e+003
      endloop
   endfacet
   facet normal 1.000000e+000 -1.006140e-016 2.012279e-016
      outer loop
         vertex 2.049792e+003 5.334174e+002 1.877390e+003
         vertex 2.049792e+003 5.359138e+002 1.877343e+003
         vertex 2.049792e+003 5.358416e+002 1.877612e+003
      endloop
   endfacet
   facet normal 1.000000e+000 -1.006140e-016 2.012279e-016
      outer loop
         vertex 2.049792e+003 5.334174e+002 1.877390e+003
         vertex 2.049792e+003 5.358416e+002 1.877612e+003
         vertex 2.049792e+003 5.358173e+002 1.877890e+003
      endloop
   endfacet
   facet normal 1.000000e+000 -1.006140e-016 2.012279e-016
      outer loop
         vertex 2.049792e+003 5.499138e+002 1.878437e+003
         vertex 2.049792e+003 5.334174e+002 1.880890e+003
         vertex 2.049792e+003 5.498416e+002 1.878168e+003
      endloop
   endfacet
   facet normal 1.000000e+000 -1.006140e-016 2.012279e-016
      outer loop
         vertex 2.049792e+003 5.498416e+002 1.878168e+003
         vertex 2.049792e+003 5.334174e+002 1.880890e+003
         vertex 2.049792e+003 5.376952e+002 1.879466e+003
      endloop
   endfacet
   facet normal 1.000000e+000 -1.006140e-016 2.012279e-016
      outer loop
         vertex 2.049792e+003 5.498416e+002 1.878168e+003
         vertex 2.049792e+003 5.376952e+002 1.879466e+003
         vertex 2.049792e+003 5.498173e+002 1.877890e+003
      endloop
   endfacet
   facet normal 1.000000e+000 -1.006140e-016 2.012279e-016
      outer loop
         vertex 2.049792e+003 5.498173e+002 1.877890e+003
         vertex 2.049792e+003 5.376952e+002 1.879466e+003
         vertex 2.049792e+003 5.379646e+002 1.879393e+003
      endloop
   endfacet
   facet normal 1.000000e+000 -1.006140e-016 2.012279e-016
      outer loop
         vertex 2.049792e+003 5.498173e+002 1.877890e+003
         vertex 2.049792e+003 5.379646e+002 1.879393e+003
         vertex 2.049792e+003 5.382173e+002 1.879276e+003
      endloop
   endfacet
   facet normal 1.000000e+000 -1.006140e-016 2.012279e-016
      outer loop
         vertex 2.049792e+003 5.384458e+002 1.879116e+003
         vertex 2.049792e+003 5.386430e+002 1.878918e+003
         vertex 2.049792e+003 5.498173e+002 1.877890e+003
      endloop
   endfacet
   facet normal 1.000000e+000 -1.006140e-016 2.012279e-016
      outer loop
         vertex 2.049792e+003 5.498173e+002 1.877890e+003
         vertex 2.049792e+003 5.386430e+002 1.878918e+003
         vertex 2.049792e+003 5.388030e+002 1.878690e+003
      endloop
   endfacet
   facet normal 1.000000e+000 -1.006140e-016 2.012279e-016
      outer loop
         vertex 2.049792e+003 5.498173e+002 1.877890e+003
         vertex 2.049792e+003 5.388030e+002 1.878690e+003
         vertex 2.049792e+003 5.389208e+002 1.878437e+003
      endloop
   endfacet
   facet normal 1.000000e+000 -1.006140e-016 2.012279e-016
      outer loop
         vertex 2.049792e+003 5.389930e+002 1.877612e+003
         vertex 2.049792e+003 5.498416e+002 1.877612e+003
         vertex 2.049792e+003 5.390173e+002 1.877890e+003
      endloop
   endfacet
   facet normal 1.000000e+000 -1.006140e-016 2.012279e-016
      outer loop
         vertex 2.049792e+003 5.390173e+002 1.877890e+003
         vertex 2.049792e+003 5.498416e+002 1.877612e+003
         vertex 2.049792e+003 5.498173e+002 1.877890e+003
      endloop
   endfacet
   facet normal 1.000000e+000 -1.006140e-016 2.012279e-016
      outer loop
         vertex 2.049792e+003 5.390173e+002 1.877890e+003
         vertex 2.049792e+003 5.498173e+002 1.877890e+003
         vertex 2.049792e+003 5.389930e+002 1.878168e+003
      endloop
   endfacet
   facet normal 1.000000e+000 -1.006140e-016 2.012279e-016
      outer loop
         vertex 2.049792e+003 5.389930e+002 1.878168e+003
         vertex 2.049792e+003 5.498173e+002 1.877890e+003
         vertex 2.049792e+003 5.389208e+002 1.878437e+003
      endloop
   endfacet
   facet normal 1.000000e+000 -1.006140e-016 2.012279e-016
      outer loop
         vertex 2.049792e+003 5.389930e+002 1.877612e+003
         vertex 2.049792e+003 5.389208e+002 1.877343e+003
         vertex 2.049792e+003 5.498416e+002 1.877612e+003
      endloop
   endfacet
   facet normal 1.000000e+000 -1.006140e-016 2.012279e-016
      outer loop
         vertex 2.049792e+003 5.498416e+002 1.877612e+003
         vertex 2.049792e+003 5.389208e+002 1.877343e+003
         vertex 2.049792e+003 5.388030e+002 1.877090e+003
      endloop
   endfacet
   facet normal 1.000000e+000 -1.006140e-016 2.012279e-016
      outer loop
         vertex 2.049792e+003 5.498416e+002 1.877612e+003
         vertex 2.049792e+003 5.388030e+002 1.877090e+003
         vertex 2.049792e+003 5.386430e+002 1.876861e+003
      endloop
   endfacet
   facet normal 1.000000e+000 -1.006140e-016 2.012279e-016
      outer loop
         vertex 2.049792e+003 5.526430e+002 1.876861e+003
         vertex 2.049792e+003 5.524457e+002 1.876664e+003
         vertex 2.049792e+003 5.554174e+002 1.873390e+003
      endloop
   endfacet
   facet normal 1.000000e+000 -1.006140e-016 2.012279e-016
      outer loop
         vertex 2.049792e+003 5.554174e+002 1.873390e+003
         vertex 2.049792e+003 5.524457e+002 1.876664e+003
         vertex 2.049792e+003 5.522173e+002 1.876504e+003
      endloop
   endfacet
   facet normal 1.000000e+000 -1.006140e-016 2.012279e-016
      outer loop
         vertex 2.049792e+003 5.554174e+002 1.873390e+003
         vertex 2.049792e+003 5.522173e+002 1.876504e+003
         vertex 2.049792e+003 5.519646e+002 1.876386e+003
      endloop
   endfacet
   facet normal 1.000000e+000 -1.006140e-016 2.012279e-016
      outer loop
         vertex 2.049792e+003 5.516952e+002 1.876314e+003
         vertex 2.049792e+003 5.514174e+002 1.876290e+003
         vertex 2.049792e+003 5.554174e+002 1.873390e+003
      endloop
   endfacet
   facet normal 1.000000e+000 -1.006140e-016 2.012279e-016
      outer loop
         vertex 2.049792e+003 5.554174e+002 1.873390e+003
         vertex 2.049792e+003 5.514174e+002 1.876290e+003
         vertex 2.049792e+003 5.511395e+002 1.876314e+003
      endloop
   endfacet
   facet normal 1.000000e+000 -1.006140e-016 2.012279e-016
      outer loop
         vertex 2.049792e+003 5.554174e+002 1.873390e+003
         vertex 2.049792e+003 5.511395e+002 1.876314e+003
         vertex 2.049792e+003 5.374174e+002 1.873390e+003
      endloop
   endfacet
   facet normal 1.000000e+000 -1.006140e-016 2.012279e-016
      outer loop
         vertex 2.049792e+003 5.374174e+002 1.873390e+003
         vertex 2.049792e+003 5.511395e+002 1.876314e+003
         vertex 2.049792e+003 5.508701e+002 1.876386e+003
      endloop
   endfacet
   facet normal 1.000000e+000 -1.006140e-016 2.012279e-016
      outer loop
         vertex 2.049792e+003 5.374174e+002 1.873390e+003
         vertex 2.049792e+003 5.508701e+002 1.876386e+003
         vertex 2.049792e+003 5.506173e+002 1.876504e+003
      endloop
   endfacet
   facet normal 1.000000e+000 -1.006140e-016 2.012279e-016
      outer loop
         vertex 2.049792e+003 5.501917e+002 1.876861e+003
         vertex 2.049792e+003 5.500317e+002 1.877090e+003
         vertex 2.049792e+003 5.374174e+002 1.873390e+003
      endloop
   endfacet
   facet normal 1.000000e+000 -1.006140e-016 2.012279e-016
      outer loop
         vertex 2.049792e+003 5.374174e+002 1.873390e+003
         vertex 2.049792e+003 5.500317e+002 1.877090e+003
         vertex 2.049792e+003 5.499138e+002 1.877343e+003
      endloop
   endfacet
   facet normal 1.000000e+000 -1.006140e-016 2.012279e-016
      outer loop
         vertex 2.049792e+003 5.374174e+002 1.873390e+003
         vertex 2.049792e+003 5.499138e+002 1.877343e+003
         vertex 2.049792e+003 5.498416e+002 1.877612e+003
      endloop
   endfacet
   facet normal 1.000000e+000 -1.006140e-016 2.012279e-016
      outer loop
         vertex 2.049792e+003 5.374174e+002 1.873390e+003
         vertex 2.049792e+003 5.371395e+002 1.876314e+003
         vertex 2.049792e+003 5.368701e+002 1.876386e+003
      endloop
   endfacet
   facet normal 1.000000e+000 -1.006140e-016 2.012279e-016
      outer loop
         vertex 2.049792e+003 5.382173e+002 1.876504e+003
         vertex 2.049792e+003 5.379646e+002 1.876386e+003
         vertex 2.049792e+003 5.498416e+002 1.877612e+003
      endloop
   endfacet
   facet normal 1.000000e+000 -1.006140e-016 2.012279e-016
      outer loop
         vertex 2.049792e+003 5.498416e+002 1.877612e+003
         vertex 2.049792e+003 5.379646e+002 1.876386e+003
         vertex 2.049792e+003 5.376952e+002 1.876314e+003
      endloop
   endfacet
   facet normal 1.000000e+000 -1.006140e-016 2.012279e-016
      outer loop
         vertex 2.049792e+003 5.498416e+002 1.877612e+003
         vertex 2.049792e+003 5.376952e+002 1.876314e+003
         vertex 2.049792e+003 5.374174e+002 1.873390e+003
      endloop
   endfacet
   facet normal 1.000000e+000 -1.006140e-016 2.012279e-016
      outer loop
         vertex 2.049792e+003 5.374174e+002 1.873390e+003
         vertex 2.049792e+003 5.376952e+002 1.876314e+003
         vertex 2.049792e+003 5.374174e+002 1.876290e+003
      endloop
   endfacet
   facet normal 1.000000e+000 -1.006140e-016 2.012279e-016
      outer loop
         vertex 2.049792e+003 5.374174e+002 1.873390e+003
         vertex 2.049792e+003 5.374174e+002 1.876290e+003
         vertex 2.049792e+003 5.371395e+002 1.876314e+003
      endloop
   endfacet
   facet normal 1.000000e+000 -1.006140e-016 2.012279e-016
      outer loop
         vertex 2.049792e+003 5.368701e+002 1.876386e+003
         vertex 2.049792e+003 5.366173e+002 1.876504e+003
         vertex 2.049792e+003 5.374174e+002 1.873390e+003
      endloop
   endfacet
   facet normal 1.000000e+000 -1.006140e-016 2.012279e-016
      outer loop
         vertex 2.049792e+003 5.374174e+002 1.873390e+003
         vertex 2.049792e+003 5.366173e+002 1.876504e+003
         vertex 2.049792e+003 5.363889e+002 1.876664e+003
      endloop
   endfacet
   facet normal 1.000000e+000 -1.006140e-016 2.012279e-016
      outer loop
         vertex 2.049792e+003 5.374174e+002 1.873390e+003
         vertex 2.049792e+003 5.363889e+002 1.876664e+003
         vertex 2.049792e+003 5.334174e+002 1.877390e+003
      endloop
   endfacet
   facet normal 1.000000e+000 -1.006140e-016 2.012279e-016
      outer loop
         vertex 2.049792e+003 5.334174e+002 1.877390e+003
         vertex 2.049792e+003 5.363889e+002 1.876664e+003
         vertex 2.049792e+003 5.361917e+002 1.876861e+003
      endloop
   endfacet
   facet normal 1.000000e+000 -1.006140e-016 2.012279e-016
      outer loop
         vertex 2.049792e+003 5.334174e+002 1.877390e+003
         vertex 2.049792e+003 5.361917e+002 1.876861e+003
         vertex 2.049792e+003 5.360317e+002 1.877090e+003
      endloop
   endfacet
   facet normal 9.736073e-017 -7.071068e-001 -7.071068e-001
      outer loop
         vertex 2.049792e+003 5.374174e+002 1.873390e+003
         vertex 2.049792e+003 5.334174e+002 1.877390e+003
         vertex 2.046792e+003 5.374174e+002 1.873390e+003
      endloop
   endfacet
   facet normal 9.736073e-017 -7.071068e-001 -7.071068e-001
      outer loop
         vertex 2.046792e+003 5.374174e+002 1.873390e+003
         vertex 2.049792e+003 5.334174e+002 1.877390e+003
         vertex 2.046792e+003 5.334174e+002 1.877390e+003
      endloop
   endfacet
   facet normal 1.032893e-016 9.983120e-001 -5.807914e-002
      outer loop
         vertex 2.046792e+003 5.498416e+002 1.878168e+003
         vertex 2.049792e+003 5.498173e+002 1.877890e+003
         vertex 2.046792e+003 5.498173e+002 1.877890e+003
      endloop
   endfacet
   facet normal 7.681744e-017 9.983120e-001 5.807914e-002
      outer loop
         vertex 2.046792e+003 5.498173e+002 1.877890e+003
         vertex 2.049792e+003 5.498173e+002 1.877890e+003
         vertex 2.049792e+003 5.498416e+002 1.877612e+003
      endloop
   endfacet
   facet normal 6.312317e-017 9.932307e-001 1.161583e-001
      outer loop
         vertex 2.046792e+003 5.498173e+002 1.877890e+003
         vertex 2.049792e+003 5.498416e+002 1.877612e+003
         vertex 2.046792e+003 5.498416e+002 1.877612e+003
      endloop
   endfacet
   facet normal 3.523400e-017 9.730601e-001 2.305518e-001
      outer loop
         vertex 2.046792e+003 5.498416e+002 1.877612e+003
         vertex 2.049792e+003 5.498416e+002 1.877612e+003
         vertex 2.049792e+003 5.499138e+002 1.877343e+003
      endloop
   endfacet
   facet normal 2.103909e-017 9.579706e-001 2.868663e-001
      outer loop
         vertex 2.046792e+003 5.498416e+002 1.877612e+003
         vertex 2.049792e+003 5.499138e+002 1.877343e+003
         vertex 2.046792e+003 5.499138e+002 1.877343e+003
      endloop
   endfacet
   facet normal -7.420024e-018 9.182422e-001 3.960194e-001
      outer loop
         vertex 2.046792e+003 5.499138e+002 1.877343e+003
         vertex 2.049792e+003 5.499138e+002 1.877343e+003
         vertex 2.049792e+003 5.500317e+002 1.877090e+003
      endloop
   endfacet
   facet normal -2.168424e-017 8.936031e-001 4.488580e-001
      outer loop
         vertex 2.046792e+003 5.499138e+002 1.877343e+003
         vertex 2.049792e+003 5.500317e+002 1.877090e+003
         vertex 2.046792e+003 5.500317e+002 1.877090e+003
      endloop
   endfacet
   facet normal -4.984857e-017 8.355240e-001 5.494540e-001
      outer loop
         vertex 2.046792e+003 5.500317e+002 1.877090e+003
         vertex 2.049792e+003 5.500317e+002 1.877090e+003
         vertex 2.049792e+003 5.501917e+002 1.876861e+003
      endloop
   endfacet
   facet normal -6.374871e-017 8.020839e-001 5.972114e-001
      outer loop
         vertex 2.046792e+003 5.500317e+002 1.877090e+003
         vertex 2.049792e+003 5.501917e+002 1.876861e+003
         vertex 2.046792e+003 5.501917e+002 1.876861e+003
      endloop
   endfacet
   facet normal -9.076251e-017 7.274188e-001 6.861938e-001
      outer loop
         vertex 2.046792e+003 5.501917e+002 1.876861e+003
         vertex 2.049792e+003 5.501917e+002 1.876861e+003
         vertex 2.049792e+003 5.503889e+002 1.876664e+003
      endloop
   endfacet
   facet normal -1.038762e-016 6.861938e-001 7.274188e-001
      outer loop
         vertex 2.046792e+003 5.501917e+002 1.876861e+003
         vertex 2.049792e+003 5.503889e+002 1.876664e+003
         vertex 2.046792e+003 5.503889e+002 1.876664e+003
      endloop
   endfacet
   facet normal -1.289187e-016 5.972114e-001 8.020839e-001
      outer loop
         vertex 2.046792e+003 5.503889e+002 1.876664e+003
         vertex 2.049792e+003 5.503889e+002 1.876664e+003
         vertex 2.049792e+003 5.506173e+002 1.876504e+003
      endloop
   endfacet
   facet normal -1.408475e-016 5.494540e-001 8.355240e-001
      outer loop
         vertex 2.046792e+003 5.503889e+002 1.876664e+003
         vertex 2.049792e+003 5.506173e+002 1.876504e+003
         vertex 2.046792e+003 5.506173e+002 1.876504e+003
      endloop
   endfacet
   facet normal -1.631577e-016 4.488580e-001 8.936031e-001
      outer loop
         vertex 2.046792e+003 5.506173e+002 1.876504e+003
         vertex 2.049792e+003 5.506173e+002 1.876504e+003
         vertex 2.049792e+003 5.508701e+002 1.876386e+003
      endloop
   endfacet
   facet normal -1.735391e-016 3.960194e-001 9.182422e-001
      outer loop
         vertex 2.046792e+003 5.506173e+002 1.876504e+003
         vertex 2.049792e+003 5.508701e+002 1.876386e+003
         vertex 2.046792e+003 5.508701e+002 1.876386e+003
      endloop
   endfacet
   facet normal -1.924393e-016 2.868663e-001 9.579706e-001
      outer loop
         vertex 2.046792e+003 5.508701e+002 1.876386e+003
         vertex 2.049792e+003 5.508701e+002 1.876386e+003
         vertex 2.049792e+003 5.511395e+002 1.876314e+003
      endloop
   endfacet
   facet normal -2.009579e-016 2.305518e-001 9.730601e-001
      outer loop
         vertex 2.046792e+003 5.508701e+002 1.876386e+003
         vertex 2.049792e+003 5.511395e+002 1.876314e+003
         vertex 2.046792e+003 5.511395e+002 1.876314e+003
      endloop
   endfacet
   facet normal -2.158737e-016 1.161583e-001 9.932307e-001
      outer loop
         vertex 2.046792e+003 5.511395e+002 1.876314e+003
         vertex 2.049792e+003 5.511395e+002 1.876314e+003
         vertex 2.049792e+003 5.514174e+002 1.876290e+003
      endloop
   endfacet
   facet normal -2.222707e-016 5.807914e-002 9.983120e-001
      outer loop
         vertex 2.046792e+003 5.511395e+002 1.876314e+003
         vertex 2.049792e+003 5.514174e+002 1.876290e+003
         vertex 2.046792e+003 5.514174e+002 1.876290e+003
      endloop
   endfacet
   facet normal -2.327489e-016 -5.807914e-002 9.983120e-001
      outer loop
         vertex 2.046792e+003 5.514174e+002 1.876290e+003
         vertex 2.049792e+003 5.514174e+002 1.876290e+003
         vertex 2.049792e+003 5.516952e+002 1.876314e+003
      endloop
   endfacet
   facet normal -2.368299e-016 -1.161583e-001 9.932307e-001
      outer loop
         vertex 2.046792e+003 5.514174e+002 1.876290e+003
         vertex 2.049792e+003 5.516952e+002 1.876314e+003
         vertex 2.046792e+003 5.516952e+002 1.876314e+003
      endloop
   endfacet
   facet normal -2.425521e-016 -2.305518e-001 9.730601e-001
      outer loop
         vertex 2.046792e+003 5.516952e+002 1.876314e+003
         vertex 2.049792e+003 5.516952e+002 1.876314e+003
         vertex 2.049792e+003 5.519646e+002 1.876386e+003
      endloop
   endfacet
   facet normal -2.441932e-016 -2.868663e-001 9.579706e-001
      outer loop
         vertex 2.046792e+003 5.516952e+002 1.876314e+003
         vertex 2.049792e+003 5.519646e+002 1.876386e+003
         vertex 2.046792e+003 5.519646e+002 1.876386e+003
      endloop
   endfacet
   facet normal -2.449855e-016 -3.960194e-001 9.182422e-001
      outer loop
         vertex 2.046792e+003 5.519646e+002 1.876386e+003
         vertex 2.049792e+003 5.519646e+002 1.876386e+003
         vertex 2.049792e+003 5.522173e+002 1.876504e+003
      endloop
   endfacet
   facet normal -2.441367e-016 -4.488580e-001 8.936031e-001
      outer loop
         vertex 2.046792e+003 5.519646e+002 1.876386e+003
         vertex 2.049792e+003 5.522173e+002 1.876504e+003
         vertex 2.046792e+003 5.522173e+002 1.876504e+003
      endloop
   endfacet
   facet normal -2.399751e-016 -5.494540e-001 8.355240e-001
      outer loop
         vertex 2.046792e+003 5.522173e+002 1.876504e+003
         vertex 2.049792e+003 5.522173e+002 1.876504e+003
         vertex 2.049792e+003 5.524457e+002 1.876664e+003
      endloop
   endfacet
   facet normal -2.366623e-016 -5.972114e-001 8.020839e-001
      outer loop
         vertex 2.046792e+003 5.522173e+002 1.876504e+003
         vertex 2.049792e+003 5.524457e+002 1.876664e+003
         vertex 2.046792e+003 5.524457e+002 1.876664e+003
      endloop
   endfacet
   facet normal -2.276733e-016 -6.861938e-001 7.274188e-001
      outer loop
         vertex 2.046792e+003 5.524457e+002 1.876664e+003
         vertex 2.049792e+003 5.524457e+002 1.876664e+003
         vertex 2.049792e+003 5.526430e+002 1.876861e+003
      endloop
   endfacet
   facet normal -2.219970e-016 -7.274188e-001 6.861938e-001
      outer loop
         vertex 2.046792e+003 5.524457e+002 1.876664e+003
         vertex 2.049792e+003 5.526430e+002 1.876861e+003
         vertex 2.046792e+003 5.526430e+002 1.876861e+003
      endloop
   endfacet
   facet normal -2.084537e-016 -8.020839e-001 5.972114e-001
      outer loop
         vertex 2.046792e+003 5.526430e+002 1.876861e+003
         vertex 2.049792e+003 5.526430e+002 1.876861e+003
         vertex 2.049792e+003 5.528030e+002 1.877090e+003
      endloop
   endfacet
   facet normal -2.005865e-016 -8.355240e-001 5.494540e-001
      outer loop
         vertex 2.046792e+003 5.526430e+002 1.876861e+003
         vertex 2.049792e+003 5.528030e+002 1.877090e+003
         vertex 2.046792e+003 5.528030e+002 1.877090e+003
      endloop
   endfacet
   facet normal -1.829003e-016 -8.936031e-001 4.488580e-001
      outer loop
         vertex 2.046792e+003 5.528030e+002 1.877090e+003
         vertex 2.049792e+003 5.528030e+002 1.877090e+003
         vertex 2.049792e+003 5.529208e+002 1.877343e+003
      endloop
   endfacet
   facet normal -1.730812e-016 -9.182422e-001 3.960194e-001
      outer loop
         vertex 2.046792e+003 5.528030e+002 1.877090e+003
         vertex 2.049792e+003 5.529208e+002 1.877343e+003
         vertex 2.046792e+003 5.529208e+002 1.877343e+003
      endloop
   endfacet
   facet normal -1.517896e-016 -9.579706e-001 2.868663e-001
      outer loop
         vertex 2.046792e+003 5.529208e+002 1.877343e+003
         vertex 2.049792e+003 5.529208e+002 1.877343e+003
         vertex 2.049792e+003 5.529930e+002 1.877612e+003
      endloop
   endfacet
   facet normal -1.403170e-016 -9.730601e-001 2.305518e-001
      outer loop
         vertex 2.046792e+003 5.529208e+002 1.877343e+003
         vertex 2.049792e+003 5.529930e+002 1.877612e+003
         vertex 2.046792e+003 5.529930e+002 1.877612e+003
      endloop
   endfacet
   facet normal -1.160668e-016 -9.932307e-001 1.161583e-001
      outer loop
         vertex 2.046792e+003 5.529930e+002 1.877612e+003
         vertex 2.049792e+003 5.529930e+002 1.877612e+003
         vertex 2.049792e+003 5.530173e+002 1.877890e+003
      endloop
   endfacet
   facet normal -1.032893e-016 -9.983120e-001 5.807914e-002
      outer loop
         vertex 2.046792e+003 5.529930e+002 1.877612e+003
         vertex 2.049792e+003 5.530173e+002 1.877890e+003
         vertex 2.046792e+003 5.530173e+002 1.877890e+003
      endloop
   endfacet
   facet normal -7.681744e-017 -9.983120e-001 -5.807914e-002
      outer loop
         vertex 2.046792e+003 5.530173e+002 1.877890e+003
         vertex 2.049792e+003 5.530173e+002 1.877890e+003
         vertex 2.049792e+003 5.529930e+002 1.878168e+003
      endloop
   endfacet
   facet normal -6.312317e-017 -9.932307e-001 -1.161583e-001
      outer loop
         vertex 2.046792e+003 5.530173e+002 1.877890e+003
         vertex 2.049792e+003 5.529930e+002 1.878168e+003
         vertex 2.046792e+003 5.529930e+002 1.878168e+003
      endloop
   endfacet
   facet normal -3.523400e-017 -9.730601e-001 -2.305518e-001
      outer loop
         vertex 2.046792e+003 5.529930e+002 1.878168e+003
         vertex 2.049792e+003 5.529930e+002 1.878168e+003
         vertex 2.049792e+003 5.529208e+002 1.878437e+003
      endloop
   endfacet
   facet normal -2.103909e-017 -9.579706e-001 -2.868663e-001
      outer loop
         vertex 2.046792e+003 5.529930e+002 1.878168e+003
         vertex 2.049792e+003 5.529208e+002 1.878437e+003
         vertex 2.046792e+003 5.529208e+002 1.878437e+003
      endloop
   endfacet
   facet normal 7.420024e-018 -9.182422e-001 -3.960194e-001
      outer loop
         vertex 2.046792e+003 5.529208e+002 1.878437e+003
         vertex 2.049792e+003 5.529208e+002 1.878437e+003
         vertex 2.049792e+003 5.528030e+002 1.878690e+003
      endloop
   endfacet
   facet normal 2.168424e-017 -8.936031e-001 -4.488580e-001
      outer loop
         vertex 2.046792e+003 5.529208e+002 1.878437e+003
         vertex 2.049792e+003 5.528030e+002 1.878690e+003
         vertex 2.046792e+003 5.528030e+002 1.878690e+003
      endloop
   endfacet
   facet normal 4.984857e-017 -8.355240e-001 -5.494540e-001
      outer loop
         vertex 2.046792e+003 5.528030e+002 1.878690e+003
         vertex 2.049792e+003 5.528030e+002 1.878690e+003
         vertex 2.049792e+003 5.526430e+002 1.878918e+003
      endloop
   endfacet
   facet normal 6.374871e-017 -8.020839e-001 -5.972114e-001
      outer loop
         vertex 2.046792e+003 5.528030e+002 1.878690e+003
         vertex 2.049792e+003 5.526430e+002 1.878918e+003
         vertex 2.046792e+003 5.526430e+002 1.878918e+003
      endloop
   endfacet
   facet normal 9.076251e-017 -7.274188e-001 -6.861938e-001
      outer loop
         vertex 2.046792e+003 5.526430e+002 1.878918e+003
         vertex 2.049792e+003 5.526430e+002 1.878918e+003
         vertex 2.049792e+003 5.524457e+002 1.879116e+003
      endloop
   endfacet
   facet normal 1.038762e-016 -6.861938e-001 -7.274188e-001
      outer loop
         vertex 2.046792e+003 5.526430e+002 1.878918e+003
         vertex 2.049792e+003 5.524457e+002 1.879116e+003
         vertex 2.046792e+003 5.524457e+002 1.879116e+003
      endloop
   endfacet
   facet normal 1.289187e-016 -5.972114e-001 -8.020839e-001
      outer loop
         vertex 2.046792e+003 5.524457e+002 1.879116e+003
         vertex 2.049792e+003 5.524457e+002 1.879116e+003
         vertex 2.049792e+003 5.522173e+002 1.879276e+003
      endloop
   endfacet
   facet normal 1.408475e-016 -5.494540e-001 -8.355240e-001
      outer loop
         vertex 2.046792e+003 5.524457e+002 1.879116e+003
         vertex 2.049792e+003 5.522173e+002 1.879276e+003
         vertex 2.046792e+003 5.522173e+002 1.879276e+003
      endloop
   endfacet
   facet normal 1.631577e-016 -4.488580e-001 -8.936031e-001
      outer loop
         vertex 2.046792e+003 5.522173e+002 1.879276e+003
         vertex 2.049792e+003 5.522173e+002 1.879276e+003
         vertex 2.049792e+003 5.519646e+002 1.879393e+003
      endloop
   endfacet
   facet normal 1.735391e-016 -3.960194e-001 -9.182422e-001
      outer loop
         vertex 2.046792e+003 5.522173e+002 1.879276e+003
         vertex 2.049792e+003 5.519646e+002 1.879393e+003
         vertex 2.046792e+003 5.519646e+002 1.879393e+003
      endloop
   endfacet
   facet normal 1.924393e-016 -2.868663e-001 -9.579706e-001
      outer loop
         vertex 2.046792e+003 5.519646e+002 1.879393e+003
         vertex 2.049792e+003 5.519646e+002 1.879393e+003
         vertex 2.049792e+003 5.516952e+002 1.879466e+003
      endloop
   endfacet
   facet normal 2.009579e-016 -2.305518e-001 -9.730601e-001
      outer loop
         vertex 2.046792e+003 5.519646e+002 1.879393e+003
         vertex 2.049792e+003 5.516952e+002 1.879466e+003
         vertex 2.046792e+003 5.516952e+002 1.879466e+003
      endloop
   endfacet
   facet normal 2.158737e-016 -1.161583e-001 -9.932307e-001
      outer loop
         vertex 2.046792e+003 5.516952e+002 1.879466e+003
         vertex 2.049792e+003 5.516952e+002 1.879466e+003
         vertex 2.049792e+003 5.514174e+002 1.879490e+003
      endloop
   endfacet
   facet normal 2.222707e-016 -5.807914e-002 -9.983120e-001
      outer loop
         vertex 2.046792e+003 5.516952e+002 1.879466e+003
         vertex 2.049792e+003 5.514174e+002 1.879490e+003
         vertex 2.046792e+003 5.514174e+002 1.879490e+003
      endloop
   endfacet
   facet normal 2.327489e-016 5.807914e-002 -9.983120e-001
      outer loop
         vertex 2.046792e+003 5.514174e+002 1.879490e+003
         vertex 2.049792e+003 5.514174e+002 1.879490e+003
         vertex 2.049792e+003 5.511395e+002 1.879466e+003
      endloop
   endfacet
   facet normal 2.368299e-016 1.161583e-001 -9.932307e-001
      outer loop
         vertex 2.046792e+003 5.514174e+002 1.879490e+003
         vertex 2.049792e+003 5.511395e+002 1.879466e+003
         vertex 2.046792e+003 5.511395e+002 1.879466e+003
      endloop
   endfacet
   facet normal 2.425521e-016 2.305518e-001 -9.730601e-001
      outer loop
         vertex 2.046792e+003 5.511395e+002 1.879466e+003
         vertex 2.049792e+003 5.511395e+002 1.879466e+003
         vertex 2.049792e+003 5.508701e+002 1.879393e+003
      endloop
   endfacet
   facet normal 2.441932e-016 2.868663e-001 -9.579706e-001
      outer loop
         vertex 2.046792e+003 5.511395e+002 1.879466e+003
         vertex 2.049792e+003 5.508701e+002 1.879393e+003
         vertex 2.046792e+003 5.508701e+002 1.879393e+003
      endloop
   endfacet
   facet normal 2.449855e-016 3.960194e-001 -9.182422e-001
      outer loop
         vertex 2.046792e+003 5.508701e+002 1.879393e+003
         vertex 2.049792e+003 5.508701e+002 1.879393e+003
         vertex 2.049792e+003 5.506173e+002 1.879276e+003
      endloop
   endfacet
   facet normal 2.441367e-016 4.488580e-001 -8.936031e-001
      outer loop
         vertex 2.046792e+003 5.508701e+002 1.879393e+003
         vertex 2.049792e+003 5.506173e+002 1.879276e+003
         vertex 2.046792e+003 5.506173e+002 1.879276e+003
      endloop
   endfacet
   facet normal 2.399751e-016 5.494540e-001 -8.355240e-001
      outer loop
         vertex 2.046792e+003 5.506173e+002 1.879276e+003
         vertex 2.049792e+003 5.506173e+002 1.879276e+003
         vertex 2.049792e+003 5.503889e+002 1.879116e+003
      endloop
   endfacet
   facet normal 2.366623e-016 5.972114e-001 -8.020839e-001
      outer loop
         vertex 2.046792e+003 5.506173e+002 1.879276e+003
         vertex 2.049792e+003 5.503889e+002 1.879116e+003
         vertex 2.046792e+003 5.503889e+002 1.879116e+003
      endloop
   endfacet
   facet normal 2.276733e-016 6.861938e-001 -7.274188e-001
      outer loop
         vertex 2.046792e+003 5.503889e+002 1.879116e+003
         vertex 2.049792e+003 5.503889e+002 1.879116e+003
         vertex 2.049792e+003 5.501917e+002 1.878918e+003
      endloop
   endfacet
   facet normal 2.219970e-016 7.274188e-001 -6.861938e-001
      outer loop
         vertex 2.046792e+003 5.503889e+002 1.879116e+003
         vertex 2.049792e+003 5.501917e+002 1.878918e+003
         vertex 2.046792e+003 5.501917e+002 1.878918e+003
      endloop
   endfacet
   facet normal 2.084537e-016 8.020839e-001 -5.972114e-001
      outer loop
         vertex 2.046792e+003 5.501917e+002 1.878918e+003
         vertex 2.049792e+003 5.501917e+002 1.878918e+003
         vertex 2.049792e+003 5.500317e+002 1.878690e+003
      endloop
   endfacet
   facet normal 2.005865e-016 8.355240e-001 -5.494540e-001
      outer loop
         vertex 2.046792e+003 5.501917e+002 1.878918e+003
         vertex 2.049792e+003 5.500317e+002 1.878690e+003
         vertex 2.046792e+003 5.500317e+002 1.878690e+003
      endloop
   endfacet
   facet normal 1.829003e-016 8.936031e-001 -4.488580e-001
      outer loop
         vertex 2.046792e+003 5.500317e+002 1.878690e+003
         vertex 2.049792e+003 5.500317e+002 1.878690e+003
         vertex 2.049792e+003 5.499138e+002 1.878437e+003
      endloop
   endfacet
   facet normal 1.730812e-016 9.182422e-001 -3.960194e-001
      outer loop
         vertex 2.046792e+003 5.500317e+002 1.878690e+003
         vertex 2.049792e+003 5.499138e+002 1.878437e+003
         vertex 2.046792e+003 5.499138e+002 1.878437e+003
      endloop
   endfacet
   facet normal 1.517896e-016 9.579706e-001 -2.868663e-001
      outer loop
         vertex 2.046792e+003 5.499138e+002 1.878437e+003
         vertex 2.049792e+003 5.499138e+002 1.878437e+003
         vertex 2.049792e+003 5.498416e+002 1.878168e+003
      endloop
   endfacet
   facet normal 1.403170e-016 9.730601e-001 -2.305518e-001
      outer loop
         vertex 2.046792e+003 5.499138e+002 1.878437e+003
         vertex 2.049792e+003 5.498416e+002 1.878168e+003
         vertex 2.046792e+003 5.498416e+002 1.878168e+003
      endloop
   endfacet
   facet normal 1.160668e-016 9.932307e-001 -1.161583e-001
      outer loop
         vertex 2.046792e+003 5.498416e+002 1.878168e+003
         vertex 2.049792e+003 5.498416e+002 1.878168e+003
         vertex 2.049792e+003 5.498173e+002 1.877890e+003
      endloop
   endfacet
   facet normal 1.032893e-016 9.983120e-001 -5.807914e-002
      outer loop
         vertex 2.046792e+003 5.358416e+002 1.878168e+003
         vertex 2.049792e+003 5.358173e+002 1.877890e+003
         vertex 2.046792e+003 5.358173e+002 1.877890e+003
      endloop
   endfacet
   facet normal 7.681744e-017 9.983120e-001 5.807914e-002
      outer loop
         vertex 2.046792e+003 5.358173e+002 1.877890e+003
         vertex 2.049792e+003 5.358173e+002 1.877890e+003
         vertex 2.049792e+003 5.358416e+002 1.877612e+003
      endloop
   endfacet
   facet normal 6.312317e-017 9.932307e-001 1.161583e-001
      outer loop
         vertex 2.046792e+003 5.358173e+002 1.877890e+003
         vertex 2.049792e+003 5.358416e+002 1.877612e+003
         vertex 2.046792e+003 5.358416e+002 1.877612e+003
      endloop
   endfacet
   facet normal 3.523400e-017 9.730601e-001 2.305518e-001
      outer loop
         vertex 2.046792e+003 5.358416e+002 1.877612e+003
         vertex 2.049792e+003 5.358416e+002 1.877612e+003
         vertex 2.049792e+003 5.359138e+002 1.877343e+003
      endloop
   endfacet
   facet normal 2.103909e-017 9.579706e-001 2.868663e-001
      outer loop
         vertex 2.046792e+003 5.358416e+002 1.877612e+003
         vertex 2.049792e+003 5.359138e+002 1.877343e+003
         vertex 2.046792e+003 5.359138e+002 1.877343e+003
      endloop
   endfacet
   facet normal -7.420024e-018 9.182422e-001 3.960194e-001
      outer loop
         vertex 2.046792e+003 5.359138e+002 1.877343e+003
         vertex 2.049792e+003 5.359138e+002 1.877343e+003
         vertex 2.049792e+003 5.360317e+002 1.877090e+003
      endloop
   endfacet
   facet normal -2.168424e-017 8.936031e-001 4.488580e-001
      outer loop
         vertex 2.046792e+003 5.359138e+002 1.877343e+003
         vertex 2.049792e+003 5.360317e+002 1.877090e+003
         vertex 2.046792e+003 5.360317e+002 1.877090e+003
      endloop
   endfacet
   facet normal -4.984857e-017 8.355240e-001 5.494540e-001
      outer loop
         vertex 2.046792e+003 5.360317e+002 1.877090e+003
         vertex 2.049792e+003 5.360317e+002 1.877090e+003
         vertex 2.049792e+003 5.361917e+002 1.876861e+003
      endloop
   endfacet
   facet normal -6.374871e-017 8.020839e-001 5.972114e-001
      outer loop
         vertex 2.046792e+003 5.360317e+002 1.877090e+003
         vertex 2.049792e+003 5.361917e+002 1.876861e+003
         vertex 2.046792e+003 5.361917e+002 1.876861e+003
      endloop
   endfacet
   facet normal -9.076251e-017 7.274188e-001 6.861938e-001
      outer loop
         vertex 2.046792e+003 5.361917e+002 1.876861e+003
         vertex 2.049792e+003 5.361917e+002 1.876861e+003
         vertex 2.049792e+003 5.363889e+002 1.876664e+003
      endloop
   endfacet
   facet normal -1.038762e-016 6.861938e-001 7.274188e-001
      outer loop
         vertex 2.046792e+003 5.361917e+002 1.876861e+003
         vertex 2.049792e+003 5.363889e+002 1.876664e+003
         vertex 2.046792e+003 5.363889e+002 1.876664e+003
      endloop
   endfacet
   facet normal -1.289187e-016 5.972114e-001 8.020839e-001
      outer loop
         vertex 2.046792e+003 5.363889e+002 1.876664e+003
         vertex 2.049792e+003 5.363889e+002 1.876664e+003
         vertex 2.049792e+003 5.366173e+002 1.876504e+003
      endloop
   endfacet
   facet normal -1.408475e-016 5.494540e-001 8.355240e-001
      outer loop
         vertex 2.046792e+003 5.363889e+002 1.876664e+003
         vertex 2.049792e+003 5.366173e+002 1.876504e+003
         vertex 2.046792e+003 5.366173e+002 1.876504e+003
      endloop
   endfacet
   facet normal -1.631577e-016 4.488580e-001 8.936031e-001
      outer loop
         vertex 2.046792e+003 5.366173e+002 1.876504e+003
         vertex 2.049792e+003 5.366173e+002 1.876504e+003
         vertex 2.049792e+003 5.368701e+002 1.876386e+003
      endloop
   endfacet
   facet normal -1.735391e-016 3.960194e-001 9.182422e-001
      outer loop
         vertex 2.046792e+003 5.366173e+002 1.876504e+003
         vertex 2.049792e+003 5.368701e+002 1.876386e+003
         vertex 2.046792e+003 5.368701e+002 1.876386e+003
      endloop
   endfacet
   facet normal -1.924393e-016 2.868663e-001 9.579706e-001
      outer loop
         vertex 2.046792e+003 5.368701e+002 1.876386e+003
         vertex 2.049792e+003 5.368701e+002 1.876386e+003
         vertex 2.049792e+003 5.371395e+002 1.876314e+003
      endloop
   endfacet
   facet normal -2.009579e-016 2.305518e-001 9.730601e-001
      outer loop
         vertex 2.046792e+003 5.368701e+002 1.876386e+003
         vertex 2.049792e+003 5.371395e+002 1.876314e+003
         vertex 2.046792e+003 5.371395e+002 1.876314e+003
      endloop
   endfacet
   facet normal -2.158737e-016 1.161583e-001 9.932307e-001
      outer loop
         vertex 2.046792e+003 5.371395e+002 1.876314e+003
         vertex 2.049792e+003 5.371395e+002 1.876314e+003
         vertex 2.049792e+003 5.374174e+002 1.876290e+003
      endloop
   endfacet
   facet normal -2.222707e-016 5.807914e-002 9.983120e-001
      outer loop
         vertex 2.046792e+003 5.371395e+002 1.876314e+003
         vertex 2.049792e+003 5.374174e+002 1.876290e+003
         vertex 2.046792e+003 5.374174e+002 1.876290e+003
      endloop
   endfacet
   facet normal -2.327489e-016 -5.807914e-002 9.983120e-001
      outer loop
         vertex 2.046792e+003 5.374174e+002 1.876290e+003
         vertex 2.049792e+003 5.374174e+002 1.876290e+003
         vertex 2.049792e+003 5.376952e+002 1.876314e+003
      endloop
   endfacet
   facet normal -2.368299e-016 -1.161583e-001 9.932307e-001
      outer loop
         vertex 2.046792e+003 5.374174e+002 1.876290e+003
         vertex 2.049792e+003 5.376952e+002 1.876314e+003
         vertex 2.046792e+003 5.376952e+002 1.876314e+003
      endloop
   endfacet
   facet normal -2.425521e-016 -2.305518e-001 9.730601e-001
      outer loop
         vertex 2.046792e+003 5.376952e+002 1.876314e+003
         vertex 2.049792e+003 5.376952e+002 1.876314e+003
         vertex 2.049792e+003 5.379646e+002 1.876386e+003
      endloop
   endfacet
   facet normal -2.441932e-016 -2.868663e-001 9.579706e-001
      outer loop
         vertex 2.046792e+003 5.376952e+002 1.876314e+003
         vertex 2.049792e+003 5.379646e+002 1.876386e+003
         vertex 2.046792e+003 5.379646e+002 1.876386e+003
      endloop
   endfacet
   facet normal -2.449855e-016 -3.960194e-001 9.182422e-001
      outer loop
         vertex 2.046792e+003 5.379646e+002 1.876386e+003
         vertex 2.049792e+003 5.379646e+002 1.876386e+003
         vertex 2.049792e+003 5.382173e+002 1.876504e+003
      endloop
   endfacet
   facet normal -2.441367e-016 -4.488580e-001 8.936031e-001
      outer loop
         vertex 2.046792e+003 5.379646e+002 1.876386e+003
         vertex 2.049792e+003 5.382173e+002 1.876504e+003
         vertex 2.046792e+003 5.382173e+002 1.876504e+003
      endloop
   endfacet
   facet normal -2.399751e-016 -5.494540e-001 8.355240e-001
      outer loop
         vertex 2.046792e+003 5.382173e+002 1.876504e+003
         vertex 2.049792e+003 5.382173e+002 1.876504e+003
         vertex 2.049792e+003 5.384458e+002 1.876664e+003
      endloop
   endfacet
   facet normal -2.366623e-016 -5.972114e-001 8.020839e-001
      outer loop
         vertex 2.046792e+003 5.382173e+002 1.876504e+003
         vertex 2.049792e+003 5.384458e+002 1.876664e+003
         vertex 2.046792e+003 5.384458e+002 1.876664e+003
      endloop
   endfacet
   facet normal -2.276733e-016 -6.861938e-001 7.274188e-001
      outer loop
         vertex 2.046792e+003 5.384458e+002 1.876664e+003
         vertex 2.049792e+003 5.384458e+002 1.876664e+003
         vertex 2.049792e+003 5.386430e+002 1.876861e+003
      endloop
   endfacet
   facet normal -2.219970e-016 -7.274188e-001 6.861938e-001
      outer loop
         vertex 2.046792e+003 5.384458e+002 1.876664e+003
         vertex 2.049792e+003 5.386430e+002 1.876861e+003
         vertex 2.046792e+003 5.386430e+002 1.876861e+003
      endloop
   endfacet
   facet normal -2.084537e-016 -8.020839e-001 5.972114e-001
      outer loop
         vertex 2.046792e+003 5.386430e+002 1.876861e+003
         vertex 2.049792e+003 5.386430e+002 1.876861e+003
         vertex 2.049792e+003 5.388030e+002 1.877090e+003
      endloop
   endfacet
   facet normal -2.005865e-016 -8.355240e-001 5.494540e-001
      outer loop
         vertex 2.046792e+003 5.386430e+002 1.876861e+003
         vertex 2.049792e+003 5.388030e+002 1.877090e+003
         vertex 2.046792e+003 5.388030e+002 1.877090e+003
      endloop
   endfacet
   facet normal -1.829003e-016 -8.936031e-001 4.488580e-001
      outer loop
         vertex 2.046792e+003 5.388030e+002 1.877090e+003
         vertex 2.049792e+003 5.388030e+002 1.877090e+003
         vertex 2.049792e+003 5.389208e+002 1.877343e+003
      endloop
   endfacet
   facet normal -1.730812e-016 -9.182422e-001 3.960194e-001
      outer loop
         vertex 2.046792e+003 5.388030e+002 1.877090e+003
         vertex 2.049792e+003 5.389208e+002 1.877343e+003
         vertex 2.046792e+003 5.389208e+002 1.877343e+003
      endloop
   endfacet
   facet normal -1.517896e-016 -9.579706e-001 2.868663e-001
      outer loop
         vertex 2.046792e+003 5.389208e+002 1.877343e+003
         vertex 2.049792e+003 5.389208e+002 1.877343e+003
         vertex 2.049792e+003 5.389930e+002 1.877612e+003
      endloop
   endfacet
   facet normal -1.403170e-016 -9.730601e-001 2.305518e-001
      outer loop
         vertex 2.046792e+003 5.389208e+002 1.877343e+003
         vertex 2.049792e+003 5.389930e+002 1.877612e+003
         vertex 2.046792e+003 5.389930e+002 1.877612e+003
      endloop
   endfacet
   facet normal -1.160668e-016 -9.932307e-001 1.161583e-001
      outer loop
         vertex 2.046792e+003 5.389930e+002 1.877612e+003
         vertex 2.049792e+003 5.389930e+002 1.877612e+003
         vertex 2.049792e+003 5.390173e+002 1.877890e+003
      endloop
   endfacet
   facet normal -1.032893e-016 -9.983120e-001 5.807914e-002
      outer loop
         vertex 2.046792e+003 5.389930e+002 1.877612e+003
         vertex 2.049792e+003 5.390173e+002 1.877890e+003
         vertex 2.046792e+003 5.390173e+002 1.877890e+003
      endloop
   endfacet
   facet normal -7.681744e-017 -9.983120e-001 -5.807914e-002
      outer loop
         vertex 2.046792e+003 5.390173e+002 1.877890e+003
         vertex 2.049792e+003 5.390173e+002 1.877890e+003
         vertex 2.049792e+003 5.389930e+002 1.878168e+003
      endloop
   endfacet
   facet normal -6.312317e-017 -9.932307e-001 -1.161583e-001
      outer loop
         vertex 2.046792e+003 5.390173e+002 1.877890e+003
         vertex 2.049792e+003 5.389930e+002 1.878168e+003
         vertex 2.046792e+003 5.389930e+002 1.878168e+003
      endloop
   endfacet
   facet normal -3.523400e-017 -9.730601e-001 -2.305518e-001
      outer loop
         vertex 2.046792e+003 5.389930e+002 1.878168e+003
         vertex 2.049792e+003 5.389930e+002 1.878168e+003
         vertex 2.049792e+003 5.389208e+002 1.878437e+003
      endloop
   endfacet
   facet normal -2.103909e-017 -9.579706e-001 -2.868663e-001
      outer loop
         vertex 2.046792e+003 5.389930e+002 1.878168e+003
         vertex 2.049792e+003 5.389208e+002 1.878437e+003
         vertex 2.046792e+003 5.389208e+002 1.878437e+003
      endloop
   endfacet
   facet normal 7.420024e-018 -9.182422e-001 -3.960194e-001
      outer loop
         vertex 2.046792e+003 5.389208e+002 1.878437e+003
         vertex 2.049792e+003 5.389208e+002 1.878437e+003
         vertex 2.049792e+003 5.388030e+002 1.878690e+003
      endloop
   endfacet
   facet normal 2.168424e-017 -8.936031e-001 -4.488580e-001
      outer loop
         vertex 2.046792e+003 5.389208e+002 1.878437e+003
         vertex 2.049792e+003 5.388030e+002 1.878690e+003
         vertex 2.046792e+003 5.388030e+002 1.878690e+003
      endloop
   endfacet
   facet normal 4.984857e-017 -8.355240e-001 -5.494540e-001
      outer loop
         vertex 2.046792e+003 5.388030e+002 1.878690e+003
         vertex 2.049792e+003 5.388030e+002 1.878690e+003
         vertex 2.049792e+003 5.386430e+002 1.878918e+003
      endloop
   endfacet
   facet normal 6.374871e-017 -8.020839e-001 -5.972114e-001
      outer loop
         vertex 2.046792e+003 5.388030e+002 1.878690e+003
         vertex 2.049792e+003 5.386430e+002 1.878918e+003
         vertex 2.046792e+003 5.386430e+002 1.878918e+003
      endloop
   endfacet
   facet normal 9.076251e-017 -7.274188e-001 -6.861938e-001
      outer loop
         vertex 2.046792e+003 5.386430e+002 1.878918e+003
         vertex 2.049792e+003 5.386430e+002 1.878918e+003
         vertex 2.049792e+003 5.384458e+002 1.879116e+003
      endloop
   endfacet
   facet normal 1.038762e-016 -6.861938e-001 -7.274188e-001
      outer loop
         vertex 2.046792e+003 5.386430e+002 1.878918e+003
         vertex 2.049792e+003 5.384458e+002 1.879116e+003
         vertex 2.046792e+003 5.384458e+002 1.879116e+003
      endloop
   endfacet
   facet normal 1.289187e-016 -5.972114e-001 -8.020839e-001
      outer loop
         vertex 2.046792e+003 5.384458e+002 1.879116e+003
         vertex 2.049792e+003 5.384458e+002 1.879116e+003
         vertex 2.049792e+003 5.382173e+002 1.879276e+003
      endloop
   endfacet
   facet normal 1.408475e-016 -5.494540e-001 -8.355240e-001
      outer loop
         vertex 2.046792e+003 5.384458e+002 1.879116e+003
         vertex 2.049792e+003 5.382173e+002 1.879276e+003
         vertex 2.046792e+003 5.382173e+002 1.879276e+003
      endloop
   endfacet
   facet normal 1.631577e-016 -4.488580e-001 -8.936031e-001
      outer loop
         vertex 2.046792e+003 5.382173e+002 1.879276e+003
         vertex 2.049792e+003 5.382173e+002 1.879276e+003
         vertex 2.049792e+003 5.379646e+002 1.879393e+003
      endloop
   endfacet
   facet normal 1.735391e-016 -3.960194e-001 -9.182422e-001
      outer loop
         vertex 2.046792e+003 5.382173e+002 1.879276e+003
         vertex 2.049792e+003 5.379646e+002 1.879393e+003
         vertex 2.046792e+003 5.379646e+002 1.879393e+003
      endloop
   endfacet
   facet normal 1.924393e-016 -2.868663e-001 -9.579706e-001
      outer loop
         vertex 2.046792e+003 5.379646e+002 1.879393e+003
         vertex 2.049792e+003 5.379646e+002 1.879393e+003
         vertex 2.049792e+003 5.376952e+002 1.879466e+003
      endloop
   endfacet
   facet normal 2.009579e-016 -2.305518e-001 -9.730601e-001
      outer loop
         vertex 2.046792e+003 5.379646e+002 1.879393e+003
         vertex 2.049792e+003 5.376952e+002 1.879466e+003
         vertex 2.046792e+003 5.376952e+002 1.879466e+003
      endloop
   endfacet
   facet normal 2.158737e-016 -1.161583e-001 -9.932307e-001
      outer loop
         vertex 2.046792e+003 5.376952e+002 1.879466e+003
         vertex 2.049792e+003 5.376952e+002 1.879466e+003
         vertex 2.049792e+003 5.374174e+002 1.879490e+003
      endloop
   endfacet
   facet normal 2.222707e-016 -5.807914e-002 -9.983120e-001
      outer loop
         vertex 2.046792e+003 5.376952e+002 1.879466e+003
         vertex 2.049792e+003 5.374174e+002 1.879490e+003
         vertex 2.046792e+003 5.374174e+002 1.879490e+003
      endloop
   endfacet
   facet normal 2.327489e-016 5.807914e-002 -9.983120e-001
      outer loop
         vertex 2.046792e+003 5.374174e+002 1.879490e+003
         vertex 2.049792e+003 5.374174e+002 1.879490e+003
         vertex 2.049792e+003 5.371395e+002 1.879466e+003
      endloop
   endfacet
   facet normal 2.368299e-016 1.161583e-001 -9.932307e-001
      outer loop
         vertex 2.046792e+003 5.374174e+002 1.879490e+003
         vertex 2.049792e+003 5.371395e+002 1.879466e+003
         vertex 2.046792e+003 5.371395e+002 1.879466e+003
      endloop
   endfacet
   facet normal 2.425521e-016 2.305518e-001 -9.730601e-001
      outer loop
         vertex 2.046792e+003 5.371395e+002 1.879466e+003
         vertex 2.049792e+003 5.371395e+002 1.879466e+003
         vertex 2.049792e+003 5.368701e+002 1.879393e+003
      endloop
   endfacet
   facet normal 2.441932e-016 2.868663e-001 -9.579706e-001
      outer loop
         vertex 2.046792e+003 5.371395e+002 1.879466e+003
         vertex 2.049792e+003 5.368701e+002 1.879393e+003
         vertex 2.046792e+003 5.368701e+002 1.879393e+003
      endloop
   endfacet
   facet normal 2.449855e-016 3.960194e-001 -9.182422e-001
      outer loop
         vertex 2.046792e+003 5.368701e+002 1.879393e+003
         vertex 2.049792e+003 5.368701e+002 1.879393e+003
         vertex 2.049792e+003 5.366173e+002 1.879276e+003
      endloop
   endfacet
   facet normal 2.441367e-016 4.488580e-001 -8.936031e-001
      outer loop
         vertex 2.046792e+003 5.368701e+002 1.879393e+003
         vertex 2.049792e+003 5.366173e+002 1.879276e+003
         vertex 2.046792e+003 5.366173e+002 1.879276e+003
      endloop
   endfacet
   facet normal 2.399751e-016 5.494540e-001 -8.355240e-001
      outer loop
         vertex 2.046792e+003 5.366173e+002 1.879276e+003
         vertex 2.049792e+003 5.366173e+002 1.879276e+003
         vertex 2.049792e+003 5.363889e+002 1.879116e+003
      endloop
   endfacet
   facet normal 2.366623e-016 5.972114e-001 -8.020839e-001
      outer loop
         vertex 2.046792e+003 5.366173e+002 1.879276e+003
         vertex 2.049792e+003 5.363889e+002 1.879116e+003
         vertex 2.046792e+003 5.363889e+002 1.879116e+003
      endloop
   endfacet
   facet normal 2.276733e-016 6.861938e-001 -7.274188e-001
      outer loop
         vertex 2.046792e+003 5.363889e+002 1.879116e+003
         vertex 2.049792e+003 5.363889e+002 1.879116e+003
         vertex 2.049792e+003 5.361917e+002 1.878918e+003
      endloop
   endfacet
   facet normal 2.219970e-016 7.274188e-001 -6.861938e-001
      outer loop
         vertex 2.046792e+003 5.363889e+002 1.879116e+003
         vertex 2.049792e+003 5.361917e+002 1.878918e+003
         vertex 2.046792e+003 5.361917e+002 1.878918e+003
      endloop
   endfacet
   facet normal 2.084537e-016 8.020839e-001 -5.972114e-001
      outer loop
         vertex 2.046792e+003 5.361917e+002 1.878918e+003
         vertex 2.049792e+003 5.361917e+002 1.878918e+003
         vertex 2.049792e+003 5.360317e+002 1.878690e+003
      endloop
   endfacet
   facet normal 2.005865e-016 8.355240e-001 -5.494540e-001
      outer loop
         vertex 2.046792e+003 5.361917e+002 1.878918e+003
         vertex 2.049792e+003 5.360317e+002 1.878690e+003
         vertex 2.046792e+003 5.360317e+002 1.878690e+003
      endloop
   endfacet
   facet normal 1.829003e-016 8.936031e-001 -4.488580e-001
      outer loop
         vertex 2.046792e+003 5.360317e+002 1.878690e+003
         vertex 2.049792e+003 5.360317e+002 1.878690e+003
         vertex 2.049792e+003 5.359138e+002 1.878437e+003
      endloop
   endfacet
   facet normal 1.730812e-016 9.182422e-001 -3.960194e-001
      outer loop
         vertex 2.046792e+003 5.360317e+002 1.878690e+003
         vertex 2.049792e+003 5.359138e+002 1.878437e+003
         vertex 2.046792e+003 5.359138e+002 1.878437e+003
      endloop
   endfacet
   facet normal 1.517896e-016 9.579706e-001 -2.868663e-001
      outer loop
         vertex 2.046792e+003 5.359138e+002 1.878437e+003
         vertex 2.049792e+003 5.359138e+002 1.878437e+003
         vertex 2.049792e+003 5.358416e+002 1.878168e+003
      endloop
   endfacet
   facet normal 1.403170e-016 9.730601e-001 -2.305518e-001
      outer loop
         vertex 2.046792e+003 5.359138e+002 1.878437e+003
         vertex 2.049792e+003 5.358416e+002 1.878168e+003
         vertex 2.046792e+003 5.358416e+002 1.878168e+003
      endloop
   endfacet
   facet normal 1.160668e-016 9.932307e-001 -1.161583e-001
      outer loop
         vertex 2.046792e+003 5.358416e+002 1.878168e+003
         vertex 2.049792e+003 5.358416e+002 1.878168e+003
         vertex 2.049792e+003 5.358173e+002 1.877890e+003
      endloop
   endfacet
endsolid