solid 09.025.00.00.000 - 09.025.00.08.000-2 09.025.00.08.020-1
   facet normal 6.245005e-017 1.000000e+000 -1.162265e-016
      outer loop
         vertex 2.217792e+003 1.353417e+003 1.877390e+003
         vertex 2.217792e+003 1.353417e+003 1.880890e+003
         vertex 2.220792e+003 1.353417e+003 1.877390e+003
      endloop
   endfacet
   facet normal 6.245005e-017 1.000000e+000 -1.162265e-016
      outer loop
         vertex 2.220792e+003 1.353417e+003 1.877390e+003
         vertex 2.217792e+003 1.353417e+003 1.880890e+003
         vertex 2.220792e+003 1.353417e+003 1.880890e+003
      endloop
   endfacet
   facet normal -2.278945e-016 9.677449e-017 1.000000e+000
      outer loop
         vertex 2.220792e+003 1.331417e+003 1.880890e+003
         vertex 2.220792e+003 1.353417e+003 1.880890e+003
         vertex 2.217792e+003 1.331417e+003 1.880890e+003
      endloop
   endfacet
   facet normal -2.278945e-016 9.677449e-017 1.000000e+000
      outer loop
         vertex 2.217792e+003 1.331417e+003 1.880890e+003
         vertex 2.220792e+003 1.353417e+003 1.880890e+003
         vertex 2.217792e+003 1.353417e+003 1.880890e+003
      endloop
   endfacet
   facet normal -6.245005e-017 -1.000000e+000 1.162265e-016
      outer loop
         vertex 2.220792e+003 1.331417e+003 1.873390e+003
         vertex 2.220792e+003 1.331417e+003 1.880890e+003
         vertex 2.217792e+003 1.331417e+003 1.873390e+003
      endloop
   endfacet
   facet normal -6.245005e-017 -1.000000e+000 1.162265e-016
      outer loop
         vertex 2.217792e+003 1.331417e+003 1.873390e+003
         vertex 2.220792e+003 1.331417e+003 1.880890e+003
         vertex 2.217792e+003 1.331417e+003 1.880890e+003
      endloop
   endfacet
   facet normal 2.278945e-016 -9.677449e-017 -1.000000e+000
      outer loop
         vertex 2.220792e+003 1.349417e+003 1.873390e+003
         vertex 2.220792e+003 1.331417e+003 1.873390e+003
         vertex 2.217792e+003 1.349417e+003 1.873390e+003
      endloop
   endfacet
   facet normal 2.278945e-016 -9.677449e-017 -1.000000e+000
      outer loop
         vertex 2.217792e+003 1.349417e+003 1.873390e+003
         vertex 2.220792e+003 1.331417e+003 1.873390e+003
         vertex 2.217792e+003 1.331417e+003 1.873390e+003
      endloop
   endfacet
   facet normal 1.000000e+000 -7.285839e-017 2.012279e-016
      outer loop
         vertex 2.220792e+003 1.348617e+003 1.876504e+003
         vertex 2.220792e+003 1.336643e+003 1.878918e+003
         vertex 2.220792e+003 1.348870e+003 1.876386e+003
      endloop
   endfacet
   facet normal 1.000000e+000 -7.285839e-017 2.012279e-016
      outer loop
         vertex 2.220792e+003 1.348870e+003 1.876386e+003
         vertex 2.220792e+003 1.336643e+003 1.878918e+003
         vertex 2.220792e+003 1.349139e+003 1.876314e+003
      endloop
   endfacet
   facet normal 1.000000e+000 -7.285839e-017 2.012279e-016
      outer loop
         vertex 2.220792e+003 1.335695e+003 1.879466e+003
         vertex 2.220792e+003 1.335965e+003 1.879393e+003
         vertex 2.220792e+003 1.347842e+003 1.877612e+003
      endloop
   endfacet
   facet normal 1.000000e+000 -7.285839e-017 2.012279e-016
      outer loop
         vertex 2.220792e+003 1.347842e+003 1.877612e+003
         vertex 2.220792e+003 1.335965e+003 1.879393e+003
         vertex 2.220792e+003 1.336217e+003 1.879276e+003
      endloop
   endfacet
   facet normal 1.000000e+000 -7.285839e-017 2.012279e-016
      outer loop
         vertex 2.220792e+003 1.348617e+003 1.876504e+003
         vertex 2.220792e+003 1.348389e+003 1.876664e+003
         vertex 2.220792e+003 1.336643e+003 1.878918e+003
      endloop
   endfacet
   facet normal 1.000000e+000 -7.285839e-017 2.012279e-016
      outer loop
         vertex 2.220792e+003 1.336643e+003 1.878918e+003
         vertex 2.220792e+003 1.348389e+003 1.876664e+003
         vertex 2.220792e+003 1.348192e+003 1.876861e+003
      endloop
   endfacet
   facet normal 1.000000e+000 -7.285839e-017 2.012279e-016
      outer loop
         vertex 2.220792e+003 1.336643e+003 1.878918e+003
         vertex 2.220792e+003 1.348192e+003 1.876861e+003
         vertex 2.220792e+003 1.348032e+003 1.877090e+003
      endloop
   endfacet
   facet normal 1.000000e+000 -7.285839e-017 2.012279e-016
      outer loop
         vertex 2.220792e+003 1.337017e+003 1.877890e+003
         vertex 2.220792e+003 1.336993e+003 1.877612e+003
         vertex 2.220792e+003 1.349417e+003 1.873390e+003
      endloop
   endfacet
   facet normal 1.000000e+000 -7.285839e-017 2.012279e-016
      outer loop
         vertex 2.220792e+003 1.349417e+003 1.873390e+003
         vertex 2.220792e+003 1.336993e+003 1.877612e+003
         vertex 2.220792e+003 1.336921e+003 1.877343e+003
      endloop
   endfacet
   facet normal 1.000000e+000 -7.285839e-017 2.012279e-016
      outer loop
         vertex 2.220792e+003 1.336217e+003 1.879276e+003
         vertex 2.220792e+003 1.336446e+003 1.879116e+003
         vertex 2.220792e+003 1.347842e+003 1.877612e+003
      endloop
   endfacet
   facet normal 1.000000e+000 -7.285839e-017 2.012279e-016
      outer loop
         vertex 2.220792e+003 1.347842e+003 1.877612e+003
         vertex 2.220792e+003 1.336446e+003 1.879116e+003
         vertex 2.220792e+003 1.336643e+003 1.878918e+003
      endloop
   endfacet
   facet normal 1.000000e+000 -7.285839e-017 2.012279e-016
      outer loop
         vertex 2.220792e+003 1.347842e+003 1.877612e+003
         vertex 2.220792e+003 1.336643e+003 1.878918e+003
         vertex 2.220792e+003 1.347914e+003 1.877343e+003
      endloop
   endfacet
   facet normal 1.000000e+000 -7.285839e-017 2.012279e-016
      outer loop
         vertex 2.220792e+003 1.347914e+003 1.877343e+003
         vertex 2.220792e+003 1.336643e+003 1.878918e+003
         vertex 2.220792e+003 1.348032e+003 1.877090e+003
      endloop
   endfacet
   facet normal 1.000000e+000 -7.285839e-017 2.012279e-016
      outer loop
         vertex 2.220792e+003 1.333842e+003 1.878168e+003
         vertex 2.220792e+003 1.333914e+003 1.878437e+003
         vertex 2.220792e+003 1.331417e+003 1.880890e+003
      endloop
   endfacet
   facet normal 1.000000e+000 -7.285839e-017 2.012279e-016
      outer loop
         vertex 2.220792e+003 1.331417e+003 1.880890e+003
         vertex 2.220792e+003 1.333914e+003 1.878437e+003
         vertex 2.220792e+003 1.334032e+003 1.878690e+003
      endloop
   endfacet
   facet normal 1.000000e+000 -7.285839e-017 2.012279e-016
      outer loop
         vertex 2.220792e+003 1.331417e+003 1.880890e+003
         vertex 2.220792e+003 1.334032e+003 1.878690e+003
         vertex 2.220792e+003 1.334192e+003 1.878918e+003
      endloop
   endfacet
   facet normal 1.000000e+000 -7.285839e-017 2.012279e-016
      outer loop
         vertex 2.220792e+003 1.336921e+003 1.877343e+003
         vertex 2.220792e+003 1.336803e+003 1.877090e+003
         vertex 2.220792e+003 1.349417e+003 1.873390e+003
      endloop
   endfacet
   facet normal 1.000000e+000 -7.285839e-017 2.012279e-016
      outer loop
         vertex 2.220792e+003 1.349417e+003 1.873390e+003
         vertex 2.220792e+003 1.336803e+003 1.877090e+003
         vertex 2.220792e+003 1.336643e+003 1.876861e+003
      endloop
   endfacet
   facet normal 1.000000e+000 -7.285839e-017 2.012279e-016
      outer loop
         vertex 2.220792e+003 1.349417e+003 1.873390e+003
         vertex 2.220792e+003 1.336643e+003 1.876861e+003
         vertex 2.220792e+003 1.336446e+003 1.876664e+003
      endloop
   endfacet
   facet normal 1.000000e+000 -7.285839e-017 2.012279e-016
      outer loop
         vertex 2.220792e+003 1.334032e+003 1.877090e+003
         vertex 2.220792e+003 1.333914e+003 1.877343e+003
         vertex 2.220792e+003 1.331417e+003 1.873390e+003
      endloop
   endfacet
   facet normal 1.000000e+000 -7.285839e-017 2.012279e-016
      outer loop
         vertex 2.220792e+003 1.331417e+003 1.873390e+003
         vertex 2.220792e+003 1.333914e+003 1.877343e+003
         vertex 2.220792e+003 1.333842e+003 1.877612e+003
      endloop
   endfacet
   facet normal 1.000000e+000 -7.285839e-017 2.012279e-016
      outer loop
         vertex 2.220792e+003 1.331417e+003 1.873390e+003
         vertex 2.220792e+003 1.333842e+003 1.877612e+003
         vertex 2.220792e+003 1.331417e+003 1.880890e+003
      endloop
   endfacet
   facet normal 1.000000e+000 -7.285839e-017 2.012279e-016
      outer loop
         vertex 2.220792e+003 1.331417e+003 1.880890e+003
         vertex 2.220792e+003 1.333842e+003 1.877612e+003
         vertex 2.220792e+003 1.333817e+003 1.877890e+003
      endloop
   endfacet
   facet normal 1.000000e+000 -7.285839e-017 2.012279e-016
      outer loop
         vertex 2.220792e+003 1.331417e+003 1.880890e+003
         vertex 2.220792e+003 1.333817e+003 1.877890e+003
         vertex 2.220792e+003 1.333842e+003 1.878168e+003
      endloop
   endfacet
   facet normal 1.000000e+000 -7.285839e-017 2.012279e-016
      outer loop
         vertex 2.220792e+003 1.353417e+003 1.880890e+003
         vertex 2.220792e+003 1.350446e+003 1.879116e+003
         vertex 2.220792e+003 1.350643e+003 1.878918e+003
      endloop
   endfacet
   facet normal 1.000000e+000 -7.285839e-017 2.012279e-016
      outer loop
         vertex 2.220792e+003 1.334192e+003 1.878918e+003
         vertex 2.220792e+003 1.334389e+003 1.879116e+003
         vertex 2.220792e+003 1.331417e+003 1.880890e+003
      endloop
   endfacet
   facet normal 1.000000e+000 -7.285839e-017 2.012279e-016
      outer loop
         vertex 2.220792e+003 1.331417e+003 1.880890e+003
         vertex 2.220792e+003 1.334389e+003 1.879116e+003
         vertex 2.220792e+003 1.334617e+003 1.879276e+003
      endloop
   endfacet
   facet normal 1.000000e+000 -7.285839e-017 2.012279e-016
      outer loop
         vertex 2.220792e+003 1.331417e+003 1.880890e+003
         vertex 2.220792e+003 1.334617e+003 1.879276e+003
         vertex 2.220792e+003 1.334870e+003 1.879393e+003
      endloop
   endfacet
   facet normal 1.000000e+000 -7.285839e-017 2.012279e-016
      outer loop
         vertex 2.220792e+003 1.350993e+003 1.878168e+003
         vertex 2.220792e+003 1.353417e+003 1.877390e+003
         vertex 2.220792e+003 1.350921e+003 1.878437e+003
      endloop
   endfacet
   facet normal 1.000000e+000 -7.285839e-017 2.012279e-016
      outer loop
         vertex 2.220792e+003 1.350921e+003 1.878437e+003
         vertex 2.220792e+003 1.353417e+003 1.877390e+003
         vertex 2.220792e+003 1.353417e+003 1.880890e+003
      endloop
   endfacet
   facet normal 1.000000e+000 -7.285839e-017 2.012279e-016
      outer loop
         vertex 2.220792e+003 1.350921e+003 1.878437e+003
         vertex 2.220792e+003 1.353417e+003 1.880890e+003
         vertex 2.220792e+003 1.350803e+003 1.878690e+003
      endloop
   endfacet
   facet normal 1.000000e+000 -7.285839e-017 2.012279e-016
      outer loop
         vertex 2.220792e+003 1.350803e+003 1.878690e+003
         vertex 2.220792e+003 1.353417e+003 1.880890e+003
         vertex 2.220792e+003 1.350643e+003 1.878918e+003
      endloop
   endfacet
   facet normal 1.000000e+000 -7.285839e-017 2.012279e-016
      outer loop
         vertex 2.220792e+003 1.350993e+003 1.878168e+003
         vertex 2.220792e+003 1.351017e+003 1.877890e+003
         vertex 2.220792e+003 1.353417e+003 1.877390e+003
      endloop
   endfacet
   facet normal 1.000000e+000 -7.285839e-017 2.012279e-016
      outer loop
         vertex 2.220792e+003 1.353417e+003 1.877390e+003
         vertex 2.220792e+003 1.351017e+003 1.877890e+003
         vertex 2.220792e+003 1.350993e+003 1.877612e+003
      endloop
   endfacet
   facet normal 1.000000e+000 -7.285839e-017 2.012279e-016
      outer loop
         vertex 2.220792e+003 1.353417e+003 1.877390e+003
         vertex 2.220792e+003 1.350993e+003 1.877612e+003
         vertex 2.220792e+003 1.350921e+003 1.877343e+003
      endloop
   endfacet
   facet normal 1.000000e+000 -7.285839e-017 2.012279e-016
      outer loop
         vertex 2.220792e+003 1.336446e+003 1.876664e+003
         vertex 2.220792e+003 1.336217e+003 1.876504e+003
         vertex 2.220792e+003 1.349417e+003 1.873390e+003
      endloop
   endfacet
   facet normal 1.000000e+000 -7.285839e-017 2.012279e-016
      outer loop
         vertex 2.220792e+003 1.349417e+003 1.873390e+003
         vertex 2.220792e+003 1.336217e+003 1.876504e+003
         vertex 2.220792e+003 1.335965e+003 1.876386e+003
      endloop
   endfacet
   facet normal 1.000000e+000 -7.285839e-017 2.012279e-016
      outer loop
         vertex 2.220792e+003 1.349417e+003 1.873390e+003
         vertex 2.220792e+003 1.335965e+003 1.876386e+003
         vertex 2.220792e+003 1.331417e+003 1.873390e+003
      endloop
   endfacet
   facet normal 1.000000e+000 -7.285839e-017 2.012279e-016
      outer loop
         vertex 2.220792e+003 1.331417e+003 1.873390e+003
         vertex 2.220792e+003 1.335965e+003 1.876386e+003
         vertex 2.220792e+003 1.335695e+003 1.876314e+003
      endloop
   endfacet
   facet normal 1.000000e+000 -7.285839e-017 2.012279e-016
      outer loop
         vertex 2.220792e+003 1.331417e+003 1.873390e+003
         vertex 2.220792e+003 1.335695e+003 1.876314e+003
         vertex 2.220792e+003 1.335417e+003 1.876290e+003
      endloop
   endfacet
   facet normal 1.000000e+000 -7.285839e-017 2.012279e-016
      outer loop
         vertex 2.220792e+003 1.350921e+003 1.877343e+003
         vertex 2.220792e+003 1.350803e+003 1.877090e+003
         vertex 2.220792e+003 1.353417e+003 1.877390e+003
      endloop
   endfacet
   facet normal 1.000000e+000 -7.285839e-017 2.012279e-016
      outer loop
         vertex 2.220792e+003 1.353417e+003 1.877390e+003
         vertex 2.220792e+003 1.350803e+003 1.877090e+003
         vertex 2.220792e+003 1.350643e+003 1.876861e+003
      endloop
   endfacet
   facet normal 1.000000e+000 -7.285839e-017 2.012279e-016
      outer loop
         vertex 2.220792e+003 1.353417e+003 1.877390e+003
         vertex 2.220792e+003 1.350643e+003 1.876861e+003
         vertex 2.220792e+003 1.349417e+003 1.873390e+003
      endloop
   endfacet
   facet normal 1.000000e+000 -7.285839e-017 2.012279e-016
      outer loop
         vertex 2.220792e+003 1.335417e+003 1.876290e+003
         vertex 2.220792e+003 1.335140e+003 1.876314e+003
         vertex 2.220792e+003 1.331417e+003 1.873390e+003
      endloop
   endfacet
   facet normal 1.000000e+000 -7.285839e-017 2.012279e-016
      outer loop
         vertex 2.220792e+003 1.331417e+003 1.873390e+003
         vertex 2.220792e+003 1.335140e+003 1.876314e+003
         vertex 2.220792e+003 1.334870e+003 1.876386e+003
      endloop
   endfacet
   facet normal 1.000000e+000 -7.285839e-017 2.012279e-016
      outer loop
         vertex 2.220792e+003 1.331417e+003 1.873390e+003
         vertex 2.220792e+003 1.334870e+003 1.876386e+003
         vertex 2.220792e+003 1.334617e+003 1.876504e+003
      endloop
   endfacet
   facet normal 1.000000e+000 -7.285839e-017 2.012279e-016
      outer loop
         vertex 2.220792e+003 1.349695e+003 1.879466e+003
         vertex 2.220792e+003 1.349965e+003 1.879393e+003
         vertex 2.220792e+003 1.353417e+003 1.880890e+003
      endloop
   endfacet
   facet normal 1.000000e+000 -7.285839e-017 2.012279e-016
      outer loop
         vertex 2.220792e+003 1.353417e+003 1.880890e+003
         vertex 2.220792e+003 1.349965e+003 1.879393e+003
         vertex 2.220792e+003 1.350217e+003 1.879276e+003
      endloop
   endfacet
   facet normal 1.000000e+000 -7.285839e-017 2.012279e-016
      outer loop
         vertex 2.220792e+003 1.353417e+003 1.880890e+003
         vertex 2.220792e+003 1.350217e+003 1.879276e+003
         vertex 2.220792e+003 1.350446e+003 1.879116e+003
      endloop
   endfacet
   facet normal 1.000000e+000 -7.285839e-017 2.012279e-016
      outer loop
         vertex 2.220792e+003 1.350643e+003 1.876861e+003
         vertex 2.220792e+003 1.350446e+003 1.876664e+003
         vertex 2.220792e+003 1.349417e+003 1.873390e+003
      endloop
   endfacet
   facet normal 1.000000e+000 -7.285839e-017 2.012279e-016
      outer loop
         vertex 2.220792e+003 1.349417e+003 1.873390e+003
         vertex 2.220792e+003 1.350446e+003 1.876664e+003
         vertex 2.220792e+003 1.350217e+003 1.876504e+003
      endloop
   endfacet
   facet normal 1.000000e+000 -7.285839e-017 2.012279e-016
      outer loop
         vertex 2.220792e+003 1.349417e+003 1.873390e+003
         vertex 2.220792e+003 1.350217e+003 1.876504e+003
         vertex 2.220792e+003 1.349965e+003 1.876386e+003
      endloop
   endfacet
   facet normal 1.000000e+000 -7.285839e-017 2.012279e-016
      outer loop
         vertex 2.220792e+003 1.334617e+003 1.876504e+003
         vertex 2.220792e+003 1.334389e+003 1.876664e+003
         vertex 2.220792e+003 1.331417e+003 1.873390e+003
      endloop
   endfacet
   facet normal 1.000000e+000 -7.285839e-017 2.012279e-016
      outer loop
         vertex 2.220792e+003 1.331417e+003 1.873390e+003
         vertex 2.220792e+003 1.334389e+003 1.876664e+003
         vertex 2.220792e+003 1.334192e+003 1.876861e+003
      endloop
   endfacet
   facet normal 1.000000e+000 -7.285839e-017 2.012279e-016
      outer loop
         vertex 2.220792e+003 1.331417e+003 1.873390e+003
         vertex 2.220792e+003 1.334192e+003 1.876861e+003
         vertex 2.220792e+003 1.334032e+003 1.877090e+003
      endloop
   endfacet
   facet normal 1.000000e+000 -7.285839e-017 2.012279e-016
      outer loop
         vertex 2.220792e+003 1.334870e+003 1.879393e+003
         vertex 2.220792e+003 1.335140e+003 1.879466e+003
         vertex 2.220792e+003 1.331417e+003 1.880890e+003
      endloop
   endfacet
   facet normal 1.000000e+000 -7.285839e-017 2.012279e-016
      outer loop
         vertex 2.220792e+003 1.331417e+003 1.880890e+003
         vertex 2.220792e+003 1.335140e+003 1.879466e+003
         vertex 2.220792e+003 1.335417e+003 1.879490e+003
      endloop
   endfacet
   facet normal 1.000000e+000 -7.285839e-017 2.012279e-016
      outer loop
         vertex 2.220792e+003 1.331417e+003 1.880890e+003
         vertex 2.220792e+003 1.335417e+003 1.879490e+003
         vertex 2.220792e+003 1.335695e+003 1.879466e+003
      endloop
   endfacet
   facet normal 1.000000e+000 -7.285839e-017 2.012279e-016
      outer loop
         vertex 2.220792e+003 1.348032e+003 1.878690e+003
         vertex 2.220792e+003 1.348192e+003 1.878918e+003
         vertex 2.220792e+003 1.331417e+003 1.880890e+003
      endloop
   endfacet
   facet normal 1.000000e+000 -7.285839e-017 2.012279e-016
      outer loop
         vertex 2.220792e+003 1.331417e+003 1.880890e+003
         vertex 2.220792e+003 1.348192e+003 1.878918e+003
         vertex 2.220792e+003 1.348389e+003 1.879116e+003
      endloop
   endfacet
   facet normal 1.000000e+000 -7.285839e-017 2.012279e-016
      outer loop
         vertex 2.220792e+003 1.331417e+003 1.880890e+003
         vertex 2.220792e+003 1.348389e+003 1.879116e+003
         vertex 2.220792e+003 1.348617e+003 1.879276e+003
      endloop
   endfacet
   facet normal 1.000000e+000 -7.285839e-017 2.012279e-016
      outer loop
         vertex 2.220792e+003 1.349965e+003 1.876386e+003
         vertex 2.220792e+003 1.349695e+003 1.876314e+003
         vertex 2.220792e+003 1.349417e+003 1.873390e+003
      endloop
   endfacet
   facet normal 1.000000e+000 -7.285839e-017 2.012279e-016
      outer loop
         vertex 2.220792e+003 1.349417e+003 1.873390e+003
         vertex 2.220792e+003 1.349695e+003 1.876314e+003
         vertex 2.220792e+003 1.349417e+003 1.876290e+003
      endloop
   endfacet
   facet normal 1.000000e+000 -7.285839e-017 2.012279e-016
      outer loop
         vertex 2.220792e+003 1.349417e+003 1.873390e+003
         vertex 2.220792e+003 1.349417e+003 1.876290e+003
         vertex 2.220792e+003 1.349139e+003 1.876314e+003
      endloop
   endfacet
   facet normal 1.000000e+000 -7.285839e-017 2.012279e-016
      outer loop
         vertex 2.220792e+003 1.347842e+003 1.877612e+003
         vertex 2.220792e+003 1.347817e+003 1.877890e+003
         vertex 2.220792e+003 1.335695e+003 1.879466e+003
      endloop
   endfacet
   facet normal 1.000000e+000 -7.285839e-017 2.012279e-016
      outer loop
         vertex 2.220792e+003 1.335695e+003 1.879466e+003
         vertex 2.220792e+003 1.347817e+003 1.877890e+003
         vertex 2.220792e+003 1.347842e+003 1.878168e+003
      endloop
   endfacet
   facet normal 1.000000e+000 -7.285839e-017 2.012279e-016
      outer loop
         vertex 2.220792e+003 1.335695e+003 1.879466e+003
         vertex 2.220792e+003 1.347842e+003 1.878168e+003
         vertex 2.220792e+003 1.331417e+003 1.880890e+003
      endloop
   endfacet
   facet normal 1.000000e+000 -7.285839e-017 2.012279e-016
      outer loop
         vertex 2.220792e+003 1.331417e+003 1.880890e+003
         vertex 2.220792e+003 1.347842e+003 1.878168e+003
         vertex 2.220792e+003 1.347914e+003 1.878437e+003
      endloop
   endfacet
   facet normal 1.000000e+000 -7.285839e-017 2.012279e-016
      outer loop
         vertex 2.220792e+003 1.331417e+003 1.880890e+003
         vertex 2.220792e+003 1.347914e+003 1.878437e+003
         vertex 2.220792e+003 1.348032e+003 1.878690e+003
      endloop
   endfacet
   facet normal 1.000000e+000 -7.285839e-017 2.012279e-016
      outer loop
         vertex 2.220792e+003 1.348617e+003 1.879276e+003
         vertex 2.220792e+003 1.348870e+003 1.879393e+003
         vertex 2.220792e+003 1.331417e+003 1.880890e+003
      endloop
   endfacet
   facet normal 1.000000e+000 -7.285839e-017 2.012279e-016
      outer loop
         vertex 2.220792e+003 1.331417e+003 1.880890e+003
         vertex 2.220792e+003 1.348870e+003 1.879393e+003
         vertex 2.220792e+003 1.349139e+003 1.879466e+003
      endloop
   endfacet
   facet normal 1.000000e+000 -7.285839e-017 2.012279e-016
      outer loop
         vertex 2.220792e+003 1.331417e+003 1.880890e+003
         vertex 2.220792e+003 1.349139e+003 1.879466e+003
         vertex 2.220792e+003 1.353417e+003 1.880890e+003
      endloop
   endfacet
   facet normal 1.000000e+000 -7.285839e-017 2.012279e-016
      outer loop
         vertex 2.220792e+003 1.353417e+003 1.880890e+003
         vertex 2.220792e+003 1.349139e+003 1.879466e+003
         vertex 2.220792e+003 1.349417e+003 1.879490e+003
      endloop
   endfacet
   facet normal 1.000000e+000 -7.285839e-017 2.012279e-016
      outer loop
         vertex 2.220792e+003 1.353417e+003 1.880890e+003
         vertex 2.220792e+003 1.349417e+003 1.879490e+003
         vertex 2.220792e+003 1.349695e+003 1.879466e+003
      endloop
   endfacet
   facet normal 1.000000e+000 -7.285839e-017 2.012279e-016
      outer loop
         vertex 2.220792e+003 1.336643e+003 1.878918e+003
         vertex 2.220792e+003 1.336803e+003 1.878690e+003
         vertex 2.220792e+003 1.349139e+003 1.876314e+003
      endloop
   endfacet
   facet normal 1.000000e+000 -7.285839e-017 2.012279e-016
      outer loop
         vertex 2.220792e+003 1.349139e+003 1.876314e+003
         vertex 2.220792e+003 1.336803e+003 1.878690e+003
         vertex 2.220792e+003 1.336921e+003 1.878437e+003
      endloop
   endfacet
   facet normal 1.000000e+000 -7.285839e-017 2.012279e-016
      outer loop
         vertex 2.220792e+003 1.349139e+003 1.876314e+003
         vertex 2.220792e+003 1.336921e+003 1.878437e+003
         vertex 2.220792e+003 1.349417e+003 1.873390e+003
      endloop
   endfacet
   facet normal 1.000000e+000 -7.285839e-017 2.012279e-016
      outer loop
         vertex 2.220792e+003 1.349417e+003 1.873390e+003
         vertex 2.220792e+003 1.336921e+003 1.878437e+003
         vertex 2.220792e+003 1.336993e+003 1.878168e+003
      endloop
   endfacet
   facet normal 1.000000e+000 -7.285839e-017 2.012279e-016
      outer loop
         vertex 2.220792e+003 1.349417e+003 1.873390e+003
         vertex 2.220792e+003 1.336993e+003 1.878168e+003
         vertex 2.220792e+003 1.337017e+003 1.877890e+003
      endloop
   endfacet
   facet normal -1.000000e+000 7.285839e-017 -2.012279e-016
      outer loop
         vertex 2.217792e+003 1.353417e+003 1.880890e+003
         vertex 2.217792e+003 1.336921e+003 1.878437e+003
         vertex 2.217792e+003 1.336803e+003 1.878690e+003
      endloop
   endfacet
   facet normal -1.000000e+000 7.285839e-017 -2.012279e-016
      outer loop
         vertex 2.217792e+003 1.353417e+003 1.877390e+003
         vertex 2.217792e+003 1.351017e+003 1.877890e+003
         vertex 2.217792e+003 1.350993e+003 1.878168e+003
      endloop
   endfacet
   facet normal -1.000000e+000 7.285839e-017 -2.012279e-016
      outer loop
         vertex 2.217792e+003 1.335140e+003 1.879466e+003
         vertex 2.217792e+003 1.334870e+003 1.879393e+003
         vertex 2.217792e+003 1.331417e+003 1.880890e+003
      endloop
   endfacet
   facet normal -1.000000e+000 7.285839e-017 -2.012279e-016
      outer loop
         vertex 2.217792e+003 1.333914e+003 1.878437e+003
         vertex 2.217792e+003 1.331417e+003 1.880890e+003
         vertex 2.217792e+003 1.334032e+003 1.878690e+003
      endloop
   endfacet
   facet normal -1.000000e+000 7.285839e-017 -2.012279e-016
      outer loop
         vertex 2.217792e+003 1.334032e+003 1.878690e+003
         vertex 2.217792e+003 1.331417e+003 1.880890e+003
         vertex 2.217792e+003 1.334192e+003 1.878918e+003
      endloop
   endfacet
   facet normal -1.000000e+000 7.285839e-017 -2.012279e-016
      outer loop
         vertex 2.217792e+003 1.333842e+003 1.877612e+003
         vertex 2.217792e+003 1.331417e+003 1.873390e+003
         vertex 2.217792e+003 1.333817e+003 1.877890e+003
      endloop
   endfacet
   facet normal -1.000000e+000 7.285839e-017 -2.012279e-016
      outer loop
         vertex 2.217792e+003 1.333817e+003 1.877890e+003
         vertex 2.217792e+003 1.331417e+003 1.873390e+003
         vertex 2.217792e+003 1.331417e+003 1.880890e+003
      endloop
   endfacet
   facet normal -1.000000e+000 7.285839e-017 -2.012279e-016
      outer loop
         vertex 2.217792e+003 1.333817e+003 1.877890e+003
         vertex 2.217792e+003 1.331417e+003 1.880890e+003
         vertex 2.217792e+003 1.333842e+003 1.878168e+003
      endloop
   endfacet
   facet normal -1.000000e+000 7.285839e-017 -2.012279e-016
      outer loop
         vertex 2.217792e+003 1.333842e+003 1.878168e+003
         vertex 2.217792e+003 1.331417e+003 1.880890e+003
         vertex 2.217792e+003 1.333914e+003 1.878437e+003
      endloop
   endfacet
   facet normal -1.000000e+000 7.285839e-017 -2.012279e-016
      outer loop
         vertex 2.217792e+003 1.333842e+003 1.877612e+003
         vertex 2.217792e+003 1.333914e+003 1.877343e+003
         vertex 2.217792e+003 1.331417e+003 1.873390e+003
      endloop
   endfacet
   facet normal -1.000000e+000 7.285839e-017 -2.012279e-016
      outer loop
         vertex 2.217792e+003 1.331417e+003 1.873390e+003
         vertex 2.217792e+003 1.333914e+003 1.877343e+003
         vertex 2.217792e+003 1.334032e+003 1.877090e+003
      endloop
   endfacet
   facet normal -1.000000e+000 7.285839e-017 -2.012279e-016
      outer loop
         vertex 2.217792e+003 1.331417e+003 1.873390e+003
         vertex 2.217792e+003 1.334032e+003 1.877090e+003
         vertex 2.217792e+003 1.334192e+003 1.876861e+003
      endloop
   endfacet
   facet normal -1.000000e+000 7.285839e-017 -2.012279e-016
      outer loop
         vertex 2.217792e+003 1.353417e+003 1.880890e+003
         vertex 2.217792e+003 1.350803e+003 1.878690e+003
         vertex 2.217792e+003 1.350643e+003 1.878918e+003
      endloop
   endfacet
   facet normal -1.000000e+000 7.285839e-017 -2.012279e-016
      outer loop
         vertex 2.217792e+003 1.350643e+003 1.878918e+003
         vertex 2.217792e+003 1.350446e+003 1.879116e+003
         vertex 2.217792e+003 1.353417e+003 1.880890e+003
      endloop
   endfacet
   facet normal -1.000000e+000 7.285839e-017 -2.012279e-016
      outer loop
         vertex 2.217792e+003 1.353417e+003 1.880890e+003
         vertex 2.217792e+003 1.350446e+003 1.879116e+003
         vertex 2.217792e+003 1.350217e+003 1.879276e+003
      endloop
   endfacet
   facet normal -1.000000e+000 7.285839e-017 -2.012279e-016
      outer loop
         vertex 2.217792e+003 1.353417e+003 1.880890e+003
         vertex 2.217792e+003 1.350217e+003 1.879276e+003
         vertex 2.217792e+003 1.349965e+003 1.879393e+003
      endloop
   endfacet
   facet normal -1.000000e+000 7.285839e-017 -2.012279e-016
      outer loop
         vertex 2.217792e+003 1.349965e+003 1.879393e+003
         vertex 2.217792e+003 1.349695e+003 1.879466e+003
         vertex 2.217792e+003 1.353417e+003 1.880890e+003
      endloop
   endfacet
   facet normal -1.000000e+000 7.285839e-017 -2.012279e-016
      outer loop
         vertex 2.217792e+003 1.353417e+003 1.880890e+003
         vertex 2.217792e+003 1.349695e+003 1.879466e+003
         vertex 2.217792e+003 1.349417e+003 1.879490e+003
      endloop
   endfacet
   facet normal -1.000000e+000 7.285839e-017 -2.012279e-016
      outer loop
         vertex 2.217792e+003 1.353417e+003 1.880890e+003
         vertex 2.217792e+003 1.349417e+003 1.879490e+003
         vertex 2.217792e+003 1.349139e+003 1.879466e+003
      endloop
   endfacet
   facet normal -1.000000e+000 7.285839e-017 -2.012279e-016
      outer loop
         vertex 2.217792e+003 1.334870e+003 1.879393e+003
         vertex 2.217792e+003 1.334617e+003 1.879276e+003
         vertex 2.217792e+003 1.331417e+003 1.880890e+003
      endloop
   endfacet
   facet normal -1.000000e+000 7.285839e-017 -2.012279e-016
      outer loop
         vertex 2.217792e+003 1.331417e+003 1.880890e+003
         vertex 2.217792e+003 1.334617e+003 1.879276e+003
         vertex 2.217792e+003 1.334389e+003 1.879116e+003
      endloop
   endfacet
   facet normal -1.000000e+000 7.285839e-017 -2.012279e-016
      outer loop
         vertex 2.217792e+003 1.331417e+003 1.880890e+003
         vertex 2.217792e+003 1.334389e+003 1.879116e+003
         vertex 2.217792e+003 1.334192e+003 1.878918e+003
      endloop
   endfacet
   facet normal -1.000000e+000 7.285839e-017 -2.012279e-016
      outer loop
         vertex 2.217792e+003 1.334870e+003 1.876386e+003
         vertex 2.217792e+003 1.335140e+003 1.876314e+003
         vertex 2.217792e+003 1.331417e+003 1.873390e+003
      endloop
   endfacet
   facet normal -1.000000e+000 7.285839e-017 -2.012279e-016
      outer loop
         vertex 2.217792e+003 1.336643e+003 1.876861e+003
         vertex 2.217792e+003 1.349417e+003 1.873390e+003
         vertex 2.217792e+003 1.336446e+003 1.876664e+003
      endloop
   endfacet
   facet normal -1.000000e+000 7.285839e-017 -2.012279e-016
      outer loop
         vertex 2.217792e+003 1.336446e+003 1.876664e+003
         vertex 2.217792e+003 1.349417e+003 1.873390e+003
         vertex 2.217792e+003 1.336217e+003 1.876504e+003
      endloop
   endfacet
   facet normal -1.000000e+000 7.285839e-017 -2.012279e-016
      outer loop
         vertex 2.217792e+003 1.348617e+003 1.879276e+003
         vertex 2.217792e+003 1.348389e+003 1.879116e+003
         vertex 2.217792e+003 1.337017e+003 1.877890e+003
      endloop
   endfacet
   facet normal -1.000000e+000 7.285839e-017 -2.012279e-016
      outer loop
         vertex 2.217792e+003 1.353417e+003 1.877390e+003
         vertex 2.217792e+003 1.350993e+003 1.878168e+003
         vertex 2.217792e+003 1.353417e+003 1.880890e+003
      endloop
   endfacet
   facet normal -1.000000e+000 7.285839e-017 -2.012279e-016
      outer loop
         vertex 2.217792e+003 1.353417e+003 1.880890e+003
         vertex 2.217792e+003 1.350993e+003 1.878168e+003
         vertex 2.217792e+003 1.350921e+003 1.878437e+003
      endloop
   endfacet
   facet normal -1.000000e+000 7.285839e-017 -2.012279e-016
      outer loop
         vertex 2.217792e+003 1.353417e+003 1.880890e+003
         vertex 2.217792e+003 1.350921e+003 1.878437e+003
         vertex 2.217792e+003 1.350803e+003 1.878690e+003
      endloop
   endfacet
   facet normal -1.000000e+000 7.285839e-017 -2.012279e-016
      outer loop
         vertex 2.217792e+003 1.348617e+003 1.876504e+003
         vertex 2.217792e+003 1.336993e+003 1.877612e+003
         vertex 2.217792e+003 1.348389e+003 1.876664e+003
      endloop
   endfacet
   facet normal -1.000000e+000 7.285839e-017 -2.012279e-016
      outer loop
         vertex 2.217792e+003 1.348389e+003 1.876664e+003
         vertex 2.217792e+003 1.336993e+003 1.877612e+003
         vertex 2.217792e+003 1.348192e+003 1.876861e+003
      endloop
   endfacet
   facet normal -1.000000e+000 7.285839e-017 -2.012279e-016
      outer loop
         vertex 2.217792e+003 1.336803e+003 1.878690e+003
         vertex 2.217792e+003 1.336643e+003 1.878918e+003
         vertex 2.217792e+003 1.353417e+003 1.880890e+003
      endloop
   endfacet
   facet normal -1.000000e+000 7.285839e-017 -2.012279e-016
      outer loop
         vertex 2.217792e+003 1.353417e+003 1.880890e+003
         vertex 2.217792e+003 1.336643e+003 1.878918e+003
         vertex 2.217792e+003 1.336446e+003 1.879116e+003
      endloop
   endfacet
   facet normal -1.000000e+000 7.285839e-017 -2.012279e-016
      outer loop
         vertex 2.217792e+003 1.353417e+003 1.880890e+003
         vertex 2.217792e+003 1.336446e+003 1.879116e+003
         vertex 2.217792e+003 1.336217e+003 1.879276e+003
      endloop
   endfacet
   facet normal -1.000000e+000 7.285839e-017 -2.012279e-016
      outer loop
         vertex 2.217792e+003 1.336217e+003 1.879276e+003
         vertex 2.217792e+003 1.335965e+003 1.879393e+003
         vertex 2.217792e+003 1.353417e+003 1.880890e+003
      endloop
   endfacet
   facet normal -1.000000e+000 7.285839e-017 -2.012279e-016
      outer loop
         vertex 2.217792e+003 1.353417e+003 1.880890e+003
         vertex 2.217792e+003 1.335965e+003 1.879393e+003
         vertex 2.217792e+003 1.335695e+003 1.879466e+003
      endloop
   endfacet
   facet normal -1.000000e+000 7.285839e-017 -2.012279e-016
      outer loop
         vertex 2.217792e+003 1.353417e+003 1.880890e+003
         vertex 2.217792e+003 1.335695e+003 1.879466e+003
         vertex 2.217792e+003 1.331417e+003 1.880890e+003
      endloop
   endfacet
   facet normal -1.000000e+000 7.285839e-017 -2.012279e-016
      outer loop
         vertex 2.217792e+003 1.331417e+003 1.880890e+003
         vertex 2.217792e+003 1.335695e+003 1.879466e+003
         vertex 2.217792e+003 1.335417e+003 1.879490e+003
      endloop
   endfacet
   facet normal -1.000000e+000 7.285839e-017 -2.012279e-016
      outer loop
         vertex 2.217792e+003 1.331417e+003 1.880890e+003
         vertex 2.217792e+003 1.335417e+003 1.879490e+003
         vertex 2.217792e+003 1.335140e+003 1.879466e+003
      endloop
   endfacet
   facet normal -1.000000e+000 7.285839e-017 -2.012279e-016
      outer loop
         vertex 2.217792e+003 1.350803e+003 1.877090e+003
         vertex 2.217792e+003 1.350921e+003 1.877343e+003
         vertex 2.217792e+003 1.353417e+003 1.877390e+003
      endloop
   endfacet
   facet normal -1.000000e+000 7.285839e-017 -2.012279e-016
      outer loop
         vertex 2.217792e+003 1.353417e+003 1.877390e+003
         vertex 2.217792e+003 1.350921e+003 1.877343e+003
         vertex 2.217792e+003 1.350993e+003 1.877612e+003
      endloop
   endfacet
   facet normal -1.000000e+000 7.285839e-017 -2.012279e-016
      outer loop
         vertex 2.217792e+003 1.353417e+003 1.877390e+003
         vertex 2.217792e+003 1.350993e+003 1.877612e+003
         vertex 2.217792e+003 1.351017e+003 1.877890e+003
      endloop
   endfacet
   facet normal -1.000000e+000 7.285839e-017 -2.012279e-016
      outer loop
         vertex 2.217792e+003 1.336921e+003 1.878437e+003
         vertex 2.217792e+003 1.353417e+003 1.880890e+003
         vertex 2.217792e+003 1.336993e+003 1.878168e+003
      endloop
   endfacet
   facet normal -1.000000e+000 7.285839e-017 -2.012279e-016
      outer loop
         vertex 2.217792e+003 1.336993e+003 1.878168e+003
         vertex 2.217792e+003 1.353417e+003 1.880890e+003
         vertex 2.217792e+003 1.349139e+003 1.879466e+003
      endloop
   endfacet
   facet normal -1.000000e+000 7.285839e-017 -2.012279e-016
      outer loop
         vertex 2.217792e+003 1.336993e+003 1.878168e+003
         vertex 2.217792e+003 1.349139e+003 1.879466e+003
         vertex 2.217792e+003 1.337017e+003 1.877890e+003
      endloop
   endfacet
   facet normal -1.000000e+000 7.285839e-017 -2.012279e-016
      outer loop
         vertex 2.217792e+003 1.337017e+003 1.877890e+003
         vertex 2.217792e+003 1.349139e+003 1.879466e+003
         vertex 2.217792e+003 1.348870e+003 1.879393e+003
      endloop
   endfacet
   facet normal -1.000000e+000 7.285839e-017 -2.012279e-016
      outer loop
         vertex 2.217792e+003 1.337017e+003 1.877890e+003
         vertex 2.217792e+003 1.348870e+003 1.879393e+003
         vertex 2.217792e+003 1.348617e+003 1.879276e+003
      endloop
   endfacet
   facet normal -1.000000e+000 7.285839e-017 -2.012279e-016
      outer loop
         vertex 2.217792e+003 1.348389e+003 1.879116e+003
         vertex 2.217792e+003 1.348192e+003 1.878918e+003
         vertex 2.217792e+003 1.337017e+003 1.877890e+003
      endloop
   endfacet
   facet normal -1.000000e+000 7.285839e-017 -2.012279e-016
      outer loop
         vertex 2.217792e+003 1.337017e+003 1.877890e+003
         vertex 2.217792e+003 1.348192e+003 1.878918e+003
         vertex 2.217792e+003 1.348032e+003 1.878690e+003
      endloop
   endfacet
   facet normal -1.000000e+000 7.285839e-017 -2.012279e-016
      outer loop
         vertex 2.217792e+003 1.337017e+003 1.877890e+003
         vertex 2.217792e+003 1.348032e+003 1.878690e+003
         vertex 2.217792e+003 1.347914e+003 1.878437e+003
      endloop
   endfacet
   facet normal -1.000000e+000 7.285839e-017 -2.012279e-016
      outer loop
         vertex 2.217792e+003 1.347842e+003 1.877612e+003
         vertex 2.217792e+003 1.336993e+003 1.877612e+003
         vertex 2.217792e+003 1.347817e+003 1.877890e+003
      endloop
   endfacet
   facet normal -1.000000e+000 7.285839e-017 -2.012279e-016
      outer loop
         vertex 2.217792e+003 1.347817e+003 1.877890e+003
         vertex 2.217792e+003 1.336993e+003 1.877612e+003
         vertex 2.217792e+003 1.337017e+003 1.877890e+003
      endloop
   endfacet
   facet normal -1.000000e+000 7.285839e-017 -2.012279e-016
      outer loop
         vertex 2.217792e+003 1.347817e+003 1.877890e+003
         vertex 2.217792e+003 1.337017e+003 1.877890e+003
         vertex 2.217792e+003 1.347842e+003 1.878168e+003
      endloop
   endfacet
   facet normal -1.000000e+000 7.285839e-017 -2.012279e-016
      outer loop
         vertex 2.217792e+003 1.347842e+003 1.878168e+003
         vertex 2.217792e+003 1.337017e+003 1.877890e+003
         vertex 2.217792e+003 1.347914e+003 1.878437e+003
      endloop
   endfacet
   facet normal -1.000000e+000 7.285839e-017 -2.012279e-016
      outer loop
         vertex 2.217792e+003 1.347842e+003 1.877612e+003
         vertex 2.217792e+003 1.347914e+003 1.877343e+003
         vertex 2.217792e+003 1.336993e+003 1.877612e+003
      endloop
   endfacet
   facet normal -1.000000e+000 7.285839e-017 -2.012279e-016
      outer loop
         vertex 2.217792e+003 1.336993e+003 1.877612e+003
         vertex 2.217792e+003 1.347914e+003 1.877343e+003
         vertex 2.217792e+003 1.348032e+003 1.877090e+003
      endloop
   endfacet
   facet normal -1.000000e+000 7.285839e-017 -2.012279e-016
      outer loop
         vertex 2.217792e+003 1.336993e+003 1.877612e+003
         vertex 2.217792e+003 1.348032e+003 1.877090e+003
         vertex 2.217792e+003 1.348192e+003 1.876861e+003
      endloop
   endfacet
   facet normal -1.000000e+000 7.285839e-017 -2.012279e-016
      outer loop
         vertex 2.217792e+003 1.334192e+003 1.876861e+003
         vertex 2.217792e+003 1.334389e+003 1.876664e+003
         vertex 2.217792e+003 1.331417e+003 1.873390e+003
      endloop
   endfacet
   facet normal -1.000000e+000 7.285839e-017 -2.012279e-016
      outer loop
         vertex 2.217792e+003 1.331417e+003 1.873390e+003
         vertex 2.217792e+003 1.334389e+003 1.876664e+003
         vertex 2.217792e+003 1.334617e+003 1.876504e+003
      endloop
   endfacet
   facet normal -1.000000e+000 7.285839e-017 -2.012279e-016
      outer loop
         vertex 2.217792e+003 1.331417e+003 1.873390e+003
         vertex 2.217792e+003 1.334617e+003 1.876504e+003
         vertex 2.217792e+003 1.334870e+003 1.876386e+003
      endloop
   endfacet
   facet normal -1.000000e+000 7.285839e-017 -2.012279e-016
      outer loop
         vertex 2.217792e+003 1.335140e+003 1.876314e+003
         vertex 2.217792e+003 1.335417e+003 1.876290e+003
         vertex 2.217792e+003 1.331417e+003 1.873390e+003
      endloop
   endfacet
   facet normal -1.000000e+000 7.285839e-017 -2.012279e-016
      outer loop
         vertex 2.217792e+003 1.331417e+003 1.873390e+003
         vertex 2.217792e+003 1.335417e+003 1.876290e+003
         vertex 2.217792e+003 1.335695e+003 1.876314e+003
      endloop
   endfacet
   facet normal -1.000000e+000 7.285839e-017 -2.012279e-016
      outer loop
         vertex 2.217792e+003 1.331417e+003 1.873390e+003
         vertex 2.217792e+003 1.335695e+003 1.876314e+003
         vertex 2.217792e+003 1.349417e+003 1.873390e+003
      endloop
   endfacet
   facet normal -1.000000e+000 7.285839e-017 -2.012279e-016
      outer loop
         vertex 2.217792e+003 1.349417e+003 1.873390e+003
         vertex 2.217792e+003 1.335695e+003 1.876314e+003
         vertex 2.217792e+003 1.335965e+003 1.876386e+003
      endloop
   endfacet
   facet normal -1.000000e+000 7.285839e-017 -2.012279e-016
      outer loop
         vertex 2.217792e+003 1.349417e+003 1.873390e+003
         vertex 2.217792e+003 1.335965e+003 1.876386e+003
         vertex 2.217792e+003 1.336217e+003 1.876504e+003
      endloop
   endfacet
   facet normal -1.000000e+000 7.285839e-017 -2.012279e-016
      outer loop
         vertex 2.217792e+003 1.336643e+003 1.876861e+003
         vertex 2.217792e+003 1.336803e+003 1.877090e+003
         vertex 2.217792e+003 1.349417e+003 1.873390e+003
      endloop
   endfacet
   facet normal -1.000000e+000 7.285839e-017 -2.012279e-016
      outer loop
         vertex 2.217792e+003 1.349417e+003 1.873390e+003
         vertex 2.217792e+003 1.336803e+003 1.877090e+003
         vertex 2.217792e+003 1.336921e+003 1.877343e+003
      endloop
   endfacet
   facet normal -1.000000e+000 7.285839e-017 -2.012279e-016
      outer loop
         vertex 2.217792e+003 1.349417e+003 1.873390e+003
         vertex 2.217792e+003 1.336921e+003 1.877343e+003
         vertex 2.217792e+003 1.336993e+003 1.877612e+003
      endloop
   endfacet
   facet normal -1.000000e+000 7.285839e-017 -2.012279e-016
      outer loop
         vertex 2.217792e+003 1.349417e+003 1.873390e+003
         vertex 2.217792e+003 1.349695e+003 1.876314e+003
         vertex 2.217792e+003 1.349965e+003 1.876386e+003
      endloop
   endfacet
   facet normal -1.000000e+000 7.285839e-017 -2.012279e-016
      outer loop
         vertex 2.217792e+003 1.348617e+003 1.876504e+003
         vertex 2.217792e+003 1.348870e+003 1.876386e+003
         vertex 2.217792e+003 1.336993e+003 1.877612e+003
      endloop
   endfacet
   facet normal -1.000000e+000 7.285839e-017 -2.012279e-016
      outer loop
         vertex 2.217792e+003 1.336993e+003 1.877612e+003
         vertex 2.217792e+003 1.348870e+003 1.876386e+003
         vertex 2.217792e+003 1.349139e+003 1.876314e+003
      endloop
   endfacet
   facet normal -1.000000e+000 7.285839e-017 -2.012279e-016
      outer loop
         vertex 2.217792e+003 1.336993e+003 1.877612e+003
         vertex 2.217792e+003 1.349139e+003 1.876314e+003
         vertex 2.217792e+003 1.349417e+003 1.873390e+003
      endloop
   endfacet
   facet normal -1.000000e+000 7.285839e-017 -2.012279e-016
      outer loop
         vertex 2.217792e+003 1.349417e+003 1.873390e+003
         vertex 2.217792e+003 1.349139e+003 1.876314e+003
         vertex 2.217792e+003 1.349417e+003 1.876290e+003
      endloop
   endfacet
   facet normal -1.000000e+000 7.285839e-017 -2.012279e-016
      outer loop
         vertex 2.217792e+003 1.349417e+003 1.873390e+003
         vertex 2.217792e+003 1.349417e+003 1.876290e+003
         vertex 2.217792e+003 1.349695e+003 1.876314e+003
      endloop
   endfacet
   facet normal -1.000000e+000 7.285839e-017 -2.012279e-016
      outer loop
         vertex 2.217792e+003 1.349965e+003 1.876386e+003
         vertex 2.217792e+003 1.350217e+003 1.876504e+003
         vertex 2.217792e+003 1.349417e+003 1.873390e+003
      endloop
   endfacet
   facet normal -1.000000e+000 7.285839e-017 -2.012279e-016
      outer loop
         vertex 2.217792e+003 1.349417e+003 1.873390e+003
         vertex 2.217792e+003 1.350217e+003 1.876504e+003
         vertex 2.217792e+003 1.350446e+003 1.876664e+003
      endloop
   endfacet
   facet normal -1.000000e+000 7.285839e-017 -2.012279e-016
      outer loop
         vertex 2.217792e+003 1.349417e+003 1.873390e+003
         vertex 2.217792e+003 1.350446e+003 1.876664e+003
         vertex 2.217792e+003 1.353417e+003 1.877390e+003
      endloop
   endfacet
   facet normal -1.000000e+000 7.285839e-017 -2.012279e-016
      outer loop
         vertex 2.217792e+003 1.353417e+003 1.877390e+003
         vertex 2.217792e+003 1.350446e+003 1.876664e+003
         vertex 2.217792e+003 1.350643e+003 1.876861e+003
      endloop
   endfacet
   facet normal -1.000000e+000 7.285839e-017 -2.012279e-016
      outer loop
         vertex 2.217792e+003 1.353417e+003 1.877390e+003
         vertex 2.217792e+003 1.350643e+003 1.876861e+003
         vertex 2.217792e+003 1.350803e+003 1.877090e+003
      endloop
   endfacet
   facet normal 2.053046e-016 7.071068e-001 -7.071068e-001
      outer loop
         vertex 2.217792e+003 1.349417e+003 1.873390e+003
         vertex 2.217792e+003 1.353417e+003 1.877390e+003
         vertex 2.220792e+003 1.349417e+003 1.873390e+003
      endloop
   endfacet
   facet normal 2.053046e-016 7.071068e-001 -7.071068e-001
      outer loop
         vertex 2.220792e+003 1.349417e+003 1.873390e+003
         vertex 2.217792e+003 1.353417e+003 1.877390e+003
         vertex 2.220792e+003 1.353417e+003 1.877390e+003
      endloop
   endfacet
   facet normal -4.910871e-017 -9.983120e-001 -5.807914e-002
      outer loop
         vertex 2.220792e+003 1.336993e+003 1.878168e+003
         vertex 2.217792e+003 1.337017e+003 1.877890e+003
         vertex 2.220792e+003 1.337017e+003 1.877890e+003
      endloop
   endfacet
   facet normal -7.558054e-017 -9.983120e-001 5.807914e-002
      outer loop
         vertex 2.220792e+003 1.337017e+003 1.877890e+003
         vertex 2.217792e+003 1.337017e+003 1.877890e+003
         vertex 2.217792e+003 1.336993e+003 1.877612e+003
      endloop
   endfacet
   facet normal -8.849913e-017 -9.932307e-001 1.161583e-001
      outer loop
         vertex 2.220792e+003 1.337017e+003 1.877890e+003
         vertex 2.217792e+003 1.336993e+003 1.877612e+003
         vertex 2.220792e+003 1.336993e+003 1.877612e+003
      endloop
   endfacet
   facet normal -1.133091e-016 -9.730601e-001 2.305518e-001
      outer loop
         vertex 2.220792e+003 1.336993e+003 1.877612e+003
         vertex 2.217792e+003 1.336993e+003 1.877612e+003
         vertex 2.217792e+003 1.336921e+003 1.877343e+003
      endloop
   endfacet
   facet normal -1.252005e-016 -9.579706e-001 2.868663e-001
      outer loop
         vertex 2.220792e+003 1.336993e+003 1.877612e+003
         vertex 2.217792e+003 1.336921e+003 1.877343e+003
         vertex 2.220792e+003 1.336921e+003 1.877343e+003
      endloop
   endfacet
   facet normal -1.475949e-016 -9.182422e-001 3.960194e-001
      outer loop
         vertex 2.220792e+003 1.336921e+003 1.877343e+003
         vertex 2.217792e+003 1.336921e+003 1.877343e+003
         vertex 2.217792e+003 1.336803e+003 1.877090e+003
      endloop
   endfacet
   facet normal -1.580978e-016 -8.936031e-001 4.488580e-001
      outer loop
         vertex 2.220792e+003 1.336921e+003 1.877343e+003
         vertex 2.217792e+003 1.336803e+003 1.877090e+003
         vertex 2.220792e+003 1.336803e+003 1.877090e+003
      endloop
   endfacet
   facet normal -1.773960e-016 -8.355240e-001 5.494540e-001
      outer loop
         vertex 2.220792e+003 1.336803e+003 1.877090e+003
         vertex 2.217792e+003 1.336803e+003 1.877090e+003
         vertex 2.217792e+003 1.336643e+003 1.876861e+003
      endloop
   endfacet
   facet normal -1.861914e-016 -8.020839e-001 5.972114e-001
      outer loop
         vertex 2.220792e+003 1.336803e+003 1.877090e+003
         vertex 2.217792e+003 1.336643e+003 1.876861e+003
         vertex 2.220792e+003 1.336643e+003 1.876861e+003
      endloop
   endfacet
   facet normal -2.018071e-016 -7.274188e-001 6.861938e-001
      outer loop
         vertex 2.220792e+003 1.336643e+003 1.876861e+003
         vertex 2.217792e+003 1.336643e+003 1.876861e+003
         vertex 2.217792e+003 1.336446e+003 1.876664e+003
      endloop
   endfacet
   facet normal -2.086276e-016 -6.861938e-001 7.274188e-001
      outer loop
         vertex 2.220792e+003 1.336643e+003 1.876861e+003
         vertex 2.217792e+003 1.336446e+003 1.876664e+003
         vertex 2.220792e+003 1.336446e+003 1.876664e+003
      endloop
   endfacet
   facet normal -2.200864e-016 -5.972114e-001 8.020839e-001
      outer loop
         vertex 2.220792e+003 1.336446e+003 1.876664e+003
         vertex 2.217792e+003 1.336446e+003 1.876664e+003
         vertex 2.217792e+003 1.336217e+003 1.876504e+003
      endloop
   endfacet
   facet normal -2.247247e-016 -5.494540e-001 8.355240e-001
      outer loop
         vertex 2.220792e+003 1.336446e+003 1.876664e+003
         vertex 2.217792e+003 1.336217e+003 1.876504e+003
         vertex 2.220792e+003 1.336217e+003 1.876504e+003
      endloop
   endfacet
   facet normal -2.316784e-016 -4.488580e-001 8.936031e-001
      outer loop
         vertex 2.220792e+003 1.336217e+003 1.876504e+003
         vertex 2.217792e+003 1.336217e+003 1.876504e+003
         vertex 2.217792e+003 1.335965e+003 1.876386e+003
      endloop
   endfacet
   facet normal -2.339938e-016 -3.960194e-001 9.182422e-001
      outer loop
         vertex 2.220792e+003 1.336217e+003 1.876504e+003
         vertex 2.217792e+003 1.335965e+003 1.876386e+003
         vertex 2.220792e+003 1.335965e+003 1.876386e+003
      endloop
   endfacet
   facet normal -2.362310e-016 -2.868663e-001 9.579706e-001
      outer loop
         vertex 2.220792e+003 1.335965e+003 1.876386e+003
         vertex 2.217792e+003 1.335965e+003 1.876386e+003
         vertex 2.217792e+003 1.335695e+003 1.876314e+003
      endloop
   endfacet
   facet normal -2.361530e-016 -2.305518e-001 9.730601e-001
      outer loop
         vertex 2.220792e+003 1.335965e+003 1.876386e+003
         vertex 2.217792e+003 1.335695e+003 1.876314e+003
         vertex 2.220792e+003 1.335695e+003 1.876314e+003
      endloop
   endfacet
   facet normal -2.336059e-016 -1.161583e-001 9.932307e-001
      outer loop
         vertex 2.220792e+003 1.335695e+003 1.876314e+003
         vertex 2.217792e+003 1.335695e+003 1.876314e+003
         vertex 2.217792e+003 1.335417e+003 1.876290e+003
      endloop
   endfacet
   facet normal -2.311368e-016 -5.807914e-002 9.983120e-001
      outer loop
         vertex 2.220792e+003 1.335695e+003 1.876314e+003
         vertex 2.217792e+003 1.335417e+003 1.876290e+003
         vertex 2.220792e+003 1.335417e+003 1.876290e+003
      endloop
   endfacet
   facet normal -2.238827e-016 5.807914e-002 9.983120e-001
      outer loop
         vertex 2.220792e+003 1.335417e+003 1.876290e+003
         vertex 2.217792e+003 1.335417e+003 1.876290e+003
         vertex 2.217792e+003 1.335140e+003 1.876314e+003
      endloop
   endfacet
   facet normal -2.190977e-016 1.161583e-001 9.932307e-001
      outer loop
         vertex 2.220792e+003 1.335417e+003 1.876290e+003
         vertex 2.217792e+003 1.335140e+003 1.876314e+003
         vertex 2.220792e+003 1.335140e+003 1.876314e+003
      endloop
   endfacet
   facet normal -2.073570e-016 2.305518e-001 9.730601e-001
      outer loop
         vertex 2.220792e+003 1.335140e+003 1.876314e+003
         vertex 2.217792e+003 1.335140e+003 1.876314e+003
         vertex 2.217792e+003 1.334870e+003 1.876386e+003
      endloop
   endfacet
   facet normal -2.004014e-016 2.868663e-001 9.579706e-001
      outer loop
         vertex 2.220792e+003 1.335140e+003 1.876314e+003
         vertex 2.217792e+003 1.334870e+003 1.876386e+003
         vertex 2.220792e+003 1.334870e+003 1.876386e+003
      endloop
   endfacet
   facet normal -1.845309e-016 3.960194e-001 9.182422e-001
      outer loop
         vertex 2.220792e+003 1.334870e+003 1.876386e+003
         vertex 2.217792e+003 1.334870e+003 1.876386e+003
         vertex 2.217792e+003 1.334617e+003 1.876504e+003
      endloop
   endfacet
   facet normal -1.756160e-016 4.488580e-001 8.936031e-001
      outer loop
         vertex 2.220792e+003 1.334870e+003 1.876386e+003
         vertex 2.217792e+003 1.334617e+003 1.876504e+003
         vertex 2.220792e+003 1.334617e+003 1.876504e+003
      endloop
   endfacet
   facet normal -1.560979e-016 5.494540e-001 8.355240e-001
      outer loop
         vertex 2.220792e+003 1.334617e+003 1.876504e+003
         vertex 2.217792e+003 1.334617e+003 1.876504e+003
         vertex 2.217792e+003 1.334389e+003 1.876664e+003
      endloop
   endfacet
   facet normal -1.454946e-016 5.972114e-001 8.020839e-001
      outer loop
         vertex 2.220792e+003 1.334617e+003 1.876504e+003
         vertex 2.217792e+003 1.334389e+003 1.876664e+003
         vertex 2.220792e+003 1.334389e+003 1.876664e+003
      endloop
   endfacet
   facet normal -1.229219e-016 6.861938e-001 7.274188e-001
      outer loop
         vertex 2.220792e+003 1.334389e+003 1.876664e+003
         vertex 2.217792e+003 1.334389e+003 1.876664e+003
         vertex 2.217792e+003 1.334192e+003 1.876861e+003
      endloop
   endfacet
   facet normal -1.109524e-016 7.274188e-001 6.861938e-001
      outer loop
         vertex 2.220792e+003 1.334389e+003 1.876664e+003
         vertex 2.217792e+003 1.334192e+003 1.876861e+003
         vertex 2.220792e+003 1.334192e+003 1.876861e+003
      endloop
   endfacet
   facet normal -8.601100e-017 8.020839e-001 5.972114e-001
      outer loop
         vertex 2.220792e+003 1.334192e+003 1.876861e+003
         vertex 2.217792e+003 1.334192e+003 1.876861e+003
         vertex 2.217792e+003 1.334032e+003 1.877090e+003
      endloop
   endfacet
   facet normal -7.303902e-017 8.355240e-001 5.494540e-001
      outer loop
         vertex 2.220792e+003 1.334192e+003 1.876861e+003
         vertex 2.217792e+003 1.334032e+003 1.877090e+003
         vertex 2.220792e+003 1.334032e+003 1.877090e+003
      endloop
   endfacet
   facet normal -4.648671e-017 8.936031e-001 4.488580e-001
      outer loop
         vertex 2.220792e+003 1.334032e+003 1.877090e+003
         vertex 2.217792e+003 1.334032e+003 1.877090e+003
         vertex 2.217792e+003 1.333914e+003 1.877343e+003
      endloop
   endfacet
   facet normal -3.290636e-017 9.182422e-001 3.960194e-001
      outer loop
         vertex 2.220792e+003 1.334032e+003 1.877090e+003
         vertex 2.217792e+003 1.333914e+003 1.877343e+003
         vertex 2.220792e+003 1.333914e+003 1.877343e+003
      endloop
   endfacet
   facet normal -5.549933e-018 9.579706e-001 2.868663e-001
      outer loop
         vertex 2.220792e+003 1.333914e+003 1.877343e+003
         vertex 2.217792e+003 1.333914e+003 1.877343e+003
         vertex 2.217792e+003 1.333842e+003 1.877612e+003
      endloop
   endfacet
   facet normal 8.226154e-018 9.730601e-001 2.305518e-001
      outer loop
         vertex 2.220792e+003 1.333914e+003 1.877343e+003
         vertex 2.217792e+003 1.333842e+003 1.877612e+003
         vertex 2.220792e+003 1.333842e+003 1.877612e+003
      endloop
   endfacet
   facet normal 3.555547e-017 9.932307e-001 1.161583e-001
      outer loop
         vertex 2.220792e+003 1.333842e+003 1.877612e+003
         vertex 2.217792e+003 1.333842e+003 1.877612e+003
         vertex 2.217792e+003 1.333817e+003 1.877890e+003
      endloop
   endfacet
   facet normal 4.910871e-017 9.983120e-001 5.807914e-002
      outer loop
         vertex 2.220792e+003 1.333842e+003 1.877612e+003
         vertex 2.217792e+003 1.333817e+003 1.877890e+003
         vertex 2.220792e+003 1.333817e+003 1.877890e+003
      endloop
   endfacet
   facet normal 7.558054e-017 9.983120e-001 -5.807914e-002
      outer loop
         vertex 2.220792e+003 1.333817e+003 1.877890e+003
         vertex 2.217792e+003 1.333817e+003 1.877890e+003
         vertex 2.217792e+003 1.333842e+003 1.878168e+003
      endloop
   endfacet
   facet normal 8.849913e-017 9.932307e-001 -1.161583e-001
      outer loop
         vertex 2.220792e+003 1.333817e+003 1.877890e+003
         vertex 2.217792e+003 1.333842e+003 1.878168e+003
         vertex 2.220792e+003 1.333842e+003 1.878168e+003
      endloop
   endfacet
   facet normal 1.133091e-016 9.730601e-001 -2.305518e-001
      outer loop
         vertex 2.220792e+003 1.333842e+003 1.878168e+003
         vertex 2.217792e+003 1.333842e+003 1.878168e+003
         vertex 2.217792e+003 1.333914e+003 1.878437e+003
      endloop
   endfacet
   facet normal 1.252005e-016 9.579706e-001 -2.868663e-001
      outer loop
         vertex 2.220792e+003 1.333842e+003 1.878168e+003
         vertex 2.217792e+003 1.333914e+003 1.878437e+003
         vertex 2.220792e+003 1.333914e+003 1.878437e+003
      endloop
   endfacet
   facet normal 1.475949e-016 9.182422e-001 -3.960194e-001
      outer loop
         vertex 2.220792e+003 1.333914e+003 1.878437e+003
         vertex 2.217792e+003 1.333914e+003 1.878437e+003
         vertex 2.217792e+003 1.334032e+003 1.878690e+003
      endloop
   endfacet
   facet normal 1.580978e-016 8.936031e-001 -4.488580e-001
      outer loop
         vertex 2.220792e+003 1.333914e+003 1.878437e+003
         vertex 2.217792e+003 1.334032e+003 1.878690e+003
         vertex 2.220792e+003 1.334032e+003 1.878690e+003
      endloop
   endfacet
   facet normal 1.773960e-016 8.355240e-001 -5.494540e-001
      outer loop
         vertex 2.220792e+003 1.334032e+003 1.878690e+003
         vertex 2.217792e+003 1.334032e+003 1.878690e+003
         vertex 2.217792e+003 1.334192e+003 1.878918e+003
      endloop
   endfacet
   facet normal 1.861914e-016 8.020839e-001 -5.972114e-001
      outer loop
         vertex 2.220792e+003 1.334032e+003 1.878690e+003
         vertex 2.217792e+003 1.334192e+003 1.878918e+003
         vertex 2.220792e+003 1.334192e+003 1.878918e+003
      endloop
   endfacet
   facet normal 2.018071e-016 7.274188e-001 -6.861938e-001
      outer loop
         vertex 2.220792e+003 1.334192e+003 1.878918e+003
         vertex 2.217792e+003 1.334192e+003 1.878918e+003
         vertex 2.217792e+003 1.334389e+003 1.879116e+003
      endloop
   endfacet
   facet normal 2.086276e-016 6.861938e-001 -7.274188e-001
      outer loop
         vertex 2.220792e+003 1.334192e+003 1.878918e+003
         vertex 2.217792e+003 1.334389e+003 1.879116e+003
         vertex 2.220792e+003 1.334389e+003 1.879116e+003
      endloop
   endfacet
   facet normal 2.200864e-016 5.972114e-001 -8.020839e-001
      outer loop
         vertex 2.220792e+003 1.334389e+003 1.879116e+003
         vertex 2.217792e+003 1.334389e+003 1.879116e+003
         vertex 2.217792e+003 1.334617e+003 1.879276e+003
      endloop
   endfacet
   facet normal 2.247247e-016 5.494540e-001 -8.355240e-001
      outer loop
         vertex 2.220792e+003 1.334389e+003 1.879116e+003
         vertex 2.217792e+003 1.334617e+003 1.879276e+003
         vertex 2.220792e+003 1.334617e+003 1.879276e+003
      endloop
   endfacet
   facet normal 2.316784e-016 4.488580e-001 -8.936031e-001
      outer loop
         vertex 2.220792e+003 1.334617e+003 1.879276e+003
         vertex 2.217792e+003 1.334617e+003 1.879276e+003
         vertex 2.217792e+003 1.334870e+003 1.879393e+003
      endloop
   endfacet
   facet normal 2.339938e-016 3.960194e-001 -9.182422e-001
      outer loop
         vertex 2.220792e+003 1.334617e+003 1.879276e+003
         vertex 2.217792e+003 1.334870e+003 1.879393e+003
         vertex 2.220792e+003 1.334870e+003 1.879393e+003
      endloop
   endfacet
   facet normal 2.362310e-016 2.868663e-001 -9.579706e-001
      outer loop
         vertex 2.220792e+003 1.334870e+003 1.879393e+003
         vertex 2.217792e+003 1.334870e+003 1.879393e+003
         vertex 2.217792e+003 1.335140e+003 1.879466e+003
      endloop
   endfacet
   facet normal 2.361530e-016 2.305518e-001 -9.730601e-001
      outer loop
         vertex 2.220792e+003 1.334870e+003 1.879393e+003
         vertex 2.217792e+003 1.335140e+003 1.879466e+003
         vertex 2.220792e+003 1.335140e+003 1.879466e+003
      endloop
   endfacet
   facet normal 2.336059e-016 1.161583e-001 -9.932307e-001
      outer loop
         vertex 2.220792e+003 1.335140e+003 1.879466e+003
         vertex 2.217792e+003 1.335140e+003 1.879466e+003
         vertex 2.217792e+003 1.335417e+003 1.879490e+003
      endloop
   endfacet
   facet normal 2.311368e-016 5.807914e-002 -9.983120e-001
      outer loop
         vertex 2.220792e+003 1.335140e+003 1.879466e+003
         vertex 2.217792e+003 1.335417e+003 1.879490e+003
         vertex 2.220792e+003 1.335417e+003 1.879490e+003
      endloop
   endfacet
   facet normal 2.238827e-016 -5.807914e-002 -9.983120e-001
      outer loop
         vertex 2.220792e+003 1.335417e+003 1.879490e+003
         vertex 2.217792e+003 1.335417e+003 1.879490e+003
         vertex 2.217792e+003 1.335695e+003 1.879466e+003
      endloop
   endfacet
   facet normal 2.190977e-016 -1.161583e-001 -9.932307e-001
      outer loop
         vertex 2.220792e+003 1.335417e+003 1.879490e+003
         vertex 2.217792e+003 1.335695e+003 1.879466e+003
         vertex 2.220792e+003 1.335695e+003 1.879466e+003
      endloop
   endfacet
   facet normal 2.073570e-016 -2.305518e-001 -9.730601e-001
      outer loop
         vertex 2.220792e+003 1.335695e+003 1.879466e+003
         vertex 2.217792e+003 1.335695e+003 1.879466e+003
         vertex 2.217792e+003 1.335965e+003 1.879393e+003
      endloop
   endfacet
   facet normal 2.004014e-016 -2.868663e-001 -9.579706e-001
      outer loop
         vertex 2.220792e+003 1.335695e+003 1.879466e+003
         vertex 2.217792e+003 1.335965e+003 1.879393e+003
         vertex 2.220792e+003 1.335965e+003 1.879393e+003
      endloop
   endfacet
   facet normal 1.845309e-016 -3.960194e-001 -9.182422e-001
      outer loop
         vertex 2.220792e+003 1.335965e+003 1.879393e+003
         vertex 2.217792e+003 1.335965e+003 1.879393e+003
         vertex 2.217792e+003 1.336217e+003 1.879276e+003
      endloop
   endfacet
   facet normal 1.756160e-016 -4.488580e-001 -8.936031e-001
      outer loop
         vertex 2.220792e+003 1.335965e+003 1.879393e+003
         vertex 2.217792e+003 1.336217e+003 1.879276e+003
         vertex 2.220792e+003 1.336217e+003 1.879276e+003
      endloop
   endfacet
   facet normal 1.560979e-016 -5.494540e-001 -8.355240e-001
      outer loop
         vertex 2.220792e+003 1.336217e+003 1.879276e+003
         vertex 2.217792e+003 1.336217e+003 1.879276e+003
         vertex 2.217792e+003 1.336446e+003 1.879116e+003
      endloop
   endfacet
   facet normal 1.454946e-016 -5.972114e-001 -8.020839e-001
      outer loop
         vertex 2.220792e+003 1.336217e+003 1.879276e+003
         vertex 2.217792e+003 1.336446e+003 1.879116e+003
         vertex 2.220792e+003 1.336446e+003 1.879116e+003
      endloop
   endfacet
   facet normal 1.229219e-016 -6.861938e-001 -7.274188e-001
      outer loop
         vertex 2.220792e+003 1.336446e+003 1.879116e+003
         vertex 2.217792e+003 1.336446e+003 1.879116e+003
         vertex 2.217792e+003 1.336643e+003 1.878918e+003
      endloop
   endfacet
   facet normal 1.109524e-016 -7.274188e-001 -6.861938e-001
      outer loop
         vertex 2.220792e+003 1.336446e+003 1.879116e+003
         vertex 2.217792e+003 1.336643e+003 1.878918e+003
         vertex 2.220792e+003 1.336643e+003 1.878918e+003
      endloop
   endfacet
   facet normal 8.601100e-017 -8.020839e-001 -5.972114e-001
      outer loop
         vertex 2.220792e+003 1.336643e+003 1.878918e+003
         vertex 2.217792e+003 1.336643e+003 1.878918e+003
         vertex 2.217792e+003 1.336803e+003 1.878690e+003
      endloop
   endfacet
   facet normal 7.303902e-017 -8.355240e-001 -5.494540e-001
      outer loop
         vertex 2.220792e+003 1.336643e+003 1.878918e+003
         vertex 2.217792e+003 1.336803e+003 1.878690e+003
         vertex 2.220792e+003 1.336803e+003 1.878690e+003
      endloop
   endfacet
   facet normal 4.648671e-017 -8.936031e-001 -4.488580e-001
      outer loop
         vertex 2.220792e+003 1.336803e+003 1.878690e+003
         vertex 2.217792e+003 1.336803e+003 1.878690e+003
         vertex 2.217792e+003 1.336921e+003 1.878437e+003
      endloop
   endfacet
   facet normal 3.290636e-017 -9.182422e-001 -3.960194e-001
      outer loop
         vertex 2.220792e+003 1.336803e+003 1.878690e+003
         vertex 2.217792e+003 1.336921e+003 1.878437e+003
         vertex 2.220792e+003 1.336921e+003 1.878437e+003
      endloop
   endfacet
   facet normal 5.549933e-018 -9.579706e-001 -2.868663e-001
      outer loop
         vertex 2.220792e+003 1.336921e+003 1.878437e+003
         vertex 2.217792e+003 1.336921e+003 1.878437e+003
         vertex 2.217792e+003 1.336993e+003 1.878168e+003
      endloop
   endfacet
   facet normal -8.226154e-018 -9.730601e-001 -2.305518e-001
      outer loop
         vertex 2.220792e+003 1.336921e+003 1.878437e+003
         vertex 2.217792e+003 1.336993e+003 1.878168e+003
         vertex 2.220792e+003 1.336993e+003 1.878168e+003
      endloop
   endfacet
   facet normal -3.555547e-017 -9.932307e-001 -1.161583e-001
      outer loop
         vertex 2.220792e+003 1.336993e+003 1.878168e+003
         vertex 2.217792e+003 1.336993e+003 1.878168e+003
         vertex 2.217792e+003 1.337017e+003 1.877890e+003
      endloop
   endfacet
   facet normal -4.910871e-017 -9.983120e-001 -5.807914e-002
      outer loop
         vertex 2.220792e+003 1.350993e+003 1.878168e+003
         vertex 2.217792e+003 1.351017e+003 1.877890e+003
         vertex 2.220792e+003 1.351017e+003 1.877890e+003
      endloop
   endfacet
   facet normal -7.558054e-017 -9.983120e-001 5.807914e-002
      outer loop
         vertex 2.220792e+003 1.351017e+003 1.877890e+003
         vertex 2.217792e+003 1.351017e+003 1.877890e+003
         vertex 2.217792e+003 1.350993e+003 1.877612e+003
      endloop
   endfacet
   facet normal -8.849913e-017 -9.932307e-001 1.161583e-001
      outer loop
         vertex 2.220792e+003 1.351017e+003 1.877890e+003
         vertex 2.217792e+003 1.350993e+003 1.877612e+003
         vertex 2.220792e+003 1.350993e+003 1.877612e+003
      endloop
   endfacet
   facet normal -1.133091e-016 -9.730601e-001 2.305518e-001
      outer loop
         vertex 2.220792e+003 1.350993e+003 1.877612e+003
         vertex 2.217792e+003 1.350993e+003 1.877612e+003
         vertex 2.217792e+003 1.350921e+003 1.877343e+003
      endloop
   endfacet
   facet normal -1.252005e-016 -9.579706e-001 2.868663e-001
      outer loop
         vertex 2.220792e+003 1.350993e+003 1.877612e+003
         vertex 2.217792e+003 1.350921e+003 1.877343e+003
         vertex 2.220792e+003 1.350921e+003 1.877343e+003
      endloop
   endfacet
   facet normal -1.475949e-016 -9.182422e-001 3.960194e-001
      outer loop
         vertex 2.220792e+003 1.350921e+003 1.877343e+003
         vertex 2.217792e+003 1.350921e+003 1.877343e+003
         vertex 2.217792e+003 1.350803e+003 1.877090e+003
      endloop
   endfacet
   facet normal -1.580978e-016 -8.936031e-001 4.488580e-001
      outer loop
         vertex 2.220792e+003 1.350921e+003 1.877343e+003
         vertex 2.217792e+003 1.350803e+003 1.877090e+003
         vertex 2.220792e+003 1.350803e+003 1.877090e+003
      endloop
   endfacet
   facet normal -1.773960e-016 -8.355240e-001 5.494540e-001
      outer loop
         vertex 2.220792e+003 1.350803e+003 1.877090e+003
         vertex 2.217792e+003 1.350803e+003 1.877090e+003
         vertex 2.217792e+003 1.350643e+003 1.876861e+003
      endloop
   endfacet
   facet normal -1.861914e-016 -8.020839e-001 5.972114e-001
      outer loop
         vertex 2.220792e+003 1.350803e+003 1.877090e+003
         vertex 2.217792e+003 1.350643e+003 1.876861e+003
         vertex 2.220792e+003 1.350643e+003 1.876861e+003
      endloop
   endfacet
   facet normal -2.018071e-016 -7.274188e-001 6.861938e-001
      outer loop
         vertex 2.220792e+003 1.350643e+003 1.876861e+003
         vertex 2.217792e+003 1.350643e+003 1.876861e+003
         vertex 2.217792e+003 1.350446e+003 1.876664e+003
      endloop
   endfacet
   facet normal -2.086276e-016 -6.861938e-001 7.274188e-001
      outer loop
         vertex 2.220792e+003 1.350643e+003 1.876861e+003
         vertex 2.217792e+003 1.350446e+003 1.876664e+003
         vertex 2.220792e+003 1.350446e+003 1.876664e+003
      endloop
   endfacet
   facet normal -2.200864e-016 -5.972114e-001 8.020839e-001
      outer loop
         vertex 2.220792e+003 1.350446e+003 1.876664e+003
         vertex 2.217792e+003 1.350446e+003 1.876664e+003
         vertex 2.217792e+003 1.350217e+003 1.876504e+003
      endloop
   endfacet
   facet normal -2.247247e-016 -5.494540e-001 8.355240e-001
      outer loop
         vertex 2.220792e+003 1.350446e+003 1.876664e+003
         vertex 2.217792e+003 1.350217e+003 1.876504e+003
         vertex 2.220792e+003 1.350217e+003 1.876504e+003
      endloop
   endfacet
   facet normal -2.316784e-016 -4.488580e-001 8.936031e-001
      outer loop
         vertex 2.220792e+003 1.350217e+003 1.876504e+003
         vertex 2.217792e+003 1.350217e+003 1.876504e+003
         vertex 2.217792e+003 1.349965e+003 1.876386e+003
      endloop
   endfacet
   facet normal -2.339938e-016 -3.960194e-001 9.182422e-001
      outer loop
         vertex 2.220792e+003 1.350217e+003 1.876504e+003
         vertex 2.217792e+003 1.349965e+003 1.876386e+003
         vertex 2.220792e+003 1.349965e+003 1.876386e+003
      endloop
   endfacet
   facet normal -2.362310e-016 -2.868663e-001 9.579706e-001
      outer loop
         vertex 2.220792e+003 1.349965e+003 1.876386e+003
         vertex 2.217792e+003 1.349965e+003 1.876386e+003
         vertex 2.217792e+003 1.349695e+003 1.876314e+003
      endloop
   endfacet
   facet normal -2.361530e-016 -2.305518e-001 9.730601e-001
      outer loop
         vertex 2.220792e+003 1.349965e+003 1.876386e+003
         vertex 2.217792e+003 1.349695e+003 1.876314e+003
         vertex 2.220792e+003 1.349695e+003 1.876314e+003
      endloop
   endfacet
   facet normal -2.336059e-016 -1.161583e-001 9.932307e-001
      outer loop
         vertex 2.220792e+003 1.349695e+003 1.876314e+003
         vertex 2.217792e+003 1.349695e+003 1.876314e+003
         vertex 2.217792e+003 1.349417e+003 1.876290e+003
      endloop
   endfacet
   facet normal -2.311368e-016 -5.807914e-002 9.983120e-001
      outer loop
         vertex 2.220792e+003 1.349695e+003 1.876314e+003
         vertex 2.217792e+003 1.349417e+003 1.876290e+003
         vertex 2.220792e+003 1.349417e+003 1.876290e+003
      endloop
   endfacet
   facet normal -2.238827e-016 5.807914e-002 9.983120e-001
      outer loop
         vertex 2.220792e+003 1.349417e+003 1.876290e+003
         vertex 2.217792e+003 1.349417e+003 1.876290e+003
         vertex 2.217792e+003 1.349139e+003 1.876314e+003
      endloop
   endfacet
   facet normal -2.190977e-016 1.161583e-001 9.932307e-001
      outer loop
         vertex 2.220792e+003 1.349417e+003 1.876290e+003
         vertex 2.217792e+003 1.349139e+003 1.876314e+003
         vertex 2.220792e+003 1.349139e+003 1.876314e+003
      endloop
   endfacet
   facet normal -2.073570e-016 2.305518e-001 9.730601e-001
      outer loop
         vertex 2.220792e+003 1.349139e+003 1.876314e+003
         vertex 2.217792e+003 1.349139e+003 1.876314e+003
         vertex 2.217792e+003 1.348870e+003 1.876386e+003
      endloop
   endfacet
   facet normal -2.004014e-016 2.868663e-001 9.579706e-001
      outer loop
         vertex 2.220792e+003 1.349139e+003 1.876314e+003
         vertex 2.217792e+003 1.348870e+003 1.876386e+003
         vertex 2.220792e+003 1.348870e+003 1.876386e+003
      endloop
   endfacet
   facet normal -1.845309e-016 3.960194e-001 9.182422e-001
      outer loop
         vertex 2.220792e+003 1.348870e+003 1.876386e+003
         vertex 2.217792e+003 1.348870e+003 1.876386e+003
         vertex 2.217792e+003 1.348617e+003 1.876504e+003
      endloop
   endfacet
   facet normal -1.756160e-016 4.488580e-001 8.936031e-001
      outer loop
         vertex 2.220792e+003 1.348870e+003 1.876386e+003
         vertex 2.217792e+003 1.348617e+003 1.876504e+003
         vertex 2.220792e+003 1.348617e+003 1.876504e+003
      endloop
   endfacet
   facet normal -1.560979e-016 5.494540e-001 8.355240e-001
      outer loop
         vertex 2.220792e+003 1.348617e+003 1.876504e+003
         vertex 2.217792e+003 1.348617e+003 1.876504e+003
         vertex 2.217792e+003 1.348389e+003 1.876664e+003
      endloop
   endfacet
   facet normal -1.454946e-016 5.972114e-001 8.020839e-001
      outer loop
         vertex 2.220792e+003 1.348617e+003 1.876504e+003
         vertex 2.217792e+003 1.348389e+003 1.876664e+003
         vertex 2.220792e+003 1.348389e+003 1.876664e+003
      endloop
   endfacet
   facet normal -1.229219e-016 6.861938e-001 7.274188e-001
      outer loop
         vertex 2.220792e+003 1.348389e+003 1.876664e+003
         vertex 2.217792e+003 1.348389e+003 1.876664e+003
         vertex 2.217792e+003 1.348192e+003 1.876861e+003
      endloop
   endfacet
   facet normal -1.109524e-016 7.274188e-001 6.861938e-001
      outer loop
         vertex 2.220792e+003 1.348389e+003 1.876664e+003
         vertex 2.217792e+003 1.348192e+003 1.876861e+003
         vertex 2.220792e+003 1.348192e+003 1.876861e+003
      endloop
   endfacet
   facet normal -8.601100e-017 8.020839e-001 5.972114e-001
      outer loop
         vertex 2.220792e+003 1.348192e+003 1.876861e+003
         vertex 2.217792e+003 1.348192e+003 1.876861e+003
         vertex 2.217792e+003 1.348032e+003 1.877090e+003
      endloop
   endfacet
   facet normal -7.303902e-017 8.355240e-001 5.494540e-001
      outer loop
         vertex 2.220792e+003 1.348192e+003 1.876861e+003
         vertex 2.217792e+003 1.348032e+003 1.877090e+003
         vertex 2.220792e+003 1.348032e+003 1.877090e+003
      endloop
   endfacet
   facet normal -4.648671e-017 8.936031e-001 4.488580e-001
      outer loop
         vertex 2.220792e+003 1.348032e+003 1.877090e+003
         vertex 2.217792e+003 1.348032e+003 1.877090e+003
         vertex 2.217792e+003 1.347914e+003 1.877343e+003
      endloop
   endfacet
   facet normal -3.290636e-017 9.182422e-001 3.960194e-001
      outer loop
         vertex 2.220792e+003 1.348032e+003 1.877090e+003
         vertex 2.217792e+003 1.347914e+003 1.877343e+003
         vertex 2.220792e+003 1.347914e+003 1.877343e+003
      endloop
   endfacet
   facet normal -5.549933e-018 9.579706e-001 2.868663e-001
      outer loop
         vertex 2.220792e+003 1.347914e+003 1.877343e+003
         vertex 2.217792e+003 1.347914e+003 1.877343e+003
         vertex 2.217792e+003 1.347842e+003 1.877612e+003
      endloop
   endfacet
   facet normal 8.226154e-018 9.730601e-001 2.305518e-001
      outer loop
         vertex 2.220792e+003 1.347914e+003 1.877343e+003
         vertex 2.217792e+003 1.347842e+003 1.877612e+003
         vertex 2.220792e+003 1.347842e+003 1.877612e+003
      endloop
   endfacet
   facet normal 3.555547e-017 9.932307e-001 1.161583e-001
      outer loop
         vertex 2.220792e+003 1.347842e+003 1.877612e+003
         vertex 2.217792e+003 1.347842e+003 1.877612e+003
         vertex 2.217792e+003 1.347817e+003 1.877890e+003
      endloop
   endfacet
   facet normal 4.910871e-017 9.983120e-001 5.807914e-002
      outer loop
         vertex 2.220792e+003 1.347842e+003 1.877612e+003
         vertex 2.217792e+003 1.347817e+003 1.877890e+003
         vertex 2.220792e+003 1.347817e+003 1.877890e+003
      endloop
   endfacet
   facet normal 7.558054e-017 9.983120e-001 -5.807914e-002
      outer loop
         vertex 2.220792e+003 1.347817e+003 1.877890e+003
         vertex 2.217792e+003 1.347817e+003 1.877890e+003
         vertex 2.217792e+003 1.347842e+003 1.878168e+003
      endloop
   endfacet
   facet normal 8.849913e-017 9.932307e-001 -1.161583e-001
      outer loop
         vertex 2.220792e+003 1.347817e+003 1.877890e+003
         vertex 2.217792e+003 1.347842e+003 1.878168e+003
         vertex 2.220792e+003 1.347842e+003 1.878168e+003
      endloop
   endfacet
   facet normal 1.133091e-016 9.730601e-001 -2.305518e-001
      outer loop
         vertex 2.220792e+003 1.347842e+003 1.878168e+003
         vertex 2.217792e+003 1.347842e+003 1.878168e+003
         vertex 2.217792e+003 1.347914e+003 1.878437e+003
      endloop
   endfacet
   facet normal 1.252005e-016 9.579706e-001 -2.868663e-001
      outer loop
         vertex 2.220792e+003 1.347842e+003 1.878168e+003
         vertex 2.217792e+003 1.347914e+003 1.878437e+003
         vertex 2.220792e+003 1.347914e+003 1.878437e+003
      endloop
   endfacet
   facet normal 1.475949e-016 9.182422e-001 -3.960194e-001
      outer loop
         vertex 2.220792e+003 1.347914e+003 1.878437e+003
         vertex 2.217792e+003 1.347914e+003 1.878437e+003
         vertex 2.217792e+003 1.348032e+003 1.878690e+003
      endloop
   endfacet
   facet normal 1.580978e-016 8.936031e-001 -4.488580e-001
      outer loop
         vertex 2.220792e+003 1.347914e+003 1.878437e+003
         vertex 2.217792e+003 1.348032e+003 1.878690e+003
         vertex 2.220792e+003 1.348032e+003 1.878690e+003
      endloop
   endfacet
   facet normal 1.773960e-016 8.355240e-001 -5.494540e-001
      outer loop
         vertex 2.220792e+003 1.348032e+003 1.878690e+003
         vertex 2.217792e+003 1.348032e+003 1.878690e+003
         vertex 2.217792e+003 1.348192e+003 1.878918e+003
      endloop
   endfacet
   facet normal 1.861914e-016 8.020839e-001 -5.972114e-001
      outer loop
         vertex 2.220792e+003 1.348032e+003 1.878690e+003
         vertex 2.217792e+003 1.348192e+003 1.878918e+003
         vertex 2.220792e+003 1.348192e+003 1.878918e+003
      endloop
   endfacet
   facet normal 2.018071e-016 7.274188e-001 -6.861938e-001
      outer loop
         vertex 2.220792e+003 1.348192e+003 1.878918e+003
         vertex 2.217792e+003 1.348192e+003 1.878918e+003
         vertex 2.217792e+003 1.348389e+003 1.879116e+003
      endloop
   endfacet
   facet normal 2.086276e-016 6.861938e-001 -7.274188e-001
      outer loop
         vertex 2.220792e+003 1.348192e+003 1.878918e+003
         vertex 2.217792e+003 1.348389e+003 1.879116e+003
         vertex 2.220792e+003 1.348389e+003 1.879116e+003
      endloop
   endfacet
   facet normal 2.200864e-016 5.972114e-001 -8.020839e-001
      outer loop
         vertex 2.220792e+003 1.348389e+003 1.879116e+003
         vertex 2.217792e+003 1.348389e+003 1.879116e+003
         vertex 2.217792e+003 1.348617e+003 1.879276e+003
      endloop
   endfacet
   facet normal 2.247247e-016 5.494540e-001 -8.355240e-001
      outer loop
         vertex 2.220792e+003 1.348389e+003 1.879116e+003
         vertex 2.217792e+003 1.348617e+003 1.879276e+003
         vertex 2.220792e+003 1.348617e+003 1.879276e+003
      endloop
   endfacet
   facet normal 2.316784e-016 4.488580e-001 -8.936031e-001
      outer loop
         vertex 2.220792e+003 1.348617e+003 1.879276e+003
         vertex 2.217792e+003 1.348617e+003 1.879276e+003
         vertex 2.217792e+003 1.348870e+003 1.879393e+003
      endloop
   endfacet
   facet normal 2.339938e-016 3.960194e-001 -9.182422e-001
      outer loop
         vertex 2.220792e+003 1.348617e+003 1.879276e+003
         vertex 2.217792e+003 1.348870e+003 1.879393e+003
         vertex 2.220792e+003 1.348870e+003 1.879393e+003
      endloop
   endfacet
   facet normal 2.362310e-016 2.868663e-001 -9.579706e-001
      outer loop
         vertex 2.220792e+003 1.348870e+003 1.879393e+003
         vertex 2.217792e+003 1.348870e+003 1.879393e+003
         vertex 2.217792e+003 1.349139e+003 1.879466e+003
      endloop
   endfacet
   facet normal 2.361530e-016 2.305518e-001 -9.730601e-001
      outer loop
         vertex 2.220792e+003 1.348870e+003 1.879393e+003
         vertex 2.217792e+003 1.349139e+003 1.879466e+003
         vertex 2.220792e+003 1.349139e+003 1.879466e+003
      endloop
   endfacet
   facet normal 2.336059e-016 1.161583e-001 -9.932307e-001
      outer loop
         vertex 2.220792e+003 1.349139e+003 1.879466e+003
         vertex 2.217792e+003 1.349139e+003 1.879466e+003
         vertex 2.217792e+003 1.349417e+003 1.879490e+003
      endloop
   endfacet
   facet normal 2.311368e-016 5.807914e-002 -9.983120e-001
      outer loop
         vertex 2.220792e+003 1.349139e+003 1.879466e+003
         vertex 2.217792e+003 1.349417e+003 1.879490e+003
         vertex 2.220792e+003 1.349417e+003 1.879490e+003
      endloop
   endfacet
   facet normal 2.238827e-016 -5.807914e-002 -9.983120e-001
      outer loop
         vertex 2.220792e+003 1.349417e+003 1.879490e+003
         vertex 2.217792e+003 1.349417e+003 1.879490e+003
         vertex 2.217792e+003 1.349695e+003 1.879466e+003
      endloop
   endfacet
   facet normal 2.190977e-016 -1.161583e-001 -9.932307e-001
      outer loop
         vertex 2.220792e+003 1.349417e+003 1.879490e+003
         vertex 2.217792e+003 1.349695e+003 1.879466e+003
         vertex 2.220792e+003 1.349695e+003 1.879466e+003
      endloop
   endfacet
   facet normal 2.073570e-016 -2.305518e-001 -9.730601e-001
      outer loop
         vertex 2.220792e+003 1.349695e+003 1.879466e+003
         vertex 2.217792e+003 1.349695e+003 1.879466e+003
         vertex 2.217792e+003 1.349965e+003 1.879393e+003
      endloop
   endfacet
   facet normal 2.004014e-016 -2.868663e-001 -9.579706e-001
      outer loop
         vertex 2.220792e+003 1.349695e+003 1.879466e+003
         vertex 2.217792e+003 1.349965e+003 1.879393e+003
         vertex 2.220792e+003 1.349965e+003 1.879393e+003
      endloop
   endfacet
   facet normal 1.845309e-016 -3.960194e-001 -9.182422e-001
      outer loop
         vertex 2.220792e+003 1.349965e+003 1.879393e+003
         vertex 2.217792e+003 1.349965e+003 1.879393e+003
         vertex 2.217792e+003 1.350217e+003 1.879276e+003
      endloop
   endfacet
   facet normal 1.756160e-016 -4.488580e-001 -8.936031e-001
      outer loop
         vertex 2.220792e+003 1.349965e+003 1.879393e+003
         vertex 2.217792e+003 1.350217e+003 1.879276e+003
         vertex 2.220792e+003 1.350217e+003 1.879276e+003
      endloop
   endfacet
   facet normal 1.560979e-016 -5.494540e-001 -8.355240e-001
      outer loop
         vertex 2.220792e+003 1.350217e+003 1.879276e+003
         vertex 2.217792e+003 1.350217e+003 1.879276e+003
         vertex 2.217792e+003 1.350446e+003 1.879116e+003
      endloop
   endfacet
   facet normal 1.454946e-016 -5.972114e-001 -8.020839e-001
      outer loop
         vertex 2.220792e+003 1.350217e+003 1.879276e+003
         vertex 2.217792e+003 1.350446e+003 1.879116e+003
         vertex 2.220792e+003 1.350446e+003 1.879116e+003
      endloop
   endfacet
   facet normal 1.229219e-016 -6.861938e-001 -7.274188e-001
      outer loop
         vertex 2.220792e+003 1.350446e+003 1.879116e+003
         vertex 2.217792e+003 1.350446e+003 1.879116e+003
         vertex 2.217792e+003 1.350643e+003 1.878918e+003
      endloop
   endfacet
   facet normal 1.109524e-016 -7.274188e-001 -6.861938e-001
      outer loop
         vertex 2.220792e+003 1.350446e+003 1.879116e+003
         vertex 2.217792e+003 1.350643e+003 1.878918e+003
         vertex 2.220792e+003 1.350643e+003 1.878918e+003
      endloop
   endfacet
   facet normal 8.601100e-017 -8.020839e-001 -5.972114e-001
      outer loop
         vertex 2.220792e+003 1.350643e+003 1.878918e+003
         vertex 2.217792e+003 1.350643e+003 1.878918e+003
         vertex 2.217792e+003 1.350803e+003 1.878690e+003
      endloop
   endfacet
   facet normal 7.303902e-017 -8.355240e-001 -5.494540e-001
      outer loop
         vertex 2.220792e+003 1.350643e+003 1.878918e+003
         vertex 2.217792e+003 1.350803e+003 1.878690e+003
         vertex 2.220792e+003 1.350803e+003 1.878690e+003
      endloop
   endfacet
   facet normal 4.648671e-017 -8.936031e-001 -4.488580e-001
      outer loop
         vertex 2.220792e+003 1.350803e+003 1.878690e+003
         vertex 2.217792e+003 1.350803e+003 1.878690e+003
         vertex 2.217792e+003 1.350921e+003 1.878437e+003
      endloop
   endfacet
   facet normal 3.290636e-017 -9.182422e-001 -3.960194e-001
      outer loop
         vertex 2.220792e+003 1.350803e+003 1.878690e+003
         vertex 2.217792e+003 1.350921e+003 1.878437e+003
         vertex 2.220792e+003 1.350921e+003 1.878437e+003
      endloop
   endfacet
   facet normal 5.549933e-018 -9.579706e-001 -2.868663e-001
      outer loop
         vertex 2.220792e+003 1.350921e+003 1.878437e+003
         vertex 2.217792e+003 1.350921e+003 1.878437e+003
         vertex 2.217792e+003 1.350993e+003 1.878168e+003
      endloop
   endfacet
   facet normal -8.226154e-018 -9.730601e-001 -2.305518e-001
      outer loop
         vertex 2.220792e+003 1.350921e+003 1.878437e+003
         vertex 2.217792e+003 1.350993e+003 1.878168e+003
         vertex 2.220792e+003 1.350993e+003 1.878168e+003
      endloop
   endfacet
   facet normal -3.555547e-017 -9.932307e-001 -1.161583e-001
      outer loop
         vertex 2.220792e+003 1.350993e+003 1.878168e+003
         vertex 2.217792e+003 1.350993e+003 1.878168e+003
         vertex 2.217792e+003 1.351017e+003 1.877890e+003
      endloop
   endfacet
endsolid