solid 09.025.00.00.000 - 09.025.00.08.000-2 09.025.00.08.020-3
   facet normal 1.040834e-016 -1.000000e+000 1.036497e-015
      outer loop
         vertex 2.220792e+003 5.334174e+002 1.877390e+003
         vertex 2.220792e+003 5.334174e+002 1.880890e+003
         vertex 2.217792e+003 5.334174e+002 1.877390e+003
      endloop
   endfacet
   facet normal 1.040834e-016 -1.000000e+000 1.036497e-015
      outer loop
         vertex 2.217792e+003 5.334174e+002 1.877390e+003
         vertex 2.220792e+003 5.334174e+002 1.880890e+003
         vertex 2.217792e+003 5.334174e+002 1.880890e+003
      endloop
   endfacet
   facet normal 8.709009e-017 1.017045e-015 1.000000e+000
      outer loop
         vertex 2.217792e+003 5.554174e+002 1.880890e+003
         vertex 2.217792e+003 5.334174e+002 1.880890e+003
         vertex 2.220792e+003 5.554174e+002 1.880890e+003
      endloop
   endfacet
   facet normal 8.709009e-017 1.017045e-015 1.000000e+000
      outer loop
         vertex 2.220792e+003 5.554174e+002 1.880890e+003
         vertex 2.217792e+003 5.334174e+002 1.880890e+003
         vertex 2.220792e+003 5.334174e+002 1.880890e+003
      endloop
   endfacet
   facet normal -1.040834e-016 1.000000e+000 -1.036497e-015
      outer loop
         vertex 2.217792e+003 5.554174e+002 1.873390e+003
         vertex 2.217792e+003 5.554174e+002 1.880890e+003
         vertex 2.220792e+003 5.554174e+002 1.873390e+003
      endloop
   endfacet
   facet normal -1.040834e-016 1.000000e+000 -1.036497e-015
      outer loop
         vertex 2.220792e+003 5.554174e+002 1.873390e+003
         vertex 2.217792e+003 5.554174e+002 1.880890e+003
         vertex 2.220792e+003 5.554174e+002 1.880890e+003
      endloop
   endfacet
   facet normal -8.709009e-017 -1.017045e-015 -1.000000e+000
      outer loop
         vertex 2.217792e+003 5.374174e+002 1.873390e+003
         vertex 2.217792e+003 5.554174e+002 1.873390e+003
         vertex 2.220792e+003 5.374174e+002 1.873390e+003
      endloop
   endfacet
   facet normal -8.709009e-017 -1.017045e-015 -1.000000e+000
      outer loop
         vertex 2.220792e+003 5.374174e+002 1.873390e+003
         vertex 2.217792e+003 5.554174e+002 1.873390e+003
         vertex 2.220792e+003 5.554174e+002 1.873390e+003
      endloop
   endfacet
   facet normal -1.000000e+000 -9.367507e-017 1.137566e-016
      outer loop
         vertex 2.217792e+003 5.382173e+002 1.876504e+003
         vertex 2.217792e+003 5.501917e+002 1.878918e+003
         vertex 2.217792e+003 5.379646e+002 1.876386e+003
      endloop
   endfacet
   facet normal -1.000000e+000 -9.367507e-017 1.137566e-016
      outer loop
         vertex 2.217792e+003 5.379646e+002 1.876386e+003
         vertex 2.217792e+003 5.501917e+002 1.878918e+003
         vertex 2.217792e+003 5.376952e+002 1.876314e+003
      endloop
   endfacet
   facet normal -1.000000e+000 -9.367507e-017 1.137566e-016
      outer loop
         vertex 2.217792e+003 5.511395e+002 1.879466e+003
         vertex 2.217792e+003 5.508701e+002 1.879393e+003
         vertex 2.217792e+003 5.389930e+002 1.877612e+003
      endloop
   endfacet
   facet normal -1.000000e+000 -9.367507e-017 1.137566e-016
      outer loop
         vertex 2.217792e+003 5.389930e+002 1.877612e+003
         vertex 2.217792e+003 5.508701e+002 1.879393e+003
         vertex 2.217792e+003 5.506173e+002 1.879276e+003
      endloop
   endfacet
   facet normal -1.000000e+000 -9.367507e-017 1.137566e-016
      outer loop
         vertex 2.217792e+003 5.382173e+002 1.876504e+003
         vertex 2.217792e+003 5.384458e+002 1.876664e+003
         vertex 2.217792e+003 5.501917e+002 1.878918e+003
      endloop
   endfacet
   facet normal -1.000000e+000 -9.367507e-017 1.137566e-016
      outer loop
         vertex 2.217792e+003 5.501917e+002 1.878918e+003
         vertex 2.217792e+003 5.384458e+002 1.876664e+003
         vertex 2.217792e+003 5.386430e+002 1.876861e+003
      endloop
   endfacet
   facet normal -1.000000e+000 -9.367507e-017 1.137566e-016
      outer loop
         vertex 2.217792e+003 5.501917e+002 1.878918e+003
         vertex 2.217792e+003 5.386430e+002 1.876861e+003
         vertex 2.217792e+003 5.388030e+002 1.877090e+003
      endloop
   endfacet
   facet normal -1.000000e+000 -9.367507e-017 1.137566e-016
      outer loop
         vertex 2.217792e+003 5.498173e+002 1.877890e+003
         vertex 2.217792e+003 5.498416e+002 1.877612e+003
         vertex 2.217792e+003 5.374174e+002 1.873390e+003
      endloop
   endfacet
   facet normal -1.000000e+000 -9.367507e-017 1.137566e-016
      outer loop
         vertex 2.217792e+003 5.374174e+002 1.873390e+003
         vertex 2.217792e+003 5.498416e+002 1.877612e+003
         vertex 2.217792e+003 5.499138e+002 1.877343e+003
      endloop
   endfacet
   facet normal -1.000000e+000 -9.367507e-017 1.137566e-016
      outer loop
         vertex 2.217792e+003 5.506173e+002 1.879276e+003
         vertex 2.217792e+003 5.503889e+002 1.879116e+003
         vertex 2.217792e+003 5.389930e+002 1.877612e+003
      endloop
   endfacet
   facet normal -1.000000e+000 -9.367507e-017 1.137566e-016
      outer loop
         vertex 2.217792e+003 5.389930e+002 1.877612e+003
         vertex 2.217792e+003 5.503889e+002 1.879116e+003
         vertex 2.217792e+003 5.501917e+002 1.878918e+003
      endloop
   endfacet
   facet normal -1.000000e+000 -9.367507e-017 1.137566e-016
      outer loop
         vertex 2.217792e+003 5.389930e+002 1.877612e+003
         vertex 2.217792e+003 5.501917e+002 1.878918e+003
         vertex 2.217792e+003 5.389208e+002 1.877343e+003
      endloop
   endfacet
   facet normal -1.000000e+000 -9.367507e-017 1.137566e-016
      outer loop
         vertex 2.217792e+003 5.389208e+002 1.877343e+003
         vertex 2.217792e+003 5.501917e+002 1.878918e+003
         vertex 2.217792e+003 5.388030e+002 1.877090e+003
      endloop
   endfacet
   facet normal -1.000000e+000 -9.367507e-017 1.137566e-016
      outer loop
         vertex 2.217792e+003 5.529930e+002 1.878168e+003
         vertex 2.217792e+003 5.529208e+002 1.878437e+003
         vertex 2.217792e+003 5.554174e+002 1.880890e+003
      endloop
   endfacet
   facet normal -1.000000e+000 -9.367507e-017 1.137566e-016
      outer loop
         vertex 2.217792e+003 5.554174e+002 1.880890e+003
         vertex 2.217792e+003 5.529208e+002 1.878437e+003
         vertex 2.217792e+003 5.528030e+002 1.878690e+003
      endloop
   endfacet
   facet normal -1.000000e+000 -9.367507e-017 1.137566e-016
      outer loop
         vertex 2.217792e+003 5.554174e+002 1.880890e+003
         vertex 2.217792e+003 5.528030e+002 1.878690e+003
         vertex 2.217792e+003 5.526430e+002 1.878918e+003
      endloop
   endfacet
   facet normal -1.000000e+000 -9.367507e-017 1.137566e-016
      outer loop
         vertex 2.217792e+003 5.499138e+002 1.877343e+003
         vertex 2.217792e+003 5.500317e+002 1.877090e+003
         vertex 2.217792e+003 5.374174e+002 1.873390e+003
      endloop
   endfacet
   facet normal -1.000000e+000 -9.367507e-017 1.137566e-016
      outer loop
         vertex 2.217792e+003 5.374174e+002 1.873390e+003
         vertex 2.217792e+003 5.500317e+002 1.877090e+003
         vertex 2.217792e+003 5.501917e+002 1.876861e+003
      endloop
   endfacet
   facet normal -1.000000e+000 -9.367507e-017 1.137566e-016
      outer loop
         vertex 2.217792e+003 5.374174e+002 1.873390e+003
         vertex 2.217792e+003 5.501917e+002 1.876861e+003
         vertex 2.217792e+003 5.503889e+002 1.876664e+003
      endloop
   endfacet
   facet normal -1.000000e+000 -9.367507e-017 1.137566e-016
      outer loop
         vertex 2.217792e+003 5.528030e+002 1.877090e+003
         vertex 2.217792e+003 5.529208e+002 1.877343e+003
         vertex 2.217792e+003 5.554174e+002 1.873390e+003
      endloop
   endfacet
   facet normal -1.000000e+000 -9.367507e-017 1.137566e-016
      outer loop
         vertex 2.217792e+003 5.554174e+002 1.873390e+003
         vertex 2.217792e+003 5.529208e+002 1.877343e+003
         vertex 2.217792e+003 5.529930e+002 1.877612e+003
      endloop
   endfacet
   facet normal -1.000000e+000 -9.367507e-017 1.137566e-016
      outer loop
         vertex 2.217792e+003 5.554174e+002 1.873390e+003
         vertex 2.217792e+003 5.529930e+002 1.877612e+003
         vertex 2.217792e+003 5.554174e+002 1.880890e+003
      endloop
   endfacet
   facet normal -1.000000e+000 -9.367507e-017 1.137566e-016
      outer loop
         vertex 2.217792e+003 5.554174e+002 1.880890e+003
         vertex 2.217792e+003 5.529930e+002 1.877612e+003
         vertex 2.217792e+003 5.530173e+002 1.877890e+003
      endloop
   endfacet
   facet normal -1.000000e+000 -9.367507e-017 1.137566e-016
      outer loop
         vertex 2.217792e+003 5.554174e+002 1.880890e+003
         vertex 2.217792e+003 5.530173e+002 1.877890e+003
         vertex 2.217792e+003 5.529930e+002 1.878168e+003
      endloop
   endfacet
   facet normal -1.000000e+000 -9.367507e-017 1.137566e-016
      outer loop
         vertex 2.217792e+003 5.334174e+002 1.880890e+003
         vertex 2.217792e+003 5.363889e+002 1.879116e+003
         vertex 2.217792e+003 5.361917e+002 1.878918e+003
      endloop
   endfacet
   facet normal -1.000000e+000 -9.367507e-017 1.137566e-016
      outer loop
         vertex 2.217792e+003 5.526430e+002 1.878918e+003
         vertex 2.217792e+003 5.524457e+002 1.879116e+003
         vertex 2.217792e+003 5.554174e+002 1.880890e+003
      endloop
   endfacet
   facet normal -1.000000e+000 -9.367507e-017 1.137566e-016
      outer loop
         vertex 2.217792e+003 5.554174e+002 1.880890e+003
         vertex 2.217792e+003 5.524457e+002 1.879116e+003
         vertex 2.217792e+003 5.522173e+002 1.879276e+003
      endloop
   endfacet
   facet normal -1.000000e+000 -9.367507e-017 1.137566e-016
      outer loop
         vertex 2.217792e+003 5.554174e+002 1.880890e+003
         vertex 2.217792e+003 5.522173e+002 1.879276e+003
         vertex 2.217792e+003 5.519646e+002 1.879393e+003
      endloop
   endfacet
   facet normal -1.000000e+000 -9.367507e-017 1.137566e-016
      outer loop
         vertex 2.217792e+003 5.358416e+002 1.878168e+003
         vertex 2.217792e+003 5.334174e+002 1.877390e+003
         vertex 2.217792e+003 5.359138e+002 1.878437e+003
      endloop
   endfacet
   facet normal -1.000000e+000 -9.367507e-017 1.137566e-016
      outer loop
         vertex 2.217792e+003 5.359138e+002 1.878437e+003
         vertex 2.217792e+003 5.334174e+002 1.877390e+003
         vertex 2.217792e+003 5.334174e+002 1.880890e+003
      endloop
   endfacet
   facet normal -1.000000e+000 -9.367507e-017 1.137566e-016
      outer loop
         vertex 2.217792e+003 5.359138e+002 1.878437e+003
         vertex 2.217792e+003 5.334174e+002 1.880890e+003
         vertex 2.217792e+003 5.360317e+002 1.878690e+003
      endloop
   endfacet
   facet normal -1.000000e+000 -9.367507e-017 1.137566e-016
      outer loop
         vertex 2.217792e+003 5.360317e+002 1.878690e+003
         vertex 2.217792e+003 5.334174e+002 1.880890e+003
         vertex 2.217792e+003 5.361917e+002 1.878918e+003
      endloop
   endfacet
   facet normal -1.000000e+000 -9.367507e-017 1.137566e-016
      outer loop
         vertex 2.217792e+003 5.358416e+002 1.878168e+003
         vertex 2.217792e+003 5.358173e+002 1.877890e+003
         vertex 2.217792e+003 5.334174e+002 1.877390e+003
      endloop
   endfacet
   facet normal -1.000000e+000 -9.367507e-017 1.137566e-016
      outer loop
         vertex 2.217792e+003 5.334174e+002 1.877390e+003
         vertex 2.217792e+003 5.358173e+002 1.877890e+003
         vertex 2.217792e+003 5.358416e+002 1.877612e+003
      endloop
   endfacet
   facet normal -1.000000e+000 -9.367507e-017 1.137566e-016
      outer loop
         vertex 2.217792e+003 5.334174e+002 1.877390e+003
         vertex 2.217792e+003 5.358416e+002 1.877612e+003
         vertex 2.217792e+003 5.359138e+002 1.877343e+003
      endloop
   endfacet
   facet normal -1.000000e+000 -9.367507e-017 1.137566e-016
      outer loop
         vertex 2.217792e+003 5.503889e+002 1.876664e+003
         vertex 2.217792e+003 5.506173e+002 1.876504e+003
         vertex 2.217792e+003 5.374174e+002 1.873390e+003
      endloop
   endfacet
   facet normal -1.000000e+000 -9.367507e-017 1.137566e-016
      outer loop
         vertex 2.217792e+003 5.374174e+002 1.873390e+003
         vertex 2.217792e+003 5.506173e+002 1.876504e+003
         vertex 2.217792e+003 5.508701e+002 1.876386e+003
      endloop
   endfacet
   facet normal -1.000000e+000 -9.367507e-017 1.137566e-016
      outer loop
         vertex 2.217792e+003 5.374174e+002 1.873390e+003
         vertex 2.217792e+003 5.508701e+002 1.876386e+003
         vertex 2.217792e+003 5.554174e+002 1.873390e+003
      endloop
   endfacet
   facet normal -1.000000e+000 -9.367507e-017 1.137566e-016
      outer loop
         vertex 2.217792e+003 5.554174e+002 1.873390e+003
         vertex 2.217792e+003 5.508701e+002 1.876386e+003
         vertex 2.217792e+003 5.511395e+002 1.876314e+003
      endloop
   endfacet
   facet normal -1.000000e+000 -9.367507e-017 1.137566e-016
      outer loop
         vertex 2.217792e+003 5.554174e+002 1.873390e+003
         vertex 2.217792e+003 5.511395e+002 1.876314e+003
         vertex 2.217792e+003 5.514174e+002 1.876290e+003
      endloop
   endfacet
   facet normal -1.000000e+000 -9.367507e-017 1.137566e-016
      outer loop
         vertex 2.217792e+003 5.359138e+002 1.877343e+003
         vertex 2.217792e+003 5.360317e+002 1.877090e+003
         vertex 2.217792e+003 5.334174e+002 1.877390e+003
      endloop
   endfacet
   facet normal -1.000000e+000 -9.367507e-017 1.137566e-016
      outer loop
         vertex 2.217792e+003 5.334174e+002 1.877390e+003
         vertex 2.217792e+003 5.360317e+002 1.877090e+003
         vertex 2.217792e+003 5.361917e+002 1.876861e+003
      endloop
   endfacet
   facet normal -1.000000e+000 -9.367507e-017 1.137566e-016
      outer loop
         vertex 2.217792e+003 5.334174e+002 1.877390e+003
         vertex 2.217792e+003 5.361917e+002 1.876861e+003
         vertex 2.217792e+003 5.374174e+002 1.873390e+003
      endloop
   endfacet
   facet normal -1.000000e+000 -9.367507e-017 1.137566e-016
      outer loop
         vertex 2.217792e+003 5.514174e+002 1.876290e+003
         vertex 2.217792e+003 5.516952e+002 1.876314e+003
         vertex 2.217792e+003 5.554174e+002 1.873390e+003
      endloop
   endfacet
   facet normal -1.000000e+000 -9.367507e-017 1.137566e-016
      outer loop
         vertex 2.217792e+003 5.554174e+002 1.873390e+003
         vertex 2.217792e+003 5.516952e+002 1.876314e+003
         vertex 2.217792e+003 5.519646e+002 1.876386e+003
      endloop
   endfacet
   facet normal -1.000000e+000 -9.367507e-017 1.137566e-016
      outer loop
         vertex 2.217792e+003 5.554174e+002 1.873390e+003
         vertex 2.217792e+003 5.519646e+002 1.876386e+003
         vertex 2.217792e+003 5.522173e+002 1.876504e+003
      endloop
   endfacet
   facet normal -1.000000e+000 -9.367507e-017 1.137566e-016
      outer loop
         vertex 2.217792e+003 5.371395e+002 1.879466e+003
         vertex 2.217792e+003 5.368701e+002 1.879393e+003
         vertex 2.217792e+003 5.334174e+002 1.880890e+003
      endloop
   endfacet
   facet normal -1.000000e+000 -9.367507e-017 1.137566e-016
      outer loop
         vertex 2.217792e+003 5.334174e+002 1.880890e+003
         vertex 2.217792e+003 5.368701e+002 1.879393e+003
         vertex 2.217792e+003 5.366173e+002 1.879276e+003
      endloop
   endfacet
   facet normal -1.000000e+000 -9.367507e-017 1.137566e-016
      outer loop
         vertex 2.217792e+003 5.334174e+002 1.880890e+003
         vertex 2.217792e+003 5.366173e+002 1.879276e+003
         vertex 2.217792e+003 5.363889e+002 1.879116e+003
      endloop
   endfacet
   facet normal -1.000000e+000 -9.367507e-017 1.137566e-016
      outer loop
         vertex 2.217792e+003 5.361917e+002 1.876861e+003
         vertex 2.217792e+003 5.363889e+002 1.876664e+003
         vertex 2.217792e+003 5.374174e+002 1.873390e+003
      endloop
   endfacet
   facet normal -1.000000e+000 -9.367507e-017 1.137566e-016
      outer loop
         vertex 2.217792e+003 5.374174e+002 1.873390e+003
         vertex 2.217792e+003 5.363889e+002 1.876664e+003
         vertex 2.217792e+003 5.366173e+002 1.876504e+003
      endloop
   endfacet
   facet normal -1.000000e+000 -9.367507e-017 1.137566e-016
      outer loop
         vertex 2.217792e+003 5.374174e+002 1.873390e+003
         vertex 2.217792e+003 5.366173e+002 1.876504e+003
         vertex 2.217792e+003 5.368701e+002 1.876386e+003
      endloop
   endfacet
   facet normal -1.000000e+000 -9.367507e-017 1.137566e-016
      outer loop
         vertex 2.217792e+003 5.522173e+002 1.876504e+003
         vertex 2.217792e+003 5.524457e+002 1.876664e+003
         vertex 2.217792e+003 5.554174e+002 1.873390e+003
      endloop
   endfacet
   facet normal -1.000000e+000 -9.367507e-017 1.137566e-016
      outer loop
         vertex 2.217792e+003 5.554174e+002 1.873390e+003
         vertex 2.217792e+003 5.524457e+002 1.876664e+003
         vertex 2.217792e+003 5.526430e+002 1.876861e+003
      endloop
   endfacet
   facet normal -1.000000e+000 -9.367507e-017 1.137566e-016
      outer loop
         vertex 2.217792e+003 5.554174e+002 1.873390e+003
         vertex 2.217792e+003 5.526430e+002 1.876861e+003
         vertex 2.217792e+003 5.528030e+002 1.877090e+003
      endloop
   endfacet
   facet normal -1.000000e+000 -9.367507e-017 1.137566e-016
      outer loop
         vertex 2.217792e+003 5.519646e+002 1.879393e+003
         vertex 2.217792e+003 5.516952e+002 1.879466e+003
         vertex 2.217792e+003 5.554174e+002 1.880890e+003
      endloop
   endfacet
   facet normal -1.000000e+000 -9.367507e-017 1.137566e-016
      outer loop
         vertex 2.217792e+003 5.554174e+002 1.880890e+003
         vertex 2.217792e+003 5.516952e+002 1.879466e+003
         vertex 2.217792e+003 5.514174e+002 1.879490e+003
      endloop
   endfacet
   facet normal -1.000000e+000 -9.367507e-017 1.137566e-016
      outer loop
         vertex 2.217792e+003 5.554174e+002 1.880890e+003
         vertex 2.217792e+003 5.514174e+002 1.879490e+003
         vertex 2.217792e+003 5.511395e+002 1.879466e+003
      endloop
   endfacet
   facet normal -1.000000e+000 -9.367507e-017 1.137566e-016
      outer loop
         vertex 2.217792e+003 5.388030e+002 1.878690e+003
         vertex 2.217792e+003 5.386430e+002 1.878918e+003
         vertex 2.217792e+003 5.554174e+002 1.880890e+003
      endloop
   endfacet
   facet normal -1.000000e+000 -9.367507e-017 1.137566e-016
      outer loop
         vertex 2.217792e+003 5.554174e+002 1.880890e+003
         vertex 2.217792e+003 5.386430e+002 1.878918e+003
         vertex 2.217792e+003 5.384458e+002 1.879116e+003
      endloop
   endfacet
   facet normal -1.000000e+000 -9.367507e-017 1.137566e-016
      outer loop
         vertex 2.217792e+003 5.554174e+002 1.880890e+003
         vertex 2.217792e+003 5.384458e+002 1.879116e+003
         vertex 2.217792e+003 5.382173e+002 1.879276e+003
      endloop
   endfacet
   facet normal -1.000000e+000 -9.367507e-017 1.137566e-016
      outer loop
         vertex 2.217792e+003 5.368701e+002 1.876386e+003
         vertex 2.217792e+003 5.371395e+002 1.876314e+003
         vertex 2.217792e+003 5.374174e+002 1.873390e+003
      endloop
   endfacet
   facet normal -1.000000e+000 -9.367507e-017 1.137566e-016
      outer loop
         vertex 2.217792e+003 5.374174e+002 1.873390e+003
         vertex 2.217792e+003 5.371395e+002 1.876314e+003
         vertex 2.217792e+003 5.374174e+002 1.876290e+003
      endloop
   endfacet
   facet normal -1.000000e+000 -9.367507e-017 1.137566e-016
      outer loop
         vertex 2.217792e+003 5.374174e+002 1.873390e+003
         vertex 2.217792e+003 5.374174e+002 1.876290e+003
         vertex 2.217792e+003 5.376952e+002 1.876314e+003
      endloop
   endfacet
   facet normal -1.000000e+000 -9.367507e-017 1.137566e-016
      outer loop
         vertex 2.217792e+003 5.389930e+002 1.877612e+003
         vertex 2.217792e+003 5.390173e+002 1.877890e+003
         vertex 2.217792e+003 5.511395e+002 1.879466e+003
      endloop
   endfacet
   facet normal -1.000000e+000 -9.367507e-017 1.137566e-016
      outer loop
         vertex 2.217792e+003 5.511395e+002 1.879466e+003
         vertex 2.217792e+003 5.390173e+002 1.877890e+003
         vertex 2.217792e+003 5.389930e+002 1.878168e+003
      endloop
   endfacet
   facet normal -1.000000e+000 -9.367507e-017 1.137566e-016
      outer loop
         vertex 2.217792e+003 5.511395e+002 1.879466e+003
         vertex 2.217792e+003 5.389930e+002 1.878168e+003
         vertex 2.217792e+003 5.554174e+002 1.880890e+003
      endloop
   endfacet
   facet normal -1.000000e+000 -9.367507e-017 1.137566e-016
      outer loop
         vertex 2.217792e+003 5.554174e+002 1.880890e+003
         vertex 2.217792e+003 5.389930e+002 1.878168e+003
         vertex 2.217792e+003 5.389208e+002 1.878437e+003
      endloop
   endfacet
   facet normal -1.000000e+000 -9.367507e-017 1.137566e-016
      outer loop
         vertex 2.217792e+003 5.554174e+002 1.880890e+003
         vertex 2.217792e+003 5.389208e+002 1.878437e+003
         vertex 2.217792e+003 5.388030e+002 1.878690e+003
      endloop
   endfacet
   facet normal -1.000000e+000 -9.367507e-017 1.137566e-016
      outer loop
         vertex 2.217792e+003 5.382173e+002 1.879276e+003
         vertex 2.217792e+003 5.379646e+002 1.879393e+003
         vertex 2.217792e+003 5.554174e+002 1.880890e+003
      endloop
   endfacet
   facet normal -1.000000e+000 -9.367507e-017 1.137566e-016
      outer loop
         vertex 2.217792e+003 5.554174e+002 1.880890e+003
         vertex 2.217792e+003 5.379646e+002 1.879393e+003
         vertex 2.217792e+003 5.376952e+002 1.879466e+003
      endloop
   endfacet
   facet normal -1.000000e+000 -9.367507e-017 1.137566e-016
      outer loop
         vertex 2.217792e+003 5.554174e+002 1.880890e+003
         vertex 2.217792e+003 5.376952e+002 1.879466e+003
         vertex 2.217792e+003 5.334174e+002 1.880890e+003
      endloop
   endfacet
   facet normal -1.000000e+000 -9.367507e-017 1.137566e-016
      outer loop
         vertex 2.217792e+003 5.334174e+002 1.880890e+003
         vertex 2.217792e+003 5.376952e+002 1.879466e+003
         vertex 2.217792e+003 5.374174e+002 1.879490e+003
      endloop
   endfacet
   facet normal -1.000000e+000 -9.367507e-017 1.137566e-016
      outer loop
         vertex 2.217792e+003 5.334174e+002 1.880890e+003
         vertex 2.217792e+003 5.374174e+002 1.879490e+003
         vertex 2.217792e+003 5.371395e+002 1.879466e+003
      endloop
   endfacet
   facet normal -1.000000e+000 -9.367507e-017 1.137566e-016
      outer loop
         vertex 2.217792e+003 5.501917e+002 1.878918e+003
         vertex 2.217792e+003 5.500317e+002 1.878690e+003
         vertex 2.217792e+003 5.376952e+002 1.876314e+003
      endloop
   endfacet
   facet normal -1.000000e+000 -9.367507e-017 1.137566e-016
      outer loop
         vertex 2.217792e+003 5.376952e+002 1.876314e+003
         vertex 2.217792e+003 5.500317e+002 1.878690e+003
         vertex 2.217792e+003 5.499138e+002 1.878437e+003
      endloop
   endfacet
   facet normal -1.000000e+000 -9.367507e-017 1.137566e-016
      outer loop
         vertex 2.217792e+003 5.376952e+002 1.876314e+003
         vertex 2.217792e+003 5.499138e+002 1.878437e+003
         vertex 2.217792e+003 5.374174e+002 1.873390e+003
      endloop
   endfacet
   facet normal -1.000000e+000 -9.367507e-017 1.137566e-016
      outer loop
         vertex 2.217792e+003 5.374174e+002 1.873390e+003
         vertex 2.217792e+003 5.499138e+002 1.878437e+003
         vertex 2.217792e+003 5.498416e+002 1.878168e+003
      endloop
   endfacet
   facet normal -1.000000e+000 -9.367507e-017 1.137566e-016
      outer loop
         vertex 2.217792e+003 5.374174e+002 1.873390e+003
         vertex 2.217792e+003 5.498416e+002 1.878168e+003
         vertex 2.217792e+003 5.498173e+002 1.877890e+003
      endloop
   endfacet
   facet normal 1.000000e+000 9.367507e-017 -1.137566e-016
      outer loop
         vertex 2.220792e+003 5.334174e+002 1.880890e+003
         vertex 2.220792e+003 5.499138e+002 1.878437e+003
         vertex 2.220792e+003 5.500317e+002 1.878690e+003
      endloop
   endfacet
   facet normal 1.000000e+000 9.367507e-017 -1.137566e-016
      outer loop
         vertex 2.220792e+003 5.334174e+002 1.877390e+003
         vertex 2.220792e+003 5.358173e+002 1.877890e+003
         vertex 2.220792e+003 5.358416e+002 1.878168e+003
      endloop
   endfacet
   facet normal 1.000000e+000 9.367507e-017 -1.137566e-016
      outer loop
         vertex 2.220792e+003 5.516952e+002 1.879466e+003
         vertex 2.220792e+003 5.519646e+002 1.879393e+003
         vertex 2.220792e+003 5.554174e+002 1.880890e+003
      endloop
   endfacet
   facet normal 1.000000e+000 9.367507e-017 -1.137566e-016
      outer loop
         vertex 2.220792e+003 5.529208e+002 1.878437e+003
         vertex 2.220792e+003 5.554174e+002 1.880890e+003
         vertex 2.220792e+003 5.528030e+002 1.878690e+003
      endloop
   endfacet
   facet normal 1.000000e+000 9.367507e-017 -1.137566e-016
      outer loop
         vertex 2.220792e+003 5.528030e+002 1.878690e+003
         vertex 2.220792e+003 5.554174e+002 1.880890e+003
         vertex 2.220792e+003 5.526430e+002 1.878918e+003
      endloop
   endfacet
   facet normal 1.000000e+000 9.367507e-017 -1.137566e-016
      outer loop
         vertex 2.220792e+003 5.529930e+002 1.877612e+003
         vertex 2.220792e+003 5.554174e+002 1.873390e+003
         vertex 2.220792e+003 5.530173e+002 1.877890e+003
      endloop
   endfacet
   facet normal 1.000000e+000 9.367507e-017 -1.137566e-016
      outer loop
         vertex 2.220792e+003 5.530173e+002 1.877890e+003
         vertex 2.220792e+003 5.554174e+002 1.873390e+003
         vertex 2.220792e+003 5.554174e+002 1.880890e+003
      endloop
   endfacet
   facet normal 1.000000e+000 9.367507e-017 -1.137566e-016
      outer loop
         vertex 2.220792e+003 5.530173e+002 1.877890e+003
         vertex 2.220792e+003 5.554174e+002 1.880890e+003
         vertex 2.220792e+003 5.529930e+002 1.878168e+003
      endloop
   endfacet
   facet normal 1.000000e+000 9.367507e-017 -1.137566e-016
      outer loop
         vertex 2.220792e+003 5.529930e+002 1.878168e+003
         vertex 2.220792e+003 5.554174e+002 1.880890e+003
         vertex 2.220792e+003 5.529208e+002 1.878437e+003
      endloop
   endfacet
   facet normal 1.000000e+000 9.367507e-017 -1.137566e-016
      outer loop
         vertex 2.220792e+003 5.529930e+002 1.877612e+003
         vertex 2.220792e+003 5.529208e+002 1.877343e+003
         vertex 2.220792e+003 5.554174e+002 1.873390e+003
      endloop
   endfacet
   facet normal 1.000000e+000 9.367507e-017 -1.137566e-016
      outer loop
         vertex 2.220792e+003 5.554174e+002 1.873390e+003
         vertex 2.220792e+003 5.529208e+002 1.877343e+003
         vertex 2.220792e+003 5.528030e+002 1.877090e+003
      endloop
   endfacet
   facet normal 1.000000e+000 9.367507e-017 -1.137566e-016
      outer loop
         vertex 2.220792e+003 5.554174e+002 1.873390e+003
         vertex 2.220792e+003 5.528030e+002 1.877090e+003
         vertex 2.220792e+003 5.526430e+002 1.876861e+003
      endloop
   endfacet
   facet normal 1.000000e+000 9.367507e-017 -1.137566e-016
      outer loop
         vertex 2.220792e+003 5.334174e+002 1.880890e+003
         vertex 2.220792e+003 5.360317e+002 1.878690e+003
         vertex 2.220792e+003 5.361917e+002 1.878918e+003
      endloop
   endfacet
   facet normal 1.000000e+000 9.367507e-017 -1.137566e-016
      outer loop
         vertex 2.220792e+003 5.361917e+002 1.878918e+003
         vertex 2.220792e+003 5.363889e+002 1.879116e+003
         vertex 2.220792e+003 5.334174e+002 1.880890e+003
      endloop
   endfacet
   facet normal 1.000000e+000 9.367507e-017 -1.137566e-016
      outer loop
         vertex 2.220792e+003 5.334174e+002 1.880890e+003
         vertex 2.220792e+003 5.363889e+002 1.879116e+003
         vertex 2.220792e+003 5.366173e+002 1.879276e+003
      endloop
   endfacet
   facet normal 1.000000e+000 9.367507e-017 -1.137566e-016
      outer loop
         vertex 2.220792e+003 5.334174e+002 1.880890e+003
         vertex 2.220792e+003 5.366173e+002 1.879276e+003
         vertex 2.220792e+003 5.368701e+002 1.879393e+003
      endloop
   endfacet
   facet normal 1.000000e+000 9.367507e-017 -1.137566e-016
      outer loop
         vertex 2.220792e+003 5.368701e+002 1.879393e+003
         vertex 2.220792e+003 5.371395e+002 1.879466e+003
         vertex 2.220792e+003 5.334174e+002 1.880890e+003
      endloop
   endfacet
   facet normal 1.000000e+000 9.367507e-017 -1.137566e-016
      outer loop
         vertex 2.220792e+003 5.334174e+002 1.880890e+003
         vertex 2.220792e+003 5.371395e+002 1.879466e+003
         vertex 2.220792e+003 5.374174e+002 1.879490e+003
      endloop
   endfacet
   facet normal 1.000000e+000 9.367507e-017 -1.137566e-016
      outer loop
         vertex 2.220792e+003 5.334174e+002 1.880890e+003
         vertex 2.220792e+003 5.374174e+002 1.879490e+003
         vertex 2.220792e+003 5.376952e+002 1.879466e+003
      endloop
   endfacet
   facet normal 1.000000e+000 9.367507e-017 -1.137566e-016
      outer loop
         vertex 2.220792e+003 5.519646e+002 1.879393e+003
         vertex 2.220792e+003 5.522173e+002 1.879276e+003
         vertex 2.220792e+003 5.554174e+002 1.880890e+003
      endloop
   endfacet
   facet normal 1.000000e+000 9.367507e-017 -1.137566e-016
      outer loop
         vertex 2.220792e+003 5.554174e+002 1.880890e+003
         vertex 2.220792e+003 5.522173e+002 1.879276e+003
         vertex 2.220792e+003 5.524457e+002 1.879116e+003
      endloop
   endfacet
   facet normal 1.000000e+000 9.367507e-017 -1.137566e-016
      outer loop
         vertex 2.220792e+003 5.554174e+002 1.880890e+003
         vertex 2.220792e+003 5.524457e+002 1.879116e+003
         vertex 2.220792e+003 5.526430e+002 1.878918e+003
      endloop
   endfacet
   facet normal 1.000000e+000 9.367507e-017 -1.137566e-016
      outer loop
         vertex 2.220792e+003 5.519646e+002 1.876386e+003
         vertex 2.220792e+003 5.516952e+002 1.876314e+003
         vertex 2.220792e+003 5.554174e+002 1.873390e+003
      endloop
   endfacet
   facet normal 1.000000e+000 9.367507e-017 -1.137566e-016
      outer loop
         vertex 2.220792e+003 5.501917e+002 1.876861e+003
         vertex 2.220792e+003 5.374174e+002 1.873390e+003
         vertex 2.220792e+003 5.503889e+002 1.876664e+003
      endloop
   endfacet
   facet normal 1.000000e+000 9.367507e-017 -1.137566e-016
      outer loop
         vertex 2.220792e+003 5.503889e+002 1.876664e+003
         vertex 2.220792e+003 5.374174e+002 1.873390e+003
         vertex 2.220792e+003 5.506173e+002 1.876504e+003
      endloop
   endfacet
   facet normal 1.000000e+000 9.367507e-017 -1.137566e-016
      outer loop
         vertex 2.220792e+003 5.382173e+002 1.879276e+003
         vertex 2.220792e+003 5.384458e+002 1.879116e+003
         vertex 2.220792e+003 5.498173e+002 1.877890e+003
      endloop
   endfacet
   facet normal 1.000000e+000 9.367507e-017 -1.137566e-016
      outer loop
         vertex 2.220792e+003 5.334174e+002 1.877390e+003
         vertex 2.220792e+003 5.358416e+002 1.878168e+003
         vertex 2.220792e+003 5.334174e+002 1.880890e+003
      endloop
   endfacet
   facet normal 1.000000e+000 9.367507e-017 -1.137566e-016
      outer loop
         vertex 2.220792e+003 5.334174e+002 1.880890e+003
         vertex 2.220792e+003 5.358416e+002 1.878168e+003
         vertex 2.220792e+003 5.359138e+002 1.878437e+003
      endloop
   endfacet
   facet normal 1.000000e+000 9.367507e-017 -1.137566e-016
      outer loop
         vertex 2.220792e+003 5.334174e+002 1.880890e+003
         vertex 2.220792e+003 5.359138e+002 1.878437e+003
         vertex 2.220792e+003 5.360317e+002 1.878690e+003
      endloop
   endfacet
   facet normal 1.000000e+000 9.367507e-017 -1.137566e-016
      outer loop
         vertex 2.220792e+003 5.382173e+002 1.876504e+003
         vertex 2.220792e+003 5.498416e+002 1.877612e+003
         vertex 2.220792e+003 5.384458e+002 1.876664e+003
      endloop
   endfacet
   facet normal 1.000000e+000 9.367507e-017 -1.137566e-016
      outer loop
         vertex 2.220792e+003 5.384458e+002 1.876664e+003
         vertex 2.220792e+003 5.498416e+002 1.877612e+003
         vertex 2.220792e+003 5.386430e+002 1.876861e+003
      endloop
   endfacet
   facet normal 1.000000e+000 9.367507e-017 -1.137566e-016
      outer loop
         vertex 2.220792e+003 5.500317e+002 1.878690e+003
         vertex 2.220792e+003 5.501917e+002 1.878918e+003
         vertex 2.220792e+003 5.334174e+002 1.880890e+003
      endloop
   endfacet
   facet normal 1.000000e+000 9.367507e-017 -1.137566e-016
      outer loop
         vertex 2.220792e+003 5.334174e+002 1.880890e+003
         vertex 2.220792e+003 5.501917e+002 1.878918e+003
         vertex 2.220792e+003 5.503889e+002 1.879116e+003
      endloop
   endfacet
   facet normal 1.000000e+000 9.367507e-017 -1.137566e-016
      outer loop
         vertex 2.220792e+003 5.334174e+002 1.880890e+003
         vertex 2.220792e+003 5.503889e+002 1.879116e+003
         vertex 2.220792e+003 5.506173e+002 1.879276e+003
      endloop
   endfacet
   facet normal 1.000000e+000 9.367507e-017 -1.137566e-016
      outer loop
         vertex 2.220792e+003 5.506173e+002 1.879276e+003
         vertex 2.220792e+003 5.508701e+002 1.879393e+003
         vertex 2.220792e+003 5.334174e+002 1.880890e+003
      endloop
   endfacet
   facet normal 1.000000e+000 9.367507e-017 -1.137566e-016
      outer loop
         vertex 2.220792e+003 5.334174e+002 1.880890e+003
         vertex 2.220792e+003 5.508701e+002 1.879393e+003
         vertex 2.220792e+003 5.511395e+002 1.879466e+003
      endloop
   endfacet
   facet normal 1.000000e+000 9.367507e-017 -1.137566e-016
      outer loop
         vertex 2.220792e+003 5.334174e+002 1.880890e+003
         vertex 2.220792e+003 5.511395e+002 1.879466e+003
         vertex 2.220792e+003 5.554174e+002 1.880890e+003
      endloop
   endfacet
   facet normal 1.000000e+000 9.367507e-017 -1.137566e-016
      outer loop
         vertex 2.220792e+003 5.554174e+002 1.880890e+003
         vertex 2.220792e+003 5.511395e+002 1.879466e+003
         vertex 2.220792e+003 5.514174e+002 1.879490e+003
      endloop
   endfacet
   facet normal 1.000000e+000 9.367507e-017 -1.137566e-016
      outer loop
         vertex 2.220792e+003 5.554174e+002 1.880890e+003
         vertex 2.220792e+003 5.514174e+002 1.879490e+003
         vertex 2.220792e+003 5.516952e+002 1.879466e+003
      endloop
   endfacet
   facet normal 1.000000e+000 9.367507e-017 -1.137566e-016
      outer loop
         vertex 2.220792e+003 5.360317e+002 1.877090e+003
         vertex 2.220792e+003 5.359138e+002 1.877343e+003
         vertex 2.220792e+003 5.334174e+002 1.877390e+003
      endloop
   endfacet
   facet normal 1.000000e+000 9.367507e-017 -1.137566e-016
      outer loop
         vertex 2.220792e+003 5.334174e+002 1.877390e+003
         vertex 2.220792e+003 5.359138e+002 1.877343e+003
         vertex 2.220792e+003 5.358416e+002 1.877612e+003
      endloop
   endfacet
   facet normal 1.000000e+000 9.367507e-017 -1.137566e-016
      outer loop
         vertex 2.220792e+003 5.334174e+002 1.877390e+003
         vertex 2.220792e+003 5.358416e+002 1.877612e+003
         vertex 2.220792e+003 5.358173e+002 1.877890e+003
      endloop
   endfacet
   facet normal 1.000000e+000 9.367507e-017 -1.137566e-016
      outer loop
         vertex 2.220792e+003 5.499138e+002 1.878437e+003
         vertex 2.220792e+003 5.334174e+002 1.880890e+003
         vertex 2.220792e+003 5.498416e+002 1.878168e+003
      endloop
   endfacet
   facet normal 1.000000e+000 9.367507e-017 -1.137566e-016
      outer loop
         vertex 2.220792e+003 5.498416e+002 1.878168e+003
         vertex 2.220792e+003 5.334174e+002 1.880890e+003
         vertex 2.220792e+003 5.376952e+002 1.879466e+003
      endloop
   endfacet
   facet normal 1.000000e+000 9.367507e-017 -1.137566e-016
      outer loop
         vertex 2.220792e+003 5.498416e+002 1.878168e+003
         vertex 2.220792e+003 5.376952e+002 1.879466e+003
         vertex 2.220792e+003 5.498173e+002 1.877890e+003
      endloop
   endfacet
   facet normal 1.000000e+000 9.367507e-017 -1.137566e-016
      outer loop
         vertex 2.220792e+003 5.498173e+002 1.877890e+003
         vertex 2.220792e+003 5.376952e+002 1.879466e+003
         vertex 2.220792e+003 5.379646e+002 1.879393e+003
      endloop
   endfacet
   facet normal 1.000000e+000 9.367507e-017 -1.137566e-016
      outer loop
         vertex 2.220792e+003 5.498173e+002 1.877890e+003
         vertex 2.220792e+003 5.379646e+002 1.879393e+003
         vertex 2.220792e+003 5.382173e+002 1.879276e+003
      endloop
   endfacet
   facet normal 1.000000e+000 9.367507e-017 -1.137566e-016
      outer loop
         vertex 2.220792e+003 5.384458e+002 1.879116e+003
         vertex 2.220792e+003 5.386430e+002 1.878918e+003
         vertex 2.220792e+003 5.498173e+002 1.877890e+003
      endloop
   endfacet
   facet normal 1.000000e+000 9.367507e-017 -1.137566e-016
      outer loop
         vertex 2.220792e+003 5.498173e+002 1.877890e+003
         vertex 2.220792e+003 5.386430e+002 1.878918e+003
         vertex 2.220792e+003 5.388030e+002 1.878690e+003
      endloop
   endfacet
   facet normal 1.000000e+000 9.367507e-017 -1.137566e-016
      outer loop
         vertex 2.220792e+003 5.498173e+002 1.877890e+003
         vertex 2.220792e+003 5.388030e+002 1.878690e+003
         vertex 2.220792e+003 5.389208e+002 1.878437e+003
      endloop
   endfacet
   facet normal 1.000000e+000 9.367507e-017 -1.137566e-016
      outer loop
         vertex 2.220792e+003 5.389930e+002 1.877612e+003
         vertex 2.220792e+003 5.498416e+002 1.877612e+003
         vertex 2.220792e+003 5.390173e+002 1.877890e+003
      endloop
   endfacet
   facet normal 1.000000e+000 9.367507e-017 -1.137566e-016
      outer loop
         vertex 2.220792e+003 5.390173e+002 1.877890e+003
         vertex 2.220792e+003 5.498416e+002 1.877612e+003
         vertex 2.220792e+003 5.498173e+002 1.877890e+003
      endloop
   endfacet
   facet normal 1.000000e+000 9.367507e-017 -1.137566e-016
      outer loop
         vertex 2.220792e+003 5.390173e+002 1.877890e+003
         vertex 2.220792e+003 5.498173e+002 1.877890e+003
         vertex 2.220792e+003 5.389930e+002 1.878168e+003
      endloop
   endfacet
   facet normal 1.000000e+000 9.367507e-017 -1.137566e-016
      outer loop
         vertex 2.220792e+003 5.389930e+002 1.878168e+003
         vertex 2.220792e+003 5.498173e+002 1.877890e+003
         vertex 2.220792e+003 5.389208e+002 1.878437e+003
      endloop
   endfacet
   facet normal 1.000000e+000 9.367507e-017 -1.137566e-016
      outer loop
         vertex 2.220792e+003 5.389930e+002 1.877612e+003
         vertex 2.220792e+003 5.389208e+002 1.877343e+003
         vertex 2.220792e+003 5.498416e+002 1.877612e+003
      endloop
   endfacet
   facet normal 1.000000e+000 9.367507e-017 -1.137566e-016
      outer loop
         vertex 2.220792e+003 5.498416e+002 1.877612e+003
         vertex 2.220792e+003 5.389208e+002 1.877343e+003
         vertex 2.220792e+003 5.388030e+002 1.877090e+003
      endloop
   endfacet
   facet normal 1.000000e+000 9.367507e-017 -1.137566e-016
      outer loop
         vertex 2.220792e+003 5.498416e+002 1.877612e+003
         vertex 2.220792e+003 5.388030e+002 1.877090e+003
         vertex 2.220792e+003 5.386430e+002 1.876861e+003
      endloop
   endfacet
   facet normal 1.000000e+000 9.367507e-017 -1.137566e-016
      outer loop
         vertex 2.220792e+003 5.526430e+002 1.876861e+003
         vertex 2.220792e+003 5.524457e+002 1.876664e+003
         vertex 2.220792e+003 5.554174e+002 1.873390e+003
      endloop
   endfacet
   facet normal 1.000000e+000 9.367507e-017 -1.137566e-016
      outer loop
         vertex 2.220792e+003 5.554174e+002 1.873390e+003
         vertex 2.220792e+003 5.524457e+002 1.876664e+003
         vertex 2.220792e+003 5.522173e+002 1.876504e+003
      endloop
   endfacet
   facet normal 1.000000e+000 9.367507e-017 -1.137566e-016
      outer loop
         vertex 2.220792e+003 5.554174e+002 1.873390e+003
         vertex 2.220792e+003 5.522173e+002 1.876504e+003
         vertex 2.220792e+003 5.519646e+002 1.876386e+003
      endloop
   endfacet
   facet normal 1.000000e+000 9.367507e-017 -1.137566e-016
      outer loop
         vertex 2.220792e+003 5.516952e+002 1.876314e+003
         vertex 2.220792e+003 5.514174e+002 1.876290e+003
         vertex 2.220792e+003 5.554174e+002 1.873390e+003
      endloop
   endfacet
   facet normal 1.000000e+000 9.367507e-017 -1.137566e-016
      outer loop
         vertex 2.220792e+003 5.554174e+002 1.873390e+003
         vertex 2.220792e+003 5.514174e+002 1.876290e+003
         vertex 2.220792e+003 5.511395e+002 1.876314e+003
      endloop
   endfacet
   facet normal 1.000000e+000 9.367507e-017 -1.137566e-016
      outer loop
         vertex 2.220792e+003 5.554174e+002 1.873390e+003
         vertex 2.220792e+003 5.511395e+002 1.876314e+003
         vertex 2.220792e+003 5.374174e+002 1.873390e+003
      endloop
   endfacet
   facet normal 1.000000e+000 9.367507e-017 -1.137566e-016
      outer loop
         vertex 2.220792e+003 5.374174e+002 1.873390e+003
         vertex 2.220792e+003 5.511395e+002 1.876314e+003
         vertex 2.220792e+003 5.508701e+002 1.876386e+003
      endloop
   endfacet
   facet normal 1.000000e+000 9.367507e-017 -1.137566e-016
      outer loop
         vertex 2.220792e+003 5.374174e+002 1.873390e+003
         vertex 2.220792e+003 5.508701e+002 1.876386e+003
         vertex 2.220792e+003 5.506173e+002 1.876504e+003
      endloop
   endfacet
   facet normal 1.000000e+000 9.367507e-017 -1.137566e-016
      outer loop
         vertex 2.220792e+003 5.501917e+002 1.876861e+003
         vertex 2.220792e+003 5.500317e+002 1.877090e+003
         vertex 2.220792e+003 5.374174e+002 1.873390e+003
      endloop
   endfacet
   facet normal 1.000000e+000 9.367507e-017 -1.137566e-016
      outer loop
         vertex 2.220792e+003 5.374174e+002 1.873390e+003
         vertex 2.220792e+003 5.500317e+002 1.877090e+003
         vertex 2.220792e+003 5.499138e+002 1.877343e+003
      endloop
   endfacet
   facet normal 1.000000e+000 9.367507e-017 -1.137566e-016
      outer loop
         vertex 2.220792e+003 5.374174e+002 1.873390e+003
         vertex 2.220792e+003 5.499138e+002 1.877343e+003
         vertex 2.220792e+003 5.498416e+002 1.877612e+003
      endloop
   endfacet
   facet normal 1.000000e+000 9.367507e-017 -1.137566e-016
      outer loop
         vertex 2.220792e+003 5.374174e+002 1.873390e+003
         vertex 2.220792e+003 5.371395e+002 1.876314e+003
         vertex 2.220792e+003 5.368701e+002 1.876386e+003
      endloop
   endfacet
   facet normal 1.000000e+000 9.367507e-017 -1.137566e-016
      outer loop
         vertex 2.220792e+003 5.382173e+002 1.876504e+003
         vertex 2.220792e+003 5.379646e+002 1.876386e+003
         vertex 2.220792e+003 5.498416e+002 1.877612e+003
      endloop
   endfacet
   facet normal 1.000000e+000 9.367507e-017 -1.137566e-016
      outer loop
         vertex 2.220792e+003 5.498416e+002 1.877612e+003
         vertex 2.220792e+003 5.379646e+002 1.876386e+003
         vertex 2.220792e+003 5.376952e+002 1.876314e+003
      endloop
   endfacet
   facet normal 1.000000e+000 9.367507e-017 -1.137566e-016
      outer loop
         vertex 2.220792e+003 5.498416e+002 1.877612e+003
         vertex 2.220792e+003 5.376952e+002 1.876314e+003
         vertex 2.220792e+003 5.374174e+002 1.873390e+003
      endloop
   endfacet
   facet normal 1.000000e+000 9.367507e-017 -1.137566e-016
      outer loop
         vertex 2.220792e+003 5.374174e+002 1.873390e+003
         vertex 2.220792e+003 5.376952e+002 1.876314e+003
         vertex 2.220792e+003 5.374174e+002 1.876290e+003
      endloop
   endfacet
   facet normal 1.000000e+000 9.367507e-017 -1.137566e-016
      outer loop
         vertex 2.220792e+003 5.374174e+002 1.873390e+003
         vertex 2.220792e+003 5.374174e+002 1.876290e+003
         vertex 2.220792e+003 5.371395e+002 1.876314e+003
      endloop
   endfacet
   facet normal 1.000000e+000 9.367507e-017 -1.137566e-016
      outer loop
         vertex 2.220792e+003 5.368701e+002 1.876386e+003
         vertex 2.220792e+003 5.366173e+002 1.876504e+003
         vertex 2.220792e+003 5.374174e+002 1.873390e+003
      endloop
   endfacet
   facet normal 1.000000e+000 9.367507e-017 -1.137566e-016
      outer loop
         vertex 2.220792e+003 5.374174e+002 1.873390e+003
         vertex 2.220792e+003 5.366173e+002 1.876504e+003
         vertex 2.220792e+003 5.363889e+002 1.876664e+003
      endloop
   endfacet
   facet normal 1.000000e+000 9.367507e-017 -1.137566e-016
      outer loop
         vertex 2.220792e+003 5.374174e+002 1.873390e+003
         vertex 2.220792e+003 5.363889e+002 1.876664e+003
         vertex 2.220792e+003 5.334174e+002 1.877390e+003
      endloop
   endfacet
   facet normal 1.000000e+000 9.367507e-017 -1.137566e-016
      outer loop
         vertex 2.220792e+003 5.334174e+002 1.877390e+003
         vertex 2.220792e+003 5.363889e+002 1.876664e+003
         vertex 2.220792e+003 5.361917e+002 1.876861e+003
      endloop
   endfacet
   facet normal 1.000000e+000 9.367507e-017 -1.137566e-016
      outer loop
         vertex 2.220792e+003 5.334174e+002 1.877390e+003
         vertex 2.220792e+003 5.361917e+002 1.876861e+003
         vertex 2.220792e+003 5.360317e+002 1.877090e+003
      endloop
   endfacet
   facet normal 1.201609e-017 -7.071068e-001 -7.071068e-001
      outer loop
         vertex 2.220792e+003 5.374174e+002 1.873390e+003
         vertex 2.220792e+003 5.334174e+002 1.877390e+003
         vertex 2.217792e+003 5.374174e+002 1.873390e+003
      endloop
   endfacet
   facet normal 1.201609e-017 -7.071068e-001 -7.071068e-001
      outer loop
         vertex 2.217792e+003 5.374174e+002 1.873390e+003
         vertex 2.220792e+003 5.334174e+002 1.877390e+003
         vertex 2.217792e+003 5.334174e+002 1.877390e+003
      endloop
   endfacet
   facet normal -1.089658e-016 9.983120e-001 -5.807914e-002
      outer loop
         vertex 2.217792e+003 5.498416e+002 1.878168e+003
         vertex 2.220792e+003 5.498173e+002 1.877890e+003
         vertex 2.217792e+003 5.498173e+002 1.877890e+003
      endloop
   endfacet
   facet normal -9.884960e-017 9.983120e-001 5.807914e-002
      outer loop
         vertex 2.217792e+003 5.498173e+002 1.877890e+003
         vertex 2.220792e+003 5.498173e+002 1.877890e+003
         vertex 2.220792e+003 5.498416e+002 1.877612e+003
      endloop
   endfacet
   facet normal -9.326260e-017 9.932307e-001 1.161583e-001
      outer loop
         vertex 2.217792e+003 5.498173e+002 1.877890e+003
         vertex 2.220792e+003 5.498416e+002 1.877612e+003
         vertex 2.217792e+003 5.498416e+002 1.877612e+003
      endloop
   endfacet
   facet normal -8.120063e-017 9.730601e-001 2.305518e-001
      outer loop
         vertex 2.217792e+003 5.498416e+002 1.877612e+003
         vertex 2.220792e+003 5.498416e+002 1.877612e+003
         vertex 2.220792e+003 5.499138e+002 1.877343e+003
      endloop
   endfacet
   facet normal -7.472564e-017 9.579706e-001 2.868663e-001
      outer loop
         vertex 2.217792e+003 5.498416e+002 1.877612e+003
         vertex 2.220792e+003 5.499138e+002 1.877343e+003
         vertex 2.217792e+003 5.499138e+002 1.877343e+003
      endloop
   endfacet
   facet normal -6.108441e-017 9.182422e-001 3.960194e-001
      outer loop
         vertex 2.217792e+003 5.499138e+002 1.877343e+003
         vertex 2.220792e+003 5.499138e+002 1.877343e+003
         vertex 2.220792e+003 5.500317e+002 1.877090e+003
      endloop
   endfacet
   facet normal -5.391817e-017 8.936031e-001 4.488580e-001
      outer loop
         vertex 2.217792e+003 5.499138e+002 1.877343e+003
         vertex 2.220792e+003 5.500317e+002 1.877090e+003
         vertex 2.217792e+003 5.500317e+002 1.877090e+003
      endloop
   endfacet
   facet normal -3.911219e-017 8.355240e-001 5.494540e-001
      outer loop
         vertex 2.217792e+003 5.500317e+002 1.877090e+003
         vertex 2.220792e+003 5.500317e+002 1.877090e+003
         vertex 2.220792e+003 5.501917e+002 1.876861e+003
      endloop
   endfacet
   facet normal -3.147243e-017 8.020839e-001 5.972114e-001
      outer loop
         vertex 2.217792e+003 5.500317e+002 1.877090e+003
         vertex 2.220792e+003 5.501917e+002 1.876861e+003
         vertex 2.217792e+003 5.501917e+002 1.876861e+003
      endloop
   endfacet
   facet normal -1.595155e-017 7.274188e-001 6.861938e-001
      outer loop
         vertex 2.217792e+003 5.501917e+002 1.876861e+003
         vertex 2.220792e+003 5.501917e+002 1.876861e+003
         vertex 2.220792e+003 5.503889e+002 1.876664e+003
      endloop
   endfacet
   facet normal -8.070419e-018 6.861938e-001 7.274188e-001
      outer loop
         vertex 2.217792e+003 5.501917e+002 1.876861e+003
         vertex 2.220792e+003 5.503889e+002 1.876664e+003
         vertex 2.217792e+003 5.503889e+002 1.876664e+003
      endloop
   endfacet
   facet normal 7.693761e-018 5.972114e-001 8.020839e-001
      outer loop
         vertex 2.217792e+003 5.503889e+002 1.876664e+003
         vertex 2.220792e+003 5.503889e+002 1.876664e+003
         vertex 2.220792e+003 5.506173e+002 1.876504e+003
      endloop
   endfacet
   facet normal 1.557682e-017 5.494540e-001 8.355240e-001
      outer loop
         vertex 2.217792e+003 5.503889e+002 1.876664e+003
         vertex 2.220792e+003 5.506173e+002 1.876504e+003
         vertex 2.217792e+003 5.506173e+002 1.876504e+003
      endloop
   endfacet
   facet normal 3.110530e-017 4.488580e-001 8.936031e-001
      outer loop
         vertex 2.217792e+003 5.506173e+002 1.876504e+003
         vertex 2.220792e+003 5.506173e+002 1.876504e+003
         vertex 2.220792e+003 5.508701e+002 1.876386e+003
      endloop
   endfacet
   facet normal 3.875074e-017 3.960194e-001 9.182422e-001
      outer loop
         vertex 2.217792e+003 5.506173e+002 1.876504e+003
         vertex 2.220792e+003 5.508701e+002 1.876386e+003
         vertex 2.217792e+003 5.508701e+002 1.876386e+003
      endloop
   endfacet
   facet normal 5.357173e-017 2.868663e-001 9.579706e-001
      outer loop
         vertex 2.217792e+003 5.508701e+002 1.876386e+003
         vertex 2.220792e+003 5.508701e+002 1.876386e+003
         vertex 2.220792e+003 5.511395e+002 1.876314e+003
      endloop
   endfacet
   facet normal 6.074726e-017 2.305518e-001 9.730601e-001
      outer loop
         vertex 2.217792e+003 5.508701e+002 1.876386e+003
         vertex 2.220792e+003 5.511395e+002 1.876314e+003
         vertex 2.217792e+003 5.511395e+002 1.876314e+003
      endloop
   endfacet
   facet normal 7.441040e-017 1.161583e-001 9.932307e-001
      outer loop
         vertex 2.217792e+003 5.511395e+002 1.876314e+003
         vertex 2.220792e+003 5.511395e+002 1.876314e+003
         vertex 2.220792e+003 5.514174e+002 1.876290e+003
      endloop
   endfacet
   facet normal 8.089801e-017 5.807914e-002 9.983120e-001
      outer loop
         vertex 2.217792e+003 5.511395e+002 1.876314e+003
         vertex 2.220792e+003 5.514174e+002 1.876290e+003
         vertex 2.217792e+003 5.514174e+002 1.876290e+003
      endloop
   endfacet
   facet normal 9.298816e-017 -5.807914e-002 9.983120e-001
      outer loop
         vertex 2.217792e+003 5.514174e+002 1.876290e+003
         vertex 2.220792e+003 5.514174e+002 1.876290e+003
         vertex 2.220792e+003 5.516952e+002 1.876314e+003
      endloop
   endfacet
   facet normal 9.859070e-017 -1.161583e-001 9.932307e-001
      outer loop
         vertex 2.217792e+003 5.514174e+002 1.876290e+003
         vertex 2.220792e+003 5.516952e+002 1.876314e+003
         vertex 2.217792e+003 5.516952e+002 1.876314e+003
      endloop
   endfacet
   facet normal 1.087405e-016 -2.305518e-001 9.730601e-001
      outer loop
         vertex 2.217792e+003 5.516952e+002 1.876314e+003
         vertex 2.220792e+003 5.516952e+002 1.876314e+003
         vertex 2.220792e+003 5.519646e+002 1.876386e+003
      endloop
   endfacet
   facet normal 1.132878e-016 -2.868663e-001 9.579706e-001
      outer loop
         vertex 2.217792e+003 5.516952e+002 1.876314e+003
         vertex 2.220792e+003 5.519646e+002 1.876386e+003
         vertex 2.217792e+003 5.519646e+002 1.876386e+003
      endloop
   endfacet
   facet normal 1.211888e-016 -3.960194e-001 9.182422e-001
      outer loop
         vertex 2.217792e+003 5.519646e+002 1.876386e+003
         vertex 2.220792e+003 5.519646e+002 1.876386e+003
         vertex 2.220792e+003 5.522173e+002 1.876504e+003
      endloop
   endfacet
   facet normal 1.245426e-016 -4.488580e-001 8.936031e-001
      outer loop
         vertex 2.217792e+003 5.519646e+002 1.876386e+003
         vertex 2.220792e+003 5.522173e+002 1.876504e+003
         vertex 2.217792e+003 5.522173e+002 1.876504e+003
      endloop
   endfacet
   facet normal 1.299549e-016 -5.494540e-001 8.355240e-001
      outer loop
         vertex 2.217792e+003 5.522173e+002 1.876504e+003
         vertex 2.220792e+003 5.522173e+002 1.876504e+003
         vertex 2.220792e+003 5.524457e+002 1.876664e+003
      endloop
   endfacet
   facet normal 1.320134e-016 -5.972114e-001 8.020839e-001
      outer loop
         vertex 2.217792e+003 5.522173e+002 1.876504e+003
         vertex 2.220792e+003 5.524457e+002 1.876664e+003
         vertex 2.217792e+003 5.524457e+002 1.876664e+003
      endloop
   endfacet
   facet normal 1.347724e-016 -6.861938e-001 7.274188e-001
      outer loop
         vertex 2.217792e+003 5.524457e+002 1.876664e+003
         vertex 2.220792e+003 5.524457e+002 1.876664e+003
         vertex 2.220792e+003 5.526430e+002 1.876861e+003
      endloop
   endfacet
   facet normal 1.354729e-016 -7.274188e-001 6.861938e-001
      outer loop
         vertex 2.217792e+003 5.524457e+002 1.876664e+003
         vertex 2.220792e+003 5.526430e+002 1.876861e+003
         vertex 2.217792e+003 5.526430e+002 1.876861e+003
      endloop
   endfacet
   facet normal 1.354948e-016 -8.020839e-001 5.972114e-001
      outer loop
         vertex 2.217792e+003 5.526430e+002 1.876861e+003
         vertex 2.220792e+003 5.526430e+002 1.876861e+003
         vertex 2.220792e+003 5.528030e+002 1.877090e+003
      endloop
   endfacet
   facet normal 1.348162e-016 -8.355240e-001 5.494540e-001
      outer loop
         vertex 2.217792e+003 5.526430e+002 1.876861e+003
         vertex 2.220792e+003 5.528030e+002 1.877090e+003
         vertex 2.217792e+003 5.528030e+002 1.877090e+003
      endloop
   endfacet
   facet normal 1.321003e-016 -8.936031e-001 4.488580e-001
      outer loop
         vertex 2.217792e+003 5.528030e+002 1.877090e+003
         vertex 2.220792e+003 5.528030e+002 1.877090e+003
         vertex 2.220792e+003 5.529208e+002 1.877343e+003
      endloop
   endfacet
   facet normal 1.300631e-016 -9.182422e-001 3.960194e-001
      outer loop
         vertex 2.217792e+003 5.528030e+002 1.877090e+003
         vertex 2.220792e+003 5.529208e+002 1.877343e+003
         vertex 2.217792e+003 5.529208e+002 1.877343e+003
      endloop
   endfacet
   facet normal 1.246921e-016 -9.579706e-001 2.868663e-001
      outer loop
         vertex 2.217792e+003 5.529208e+002 1.877343e+003
         vertex 2.220792e+003 5.529208e+002 1.877343e+003
         vertex 2.220792e+003 5.529930e+002 1.877612e+003
      endloop
   endfacet
   facet normal 1.213582e-016 -9.730601e-001 2.305518e-001
      outer loop
         vertex 2.217792e+003 5.529208e+002 1.877343e+003
         vertex 2.220792e+003 5.529930e+002 1.877612e+003
         vertex 2.217792e+003 5.529930e+002 1.877612e+003
      endloop
   endfacet
   facet normal 1.134951e-016 -9.932307e-001 1.161583e-001
      outer loop
         vertex 2.217792e+003 5.529930e+002 1.877612e+003
         vertex 2.220792e+003 5.529930e+002 1.877612e+003
         vertex 2.220792e+003 5.530173e+002 1.877890e+003
      endloop
   endfacet
   facet normal 1.089658e-016 -9.983120e-001 5.807914e-002
      outer loop
         vertex 2.217792e+003 5.529930e+002 1.877612e+003
         vertex 2.220792e+003 5.530173e+002 1.877890e+003
         vertex 2.217792e+003 5.530173e+002 1.877890e+003
      endloop
   endfacet
   facet normal 9.884960e-017 -9.983120e-001 -5.807914e-002
      outer loop
         vertex 2.217792e+003 5.530173e+002 1.877890e+003
         vertex 2.220792e+003 5.530173e+002 1.877890e+003
         vertex 2.220792e+003 5.529930e+002 1.878168e+003
      endloop
   endfacet
   facet normal 9.326260e-017 -9.932307e-001 -1.161583e-001
      outer loop
         vertex 2.217792e+003 5.530173e+002 1.877890e+003
         vertex 2.220792e+003 5.529930e+002 1.878168e+003
         vertex 2.217792e+003 5.529930e+002 1.878168e+003
      endloop
   endfacet
   facet normal 8.120063e-017 -9.730601e-001 -2.305518e-001
      outer loop
         vertex 2.217792e+003 5.529930e+002 1.878168e+003
         vertex 2.220792e+003 5.529930e+002 1.878168e+003
         vertex 2.220792e+003 5.529208e+002 1.878437e+003
      endloop
   endfacet
   facet normal 7.472564e-017 -9.579706e-001 -2.868663e-001
      outer loop
         vertex 2.217792e+003 5.529930e+002 1.878168e+003
         vertex 2.220792e+003 5.529208e+002 1.878437e+003
         vertex 2.217792e+003 5.529208e+002 1.878437e+003
      endloop
   endfacet
   facet normal 6.108441e-017 -9.182422e-001 -3.960194e-001
      outer loop
         vertex 2.217792e+003 5.529208e+002 1.878437e+003
         vertex 2.220792e+003 5.529208e+002 1.878437e+003
         vertex 2.220792e+003 5.528030e+002 1.878690e+003
      endloop
   endfacet
   facet normal 5.391817e-017 -8.936031e-001 -4.488580e-001
      outer loop
         vertex 2.217792e+003 5.529208e+002 1.878437e+003
         vertex 2.220792e+003 5.528030e+002 1.878690e+003
         vertex 2.217792e+003 5.528030e+002 1.878690e+003
      endloop
   endfacet
   facet normal 3.911219e-017 -8.355240e-001 -5.494540e-001
      outer loop
         vertex 2.217792e+003 5.528030e+002 1.878690e+003
         vertex 2.220792e+003 5.528030e+002 1.878690e+003
         vertex 2.220792e+003 5.526430e+002 1.878918e+003
      endloop
   endfacet
   facet normal 3.147243e-017 -8.020839e-001 -5.972114e-001
      outer loop
         vertex 2.217792e+003 5.528030e+002 1.878690e+003
         vertex 2.220792e+003 5.526430e+002 1.878918e+003
         vertex 2.217792e+003 5.526430e+002 1.878918e+003
      endloop
   endfacet
   facet normal 1.595155e-017 -7.274188e-001 -6.861938e-001
      outer loop
         vertex 2.217792e+003 5.526430e+002 1.878918e+003
         vertex 2.220792e+003 5.526430e+002 1.878918e+003
         vertex 2.220792e+003 5.524457e+002 1.879116e+003
      endloop
   endfacet
   facet normal 8.070419e-018 -6.861938e-001 -7.274188e-001
      outer loop
         vertex 2.217792e+003 5.526430e+002 1.878918e+003
         vertex 2.220792e+003 5.524457e+002 1.879116e+003
         vertex 2.217792e+003 5.524457e+002 1.879116e+003
      endloop
   endfacet
   facet normal -7.693761e-018 -5.972114e-001 -8.020839e-001
      outer loop
         vertex 2.217792e+003 5.524457e+002 1.879116e+003
         vertex 2.220792e+003 5.524457e+002 1.879116e+003
         vertex 2.220792e+003 5.522173e+002 1.879276e+003
      endloop
   endfacet
   facet normal -1.557682e-017 -5.494540e-001 -8.355240e-001
      outer loop
         vertex 2.217792e+003 5.524457e+002 1.879116e+003
         vertex 2.220792e+003 5.522173e+002 1.879276e+003
         vertex 2.217792e+003 5.522173e+002 1.879276e+003
      endloop
   endfacet
   facet normal -3.110530e-017 -4.488580e-001 -8.936031e-001
      outer loop
         vertex 2.217792e+003 5.522173e+002 1.879276e+003
         vertex 2.220792e+003 5.522173e+002 1.879276e+003
         vertex 2.220792e+003 5.519646e+002 1.879393e+003
      endloop
   endfacet
   facet normal -3.875074e-017 -3.960194e-001 -9.182422e-001
      outer loop
         vertex 2.217792e+003 5.522173e+002 1.879276e+003
         vertex 2.220792e+003 5.519646e+002 1.879393e+003
         vertex 2.217792e+003 5.519646e+002 1.879393e+003
      endloop
   endfacet
   facet normal -5.357173e-017 -2.868663e-001 -9.579706e-001
      outer loop
         vertex 2.217792e+003 5.519646e+002 1.879393e+003
         vertex 2.220792e+003 5.519646e+002 1.879393e+003
         vertex 2.220792e+003 5.516952e+002 1.879466e+003
      endloop
   endfacet
   facet normal -6.074726e-017 -2.305518e-001 -9.730601e-001
      outer loop
         vertex 2.217792e+003 5.519646e+002 1.879393e+003
         vertex 2.220792e+003 5.516952e+002 1.879466e+003
         vertex 2.217792e+003 5.516952e+002 1.879466e+003
      endloop
   endfacet
   facet normal -7.441040e-017 -1.161583e-001 -9.932307e-001
      outer loop
         vertex 2.217792e+003 5.516952e+002 1.879466e+003
         vertex 2.220792e+003 5.516952e+002 1.879466e+003
         vertex 2.220792e+003 5.514174e+002 1.879490e+003
      endloop
   endfacet
   facet normal -8.089801e-017 -5.807914e-002 -9.983120e-001
      outer loop
         vertex 2.217792e+003 5.516952e+002 1.879466e+003
         vertex 2.220792e+003 5.514174e+002 1.879490e+003
         vertex 2.217792e+003 5.514174e+002 1.879490e+003
      endloop
   endfacet
   facet normal -9.298816e-017 5.807914e-002 -9.983120e-001
      outer loop
         vertex 2.217792e+003 5.514174e+002 1.879490e+003
         vertex 2.220792e+003 5.514174e+002 1.879490e+003
         vertex 2.220792e+003 5.511395e+002 1.879466e+003
      endloop
   endfacet
   facet normal -9.859070e-017 1.161583e-001 -9.932307e-001
      outer loop
         vertex 2.217792e+003 5.514174e+002 1.879490e+003
         vertex 2.220792e+003 5.511395e+002 1.879466e+003
         vertex 2.217792e+003 5.511395e+002 1.879466e+003
      endloop
   endfacet
   facet normal -1.087405e-016 2.305518e-001 -9.730601e-001
      outer loop
         vertex 2.217792e+003 5.511395e+002 1.879466e+003
         vertex 2.220792e+003 5.511395e+002 1.879466e+003
         vertex 2.220792e+003 5.508701e+002 1.879393e+003
      endloop
   endfacet
   facet normal -1.132878e-016 2.868663e-001 -9.579706e-001
      outer loop
         vertex 2.217792e+003 5.511395e+002 1.879466e+003
         vertex 2.220792e+003 5.508701e+002 1.879393e+003
         vertex 2.217792e+003 5.508701e+002 1.879393e+003
      endloop
   endfacet
   facet normal -1.211888e-016 3.960194e-001 -9.182422e-001
      outer loop
         vertex 2.217792e+003 5.508701e+002 1.879393e+003
         vertex 2.220792e+003 5.508701e+002 1.879393e+003
         vertex 2.220792e+003 5.506173e+002 1.879276e+003
      endloop
   endfacet
   facet normal -1.245426e-016 4.488580e-001 -8.936031e-001
      outer loop
         vertex 2.217792e+003 5.508701e+002 1.879393e+003
         vertex 2.220792e+003 5.506173e+002 1.879276e+003
         vertex 2.217792e+003 5.506173e+002 1.879276e+003
      endloop
   endfacet
   facet normal -1.299549e-016 5.494540e-001 -8.355240e-001
      outer loop
         vertex 2.217792e+003 5.506173e+002 1.879276e+003
         vertex 2.220792e+003 5.506173e+002 1.879276e+003
         vertex 2.220792e+003 5.503889e+002 1.879116e+003
      endloop
   endfacet
   facet normal -1.320134e-016 5.972114e-001 -8.020839e-001
      outer loop
         vertex 2.217792e+003 5.506173e+002 1.879276e+003
         vertex 2.220792e+003 5.503889e+002 1.879116e+003
         vertex 2.217792e+003 5.503889e+002 1.879116e+003
      endloop
   endfacet
   facet normal -1.347724e-016 6.861938e-001 -7.274188e-001
      outer loop
         vertex 2.217792e+003 5.503889e+002 1.879116e+003
         vertex 2.220792e+003 5.503889e+002 1.879116e+003
         vertex 2.220792e+003 5.501917e+002 1.878918e+003
      endloop
   endfacet
   facet normal -1.354729e-016 7.274188e-001 -6.861938e-001
      outer loop
         vertex 2.217792e+003 5.503889e+002 1.879116e+003
         vertex 2.220792e+003 5.501917e+002 1.878918e+003
         vertex 2.217792e+003 5.501917e+002 1.878918e+003
      endloop
   endfacet
   facet normal -1.354948e-016 8.020839e-001 -5.972114e-001
      outer loop
         vertex 2.217792e+003 5.501917e+002 1.878918e+003
         vertex 2.220792e+003 5.501917e+002 1.878918e+003
         vertex 2.220792e+003 5.500317e+002 1.878690e+003
      endloop
   endfacet
   facet normal -1.348162e-016 8.355240e-001 -5.494540e-001
      outer loop
         vertex 2.217792e+003 5.501917e+002 1.878918e+003
         vertex 2.220792e+003 5.500317e+002 1.878690e+003
         vertex 2.217792e+003 5.500317e+002 1.878690e+003
      endloop
   endfacet
   facet normal -1.321003e-016 8.936031e-001 -4.488580e-001
      outer loop
         vertex 2.217792e+003 5.500317e+002 1.878690e+003
         vertex 2.220792e+003 5.500317e+002 1.878690e+003
         vertex 2.220792e+003 5.499138e+002 1.878437e+003
      endloop
   endfacet
   facet normal -1.300631e-016 9.182422e-001 -3.960194e-001
      outer loop
         vertex 2.217792e+003 5.500317e+002 1.878690e+003
         vertex 2.220792e+003 5.499138e+002 1.878437e+003
         vertex 2.217792e+003 5.499138e+002 1.878437e+003
      endloop
   endfacet
   facet normal -1.246921e-016 9.579706e-001 -2.868663e-001
      outer loop
         vertex 2.217792e+003 5.499138e+002 1.878437e+003
         vertex 2.220792e+003 5.499138e+002 1.878437e+003
         vertex 2.220792e+003 5.498416e+002 1.878168e+003
      endloop
   endfacet
   facet normal -1.213582e-016 9.730601e-001 -2.305518e-001
      outer loop
         vertex 2.217792e+003 5.499138e+002 1.878437e+003
         vertex 2.220792e+003 5.498416e+002 1.878168e+003
         vertex 2.217792e+003 5.498416e+002 1.878168e+003
      endloop
   endfacet
   facet normal -1.134951e-016 9.932307e-001 -1.161583e-001
      outer loop
         vertex 2.217792e+003 5.498416e+002 1.878168e+003
         vertex 2.220792e+003 5.498416e+002 1.878168e+003
         vertex 2.220792e+003 5.498173e+002 1.877890e+003
      endloop
   endfacet
   facet normal -1.089658e-016 9.983120e-001 -5.807914e-002
      outer loop
         vertex 2.217792e+003 5.358416e+002 1.878168e+003
         vertex 2.220792e+003 5.358173e+002 1.877890e+003
         vertex 2.217792e+003 5.358173e+002 1.877890e+003
      endloop
   endfacet
   facet normal -9.884960e-017 9.983120e-001 5.807914e-002
      outer loop
         vertex 2.217792e+003 5.358173e+002 1.877890e+003
         vertex 2.220792e+003 5.358173e+002 1.877890e+003
         vertex 2.220792e+003 5.358416e+002 1.877612e+003
      endloop
   endfacet
   facet normal -9.326260e-017 9.932307e-001 1.161583e-001
      outer loop
         vertex 2.217792e+003 5.358173e+002 1.877890e+003
         vertex 2.220792e+003 5.358416e+002 1.877612e+003
         vertex 2.217792e+003 5.358416e+002 1.877612e+003
      endloop
   endfacet
   facet normal -8.120063e-017 9.730601e-001 2.305518e-001
      outer loop
         vertex 2.217792e+003 5.358416e+002 1.877612e+003
         vertex 2.220792e+003 5.358416e+002 1.877612e+003
         vertex 2.220792e+003 5.359138e+002 1.877343e+003
      endloop
   endfacet
   facet normal -7.472564e-017 9.579706e-001 2.868663e-001
      outer loop
         vertex 2.217792e+003 5.358416e+002 1.877612e+003
         vertex 2.220792e+003 5.359138e+002 1.877343e+003
         vertex 2.217792e+003 5.359138e+002 1.877343e+003
      endloop
   endfacet
   facet normal -6.108441e-017 9.182422e-001 3.960194e-001
      outer loop
         vertex 2.217792e+003 5.359138e+002 1.877343e+003
         vertex 2.220792e+003 5.359138e+002 1.877343e+003
         vertex 2.220792e+003 5.360317e+002 1.877090e+003
      endloop
   endfacet
   facet normal -5.391817e-017 8.936031e-001 4.488580e-001
      outer loop
         vertex 2.217792e+003 5.359138e+002 1.877343e+003
         vertex 2.220792e+003 5.360317e+002 1.877090e+003
         vertex 2.217792e+003 5.360317e+002 1.877090e+003
      endloop
   endfacet
   facet normal -3.911219e-017 8.355240e-001 5.494540e-001
      outer loop
         vertex 2.217792e+003 5.360317e+002 1.877090e+003
         vertex 2.220792e+003 5.360317e+002 1.877090e+003
         vertex 2.220792e+003 5.361917e+002 1.876861e+003
      endloop
   endfacet
   facet normal -3.147243e-017 8.020839e-001 5.972114e-001
      outer loop
         vertex 2.217792e+003 5.360317e+002 1.877090e+003
         vertex 2.220792e+003 5.361917e+002 1.876861e+003
         vertex 2.217792e+003 5.361917e+002 1.876861e+003
      endloop
   endfacet
   facet normal -1.595155e-017 7.274188e-001 6.861938e-001
      outer loop
         vertex 2.217792e+003 5.361917e+002 1.876861e+003
         vertex 2.220792e+003 5.361917e+002 1.876861e+003
         vertex 2.220792e+003 5.363889e+002 1.876664e+003
      endloop
   endfacet
   facet normal -8.070419e-018 6.861938e-001 7.274188e-001
      outer loop
         vertex 2.217792e+003 5.361917e+002 1.876861e+003
         vertex 2.220792e+003 5.363889e+002 1.876664e+003
         vertex 2.217792e+003 5.363889e+002 1.876664e+003
      endloop
   endfacet
   facet normal 7.693761e-018 5.972114e-001 8.020839e-001
      outer loop
         vertex 2.217792e+003 5.363889e+002 1.876664e+003
         vertex 2.220792e+003 5.363889e+002 1.876664e+003
         vertex 2.220792e+003 5.366173e+002 1.876504e+003
      endloop
   endfacet
   facet normal 1.557682e-017 5.494540e-001 8.355240e-001
      outer loop
         vertex 2.217792e+003 5.363889e+002 1.876664e+003
         vertex 2.220792e+003 5.366173e+002 1.876504e+003
         vertex 2.217792e+003 5.366173e+002 1.876504e+003
      endloop
   endfacet
   facet normal 3.110530e-017 4.488580e-001 8.936031e-001
      outer loop
         vertex 2.217792e+003 5.366173e+002 1.876504e+003
         vertex 2.220792e+003 5.366173e+002 1.876504e+003
         vertex 2.220792e+003 5.368701e+002 1.876386e+003
      endloop
   endfacet
   facet normal 3.875074e-017 3.960194e-001 9.182422e-001
      outer loop
         vertex 2.217792e+003 5.366173e+002 1.876504e+003
         vertex 2.220792e+003 5.368701e+002 1.876386e+003
         vertex 2.217792e+003 5.368701e+002 1.876386e+003
      endloop
   endfacet
   facet normal 5.357173e-017 2.868663e-001 9.579706e-001
      outer loop
         vertex 2.217792e+003 5.368701e+002 1.876386e+003
         vertex 2.220792e+003 5.368701e+002 1.876386e+003
         vertex 2.220792e+003 5.371395e+002 1.876314e+003
      endloop
   endfacet
   facet normal 6.074726e-017 2.305518e-001 9.730601e-001
      outer loop
         vertex 2.217792e+003 5.368701e+002 1.876386e+003
         vertex 2.220792e+003 5.371395e+002 1.876314e+003
         vertex 2.217792e+003 5.371395e+002 1.876314e+003
      endloop
   endfacet
   facet normal 7.441040e-017 1.161583e-001 9.932307e-001
      outer loop
         vertex 2.217792e+003 5.371395e+002 1.876314e+003
         vertex 2.220792e+003 5.371395e+002 1.876314e+003
         vertex 2.220792e+003 5.374174e+002 1.876290e+003
      endloop
   endfacet
   facet normal 8.089801e-017 5.807914e-002 9.983120e-001
      outer loop
         vertex 2.217792e+003 5.371395e+002 1.876314e+003
         vertex 2.220792e+003 5.374174e+002 1.876290e+003
         vertex 2.217792e+003 5.374174e+002 1.876290e+003
      endloop
   endfacet
   facet normal 9.298816e-017 -5.807914e-002 9.983120e-001
      outer loop
         vertex 2.217792e+003 5.374174e+002 1.876290e+003
         vertex 2.220792e+003 5.374174e+002 1.876290e+003
         vertex 2.220792e+003 5.376952e+002 1.876314e+003
      endloop
   endfacet
   facet normal 9.859070e-017 -1.161583e-001 9.932307e-001
      outer loop
         vertex 2.217792e+003 5.374174e+002 1.876290e+003
         vertex 2.220792e+003 5.376952e+002 1.876314e+003
         vertex 2.217792e+003 5.376952e+002 1.876314e+003
      endloop
   endfacet
   facet normal 1.087405e-016 -2.305518e-001 9.730601e-001
      outer loop
         vertex 2.217792e+003 5.376952e+002 1.876314e+003
         vertex 2.220792e+003 5.376952e+002 1.876314e+003
         vertex 2.220792e+003 5.379646e+002 1.876386e+003
      endloop
   endfacet
   facet normal 1.132878e-016 -2.868663e-001 9.579706e-001
      outer loop
         vertex 2.217792e+003 5.376952e+002 1.876314e+003
         vertex 2.220792e+003 5.379646e+002 1.876386e+003
         vertex 2.217792e+003 5.379646e+002 1.876386e+003
      endloop
   endfacet
   facet normal 1.211888e-016 -3.960194e-001 9.182422e-001
      outer loop
         vertex 2.217792e+003 5.379646e+002 1.876386e+003
         vertex 2.220792e+003 5.379646e+002 1.876386e+003
         vertex 2.220792e+003 5.382173e+002 1.876504e+003
      endloop
   endfacet
   facet normal 1.245426e-016 -4.488580e-001 8.936031e-001
      outer loop
         vertex 2.217792e+003 5.379646e+002 1.876386e+003
         vertex 2.220792e+003 5.382173e+002 1.876504e+003
         vertex 2.217792e+003 5.382173e+002 1.876504e+003
      endloop
   endfacet
   facet normal 1.299549e-016 -5.494540e-001 8.355240e-001
      outer loop
         vertex 2.217792e+003 5.382173e+002 1.876504e+003
         vertex 2.220792e+003 5.382173e+002 1.876504e+003
         vertex 2.220792e+003 5.384458e+002 1.876664e+003
      endloop
   endfacet
   facet normal 1.320134e-016 -5.972114e-001 8.020839e-001
      outer loop
         vertex 2.217792e+003 5.382173e+002 1.876504e+003
         vertex 2.220792e+003 5.384458e+002 1.876664e+003
         vertex 2.217792e+003 5.384458e+002 1.876664e+003
      endloop
   endfacet
   facet normal 1.347724e-016 -6.861938e-001 7.274188e-001
      outer loop
         vertex 2.217792e+003 5.384458e+002 1.876664e+003
         vertex 2.220792e+003 5.384458e+002 1.876664e+003
         vertex 2.220792e+003 5.386430e+002 1.876861e+003
      endloop
   endfacet
   facet normal 1.354729e-016 -7.274188e-001 6.861938e-001
      outer loop
         vertex 2.217792e+003 5.384458e+002 1.876664e+003
         vertex 2.220792e+003 5.386430e+002 1.876861e+003
         vertex 2.217792e+003 5.386430e+002 1.876861e+003
      endloop
   endfacet
   facet normal 1.354948e-016 -8.020839e-001 5.972114e-001
      outer loop
         vertex 2.217792e+003 5.386430e+002 1.876861e+003
         vertex 2.220792e+003 5.386430e+002 1.876861e+003
         vertex 2.220792e+003 5.388030e+002 1.877090e+003
      endloop
   endfacet
   facet normal 1.348162e-016 -8.355240e-001 5.494540e-001
      outer loop
         vertex 2.217792e+003 5.386430e+002 1.876861e+003
         vertex 2.220792e+003 5.388030e+002 1.877090e+003
         vertex 2.217792e+003 5.388030e+002 1.877090e+003
      endloop
   endfacet
   facet normal 1.321003e-016 -8.936031e-001 4.488580e-001
      outer loop
         vertex 2.217792e+003 5.388030e+002 1.877090e+003
         vertex 2.220792e+003 5.388030e+002 1.877090e+003
         vertex 2.220792e+003 5.389208e+002 1.877343e+003
      endloop
   endfacet
   facet normal 1.300631e-016 -9.182422e-001 3.960194e-001
      outer loop
         vertex 2.217792e+003 5.388030e+002 1.877090e+003
         vertex 2.220792e+003 5.389208e+002 1.877343e+003
         vertex 2.217792e+003 5.389208e+002 1.877343e+003
      endloop
   endfacet
   facet normal 1.246921e-016 -9.579706e-001 2.868663e-001
      outer loop
         vertex 2.217792e+003 5.389208e+002 1.877343e+003
         vertex 2.220792e+003 5.389208e+002 1.877343e+003
         vertex 2.220792e+003 5.389930e+002 1.877612e+003
      endloop
   endfacet
   facet normal 1.213582e-016 -9.730601e-001 2.305518e-001
      outer loop
         vertex 2.217792e+003 5.389208e+002 1.877343e+003
         vertex 2.220792e+003 5.389930e+002 1.877612e+003
         vertex 2.217792e+003 5.389930e+002 1.877612e+003
      endloop
   endfacet
   facet normal 1.134951e-016 -9.932307e-001 1.161583e-001
      outer loop
         vertex 2.217792e+003 5.389930e+002 1.877612e+003
         vertex 2.220792e+003 5.389930e+002 1.877612e+003
         vertex 2.220792e+003 5.390173e+002 1.877890e+003
      endloop
   endfacet
   facet normal 1.089658e-016 -9.983120e-001 5.807914e-002
      outer loop
         vertex 2.217792e+003 5.389930e+002 1.877612e+003
         vertex 2.220792e+003 5.390173e+002 1.877890e+003
         vertex 2.217792e+003 5.390173e+002 1.877890e+003
      endloop
   endfacet
   facet normal 9.884960e-017 -9.983120e-001 -5.807914e-002
      outer loop
         vertex 2.217792e+003 5.390173e+002 1.877890e+003
         vertex 2.220792e+003 5.390173e+002 1.877890e+003
         vertex 2.220792e+003 5.389930e+002 1.878168e+003
      endloop
   endfacet
   facet normal 9.326260e-017 -9.932307e-001 -1.161583e-001
      outer loop
         vertex 2.217792e+003 5.390173e+002 1.877890e+003
         vertex 2.220792e+003 5.389930e+002 1.878168e+003
         vertex 2.217792e+003 5.389930e+002 1.878168e+003
      endloop
   endfacet
   facet normal 8.120063e-017 -9.730601e-001 -2.305518e-001
      outer loop
         vertex 2.217792e+003 5.389930e+002 1.878168e+003
         vertex 2.220792e+003 5.389930e+002 1.878168e+003
         vertex 2.220792e+003 5.389208e+002 1.878437e+003
      endloop
   endfacet
   facet normal 7.472564e-017 -9.579706e-001 -2.868663e-001
      outer loop
         vertex 2.217792e+003 5.389930e+002 1.878168e+003
         vertex 2.220792e+003 5.389208e+002 1.878437e+003
         vertex 2.217792e+003 5.389208e+002 1.878437e+003
      endloop
   endfacet
   facet normal 6.108441e-017 -9.182422e-001 -3.960194e-001
      outer loop
         vertex 2.217792e+003 5.389208e+002 1.878437e+003
         vertex 2.220792e+003 5.389208e+002 1.878437e+003
         vertex 2.220792e+003 5.388030e+002 1.878690e+003
      endloop
   endfacet
   facet normal 5.391817e-017 -8.936031e-001 -4.488580e-001
      outer loop
         vertex 2.217792e+003 5.389208e+002 1.878437e+003
         vertex 2.220792e+003 5.388030e+002 1.878690e+003
         vertex 2.217792e+003 5.388030e+002 1.878690e+003
      endloop
   endfacet
   facet normal 3.911219e-017 -8.355240e-001 -5.494540e-001
      outer loop
         vertex 2.217792e+003 5.388030e+002 1.878690e+003
         vertex 2.220792e+003 5.388030e+002 1.878690e+003
         vertex 2.220792e+003 5.386430e+002 1.878918e+003
      endloop
   endfacet
   facet normal 3.147243e-017 -8.020839e-001 -5.972114e-001
      outer loop
         vertex 2.217792e+003 5.388030e+002 1.878690e+003
         vertex 2.220792e+003 5.386430e+002 1.878918e+003
         vertex 2.217792e+003 5.386430e+002 1.878918e+003
      endloop
   endfacet
   facet normal 1.595155e-017 -7.274188e-001 -6.861938e-001
      outer loop
         vertex 2.217792e+003 5.386430e+002 1.878918e+003
         vertex 2.220792e+003 5.386430e+002 1.878918e+003
         vertex 2.220792e+003 5.384458e+002 1.879116e+003
      endloop
   endfacet
   facet normal 8.070419e-018 -6.861938e-001 -7.274188e-001
      outer loop
         vertex 2.217792e+003 5.386430e+002 1.878918e+003
         vertex 2.220792e+003 5.384458e+002 1.879116e+003
         vertex 2.217792e+003 5.384458e+002 1.879116e+003
      endloop
   endfacet
   facet normal -7.693761e-018 -5.972114e-001 -8.020839e-001
      outer loop
         vertex 2.217792e+003 5.384458e+002 1.879116e+003
         vertex 2.220792e+003 5.384458e+002 1.879116e+003
         vertex 2.220792e+003 5.382173e+002 1.879276e+003
      endloop
   endfacet
   facet normal -1.557682e-017 -5.494540e-001 -8.355240e-001
      outer loop
         vertex 2.217792e+003 5.384458e+002 1.879116e+003
         vertex 2.220792e+003 5.382173e+002 1.879276e+003
         vertex 2.217792e+003 5.382173e+002 1.879276e+003
      endloop
   endfacet
   facet normal -3.110530e-017 -4.488580e-001 -8.936031e-001
      outer loop
         vertex 2.217792e+003 5.382173e+002 1.879276e+003
         vertex 2.220792e+003 5.382173e+002 1.879276e+003
         vertex 2.220792e+003 5.379646e+002 1.879393e+003
      endloop
   endfacet
   facet normal -3.875074e-017 -3.960194e-001 -9.182422e-001
      outer loop
         vertex 2.217792e+003 5.382173e+002 1.879276e+003
         vertex 2.220792e+003 5.379646e+002 1.879393e+003
         vertex 2.217792e+003 5.379646e+002 1.879393e+003
      endloop
   endfacet
   facet normal -5.357173e-017 -2.868663e-001 -9.579706e-001
      outer loop
         vertex 2.217792e+003 5.379646e+002 1.879393e+003
         vertex 2.220792e+003 5.379646e+002 1.879393e+003
         vertex 2.220792e+003 5.376952e+002 1.879466e+003
      endloop
   endfacet
   facet normal -6.074726e-017 -2.305518e-001 -9.730601e-001
      outer loop
         vertex 2.217792e+003 5.379646e+002 1.879393e+003
         vertex 2.220792e+003 5.376952e+002 1.879466e+003
         vertex 2.217792e+003 5.376952e+002 1.879466e+003
      endloop
   endfacet
   facet normal -7.441040e-017 -1.161583e-001 -9.932307e-001
      outer loop
         vertex 2.217792e+003 5.376952e+002 1.879466e+003
         vertex 2.220792e+003 5.376952e+002 1.879466e+003
         vertex 2.220792e+003 5.374174e+002 1.879490e+003
      endloop
   endfacet
   facet normal -8.089801e-017 -5.807914e-002 -9.983120e-001
      outer loop
         vertex 2.217792e+003 5.376952e+002 1.879466e+003
         vertex 2.220792e+003 5.374174e+002 1.879490e+003
         vertex 2.217792e+003 5.374174e+002 1.879490e+003
      endloop
   endfacet
   facet normal -9.298816e-017 5.807914e-002 -9.983120e-001
      outer loop
         vertex 2.217792e+003 5.374174e+002 1.879490e+003
         vertex 2.220792e+003 5.374174e+002 1.879490e+003
         vertex 2.220792e+003 5.371395e+002 1.879466e+003
      endloop
   endfacet
   facet normal -9.859070e-017 1.161583e-001 -9.932307e-001
      outer loop
         vertex 2.217792e+003 5.374174e+002 1.879490e+003
         vertex 2.220792e+003 5.371395e+002 1.879466e+003
         vertex 2.217792e+003 5.371395e+002 1.879466e+003
      endloop
   endfacet
   facet normal -1.087405e-016 2.305518e-001 -9.730601e-001
      outer loop
         vertex 2.217792e+003 5.371395e+002 1.879466e+003
         vertex 2.220792e+003 5.371395e+002 1.879466e+003
         vertex 2.220792e+003 5.368701e+002 1.879393e+003
      endloop
   endfacet
   facet normal -1.132878e-016 2.868663e-001 -9.579706e-001
      outer loop
         vertex 2.217792e+003 5.371395e+002 1.879466e+003
         vertex 2.220792e+003 5.368701e+002 1.879393e+003
         vertex 2.217792e+003 5.368701e+002 1.879393e+003
      endloop
   endfacet
   facet normal -1.211888e-016 3.960194e-001 -9.182422e-001
      outer loop
         vertex 2.217792e+003 5.368701e+002 1.879393e+003
         vertex 2.220792e+003 5.368701e+002 1.879393e+003
         vertex 2.220792e+003 5.366173e+002 1.879276e+003
      endloop
   endfacet
   facet normal -1.245426e-016 4.488580e-001 -8.936031e-001
      outer loop
         vertex 2.217792e+003 5.368701e+002 1.879393e+003
         vertex 2.220792e+003 5.366173e+002 1.879276e+003
         vertex 2.217792e+003 5.366173e+002 1.879276e+003
      endloop
   endfacet
   facet normal -1.299549e-016 5.494540e-001 -8.355240e-001
      outer loop
         vertex 2.217792e+003 5.366173e+002 1.879276e+003
         vertex 2.220792e+003 5.366173e+002 1.879276e+003
         vertex 2.220792e+003 5.363889e+002 1.879116e+003
      endloop
   endfacet
   facet normal -1.320134e-016 5.972114e-001 -8.020839e-001
      outer loop
         vertex 2.217792e+003 5.366173e+002 1.879276e+003
         vertex 2.220792e+003 5.363889e+002 1.879116e+003
         vertex 2.217792e+003 5.363889e+002 1.879116e+003
      endloop
   endfacet
   facet normal -1.347724e-016 6.861938e-001 -7.274188e-001
      outer loop
         vertex 2.217792e+003 5.363889e+002 1.879116e+003
         vertex 2.220792e+003 5.363889e+002 1.879116e+003
         vertex 2.220792e+003 5.361917e+002 1.878918e+003
      endloop
   endfacet
   facet normal -1.354729e-016 7.274188e-001 -6.861938e-001
      outer loop
         vertex 2.217792e+003 5.363889e+002 1.879116e+003
         vertex 2.220792e+003 5.361917e+002 1.878918e+003
         vertex 2.217792e+003 5.361917e+002 1.878918e+003
      endloop
   endfacet
   facet normal -1.354948e-016 8.020839e-001 -5.972114e-001
      outer loop
         vertex 2.217792e+003 5.361917e+002 1.878918e+003
         vertex 2.220792e+003 5.361917e+002 1.878918e+003
         vertex 2.220792e+003 5.360317e+002 1.878690e+003
      endloop
   endfacet
   facet normal -1.348162e-016 8.355240e-001 -5.494540e-001
      outer loop
         vertex 2.217792e+003 5.361917e+002 1.878918e+003
         vertex 2.220792e+003 5.360317e+002 1.878690e+003
         vertex 2.217792e+003 5.360317e+002 1.878690e+003
      endloop
   endfacet
   facet normal -1.321003e-016 8.936031e-001 -4.488580e-001
      outer loop
         vertex 2.217792e+003 5.360317e+002 1.878690e+003
         vertex 2.220792e+003 5.360317e+002 1.878690e+003
         vertex 2.220792e+003 5.359138e+002 1.878437e+003
      endloop
   endfacet
   facet normal -1.300631e-016 9.182422e-001 -3.960194e-001
      outer loop
         vertex 2.217792e+003 5.360317e+002 1.878690e+003
         vertex 2.220792e+003 5.359138e+002 1.878437e+003
         vertex 2.217792e+003 5.359138e+002 1.878437e+003
      endloop
   endfacet
   facet normal -1.246921e-016 9.579706e-001 -2.868663e-001
      outer loop
         vertex 2.217792e+003 5.359138e+002 1.878437e+003
         vertex 2.220792e+003 5.359138e+002 1.878437e+003
         vertex 2.220792e+003 5.358416e+002 1.878168e+003
      endloop
   endfacet
   facet normal -1.213582e-016 9.730601e-001 -2.305518e-001
      outer loop
         vertex 2.217792e+003 5.359138e+002 1.878437e+003
         vertex 2.220792e+003 5.358416e+002 1.878168e+003
         vertex 2.217792e+003 5.358416e+002 1.878168e+003
      endloop
   endfacet
   facet normal -1.134951e-016 9.932307e-001 -1.161583e-001
      outer loop
         vertex 2.217792e+003 5.358416e+002 1.878168e+003
         vertex 2.220792e+003 5.358416e+002 1.878168e+003
         vertex 2.220792e+003 5.358173e+002 1.877890e+003
      endloop
   endfacet
endsolid