solid 09.025.00.00.000 - 09.025.00.08.000-2 09.025.00.08.025-1
   facet normal 6.245005e-017 1.000000e+000 -1.162265e-016
      outer loop
         vertex 2.043792e+003 1.093417e+003 1.948390e+003
         vertex 2.043792e+003 1.093417e+003 1.873390e+003
         vertex 2.038792e+003 1.093417e+003 1.948390e+003
      endloop
   endfacet
   facet normal 6.245005e-017 1.000000e+000 -1.162265e-016
      outer loop
         vertex 2.038792e+003 1.093417e+003 1.948390e+003
         vertex 2.043792e+003 1.093417e+003 1.873390e+003
         vertex 2.038792e+003 1.093417e+003 1.873390e+003
      endloop
   endfacet
   facet normal -2.278945e-016 9.677449e-017 1.000000e+000
      outer loop
         vertex 2.043792e+003 1.073417e+003 1.948390e+003
         vertex 2.043792e+003 1.093417e+003 1.948390e+003
         vertex 2.038792e+003 1.073417e+003 1.948390e+003
      endloop
   endfacet
   facet normal -2.278945e-016 9.677449e-017 1.000000e+000
      outer loop
         vertex 2.038792e+003 1.073417e+003 1.948390e+003
         vertex 2.043792e+003 1.093417e+003 1.948390e+003
         vertex 2.038792e+003 1.093417e+003 1.948390e+003
      endloop
   endfacet
   facet normal -6.245005e-017 -1.000000e+000 1.624858e-016
      outer loop
         vertex 2.043792e+003 1.073417e+003 1.873390e+003
         vertex 2.043792e+003 1.073417e+003 1.948390e+003
         vertex 2.038792e+003 1.073417e+003 1.873390e+003
      endloop
   endfacet
   facet normal -6.245005e-017 -1.000000e+000 1.624858e-016
      outer loop
         vertex 2.038792e+003 1.073417e+003 1.873390e+003
         vertex 2.043792e+003 1.073417e+003 1.948390e+003
         vertex 2.038792e+003 1.073417e+003 1.948390e+003
      endloop
   endfacet
   facet normal 2.278945e-016 -9.677449e-017 -1.000000e+000
      outer loop
         vertex 2.043792e+003 1.093417e+003 1.873390e+003
         vertex 2.043792e+003 1.073417e+003 1.873390e+003
         vertex 2.038792e+003 1.093417e+003 1.873390e+003
      endloop
   endfacet
   facet normal 2.278945e-016 -9.677449e-017 -1.000000e+000
      outer loop
         vertex 2.038792e+003 1.093417e+003 1.873390e+003
         vertex 2.043792e+003 1.073417e+003 1.873390e+003
         vertex 2.038792e+003 1.073417e+003 1.873390e+003
      endloop
   endfacet
   facet normal 1.000000e+000 -7.285839e-017 2.012279e-016
      outer loop
         vertex 2.043792e+003 1.073417e+003 1.948390e+003
         vertex 2.043792e+003 1.073417e+003 1.873390e+003
         vertex 2.043792e+003 1.074217e+003 1.883390e+003
      endloop
   endfacet
   facet normal 1.000000e+000 -7.285839e-017 2.012279e-016
      outer loop
         vertex 2.043792e+003 1.093417e+003 1.948390e+003
         vertex 2.043792e+003 1.090417e+003 1.885590e+003
         vertex 2.043792e+003 1.090799e+003 1.885557e+003
      endloop
   endfacet
   facet normal 1.000000e+000 -7.285839e-017 2.012279e-016
      outer loop
         vertex 2.043792e+003 1.090417e+003 1.885590e+003
         vertex 2.043792e+003 1.093417e+003 1.948390e+003
         vertex 2.043792e+003 1.090035e+003 1.885557e+003
      endloop
   endfacet
   facet normal 1.000000e+000 -7.285839e-017 2.012279e-016
      outer loop
         vertex 2.043792e+003 1.090035e+003 1.885557e+003
         vertex 2.043792e+003 1.093417e+003 1.948390e+003
         vertex 2.043792e+003 1.073417e+003 1.948390e+003
      endloop
   endfacet
   facet normal 1.000000e+000 -7.285839e-017 2.012279e-016
      outer loop
         vertex 2.043792e+003 1.090035e+003 1.885557e+003
         vertex 2.043792e+003 1.073417e+003 1.948390e+003
         vertex 2.043792e+003 1.089665e+003 1.885457e+003
      endloop
   endfacet
   facet normal 1.000000e+000 -7.285839e-017 2.012279e-016
      outer loop
         vertex 2.043792e+003 1.074217e+003 1.883390e+003
         vertex 2.043792e+003 1.074251e+003 1.883772e+003
         vertex 2.043792e+003 1.073417e+003 1.948390e+003
      endloop
   endfacet
   facet normal 1.000000e+000 -7.285839e-017 2.012279e-016
      outer loop
         vertex 2.043792e+003 1.073417e+003 1.948390e+003
         vertex 2.043792e+003 1.074251e+003 1.883772e+003
         vertex 2.043792e+003 1.074350e+003 1.884142e+003
      endloop
   endfacet
   facet normal 1.000000e+000 -7.285839e-017 2.012279e-016
      outer loop
         vertex 2.043792e+003 1.073417e+003 1.948390e+003
         vertex 2.043792e+003 1.074350e+003 1.884142e+003
         vertex 2.043792e+003 1.074512e+003 1.884490e+003
      endloop
   endfacet
   facet normal 1.000000e+000 -7.285839e-017 2.012279e-016
      outer loop
         vertex 2.043792e+003 1.074512e+003 1.884490e+003
         vertex 2.043792e+003 1.074732e+003 1.884804e+003
         vertex 2.043792e+003 1.073417e+003 1.948390e+003
      endloop
   endfacet
   facet normal 1.000000e+000 -7.285839e-017 2.012279e-016
      outer loop
         vertex 2.043792e+003 1.073417e+003 1.948390e+003
         vertex 2.043792e+003 1.074732e+003 1.884804e+003
         vertex 2.043792e+003 1.075003e+003 1.885075e+003
      endloop
   endfacet
   facet normal 1.000000e+000 -7.285839e-017 2.012279e-016
      outer loop
         vertex 2.043792e+003 1.073417e+003 1.948390e+003
         vertex 2.043792e+003 1.075003e+003 1.885075e+003
         vertex 2.043792e+003 1.075317e+003 1.885295e+003
      endloop
   endfacet
   facet normal 1.000000e+000 -7.285839e-017 2.012279e-016
      outer loop
         vertex 2.043792e+003 1.088251e+003 1.883772e+003
         vertex 2.043792e+003 1.088350e+003 1.884142e+003
         vertex 2.043792e+003 1.076799e+003 1.885557e+003
      endloop
   endfacet
   facet normal 1.000000e+000 -7.285839e-017 2.012279e-016
      outer loop
         vertex 2.043792e+003 1.077170e+003 1.885457e+003
         vertex 2.043792e+003 1.089665e+003 1.881323e+003
         vertex 2.043792e+003 1.089317e+003 1.881485e+003
      endloop
   endfacet
   facet normal 1.000000e+000 -7.285839e-017 2.012279e-016
      outer loop
         vertex 2.043792e+003 1.089317e+003 1.881485e+003
         vertex 2.043792e+003 1.089003e+003 1.881705e+003
         vertex 2.043792e+003 1.077170e+003 1.885457e+003
      endloop
   endfacet
   facet normal 1.000000e+000 -7.285839e-017 2.012279e-016
      outer loop
         vertex 2.043792e+003 1.077170e+003 1.885457e+003
         vertex 2.043792e+003 1.089003e+003 1.881705e+003
         vertex 2.043792e+003 1.088732e+003 1.881976e+003
      endloop
   endfacet
   facet normal 1.000000e+000 -7.285839e-017 2.012279e-016
      outer loop
         vertex 2.043792e+003 1.077170e+003 1.885457e+003
         vertex 2.043792e+003 1.088732e+003 1.881976e+003
         vertex 2.043792e+003 1.088512e+003 1.882290e+003
      endloop
   endfacet
   facet normal 1.000000e+000 -7.285839e-017 2.012279e-016
      outer loop
         vertex 2.043792e+003 1.077170e+003 1.885457e+003
         vertex 2.043792e+003 1.077517e+003 1.885295e+003
         vertex 2.043792e+003 1.089665e+003 1.881323e+003
      endloop
   endfacet
   facet normal 1.000000e+000 -7.285839e-017 2.012279e-016
      outer loop
         vertex 2.043792e+003 1.089665e+003 1.881323e+003
         vertex 2.043792e+003 1.077517e+003 1.885295e+003
         vertex 2.043792e+003 1.077832e+003 1.885075e+003
      endloop
   endfacet
   facet normal 1.000000e+000 -7.285839e-017 2.012279e-016
      outer loop
         vertex 2.043792e+003 1.089665e+003 1.881323e+003
         vertex 2.043792e+003 1.077832e+003 1.885075e+003
         vertex 2.043792e+003 1.078103e+003 1.884804e+003
      endloop
   endfacet
   facet normal 1.000000e+000 -7.285839e-017 2.012279e-016
      outer loop
         vertex 2.043792e+003 1.075317e+003 1.885295e+003
         vertex 2.043792e+003 1.075665e+003 1.885457e+003
         vertex 2.043792e+003 1.073417e+003 1.948390e+003
      endloop
   endfacet
   facet normal 1.000000e+000 -7.285839e-017 2.012279e-016
      outer loop
         vertex 2.043792e+003 1.073417e+003 1.948390e+003
         vertex 2.043792e+003 1.075665e+003 1.885457e+003
         vertex 2.043792e+003 1.076035e+003 1.885557e+003
      endloop
   endfacet
   facet normal 1.000000e+000 -7.285839e-017 2.012279e-016
      outer loop
         vertex 2.043792e+003 1.073417e+003 1.948390e+003
         vertex 2.043792e+003 1.076035e+003 1.885557e+003
         vertex 2.043792e+003 1.076417e+003 1.885590e+003
      endloop
   endfacet
   facet normal 1.000000e+000 -7.285839e-017 2.012279e-016
      outer loop
         vertex 2.043792e+003 1.090799e+003 1.885557e+003
         vertex 2.043792e+003 1.091170e+003 1.885457e+003
         vertex 2.043792e+003 1.093417e+003 1.948390e+003
      endloop
   endfacet
   facet normal 1.000000e+000 -7.285839e-017 2.012279e-016
      outer loop
         vertex 2.043792e+003 1.093417e+003 1.948390e+003
         vertex 2.043792e+003 1.091170e+003 1.885457e+003
         vertex 2.043792e+003 1.091517e+003 1.885295e+003
      endloop
   endfacet
   facet normal 1.000000e+000 -7.285839e-017 2.012279e-016
      outer loop
         vertex 2.043792e+003 1.093417e+003 1.948390e+003
         vertex 2.043792e+003 1.091517e+003 1.885295e+003
         vertex 2.043792e+003 1.091831e+003 1.885075e+003
      endloop
   endfacet
   facet normal 1.000000e+000 -7.285839e-017 2.012279e-016
      outer loop
         vertex 2.043792e+003 1.088512e+003 1.882290e+003
         vertex 2.043792e+003 1.088350e+003 1.882637e+003
         vertex 2.043792e+003 1.077170e+003 1.885457e+003
      endloop
   endfacet
   facet normal 1.000000e+000 -7.285839e-017 2.012279e-016
      outer loop
         vertex 2.043792e+003 1.077170e+003 1.885457e+003
         vertex 2.043792e+003 1.088350e+003 1.882637e+003
         vertex 2.043792e+003 1.088251e+003 1.883008e+003
      endloop
   endfacet
   facet normal 1.000000e+000 -7.285839e-017 2.012279e-016
      outer loop
         vertex 2.043792e+003 1.077170e+003 1.885457e+003
         vertex 2.043792e+003 1.088251e+003 1.883008e+003
         vertex 2.043792e+003 1.076799e+003 1.885557e+003
      endloop
   endfacet
   facet normal 1.000000e+000 -7.285839e-017 2.012279e-016
      outer loop
         vertex 2.043792e+003 1.076799e+003 1.885557e+003
         vertex 2.043792e+003 1.088251e+003 1.883008e+003
         vertex 2.043792e+003 1.088217e+003 1.883390e+003
      endloop
   endfacet
   facet normal 1.000000e+000 -7.285839e-017 2.012279e-016
      outer loop
         vertex 2.043792e+003 1.076799e+003 1.885557e+003
         vertex 2.043792e+003 1.088217e+003 1.883390e+003
         vertex 2.043792e+003 1.088251e+003 1.883772e+003
      endloop
   endfacet
   facet normal 1.000000e+000 -7.285839e-017 2.012279e-016
      outer loop
         vertex 2.043792e+003 1.073417e+003 1.873390e+003
         vertex 2.043792e+003 1.075665e+003 1.881323e+003
         vertex 2.043792e+003 1.075317e+003 1.881485e+003
      endloop
   endfacet
   facet normal 1.000000e+000 -7.285839e-017 2.012279e-016
      outer loop
         vertex 2.043792e+003 1.088350e+003 1.884142e+003
         vertex 2.043792e+003 1.088512e+003 1.884490e+003
         vertex 2.043792e+003 1.076799e+003 1.885557e+003
      endloop
   endfacet
   facet normal 1.000000e+000 -7.285839e-017 2.012279e-016
      outer loop
         vertex 2.043792e+003 1.076799e+003 1.885557e+003
         vertex 2.043792e+003 1.088512e+003 1.884490e+003
         vertex 2.043792e+003 1.088732e+003 1.884804e+003
      endloop
   endfacet
   facet normal 1.000000e+000 -7.285839e-017 2.012279e-016
      outer loop
         vertex 2.043792e+003 1.076799e+003 1.885557e+003
         vertex 2.043792e+003 1.088732e+003 1.884804e+003
         vertex 2.043792e+003 1.076417e+003 1.885590e+003
      endloop
   endfacet
   facet normal 1.000000e+000 -7.285839e-017 2.012279e-016
      outer loop
         vertex 2.043792e+003 1.076417e+003 1.885590e+003
         vertex 2.043792e+003 1.088732e+003 1.884804e+003
         vertex 2.043792e+003 1.089003e+003 1.885075e+003
      endloop
   endfacet
   facet normal 1.000000e+000 -7.285839e-017 2.012279e-016
      outer loop
         vertex 2.043792e+003 1.076417e+003 1.885590e+003
         vertex 2.043792e+003 1.089003e+003 1.885075e+003
         vertex 2.043792e+003 1.073417e+003 1.948390e+003
      endloop
   endfacet
   facet normal 1.000000e+000 -7.285839e-017 2.012279e-016
      outer loop
         vertex 2.043792e+003 1.073417e+003 1.948390e+003
         vertex 2.043792e+003 1.089003e+003 1.885075e+003
         vertex 2.043792e+003 1.089317e+003 1.885295e+003
      endloop
   endfacet
   facet normal 1.000000e+000 -7.285839e-017 2.012279e-016
      outer loop
         vertex 2.043792e+003 1.073417e+003 1.948390e+003
         vertex 2.043792e+003 1.089317e+003 1.885295e+003
         vertex 2.043792e+003 1.089665e+003 1.885457e+003
      endloop
   endfacet
   facet normal 1.000000e+000 -7.285839e-017 2.012279e-016
      outer loop
         vertex 2.043792e+003 1.091831e+003 1.885075e+003
         vertex 2.043792e+003 1.092103e+003 1.884804e+003
         vertex 2.043792e+003 1.093417e+003 1.948390e+003
      endloop
   endfacet
   facet normal 1.000000e+000 -7.285839e-017 2.012279e-016
      outer loop
         vertex 2.043792e+003 1.093417e+003 1.948390e+003
         vertex 2.043792e+003 1.092103e+003 1.884804e+003
         vertex 2.043792e+003 1.092323e+003 1.884490e+003
      endloop
   endfacet
   facet normal 1.000000e+000 -7.285839e-017 2.012279e-016
      outer loop
         vertex 2.043792e+003 1.093417e+003 1.948390e+003
         vertex 2.043792e+003 1.092323e+003 1.884490e+003
         vertex 2.043792e+003 1.092485e+003 1.884142e+003
      endloop
   endfacet
   facet normal 1.000000e+000 -7.285839e-017 2.012279e-016
      outer loop
         vertex 2.043792e+003 1.091170e+003 1.881323e+003
         vertex 2.043792e+003 1.093417e+003 1.873390e+003
         vertex 2.043792e+003 1.091517e+003 1.881485e+003
      endloop
   endfacet
   facet normal 1.000000e+000 -7.285839e-017 2.012279e-016
      outer loop
         vertex 2.043792e+003 1.091517e+003 1.881485e+003
         vertex 2.043792e+003 1.093417e+003 1.873390e+003
         vertex 2.043792e+003 1.091831e+003 1.881705e+003
      endloop
   endfacet
   facet normal 1.000000e+000 -7.285839e-017 2.012279e-016
      outer loop
         vertex 2.043792e+003 1.093417e+003 1.873390e+003
         vertex 2.043792e+003 1.077170e+003 1.881323e+003
         vertex 2.043792e+003 1.073417e+003 1.873390e+003
      endloop
   endfacet
   facet normal 1.000000e+000 -7.285839e-017 2.012279e-016
      outer loop
         vertex 2.043792e+003 1.073417e+003 1.873390e+003
         vertex 2.043792e+003 1.077170e+003 1.881323e+003
         vertex 2.043792e+003 1.076799e+003 1.881223e+003
      endloop
   endfacet
   facet normal 1.000000e+000 -7.285839e-017 2.012279e-016
      outer loop
         vertex 2.043792e+003 1.092485e+003 1.882637e+003
         vertex 2.043792e+003 1.092323e+003 1.882290e+003
         vertex 2.043792e+003 1.093417e+003 1.873390e+003
      endloop
   endfacet
   facet normal 1.000000e+000 -7.285839e-017 2.012279e-016
      outer loop
         vertex 2.043792e+003 1.093417e+003 1.873390e+003
         vertex 2.043792e+003 1.092323e+003 1.882290e+003
         vertex 2.043792e+003 1.092103e+003 1.881976e+003
      endloop
   endfacet
   facet normal 1.000000e+000 -7.285839e-017 2.012279e-016
      outer loop
         vertex 2.043792e+003 1.093417e+003 1.873390e+003
         vertex 2.043792e+003 1.092103e+003 1.881976e+003
         vertex 2.043792e+003 1.091831e+003 1.881705e+003
      endloop
   endfacet
   facet normal 1.000000e+000 -7.285839e-017 2.012279e-016
      outer loop
         vertex 2.043792e+003 1.078103e+003 1.881976e+003
         vertex 2.043792e+003 1.077832e+003 1.881705e+003
         vertex 2.043792e+003 1.093417e+003 1.873390e+003
      endloop
   endfacet
   facet normal 1.000000e+000 -7.285839e-017 2.012279e-016
      outer loop
         vertex 2.043792e+003 1.093417e+003 1.873390e+003
         vertex 2.043792e+003 1.077832e+003 1.881705e+003
         vertex 2.043792e+003 1.077517e+003 1.881485e+003
      endloop
   endfacet
   facet normal 1.000000e+000 -7.285839e-017 2.012279e-016
      outer loop
         vertex 2.043792e+003 1.093417e+003 1.873390e+003
         vertex 2.043792e+003 1.077517e+003 1.881485e+003
         vertex 2.043792e+003 1.077170e+003 1.881323e+003
      endloop
   endfacet
   facet normal 1.000000e+000 -7.285839e-017 2.012279e-016
      outer loop
         vertex 2.043792e+003 1.076799e+003 1.881223e+003
         vertex 2.043792e+003 1.076417e+003 1.881190e+003
         vertex 2.043792e+003 1.073417e+003 1.873390e+003
      endloop
   endfacet
   facet normal 1.000000e+000 -7.285839e-017 2.012279e-016
      outer loop
         vertex 2.043792e+003 1.073417e+003 1.873390e+003
         vertex 2.043792e+003 1.076417e+003 1.881190e+003
         vertex 2.043792e+003 1.076035e+003 1.881223e+003
      endloop
   endfacet
   facet normal 1.000000e+000 -7.285839e-017 2.012279e-016
      outer loop
         vertex 2.043792e+003 1.073417e+003 1.873390e+003
         vertex 2.043792e+003 1.076035e+003 1.881223e+003
         vertex 2.043792e+003 1.075665e+003 1.881323e+003
      endloop
   endfacet
   facet normal 1.000000e+000 -7.285839e-017 2.012279e-016
      outer loop
         vertex 2.043792e+003 1.074512e+003 1.882290e+003
         vertex 2.043792e+003 1.074350e+003 1.882637e+003
         vertex 2.043792e+003 1.073417e+003 1.873390e+003
      endloop
   endfacet
   facet normal 1.000000e+000 -7.285839e-017 2.012279e-016
      outer loop
         vertex 2.043792e+003 1.073417e+003 1.873390e+003
         vertex 2.043792e+003 1.074350e+003 1.882637e+003
         vertex 2.043792e+003 1.074251e+003 1.883008e+003
      endloop
   endfacet
   facet normal 1.000000e+000 -7.285839e-017 2.012279e-016
      outer loop
         vertex 2.043792e+003 1.073417e+003 1.873390e+003
         vertex 2.043792e+003 1.074251e+003 1.883008e+003
         vertex 2.043792e+003 1.074217e+003 1.883390e+003
      endloop
   endfacet
   facet normal 1.000000e+000 -7.285839e-017 2.012279e-016
      outer loop
         vertex 2.043792e+003 1.078103e+003 1.884804e+003
         vertex 2.043792e+003 1.078323e+003 1.884490e+003
         vertex 2.043792e+003 1.089665e+003 1.881323e+003
      endloop
   endfacet
   facet normal 1.000000e+000 -7.285839e-017 2.012279e-016
      outer loop
         vertex 2.043792e+003 1.089665e+003 1.881323e+003
         vertex 2.043792e+003 1.078323e+003 1.884490e+003
         vertex 2.043792e+003 1.078485e+003 1.884142e+003
      endloop
   endfacet
   facet normal 1.000000e+000 -7.285839e-017 2.012279e-016
      outer loop
         vertex 2.043792e+003 1.089665e+003 1.881323e+003
         vertex 2.043792e+003 1.078485e+003 1.884142e+003
         vertex 2.043792e+003 1.090035e+003 1.881223e+003
      endloop
   endfacet
   facet normal 1.000000e+000 -7.285839e-017 2.012279e-016
      outer loop
         vertex 2.043792e+003 1.090035e+003 1.881223e+003
         vertex 2.043792e+003 1.078485e+003 1.884142e+003
         vertex 2.043792e+003 1.078584e+003 1.883772e+003
      endloop
   endfacet
   facet normal 1.000000e+000 -7.285839e-017 2.012279e-016
      outer loop
         vertex 2.043792e+003 1.090035e+003 1.881223e+003
         vertex 2.043792e+003 1.078584e+003 1.883772e+003
         vertex 2.043792e+003 1.078617e+003 1.883390e+003
      endloop
   endfacet
   facet normal 1.000000e+000 -7.285839e-017 2.012279e-016
      outer loop
         vertex 2.043792e+003 1.075317e+003 1.881485e+003
         vertex 2.043792e+003 1.075003e+003 1.881705e+003
         vertex 2.043792e+003 1.073417e+003 1.873390e+003
      endloop
   endfacet
   facet normal 1.000000e+000 -7.285839e-017 2.012279e-016
      outer loop
         vertex 2.043792e+003 1.073417e+003 1.873390e+003
         vertex 2.043792e+003 1.075003e+003 1.881705e+003
         vertex 2.043792e+003 1.074732e+003 1.881976e+003
      endloop
   endfacet
   facet normal 1.000000e+000 -7.285839e-017 2.012279e-016
      outer loop
         vertex 2.043792e+003 1.073417e+003 1.873390e+003
         vertex 2.043792e+003 1.074732e+003 1.881976e+003
         vertex 2.043792e+003 1.074512e+003 1.882290e+003
      endloop
   endfacet
   facet normal 1.000000e+000 -7.285839e-017 2.012279e-016
      outer loop
         vertex 2.043792e+003 1.091170e+003 1.881323e+003
         vertex 2.043792e+003 1.090799e+003 1.881223e+003
         vertex 2.043792e+003 1.093417e+003 1.873390e+003
      endloop
   endfacet
   facet normal 1.000000e+000 -7.285839e-017 2.012279e-016
      outer loop
         vertex 2.043792e+003 1.093417e+003 1.873390e+003
         vertex 2.043792e+003 1.090799e+003 1.881223e+003
         vertex 2.043792e+003 1.090417e+003 1.881190e+003
      endloop
   endfacet
   facet normal 1.000000e+000 -7.285839e-017 2.012279e-016
      outer loop
         vertex 2.043792e+003 1.093417e+003 1.873390e+003
         vertex 2.043792e+003 1.090417e+003 1.881190e+003
         vertex 2.043792e+003 1.090035e+003 1.881223e+003
      endloop
   endfacet
   facet normal 1.000000e+000 -7.285839e-017 2.012279e-016
      outer loop
         vertex 2.043792e+003 1.092485e+003 1.884142e+003
         vertex 2.043792e+003 1.092584e+003 1.883772e+003
         vertex 2.043792e+003 1.093417e+003 1.948390e+003
      endloop
   endfacet
   facet normal 1.000000e+000 -7.285839e-017 2.012279e-016
      outer loop
         vertex 2.043792e+003 1.093417e+003 1.948390e+003
         vertex 2.043792e+003 1.092584e+003 1.883772e+003
         vertex 2.043792e+003 1.092617e+003 1.883390e+003
      endloop
   endfacet
   facet normal 1.000000e+000 -7.285839e-017 2.012279e-016
      outer loop
         vertex 2.043792e+003 1.093417e+003 1.948390e+003
         vertex 2.043792e+003 1.092617e+003 1.883390e+003
         vertex 2.043792e+003 1.093417e+003 1.873390e+003
      endloop
   endfacet
   facet normal 1.000000e+000 -7.285839e-017 2.012279e-016
      outer loop
         vertex 2.043792e+003 1.093417e+003 1.873390e+003
         vertex 2.043792e+003 1.092617e+003 1.883390e+003
         vertex 2.043792e+003 1.092584e+003 1.883008e+003
      endloop
   endfacet
   facet normal 1.000000e+000 -7.285839e-017 2.012279e-016
      outer loop
         vertex 2.043792e+003 1.093417e+003 1.873390e+003
         vertex 2.043792e+003 1.092584e+003 1.883008e+003
         vertex 2.043792e+003 1.092485e+003 1.882637e+003
      endloop
   endfacet
   facet normal 1.000000e+000 -7.285839e-017 2.012279e-016
      outer loop
         vertex 2.043792e+003 1.078617e+003 1.883390e+003
         vertex 2.043792e+003 1.078584e+003 1.883008e+003
         vertex 2.043792e+003 1.090035e+003 1.881223e+003
      endloop
   endfacet
   facet normal 1.000000e+000 -7.285839e-017 2.012279e-016
      outer loop
         vertex 2.043792e+003 1.090035e+003 1.881223e+003
         vertex 2.043792e+003 1.078584e+003 1.883008e+003
         vertex 2.043792e+003 1.078485e+003 1.882637e+003
      endloop
   endfacet
   facet normal 1.000000e+000 -7.285839e-017 2.012279e-016
      outer loop
         vertex 2.043792e+003 1.090035e+003 1.881223e+003
         vertex 2.043792e+003 1.078485e+003 1.882637e+003
         vertex 2.043792e+003 1.093417e+003 1.873390e+003
      endloop
   endfacet
   facet normal 1.000000e+000 -7.285839e-017 2.012279e-016
      outer loop
         vertex 2.043792e+003 1.093417e+003 1.873390e+003
         vertex 2.043792e+003 1.078485e+003 1.882637e+003
         vertex 2.043792e+003 1.078323e+003 1.882290e+003
      endloop
   endfacet
   facet normal 1.000000e+000 -7.285839e-017 2.012279e-016
      outer loop
         vertex 2.043792e+003 1.093417e+003 1.873390e+003
         vertex 2.043792e+003 1.078323e+003 1.882290e+003
         vertex 2.043792e+003 1.078103e+003 1.881976e+003
      endloop
   endfacet
   facet normal -1.000000e+000 7.285839e-017 -2.012279e-016
      outer loop
         vertex 2.038792e+003 1.090417e+003 1.885590e+003
         vertex 2.038792e+003 1.093417e+003 1.948390e+003
         vertex 2.038792e+003 1.090799e+003 1.885557e+003
      endloop
   endfacet
   facet normal -1.000000e+000 7.285839e-017 -2.012279e-016
      outer loop
         vertex 2.038792e+003 1.090799e+003 1.885557e+003
         vertex 2.038792e+003 1.093417e+003 1.948390e+003
         vertex 2.038792e+003 1.091170e+003 1.885457e+003
      endloop
   endfacet
   facet normal -1.000000e+000 7.285839e-017 -2.012279e-016
      outer loop
         vertex 2.038792e+003 1.092103e+003 1.884804e+003
         vertex 2.038792e+003 1.093417e+003 1.948390e+003
         vertex 2.038792e+003 1.092323e+003 1.884490e+003
      endloop
   endfacet
   facet normal -1.000000e+000 7.285839e-017 -2.012279e-016
      outer loop
         vertex 2.038792e+003 1.092323e+003 1.884490e+003
         vertex 2.038792e+003 1.093417e+003 1.948390e+003
         vertex 2.038792e+003 1.092485e+003 1.884142e+003
      endloop
   endfacet
   facet normal -1.000000e+000 7.285839e-017 -2.012279e-016
      outer loop
         vertex 2.038792e+003 1.092103e+003 1.884804e+003
         vertex 2.038792e+003 1.091831e+003 1.885075e+003
         vertex 2.038792e+003 1.093417e+003 1.948390e+003
      endloop
   endfacet
   facet normal -1.000000e+000 7.285839e-017 -2.012279e-016
      outer loop
         vertex 2.038792e+003 1.093417e+003 1.948390e+003
         vertex 2.038792e+003 1.091831e+003 1.885075e+003
         vertex 2.038792e+003 1.091517e+003 1.885295e+003
      endloop
   endfacet
   facet normal -1.000000e+000 7.285839e-017 -2.012279e-016
      outer loop
         vertex 2.038792e+003 1.093417e+003 1.948390e+003
         vertex 2.038792e+003 1.091517e+003 1.885295e+003
         vertex 2.038792e+003 1.091170e+003 1.885457e+003
      endloop
   endfacet
   facet normal -1.000000e+000 7.285839e-017 -2.012279e-016
      outer loop
         vertex 2.038792e+003 1.090799e+003 1.881223e+003
         vertex 2.038792e+003 1.091170e+003 1.881323e+003
         vertex 2.038792e+003 1.093417e+003 1.873390e+003
      endloop
   endfacet
   facet normal -1.000000e+000 7.285839e-017 -2.012279e-016
      outer loop
         vertex 2.038792e+003 1.093417e+003 1.873390e+003
         vertex 2.038792e+003 1.091170e+003 1.881323e+003
         vertex 2.038792e+003 1.091517e+003 1.881485e+003
      endloop
   endfacet
   facet normal -1.000000e+000 7.285839e-017 -2.012279e-016
      outer loop
         vertex 2.038792e+003 1.093417e+003 1.873390e+003
         vertex 2.038792e+003 1.091517e+003 1.881485e+003
         vertex 2.038792e+003 1.091831e+003 1.881705e+003
      endloop
   endfacet
   facet normal -1.000000e+000 7.285839e-017 -2.012279e-016
      outer loop
         vertex 2.038792e+003 1.091831e+003 1.881705e+003
         vertex 2.038792e+003 1.092103e+003 1.881976e+003
         vertex 2.038792e+003 1.093417e+003 1.873390e+003
      endloop
   endfacet
   facet normal -1.000000e+000 7.285839e-017 -2.012279e-016
      outer loop
         vertex 2.038792e+003 1.093417e+003 1.873390e+003
         vertex 2.038792e+003 1.092103e+003 1.881976e+003
         vertex 2.038792e+003 1.092323e+003 1.882290e+003
      endloop
   endfacet
   facet normal -1.000000e+000 7.285839e-017 -2.012279e-016
      outer loop
         vertex 2.038792e+003 1.093417e+003 1.873390e+003
         vertex 2.038792e+003 1.092323e+003 1.882290e+003
         vertex 2.038792e+003 1.092485e+003 1.882637e+003
      endloop
   endfacet
   facet normal -1.000000e+000 7.285839e-017 -2.012279e-016
      outer loop
         vertex 2.038792e+003 1.092485e+003 1.882637e+003
         vertex 2.038792e+003 1.092584e+003 1.883008e+003
         vertex 2.038792e+003 1.093417e+003 1.873390e+003
      endloop
   endfacet
   facet normal -1.000000e+000 7.285839e-017 -2.012279e-016
      outer loop
         vertex 2.038792e+003 1.093417e+003 1.873390e+003
         vertex 2.038792e+003 1.092584e+003 1.883008e+003
         vertex 2.038792e+003 1.092617e+003 1.883390e+003
      endloop
   endfacet
   facet normal -1.000000e+000 7.285839e-017 -2.012279e-016
      outer loop
         vertex 2.038792e+003 1.093417e+003 1.873390e+003
         vertex 2.038792e+003 1.092617e+003 1.883390e+003
         vertex 2.038792e+003 1.093417e+003 1.948390e+003
      endloop
   endfacet
   facet normal -1.000000e+000 7.285839e-017 -2.012279e-016
      outer loop
         vertex 2.038792e+003 1.093417e+003 1.948390e+003
         vertex 2.038792e+003 1.092617e+003 1.883390e+003
         vertex 2.038792e+003 1.092584e+003 1.883772e+003
      endloop
   endfacet
   facet normal -1.000000e+000 7.285839e-017 -2.012279e-016
      outer loop
         vertex 2.038792e+003 1.093417e+003 1.948390e+003
         vertex 2.038792e+003 1.092584e+003 1.883772e+003
         vertex 2.038792e+003 1.092485e+003 1.884142e+003
      endloop
   endfacet
   facet normal -1.000000e+000 7.285839e-017 -2.012279e-016
      outer loop
         vertex 2.038792e+003 1.073417e+003 1.873390e+003
         vertex 2.038792e+003 1.075665e+003 1.881323e+003
         vertex 2.038792e+003 1.076035e+003 1.881223e+003
      endloop
   endfacet
   facet normal -1.000000e+000 7.285839e-017 -2.012279e-016
      outer loop
         vertex 2.038792e+003 1.078103e+003 1.881976e+003
         vertex 2.038792e+003 1.078323e+003 1.882290e+003
         vertex 2.038792e+003 1.089665e+003 1.885457e+003
      endloop
   endfacet
   facet normal -1.000000e+000 7.285839e-017 -2.012279e-016
      outer loop
         vertex 2.038792e+003 1.089665e+003 1.881323e+003
         vertex 2.038792e+003 1.090035e+003 1.881223e+003
         vertex 2.038792e+003 1.093417e+003 1.873390e+003
      endloop
   endfacet
   facet normal -1.000000e+000 7.285839e-017 -2.012279e-016
      outer loop
         vertex 2.038792e+003 1.093417e+003 1.873390e+003
         vertex 2.038792e+003 1.090035e+003 1.881223e+003
         vertex 2.038792e+003 1.090417e+003 1.881190e+003
      endloop
   endfacet
   facet normal -1.000000e+000 7.285839e-017 -2.012279e-016
      outer loop
         vertex 2.038792e+003 1.093417e+003 1.873390e+003
         vertex 2.038792e+003 1.090417e+003 1.881190e+003
         vertex 2.038792e+003 1.090799e+003 1.881223e+003
      endloop
   endfacet
   facet normal -1.000000e+000 7.285839e-017 -2.012279e-016
      outer loop
         vertex 2.038792e+003 1.090035e+003 1.885557e+003
         vertex 2.038792e+003 1.078584e+003 1.883772e+003
         vertex 2.038792e+003 1.078485e+003 1.884142e+003
      endloop
   endfacet
   facet normal -1.000000e+000 7.285839e-017 -2.012279e-016
      outer loop
         vertex 2.038792e+003 1.078485e+003 1.884142e+003
         vertex 2.038792e+003 1.078323e+003 1.884490e+003
         vertex 2.038792e+003 1.090035e+003 1.885557e+003
      endloop
   endfacet
   facet normal -1.000000e+000 7.285839e-017 -2.012279e-016
      outer loop
         vertex 2.038792e+003 1.090035e+003 1.885557e+003
         vertex 2.038792e+003 1.078323e+003 1.884490e+003
         vertex 2.038792e+003 1.078103e+003 1.884804e+003
      endloop
   endfacet
   facet normal -1.000000e+000 7.285839e-017 -2.012279e-016
      outer loop
         vertex 2.038792e+003 1.090035e+003 1.885557e+003
         vertex 2.038792e+003 1.078103e+003 1.884804e+003
         vertex 2.038792e+003 1.090417e+003 1.885590e+003
      endloop
   endfacet
   facet normal -1.000000e+000 7.285839e-017 -2.012279e-016
      outer loop
         vertex 2.038792e+003 1.077517e+003 1.885295e+003
         vertex 2.038792e+003 1.077170e+003 1.885457e+003
         vertex 2.038792e+003 1.093417e+003 1.948390e+003
      endloop
   endfacet
   facet normal -1.000000e+000 7.285839e-017 -2.012279e-016
      outer loop
         vertex 2.038792e+003 1.093417e+003 1.948390e+003
         vertex 2.038792e+003 1.077170e+003 1.885457e+003
         vertex 2.038792e+003 1.076799e+003 1.885557e+003
      endloop
   endfacet
   facet normal -1.000000e+000 7.285839e-017 -2.012279e-016
      outer loop
         vertex 2.038792e+003 1.093417e+003 1.948390e+003
         vertex 2.038792e+003 1.076799e+003 1.885557e+003
         vertex 2.038792e+003 1.073417e+003 1.948390e+003
      endloop
   endfacet
   facet normal -1.000000e+000 7.285839e-017 -2.012279e-016
      outer loop
         vertex 2.038792e+003 1.073417e+003 1.948390e+003
         vertex 2.038792e+003 1.076799e+003 1.885557e+003
         vertex 2.038792e+003 1.076417e+003 1.885590e+003
      endloop
   endfacet
   facet normal -1.000000e+000 7.285839e-017 -2.012279e-016
      outer loop
         vertex 2.038792e+003 1.073417e+003 1.948390e+003
         vertex 2.038792e+003 1.076417e+003 1.885590e+003
         vertex 2.038792e+003 1.076035e+003 1.885557e+003
      endloop
   endfacet
   facet normal -1.000000e+000 7.285839e-017 -2.012279e-016
      outer loop
         vertex 2.038792e+003 1.076035e+003 1.885557e+003
         vertex 2.038792e+003 1.075665e+003 1.885457e+003
         vertex 2.038792e+003 1.073417e+003 1.948390e+003
      endloop
   endfacet
   facet normal -1.000000e+000 7.285839e-017 -2.012279e-016
      outer loop
         vertex 2.038792e+003 1.073417e+003 1.948390e+003
         vertex 2.038792e+003 1.075665e+003 1.885457e+003
         vertex 2.038792e+003 1.075317e+003 1.885295e+003
      endloop
   endfacet
   facet normal -1.000000e+000 7.285839e-017 -2.012279e-016
      outer loop
         vertex 2.038792e+003 1.073417e+003 1.948390e+003
         vertex 2.038792e+003 1.075317e+003 1.885295e+003
         vertex 2.038792e+003 1.075003e+003 1.885075e+003
      endloop
   endfacet
   facet normal -1.000000e+000 7.285839e-017 -2.012279e-016
      outer loop
         vertex 2.038792e+003 1.090417e+003 1.885590e+003
         vertex 2.038792e+003 1.078103e+003 1.884804e+003
         vertex 2.038792e+003 1.093417e+003 1.948390e+003
      endloop
   endfacet
   facet normal -1.000000e+000 7.285839e-017 -2.012279e-016
      outer loop
         vertex 2.038792e+003 1.093417e+003 1.948390e+003
         vertex 2.038792e+003 1.078103e+003 1.884804e+003
         vertex 2.038792e+003 1.077832e+003 1.885075e+003
      endloop
   endfacet
   facet normal -1.000000e+000 7.285839e-017 -2.012279e-016
      outer loop
         vertex 2.038792e+003 1.093417e+003 1.948390e+003
         vertex 2.038792e+003 1.077832e+003 1.885075e+003
         vertex 2.038792e+003 1.077517e+003 1.885295e+003
      endloop
   endfacet
   facet normal -1.000000e+000 7.285839e-017 -2.012279e-016
      outer loop
         vertex 2.038792e+003 1.075003e+003 1.885075e+003
         vertex 2.038792e+003 1.074732e+003 1.884804e+003
         vertex 2.038792e+003 1.073417e+003 1.948390e+003
      endloop
   endfacet
   facet normal -1.000000e+000 7.285839e-017 -2.012279e-016
      outer loop
         vertex 2.038792e+003 1.073417e+003 1.948390e+003
         vertex 2.038792e+003 1.074732e+003 1.884804e+003
         vertex 2.038792e+003 1.074512e+003 1.884490e+003
      endloop
   endfacet
   facet normal -1.000000e+000 7.285839e-017 -2.012279e-016
      outer loop
         vertex 2.038792e+003 1.073417e+003 1.948390e+003
         vertex 2.038792e+003 1.074512e+003 1.884490e+003
         vertex 2.038792e+003 1.074350e+003 1.884142e+003
      endloop
   endfacet
   facet normal -1.000000e+000 7.285839e-017 -2.012279e-016
      outer loop
         vertex 2.038792e+003 1.076035e+003 1.881223e+003
         vertex 2.038792e+003 1.076417e+003 1.881190e+003
         vertex 2.038792e+003 1.073417e+003 1.873390e+003
      endloop
   endfacet
   facet normal -1.000000e+000 7.285839e-017 -2.012279e-016
      outer loop
         vertex 2.038792e+003 1.073417e+003 1.873390e+003
         vertex 2.038792e+003 1.076417e+003 1.881190e+003
         vertex 2.038792e+003 1.076799e+003 1.881223e+003
      endloop
   endfacet
   facet normal -1.000000e+000 7.285839e-017 -2.012279e-016
      outer loop
         vertex 2.038792e+003 1.073417e+003 1.873390e+003
         vertex 2.038792e+003 1.076799e+003 1.881223e+003
         vertex 2.038792e+003 1.093417e+003 1.873390e+003
      endloop
   endfacet
   facet normal -1.000000e+000 7.285839e-017 -2.012279e-016
      outer loop
         vertex 2.038792e+003 1.093417e+003 1.873390e+003
         vertex 2.038792e+003 1.076799e+003 1.881223e+003
         vertex 2.038792e+003 1.077170e+003 1.881323e+003
      endloop
   endfacet
   facet normal -1.000000e+000 7.285839e-017 -2.012279e-016
      outer loop
         vertex 2.038792e+003 1.093417e+003 1.873390e+003
         vertex 2.038792e+003 1.077170e+003 1.881323e+003
         vertex 2.038792e+003 1.077517e+003 1.881485e+003
      endloop
   endfacet
   facet normal -1.000000e+000 7.285839e-017 -2.012279e-016
      outer loop
         vertex 2.038792e+003 1.078103e+003 1.881976e+003
         vertex 2.038792e+003 1.089665e+003 1.885457e+003
         vertex 2.038792e+003 1.077832e+003 1.881705e+003
      endloop
   endfacet
   facet normal -1.000000e+000 7.285839e-017 -2.012279e-016
      outer loop
         vertex 2.038792e+003 1.078323e+003 1.882290e+003
         vertex 2.038792e+003 1.078485e+003 1.882637e+003
         vertex 2.038792e+003 1.089665e+003 1.885457e+003
      endloop
   endfacet
   facet normal -1.000000e+000 7.285839e-017 -2.012279e-016
      outer loop
         vertex 2.038792e+003 1.089665e+003 1.885457e+003
         vertex 2.038792e+003 1.078485e+003 1.882637e+003
         vertex 2.038792e+003 1.078584e+003 1.883008e+003
      endloop
   endfacet
   facet normal -1.000000e+000 7.285839e-017 -2.012279e-016
      outer loop
         vertex 2.038792e+003 1.089665e+003 1.885457e+003
         vertex 2.038792e+003 1.078584e+003 1.883008e+003
         vertex 2.038792e+003 1.090035e+003 1.885557e+003
      endloop
   endfacet
   facet normal -1.000000e+000 7.285839e-017 -2.012279e-016
      outer loop
         vertex 2.038792e+003 1.090035e+003 1.885557e+003
         vertex 2.038792e+003 1.078584e+003 1.883008e+003
         vertex 2.038792e+003 1.078617e+003 1.883390e+003
      endloop
   endfacet
   facet normal -1.000000e+000 7.285839e-017 -2.012279e-016
      outer loop
         vertex 2.038792e+003 1.090035e+003 1.885557e+003
         vertex 2.038792e+003 1.078617e+003 1.883390e+003
         vertex 2.038792e+003 1.078584e+003 1.883772e+003
      endloop
   endfacet
   facet normal -1.000000e+000 7.285839e-017 -2.012279e-016
      outer loop
         vertex 2.038792e+003 1.077832e+003 1.881705e+003
         vertex 2.038792e+003 1.089665e+003 1.885457e+003
         vertex 2.038792e+003 1.077517e+003 1.881485e+003
      endloop
   endfacet
   facet normal -1.000000e+000 7.285839e-017 -2.012279e-016
      outer loop
         vertex 2.038792e+003 1.077517e+003 1.881485e+003
         vertex 2.038792e+003 1.089665e+003 1.885457e+003
         vertex 2.038792e+003 1.089317e+003 1.885295e+003
      endloop
   endfacet
   facet normal -1.000000e+000 7.285839e-017 -2.012279e-016
      outer loop
         vertex 2.038792e+003 1.077517e+003 1.881485e+003
         vertex 2.038792e+003 1.089317e+003 1.885295e+003
         vertex 2.038792e+003 1.089003e+003 1.885075e+003
      endloop
   endfacet
   facet normal -1.000000e+000 7.285839e-017 -2.012279e-016
      outer loop
         vertex 2.038792e+003 1.089003e+003 1.885075e+003
         vertex 2.038792e+003 1.088732e+003 1.884804e+003
         vertex 2.038792e+003 1.077517e+003 1.881485e+003
      endloop
   endfacet
   facet normal -1.000000e+000 7.285839e-017 -2.012279e-016
      outer loop
         vertex 2.038792e+003 1.077517e+003 1.881485e+003
         vertex 2.038792e+003 1.088732e+003 1.884804e+003
         vertex 2.038792e+003 1.088512e+003 1.884490e+003
      endloop
   endfacet
   facet normal -1.000000e+000 7.285839e-017 -2.012279e-016
      outer loop
         vertex 2.038792e+003 1.077517e+003 1.881485e+003
         vertex 2.038792e+003 1.088512e+003 1.884490e+003
         vertex 2.038792e+003 1.088350e+003 1.884142e+003
      endloop
   endfacet
   facet normal -1.000000e+000 7.285839e-017 -2.012279e-016
      outer loop
         vertex 2.038792e+003 1.077517e+003 1.881485e+003
         vertex 2.038792e+003 1.089003e+003 1.881705e+003
         vertex 2.038792e+003 1.093417e+003 1.873390e+003
      endloop
   endfacet
   facet normal -1.000000e+000 7.285839e-017 -2.012279e-016
      outer loop
         vertex 2.038792e+003 1.093417e+003 1.873390e+003
         vertex 2.038792e+003 1.089003e+003 1.881705e+003
         vertex 2.038792e+003 1.089317e+003 1.881485e+003
      endloop
   endfacet
   facet normal -1.000000e+000 7.285839e-017 -2.012279e-016
      outer loop
         vertex 2.038792e+003 1.093417e+003 1.873390e+003
         vertex 2.038792e+003 1.089317e+003 1.881485e+003
         vertex 2.038792e+003 1.089665e+003 1.881323e+003
      endloop
   endfacet
   facet normal -1.000000e+000 7.285839e-017 -2.012279e-016
      outer loop
         vertex 2.038792e+003 1.074350e+003 1.884142e+003
         vertex 2.038792e+003 1.074251e+003 1.883772e+003
         vertex 2.038792e+003 1.073417e+003 1.948390e+003
      endloop
   endfacet
   facet normal -1.000000e+000 7.285839e-017 -2.012279e-016
      outer loop
         vertex 2.038792e+003 1.073417e+003 1.948390e+003
         vertex 2.038792e+003 1.074251e+003 1.883772e+003
         vertex 2.038792e+003 1.074217e+003 1.883390e+003
      endloop
   endfacet
   facet normal -1.000000e+000 7.285839e-017 -2.012279e-016
      outer loop
         vertex 2.038792e+003 1.073417e+003 1.948390e+003
         vertex 2.038792e+003 1.074217e+003 1.883390e+003
         vertex 2.038792e+003 1.073417e+003 1.873390e+003
      endloop
   endfacet
   facet normal -1.000000e+000 7.285839e-017 -2.012279e-016
      outer loop
         vertex 2.038792e+003 1.073417e+003 1.873390e+003
         vertex 2.038792e+003 1.074217e+003 1.883390e+003
         vertex 2.038792e+003 1.074251e+003 1.883008e+003
      endloop
   endfacet
   facet normal -1.000000e+000 7.285839e-017 -2.012279e-016
      outer loop
         vertex 2.038792e+003 1.077517e+003 1.881485e+003
         vertex 2.038792e+003 1.088251e+003 1.883008e+003
         vertex 2.038792e+003 1.088350e+003 1.882637e+003
      endloop
   endfacet
   facet normal -1.000000e+000 7.285839e-017 -2.012279e-016
      outer loop
         vertex 2.038792e+003 1.074251e+003 1.883008e+003
         vertex 2.038792e+003 1.074350e+003 1.882637e+003
         vertex 2.038792e+003 1.073417e+003 1.873390e+003
      endloop
   endfacet
   facet normal -1.000000e+000 7.285839e-017 -2.012279e-016
      outer loop
         vertex 2.038792e+003 1.073417e+003 1.873390e+003
         vertex 2.038792e+003 1.074350e+003 1.882637e+003
         vertex 2.038792e+003 1.074512e+003 1.882290e+003
      endloop
   endfacet
   facet normal -1.000000e+000 7.285839e-017 -2.012279e-016
      outer loop
         vertex 2.038792e+003 1.073417e+003 1.873390e+003
         vertex 2.038792e+003 1.074512e+003 1.882290e+003
         vertex 2.038792e+003 1.074732e+003 1.881976e+003
      endloop
   endfacet
   facet normal -1.000000e+000 7.285839e-017 -2.012279e-016
      outer loop
         vertex 2.038792e+003 1.088350e+003 1.884142e+003
         vertex 2.038792e+003 1.088251e+003 1.883772e+003
         vertex 2.038792e+003 1.077517e+003 1.881485e+003
      endloop
   endfacet
   facet normal -1.000000e+000 7.285839e-017 -2.012279e-016
      outer loop
         vertex 2.038792e+003 1.077517e+003 1.881485e+003
         vertex 2.038792e+003 1.088251e+003 1.883772e+003
         vertex 2.038792e+003 1.088217e+003 1.883390e+003
      endloop
   endfacet
   facet normal -1.000000e+000 7.285839e-017 -2.012279e-016
      outer loop
         vertex 2.038792e+003 1.077517e+003 1.881485e+003
         vertex 2.038792e+003 1.088217e+003 1.883390e+003
         vertex 2.038792e+003 1.088251e+003 1.883008e+003
      endloop
   endfacet
   facet normal -1.000000e+000 7.285839e-017 -2.012279e-016
      outer loop
         vertex 2.038792e+003 1.088350e+003 1.882637e+003
         vertex 2.038792e+003 1.088512e+003 1.882290e+003
         vertex 2.038792e+003 1.077517e+003 1.881485e+003
      endloop
   endfacet
   facet normal -1.000000e+000 7.285839e-017 -2.012279e-016
      outer loop
         vertex 2.038792e+003 1.077517e+003 1.881485e+003
         vertex 2.038792e+003 1.088512e+003 1.882290e+003
         vertex 2.038792e+003 1.088732e+003 1.881976e+003
      endloop
   endfacet
   facet normal -1.000000e+000 7.285839e-017 -2.012279e-016
      outer loop
         vertex 2.038792e+003 1.077517e+003 1.881485e+003
         vertex 2.038792e+003 1.088732e+003 1.881976e+003
         vertex 2.038792e+003 1.089003e+003 1.881705e+003
      endloop
   endfacet
   facet normal -1.000000e+000 7.285839e-017 -2.012279e-016
      outer loop
         vertex 2.038792e+003 1.074732e+003 1.881976e+003
         vertex 2.038792e+003 1.075003e+003 1.881705e+003
         vertex 2.038792e+003 1.073417e+003 1.873390e+003
      endloop
   endfacet
   facet normal -1.000000e+000 7.285839e-017 -2.012279e-016
      outer loop
         vertex 2.038792e+003 1.073417e+003 1.873390e+003
         vertex 2.038792e+003 1.075003e+003 1.881705e+003
         vertex 2.038792e+003 1.075317e+003 1.881485e+003
      endloop
   endfacet
   facet normal -1.000000e+000 7.285839e-017 -2.012279e-016
      outer loop
         vertex 2.038792e+003 1.073417e+003 1.873390e+003
         vertex 2.038792e+003 1.075317e+003 1.881485e+003
         vertex 2.038792e+003 1.075665e+003 1.881323e+003
      endloop
   endfacet
   facet normal 7.558054e-017 9.983120e-001 -5.807914e-002
      outer loop
         vertex 2.038792e+003 1.088251e+003 1.883772e+003
         vertex 2.043792e+003 1.088217e+003 1.883390e+003
         vertex 2.038792e+003 1.088217e+003 1.883390e+003
      endloop
   endfacet
   facet normal 4.910871e-017 9.983120e-001 5.807914e-002
      outer loop
         vertex 2.038792e+003 1.088217e+003 1.883390e+003
         vertex 2.043792e+003 1.088217e+003 1.883390e+003
         vertex 2.043792e+003 1.088251e+003 1.883008e+003
      endloop
   endfacet
   facet normal 3.555547e-017 9.932307e-001 1.161583e-001
      outer loop
         vertex 2.038792e+003 1.088217e+003 1.883390e+003
         vertex 2.043792e+003 1.088251e+003 1.883008e+003
         vertex 2.038792e+003 1.088251e+003 1.883008e+003
      endloop
   endfacet
   facet normal 8.226154e-018 9.730601e-001 2.305518e-001
      outer loop
         vertex 2.038792e+003 1.088251e+003 1.883008e+003
         vertex 2.043792e+003 1.088251e+003 1.883008e+003
         vertex 2.043792e+003 1.088350e+003 1.882637e+003
      endloop
   endfacet
   facet normal -5.549933e-018 9.579706e-001 2.868663e-001
      outer loop
         vertex 2.038792e+003 1.088251e+003 1.883008e+003
         vertex 2.043792e+003 1.088350e+003 1.882637e+003
         vertex 2.038792e+003 1.088350e+003 1.882637e+003
      endloop
   endfacet
   facet normal -3.290636e-017 9.182422e-001 3.960194e-001
      outer loop
         vertex 2.038792e+003 1.088350e+003 1.882637e+003
         vertex 2.043792e+003 1.088350e+003 1.882637e+003
         vertex 2.043792e+003 1.088512e+003 1.882290e+003
      endloop
   endfacet
   facet normal -4.648671e-017 8.936031e-001 4.488580e-001
      outer loop
         vertex 2.038792e+003 1.088350e+003 1.882637e+003
         vertex 2.043792e+003 1.088512e+003 1.882290e+003
         vertex 2.038792e+003 1.088512e+003 1.882290e+003
      endloop
   endfacet
   facet normal -7.303902e-017 8.355240e-001 5.494540e-001
      outer loop
         vertex 2.038792e+003 1.088512e+003 1.882290e+003
         vertex 2.043792e+003 1.088512e+003 1.882290e+003
         vertex 2.043792e+003 1.088732e+003 1.881976e+003
      endloop
   endfacet
   facet normal -8.601100e-017 8.020839e-001 5.972114e-001
      outer loop
         vertex 2.038792e+003 1.088512e+003 1.882290e+003
         vertex 2.043792e+003 1.088732e+003 1.881976e+003
         vertex 2.038792e+003 1.088732e+003 1.881976e+003
      endloop
   endfacet
   facet normal -1.109524e-016 7.274188e-001 6.861938e-001
      outer loop
         vertex 2.038792e+003 1.088732e+003 1.881976e+003
         vertex 2.043792e+003 1.088732e+003 1.881976e+003
         vertex 2.043792e+003 1.089003e+003 1.881705e+003
      endloop
   endfacet
   facet normal -1.229219e-016 6.861938e-001 7.274188e-001
      outer loop
         vertex 2.038792e+003 1.088732e+003 1.881976e+003
         vertex 2.043792e+003 1.089003e+003 1.881705e+003
         vertex 2.038792e+003 1.089003e+003 1.881705e+003
      endloop
   endfacet
   facet normal -1.454946e-016 5.972114e-001 8.020839e-001
      outer loop
         vertex 2.038792e+003 1.089003e+003 1.881705e+003
         vertex 2.043792e+003 1.089003e+003 1.881705e+003
         vertex 2.043792e+003 1.089317e+003 1.881485e+003
      endloop
   endfacet
   facet normal -1.560979e-016 5.494540e-001 8.355240e-001
      outer loop
         vertex 2.038792e+003 1.089003e+003 1.881705e+003
         vertex 2.043792e+003 1.089317e+003 1.881485e+003
         vertex 2.038792e+003 1.089317e+003 1.881485e+003
      endloop
   endfacet
   facet normal -1.756160e-016 4.488580e-001 8.936031e-001
      outer loop
         vertex 2.038792e+003 1.089317e+003 1.881485e+003
         vertex 2.043792e+003 1.089317e+003 1.881485e+003
         vertex 2.043792e+003 1.089665e+003 1.881323e+003
      endloop
   endfacet
   facet normal -1.845309e-016 3.960194e-001 9.182422e-001
      outer loop
         vertex 2.038792e+003 1.089317e+003 1.881485e+003
         vertex 2.043792e+003 1.089665e+003 1.881323e+003
         vertex 2.038792e+003 1.089665e+003 1.881323e+003
      endloop
   endfacet
   facet normal -2.004014e-016 2.868663e-001 9.579706e-001
      outer loop
         vertex 2.038792e+003 1.089665e+003 1.881323e+003
         vertex 2.043792e+003 1.089665e+003 1.881323e+003
         vertex 2.043792e+003 1.090035e+003 1.881223e+003
      endloop
   endfacet
   facet normal -2.073570e-016 2.305518e-001 9.730601e-001
      outer loop
         vertex 2.038792e+003 1.089665e+003 1.881323e+003
         vertex 2.043792e+003 1.090035e+003 1.881223e+003
         vertex 2.038792e+003 1.090035e+003 1.881223e+003
      endloop
   endfacet
   facet normal -2.190977e-016 1.161583e-001 9.932307e-001
      outer loop
         vertex 2.038792e+003 1.090035e+003 1.881223e+003
         vertex 2.043792e+003 1.090035e+003 1.881223e+003
         vertex 2.043792e+003 1.090417e+003 1.881190e+003
      endloop
   endfacet
   facet normal -2.238827e-016 5.807914e-002 9.983120e-001
      outer loop
         vertex 2.038792e+003 1.090035e+003 1.881223e+003
         vertex 2.043792e+003 1.090417e+003 1.881190e+003
         vertex 2.038792e+003 1.090417e+003 1.881190e+003
      endloop
   endfacet
   facet normal -2.311368e-016 -5.807914e-002 9.983120e-001
      outer loop
         vertex 2.038792e+003 1.090417e+003 1.881190e+003
         vertex 2.043792e+003 1.090417e+003 1.881190e+003
         vertex 2.043792e+003 1.090799e+003 1.881223e+003
      endloop
   endfacet
   facet normal -2.336059e-016 -1.161583e-001 9.932307e-001
      outer loop
         vertex 2.038792e+003 1.090417e+003 1.881190e+003
         vertex 2.043792e+003 1.090799e+003 1.881223e+003
         vertex 2.038792e+003 1.090799e+003 1.881223e+003
      endloop
   endfacet
   facet normal -2.361530e-016 -2.305518e-001 9.730601e-001
      outer loop
         vertex 2.038792e+003 1.090799e+003 1.881223e+003
         vertex 2.043792e+003 1.090799e+003 1.881223e+003
         vertex 2.043792e+003 1.091170e+003 1.881323e+003
      endloop
   endfacet
   facet normal -2.362310e-016 -2.868663e-001 9.579706e-001
      outer loop
         vertex 2.038792e+003 1.090799e+003 1.881223e+003
         vertex 2.043792e+003 1.091170e+003 1.881323e+003
         vertex 2.038792e+003 1.091170e+003 1.881323e+003
      endloop
   endfacet
   facet normal -2.339938e-016 -3.960194e-001 9.182422e-001
      outer loop
         vertex 2.038792e+003 1.091170e+003 1.881323e+003
         vertex 2.043792e+003 1.091170e+003 1.881323e+003
         vertex 2.043792e+003 1.091517e+003 1.881485e+003
      endloop
   endfacet
   facet normal -2.316784e-016 -4.488580e-001 8.936031e-001
      outer loop
         vertex 2.038792e+003 1.091170e+003 1.881323e+003
         vertex 2.043792e+003 1.091517e+003 1.881485e+003
         vertex 2.038792e+003 1.091517e+003 1.881485e+003
      endloop
   endfacet
   facet normal -2.247247e-016 -5.494540e-001 8.355240e-001
      outer loop
         vertex 2.038792e+003 1.091517e+003 1.881485e+003
         vertex 2.043792e+003 1.091517e+003 1.881485e+003
         vertex 2.043792e+003 1.091831e+003 1.881705e+003
      endloop
   endfacet
   facet normal -2.200864e-016 -5.972114e-001 8.020839e-001
      outer loop
         vertex 2.038792e+003 1.091517e+003 1.881485e+003
         vertex 2.043792e+003 1.091831e+003 1.881705e+003
         vertex 2.038792e+003 1.091831e+003 1.881705e+003
      endloop
   endfacet
   facet normal -2.086276e-016 -6.861938e-001 7.274188e-001
      outer loop
         vertex 2.038792e+003 1.091831e+003 1.881705e+003
         vertex 2.043792e+003 1.091831e+003 1.881705e+003
         vertex 2.043792e+003 1.092103e+003 1.881976e+003
      endloop
   endfacet
   facet normal -2.018071e-016 -7.274188e-001 6.861938e-001
      outer loop
         vertex 2.038792e+003 1.091831e+003 1.881705e+003
         vertex 2.043792e+003 1.092103e+003 1.881976e+003
         vertex 2.038792e+003 1.092103e+003 1.881976e+003
      endloop
   endfacet
   facet normal -1.861914e-016 -8.020839e-001 5.972114e-001
      outer loop
         vertex 2.038792e+003 1.092103e+003 1.881976e+003
         vertex 2.043792e+003 1.092103e+003 1.881976e+003
         vertex 2.043792e+003 1.092323e+003 1.882290e+003
      endloop
   endfacet
   facet normal -1.773960e-016 -8.355240e-001 5.494540e-001
      outer loop
         vertex 2.038792e+003 1.092103e+003 1.881976e+003
         vertex 2.043792e+003 1.092323e+003 1.882290e+003
         vertex 2.038792e+003 1.092323e+003 1.882290e+003
      endloop
   endfacet
   facet normal -1.580978e-016 -8.936031e-001 4.488580e-001
      outer loop
         vertex 2.038792e+003 1.092323e+003 1.882290e+003
         vertex 2.043792e+003 1.092323e+003 1.882290e+003
         vertex 2.043792e+003 1.092485e+003 1.882637e+003
      endloop
   endfacet
   facet normal -1.475949e-016 -9.182422e-001 3.960194e-001
      outer loop
         vertex 2.038792e+003 1.092323e+003 1.882290e+003
         vertex 2.043792e+003 1.092485e+003 1.882637e+003
         vertex 2.038792e+003 1.092485e+003 1.882637e+003
      endloop
   endfacet
   facet normal -1.252005e-016 -9.579706e-001 2.868663e-001
      outer loop
         vertex 2.038792e+003 1.092485e+003 1.882637e+003
         vertex 2.043792e+003 1.092485e+003 1.882637e+003
         vertex 2.043792e+003 1.092584e+003 1.883008e+003
      endloop
   endfacet
   facet normal -1.133091e-016 -9.730601e-001 2.305518e-001
      outer loop
         vertex 2.038792e+003 1.092485e+003 1.882637e+003
         vertex 2.043792e+003 1.092584e+003 1.883008e+003
         vertex 2.038792e+003 1.092584e+003 1.883008e+003
      endloop
   endfacet
   facet normal -8.849913e-017 -9.932307e-001 1.161583e-001
      outer loop
         vertex 2.038792e+003 1.092584e+003 1.883008e+003
         vertex 2.043792e+003 1.092584e+003 1.883008e+003
         vertex 2.043792e+003 1.092617e+003 1.883390e+003
      endloop
   endfacet
   facet normal -7.558054e-017 -9.983120e-001 5.807914e-002
      outer loop
         vertex 2.038792e+003 1.092584e+003 1.883008e+003
         vertex 2.043792e+003 1.092617e+003 1.883390e+003
         vertex 2.038792e+003 1.092617e+003 1.883390e+003
      endloop
   endfacet
   facet normal -4.910871e-017 -9.983120e-001 -5.807914e-002
      outer loop
         vertex 2.038792e+003 1.092617e+003 1.883390e+003
         vertex 2.043792e+003 1.092617e+003 1.883390e+003
         vertex 2.043792e+003 1.092584e+003 1.883772e+003
      endloop
   endfacet
   facet normal -3.555547e-017 -9.932307e-001 -1.161583e-001
      outer loop
         vertex 2.038792e+003 1.092617e+003 1.883390e+003
         vertex 2.043792e+003 1.092584e+003 1.883772e+003
         vertex 2.038792e+003 1.092584e+003 1.883772e+003
      endloop
   endfacet
   facet normal -8.226154e-018 -9.730601e-001 -2.305518e-001
      outer loop
         vertex 2.038792e+003 1.092584e+003 1.883772e+003
         vertex 2.043792e+003 1.092584e+003 1.883772e+003
         vertex 2.043792e+003 1.092485e+003 1.884142e+003
      endloop
   endfacet
   facet normal 5.549933e-018 -9.579706e-001 -2.868663e-001
      outer loop
         vertex 2.038792e+003 1.092584e+003 1.883772e+003
         vertex 2.043792e+003 1.092485e+003 1.884142e+003
         vertex 2.038792e+003 1.092485e+003 1.884142e+003
      endloop
   endfacet
   facet normal 3.290636e-017 -9.182422e-001 -3.960194e-001
      outer loop
         vertex 2.038792e+003 1.092485e+003 1.884142e+003
         vertex 2.043792e+003 1.092485e+003 1.884142e+003
         vertex 2.043792e+003 1.092323e+003 1.884490e+003
      endloop
   endfacet
   facet normal 4.648671e-017 -8.936031e-001 -4.488580e-001
      outer loop
         vertex 2.038792e+003 1.092485e+003 1.884142e+003
         vertex 2.043792e+003 1.092323e+003 1.884490e+003
         vertex 2.038792e+003 1.092323e+003 1.884490e+003
      endloop
   endfacet
   facet normal 7.303902e-017 -8.355240e-001 -5.494540e-001
      outer loop
         vertex 2.038792e+003 1.092323e+003 1.884490e+003
         vertex 2.043792e+003 1.092323e+003 1.884490e+003
         vertex 2.043792e+003 1.092103e+003 1.884804e+003
      endloop
   endfacet
   facet normal 8.601100e-017 -8.020839e-001 -5.972114e-001
      outer loop
         vertex 2.038792e+003 1.092323e+003 1.884490e+003
         vertex 2.043792e+003 1.092103e+003 1.884804e+003
         vertex 2.038792e+003 1.092103e+003 1.884804e+003
      endloop
   endfacet
   facet normal 1.109524e-016 -7.274188e-001 -6.861938e-001
      outer loop
         vertex 2.038792e+003 1.092103e+003 1.884804e+003
         vertex 2.043792e+003 1.092103e+003 1.884804e+003
         vertex 2.043792e+003 1.091831e+003 1.885075e+003
      endloop
   endfacet
   facet normal 1.229219e-016 -6.861938e-001 -7.274188e-001
      outer loop
         vertex 2.038792e+003 1.092103e+003 1.884804e+003
         vertex 2.043792e+003 1.091831e+003 1.885075e+003
         vertex 2.038792e+003 1.091831e+003 1.885075e+003
      endloop
   endfacet
   facet normal 1.454946e-016 -5.972114e-001 -8.020839e-001
      outer loop
         vertex 2.038792e+003 1.091831e+003 1.885075e+003
         vertex 2.043792e+003 1.091831e+003 1.885075e+003
         vertex 2.043792e+003 1.091517e+003 1.885295e+003
      endloop
   endfacet
   facet normal 1.560979e-016 -5.494540e-001 -8.355240e-001
      outer loop
         vertex 2.038792e+003 1.091831e+003 1.885075e+003
         vertex 2.043792e+003 1.091517e+003 1.885295e+003
         vertex 2.038792e+003 1.091517e+003 1.885295e+003
      endloop
   endfacet
   facet normal 1.756160e-016 -4.488580e-001 -8.936031e-001
      outer loop
         vertex 2.038792e+003 1.091517e+003 1.885295e+003
         vertex 2.043792e+003 1.091517e+003 1.885295e+003
         vertex 2.043792e+003 1.091170e+003 1.885457e+003
      endloop
   endfacet
   facet normal 1.845309e-016 -3.960194e-001 -9.182422e-001
      outer loop
         vertex 2.038792e+003 1.091517e+003 1.885295e+003
         vertex 2.043792e+003 1.091170e+003 1.885457e+003
         vertex 2.038792e+003 1.091170e+003 1.885457e+003
      endloop
   endfacet
   facet normal 2.004014e-016 -2.868663e-001 -9.579706e-001
      outer loop
         vertex 2.038792e+003 1.091170e+003 1.885457e+003
         vertex 2.043792e+003 1.091170e+003 1.885457e+003
         vertex 2.043792e+003 1.090799e+003 1.885557e+003
      endloop
   endfacet
   facet normal 2.073570e-016 -2.305518e-001 -9.730601e-001
      outer loop
         vertex 2.038792e+003 1.091170e+003 1.885457e+003
         vertex 2.043792e+003 1.090799e+003 1.885557e+003
         vertex 2.038792e+003 1.090799e+003 1.885557e+003
      endloop
   endfacet
   facet normal 2.190977e-016 -1.161583e-001 -9.932307e-001
      outer loop
         vertex 2.038792e+003 1.090799e+003 1.885557e+003
         vertex 2.043792e+003 1.090799e+003 1.885557e+003
         vertex 2.043792e+003 1.090417e+003 1.885590e+003
      endloop
   endfacet
   facet normal 2.238827e-016 -5.807914e-002 -9.983120e-001
      outer loop
         vertex 2.038792e+003 1.090799e+003 1.885557e+003
         vertex 2.043792e+003 1.090417e+003 1.885590e+003
         vertex 2.038792e+003 1.090417e+003 1.885590e+003
      endloop
   endfacet
   facet normal 2.311368e-016 5.807914e-002 -9.983120e-001
      outer loop
         vertex 2.038792e+003 1.090417e+003 1.885590e+003
         vertex 2.043792e+003 1.090417e+003 1.885590e+003
         vertex 2.043792e+003 1.090035e+003 1.885557e+003
      endloop
   endfacet
   facet normal 2.336059e-016 1.161583e-001 -9.932307e-001
      outer loop
         vertex 2.038792e+003 1.090417e+003 1.885590e+003
         vertex 2.043792e+003 1.090035e+003 1.885557e+003
         vertex 2.038792e+003 1.090035e+003 1.885557e+003
      endloop
   endfacet
   facet normal 2.361530e-016 2.305518e-001 -9.730601e-001
      outer loop
         vertex 2.038792e+003 1.090035e+003 1.885557e+003
         vertex 2.043792e+003 1.090035e+003 1.885557e+003
         vertex 2.043792e+003 1.089665e+003 1.885457e+003
      endloop
   endfacet
   facet normal 2.362310e-016 2.868663e-001 -9.579706e-001
      outer loop
         vertex 2.038792e+003 1.090035e+003 1.885557e+003
         vertex 2.043792e+003 1.089665e+003 1.885457e+003
         vertex 2.038792e+003 1.089665e+003 1.885457e+003
      endloop
   endfacet
   facet normal 2.339938e-016 3.960194e-001 -9.182422e-001
      outer loop
         vertex 2.038792e+003 1.089665e+003 1.885457e+003
         vertex 2.043792e+003 1.089665e+003 1.885457e+003
         vertex 2.043792e+003 1.089317e+003 1.885295e+003
      endloop
   endfacet
   facet normal 2.316784e-016 4.488580e-001 -8.936031e-001
      outer loop
         vertex 2.038792e+003 1.089665e+003 1.885457e+003
         vertex 2.043792e+003 1.089317e+003 1.885295e+003
         vertex 2.038792e+003 1.089317e+003 1.885295e+003
      endloop
   endfacet
   facet normal 2.247247e-016 5.494540e-001 -8.355240e-001
      outer loop
         vertex 2.038792e+003 1.089317e+003 1.885295e+003
         vertex 2.043792e+003 1.089317e+003 1.885295e+003
         vertex 2.043792e+003 1.089003e+003 1.885075e+003
      endloop
   endfacet
   facet normal 2.200864e-016 5.972114e-001 -8.020839e-001
      outer loop
         vertex 2.038792e+003 1.089317e+003 1.885295e+003
         vertex 2.043792e+003 1.089003e+003 1.885075e+003
         vertex 2.038792e+003 1.089003e+003 1.885075e+003
      endloop
   endfacet
   facet normal 2.086276e-016 6.861938e-001 -7.274188e-001
      outer loop
         vertex 2.038792e+003 1.089003e+003 1.885075e+003
         vertex 2.043792e+003 1.089003e+003 1.885075e+003
         vertex 2.043792e+003 1.088732e+003 1.884804e+003
      endloop
   endfacet
   facet normal 2.018071e-016 7.274188e-001 -6.861938e-001
      outer loop
         vertex 2.038792e+003 1.089003e+003 1.885075e+003
         vertex 2.043792e+003 1.088732e+003 1.884804e+003
         vertex 2.038792e+003 1.088732e+003 1.884804e+003
      endloop
   endfacet
   facet normal 1.861914e-016 8.020839e-001 -5.972114e-001
      outer loop
         vertex 2.038792e+003 1.088732e+003 1.884804e+003
         vertex 2.043792e+003 1.088732e+003 1.884804e+003
         vertex 2.043792e+003 1.088512e+003 1.884490e+003
      endloop
   endfacet
   facet normal 1.773960e-016 8.355240e-001 -5.494540e-001
      outer loop
         vertex 2.038792e+003 1.088732e+003 1.884804e+003
         vertex 2.043792e+003 1.088512e+003 1.884490e+003
         vertex 2.038792e+003 1.088512e+003 1.884490e+003
      endloop
   endfacet
   facet normal 1.580978e-016 8.936031e-001 -4.488580e-001
      outer loop
         vertex 2.038792e+003 1.088512e+003 1.884490e+003
         vertex 2.043792e+003 1.088512e+003 1.884490e+003
         vertex 2.043792e+003 1.088350e+003 1.884142e+003
      endloop
   endfacet
   facet normal 1.475949e-016 9.182422e-001 -3.960194e-001
      outer loop
         vertex 2.038792e+003 1.088512e+003 1.884490e+003
         vertex 2.043792e+003 1.088350e+003 1.884142e+003
         vertex 2.038792e+003 1.088350e+003 1.884142e+003
      endloop
   endfacet
   facet normal 1.252005e-016 9.579706e-001 -2.868663e-001
      outer loop
         vertex 2.038792e+003 1.088350e+003 1.884142e+003
         vertex 2.043792e+003 1.088350e+003 1.884142e+003
         vertex 2.043792e+003 1.088251e+003 1.883772e+003
      endloop
   endfacet
   facet normal 1.133091e-016 9.730601e-001 -2.305518e-001
      outer loop
         vertex 2.038792e+003 1.088350e+003 1.884142e+003
         vertex 2.043792e+003 1.088251e+003 1.883772e+003
         vertex 2.038792e+003 1.088251e+003 1.883772e+003
      endloop
   endfacet
   facet normal 8.849913e-017 9.932307e-001 -1.161583e-001
      outer loop
         vertex 2.038792e+003 1.088251e+003 1.883772e+003
         vertex 2.043792e+003 1.088251e+003 1.883772e+003
         vertex 2.043792e+003 1.088217e+003 1.883390e+003
      endloop
   endfacet
   facet normal 7.558054e-017 9.983120e-001 -5.807914e-002
      outer loop
         vertex 2.038792e+003 1.074251e+003 1.883772e+003
         vertex 2.043792e+003 1.074217e+003 1.883390e+003
         vertex 2.038792e+003 1.074217e+003 1.883390e+003
      endloop
   endfacet
   facet normal 4.910871e-017 9.983120e-001 5.807914e-002
      outer loop
         vertex 2.038792e+003 1.074217e+003 1.883390e+003
         vertex 2.043792e+003 1.074217e+003 1.883390e+003
         vertex 2.043792e+003 1.074251e+003 1.883008e+003
      endloop
   endfacet
   facet normal 3.555547e-017 9.932307e-001 1.161583e-001
      outer loop
         vertex 2.038792e+003 1.074217e+003 1.883390e+003
         vertex 2.043792e+003 1.074251e+003 1.883008e+003
         vertex 2.038792e+003 1.074251e+003 1.883008e+003
      endloop
   endfacet
   facet normal 8.226154e-018 9.730601e-001 2.305518e-001
      outer loop
         vertex 2.038792e+003 1.074251e+003 1.883008e+003
         vertex 2.043792e+003 1.074251e+003 1.883008e+003
         vertex 2.043792e+003 1.074350e+003 1.882637e+003
      endloop
   endfacet
   facet normal -5.549933e-018 9.579706e-001 2.868663e-001
      outer loop
         vertex 2.038792e+003 1.074251e+003 1.883008e+003
         vertex 2.043792e+003 1.074350e+003 1.882637e+003
         vertex 2.038792e+003 1.074350e+003 1.882637e+003
      endloop
   endfacet
   facet normal -3.290636e-017 9.182422e-001 3.960194e-001
      outer loop
         vertex 2.038792e+003 1.074350e+003 1.882637e+003
         vertex 2.043792e+003 1.074350e+003 1.882637e+003
         vertex 2.043792e+003 1.074512e+003 1.882290e+003
      endloop
   endfacet
   facet normal -4.648671e-017 8.936031e-001 4.488580e-001
      outer loop
         vertex 2.038792e+003 1.074350e+003 1.882637e+003
         vertex 2.043792e+003 1.074512e+003 1.882290e+003
         vertex 2.038792e+003 1.074512e+003 1.882290e+003
      endloop
   endfacet
   facet normal -7.303902e-017 8.355240e-001 5.494540e-001
      outer loop
         vertex 2.038792e+003 1.074512e+003 1.882290e+003
         vertex 2.043792e+003 1.074512e+003 1.882290e+003
         vertex 2.043792e+003 1.074732e+003 1.881976e+003
      endloop
   endfacet
   facet normal -8.601100e-017 8.020839e-001 5.972114e-001
      outer loop
         vertex 2.038792e+003 1.074512e+003 1.882290e+003
         vertex 2.043792e+003 1.074732e+003 1.881976e+003
         vertex 2.038792e+003 1.074732e+003 1.881976e+003
      endloop
   endfacet
   facet normal -1.109524e-016 7.274188e-001 6.861938e-001
      outer loop
         vertex 2.038792e+003 1.074732e+003 1.881976e+003
         vertex 2.043792e+003 1.074732e+003 1.881976e+003
         vertex 2.043792e+003 1.075003e+003 1.881705e+003
      endloop
   endfacet
   facet normal -1.229219e-016 6.861938e-001 7.274188e-001
      outer loop
         vertex 2.038792e+003 1.074732e+003 1.881976e+003
         vertex 2.043792e+003 1.075003e+003 1.881705e+003
         vertex 2.038792e+003 1.075003e+003 1.881705e+003
      endloop
   endfacet
   facet normal -1.454946e-016 5.972114e-001 8.020839e-001
      outer loop
         vertex 2.038792e+003 1.075003e+003 1.881705e+003
         vertex 2.043792e+003 1.075003e+003 1.881705e+003
         vertex 2.043792e+003 1.075317e+003 1.881485e+003
      endloop
   endfacet
   facet normal -1.560979e-016 5.494540e-001 8.355240e-001
      outer loop
         vertex 2.038792e+003 1.075003e+003 1.881705e+003
         vertex 2.043792e+003 1.075317e+003 1.881485e+003
         vertex 2.038792e+003 1.075317e+003 1.881485e+003
      endloop
   endfacet
   facet normal -1.756160e-016 4.488580e-001 8.936031e-001
      outer loop
         vertex 2.038792e+003 1.075317e+003 1.881485e+003
         vertex 2.043792e+003 1.075317e+003 1.881485e+003
         vertex 2.043792e+003 1.075665e+003 1.881323e+003
      endloop
   endfacet
   facet normal -1.845309e-016 3.960194e-001 9.182422e-001
      outer loop
         vertex 2.038792e+003 1.075317e+003 1.881485e+003
         vertex 2.043792e+003 1.075665e+003 1.881323e+003
         vertex 2.038792e+003 1.075665e+003 1.881323e+003
      endloop
   endfacet
   facet normal -2.004014e-016 2.868663e-001 9.579706e-001
      outer loop
         vertex 2.038792e+003 1.075665e+003 1.881323e+003
         vertex 2.043792e+003 1.075665e+003 1.881323e+003
         vertex 2.043792e+003 1.076035e+003 1.881223e+003
      endloop
   endfacet
   facet normal -2.073570e-016 2.305518e-001 9.730601e-001
      outer loop
         vertex 2.038792e+003 1.075665e+003 1.881323e+003
         vertex 2.043792e+003 1.076035e+003 1.881223e+003
         vertex 2.038792e+003 1.076035e+003 1.881223e+003
      endloop
   endfacet
   facet normal -2.190977e-016 1.161583e-001 9.932307e-001
      outer loop
         vertex 2.038792e+003 1.076035e+003 1.881223e+003
         vertex 2.043792e+003 1.076035e+003 1.881223e+003
         vertex 2.043792e+003 1.076417e+003 1.881190e+003
      endloop
   endfacet
   facet normal -2.238827e-016 5.807914e-002 9.983120e-001
      outer loop
         vertex 2.038792e+003 1.076035e+003 1.881223e+003
         vertex 2.043792e+003 1.076417e+003 1.881190e+003
         vertex 2.038792e+003 1.076417e+003 1.881190e+003
      endloop
   endfacet
   facet normal -2.311368e-016 -5.807914e-002 9.983120e-001
      outer loop
         vertex 2.038792e+003 1.076417e+003 1.881190e+003
         vertex 2.043792e+003 1.076417e+003 1.881190e+003
         vertex 2.043792e+003 1.076799e+003 1.881223e+003
      endloop
   endfacet
   facet normal -2.336059e-016 -1.161583e-001 9.932307e-001
      outer loop
         vertex 2.038792e+003 1.076417e+003 1.881190e+003
         vertex 2.043792e+003 1.076799e+003 1.881223e+003
         vertex 2.038792e+003 1.076799e+003 1.881223e+003
      endloop
   endfacet
   facet normal -2.361530e-016 -2.305518e-001 9.730601e-001
      outer loop
         vertex 2.038792e+003 1.076799e+003 1.881223e+003
         vertex 2.043792e+003 1.076799e+003 1.881223e+003
         vertex 2.043792e+003 1.077170e+003 1.881323e+003
      endloop
   endfacet
   facet normal -2.362310e-016 -2.868663e-001 9.579706e-001
      outer loop
         vertex 2.038792e+003 1.076799e+003 1.881223e+003
         vertex 2.043792e+003 1.077170e+003 1.881323e+003
         vertex 2.038792e+003 1.077170e+003 1.881323e+003
      endloop
   endfacet
   facet normal -2.339938e-016 -3.960194e-001 9.182422e-001
      outer loop
         vertex 2.038792e+003 1.077170e+003 1.881323e+003
         vertex 2.043792e+003 1.077170e+003 1.881323e+003
         vertex 2.043792e+003 1.077517e+003 1.881485e+003
      endloop
   endfacet
   facet normal -2.316784e-016 -4.488580e-001 8.936031e-001
      outer loop
         vertex 2.038792e+003 1.077170e+003 1.881323e+003
         vertex 2.043792e+003 1.077517e+003 1.881485e+003
         vertex 2.038792e+003 1.077517e+003 1.881485e+003
      endloop
   endfacet
   facet normal -2.247247e-016 -5.494540e-001 8.355240e-001
      outer loop
         vertex 2.038792e+003 1.077517e+003 1.881485e+003
         vertex 2.043792e+003 1.077517e+003 1.881485e+003
         vertex 2.043792e+003 1.077832e+003 1.881705e+003
      endloop
   endfacet
   facet normal -2.200864e-016 -5.972114e-001 8.020839e-001
      outer loop
         vertex 2.038792e+003 1.077517e+003 1.881485e+003
         vertex 2.043792e+003 1.077832e+003 1.881705e+003
         vertex 2.038792e+003 1.077832e+003 1.881705e+003
      endloop
   endfacet
   facet normal -2.086276e-016 -6.861938e-001 7.274188e-001
      outer loop
         vertex 2.038792e+003 1.077832e+003 1.881705e+003
         vertex 2.043792e+003 1.077832e+003 1.881705e+003
         vertex 2.043792e+003 1.078103e+003 1.881976e+003
      endloop
   endfacet
   facet normal -2.018071e-016 -7.274188e-001 6.861938e-001
      outer loop
         vertex 2.038792e+003 1.077832e+003 1.881705e+003
         vertex 2.043792e+003 1.078103e+003 1.881976e+003
         vertex 2.038792e+003 1.078103e+003 1.881976e+003
      endloop
   endfacet
   facet normal -1.861914e-016 -8.020839e-001 5.972114e-001
      outer loop
         vertex 2.038792e+003 1.078103e+003 1.881976e+003
         vertex 2.043792e+003 1.078103e+003 1.881976e+003
         vertex 2.043792e+003 1.078323e+003 1.882290e+003
      endloop
   endfacet
   facet normal -1.773960e-016 -8.355240e-001 5.494540e-001
      outer loop
         vertex 2.038792e+003 1.078103e+003 1.881976e+003
         vertex 2.043792e+003 1.078323e+003 1.882290e+003
         vertex 2.038792e+003 1.078323e+003 1.882290e+003
      endloop
   endfacet
   facet normal -1.580978e-016 -8.936031e-001 4.488580e-001
      outer loop
         vertex 2.038792e+003 1.078323e+003 1.882290e+003
         vertex 2.043792e+003 1.078323e+003 1.882290e+003
         vertex 2.043792e+003 1.078485e+003 1.882637e+003
      endloop
   endfacet
   facet normal -1.475949e-016 -9.182422e-001 3.960194e-001
      outer loop
         vertex 2.038792e+003 1.078323e+003 1.882290e+003
         vertex 2.043792e+003 1.078485e+003 1.882637e+003
         vertex 2.038792e+003 1.078485e+003 1.882637e+003
      endloop
   endfacet
   facet normal -1.252005e-016 -9.579706e-001 2.868663e-001
      outer loop
         vertex 2.038792e+003 1.078485e+003 1.882637e+003
         vertex 2.043792e+003 1.078485e+003 1.882637e+003
         vertex 2.043792e+003 1.078584e+003 1.883008e+003
      endloop
   endfacet
   facet normal -1.133091e-016 -9.730601e-001 2.305518e-001
      outer loop
         vertex 2.038792e+003 1.078485e+003 1.882637e+003
         vertex 2.043792e+003 1.078584e+003 1.883008e+003
         vertex 2.038792e+003 1.078584e+003 1.883008e+003
      endloop
   endfacet
   facet normal -8.849913e-017 -9.932307e-001 1.161583e-001
      outer loop
         vertex 2.038792e+003 1.078584e+003 1.883008e+003
         vertex 2.043792e+003 1.078584e+003 1.883008e+003
         vertex 2.043792e+003 1.078617e+003 1.883390e+003
      endloop
   endfacet
   facet normal -7.558054e-017 -9.983120e-001 5.807914e-002
      outer loop
         vertex 2.038792e+003 1.078584e+003 1.883008e+003
         vertex 2.043792e+003 1.078617e+003 1.883390e+003
         vertex 2.038792e+003 1.078617e+003 1.883390e+003
      endloop
   endfacet
   facet normal -4.910871e-017 -9.983120e-001 -5.807914e-002
      outer loop
         vertex 2.038792e+003 1.078617e+003 1.883390e+003
         vertex 2.043792e+003 1.078617e+003 1.883390e+003
         vertex 2.043792e+003 1.078584e+003 1.883772e+003
      endloop
   endfacet
   facet normal -3.555547e-017 -9.932307e-001 -1.161583e-001
      outer loop
         vertex 2.038792e+003 1.078617e+003 1.883390e+003
         vertex 2.043792e+003 1.078584e+003 1.883772e+003
         vertex 2.038792e+003 1.078584e+003 1.883772e+003
      endloop
   endfacet
   facet normal -8.226154e-018 -9.730601e-001 -2.305518e-001
      outer loop
         vertex 2.038792e+003 1.078584e+003 1.883772e+003
         vertex 2.043792e+003 1.078584e+003 1.883772e+003
         vertex 2.043792e+003 1.078485e+003 1.884142e+003
      endloop
   endfacet
   facet normal 5.549933e-018 -9.579706e-001 -2.868663e-001
      outer loop
         vertex 2.038792e+003 1.078584e+003 1.883772e+003
         vertex 2.043792e+003 1.078485e+003 1.884142e+003
         vertex 2.038792e+003 1.078485e+003 1.884142e+003
      endloop
   endfacet
   facet normal 3.290636e-017 -9.182422e-001 -3.960194e-001
      outer loop
         vertex 2.038792e+003 1.078485e+003 1.884142e+003
         vertex 2.043792e+003 1.078485e+003 1.884142e+003
         vertex 2.043792e+003 1.078323e+003 1.884490e+003
      endloop
   endfacet
   facet normal 4.648671e-017 -8.936031e-001 -4.488580e-001
      outer loop
         vertex 2.038792e+003 1.078485e+003 1.884142e+003
         vertex 2.043792e+003 1.078323e+003 1.884490e+003
         vertex 2.038792e+003 1.078323e+003 1.884490e+003
      endloop
   endfacet
   facet normal 7.303902e-017 -8.355240e-001 -5.494540e-001
      outer loop
         vertex 2.038792e+003 1.078323e+003 1.884490e+003
         vertex 2.043792e+003 1.078323e+003 1.884490e+003
         vertex 2.043792e+003 1.078103e+003 1.884804e+003
      endloop
   endfacet
   facet normal 8.601100e-017 -8.020839e-001 -5.972114e-001
      outer loop
         vertex 2.038792e+003 1.078323e+003 1.884490e+003
         vertex 2.043792e+003 1.078103e+003 1.884804e+003
         vertex 2.038792e+003 1.078103e+003 1.884804e+003
      endloop
   endfacet
   facet normal 1.109524e-016 -7.274188e-001 -6.861938e-001
      outer loop
         vertex 2.038792e+003 1.078103e+003 1.884804e+003
         vertex 2.043792e+003 1.078103e+003 1.884804e+003
         vertex 2.043792e+003 1.077832e+003 1.885075e+003
      endloop
   endfacet
   facet normal 1.229219e-016 -6.861938e-001 -7.274188e-001
      outer loop
         vertex 2.038792e+003 1.078103e+003 1.884804e+003
         vertex 2.043792e+003 1.077832e+003 1.885075e+003
         vertex 2.038792e+003 1.077832e+003 1.885075e+003
      endloop
   endfacet
   facet normal 1.454946e-016 -5.972114e-001 -8.020839e-001
      outer loop
         vertex 2.038792e+003 1.077832e+003 1.885075e+003
         vertex 2.043792e+003 1.077832e+003 1.885075e+003
         vertex 2.043792e+003 1.077517e+003 1.885295e+003
      endloop
   endfacet
   facet normal 1.560979e-016 -5.494540e-001 -8.355240e-001
      outer loop
         vertex 2.038792e+003 1.077832e+003 1.885075e+003
         vertex 2.043792e+003 1.077517e+003 1.885295e+003
         vertex 2.038792e+003 1.077517e+003 1.885295e+003
      endloop
   endfacet
   facet normal 1.756160e-016 -4.488580e-001 -8.936031e-001
      outer loop
         vertex 2.038792e+003 1.077517e+003 1.885295e+003
         vertex 2.043792e+003 1.077517e+003 1.885295e+003
         vertex 2.043792e+003 1.077170e+003 1.885457e+003
      endloop
   endfacet
   facet normal 1.845309e-016 -3.960194e-001 -9.182422e-001
      outer loop
         vertex 2.038792e+003 1.077517e+003 1.885295e+003
         vertex 2.043792e+003 1.077170e+003 1.885457e+003
         vertex 2.038792e+003 1.077170e+003 1.885457e+003
      endloop
   endfacet
   facet normal 2.004014e-016 -2.868663e-001 -9.579706e-001
      outer loop
         vertex 2.038792e+003 1.077170e+003 1.885457e+003
         vertex 2.043792e+003 1.077170e+003 1.885457e+003
         vertex 2.043792e+003 1.076799e+003 1.885557e+003
      endloop
   endfacet
   facet normal 2.073570e-016 -2.305518e-001 -9.730601e-001
      outer loop
         vertex 2.038792e+003 1.077170e+003 1.885457e+003
         vertex 2.043792e+003 1.076799e+003 1.885557e+003
         vertex 2.038792e+003 1.076799e+003 1.885557e+003
      endloop
   endfacet
   facet normal 2.190977e-016 -1.161583e-001 -9.932307e-001
      outer loop
         vertex 2.038792e+003 1.076799e+003 1.885557e+003
         vertex 2.043792e+003 1.076799e+003 1.885557e+003
         vertex 2.043792e+003 1.076417e+003 1.885590e+003
      endloop
   endfacet
   facet normal 2.238827e-016 -5.807914e-002 -9.983120e-001
      outer loop
         vertex 2.038792e+003 1.076799e+003 1.885557e+003
         vertex 2.043792e+003 1.076417e+003 1.885590e+003
         vertex 2.038792e+003 1.076417e+003 1.885590e+003
      endloop
   endfacet
   facet normal 2.311368e-016 5.807914e-002 -9.983120e-001
      outer loop
         vertex 2.038792e+003 1.076417e+003 1.885590e+003
         vertex 2.043792e+003 1.076417e+003 1.885590e+003
         vertex 2.043792e+003 1.076035e+003 1.885557e+003
      endloop
   endfacet
   facet normal 2.336059e-016 1.161583e-001 -9.932307e-001
      outer loop
         vertex 2.038792e+003 1.076417e+003 1.885590e+003
         vertex 2.043792e+003 1.076035e+003 1.885557e+003
         vertex 2.038792e+003 1.076035e+003 1.885557e+003
      endloop
   endfacet
   facet normal 2.361530e-016 2.305518e-001 -9.730601e-001
      outer loop
         vertex 2.038792e+003 1.076035e+003 1.885557e+003
         vertex 2.043792e+003 1.076035e+003 1.885557e+003
         vertex 2.043792e+003 1.075665e+003 1.885457e+003
      endloop
   endfacet
   facet normal 2.362310e-016 2.868663e-001 -9.579706e-001
      outer loop
         vertex 2.038792e+003 1.076035e+003 1.885557e+003
         vertex 2.043792e+003 1.075665e+003 1.885457e+003
         vertex 2.038792e+003 1.075665e+003 1.885457e+003
      endloop
   endfacet
   facet normal 2.339938e-016 3.960194e-001 -9.182422e-001
      outer loop
         vertex 2.038792e+003 1.075665e+003 1.885457e+003
         vertex 2.043792e+003 1.075665e+003 1.885457e+003
         vertex 2.043792e+003 1.075317e+003 1.885295e+003
      endloop
   endfacet
   facet normal 2.316784e-016 4.488580e-001 -8.936031e-001
      outer loop
         vertex 2.038792e+003 1.075665e+003 1.885457e+003
         vertex 2.043792e+003 1.075317e+003 1.885295e+003
         vertex 2.038792e+003 1.075317e+003 1.885295e+003
      endloop
   endfacet
   facet normal 2.247247e-016 5.494540e-001 -8.355240e-001
      outer loop
         vertex 2.038792e+003 1.075317e+003 1.885295e+003
         vertex 2.043792e+003 1.075317e+003 1.885295e+003
         vertex 2.043792e+003 1.075003e+003 1.885075e+003
      endloop
   endfacet
   facet normal 2.200864e-016 5.972114e-001 -8.020839e-001
      outer loop
         vertex 2.038792e+003 1.075317e+003 1.885295e+003
         vertex 2.043792e+003 1.075003e+003 1.885075e+003
         vertex 2.038792e+003 1.075003e+003 1.885075e+003
      endloop
   endfacet
   facet normal 2.086276e-016 6.861938e-001 -7.274188e-001
      outer loop
         vertex 2.038792e+003 1.075003e+003 1.885075e+003
         vertex 2.043792e+003 1.075003e+003 1.885075e+003
         vertex 2.043792e+003 1.074732e+003 1.884804e+003
      endloop
   endfacet
   facet normal 2.018071e-016 7.274188e-001 -6.861938e-001
      outer loop
         vertex 2.038792e+003 1.075003e+003 1.885075e+003
         vertex 2.043792e+003 1.074732e+003 1.884804e+003
         vertex 2.038792e+003 1.074732e+003 1.884804e+003
      endloop
   endfacet
   facet normal 1.861914e-016 8.020839e-001 -5.972114e-001
      outer loop
         vertex 2.038792e+003 1.074732e+003 1.884804e+003
         vertex 2.043792e+003 1.074732e+003 1.884804e+003
         vertex 2.043792e+003 1.074512e+003 1.884490e+003
      endloop
   endfacet
   facet normal 1.773960e-016 8.355240e-001 -5.494540e-001
      outer loop
         vertex 2.038792e+003 1.074732e+003 1.884804e+003
         vertex 2.043792e+003 1.074512e+003 1.884490e+003
         vertex 2.038792e+003 1.074512e+003 1.884490e+003
      endloop
   endfacet
   facet normal 1.580978e-016 8.936031e-001 -4.488580e-001
      outer loop
         vertex 2.038792e+003 1.074512e+003 1.884490e+003
         vertex 2.043792e+003 1.074512e+003 1.884490e+003
         vertex 2.043792e+003 1.074350e+003 1.884142e+003
      endloop
   endfacet
   facet normal 1.475949e-016 9.182422e-001 -3.960194e-001
      outer loop
         vertex 2.038792e+003 1.074512e+003 1.884490e+003
         vertex 2.043792e+003 1.074350e+003 1.884142e+003
         vertex 2.038792e+003 1.074350e+003 1.884142e+003
      endloop
   endfacet
   facet normal 1.252005e-016 9.579706e-001 -2.868663e-001
      outer loop
         vertex 2.038792e+003 1.074350e+003 1.884142e+003
         vertex 2.043792e+003 1.074350e+003 1.884142e+003
         vertex 2.043792e+003 1.074251e+003 1.883772e+003
      endloop
   endfacet
   facet normal 1.133091e-016 9.730601e-001 -2.305518e-001
      outer loop
         vertex 2.038792e+003 1.074350e+003 1.884142e+003
         vertex 2.043792e+003 1.074251e+003 1.883772e+003
         vertex 2.038792e+003 1.074251e+003 1.883772e+003
      endloop
   endfacet
   facet normal 8.849913e-017 9.932307e-001 -1.161583e-001
      outer loop
         vertex 2.038792e+003 1.074251e+003 1.883772e+003
         vertex 2.043792e+003 1.074251e+003 1.883772e+003
         vertex 2.043792e+003 1.074217e+003 1.883390e+003
      endloop
   endfacet
endsolid