solid 09.025.00.00.000 - 09.025.00.08.000-2 09.025.00.08.025-3
   facet normal 6.245005e-017 1.000000e+000 -1.162265e-016
      outer loop
         vertex 2.043792e+003 8.134173e+002 1.948390e+003
         vertex 2.043792e+003 8.134173e+002 1.873390e+003
         vertex 2.038792e+003 8.134173e+002 1.948390e+003
      endloop
   endfacet
   facet normal 6.245005e-017 1.000000e+000 -1.162265e-016
      outer loop
         vertex 2.038792e+003 8.134173e+002 1.948390e+003
         vertex 2.043792e+003 8.134173e+002 1.873390e+003
         vertex 2.038792e+003 8.134173e+002 1.873390e+003
      endloop
   endfacet
   facet normal -2.278945e-016 9.677449e-017 1.000000e+000
      outer loop
         vertex 2.043792e+003 7.934174e+002 1.948390e+003
         vertex 2.043792e+003 8.134173e+002 1.948390e+003
         vertex 2.038792e+003 7.934174e+002 1.948390e+003
      endloop
   endfacet
   facet normal -2.278945e-016 9.677449e-017 1.000000e+000
      outer loop
         vertex 2.038792e+003 7.934174e+002 1.948390e+003
         vertex 2.043792e+003 8.134173e+002 1.948390e+003
         vertex 2.038792e+003 8.134173e+002 1.948390e+003
      endloop
   endfacet
   facet normal -6.245005e-017 -1.000000e+000 1.624858e-016
      outer loop
         vertex 2.043792e+003 7.934174e+002 1.873390e+003
         vertex 2.043792e+003 7.934174e+002 1.948390e+003
         vertex 2.038792e+003 7.934174e+002 1.873390e+003
      endloop
   endfacet
   facet normal -6.245005e-017 -1.000000e+000 1.624858e-016
      outer loop
         vertex 2.038792e+003 7.934174e+002 1.873390e+003
         vertex 2.043792e+003 7.934174e+002 1.948390e+003
         vertex 2.038792e+003 7.934174e+002 1.948390e+003
      endloop
   endfacet
   facet normal 2.278945e-016 -9.677449e-017 -1.000000e+000
      outer loop
         vertex 2.043792e+003 8.134173e+002 1.873390e+003
         vertex 2.043792e+003 7.934174e+002 1.873390e+003
         vertex 2.038792e+003 8.134173e+002 1.873390e+003
      endloop
   endfacet
   facet normal 2.278945e-016 -9.677449e-017 -1.000000e+000
      outer loop
         vertex 2.038792e+003 8.134173e+002 1.873390e+003
         vertex 2.043792e+003 7.934174e+002 1.873390e+003
         vertex 2.038792e+003 7.934174e+002 1.873390e+003
      endloop
   endfacet
   facet normal 1.000000e+000 -7.285839e-017 2.012279e-016
      outer loop
         vertex 2.043792e+003 7.934174e+002 1.948390e+003
         vertex 2.043792e+003 7.934174e+002 1.873390e+003
         vertex 2.043792e+003 7.942173e+002 1.883390e+003
      endloop
   endfacet
   facet normal 1.000000e+000 -7.285839e-017 2.012279e-016
      outer loop
         vertex 2.043792e+003 8.134173e+002 1.948390e+003
         vertex 2.043792e+003 8.104174e+002 1.885590e+003
         vertex 2.043792e+003 8.107994e+002 1.885557e+003
      endloop
   endfacet
   facet normal 1.000000e+000 -7.285839e-017 2.012279e-016
      outer loop
         vertex 2.043792e+003 8.104174e+002 1.885590e+003
         vertex 2.043792e+003 8.134173e+002 1.948390e+003
         vertex 2.043792e+003 8.100353e+002 1.885557e+003
      endloop
   endfacet
   facet normal 1.000000e+000 -7.285839e-017 2.012279e-016
      outer loop
         vertex 2.043792e+003 8.100353e+002 1.885557e+003
         vertex 2.043792e+003 8.134173e+002 1.948390e+003
         vertex 2.043792e+003 7.934174e+002 1.948390e+003
      endloop
   endfacet
   facet normal 1.000000e+000 -7.285839e-017 2.012279e-016
      outer loop
         vertex 2.043792e+003 8.100353e+002 1.885557e+003
         vertex 2.043792e+003 7.934174e+002 1.948390e+003
         vertex 2.043792e+003 8.096649e+002 1.885457e+003
      endloop
   endfacet
   facet normal 1.000000e+000 -7.285839e-017 2.012279e-016
      outer loop
         vertex 2.043792e+003 7.942173e+002 1.883390e+003
         vertex 2.043792e+003 7.942507e+002 1.883772e+003
         vertex 2.043792e+003 7.934174e+002 1.948390e+003
      endloop
   endfacet
   facet normal 1.000000e+000 -7.285839e-017 2.012279e-016
      outer loop
         vertex 2.043792e+003 7.934174e+002 1.948390e+003
         vertex 2.043792e+003 7.942507e+002 1.883772e+003
         vertex 2.043792e+003 7.943500e+002 1.884142e+003
      endloop
   endfacet
   facet normal 1.000000e+000 -7.285839e-017 2.012279e-016
      outer loop
         vertex 2.043792e+003 7.934174e+002 1.948390e+003
         vertex 2.043792e+003 7.943500e+002 1.884142e+003
         vertex 2.043792e+003 7.945121e+002 1.884490e+003
      endloop
   endfacet
   facet normal 1.000000e+000 -7.285839e-017 2.012279e-016
      outer loop
         vertex 2.043792e+003 7.945121e+002 1.884490e+003
         vertex 2.043792e+003 7.947321e+002 1.884804e+003
         vertex 2.043792e+003 7.934174e+002 1.948390e+003
      endloop
   endfacet
   facet normal 1.000000e+000 -7.285839e-017 2.012279e-016
      outer loop
         vertex 2.043792e+003 7.934174e+002 1.948390e+003
         vertex 2.043792e+003 7.947321e+002 1.884804e+003
         vertex 2.043792e+003 7.950032e+002 1.885075e+003
      endloop
   endfacet
   facet normal 1.000000e+000 -7.285839e-017 2.012279e-016
      outer loop
         vertex 2.043792e+003 7.934174e+002 1.948390e+003
         vertex 2.043792e+003 7.950032e+002 1.885075e+003
         vertex 2.043792e+003 7.953173e+002 1.885295e+003
      endloop
   endfacet
   facet normal 1.000000e+000 -7.285839e-017 2.012279e-016
      outer loop
         vertex 2.043792e+003 8.082508e+002 1.883772e+003
         vertex 2.043792e+003 8.083500e+002 1.884142e+003
         vertex 2.043792e+003 7.967994e+002 1.885557e+003
      endloop
   endfacet
   facet normal 1.000000e+000 -7.285839e-017 2.012279e-016
      outer loop
         vertex 2.043792e+003 7.971698e+002 1.885457e+003
         vertex 2.043792e+003 8.096649e+002 1.881323e+003
         vertex 2.043792e+003 8.093173e+002 1.881485e+003
      endloop
   endfacet
   facet normal 1.000000e+000 -7.285839e-017 2.012279e-016
      outer loop
         vertex 2.043792e+003 8.093173e+002 1.881485e+003
         vertex 2.043792e+003 8.090032e+002 1.881705e+003
         vertex 2.043792e+003 7.971698e+002 1.885457e+003
      endloop
   endfacet
   facet normal 1.000000e+000 -7.285839e-017 2.012279e-016
      outer loop
         vertex 2.043792e+003 7.971698e+002 1.885457e+003
         vertex 2.043792e+003 8.090032e+002 1.881705e+003
         vertex 2.043792e+003 8.087321e+002 1.881976e+003
      endloop
   endfacet
   facet normal 1.000000e+000 -7.285839e-017 2.012279e-016
      outer loop
         vertex 2.043792e+003 7.971698e+002 1.885457e+003
         vertex 2.043792e+003 8.087321e+002 1.881976e+003
         vertex 2.043792e+003 8.085121e+002 1.882290e+003
      endloop
   endfacet
   facet normal 1.000000e+000 -7.285839e-017 2.012279e-016
      outer loop
         vertex 2.043792e+003 7.971698e+002 1.885457e+003
         vertex 2.043792e+003 7.975173e+002 1.885295e+003
         vertex 2.043792e+003 8.096649e+002 1.881323e+003
      endloop
   endfacet
   facet normal 1.000000e+000 -7.285839e-017 2.012279e-016
      outer loop
         vertex 2.043792e+003 8.096649e+002 1.881323e+003
         vertex 2.043792e+003 7.975173e+002 1.885295e+003
         vertex 2.043792e+003 7.978315e+002 1.885075e+003
      endloop
   endfacet
   facet normal 1.000000e+000 -7.285839e-017 2.012279e-016
      outer loop
         vertex 2.043792e+003 8.096649e+002 1.881323e+003
         vertex 2.043792e+003 7.978315e+002 1.885075e+003
         vertex 2.043792e+003 7.981026e+002 1.884804e+003
      endloop
   endfacet
   facet normal 1.000000e+000 -7.285839e-017 2.012279e-016
      outer loop
         vertex 2.043792e+003 7.953173e+002 1.885295e+003
         vertex 2.043792e+003 7.956649e+002 1.885457e+003
         vertex 2.043792e+003 7.934174e+002 1.948390e+003
      endloop
   endfacet
   facet normal 1.000000e+000 -7.285839e-017 2.012279e-016
      outer loop
         vertex 2.043792e+003 7.934174e+002 1.948390e+003
         vertex 2.043792e+003 7.956649e+002 1.885457e+003
         vertex 2.043792e+003 7.960353e+002 1.885557e+003
      endloop
   endfacet
   facet normal 1.000000e+000 -7.285839e-017 2.012279e-016
      outer loop
         vertex 2.043792e+003 7.934174e+002 1.948390e+003
         vertex 2.043792e+003 7.960353e+002 1.885557e+003
         vertex 2.043792e+003 7.964174e+002 1.885590e+003
      endloop
   endfacet
   facet normal 1.000000e+000 -7.285839e-017 2.012279e-016
      outer loop
         vertex 2.043792e+003 8.107994e+002 1.885557e+003
         vertex 2.043792e+003 8.111698e+002 1.885457e+003
         vertex 2.043792e+003 8.134173e+002 1.948390e+003
      endloop
   endfacet
   facet normal 1.000000e+000 -7.285839e-017 2.012279e-016
      outer loop
         vertex 2.043792e+003 8.134173e+002 1.948390e+003
         vertex 2.043792e+003 8.111698e+002 1.885457e+003
         vertex 2.043792e+003 8.115173e+002 1.885295e+003
      endloop
   endfacet
   facet normal 1.000000e+000 -7.285839e-017 2.012279e-016
      outer loop
         vertex 2.043792e+003 8.134173e+002 1.948390e+003
         vertex 2.043792e+003 8.115173e+002 1.885295e+003
         vertex 2.043792e+003 8.118315e+002 1.885075e+003
      endloop
   endfacet
   facet normal 1.000000e+000 -7.285839e-017 2.012279e-016
      outer loop
         vertex 2.043792e+003 8.085121e+002 1.882290e+003
         vertex 2.043792e+003 8.083500e+002 1.882637e+003
         vertex 2.043792e+003 7.971698e+002 1.885457e+003
      endloop
   endfacet
   facet normal 1.000000e+000 -7.285839e-017 2.012279e-016
      outer loop
         vertex 2.043792e+003 7.971698e+002 1.885457e+003
         vertex 2.043792e+003 8.083500e+002 1.882637e+003
         vertex 2.043792e+003 8.082508e+002 1.883008e+003
      endloop
   endfacet
   facet normal 1.000000e+000 -7.285839e-017 2.012279e-016
      outer loop
         vertex 2.043792e+003 7.971698e+002 1.885457e+003
         vertex 2.043792e+003 8.082508e+002 1.883008e+003
         vertex 2.043792e+003 7.967994e+002 1.885557e+003
      endloop
   endfacet
   facet normal 1.000000e+000 -7.285839e-017 2.012279e-016
      outer loop
         vertex 2.043792e+003 7.967994e+002 1.885557e+003
         vertex 2.043792e+003 8.082508e+002 1.883008e+003
         vertex 2.043792e+003 8.082173e+002 1.883390e+003
      endloop
   endfacet
   facet normal 1.000000e+000 -7.285839e-017 2.012279e-016
      outer loop
         vertex 2.043792e+003 7.967994e+002 1.885557e+003
         vertex 2.043792e+003 8.082173e+002 1.883390e+003
         vertex 2.043792e+003 8.082508e+002 1.883772e+003
      endloop
   endfacet
   facet normal 1.000000e+000 -7.285839e-017 2.012279e-016
      outer loop
         vertex 2.043792e+003 7.934174e+002 1.873390e+003
         vertex 2.043792e+003 7.956649e+002 1.881323e+003
         vertex 2.043792e+003 7.953173e+002 1.881485e+003
      endloop
   endfacet
   facet normal 1.000000e+000 -7.285839e-017 2.012279e-016
      outer loop
         vertex 2.043792e+003 8.083500e+002 1.884142e+003
         vertex 2.043792e+003 8.085121e+002 1.884490e+003
         vertex 2.043792e+003 7.967994e+002 1.885557e+003
      endloop
   endfacet
   facet normal 1.000000e+000 -7.285839e-017 2.012279e-016
      outer loop
         vertex 2.043792e+003 7.967994e+002 1.885557e+003
         vertex 2.043792e+003 8.085121e+002 1.884490e+003
         vertex 2.043792e+003 8.087321e+002 1.884804e+003
      endloop
   endfacet
   facet normal 1.000000e+000 -7.285839e-017 2.012279e-016
      outer loop
         vertex 2.043792e+003 7.967994e+002 1.885557e+003
         vertex 2.043792e+003 8.087321e+002 1.884804e+003
         vertex 2.043792e+003 7.964174e+002 1.885590e+003
      endloop
   endfacet
   facet normal 1.000000e+000 -7.285839e-017 2.012279e-016
      outer loop
         vertex 2.043792e+003 7.964174e+002 1.885590e+003
         vertex 2.043792e+003 8.087321e+002 1.884804e+003
         vertex 2.043792e+003 8.090032e+002 1.885075e+003
      endloop
   endfacet
   facet normal 1.000000e+000 -7.285839e-017 2.012279e-016
      outer loop
         vertex 2.043792e+003 7.964174e+002 1.885590e+003
         vertex 2.043792e+003 8.090032e+002 1.885075e+003
         vertex 2.043792e+003 7.934174e+002 1.948390e+003
      endloop
   endfacet
   facet normal 1.000000e+000 -7.285839e-017 2.012279e-016
      outer loop
         vertex 2.043792e+003 7.934174e+002 1.948390e+003
         vertex 2.043792e+003 8.090032e+002 1.885075e+003
         vertex 2.043792e+003 8.093173e+002 1.885295e+003
      endloop
   endfacet
   facet normal 1.000000e+000 -7.285839e-017 2.012279e-016
      outer loop
         vertex 2.043792e+003 7.934174e+002 1.948390e+003
         vertex 2.043792e+003 8.093173e+002 1.885295e+003
         vertex 2.043792e+003 8.096649e+002 1.885457e+003
      endloop
   endfacet
   facet normal 1.000000e+000 -7.285839e-017 2.012279e-016
      outer loop
         vertex 2.043792e+003 8.118315e+002 1.885075e+003
         vertex 2.043792e+003 8.121026e+002 1.884804e+003
         vertex 2.043792e+003 8.134173e+002 1.948390e+003
      endloop
   endfacet
   facet normal 1.000000e+000 -7.285839e-017 2.012279e-016
      outer loop
         vertex 2.043792e+003 8.134173e+002 1.948390e+003
         vertex 2.043792e+003 8.121026e+002 1.884804e+003
         vertex 2.043792e+003 8.123226e+002 1.884490e+003
      endloop
   endfacet
   facet normal 1.000000e+000 -7.285839e-017 2.012279e-016
      outer loop
         vertex 2.043792e+003 8.134173e+002 1.948390e+003
         vertex 2.043792e+003 8.123226e+002 1.884490e+003
         vertex 2.043792e+003 8.124847e+002 1.884142e+003
      endloop
   endfacet
   facet normal 1.000000e+000 -7.285839e-017 2.012279e-016
      outer loop
         vertex 2.043792e+003 8.111698e+002 1.881323e+003
         vertex 2.043792e+003 8.134173e+002 1.873390e+003
         vertex 2.043792e+003 8.115173e+002 1.881485e+003
      endloop
   endfacet
   facet normal 1.000000e+000 -7.285839e-017 2.012279e-016
      outer loop
         vertex 2.043792e+003 8.115173e+002 1.881485e+003
         vertex 2.043792e+003 8.134173e+002 1.873390e+003
         vertex 2.043792e+003 8.118315e+002 1.881705e+003
      endloop
   endfacet
   facet normal 1.000000e+000 -7.285839e-017 2.012279e-016
      outer loop
         vertex 2.043792e+003 8.134173e+002 1.873390e+003
         vertex 2.043792e+003 7.971698e+002 1.881323e+003
         vertex 2.043792e+003 7.934174e+002 1.873390e+003
      endloop
   endfacet
   facet normal 1.000000e+000 -7.285839e-017 2.012279e-016
      outer loop
         vertex 2.043792e+003 7.934174e+002 1.873390e+003
         vertex 2.043792e+003 7.971698e+002 1.881323e+003
         vertex 2.043792e+003 7.967994e+002 1.881223e+003
      endloop
   endfacet
   facet normal 1.000000e+000 -7.285839e-017 2.012279e-016
      outer loop
         vertex 2.043792e+003 8.124847e+002 1.882637e+003
         vertex 2.043792e+003 8.123226e+002 1.882290e+003
         vertex 2.043792e+003 8.134173e+002 1.873390e+003
      endloop
   endfacet
   facet normal 1.000000e+000 -7.285839e-017 2.012279e-016
      outer loop
         vertex 2.043792e+003 8.134173e+002 1.873390e+003
         vertex 2.043792e+003 8.123226e+002 1.882290e+003
         vertex 2.043792e+003 8.121026e+002 1.881976e+003
      endloop
   endfacet
   facet normal 1.000000e+000 -7.285839e-017 2.012279e-016
      outer loop
         vertex 2.043792e+003 8.134173e+002 1.873390e+003
         vertex 2.043792e+003 8.121026e+002 1.881976e+003
         vertex 2.043792e+003 8.118315e+002 1.881705e+003
      endloop
   endfacet
   facet normal 1.000000e+000 -7.285839e-017 2.012279e-016
      outer loop
         vertex 2.043792e+003 7.981026e+002 1.881976e+003
         vertex 2.043792e+003 7.978315e+002 1.881705e+003
         vertex 2.043792e+003 8.134173e+002 1.873390e+003
      endloop
   endfacet
   facet normal 1.000000e+000 -7.285839e-017 2.012279e-016
      outer loop
         vertex 2.043792e+003 8.134173e+002 1.873390e+003
         vertex 2.043792e+003 7.978315e+002 1.881705e+003
         vertex 2.043792e+003 7.975173e+002 1.881485e+003
      endloop
   endfacet
   facet normal 1.000000e+000 -7.285839e-017 2.012279e-016
      outer loop
         vertex 2.043792e+003 8.134173e+002 1.873390e+003
         vertex 2.043792e+003 7.975173e+002 1.881485e+003
         vertex 2.043792e+003 7.971698e+002 1.881323e+003
      endloop
   endfacet
   facet normal 1.000000e+000 -7.285839e-017 2.012279e-016
      outer loop
         vertex 2.043792e+003 7.967994e+002 1.881223e+003
         vertex 2.043792e+003 7.964174e+002 1.881190e+003
         vertex 2.043792e+003 7.934174e+002 1.873390e+003
      endloop
   endfacet
   facet normal 1.000000e+000 -7.285839e-017 2.012279e-016
      outer loop
         vertex 2.043792e+003 7.934174e+002 1.873390e+003
         vertex 2.043792e+003 7.964174e+002 1.881190e+003
         vertex 2.043792e+003 7.960353e+002 1.881223e+003
      endloop
   endfacet
   facet normal 1.000000e+000 -7.285839e-017 2.012279e-016
      outer loop
         vertex 2.043792e+003 7.934174e+002 1.873390e+003
         vertex 2.043792e+003 7.960353e+002 1.881223e+003
         vertex 2.043792e+003 7.956649e+002 1.881323e+003
      endloop
   endfacet
   facet normal 1.000000e+000 -7.285839e-017 2.012279e-016
      outer loop
         vertex 2.043792e+003 7.945121e+002 1.882290e+003
         vertex 2.043792e+003 7.943500e+002 1.882637e+003
         vertex 2.043792e+003 7.934174e+002 1.873390e+003
      endloop
   endfacet
   facet normal 1.000000e+000 -7.285839e-017 2.012279e-016
      outer loop
         vertex 2.043792e+003 7.934174e+002 1.873390e+003
         vertex 2.043792e+003 7.943500e+002 1.882637e+003
         vertex 2.043792e+003 7.942507e+002 1.883008e+003
      endloop
   endfacet
   facet normal 1.000000e+000 -7.285839e-017 2.012279e-016
      outer loop
         vertex 2.043792e+003 7.934174e+002 1.873390e+003
         vertex 2.043792e+003 7.942507e+002 1.883008e+003
         vertex 2.043792e+003 7.942173e+002 1.883390e+003
      endloop
   endfacet
   facet normal 1.000000e+000 -7.285839e-017 2.012279e-016
      outer loop
         vertex 2.043792e+003 7.981026e+002 1.884804e+003
         vertex 2.043792e+003 7.983226e+002 1.884490e+003
         vertex 2.043792e+003 8.096649e+002 1.881323e+003
      endloop
   endfacet
   facet normal 1.000000e+000 -7.285839e-017 2.012279e-016
      outer loop
         vertex 2.043792e+003 8.096649e+002 1.881323e+003
         vertex 2.043792e+003 7.983226e+002 1.884490e+003
         vertex 2.043792e+003 7.984847e+002 1.884142e+003
      endloop
   endfacet
   facet normal 1.000000e+000 -7.285839e-017 2.012279e-016
      outer loop
         vertex 2.043792e+003 8.096649e+002 1.881323e+003
         vertex 2.043792e+003 7.984847e+002 1.884142e+003
         vertex 2.043792e+003 8.100353e+002 1.881223e+003
      endloop
   endfacet
   facet normal 1.000000e+000 -7.285839e-017 2.012279e-016
      outer loop
         vertex 2.043792e+003 8.100353e+002 1.881223e+003
         vertex 2.043792e+003 7.984847e+002 1.884142e+003
         vertex 2.043792e+003 7.985839e+002 1.883772e+003
      endloop
   endfacet
   facet normal 1.000000e+000 -7.285839e-017 2.012279e-016
      outer loop
         vertex 2.043792e+003 8.100353e+002 1.881223e+003
         vertex 2.043792e+003 7.985839e+002 1.883772e+003
         vertex 2.043792e+003 7.986173e+002 1.883390e+003
      endloop
   endfacet
   facet normal 1.000000e+000 -7.285839e-017 2.012279e-016
      outer loop
         vertex 2.043792e+003 7.953173e+002 1.881485e+003
         vertex 2.043792e+003 7.950032e+002 1.881705e+003
         vertex 2.043792e+003 7.934174e+002 1.873390e+003
      endloop
   endfacet
   facet normal 1.000000e+000 -7.285839e-017 2.012279e-016
      outer loop
         vertex 2.043792e+003 7.934174e+002 1.873390e+003
         vertex 2.043792e+003 7.950032e+002 1.881705e+003
         vertex 2.043792e+003 7.947321e+002 1.881976e+003
      endloop
   endfacet
   facet normal 1.000000e+000 -7.285839e-017 2.012279e-016
      outer loop
         vertex 2.043792e+003 7.934174e+002 1.873390e+003
         vertex 2.043792e+003 7.947321e+002 1.881976e+003
         vertex 2.043792e+003 7.945121e+002 1.882290e+003
      endloop
   endfacet
   facet normal 1.000000e+000 -7.285839e-017 2.012279e-016
      outer loop
         vertex 2.043792e+003 8.111698e+002 1.881323e+003
         vertex 2.043792e+003 8.107994e+002 1.881223e+003
         vertex 2.043792e+003 8.134173e+002 1.873390e+003
      endloop
   endfacet
   facet normal 1.000000e+000 -7.285839e-017 2.012279e-016
      outer loop
         vertex 2.043792e+003 8.134173e+002 1.873390e+003
         vertex 2.043792e+003 8.107994e+002 1.881223e+003
         vertex 2.043792e+003 8.104174e+002 1.881190e+003
      endloop
   endfacet
   facet normal 1.000000e+000 -7.285839e-017 2.012279e-016
      outer loop
         vertex 2.043792e+003 8.134173e+002 1.873390e+003
         vertex 2.043792e+003 8.104174e+002 1.881190e+003
         vertex 2.043792e+003 8.100353e+002 1.881223e+003
      endloop
   endfacet
   facet normal 1.000000e+000 -7.285839e-017 2.012279e-016
      outer loop
         vertex 2.043792e+003 8.124847e+002 1.884142e+003
         vertex 2.043792e+003 8.125839e+002 1.883772e+003
         vertex 2.043792e+003 8.134173e+002 1.948390e+003
      endloop
   endfacet
   facet normal 1.000000e+000 -7.285839e-017 2.012279e-016
      outer loop
         vertex 2.043792e+003 8.134173e+002 1.948390e+003
         vertex 2.043792e+003 8.125839e+002 1.883772e+003
         vertex 2.043792e+003 8.126174e+002 1.883390e+003
      endloop
   endfacet
   facet normal 1.000000e+000 -7.285839e-017 2.012279e-016
      outer loop
         vertex 2.043792e+003 8.134173e+002 1.948390e+003
         vertex 2.043792e+003 8.126174e+002 1.883390e+003
         vertex 2.043792e+003 8.134173e+002 1.873390e+003
      endloop
   endfacet
   facet normal 1.000000e+000 -7.285839e-017 2.012279e-016
      outer loop
         vertex 2.043792e+003 8.134173e+002 1.873390e+003
         vertex 2.043792e+003 8.126174e+002 1.883390e+003
         vertex 2.043792e+003 8.125839e+002 1.883008e+003
      endloop
   endfacet
   facet normal 1.000000e+000 -7.285839e-017 2.012279e-016
      outer loop
         vertex 2.043792e+003 8.134173e+002 1.873390e+003
         vertex 2.043792e+003 8.125839e+002 1.883008e+003
         vertex 2.043792e+003 8.124847e+002 1.882637e+003
      endloop
   endfacet
   facet normal 1.000000e+000 -7.285839e-017 2.012279e-016
      outer loop
         vertex 2.043792e+003 7.986173e+002 1.883390e+003
         vertex 2.043792e+003 7.985839e+002 1.883008e+003
         vertex 2.043792e+003 8.100353e+002 1.881223e+003
      endloop
   endfacet
   facet normal 1.000000e+000 -7.285839e-017 2.012279e-016
      outer loop
         vertex 2.043792e+003 8.100353e+002 1.881223e+003
         vertex 2.043792e+003 7.985839e+002 1.883008e+003
         vertex 2.043792e+003 7.984847e+002 1.882637e+003
      endloop
   endfacet
   facet normal 1.000000e+000 -7.285839e-017 2.012279e-016
      outer loop
         vertex 2.043792e+003 8.100353e+002 1.881223e+003
         vertex 2.043792e+003 7.984847e+002 1.882637e+003
         vertex 2.043792e+003 8.134173e+002 1.873390e+003
      endloop
   endfacet
   facet normal 1.000000e+000 -7.285839e-017 2.012279e-016
      outer loop
         vertex 2.043792e+003 8.134173e+002 1.873390e+003
         vertex 2.043792e+003 7.984847e+002 1.882637e+003
         vertex 2.043792e+003 7.983226e+002 1.882290e+003
      endloop
   endfacet
   facet normal 1.000000e+000 -7.285839e-017 2.012279e-016
      outer loop
         vertex 2.043792e+003 8.134173e+002 1.873390e+003
         vertex 2.043792e+003 7.983226e+002 1.882290e+003
         vertex 2.043792e+003 7.981026e+002 1.881976e+003
      endloop
   endfacet
   facet normal -1.000000e+000 7.285839e-017 -2.012279e-016
      outer loop
         vertex 2.038792e+003 8.104174e+002 1.885590e+003
         vertex 2.038792e+003 8.134173e+002 1.948390e+003
         vertex 2.038792e+003 8.107994e+002 1.885557e+003
      endloop
   endfacet
   facet normal -1.000000e+000 7.285839e-017 -2.012279e-016
      outer loop
         vertex 2.038792e+003 8.107994e+002 1.885557e+003
         vertex 2.038792e+003 8.134173e+002 1.948390e+003
         vertex 2.038792e+003 8.111698e+002 1.885457e+003
      endloop
   endfacet
   facet normal -1.000000e+000 7.285839e-017 -2.012279e-016
      outer loop
         vertex 2.038792e+003 8.121026e+002 1.884804e+003
         vertex 2.038792e+003 8.134173e+002 1.948390e+003
         vertex 2.038792e+003 8.123226e+002 1.884490e+003
      endloop
   endfacet
   facet normal -1.000000e+000 7.285839e-017 -2.012279e-016
      outer loop
         vertex 2.038792e+003 8.123226e+002 1.884490e+003
         vertex 2.038792e+003 8.134173e+002 1.948390e+003
         vertex 2.038792e+003 8.124847e+002 1.884142e+003
      endloop
   endfacet
   facet normal -1.000000e+000 7.285839e-017 -2.012279e-016
      outer loop
         vertex 2.038792e+003 8.121026e+002 1.884804e+003
         vertex 2.038792e+003 8.118315e+002 1.885075e+003
         vertex 2.038792e+003 8.134173e+002 1.948390e+003
      endloop
   endfacet
   facet normal -1.000000e+000 7.285839e-017 -2.012279e-016
      outer loop
         vertex 2.038792e+003 8.134173e+002 1.948390e+003
         vertex 2.038792e+003 8.118315e+002 1.885075e+003
         vertex 2.038792e+003 8.115173e+002 1.885295e+003
      endloop
   endfacet
   facet normal -1.000000e+000 7.285839e-017 -2.012279e-016
      outer loop
         vertex 2.038792e+003 8.134173e+002 1.948390e+003
         vertex 2.038792e+003 8.115173e+002 1.885295e+003
         vertex 2.038792e+003 8.111698e+002 1.885457e+003
      endloop
   endfacet
   facet normal -1.000000e+000 7.285839e-017 -2.012279e-016
      outer loop
         vertex 2.038792e+003 8.107994e+002 1.881223e+003
         vertex 2.038792e+003 8.111698e+002 1.881323e+003
         vertex 2.038792e+003 8.134173e+002 1.873390e+003
      endloop
   endfacet
   facet normal -1.000000e+000 7.285839e-017 -2.012279e-016
      outer loop
         vertex 2.038792e+003 8.134173e+002 1.873390e+003
         vertex 2.038792e+003 8.111698e+002 1.881323e+003
         vertex 2.038792e+003 8.115173e+002 1.881485e+003
      endloop
   endfacet
   facet normal -1.000000e+000 7.285839e-017 -2.012279e-016
      outer loop
         vertex 2.038792e+003 8.134173e+002 1.873390e+003
         vertex 2.038792e+003 8.115173e+002 1.881485e+003
         vertex 2.038792e+003 8.118315e+002 1.881705e+003
      endloop
   endfacet
   facet normal -1.000000e+000 7.285839e-017 -2.012279e-016
      outer loop
         vertex 2.038792e+003 8.118315e+002 1.881705e+003
         vertex 2.038792e+003 8.121026e+002 1.881976e+003
         vertex 2.038792e+003 8.134173e+002 1.873390e+003
      endloop
   endfacet
   facet normal -1.000000e+000 7.285839e-017 -2.012279e-016
      outer loop
         vertex 2.038792e+003 8.134173e+002 1.873390e+003
         vertex 2.038792e+003 8.121026e+002 1.881976e+003
         vertex 2.038792e+003 8.123226e+002 1.882290e+003
      endloop
   endfacet
   facet normal -1.000000e+000 7.285839e-017 -2.012279e-016
      outer loop
         vertex 2.038792e+003 8.134173e+002 1.873390e+003
         vertex 2.038792e+003 8.123226e+002 1.882290e+003
         vertex 2.038792e+003 8.124847e+002 1.882637e+003
      endloop
   endfacet
   facet normal -1.000000e+000 7.285839e-017 -2.012279e-016
      outer loop
         vertex 2.038792e+003 8.124847e+002 1.882637e+003
         vertex 2.038792e+003 8.125839e+002 1.883008e+003
         vertex 2.038792e+003 8.134173e+002 1.873390e+003
      endloop
   endfacet
   facet normal -1.000000e+000 7.285839e-017 -2.012279e-016
      outer loop
         vertex 2.038792e+003 8.134173e+002 1.873390e+003
         vertex 2.038792e+003 8.125839e+002 1.883008e+003
         vertex 2.038792e+003 8.126174e+002 1.883390e+003
      endloop
   endfacet
   facet normal -1.000000e+000 7.285839e-017 -2.012279e-016
      outer loop
         vertex 2.038792e+003 8.134173e+002 1.873390e+003
         vertex 2.038792e+003 8.126174e+002 1.883390e+003
         vertex 2.038792e+003 8.134173e+002 1.948390e+003
      endloop
   endfacet
   facet normal -1.000000e+000 7.285839e-017 -2.012279e-016
      outer loop
         vertex 2.038792e+003 8.134173e+002 1.948390e+003
         vertex 2.038792e+003 8.126174e+002 1.883390e+003
         vertex 2.038792e+003 8.125839e+002 1.883772e+003
      endloop
   endfacet
   facet normal -1.000000e+000 7.285839e-017 -2.012279e-016
      outer loop
         vertex 2.038792e+003 8.134173e+002 1.948390e+003
         vertex 2.038792e+003 8.125839e+002 1.883772e+003
         vertex 2.038792e+003 8.124847e+002 1.884142e+003
      endloop
   endfacet
   facet normal -1.000000e+000 7.285839e-017 -2.012279e-016
      outer loop
         vertex 2.038792e+003 7.934174e+002 1.873390e+003
         vertex 2.038792e+003 7.956649e+002 1.881323e+003
         vertex 2.038792e+003 7.960353e+002 1.881223e+003
      endloop
   endfacet
   facet normal -1.000000e+000 7.285839e-017 -2.012279e-016
      outer loop
         vertex 2.038792e+003 7.981026e+002 1.881976e+003
         vertex 2.038792e+003 7.983226e+002 1.882290e+003
         vertex 2.038792e+003 8.096649e+002 1.885457e+003
      endloop
   endfacet
   facet normal -1.000000e+000 7.285839e-017 -2.012279e-016
      outer loop
         vertex 2.038792e+003 8.096649e+002 1.881323e+003
         vertex 2.038792e+003 8.100353e+002 1.881223e+003
         vertex 2.038792e+003 8.134173e+002 1.873390e+003
      endloop
   endfacet
   facet normal -1.000000e+000 7.285839e-017 -2.012279e-016
      outer loop
         vertex 2.038792e+003 8.134173e+002 1.873390e+003
         vertex 2.038792e+003 8.100353e+002 1.881223e+003
         vertex 2.038792e+003 8.104174e+002 1.881190e+003
      endloop
   endfacet
   facet normal -1.000000e+000 7.285839e-017 -2.012279e-016
      outer loop
         vertex 2.038792e+003 8.134173e+002 1.873390e+003
         vertex 2.038792e+003 8.104174e+002 1.881190e+003
         vertex 2.038792e+003 8.107994e+002 1.881223e+003
      endloop
   endfacet
   facet normal -1.000000e+000 7.285839e-017 -2.012279e-016
      outer loop
         vertex 2.038792e+003 8.100353e+002 1.885557e+003
         vertex 2.038792e+003 7.985839e+002 1.883772e+003
         vertex 2.038792e+003 7.984847e+002 1.884142e+003
      endloop
   endfacet
   facet normal -1.000000e+000 7.285839e-017 -2.012279e-016
      outer loop
         vertex 2.038792e+003 7.984847e+002 1.884142e+003
         vertex 2.038792e+003 7.983226e+002 1.884490e+003
         vertex 2.038792e+003 8.100353e+002 1.885557e+003
      endloop
   endfacet
   facet normal -1.000000e+000 7.285839e-017 -2.012279e-016
      outer loop
         vertex 2.038792e+003 8.100353e+002 1.885557e+003
         vertex 2.038792e+003 7.983226e+002 1.884490e+003
         vertex 2.038792e+003 7.981026e+002 1.884804e+003
      endloop
   endfacet
   facet normal -1.000000e+000 7.285839e-017 -2.012279e-016
      outer loop
         vertex 2.038792e+003 8.100353e+002 1.885557e+003
         vertex 2.038792e+003 7.981026e+002 1.884804e+003
         vertex 2.038792e+003 8.104174e+002 1.885590e+003
      endloop
   endfacet
   facet normal -1.000000e+000 7.285839e-017 -2.012279e-016
      outer loop
         vertex 2.038792e+003 7.975173e+002 1.885295e+003
         vertex 2.038792e+003 7.971698e+002 1.885457e+003
         vertex 2.038792e+003 8.134173e+002 1.948390e+003
      endloop
   endfacet
   facet normal -1.000000e+000 7.285839e-017 -2.012279e-016
      outer loop
         vertex 2.038792e+003 8.134173e+002 1.948390e+003
         vertex 2.038792e+003 7.971698e+002 1.885457e+003
         vertex 2.038792e+003 7.967994e+002 1.885557e+003
      endloop
   endfacet
   facet normal -1.000000e+000 7.285839e-017 -2.012279e-016
      outer loop
         vertex 2.038792e+003 8.134173e+002 1.948390e+003
         vertex 2.038792e+003 7.967994e+002 1.885557e+003
         vertex 2.038792e+003 7.934174e+002 1.948390e+003
      endloop
   endfacet
   facet normal -1.000000e+000 7.285839e-017 -2.012279e-016
      outer loop
         vertex 2.038792e+003 7.934174e+002 1.948390e+003
         vertex 2.038792e+003 7.967994e+002 1.885557e+003
         vertex 2.038792e+003 7.964174e+002 1.885590e+003
      endloop
   endfacet
   facet normal -1.000000e+000 7.285839e-017 -2.012279e-016
      outer loop
         vertex 2.038792e+003 7.934174e+002 1.948390e+003
         vertex 2.038792e+003 7.964174e+002 1.885590e+003
         vertex 2.038792e+003 7.960353e+002 1.885557e+003
      endloop
   endfacet
   facet normal -1.000000e+000 7.285839e-017 -2.012279e-016
      outer loop
         vertex 2.038792e+003 7.960353e+002 1.885557e+003
         vertex 2.038792e+003 7.956649e+002 1.885457e+003
         vertex 2.038792e+003 7.934174e+002 1.948390e+003
      endloop
   endfacet
   facet normal -1.000000e+000 7.285839e-017 -2.012279e-016
      outer loop
         vertex 2.038792e+003 7.934174e+002 1.948390e+003
         vertex 2.038792e+003 7.956649e+002 1.885457e+003
         vertex 2.038792e+003 7.953173e+002 1.885295e+003
      endloop
   endfacet
   facet normal -1.000000e+000 7.285839e-017 -2.012279e-016
      outer loop
         vertex 2.038792e+003 7.934174e+002 1.948390e+003
         vertex 2.038792e+003 7.953173e+002 1.885295e+003
         vertex 2.038792e+003 7.950032e+002 1.885075e+003
      endloop
   endfacet
   facet normal -1.000000e+000 7.285839e-017 -2.012279e-016
      outer loop
         vertex 2.038792e+003 8.104174e+002 1.885590e+003
         vertex 2.038792e+003 7.981026e+002 1.884804e+003
         vertex 2.038792e+003 8.134173e+002 1.948390e+003
      endloop
   endfacet
   facet normal -1.000000e+000 7.285839e-017 -2.012279e-016
      outer loop
         vertex 2.038792e+003 8.134173e+002 1.948390e+003
         vertex 2.038792e+003 7.981026e+002 1.884804e+003
         vertex 2.038792e+003 7.978315e+002 1.885075e+003
      endloop
   endfacet
   facet normal -1.000000e+000 7.285839e-017 -2.012279e-016
      outer loop
         vertex 2.038792e+003 8.134173e+002 1.948390e+003
         vertex 2.038792e+003 7.978315e+002 1.885075e+003
         vertex 2.038792e+003 7.975173e+002 1.885295e+003
      endloop
   endfacet
   facet normal -1.000000e+000 7.285839e-017 -2.012279e-016
      outer loop
         vertex 2.038792e+003 7.950032e+002 1.885075e+003
         vertex 2.038792e+003 7.947321e+002 1.884804e+003
         vertex 2.038792e+003 7.934174e+002 1.948390e+003
      endloop
   endfacet
   facet normal -1.000000e+000 7.285839e-017 -2.012279e-016
      outer loop
         vertex 2.038792e+003 7.934174e+002 1.948390e+003
         vertex 2.038792e+003 7.947321e+002 1.884804e+003
         vertex 2.038792e+003 7.945121e+002 1.884490e+003
      endloop
   endfacet
   facet normal -1.000000e+000 7.285839e-017 -2.012279e-016
      outer loop
         vertex 2.038792e+003 7.934174e+002 1.948390e+003
         vertex 2.038792e+003 7.945121e+002 1.884490e+003
         vertex 2.038792e+003 7.943500e+002 1.884142e+003
      endloop
   endfacet
   facet normal -1.000000e+000 7.285839e-017 -2.012279e-016
      outer loop
         vertex 2.038792e+003 7.960353e+002 1.881223e+003
         vertex 2.038792e+003 7.964174e+002 1.881190e+003
         vertex 2.038792e+003 7.934174e+002 1.873390e+003
      endloop
   endfacet
   facet normal -1.000000e+000 7.285839e-017 -2.012279e-016
      outer loop
         vertex 2.038792e+003 7.934174e+002 1.873390e+003
         vertex 2.038792e+003 7.964174e+002 1.881190e+003
         vertex 2.038792e+003 7.967994e+002 1.881223e+003
      endloop
   endfacet
   facet normal -1.000000e+000 7.285839e-017 -2.012279e-016
      outer loop
         vertex 2.038792e+003 7.934174e+002 1.873390e+003
         vertex 2.038792e+003 7.967994e+002 1.881223e+003
         vertex 2.038792e+003 8.134173e+002 1.873390e+003
      endloop
   endfacet
   facet normal -1.000000e+000 7.285839e-017 -2.012279e-016
      outer loop
         vertex 2.038792e+003 8.134173e+002 1.873390e+003
         vertex 2.038792e+003 7.967994e+002 1.881223e+003
         vertex 2.038792e+003 7.971698e+002 1.881323e+003
      endloop
   endfacet
   facet normal -1.000000e+000 7.285839e-017 -2.012279e-016
      outer loop
         vertex 2.038792e+003 8.134173e+002 1.873390e+003
         vertex 2.038792e+003 7.971698e+002 1.881323e+003
         vertex 2.038792e+003 7.975173e+002 1.881485e+003
      endloop
   endfacet
   facet normal -1.000000e+000 7.285839e-017 -2.012279e-016
      outer loop
         vertex 2.038792e+003 7.981026e+002 1.881976e+003
         vertex 2.038792e+003 8.096649e+002 1.885457e+003
         vertex 2.038792e+003 7.978315e+002 1.881705e+003
      endloop
   endfacet
   facet normal -1.000000e+000 7.285839e-017 -2.012279e-016
      outer loop
         vertex 2.038792e+003 7.983226e+002 1.882290e+003
         vertex 2.038792e+003 7.984847e+002 1.882637e+003
         vertex 2.038792e+003 8.096649e+002 1.885457e+003
      endloop
   endfacet
   facet normal -1.000000e+000 7.285839e-017 -2.012279e-016
      outer loop
         vertex 2.038792e+003 8.096649e+002 1.885457e+003
         vertex 2.038792e+003 7.984847e+002 1.882637e+003
         vertex 2.038792e+003 7.985839e+002 1.883008e+003
      endloop
   endfacet
   facet normal -1.000000e+000 7.285839e-017 -2.012279e-016
      outer loop
         vertex 2.038792e+003 8.096649e+002 1.885457e+003
         vertex 2.038792e+003 7.985839e+002 1.883008e+003
         vertex 2.038792e+003 8.100353e+002 1.885557e+003
      endloop
   endfacet
   facet normal -1.000000e+000 7.285839e-017 -2.012279e-016
      outer loop
         vertex 2.038792e+003 8.100353e+002 1.885557e+003
         vertex 2.038792e+003 7.985839e+002 1.883008e+003
         vertex 2.038792e+003 7.986173e+002 1.883390e+003
      endloop
   endfacet
   facet normal -1.000000e+000 7.285839e-017 -2.012279e-016
      outer loop
         vertex 2.038792e+003 8.100353e+002 1.885557e+003
         vertex 2.038792e+003 7.986173e+002 1.883390e+003
         vertex 2.038792e+003 7.985839e+002 1.883772e+003
      endloop
   endfacet
   facet normal -1.000000e+000 7.285839e-017 -2.012279e-016
      outer loop
         vertex 2.038792e+003 7.978315e+002 1.881705e+003
         vertex 2.038792e+003 8.096649e+002 1.885457e+003
         vertex 2.038792e+003 7.975173e+002 1.881485e+003
      endloop
   endfacet
   facet normal -1.000000e+000 7.285839e-017 -2.012279e-016
      outer loop
         vertex 2.038792e+003 7.975173e+002 1.881485e+003
         vertex 2.038792e+003 8.096649e+002 1.885457e+003
         vertex 2.038792e+003 8.093173e+002 1.885295e+003
      endloop
   endfacet
   facet normal -1.000000e+000 7.285839e-017 -2.012279e-016
      outer loop
         vertex 2.038792e+003 7.975173e+002 1.881485e+003
         vertex 2.038792e+003 8.093173e+002 1.885295e+003
         vertex 2.038792e+003 8.090032e+002 1.885075e+003
      endloop
   endfacet
   facet normal -1.000000e+000 7.285839e-017 -2.012279e-016
      outer loop
         vertex 2.038792e+003 8.090032e+002 1.885075e+003
         vertex 2.038792e+003 8.087321e+002 1.884804e+003
         vertex 2.038792e+003 7.975173e+002 1.881485e+003
      endloop
   endfacet
   facet normal -1.000000e+000 7.285839e-017 -2.012279e-016
      outer loop
         vertex 2.038792e+003 7.975173e+002 1.881485e+003
         vertex 2.038792e+003 8.087321e+002 1.884804e+003
         vertex 2.038792e+003 8.085121e+002 1.884490e+003
      endloop
   endfacet
   facet normal -1.000000e+000 7.285839e-017 -2.012279e-016
      outer loop
         vertex 2.038792e+003 7.975173e+002 1.881485e+003
         vertex 2.038792e+003 8.085121e+002 1.884490e+003
         vertex 2.038792e+003 8.083500e+002 1.884142e+003
      endloop
   endfacet
   facet normal -1.000000e+000 7.285839e-017 -2.012279e-016
      outer loop
         vertex 2.038792e+003 7.975173e+002 1.881485e+003
         vertex 2.038792e+003 8.090032e+002 1.881705e+003
         vertex 2.038792e+003 8.134173e+002 1.873390e+003
      endloop
   endfacet
   facet normal -1.000000e+000 7.285839e-017 -2.012279e-016
      outer loop
         vertex 2.038792e+003 8.134173e+002 1.873390e+003
         vertex 2.038792e+003 8.090032e+002 1.881705e+003
         vertex 2.038792e+003 8.093173e+002 1.881485e+003
      endloop
   endfacet
   facet normal -1.000000e+000 7.285839e-017 -2.012279e-016
      outer loop
         vertex 2.038792e+003 8.134173e+002 1.873390e+003
         vertex 2.038792e+003 8.093173e+002 1.881485e+003
         vertex 2.038792e+003 8.096649e+002 1.881323e+003
      endloop
   endfacet
   facet normal -1.000000e+000 7.285839e-017 -2.012279e-016
      outer loop
         vertex 2.038792e+003 7.943500e+002 1.884142e+003
         vertex 2.038792e+003 7.942507e+002 1.883772e+003
         vertex 2.038792e+003 7.934174e+002 1.948390e+003
      endloop
   endfacet
   facet normal -1.000000e+000 7.285839e-017 -2.012279e-016
      outer loop
         vertex 2.038792e+003 7.934174e+002 1.948390e+003
         vertex 2.038792e+003 7.942507e+002 1.883772e+003
         vertex 2.038792e+003 7.942173e+002 1.883390e+003
      endloop
   endfacet
   facet normal -1.000000e+000 7.285839e-017 -2.012279e-016
      outer loop
         vertex 2.038792e+003 7.934174e+002 1.948390e+003
         vertex 2.038792e+003 7.942173e+002 1.883390e+003
         vertex 2.038792e+003 7.934174e+002 1.873390e+003
      endloop
   endfacet
   facet normal -1.000000e+000 7.285839e-017 -2.012279e-016
      outer loop
         vertex 2.038792e+003 7.934174e+002 1.873390e+003
         vertex 2.038792e+003 7.942173e+002 1.883390e+003
         vertex 2.038792e+003 7.942507e+002 1.883008e+003
      endloop
   endfacet
   facet normal -1.000000e+000 7.285839e-017 -2.012279e-016
      outer loop
         vertex 2.038792e+003 7.975173e+002 1.881485e+003
         vertex 2.038792e+003 8.082508e+002 1.883008e+003
         vertex 2.038792e+003 8.083500e+002 1.882637e+003
      endloop
   endfacet
   facet normal -1.000000e+000 7.285839e-017 -2.012279e-016
      outer loop
         vertex 2.038792e+003 7.942507e+002 1.883008e+003
         vertex 2.038792e+003 7.943500e+002 1.882637e+003
         vertex 2.038792e+003 7.934174e+002 1.873390e+003
      endloop
   endfacet
   facet normal -1.000000e+000 7.285839e-017 -2.012279e-016
      outer loop
         vertex 2.038792e+003 7.934174e+002 1.873390e+003
         vertex 2.038792e+003 7.943500e+002 1.882637e+003
         vertex 2.038792e+003 7.945121e+002 1.882290e+003
      endloop
   endfacet
   facet normal -1.000000e+000 7.285839e-017 -2.012279e-016
      outer loop
         vertex 2.038792e+003 7.934174e+002 1.873390e+003
         vertex 2.038792e+003 7.945121e+002 1.882290e+003
         vertex 2.038792e+003 7.947321e+002 1.881976e+003
      endloop
   endfacet
   facet normal -1.000000e+000 7.285839e-017 -2.012279e-016
      outer loop
         vertex 2.038792e+003 8.083500e+002 1.884142e+003
         vertex 2.038792e+003 8.082508e+002 1.883772e+003
         vertex 2.038792e+003 7.975173e+002 1.881485e+003
      endloop
   endfacet
   facet normal -1.000000e+000 7.285839e-017 -2.012279e-016
      outer loop
         vertex 2.038792e+003 7.975173e+002 1.881485e+003
         vertex 2.038792e+003 8.082508e+002 1.883772e+003
         vertex 2.038792e+003 8.082173e+002 1.883390e+003
      endloop
   endfacet
   facet normal -1.000000e+000 7.285839e-017 -2.012279e-016
      outer loop
         vertex 2.038792e+003 7.975173e+002 1.881485e+003
         vertex 2.038792e+003 8.082173e+002 1.883390e+003
         vertex 2.038792e+003 8.082508e+002 1.883008e+003
      endloop
   endfacet
   facet normal -1.000000e+000 7.285839e-017 -2.012279e-016
      outer loop
         vertex 2.038792e+003 8.083500e+002 1.882637e+003
         vertex 2.038792e+003 8.085121e+002 1.882290e+003
         vertex 2.038792e+003 7.975173e+002 1.881485e+003
      endloop
   endfacet
   facet normal -1.000000e+000 7.285839e-017 -2.012279e-016
      outer loop
         vertex 2.038792e+003 7.975173e+002 1.881485e+003
         vertex 2.038792e+003 8.085121e+002 1.882290e+003
         vertex 2.038792e+003 8.087321e+002 1.881976e+003
      endloop
   endfacet
   facet normal -1.000000e+000 7.285839e-017 -2.012279e-016
      outer loop
         vertex 2.038792e+003 7.975173e+002 1.881485e+003
         vertex 2.038792e+003 8.087321e+002 1.881976e+003
         vertex 2.038792e+003 8.090032e+002 1.881705e+003
      endloop
   endfacet
   facet normal -1.000000e+000 7.285839e-017 -2.012279e-016
      outer loop
         vertex 2.038792e+003 7.947321e+002 1.881976e+003
         vertex 2.038792e+003 7.950032e+002 1.881705e+003
         vertex 2.038792e+003 7.934174e+002 1.873390e+003
      endloop
   endfacet
   facet normal -1.000000e+000 7.285839e-017 -2.012279e-016
      outer loop
         vertex 2.038792e+003 7.934174e+002 1.873390e+003
         vertex 2.038792e+003 7.950032e+002 1.881705e+003
         vertex 2.038792e+003 7.953173e+002 1.881485e+003
      endloop
   endfacet
   facet normal -1.000000e+000 7.285839e-017 -2.012279e-016
      outer loop
         vertex 2.038792e+003 7.934174e+002 1.873390e+003
         vertex 2.038792e+003 7.953173e+002 1.881485e+003
         vertex 2.038792e+003 7.956649e+002 1.881323e+003
      endloop
   endfacet
   facet normal 7.558054e-017 9.983120e-001 -5.807914e-002
      outer loop
         vertex 2.038792e+003 8.082508e+002 1.883772e+003
         vertex 2.043792e+003 8.082173e+002 1.883390e+003
         vertex 2.038792e+003 8.082173e+002 1.883390e+003
      endloop
   endfacet
   facet normal 4.910871e-017 9.983120e-001 5.807914e-002
      outer loop
         vertex 2.038792e+003 8.082173e+002 1.883390e+003
         vertex 2.043792e+003 8.082173e+002 1.883390e+003
         vertex 2.043792e+003 8.082508e+002 1.883008e+003
      endloop
   endfacet
   facet normal 3.555547e-017 9.932307e-001 1.161583e-001
      outer loop
         vertex 2.038792e+003 8.082173e+002 1.883390e+003
         vertex 2.043792e+003 8.082508e+002 1.883008e+003
         vertex 2.038792e+003 8.082508e+002 1.883008e+003
      endloop
   endfacet
   facet normal 8.226154e-018 9.730601e-001 2.305518e-001
      outer loop
         vertex 2.038792e+003 8.082508e+002 1.883008e+003
         vertex 2.043792e+003 8.082508e+002 1.883008e+003
         vertex 2.043792e+003 8.083500e+002 1.882637e+003
      endloop
   endfacet
   facet normal -5.549933e-018 9.579706e-001 2.868663e-001
      outer loop
         vertex 2.038792e+003 8.082508e+002 1.883008e+003
         vertex 2.043792e+003 8.083500e+002 1.882637e+003
         vertex 2.038792e+003 8.083500e+002 1.882637e+003
      endloop
   endfacet
   facet normal -3.290636e-017 9.182422e-001 3.960194e-001
      outer loop
         vertex 2.038792e+003 8.083500e+002 1.882637e+003
         vertex 2.043792e+003 8.083500e+002 1.882637e+003
         vertex 2.043792e+003 8.085121e+002 1.882290e+003
      endloop
   endfacet
   facet normal -4.648671e-017 8.936031e-001 4.488580e-001
      outer loop
         vertex 2.038792e+003 8.083500e+002 1.882637e+003
         vertex 2.043792e+003 8.085121e+002 1.882290e+003
         vertex 2.038792e+003 8.085121e+002 1.882290e+003
      endloop
   endfacet
   facet normal -7.303902e-017 8.355240e-001 5.494540e-001
      outer loop
         vertex 2.038792e+003 8.085121e+002 1.882290e+003
         vertex 2.043792e+003 8.085121e+002 1.882290e+003
         vertex 2.043792e+003 8.087321e+002 1.881976e+003
      endloop
   endfacet
   facet normal -8.601100e-017 8.020839e-001 5.972114e-001
      outer loop
         vertex 2.038792e+003 8.085121e+002 1.882290e+003
         vertex 2.043792e+003 8.087321e+002 1.881976e+003
         vertex 2.038792e+003 8.087321e+002 1.881976e+003
      endloop
   endfacet
   facet normal -1.109524e-016 7.274188e-001 6.861938e-001
      outer loop
         vertex 2.038792e+003 8.087321e+002 1.881976e+003
         vertex 2.043792e+003 8.087321e+002 1.881976e+003
         vertex 2.043792e+003 8.090032e+002 1.881705e+003
      endloop
   endfacet
   facet normal -1.229219e-016 6.861938e-001 7.274188e-001
      outer loop
         vertex 2.038792e+003 8.087321e+002 1.881976e+003
         vertex 2.043792e+003 8.090032e+002 1.881705e+003
         vertex 2.038792e+003 8.090032e+002 1.881705e+003
      endloop
   endfacet
   facet normal -1.454946e-016 5.972114e-001 8.020839e-001
      outer loop
         vertex 2.038792e+003 8.090032e+002 1.881705e+003
         vertex 2.043792e+003 8.090032e+002 1.881705e+003
         vertex 2.043792e+003 8.093173e+002 1.881485e+003
      endloop
   endfacet
   facet normal -1.560979e-016 5.494540e-001 8.355240e-001
      outer loop
         vertex 2.038792e+003 8.090032e+002 1.881705e+003
         vertex 2.043792e+003 8.093173e+002 1.881485e+003
         vertex 2.038792e+003 8.093173e+002 1.881485e+003
      endloop
   endfacet
   facet normal -1.756160e-016 4.488580e-001 8.936031e-001
      outer loop
         vertex 2.038792e+003 8.093173e+002 1.881485e+003
         vertex 2.043792e+003 8.093173e+002 1.881485e+003
         vertex 2.043792e+003 8.096649e+002 1.881323e+003
      endloop
   endfacet
   facet normal -1.845309e-016 3.960194e-001 9.182422e-001
      outer loop
         vertex 2.038792e+003 8.093173e+002 1.881485e+003
         vertex 2.043792e+003 8.096649e+002 1.881323e+003
         vertex 2.038792e+003 8.096649e+002 1.881323e+003
      endloop
   endfacet
   facet normal -2.004014e-016 2.868663e-001 9.579706e-001
      outer loop
         vertex 2.038792e+003 8.096649e+002 1.881323e+003
         vertex 2.043792e+003 8.096649e+002 1.881323e+003
         vertex 2.043792e+003 8.100353e+002 1.881223e+003
      endloop
   endfacet
   facet normal -2.073570e-016 2.305518e-001 9.730601e-001
      outer loop
         vertex 2.038792e+003 8.096649e+002 1.881323e+003
         vertex 2.043792e+003 8.100353e+002 1.881223e+003
         vertex 2.038792e+003 8.100353e+002 1.881223e+003
      endloop
   endfacet
   facet normal -2.190977e-016 1.161583e-001 9.932307e-001
      outer loop
         vertex 2.038792e+003 8.100353e+002 1.881223e+003
         vertex 2.043792e+003 8.100353e+002 1.881223e+003
         vertex 2.043792e+003 8.104174e+002 1.881190e+003
      endloop
   endfacet
   facet normal -2.238827e-016 5.807914e-002 9.983120e-001
      outer loop
         vertex 2.038792e+003 8.100353e+002 1.881223e+003
         vertex 2.043792e+003 8.104174e+002 1.881190e+003
         vertex 2.038792e+003 8.104174e+002 1.881190e+003
      endloop
   endfacet
   facet normal -2.311368e-016 -5.807914e-002 9.983120e-001
      outer loop
         vertex 2.038792e+003 8.104174e+002 1.881190e+003
         vertex 2.043792e+003 8.104174e+002 1.881190e+003
         vertex 2.043792e+003 8.107994e+002 1.881223e+003
      endloop
   endfacet
   facet normal -2.336059e-016 -1.161583e-001 9.932307e-001
      outer loop
         vertex 2.038792e+003 8.104174e+002 1.881190e+003
         vertex 2.043792e+003 8.107994e+002 1.881223e+003
         vertex 2.038792e+003 8.107994e+002 1.881223e+003
      endloop
   endfacet
   facet normal -2.361530e-016 -2.305518e-001 9.730601e-001
      outer loop
         vertex 2.038792e+003 8.107994e+002 1.881223e+003
         vertex 2.043792e+003 8.107994e+002 1.881223e+003
         vertex 2.043792e+003 8.111698e+002 1.881323e+003
      endloop
   endfacet
   facet normal -2.362310e-016 -2.868663e-001 9.579706e-001
      outer loop
         vertex 2.038792e+003 8.107994e+002 1.881223e+003
         vertex 2.043792e+003 8.111698e+002 1.881323e+003
         vertex 2.038792e+003 8.111698e+002 1.881323e+003
      endloop
   endfacet
   facet normal -2.339938e-016 -3.960194e-001 9.182422e-001
      outer loop
         vertex 2.038792e+003 8.111698e+002 1.881323e+003
         vertex 2.043792e+003 8.111698e+002 1.881323e+003
         vertex 2.043792e+003 8.115173e+002 1.881485e+003
      endloop
   endfacet
   facet normal -2.316784e-016 -4.488580e-001 8.936031e-001
      outer loop
         vertex 2.038792e+003 8.111698e+002 1.881323e+003
         vertex 2.043792e+003 8.115173e+002 1.881485e+003
         vertex 2.038792e+003 8.115173e+002 1.881485e+003
      endloop
   endfacet
   facet normal -2.247247e-016 -5.494540e-001 8.355240e-001
      outer loop
         vertex 2.038792e+003 8.115173e+002 1.881485e+003
         vertex 2.043792e+003 8.115173e+002 1.881485e+003
         vertex 2.043792e+003 8.118315e+002 1.881705e+003
      endloop
   endfacet
   facet normal -2.200864e-016 -5.972114e-001 8.020839e-001
      outer loop
         vertex 2.038792e+003 8.115173e+002 1.881485e+003
         vertex 2.043792e+003 8.118315e+002 1.881705e+003
         vertex 2.038792e+003 8.118315e+002 1.881705e+003
      endloop
   endfacet
   facet normal -2.086276e-016 -6.861938e-001 7.274188e-001
      outer loop
         vertex 2.038792e+003 8.118315e+002 1.881705e+003
         vertex 2.043792e+003 8.118315e+002 1.881705e+003
         vertex 2.043792e+003 8.121026e+002 1.881976e+003
      endloop
   endfacet
   facet normal -2.018071e-016 -7.274188e-001 6.861938e-001
      outer loop
         vertex 2.038792e+003 8.118315e+002 1.881705e+003
         vertex 2.043792e+003 8.121026e+002 1.881976e+003
         vertex 2.038792e+003 8.121026e+002 1.881976e+003
      endloop
   endfacet
   facet normal -1.861914e-016 -8.020839e-001 5.972114e-001
      outer loop
         vertex 2.038792e+003 8.121026e+002 1.881976e+003
         vertex 2.043792e+003 8.121026e+002 1.881976e+003
         vertex 2.043792e+003 8.123226e+002 1.882290e+003
      endloop
   endfacet
   facet normal -1.773960e-016 -8.355240e-001 5.494540e-001
      outer loop
         vertex 2.038792e+003 8.121026e+002 1.881976e+003
         vertex 2.043792e+003 8.123226e+002 1.882290e+003
         vertex 2.038792e+003 8.123226e+002 1.882290e+003
      endloop
   endfacet
   facet normal -1.580978e-016 -8.936031e-001 4.488580e-001
      outer loop
         vertex 2.038792e+003 8.123226e+002 1.882290e+003
         vertex 2.043792e+003 8.123226e+002 1.882290e+003
         vertex 2.043792e+003 8.124847e+002 1.882637e+003
      endloop
   endfacet
   facet normal -1.475949e-016 -9.182422e-001 3.960194e-001
      outer loop
         vertex 2.038792e+003 8.123226e+002 1.882290e+003
         vertex 2.043792e+003 8.124847e+002 1.882637e+003
         vertex 2.038792e+003 8.124847e+002 1.882637e+003
      endloop
   endfacet
   facet normal -1.252005e-016 -9.579706e-001 2.868663e-001
      outer loop
         vertex 2.038792e+003 8.124847e+002 1.882637e+003
         vertex 2.043792e+003 8.124847e+002 1.882637e+003
         vertex 2.043792e+003 8.125839e+002 1.883008e+003
      endloop
   endfacet
   facet normal -1.133091e-016 -9.730601e-001 2.305518e-001
      outer loop
         vertex 2.038792e+003 8.124847e+002 1.882637e+003
         vertex 2.043792e+003 8.125839e+002 1.883008e+003
         vertex 2.038792e+003 8.125839e+002 1.883008e+003
      endloop
   endfacet
   facet normal -8.849913e-017 -9.932307e-001 1.161583e-001
      outer loop
         vertex 2.038792e+003 8.125839e+002 1.883008e+003
         vertex 2.043792e+003 8.125839e+002 1.883008e+003
         vertex 2.043792e+003 8.126174e+002 1.883390e+003
      endloop
   endfacet
   facet normal -7.558054e-017 -9.983120e-001 5.807914e-002
      outer loop
         vertex 2.038792e+003 8.125839e+002 1.883008e+003
         vertex 2.043792e+003 8.126174e+002 1.883390e+003
         vertex 2.038792e+003 8.126174e+002 1.883390e+003
      endloop
   endfacet
   facet normal -4.910871e-017 -9.983120e-001 -5.807914e-002
      outer loop
         vertex 2.038792e+003 8.126174e+002 1.883390e+003
         vertex 2.043792e+003 8.126174e+002 1.883390e+003
         vertex 2.043792e+003 8.125839e+002 1.883772e+003
      endloop
   endfacet
   facet normal -3.555547e-017 -9.932307e-001 -1.161583e-001
      outer loop
         vertex 2.038792e+003 8.126174e+002 1.883390e+003
         vertex 2.043792e+003 8.125839e+002 1.883772e+003
         vertex 2.038792e+003 8.125839e+002 1.883772e+003
      endloop
   endfacet
   facet normal -8.226154e-018 -9.730601e-001 -2.305518e-001
      outer loop
         vertex 2.038792e+003 8.125839e+002 1.883772e+003
         vertex 2.043792e+003 8.125839e+002 1.883772e+003
         vertex 2.043792e+003 8.124847e+002 1.884142e+003
      endloop
   endfacet
   facet normal 5.549933e-018 -9.579706e-001 -2.868663e-001
      outer loop
         vertex 2.038792e+003 8.125839e+002 1.883772e+003
         vertex 2.043792e+003 8.124847e+002 1.884142e+003
         vertex 2.038792e+003 8.124847e+002 1.884142e+003
      endloop
   endfacet
   facet normal 3.290636e-017 -9.182422e-001 -3.960194e-001
      outer loop
         vertex 2.038792e+003 8.124847e+002 1.884142e+003
         vertex 2.043792e+003 8.124847e+002 1.884142e+003
         vertex 2.043792e+003 8.123226e+002 1.884490e+003
      endloop
   endfacet
   facet normal 4.648671e-017 -8.936031e-001 -4.488580e-001
      outer loop
         vertex 2.038792e+003 8.124847e+002 1.884142e+003
         vertex 2.043792e+003 8.123226e+002 1.884490e+003
         vertex 2.038792e+003 8.123226e+002 1.884490e+003
      endloop
   endfacet
   facet normal 7.303902e-017 -8.355240e-001 -5.494540e-001
      outer loop
         vertex 2.038792e+003 8.123226e+002 1.884490e+003
         vertex 2.043792e+003 8.123226e+002 1.884490e+003
         vertex 2.043792e+003 8.121026e+002 1.884804e+003
      endloop
   endfacet
   facet normal 8.601100e-017 -8.020839e-001 -5.972114e-001
      outer loop
         vertex 2.038792e+003 8.123226e+002 1.884490e+003
         vertex 2.043792e+003 8.121026e+002 1.884804e+003
         vertex 2.038792e+003 8.121026e+002 1.884804e+003
      endloop
   endfacet
   facet normal 1.109524e-016 -7.274188e-001 -6.861938e-001
      outer loop
         vertex 2.038792e+003 8.121026e+002 1.884804e+003
         vertex 2.043792e+003 8.121026e+002 1.884804e+003
         vertex 2.043792e+003 8.118315e+002 1.885075e+003
      endloop
   endfacet
   facet normal 1.229219e-016 -6.861938e-001 -7.274188e-001
      outer loop
         vertex 2.038792e+003 8.121026e+002 1.884804e+003
         vertex 2.043792e+003 8.118315e+002 1.885075e+003
         vertex 2.038792e+003 8.118315e+002 1.885075e+003
      endloop
   endfacet
   facet normal 1.454946e-016 -5.972114e-001 -8.020839e-001
      outer loop
         vertex 2.038792e+003 8.118315e+002 1.885075e+003
         vertex 2.043792e+003 8.118315e+002 1.885075e+003
         vertex 2.043792e+003 8.115173e+002 1.885295e+003
      endloop
   endfacet
   facet normal 1.560979e-016 -5.494540e-001 -8.355240e-001
      outer loop
         vertex 2.038792e+003 8.118315e+002 1.885075e+003
         vertex 2.043792e+003 8.115173e+002 1.885295e+003
         vertex 2.038792e+003 8.115173e+002 1.885295e+003
      endloop
   endfacet
   facet normal 1.756160e-016 -4.488580e-001 -8.936031e-001
      outer loop
         vertex 2.038792e+003 8.115173e+002 1.885295e+003
         vertex 2.043792e+003 8.115173e+002 1.885295e+003
         vertex 2.043792e+003 8.111698e+002 1.885457e+003
      endloop
   endfacet
   facet normal 1.845309e-016 -3.960194e-001 -9.182422e-001
      outer loop
         vertex 2.038792e+003 8.115173e+002 1.885295e+003
         vertex 2.043792e+003 8.111698e+002 1.885457e+003
         vertex 2.038792e+003 8.111698e+002 1.885457e+003
      endloop
   endfacet
   facet normal 2.004014e-016 -2.868663e-001 -9.579706e-001
      outer loop
         vertex 2.038792e+003 8.111698e+002 1.885457e+003
         vertex 2.043792e+003 8.111698e+002 1.885457e+003
         vertex 2.043792e+003 8.107994e+002 1.885557e+003
      endloop
   endfacet
   facet normal 2.073570e-016 -2.305518e-001 -9.730601e-001
      outer loop
         vertex 2.038792e+003 8.111698e+002 1.885457e+003
         vertex 2.043792e+003 8.107994e+002 1.885557e+003
         vertex 2.038792e+003 8.107994e+002 1.885557e+003
      endloop
   endfacet
   facet normal 2.190977e-016 -1.161583e-001 -9.932307e-001
      outer loop
         vertex 2.038792e+003 8.107994e+002 1.885557e+003
         vertex 2.043792e+003 8.107994e+002 1.885557e+003
         vertex 2.043792e+003 8.104174e+002 1.885590e+003
      endloop
   endfacet
   facet normal 2.238827e-016 -5.807914e-002 -9.983120e-001
      outer loop
         vertex 2.038792e+003 8.107994e+002 1.885557e+003
         vertex 2.043792e+003 8.104174e+002 1.885590e+003
         vertex 2.038792e+003 8.104174e+002 1.885590e+003
      endloop
   endfacet
   facet normal 2.311368e-016 5.807914e-002 -9.983120e-001
      outer loop
         vertex 2.038792e+003 8.104174e+002 1.885590e+003
         vertex 2.043792e+003 8.104174e+002 1.885590e+003
         vertex 2.043792e+003 8.100353e+002 1.885557e+003
      endloop
   endfacet
   facet normal 2.336059e-016 1.161583e-001 -9.932307e-001
      outer loop
         vertex 2.038792e+003 8.104174e+002 1.885590e+003
         vertex 2.043792e+003 8.100353e+002 1.885557e+003
         vertex 2.038792e+003 8.100353e+002 1.885557e+003
      endloop
   endfacet
   facet normal 2.361530e-016 2.305518e-001 -9.730601e-001
      outer loop
         vertex 2.038792e+003 8.100353e+002 1.885557e+003
         vertex 2.043792e+003 8.100353e+002 1.885557e+003
         vertex 2.043792e+003 8.096649e+002 1.885457e+003
      endloop
   endfacet
   facet normal 2.362310e-016 2.868663e-001 -9.579706e-001
      outer loop
         vertex 2.038792e+003 8.100353e+002 1.885557e+003
         vertex 2.043792e+003 8.096649e+002 1.885457e+003
         vertex 2.038792e+003 8.096649e+002 1.885457e+003
      endloop
   endfacet
   facet normal 2.339938e-016 3.960194e-001 -9.182422e-001
      outer loop
         vertex 2.038792e+003 8.096649e+002 1.885457e+003
         vertex 2.043792e+003 8.096649e+002 1.885457e+003
         vertex 2.043792e+003 8.093173e+002 1.885295e+003
      endloop
   endfacet
   facet normal 2.316784e-016 4.488580e-001 -8.936031e-001
      outer loop
         vertex 2.038792e+003 8.096649e+002 1.885457e+003
         vertex 2.043792e+003 8.093173e+002 1.885295e+003
         vertex 2.038792e+003 8.093173e+002 1.885295e+003
      endloop
   endfacet
   facet normal 2.247247e-016 5.494540e-001 -8.355240e-001
      outer loop
         vertex 2.038792e+003 8.093173e+002 1.885295e+003
         vertex 2.043792e+003 8.093173e+002 1.885295e+003
         vertex 2.043792e+003 8.090032e+002 1.885075e+003
      endloop
   endfacet
   facet normal 2.200864e-016 5.972114e-001 -8.020839e-001
      outer loop
         vertex 2.038792e+003 8.093173e+002 1.885295e+003
         vertex 2.043792e+003 8.090032e+002 1.885075e+003
         vertex 2.038792e+003 8.090032e+002 1.885075e+003
      endloop
   endfacet
   facet normal 2.086276e-016 6.861938e-001 -7.274188e-001
      outer loop
         vertex 2.038792e+003 8.090032e+002 1.885075e+003
         vertex 2.043792e+003 8.090032e+002 1.885075e+003
         vertex 2.043792e+003 8.087321e+002 1.884804e+003
      endloop
   endfacet
   facet normal 2.018071e-016 7.274188e-001 -6.861938e-001
      outer loop
         vertex 2.038792e+003 8.090032e+002 1.885075e+003
         vertex 2.043792e+003 8.087321e+002 1.884804e+003
         vertex 2.038792e+003 8.087321e+002 1.884804e+003
      endloop
   endfacet
   facet normal 1.861914e-016 8.020839e-001 -5.972114e-001
      outer loop
         vertex 2.038792e+003 8.087321e+002 1.884804e+003
         vertex 2.043792e+003 8.087321e+002 1.884804e+003
         vertex 2.043792e+003 8.085121e+002 1.884490e+003
      endloop
   endfacet
   facet normal 1.773960e-016 8.355240e-001 -5.494540e-001
      outer loop
         vertex 2.038792e+003 8.087321e+002 1.884804e+003
         vertex 2.043792e+003 8.085121e+002 1.884490e+003
         vertex 2.038792e+003 8.085121e+002 1.884490e+003
      endloop
   endfacet
   facet normal 1.580978e-016 8.936031e-001 -4.488580e-001
      outer loop
         vertex 2.038792e+003 8.085121e+002 1.884490e+003
         vertex 2.043792e+003 8.085121e+002 1.884490e+003
         vertex 2.043792e+003 8.083500e+002 1.884142e+003
      endloop
   endfacet
   facet normal 1.475949e-016 9.182422e-001 -3.960194e-001
      outer loop
         vertex 2.038792e+003 8.085121e+002 1.884490e+003
         vertex 2.043792e+003 8.083500e+002 1.884142e+003
         vertex 2.038792e+003 8.083500e+002 1.884142e+003
      endloop
   endfacet
   facet normal 1.252005e-016 9.579706e-001 -2.868663e-001
      outer loop
         vertex 2.038792e+003 8.083500e+002 1.884142e+003
         vertex 2.043792e+003 8.083500e+002 1.884142e+003
         vertex 2.043792e+003 8.082508e+002 1.883772e+003
      endloop
   endfacet
   facet normal 1.133091e-016 9.730601e-001 -2.305518e-001
      outer loop
         vertex 2.038792e+003 8.083500e+002 1.884142e+003
         vertex 2.043792e+003 8.082508e+002 1.883772e+003
         vertex 2.038792e+003 8.082508e+002 1.883772e+003
      endloop
   endfacet
   facet normal 8.849913e-017 9.932307e-001 -1.161583e-001
      outer loop
         vertex 2.038792e+003 8.082508e+002 1.883772e+003
         vertex 2.043792e+003 8.082508e+002 1.883772e+003
         vertex 2.043792e+003 8.082173e+002 1.883390e+003
      endloop
   endfacet
   facet normal 7.558054e-017 9.983120e-001 -5.807914e-002
      outer loop
         vertex 2.038792e+003 7.942507e+002 1.883772e+003
         vertex 2.043792e+003 7.942173e+002 1.883390e+003
         vertex 2.038792e+003 7.942173e+002 1.883390e+003
      endloop
   endfacet
   facet normal 4.910871e-017 9.983120e-001 5.807914e-002
      outer loop
         vertex 2.038792e+003 7.942173e+002 1.883390e+003
         vertex 2.043792e+003 7.942173e+002 1.883390e+003
         vertex 2.043792e+003 7.942507e+002 1.883008e+003
      endloop
   endfacet
   facet normal 3.555547e-017 9.932307e-001 1.161583e-001
      outer loop
         vertex 2.038792e+003 7.942173e+002 1.883390e+003
         vertex 2.043792e+003 7.942507e+002 1.883008e+003
         vertex 2.038792e+003 7.942507e+002 1.883008e+003
      endloop
   endfacet
   facet normal 8.226154e-018 9.730601e-001 2.305518e-001
      outer loop
         vertex 2.038792e+003 7.942507e+002 1.883008e+003
         vertex 2.043792e+003 7.942507e+002 1.883008e+003
         vertex 2.043792e+003 7.943500e+002 1.882637e+003
      endloop
   endfacet
   facet normal -5.549933e-018 9.579706e-001 2.868663e-001
      outer loop
         vertex 2.038792e+003 7.942507e+002 1.883008e+003
         vertex 2.043792e+003 7.943500e+002 1.882637e+003
         vertex 2.038792e+003 7.943500e+002 1.882637e+003
      endloop
   endfacet
   facet normal -3.290636e-017 9.182422e-001 3.960194e-001
      outer loop
         vertex 2.038792e+003 7.943500e+002 1.882637e+003
         vertex 2.043792e+003 7.943500e+002 1.882637e+003
         vertex 2.043792e+003 7.945121e+002 1.882290e+003
      endloop
   endfacet
   facet normal -4.648671e-017 8.936031e-001 4.488580e-001
      outer loop
         vertex 2.038792e+003 7.943500e+002 1.882637e+003
         vertex 2.043792e+003 7.945121e+002 1.882290e+003
         vertex 2.038792e+003 7.945121e+002 1.882290e+003
      endloop
   endfacet
   facet normal -7.303902e-017 8.355240e-001 5.494540e-001
      outer loop
         vertex 2.038792e+003 7.945121e+002 1.882290e+003
         vertex 2.043792e+003 7.945121e+002 1.882290e+003
         vertex 2.043792e+003 7.947321e+002 1.881976e+003
      endloop
   endfacet
   facet normal -8.601100e-017 8.020839e-001 5.972114e-001
      outer loop
         vertex 2.038792e+003 7.945121e+002 1.882290e+003
         vertex 2.043792e+003 7.947321e+002 1.881976e+003
         vertex 2.038792e+003 7.947321e+002 1.881976e+003
      endloop
   endfacet
   facet normal -1.109524e-016 7.274188e-001 6.861938e-001
      outer loop
         vertex 2.038792e+003 7.947321e+002 1.881976e+003
         vertex 2.043792e+003 7.947321e+002 1.881976e+003
         vertex 2.043792e+003 7.950032e+002 1.881705e+003
      endloop
   endfacet
   facet normal -1.229219e-016 6.861938e-001 7.274188e-001
      outer loop
         vertex 2.038792e+003 7.947321e+002 1.881976e+003
         vertex 2.043792e+003 7.950032e+002 1.881705e+003
         vertex 2.038792e+003 7.950032e+002 1.881705e+003
      endloop
   endfacet
   facet normal -1.454946e-016 5.972114e-001 8.020839e-001
      outer loop
         vertex 2.038792e+003 7.950032e+002 1.881705e+003
         vertex 2.043792e+003 7.950032e+002 1.881705e+003
         vertex 2.043792e+003 7.953173e+002 1.881485e+003
      endloop
   endfacet
   facet normal -1.560979e-016 5.494540e-001 8.355240e-001
      outer loop
         vertex 2.038792e+003 7.950032e+002 1.881705e+003
         vertex 2.043792e+003 7.953173e+002 1.881485e+003
         vertex 2.038792e+003 7.953173e+002 1.881485e+003
      endloop
   endfacet
   facet normal -1.756160e-016 4.488580e-001 8.936031e-001
      outer loop
         vertex 2.038792e+003 7.953173e+002 1.881485e+003
         vertex 2.043792e+003 7.953173e+002 1.881485e+003
         vertex 2.043792e+003 7.956649e+002 1.881323e+003
      endloop
   endfacet
   facet normal -1.845309e-016 3.960194e-001 9.182422e-001
      outer loop
         vertex 2.038792e+003 7.953173e+002 1.881485e+003
         vertex 2.043792e+003 7.956649e+002 1.881323e+003
         vertex 2.038792e+003 7.956649e+002 1.881323e+003
      endloop
   endfacet
   facet normal -2.004014e-016 2.868663e-001 9.579706e-001
      outer loop
         vertex 2.038792e+003 7.956649e+002 1.881323e+003
         vertex 2.043792e+003 7.956649e+002 1.881323e+003
         vertex 2.043792e+003 7.960353e+002 1.881223e+003
      endloop
   endfacet
   facet normal -2.073570e-016 2.305518e-001 9.730601e-001
      outer loop
         vertex 2.038792e+003 7.956649e+002 1.881323e+003
         vertex 2.043792e+003 7.960353e+002 1.881223e+003
         vertex 2.038792e+003 7.960353e+002 1.881223e+003
      endloop
   endfacet
   facet normal -2.190977e-016 1.161583e-001 9.932307e-001
      outer loop
         vertex 2.038792e+003 7.960353e+002 1.881223e+003
         vertex 2.043792e+003 7.960353e+002 1.881223e+003
         vertex 2.043792e+003 7.964174e+002 1.881190e+003
      endloop
   endfacet
   facet normal -2.238827e-016 5.807914e-002 9.983120e-001
      outer loop
         vertex 2.038792e+003 7.960353e+002 1.881223e+003
         vertex 2.043792e+003 7.964174e+002 1.881190e+003
         vertex 2.038792e+003 7.964174e+002 1.881190e+003
      endloop
   endfacet
   facet normal -2.311368e-016 -5.807914e-002 9.983120e-001
      outer loop
         vertex 2.038792e+003 7.964174e+002 1.881190e+003
         vertex 2.043792e+003 7.964174e+002 1.881190e+003
         vertex 2.043792e+003 7.967994e+002 1.881223e+003
      endloop
   endfacet
   facet normal -2.336059e-016 -1.161583e-001 9.932307e-001
      outer loop
         vertex 2.038792e+003 7.964174e+002 1.881190e+003
         vertex 2.043792e+003 7.967994e+002 1.881223e+003
         vertex 2.038792e+003 7.967994e+002 1.881223e+003
      endloop
   endfacet
   facet normal -2.361530e-016 -2.305518e-001 9.730601e-001
      outer loop
         vertex 2.038792e+003 7.967994e+002 1.881223e+003
         vertex 2.043792e+003 7.967994e+002 1.881223e+003
         vertex 2.043792e+003 7.971698e+002 1.881323e+003
      endloop
   endfacet
   facet normal -2.362310e-016 -2.868663e-001 9.579706e-001
      outer loop
         vertex 2.038792e+003 7.967994e+002 1.881223e+003
         vertex 2.043792e+003 7.971698e+002 1.881323e+003
         vertex 2.038792e+003 7.971698e+002 1.881323e+003
      endloop
   endfacet
   facet normal -2.339938e-016 -3.960194e-001 9.182422e-001
      outer loop
         vertex 2.038792e+003 7.971698e+002 1.881323e+003
         vertex 2.043792e+003 7.971698e+002 1.881323e+003
         vertex 2.043792e+003 7.975173e+002 1.881485e+003
      endloop
   endfacet
   facet normal -2.316784e-016 -4.488580e-001 8.936031e-001
      outer loop
         vertex 2.038792e+003 7.971698e+002 1.881323e+003
         vertex 2.043792e+003 7.975173e+002 1.881485e+003
         vertex 2.038792e+003 7.975173e+002 1.881485e+003
      endloop
   endfacet
   facet normal -2.247247e-016 -5.494540e-001 8.355240e-001
      outer loop
         vertex 2.038792e+003 7.975173e+002 1.881485e+003
         vertex 2.043792e+003 7.975173e+002 1.881485e+003
         vertex 2.043792e+003 7.978315e+002 1.881705e+003
      endloop
   endfacet
   facet normal -2.200864e-016 -5.972114e-001 8.020839e-001
      outer loop
         vertex 2.038792e+003 7.975173e+002 1.881485e+003
         vertex 2.043792e+003 7.978315e+002 1.881705e+003
         vertex 2.038792e+003 7.978315e+002 1.881705e+003
      endloop
   endfacet
   facet normal -2.086276e-016 -6.861938e-001 7.274188e-001
      outer loop
         vertex 2.038792e+003 7.978315e+002 1.881705e+003
         vertex 2.043792e+003 7.978315e+002 1.881705e+003
         vertex 2.043792e+003 7.981026e+002 1.881976e+003
      endloop
   endfacet
   facet normal -2.018071e-016 -7.274188e-001 6.861938e-001
      outer loop
         vertex 2.038792e+003 7.978315e+002 1.881705e+003
         vertex 2.043792e+003 7.981026e+002 1.881976e+003
         vertex 2.038792e+003 7.981026e+002 1.881976e+003
      endloop
   endfacet
   facet normal -1.861914e-016 -8.020839e-001 5.972114e-001
      outer loop
         vertex 2.038792e+003 7.981026e+002 1.881976e+003
         vertex 2.043792e+003 7.981026e+002 1.881976e+003
         vertex 2.043792e+003 7.983226e+002 1.882290e+003
      endloop
   endfacet
   facet normal -1.773960e-016 -8.355240e-001 5.494540e-001
      outer loop
         vertex 2.038792e+003 7.981026e+002 1.881976e+003
         vertex 2.043792e+003 7.983226e+002 1.882290e+003
         vertex 2.038792e+003 7.983226e+002 1.882290e+003
      endloop
   endfacet
   facet normal -1.580978e-016 -8.936031e-001 4.488580e-001
      outer loop
         vertex 2.038792e+003 7.983226e+002 1.882290e+003
         vertex 2.043792e+003 7.983226e+002 1.882290e+003
         vertex 2.043792e+003 7.984847e+002 1.882637e+003
      endloop
   endfacet
   facet normal -1.475949e-016 -9.182422e-001 3.960194e-001
      outer loop
         vertex 2.038792e+003 7.983226e+002 1.882290e+003
         vertex 2.043792e+003 7.984847e+002 1.882637e+003
         vertex 2.038792e+003 7.984847e+002 1.882637e+003
      endloop
   endfacet
   facet normal -1.252005e-016 -9.579706e-001 2.868663e-001
      outer loop
         vertex 2.038792e+003 7.984847e+002 1.882637e+003
         vertex 2.043792e+003 7.984847e+002 1.882637e+003
         vertex 2.043792e+003 7.985839e+002 1.883008e+003
      endloop
   endfacet
   facet normal -1.133091e-016 -9.730601e-001 2.305518e-001
      outer loop
         vertex 2.038792e+003 7.984847e+002 1.882637e+003
         vertex 2.043792e+003 7.985839e+002 1.883008e+003
         vertex 2.038792e+003 7.985839e+002 1.883008e+003
      endloop
   endfacet
   facet normal -8.849913e-017 -9.932307e-001 1.161583e-001
      outer loop
         vertex 2.038792e+003 7.985839e+002 1.883008e+003
         vertex 2.043792e+003 7.985839e+002 1.883008e+003
         vertex 2.043792e+003 7.986173e+002 1.883390e+003
      endloop
   endfacet
   facet normal -7.558054e-017 -9.983120e-001 5.807914e-002
      outer loop
         vertex 2.038792e+003 7.985839e+002 1.883008e+003
         vertex 2.043792e+003 7.986173e+002 1.883390e+003
         vertex 2.038792e+003 7.986173e+002 1.883390e+003
      endloop
   endfacet
   facet normal -4.910871e-017 -9.983120e-001 -5.807914e-002
      outer loop
         vertex 2.038792e+003 7.986173e+002 1.883390e+003
         vertex 2.043792e+003 7.986173e+002 1.883390e+003
         vertex 2.043792e+003 7.985839e+002 1.883772e+003
      endloop
   endfacet
   facet normal -3.555547e-017 -9.932307e-001 -1.161583e-001
      outer loop
         vertex 2.038792e+003 7.986173e+002 1.883390e+003
         vertex 2.043792e+003 7.985839e+002 1.883772e+003
         vertex 2.038792e+003 7.985839e+002 1.883772e+003
      endloop
   endfacet
   facet normal -8.226154e-018 -9.730601e-001 -2.305518e-001
      outer loop
         vertex 2.038792e+003 7.985839e+002 1.883772e+003
         vertex 2.043792e+003 7.985839e+002 1.883772e+003
         vertex 2.043792e+003 7.984847e+002 1.884142e+003
      endloop
   endfacet
   facet normal 5.549933e-018 -9.579706e-001 -2.868663e-001
      outer loop
         vertex 2.038792e+003 7.985839e+002 1.883772e+003
         vertex 2.043792e+003 7.984847e+002 1.884142e+003
         vertex 2.038792e+003 7.984847e+002 1.884142e+003
      endloop
   endfacet
   facet normal 3.290636e-017 -9.182422e-001 -3.960194e-001
      outer loop
         vertex 2.038792e+003 7.984847e+002 1.884142e+003
         vertex 2.043792e+003 7.984847e+002 1.884142e+003
         vertex 2.043792e+003 7.983226e+002 1.884490e+003
      endloop
   endfacet
   facet normal 4.648671e-017 -8.936031e-001 -4.488580e-001
      outer loop
         vertex 2.038792e+003 7.984847e+002 1.884142e+003
         vertex 2.043792e+003 7.983226e+002 1.884490e+003
         vertex 2.038792e+003 7.983226e+002 1.884490e+003
      endloop
   endfacet
   facet normal 7.303902e-017 -8.355240e-001 -5.494540e-001
      outer loop
         vertex 2.038792e+003 7.983226e+002 1.884490e+003
         vertex 2.043792e+003 7.983226e+002 1.884490e+003
         vertex 2.043792e+003 7.981026e+002 1.884804e+003
      endloop
   endfacet
   facet normal 8.601100e-017 -8.020839e-001 -5.972114e-001
      outer loop
         vertex 2.038792e+003 7.983226e+002 1.884490e+003
         vertex 2.043792e+003 7.981026e+002 1.884804e+003
         vertex 2.038792e+003 7.981026e+002 1.884804e+003
      endloop
   endfacet
   facet normal 1.109524e-016 -7.274188e-001 -6.861938e-001
      outer loop
         vertex 2.038792e+003 7.981026e+002 1.884804e+003
         vertex 2.043792e+003 7.981026e+002 1.884804e+003
         vertex 2.043792e+003 7.978315e+002 1.885075e+003
      endloop
   endfacet
   facet normal 1.229219e-016 -6.861938e-001 -7.274188e-001
      outer loop
         vertex 2.038792e+003 7.981026e+002 1.884804e+003
         vertex 2.043792e+003 7.978315e+002 1.885075e+003
         vertex 2.038792e+003 7.978315e+002 1.885075e+003
      endloop
   endfacet
   facet normal 1.454946e-016 -5.972114e-001 -8.020839e-001
      outer loop
         vertex 2.038792e+003 7.978315e+002 1.885075e+003
         vertex 2.043792e+003 7.978315e+002 1.885075e+003
         vertex 2.043792e+003 7.975173e+002 1.885295e+003
      endloop
   endfacet
   facet normal 1.560979e-016 -5.494540e-001 -8.355240e-001
      outer loop
         vertex 2.038792e+003 7.978315e+002 1.885075e+003
         vertex 2.043792e+003 7.975173e+002 1.885295e+003
         vertex 2.038792e+003 7.975173e+002 1.885295e+003
      endloop
   endfacet
   facet normal 1.756160e-016 -4.488580e-001 -8.936031e-001
      outer loop
         vertex 2.038792e+003 7.975173e+002 1.885295e+003
         vertex 2.043792e+003 7.975173e+002 1.885295e+003
         vertex 2.043792e+003 7.971698e+002 1.885457e+003
      endloop
   endfacet
   facet normal 1.845309e-016 -3.960194e-001 -9.182422e-001
      outer loop
         vertex 2.038792e+003 7.975173e+002 1.885295e+003
         vertex 2.043792e+003 7.971698e+002 1.885457e+003
         vertex 2.038792e+003 7.971698e+002 1.885457e+003
      endloop
   endfacet
   facet normal 2.004014e-016 -2.868663e-001 -9.579706e-001
      outer loop
         vertex 2.038792e+003 7.971698e+002 1.885457e+003
         vertex 2.043792e+003 7.971698e+002 1.885457e+003
         vertex 2.043792e+003 7.967994e+002 1.885557e+003
      endloop
   endfacet
   facet normal 2.073570e-016 -2.305518e-001 -9.730601e-001
      outer loop
         vertex 2.038792e+003 7.971698e+002 1.885457e+003
         vertex 2.043792e+003 7.967994e+002 1.885557e+003
         vertex 2.038792e+003 7.967994e+002 1.885557e+003
      endloop
   endfacet
   facet normal 2.190977e-016 -1.161583e-001 -9.932307e-001
      outer loop
         vertex 2.038792e+003 7.967994e+002 1.885557e+003
         vertex 2.043792e+003 7.967994e+002 1.885557e+003
         vertex 2.043792e+003 7.964174e+002 1.885590e+003
      endloop
   endfacet
   facet normal 2.238827e-016 -5.807914e-002 -9.983120e-001
      outer loop
         vertex 2.038792e+003 7.967994e+002 1.885557e+003
         vertex 2.043792e+003 7.964174e+002 1.885590e+003
         vertex 2.038792e+003 7.964174e+002 1.885590e+003
      endloop
   endfacet
   facet normal 2.311368e-016 5.807914e-002 -9.983120e-001
      outer loop
         vertex 2.038792e+003 7.964174e+002 1.885590e+003
         vertex 2.043792e+003 7.964174e+002 1.885590e+003
         vertex 2.043792e+003 7.960353e+002 1.885557e+003
      endloop
   endfacet
   facet normal 2.336059e-016 1.161583e-001 -9.932307e-001
      outer loop
         vertex 2.038792e+003 7.964174e+002 1.885590e+003
         vertex 2.043792e+003 7.960353e+002 1.885557e+003
         vertex 2.038792e+003 7.960353e+002 1.885557e+003
      endloop
   endfacet
   facet normal 2.361530e-016 2.305518e-001 -9.730601e-001
      outer loop
         vertex 2.038792e+003 7.960353e+002 1.885557e+003
         vertex 2.043792e+003 7.960353e+002 1.885557e+003
         vertex 2.043792e+003 7.956649e+002 1.885457e+003
      endloop
   endfacet
   facet normal 2.362310e-016 2.868663e-001 -9.579706e-001
      outer loop
         vertex 2.038792e+003 7.960353e+002 1.885557e+003
         vertex 2.043792e+003 7.956649e+002 1.885457e+003
         vertex 2.038792e+003 7.956649e+002 1.885457e+003
      endloop
   endfacet
   facet normal 2.339938e-016 3.960194e-001 -9.182422e-001
      outer loop
         vertex 2.038792e+003 7.956649e+002 1.885457e+003
         vertex 2.043792e+003 7.956649e+002 1.885457e+003
         vertex 2.043792e+003 7.953173e+002 1.885295e+003
      endloop
   endfacet
   facet normal 2.316784e-016 4.488580e-001 -8.936031e-001
      outer loop
         vertex 2.038792e+003 7.956649e+002 1.885457e+003
         vertex 2.043792e+003 7.953173e+002 1.885295e+003
         vertex 2.038792e+003 7.953173e+002 1.885295e+003
      endloop
   endfacet
   facet normal 2.247247e-016 5.494540e-001 -8.355240e-001
      outer loop
         vertex 2.038792e+003 7.953173e+002 1.885295e+003
         vertex 2.043792e+003 7.953173e+002 1.885295e+003
         vertex 2.043792e+003 7.950032e+002 1.885075e+003
      endloop
   endfacet
   facet normal 2.200864e-016 5.972114e-001 -8.020839e-001
      outer loop
         vertex 2.038792e+003 7.953173e+002 1.885295e+003
         vertex 2.043792e+003 7.950032e+002 1.885075e+003
         vertex 2.038792e+003 7.950032e+002 1.885075e+003
      endloop
   endfacet
   facet normal 2.086276e-016 6.861938e-001 -7.274188e-001
      outer loop
         vertex 2.038792e+003 7.950032e+002 1.885075e+003
         vertex 2.043792e+003 7.950032e+002 1.885075e+003
         vertex 2.043792e+003 7.947321e+002 1.884804e+003
      endloop
   endfacet
   facet normal 2.018071e-016 7.274188e-001 -6.861938e-001
      outer loop
         vertex 2.038792e+003 7.950032e+002 1.885075e+003
         vertex 2.043792e+003 7.947321e+002 1.884804e+003
         vertex 2.038792e+003 7.947321e+002 1.884804e+003
      endloop
   endfacet
   facet normal 1.861914e-016 8.020839e-001 -5.972114e-001
      outer loop
         vertex 2.038792e+003 7.947321e+002 1.884804e+003
         vertex 2.043792e+003 7.947321e+002 1.884804e+003
         vertex 2.043792e+003 7.945121e+002 1.884490e+003
      endloop
   endfacet
   facet normal 1.773960e-016 8.355240e-001 -5.494540e-001
      outer loop
         vertex 2.038792e+003 7.947321e+002 1.884804e+003
         vertex 2.043792e+003 7.945121e+002 1.884490e+003
         vertex 2.038792e+003 7.945121e+002 1.884490e+003
      endloop
   endfacet
   facet normal 1.580978e-016 8.936031e-001 -4.488580e-001
      outer loop
         vertex 2.038792e+003 7.945121e+002 1.884490e+003
         vertex 2.043792e+003 7.945121e+002 1.884490e+003
         vertex 2.043792e+003 7.943500e+002 1.884142e+003
      endloop
   endfacet
   facet normal 1.475949e-016 9.182422e-001 -3.960194e-001
      outer loop
         vertex 2.038792e+003 7.945121e+002 1.884490e+003
         vertex 2.043792e+003 7.943500e+002 1.884142e+003
         vertex 2.038792e+003 7.943500e+002 1.884142e+003
      endloop
   endfacet
   facet normal 1.252005e-016 9.579706e-001 -2.868663e-001
      outer loop
         vertex 2.038792e+003 7.943500e+002 1.884142e+003
         vertex 2.043792e+003 7.943500e+002 1.884142e+003
         vertex 2.043792e+003 7.942507e+002 1.883772e+003
      endloop
   endfacet
   facet normal 1.133091e-016 9.730601e-001 -2.305518e-001
      outer loop
         vertex 2.038792e+003 7.943500e+002 1.884142e+003
         vertex 2.043792e+003 7.942507e+002 1.883772e+003
         vertex 2.038792e+003 7.942507e+002 1.883772e+003
      endloop
   endfacet
   facet normal 8.849913e-017 9.932307e-001 -1.161583e-001
      outer loop
         vertex 2.038792e+003 7.942507e+002 1.883772e+003
         vertex 2.043792e+003 7.942507e+002 1.883772e+003
         vertex 2.043792e+003 7.942173e+002 1.883390e+003
      endloop
   endfacet
endsolid