 PTC IGES file: rv-12s_shoulder_cover.igs                               S      1
1H,,1H;,21HRV-12S_SHOULDER_COVER,25Hrv-12s_shoulder_cover.igs,          G      1
49HPro/ENGINEER by Parametric Technology Corporation,7H2002080,32,38,7, G      2
38,15,21HRV-12S_SHOULDER_COVER,1.,2,2HMM,32768,0.5,13H030630.182351,    G      3
  0.001,     10.,9Htoyoshima,7HUnknown,10,0,13H030630.182351;           G      4
     314       1       1       1       0       0       0       001000200D      1
     314       0       7       1       0                   COLOR       1D      2
     314       2       1       1       0       0       0       001000200D      3
     314       0       3       1       0                   COLOR       2D      4
     314       3       1       1       0       0       0       001000200D      5
     314       0       7       1       0                   COLOR       3D      6
     314       4       1       1       0       0       0       001000200D      7
     314       0       7       1       0                   COLOR       4D      8
     314       5       1       1       0       0       0       001000200D      9
     314       0       7       1       0                   COLOR       5D     10
     314       6       1       1       0       0       0       001000200D     11
     314       0       7       1       0                   COLOR       6D     12
     314       7       1       1       0       0       0       001000200D     13
     314       0       7       1       0                   COLOR       7D     14
     314       8       1       1       0       0       0       001000200D     15
     314       0       7       1       0                   COLOR       8D     16
     314       9       1       1       0       0       0       001000200D     17
     314       0       1       1       0                   COLOR       9D     18
     314      10       1       1       0       0       0       001000200D     19
     314       0       1       1       0                   COLOR      10D     20
     314      11       1       1       0       0       0       001000200D     21
     314       0       3       1       0                   COLOR      11D     22
     314      12       1       1       0       0       0       001000200D     23
     314       0       5       1       0                   COLOR      12D     24
     314      13       1       1       0       0       0       001000200D     25
     314       0       5       1       0                   COLOR      13D     26
     314      14       1       1       0       0       0       001000200D     27
     314       0       8       1       0                   COLOR      14D     28
     314      15       1       1       0       0       0       001000200D     29
     314       0       8       1       0                   COLOR      15D     30
     314      16       1       1       0       0       0       001000200D     31
     314       0       8       1       0                   COLOR      16D     32
     314      17       1       1       0       0       0       001000200D     33
     314       0       8       1       0                   COLOR      17D     34
     314      18       1       1       0       0       0       001000200D     35
     314       0       8       1       0                   COLOR      18D     36
     314      19       1       1       0       0       0       001000200D     37
     314       0       6       1       0                   COLOR      19D     38
     314      20       1       1       0       0       0       001000200D     39
     314       0       8       1       0                   COLOR      20D     40
     314      21       1       1       0       0       0       001000200D     41
     314       0       2       1       0                   COLOR      21D     42
     314      22       1       1       0       0       0       001000200D     43
     314       0       2       1       0                   COLOR      22D     44
     314      23       1       1       0       0       0       001000200D     45
     314       0       5       1       0                   COLOR      23D     46
     314      24       1       1       0       0       0       001000200D     47
     314       0       5       1       0                   COLOR      24D     48
     314      25       1       1       0       0       0       001000200D     49
     314       0       8       1       0                   COLOR      25D     50
     314      26       1       1       0       0       0       001000200D     51
     314       0       5       1       0                   COLOR      26D     52
     314      27       1       1       0       0       0       001000200D     53
     314       0       6       1       0                   COLOR      27D     54
     314      28       1       1       0       0       0       001000200D     55
     314       0       8       1       0                   COLOR      28D     56
     314      29       1       1       0       0       0       001000200D     57
     314       0       6       1       0                   COLOR      29D     58
     314      30       1       1       0       0       0       001000200D     59
     314       0       2       1       0                   COLOR      30D     60
     314      31       1       1       0       0       0       001000200D     61
     314       0       8       1       0                   COLOR      31D     62
     314      32       1       1       0       0       0       001000200D     63
     314       0       8       1       0                   COLOR      32D     64
     314      33       1       1       0       0       0       001000200D     65
     314       0       8       1       0                   COLOR      33D     66
     314      34       1       1       0       0       0       001000200D     67
     314       0       8       1       0                   COLOR      34D     68
     314      35       1       1       0       0       0       001000200D     69
     314       0       8       1       0                   COLOR      35D     70
     314      36       1       1       0       0       0       001000200D     71
     314       0       5       1       0                   COLOR      36D     72
     314      37       1       1       0       0       0       001000200D     73
     314       0       8       1       0                   COLOR      37D     74
     124      38       1       1       0       0       0       001000000D     75
     124       0       0       2       0                   XFORM       1D     76
     100      40       1       1       0       0      75       001010000D     77
     100       0       8       1       0                     ARC       1D     78
     110      41       1       1       0       0       0       001010000D     79
     110       0       8       2       0                    LINE       1D     80
     124      43       1       1       0       0       0       001000000D     81
     124       0       0       3       0                   XFORM       2D     82
     100      46       1       1       0       0      81       001010000D     83
     100       0       8       1       0                     ARC       2D     84
     110      47       1       1       0       0       0       001010000D     85
     110       0       8       2       0                    LINE       2D     86
     110      49       1       1       0       0       0       001010000D     87
     110       0       8       2       0                    LINE       3D     88
     124      51       1       1       0       0       0       001000000D     89
     124       0       0       3       0                   XFORM       3D     90
     100      54       1       1       0       0      89       001010000D     91
     100       0       8       1       0                     ARC       3D     92
     124      55       1       1       0       0       0       001000000D     93
     124       0       0       4       0                   XFORM       4D     94
     100      59       1       1       0       0      93       001010000D     95
     100       0       8       1       0                     ARC       4D     96
     124      60       1       1       0       0       0       001000000D     97
     124       0       0       4       0                   XFORM       5D     98
     100      64       1       1       0       0      97       001010000D     99
     100       0       8       1       0                     ARC       5D    100
     126      65       1       1       0       0       0       001010000D    101
     126       0       8       6       0                B_SPLINE       1D    102
     124      71       1       1       0       0       0       001000000D    103
     124       0       0       3       0                   XFORM       6D    104
     100      74       1       1       0       0     103       001010000D    105
     100       0       8       1       0                     ARC       6D    106
     110      75       1       1       0       0       0       001010000D    107
     110       0       8       2       0                    LINE       4D    108
     110      77       1       1       0       0       0       001010000D    109
     110       0       8       2       0                    LINE       5D    110
     110      79       1       1       0       0       0       001010000D    111
     110       0       8       2       0                    LINE       6D    112
     110      81       1       1       0       0       0       001010000D    113
     110       0       8       2       0                    LINE       7D    114
     110      83       1       1       0       0       0       001010000D    115
     110       0       8       2       0                    LINE       8D    116
     126      85       1       1       0       0       0       001010000D    117
     126       0       8       6       0                B_SPLINE       2D    118
     124      91       1       1       0       0       0       001000000D    119
     124       0       0       1       0                   XFORM       7D    120
     100      92       1       1       0       0     119       001010000D    121
     100       0       8       1       0                     ARC       7D    122
     124      93       1       1       0       0       0       001000000D    123
     124       0       0       1       0                   XFORM       8D    124
     100      94       1       1       0       0     123       001010000D    125
     100       0       8       1       0                     ARC       8D    126
     126      95       1       1       0       0       0       001010000D    127
     126       0       8      19       0                B_SPLINE       3D    128
     110     114       1       1       0       0       0       001010000D    129
     110       0       8       2       0                    LINE       9D    130
     124     116       1       1       0       0       0       001000000D    131
     124       0       0       3       0                   XFORM       9D    132
     100     119       1       1       0       0     131       001010000D    133
     100       0       8       1       0                     ARC       9D    134
     110     120       1       1       0       0       0       001010000D    135
     110       0       8       2       0                    LINE      10D    136
     124     122       1       1       0       0       0       001000000D    137
     124       0       0       2       0                   XFORM      10D    138
     100     124       1       1       0       0     137       001010000D    139
     100       0       8       1       0                     ARC      10D    140
     124     125       1       1       0       0       0       001000000D    141
     124       0       0       2       0                   XFORM      11D    142
     100     127       1       1       0       0     141       001010000D    143
     100       0       8       1       0                     ARC      11D    144
     502     128       1       1       0       0       0       001010000D    145
     502       0       8      11       1                  VERTEX       1D    146
     504     139       1       1       0       0       0       000010001D    147
     504       0       8       7       1                    EDGE       1D    148
     128     146       1       1       0       0       0       001010000D    149
     128       0       8       7       0                  SPLSRF       1D    150
     508     153       1       1       0       0       0       001010000D    151
     508       0       8       1       1                EDGELOOP       1D    152
     510     154       1       1       0       0       0       000010000D    153
     510       0       8       1       1                    FACE       1D    154
     128     155       1       1       0       0       0       001010000D    155
     128       0       8      31       0                  SPLSRF       2D    156
     508     186       1       1       0       0       0       001010000D    157
     508       0       8       1       1                EDGELOOP       2D    158
     510     187       1       1       0       0       0       000010000D    159
     510       0       8       1       1                    FACE       2D    160
     128     188       1       1       0       0       0       001010000D    161
     128       0       8      35       0                  SPLSRF       3D    162
     508     223       1       1       0       0       0       001010000D    163
     508       0       8       1       1                EDGELOOP       3D    164
     510     224       1       1       0       0       0       000010000D    165
     510       0       8       1       1                    FACE       3D    166
     128     225       1       1       0       0       0       001010000D    167
     128       0       8      24       0                  SPLSRF       4D    168
     508     249       1       1       0       0       0       001010000D    169
     508       0       8       1       1                EDGELOOP       4D    170
     510     250       1       1       0       0       0       000010000D    171
     510       0       8       1       1                    FACE       4D    172
     128     251       1       1       0       0       0       001010000D    173
     128       0       8     104       0                  SPLSRF       5D    174
     508     355       1       1       0       0       0       001010000D    175
     508       0       8       1       1                EDGELOOP       5D    176
     510     356       1       1       0       0       0       000010000D    177
     510       0       8       1       1                    FACE       5D    178
     128     357       1       1       0       0       0       001010000D    179
     128       0       8      24       0                  SPLSRF       6D    180
     508     381       1       1       0       0       0       001010000D    181
     508       0       8       1       1                EDGELOOP       6D    182
     510     382       1       1       0       0       0       000010000D    183
     510       0       8       1       1                    FACE       6D    184
     128     383       1       1       0       0       0       001010000D    185
     128       0       8       6       0                  SPLSRF       7D    186
     508     389       1       1       0       0       0       001010000D    187
     508       0       8       1       1                EDGELOOP       7D    188
     510     390       1       1       0       0       0       000010000D    189
     510       0       8       1       1                    FACE       7D    190
     128     391       1       1       0       0       0       001010000D    191
     128       0       8       6       0                  SPLSRF       8D    192
     508     397       1       1       0       0       0       001010000D    193
     508       0       8       1       1                EDGELOOP       8D    194
     510     398       1       1       0       0       0       000010000D    195
     510       0       8       1       1                    FACE       8D    196
     128     399       1       1       0       0       0       001010000D    197
     128       0       8      22       0                  SPLSRF       9D    198
     508     421       1       1       0       0       0       001010000D    199
     508       0       8       1       1                EDGELOOP       9D    200
     510     422       1       1       0       0       0       000010000D    201
     510       0       8       1       1                    FACE       9D    202
     128     423       1       1       0       0       0       001010000D    203
     128       0       8       7       0                  SPLSRF      10D    204
     508     430       1       1       0       0       0       001010000D    205
     508       0       8       1       1                EDGELOOP      10D    206
     508     431       1       1       0       0       0       001010000D    207
     508       0       8       1       1                EDGELOOP      11D    208
     510     432       1       1       0       0       0       000010000D    209
     510       0       8       1       1                    FACE      10D    210
     128     433       1       1       0       0       0       001010000D    211
     128       0       8      19       0                  SPLSRF      11D    212
     508     452       1       1       0       0       0       001010000D    213
     508       0       8       1       1                EDGELOOP      12D    214
     510     453       1       1       0       0       0       000010000D    215
     510       0       8       1       1                    FACE      11D    216
     128     454       1       1       0       0       0       001010000D    217
     128       0       8      18       0                  SPLSRF      12D    218
     508     472       1       1       0       0       0       001010000D    219
     508       0       8       1       1                EDGELOOP      13D    220
     510     473       1       1       0       0       0       000010000D    221
     510       0       8       1       1                    FACE      12D    222
     514     474       1       1       0       0       0       000010000D    223
     514       0       8       2       1                   SHELL       1D    224
     186     476       1       1       0       0       0       000000000D    225
     186       0       8       1       0                    MSBR       1D    226
314,0D0,5.450980392157D1,8.235294117647D1;                             1P      1
314,0D0,8.235294117647D1,2.745098039216D1;                             3P      2
314,0D0,8.235294117647D1,5.450980392157D1;                             5P      3
314,0D0,8.235294117647D1,8.235294117647D1;                             7P      4
314,7.843137254902D0,6.784313725490D1,7.333333333333D1;                9P      5
314,8.627450980392D0,7.568627450980D1,8.431372549020D1;               11P      6
314,1.490196078431D1,8.470588235294D1,6.666666666667D1;               13P      7
314,2.549019607843D1,7.647058823529D1,1D2;                            15P      8
314,2.784313725490D1,2.784313725490D1,2.784313725490D1;               17P      9
314,4.470588235294D1,4.470588235294D1,4.470588235294D1;               19P     10
314,4.745098039216D1,5.529411764706D1,2.313725490196D1;               21P     11
314,5.450980392157D1,8.235294117647D1,0D0;                            23P     12
314,5.803921568627D1,7.176470588235D1,4.862745098039D1;               25P     13
314,6.196078431373D1,1D2,7.176470588235D1;                            27P     14
314,6.627450980392D1,7.764705882353D1,7.294117647059D1;               29P     15
314,6.627450980392D1,8.392156862745D1,1D2;                            31P     16
314,7.686274509804D1,5.411764705882D1,1D2;                            33P     17
314,7.725490196078D1,6.980392156863D1,1D2;                            35P     18
314,8.235294117647D1,0D0,8.235294117647D1;                            37P     19
314,8.274509803922D1,1D2,9.764705882353D1;                            39P     20
314,8.392156862745D1,0D0,0D0;                                         41P     21
314,8.392156862745D1,2.745098039216D1,0D0;                            43P     22
314,8.392156862745D1,5.450980392157D1,0D0;                            45P     23
314,8.392156862745D1,8.235294117647D1,0D0;                            47P     24
314,8.745098039216D1,9.176470588235D1,9.372549019608D1;               49P     25
314,8.862745098039D1,1D2,3.882352941176D1;                            51P     26
314,9.215686274510D1,4.431372549020D1,6D1;                            53P     27
314,9.647058823529D1,1D2,5.843137254902D1;                            55P     28
314,1D2,0D0,5.019607843137D1;                                         57P     29
314,1D2,3.411764705882D1,3.921568627451D1;                            59P     30
314,1D2,6.980392156863D1,5.098039215686D1;                            61P     31
314,1D2,7.725490196078D1,7.960784313725D1;                            63P     32
314,1D2,8D1,6.901960784314D1;                                         65P     33
314,1D2,8.235294117647D1,5.372549019608D1;                            67P     34
314,1D2,9.019607843137D1,6.431372549020D1;                            69P     35
314,1D2,9.294117647059D1,4.274509803922D1;                            71P     36
314,1D2,9.803921568627D1,7.725490196078D1;                            73P     37
124,-1.736481776669D-1,9.848077530122D-1,0D0,0D0,                     75P     38
-9.848077530122D-1,-1.736481776669D-1,0D0,0D0,0D0,0D0,1D0,0D0;        75P     39
100,0D0,0D0,0D0,9.4D1,0D0,-4.7D1,-8.140638795574D1;                   77P     40
110,-7.200817765319D1,6.042203531053D1,0D0,-1.276752175758D2,         79P     41
-5.919359506361D0,0D0;                                                79P     42
124,-7.660444431190D-1,-6.427876096865D-1,0D0,-9.396926207859D1,      81P     43
6.427876096865D-1,-7.660444431190D-1,0D0,-3.420201433257D1,0D0,       81P     44
0D0,1D0,0D0;                                                          81P     45
100,0D0,0D0,0D0,4.4D1,0D0,-2.2D1,3.810511776651D1;                    83P     46
110,-1.016097818959D2,-7.753355546510D1,0D0,-1.632292870069D1,        85P     47
-9.257192878315D1,0D0;                                                85P     48
110,-1.632292870069D1,-9.257192878315D1,0D0,-1.632292870069D1,        87P     49
-9.257192878315D1,5.4D1;                                              87P     50
124,-1.736481776669D-1,9.848077530122D-1,0D0,                         89P     51
-1.136868377216D-13,-9.848077530122D-1,-1.736481776669D-1,0D0,        89P     52
-1.136868377216D-13,0D0,0D0,1D0,5.4D1;                                89P     53
100,0D0,0D0,0D0,9.4D1,0D0,-4.7D1,-8.140638795574D1;                   91P     54
124,-1.227714190576D-1,-1.228041866942D-1,9.848077530122D-1,          93P     55
2.571794234660D1,-6.962713168700D-1,-6.964571513719D-1,               93P     56
-1.736481776669D-1,1.458536988682D2,7.072011255412D-1,                93P     57
-7.070124242425D-1,0D0,-1.231603376624D2;                             93P     58
100,0D0,0D0,0D0,3D2,0D0,2.964583333333D2,4.596146861472D1;            95P     59
124,-5.416029388071D-1,-5.417474923883D-1,-6.427876096865D-1,         97P     60
1.134540372825D2,4.544588261975D-1,4.545801210542D-1,                 97P     61
-7.660444431190D-1,-9.519924083932D1,7.072011255412D-1,               97P     62
-7.070124242425D-1,0D0,-1.231603376624D2;                             97P     63
100,0D0,0D0,0D0,3D2,0D0,2.964583333333D2,4.596146861472D1;            99P     64
126,4,3,0,0,1,0,0D0,0D0,0D0,0D0,5D-1,1D0,1D0,1D0,1D0,1D0,1D0,        101P     65
1D0,1D0,1D0,-8.616591418250D1,-4.979392767290D1,8.9D1,               101P     66
-8.896575280664D1,-5.482289546642D1,8.356269786594D1,                101P     67
-9.434996617923D1,-6.449400200920D1,7.226962165959D1,                101P     68
-9.927182441914D1,-7.333421594205D1,6.020635490320D1,                101P     69
-1.016097740983D2,-7.753355684003D1,5.4D1,0D0,1D0,0D0,0D0,1D0;       101P     70
124,-7.660444431190D-1,-6.427876096865D-1,0D0,-9.396926207859D1,     103P     71
6.427876096865D-1,-7.660444431190D-1,0D0,-3.420201433257D1,0D0,      103P     72
0D0,1D0,5.399997801232D1;                                            103P     73
100,0D0,0D0,0D0,4.4D1,0D0,-2.2D1,3.810511776651D1;                   105P     74
110,-1.276752175758D2,-5.919359506361D0,0D0,-1.276752175758D2,       107P     75
-5.919359506361D0,5.4D1;                                             107P     76
110,-1.016097740983D2,-7.753355684003D1,5.4D1,-1.632292870069D1,     109P     77
-9.257192878315D1,5.4D1;                                             109P     78
110,-1.016097818959D2,-7.753355546510D1,0D0,-1.016097740983D2,       111P     79
-7.753355684003D1,5.4D1;                                             111P     80
110,-7.200817765319D1,6.042203531053D1,5.4D1,-1.276752175758D2,      113P     81
-5.919359506361D0,5.4D1;                                             113P     82
110,-7.200817765319D1,6.042203531053D1,0D0,-7.200817765319D1,        115P     83
6.042203531053D1,5.4D1;                                              115P     84
126,4,3,0,0,1,0,0D0,0D0,0D0,0D0,5D-1,1D0,1D0,1D0,1D0,1D0,1D0,        117P     85
1D0,1D0,1D0,-9.801383949154D1,-1.724202041893D1,8.9D1,               117P     86
-1.033911984984D2,-1.518930916280D1,8.356269786594D1,                117P     87
-1.137322101459D2,-1.124171434797D1,7.226962165957D1,                117P     88
-1.231849599177D2,-7.633436180182D0,6.020635490320D1,                117P     89
-1.276752175758D2,-5.919359506361D0,5.4D1,0D0,1D0,0D0,0D0,1D0;       117P     90
124,1D0,0D0,0D0,0D0,0D0,-1D0,0D0,0D0,0D0,0D0,-1D0,8.9D1;             119P     91
100,0D0,0D0,0D0,6D1,0D0,-6D1,0D0;                                    121P     92
124,-1D0,0D0,0D0,0D0,0D0,1D0,0D0,0D0,0D0,0D0,-1D0,8.9D1;             123P     93
100,0D0,0D0,0D0,6D1,0D0,-6D1,0D0;                                    125P     94
126,18,3,0,0,1,0,0D0,0D0,0D0,0D0,6.25D-2,1.25D-1,1.875D-1,           127P     95
2.5D-1,3.125D-1,3.75D-1,4.375D-1,5D-1,5.625D-1,6.25D-1,6.875D-1,     127P     96
7.5D-1,8.125D-1,8.75D-1,9.375D-1,1D0,1D0,1D0,1D0,1D0,1D0,1D0,        127P     97
1D0,1D0,1D0,1D0,1D0,1D0,1D0,1D0,1D0,1D0,1D0,1D0,1D0,1D0,1D0,1D0,     127P     98
-9.801383949154D1,-1.724202041893D1,8.9D1,-9.857477750054D1,         127P     99
-1.791052030638D1,8.9D1,-9.960901889080D1,-1.932104781522D1,         127P    100
8.9D1,-1.008709449039D2,-2.162123486149D1,8.9D1,                     127P    101
-1.018218397130D2,-2.406645700590D1,8.9D1,-1.024454341090D2,         127P    102
-2.661487685036D1,8.9D1,-1.027310579874D2,-2.922288994859D1,         127P    103
8.9D1,-1.026738243063D2,-3.184587254740D1,8.9D1,                     127P    104
-1.022747123334D2,-3.443894466748D1,8.9D1,-1.015405509896D2,         127P    105
-3.695773813120D1,8.9D1,-1.004839019775D2,-3.935915568273D1,         127P    106
8.9D1,-9.912284485675D1,-4.160210840202D1,8.9D1,                     127P    107
-9.748066768514D1,-4.364821874727D1,8.9D1,-9.558546859487D1,         127P    108
-4.546247719873D1,8.9D1,-9.346967487270D1,-4.701384130804D1,         127P    109
8.9D1,-9.116948869088D1,-4.827576674259D1,8.9D1,                     127P    110
-8.872426554761D1,-4.922666184195D1,8.9D1,-8.702532107196D1,         127P    111
-4.964239105088D1,8.9D1,-8.616591418250D1,-4.979392767290D1,         127P    112
8.9D1,0D0,1D0,0D0,0D0,1D0;                                           127P    113
110,-4.902684435963D1,4.113840701992D1,8.9D1,-9.801383949154D1,      129P    114
-1.724202041893D1,8.9D1;                                             129P    115
124,-1.736481776664D-1,9.848077530123D-1,0D0,                        131P    116
-1.136868377216D-13,-9.848077530123D-1,-1.736481776664D-1,0D0,       131P    117
-1.136868377216D-13,0D0,0D0,1D0,8.9D1;                               131P    118
100,0D0,0D0,0D0,6.4D1,0D0,-3.200000000001D1,-5.542562584220D1;       133P    119
110,-8.616591418250D1,-4.979392767290D1,8.9D1,-1.111348337066D1,     135P    120
-6.302769619279D1,8.9D1;                                             135P    121
124,1.2D-1,-9.927738916793D-1,0D0,0D0,0D0,0D0,1D0,0D0,               137P    122
-9.927738916793D-1,-1.2D-1,0D0,5.853869458396D2;                     137P    123
100,0D0,0D0,0D0,5D2,0D0,4.963869458396D2,6D1;                        139P    124
124,-1.2D-1,9.927738916793D-1,0D0,0D0,0D0,0D0,-1D0,0D0,              141P    125
-9.927738916793D-1,-1.2D-1,0D0,5.853869458396D2;                     141P    126
100,0D0,0D0,0D0,5D2,0D0,4.963869458396D2,6D1;                        143P    127
502,15,-1.632292870069D1,-9.257192878315D1,0D0,                      145P    128
-7.200817765319D1,6.042203531053D1,0D0,-1.276752175758D2,            145P    129
-5.919359506361D0,0D0,-1.016097818959D2,-7.753355546510D1,0D0,       145P    130
6D1,0D0,8.9D1,-6D1,0D0,8.9D1,0D0,0D0,8.538694583963D1,               145P    131
-1.632292870069D1,-9.257192878315D1,5.4D1,-7.200817765318D1,         145P    132
6.042203531053D1,5.4D1,-1.111348337065D1,-6.302769619279D1,          145P    133
8.9D1,-4.902684435963D1,4.113840701992D1,8.9D1,                      145P    134
-1.276752175758D2,-5.919359506361D0,5.399997801232D1,                145P    135
-1.016097818959D2,-7.753355546510D1,5.399997801232D1,                145P    136
-9.801383949154D1,-1.724202041893D1,8.9D1,-8.616591418250D1,         145P    137
-4.979392767290D1,8.9D1;                                             145P    138
504,24,77,145,1,145,2,79,145,2,145,3,83,145,3,145,4,85,145,4,        147P    139
145,1,121,145,5,145,6,125,145,6,145,5,139,145,5,145,7,143,145,6,     147P    140
145,7,91,145,8,145,9,133,145,10,145,11,87,145,1,145,8,115,145,2,     147P    141
145,9,99,145,11,145,9,95,145,10,145,8,105,145,12,145,13,127,145,     147P    142
14,145,15,117,145,14,145,12,101,145,15,145,13,113,145,9,145,12,      147P    143
109,145,13,145,8,129,145,11,145,14,135,145,15,145,10,107,145,3,      147P    144
145,12,111,145,4,145,13;                                             147P    145
128,1,1,1,1,0,0,1,0,0,-1.379692620786D2,-1.379692620786D2,           149P    146
9.400153898610D1,9.400153898610D1,-9.400001537180D1,                 149P    147
-9.400001537180D1,9.400038452370D1,9.400038452370D1,1D0,1D0,1D0,     149P    148
1D0,-1.379692620786D2,-9.400001537180D1,0D0,9.400153898610D1,        149P    149
-9.400001537180D1,0D0,-1.379692620786D2,9.400038452370D1,0D0,        149P    150
9.400153898610D1,9.400038452370D1,0D0,-1.379692620786D2,             149P    151
9.400153898610D1,-9.400001537180D1,9.400038452370D1;                 149P    152
508,4,0,147,1,1,0,0,147,2,1,0,0,147,3,1,0,0,147,4,1,0;               151P    153
510,149,1,0,151;                                                     153P    154
128,6,3,3,3,0,0,0,0,0,0D0,0D0,0D0,0D0,1D0,1D0,1D0,2D0,2D0,2D0,       155P    155
2D0,-2.7D1,-2.7D1,-2.7D1,-2.7D1,2.7D1,2.7D1,2.7D1,2.7D1,             155P    156
1.333333333333D0,8.888888888889D-1,8.888888888889D-1,                155P    157
1.333333333333D0,8.888888888889D-1,8.888888888889D-1,                155P    158
1.333333333333D0,1.333333333333D0,8.888888888889D-1,                 155P    159
8.888888888889D-1,1.333333333333D0,8.888888888889D-1,                155P    160
8.888888888889D-1,1.333333333333D0,1.333333333333D0,                 155P    161
8.888888888889D-1,8.888888888889D-1,1.333333333333D0,                155P    162
8.888888888889D-1,8.888888888889D-1,1.333333333333D0,                155P    163
1.333333333333D0,8.888888888889D-1,8.888888888889D-1,                155P    164
1.333333333333D0,8.888888888889D-1,8.888888888889D-1,                155P    165
1.333333333333D0,-1.632292870069D1,-9.257192878315D1,0D0,            155P    166
6.384671330284D1,-1.067079997021D2,0D0,1.161737308301D2,             155P    167
-4.434708857423D1,0D0,8.833110635388D1,3.214989347261D1,0D0,         155P    168
6.048848187763D1,1.086468755195D2,0D0,-1.968116012590D1,             155P    169
1.227829464384D2,0D0,-7.200817765319D1,6.042203531053D1,0D0,         155P    170
-1.632292870069D1,-9.257192878315D1,1.8D1,6.384671330284D1,          155P    171
-1.067079997021D2,1.8D1,1.161737308301D2,-4.434708857423D1,          155P    172
1.8D1,8.833110635388D1,3.214989347261D1,1.8D1,6.048848187763D1,      155P    173
1.086468755195D2,1.8D1,-1.968116012590D1,1.227829464384D2,1.8D1,     155P    174
-7.200817765319D1,6.042203531053D1,1.8D1,-1.632292870069D1,          155P    175
-9.257192878315D1,3.6D1,6.384671330284D1,-1.067079997021D2,          155P    176
3.6D1,1.161737308301D2,-4.434708857423D1,3.6D1,8.833110635388D1,     155P    177
3.214989347261D1,3.6D1,6.048848187763D1,1.086468755195D2,3.6D1,      155P    178
-1.968116012590D1,1.227829464384D2,3.6D1,-7.200817765319D1,          155P    179
6.042203531053D1,3.6D1,-1.632292870069D1,-9.257192878315D1,          155P    180
5.4D1,6.384671330284D1,-1.067079997021D2,5.4D1,1.161737308301D2,     155P    181
-4.434708857423D1,5.4D1,8.833110635388D1,3.214989347261D1,5.4D1,     155P    182
6.048848187763D1,1.086468755195D2,5.4D1,-1.968116012590D1,           155P    183
1.227829464384D2,5.4D1,-7.200817765319D1,6.042203531053D1,5.4D1,     155P    184
0D0,2D0,-2.7D1,2.7D1;                                                155P    185
508,4,0,147,9,1,0,0,147,12,0,0,0,147,1,0,0,0,147,11,1,0;             157P    186
510,155,1,0,157;                                                     159P    187
128,6,3,3,3,0,0,0,0,0,0D0,0D0,0D0,0D0,1D0,1D0,1D0,2D0,2D0,2D0,       161P    188
2D0,0D0,0D0,0D0,0D0,1D0,1D0,1D0,1D0,1.335306754570D0,                161P    189
8.902045030464D-1,8.902045030464D-1,1.335306754570D0,                161P    190
8.902045030464D-1,8.902045030464D-1,1.335306754570D0,                161P    191
1.332675526255D0,8.884503508364D-1,8.884503508364D-1,                161P    192
1.332675526255D0,8.884503508364D-1,8.884503508364D-1,                161P    193
1.332675526255D0,1.332675526255D0,8.884503508364D-1,                 161P    194
8.884503508364D-1,1.332675526255D0,8.884503508364D-1,                161P    195
8.884503508364D-1,1.332675526255D0,1.335306754570D0,                 161P    196
8.902045030464D-1,8.902045030464D-1,1.335306754570D0,                161P    197
8.902045030464D-1,8.902045030464D-1,1.335306754570D0,                161P    198
-1.632292870069D1,-9.257192878315D1,5.4D1,6.384671330284D1,          161P    199
-1.067079997021D2,5.4D1,1.161737308301D2,-4.434708857423D1,          161P    200
5.4D1,8.833110635388D1,3.214989347261D1,5.4D1,6.048848187763D1,      161P    201
1.086468755195D2,5.4D1,-1.968116012590D1,1.227829464384D2,5.4D1,     161P    202
-7.200817765319D1,6.042203531053D1,5.4D1,-1.474411709300D1,          161P    203
-8.361804321583D1,6.642496165089D1,5.767123254666D1,                 161P    204
-9.638682317474D1,6.642496165089D1,1.049369951862D2,                 161P    205
-4.005768074232D1,6.642496165089D1,7.978740818615D1,                 161P    206
2.904024164901D1,6.642496165089D1,5.463782118607D1,                  161P    207
9.813816404034D1,6.642496165089D1,-1.777752845358D1,                 161P    208
1.109069439992D2,6.642496165089D1,-6.504329109316D1,                 161P    209
5.457780156682D1,6.642496165089D1,-1.300420681485D1,                 161P    210
-7.375052168757D1,7.811466292956D1,5.086561850895D1,                 161P    211
-8.501249514530D1,7.811466292956D1,9.255368628198D1,                 161P    212
-3.533059060848D1,7.811466292956D1,7.037192873122D1,                 161P    213
2.561328738607D1,7.811466292956D1,4.819017118045D1,                  161P    214
8.655716538061D1,7.811466292956D1,-1.567965414334D1,                 161P    215
9.781913883833D1,7.811466292956D1,-5.736772191637D1,                 161P    216
4.813723430151D1,7.811466292956D1,-1.111348337068D1,                 161P    217
-6.302769619278D1,8.9D1,4.347010267427D1,-7.265225511633D1,          161P    218
8.9D1,7.909700822476D1,-3.019376243352D1,8.9D1,6.014032773030D1,     161P    219
2.188928917284D1,8.9D1,4.118364723583D1,7.397234077920D1,8.9D1,      161P    220
-1.339993880913D1,8.359689970275D1,8.9D1,-4.902684435962D1,          161P    221
4.113840701994D1,8.9D1,0D0,2D0,0D0,1D0;                              161P    222
508,4,0,147,9,0,0,0,147,14,0,0,0,147,10,1,0,0,147,13,1,0;            163P    223
510,161,1,0,163;                                                     165P    224
128,3,3,3,3,0,0,0,0,0,0D0,0D0,0D0,0D0,1D0,1D0,1D0,1D0,               167P    225
3.167165660241D-5,3.167165660241D-5,3.167165660241D-5,               167P    226
3.167165660241D-5,8.660254037844D1,8.660254037844D1,                 167P    227
8.660254037844D1,8.660254037844D1,1.001480065927D0,                  167P    228
9.995066446909D-1,9.995066446909D-1,1.001480065927D0,                167P    229
1.001480065927D0,9.995066446909D-1,9.995066446909D-1,                167P    230
1.001480065927D0,1.001480065927D0,9.995066446909D-1,                 167P    231
9.995066446909D-1,1.001480065927D0,1.001480065927D0,                 167P    232
9.995066446909D-1,9.995066446909D-1,1.001480065927D0,                167P    233
-9.640030537543D1,-4.798932837446D1,8.9D1,-9.829102881960D1,         167P    234
-5.871215386925D1,7.811466292956D1,-1.000309390977D2,                167P    235
-6.857967539751D1,6.642496165089D1,-1.016097507054D2,                167P    236
-7.753356096483D1,5.4D1,-6.797136470718D1,-5.300211764723D1,         167P    237
8.9D1,-6.986208815135D1,-6.372494314203D1,7.811466292956D1,          167P    238
-7.160199842950D1,-7.359246467028D1,6.642496165089D1,                167P    239
-7.318081003719D1,-8.254635023760D1,5.4D1,-3.954242403893D1,         167P    240
-5.801490692001D1,8.9D1,-4.143314748310D1,-6.873773241480D1,         167P    241
7.811466292956D1,-4.317305776125D1,-7.860525394306D1,                167P    242
6.642496165089D1,-4.475186936894D1,-8.755913951037D1,5.4D1,          167P    243
-1.111348337068D1,-6.302769619278D1,8.9D1,-1.300420681485D1,         167P    244
-7.375052168757D1,7.811466292956D1,-1.474411709300D1,                167P    245
-8.361804321583D1,6.642496165089D1,-1.632292870069D1,                167P    246
-9.257192878315D1,5.4D1,0D0,1D0,3.167165660241D-5,                   167P    247
8.660254037844D1;                                                    167P    248
508,4,0,147,18,0,0,0,147,22,1,0,0,147,14,1,0,0,147,20,0,0;           169P    249
510,167,1,0,169;                                                     171P    250
128,18,4,3,3,0,0,1,0,0,-1.868063847417D-6,-1.868063847417D-6,        173P    251
-1.868063847417D-6,-1.868063847417D-6,6.25D-2,1.25D-1,1.875D-1,      173P    252
2.5D-1,3.125D-1,3.75D-1,4.375D-1,5D-1,5.625D-1,6.25D-1,6.875D-1,     173P    253
7.5D-1,8.125D-1,8.75D-1,9.375D-1,1.000001868064D0,                   173P    254
1.000001868064D0,1.000001868064D0,1.000001868064D0,                  173P    255
-1.205016203787D-6,-1.205016203787D-6,-1.205016203787D-6,            173P    256
-1.205016203787D-6,5D-1,1D0,1D0,1D0,1D0,1D0,1D0,1D0,1D0,1D0,1D0,     173P    257
1D0,1D0,1D0,1D0,1D0,1D0,1D0,1D0,1D0,1D0,1D0,1D0,1D0,1D0,1D0,1D0,     173P    258
1D0,1D0,1D0,1D0,1D0,1D0,1D0,1D0,1D0,1D0,1D0,1D0,1D0,1D0,1D0,1D0,     173P    259
1D0,1D0,1D0,1D0,1D0,1D0,1D0,1D0,1D0,1D0,1D0,1D0,1D0,1D0,1D0,1D0,     173P    260
1D0,1D0,1D0,1D0,1D0,1D0,1D0,1D0,1D0,1D0,1D0,1D0,1D0,1D0,1D0,1D0,     173P    261
1D0,1D0,1D0,1D0,1D0,1D0,1D0,1D0,1D0,1D0,1D0,1D0,1D0,1D0,1D0,1D0,     173P    262
1D0,1D0,1D0,1D0,1D0,1D0,1D0,1D0,1D0,-1.276751393857D2,               173P    263
-5.919215240265D0,5.399995512745D1,-1.289092464556D2,                173P    264
-7.389955026860D0,5.399995508796D1,-1.311846193495D2,                173P    265
-1.049315979367D1,5.399995501390D1,-1.339608860759D2,                173P    266
-1.555362481008D1,5.399995491763D1,-1.360528560670D2,                173P    267
-2.093311680160D1,5.399995483618D1,-1.374247646970D2,                173P    268
-2.653964385502D1,5.399995476953D1,-1.380531377177D2,                173P    269
-3.227727613166D1,5.399995471770D1,-1.379272236283D2,                173P    270
-3.804784131617D1,5.399995468067D1,-1.370491768163D2,                173P    271
-4.375260339532D1,5.399995465846D1,-1.354340209159D2,                173P    272
-4.929395232037D1,5.399995465105D1,-1.331093916882D2,                173P    273
-5.457707407231D1,5.399995465846D1,-1.301150641887D2,                173P    274
-5.951157297382D1,5.399995468067D1,-1.265022721757D2,                173P    275
-6.401301838363D1,5.399995471770D1,-1.223328315786D2,                173P    276
-6.800438931382D1,5.399995476954D1,-1.176780824728D2,                173P    277
-7.141739233932D1,5.399995483619D1,-1.126176696874D2,                173P    278
-7.419362989612D1,5.399995491765D1,-1.072381217772D2,                173P    279
-7.628562114861D1,5.399995501392D1,-1.035003834414D2,                173P    280
-7.720023241247D1,5.399995508797D1,-1.016096292663D2,                173P    281
-7.753361571967D1,5.399995512747D1,-1.231848772994D2,                173P    282
-7.633301579649D0,6.020632557169D1,-1.243079843976D2,                173P    283
-8.977976325507D0,6.021178811964D1,-1.263776207425D2,                173P    284
-1.181646706748D1,6.022203022612D1,-1.288996811313D2,                173P    285
-1.644848421864D1,6.023534487169D1,-1.307964728789D2,                173P    286
-2.137517246921D1,6.024661099800D1,-1.320357936074D2,                173P    287
-2.651204886141D1,6.025582873772D1,-1.325966140258D2,                173P    288
-3.177105019104D1,6.026299809083D1,-1.324694709748D2,                173P    289
-3.706207463907D1,6.026811905733D1,-1.316566339190D2,                173P    290
-4.229450793402D1,6.027119163724D1,-1.301720716359D2,                173P    291
-4.737875940823D1,6.027221583054D1,-1.280412184712D2,                173P    292
-5.222778023888D1,6.027119163724D1,-1.253005444905D2,                173P    293
-5.675853827663D1,6.026811905734D1,-1.219969367604D2,                173P    294
-6.089342413130D1,6.026299809083D1,-1.181869025013D2,                173P    295
-6.456156446D1,6.025582873772D1,-1.139356072466D2,                   173P    296
-6.770002006650D1,6.024661099801D1,-1.093157663043D2,                173P    297
-7.025484799033D1,6.023534487170D1,-1.044063527256D2,                173P    298
-7.218202982058D1,6.022203022613D1,-1.009963726252D2,                173P    299
-7.302610328125D1,6.021178811965D1,-9.927168240791D1,                173P    300
-7.333426457108D1,6.020632557171D1,-1.137322180385D2,                173P    301
-1.124170344452D1,7.226960752188D1,-1.146308528421D2,                173P    302
-1.232747661743D1,7.228078767549D1,-1.162856768402D2,                173P    303
-1.462028138565D1,7.230175011369D1,-1.182987340661D2,                173P    304
-1.836396333870D1,7.232900109330D1,-1.198085994392D2,                173P    305
-2.234764492958D1,7.235205938478D1,-1.207897974181D2,                173P    306
-2.650295330081D1,7.237092525962D1,-1.212257909748D2,                173P    307
-3.075865101896D1,7.238559871784D1,-1.211092959851D2,                173P    308
-3.504186975911D1,7.239607975942D1,-1.204424144224D2,                173P    309
-3.927933123436D1,7.240236838437D1,-1.192366077086D2,                173P    310
-4.339857604079D1,7.240446459269D1,-1.175125097184D2,                173P    311
-4.732917824996D1,7.240236838437D1,-1.152995829009D2,                173P    312
-5.100392527163D1,7.239607975942D1,-1.126356233046D2,                173P    313
-5.435994272211D1,7.238559871784D1,-1.095661230994D2,                173P    314
-5.733974505456D1,7.237092525963D1,-1.061435011047D2,                173P    315
-5.989219403833D1,7.235205938478D1,-1.024262159582D2,                173P    316
-6.197334843006D1,7.232900109330D1,-9.847773228258D1,                173P    317
-6.354720694457D1,7.230175011369D1,-9.573627705807D1,                173P    318
-6.423989693425D1,7.228078767549D1,-9.434996131788D1,                173P    319
-6.449401612243D1,7.226960752188D1,-1.033911428948D2,                173P    320
-1.518924249319D1,8.356269760626D1,-1.040641600470D2,                173P    321
-1.599984140474D1,8.356818220442D1,-1.053040772085D2,                173P    322
-1.771080879546D1,8.357846565436D1,-1.068140469661D2,                173P    323
-2.050256832707D1,8.359183404606D1,-1.079484278978D2,                173P    324
-2.347175537038D1,8.360314564941D1,-1.086879403770D2,                173P    325
-2.656756539123D1,8.361240059761D1,-1.090200086586D2,                173P    326
-2.973704558362D1,8.361959889066D1,-1.089389966732D2,                173P    327
-3.292601997324D1,8.362474052854D1,-1.084463079224D2,                173P    328
-3.608000511443D1,8.362782551128D1,-1.075503654921D2,                173P    329
-3.914513172357D1,8.362885383885D1,-1.062664718057D2,                173P    330
-4.206905562318D1,8.362782551128D1,-1.046165507156D2,                173P    331
-4.480184263872D1,8.362474052854D1,-1.026287762715D2,                173P    332
-4.729681224956D1,8.361959889066D1,-1.003370946129D2,                173P    333
-4.951132556152D1,8.361240059761D1,-9.778064686420D1,                173P    334
-5.140750416611D1,8.360314564942D1,-9.500310401284D1,                173P    335
-5.295286739368D1,8.359183404606D1,-9.205189163456D1,                173P    336
-5.412088941816D1,8.357846565437D1,-9.000227134377D1,                173P    337
-5.463456309176D1,8.356818220442D1,-8.896566735742D1,                173P    338
-5.482291079700D1,8.356269760626D1,-9.801378919376D1,                173P    339
-1.724196047660D1,8.9D1,-9.857474658803D1,-1.791047814712D1,         173P    340
8.9D1,-9.960900631822D1,-1.932102489844D1,8.9D1,                     173P    341
-1.008709449039D2,-2.162123486149D1,8.9D1,-1.018218397130D2,         173P    342
-2.406645700590D1,8.9D1,-1.024454341090D2,-2.661487685036D1,         173P    343
8.9D1,-1.027310579874D2,-2.922288994859D1,8.9D1,                     173P    344
-1.026738243063D2,-3.184587254740D1,8.9D1,-1.022747123334D2,         173P    345
-3.443894466748D1,8.9D1,-1.015405509896D2,-3.695773813120D1,         173P    346
8.9D1,-1.004839019775D2,-3.935915568273D1,8.9D1,                     173P    347
-9.912284485675D1,-4.160210840202D1,8.9D1,-9.748066768514D1,         173P    348
-4.364821874727D1,8.9D1,-9.558546859487D1,-4.546247719873D1,         173P    349
8.9D1,-9.346967487270D1,-4.701384130804D1,8.9D1,                     173P    350
-9.116948869088D1,-4.827576674259D1,8.9D1,-8.872424118584D1,         173P    351
-4.922667131572D1,8.9D1,-8.702527029216D1,-4.964240347657D1,         173P    352
8.9D1,-8.616583712198D1,-4.979394126059D1,8.9D1,                     173P    353
-1.868063847417D-6,1.000001868064D0,-1.205016203787D-6,1D0;          173P    354
508,4,0,147,15,0,0,0,147,17,0,0,0,147,16,1,0,0,147,18,1,0;           175P    355
510,173,1,0,175;                                                     177P    356
128,3,3,3,3,0,0,0,0,0,0D0,0D0,0D0,0D0,1D0,1D0,1D0,1D0,-2.7D1,        179P    357
-2.7D1,-2.7D1,-2.7D1,2.700000000014D1,2.700000000014D1,              179P    358
2.700000000014D1,2.700000000014D1,1.333333333333D0,                  179P    359
8.888888888889D-1,8.888888888889D-1,1.333333333333D0,                179P    360
1.333333333333D0,8.888888888889D-1,8.888888888889D-1,                179P    361
1.333333333333D0,1.333333333333D0,8.888888888889D-1,                 179P    362
8.888888888889D-1,1.333333333333D0,1.333333333333D0,                 179P    363
8.888888888889D-1,8.888888888889D-1,1.333333333333D0,                179P    364
-1.276752175758D2,-5.919359506361D0,0D0,-1.521687151418D2,           179P    365
-3.510957322579D1,0D0,-1.391359973018D2,-7.091667120516D1,0D0,       179P    366
-1.016097818959D2,-7.753355546510D1,0D0,-1.276752175758D2,           179P    367
-5.919359506361D0,1.800000000005D1,-1.521687151418D2,                179P    368
-3.510957322579D1,1.800000000005D1,-1.391359973018D2,                179P    369
-7.091667120516D1,1.800000000005D1,-1.016097818959D2,                179P    370
-7.753355546510D1,1.800000000005D1,-1.276752175758D2,                179P    371
-5.919359506361D0,3.600000000009D1,-1.521687151418D2,                179P    372
-3.510957322579D1,3.600000000009D1,-1.391359973018D2,                179P    373
-7.091667120516D1,3.600000000009D1,-1.016097818959D2,                179P    374
-7.753355546510D1,3.600000000009D1,-1.276752175758D2,                179P    375
-5.919359506361D0,5.400000000014D1,-1.521687151418D2,                179P    376
-3.510957322579D1,5.400000000014D1,-1.391359973018D2,                179P    377
-7.091667120516D1,5.400000000014D1,-1.016097818959D2,                179P    378
-7.753355546510D1,5.400000000014D1,0D0,1D0,-2.7D1,                   179P    379
2.700000000014D1;                                                    179P    380
508,4,0,147,15,1,0,0,147,24,0,0,0,147,3,0,0,0,147,23,1,0;            181P    381
510,179,1,0,181;                                                     183P    382
128,1,1,1,1,0,0,1,0,0,-4.330127018922D1,-4.330127018922D1,           185P    383
4.330127018922D1,4.330127018922D1,-2.7D1,-2.7D1,2.7D1,2.7D1,1D0,     185P    384
1D0,1D0,1D0,-1.016097818959D2,-7.753355546510D1,0D0,                 185P    385
-1.632292870069D1,-9.257192878315D1,0D0,-1.016097818959D2,           185P    386
-7.753355546510D1,5.4D1,-1.632292870069D1,-9.257192878315D1,         185P    387
5.4D1,-4.330127018922D1,4.330127018922D1,-2.7D1,2.7D1;               185P    388
508,4,0,147,20,1,0,0,147,11,0,0,0,147,4,0,0,0,147,24,1,0;            187P    389
510,185,1,0,187;                                                     189P    390
128,1,1,1,1,0,0,1,0,0,-4.330127018922D1,-4.330127018922D1,           191P    391
4.330127018922D1,4.330127018922D1,-2.7D1,-2.7D1,2.7D1,2.7D1,1D0,     191P    392
1D0,1D0,1D0,-7.200817765319D1,6.042203531053D1,0D0,                  191P    393
-1.276752175758D2,-5.919359506361D0,0D0,-7.200817765319D1,           191P    394
6.042203531053D1,5.4D1,-1.276752175758D2,-5.919359506361D0,          191P    395
5.4D1,-4.330127018922D1,4.330127018922D1,-2.7D1,2.7D1;               191P    396
508,4,0,147,19,1,0,0,147,23,0,0,0,147,2,0,0,0,147,12,1,0;            193P    397
510,191,1,0,193;                                                     195P    398
128,3,3,3,3,0,0,0,0,0,0D0,0D0,0D0,0D0,1D0,1D0,1D0,1D0,0D0,0D0,       197P    399
0D0,0D0,8.660254037844D1,8.660254037844D1,8.660254037844D1,          197P    400
8.660254037844D1,1.001480065927D0,9.995066446909D-1,                 197P    401
9.995066446909D-1,1.001480065927D0,1.001480065927D0,                 197P    402
9.995066446909D-1,9.995066446909D-1,1.001480065927D0,                197P    403
1.001480065927D0,9.995066446909D-1,9.995066446909D-1,                197P    404
1.001480065927D0,1.001480065927D0,9.995066446909D-1,                 197P    405
9.995066446909D-1,1.001480065927D0,-4.902684435962D1,                197P    406
4.113840701994D1,8.9D1,-5.736772191637D1,4.813723430151D1,           197P    407
7.811466292956D1,-6.504329109316D1,5.457780156682D1,                 197P    408
6.642496165089D1,-7.200817765319D1,6.042203531053D1,5.4D1,           197P    409
-6.758252433383D1,1.902460874764D1,8.9D1,-7.592340189059D1,          197P    410
2.602343602921D1,7.811466292956D1,-8.359897106737D1,                 197P    411
3.246400329452D1,6.642496165089D1,-9.056385762740D1,                 197P    412
3.830823703824D1,5.4D1,-8.613820430804D1,-3.089189524658D0,          197P    413
8.9D1,-9.447908186480D1,3.909637756912D0,7.811466292956D1,           197P    414
-1.021546510416D2,1.035020502223D1,6.642496165089D1,                 197P    415
-1.091195376016D2,1.619443876594D1,5.4D1,-1.046938842823D2,          197P    416
-2.520298779696D1,8.9D1,-1.130347618390D2,-1.820416051539D1,         197P    417
7.811466292956D1,-1.207103310158D2,-1.176359325007D1,                197P    418
6.642496165089D1,-1.276752175758D2,-5.919359506361D0,5.4D1,0D0,      197P    419
1D0,0D0,8.660254037844D1;                                            197P    420
508,4,0,147,17,1,0,0,147,19,0,0,0,147,13,0,0,0,147,21,1,0;           199P    421
510,197,1,0,199;                                                     201P    422
128,1,1,1,1,0,0,1,0,0,-1.026934098354D2,-1.026934098354D2,           203P    423
6.400085238794D1,6.400085238794D1,-6.400021421305D1,                 203P    424
-6.400021421305D1,6.400021265065D1,6.400021265065D1,1D0,1D0,1D0,     203P    425
1D0,-1.026934098354D2,-6.400021421305D1,8.9D1,6.400085238794D1,      203P    426
-6.400021421305D1,8.9D1,-1.026934098354D2,6.400021265065D1,          203P    427
8.9D1,6.400085238794D1,6.400021265065D1,8.9D1,-1.026934098354D2,     203P    428
6.400085238794D1,-6.400021421305D1,6.400021265065D1;                 203P    429
508,4,0,147,16,0,0,0,147,21,0,0,0,147,10,0,0,0,147,22,0,0;           205P    430
508,2,0,147,5,0,0,0,147,6,0,0;                                       207P    431
510,203,2,0,205,207;                                                 209P    432
128,3,3,3,3,0,0,0,0,0,0D0,0D0,0D0,0D0,1D0,1D0,1D0,1D0,0D0,0D0,       211P    433
0D0,0D0,1D0,1D0,1D0,1D0,2.001809798009D0,6.672699326695D-1,          211P    434
6.672699326695D-1,2.001809798009D0,1.999396733997D0,                 211P    435
6.664655779990D-1,6.664655779990D-1,1.999396733997D0,                211P    436
1.999396733997D0,6.664655779990D-1,6.664655779990D-1,                211P    437
1.999396733997D0,2.001809798009D0,6.672699326695D-1,                 211P    438
6.672699326695D-1,2.001809798009D0,6D1,0D0,8.9D1,6D1,-1.2D2,         211P    439
8.9D1,-6D1,-1.2D2,8.9D1,-6D1,1.929771446807D-14,8.9D1,               211P    440
4.008454830967D1,0D0,8.659275075335D1,4.008454830967D1,              211P    441
-8.016909661933D1,8.659275075335D1,-4.008454830967D1,                211P    442
-8.016909661933D1,8.659275075335D1,-4.008454830967D1,                211P    443
1.289233613102D-14,8.659275075335D1,2.006041038876D1,0D0,            211P    444
8.538694583963D1,2.006041038876D1,-4.012082077752D1,                 211P    445
8.538694583963D1,-2.006041038876D1,-4.012082077752D1,                211P    446
8.538694583963D1,-2.006041038876D1,0D0,8.538694583963D1,             211P    447
3.061515884556D-14,0D0,8.538694583963D1,3.061515884556D-14,          211P    448
-6.123031769112D-14,8.538694583963D1,-3.061515884556D-14,            211P    449
-6.123031769112D-14,8.538694583963D1,-3.061515884556D-14,0D0,        211P    450
8.538694583963D1,0D0,1D0,0D0,1D0;                                    211P    451
508,3,0,147,5,1,0,0,147,8,1,0,0,147,7,0,0;                           213P    452
510,211,1,0,213;                                                     215P    453
128,3,3,3,3,0,0,0,0,0,0D0,0D0,0D0,0D0,1D0,1D0,1D0,1D0,0D0,0D0,       217P    454
0D0,0D0,1D0,1D0,1D0,1D0,2.001809798009D0,6.672699326695D-1,          217P    455
6.672699326695D-1,2.001809798009D0,1.999396733997D0,                 217P    456
6.664655779991D-1,6.664655779991D-1,1.999396733997D0,                217P    457
1.999396733997D0,6.664655779991D-1,6.664655779991D-1,                217P    458
1.999396733997D0,2.001809798009D0,6.672699326695D-1,                 217P    459
6.672699326695D-1,2.001809798009D0,-6D1,0D0,8.9D1,-6D1,1.2D2,        217P    460
8.9D1,6D1,1.2D2,8.9D1,6D1,0D0,8.9D1,-4.008454830967D1,0D0,           217P    461
8.659275075335D1,-4.008454830967D1,8.016909661933D1,                 217P    462
8.659275075335D1,4.008454830967D1,8.016909661933D1,                  217P    463
8.659275075335D1,4.008454830967D1,0D0,8.659275075335D1,              217P    464
-2.006041038876D1,0D0,8.538694583963D1,-2.006041038876D1,            217P    465
4.012082077752D1,8.538694583963D1,2.006041038876D1,                  217P    466
4.012082077752D1,8.538694583963D1,2.006041038876D1,0D0,              217P    467
8.538694583963D1,-3.061515884556D-14,0D0,8.538694583963D1,           217P    468
-3.061515884556D-14,6.123031769112D-14,8.538694583963D1,             217P    469
3.061515884556D-14,6.123031769112D-14,8.538694583963D1,              217P    470
3.061515884556D-14,0D0,8.538694583963D1,0D0,1D0,0D0,1D0;             217P    471
508,3,0,147,6,1,0,0,147,7,1,0,0,147,8,0,0;                           219P    472
510,217,1,0,219;                                                     221P    473
514,12,153,0,159,1,165,1,171,1,177,1,183,1,189,1,195,1,201,1,        223P    474
209,1,215,0,221,0;                                                   223P    475
186,223,1,0;                                                         225P    476
S      1G      4D    226P    476                                        T      1
