 PTC IGES file: rv-12s_j6_crbrg_spacer.igs                              S      1
1H,,1H;,22HRV-12S_J6_CRBRG_SPACER,26Hrv-12s_j6_crbrg_spacer.igs,        G      1
49HPro/ENGINEER by Parametric Technology Corporation,7H2002080,32,38,7, G      2
38,15,22HRV-12S_J6_CRBRG_SPACER,1.,2,2HMM,32768,0.5,13H030630.182359,   G      3
  0.001,     10.,9Htoyoshima,7HUnknown,10,0,13H030630.182359;           G      4
     314       1       1       1       0       0       0       001000200D      1
     314       0       8       1       0                   COLOR       1D      2
     314       2       1       1       0       0       0       001000200D      3
     314       0       7       1       0                   COLOR       2D      4
     314       3       1       1       0       0       0       001000200D      5
     314       0       3       1       0                   COLOR       3D      6
     314       4       1       1       0       0       0       001000200D      7
     314       0       7       1       0                   COLOR       4D      8
     314       5       1       1       0       0       0       001000200D      9
     314       0       7       1       0                   COLOR       5D     10
     314       6       1       1       0       0       0       001000200D     11
     314       0       7       1       0                   COLOR       6D     12
     314       7       1       1       0       0       0       001000200D     13
     314       0       7       1       0                   COLOR       7D     14
     314       8       1       1       0       0       0       001000200D     15
     314       0       7       1       0                   COLOR       8D     16
     314       9       1       1       0       0       0       001000200D     17
     314       0       7       1       0                   COLOR       9D     18
     314      10       1       1       0       0       0       001000200D     19
     314       0       1       1       0                   COLOR      10D     20
     314      11       1       1       0       0       0       001000200D     21
     314       0       1       1       0                   COLOR      11D     22
     314      12       1       1       0       0       0       001000200D     23
     314       0       3       1       0                   COLOR      12D     24
     314      13       1       1       0       0       0       001000200D     25
     314       0       5       1       0                   COLOR      13D     26
     314      14       1       1       0       0       0       001000200D     27
     314       0       5       1       0                   COLOR      14D     28
     314      15       1       1       0       0       0       001000200D     29
     314       0       8       1       0                   COLOR      15D     30
     314      16       1       1       0       0       0       001000200D     31
     314       0       8       1       0                   COLOR      16D     32
     314      17       1       1       0       0       0       001000200D     33
     314       0       8       1       0                   COLOR      17D     34
     314      18       1       1       0       0       0       001000200D     35
     314       0       8       1       0                   COLOR      18D     36
     314      19       1       1       0       0       0       001000200D     37
     314       0       8       1       0                   COLOR      19D     38
     314      20       1       1       0       0       0       001000200D     39
     314       0       6       1       0                   COLOR      20D     40
     314      21       1       1       0       0       0       001000200D     41
     314       0       8       1       0                   COLOR      21D     42
     314      22       1       1       0       0       0       001000200D     43
     314       0       2       1       0                   COLOR      22D     44
     314      23       1       1       0       0       0       001000200D     45
     314       0       2       1       0                   COLOR      23D     46
     314      24       1       1       0       0       0       001000200D     47
     314       0       5       1       0                   COLOR      24D     48
     314      25       1       1       0       0       0       001000200D     49
     314       0       5       1       0                   COLOR      25D     50
     314      26       1       1       0       0       0       001000200D     51
     314       0       8       1       0                   COLOR      26D     52
     314      27       1       1       0       0       0       001000200D     53
     314       0       5       1       0                   COLOR      27D     54
     314      28       1       1       0       0       0       001000200D     55
     314       0       6       1       0                   COLOR      28D     56
     314      29       1       1       0       0       0       001000200D     57
     314       0       8       1       0                   COLOR      29D     58
     314      30       1       1       0       0       0       001000200D     59
     314       0       6       1       0                   COLOR      30D     60
     314      31       1       1       0       0       0       001000200D     61
     314       0       2       1       0                   COLOR      31D     62
     314      32       1       1       0       0       0       001000200D     63
     314       0       8       1       0                   COLOR      32D     64
     314      33       1       1       0       0       0       001000200D     65
     314       0       8       1       0                   COLOR      33D     66
     314      34       1       1       0       0       0       001000200D     67
     314       0       8       1       0                   COLOR      34D     68
     314      35       1       1       0       0       0       001000200D     69
     314       0       8       1       0                   COLOR      35D     70
     314      36       1       1       0       0       0       001000200D     71
     314       0       8       1       0                   COLOR      36D     72
     314      37       1       1       0       0       0       001000200D     73
     314       0       5       1       0                   COLOR      37D     74
     314      38       1       1       0       0       0       001000200D     75
     314       0       8       1       0                   COLOR      38D     76
     110      39       1       1       0       0       0       001010000D     77
     110       0      -1       1       0                    LINE       1D     78
     110      40       1       1       0       0       0       001010000D     79
     110       0      -1       2       0                    LINE       2D     80
     124      42       1       1       0       0       0       001000000D     81
     124       0       0       2       0                   XFORM       1D     82
     100      44       1       1       0       0      81       001010000D     83
     100       0      -1       1       0                     ARC       1D     84
     110      45       1       1       0       0       0       001010000D     85
     110       0      -1       2       0                    LINE       3D     86
     110      47       1       1       0       0       0       001010000D     87
     110       0      -1       1       0                    LINE       4D     88
     110      48       1       1       0       0       0       001010000D     89
     110       0      -1       2       0                    LINE       5D     90
     124      50       1       1       0       0       0       001000000D     91
     124       0       0       2       0                   XFORM       2D     92
     100      52       1       1       0       0      91       001010000D     93
     100       0      -1       1       0                     ARC       2D     94
     110      53       1       1       0       0       0       001010000D     95
     110       0      -1       2       0                    LINE       6D     96
     110      55       1       1       0       0       0       001010000D     97
     110       0      -1       2       0                    LINE       7D     98
     124      57       1       1       0       0       0       001000000D     99
     124       0       0       2       0                   XFORM       3D    100
     100      59       1       1       0       0      99       001010000D    101
     100       0      -1       1       0                     ARC       3D    102
     110      60       1       1       0       0       0       001010000D    103
     110       0      -1       1       0                    LINE       8D    104
     124      61       1       1       0       0       0       001000000D    105
     124       0       0       2       0                   XFORM       4D    106
     100      63       1       1       0       0     105       001010000D    107
     100       0      -1       1       0                     ARC       4D    108
     110      64       1       1       0       0       0       001010000D    109
     110       0      -1       2       0                    LINE       9D    110
     110      66       1       1       0       0       0       001010000D    111
     110       0      -1       2       0                    LINE      10D    112
     110      68       1       1       0       0       0       001010000D    113
     110       0      -1       1       0                    LINE      11D    114
     124      69       1       1       0       0       0       001000000D    115
     124       0       0       2       0                   XFORM       5D    116
     100      71       1       1       0       0     115       001010000D    117
     100       0      -1       1       0                     ARC       5D    118
     110      72       1       1       0       0       0       001010000D    119
     110       0      -1       2       0                    LINE      12D    120
     124      74       1       1       0       0       0       001000000D    121
     124       0       0       3       0                   XFORM       6D    122
     100      77       1       1       0       0     121       001010000D    123
     100       0      -1       1       0                     ARC       6D    124
     110      78       1       1       0       0       0       001010000D    125
     110       0      -1       2       0                    LINE      13D    126
     124      80       1       1       0       0       0       001000000D    127
     124       0       0       3       0                   XFORM       7D    128
     100      83       1       1       0       0     127       001010000D    129
     100       0      -1       1       0                     ARC       7D    130
     110      84       1       1       0       0       0       001010000D    131
     110       0      -1       1       0                    LINE      14D    132
     124      85       1       1       0       0       0       001000000D    133
     124       0       0       2       0                   XFORM       8D    134
     100      87       1       1       0       0     133       001010000D    135
     100       0      -1       1       0                     ARC       8D    136
     110      88       1       1       0       0       0       001010000D    137
     110       0      -1       2       0                    LINE      15D    138
     110      90       1       1       0       0       0       001010000D    139
     110       0      -1       2       0                    LINE      16D    140
     110      92       1       1       0       0       0       001010000D    141
     110       0      -1       1       0                    LINE      17D    142
     124      93       1       1       0       0       0       001000000D    143
     124       0       0       2       0                   XFORM       9D    144
     100      95       1       1       0       0     143       001010000D    145
     100       0      -1       1       0                     ARC       9D    146
     110      96       1       1       0       0       0       001010000D    147
     110       0      -1       2       0                    LINE      18D    148
     124      98       1       1       0       0       0       001000000D    149
     124       0       0       3       0                   XFORM      10D    150
     100     101       1       1       0       0     149       001010000D    151
     100       0      -1       1       0                     ARC      10D    152
     110     102       1       1       0       0       0       001010000D    153
     110       0      -1       2       0                    LINE      19D    154
     110     104       1       1       0       0       0       001010000D    155
     110       0      -1       1       0                    LINE      20D    156
     110     105       1       1       0       0       0       001010000D    157
     110       0      -1       2       0                    LINE      21D    158
     124     107       1       1       0       0       0       001000000D    159
     124       0       0       2       0                   XFORM      11D    160
     100     109       1       1       0       0     159       001010000D    161
     100       0      -1       1       0                     ARC      11D    162
     110     110       1       1       0       0       0       001010000D    163
     110       0      -1       2       0                    LINE      22D    164
     110     112       1       1       0       0       0       001010000D    165
     110       0      -1       1       0                    LINE      23D    166
     110     113       1       1       0       0       0       001010000D    167
     110       0      -1       2       0                    LINE      24D    168
     124     115       1       1       0       0       0       001000000D    169
     124       0       0       2       0                   XFORM      12D    170
     100     117       1       1       0       0     169       001010000D    171
     100       0      -1       1       0                     ARC      12D    172
     502     118       1       1       0       0       0       001010000D    173
     502       0      -1      15       1                  VERTEX       1D    174
     504     133       1       1       0       0       0       000010001D    175
     504       0      -1      10       1                    EDGE       1D    176
     128     143       1       1       0       0       0       001010000D    177
     128       0      -1       5       0                  SPLSRF       1D    178
     508     148       1       1       0       0       0       001010000D    179
     508       0      -1       3       1                EDGELOOP       1D    180
     510     151       1       1       0       0       0       000010000D    181
     510       0      -1       1       1                    FACE       1D    182
     128     152       1       1       0       0       0       001010000D    183
     128       0      -1      19       0                  SPLSRF       2D    184
     508     171       1       1       0       0       0       001010000D    185
     508       0      -1       1       1                EDGELOOP       2D    186
     510     172       1       1       0       0       0       000010000D    187
     510       0      -1       1       1                    FACE       2D    188
     128     173       1       1       0       0       0       001010000D    189
     128       0      -1       5       0                  SPLSRF       3D    190
     508     178       1       1       0       0       0       001010000D    191
     508       0      -1       1       1                EDGELOOP       3D    192
     510     179       1       1       0       0       0       000010000D    193
     510       0      -1       1       1                    FACE       3D    194
     128     180       1       1       0       0       0       001010000D    195
     128       0      -1      18       0                  SPLSRF       4D    196
     508     198       1       1       0       0       0       001010000D    197
     508       0      -1       1       1                EDGELOOP       4D    198
     510     199       1       1       0       0       0       000010000D    199
     510       0      -1       1       1                    FACE       4D    200
     128     200       1       1       0       0       0       001010000D    201
     128       0      -1       6       0                  SPLSRF       5D    202
     508     206       1       1       0       0       0       001010000D    203
     508       0      -1       1       1                EDGELOOP       5D    204
     510     207       1       1       0       0       0       000010000D    205
     510       0      -1       1       1                    FACE       5D    206
     128     208       1       1       0       0       0       001010000D    207
     128       0      -1      19       0                  SPLSRF       6D    208
     508     227       1       1       0       0       0       001010000D    209
     508       0      -1       1       1                EDGELOOP       6D    210
     510     228       1       1       0       0       0       000010000D    211
     510       0      -1       1       1                    FACE       6D    212
     128     229       1       1       0       0       0       001010000D    213
     128       0      -1       5       0                  SPLSRF       7D    214
     508     234       1       1       0       0       0       001010000D    215
     508       0      -1       1       1                EDGELOOP       7D    216
     510     235       1       1       0       0       0       000010000D    217
     510       0      -1       1       1                    FACE       7D    218
     128     236       1       1       0       0       0       001010000D    219
     128       0      -1      19       0                  SPLSRF       8D    220
     508     255       1       1       0       0       0       001010000D    221
     508       0      -1       1       1                EDGELOOP       8D    222
     510     256       1       1       0       0       0       000010000D    223
     510       0      -1       1       1                    FACE       8D    224
     128     257       1       1       0       0       0       001010000D    225
     128       0      -1       5       0                  SPLSRF       9D    226
     508     262       1       1       0       0       0       001010000D    227
     508       0      -1       1       1                EDGELOOP       9D    228
     510     263       1       1       0       0       0       000010000D    229
     510       0      -1       1       1                    FACE       9D    230
     128     264       1       1       0       0       0       001010000D    231
     128       0      -1      18       0                  SPLSRF      10D    232
     508     282       1       1       0       0       0       001010000D    233
     508       0      -1       1       1                EDGELOOP      10D    234
     510     283       1       1       0       0       0       000010000D    235
     510       0      -1       1       1                    FACE      10D    236
     128     284       1       1       0       0       0       001010000D    237
     128       0      -1       6       0                  SPLSRF      11D    238
     508     290       1       1       0       0       0       001010000D    239
     508       0      -1       1       1                EDGELOOP      11D    240
     510     291       1       1       0       0       0       000010000D    241
     510       0      -1       1       1                    FACE      11D    242
     128     292       1       1       0       0       0       001010000D    243
     128       0      -1      19       0                  SPLSRF      12D    244
     508     311       1       1       0       0       0       001010000D    245
     508       0      -1       1       1                EDGELOOP      12D    246
     510     312       1       1       0       0       0       000010000D    247
     510       0      -1       1       1                    FACE      12D    248
     128     313       1       1       0       0       0       001010000D    249
     128       0      -1       5       0                  SPLSRF      13D    250
     508     318       1       1       0       0       0       001010000D    251
     508       0      -1       1       1                EDGELOOP      13D    252
     510     319       1       1       0       0       0       000010000D    253
     510       0      -1       1       1                    FACE      13D    254
     128     320       1       1       0       0       0       001010000D    255
     128       0      -1       5       0                  SPLSRF      14D    256
     508     325       1       1       0       0       0       001010000D    257
     508       0      -1       3       1                EDGELOOP      14D    258
     510     328       1       1       0       0       0       000010000D    259
     510       0      -1       1       1                    FACE      14D    260
     514     329       1       1       0       0       0       000010000D    261
     514       0      -1       2       1                   SHELL       1D    262
     186     331       1       1       0       0       0       000000000D    263
     186       0      -1       1       0                    MSBR       1D    264
314,8.757490918352D1,9.179875904394D1,9.4D1;                           1P      1
314,0D0,5.450980392157D1,8.235294117647D1;                             3P      2
314,0D0,8.235294117647D1,2.745098039216D1;                             5P      3
314,0D0,8.235294117647D1,5.450980392157D1;                             7P      4
314,0D0,8.235294117647D1,8.235294117647D1;                             9P      5
314,7.843137254902D0,6.784313725490D1,7.333333333333D1;               11P      6
314,8.627450980392D0,7.568627450980D1,8.431372549020D1;               13P      7
314,1.490196078431D1,8.470588235294D1,6.666666666667D1;               15P      8
314,2.549019607843D1,7.647058823529D1,1D2;                            17P      9
314,2.784313725490D1,2.784313725490D1,2.784313725490D1;               19P     10
314,4.470588235294D1,4.470588235294D1,4.470588235294D1;               21P     11
314,4.745098039216D1,5.529411764706D1,2.313725490196D1;               23P     12
314,5.450980392157D1,8.235294117647D1,0D0;                            25P     13
314,5.803921568627D1,7.176470588235D1,4.862745098039D1;               27P     14
314,6.196078431373D1,1D2,7.176470588235D1;                            29P     15
314,6.627450980392D1,7.764705882353D1,7.294117647059D1;               31P     16
314,6.627450980392D1,8.392156862745D1,1D2;                            33P     17
314,7.686274509804D1,5.411764705882D1,1D2;                            35P     18
314,7.725490196078D1,6.980392156863D1,1D2;                            37P     19
314,8.235294117647D1,0D0,8.235294117647D1;                            39P     20
314,8.274509803922D1,1D2,9.764705882353D1;                            41P     21
314,8.392156862745D1,0D0,0D0;                                         43P     22
314,8.392156862745D1,2.745098039216D1,0D0;                            45P     23
314,8.392156862745D1,5.450980392157D1,0D0;                            47P     24
314,8.392156862745D1,8.235294117647D1,0D0;                            49P     25
314,8.745098039216D1,9.176470588235D1,9.372549019608D1;               51P     26
314,8.862745098039D1,1D2,3.882352941176D1;                            53P     27
314,9.215686274510D1,4.431372549020D1,6D1;                            55P     28
314,9.647058823529D1,1D2,5.843137254902D1;                            57P     29
314,1D2,0D0,5.019607843137D1;                                         59P     30
314,1D2,3.411764705882D1,3.921568627451D1;                            61P     31
314,1D2,6.980392156863D1,5.098039215686D1;                            63P     32
314,1D2,7.725490196078D1,7.960784313725D1;                            65P     33
314,1D2,8D1,6.901960784314D1;                                         67P     34
314,1D2,8.235294117647D1,5.372549019608D1;                            69P     35
314,1D2,9.019607843137D1,6.431372549020D1;                            71P     36
314,1D2,9.294117647059D1,4.274509803922D1;                            73P     37
314,1D2,9.803921568627D1,7.725490196078D1;                            75P     38
110,2.636531642233D1,4.85D1,0D0,-2.636531642233D1,4.85D1,0D0;         77P     39
110,-3.112139548254D1,4.504263150915D1,0D0,-4.137788782384D1,         79P     40
1.342089412958D1,0D0;                                                 79P     41
124,-9.512158120424D-1,-3.085263018295D-1,0D0,0D0,                    81P     42
3.085263018295D-1,-9.512158120424D-1,0D0,0D0,0D0,0D0,1D0,0D0;         81P     43
100,0D0,0D0,0D0,4.35D1,0D0,3.521860233391D1,2.553233341561D1;         83P     44
110,-4.137788782384D1,-1.342089412958D1,0D0,-3.112139548254D1,        85P     45
-4.504263150915D1,0D0;                                                85P     46
110,-2.636531642233D1,-4.85D1,0D0,2.636531642233D1,-4.85D1,0D0;       87P     47
110,3.112139548254D1,-4.504263150915D1,0D0,4.137788782384D1,          89P     48
-1.342089412958D1,0D0;                                                89P     49
124,9.512158120424D-1,3.085263018295D-1,0D0,0D0,                      91P     50
-3.085263018295D-1,9.512158120424D-1,0D0,0D0,0D0,0D0,1D0,0D0;         91P     51
100,0D0,0D0,0D0,4.35D1,0D0,3.521860233391D1,2.553233341561D1;         93P     52
110,4.137788782384D1,1.342089412958D1,0D0,3.112139548254D1,           95P     53
4.504263150915D1,0D0;                                                 95P     54
110,3.112139548254D1,4.504263150915D1,6D0,3.112139548254D1,           97P     55
4.504263150915D1,0D0;                                                 97P     56
124,9.512158120424D-1,-3.085263018295D-1,0D0,2.636531642233D1,        99P     57
3.085263018295D-1,9.512158120424D-1,0D0,4.35D1,0D0,0D0,1D0,6D0;       99P     58
100,0D0,0D0,0D0,5D0,0D0,1.542631509147D0,4.756079060212D0;           101P     59
110,2.636531642233D1,4.85D1,6D0,2.636531642233D1,4.85D1,0D0;         103P     60
124,0D0,1D0,0D0,2.636531642233D1,1D0,0D0,0D0,4.35D1,0D0,0D0,         105P     61
-1D0,5.595524044111D-14;                                             105P     62
100,0D0,0D0,0D0,5D0,0D0,1.542631509147D0,4.756079060212D0;           107P     63
110,4.137788782384D1,1.342089412958D1,0D0,4.137788782384D1,          109P     64
1.342089412958D1,6D0;                                                109P     65
110,4.137788782384D1,-1.342089412958D1,0D0,4.137788782384D1,         111P     66
-1.342089412958D1,6D0;                                               111P     67
110,2.636531642233D1,-4.85D1,6D0,2.636531642233D1,-4.85D1,0D0;       113P     68
124,0D0,1D0,0D0,2.636531642233D1,-1D0,0D0,0D0,-4.35D1,0D0,0D0,       115P     69
1D0,6D0;                                                             115P     70
100,0D0,0D0,0D0,5D0,0D0,1.542631509147D0,4.756079060212D0;           117P     71
110,3.112139548254D1,-4.504263150915D1,6D0,3.112139548254D1,         119P     72
-4.504263150915D1,0D0;                                               119P     73
124,9.512158120424D-1,-3.085263018295D-1,0D0,2.636531642233D1,       121P     74
-3.085263018295D-1,-9.512158120424D-1,0D0,-4.35D1,0D0,0D0,-1D0,      121P     75
5.595524044111D-14;                                                  121P     76
100,0D0,0D0,0D0,5D0,0D0,1.542631509147D0,4.756079060212D0;           123P     77
110,-3.112139548254D1,-4.504263150915D1,6D0,-3.112139548254D1,       125P     78
-4.504263150915D1,0D0;                                               125P     79
124,-9.512158120424D-1,3.085263018295D-1,0D0,-2.636531642233D1,      127P     80
-3.085263018295D-1,-9.512158120424D-1,0D0,-4.35D1,0D0,0D0,1D0,       127P     81
6D0;                                                                 127P     82
100,0D0,0D0,0D0,5D0,0D0,1.542631509147D0,4.756079060212D0;           129P     83
110,-2.636531642233D1,-4.85D1,6D0,-2.636531642233D1,-4.85D1,0D0;     131P     84
124,0D0,-1D0,0D0,-2.636531642233D1,-1D0,0D0,0D0,-4.35D1,0D0,0D0,     133P     85
-1D0,5.595524044111D-14;                                             133P     86
100,0D0,0D0,0D0,5D0,0D0,1.542631509147D0,4.756079060212D0;           135P     87
110,-4.137788782384D1,-1.342089412958D1,0D0,-4.137788782384D1,       137P     88
-1.342089412958D1,6D0;                                               137P     89
110,-4.137788782384D1,1.342089412958D1,0D0,-4.137788782384D1,        139P     90
1.342089412958D1,6D0;                                                139P     91
110,-2.636531642233D1,4.85D1,6D0,-2.636531642233D1,4.85D1,0D0;       141P     92
124,0D0,-1D0,0D0,-2.636531642233D1,1D0,0D0,0D0,4.35D1,0D0,0D0,       143P     93
1D0,6D0;                                                             143P     94
100,0D0,0D0,0D0,5D0,0D0,1.542631509147D0,4.756079060212D0;           145P     95
110,-3.112139548254D1,4.504263150915D1,6D0,-3.112139548254D1,        147P     96
4.504263150915D1,0D0;                                                147P     97
124,-9.512158120424D-1,3.085263018295D-1,0D0,-2.636531642233D1,      149P     98
3.085263018295D-1,9.512158120424D-1,0D0,4.35D1,0D0,0D0,-1D0,         149P     99
5.595524044111D-14;                                                  149P    100
100,0D0,0D0,0D0,5D0,0D0,1.542631509147D0,4.756079060212D0;           151P    101
110,-3.112139548254D1,4.504263150915D1,6D0,-4.137788782384D1,        153P    102
1.342089412958D1,6D0;                                                153P    103
110,2.636531642233D1,4.85D1,6D0,-2.636531642233D1,4.85D1,6D0;        155P    104
110,4.137788782384D1,1.342089412958D1,6D0,3.112139548254D1,          157P    105
4.504263150915D1,6D0;                                                157P    106
124,9.512158120424D-1,3.085263018295D-1,0D0,0D0,                     159P    107
-3.085263018295D-1,9.512158120424D-1,0D0,0D0,0D0,0D0,1D0,6D0;        159P    108
100,0D0,0D0,0D0,4.35D1,0D0,3.521860233391D1,2.553233341561D1;        161P    109
110,3.112139548254D1,-4.504263150915D1,6D0,4.137788782384D1,         163P    110
-1.342089412958D1,6D0;                                               163P    111
110,-2.636531642233D1,-4.85D1,6D0,2.636531642233D1,-4.85D1,6D0;      165P    112
110,-4.137788782384D1,-1.342089412958D1,6D0,-3.112139548254D1,       167P    113
-4.504263150915D1,6D0;                                               167P    114
124,-9.512158120424D-1,-3.085263018295D-1,0D0,0D0,                   169P    115
3.085263018295D-1,-9.512158120424D-1,0D0,0D0,0D0,0D0,1D0,6D0;        169P    116
100,0D0,0D0,0D0,4.35D1,0D0,3.521860233391D1,2.553233341561D1;        171P    117
502,24,-4.137788782384D1,1.342089412958D1,0D0,-4.137788782384D1,     173P    118
-1.342089412958D1,0D0,4.137788782384D1,-1.342089412958D1,0D0,        173P    119
4.137788782384D1,1.342089412958D1,0D0,-4.137788782384D1,             173P    120
1.342089412958D1,6D0,-4.137788782384D1,-1.342089412958D1,6D0,        173P    121
4.137788782384D1,-1.342089412958D1,6D0,4.137788782384D1,             173P    122
1.342089412958D1,6D0,3.112139548254D1,4.504263150915D1,6D0,          173P    123
3.112139548254D1,4.504263150915D1,0D0,2.636531642233D1,4.85D1,       173P    124
6D0,2.636531642233D1,4.85D1,0D0,-2.636531642233D1,4.85D1,6D0,        173P    125
-2.636531642233D1,4.85D1,0D0,-3.112139548254D1,4.504263150915D1,     173P    126
6D0,-3.112139548254D1,4.504263150915D1,0D0,2.636531642233D1,         173P    127
-4.85D1,6D0,2.636531642233D1,-4.85D1,0D0,3.112139548254D1,           173P    128
-4.504263150915D1,6D0,3.112139548254D1,-4.504263150915D1,0D0,        173P    129
-3.112139548254D1,-4.504263150915D1,6D0,-3.112139548254D1,           173P    130
-4.504263150915D1,0D0,-2.636531642233D1,-4.85D1,6D0,                 173P    131
-2.636531642233D1,-4.85D1,0D0;                                       173P    132
504,36,83,173,1,173,2,93,173,3,173,4,171,173,5,173,6,161,173,7,      175P    133
173,8,139,173,1,173,5,137,173,2,173,6,111,173,3,173,7,109,173,4,     175P    134
173,8,97,173,9,173,10,103,173,11,173,12,107,173,12,173,10,141,       175P    135
173,13,173,14,147,173,15,173,16,151,173,16,173,14,113,173,17,        175P    136
173,18,119,173,19,173,20,123,173,20,173,18,125,173,21,173,22,        175P    137
131,173,23,173,24,135,173,24,173,22,79,173,16,173,1,85,173,2,        175P    138
173,22,87,173,24,173,18,89,173,20,173,3,95,173,4,173,10,77,173,      175P    139
12,173,14,153,173,15,173,5,167,173,6,173,21,165,173,23,173,17,       175P    140
163,173,19,173,7,157,173,8,173,9,155,173,11,173,13,101,173,9,        175P    141
173,11,145,173,13,173,15,117,173,17,173,19,129,173,21,173,23;        175P    142
128,1,1,1,1,0,0,1,0,0,-4.350284863566D1,-4.350284863566D1,           177P    143
4.350284863566D1,4.350284863566D1,-4.85D1,-4.85D1,4.85D1,4.85D1,     177P    144
1D0,1D0,1D0,1D0,-4.350284863566D1,-4.85D1,0D0,4.350284863566D1,      177P    145
-4.85D1,0D0,-4.350284863566D1,4.85D1,0D0,4.350284863566D1,           177P    146
4.85D1,0D0,-4.350284863566D1,4.350284863566D1,-4.85D1,4.85D1;        177P    147
508,12,0,175,11,0,0,0,175,26,1,0,0,175,14,0,0,0,175,21,1,0,0,        179P    148
175,1,1,0,0,175,22,1,0,0,175,20,0,0,0,175,23,1,0,0,175,17,0,0,0,     179P    149
175,24,1,0,0,175,2,1,0,0,175,25,1,0;                                 179P    150
510,177,1,0,179;                                                     181P    151
128,3,3,3,3,0,0,0,0,0,0D0,0D0,0D0,0D0,1D0,1D0,1D0,1D0,1.5648D-2,     183P    152
1.5648D-2,1.5648D-2,1.5648D-2,6.015648D0,6.015648D0,6.015648D0,      183P    153
6.015648D0,1.105665494893D0,9.647781683689D-1,9.647781683689D-1,     183P    154
1.105665494893D0,1.105665494893D0,9.647781683689D-1,                 183P    155
9.647781683689D-1,1.105665494893D0,1.105665494893D0,                 183P    156
9.647781683689D-1,9.647781683689D-1,1.105665494893D0,                183P    157
1.105665494893D0,9.647781683689D-1,9.647781683689D-1,                183P    158
1.105665494893D0,2.636531642233D1,4.85D1,6D0,2.861151355878D1,       183P    159
4.85D1,6D0,3.042838458685D1,4.717924974231D1,6D0,                    183P    160
3.112139548254D1,4.504263150915D1,6D0,2.636531642233D1,4.85D1,       183P    161
4D0,2.861151355878D1,4.85D1,4D0,3.042838458685D1,                    183P    162
4.717924974231D1,4D0,3.112139548254D1,4.504263150915D1,4D0,          183P    163
2.636531642233D1,4.85D1,2D0,2.861151355878D1,4.85D1,2D0,             183P    164
3.042838458685D1,4.717924974231D1,2D0,3.112139548254D1,              183P    165
4.504263150915D1,2D0,2.636531642233D1,4.85D1,5.506706202141D-14,     183P    166
2.861151355878D1,4.85D1,5.506706202141D-14,3.042838458685D1,         183P    167
4.717924974231D1,5.506706202141D-14,3.112139548254D1,                183P    168
4.504263150915D1,5.506706202141D-14,0D0,1D0,1.5648D-2,               183P    169
6.015648D0;                                                          183P    170
508,4,0,175,9,0,0,0,175,33,1,0,0,175,10,1,0,0,175,11,1,0;            185P    171
510,183,1,0,185;                                                     187P    172
128,1,1,1,1,0,0,1,0,0,0D0,0D0,3.324349425150D1,3.324349425150D1,     189P    173
0D0,0D0,6D0,6D0,1D0,1D0,1D0,1D0,4.137788782384D1,                    189P    174
1.342089412958D1,0D0,3.112139548254D1,4.504263150915D1,0D0,          189P    175
4.137788782384D1,1.342089412958D1,6D0,3.112139548254D1,              189P    176
4.504263150915D1,6D0,0D0,3.324349425150D1,0D0,6D0;                   189P    177
508,4,0,175,9,1,0,0,175,25,0,0,0,175,8,1,0,0,175,31,1,0;             191P    178
510,189,1,0,191;                                                     193P    179
128,3,3,3,3,0,0,0,0,0,0D0,0D0,0D0,0D0,1D0,1D0,1D0,1D0,0D0,0D0,       195P    180
0D0,0D0,6D0,6D0,6D0,6D0,1.025001943740D0,9.916660187533D-1,          195P    181
9.916660187533D-1,1.025001943740D0,1.025001943740D0,                 195P    182
9.916660187533D-1,9.916660187533D-1,1.025001943740D0,                195P    183
1.025001943740D0,9.916660187533D-1,9.916660187533D-1,                195P    184
1.025001943740D0,1.025001943740D0,9.916660187533D-1,                 195P    185
9.916660187533D-1,1.025001943740D0,4.137788782384D1,                 195P    186
-1.342089412958D1,0D0,4.423114975683D1,-4.624017330232D0,0D0,        195P    187
4.423114975683D1,4.624017330232D0,0D0,4.137788782384D1,              195P    188
1.342089412958D1,0D0,4.137788782384D1,-1.342089412958D1,2D0,         195P    189
4.423114975683D1,-4.624017330232D0,2D0,4.423114975683D1,             195P    190
4.624017330232D0,2D0,4.137788782384D1,1.342089412958D1,2D0,          195P    191
4.137788782384D1,-1.342089412958D1,4D0,4.423114975683D1,             195P    192
-4.624017330232D0,4D0,4.423114975683D1,4.624017330232D0,4D0,         195P    193
4.137788782384D1,1.342089412958D1,4D0,4.137788782384D1,              195P    194
-1.342089412958D1,6D0,4.423114975683D1,-4.624017330232D0,6D0,        195P    195
4.423114975683D1,4.624017330232D0,6D0,4.137788782384D1,              195P    196
1.342089412958D1,6D0,0D0,1D0,0D0,6D0;                                195P    197
508,4,0,175,2,0,0,0,175,7,1,0,0,175,4,1,0,0,175,8,0,0;               197P    198
510,195,1,0,197;                                                     199P    199
128,1,1,1,1,0,0,1,0,0,3.634683577672D0,3.634683577672D0,             201P    200
3.687817782917D1,3.687817782917D1,0D0,0D0,6D0,6D0,1D0,1D0,1D0,       201P    201
1D0,3.112139548254D1,-4.504263150915D1,0D0,4.137788782384D1,         201P    202
-1.342089412958D1,0D0,3.112139548254D1,-4.504263150915D1,6D0,        201P    203
4.137788782384D1,-1.342089412958D1,6D0,3.634683577672D0,             201P    204
3.687817782917D1,0D0,6D0;                                            201P    205
508,4,0,175,16,0,0,0,175,30,1,0,0,175,7,0,0,0,175,24,0,0;            203P    206
510,201,1,0,203;                                                     205P    207
128,3,3,3,3,0,0,0,0,0,0D0,0D0,0D0,0D0,1D0,1D0,1D0,1D0,1.5648D-2,     207P    208
1.5648D-2,1.5648D-2,1.5648D-2,6.015648D0,6.015648D0,6.015648D0,      207P    209
6.015648D0,1.105665494893D0,9.647781683689D-1,9.647781683689D-1,     207P    210
1.105665494893D0,1.105665494893D0,9.647781683689D-1,                 207P    211
9.647781683689D-1,1.105665494893D0,1.105665494893D0,                 207P    212
9.647781683689D-1,9.647781683689D-1,1.105665494893D0,                207P    213
1.105665494893D0,9.647781683689D-1,9.647781683689D-1,                207P    214
1.105665494893D0,3.112139548254D1,-4.504263150915D1,6D0,             207P    215
3.042838458685D1,-4.717924974231D1,6D0,2.861151355878D1,-4.85D1,     207P    216
6D0,2.636531642233D1,-4.85D1,6D0,3.112139548254D1,                   207P    217
-4.504263150915D1,4D0,3.042838458685D1,-4.717924974231D1,4D0,        207P    218
2.861151355878D1,-4.85D1,4D0,2.636531642233D1,-4.85D1,4D0,           207P    219
3.112139548254D1,-4.504263150915D1,2D0,3.042838458685D1,             207P    220
-4.717924974231D1,2D0,2.861151355878D1,-4.85D1,2D0,                  207P    221
2.636531642233D1,-4.85D1,2D0,3.112139548254D1,-4.504263150915D1,     207P    222
5.595524044111D-14,3.042838458685D1,-4.717924974231D1,               207P    223
5.595524044111D-14,2.861151355878D1,-4.85D1,5.595524044111D-14,      207P    224
2.636531642233D1,-4.85D1,5.595524044111D-14,0D0,1D0,1.5648D-2,       207P    225
6.015648D0;                                                          207P    226
508,4,0,175,15,0,0,0,175,35,1,0,0,175,16,1,0,0,175,17,1,0;           209P    227
510,207,1,0,209;                                                     211P    228
128,1,1,1,1,0,0,1,0,0,3.634683577672D0,3.634683577672D0,             213P    229
5.636531642233D1,5.636531642233D1,0D0,0D0,6D0,6D0,1D0,1D0,1D0,       213P    230
1D0,-2.636531642233D1,-4.85D1,0D0,2.636531642233D1,-4.85D1,0D0,      213P    231
-2.636531642233D1,-4.85D1,6D0,2.636531642233D1,-4.85D1,6D0,          213P    232
3.634683577672D0,5.636531642233D1,0D0,6D0;                           213P    233
508,4,0,175,15,1,0,0,175,23,0,0,0,175,19,0,0,0,175,29,1,0;           215P    234
510,213,1,0,215;                                                     217P    235
128,3,3,3,3,0,0,0,0,0,0D0,0D0,0D0,0D0,1D0,1D0,1D0,1D0,1.5648D-2,     219P    236
1.5648D-2,1.5648D-2,1.5648D-2,6.015648D0,6.015648D0,6.015648D0,      219P    237
6.015648D0,1.105665494893D0,9.647781683689D-1,9.647781683689D-1,     219P    238
1.105665494893D0,1.105665494893D0,9.647781683689D-1,                 219P    239
9.647781683689D-1,1.105665494893D0,1.105665494893D0,                 219P    240
9.647781683689D-1,9.647781683689D-1,1.105665494893D0,                219P    241
1.105665494893D0,9.647781683689D-1,9.647781683689D-1,                219P    242
1.105665494893D0,-2.636531642233D1,-4.85D1,6D0,                      219P    243
-2.861151355878D1,-4.85D1,6D0,-3.042838458685D1,                     219P    244
-4.717924974231D1,6D0,-3.112139548254D1,-4.504263150915D1,6D0,       219P    245
-2.636531642233D1,-4.85D1,4D0,-2.861151355878D1,-4.85D1,4D0,         219P    246
-3.042838458685D1,-4.717924974231D1,4D0,-3.112139548254D1,           219P    247
-4.504263150915D1,4D0,-2.636531642233D1,-4.85D1,2D0,                 219P    248
-2.861151355878D1,-4.85D1,2D0,-3.042838458685D1,                     219P    249
-4.717924974231D1,2D0,-3.112139548254D1,-4.504263150915D1,2D0,       219P    250
-2.636531642233D1,-4.85D1,5.506706202141D-14,-2.861151355878D1,      219P    251
-4.85D1,5.506706202141D-14,-3.042838458685D1,-4.717924974231D1,      219P    252
5.506706202141D-14,-3.112139548254D1,-4.504263150915D1,              219P    253
5.506706202141D-14,0D0,1D0,1.5648D-2,6.015648D0;                     219P    254
508,4,0,175,18,0,0,0,175,36,1,0,0,175,19,1,0,0,175,20,1,0;           221P    255
510,219,1,0,221;                                                     223P    256
128,1,1,1,1,0,0,1,0,0,0D0,0D0,3.324349425150D1,3.324349425150D1,     225P    257
0D0,0D0,6D0,6D0,1D0,1D0,1D0,1D0,-4.137788782384D1,                   225P    258
-1.342089412958D1,0D0,-3.112139548254D1,-4.504263150915D1,0D0,       225P    259
-4.137788782384D1,-1.342089412958D1,6D0,-3.112139548254D1,           225P    260
-4.504263150915D1,6D0,0D0,3.324349425150D1,0D0,6D0;                  225P    261
508,4,0,175,18,1,0,0,175,22,0,0,0,175,6,1,0,0,175,28,1,0;            227P    262
510,225,1,0,227;                                                     229P    263
128,3,3,3,3,0,0,0,0,0,0D0,0D0,0D0,0D0,1D0,1D0,1D0,1D0,0D0,0D0,       231P    264
0D0,0D0,6D0,6D0,6D0,6D0,1.025001943740D0,9.916660187533D-1,          231P    265
9.916660187533D-1,1.025001943740D0,1.025001943740D0,                 231P    266
9.916660187533D-1,9.916660187533D-1,1.025001943740D0,                231P    267
1.025001943740D0,9.916660187533D-1,9.916660187533D-1,                231P    268
1.025001943740D0,1.025001943740D0,9.916660187533D-1,                 231P    269
9.916660187533D-1,1.025001943740D0,-4.137788782384D1,                231P    270
1.342089412958D1,0D0,-4.423114975683D1,4.624017330232D0,0D0,         231P    271
-4.423114975683D1,-4.624017330232D0,0D0,-4.137788782384D1,           231P    272
-1.342089412958D1,0D0,-4.137788782384D1,1.342089412958D1,2D0,        231P    273
-4.423114975683D1,4.624017330232D0,2D0,-4.423114975683D1,            231P    274
-4.624017330232D0,2D0,-4.137788782384D1,-1.342089412958D1,2D0,       231P    275
-4.137788782384D1,1.342089412958D1,4D0,-4.423114975683D1,            231P    276
4.624017330232D0,4D0,-4.423114975683D1,-4.624017330232D0,4D0,        231P    277
-4.137788782384D1,-1.342089412958D1,4D0,-4.137788782384D1,           231P    278
1.342089412958D1,6D0,-4.423114975683D1,4.624017330232D0,6D0,         231P    279
-4.423114975683D1,-4.624017330232D0,6D0,-4.137788782384D1,           231P    280
-1.342089412958D1,6D0,0D0,1D0,0D0,6D0;                               231P    281
508,4,0,175,1,0,0,0,175,5,1,0,0,175,3,1,0,0,175,6,0,0;               233P    282
510,231,1,0,233;                                                     235P    283
128,1,1,1,1,0,0,1,0,0,3.634683577672D0,3.634683577672D0,             237P    284
3.687817782917D1,3.687817782917D1,0D0,0D0,6D0,6D0,1D0,1D0,1D0,       237P    285
1D0,-3.112139548254D1,4.504263150915D1,0D0,-4.137788782384D1,        237P    286
1.342089412958D1,0D0,-3.112139548254D1,4.504263150915D1,6D0,         237P    287
-4.137788782384D1,1.342089412958D1,6D0,3.634683577672D0,             237P    288
3.687817782917D1,0D0,6D0;                                            237P    289
508,4,0,175,13,0,0,0,175,27,1,0,0,175,5,0,0,0,175,21,0,0;            239P    290
510,237,1,0,239;                                                     241P    291
128,3,3,3,3,0,0,0,0,0,0D0,0D0,0D0,0D0,1D0,1D0,1D0,1D0,1.5648D-2,     243P    292
1.5648D-2,1.5648D-2,1.5648D-2,6.015648D0,6.015648D0,6.015648D0,      243P    293
6.015648D0,1.105665494893D0,9.647781683689D-1,9.647781683689D-1,     243P    294
1.105665494893D0,1.105665494893D0,9.647781683689D-1,                 243P    295
9.647781683689D-1,1.105665494893D0,1.105665494893D0,                 243P    296
9.647781683689D-1,9.647781683689D-1,1.105665494893D0,                243P    297
1.105665494893D0,9.647781683689D-1,9.647781683689D-1,                243P    298
1.105665494893D0,-3.112139548254D1,4.504263150915D1,6D0,             243P    299
-3.042838458685D1,4.717924974231D1,6D0,-2.861151355878D1,4.85D1,     243P    300
6D0,-2.636531642233D1,4.85D1,6D0,-3.112139548254D1,                  243P    301
4.504263150915D1,4D0,-3.042838458685D1,4.717924974231D1,4D0,         243P    302
-2.861151355878D1,4.85D1,4D0,-2.636531642233D1,4.85D1,4D0,           243P    303
-3.112139548254D1,4.504263150915D1,2D0,-3.042838458685D1,            243P    304
4.717924974231D1,2D0,-2.861151355878D1,4.85D1,2D0,                   243P    305
-2.636531642233D1,4.85D1,2D0,-3.112139548254D1,4.504263150915D1,     243P    306
5.595524044111D-14,-3.042838458685D1,4.717924974231D1,               243P    307
5.595524044111D-14,-2.861151355878D1,4.85D1,5.595524044111D-14,      243P    308
-2.636531642233D1,4.85D1,5.595524044111D-14,0D0,1D0,1.5648D-2,       243P    309
6.015648D0;                                                          243P    310
508,4,0,175,12,0,0,0,175,34,1,0,0,175,13,1,0,0,175,14,1,0;           245P    311
510,243,1,0,245;                                                     247P    312
128,1,1,1,1,0,0,1,0,0,3.634683577672D0,3.634683577672D0,             249P    313
5.636531642233D1,5.636531642233D1,0D0,0D0,6D0,6D0,1D0,1D0,1D0,       249P    314
1D0,2.636531642233D1,4.85D1,0D0,-2.636531642233D1,4.85D1,0D0,        249P    315
2.636531642233D1,4.85D1,6D0,-2.636531642233D1,4.85D1,6D0,            249P    316
3.634683577672D0,5.636531642233D1,0D0,6D0;                           249P    317
508,4,0,175,10,0,0,0,175,32,1,0,0,175,12,1,0,0,175,26,0,0;           251P    318
510,249,1,0,251;                                                     253P    319
128,1,1,1,1,0,0,1,0,0,-4.350284863566D1,-4.350284863566D1,           255P    320
4.350284863566D1,4.350284863566D1,-4.85D1,-4.85D1,4.85D1,4.85D1,     255P    321
1D0,1D0,1D0,1D0,-4.350284863566D1,-4.85D1,6D0,4.350284863566D1,      255P    322
-4.85D1,6D0,-4.350284863566D1,4.85D1,6D0,4.350284863566D1,           255P    323
4.85D1,6D0,-4.350284863566D1,4.350284863566D1,-4.85D1,4.85D1;        255P    324
508,12,0,175,27,0,0,0,175,34,0,0,0,175,32,0,0,0,175,33,0,0,0,        257P    325
175,31,0,0,0,175,4,0,0,0,175,30,0,0,0,175,35,0,0,0,175,29,0,0,0,     257P    326
175,36,0,0,0,175,28,0,0,0,175,3,0,0;                                 257P    327
510,255,1,0,257;                                                     259P    328
514,14,181,0,187,1,193,1,199,1,205,1,211,1,217,1,223,1,229,1,        261P    329
235,1,241,1,247,1,253,1,259,1;                                       261P    330
186,261,1,0;                                                         263P    331
S      1G      4D    264P    331                                        T      1
