 PTC IGES file: rv-12sl_j4_ex_flange.igs                                S      1
1H,,1H;,20HRV-12SL_J4_EX_FLANGE,24Hrv-12sl_j4_ex_flange.igs,            G      1
49HPro/ENGINEER by Parametric Technology Corporation,7H2002080,32,38,7, G      2
38,15,20HRV-12SL_J4_EX_FLANGE,1.,2,2HMM,32768,0.5,13H030630.182401,     G      3
  0.001,     10.,9Htoyoshima,7HUnknown,10,0,13H030630.182401;           G      4
     314       1       1       1       0       0       0       001000200D      1
     314       0       7       1       0                   COLOR       1D      2
     314       2       1       1       0       0       0       001000200D      3
     314       0       3       1       0                   COLOR       2D      4
     314       3       1       1       0       0       0       001000200D      5
     314       0       7       1       0                   COLOR       3D      6
     314       4       1       1       0       0       0       001000200D      7
     314       0       7       1       0                   COLOR       4D      8
     314       5       1       1       0       0       0       001000200D      9
     314       0       7       1       0                   COLOR       5D     10
     314       6       1       1       0       0       0       001000200D     11
     314       0       7       1       0                   COLOR       6D     12
     314       7       1       1       0       0       0       001000200D     13
     314       0       7       1       0                   COLOR       7D     14
     314       8       1       1       0       0       0       001000200D     15
     314       0       7       1       0                   COLOR       8D     16
     314       9       1       1       0       0       0       001000200D     17
     314       0       1       1       0                   COLOR       9D     18
     314      10       1       1       0       0       0       001000200D     19
     314       0       1       1       0                   COLOR      10D     20
     314      11       1       1       0       0       0       001000200D     21
     314       0       3       1       0                   COLOR      11D     22
     314      12       1       1       0       0       0       001000200D     23
     314       0       5       1       0                   COLOR      12D     24
     314      13       1       1       0       0       0       001000200D     25
     314       0       5       1       0                   COLOR      13D     26
     314      14       1       1       0       0       0       001000200D     27
     314       0       8       1       0                   COLOR      14D     28
     314      15       1       1       0       0       0       001000200D     29
     314       0       8       1       0                   COLOR      15D     30
     314      16       1       1       0       0       0       001000200D     31
     314       0       8       1       0                   COLOR      16D     32
     314      17       1       1       0       0       0       001000200D     33
     314       0       8       1       0                   COLOR      17D     34
     314      18       1       1       0       0       0       001000200D     35
     314       0       8       1       0                   COLOR      18D     36
     314      19       1       1       0       0       0       001000200D     37
     314       0       6       1       0                   COLOR      19D     38
     314      20       1       1       0       0       0       001000200D     39
     314       0       8       1       0                   COLOR      20D     40
     314      21       1       1       0       0       0       001000200D     41
     314       0       2       1       0                   COLOR      21D     42
     314      22       1       1       0       0       0       001000200D     43
     314       0       2       1       0                   COLOR      22D     44
     314      23       1       1       0       0       0       001000200D     45
     314       0       5       1       0                   COLOR      23D     46
     314      24       1       1       0       0       0       001000200D     47
     314       0       5       1       0                   COLOR      24D     48
     314      25       1       1       0       0       0       001000200D     49
     314       0       8       1       0                   COLOR      25D     50
     314      26       1       1       0       0       0       001000200D     51
     314       0       5       1       0                   COLOR      26D     52
     314      27       1       1       0       0       0       001000200D     53
     314       0       6       1       0                   COLOR      27D     54
     314      28       1       1       0       0       0       001000200D     55
     314       0       8       1       0                   COLOR      28D     56
     314      29       1       1       0       0       0       001000200D     57
     314       0       6       1       0                   COLOR      29D     58
     314      30       1       1       0       0       0       001000200D     59
     314       0       2       1       0                   COLOR      30D     60
     314      31       1       1       0       0       0       001000200D     61
     314       0       8       1       0                   COLOR      31D     62
     314      32       1       1       0       0       0       001000200D     63
     314       0       8       1       0                   COLOR      32D     64
     314      33       1       1       0       0       0       001000200D     65
     314       0       8       1       0                   COLOR      33D     66
     314      34       1       1       0       0       0       001000200D     67
     314       0       8       1       0                   COLOR      34D     68
     314      35       1       1       0       0       0       001000200D     69
     314       0       8       1       0                   COLOR      35D     70
     314      36       1       1       0       0       0       001000200D     71
     314       0       5       1       0                   COLOR      36D     72
     314      37       1       1       0       0       0       001000200D     73
     314       0       8       1       0                   COLOR      37D     74
     126      38       1       1       0       0       0       001010000D     75
     126       0       0       6       0                B_SPLINE       1D     76
     110      44       1       1       0       0       0       001010000D     77
     110       0       0       1       0                    LINE       1D     78
     126      45       1       1       0       0       0       001010000D     79
     126       0       0       6       0                B_SPLINE       2D     80
     126      51       1       1       0       0       0       001010000D     81
     126       0       0       6       0                B_SPLINE       3D     82
     110      57       1       1       0       0       0       001010000D     83
     110       0       0       1       0                    LINE       2D     84
     126      58       1       1       0       0       0       001010000D     85
     126       0       0       6       0                B_SPLINE       4D     86
     110      64       1       1       0       0       0       001010000D     87
     110       0       0       1       0                    LINE       3D     88
     110      65       1       1       0       0       0       001010000D     89
     110       0       0       1       0                    LINE       4D     90
     126      66       1       1       0       0       0       001010000D     91
     126       0       0       6       0                B_SPLINE       5D     92
     110      72       1       1       0       0       0       001010000D     93
     110       0       0       1       0                    LINE       5D     94
     126      73       1       1       0       0       0       001010000D     95
     126       0       0       6       0                B_SPLINE       6D     96
     126      79       1       1       0       0       0       001010000D     97
     126       0       0       6       0                B_SPLINE       7D     98
     110      85       1       1       0       0       0       001010000D     99
     110       0       0       1       0                    LINE       6D    100
     126      86       1       1       0       0       0       001010000D    101
     126       0       0       6       0                B_SPLINE       8D    102
     110      92       1       1       0       0       0       001010000D    103
     110       0       0       1       0                    LINE       7D    104
     110      93       1       1       0       0       0       001010000D    105
     110       0       0       1       0                    LINE       8D    106
     110      94       1       1       0       0       0       001010000D    107
     110       0       0       1       0                    LINE       9D    108
     110      95       1       1       0       0       0       001010000D    109
     110       0       0       1       0                    LINE      10D    110
     110      96       1       1       0       0       0       001010000D    111
     110       0       0       1       0                    LINE      11D    112
     110      97       1       1       0       0       0       001010000D    113
     110       0       0       1       0                    LINE      12D    114
     110      98       1       1       0       0       0       001010000D    115
     110       0       0       1       0                    LINE      13D    116
     110      99       1       1       0       0       0       001010000D    117
     110       0       0       1       0                    LINE      14D    118
     110     100       1       1       0       0       0       001010000D    119
     110       0       0       1       0                    LINE      15D    120
     110     101       1       1       0       0       0       001010000D    121
     110       0       0       1       0                    LINE      16D    122
     110     102       1       1       0       0       0       001010000D    123
     110       0       0       1       0                    LINE      17D    124
     110     103       1       1       0       0       0       001010000D    125
     110       0       0       1       0                    LINE      18D    126
     110     104       1       1       0       0       0       001010000D    127
     110       0       0       1       0                    LINE      19D    128
     110     105       1       1       0       0       0       001010000D    129
     110       0       0       1       0                    LINE      20D    130
     110     106       1       1       0       0       0       001010000D    131
     110       0       0       1       0                    LINE      21D    132
     110     107       1       1       0       0       0       001010000D    133
     110       0       0       1       0                    LINE      22D    134
     110     108       1       1       0       0       0       001010000D    135
     110       0       0       1       0                    LINE      23D    136
     110     109       1       1       0       0       0       001010000D    137
     110       0       0       1       0                    LINE      24D    138
     110     110       1       1       0       0       0       001010000D    139
     110       0       0       1       0                    LINE      25D    140
     110     111       1       1       0       0       0       001010000D    141
     110       0       0       1       0                    LINE      26D    142
     110     112       1       1       0       0       0       001010000D    143
     110       0       0       1       0                    LINE      27D    144
     110     113       1       1       0       0       0       001010000D    145
     110       0       0       1       0                    LINE      28D    146
     110     114       1       1       0       0       0       001010000D    147
     110       0       0       1       0                    LINE      29D    148
     110     115       1       1       0       0       0       001010000D    149
     110       0       0       1       0                    LINE      30D    150
     110     116       1       1       0       0       0       001010000D    151
     110       0       0       1       0                    LINE      31D    152
     110     117       1       1       0       0       0       001010000D    153
     110       0       0       1       0                    LINE      32D    154
     110     118       1       1       0       0       0       001010000D    155
     110       0       0       1       0                    LINE      33D    156
     124     119       1       1       0       0       0       001000000D    157
     124       0       0       2       0                   XFORM       1D    158
     100     121       1       1       0       0     157       001010000D    159
     100       0       0       1       0                     ARC       1D    160
     110     122       1       1       0       0       0       001010000D    161
     110       0       0       1       0                    LINE      34D    162
     110     123       1       1       0       0       0       001010000D    163
     110       0       0       1       0                    LINE      35D    164
     124     124       1       1       0       0       0       001000000D    165
     124       0       0       2       0                   XFORM       2D    166
     100     126       1       1       0       0     165       001010000D    167
     100       0       0       1       0                     ARC       2D    168
     110     127       1       1       0       0       0       001010000D    169
     110       0       0       1       0                    LINE      36D    170
     110     128       1       1       0       0       0       001010000D    171
     110       0       0       1       0                    LINE      37D    172
     110     129       1       1       0       0       0       001010000D    173
     110       0       0       1       0                    LINE      38D    174
     502     130       1       1       0       0       0       001010000D    175
     502       0       0      10       1                  VERTEX       1D    176
     504     140       1       1       0       0       0       000010001D    177
     504       0       0      14       1                    EDGE       1D    178
     128     154       1       1       0       0       0       001010000D    179
     128       0       0       3       0                  SPLSRF       1D    180
     508     157       1       1       0       0       0       001010000D    181
     508       0       0       3       1                EDGELOOP       1D    182
     510     160       1       1       0       0       0       000010000D    183
     510       0       0       1       1                    FACE       1D    184
     128     161       1       1       0       0       0       001010000D    185
     128       0       0      21       0                  SPLSRF       2D    186
     508     182       1       1       0       0       0       001010000D    187
     508       0       0       1       1                EDGELOOP       2D    188
     510     183       1       1       0       0       0       000010000D    189
     510       0       0       1       1                    FACE       2D    190
     128     184       1       1       0       0       0       001010000D    191
     128       0       0       3       0                  SPLSRF       3D    192
     508     187       1       1       0       0       0       001010000D    193
     508       0       0       1       1                EDGELOOP       3D    194
     510     188       1       1       0       0       0       000010000D    195
     510       0       0       1       1                    FACE       3D    196
     128     189       1       1       0       0       0       001010000D    197
     128       0       0       3       0                  SPLSRF       4D    198
     508     192       1       1       0       0       0       001010000D    199
     508       0       0       3       1                EDGELOOP       4D    200
     510     195       1       1       0       0       0       000010000D    201
     510       0       0       1       1                    FACE       4D    202
     128     196       1       1       0       0       0       001010000D    203
     128       0       0      21       0                  SPLSRF       5D    204
     508     217       1       1       0       0       0       001010000D    205
     508       0       0       1       1                EDGELOOP       5D    206
     510     218       1       1       0       0       0       000010000D    207
     510       0       0       1       1                    FACE       5D    208
     128     219       1       1       0       0       0       001010000D    209
     128       0       0       3       0                  SPLSRF       6D    210
     508     222       1       1       0       0       0       001010000D    211
     508       0       0       1       1                EDGELOOP       6D    212
     510     223       1       1       0       0       0       000010000D    213
     510       0       0       1       1                    FACE       6D    214
     128     224       1       1       0       0       0       001010000D    215
     128       0       0       3       0                  SPLSRF       7D    216
     508     227       1       1       0       0       0       001010000D    217
     508       0       0       1       1                EDGELOOP       7D    218
     510     228       1       1       0       0       0       000010000D    219
     510       0       0       1       1                    FACE       7D    220
     128     229       1       1       0       0       0       001010000D    221
     128       0       0       3       0                  SPLSRF       8D    222
     508     232       1       1       0       0       0       001010000D    223
     508       0       0       1       1                EDGELOOP       8D    224
     508     233       1       1       0       0       0       001010000D    225
     508       0       0       1       1                EDGELOOP       9D    226
     510     234       1       1       0       0       0       000010000D    227
     510       0       0       1       1                    FACE       8D    228
     128     235       1       1       0       0       0       001010000D    229
     128       0       0      21       0                  SPLSRF       9D    230
     508     256       1       1       0       0       0       001010000D    231
     508       0       0       1       1                EDGELOOP      10D    232
     510     257       1       1       0       0       0       000010000D    233
     510       0       0       1       1                    FACE       9D    234
     128     258       1       1       0       0       0       001010000D    235
     128       0       0       3       0                  SPLSRF      10D    236
     508     261       1       1       0       0       0       001010000D    237
     508       0       0       1       1                EDGELOOP      11D    238
     510     262       1       1       0       0       0       000010000D    239
     510       0       0       1       1                    FACE      10D    240
     128     263       1       1       0       0       0       001010000D    241
     128       0       0       3       0                  SPLSRF      11D    242
     508     266       1       1       0       0       0       001010000D    243
     508       0       0       1       1                EDGELOOP      12D    244
     510     267       1       1       0       0       0       000010000D    245
     510       0       0       1       1                    FACE      11D    246
     128     268       1       1       0       0       0       001010000D    247
     128       0       0       3       0                  SPLSRF      12D    248
     508     271       1       1       0       0       0       001010000D    249
     508       0       0       1       1                EDGELOOP      13D    250
     510     272       1       1       0       0       0       000010000D    251
     510       0       0       1       1                    FACE      12D    252
     128     273       1       1       0       0       0       001010000D    253
     128       0       0      21       0                  SPLSRF      13D    254
     508     294       1       1       0       0       0       001010000D    255
     508       0       0       1       1                EDGELOOP      14D    256
     510     295       1       1       0       0       0       000010000D    257
     510       0       0       1       1                    FACE      13D    258
     128     296       1       1       0       0       0       001010000D    259
     128       0       0       3       0                  SPLSRF      14D    260
     508     299       1       1       0       0       0       001010000D    261
     508       0       0       1       1                EDGELOOP      15D    262
     510     300       1       1       0       0       0       000010000D    263
     510       0       0       1       1                    FACE      14D    264
     128     301       1       1       0       0       0       001010000D    265
     128       0       0       5       0                  SPLSRF      15D    266
     508     306       1       1       0       0       0       001010000D    267
     508       0       0       1       1                EDGELOOP      16D    268
     510     307       1       1       0       0       0       000010000D    269
     510       0       0       1       1                    FACE      15D    270
     128     308       1       1       0       0       0       001010000D    271
     128       0       0       4       0                  SPLSRF      16D    272
     508     312       1       1       0       0       0       001010000D    273
     508       0       0       1       1                EDGELOOP      17D    274
     510     313       1       1       0       0       0       000010000D    275
     510       0       0       1       1                    FACE      16D    276
     128     314       1       1       0       0       0       001010000D    277
     128       0       0       5       0                  SPLSRF      17D    278
     508     319       1       1       0       0       0       001010000D    279
     508       0       0       1       1                EDGELOOP      18D    280
     510     320       1       1       0       0       0       000010000D    281
     510       0       0       1       1                    FACE      17D    282
     128     321       1       1       0       0       0       001010000D    283
     128       0       0       4       0                  SPLSRF      18D    284
     508     325       1       1       0       0       0       001010000D    285
     508       0       0       1       1                EDGELOOP      19D    286
     510     326       1       1       0       0       0       000010000D    287
     510       0       0       1       1                    FACE      18D    288
     128     327       1       1       0       0       0       001010000D    289
     128       0       0      19       0                  SPLSRF      19D    290
     508     346       1       1       0       0       0       001010000D    291
     508       0       0       1       1                EDGELOOP      20D    292
     510     347       1       1       0       0       0       000010000D    293
     510       0       0       1       1                    FACE      19D    294
     514     348       1       1       0       0       0       000010000D    295
     514       0       0       2       1                   SHELL       1D    296
     186     350       1       1       0       0       0       000000000D    297
     186       0       0       1       0                    MSBR       1D    298
314,0D0,5.450980392157D1,8.235294117647D1;                             1P      1
314,0D0,8.235294117647D1,2.745098039216D1;                             3P      2
314,0D0,8.235294117647D1,5.450980392157D1;                             5P      3
314,0D0,8.235294117647D1,8.235294117647D1;                             7P      4
314,7.843137254902D0,6.784313725490D1,7.333333333333D1;                9P      5
314,8.627450980392D0,7.568627450980D1,8.431372549020D1;               11P      6
314,1.490196078431D1,8.470588235294D1,6.666666666667D1;               13P      7
314,2.549019607843D1,7.647058823529D1,1D2;                            15P      8
314,2.784313725490D1,2.784313725490D1,2.784313725490D1;               17P      9
314,4.470588235294D1,4.470588235294D1,4.470588235294D1;               19P     10
314,4.745098039216D1,5.529411764706D1,2.313725490196D1;               21P     11
314,5.450980392157D1,8.235294117647D1,0D0;                            23P     12
314,5.803921568627D1,7.176470588235D1,4.862745098039D1;               25P     13
314,6.196078431373D1,1D2,7.176470588235D1;                            27P     14
314,6.627450980392D1,7.764705882353D1,7.294117647059D1;               29P     15
314,6.627450980392D1,8.392156862745D1,1D2;                            31P     16
314,7.686274509804D1,5.411764705882D1,1D2;                            33P     17
314,7.725490196078D1,6.980392156863D1,1D2;                            35P     18
314,8.235294117647D1,0D0,8.235294117647D1;                            37P     19
314,8.274509803922D1,1D2,9.764705882353D1;                            39P     20
314,8.392156862745D1,0D0,0D0;                                         41P     21
314,8.392156862745D1,2.745098039216D1,0D0;                            43P     22
314,8.392156862745D1,5.450980392157D1,0D0;                            45P     23
314,8.392156862745D1,8.235294117647D1,0D0;                            47P     24
314,8.745098039216D1,9.176470588235D1,9.372549019608D1;               49P     25
314,8.862745098039D1,1D2,3.882352941176D1;                            51P     26
314,9.215686274510D1,4.431372549020D1,6D1;                            53P     27
314,9.647058823529D1,1D2,5.843137254902D1;                            55P     28
314,1D2,0D0,5.019607843137D1;                                         57P     29
314,1D2,3.411764705882D1,3.921568627451D1;                            59P     30
314,1D2,6.980392156863D1,5.098039215686D1;                            61P     31
314,1D2,7.725490196078D1,7.960784313725D1;                            63P     32
314,1D2,8D1,6.901960784314D1;                                         65P     33
314,1D2,8.235294117647D1,5.372549019608D1;                            67P     34
314,1D2,9.019607843137D1,6.431372549020D1;                            69P     35
314,1D2,9.294117647059D1,4.274509803922D1;                            71P     36
314,1D2,9.803921568627D1,7.725490196078D1;                            73P     37
126,5,3,0,0,1,0,0D0,0D0,0D0,0D0,3.333333333333D-1,                    75P     38
6.666666666667D-1,1D0,1D0,1D0,1D0,1D0,1D0,1D0,1D0,1D0,1D0,            75P     39
-6.85D1,4D1,0D0,-6.738025152D1,4.237602993226D1,0D0,                  75P     40
-6.495342768797D1,4.703980627134D1,0D0,-6.077379979256D1,             75P     41
5.372721090399D1,0D0,-5.764508094226D1,5.795230285665D1,0D0,          75P     42
-5.6D1,6D1,0D0,0D0,1D0,0D0,0D0,1D0;                                   75P     43
110,-6.85D1,4D1,0D0,-7D1,4D1,0D0;                                     77P     44
126,5,3,0,0,1,0,0D0,0D0,0D0,0D0,3.333333333333D-1,                    79P     45
6.666666666667D-1,1D0,1D0,1D0,1D0,1D0,1D0,1D0,1D0,1D0,1D0,            79P     46
-5.6D1,-6D1,0D0,-5.764508094226D1,-5.795230285665D1,0D0,              79P     47
-6.077379979256D1,-5.372721090399D1,0D0,-6.495342768797D1,            79P     48
-4.703980627134D1,0D0,-6.738025152D1,-4.237602993226D1,0D0,           79P     49
-6.85D1,-4D1,0D0,0D0,1D0,0D0,0D0,1D0;                                 79P     50
126,5,3,0,0,1,0,0D0,0D0,0D0,0D0,3.333333333333D-1,                    81P     51
6.666666666667D-1,1D0,1D0,1D0,1D0,1D0,1D0,1D0,1D0,1D0,1D0,            81P     52
6.85D1,-4D1,0D0,6.738025152D1,-4.237602993226D1,0D0,                  81P     53
6.495342768797D1,-4.703980627134D1,0D0,6.077379979256D1,              81P     54
-5.372721090399D1,0D0,5.764508094226D1,-5.795230285665D1,0D0,         81P     55
5.6D1,-6D1,0D0,0D0,1D0,0D0,0D0,1D0;                                   81P     56
110,6.85D1,-4D1,0D0,7D1,-4D1,0D0;                                     83P     57
126,5,3,0,0,1,0,0D0,0D0,0D0,0D0,3.333333333333D-1,                    85P     58
6.666666666667D-1,1D0,1D0,1D0,1D0,1D0,1D0,1D0,1D0,1D0,1D0,5.6D1,      85P     59
6D1,0D0,5.764508094226D1,5.795230285665D1,0D0,6.077379979256D1,       85P     60
5.372721090399D1,0D0,6.495342768797D1,4.703980627134D1,0D0,           85P     61
6.738025152D1,4.237602993226D1,0D0,6.85D1,4D1,0D0,0D0,1D0,0D0,        85P     62
0D0,1D0;                                                              85P     63
110,-6.85D1,4D1,0D0,-6.85D1,4D1,1.4D2;                                87P     64
110,-6.85D1,4D1,1.4D2,-7D1,4D1,1.4D2;                                 89P     65
126,5,3,0,0,1,0,0D0,0D0,0D0,0D0,3.333333333333D-1,                    91P     66
6.666666666667D-1,1D0,1D0,1D0,1D0,1D0,1D0,1D0,1D0,1D0,1D0,            91P     67
-6.85D1,-4D1,1.4D2,-6.738025152D1,-4.237602993226D1,1.4D2,            91P     68
-6.495342768797D1,-4.703980627134D1,1.4D2,-6.077379979256D1,          91P     69
-5.372721090399D1,1.4D2,-5.764508094226D1,-5.795230285665D1,          91P     70
1.4D2,-5.6D1,-6D1,1.4D2,0D0,1D0,0D0,0D0,1D0;                          91P     71
110,-6.85D1,-4D1,1.4D2,-7D1,-4D1,1.4D2;                               93P     72
126,5,3,0,0,1,0,0D0,0D0,0D0,0D0,3.333333333333D-1,                    95P     73
6.666666666667D-1,1D0,1D0,1D0,1D0,1D0,1D0,1D0,1D0,1D0,1D0,            95P     74
-5.6D1,6D1,1.4D2,-5.764508094226D1,5.795230285665D1,1.4D2,            95P     75
-6.077379979256D1,5.372721090399D1,1.4D2,-6.495342768797D1,           95P     76
4.703980627134D1,1.4D2,-6.738025152D1,4.237602993226D1,1.4D2,         95P     77
-6.85D1,4D1,1.4D2,0D0,1D0,0D0,0D0,1D0;                                95P     78
126,5,3,0,0,1,0,0D0,0D0,0D0,0D0,3.333333333333D-1,                    97P     79
6.666666666667D-1,1D0,1D0,1D0,1D0,1D0,1D0,1D0,1D0,1D0,1D0,            97P     80
6.85D1,4D1,1.4D2,6.738025152D1,4.237602993226D1,1.4D2,                97P     81
6.495342768797D1,4.703980627134D1,1.4D2,6.077379979256D1,             97P     82
5.372721090399D1,1.4D2,5.764508094226D1,5.795230285665D1,1.4D2,       97P     83
5.6D1,6D1,1.4D2,0D0,1D0,0D0,0D0,1D0;                                  97P     84
110,6.85D1,4D1,1.4D2,7D1,4D1,1.4D2;                                   99P     85
126,5,3,0,0,1,0,0D0,0D0,0D0,0D0,3.333333333333D-1,                   101P     86
6.666666666667D-1,1D0,1D0,1D0,1D0,1D0,1D0,1D0,1D0,1D0,1D0,5.6D1,     101P     87
-6D1,1.4D2,5.764508094226D1,-5.795230285665D1,1.4D2,                 101P     88
6.077379979256D1,-5.372721090399D1,1.4D2,6.495342768797D1,           101P     89
-4.703980627134D1,1.4D2,6.738025152D1,-4.237602993226D1,1.4D2,       101P     90
6.85D1,-4D1,1.4D2,0D0,1D0,0D0,0D0,1D0;                               101P     91
110,-6.85D1,-4D1,0D0,-6.85D1,-4D1,1.4D2;                             103P     92
110,-6.85D1,-4D1,0D0,-7D1,-4D1,0D0;                                  105P     93
110,-7D1,-4D1,0D0,-7D1,-4D1,1.4D2;                                   107P     94
110,-7D1,4D1,0D0,-7D1,-4D1,0D0;                                      109P     95
110,-7D1,4D1,1.4D2,-7D1,4D1,0D0;                                     111P     96
110,-7D1,-4D1,1.4D2,-7D1,4D1,1.4D2;                                  113P     97
110,-5.6D1,-6D1,1.4D2,-5.6D1,-6D1,0D0;                               115P     98
110,-5.6D1,-6D1,1.4D2,5.6D1,-6D1,1.4D2;                              117P     99
110,5.6D1,-6D1,0D0,5.6D1,-6D1,1.4D2;                                 119P    100
110,5.6D1,-6D1,0D0,-5.6D1,-6D1,0D0;                                  121P    101
110,-3.824871130596D1,-6D1,4D0,3.824871130596D1,-6D1,4D0;            123P    102
110,3.824871130596D1,-6D1,4D0,3.824871130596D1,-6D1,1.2D1;           125P    103
110,-3.824871130596D1,-6D1,1.2D1,3.824871130596D1,-6D1,1.2D1;        127P    104
110,-3.824871130596D1,-6D1,4D0,-3.824871130596D1,-6D1,1.2D1;         129P    105
110,6.85D1,-4D1,0D0,6.85D1,-4D1,1.4D2;                               131P    106
110,6.85D1,-4D1,1.4D2,7D1,-4D1,1.4D2;                                133P    107
110,7D1,-4D1,1.4D2,7D1,-4D1,0D0;                                     135P    108
110,7D1,4D1,1.4D2,7D1,-4D1,1.4D2;                                    137P    109
110,7D1,4D1,0D0,7D1,4D1,1.4D2;                                       139P    110
110,7D1,-4D1,0D0,7D1,4D1,0D0;                                        141P    111
110,6.85D1,4D1,0D0,7D1,4D1,0D0;                                      143P    112
110,6.85D1,4D1,0D0,6.85D1,4D1,1.4D2;                                 145P    113
110,-5.6D1,6D1,0D0,-5.6D1,6D1,1.4D2;                                 147P    114
110,-5.6D1,6D1,0D0,5.6D1,6D1,0D0;                                    149P    115
110,5.6D1,6D1,1.4D2,5.6D1,6D1,0D0;                                   151P    116
110,5.6D1,6D1,1.4D2,-5.6D1,6D1,1.4D2;                                153P    117
110,-3.824871130596D1,-6D1,4D0,-3.5D0,-8.006217782649D1,4D0;         155P    118
124,-5D-1,8.660254037844D-1,0D0,0D0,-8.660254037844D-1,-5D-1,        157P    119
0D0,-7.4D1,0D0,0D0,1D0,4D0;                                          157P    120
100,0D0,0D0,0D0,7D0,0D0,3.5D0,6.062177826491D0;                      159P    121
110,3.5D0,-8.006217782649D1,4D0,3.824871130596D1,-6D1,4D0;           161P    122
110,3.5D0,-8.006217782649D1,1.2D1,3.824871130596D1,-6D1,1.2D1;       163P    123
124,-5D-1,8.660254037844D-1,0D0,0D0,-8.660254037844D-1,-5D-1,        165P    124
0D0,-7.4D1,0D0,0D0,1D0,1.2D1;                                        165P    125
100,0D0,0D0,0D0,7D0,0D0,3.5D0,6.062177826491D0;                      167P    126
110,-3.824871130596D1,-6D1,1.2D1,-3.5D0,-8.006217782649D1,1.2D1;     169P    127
110,3.5D0,-8.006217782649D1,4D0,3.5D0,-8.006217782649D1,1.2D1;       171P    128
110,-3.5D0,-8.006217782649D1,4D0,-3.5D0,-8.006217782649D1,1.2D1;     173P    129
502,32,5.6D1,6D1,1.4D2,5.6D1,6D1,0D0,6.85D1,4D1,0D0,6.85D1,4D1,      175P    130
1.4D2,-5.6D1,6D1,0D0,-5.6D1,6D1,1.4D2,5.6D1,-6D1,0D0,5.6D1,-6D1,     175P    131
1.4D2,-5.6D1,-6D1,1.4D2,-5.6D1,-6D1,0D0,7D1,-4D1,1.4D2,7D1,-4D1,     175P    132
0D0,7D1,4D1,0D0,7D1,4D1,1.4D2,6.85D1,-4D1,0D0,6.85D1,-4D1,1.4D2,     175P    133
-7D1,-4D1,0D0,-7D1,-4D1,1.4D2,-7D1,4D1,1.4D2,-7D1,4D1,0D0,           175P    134
-6.85D1,-4D1,0D0,-6.85D1,-4D1,1.4D2,-6.85D1,4D1,0D0,-6.85D1,4D1,     175P    135
1.4D2,-3.5D0,-8.006217782649D1,4D0,3.5D0,-8.006217782649D1,4D0,      175P    136
-3.5D0,-8.006217782649D1,1.2D1,3.5D0,-8.006217782649D1,1.2D1,        175P    137
-3.824871130596D1,-6D1,4D0,3.824871130596D1,-6D1,4D0,                175P    138
-3.824871130596D1,-6D1,1.2D1,3.824871130596D1,-6D1,1.2D1;            175P    139
504,48,151,175,1,175,2,85,175,2,175,3,97,175,4,175,1,147,175,5,      177P    140
175,6,153,175,1,175,6,149,175,5,175,2,119,175,7,175,8,115,175,9,     177P    141
175,10,121,175,7,175,10,117,175,9,175,8,135,175,11,175,12,141,       177P    142
175,12,175,13,139,175,13,175,14,137,175,14,175,11,131,175,15,        177P    143
175,16,145,175,3,175,4,81,175,15,175,7,101,175,8,175,16,133,175,     177P    144
16,175,11,83,175,15,175,12,143,175,3,175,13,99,175,4,175,14,107,     177P    145
175,17,175,18,113,175,18,175,19,111,175,19,175,20,109,175,20,        177P    146
175,17,103,175,21,175,22,87,175,23,175,24,75,175,23,175,5,95,        177P    147
175,6,175,24,79,175,10,175,21,91,175,22,175,9,105,175,21,175,17,     177P    148
93,175,22,175,18,89,175,24,175,19,77,175,23,175,20,159,175,25,       177P    149
175,26,167,175,27,175,28,173,175,25,175,27,171,175,26,175,28,        177P    150
123,175,29,175,30,127,175,31,175,32,125,175,30,175,32,129,175,       177P    151
29,175,31,161,175,26,175,30,155,175,29,175,25,163,175,28,175,32,     177P    152
169,175,31,175,27;                                                   177P    153
128,1,1,1,1,0,0,1,0,0,-7D1,-7D1,7D1,7D1,-6D1,-6D1,6D1,6D1,1D0,       179P    154
1D0,1D0,1D0,-7D1,-6D1,0D0,7D1,-6D1,0D0,-7D1,6D1,0D0,7D1,6D1,0D0,     179P    155
-7D1,7D1,-6D1,6D1;                                                   179P    156
508,12,0,177,29,0,0,0,177,36,1,0,0,177,26,1,0,0,177,33,0,0,0,        181P    157
177,31,0,0,0,177,9,0,0,0,177,17,0,0,0,177,20,1,0,0,177,12,1,0,0,     181P    158
177,21,0,0,0,177,2,0,0,0,177,6,0,0;                                  181P    159
510,179,1,0,181;                                                     183P    160
128,5,3,3,3,0,0,1,0,0,0D0,0D0,0D0,0D0,3.333333333333D-1,             185P    161
6.666666666667D-1,1D0,1D0,1D0,1D0,0D0,0D0,0D0,0D0,1D0,1D0,1D0,       185P    162
1D0,1D0,1D0,1D0,1D0,1D0,1D0,1D0,1D0,1D0,1D0,1D0,1D0,1D0,1D0,1D0,     185P    163
1D0,1D0,1D0,1D0,1D0,1D0,1D0,1D0,1D0,-6.85D1,4D1,0D0,                 185P    164
-6.738025152D1,4.237602993226D1,0D0,-6.495342768797D1,               185P    165
4.703980627134D1,0D0,-6.077379979256D1,5.372721090399D1,0D0,         185P    166
-5.764508094226D1,5.795230285665D1,0D0,-5.6D1,6D1,0D0,-6.85D1,       185P    167
4D1,4.666666666667D1,-6.738025152D1,4.237602993226D1,                185P    168
4.666666666667D1,-6.495342768797D1,4.703980627134D1,                 185P    169
4.666666666667D1,-6.077379979256D1,5.372721090399D1,                 185P    170
4.666666666667D1,-5.764508094226D1,5.795230285665D1,                 185P    171
4.666666666667D1,-5.6D1,6D1,4.666666666667D1,-6.85D1,4D1,            185P    172
9.333333333325D1,-6.738025152D1,4.237602993226D1,                    185P    173
9.333333333325D1,-6.495342768797D1,4.703980627134D1,                 185P    174
9.333333333325D1,-6.077379979256D1,5.372721090399D1,                 185P    175
9.333333333325D1,-5.764508094226D1,5.795230285665D1,                 185P    176
9.333333333325D1,-5.6D1,6D1,9.333333333325D1,-6.85D1,4D1,1.4D2,      185P    177
-6.738025152D1,4.237602993226D1,1.4D2,-6.495342768797D1,             185P    178
4.703980627134D1,1.4D2,-6.077379979256D1,5.372721090399D1,1.4D2,     185P    179
-5.764508094226D1,5.795230285665D1,1.4D2,-5.6D1,6D1,1.4D2,0D0,       185P    180
1D0,0D0,1D0;                                                         185P    181
508,4,0,177,28,0,0,0,177,29,1,0,0,177,4,1,0,0,177,30,1,0;            187P    182
510,185,1,0,187;                                                     189P    183
128,1,1,1,1,0,0,1,0,0,0D0,0D0,1.4D2,1.4D2,0D0,0D0,1.5D0,1.5D0,       191P    184
1D0,1D0,1D0,1D0,-6.85D1,4D1,1.4D2,-6.85D1,4D1,0D0,-7D1,4D1,          191P    185
1.4D2,-7D1,4D1,0D0,0D0,1.4D2,0D0,1.5D0;                              191P    186
508,4,0,177,28,1,0,0,177,35,1,0,0,177,25,1,0,0,177,36,0,0;           193P    187
510,191,1,0,193;                                                     195P    188
128,1,1,1,1,0,0,1,0,0,-7D1,-7D1,7D1,7D1,-6D1,-6D1,6D1,6D1,1D0,       197P    189
1D0,1D0,1D0,-7D1,-6D1,1.4D2,7D1,-6D1,1.4D2,-7D1,6D1,1.4D2,7D1,       197P    190
6D1,1.4D2,-7D1,7D1,-6D1,6D1;                                         197P    191
508,12,0,177,32,0,0,0,177,34,1,0,0,177,24,1,0,0,177,35,0,0,0,        199P    192
177,30,0,0,0,177,5,0,0,0,177,3,0,0,0,177,22,1,0,0,177,14,1,0,0,      199P    193
177,19,0,0,0,177,18,0,0,0,177,10,0,0;                                199P    194
510,197,1,0,199;                                                     201P    195
128,5,3,3,3,0,0,1,0,0,0D0,0D0,0D0,0D0,3.333333333333D-1,             203P    196
6.666666666667D-1,1D0,1D0,1D0,1D0,0D0,0D0,0D0,0D0,1D0,1D0,1D0,       203P    197
1D0,1D0,1D0,1D0,1D0,1D0,1D0,1D0,1D0,1D0,1D0,1D0,1D0,1D0,1D0,1D0,     203P    198
1D0,1D0,1D0,1D0,1D0,1D0,1D0,1D0,1D0,-6.85D1,-4D1,0D0,                203P    199
-6.738025152D1,-4.237602993226D1,0D0,-6.495342768797D1,              203P    200
-4.703980627134D1,0D0,-6.077379979256D1,-5.372721090399D1,0D0,       203P    201
-5.764508094226D1,-5.795230285665D1,0D0,-5.6D1,-6D1,0D0,-6.85D1,     203P    202
-4D1,4.666666666667D1,-6.738025152D1,-4.237602993226D1,              203P    203
4.666666666667D1,-6.495342768797D1,-4.703980627134D1,                203P    204
4.666666666667D1,-6.077379979256D1,-5.372721090399D1,                203P    205
4.666666666667D1,-5.764508094226D1,-5.795230285665D1,                203P    206
4.666666666667D1,-5.6D1,-6D1,4.666666666667D1,-6.85D1,-4D1,          203P    207
9.333333333325D1,-6.738025152D1,-4.237602993226D1,                   203P    208
9.333333333325D1,-6.495342768797D1,-4.703980627134D1,                203P    209
9.333333333325D1,-6.077379979256D1,-5.372721090399D1,                203P    210
9.333333333325D1,-5.764508094226D1,-5.795230285665D1,                203P    211
9.333333333325D1,-5.6D1,-6D1,9.333333333325D1,-6.85D1,-4D1,          203P    212
1.4D2,-6.738025152D1,-4.237602993226D1,1.4D2,-6.495342768797D1,      203P    213
-4.703980627134D1,1.4D2,-6.077379979256D1,-5.372721090399D1,         203P    214
1.4D2,-5.764508094226D1,-5.795230285665D1,1.4D2,-5.6D1,-6D1,         203P    215
1.4D2,0D0,1D0,0D0,1D0;                                               203P    216
508,4,0,177,27,1,0,0,177,32,1,0,0,177,8,1,0,0,177,31,1,0;            205P    217
510,203,1,0,205;                                                     207P    218
128,1,1,1,1,0,0,1,0,0,0D0,0D0,1.4D2,1.4D2,0D0,0D0,1.5D0,1.5D0,       209P    219
1D0,1D0,1D0,1D0,-6.85D1,-4D1,0D0,-6.85D1,-4D1,1.4D2,-7D1,-4D1,       209P    220
0D0,-7D1,-4D1,1.4D2,0D0,1.4D2,0D0,1.5D0;                             209P    221
508,4,0,177,27,0,0,0,177,33,1,0,0,177,23,1,0,0,177,34,0,0;           211P    222
510,209,1,0,211;                                                     213P    223
128,1,1,1,1,0,0,1,0,0,0D0,0D0,1.4D2,1.4D2,-4D1,-4D1,4D1,4D1,1D0,     215P    224
1D0,1D0,1D0,-7D1,-4D1,0D0,-7D1,-4D1,1.4D2,-7D1,4D1,0D0,-7D1,4D1,     215P    225
1.4D2,0D0,1.4D2,-4D1,4D1;                                            215P    226
508,4,0,177,23,0,0,0,177,26,0,0,0,177,25,0,0,0,177,24,0,0;           217P    227
510,215,1,0,217;                                                     219P    228
128,1,1,1,1,0,0,1,0,0,1.25D1,1.25D1,1.245D2,1.245D2,0D0,0D0,         221P    229
1.4D2,1.4D2,1D0,1D0,1D0,1D0,5.6D1,-6D1,0D0,-5.6D1,-6D1,0D0,          221P    230
5.6D1,-6D1,1.4D2,-5.6D1,-6D1,1.4D2,1.25D1,1.245D2,0D0,1.4D2;         221P    231
508,4,0,177,8,0,0,0,177,10,1,0,0,177,7,0,0,0,177,9,1,0;              223P    232
508,4,0,177,41,1,0,0,177,43,1,0,0,177,42,0,0,0,177,44,0,0;           225P    233
510,221,2,0,223,225;                                                 227P    234
128,5,3,3,3,0,0,1,0,0,0D0,0D0,0D0,0D0,3.333333333333D-1,             229P    235
6.666666666667D-1,1D0,1D0,1D0,1D0,0D0,0D0,0D0,0D0,1D0,1D0,1D0,       229P    236
1D0,1D0,1D0,1D0,1D0,1D0,1D0,1D0,1D0,1D0,1D0,1D0,1D0,1D0,1D0,1D0,     229P    237
1D0,1D0,1D0,1D0,1D0,1D0,1D0,1D0,1D0,6.85D1,-4D1,0D0,                 229P    238
6.738025152D1,-4.237602993226D1,0D0,6.495342768797D1,                229P    239
-4.703980627134D1,0D0,6.077379979256D1,-5.372721090399D1,0D0,        229P    240
5.764508094226D1,-5.795230285665D1,0D0,5.6D1,-6D1,0D0,6.85D1,        229P    241
-4D1,4.666666666667D1,6.738025152D1,-4.237602993226D1,               229P    242
4.666666666667D1,6.495342768797D1,-4.703980627134D1,                 229P    243
4.666666666667D1,6.077379979256D1,-5.372721090399D1,                 229P    244
4.666666666667D1,5.764508094226D1,-5.795230285665D1,                 229P    245
4.666666666667D1,5.6D1,-6D1,4.666666666667D1,6.85D1,-4D1,            229P    246
9.333333333325D1,6.738025152D1,-4.237602993226D1,                    229P    247
9.333333333325D1,6.495342768797D1,-4.703980627134D1,                 229P    248
9.333333333325D1,6.077379979256D1,-5.372721090399D1,                 229P    249
9.333333333325D1,5.764508094226D1,-5.795230285665D1,                 229P    250
9.333333333325D1,5.6D1,-6D1,9.333333333325D1,6.85D1,-4D1,1.4D2,      229P    251
6.738025152D1,-4.237602993226D1,1.4D2,6.495342768797D1,              229P    252
-4.703980627134D1,1.4D2,6.077379979256D1,-5.372721090399D1,          229P    253
1.4D2,5.764508094226D1,-5.795230285665D1,1.4D2,5.6D1,-6D1,1.4D2,     229P    254
0D0,1D0,0D0,1D0;                                                     229P    255
508,4,0,177,15,0,0,0,177,17,1,0,0,177,7,1,0,0,177,18,1,0;            231P    256
510,229,1,0,231;                                                     233P    257
128,1,1,1,1,0,0,1,0,0,0D0,0D0,1.4D2,1.4D2,0D0,0D0,1.5D0,1.5D0,       235P    258
1D0,1D0,1D0,1D0,6.85D1,-4D1,1.4D2,6.85D1,-4D1,0D0,7D1,-4D1,          235P    259
1.4D2,7D1,-4D1,0D0,0D0,1.4D2,0D0,1.5D0;                              235P    260
508,4,0,177,15,1,0,0,177,19,1,0,0,177,11,1,0,0,177,20,0,0;           237P    261
510,235,1,0,237;                                                     239P    262
128,1,1,1,1,0,0,1,0,0,-1.4D2,-1.4D2,0D0,0D0,-4D1,-4D1,4D1,4D1,       241P    263
1D0,1D0,1D0,1D0,7D1,-4D1,1.4D2,7D1,-4D1,0D0,7D1,4D1,1.4D2,7D1,       241P    264
4D1,0D0,-1.4D2,0D0,-4D1,4D1;                                         241P    265
508,4,0,177,11,0,0,0,177,14,0,0,0,177,13,0,0,0,177,12,0,0;           243P    266
510,241,1,0,243;                                                     245P    267
128,1,1,1,1,0,0,1,0,0,0D0,0D0,1.4D2,1.4D2,0D0,0D0,1.5D0,1.5D0,       247P    268
1D0,1D0,1D0,1D0,6.85D1,4D1,0D0,6.85D1,4D1,1.4D2,7D1,4D1,0D0,7D1,     247P    269
4D1,1.4D2,0D0,1.4D2,0D0,1.5D0;                                       247P    270
508,4,0,177,16,0,0,0,177,21,1,0,0,177,13,1,0,0,177,22,0,0;           249P    271
510,247,1,0,249;                                                     251P    272
128,5,3,3,3,0,0,1,0,0,0D0,0D0,0D0,0D0,3.333333333333D-1,             253P    273
6.666666666667D-1,1D0,1D0,1D0,1D0,0D0,0D0,0D0,0D0,1D0,1D0,1D0,       253P    274
1D0,1D0,1D0,1D0,1D0,1D0,1D0,1D0,1D0,1D0,1D0,1D0,1D0,1D0,1D0,1D0,     253P    275
1D0,1D0,1D0,1D0,1D0,1D0,1D0,1D0,1D0,6.85D1,4D1,0D0,                  253P    276
6.738025152D1,4.237602993226D1,0D0,6.495342768797D1,                 253P    277
4.703980627134D1,0D0,6.077379979256D1,5.372721090399D1,0D0,          253P    278
5.764508094226D1,5.795230285665D1,0D0,5.6D1,6D1,0D0,6.85D1,4D1,      253P    279
4.666666666667D1,6.738025152D1,4.237602993226D1,                     253P    280
4.666666666667D1,6.495342768797D1,4.703980627134D1,                  253P    281
4.666666666667D1,6.077379979256D1,5.372721090399D1,                  253P    282
4.666666666667D1,5.764508094226D1,5.795230285665D1,                  253P    283
4.666666666667D1,5.6D1,6D1,4.666666666667D1,6.85D1,4D1,              253P    284
9.333333333325D1,6.738025152D1,4.237602993226D1,                     253P    285
9.333333333325D1,6.495342768797D1,4.703980627134D1,                  253P    286
9.333333333325D1,6.077379979256D1,5.372721090399D1,                  253P    287
9.333333333325D1,5.764508094226D1,5.795230285665D1,                  253P    288
9.333333333325D1,5.6D1,6D1,9.333333333325D1,6.85D1,4D1,1.4D2,        253P    289
6.738025152D1,4.237602993226D1,1.4D2,6.495342768797D1,               253P    290
4.703980627134D1,1.4D2,6.077379979256D1,5.372721090399D1,1.4D2,      253P    291
5.764508094226D1,5.795230285665D1,1.4D2,5.6D1,6D1,1.4D2,0D0,1D0,     253P    292
0D0,1D0;                                                             253P    293
508,4,0,177,2,1,0,0,177,16,1,0,0,177,3,1,0,0,177,1,1,0;              255P    294
510,253,1,0,255;                                                     257P    295
128,1,1,1,1,0,0,1,0,0,1.25D1,1.25D1,1.245D2,1.245D2,0D0,0D0,         259P    296
1.4D2,1.4D2,1D0,1D0,1D0,1D0,5.6D1,6D1,0D0,-5.6D1,6D1,0D0,5.6D1,      259P    297
6D1,1.4D2,-5.6D1,6D1,1.4D2,1.25D1,1.245D2,0D0,1.4D2;                 259P    298
508,4,0,177,4,0,0,0,177,6,1,0,0,177,1,0,0,0,177,5,1,0;               261P    299
510,259,1,0,261;                                                     263P    300
128,1,1,1,1,0,0,1,0,0,-3.824871130596D1,-3.824871130596D1,           265P    301
3.824871130596D1,3.824871130596D1,-8.1D1,-8.1D1,-6D1,-6D1,1D0,       265P    302
1D0,1D0,1D0,-3.824871130596D1,-8.1D1,4D0,3.824871130596D1,           265P    303
-8.1D1,4D0,-3.824871130596D1,-6D1,4D0,3.824871130596D1,-6D1,4D0,     265P    304
-3.824871130596D1,3.824871130596D1,-8.1D1,-6D1;                      265P    305
508,4,0,177,41,0,0,0,177,46,1,0,0,177,37,1,0,0,177,45,1,0;           267P    306
510,265,1,0,267;                                                     269P    307
128,1,1,1,1,0,0,1,0,0,0D0,0D0,4.012435565298D1,4.012435565298D1,     271P    308
0D0,0D0,8D0,8D0,1D0,1D0,1D0,1D0,-3.824871130596D1,-6D1,4D0,          271P    309
-3.5D0,-8.006217782649D1,4D0,-3.824871130596D1,-6D1,1.2D1,           271P    310
-3.5D0,-8.006217782649D1,1.2D1,0D0,4.012435565298D1,0D0,8D0;         271P    311
508,4,0,177,44,1,0,0,177,48,1,0,0,177,39,0,0,0,177,46,0,0;           273P    312
510,271,1,0,273;                                                     275P    313
128,1,1,1,1,0,0,1,0,0,-3.824871130596D1,-3.824871130596D1,           277P    314
3.824871130596D1,3.824871130596D1,-8.1D1,-8.1D1,-6D1,-6D1,1D0,       277P    315
1D0,1D0,1D0,-3.824871130596D1,-8.1D1,1.2D1,3.824871130596D1,         277P    316
-8.1D1,1.2D1,-3.824871130596D1,-6D1,1.2D1,3.824871130596D1,-6D1,     277P    317
1.2D1,-3.824871130596D1,3.824871130596D1,-8.1D1,-6D1;                277P    318
508,4,0,177,42,1,0,0,177,47,0,0,0,177,38,0,0,0,177,48,0,0;           279P    319
510,277,1,0,279;                                                     281P    320
128,1,1,1,1,0,0,1,0,0,0D0,0D0,4.012435565298D1,4.012435565298D1,     283P    321
0D0,0D0,8D0,8D0,1D0,1D0,1D0,1D0,3.5D0,-8.006217782649D1,4D0,         283P    322
3.824871130596D1,-6D1,4D0,3.5D0,-8.006217782649D1,1.2D1,             283P    323
3.824871130596D1,-6D1,1.2D1,0D0,4.012435565298D1,0D0,8D0;            283P    324
508,4,0,177,43,0,0,0,177,45,0,0,0,177,40,1,0,0,177,47,1,0;           285P    325
510,283,1,0,285;                                                     287P    326
128,3,3,3,3,0,0,0,0,0,0D0,0D0,0D0,0D0,1D0,1D0,1D0,1D0,0D0,0D0,       289P    327
0D0,0D0,8D0,8D0,8D0,8D0,1.071796769724D0,9.760677434252D-1,          289P    328
9.760677434252D-1,1.071796769724D0,1.071796769724D0,                 289P    329
9.760677434252D-1,9.760677434252D-1,1.071796769724D0,                289P    330
1.071796769724D0,9.760677434252D-1,9.760677434252D-1,                289P    331
1.071796769724D0,1.071796769724D0,9.760677434252D-1,                 289P    332
9.760677434252D-1,1.071796769724D0,-3.5D0,-8.006217782649D1,4D0,     289P    333
-1.281088913246D0,-8.134326673974D1,4D0,1.281088913246D0,            289P    334
-8.134326673974D1,4D0,3.5D0,-8.006217782649D1,4D0,-3.5D0,            289P    335
-8.006217782649D1,6.666666666667D0,-1.281088913246D0,                289P    336
-8.134326673974D1,6.666666666667D0,1.281088913246D0,                 289P    337
-8.134326673974D1,6.666666666667D0,3.5D0,-8.006217782649D1,          289P    338
6.666666666667D0,-3.5D0,-8.006217782649D1,9.333333333333D0,          289P    339
-1.281088913246D0,-8.134326673974D1,9.333333333333D0,                289P    340
1.281088913246D0,-8.134326673974D1,9.333333333333D0,3.5D0,           289P    341
-8.006217782649D1,9.333333333333D0,-3.5D0,-8.006217782649D1,         289P    342
1.2D1,-1.281088913246D0,-8.134326673974D1,1.2D1,                     289P    343
1.281088913246D0,-8.134326673974D1,1.2D1,3.5D0,                      289P    344
-8.006217782649D1,1.2D1,0D0,1D0,0D0,8D0;                             289P    345
508,4,0,177,37,0,0,0,177,39,1,0,0,177,38,1,0,0,177,40,0,0;           291P    346
510,289,1,0,291;                                                     293P    347
514,19,183,0,189,0,195,1,201,1,207,1,213,1,219,1,227,0,233,0,        295P    348
239,1,245,1,251,1,257,1,263,1,269,0,275,1,281,1,287,1,293,1;         295P    349
186,295,1,0;                                                         297P    350
S      1G      4D    298P    350                                        T      1
