solid ascii
  facet normal 0.000000e+000 -0.000000e+000 -1.000000e+000
    outer loop
      vertex   -6.582447e+001 4.526786e+001 0.000000e+000
      vertex   6.582447e+001 4.526786e+001 0.000000e+000
      vertex   -6.850000e+001 4.000000e+001 0.000000e+000
    endloop
  endfacet
  facet normal 0.000000e+000 0.000000e+000 -1.000000e+000
    outer loop
      vertex   -6.582447e+001 4.526786e+001 0.000000e+000
      vertex   6.284168e+001 5.036980e+001 0.000000e+000
      vertex   6.582447e+001 4.526786e+001 0.000000e+000
    endloop
  endfacet
  facet normal 0.000000e+000 0.000000e+000 -1.000000e+000
    outer loop
      vertex   -6.582447e+001 4.526786e+001 0.000000e+000
      vertex   -6.284168e+001 5.036980e+001 0.000000e+000
      vertex   6.284168e+001 5.036980e+001 0.000000e+000
    endloop
  endfacet
  facet normal -0.000000e+000 0.000000e+000 -1.000000e+000
    outer loop
      vertex   6.284168e+001 5.036980e+001 0.000000e+000
      vertex   -6.284168e+001 5.036980e+001 0.000000e+000
      vertex   5.956273e+001 5.528664e+001 0.000000e+000
    endloop
  endfacet
  facet normal -0.000000e+000 0.000000e+000 -1.000000e+000
    outer loop
      vertex   5.956273e+001 5.528664e+001 0.000000e+000
      vertex   -6.284168e+001 5.036980e+001 0.000000e+000
      vertex   -5.956273e+001 5.528664e+001 0.000000e+000
    endloop
  endfacet
  facet normal -0.000000e+000 0.000000e+000 -1.000000e+000
    outer loop
      vertex   5.600000e+001 6.000000e+001 0.000000e+000
      vertex   -5.956273e+001 5.528664e+001 0.000000e+000
      vertex   -5.600000e+001 6.000000e+001 0.000000e+000
    endloop
  endfacet
  facet normal 0.000000e+000 -0.000000e+000 -1.000000e+000
    outer loop
      vertex   5.600000e+001 6.000000e+001 0.000000e+000
      vertex   5.956273e+001 5.528664e+001 0.000000e+000
      vertex   -5.956273e+001 5.528664e+001 0.000000e+000
    endloop
  endfacet
  facet normal -0.000000e+000 -0.000000e+000 -1.000000e+000
    outer loop
      vertex   6.582447e+001 4.526786e+001 0.000000e+000
      vertex   6.850000e+001 4.000000e+001 0.000000e+000
      vertex   -6.850000e+001 4.000000e+001 0.000000e+000
    endloop
  endfacet
  facet normal 0.000000e+000 -0.000000e+000 -1.000000e+000
    outer loop
      vertex   -6.850000e+001 4.000000e+001 0.000000e+000
      vertex   6.850000e+001 4.000000e+001 0.000000e+000
      vertex   -6.850000e+001 -4.000000e+001 0.000000e+000
    endloop
  endfacet
  facet normal 0.000000e+000 0.000000e+000 -1.000000e+000
    outer loop
      vertex   -7.000000e+001 -4.000000e+001 0.000000e+000
      vertex   -6.850000e+001 4.000000e+001 0.000000e+000
      vertex   -6.850000e+001 -4.000000e+001 0.000000e+000
    endloop
  endfacet
  facet normal 0.000000e+000 0.000000e+000 -1.000000e+000
    outer loop
      vertex   -7.000000e+001 -4.000000e+001 0.000000e+000
      vertex   -7.000000e+001 4.000000e+001 0.000000e+000
      vertex   -6.850000e+001 4.000000e+001 0.000000e+000
    endloop
  endfacet
  facet normal 0.000000e+000 0.000000e+000 -1.000000e+000
    outer loop
      vertex   -6.850000e+001 -4.000000e+001 0.000000e+000
      vertex   6.850000e+001 4.000000e+001 0.000000e+000
      vertex   6.850000e+001 -4.000000e+001 0.000000e+000
    endloop
  endfacet
  facet normal 0.000000e+000 -0.000000e+000 -1.000000e+000
    outer loop
      vertex   -6.582447e+001 -4.526786e+001 0.000000e+000
      vertex   6.850000e+001 -4.000000e+001 0.000000e+000
      vertex   6.582447e+001 -4.526786e+001 0.000000e+000
    endloop
  endfacet
  facet normal 0.000000e+000 -0.000000e+000 -1.000000e+000
    outer loop
      vertex   -6.284168e+001 -5.036980e+001 0.000000e+000
      vertex   6.582447e+001 -4.526786e+001 0.000000e+000
      vertex   6.284168e+001 -5.036980e+001 0.000000e+000
    endloop
  endfacet
  facet normal 0.000000e+000 -0.000000e+000 -1.000000e+000
    outer loop
      vertex   -5.956273e+001 -5.528664e+001 0.000000e+000
      vertex   6.284168e+001 -5.036980e+001 0.000000e+000
      vertex   5.956273e+001 -5.528664e+001 0.000000e+000
    endloop
  endfacet
  facet normal 0.000000e+000 -0.000000e+000 -1.000000e+000
    outer loop
      vertex   -5.600000e+001 -6.000000e+001 0.000000e+000
      vertex   5.956273e+001 -5.528664e+001 0.000000e+000
      vertex   5.600000e+001 -6.000000e+001 0.000000e+000
    endloop
  endfacet
  facet normal 0.000000e+000 0.000000e+000 -1.000000e+000
    outer loop
      vertex   -5.600000e+001 -6.000000e+001 0.000000e+000
      vertex   -5.956273e+001 -5.528664e+001 0.000000e+000
      vertex   5.956273e+001 -5.528664e+001 0.000000e+000
    endloop
  endfacet
  facet normal 0.000000e+000 0.000000e+000 -1.000000e+000
    outer loop
      vertex   7.000000e+001 -4.000000e+001 0.000000e+000
      vertex   6.850000e+001 -4.000000e+001 0.000000e+000
      vertex   7.000000e+001 4.000000e+001 0.000000e+000
    endloop
  endfacet
  facet normal -0.000000e+000 0.000000e+000 -1.000000e+000
    outer loop
      vertex   7.000000e+001 4.000000e+001 0.000000e+000
      vertex   6.850000e+001 -4.000000e+001 0.000000e+000
      vertex   6.850000e+001 4.000000e+001 0.000000e+000
    endloop
  endfacet
  facet normal 0.000000e+000 -0.000000e+000 -1.000000e+000
    outer loop
      vertex   -6.850000e+001 -4.000000e+001 0.000000e+000
      vertex   6.850000e+001 -4.000000e+001 0.000000e+000
      vertex   -6.582447e+001 -4.526786e+001 0.000000e+000
    endloop
  endfacet
  facet normal 0.000000e+000 -0.000000e+000 -1.000000e+000
    outer loop
      vertex   -6.582447e+001 -4.526786e+001 0.000000e+000
      vertex   6.582447e+001 -4.526786e+001 0.000000e+000
      vertex   -6.284168e+001 -5.036980e+001 0.000000e+000
    endloop
  endfacet
  facet normal 0.000000e+000 -0.000000e+000 -1.000000e+000
    outer loop
      vertex   -6.284168e+001 -5.036980e+001 0.000000e+000
      vertex   6.284168e+001 -5.036980e+001 0.000000e+000
      vertex   -5.956273e+001 -5.528664e+001 0.000000e+000
    endloop
  endfacet
  facet normal -8.915931e-001 4.528371e-001 -5.502081e-004
    outer loop
      vertex   -6.582447e+001 4.526786e+001 0.000000e+000
      vertex   -6.850000e+001 4.000000e+001 0.000000e+000
      vertex   -6.673843e+001 4.355341e+001 7.000000e+001
    endloop
  endfacet
  facet normal -8.729659e-001 4.877813e-001 0.000000e+000
    outer loop
      vertex   -6.386249e+001 4.870038e+001 7.000000e+001
      vertex   -6.673843e+001 4.355341e+001 7.000000e+001
      vertex   -6.386249e+001 4.870038e+001 1.050000e+002
    endloop
  endfacet
  facet normal -8.427013e-001 5.383802e-001 -1.101140e-003
    outer loop
      vertex   -6.068822e+001 5.366892e+001 1.050000e+002
      vertex   -6.386249e+001 4.870038e+001 1.050000e+002
      vertex   -6.284168e+001 5.036980e+001 1.400000e+002
    endloop
  endfacet
  facet normal -8.319677e-001 5.548230e-001 1.109178e-003
    outer loop
      vertex   -5.956273e+001 5.528664e+001 1.400000e+002
      vertex   -6.068822e+001 5.366892e+001 1.050000e+002
      vertex   -6.284168e+001 5.036980e+001 1.400000e+002
    endloop
  endfacet
  facet normal -8.208390e-001 5.711597e-001 -3.780323e-006
    outer loop
      vertex   -5.956273e+001 5.528664e+001 1.400000e+002
      vertex   -5.955553e+001 5.529676e+001 1.050000e+002
      vertex   -6.068822e+001 5.366892e+001 1.050000e+002
    endloop
  endfacet
  facet normal -7.977428e-001 6.029979e-001 1.016985e-005
    outer loop
      vertex   -5.956273e+001 5.528664e+001 1.400000e+002
      vertex   -5.600000e+001 6.000000e+001 1.400000e+002
      vertex   -5.955553e+001 5.529676e+001 1.050000e+002
    endloop
  endfacet
  facet normal -7.977064e-001 6.030460e-001 0.000000e+000
    outer loop
      vertex   -5.955553e+001 5.529676e+001 1.050000e+002
      vertex   -5.600000e+001 6.000000e+001 1.400000e+002
      vertex   -5.955553e+001 5.529676e+001 7.000000e+001
    endloop
  endfacet
  facet normal -8.208390e-001 5.711597e-001 1.890161e-006
    outer loop
      vertex   -6.068822e+001 5.366892e+001 7.000000e+001
      vertex   -5.955553e+001 5.529676e+001 7.000000e+001
      vertex   -5.956273e+001 5.528664e+001 0.000000e+000
    endloop
  endfacet
  facet normal -8.319680e-001 5.548233e-001 -5.545891e-004
    outer loop
      vertex   -6.284168e+001 5.036980e+001 0.000000e+000
      vertex   -6.068822e+001 5.366892e+001 7.000000e+001
      vertex   -5.956273e+001 5.528664e+001 0.000000e+000
    endloop
  endfacet
  facet normal -8.427017e-001 5.383805e-001 5.505701e-004
    outer loop
      vertex   -6.284168e+001 5.036980e+001 0.000000e+000
      vertex   -6.386249e+001 4.870038e+001 7.000000e+001
      vertex   -6.068822e+001 5.366892e+001 7.000000e+001
    endloop
  endfacet
  facet normal -8.632878e-001 5.047116e-001 -5.526017e-004
    outer loop
      vertex   -6.284168e+001 5.036980e+001 0.000000e+000
      vertex   -6.582447e+001 4.526786e+001 0.000000e+000
      vertex   -6.386249e+001 4.870038e+001 7.000000e+001
    endloop
  endfacet
  facet normal -8.729658e-001 4.877812e-001 5.488555e-004
    outer loop
      vertex   -6.386249e+001 4.870038e+001 7.000000e+001
      vertex   -6.582447e+001 4.526786e+001 0.000000e+000
      vertex   -6.673843e+001 4.355341e+001 7.000000e+001
    endloop
  endfacet
  facet normal -8.915927e-001 4.528369e-001 1.100416e-003
    outer loop
      vertex   -6.582447e+001 4.526786e+001 1.400000e+002
      vertex   -6.673843e+001 4.355341e+001 1.050000e+002
      vertex   -6.850000e+001 4.000000e+001 1.400000e+002
    endloop
  endfacet
  facet normal -8.729654e-001 4.877810e-001 -1.097710e-003
    outer loop
      vertex   -6.582447e+001 4.526786e+001 1.400000e+002
      vertex   -6.386249e+001 4.870038e+001 1.050000e+002
      vertex   -6.673843e+001 4.355341e+001 1.050000e+002
    endloop
  endfacet
  facet normal -8.632874e-001 5.047114e-001 1.105203e-003
    outer loop
      vertex   -6.582447e+001 4.526786e+001 1.400000e+002
      vertex   -6.284168e+001 5.036980e+001 1.400000e+002
      vertex   -6.386249e+001 4.870038e+001 1.050000e+002
    endloop
  endfacet
  facet normal -7.977064e-001 6.030460e-001 0.000000e+000
    outer loop
      vertex   -5.600000e+001 6.000000e+001 1.400000e+002
      vertex   -5.600000e+001 6.000000e+001 0.000000e+000
      vertex   -5.955553e+001 5.529676e+001 7.000000e+001
    endloop
  endfacet
  facet normal -7.977428e-001 6.029979e-001 -5.084926e-006
    outer loop
      vertex   -5.955553e+001 5.529676e+001 7.000000e+001
      vertex   -5.600000e+001 6.000000e+001 0.000000e+000
      vertex   -5.956273e+001 5.528664e+001 0.000000e+000
    endloop
  endfacet
  facet normal -8.729659e-001 4.877813e-001 9.902555e-017
    outer loop
      vertex   -6.386249e+001 4.870038e+001 1.050000e+002
      vertex   -6.673843e+001 4.355341e+001 7.000000e+001
      vertex   -6.673843e+001 4.355341e+001 1.050000e+002
    endloop
  endfacet
  facet normal -8.959487e-001 4.441576e-001 9.016941e-017
    outer loop
      vertex   -6.673843e+001 4.355341e+001 1.050000e+002
      vertex   -6.673843e+001 4.355341e+001 7.000000e+001
      vertex   -6.850000e+001 4.000000e+001 1.400000e+002
    endloop
  endfacet
  facet normal -8.959487e-001 4.441576e-001 0.000000e+000
    outer loop
      vertex   -6.850000e+001 4.000000e+001 1.400000e+002
      vertex   -6.673843e+001 4.355341e+001 7.000000e+001
      vertex   -6.850000e+001 4.000000e+001 0.000000e+000
    endloop
  endfacet
  facet normal -8.208390e-001 5.711597e-001 0.000000e+000
    outer loop
      vertex   -5.955553e+001 5.529676e+001 1.050000e+002
      vertex   -5.955553e+001 5.529676e+001 7.000000e+001
      vertex   -6.068822e+001 5.366892e+001 7.000000e+001
    endloop
  endfacet
  facet normal -8.427018e-001 5.383806e-001 0.000000e+000
    outer loop
      vertex   -6.068822e+001 5.366892e+001 1.050000e+002
      vertex   -6.068822e+001 5.366892e+001 7.000000e+001
      vertex   -6.386249e+001 4.870038e+001 7.000000e+001
    endloop
  endfacet
  facet normal -8.427018e-001 5.383806e-001 0.000000e+000
    outer loop
      vertex   -6.386249e+001 4.870038e+001 1.050000e+002
      vertex   -6.068822e+001 5.366892e+001 1.050000e+002
      vertex   -6.386249e+001 4.870038e+001 7.000000e+001
    endloop
  endfacet
  facet normal -8.208390e-001 5.711597e-001 0.000000e+000
    outer loop
      vertex   -5.955553e+001 5.529676e+001 1.050000e+002
      vertex   -6.068822e+001 5.366892e+001 7.000000e+001
      vertex   -6.068822e+001 5.366892e+001 1.050000e+002
    endloop
  endfacet
  facet normal 0.000000e+000 1.000000e+000 0.000000e+000
    outer loop
      vertex   -6.850000e+001 4.000000e+001 1.400000e+002
      vertex   -6.850000e+001 4.000000e+001 0.000000e+000
      vertex   -7.000000e+001 4.000000e+001 1.400000e+002
    endloop
  endfacet
  facet normal 0.000000e+000 1.000000e+000 0.000000e+000
    outer loop
      vertex   -7.000000e+001 4.000000e+001 1.400000e+002
      vertex   -6.850000e+001 4.000000e+001 0.000000e+000
      vertex   -7.000000e+001 4.000000e+001 0.000000e+000
    endloop
  endfacet
  facet normal 0.000000e+000 -0.000000e+000 1.000000e+000
    outer loop
      vertex   -6.582447e+001 -4.526786e+001 1.400000e+002
      vertex   6.582447e+001 -4.526786e+001 1.400000e+002
      vertex   -6.850000e+001 -4.000000e+001 1.400000e+002
    endloop
  endfacet
  facet normal 1.804010e-030 -1.114153e-014 1.000000e+000
    outer loop
      vertex   -6.582447e+001 -4.526786e+001 1.400000e+002
      vertex   6.284168e+001 -5.036980e+001 1.400000e+002
      vertex   6.582447e+001 -4.526786e+001 1.400000e+002
    endloop
  endfacet
  facet normal 4.522748e-016 2.644174e-016 1.000000e+000
    outer loop
      vertex   -6.582447e+001 -4.526786e+001 1.400000e+002
      vertex   -6.284168e+001 -5.036980e+001 1.400000e+002
      vertex   6.284168e+001 -5.036980e+001 1.400000e+002
    endloop
  endfacet
  facet normal 4.522748e-016 1.125935e-014 1.000000e+000
    outer loop
      vertex   6.284168e+001 -5.036980e+001 1.400000e+002
      vertex   -6.284168e+001 -5.036980e+001 1.400000e+002
      vertex   5.956273e+001 -5.528664e+001 1.400000e+002
    endloop
  endfacet
  facet normal 0.000000e+000 0.000000e+000 1.000000e+000
    outer loop
      vertex   5.956273e+001 -5.528664e+001 1.400000e+002
      vertex   -6.284168e+001 -5.036980e+001 1.400000e+002
      vertex   -5.956273e+001 -5.528664e+001 1.400000e+002
    endloop
  endfacet
  facet normal 0.000000e+000 0.000000e+000 1.000000e+000
    outer loop
      vertex   5.600000e+001 -6.000000e+001 1.400000e+002
      vertex   -5.956273e+001 -5.528664e+001 1.400000e+002
      vertex   -5.600000e+001 -6.000000e+001 1.400000e+002
    endloop
  endfacet
  facet normal 0.000000e+000 -0.000000e+000 1.000000e+000
    outer loop
      vertex   5.600000e+001 -6.000000e+001 1.400000e+002
      vertex   5.956273e+001 -5.528664e+001 1.400000e+002
      vertex   -5.956273e+001 -5.528664e+001 1.400000e+002
    endloop
  endfacet
  facet normal 0.000000e+000 -0.000000e+000 1.000000e+000
    outer loop
      vertex   6.582447e+001 -4.526786e+001 1.400000e+002
      vertex   6.850000e+001 -4.000000e+001 1.400000e+002
      vertex   -6.850000e+001 -4.000000e+001 1.400000e+002
    endloop
  endfacet
  facet normal 0.000000e+000 -0.000000e+000 1.000000e+000
    outer loop
      vertex   -6.850000e+001 -4.000000e+001 1.400000e+002
      vertex   6.850000e+001 -4.000000e+001 1.400000e+002
      vertex   -6.850000e+001 4.000000e+001 1.400000e+002
    endloop
  endfacet
  facet normal -0.000000e+000 0.000000e+000 1.000000e+000
    outer loop
      vertex   -7.000000e+001 4.000000e+001 1.400000e+002
      vertex   -6.850000e+001 -4.000000e+001 1.400000e+002
      vertex   -6.850000e+001 4.000000e+001 1.400000e+002
    endloop
  endfacet
  facet normal -0.000000e+000 0.000000e+000 1.000000e+000
    outer loop
      vertex   -7.000000e+001 4.000000e+001 1.400000e+002
      vertex   -7.000000e+001 -4.000000e+001 1.400000e+002
      vertex   -6.850000e+001 -4.000000e+001 1.400000e+002
    endloop
  endfacet
  facet normal -0.000000e+000 0.000000e+000 1.000000e+000
    outer loop
      vertex   -6.850000e+001 4.000000e+001 1.400000e+002
      vertex   6.850000e+001 -4.000000e+001 1.400000e+002
      vertex   6.850000e+001 4.000000e+001 1.400000e+002
    endloop
  endfacet
  facet normal -0.000000e+000 -0.000000e+000 1.000000e+000
    outer loop
      vertex   -6.582447e+001 4.526786e+001 1.400000e+002
      vertex   6.850000e+001 4.000000e+001 1.400000e+002
      vertex   6.582447e+001 4.526786e+001 1.400000e+002
    endloop
  endfacet
  facet normal -4.522748e-016 -2.644174e-016 1.000000e+000
    outer loop
      vertex   -6.284168e+001 5.036980e+001 1.400000e+002
      vertex   6.582447e+001 4.526786e+001 1.400000e+002
      vertex   6.284168e+001 5.036980e+001 1.400000e+002
    endloop
  endfacet
  facet normal -0.000000e+000 -0.000000e+000 1.000000e+000
    outer loop
      vertex   -5.956273e+001 5.528664e+001 1.400000e+002
      vertex   6.284168e+001 5.036980e+001 1.400000e+002
      vertex   5.956273e+001 5.528664e+001 1.400000e+002
    endloop
  endfacet
  facet normal -0.000000e+000 -0.000000e+000 1.000000e+000
    outer loop
      vertex   -5.600000e+001 6.000000e+001 1.400000e+002
      vertex   5.956273e+001 5.528664e+001 1.400000e+002
      vertex   5.600000e+001 6.000000e+001 1.400000e+002
    endloop
  endfacet
  facet normal 0.000000e+000 0.000000e+000 1.000000e+000
    outer loop
      vertex   -5.600000e+001 6.000000e+001 1.400000e+002
      vertex   -5.956273e+001 5.528664e+001 1.400000e+002
      vertex   5.956273e+001 5.528664e+001 1.400000e+002
    endloop
  endfacet
  facet normal 0.000000e+000 0.000000e+000 1.000000e+000
    outer loop
      vertex   7.000000e+001 4.000000e+001 1.400000e+002
      vertex   6.850000e+001 4.000000e+001 1.400000e+002
      vertex   7.000000e+001 -4.000000e+001 1.400000e+002
    endloop
  endfacet
  facet normal 0.000000e+000 0.000000e+000 1.000000e+000
    outer loop
      vertex   7.000000e+001 -4.000000e+001 1.400000e+002
      vertex   6.850000e+001 4.000000e+001 1.400000e+002
      vertex   6.850000e+001 -4.000000e+001 1.400000e+002
    endloop
  endfacet
  facet normal 0.000000e+000 -0.000000e+000 1.000000e+000
    outer loop
      vertex   -6.850000e+001 4.000000e+001 1.400000e+002
      vertex   6.850000e+001 4.000000e+001 1.400000e+002
      vertex   -6.582447e+001 4.526786e+001 1.400000e+002
    endloop
  endfacet
  facet normal -1.804010e-030 1.114153e-014 1.000000e+000
    outer loop
      vertex   -6.582447e+001 4.526786e+001 1.400000e+002
      vertex   6.582447e+001 4.526786e+001 1.400000e+002
      vertex   -6.284168e+001 5.036980e+001 1.400000e+002
    endloop
  endfacet
  facet normal -4.522748e-016 -1.125935e-014 1.000000e+000
    outer loop
      vertex   -6.284168e+001 5.036980e+001 1.400000e+002
      vertex   6.284168e+001 5.036980e+001 1.400000e+002
      vertex   -5.956273e+001 5.528664e+001 1.400000e+002
    endloop
  endfacet
  facet normal -8.959487e-001 -4.441576e-001 0.000000e+000
    outer loop
      vertex   -6.850000e+001 -4.000000e+001 0.000000e+000
      vertex   -6.673843e+001 -4.355341e+001 7.000000e+001
      vertex   -6.850000e+001 -4.000000e+001 1.400000e+002
    endloop
  endfacet
  facet normal -8.915931e-001 -4.528371e-001 -5.502081e-004
    outer loop
      vertex   -6.850000e+001 -4.000000e+001 0.000000e+000
      vertex   -6.582447e+001 -4.526786e+001 0.000000e+000
      vertex   -6.673843e+001 -4.355341e+001 7.000000e+001
    endloop
  endfacet
  facet normal -8.729658e-001 -4.877812e-001 5.488555e-004
    outer loop
      vertex   -6.673843e+001 -4.355341e+001 7.000000e+001
      vertex   -6.582447e+001 -4.526786e+001 0.000000e+000
      vertex   -6.386249e+001 -4.870038e+001 7.000000e+001
    endloop
  endfacet
  facet normal -8.729659e-001 -4.877813e-001 0.000000e+000
    outer loop
      vertex   -6.673843e+001 -4.355341e+001 1.050000e+002
      vertex   -6.386249e+001 -4.870038e+001 7.000000e+001
      vertex   -6.386249e+001 -4.870038e+001 1.050000e+002
    endloop
  endfacet
  facet normal -8.632874e-001 -5.047114e-001 1.105203e-003
    outer loop
      vertex   -6.582447e+001 -4.526786e+001 1.400000e+002
      vertex   -6.386249e+001 -4.870038e+001 1.050000e+002
      vertex   -6.284168e+001 -5.036980e+001 1.400000e+002
    endloop
  endfacet
  facet normal -8.729654e-001 -4.877810e-001 -1.097710e-003
    outer loop
      vertex   -6.582447e+001 -4.526786e+001 1.400000e+002
      vertex   -6.673843e+001 -4.355341e+001 1.050000e+002
      vertex   -6.386249e+001 -4.870038e+001 1.050000e+002
    endloop
  endfacet
  facet normal -8.915927e-001 -4.528369e-001 1.100416e-003
    outer loop
      vertex   -6.582447e+001 -4.526786e+001 1.400000e+002
      vertex   -6.850000e+001 -4.000000e+001 1.400000e+002
      vertex   -6.673843e+001 -4.355341e+001 1.050000e+002
    endloop
  endfacet
  facet normal -8.959487e-001 -4.441576e-001 0.000000e+000
    outer loop
      vertex   -6.673843e+001 -4.355341e+001 1.050000e+002
      vertex   -6.850000e+001 -4.000000e+001 1.400000e+002
      vertex   -6.673843e+001 -4.355341e+001 7.000000e+001
    endloop
  endfacet
  facet normal -8.729659e-001 -4.877813e-001 -0.000000e+000
    outer loop
      vertex   -6.386249e+001 -4.870038e+001 7.000000e+001
      vertex   -6.673843e+001 -4.355341e+001 1.050000e+002
      vertex   -6.673843e+001 -4.355341e+001 7.000000e+001
    endloop
  endfacet
  facet normal -8.632878e-001 -5.047116e-001 -5.526017e-004
    outer loop
      vertex   -6.582447e+001 -4.526786e+001 0.000000e+000
      vertex   -6.284168e+001 -5.036980e+001 0.000000e+000
      vertex   -6.386249e+001 -4.870038e+001 7.000000e+001
    endloop
  endfacet
  facet normal -8.427017e-001 -5.383805e-001 5.505701e-004
    outer loop
      vertex   -6.386249e+001 -4.870038e+001 7.000000e+001
      vertex   -6.284168e+001 -5.036980e+001 0.000000e+000
      vertex   -6.068822e+001 -5.366892e+001 7.000000e+001
    endloop
  endfacet
  facet normal -8.427018e-001 -5.383806e-001 0.000000e+000
    outer loop
      vertex   -6.386249e+001 -4.870038e+001 1.050000e+002
      vertex   -6.068822e+001 -5.366892e+001 7.000000e+001
      vertex   -6.068822e+001 -5.366892e+001 1.050000e+002
    endloop
  endfacet
  facet normal -8.319677e-001 -5.548230e-001 1.109178e-003
    outer loop
      vertex   -6.284168e+001 -5.036980e+001 1.400000e+002
      vertex   -6.068822e+001 -5.366892e+001 1.050000e+002
      vertex   -5.956273e+001 -5.528664e+001 1.400000e+002
    endloop
  endfacet
  facet normal -8.427013e-001 -5.383802e-001 -1.101140e-003
    outer loop
      vertex   -6.284168e+001 -5.036980e+001 1.400000e+002
      vertex   -6.386249e+001 -4.870038e+001 1.050000e+002
      vertex   -6.068822e+001 -5.366892e+001 1.050000e+002
    endloop
  endfacet
  facet normal -8.319680e-001 -5.548233e-001 -5.545891e-004
    outer loop
      vertex   -6.284168e+001 -5.036980e+001 0.000000e+000
      vertex   -5.956273e+001 -5.528664e+001 0.000000e+000
      vertex   -6.068822e+001 -5.366892e+001 7.000000e+001
    endloop
  endfacet
  facet normal -8.208390e-001 -5.711597e-001 1.890161e-006
    outer loop
      vertex   -6.068822e+001 -5.366892e+001 7.000000e+001
      vertex   -5.956273e+001 -5.528664e+001 0.000000e+000
      vertex   -5.955553e+001 -5.529676e+001 7.000000e+001
    endloop
  endfacet
  facet normal -8.208390e-001 -5.711597e-001 0.000000e+000
    outer loop
      vertex   -6.068822e+001 -5.366892e+001 1.050000e+002
      vertex   -5.955553e+001 -5.529676e+001 7.000000e+001
      vertex   -5.955553e+001 -5.529676e+001 1.050000e+002
    endloop
  endfacet
  facet normal -7.977428e-001 -6.029979e-001 1.016985e-005
    outer loop
      vertex   -5.956273e+001 -5.528664e+001 1.400000e+002
      vertex   -5.955553e+001 -5.529676e+001 1.050000e+002
      vertex   -5.600000e+001 -6.000000e+001 1.400000e+002
    endloop
  endfacet
  facet normal -8.208390e-001 -5.711597e-001 -3.780323e-006
    outer loop
      vertex   -5.956273e+001 -5.528664e+001 1.400000e+002
      vertex   -6.068822e+001 -5.366892e+001 1.050000e+002
      vertex   -5.955553e+001 -5.529676e+001 1.050000e+002
    endloop
  endfacet
  facet normal -7.977428e-001 -6.029979e-001 -5.084926e-006
    outer loop
      vertex   -5.956273e+001 -5.528664e+001 0.000000e+000
      vertex   -5.600000e+001 -6.000000e+001 0.000000e+000
      vertex   -5.955553e+001 -5.529676e+001 7.000000e+001
    endloop
  endfacet
  facet normal -7.977064e-001 -6.030460e-001 0.000000e+000
    outer loop
      vertex   -5.955553e+001 -5.529676e+001 7.000000e+001
      vertex   -5.600000e+001 -6.000000e+001 0.000000e+000
      vertex   -5.600000e+001 -6.000000e+001 1.400000e+002
    endloop
  endfacet
  facet normal -7.977064e-001 -6.030460e-001 -0.000000e+000
    outer loop
      vertex   -5.955553e+001 -5.529676e+001 1.050000e+002
      vertex   -5.955553e+001 -5.529676e+001 7.000000e+001
      vertex   -5.600000e+001 -6.000000e+001 1.400000e+002
    endloop
  endfacet
  facet normal -8.427018e-001 -5.383806e-001 -0.000000e+000
    outer loop
      vertex   -6.068822e+001 -5.366892e+001 7.000000e+001
      vertex   -6.386249e+001 -4.870038e+001 1.050000e+002
      vertex   -6.386249e+001 -4.870038e+001 7.000000e+001
    endloop
  endfacet
  facet normal -8.208390e-001 -5.711597e-001 -0.000000e+000
    outer loop
      vertex   -5.955553e+001 -5.529676e+001 7.000000e+001
      vertex   -6.068822e+001 -5.366892e+001 1.050000e+002
      vertex   -6.068822e+001 -5.366892e+001 7.000000e+001
    endloop
  endfacet
  facet normal -0.000000e+000 -1.000000e+000 0.000000e+000
    outer loop
      vertex   -6.850000e+001 -4.000000e+001 0.000000e+000
      vertex   -6.850000e+001 -4.000000e+001 1.400000e+002
      vertex   -7.000000e+001 -4.000000e+001 0.000000e+000
    endloop
  endfacet
  facet normal 0.000000e+000 -1.000000e+000 0.000000e+000
    outer loop
      vertex   -7.000000e+001 -4.000000e+001 0.000000e+000
      vertex   -6.850000e+001 -4.000000e+001 1.400000e+002
      vertex   -7.000000e+001 -4.000000e+001 1.400000e+002
    endloop
  endfacet
  facet normal -1.000000e+000 0.000000e+000 0.000000e+000
    outer loop
      vertex   -7.000000e+001 -4.000000e+001 0.000000e+000
      vertex   -7.000000e+001 -4.000000e+001 1.400000e+002
      vertex   -7.000000e+001 4.000000e+001 0.000000e+000
    endloop
  endfacet
  facet normal -1.000000e+000 0.000000e+000 0.000000e+000
    outer loop
      vertex   -7.000000e+001 4.000000e+001 0.000000e+000
      vertex   -7.000000e+001 -4.000000e+001 1.400000e+002
      vertex   -7.000000e+001 4.000000e+001 1.400000e+002
    endloop
  endfacet
  facet normal 0.000000e+000 -1.000000e+000 0.000000e+000
    outer loop
      vertex   -5.600000e+001 -6.000000e+001 0.000000e+000
      vertex   -3.824871e+001 -6.000000e+001 1.200000e+001
      vertex   -5.600000e+001 -6.000000e+001 1.400000e+002
    endloop
  endfacet
  facet normal 0.000000e+000 -1.000000e+000 0.000000e+000
    outer loop
      vertex   -5.600000e+001 -6.000000e+001 0.000000e+000
      vertex   -3.824871e+001 -6.000000e+001 4.000000e+000
      vertex   -3.824871e+001 -6.000000e+001 1.200000e+001
    endloop
  endfacet
  facet normal 0.000000e+000 -1.000000e+000 0.000000e+000
    outer loop
      vertex   -5.600000e+001 -6.000000e+001 0.000000e+000
      vertex   3.824871e+001 -6.000000e+001 4.000000e+000
      vertex   -3.824871e+001 -6.000000e+001 4.000000e+000
    endloop
  endfacet
  facet normal 0.000000e+000 -1.000000e+000 0.000000e+000
    outer loop
      vertex   -5.600000e+001 -6.000000e+001 0.000000e+000
      vertex   5.600000e+001 -6.000000e+001 0.000000e+000
      vertex   3.824871e+001 -6.000000e+001 4.000000e+000
    endloop
  endfacet
  facet normal 0.000000e+000 -1.000000e+000 0.000000e+000
    outer loop
      vertex   3.824871e+001 -6.000000e+001 4.000000e+000
      vertex   5.600000e+001 -6.000000e+001 0.000000e+000
      vertex   3.824871e+001 -6.000000e+001 1.200000e+001
    endloop
  endfacet
  facet normal 0.000000e+000 -1.000000e+000 0.000000e+000
    outer loop
      vertex   3.824871e+001 -6.000000e+001 1.200000e+001
      vertex   5.600000e+001 -6.000000e+001 0.000000e+000
      vertex   5.600000e+001 -6.000000e+001 1.400000e+002
    endloop
  endfacet
  facet normal 0.000000e+000 -1.000000e+000 0.000000e+000
    outer loop
      vertex   -5.600000e+001 -6.000000e+001 1.400000e+002
      vertex   3.824871e+001 -6.000000e+001 1.200000e+001
      vertex   5.600000e+001 -6.000000e+001 1.400000e+002
    endloop
  endfacet
  facet normal 0.000000e+000 -1.000000e+000 0.000000e+000
    outer loop
      vertex   -5.600000e+001 -6.000000e+001 1.400000e+002
      vertex   -3.824871e+001 -6.000000e+001 1.200000e+001
      vertex   3.824871e+001 -6.000000e+001 1.200000e+001
    endloop
  endfacet
  facet normal 8.915931e-001 -4.528371e-001 -5.502081e-004
    outer loop
      vertex   6.582447e+001 -4.526786e+001 0.000000e+000
      vertex   6.850000e+001 -4.000000e+001 0.000000e+000
      vertex   6.673843e+001 -4.355341e+001 7.000000e+001
    endloop
  endfacet
  facet normal 8.729659e-001 -4.877813e-001 0.000000e+000
    outer loop
      vertex   6.386249e+001 -4.870038e+001 7.000000e+001
      vertex   6.673843e+001 -4.355341e+001 7.000000e+001
      vertex   6.386249e+001 -4.870038e+001 1.050000e+002
    endloop
  endfacet
  facet normal 8.427013e-001 -5.383802e-001 -1.101140e-003
    outer loop
      vertex   6.068822e+001 -5.366892e+001 1.050000e+002
      vertex   6.386249e+001 -4.870038e+001 1.050000e+002
      vertex   6.284168e+001 -5.036980e+001 1.400000e+002
    endloop
  endfacet
  facet normal 8.319677e-001 -5.548230e-001 1.109178e-003
    outer loop
      vertex   5.956273e+001 -5.528664e+001 1.400000e+002
      vertex   6.068822e+001 -5.366892e+001 1.050000e+002
      vertex   6.284168e+001 -5.036980e+001 1.400000e+002
    endloop
  endfacet
  facet normal 8.208390e-001 -5.711597e-001 -3.780323e-006
    outer loop
      vertex   5.956273e+001 -5.528664e+001 1.400000e+002
      vertex   5.955553e+001 -5.529676e+001 1.050000e+002
      vertex   6.068822e+001 -5.366892e+001 1.050000e+002
    endloop
  endfacet
  facet normal 7.977428e-001 -6.029979e-001 1.016985e-005
    outer loop
      vertex   5.956273e+001 -5.528664e+001 1.400000e+002
      vertex   5.600000e+001 -6.000000e+001 1.400000e+002
      vertex   5.955553e+001 -5.529676e+001 1.050000e+002
    endloop
  endfacet
  facet normal 7.977064e-001 -6.030460e-001 0.000000e+000
    outer loop
      vertex   5.955553e+001 -5.529676e+001 1.050000e+002
      vertex   5.600000e+001 -6.000000e+001 1.400000e+002
      vertex   5.955553e+001 -5.529676e+001 7.000000e+001
    endloop
  endfacet
  facet normal 8.208390e-001 -5.711597e-001 1.890161e-006
    outer loop
      vertex   6.068822e+001 -5.366892e+001 7.000000e+001
      vertex   5.955553e+001 -5.529676e+001 7.000000e+001
      vertex   5.956273e+001 -5.528664e+001 0.000000e+000
    endloop
  endfacet
  facet normal 8.319680e-001 -5.548233e-001 -5.545891e-004
    outer loop
      vertex   6.284168e+001 -5.036980e+001 0.000000e+000
      vertex   6.068822e+001 -5.366892e+001 7.000000e+001
      vertex   5.956273e+001 -5.528664e+001 0.000000e+000
    endloop
  endfacet
  facet normal 8.427017e-001 -5.383805e-001 5.505701e-004
    outer loop
      vertex   6.284168e+001 -5.036980e+001 0.000000e+000
      vertex   6.386249e+001 -4.870038e+001 7.000000e+001
      vertex   6.068822e+001 -5.366892e+001 7.000000e+001
    endloop
  endfacet
  facet normal 8.632878e-001 -5.047116e-001 -5.526017e-004
    outer loop
      vertex   6.284168e+001 -5.036980e+001 0.000000e+000
      vertex   6.582447e+001 -4.526786e+001 0.000000e+000
      vertex   6.386249e+001 -4.870038e+001 7.000000e+001
    endloop
  endfacet
  facet normal 8.729658e-001 -4.877812e-001 5.488555e-004
    outer loop
      vertex   6.386249e+001 -4.870038e+001 7.000000e+001
      vertex   6.582447e+001 -4.526786e+001 0.000000e+000
      vertex   6.673843e+001 -4.355341e+001 7.000000e+001
    endloop
  endfacet
  facet normal 8.915927e-001 -4.528369e-001 1.100416e-003
    outer loop
      vertex   6.582447e+001 -4.526786e+001 1.400000e+002
      vertex   6.673843e+001 -4.355341e+001 1.050000e+002
      vertex   6.850000e+001 -4.000000e+001 1.400000e+002
    endloop
  endfacet
  facet normal 8.729654e-001 -4.877810e-001 -1.097710e-003
    outer loop
      vertex   6.582447e+001 -4.526786e+001 1.400000e+002
      vertex   6.386249e+001 -4.870038e+001 1.050000e+002
      vertex   6.673843e+001 -4.355341e+001 1.050000e+002
    endloop
  endfacet
  facet normal 8.632874e-001 -5.047114e-001 1.105203e-003
    outer loop
      vertex   6.582447e+001 -4.526786e+001 1.400000e+002
      vertex   6.284168e+001 -5.036980e+001 1.400000e+002
      vertex   6.386249e+001 -4.870038e+001 1.050000e+002
    endloop
  endfacet
  facet normal 7.977064e-001 -6.030460e-001 0.000000e+000
    outer loop
      vertex   5.600000e+001 -6.000000e+001 1.400000e+002
      vertex   5.600000e+001 -6.000000e+001 0.000000e+000
      vertex   5.955553e+001 -5.529676e+001 7.000000e+001
    endloop
  endfacet
  facet normal 7.977428e-001 -6.029979e-001 -5.084926e-006
    outer loop
      vertex   5.955553e+001 -5.529676e+001 7.000000e+001
      vertex   5.600000e+001 -6.000000e+001 0.000000e+000
      vertex   5.956273e+001 -5.528664e+001 0.000000e+000
    endloop
  endfacet
  facet normal 8.729659e-001 -4.877813e-001 9.902555e-017
    outer loop
      vertex   6.386249e+001 -4.870038e+001 1.050000e+002
      vertex   6.673843e+001 -4.355341e+001 7.000000e+001
      vertex   6.673843e+001 -4.355341e+001 1.050000e+002
    endloop
  endfacet
  facet normal 8.959487e-001 -4.441576e-001 9.016941e-017
    outer loop
      vertex   6.673843e+001 -4.355341e+001 1.050000e+002
      vertex   6.673843e+001 -4.355341e+001 7.000000e+001
      vertex   6.850000e+001 -4.000000e+001 1.400000e+002
    endloop
  endfacet
  facet normal 8.959487e-001 -4.441576e-001 0.000000e+000
    outer loop
      vertex   6.850000e+001 -4.000000e+001 1.400000e+002
      vertex   6.673843e+001 -4.355341e+001 7.000000e+001
      vertex   6.850000e+001 -4.000000e+001 0.000000e+000
    endloop
  endfacet
  facet normal 8.208390e-001 -5.711597e-001 0.000000e+000
    outer loop
      vertex   5.955553e+001 -5.529676e+001 1.050000e+002
      vertex   5.955553e+001 -5.529676e+001 7.000000e+001
      vertex   6.068822e+001 -5.366892e+001 7.000000e+001
    endloop
  endfacet
  facet normal 8.427018e-001 -5.383806e-001 0.000000e+000
    outer loop
      vertex   6.068822e+001 -5.366892e+001 1.050000e+002
      vertex   6.068822e+001 -5.366892e+001 7.000000e+001
      vertex   6.386249e+001 -4.870038e+001 7.000000e+001
    endloop
  endfacet
  facet normal 8.427018e-001 -5.383806e-001 0.000000e+000
    outer loop
      vertex   6.386249e+001 -4.870038e+001 1.050000e+002
      vertex   6.068822e+001 -5.366892e+001 1.050000e+002
      vertex   6.386249e+001 -4.870038e+001 7.000000e+001
    endloop
  endfacet
  facet normal 8.208390e-001 -5.711597e-001 0.000000e+000
    outer loop
      vertex   5.955553e+001 -5.529676e+001 1.050000e+002
      vertex   6.068822e+001 -5.366892e+001 7.000000e+001
      vertex   6.068822e+001 -5.366892e+001 1.050000e+002
    endloop
  endfacet
  facet normal 0.000000e+000 -1.000000e+000 0.000000e+000
    outer loop
      vertex   6.850000e+001 -4.000000e+001 1.400000e+002
      vertex   6.850000e+001 -4.000000e+001 0.000000e+000
      vertex   7.000000e+001 -4.000000e+001 1.400000e+002
    endloop
  endfacet
  facet normal 0.000000e+000 -1.000000e+000 -0.000000e+000
    outer loop
      vertex   7.000000e+001 -4.000000e+001 1.400000e+002
      vertex   6.850000e+001 -4.000000e+001 0.000000e+000
      vertex   7.000000e+001 -4.000000e+001 0.000000e+000
    endloop
  endfacet
  facet normal 1.000000e+000 -0.000000e+000 0.000000e+000
    outer loop
      vertex   7.000000e+001 -4.000000e+001 1.400000e+002
      vertex   7.000000e+001 -4.000000e+001 0.000000e+000
      vertex   7.000000e+001 4.000000e+001 1.400000e+002
    endloop
  endfacet
  facet normal 1.000000e+000 -0.000000e+000 0.000000e+000
    outer loop
      vertex   7.000000e+001 4.000000e+001 1.400000e+002
      vertex   7.000000e+001 -4.000000e+001 0.000000e+000
      vertex   7.000000e+001 4.000000e+001 0.000000e+000
    endloop
  endfacet
  facet normal -0.000000e+000 1.000000e+000 0.000000e+000
    outer loop
      vertex   6.850000e+001 4.000000e+001 0.000000e+000
      vertex   6.850000e+001 4.000000e+001 1.400000e+002
      vertex   7.000000e+001 4.000000e+001 0.000000e+000
    endloop
  endfacet
  facet normal 0.000000e+000 1.000000e+000 -0.000000e+000
    outer loop
      vertex   7.000000e+001 4.000000e+001 0.000000e+000
      vertex   6.850000e+001 4.000000e+001 1.400000e+002
      vertex   7.000000e+001 4.000000e+001 1.400000e+002
    endloop
  endfacet
  facet normal 8.959487e-001 4.441576e-001 0.000000e+000
    outer loop
      vertex   6.850000e+001 4.000000e+001 1.400000e+002
      vertex   6.850000e+001 4.000000e+001 0.000000e+000
      vertex   6.673843e+001 4.355341e+001 7.000000e+001
    endloop
  endfacet
  facet normal 8.729659e-001 4.877813e-001 0.000000e+000
    outer loop
      vertex   6.673843e+001 4.355341e+001 1.050000e+002
      vertex   6.673843e+001 4.355341e+001 7.000000e+001
      vertex   6.386249e+001 4.870038e+001 7.000000e+001
    endloop
  endfacet
  facet normal 8.427018e-001 5.383806e-001 0.000000e+000
    outer loop
      vertex   6.386249e+001 4.870038e+001 1.050000e+002
      vertex   6.386249e+001 4.870038e+001 7.000000e+001
      vertex   6.068822e+001 5.366892e+001 7.000000e+001
    endloop
  endfacet
  facet normal 8.208390e-001 5.711597e-001 0.000000e+000
    outer loop
      vertex   6.068822e+001 5.366892e+001 1.050000e+002
      vertex   6.068822e+001 5.366892e+001 7.000000e+001
      vertex   5.955553e+001 5.529676e+001 7.000000e+001
    endloop
  endfacet
  facet normal 7.977064e-001 6.030460e-001 0.000000e+000
    outer loop
      vertex   5.955553e+001 5.529676e+001 1.050000e+002
      vertex   5.955553e+001 5.529676e+001 7.000000e+001
      vertex   5.600000e+001 6.000000e+001 1.400000e+002
    endloop
  endfacet
  facet normal 7.977428e-001 6.029979e-001 1.016985e-005
    outer loop
      vertex   5.956273e+001 5.528664e+001 1.400000e+002
      vertex   5.955553e+001 5.529676e+001 1.050000e+002
      vertex   5.600000e+001 6.000000e+001 1.400000e+002
    endloop
  endfacet
  facet normal 8.208390e-001 5.711597e-001 -3.780323e-006
    outer loop
      vertex   5.956273e+001 5.528664e+001 1.400000e+002
      vertex   6.068822e+001 5.366892e+001 1.050000e+002
      vertex   5.955553e+001 5.529676e+001 1.050000e+002
    endloop
  endfacet
  facet normal 8.319677e-001 5.548230e-001 1.109178e-003
    outer loop
      vertex   5.956273e+001 5.528664e+001 1.400000e+002
      vertex   6.284168e+001 5.036980e+001 1.400000e+002
      vertex   6.068822e+001 5.366892e+001 1.050000e+002
    endloop
  endfacet
  facet normal 8.427013e-001 5.383802e-001 -1.101140e-003
    outer loop
      vertex   6.068822e+001 5.366892e+001 1.050000e+002
      vertex   6.284168e+001 5.036980e+001 1.400000e+002
      vertex   6.386249e+001 4.870038e+001 1.050000e+002
    endloop
  endfacet
  facet normal 8.427018e-001 5.383806e-001 -0.000000e+000
    outer loop
      vertex   6.068822e+001 5.366892e+001 7.000000e+001
      vertex   6.068822e+001 5.366892e+001 1.050000e+002
      vertex   6.386249e+001 4.870038e+001 1.050000e+002
    endloop
  endfacet
  facet normal 8.632878e-001 5.047116e-001 -5.526017e-004
    outer loop
      vertex   6.284168e+001 5.036980e+001 0.000000e+000
      vertex   6.386249e+001 4.870038e+001 7.000000e+001
      vertex   6.582447e+001 4.526786e+001 0.000000e+000
    endloop
  endfacet
  facet normal 8.427017e-001 5.383805e-001 5.505701e-004
    outer loop
      vertex   6.284168e+001 5.036980e+001 0.000000e+000
      vertex   6.068822e+001 5.366892e+001 7.000000e+001
      vertex   6.386249e+001 4.870038e+001 7.000000e+001
    endloop
  endfacet
  facet normal 8.319680e-001 5.548233e-001 -5.545891e-004
    outer loop
      vertex   6.284168e+001 5.036980e+001 0.000000e+000
      vertex   5.956273e+001 5.528664e+001 0.000000e+000
      vertex   6.068822e+001 5.366892e+001 7.000000e+001
    endloop
  endfacet
  facet normal 8.208390e-001 5.711597e-001 1.890161e-006
    outer loop
      vertex   6.068822e+001 5.366892e+001 7.000000e+001
      vertex   5.956273e+001 5.528664e+001 0.000000e+000
      vertex   5.955553e+001 5.529676e+001 7.000000e+001
    endloop
  endfacet
  facet normal 7.977428e-001 6.029979e-001 -5.084926e-006
    outer loop
      vertex   5.955553e+001 5.529676e+001 7.000000e+001
      vertex   5.956273e+001 5.528664e+001 0.000000e+000
      vertex   5.600000e+001 6.000000e+001 0.000000e+000
    endloop
  endfacet
  facet normal 7.977064e-001 6.030460e-001 0.000000e+000
    outer loop
      vertex   5.600000e+001 6.000000e+001 1.400000e+002
      vertex   5.955553e+001 5.529676e+001 7.000000e+001
      vertex   5.600000e+001 6.000000e+001 0.000000e+000
    endloop
  endfacet
  facet normal 8.632874e-001 5.047114e-001 1.105203e-003
    outer loop
      vertex   6.284168e+001 5.036980e+001 1.400000e+002
      vertex   6.582447e+001 4.526786e+001 1.400000e+002
      vertex   6.386249e+001 4.870038e+001 1.050000e+002
    endloop
  endfacet
  facet normal 8.729654e-001 4.877810e-001 -1.097710e-003
    outer loop
      vertex   6.386249e+001 4.870038e+001 1.050000e+002
      vertex   6.582447e+001 4.526786e+001 1.400000e+002
      vertex   6.673843e+001 4.355341e+001 1.050000e+002
    endloop
  endfacet
  facet normal 8.729659e-001 4.877813e-001 -0.000000e+000
    outer loop
      vertex   6.386249e+001 4.870038e+001 7.000000e+001
      vertex   6.386249e+001 4.870038e+001 1.050000e+002
      vertex   6.673843e+001 4.355341e+001 1.050000e+002
    endloop
  endfacet
  facet normal 8.915927e-001 4.528369e-001 1.100416e-003
    outer loop
      vertex   6.582447e+001 4.526786e+001 1.400000e+002
      vertex   6.850000e+001 4.000000e+001 1.400000e+002
      vertex   6.673843e+001 4.355341e+001 1.050000e+002
    endloop
  endfacet
  facet normal 8.959487e-001 4.441576e-001 0.000000e+000
    outer loop
      vertex   6.673843e+001 4.355341e+001 1.050000e+002
      vertex   6.850000e+001 4.000000e+001 1.400000e+002
      vertex   6.673843e+001 4.355341e+001 7.000000e+001
    endloop
  endfacet
  facet normal 8.208390e-001 5.711597e-001 -0.000000e+000
    outer loop
      vertex   6.068822e+001 5.366892e+001 1.050000e+002
      vertex   5.955553e+001 5.529676e+001 7.000000e+001
      vertex   5.955553e+001 5.529676e+001 1.050000e+002
    endloop
  endfacet
  facet normal 8.915931e-001 4.528371e-001 -5.502081e-004
    outer loop
      vertex   6.850000e+001 4.000000e+001 0.000000e+000
      vertex   6.582447e+001 4.526786e+001 0.000000e+000
      vertex   6.673843e+001 4.355341e+001 7.000000e+001
    endloop
  endfacet
  facet normal 8.729658e-001 4.877812e-001 5.488555e-004
    outer loop
      vertex   6.673843e+001 4.355341e+001 7.000000e+001
      vertex   6.582447e+001 4.526786e+001 0.000000e+000
      vertex   6.386249e+001 4.870038e+001 7.000000e+001
    endloop
  endfacet
  facet normal -0.000000e+000 1.000000e+000 0.000000e+000
    outer loop
      vertex   -5.600000e+001 6.000000e+001 0.000000e+000
      vertex   -5.600000e+001 6.000000e+001 1.400000e+002
      vertex   5.600000e+001 6.000000e+001 0.000000e+000
    endloop
  endfacet
  facet normal 0.000000e+000 1.000000e+000 -0.000000e+000
    outer loop
      vertex   5.600000e+001 6.000000e+001 0.000000e+000
      vertex   -5.600000e+001 6.000000e+001 1.400000e+002
      vertex   5.600000e+001 6.000000e+001 1.400000e+002
    endloop
  endfacet
  facet normal 0.000000e+000 -0.000000e+000 -1.000000e+000
    outer loop
      vertex   -3.824871e+001 -6.000000e+001 4.000000e+000
      vertex   3.824871e+001 -6.000000e+001 4.000000e+000
      vertex   -3.500000e+000 -8.006218e+001 4.000000e+000
    endloop
  endfacet
  facet normal 0.000000e+000 -0.000000e+000 -1.000000e+000
    outer loop
      vertex   -3.500000e+000 -8.006218e+001 4.000000e+000
      vertex   3.824871e+001 -6.000000e+001 4.000000e+000
      vertex   3.500000e+000 -8.006218e+001 4.000000e+000
    endloop
  endfacet
  facet normal 0.000000e+000 -0.000000e+000 -1.000000e+000
    outer loop
      vertex   -1.215537e+000 -8.089365e+001 4.000000e+000
      vertex   3.500000e+000 -8.006218e+001 4.000000e+000
      vertex   1.215537e+000 -8.089365e+001 4.000000e+000
    endloop
  endfacet
  facet normal 0.000000e+000 0.000000e+000 -1.000000e+000
    outer loop
      vertex   -1.215537e+000 -8.089365e+001 4.000000e+000
      vertex   -3.500000e+000 -8.006218e+001 4.000000e+000
      vertex   3.500000e+000 -8.006218e+001 4.000000e+000
    endloop
  endfacet
  facet normal -5.000000e-001 -8.660254e-001 -0.000000e+000
    outer loop
      vertex   -3.824871e+001 -6.000000e+001 1.200000e+001
      vertex   -3.824871e+001 -6.000000e+001 4.000000e+000
      vertex   -3.500000e+000 -8.006218e+001 1.200000e+001
    endloop
  endfacet
  facet normal -5.000000e-001 -8.660254e-001 0.000000e+000
    outer loop
      vertex   -3.500000e+000 -8.006218e+001 1.200000e+001
      vertex   -3.824871e+001 -6.000000e+001 4.000000e+000
      vertex   -3.500000e+000 -8.006218e+001 4.000000e+000
    endloop
  endfacet
  facet normal 0.000000e+000 0.000000e+000 1.000000e+000
    outer loop
      vertex   3.824871e+001 -6.000000e+001 1.200000e+001
      vertex   -3.824871e+001 -6.000000e+001 1.200000e+001
      vertex   3.500000e+000 -8.006218e+001 1.200000e+001
    endloop
  endfacet
  facet normal 0.000000e+000 0.000000e+000 1.000000e+000
    outer loop
      vertex   3.500000e+000 -8.006218e+001 1.200000e+001
      vertex   -3.824871e+001 -6.000000e+001 1.200000e+001
      vertex   -3.500000e+000 -8.006218e+001 1.200000e+001
    endloop
  endfacet
  facet normal 0.000000e+000 0.000000e+000 1.000000e+000
    outer loop
      vertex   1.215537e+000 -8.089365e+001 1.200000e+001
      vertex   -3.500000e+000 -8.006218e+001 1.200000e+001
      vertex   -1.215537e+000 -8.089365e+001 1.200000e+001
    endloop
  endfacet
  facet normal 0.000000e+000 -0.000000e+000 1.000000e+000
    outer loop
      vertex   1.215537e+000 -8.089365e+001 1.200000e+001
      vertex   3.500000e+000 -8.006218e+001 1.200000e+001
      vertex   -3.500000e+000 -8.006218e+001 1.200000e+001
    endloop
  endfacet
  facet normal 5.000000e-001 -8.660254e-001 0.000000e+000
    outer loop
      vertex   3.824871e+001 -6.000000e+001 4.000000e+000
      vertex   3.824871e+001 -6.000000e+001 1.200000e+001
      vertex   3.500000e+000 -8.006218e+001 4.000000e+000
    endloop
  endfacet
  facet normal 5.000000e-001 -8.660254e-001 0.000000e+000
    outer loop
      vertex   3.500000e+000 -8.006218e+001 4.000000e+000
      vertex   3.824871e+001 -6.000000e+001 1.200000e+001
      vertex   3.500000e+000 -8.006218e+001 1.200000e+001
    endloop
  endfacet
  facet normal -3.420201e-001 -9.396926e-001 0.000000e+000
    outer loop
      vertex   -3.500000e+000 -8.006218e+001 4.000000e+000
      vertex   -1.215537e+000 -8.089365e+001 4.000000e+000
      vertex   -3.500000e+000 -8.006218e+001 1.200000e+001
    endloop
  endfacet
  facet normal -3.420201e-001 -9.396926e-001 0.000000e+000
    outer loop
      vertex   -3.500000e+000 -8.006218e+001 1.200000e+001
      vertex   -1.215537e+000 -8.089365e+001 4.000000e+000
      vertex   -1.215537e+000 -8.089365e+001 1.200000e+001
    endloop
  endfacet
  facet normal -2.338201e-014 -1.000000e+000 -0.000000e+000
    outer loop
      vertex   -1.215537e+000 -8.089365e+001 1.200000e+001
      vertex   -1.215537e+000 -8.089365e+001 4.000000e+000
      vertex   1.215537e+000 -8.089365e+001 1.200000e+001
    endloop
  endfacet
  facet normal -2.338201e-014 -1.000000e+000 0.000000e+000
    outer loop
      vertex   1.215537e+000 -8.089365e+001 1.200000e+001
      vertex   -1.215537e+000 -8.089365e+001 4.000000e+000
      vertex   1.215537e+000 -8.089365e+001 4.000000e+000
    endloop
  endfacet
  facet normal 3.420201e-001 -9.396926e-001 0.000000e+000
    outer loop
      vertex   3.500000e+000 -8.006218e+001 4.000000e+000
      vertex   1.215537e+000 -8.089365e+001 1.200000e+001
      vertex   1.215537e+000 -8.089365e+001 4.000000e+000
    endloop
  endfacet
  facet normal 3.420201e-001 -9.396926e-001 0.000000e+000
    outer loop
      vertex   3.500000e+000 -8.006218e+001 4.000000e+000
      vertex   3.500000e+000 -8.006218e+001 1.200000e+001
      vertex   1.215537e+000 -8.089365e+001 1.200000e+001
    endloop
  endfacet
endsolid