solid ascii
  facet normal -3.197395e-015 3.197395e-015 -1.000000e+000
    outer loop
      vertex   2.250004e+001 2.444571e+001 1.935000e+003
      vertex   2.250004e+001 9.555787e+001 1.935000e+003
      vertex   3.680612e+001 3.875179e+001 1.935000e+003
    endloop
  endfacet
  facet normal -1.589349e-014 2.615143e-021 -1.000000e+000
    outer loop
      vertex   3.680612e+001 3.875179e+001 1.935000e+003
      vertex   2.250004e+001 9.555787e+001 1.935000e+003
      vertex   3.680612e+001 8.125179e+001 1.935000e+003
    endloop
  endfacet
  facet normal -0.000000e+000 0.000000e+000 -1.000000e+000
    outer loop
      vertex   4.250004e+001 6.000179e+001 1.935000e+003
      vertex   3.680612e+001 3.875179e+001 1.935000e+003
      vertex   3.680612e+001 8.125179e+001 1.935000e+003
    endloop
  endfacet
  facet normal 1.000000e+000 -1.156878e-008 0.000000e+000
    outer loop
      vertex   2.250004e+001 1.025018e+002 1.935000e+003
      vertex   2.250004e+001 9.555787e+001 1.935000e+003
      vertex   2.250004e+001 1.025018e+002 1.930000e+003
    endloop
  endfacet
  facet normal 1.000000e+000 4.995930e-015 1.606655e-008
    outer loop
      vertex   2.250004e+001 1.025018e+002 1.930000e+003
      vertex   2.250004e+001 9.555787e+001 1.935000e+003
      vertex   2.250004e+001 2.444571e+001 1.935000e+003
    endloop
  endfacet
  facet normal 1.000000e+000 1.156873e-008 2.000107e-011
    outer loop
      vertex   2.250004e+001 1.750179e+001 1.930000e+003
      vertex   2.250004e+001 2.444571e+001 1.935000e+003
      vertex   2.250004e+001 1.750179e+001 1.935000e+003
    endloop
  endfacet
  facet normal 1.000000e+000 1.176533e-012 1.608483e-008
    outer loop
      vertex   2.250004e+001 1.750179e+001 1.930000e+003
      vertex   2.250004e+001 1.025018e+002 1.930000e+003
      vertex   2.250004e+001 2.444571e+001 1.935000e+003
    endloop
  endfacet
  facet normal 0.000000e+000 0.000000e+000 -1.000000e+000
    outer loop
      vertex   2.250004e+001 1.750179e+001 1.930000e+003
      vertex   -2.749996e+001 1.750179e+001 1.930000e+003
      vertex   2.250004e+001 1.025018e+002 1.930000e+003
    endloop
  endfacet
  facet normal -0.000000e+000 0.000000e+000 -1.000000e+000
    outer loop
      vertex   2.250004e+001 1.025018e+002 1.930000e+003
      vertex   -2.749996e+001 1.750179e+001 1.930000e+003
      vertex   -2.749996e+001 1.025018e+002 1.930000e+003
    endloop
  endfacet
  facet normal -5.233441e-008 -1.000000e+000 9.021406e-011
    outer loop
      vertex   2.250004e+001 1.750179e+001 1.935000e+003
      vertex   4.139083e-005 1.750179e+001 1.935000e+003
      vertex   2.250004e+001 1.750179e+001 1.930000e+003
    endloop
  endfacet
  facet normal 0.000000e+000 -1.000000e+000 2.355950e-007
    outer loop
      vertex   2.250004e+001 1.750179e+001 1.930000e+003
      vertex   4.139083e-005 1.750179e+001 1.935000e+003
      vertex   -2.749996e+001 1.750179e+001 1.930000e+003
    endloop
  endfacet
  facet normal 2.770998e-008 -1.000000e+000 8.319010e-008
    outer loop
      vertex   -2.749996e+001 1.750179e+001 1.930000e+003
      vertex   4.139083e-005 1.750179e+001 1.935000e+003
      vertex   -4.249997e+001 1.750179e+001 1.935000e+003
    endloop
  endfacet
  facet normal -2.391716e-011 -1.000000e+000 -1.160904e-011
    outer loop
      vertex   -4.249997e+001 1.750179e+001 1.880000e+003
      vertex   -2.749996e+001 1.750179e+001 1.930000e+003
      vertex   -4.249997e+001 1.750179e+001 1.935000e+003
    endloop
  endfacet
  facet normal -6.261396e-011 -1.000000e+000 0.000000e+000
    outer loop
      vertex   -4.249997e+001 1.750179e+001 1.880000e+003
      vertex   -2.749996e+001 1.750179e+001 1.880000e+003
      vertex   -2.749996e+001 1.750179e+001 1.930000e+003
    endloop
  endfacet
  facet normal 1.505467e-011 9.659705e-001 -2.586523e-001
    outer loop
      vertex   -2.749996e+001 9.681184e+001 1.858750e+003
      vertex   -4.249997e+001 9.681184e+001 1.858750e+003
      vertex   -2.749996e+001 1.009485e+002 1.874199e+003
    endloop
  endfacet
  facet normal -5.888799e-008 9.659705e-001 -2.586522e-001
    outer loop
      vertex   -2.749996e+001 1.009485e+002 1.874199e+003
      vertex   -4.249997e+001 9.681184e+001 1.858750e+003
      vertex   -4.249997e+001 1.025018e+002 1.880000e+003
    endloop
  endfacet
  facet normal 3.230792e-011 9.659705e-001 -2.586521e-001
    outer loop
      vertex   -2.749996e+001 1.025018e+002 1.880000e+003
      vertex   -2.749996e+001 1.009485e+002 1.874199e+003
      vertex   -4.249997e+001 1.025018e+002 1.880000e+003
    endloop
  endfacet
  facet normal -1.000000e+000 0.000000e+000 -0.000000e+000
    outer loop
      vertex   -2.749996e+001 1.009485e+002 1.874199e+003
      vertex   -2.749996e+001 1.010018e+002 1.874000e+003
      vertex   -2.749996e+001 9.681184e+001 1.858750e+003
    endloop
  endfacet
  facet normal -1.000000e+000 0.000000e+000 -0.000000e+000
    outer loop
      vertex   -2.749996e+001 9.681184e+001 1.858750e+003
      vertex   -2.749996e+001 1.010018e+002 1.874000e+003
      vertex   -2.749996e+001 9.550884e+001 1.853500e+003
    endloop
  endfacet
  facet normal -1.000000e+000 0.000000e+000 -0.000000e+000
    outer loop
      vertex   -2.749996e+001 8.125163e+001 1.843190e+003
      vertex   -2.749996e+001 9.550884e+001 1.853500e+003
      vertex   -2.749996e+001 8.050180e+001 1.838493e+003
    endloop
  endfacet
  facet normal -1.000000e+000 0.000000e+000 -0.000000e+000
    outer loop
      vertex   -2.749996e+001 6.000202e+001 1.837500e+003
      vertex   -2.749996e+001 8.050180e+001 1.838493e+003
      vertex   -2.749996e+001 6.000180e+001 1.833000e+003
    endloop
  endfacet
  facet normal -1.000000e+000 0.000000e+000 -0.000000e+000
    outer loop
      vertex   -2.749996e+001 3.950176e+001 1.838493e+003
      vertex   -2.749996e+001 6.000202e+001 1.837500e+003
      vertex   -2.749996e+001 6.000180e+001 1.833000e+003
    endloop
  endfacet
  facet normal -1.000000e+000 -3.692317e-017 -7.622689e-016
    outer loop
      vertex   -2.749996e+001 3.950176e+001 1.838493e+003
      vertex   -2.749996e+001 3.875163e+001 1.843190e+003
      vertex   -2.749996e+001 6.000202e+001 1.837500e+003
    endloop
  endfacet
  facet normal -1.000000e+000 -9.001284e-016 -9.001256e-016
    outer loop
      vertex   -2.749996e+001 3.950176e+001 1.838493e+003
      vertex   -2.749996e+001 2.449475e+001 1.853500e+003
      vertex   -2.749996e+001 3.875163e+001 1.843190e+003
    endloop
  endfacet
  facet normal -1.000000e+000 -3.037011e-016 -7.537488e-017
    outer loop
      vertex   -2.749996e+001 3.875163e+001 1.843190e+003
      vertex   -2.749996e+001 2.449475e+001 1.853500e+003
      vertex   -2.749996e+001 2.319179e+001 1.858750e+003
    endloop
  endfacet
  facet normal -1.000000e+000 -0.000000e+000 -0.000000e+000
    outer loop
      vertex   -2.749996e+001 2.319179e+001 1.858750e+003
      vertex   -2.749996e+001 2.449475e+001 1.853500e+003
      vertex   -2.749996e+001 1.900179e+001 1.874000e+003
    endloop
  endfacet
  facet normal -1.000000e+000 -0.000000e+000 -0.000000e+000
    outer loop
      vertex   -2.749996e+001 1.905509e+001 1.874199e+003
      vertex   -2.749996e+001 2.319179e+001 1.858750e+003
      vertex   -2.749996e+001 1.900179e+001 1.874000e+003
    endloop
  endfacet
  facet normal -1.000000e+000 0.000000e+000 0.000000e+000
    outer loop
      vertex   -2.749996e+001 9.681184e+001 1.858750e+003
      vertex   -2.749996e+001 9.550884e+001 1.853500e+003
      vertex   -2.749996e+001 8.125163e+001 1.843190e+003
    endloop
  endfacet
  facet normal -1.000000e+000 0.000000e+000 0.000000e+000
    outer loop
      vertex   -2.749996e+001 8.125163e+001 1.843190e+003
      vertex   -2.749996e+001 8.050180e+001 1.838493e+003
      vertex   -2.749996e+001 6.000202e+001 1.837500e+003
    endloop
  endfacet
  facet normal -1.484034e-011 7.071078e-001 -7.071057e-001
    outer loop
      vertex   -4.249997e+001 9.681184e+001 1.858750e+003
      vertex   -2.749996e+001 9.681184e+001 1.858750e+003
      vertex   -4.249997e+001 8.125163e+001 1.843190e+003
    endloop
  endfacet
  facet normal -1.587016e-011 7.071078e-001 -7.071057e-001
    outer loop
      vertex   -4.249997e+001 8.125163e+001 1.843190e+003
      vertex   -2.749996e+001 9.681184e+001 1.858750e+003
      vertex   -2.749996e+001 8.125163e+001 1.843190e+003
    endloop
  endfacet
  facet normal -2.588190e-001 9.659258e-001 1.694299e-007
    outer loop
      vertex   5.842660e-005 1.025018e+002 1.947000e+003
      vertex   5.691227e-005 1.025018e+002 1.935000e+003
      vertex   -2.124999e+001 9.680786e+001 1.947000e+003
    endloop
  endfacet
  facet normal -2.588191e-001 9.659258e-001 -3.542755e-012
    outer loop
      vertex   -2.124999e+001 9.680786e+001 1.947000e+003
      vertex   5.691227e-005 1.025018e+002 1.935000e+003
      vertex   -2.124999e+001 9.680786e+001 1.935000e+003
    endloop
  endfacet
  facet normal -7.071072e-001 7.071063e-001 3.546533e-012
    outer loop
      vertex   -2.124999e+001 9.680786e+001 1.947000e+003
      vertex   -2.124999e+001 9.680786e+001 1.935000e+003
      vertex   -3.680605e+001 8.125177e+001 1.947000e+003
    endloop
  endfacet
  facet normal -7.071072e-001 7.071063e-001 -3.225167e-012
    outer loop
      vertex   -3.680605e+001 8.125177e+001 1.947000e+003
      vertex   -2.124999e+001 9.680786e+001 1.935000e+003
      vertex   -3.680605e+001 8.125177e+001 1.935000e+003
    endloop
  endfacet
  facet normal -9.659260e-001 2.588186e-001 8.234246e-008
    outer loop
      vertex   -4.249996e+001 6.000177e+001 1.947000e+003
      vertex   -3.680605e+001 8.125177e+001 1.947000e+003
      vertex   -4.249996e+001 6.000177e+001 1.935000e+003
    endloop
  endfacet
  facet normal -9.659259e-001 2.588186e-001 3.225397e-012
    outer loop
      vertex   -4.249996e+001 6.000177e+001 1.935000e+003
      vertex   -3.680605e+001 8.125177e+001 1.947000e+003
      vertex   -3.680605e+001 8.125177e+001 1.935000e+003
    endloop
  endfacet
  facet normal 7.071066e-001 7.071069e-001 5.101148e-009
    outer loop
      vertex   3.550708e+001 8.050180e+001 1.965000e+003
      vertex   3.550708e+001 8.050180e+001 1.947000e+003
      vertex   2.050005e+001 9.550882e+001 1.965000e+003
    endloop
  endfacet
  facet normal 7.071066e-001 7.071069e-001 -2.231975e-016
    outer loop
      vertex   2.050005e+001 9.550882e+001 1.965000e+003
      vertex   3.550708e+001 8.050180e+001 1.947000e+003
      vertex   2.050005e+001 9.550882e+001 1.947000e+003
    endloop
  endfacet
  facet normal 2.588194e-001 9.659257e-001 -1.021679e-016
    outer loop
      vertex   2.050005e+001 9.550882e+001 1.965000e+003
      vertex   2.050005e+001 9.550882e+001 1.947000e+003
      vertex   3.800002e-005 1.010018e+002 1.965000e+003
    endloop
  endfacet
  facet normal 2.588194e-001 9.659257e-001 0.000000e+000
    outer loop
      vertex   3.800002e-005 1.010018e+002 1.965000e+003
      vertex   2.050005e+001 9.550882e+001 1.947000e+003
      vertex   3.800002e-005 1.010018e+002 1.947000e+003
    endloop
  endfacet
  facet normal -2.588192e-001 9.659258e-001 0.000000e+000
    outer loop
      vertex   3.800002e-005 1.010018e+002 1.965000e+003
      vertex   3.800002e-005 1.010018e+002 1.947000e+003
      vertex   -2.049997e+001 9.550883e+001 1.965000e+003
    endloop
  endfacet
  facet normal -2.588192e-001 9.659258e-001 -1.115986e-016
    outer loop
      vertex   -2.049997e+001 9.550883e+001 1.965000e+003
      vertex   3.800002e-005 1.010018e+002 1.947000e+003
      vertex   -2.049997e+001 9.550883e+001 1.947000e+003
    endloop
  endfacet
  facet normal -7.071073e-001 7.071063e-001 -2.791277e-016
    outer loop
      vertex   -2.049997e+001 9.550883e+001 1.965000e+003
      vertex   -2.049997e+001 9.550883e+001 1.947000e+003
      vertex   -3.550701e+001 8.050177e+001 1.965000e+003
    endloop
  endfacet
  facet normal -7.071073e-001 7.071063e-001 0.000000e+000
    outer loop
      vertex   -3.550701e+001 8.050177e+001 1.965000e+003
      vertex   -2.049997e+001 9.550883e+001 1.947000e+003
      vertex   -3.550701e+001 8.050177e+001 1.947000e+003
    endloop
  endfacet
  facet normal -9.659259e-001 2.588187e-001 0.000000e+000
    outer loop
      vertex   -3.550701e+001 8.050177e+001 1.965000e+003
      vertex   -3.550701e+001 8.050177e+001 1.947000e+003
      vertex   -4.099996e+001 6.000177e+001 1.965000e+003
    endloop
  endfacet
  facet normal -9.659259e-001 2.588187e-001 0.000000e+000
    outer loop
      vertex   -4.099996e+001 6.000177e+001 1.965000e+003
      vertex   -3.550701e+001 8.050177e+001 1.947000e+003
      vertex   -4.099996e+001 6.000177e+001 1.947000e+003
    endloop
  endfacet
  facet normal -9.659256e-001 -2.588198e-001 -0.000000e+000
    outer loop
      vertex   -4.099996e+001 6.000177e+001 1.965000e+003
      vertex   -4.099996e+001 6.000177e+001 1.947000e+003
      vertex   -3.550699e+001 3.950178e+001 1.965000e+003
    endloop
  endfacet
  facet normal -9.659256e-001 -2.588198e-001 0.000000e+000
    outer loop
      vertex   -3.550699e+001 3.950178e+001 1.965000e+003
      vertex   -4.099996e+001 6.000177e+001 1.947000e+003
      vertex   -3.550699e+001 3.950178e+001 1.947000e+003
    endloop
  endfacet
  facet normal -7.071067e-001 -7.071069e-001 -0.000000e+000
    outer loop
      vertex   -3.550699e+001 3.950178e+001 1.965000e+003
      vertex   -3.550699e+001 3.950178e+001 1.947000e+003
      vertex   -2.049995e+001 2.449474e+001 1.965000e+003
    endloop
  endfacet
  facet normal -7.071067e-001 -7.071069e-001 0.000000e+000
    outer loop
      vertex   -2.049995e+001 2.449474e+001 1.965000e+003
      vertex   -3.550699e+001 3.950178e+001 1.947000e+003
      vertex   -2.049995e+001 2.449474e+001 1.947000e+003
    endloop
  endfacet
  facet normal -2.588187e-001 -9.659259e-001 -0.000000e+000
    outer loop
      vertex   -2.049995e+001 2.449474e+001 1.965000e+003
      vertex   -2.049995e+001 2.449474e+001 1.947000e+003
      vertex   4.720758e-005 1.900179e+001 1.965000e+003
    endloop
  endfacet
  facet normal -2.588187e-001 -9.659259e-001 -1.487982e-016
    outer loop
      vertex   4.720758e-005 1.900179e+001 1.965000e+003
      vertex   -2.049995e+001 2.449474e+001 1.947000e+003
      vertex   4.720758e-005 1.900179e+001 1.947000e+003
    endloop
  endfacet
  facet normal 2.588192e-001 -9.659258e-001 1.057291e-016
    outer loop
      vertex   4.720758e-005 1.900179e+001 1.965000e+003
      vertex   4.720758e-005 1.900179e+001 1.947000e+003
      vertex   2.050004e+001 2.449475e+001 1.965000e+003
    endloop
  endfacet
  facet normal 2.588192e-001 -9.659258e-001 7.439911e-017
    outer loop
      vertex   2.050004e+001 2.449475e+001 1.965000e+003
      vertex   4.720758e-005 1.900179e+001 1.947000e+003
      vertex   2.050004e+001 2.449475e+001 1.947000e+003
    endloop
  endfacet
  facet normal 7.071069e-001 -7.071067e-001 1.395638e-016
    outer loop
      vertex   2.050004e+001 2.449475e+001 1.965000e+003
      vertex   2.050004e+001 2.449475e+001 1.947000e+003
      vertex   3.550708e+001 3.950180e+001 1.965000e+003
    endloop
  endfacet
  facet normal 7.071069e-001 -7.071067e-001 0.000000e+000
    outer loop
      vertex   3.550708e+001 3.950180e+001 1.965000e+003
      vertex   2.050004e+001 2.449475e+001 1.947000e+003
      vertex   3.550708e+001 3.950180e+001 1.947000e+003
    endloop
  endfacet
  facet normal 9.659258e-001 -2.588190e-001 0.000000e+000
    outer loop
      vertex   3.550708e+001 3.950180e+001 1.965000e+003
      vertex   3.550708e+001 3.950180e+001 1.947000e+003
      vertex   4.100004e+001 6.000180e+001 1.965000e+003
    endloop
  endfacet
  facet normal 9.659258e-001 -2.588190e-001 0.000000e+000
    outer loop
      vertex   4.100004e+001 6.000180e+001 1.965000e+003
      vertex   3.550708e+001 3.950180e+001 1.947000e+003
      vertex   4.100004e+001 6.000180e+001 1.947000e+003
    endloop
  endfacet
  facet normal 9.659258e-001 2.588190e-001 0.000000e+000
    outer loop
      vertex   4.100004e+001 6.000180e+001 1.965000e+003
      vertex   4.100004e+001 6.000180e+001 1.947000e+003
      vertex   3.550708e+001 8.050180e+001 1.965000e+003
    endloop
  endfacet
  facet normal 9.659258e-001 2.588190e-001 -5.098053e-009
    outer loop
      vertex   3.550708e+001 8.050180e+001 1.965000e+003
      vertex   4.100004e+001 6.000180e+001 1.947000e+003
      vertex   3.550708e+001 8.050180e+001 1.947000e+003
    endloop
  endfacet
  facet normal -9.659257e-001 -2.588196e-001 4.999393e-008
    outer loop
      vertex   -4.249996e+001 6.000177e+001 1.935000e+003
      vertex   -3.680603e+001 3.875178e+001 1.935000e+003
      vertex   -4.249996e+001 6.000177e+001 1.947000e+003
    endloop
  endfacet
  facet normal -9.659257e-001 -2.588196e-001 -2.546166e-011
    outer loop
      vertex   -4.249996e+001 6.000177e+001 1.947000e+003
      vertex   -3.680603e+001 3.875178e+001 1.935000e+003
      vertex   -3.680603e+001 3.875179e+001 1.947000e+003
    endloop
  endfacet
  facet normal -7.071065e-001 -7.071070e-001 5.760577e-009
    outer loop
      vertex   -2.124995e+001 2.319572e+001 1.947000e+003
      vertex   -3.680603e+001 3.875179e+001 1.947000e+003
      vertex   -2.124995e+001 2.319572e+001 1.935000e+003
    endloop
  endfacet
  facet normal -7.071065e-001 -7.071070e-001 2.546107e-011
    outer loop
      vertex   -2.124995e+001 2.319572e+001 1.935000e+003
      vertex   -3.680603e+001 3.875179e+001 1.947000e+003
      vertex   -3.680603e+001 3.875178e+001 1.935000e+003
    endloop
  endfacet
  facet normal -2.588192e-001 -9.659258e-001 7.928292e-008
    outer loop
      vertex   4.199889e-005 1.750179e+001 1.947000e+003
      vertex   -2.124995e+001 2.319572e+001 1.947000e+003
      vertex   4.139083e-005 1.750179e+001 1.935000e+003
    endloop
  endfacet
  facet normal -2.588193e-001 -9.659258e-001 -5.760384e-009
    outer loop
      vertex   4.139083e-005 1.750179e+001 1.935000e+003
      vertex   -2.124995e+001 2.319572e+001 1.947000e+003
      vertex   -2.124995e+001 2.319572e+001 1.935000e+003
    endloop
  endfacet
  facet normal -0.000000e+000 7.071075e-001 7.071061e-001
    outer loop
      vertex   -2.749996e+001 8.050194e+001 1.909507e+003
      vertex   2.900003e-005 8.050194e+001 1.909507e+003
      vertex   -2.749996e+001 9.550883e+001 1.894500e+003
    endloop
  endfacet
  facet normal 0.000000e+000 7.071075e-001 7.071061e-001
    outer loop
      vertex   -2.749996e+001 9.550883e+001 1.894500e+003
      vertex   2.900003e-005 8.050194e+001 1.909507e+003
      vertex   2.900003e-005 9.550883e+001 1.894500e+003
    endloop
  endfacet
  facet normal 9.560775e-013 2.588175e-001 9.659262e-001
    outer loop
      vertex   -2.749996e+001 6.000157e+001 1.915000e+003
      vertex   2.900003e-005 6.000157e+001 1.915000e+003
      vertex   -2.749996e+001 8.050194e+001 1.909507e+003
    endloop
  endfacet
  facet normal 0.000000e+000 2.588175e-001 9.659262e-001
    outer loop
      vertex   -2.749996e+001 8.050194e+001 1.909507e+003
      vertex   2.900003e-005 6.000157e+001 1.915000e+003
      vertex   2.900003e-005 8.050194e+001 1.909507e+003
    endloop
  endfacet
  facet normal -7.785791e-014 -2.588174e-001 9.659263e-001
    outer loop
      vertex   -2.749996e+001 3.950196e+001 1.909507e+003
      vertex   2.900003e-005 3.950196e+001 1.909507e+003
      vertex   -2.749996e+001 6.000157e+001 1.915000e+003
    endloop
  endfacet
  facet normal -1.259539e-012 -2.588174e-001 9.659263e-001
    outer loop
      vertex   -2.749996e+001 6.000157e+001 1.915000e+003
      vertex   2.900003e-005 3.950196e+001 1.909507e+003
      vertex   2.900003e-005 6.000157e+001 1.915000e+003
    endloop
  endfacet
  facet normal 0.000000e+000 -7.071078e-001 7.071058e-001
    outer loop
      vertex   -2.749996e+001 2.449471e+001 1.894500e+003
      vertex   2.900003e-005 2.449471e+001 1.894500e+003
      vertex   -2.749996e+001 3.950196e+001 1.909507e+003
    endloop
  endfacet
  facet normal -5.298219e-014 -7.071078e-001 7.071058e-001
    outer loop
      vertex   -2.749996e+001 3.950196e+001 1.909507e+003
      vertex   2.900003e-005 2.449471e+001 1.894500e+003
      vertex   2.900003e-005 3.950196e+001 1.909507e+003
    endloop
  endfacet
  facet normal 1.547759e-011 2.586503e-001 -9.659710e-001
    outer loop
      vertex   -4.249997e+001 8.125163e+001 1.843190e+003
      vertex   -2.749996e+001 8.125163e+001 1.843190e+003
      vertex   -4.249997e+001 6.000202e+001 1.837500e+003
    endloop
  endfacet
  facet normal 1.410005e-013 2.586503e-001 -9.659710e-001
    outer loop
      vertex   -4.249997e+001 6.000202e+001 1.837500e+003
      vertex   -2.749996e+001 8.125163e+001 1.843190e+003
      vertex   -2.749996e+001 6.000202e+001 1.837500e+003
    endloop
  endfacet
  facet normal 2.103826e-013 -2.586503e-001 -9.659710e-001
    outer loop
      vertex   -4.249997e+001 6.000202e+001 1.837500e+003
      vertex   -2.749996e+001 6.000202e+001 1.837500e+003
      vertex   -4.249997e+001 3.875163e+001 1.843190e+003
    endloop
  endfacet
  facet normal 1.569074e-011 -2.586503e-001 -9.659710e-001
    outer loop
      vertex   -4.249997e+001 3.875163e+001 1.843190e+003
      vertex   -2.749996e+001 6.000202e+001 1.837500e+003
      vertex   -2.749996e+001 3.875163e+001 1.843190e+003
    endloop
  endfacet
  facet normal -1.572715e-011 -7.071081e-001 -7.071055e-001
    outer loop
      vertex   -4.249997e+001 3.875163e+001 1.843190e+003
      vertex   -2.749996e+001 3.875163e+001 1.843190e+003
      vertex   -4.249996e+001 2.319179e+001 1.858750e+003
    endloop
  endfacet
  facet normal 5.432531e-009 -7.071081e-001 -7.071055e-001
    outer loop
      vertex   -4.249996e+001 2.319179e+001 1.858750e+003
      vertex   -2.749996e+001 3.875163e+001 1.843190e+003
      vertex   -2.749996e+001 2.319179e+001 1.858750e+003
    endloop
  endfacet
  facet normal 0.000000e+000 -9.659257e-001 2.588193e-001
    outer loop
      vertex   -2.749996e+001 2.449471e+001 1.894500e+003
      vertex   -2.749996e+001 1.905509e+001 1.874199e+003
      vertex   2.900003e-005 2.449471e+001 1.894500e+003
    endloop
  endfacet
  facet normal -2.559091e-008 -9.659257e-001 2.588194e-001
    outer loop
      vertex   2.900003e-005 2.449471e+001 1.894500e+003
      vertex   -2.749996e+001 1.905509e+001 1.874199e+003
      vertex   2.900000e-005 1.900179e+001 1.874000e+003
    endloop
  endfacet
  facet normal -1.298888e-011 -9.659249e-001 2.588227e-001
    outer loop
      vertex   2.900000e-005 1.900179e+001 1.874000e+003
      vertex   -2.749996e+001 1.905509e+001 1.874199e+003
      vertex   -2.749996e+001 1.900179e+001 1.874000e+003
    endloop
  endfacet
  facet normal -8.185127e-011 -9.659259e-001 -2.588189e-001
    outer loop
      vertex   -2.749996e+001 2.449475e+001 1.853500e+003
      vertex   2.900003e-005 2.449475e+001 1.853500e+003
      vertex   -2.749996e+001 1.900179e+001 1.874000e+003
    endloop
  endfacet
  facet normal 1.326423e-011 -9.659259e-001 -2.588189e-001
    outer loop
      vertex   -2.749996e+001 1.900179e+001 1.874000e+003
      vertex   2.900003e-005 2.449475e+001 1.853500e+003
      vertex   2.900000e-005 1.900179e+001 1.874000e+003
    endloop
  endfacet
  facet normal 1.111565e-010 -7.071079e-001 -7.071057e-001
    outer loop
      vertex   -2.749996e+001 2.449475e+001 1.853500e+003
      vertex   -2.749996e+001 3.950176e+001 1.838493e+003
      vertex   2.900003e-005 2.449475e+001 1.853500e+003
    endloop
  endfacet
  facet normal -4.089323e-012 -7.071079e-001 -7.071057e-001
    outer loop
      vertex   2.900003e-005 2.449475e+001 1.853500e+003
      vertex   -2.749996e+001 3.950176e+001 1.838493e+003
      vertex   2.900003e-005 3.950178e+001 1.838493e+003
    endloop
  endfacet
  facet normal -5.399771e-007 -2.588177e-001 -9.659262e-001
    outer loop
      vertex   -2.749996e+001 3.950176e+001 1.838493e+003
      vertex   -2.749996e+001 6.000180e+001 1.833000e+003
      vertex   2.900003e-005 3.950178e+001 1.838493e+003
    endloop
  endfacet
  facet normal -2.801882e-010 -2.588171e-001 -9.659264e-001
    outer loop
      vertex   2.900003e-005 3.950178e+001 1.838493e+003
      vertex   -2.749996e+001 6.000180e+001 1.833000e+003
      vertex   2.900003e-005 6.000180e+001 1.833000e+003
    endloop
  endfacet
  facet normal -1.364224e-011 2.588174e-001 -9.659263e-001
    outer loop
      vertex   -2.749996e+001 8.050180e+001 1.838493e+003
      vertex   2.900003e-005 8.050180e+001 1.838493e+003
      vertex   -2.749996e+001 6.000180e+001 1.833000e+003
    endloop
  endfacet
  facet normal 2.795496e-010 2.588174e-001 -9.659263e-001
    outer loop
      vertex   -2.749996e+001 6.000180e+001 1.833000e+003
      vertex   2.900003e-005 8.050180e+001 1.838493e+003
      vertex   2.900003e-005 6.000180e+001 1.833000e+003
    endloop
  endfacet
  facet normal -1.467963e-011 7.071079e-001 -7.071057e-001
    outer loop
      vertex   -2.749996e+001 9.550884e+001 1.853500e+003
      vertex   2.900003e-005 9.550884e+001 1.853500e+003
      vertex   -2.749996e+001 8.050180e+001 1.838493e+003
    endloop
  endfacet
  facet normal 1.374620e-011 7.071079e-001 -7.071057e-001
    outer loop
      vertex   -2.749996e+001 8.050180e+001 1.838493e+003
      vertex   2.900003e-005 9.550884e+001 1.853500e+003
      vertex   2.900003e-005 8.050180e+001 1.838493e+003
    endloop
  endfacet
  facet normal 1.470433e-011 9.659259e-001 -2.588187e-001
    outer loop
      vertex   -2.749996e+001 9.550884e+001 1.853500e+003
      vertex   -2.749996e+001 1.010018e+002 1.874000e+003
      vertex   2.900003e-005 9.550884e+001 1.853500e+003
    endloop
  endfacet
  facet normal -1.583101e-013 9.659259e-001 -2.588187e-001
    outer loop
      vertex   2.900003e-005 9.550884e+001 1.853500e+003
      vertex   -2.749996e+001 1.010018e+002 1.874000e+003
      vertex   2.900003e-005 1.010018e+002 1.874000e+003
    endloop
  endfacet
  facet normal -1.112307e-013 9.659246e-001 2.588235e-001
    outer loop
      vertex   -2.749996e+001 1.010018e+002 1.874000e+003
      vertex   -2.749996e+001 1.009485e+002 1.874199e+003
      vertex   2.900003e-005 1.010018e+002 1.874000e+003
    endloop
  endfacet
  facet normal -3.214231e-008 9.659257e-001 2.588194e-001
    outer loop
      vertex   2.900003e-005 1.010018e+002 1.874000e+003
      vertex   -2.749996e+001 1.009485e+002 1.874199e+003
      vertex   2.900003e-005 9.550883e+001 1.894500e+003
    endloop
  endfacet
  facet normal 0.000000e+000 9.659257e-001 2.588193e-001
    outer loop
      vertex   2.900003e-005 9.550883e+001 1.894500e+003
      vertex   -2.749996e+001 1.009485e+002 1.874199e+003
      vertex   -2.749996e+001 9.550883e+001 1.894500e+003
    endloop
  endfacet
  facet normal 0.000000e+000 0.000000e+000 1.000000e+000
    outer loop
      vertex   5.691227e-005 1.025018e+002 1.935000e+003
      vertex   -4.249997e+001 1.025018e+002 1.935000e+003
      vertex   -2.124999e+001 9.680786e+001 1.935000e+003
    endloop
  endfacet
  facet normal 0.000000e+000 0.000000e+000 1.000000e+000
    outer loop
      vertex   -2.124999e+001 9.680786e+001 1.935000e+003
      vertex   -4.249997e+001 1.025018e+002 1.935000e+003
      vertex   -3.680605e+001 8.125177e+001 1.935000e+003
    endloop
  endfacet
  facet normal 0.000000e+000 0.000000e+000 1.000000e+000
    outer loop
      vertex   -3.680605e+001 8.125177e+001 1.935000e+003
      vertex   -4.249997e+001 1.025018e+002 1.935000e+003
      vertex   -4.249996e+001 6.000177e+001 1.935000e+003
    endloop
  endfacet
  facet normal 2.588192e-001 9.659258e-001 -3.018122e-011
    outer loop
      vertex   2.125004e+001 9.680787e+001 1.947000e+003
      vertex   2.125004e+001 9.680787e+001 1.935000e+003
      vertex   5.842660e-005 1.025018e+002 1.947000e+003
    endloop
  endfacet
  facet normal 2.588193e-001 9.659258e-001 1.041072e-007
    outer loop
      vertex   5.842660e-005 1.025018e+002 1.947000e+003
      vertex   2.125004e+001 9.680787e+001 1.935000e+003
      vertex   5.691227e-005 1.025018e+002 1.935000e+003
    endloop
  endfacet
  facet normal 2.588190e-001 -9.659258e-001 -2.777555e-011
    outer loop
      vertex   2.125004e+001 2.319571e+001 1.947000e+003
      vertex   4.199889e-005 1.750179e+001 1.947000e+003
      vertex   2.125004e+001 2.319571e+001 1.935000e+003
    endloop
  endfacet
  facet normal 2.588190e-001 -9.659258e-001 5.305325e-008
    outer loop
      vertex   2.125004e+001 2.319571e+001 1.935000e+003
      vertex   4.199889e-005 1.750179e+001 1.947000e+003
      vertex   4.139083e-005 1.750179e+001 1.935000e+003
    endloop
  endfacet
  facet normal 0.000000e+000 0.000000e+000 1.000000e+000
    outer loop
      vertex   3.680612e+001 8.125179e+001 1.947000e+003
      vertex   4.100004e+001 6.000180e+001 1.947000e+003
      vertex   4.250004e+001 6.000179e+001 1.947000e+003
    endloop
  endfacet
  facet normal 0.000000e+000 0.000000e+000 1.000000e+000
    outer loop
      vertex   3.680612e+001 8.125179e+001 1.947000e+003
      vertex   3.550708e+001 8.050180e+001 1.947000e+003
      vertex   4.100004e+001 6.000180e+001 1.947000e+003
    endloop
  endfacet
  facet normal 0.000000e+000 0.000000e+000 1.000000e+000
    outer loop
      vertex   3.680612e+001 8.125179e+001 1.947000e+003
      vertex   2.125004e+001 9.680787e+001 1.947000e+003
      vertex   3.550708e+001 8.050180e+001 1.947000e+003
    endloop
  endfacet
  facet normal 0.000000e+000 0.000000e+000 1.000000e+000
    outer loop
      vertex   3.550708e+001 8.050180e+001 1.947000e+003
      vertex   2.125004e+001 9.680787e+001 1.947000e+003
      vertex   2.050005e+001 9.550882e+001 1.947000e+003
    endloop
  endfacet
  facet normal 0.000000e+000 -0.000000e+000 1.000000e+000
    outer loop
      vertex   2.050005e+001 9.550882e+001 1.947000e+003
      vertex   2.125004e+001 9.680787e+001 1.947000e+003
      vertex   3.800002e-005 1.010018e+002 1.947000e+003
    endloop
  endfacet
  facet normal -0.000000e+000 -0.000000e+000 1.000000e+000
    outer loop
      vertex   3.800002e-005 1.010018e+002 1.947000e+003
      vertex   2.125004e+001 9.680787e+001 1.947000e+003
      vertex   5.842660e-005 1.025018e+002 1.947000e+003
    endloop
  endfacet
  facet normal 0.000000e+000 0.000000e+000 1.000000e+000
    outer loop
      vertex   -2.124999e+001 9.680786e+001 1.947000e+003
      vertex   3.800002e-005 1.010018e+002 1.947000e+003
      vertex   5.842660e-005 1.025018e+002 1.947000e+003
    endloop
  endfacet
  facet normal -0.000000e+000 0.000000e+000 1.000000e+000
    outer loop
      vertex   -2.124999e+001 9.680786e+001 1.947000e+003
      vertex   -2.049997e+001 9.550883e+001 1.947000e+003
      vertex   3.800002e-005 1.010018e+002 1.947000e+003
    endloop
  endfacet
  facet normal -0.000000e+000 0.000000e+000 1.000000e+000
    outer loop
      vertex   -2.124999e+001 9.680786e+001 1.947000e+003
      vertex   -3.550701e+001 8.050177e+001 1.947000e+003
      vertex   -2.049997e+001 9.550883e+001 1.947000e+003
    endloop
  endfacet
  facet normal 0.000000e+000 0.000000e+000 1.000000e+000
    outer loop
      vertex   -2.124999e+001 9.680786e+001 1.947000e+003
      vertex   -3.680605e+001 8.125177e+001 1.947000e+003
      vertex   -3.550701e+001 8.050177e+001 1.947000e+003
    endloop
  endfacet
  facet normal 0.000000e+000 0.000000e+000 1.000000e+000
    outer loop
      vertex   -3.550701e+001 8.050177e+001 1.947000e+003
      vertex   -3.680605e+001 8.125177e+001 1.947000e+003
      vertex   -4.099996e+001 6.000177e+001 1.947000e+003
    endloop
  endfacet
  facet normal 0.000000e+000 -0.000000e+000 1.000000e+000
    outer loop
      vertex   -4.099996e+001 6.000177e+001 1.947000e+003
      vertex   -3.680605e+001 8.125177e+001 1.947000e+003
      vertex   -4.249996e+001 6.000177e+001 1.947000e+003
    endloop
  endfacet
  facet normal 0.000000e+000 0.000000e+000 1.000000e+000
    outer loop
      vertex   -3.680603e+001 3.875179e+001 1.947000e+003
      vertex   -4.099996e+001 6.000177e+001 1.947000e+003
      vertex   -4.249996e+001 6.000177e+001 1.947000e+003
    endloop
  endfacet
  facet normal 0.000000e+000 -0.000000e+000 1.000000e+000
    outer loop
      vertex   -3.680603e+001 3.875179e+001 1.947000e+003
      vertex   -3.550699e+001 3.950178e+001 1.947000e+003
      vertex   -4.099996e+001 6.000177e+001 1.947000e+003
    endloop
  endfacet
  facet normal -0.000000e+000 -0.000000e+000 1.000000e+000
    outer loop
      vertex   -3.680603e+001 3.875179e+001 1.947000e+003
      vertex   -2.049995e+001 2.449474e+001 1.947000e+003
      vertex   -3.550699e+001 3.950178e+001 1.947000e+003
    endloop
  endfacet
  facet normal -0.000000e+000 0.000000e+000 1.000000e+000
    outer loop
      vertex   -3.680603e+001 3.875179e+001 1.947000e+003
      vertex   -2.124995e+001 2.319572e+001 1.947000e+003
      vertex   -2.049995e+001 2.449474e+001 1.947000e+003
    endloop
  endfacet
  facet normal 0.000000e+000 0.000000e+000 1.000000e+000
    outer loop
      vertex   -2.049995e+001 2.449474e+001 1.947000e+003
      vertex   -2.124995e+001 2.319572e+001 1.947000e+003
      vertex   4.199889e-005 1.750179e+001 1.947000e+003
    endloop
  endfacet
  facet normal -0.000000e+000 0.000000e+000 1.000000e+000
    outer loop
      vertex   4.720758e-005 1.900179e+001 1.947000e+003
      vertex   4.199889e-005 1.750179e+001 1.947000e+003
      vertex   2.125004e+001 2.319571e+001 1.947000e+003
    endloop
  endfacet
  facet normal -0.000000e+000 0.000000e+000 1.000000e+000
    outer loop
      vertex   2.050004e+001 2.449475e+001 1.947000e+003
      vertex   2.125004e+001 2.319571e+001 1.947000e+003
      vertex   3.680612e+001 3.875179e+001 1.947000e+003
    endloop
  endfacet
  facet normal -0.000000e+000 0.000000e+000 1.000000e+000
    outer loop
      vertex   3.550708e+001 3.950180e+001 1.947000e+003
      vertex   3.680612e+001 3.875179e+001 1.947000e+003
      vertex   4.250004e+001 6.000179e+001 1.947000e+003
    endloop
  endfacet
  facet normal -0.000000e+000 0.000000e+000 1.000000e+000
    outer loop
      vertex   4.100004e+001 6.000180e+001 1.947000e+003
      vertex   3.550708e+001 3.950180e+001 1.947000e+003
      vertex   4.250004e+001 6.000179e+001 1.947000e+003
    endloop
  endfacet
  facet normal -0.000000e+000 0.000000e+000 1.000000e+000
    outer loop
      vertex   -2.049995e+001 2.449474e+001 1.947000e+003
      vertex   4.199889e-005 1.750179e+001 1.947000e+003
      vertex   4.720758e-005 1.900179e+001 1.947000e+003
    endloop
  endfacet
  facet normal 0.000000e+000 -0.000000e+000 1.000000e+000
    outer loop
      vertex   4.720758e-005 1.900179e+001 1.947000e+003
      vertex   2.125004e+001 2.319571e+001 1.947000e+003
      vertex   2.050004e+001 2.449475e+001 1.947000e+003
    endloop
  endfacet
  facet normal 0.000000e+000 -0.000000e+000 1.000000e+000
    outer loop
      vertex   2.050004e+001 2.449475e+001 1.947000e+003
      vertex   3.680612e+001 3.875179e+001 1.947000e+003
      vertex   3.550708e+001 3.950180e+001 1.947000e+003
    endloop
  endfacet
  facet normal 6.261165e-011 -9.659704e-001 -2.586526e-001
    outer loop
      vertex   -2.749996e+001 1.750179e+001 1.880000e+003
      vertex   -4.249997e+001 1.750179e+001 1.880000e+003
      vertex   -2.749996e+001 1.905509e+001 1.874199e+003
    endloop
  endfacet
  facet normal -5.493182e-008 -9.659704e-001 -2.586527e-001
    outer loop
      vertex   -2.749996e+001 1.905509e+001 1.874199e+003
      vertex   -4.249997e+001 1.750179e+001 1.880000e+003
      vertex   -4.249996e+001 2.319179e+001 1.858750e+003
    endloop
  endfacet
  facet normal -5.428750e-009 -9.659704e-001 -2.586528e-001
    outer loop
      vertex   -2.749996e+001 2.319179e+001 1.858750e+003
      vertex   -2.749996e+001 1.905509e+001 1.874199e+003
      vertex   -4.249996e+001 2.319179e+001 1.858750e+003
    endloop
  endfacet
  facet normal -0.000000e+000 0.000000e+000 1.000000e+000
    outer loop
      vertex   -4.249996e+001 6.000177e+001 1.935000e+003
      vertex   -4.249997e+001 1.750179e+001 1.935000e+003
      vertex   -3.680603e+001 3.875178e+001 1.935000e+003
    endloop
  endfacet
  facet normal -0.000000e+000 0.000000e+000 1.000000e+000
    outer loop
      vertex   -3.680603e+001 3.875178e+001 1.935000e+003
      vertex   -4.249997e+001 1.750179e+001 1.935000e+003
      vertex   -2.124995e+001 2.319572e+001 1.935000e+003
    endloop
  endfacet
  facet normal -0.000000e+000 0.000000e+000 1.000000e+000
    outer loop
      vertex   -2.124995e+001 2.319572e+001 1.935000e+003
      vertex   -4.249997e+001 1.750179e+001 1.935000e+003
      vertex   4.139083e-005 1.750179e+001 1.935000e+003
    endloop
  endfacet
  facet normal 1.000000e+000 0.000000e+000 -0.000000e+000
    outer loop
      vertex   -2.749996e+001 1.750179e+001 1.880000e+003
      vertex   -2.749996e+001 2.449471e+001 1.894500e+003
      vertex   -2.749996e+001 1.750179e+001 1.930000e+003
    endloop
  endfacet
  facet normal 1.000000e+000 -0.000000e+000 0.000000e+000
    outer loop
      vertex   -2.749996e+001 1.750179e+001 1.880000e+003
      vertex   -2.749996e+001 1.905509e+001 1.874199e+003
      vertex   -2.749996e+001 2.449471e+001 1.894500e+003
    endloop
  endfacet
  facet normal 1.000000e+000 0.000000e+000 -0.000000e+000
    outer loop
      vertex   -2.749996e+001 2.449471e+001 1.894500e+003
      vertex   -2.749996e+001 3.950196e+001 1.909507e+003
      vertex   -2.749996e+001 1.750179e+001 1.930000e+003
    endloop
  endfacet
  facet normal 1.000000e+000 -0.000000e+000 0.000000e+000
    outer loop
      vertex   -2.749996e+001 1.750179e+001 1.930000e+003
      vertex   -2.749996e+001 3.950196e+001 1.909507e+003
      vertex   -2.749996e+001 6.000157e+001 1.915000e+003
    endloop
  endfacet
  facet normal 1.000000e+000 0.000000e+000 0.000000e+000
    outer loop
      vertex   -2.749996e+001 1.025018e+002 1.930000e+003
      vertex   -2.749996e+001 6.000157e+001 1.915000e+003
      vertex   -2.749996e+001 8.050194e+001 1.909507e+003
    endloop
  endfacet
  facet normal 1.000000e+000 0.000000e+000 -0.000000e+000
    outer loop
      vertex   -2.749996e+001 9.550883e+001 1.894500e+003
      vertex   -2.749996e+001 1.025018e+002 1.930000e+003
      vertex   -2.749996e+001 8.050194e+001 1.909507e+003
    endloop
  endfacet
  facet normal 1.000000e+000 -0.000000e+000 0.000000e+000
    outer loop
      vertex   -2.749996e+001 9.550883e+001 1.894500e+003
      vertex   -2.749996e+001 1.025018e+002 1.880000e+003
      vertex   -2.749996e+001 1.025018e+002 1.930000e+003
    endloop
  endfacet
  facet normal 1.000000e+000 -0.000000e+000 0.000000e+000
    outer loop
      vertex   -2.749996e+001 9.550883e+001 1.894500e+003
      vertex   -2.749996e+001 1.009485e+002 1.874199e+003
      vertex   -2.749996e+001 1.025018e+002 1.880000e+003
    endloop
  endfacet
  facet normal 1.000000e+000 -0.000000e+000 0.000000e+000
    outer loop
      vertex   -2.749996e+001 1.750179e+001 1.930000e+003
      vertex   -2.749996e+001 6.000157e+001 1.915000e+003
      vertex   -2.749996e+001 1.025018e+002 1.930000e+003
    endloop
  endfacet
  facet normal -1.082160e-007 1.000000e+000 0.000000e+000
    outer loop
      vertex   2.250004e+001 1.025018e+002 1.935000e+003
      vertex   2.250004e+001 1.025018e+002 1.930000e+003
      vertex   5.691227e-005 1.025018e+002 1.935000e+003
    endloop
  endfacet
  facet normal 0.000000e+000 1.000000e+000 4.869717e-007
    outer loop
      vertex   5.691227e-005 1.025018e+002 1.935000e+003
      vertex   2.250004e+001 1.025018e+002 1.930000e+003
      vertex   -2.749996e+001 1.025018e+002 1.930000e+003
    endloop
  endfacet
  facet normal -9.621699e-012 1.000000e+000 -2.886510e-011
    outer loop
      vertex   -4.249997e+001 1.025018e+002 1.935000e+003
      vertex   -2.749996e+001 1.025018e+002 1.930000e+003
      vertex   -4.249997e+001 1.025018e+002 1.880000e+003
    endloop
  endfacet
  facet normal 5.729076e-008 1.000000e+000 1.718723e-007
    outer loop
      vertex   -4.249997e+001 1.025018e+002 1.935000e+003
      vertex   5.691227e-005 1.025018e+002 1.935000e+003
      vertex   -2.749996e+001 1.025018e+002 1.930000e+003
    endloop
  endfacet
  facet normal -3.200663e-011 1.000000e+000 -2.214962e-011
    outer loop
      vertex   -2.749996e+001 1.025018e+002 1.930000e+003
      vertex   -2.749996e+001 1.025018e+002 1.880000e+003
      vertex   -4.249997e+001 1.025018e+002 1.880000e+003
    endloop
  endfacet
  facet normal -0.000000e+000 0.000000e+000 1.000000e+000
    outer loop
      vertex   5.691227e-005 1.025018e+002 1.935000e+003
      vertex   2.125004e+001 9.680787e+001 1.935000e+003
      vertex   2.250004e+001 1.025018e+002 1.935000e+003
    endloop
  endfacet
  facet normal -1.491553e-013 3.274429e-014 1.000000e+000
    outer loop
      vertex   2.250004e+001 1.025018e+002 1.935000e+003
      vertex   2.125004e+001 9.680787e+001 1.935000e+003
      vertex   2.250004e+001 9.555787e+001 1.935000e+003
    endloop
  endfacet
  facet normal 0.000000e+000 0.000000e+000 1.000000e+000
    outer loop
      vertex   2.250004e+001 2.444571e+001 1.935000e+003
      vertex   2.125004e+001 2.319571e+001 1.935000e+003
      vertex   2.250004e+001 1.750179e+001 1.935000e+003
    endloop
  endfacet
  facet normal 0.000000e+000 0.000000e+000 1.000000e+000
    outer loop
      vertex   2.250004e+001 1.750179e+001 1.935000e+003
      vertex   2.125004e+001 2.319571e+001 1.935000e+003
      vertex   4.139083e-005 1.750179e+001 1.935000e+003
    endloop
  endfacet
  facet normal 7.071067e-001 7.071069e-001 3.017946e-011
    outer loop
      vertex   2.125004e+001 9.680787e+001 1.935000e+003
      vertex   2.125004e+001 9.680787e+001 1.947000e+003
      vertex   2.250004e+001 9.555787e+001 1.935000e+003
    endloop
  endfacet
  facet normal 7.071067e-001 7.071069e-001 6.723991e-009
    outer loop
      vertex   2.250004e+001 9.555787e+001 1.935000e+003
      vertex   2.125004e+001 9.680787e+001 1.947000e+003
      vertex   3.680612e+001 8.125179e+001 1.947000e+003
    endloop
  endfacet
  facet normal 7.071067e-001 7.071069e-001 -5.124827e-012
    outer loop
      vertex   3.680612e+001 8.125179e+001 1.935000e+003
      vertex   2.250004e+001 9.555787e+001 1.935000e+003
      vertex   3.680612e+001 8.125179e+001 1.947000e+003
    endloop
  endfacet
  facet normal 9.659259e-001 2.588189e-001 5.124717e-012
    outer loop
      vertex   3.680612e+001 8.125179e+001 1.947000e+003
      vertex   4.250004e+001 6.000179e+001 1.947000e+003
      vertex   3.680612e+001 8.125179e+001 1.935000e+003
    endloop
  endfacet
  facet normal 9.659259e-001 2.588189e-001 -8.543332e-010
    outer loop
      vertex   3.680612e+001 8.125179e+001 1.935000e+003
      vertex   4.250004e+001 6.000179e+001 1.947000e+003
      vertex   4.250004e+001 6.000179e+001 1.935000e+003
    endloop
  endfacet
  facet normal 9.659258e-001 -2.588191e-001 8.520165e-010
    outer loop
      vertex   4.250004e+001 6.000179e+001 1.947000e+003
      vertex   3.680612e+001 3.875179e+001 1.947000e+003
      vertex   4.250004e+001 6.000179e+001 1.935000e+003
    endloop
  endfacet
  facet normal 9.659258e-001 -2.588191e-001 -2.654396e-016
    outer loop
      vertex   4.250004e+001 6.000179e+001 1.935000e+003
      vertex   3.680612e+001 3.875179e+001 1.947000e+003
      vertex   3.680612e+001 3.875179e+001 1.935000e+003
    endloop
  endfacet
  facet normal 7.071067e-001 -7.071068e-001 4.186914e-016
    outer loop
      vertex   3.680612e+001 3.875179e+001 1.935000e+003
      vertex   3.680612e+001 3.875179e+001 1.947000e+003
      vertex   2.250004e+001 2.444571e+001 1.935000e+003
    endloop
  endfacet
  facet normal 7.071067e-001 -7.071069e-001 1.109805e-008
    outer loop
      vertex   2.250004e+001 2.444571e+001 1.935000e+003
      vertex   3.680612e+001 3.875179e+001 1.947000e+003
      vertex   2.125004e+001 2.319571e+001 1.947000e+003
    endloop
  endfacet
  facet normal 7.071067e-001 -7.071069e-001 2.749858e-011
    outer loop
      vertex   2.125004e+001 2.319571e+001 1.935000e+003
      vertex   2.250004e+001 2.444571e+001 1.935000e+003
      vertex   2.125004e+001 2.319571e+001 1.947000e+003
    endloop
  endfacet
  facet normal 1.000000e+000 3.735452e-015 -1.286400e-014
    outer loop
      vertex   2.900003e-005 3.950196e+001 1.909507e+003
      vertex   2.900003e-005 6.000180e+001 1.833000e+003
      vertex   2.900003e-005 6.000157e+001 1.915000e+003
    endloop
  endfacet
  facet normal 1.000000e+000 5.120268e-014 -1.453024e-016
    outer loop
      vertex   2.900003e-005 3.950196e+001 1.909507e+003
      vertex   2.900003e-005 3.950178e+001 1.838493e+003
      vertex   2.900003e-005 6.000180e+001 1.833000e+003
    endloop
  endfacet
  facet normal 1.000000e+000 -7.022240e-014 -1.449969e-016
    outer loop
      vertex   2.900003e-005 3.950196e+001 1.909507e+003
      vertex   2.900003e-005 2.449475e+001 1.853500e+003
      vertex   2.900003e-005 3.950178e+001 1.838493e+003
    endloop
  endfacet
  facet normal 1.000000e+000 2.576840e-014 -2.586591e-014
    outer loop
      vertex   2.900003e-005 3.950196e+001 1.909507e+003
      vertex   2.900003e-005 2.449471e+001 1.894500e+003
      vertex   2.900003e-005 2.449475e+001 1.853500e+003
    endloop
  endfacet
  facet normal 1.000000e+000 -5.092502e-012 -2.586995e-014
    outer loop
      vertex   2.900003e-005 2.449475e+001 1.853500e+003
      vertex   2.900003e-005 2.449471e+001 1.894500e+003
      vertex   2.900000e-005 1.900179e+001 1.874000e+003
    endloop
  endfacet
  facet normal 1.000000e+000 -4.814110e-014 -1.286415e-014
    outer loop
      vertex   2.900003e-005 6.000180e+001 1.833000e+003
      vertex   2.900003e-005 8.050180e+001 1.838493e+003
      vertex   2.900003e-005 6.000157e+001 1.915000e+003
    endloop
  endfacet
  facet normal 1.000000e+000 2.586554e-017 4.230498e-017
    outer loop
      vertex   2.900003e-005 6.000157e+001 1.915000e+003
      vertex   2.900003e-005 8.050180e+001 1.838493e+003
      vertex   2.900003e-005 8.050194e+001 1.909507e+003
    endloop
  endfacet
  facet normal 1.000000e+000 8.200355e-017 4.230487e-017
    outer loop
      vertex   2.900003e-005 8.050194e+001 1.909507e+003
      vertex   2.900003e-005 8.050180e+001 1.838493e+003
      vertex   2.900003e-005 9.550883e+001 1.894500e+003
    endloop
  endfacet
  facet normal 1.000000e+000 -8.780517e-017 8.780491e-017
    outer loop
      vertex   2.900003e-005 9.550883e+001 1.894500e+003
      vertex   2.900003e-005 8.050180e+001 1.838493e+003
      vertex   2.900003e-005 9.550884e+001 1.853500e+003
    endloop
  endfacet
  facet normal 1.000000e+000 5.500196e-017 8.780493e-017
    outer loop
      vertex   2.900003e-005 1.010018e+002 1.874000e+003
      vertex   2.900003e-005 9.550883e+001 1.894500e+003
      vertex   2.900003e-005 9.550884e+001 1.853500e+003
    endloop
  endfacet
  facet normal -1.000000e+000 -2.771710e-008 8.000568e-019
    outer loop
      vertex   -4.249997e+001 1.025018e+002 1.935000e+003
      vertex   -4.249997e+001 1.025018e+002 1.880000e+003
      vertex   -4.249996e+001 6.000177e+001 1.935000e+003
    endloop
  endfacet
  facet normal -1.000000e+000 -2.058428e-008 5.511730e-009
    outer loop
      vertex   -4.249996e+001 6.000177e+001 1.935000e+003
      vertex   -4.249997e+001 1.025018e+002 1.880000e+003
      vertex   -4.249997e+001 9.681184e+001 1.858750e+003
    endloop
  endfacet
  facet normal -1.000000e+000 -1.041907e-008 1.041904e-008
    outer loop
      vertex   -4.249997e+001 8.125163e+001 1.843190e+003
      vertex   -4.249996e+001 6.000177e+001 1.935000e+003
      vertex   -4.249997e+001 9.681184e+001 1.858750e+003
    endloop
  endfacet
  facet normal -1.000000e+000 -3.235050e-009 1.208182e-008
    outer loop
      vertex   -4.249997e+001 8.125163e+001 1.843190e+003
      vertex   -4.249997e+001 6.000202e+001 1.837500e+003
      vertex   -4.249996e+001 6.000177e+001 1.935000e+003
    endloop
  endfacet
  facet normal -1.000000e+000 3.235055e-009 1.208183e-008
    outer loop
      vertex   -4.249996e+001 6.000177e+001 1.935000e+003
      vertex   -4.249997e+001 6.000202e+001 1.837500e+003
      vertex   -4.249997e+001 3.875163e+001 1.843190e+003
    endloop
  endfacet
  facet normal -1.000000e+000 -5.916563e-008 2.652498e-008
    outer loop
      vertex   -4.249996e+001 2.319179e+001 1.858750e+003
      vertex   -4.249996e+001 6.000177e+001 1.935000e+003
      vertex   -4.249997e+001 3.875163e+001 1.843190e+003
    endloop
  endfacet
  facet normal -1.000000e+000 8.088760e-008 -4.108626e-008
    outer loop
      vertex   -4.249996e+001 2.319179e+001 1.858750e+003
      vertex   -4.249997e+001 1.750179e+001 1.880000e+003
      vertex   -4.249996e+001 6.000177e+001 1.935000e+003
    endloop
  endfacet
  facet normal -1.000000e+000 2.770297e-008 1.093551e-011
    outer loop
      vertex   -4.249996e+001 6.000177e+001 1.935000e+003
      vertex   -4.249997e+001 1.750179e+001 1.880000e+003
      vertex   -4.249997e+001 1.750179e+001 1.935000e+003
    endloop
  endfacet
  facet normal 0.000000e+000 0.000000e+000 1.000000e+000
    outer loop
      vertex   3.550708e+001 8.050180e+001 1.965000e+003
      vertex   2.050005e+001 9.550882e+001 1.965000e+003
      vertex   -3.550701e+001 8.050177e+001 1.965000e+003
    endloop
  endfacet
  facet normal 0.000000e+000 0.000000e+000 1.000000e+000
    outer loop
      vertex   4.100004e+001 6.000180e+001 1.965000e+003
      vertex   -3.550701e+001 8.050177e+001 1.965000e+003
      vertex   3.550708e+001 3.950180e+001 1.965000e+003
    endloop
  endfacet
  facet normal 0.000000e+000 0.000000e+000 1.000000e+000
    outer loop
      vertex   4.100004e+001 6.000180e+001 1.965000e+003
      vertex   3.550708e+001 8.050180e+001 1.965000e+003
      vertex   -3.550701e+001 8.050177e+001 1.965000e+003
    endloop
  endfacet
  facet normal -0.000000e+000 0.000000e+000 1.000000e+000
    outer loop
      vertex   -2.049997e+001 9.550883e+001 1.965000e+003
      vertex   -3.550701e+001 8.050177e+001 1.965000e+003
      vertex   3.800002e-005 1.010018e+002 1.965000e+003
    endloop
  endfacet
  facet normal -0.000000e+000 0.000000e+000 1.000000e+000
    outer loop
      vertex   3.800002e-005 1.010018e+002 1.965000e+003
      vertex   -3.550701e+001 8.050177e+001 1.965000e+003
      vertex   2.050005e+001 9.550882e+001 1.965000e+003
    endloop
  endfacet
  facet normal 0.000000e+000 0.000000e+000 1.000000e+000
    outer loop
      vertex   -3.550701e+001 8.050177e+001 1.965000e+003
      vertex   -4.099996e+001 6.000177e+001 1.965000e+003
      vertex   3.550708e+001 3.950180e+001 1.965000e+003
    endloop
  endfacet
  facet normal 0.000000e+000 0.000000e+000 1.000000e+000
    outer loop
      vertex   3.550708e+001 3.950180e+001 1.965000e+003
      vertex   -4.099996e+001 6.000177e+001 1.965000e+003
      vertex   -3.550699e+001 3.950178e+001 1.965000e+003
    endloop
  endfacet
  facet normal 0.000000e+000 0.000000e+000 1.000000e+000
    outer loop
      vertex   2.050004e+001 2.449475e+001 1.965000e+003
      vertex   -3.550699e+001 3.950178e+001 1.965000e+003
      vertex   4.720758e-005 1.900179e+001 1.965000e+003
    endloop
  endfacet
  facet normal 0.000000e+000 -0.000000e+000 1.000000e+000
    outer loop
      vertex   2.050004e+001 2.449475e+001 1.965000e+003
      vertex   3.550708e+001 3.950180e+001 1.965000e+003
      vertex   -3.550699e+001 3.950178e+001 1.965000e+003
    endloop
  endfacet
  facet normal 0.000000e+000 0.000000e+000 1.000000e+000
    outer loop
      vertex   -3.550699e+001 3.950178e+001 1.965000e+003
      vertex   -2.049995e+001 2.449474e+001 1.965000e+003
      vertex   4.720758e-005 1.900179e+001 1.965000e+003
    endloop
  endfacet
endsolid