solid ascii
  facet normal 0.000000e+000 0.000000e+000 -1.000000e+000
    outer loop
      vertex   -9.330094e+000 1.300001e+002 1.325000e+003
      vertex   3.721112e-011 1.325001e+002 1.325000e+003
      vertex   9.330092e+000 1.300001e+002 1.325000e+003
    endloop
  endfacet
  facet normal -2.588199e-001 9.659256e-001 -1.342633e-011
    outer loop
      vertex   -3.625005e+001 1.227869e+002 1.360000e+003
      vertex   7.300116e-011 1.325001e+002 1.360000e+003
      vertex   -9.330094e+000 1.300001e+002 1.355000e+003
    endloop
  endfacet
  facet normal -2.588199e-001 9.659256e-001 -1.920170e-012
    outer loop
      vertex   -3.625005e+001 1.227869e+002 1.355000e+003
      vertex   -3.625005e+001 1.227869e+002 1.360000e+003
      vertex   -9.330094e+000 1.300001e+002 1.355000e+003
    endloop
  endfacet
  facet normal -2.588199e-001 9.659256e-001 -4.546601e-011
    outer loop
      vertex   -9.330094e+000 1.300001e+002 1.325000e+003
      vertex   -9.330094e+000 1.300001e+002 1.355000e+003
      vertex   3.721112e-011 1.325001e+002 1.325000e+003
    endloop
  endfacet
  facet normal -2.588199e-001 9.659256e-001 2.646726e-013
    outer loop
      vertex   3.721112e-011 1.325001e+002 1.325000e+003
      vertex   -9.330094e+000 1.300001e+002 1.355000e+003
      vertex   7.300116e-011 1.325001e+002 1.360000e+003
    endloop
  endfacet
  facet normal 2.588200e-001 9.659256e-001 -4.407050e-011
    outer loop
      vertex   9.330092e+000 1.300001e+002 1.325000e+003
      vertex   3.721112e-011 1.325001e+002 1.325000e+003
      vertex   9.330092e+000 1.300001e+002 1.355000e+003
    endloop
  endfacet
  facet normal 2.588200e-001 9.659256e-001 -2.646622e-013
    outer loop
      vertex   9.330092e+000 1.300001e+002 1.355000e+003
      vertex   3.721112e-011 1.325001e+002 1.325000e+003
      vertex   7.300116e-011 1.325001e+002 1.360000e+003
    endloop
  endfacet
  facet normal 2.588200e-001 9.659256e-001 -3.027886e-012
    outer loop
      vertex   3.625000e+001 1.227869e+002 1.360000e+003
      vertex   9.330092e+000 1.300001e+002 1.355000e+003
      vertex   7.300116e-011 1.325001e+002 1.360000e+003
    endloop
  endfacet
  facet normal 2.588200e-001 9.659256e-001 0.000000e+000
    outer loop
      vertex   3.625000e+001 1.227869e+002 1.360000e+003
      vertex   3.625000e+001 1.227869e+002 1.355000e+003
      vertex   9.330092e+000 1.300001e+002 1.355000e+003
    endloop
  endfacet
  facet normal 7.853684e-012 1.000000e+000 4.404607e-011
    outer loop
      vertex   9.330092e+000 1.300001e+002 1.355000e+003
      vertex   8.000000e+001 1.300001e+002 1.355000e+003
      vertex   9.330092e+000 1.300001e+002 1.325000e+003
    endloop
  endfacet
  facet normal 2.183942e-011 1.000000e+000 1.110038e-011
    outer loop
      vertex   9.330092e+000 1.300001e+002 1.325000e+003
      vertex   8.000000e+001 1.300001e+002 1.355000e+003
      vertex   8.000000e+001 1.300001e+002 1.305000e+003
    endloop
  endfacet
  facet normal 0.000000e+000 1.000000e+000 -6.606911e-011
    outer loop
      vertex   -5.000000e+001 1.300001e+002 1.305000e+003
      vertex   9.330092e+000 1.300001e+002 1.325000e+003
      vertex   8.000000e+001 1.300001e+002 1.305000e+003
    endloop
  endfacet
  facet normal 2.508579e-012 1.000000e+000 -7.351082e-011
    outer loop
      vertex   -5.000000e+001 1.300001e+002 1.305000e+003
      vertex   -9.330094e+000 1.300001e+002 1.325000e+003
      vertex   9.330092e+000 1.300001e+002 1.325000e+003
    endloop
  endfacet
  facet normal -4.185723e-011 1.000000e+000 1.670685e-011
    outer loop
      vertex   -5.000000e+001 1.300001e+002 1.305000e+003
      vertex   -5.000000e+001 1.300001e+002 1.355000e+003
      vertex   -9.330094e+000 1.300001e+002 1.325000e+003
    endloop
  endfacet
  facet normal -2.053957e-011 1.000000e+000 4.560642e-011
    outer loop
      vertex   -9.330094e+000 1.300001e+002 1.325000e+003
      vertex   -5.000000e+001 1.300001e+002 1.355000e+003
      vertex   -9.330094e+000 1.300001e+002 1.355000e+003
    endloop
  endfacet
  facet normal 0.000000e+000 0.000000e+000 1.000000e+000
    outer loop
      vertex   -9.330094e+000 1.300001e+002 1.355000e+003
      vertex   -5.000000e+001 1.300001e+002 1.355000e+003
      vertex   -3.625005e+001 1.227869e+002 1.355000e+003
    endloop
  endfacet
  facet normal 0.000000e+000 0.000000e+000 1.000000e+000
    outer loop
      vertex   -3.625005e+001 1.227869e+002 1.355000e+003
      vertex   -5.000000e+001 1.300001e+002 1.355000e+003
      vertex   -5.000000e+001 1.090370e+002 1.355000e+003
    endloop
  endfacet
  facet normal -7.071070e-001 7.071066e-001 -1.597371e-011
    outer loop
      vertex   -5.000000e+001 1.090370e+002 1.325000e+003
      vertex   -6.278686e+001 9.625010e+001 1.325000e+003
      vertex   -5.000000e+001 1.090370e+002 1.355000e+003
    endloop
  endfacet
  facet normal -7.071070e-001 7.071066e-001 -1.038449e-012
    outer loop
      vertex   -5.000000e+001 1.090370e+002 1.355000e+003
      vertex   -6.278686e+001 9.625010e+001 1.325000e+003
      vertex   -6.278686e+001 9.625010e+001 1.360000e+003
    endloop
  endfacet
  facet normal -7.071070e-001 7.071066e-001 2.032846e-011
    outer loop
      vertex   -3.625005e+001 1.227869e+002 1.360000e+003
      vertex   -5.000000e+001 1.090370e+002 1.355000e+003
      vertex   -6.278686e+001 9.625010e+001 1.360000e+003
    endloop
  endfacet
  facet normal -7.071070e-001 7.071066e-001 1.919283e-012
    outer loop
      vertex   -3.625005e+001 1.227869e+002 1.360000e+003
      vertex   -3.625005e+001 1.227869e+002 1.355000e+003
      vertex   -5.000000e+001 1.090370e+002 1.355000e+003
    endloop
  endfacet
  facet normal 7.071063e-001 7.071073e-001 1.046463e-011
    outer loop
      vertex   6.278684e+001 9.625014e+001 1.360000e+003
      vertex   6.278684e+001 9.625014e+001 1.355000e+003
      vertex   3.625000e+001 1.227869e+002 1.360000e+003
    endloop
  endfacet
  facet normal 7.071063e-001 7.071073e-001 0.000000e+000
    outer loop
      vertex   3.625000e+001 1.227869e+002 1.360000e+003
      vertex   6.278684e+001 9.625014e+001 1.355000e+003
      vertex   3.625000e+001 1.227869e+002 1.355000e+003
    endloop
  endfacet
  facet normal -0.000000e+000 -0.000000e+000 1.000000e+000
    outer loop
      vertex   4.403686e+001 5.000139e+000 1.355000e+003
      vertex   8.000000e+001 5.000139e+000 1.355000e+003
      vertex   6.278684e+001 2.375014e+001 1.355000e+003
    endloop
  endfacet
  facet normal -0.000000e+000 -0.000000e+000 1.000000e+000
    outer loop
      vertex   6.278684e+001 2.375014e+001 1.355000e+003
      vertex   8.000000e+001 5.000139e+000 1.355000e+003
      vertex   7.250000e+001 6.000014e+001 1.355000e+003
    endloop
  endfacet
  facet normal -0.000000e+000 0.000000e+000 1.000000e+000
    outer loop
      vertex   7.250000e+001 6.000014e+001 1.355000e+003
      vertex   8.000000e+001 5.000139e+000 1.355000e+003
      vertex   8.000000e+001 1.300001e+002 1.355000e+003
    endloop
  endfacet
  facet normal 0.000000e+000 -0.000000e+000 1.000000e+000
    outer loop
      vertex   6.278684e+001 9.625014e+001 1.355000e+003
      vertex   8.000000e+001 1.300001e+002 1.355000e+003
      vertex   3.625000e+001 1.227869e+002 1.355000e+003
    endloop
  endfacet
  facet normal -0.000000e+000 0.000000e+000 1.000000e+000
    outer loop
      vertex   6.278684e+001 9.625014e+001 1.355000e+003
      vertex   7.250000e+001 6.000014e+001 1.355000e+003
      vertex   8.000000e+001 1.300001e+002 1.355000e+003
    endloop
  endfacet
  facet normal 0.000000e+000 0.000000e+000 1.000000e+000
    outer loop
      vertex   8.000000e+001 1.300001e+002 1.355000e+003
      vertex   9.330092e+000 1.300001e+002 1.355000e+003
      vertex   3.625000e+001 1.227869e+002 1.355000e+003
    endloop
  endfacet
  facet normal 1.000000e+000 -2.842172e-015 -1.421087e-015
    outer loop
      vertex   8.000000e+001 3.000014e+001 1.280000e+003
      vertex   8.000000e+001 2.000014e+001 1.290000e+003
      vertex   8.000000e+001 2.500014e+001 1.280000e+003
    endloop
  endfacet
  facet normal 1.000000e+000 -2.356010e-015 -9.349245e-016
    outer loop
      vertex   8.000000e+001 3.000014e+001 1.280000e+003
      vertex   8.000000e+001 5.000139e+000 1.343000e+003
      vertex   8.000000e+001 2.000014e+001 1.290000e+003
    endloop
  endfacet
  facet normal 1.000000e+000 2.218795e-016 8.804743e-017
    outer loop
      vertex   8.000000e+001 3.000014e+001 1.280000e+003
      vertex   8.000000e+001 1.000001e+002 1.265000e+003
      vertex   8.000000e+001 5.000139e+000 1.343000e+003
    endloop
  endfacet
  facet normal 1.000000e+000 1.128022e-016 -4.209799e-016
    outer loop
      vertex   8.000000e+001 3.000014e+001 1.280000e+003
      vertex   8.000000e+001 5.750015e+001 1.253612e+003
      vertex   8.000000e+001 1.000001e+002 1.265000e+003
    endloop
  endfacet
  facet normal 1.000000e+000 5.167580e-016 -8.152731e-024
    outer loop
      vertex   8.000000e+001 3.000014e+001 1.280000e+003
      vertex   8.000000e+001 3.000014e+001 1.226112e+003
      vertex   8.000000e+001 5.750015e+001 1.253612e+003
    endloop
  endfacet
  facet normal 1.000000e+000 -1.270469e-012 -1.547548e-012
    outer loop
      vertex   8.000000e+001 5.000139e+000 1.343000e+003
      vertex   8.000000e+001 1.000001e+002 1.265000e+003
      vertex   8.000000e+001 1.300001e+002 1.305000e+003
    endloop
  endfacet
  facet normal 1.000000e+000 -4.847334e-013 1.037108e-012
    outer loop
      vertex   8.000000e+001 1.300001e+002 1.355000e+003
      vertex   8.000000e+001 5.000139e+000 1.343000e+003
      vertex   8.000000e+001 1.300001e+002 1.305000e+003
    endloop
  endfacet
  facet normal 1.000000e+000 -3.851710e-013 5.929391e-021
    outer loop
      vertex   8.000000e+001 1.300001e+002 1.355000e+003
      vertex   8.000000e+001 5.000139e+000 1.355000e+003
      vertex   8.000000e+001 5.000139e+000 1.343000e+003
    endloop
  endfacet
  facet normal 1.000000e+000 -0.000000e+000 -0.000000e+000
    outer loop
      vertex   8.000000e+001 1.461122e+002 1.250000e+003
      vertex   8.000000e+001 1.550001e+002 1.250000e+003
      vertex   8.000000e+001 1.425001e+002 1.253612e+003
    endloop
  endfacet
  facet normal 1.000000e+000 -6.049309e-013 -2.093441e-012
    outer loop
      vertex   8.000000e+001 1.425001e+002 1.253612e+003
      vertex   8.000000e+001 1.550001e+002 1.250000e+003
      vertex   8.000000e+001 1.300001e+002 1.305000e+003
    endloop
  endfacet
  facet normal 1.000000e+000 -5.578736e-013 -2.081995e-012
    outer loop
      vertex   8.000000e+001 1.000001e+002 1.265000e+003
      vertex   8.000000e+001 1.425001e+002 1.253612e+003
      vertex   8.000000e+001 1.300001e+002 1.305000e+003
    endloop
  endfacet
  facet normal 1.000000e+000 6.667733e-012 1.886826e-012
    outer loop
      vertex   8.000000e+001 2.000014e+001 1.290000e+003
      vertex   8.000000e+001 5.000139e+000 1.343000e+003
      vertex   8.000000e+001 5.000138e+000 1.290000e+003
    endloop
  endfacet
  facet normal 1.000000e+000 -7.968135e-012 1.886826e-012
    outer loop
      vertex   8.000000e+001 5.000138e+000 1.290000e+003
      vertex   8.000000e+001 5.000139e+000 1.343000e+003
      vertex   8.000000e+001 -5.999986e+001 1.343000e+003
    endloop
  endfacet
  facet normal 1.000000e+000 7.018577e-010 1.577969e-010
    outer loop
      vertex   8.000000e+001 -4.499986e+001 1.273000e+003
      vertex   8.000000e+001 -5.999986e+001 1.343000e+003
      vertex   8.000000e+001 -5.999986e+001 1.285000e+003
    endloop
  endfacet
  facet normal 1.000000e+000 -5.682517e-008 -7.175098e-008
    outer loop
      vertex   8.000000e+001 -5.999986e+001 1.273000e+003
      vertex   8.000000e+001 -4.499986e+001 1.273000e+003
      vertex   8.000000e+001 -5.999986e+001 1.285000e+003
    endloop
  endfacet
  facet normal 1.000000e+000 -4.209232e-012 6.496802e-012
    outer loop
      vertex   8.000000e+001 5.000138e+000 1.290000e+003
      vertex   8.000000e+001 -5.999986e+001 1.343000e+003
      vertex   8.000000e+001 -4.499986e+001 1.273000e+003
    endloop
  endfacet
  facet normal 1.000000e+000 -3.575833e-026 -4.736952e-015
    outer loop
      vertex   8.000000e+001 5.000138e+000 1.285000e+003
      vertex   8.000000e+001 -4.499986e+001 1.273000e+003
      vertex   8.000000e+001 1.500014e+001 1.273000e+003
    endloop
  endfacet
  facet normal 1.000000e+000 4.681222e-015 -6.687460e-015
    outer loop
      vertex   8.000000e+001 2.000014e+001 1.285000e+003
      vertex   8.000000e+001 1.500014e+001 1.273000e+003
      vertex   8.000000e+001 2.500014e+001 1.280000e+003
    endloop
  endfacet
  facet normal 1.000000e+000 2.273736e-014 1.136868e-014
    outer loop
      vertex   8.000000e+001 2.000014e+001 1.290000e+003
      vertex   8.000000e+001 2.000014e+001 1.285000e+003
      vertex   8.000000e+001 2.500014e+001 1.280000e+003
    endloop
  endfacet
  facet normal 1.000000e+000 2.340305e-019 3.100233e-008
    outer loop
      vertex   8.000000e+001 1.500014e+001 1.273000e+003
      vertex   8.000000e+001 -4.499986e+001 1.273000e+003
      vertex   8.000000e+001 1.500014e+001 1.180000e+003
    endloop
  endfacet
  facet normal 1.000000e+000 -4.805271e-008 5.781275e-013
    outer loop
      vertex   8.000000e+001 1.500014e+001 1.180000e+003
      vertex   8.000000e+001 -4.499986e+001 1.273000e+003
      vertex   8.000000e+001 -4.499986e+001 1.100000e+003
    endloop
  endfacet
  facet normal 1.000000e+000 2.222571e-012 -3.604068e-008
    outer loop
      vertex   8.000000e+001 1.404999e-004 1.100000e+003
      vertex   8.000000e+001 1.500014e+001 1.180000e+003
      vertex   8.000000e+001 -4.499986e+001 1.100000e+003
    endloop
  endfacet
  facet normal 1.000000e+000 -2.931073e-013 -3.604021e-008
    outer loop
      vertex   8.000000e+001 1.404999e-004 1.100000e+003
      vertex   8.000000e+001 1.500014e+001 1.100000e+003
      vertex   8.000000e+001 1.500014e+001 1.180000e+003
    endloop
  endfacet
  facet normal 1.000000e+000 0.000000e+000 0.000000e+000
    outer loop
      vertex   8.000000e+001 1.500014e+001 1.273000e+003
      vertex   8.000000e+001 2.500014e+001 1.273000e+003
      vertex   8.000000e+001 2.500014e+001 1.280000e+003
    endloop
  endfacet
  facet normal 1.000000e+000 4.796902e-012 -1.999183e-011
    outer loop
      vertex   8.000000e+001 5.000138e+000 1.285000e+003
      vertex   8.000000e+001 5.000138e+000 1.290000e+003
      vertex   8.000000e+001 -4.499986e+001 1.273000e+003
    endloop
  endfacet
  facet normal 1.000000e+000 0.000000e+000 -4.736952e-015
    outer loop
      vertex   8.000000e+001 2.000014e+001 1.285000e+003
      vertex   8.000000e+001 5.000138e+000 1.285000e+003
      vertex   8.000000e+001 1.500014e+001 1.273000e+003
    endloop
  endfacet
  facet normal 8.410300e-013 9.103665e-001 4.138029e-001
    outer loop
      vertex   -5.000000e+001 1.550001e+002 1.250000e+003
      vertex   -5.000000e+001 1.300001e+002 1.305000e+003
      vertex   8.000000e+001 1.550001e+002 1.250000e+003
    endloop
  endfacet
  facet normal -0.000000e+000 9.103665e-001 4.138029e-001
    outer loop
      vertex   8.000000e+001 1.550001e+002 1.250000e+003
      vertex   -5.000000e+001 1.300001e+002 1.305000e+003
      vertex   8.000000e+001 1.300001e+002 1.305000e+003
    endloop
  endfacet
  facet normal -1.000000e+000 0.000000e+000 1.284780e-011
    outer loop
      vertex   -5.000000e+001 1.090370e+002 1.355000e+003
      vertex   -5.000000e+001 1.300001e+002 1.355000e+003
      vertex   -5.000000e+001 1.090370e+002 1.325000e+003
    endloop
  endfacet
  facet normal -1.000000e+000 1.838625e-011 3.071762e-022
    outer loop
      vertex   -5.000000e+001 1.090370e+002 1.325000e+003
      vertex   -5.000000e+001 1.300001e+002 1.355000e+003
      vertex   -5.000000e+001 1.300001e+002 1.305000e+003
    endloop
  endfacet
  facet normal -1.000000e+000 2.230119e-017 -1.226565e-016
    outer loop
      vertex   -5.000000e+001 2.000014e+001 1.285000e+003
      vertex   -5.000000e+001 1.300001e+002 1.305000e+003
      vertex   -5.000000e+001 1.461122e+002 1.250000e+003
    endloop
  endfacet
  facet normal -1.000000e+000 4.181257e-008 -4.181253e-008
    outer loop
      vertex   -5.000000e+001 1.500013e+001 1.180000e+003
      vertex   -5.000000e+001 1.461122e+002 1.250000e+003
      vertex   -5.000000e+001 3.000013e+001 1.133888e+003
    endloop
  endfacet
  facet normal -1.000000e+000 -8.213014e-008 -8.213033e-008
    outer loop
      vertex   -5.000000e+001 2.638795e+001 1.137500e+003
      vertex   -5.000000e+001 1.500013e+001 1.180000e+003
      vertex   -5.000000e+001 3.000013e+001 1.133888e+003
    endloop
  endfacet
  facet normal -1.000000e+000 -7.994462e-016 -3.633847e-016
    outer loop
      vertex   -5.000000e+001 1.300001e+002 1.305000e+003
      vertex   -5.000000e+001 1.550001e+002 1.250000e+003
      vertex   -5.000000e+001 1.461122e+002 1.250000e+003
    endloop
  endfacet
  facet normal -1.000000e+000 -2.037761e-016 5.460193e-017
    outer loop
      vertex   -5.000000e+001 1.736124e+002 1.222500e+003
      vertex   -5.000000e+001 1.425001e+002 1.106388e+003
      vertex   -5.000000e+001 1.461122e+002 1.250000e+003
    endloop
  endfacet
  facet normal -1.000000e+000 0.000000e+000 0.000000e+000
    outer loop
      vertex   -5.000000e+001 1.736124e+002 1.222500e+003
      vertex   -5.000000e+001 1.736123e+002 1.137500e+003
      vertex   -5.000000e+001 1.425001e+002 1.106388e+003
    endloop
  endfacet
  facet normal -1.000000e+000 0.000000e+000 -0.000000e+000
    outer loop
      vertex   -5.000000e+001 1.736124e+002 1.222500e+003
      vertex   -5.000000e+001 1.850001e+002 1.180000e+003
      vertex   -5.000000e+001 1.736123e+002 1.137500e+003
    endloop
  endfacet
  facet normal -1.000000e+000 -1.334726e-017 4.981224e-017
    outer loop
      vertex   -5.000000e+001 1.425001e+002 1.106388e+003
      vertex   -5.000000e+001 1.000001e+002 1.095000e+003
      vertex   -5.000000e+001 1.461122e+002 1.250000e+003
    endloop
  endfacet
  facet normal -1.000000e+000 2.185480e-017 3.933972e-017
    outer loop
      vertex   -5.000000e+001 1.461122e+002 1.250000e+003
      vertex   -5.000000e+001 1.000001e+002 1.095000e+003
      vertex   -5.000000e+001 3.000013e+001 1.133888e+003
    endloop
  endfacet
  facet normal -1.000000e+000 0.000000e+000 -0.000000e+000
    outer loop
      vertex   -5.000000e+001 3.000013e+001 1.133888e+003
      vertex   -5.000000e+001 1.000001e+002 1.095000e+003
      vertex   -5.000000e+001 3.000013e+001 1.090000e+003
    endloop
  endfacet
  facet normal -1.000000e+000 0.000000e+000 0.000000e+000
    outer loop
      vertex   -5.000000e+001 3.000013e+001 1.090000e+003
      vertex   -5.000000e+001 1.000001e+002 1.095000e+003
      vertex   -5.000000e+001 1.000001e+002 1.090000e+003
    endloop
  endfacet
  facet normal -1.000000e+000 -1.999699e-008 -3.193944e-008
    outer loop
      vertex   -5.000000e+001 1.500014e+001 1.100000e+003
      vertex   -5.000000e+001 1.371009e-004 1.100000e+003
      vertex   -5.000000e+001 1.500013e+001 1.180000e+003
    endloop
  endfacet
  facet normal -1.000000e+000 -1.701144e-007 -3.792375e-009
    outer loop
      vertex   -5.000000e+001 1.500013e+001 1.180000e+003
      vertex   -5.000000e+001 1.371009e-004 1.100000e+003
      vertex   -5.000000e+001 1.395517e-004 1.273000e+003
    endloop
  endfacet
  facet normal -1.000000e+000 -4.736952e-016 2.968583e-008
    outer loop
      vertex   -5.000000e+001 2.000014e+001 1.285000e+003
      vertex   -5.000000e+001 1.395517e-004 1.273000e+003
      vertex   -5.000000e+001 5.000139e+000 1.285000e+003
    endloop
  endfacet
  facet normal -1.000000e+000 3.304458e-009 2.417840e-008
    outer loop
      vertex   -5.000000e+001 2.000014e+001 1.285000e+003
      vertex   -5.000000e+001 1.500013e+001 1.180000e+003
      vertex   -5.000000e+001 1.395517e-004 1.273000e+003
    endloop
  endfacet
  facet normal -1.000000e+000 6.665832e-009 2.401834e-008
    outer loop
      vertex   -5.000000e+001 2.000014e+001 1.285000e+003
      vertex   -5.000000e+001 1.461122e+002 1.250000e+003
      vertex   -5.000000e+001 1.500013e+001 1.180000e+003
    endloop
  endfacet
  facet normal -1.000000e+000 7.124601e-008 -1.427513e-015
    outer loop
      vertex   -5.000000e+001 5.000139e+000 1.285000e+003
      vertex   -5.000000e+001 1.395517e-004 1.273000e+003
      vertex   -5.000000e+001 5.000139e+000 1.290000e+003
    endloop
  endfacet
  facet normal -1.000000e+000 8.268760e-009 1.852272e-008
    outer loop
      vertex   -5.000000e+001 5.000139e+000 1.290000e+003
      vertex   -5.000000e+001 1.395517e-004 1.273000e+003
      vertex   -5.000000e+001 -5.999986e+001 1.273000e+003
    endloop
  endfacet
  facet normal -1.000000e+000 9.926642e-009 1.218375e-008
    outer loop
      vertex   -5.000000e+001 -5.999986e+001 1.343000e+003
      vertex   -5.000000e+001 5.000139e+000 1.290000e+003
      vertex   -5.000000e+001 -5.999986e+001 1.273000e+003
    endloop
  endfacet
  facet normal -1.000000e+000 -8.425221e-013 8.534243e-012
    outer loop
      vertex   -5.000000e+001 -5.999986e+001 1.343000e+003
      vertex   -5.000000e+001 1.096330e+001 1.325000e+003
      vertex   -5.000000e+001 5.000139e+000 1.290000e+003
    endloop
  endfacet
  facet normal -1.000000e+000 -7.801212e-012 -1.889968e-011
    outer loop
      vertex   -5.000000e+001 -5.999986e+001 1.343000e+003
      vertex   -5.000000e+001 5.000139e+000 1.343000e+003
      vertex   -5.000000e+001 1.096330e+001 1.325000e+003
    endloop
  endfacet
  facet normal -1.000000e+000 1.969930e-011 -9.789133e-012
    outer loop
      vertex   -5.000000e+001 1.096330e+001 1.325000e+003
      vertex   -5.000000e+001 5.000139e+000 1.343000e+003
      vertex   -5.000000e+001 1.096328e+001 1.355000e+003
    endloop
  endfacet
  facet normal -1.000000e+000 -0.000000e+000 0.000000e+000
    outer loop
      vertex   -5.000000e+001 1.096328e+001 1.355000e+003
      vertex   -5.000000e+001 5.000139e+000 1.343000e+003
      vertex   -5.000000e+001 5.000139e+000 1.355000e+003
    endloop
  endfacet
  facet normal -1.000000e+000 2.791774e-022 8.390698e-012
    outer loop
      vertex   -5.000000e+001 5.000139e+000 1.290000e+003
      vertex   -5.000000e+001 1.096330e+001 1.325000e+003
      vertex   -5.000000e+001 2.000014e+001 1.290000e+003
    endloop
  endfacet
  facet normal -1.000000e+000 -6.924471e-012 6.602831e-012
    outer loop
      vertex   -5.000000e+001 2.000014e+001 1.290000e+003
      vertex   -5.000000e+001 1.096330e+001 1.325000e+003
      vertex   -5.000000e+001 1.090370e+002 1.325000e+003
    endloop
  endfacet
  facet normal -1.000000e+000 2.943071e-012 -1.618689e-011
    outer loop
      vertex   -5.000000e+001 2.000014e+001 1.285000e+003
      vertex   -5.000000e+001 1.090370e+002 1.325000e+003
      vertex   -5.000000e+001 1.300001e+002 1.305000e+003
    endloop
  endfacet
  facet normal -1.000000e+000 -4.328926e-012 5.771595e-023
    outer loop
      vertex   -5.000000e+001 2.000014e+001 1.285000e+003
      vertex   -5.000000e+001 2.000014e+001 1.290000e+003
      vertex   -5.000000e+001 1.090370e+002 1.325000e+003
    endloop
  endfacet
  facet normal -1.000000e+000 0.000000e+000 0.000000e+000
    outer loop
      vertex   -5.000000e+001 2.500014e+001 1.273000e+003
      vertex   -5.000000e+001 1.500014e+001 1.273000e+003
      vertex   -5.000000e+001 2.500014e+001 1.280000e+003
    endloop
  endfacet
  facet normal 1.000000e+000 1.923310e-008 -2.747586e-008
    outer loop
      vertex   -5.000000e+001 2.500014e+001 1.280000e+003
      vertex   -5.000000e+001 1.500014e+001 1.273000e+003
      vertex   -5.000000e+001 1.500013e+001 1.180000e+003
    endloop
  endfacet
  facet normal 1.000000e+000 -2.931007e-007 1.841256e-008
    outer loop
      vertex   -5.000000e+001 3.000014e+001 1.280000e+003
      vertex   -5.000000e+001 1.500013e+001 1.180000e+003
      vertex   -5.000000e+001 2.638799e+001 1.222500e+003
    endloop
  endfacet
  facet normal 1.000000e+000 0.000000e+000 -0.000000e+000
    outer loop
      vertex   -5.000000e+001 3.000014e+001 1.226112e+003
      vertex   -5.000000e+001 3.000014e+001 1.280000e+003
      vertex   -5.000000e+001 2.638799e+001 1.222500e+003
    endloop
  endfacet
  facet normal 1.000000e+000 -1.487417e-018 -2.555254e-008
    outer loop
      vertex   -5.000000e+001 2.500014e+001 1.280000e+003
      vertex   -5.000000e+001 1.500013e+001 1.180000e+003
      vertex   -5.000000e+001 3.000014e+001 1.280000e+003
    endloop
  endfacet
  facet normal 0.000000e+000 0.000000e+000 -1.000000e+000
    outer loop
      vertex   -6.278683e+001 2.375011e+001 1.325000e+003
      vertex   -7.250000e+001 6.000012e+001 1.325000e+003
      vertex   -5.000000e+001 1.096330e+001 1.325000e+003
    endloop
  endfacet
  facet normal 0.000000e+000 0.000000e+000 -1.000000e+000
    outer loop
      vertex   -5.000000e+001 1.096330e+001 1.325000e+003
      vertex   -7.250000e+001 6.000012e+001 1.325000e+003
      vertex   -5.000000e+001 1.090370e+002 1.325000e+003
    endloop
  endfacet
  facet normal -0.000000e+000 0.000000e+000 -1.000000e+000
    outer loop
      vertex   -5.000000e+001 1.090370e+002 1.325000e+003
      vertex   -7.250000e+001 6.000012e+001 1.325000e+003
      vertex   -6.278686e+001 9.625010e+001 1.325000e+003
    endloop
  endfacet
  facet normal -9.659260e-001 2.588186e-001 1.029577e-012
    outer loop
      vertex   -6.278686e+001 9.625010e+001 1.360000e+003
      vertex   -6.278686e+001 9.625010e+001 1.325000e+003
      vertex   -7.250000e+001 6.000012e+001 1.360000e+003
    endloop
  endfacet
  facet normal -9.659260e-001 2.588186e-001 -1.843818e-011
    outer loop
      vertex   -7.250000e+001 6.000012e+001 1.360000e+003
      vertex   -6.278686e+001 9.625010e+001 1.325000e+003
      vertex   -7.250000e+001 6.000012e+001 1.325000e+003
    endloop
  endfacet
  facet normal 9.659258e-001 2.588191e-001 -6.963230e-011
    outer loop
      vertex   7.250000e+001 6.000014e+001 1.360000e+003
      vertex   7.250000e+001 6.000014e+001 1.355000e+003
      vertex   6.278684e+001 9.625014e+001 1.360000e+003
    endloop
  endfacet
  facet normal 9.659258e-001 2.588191e-001 -9.855910e-012
    outer loop
      vertex   6.278684e+001 9.625014e+001 1.360000e+003
      vertex   7.250000e+001 6.000014e+001 1.355000e+003
      vertex   6.278684e+001 9.625014e+001 1.355000e+003
    endloop
  endfacet
  facet normal -1.717338e-011 -1.000000e+000 1.538580e-008
    outer loop
      vertex   4.403683e+001 5.000139e+000 1.343000e+003
      vertex   8.000000e+001 5.000139e+000 1.343000e+003
      vertex   4.403686e+001 5.000139e+000 1.355000e+003
    endloop
  endfacet
  facet normal -1.437879e-011 -1.000000e+000 1.539418e-008
    outer loop
      vertex   4.403686e+001 5.000139e+000 1.355000e+003
      vertex   8.000000e+001 5.000139e+000 1.343000e+003
      vertex   8.000000e+001 5.000139e+000 1.355000e+003
    endloop
  endfacet
  facet normal 9.659258e-001 -2.588191e-001 -1.050338e-010
    outer loop
      vertex   6.278684e+001 2.375014e+001 1.360000e+003
      vertex   6.278684e+001 2.375014e+001 1.355000e+003
      vertex   7.250000e+001 6.000014e+001 1.360000e+003
    endloop
  endfacet
  facet normal 9.659258e-001 -2.588191e-001 6.963208e-011
    outer loop
      vertex   7.250000e+001 6.000014e+001 1.360000e+003
      vertex   6.278684e+001 2.375014e+001 1.355000e+003
      vertex   7.250000e+001 6.000014e+001 1.355000e+003
    endloop
  endfacet
  facet normal 7.071067e-001 -7.071069e-001 3.424757e-006
    outer loop
      vertex   6.278684e+001 2.375014e+001 1.360000e+003
      vertex   3.625000e+001 -2.786697e+000 1.360000e+003
      vertex   4.403686e+001 5.000139e+000 1.355000e+003
    endloop
  endfacet
  facet normal 7.071071e-001 -7.071064e-001 1.117567e-010
    outer loop
      vertex   6.278684e+001 2.375014e+001 1.355000e+003
      vertex   6.278684e+001 2.375014e+001 1.360000e+003
      vertex   4.403686e+001 5.000139e+000 1.355000e+003
    endloop
  endfacet
  facet normal 7.071067e-001 -7.071068e-001 -1.490830e-006
    outer loop
      vertex   4.403683e+001 5.000139e+000 1.343000e+003
      vertex   4.403686e+001 5.000139e+000 1.355000e+003
      vertex   3.625000e+001 -2.786697e+000 1.343000e+003
    endloop
  endfacet
  facet normal 7.071056e-001 -7.071080e-001 2.626787e-010
    outer loop
      vertex   3.625000e+001 -2.786697e+000 1.343000e+003
      vertex   4.403686e+001 5.000139e+000 1.355000e+003
      vertex   3.625000e+001 -2.786697e+000 1.360000e+003
    endloop
  endfacet
  facet normal 2.238756e-012 -5.820768e-011 -1.000000e+000
    outer loop
      vertex   -5.000000e+001 3.000014e+001 1.280000e+003
      vertex   8.000000e+001 3.000014e+001 1.280000e+003
      vertex   -5.000000e+001 2.500014e+001 1.280000e+003
    endloop
  endfacet
  facet normal 0.000000e+000 -0.000000e+000 -1.000000e+000
    outer loop
      vertex   -5.000000e+001 2.500014e+001 1.280000e+003
      vertex   8.000000e+001 3.000014e+001 1.280000e+003
      vertex   8.000000e+001 2.500014e+001 1.280000e+003
    endloop
  endfacet
  facet normal -3.538776e-012 -1.000000e+000 1.577669e-008
    outer loop
      vertex   8.000000e+001 3.000014e+001 1.226112e+003
      vertex   8.000000e+001 3.000014e+001 1.280000e+003
      vertex   -5.000000e+001 3.000014e+001 1.226112e+003
    endloop
  endfacet
  facet normal 4.355326e-012 -1.000000e+000 1.575765e-008
    outer loop
      vertex   -5.000000e+001 3.000014e+001 1.226112e+003
      vertex   8.000000e+001 3.000014e+001 1.280000e+003
      vertex   -5.000000e+001 3.000014e+001 1.280000e+003
    endloop
  endfacet
  facet normal 2.321045e-012 -7.071055e-001 7.071080e-001
    outer loop
      vertex   -5.000000e+001 3.000014e+001 1.226112e+003
      vertex   -5.000000e+001 2.638799e+001 1.222500e+003
      vertex   8.000000e+001 3.000014e+001 1.226112e+003
    endloop
  endfacet
  facet normal -4.159143e-011 -7.071055e-001 7.071080e-001
    outer loop
      vertex   8.000000e+001 3.000014e+001 1.226112e+003
      vertex   -5.000000e+001 2.638799e+001 1.222500e+003
      vertex   1.100000e+002 2.638799e+001 1.222500e+003
    endloop
  endfacet
  facet normal -3.222268e-008 -7.071057e-001 7.071079e-001
    outer loop
      vertex   1.100000e+002 5.750015e+001 1.253612e+003
      vertex   8.000000e+001 3.000014e+001 1.226112e+003
      vertex   1.100000e+002 2.638799e+001 1.222500e+003
    endloop
  endfacet
  facet normal -3.048197e-009 -7.071057e-001 7.071079e-001
    outer loop
      vertex   1.100000e+002 5.750015e+001 1.253612e+003
      vertex   8.000000e+001 5.750015e+001 1.253612e+003
      vertex   8.000000e+001 3.000014e+001 1.226112e+003
    endloop
  endfacet
  facet normal 3.051784e-009 -2.588212e-001 9.659252e-001
    outer loop
      vertex   1.100000e+002 5.750015e+001 1.253612e+003
      vertex   1.100000e+002 1.000001e+002 1.265000e+003
      vertex   8.000000e+001 5.750015e+001 1.253612e+003
    endloop
  endfacet
  facet normal -5.994362e-010 -2.588212e-001 9.659252e-001
    outer loop
      vertex   8.000000e+001 5.750015e+001 1.253612e+003
      vertex   1.100000e+002 1.000001e+002 1.265000e+003
      vertex   8.000000e+001 1.000001e+002 1.265000e+003
    endloop
  endfacet
  facet normal 5.979864e-010 2.588211e-001 9.659253e-001
    outer loop
      vertex   1.100000e+002 1.000001e+002 1.265000e+003
      vertex   1.100000e+002 1.425001e+002 1.253612e+003
      vertex   8.000000e+001 1.000001e+002 1.265000e+003
    endloop
  endfacet
  facet normal 2.711450e-011 2.588211e-001 9.659253e-001
    outer loop
      vertex   8.000000e+001 1.000001e+002 1.265000e+003
      vertex   1.100000e+002 1.425001e+002 1.253612e+003
      vertex   8.000000e+001 1.425001e+002 1.253612e+003
    endloop
  endfacet
  facet normal 4.538005e-011 7.071051e-001 7.071085e-001
    outer loop
      vertex   8.000000e+001 1.425001e+002 1.253612e+003
      vertex   1.100000e+002 1.425001e+002 1.253612e+003
      vertex   8.000000e+001 1.461122e+002 1.250000e+003
    endloop
  endfacet
  facet normal 1.696958e-011 7.071051e-001 7.071085e-001
    outer loop
      vertex   8.000000e+001 1.461122e+002 1.250000e+003
      vertex   1.100000e+002 1.425001e+002 1.253612e+003
      vertex   1.100000e+002 1.736124e+002 1.222500e+003
    endloop
  endfacet
  facet normal -8.675744e-013 7.071051e-001 7.071085e-001
    outer loop
      vertex   -5.000000e+001 1.736124e+002 1.222500e+003
      vertex   8.000000e+001 1.461122e+002 1.250000e+003
      vertex   1.100000e+002 1.736124e+002 1.222500e+003
    endloop
  endfacet
  facet normal -1.010702e-011 7.071051e-001 7.071085e-001
    outer loop
      vertex   -5.000000e+001 1.736124e+002 1.222500e+003
      vertex   -5.000000e+001 1.461122e+002 1.250000e+003
      vertex   8.000000e+001 1.461122e+002 1.250000e+003
    endloop
  endfacet
  facet normal 8.395336e-013 -2.542879e-011 -1.000000e+000
    outer loop
      vertex   -5.000000e+001 1.550001e+002 1.250000e+003
      vertex   8.000000e+001 1.550001e+002 1.250000e+003
      vertex   -5.000000e+001 1.461122e+002 1.250000e+003
    endloop
  endfacet
  facet normal 6.009661e-012 -1.010500e-010 -1.000000e+000
    outer loop
      vertex   -5.000000e+001 1.461122e+002 1.250000e+003
      vertex   8.000000e+001 1.550001e+002 1.250000e+003
      vertex   8.000000e+001 1.461122e+002 1.250000e+003
    endloop
  endfacet
  facet normal 0.000000e+000 0.000000e+000 1.000000e+000
    outer loop
      vertex   -4.403684e+001 5.000139e+000 1.343000e+003
      vertex   -5.000000e+001 5.000139e+000 1.343000e+003
      vertex   -3.624998e+001 -2.786711e+000 1.343000e+003
    endloop
  endfacet
  facet normal 0.000000e+000 0.000000e+000 1.000000e+000
    outer loop
      vertex   -3.624998e+001 -2.786711e+000 1.343000e+003
      vertex   -5.000000e+001 5.000139e+000 1.343000e+003
      vertex   -5.000000e+001 -5.999986e+001 1.343000e+003
    endloop
  endfacet
  facet normal 0.000000e+000 0.000000e+000 1.000000e+000
    outer loop
      vertex   1.099996e-005 -1.249986e+001 1.343000e+003
      vertex   -5.000000e+001 -5.999986e+001 1.343000e+003
      vertex   -3.700000e+001 -6.699986e+001 1.343000e+003
    endloop
  endfacet
  facet normal 0.000000e+000 0.000000e+000 1.000000e+000
    outer loop
      vertex   6.700000e+001 -6.699986e+001 1.343000e+003
      vertex   1.099996e-005 -1.249986e+001 1.343000e+003
      vertex   -3.700000e+001 -6.699986e+001 1.343000e+003
    endloop
  endfacet
  facet normal 0.000000e+000 -0.000000e+000 1.000000e+000
    outer loop
      vertex   6.700000e+001 -6.699986e+001 1.343000e+003
      vertex   8.000000e+001 -5.999986e+001 1.343000e+003
      vertex   1.099996e-005 -1.249986e+001 1.343000e+003
    endloop
  endfacet
  facet normal -0.000000e+000 -0.000000e+000 1.000000e+000
    outer loop
      vertex   1.099996e-005 -1.249986e+001 1.343000e+003
      vertex   8.000000e+001 -5.999986e+001 1.343000e+003
      vertex   3.625000e+001 -2.786697e+000 1.343000e+003
    endloop
  endfacet
  facet normal -0.000000e+000 0.000000e+000 1.000000e+000
    outer loop
      vertex   3.625000e+001 -2.786697e+000 1.343000e+003
      vertex   8.000000e+001 -5.999986e+001 1.343000e+003
      vertex   8.000000e+001 5.000139e+000 1.343000e+003
    endloop
  endfacet
  facet normal -0.000000e+000 0.000000e+000 1.000000e+000
    outer loop
      vertex   4.403683e+001 5.000139e+000 1.343000e+003
      vertex   3.625000e+001 -2.786697e+000 1.343000e+003
      vertex   8.000000e+001 5.000139e+000 1.343000e+003
    endloop
  endfacet
  facet normal -0.000000e+000 0.000000e+000 1.000000e+000
    outer loop
      vertex   -3.624998e+001 -2.786711e+000 1.343000e+003
      vertex   -5.000000e+001 -5.999986e+001 1.343000e+003
      vertex   1.099996e-005 -1.249986e+001 1.343000e+003
    endloop
  endfacet
  facet normal 4.740998e-001 -8.804711e-001 -8.174281e-013
    outer loop
      vertex   6.700000e+001 -6.699986e+001 1.343000e+003
      vertex   6.700000e+001 -6.699986e+001 1.285000e+003
      vertex   8.000000e+001 -5.999986e+001 1.343000e+003
    endloop
  endfacet
  facet normal 4.740999e-001 -8.804710e-001 -3.042343e-008
    outer loop
      vertex   8.000000e+001 -5.999986e+001 1.343000e+003
      vertex   6.700000e+001 -6.699986e+001 1.285000e+003
      vertex   8.000000e+001 -5.999986e+001 1.285000e+003
    endloop
  endfacet
  facet normal 4.740999e-001 -8.804710e-001 -1.316469e-007
    outer loop
      vertex   8.000000e+001 -5.999986e+001 1.285000e+003
      vertex   6.700000e+001 -6.699986e+001 1.285000e+003
      vertex   8.000000e+001 -5.999986e+001 1.273000e+003
    endloop
  endfacet
  facet normal 4.741000e-001 -8.804710e-001 0.000000e+000
    outer loop
      vertex   8.000000e+001 -5.999986e+001 1.273000e+003
      vertex   6.700000e+001 -6.699986e+001 1.285000e+003
      vertex   6.700000e+001 -6.699986e+001 1.273000e+003
    endloop
  endfacet
  facet normal 3.019522e-011 3.019523e-011 -1.000000e+000
    outer loop
      vertex   8.000000e+001 -4.499986e+001 1.273000e+003
      vertex   8.000000e+001 -5.999986e+001 1.273000e+003
      vertex   6.500000e+001 -4.499986e+001 1.273000e+003
    endloop
  endfacet
  facet normal 0.000000e+000 -0.000000e+000 -1.000000e+000
    outer loop
      vertex   6.500000e+001 -4.499986e+001 1.273000e+003
      vertex   8.000000e+001 -5.999986e+001 1.273000e+003
      vertex   6.700000e+001 -6.699986e+001 1.273000e+003
    endloop
  endfacet
  facet normal 0.000000e+000 0.000000e+000 -1.000000e+000
    outer loop
      vertex   6.500000e+001 -6.699986e+001 1.273000e+003
      vertex   6.500000e+001 -4.499986e+001 1.273000e+003
      vertex   6.700000e+001 -6.699986e+001 1.273000e+003
    endloop
  endfacet
  facet normal 2.121739e-006 -1.000000e+000 1.226636e-018
    outer loop
      vertex   8.000000e+001 -4.499986e+001 1.100000e+003
      vertex   8.000000e+001 -4.499986e+001 1.273000e+003
      vertex   6.500000e+001 -4.499989e+001 1.100000e+003
    endloop
  endfacet
  facet normal -5.554893e-018 -1.000000e+000 1.839659e-007
    outer loop
      vertex   6.500000e+001 -4.499989e+001 1.100000e+003
      vertex   8.000000e+001 -4.499986e+001 1.273000e+003
      vertex   6.500000e+001 -4.499986e+001 1.273000e+003
    endloop
  endfacet
  facet normal -1.477184e-014 -1.821162e-010 -1.000000e+000
    outer loop
      vertex   8.000000e+001 -4.499986e+001 1.100000e+003
      vertex   6.500000e+001 -4.499989e+001 1.100000e+003
      vertex   8.000000e+001 1.404999e-004 1.100000e+003
    endloop
  endfacet
  facet normal -0.000000e+000 -1.821211e-010 -1.000000e+000
    outer loop
      vertex   8.000000e+001 1.404999e-004 1.100000e+003
      vertex   6.500000e+001 -4.499989e+001 1.100000e+003
      vertex   -2.000000e+001 -4.499989e+001 1.100000e+003
    endloop
  endfacet
  facet normal 1.372937e-014 -6.734459e-010 -1.000000e+000
    outer loop
      vertex   -5.000000e+001 1.371009e-004 1.100000e+003
      vertex   -2.000000e+001 -4.499989e+001 1.100000e+003
      vertex   -3.500000e+001 -4.499986e+001 1.100000e+003
    endloop
  endfacet
  facet normal 1.700773e-010 -5.600703e-010 -1.000000e+000
    outer loop
      vertex   -5.000000e+001 1.371009e-004 1.100000e+003
      vertex   8.000000e+001 1.404999e-004 1.100000e+003
      vertex   -2.000000e+001 -4.499989e+001 1.100000e+003
    endloop
  endfacet
  facet normal 1.702899e-010 -8.131312e-006 -1.000000e+000
    outer loop
      vertex   -5.000000e+001 1.371009e-004 1.100000e+003
      vertex   -5.000000e+001 1.500014e+001 1.100000e+003
      vertex   8.000000e+001 1.404999e-004 1.100000e+003
    endloop
  endfacet
  facet normal 0.000000e+000 -8.132788e-006 -1.000000e+000
    outer loop
      vertex   8.000000e+001 1.404999e-004 1.100000e+003
      vertex   -5.000000e+001 1.500014e+001 1.100000e+003
      vertex   8.000000e+001 1.500014e+001 1.100000e+003
    endloop
  endfacet
  facet normal 0.000000e+000 0.000000e+000 -1.000000e+000
    outer loop
      vertex   8.000000e+001 1.500014e+001 1.100000e+003
      vertex   -5.000000e+001 1.500014e+001 1.100000e+003
      vertex   7.000000e+001 2.500014e+001 1.100000e+003
    endloop
  endfacet
  facet normal -0.000000e+000 0.000000e+000 -1.000000e+000
    outer loop
      vertex   7.000000e+001 2.500014e+001 1.100000e+003
      vertex   -5.000000e+001 1.500014e+001 1.100000e+003
      vertex   -4.000000e+001 2.500014e+001 1.100000e+003
    endloop
  endfacet
  facet normal 7.071068e-001 7.071068e-001 8.443104e-009
    outer loop
      vertex   8.000000e+001 1.500014e+001 1.180000e+003
      vertex   8.000000e+001 1.500014e+001 1.100000e+003
      vertex   7.000000e+001 2.500014e+001 1.142679e+003
    endloop
  endfacet
  facet normal 7.071068e-001 7.071068e-001 1.029025e-011
    outer loop
      vertex   7.000000e+001 2.500014e+001 1.142679e+003
      vertex   8.000000e+001 1.500014e+001 1.100000e+003
      vertex   7.000000e+001 2.500014e+001 1.100000e+003
    endloop
  endfacet
  facet normal 7.071068e-001 7.071068e-001 -5.425798e-012
    outer loop
      vertex   7.000000e+001 2.500014e+001 1.273000e+003
      vertex   8.000000e+001 1.500014e+001 1.273000e+003
      vertex   7.000000e+001 2.500014e+001 1.217320e+003
    endloop
  endfacet
  facet normal 7.071068e-001 7.071068e-001 -7.262885e-009
    outer loop
      vertex   7.000000e+001 2.500014e+001 1.217320e+003
      vertex   8.000000e+001 1.500014e+001 1.273000e+003
      vertex   8.000000e+001 1.500014e+001 1.180000e+003
    endloop
  endfacet
  facet normal 0.000000e+000 0.000000e+000 -1.000000e+000
    outer loop
      vertex   7.000000e+001 2.500014e+001 1.273000e+003
      vertex   8.000000e+001 2.500014e+001 1.273000e+003
      vertex   8.000000e+001 1.500014e+001 1.273000e+003
    endloop
  endfacet
  facet normal 1.899087e-014 1.000000e+000 5.876448e-012
    outer loop
      vertex   -4.000000e+001 2.500014e+001 1.217320e+003
      vertex   -4.000000e+001 2.500014e+001 1.273000e+003
      vertex   7.000000e+001 2.500014e+001 1.217320e+003
    endloop
  endfacet
  facet normal 2.924981e-012 1.000000e+000 1.161750e-011
    outer loop
      vertex   7.000000e+001 2.500014e+001 1.217320e+003
      vertex   -4.000000e+001 2.500014e+001 1.273000e+003
      vertex   7.000000e+001 2.500014e+001 1.273000e+003
    endloop
  endfacet
  facet normal 2.924981e-012 1.000000e+000 9.958210e-013
    outer loop
      vertex   7.000000e+001 2.500014e+001 1.273000e+003
      vertex   -4.000000e+001 2.500014e+001 1.273000e+003
      vertex   -5.000000e+001 2.500014e+001 1.280000e+003
    endloop
  endfacet
  facet normal 1.713774e-013 1.000000e+000 -4.620882e-011
    outer loop
      vertex   8.000000e+001 2.500014e+001 1.280000e+003
      vertex   7.000000e+001 2.500014e+001 1.273000e+003
      vertex   -5.000000e+001 2.500014e+001 1.280000e+003
    endloop
  endfacet
  facet normal 1.293223e-011 1.000000e+000 -6.443861e-011
    outer loop
      vertex   8.000000e+001 2.500014e+001 1.280000e+003
      vertex   8.000000e+001 2.500014e+001 1.273000e+003
      vertex   7.000000e+001 2.500014e+001 1.273000e+003
    endloop
  endfacet
  facet normal 9.999468e-012 1.000000e+000 1.110223e-011
    outer loop
      vertex   -4.000000e+001 2.500014e+001 1.273000e+003
      vertex   -5.000000e+001 2.500014e+001 1.273000e+003
      vertex   -5.000000e+001 2.500014e+001 1.280000e+003
    endloop
  endfacet
  facet normal 7.692308e-009 1.000000e+000 -1.014886e-010
    outer loop
      vertex   8.000000e+001 5.000138e+000 1.290000e+003
      vertex   8.000000e+001 5.000138e+000 1.285000e+003
      vertex   -5.000000e+001 5.000139e+000 1.290000e+003
    endloop
  endfacet
  facet normal 7.692741e-009 1.000000e+000 -9.021530e-011
    outer loop
      vertex   -5.000000e+001 5.000139e+000 1.290000e+003
      vertex   8.000000e+001 5.000138e+000 1.285000e+003
      vertex   -5.000000e+001 5.000139e+000 1.285000e+003
    endloop
  endfacet
  facet normal 1.278540e-012 -3.327235e-011 -1.000000e+000
    outer loop
      vertex   -5.000000e+001 2.000014e+001 1.290000e+003
      vertex   8.000000e+001 2.000014e+001 1.290000e+003
      vertex   -5.000000e+001 5.000139e+000 1.290000e+003
    endloop
  endfacet
  facet normal -1.707052e-019 -2.219167e-011 -1.000000e+000
    outer loop
      vertex   -5.000000e+001 5.000139e+000 1.290000e+003
      vertex   8.000000e+001 2.000014e+001 1.290000e+003
      vertex   8.000000e+001 5.000138e+000 1.290000e+003
    endloop
  endfacet
  facet normal 4.282496e-012 -1.000000e+000 -8.533050e-011
    outer loop
      vertex   8.000000e+001 2.000014e+001 1.285000e+003
      vertex   8.000000e+001 2.000014e+001 1.290000e+003
      vertex   -5.000000e+001 2.000014e+001 1.285000e+003
    endloop
  endfacet
  facet normal 4.877603e-013 -1.000000e+000 1.333262e-011
    outer loop
      vertex   -5.000000e+001 2.000014e+001 1.285000e+003
      vertex   8.000000e+001 2.000014e+001 1.290000e+003
      vertex   -5.000000e+001 2.000014e+001 1.290000e+003
    endloop
  endfacet
  facet normal 0.000000e+000 -0.000000e+000 1.000000e+000
    outer loop
      vertex   8.000000e+001 5.000138e+000 1.285000e+003
      vertex   8.000000e+001 2.000014e+001 1.285000e+003
      vertex   -5.000000e+001 5.000139e+000 1.285000e+003
    endloop
  endfacet
  facet normal 0.000000e+000 -0.000000e+000 1.000000e+000
    outer loop
      vertex   -5.000000e+001 5.000139e+000 1.285000e+003
      vertex   8.000000e+001 2.000014e+001 1.285000e+003
      vertex   -5.000000e+001 2.000014e+001 1.285000e+003
    endloop
  endfacet
  facet normal -1.655273e-013 9.659261e-001 2.588179e-001
    outer loop
      vertex   -5.000000e+001 1.850001e+002 1.180000e+003
      vertex   -5.000000e+001 1.736124e+002 1.222500e+003
      vertex   1.100000e+002 1.850001e+002 1.180000e+003
    endloop
  endfacet
  facet normal 9.150365e-013 9.659261e-001 2.588179e-001
    outer loop
      vertex   1.100000e+002 1.850001e+002 1.180000e+003
      vertex   -5.000000e+001 1.736124e+002 1.222500e+003
      vertex   1.100000e+002 1.736124e+002 1.222500e+003
    endloop
  endfacet
  facet normal 3.352929e-013 9.659261e-001 -2.588179e-001
    outer loop
      vertex   -5.000000e+001 1.736123e+002 1.137500e+003
      vertex   -5.000000e+001 1.850001e+002 1.180000e+003
      vertex   1.100000e+002 1.736123e+002 1.137500e+003
    endloop
  endfacet
  facet normal 1.198868e-013 9.659261e-001 -2.588179e-001
    outer loop
      vertex   1.100000e+002 1.736123e+002 1.137500e+003
      vertex   -5.000000e+001 1.850001e+002 1.180000e+003
      vertex   1.100000e+002 1.850001e+002 1.180000e+003
    endloop
  endfacet
  facet normal -3.584879e-013 7.071044e-001 -7.071092e-001
    outer loop
      vertex   -5.000000e+001 1.736123e+002 1.137500e+003
      vertex   1.100000e+002 1.736123e+002 1.137500e+003
      vertex   -5.000000e+001 1.425001e+002 1.106388e+003
    endloop
  endfacet
  facet normal 5.203845e-013 7.071044e-001 -7.071092e-001
    outer loop
      vertex   -5.000000e+001 1.425001e+002 1.106388e+003
      vertex   1.100000e+002 1.736123e+002 1.137500e+003
      vertex   1.100000e+002 1.425001e+002 1.106388e+003
    endloop
  endfacet
  facet normal -9.937847e-018 2.588211e-001 -9.659253e-001
    outer loop
      vertex   -5.000000e+001 1.000001e+002 1.095000e+003
      vertex   -5.000000e+001 1.425001e+002 1.106388e+003
      vertex   8.000000e+001 1.000002e+002 1.095000e+003
    endloop
  endfacet
  facet normal -5.551247e-013 2.588211e-001 -9.659253e-001
    outer loop
      vertex   8.000000e+001 1.000002e+002 1.095000e+003
      vertex   -5.000000e+001 1.425001e+002 1.106388e+003
      vertex   1.100000e+002 1.425001e+002 1.106388e+003
    endloop
  endfacet
  facet normal 3.050455e-011 2.588211e-001 -9.659253e-001
    outer loop
      vertex   1.100000e+002 1.000002e+002 1.095000e+003
      vertex   8.000000e+001 1.000002e+002 1.095000e+003
      vertex   1.100000e+002 1.425001e+002 1.106388e+003
    endloop
  endfacet
  facet normal -4.243319e-007 1.000000e+000 -1.103274e-005
    outer loop
      vertex   8.000000e+001 1.000002e+002 1.095000e+003
      vertex   8.000000e+001 1.000001e+002 1.090000e+003
      vertex   -5.000000e+001 1.000001e+002 1.095000e+003
    endloop
  endfacet
  facet normal 4.252434e-012 1.000000e+000 0.000000e+000
    outer loop
      vertex   -5.000000e+001 1.000001e+002 1.095000e+003
      vertex   8.000000e+001 1.000001e+002 1.090000e+003
      vertex   -5.000000e+001 1.000001e+002 1.090000e+003
    endloop
  endfacet
  facet normal 1.749028e-015 -9.705607e-012 -1.000000e+000
    outer loop
      vertex   -5.000000e+001 1.000001e+002 1.090000e+003
      vertex   8.000000e+001 1.000001e+002 1.090000e+003
      vertex   -5.000000e+001 3.000013e+001 1.090000e+003
    endloop
  endfacet
  facet normal -5.226096e-012 3.248195e-015 -1.000000e+000
    outer loop
      vertex   -5.000000e+001 3.000013e+001 1.090000e+003
      vertex   8.000000e+001 1.000001e+002 1.090000e+003
      vertex   8.000000e+001 3.000013e+001 1.090000e+003
    endloop
  endfacet
  facet normal 7.381255e-012 -1.000000e+000 1.579747e-008
    outer loop
      vertex   -5.000000e+001 3.000013e+001 1.133888e+003
      vertex   -5.000000e+001 3.000013e+001 1.090000e+003
      vertex   8.000000e+001 3.000013e+001 1.133888e+003
    endloop
  endfacet
  facet normal -2.327492e-012 -1.000000e+000 1.582622e-008
    outer loop
      vertex   8.000000e+001 3.000013e+001 1.133888e+003
      vertex   -5.000000e+001 3.000013e+001 1.090000e+003
      vertex   8.000000e+001 3.000013e+001 1.090000e+003
    endloop
  endfacet
  facet normal -2.787328e-011 -7.071060e-001 -7.071076e-001
    outer loop
      vertex   8.000000e+001 5.750000e+001 1.106388e+003
      vertex   1.100000e+002 5.750000e+001 1.106388e+003
      vertex   8.000000e+001 3.000013e+001 1.133888e+003
    endloop
  endfacet
  facet normal 7.603268e-011 -7.071060e-001 -7.071076e-001
    outer loop
      vertex   8.000000e+001 3.000013e+001 1.133888e+003
      vertex   1.100000e+002 5.750000e+001 1.106388e+003
      vertex   1.100000e+002 2.638795e+001 1.137500e+003
    endloop
  endfacet
  facet normal -6.010655e-013 -7.071060e-001 -7.071076e-001
    outer loop
      vertex   -5.000000e+001 2.638795e+001 1.137500e+003
      vertex   8.000000e+001 3.000013e+001 1.133888e+003
      vertex   1.100000e+002 2.638795e+001 1.137500e+003
    endloop
  endfacet
  facet normal 3.294945e-012 -7.071060e-001 -7.071076e-001
    outer loop
      vertex   -5.000000e+001 2.638795e+001 1.137500e+003
      vertex   -5.000000e+001 3.000013e+001 1.133888e+003
      vertex   8.000000e+001 3.000013e+001 1.133888e+003
    endloop
  endfacet
  facet normal 2.820885e-008 -9.659259e-001 -2.588187e-001
    outer loop
      vertex   -5.000000e+001 1.500013e+001 1.180000e+003
      vertex   -5.000000e+001 2.638795e+001 1.137500e+003
      vertex   -4.000000e+001 2.500014e+001 1.142679e+003
    endloop
  endfacet
  facet normal 1.626281e-016 -9.659259e-001 -2.588186e-001
    outer loop
      vertex   -4.000000e+001 2.500014e+001 1.142679e+003
      vertex   -5.000000e+001 2.638795e+001 1.137500e+003
      vertex   7.000000e+001 2.500014e+001 1.142679e+003
    endloop
  endfacet
  facet normal 6.540673e-013 -9.659259e-001 -2.588186e-001
    outer loop
      vertex   7.000000e+001 2.500014e+001 1.142679e+003
      vertex   -5.000000e+001 2.638795e+001 1.137500e+003
      vertex   1.100000e+002 2.638795e+001 1.137500e+003
    endloop
  endfacet
  facet normal -1.427169e-009 -9.659259e-001 -2.588186e-001
    outer loop
      vertex   1.100000e+002 1.500013e+001 1.180000e+003
      vertex   7.000000e+001 2.500014e+001 1.142679e+003
      vertex   1.100000e+002 2.638795e+001 1.137500e+003
    endloop
  endfacet
  facet normal -8.742746e-008 -9.659260e-001 -2.588185e-001
    outer loop
      vertex   1.100000e+002 1.500013e+001 1.180000e+003
      vertex   8.000000e+001 1.500014e+001 1.180000e+003
      vertex   7.000000e+001 2.500014e+001 1.142679e+003
    endloop
  endfacet
  facet normal -7.071068e-001 7.071068e-001 6.962185e-012
    outer loop
      vertex   -4.000000e+001 2.500014e+001 1.100000e+003
      vertex   -5.000000e+001 1.500014e+001 1.100000e+003
      vertex   -4.000000e+001 2.500014e+001 1.142679e+003
    endloop
  endfacet
  facet normal -7.071068e-001 7.071067e-001 2.268061e-008
    outer loop
      vertex   -4.000000e+001 2.500014e+001 1.142679e+003
      vertex   -5.000000e+001 1.500014e+001 1.100000e+003
      vertex   -5.000000e+001 1.500013e+001 1.180000e+003
    endloop
  endfacet
  facet normal -9.486833e-001 -3.162278e-001 8.820366e-010
    outer loop
      vertex   -5.000000e+001 1.395517e-004 1.273000e+003
      vertex   -5.000000e+001 1.371009e-004 1.100000e+003
      vertex   -3.500000e+001 -4.499986e+001 1.273000e+003
    endloop
  endfacet
  facet normal -9.486833e-001 -3.162278e-001 -1.994967e-015
    outer loop
      vertex   -3.500000e+001 -4.499986e+001 1.273000e+003
      vertex   -5.000000e+001 1.371009e-004 1.100000e+003
      vertex   -3.500000e+001 -4.499986e+001 1.100000e+003
    endloop
  endfacet
  facet normal -3.021038e-011 -0.000000e+000 -1.000000e+000
    outer loop
      vertex   -2.000000e+001 -4.499986e+001 1.273000e+003
      vertex   -2.000000e+001 -6.699986e+001 1.273000e+003
      vertex   -3.500000e+001 -4.499986e+001 1.273000e+003
    endloop
  endfacet
  facet normal 0.000000e+000 2.059799e-011 -1.000000e+000
    outer loop
      vertex   -3.500000e+001 -4.499986e+001 1.273000e+003
      vertex   -2.000000e+001 -6.699986e+001 1.273000e+003
      vertex   -3.700000e+001 -6.699986e+001 1.273000e+003
    endloop
  endfacet
  facet normal 1.057363e-011 1.963675e-011 -1.000000e+000
    outer loop
      vertex   -5.000000e+001 -5.999986e+001 1.273000e+003
      vertex   -3.500000e+001 -4.499986e+001 1.273000e+003
      vertex   -3.700000e+001 -6.699986e+001 1.273000e+003
    endloop
  endfacet
  facet normal 3.021038e-011 -2.498024e-019 -1.000000e+000
    outer loop
      vertex   -5.000000e+001 -5.999986e+001 1.273000e+003
      vertex   -5.000000e+001 1.395517e-004 1.273000e+003
      vertex   -3.500000e+001 -4.499986e+001 1.273000e+003
    endloop
  endfacet
  facet normal -4.740998e-001 -8.804711e-001 -2.551697e-009
    outer loop
      vertex   -5.000000e+001 -5.999986e+001 1.273000e+003
      vertex   -3.700000e+001 -6.699986e+001 1.273000e+003
      vertex   -5.000000e+001 -5.999986e+001 1.343000e+003
    endloop
  endfacet
  facet normal -4.740998e-001 -8.804711e-001 0.000000e+000
    outer loop
      vertex   -5.000000e+001 -5.999986e+001 1.343000e+003
      vertex   -3.700000e+001 -6.699986e+001 1.273000e+003
      vertex   -3.700000e+001 -6.699986e+001 1.343000e+003
    endloop
  endfacet
  facet normal 7.319921e-011 -1.000000e+000 1.543580e-008
    outer loop
      vertex   -5.000000e+001 5.000139e+000 1.355000e+003
      vertex   -5.000000e+001 5.000139e+000 1.343000e+003
      vertex   -4.403684e+001 5.000139e+000 1.355000e+003
    endloop
  endfacet
  facet normal 1.022176e-010 -1.000000e+000 1.542137e-008
    outer loop
      vertex   -4.403684e+001 5.000139e+000 1.355000e+003
      vertex   -5.000000e+001 5.000139e+000 1.343000e+003
      vertex   -4.403684e+001 5.000139e+000 1.343000e+003
    endloop
  endfacet
  facet normal -0.000000e+000 0.000000e+000 1.000000e+000
    outer loop
      vertex   -5.000000e+001 1.096328e+001 1.355000e+003
      vertex   -5.000000e+001 5.000139e+000 1.355000e+003
      vertex   -4.403684e+001 5.000139e+000 1.355000e+003
    endloop
  endfacet
  facet normal -7.071065e-001 -7.071071e-001 -3.728966e-011
    outer loop
      vertex   -4.403684e+001 5.000139e+000 1.343000e+003
      vertex   -3.624998e+001 -2.786711e+000 1.343000e+003
      vertex   -4.403684e+001 5.000139e+000 1.355000e+003
    endloop
  endfacet
  facet normal -7.071065e-001 -7.071071e-001 1.685311e-011
    outer loop
      vertex   -4.403684e+001 5.000139e+000 1.355000e+003
      vertex   -3.624998e+001 -2.786711e+000 1.343000e+003
      vertex   -3.624998e+001 -2.786711e+000 1.360000e+003
    endloop
  endfacet
  facet normal -7.071065e-001 -7.071071e-001 3.071911e-006
    outer loop
      vertex   -5.000000e+001 1.096328e+001 1.355000e+003
      vertex   -3.624998e+001 -2.786711e+000 1.360000e+003
      vertex   -6.278683e+001 2.375011e+001 1.360000e+003
    endloop
  endfacet
  facet normal -7.071071e-001 -7.071065e-001 -1.481897e-012
    outer loop
      vertex   -6.278683e+001 2.375011e+001 1.325000e+003
      vertex   -5.000000e+001 1.096328e+001 1.355000e+003
      vertex   -6.278683e+001 2.375011e+001 1.360000e+003
    endloop
  endfacet
  facet normal -7.071065e-001 -7.071071e-001 -5.119650e-007
    outer loop
      vertex   -6.278683e+001 2.375011e+001 1.325000e+003
      vertex   -5.000000e+001 1.096330e+001 1.325000e+003
      vertex   -5.000000e+001 1.096328e+001 1.355000e+003
    endloop
  endfacet
  facet normal -7.071052e-001 -7.071083e-001 -4.011052e-006
    outer loop
      vertex   -4.403684e+001 5.000139e+000 1.355000e+003
      vertex   -3.624998e+001 -2.786711e+000 1.360000e+003
      vertex   -5.000000e+001 1.096328e+001 1.355000e+003
    endloop
  endfacet
  facet normal 0.000000e+000 0.000000e+000 -1.000000e+000
    outer loop
      vertex   -5.000000e+001 1.500014e+001 1.273000e+003
      vertex   -5.000000e+001 2.500014e+001 1.273000e+003
      vertex   -4.000000e+001 2.500014e+001 1.273000e+003
    endloop
  endfacet
  facet normal -7.071068e-001 7.071067e-001 -1.950943e-008
    outer loop
      vertex   -5.000000e+001 1.500013e+001 1.180000e+003
      vertex   -5.000000e+001 1.500014e+001 1.273000e+003
      vertex   -4.000000e+001 2.500014e+001 1.217320e+003
    endloop
  endfacet
  facet normal -7.071068e-001 7.071068e-001 2.707079e-016
    outer loop
      vertex   -4.000000e+001 2.500014e+001 1.217320e+003
      vertex   -5.000000e+001 1.500014e+001 1.273000e+003
      vertex   -4.000000e+001 2.500014e+001 1.273000e+003
    endloop
  endfacet
  facet normal -9.369144e-008 -9.659257e-001 2.588193e-001
    outer loop
      vertex   8.000000e+001 1.500014e+001 1.180000e+003
      vertex   1.100000e+002 1.500013e+001 1.180000e+003
      vertex   7.000000e+001 2.500014e+001 1.217320e+003
    endloop
  endfacet
  facet normal 8.634540e-009 -9.659257e-001 2.588194e-001
    outer loop
      vertex   7.000000e+001 2.500014e+001 1.217320e+003
      vertex   1.100000e+002 1.500013e+001 1.180000e+003
      vertex   1.100000e+002 2.638799e+001 1.222500e+003
    endloop
  endfacet
  facet normal 4.165151e-011 -9.659257e-001 2.588195e-001
    outer loop
      vertex   -5.000000e+001 2.638799e+001 1.222500e+003
      vertex   7.000000e+001 2.500014e+001 1.217320e+003
      vertex   1.100000e+002 2.638799e+001 1.222500e+003
    endloop
  endfacet
  facet normal 3.808303e-016 -9.659257e-001 2.588195e-001
    outer loop
      vertex   -5.000000e+001 2.638799e+001 1.222500e+003
      vertex   -4.000000e+001 2.500014e+001 1.217320e+003
      vertex   7.000000e+001 2.500014e+001 1.217320e+003
    endloop
  endfacet
  facet normal -9.246394e-008 -9.659257e-001 2.588193e-001
    outer loop
      vertex   -5.000000e+001 2.638799e+001 1.222500e+003
      vertex   -5.000000e+001 1.500013e+001 1.180000e+003
      vertex   -4.000000e+001 2.500014e+001 1.217320e+003
    endloop
  endfacet
  facet normal -9.659258e-001 -2.588193e-001 1.823743e-011
    outer loop
      vertex   -7.250000e+001 6.000012e+001 1.360000e+003
      vertex   -7.250000e+001 6.000012e+001 1.325000e+003
      vertex   -6.278683e+001 2.375011e+001 1.360000e+003
    endloop
  endfacet
  facet normal -9.659258e-001 -2.588193e-001 1.545561e-012
    outer loop
      vertex   -6.278683e+001 2.375011e+001 1.360000e+003
      vertex   -7.250000e+001 6.000012e+001 1.325000e+003
      vertex   -6.278683e+001 2.375011e+001 1.325000e+003
    endloop
  endfacet
  facet normal 2.588193e-001 -9.659258e-001 -2.663974e-010
    outer loop
      vertex   3.625000e+001 -2.786697e+000 1.343000e+003
      vertex   3.625000e+001 -2.786697e+000 1.360000e+003
      vertex   1.099996e-005 -1.249986e+001 1.343000e+003
    endloop
  endfacet
  facet normal 2.588193e-001 -9.659258e-001 1.813907e-011
    outer loop
      vertex   1.099996e-005 -1.249986e+001 1.343000e+003
      vertex   3.625000e+001 -2.786697e+000 1.360000e+003
      vertex   1.099878e-005 -1.249986e+001 1.360000e+003
    endloop
  endfacet
  facet normal 1.000000e+000 -0.000000e+000 0.000000e+000
    outer loop
      vertex   1.100000e+002 1.500013e+001 1.180000e+003
      vertex   1.100000e+002 2.638795e+001 1.137500e+003
      vertex   1.100000e+002 2.638799e+001 1.222500e+003
    endloop
  endfacet
  facet normal 1.000000e+000 -0.000000e+000 0.000000e+000
    outer loop
      vertex   1.100000e+002 2.638799e+001 1.222500e+003
      vertex   1.100000e+002 2.638795e+001 1.137500e+003
      vertex   1.100000e+002 5.750015e+001 1.253612e+003
    endloop
  endfacet
  facet normal 1.000000e+000 0.000000e+000 0.000000e+000
    outer loop
      vertex   1.100000e+002 5.750015e+001 1.253612e+003
      vertex   1.100000e+002 2.638795e+001 1.137500e+003
      vertex   1.100000e+002 5.750000e+001 1.106388e+003
    endloop
  endfacet
  facet normal 1.000000e+000 0.000000e+000 0.000000e+000
    outer loop
      vertex   1.100000e+002 1.000002e+002 1.095000e+003
      vertex   1.100000e+002 5.750015e+001 1.253612e+003
      vertex   1.100000e+002 5.750000e+001 1.106388e+003
    endloop
  endfacet
  facet normal 1.000000e+000 0.000000e+000 0.000000e+000
    outer loop
      vertex   1.100000e+002 1.000002e+002 1.095000e+003
      vertex   1.100000e+002 1.000001e+002 1.265000e+003
      vertex   1.100000e+002 5.750015e+001 1.253612e+003
    endloop
  endfacet
  facet normal 1.000000e+000 0.000000e+000 -0.000000e+000
    outer loop
      vertex   1.100000e+002 1.000002e+002 1.095000e+003
      vertex   1.100000e+002 1.425001e+002 1.106388e+003
      vertex   1.100000e+002 1.000001e+002 1.265000e+003
    endloop
  endfacet
  facet normal 1.000000e+000 -0.000000e+000 0.000000e+000
    outer loop
      vertex   1.100000e+002 1.000001e+002 1.265000e+003
      vertex   1.100000e+002 1.425001e+002 1.106388e+003
      vertex   1.100000e+002 1.425001e+002 1.253612e+003
    endloop
  endfacet
  facet normal 1.000000e+000 -0.000000e+000 0.000000e+000
    outer loop
      vertex   1.100000e+002 1.425001e+002 1.253612e+003
      vertex   1.100000e+002 1.425001e+002 1.106388e+003
      vertex   1.100000e+002 1.736124e+002 1.222500e+003
    endloop
  endfacet
  facet normal 1.000000e+000 -0.000000e+000 0.000000e+000
    outer loop
      vertex   1.100000e+002 1.736124e+002 1.222500e+003
      vertex   1.100000e+002 1.425001e+002 1.106388e+003
      vertex   1.100000e+002 1.736123e+002 1.137500e+003
    endloop
  endfacet
  facet normal 1.000000e+000 0.000000e+000 0.000000e+000
    outer loop
      vertex   1.100000e+002 1.850001e+002 1.180000e+003
      vertex   1.100000e+002 1.736124e+002 1.222500e+003
      vertex   1.100000e+002 1.736123e+002 1.137500e+003
    endloop
  endfacet
  facet normal 0.000000e+000 -1.000000e+000 0.000000e+000
    outer loop
      vertex   -3.700000e+001 -6.699986e+001 1.273000e+003
      vertex   -2.000000e+001 -6.699986e+001 1.273000e+003
      vertex   -3.700000e+001 -6.699986e+001 1.343000e+003
    endloop
  endfacet
  facet normal 0.000000e+000 -1.000000e+000 0.000000e+000
    outer loop
      vertex   -3.700000e+001 -6.699986e+001 1.343000e+003
      vertex   -2.000000e+001 -6.699986e+001 1.273000e+003
      vertex   6.700000e+001 -6.699986e+001 1.343000e+003
    endloop
  endfacet
  facet normal 0.000000e+000 -1.000000e+000 -0.000000e+000
    outer loop
      vertex   6.700000e+001 -6.699986e+001 1.343000e+003
      vertex   -2.000000e+001 -6.699986e+001 1.273000e+003
      vertex   6.700000e+001 -6.699986e+001 1.285000e+003
    endloop
  endfacet
  facet normal 0.000000e+000 -1.000000e+000 -0.000000e+000
    outer loop
      vertex   6.700000e+001 -6.699986e+001 1.285000e+003
      vertex   -2.000000e+001 -6.699986e+001 1.273000e+003
      vertex   6.500000e+001 -6.699986e+001 1.273000e+003
    endloop
  endfacet
  facet normal -0.000000e+000 -1.000000e+000 0.000000e+000
    outer loop
      vertex   6.700000e+001 -6.699986e+001 1.273000e+003
      vertex   6.700000e+001 -6.699986e+001 1.285000e+003
      vertex   6.500000e+001 -6.699986e+001 1.273000e+003
    endloop
  endfacet
  facet normal 0.000000e+000 -1.000000e+000 -8.249998e-008
    outer loop
      vertex   -2.000000e+001 -6.699986e+001 1.273000e+003
      vertex   -2.000000e+001 -6.699985e+001 1.153000e+003
      vertex   6.500000e+001 -6.699986e+001 1.273000e+003
    endloop
  endfacet
  facet normal 0.000000e+000 -1.000000e+000 -8.249998e-008
    outer loop
      vertex   6.500000e+001 -6.699986e+001 1.273000e+003
      vertex   -2.000000e+001 -6.699985e+001 1.153000e+003
      vertex   6.500000e+001 -6.699985e+001 1.153000e+003
    endloop
  endfacet
  facet normal -2.588189e-001 -9.659259e-001 -1.776983e-011
    outer loop
      vertex   1.099996e-005 -1.249986e+001 1.343000e+003
      vertex   1.099878e-005 -1.249986e+001 1.360000e+003
      vertex   -3.624998e+001 -2.786711e+000 1.343000e+003
    endloop
  endfacet
  facet normal -2.588189e-001 -9.659259e-001 -1.746727e-011
    outer loop
      vertex   -3.624998e+001 -2.786711e+000 1.343000e+003
      vertex   1.099878e-005 -1.249986e+001 1.360000e+003
      vertex   -3.624998e+001 -2.786711e+000 1.360000e+003
    endloop
  endfacet
  facet normal 1.000000e+000 -6.251006e-012 -4.167337e-013
    outer loop
      vertex   6.500000e+001 -6.699985e+001 1.153000e+003
      vertex   6.500000e+001 -5.699986e+001 1.123000e+003
      vertex   6.500000e+001 -6.699986e+001 1.273000e+003
    endloop
  endfacet
  facet normal 1.000000e+000 -0.000000e+000 0.000000e+000
    outer loop
      vertex   6.500000e+001 -6.699986e+001 1.273000e+003
      vertex   6.500000e+001 -5.699986e+001 1.123000e+003
      vertex   6.500000e+001 -4.499986e+001 1.273000e+003
    endloop
  endfacet
  facet normal 1.000000e+000 7.226611e-012 -5.781289e-013
    outer loop
      vertex   6.500000e+001 -4.499986e+001 1.273000e+003
      vertex   6.500000e+001 -5.699986e+001 1.123000e+003
      vertex   6.500000e+001 -4.499989e+001 1.100000e+003
    endloop
  endfacet
  facet normal 0.000000e+000 -8.865843e-001 -4.625670e-001
    outer loop
      vertex   -2.000000e+001 -5.699986e+001 1.123000e+003
      vertex   -2.000000e+001 -4.499989e+001 1.100000e+003
      vertex   6.500000e+001 -5.699986e+001 1.123000e+003
    endloop
  endfacet
  facet normal 0.000000e+000 -8.865843e-001 -4.625670e-001
    outer loop
      vertex   6.500000e+001 -5.699986e+001 1.123000e+003
      vertex   -2.000000e+001 -4.499989e+001 1.100000e+003
      vertex   6.500000e+001 -4.499989e+001 1.100000e+003
    endloop
  endfacet
  facet normal -1.942150e-014 -1.000000e+000 1.683946e-015
    outer loop
      vertex   -3.500000e+001 -4.499986e+001 1.273000e+003
      vertex   -3.500000e+001 -4.499986e+001 1.100000e+003
      vertex   -2.000000e+001 -4.499986e+001 1.273000e+003
    endloop
  endfacet
  facet normal -2.121739e-006 -1.000000e+000 1.839659e-007
    outer loop
      vertex   -2.000000e+001 -4.499986e+001 1.273000e+003
      vertex   -3.500000e+001 -4.499986e+001 1.100000e+003
      vertex   -2.000000e+001 -4.499989e+001 1.100000e+003
    endloop
  endfacet
  facet normal 1.921695e-014 1.000000e+000 -2.595224e-011
    outer loop
      vertex   7.000000e+001 2.500014e+001 1.142679e+003
      vertex   7.000000e+001 2.500014e+001 1.100000e+003
      vertex   -4.000000e+001 2.500014e+001 1.142679e+003
    endloop
  endfacet
  facet normal 1.469984e-012 1.000000e+000 -2.221310e-011
    outer loop
      vertex   -4.000000e+001 2.500014e+001 1.142679e+003
      vertex   7.000000e+001 2.500014e+001 1.100000e+003
      vertex   -4.000000e+001 2.500014e+001 1.100000e+003
    endloop
  endfacet
  facet normal 9.517978e-007 -2.588209e-001 -9.659253e-001
    outer loop
      vertex   1.100000e+002 1.000002e+002 1.095000e+003
      vertex   1.100000e+002 5.750000e+001 1.106388e+003
      vertex   8.000000e+001 1.000002e+002 1.095000e+003
    endloop
  endfacet
  facet normal -1.932383e-011 -2.588215e-001 -9.659252e-001
    outer loop
      vertex   8.000000e+001 1.000002e+002 1.095000e+003
      vertex   1.100000e+002 5.750000e+001 1.106388e+003
      vertex   8.000000e+001 5.750000e+001 1.106388e+003
    endloop
  endfacet
  facet normal 1.000000e+000 1.776388e-012 -4.209396e-014
    outer loop
      vertex   8.000000e+001 3.000013e+001 1.133888e+003
      vertex   8.000000e+001 3.000013e+001 1.090000e+003
      vertex   8.000000e+001 5.750000e+001 1.106388e+003
    endloop
  endfacet
  facet normal 1.000000e+000 -9.545690e-027 2.938767e-012
    outer loop
      vertex   8.000000e+001 5.750000e+001 1.106388e+003
      vertex   8.000000e+001 3.000013e+001 1.090000e+003
      vertex   8.000000e+001 1.000001e+002 1.090000e+003
    endloop
  endfacet
  facet normal 1.000000e+000 -1.267981e-012 -3.495720e-013
    outer loop
      vertex   8.000000e+001 1.000002e+002 1.095000e+003
      vertex   8.000000e+001 5.750000e+001 1.106388e+003
      vertex   8.000000e+001 1.000001e+002 1.090000e+003
    endloop
  endfacet
  facet normal -1.000000e+000 0.000000e+000 -0.000000e+000
    outer loop
      vertex   -2.000000e+001 -6.699986e+001 1.273000e+003
      vertex   -2.000000e+001 -4.499986e+001 1.273000e+003
      vertex   -2.000000e+001 -6.699985e+001 1.153000e+003
    endloop
  endfacet
  facet normal -1.000000e+000 0.000000e+000 -0.000000e+000
    outer loop
      vertex   -2.000000e+001 -6.699985e+001 1.153000e+003
      vertex   -2.000000e+001 -4.499986e+001 1.273000e+003
      vertex   -2.000000e+001 -5.699986e+001 1.123000e+003
    endloop
  endfacet
  facet normal -1.000000e+000 0.000000e+000 -0.000000e+000
    outer loop
      vertex   -2.000000e+001 -5.699986e+001 1.123000e+003
      vertex   -2.000000e+001 -4.499986e+001 1.273000e+003
      vertex   -2.000000e+001 -4.499989e+001 1.100000e+003
    endloop
  endfacet
  facet normal 0.000000e+000 -9.486833e-001 -3.162278e-001
    outer loop
      vertex   -2.000000e+001 -6.699985e+001 1.153000e+003
      vertex   -2.000000e+001 -5.699986e+001 1.123000e+003
      vertex   6.500000e+001 -6.699985e+001 1.153000e+003
    endloop
  endfacet
  facet normal 0.000000e+000 -9.486833e-001 -3.162278e-001
    outer loop
      vertex   6.500000e+001 -6.699985e+001 1.153000e+003
      vertex   -2.000000e+001 -5.699986e+001 1.123000e+003
      vertex   6.500000e+001 -5.699986e+001 1.123000e+003
    endloop
  endfacet
  facet normal -0.000000e+000 0.000000e+000 1.000000e+000
    outer loop
      vertex   7.300116e-011 1.325001e+002 1.360000e+003
      vertex   -3.625005e+001 1.227869e+002 1.360000e+003
      vertex   3.625000e+001 1.227869e+002 1.360000e+003
    endloop
  endfacet
  facet normal 0.000000e+000 0.000000e+000 1.000000e+000
    outer loop
      vertex   3.625000e+001 1.227869e+002 1.360000e+003
      vertex   -3.625005e+001 1.227869e+002 1.360000e+003
      vertex   -6.278686e+001 9.625010e+001 1.360000e+003
    endloop
  endfacet
  facet normal 0.000000e+000 0.000000e+000 1.000000e+000
    outer loop
      vertex   6.278684e+001 9.625014e+001 1.360000e+003
      vertex   -6.278686e+001 9.625010e+001 1.360000e+003
      vertex   7.250000e+001 6.000014e+001 1.360000e+003
    endloop
  endfacet
  facet normal 0.000000e+000 0.000000e+000 1.000000e+000
    outer loop
      vertex   6.278684e+001 9.625014e+001 1.360000e+003
      vertex   3.625000e+001 1.227869e+002 1.360000e+003
      vertex   -6.278686e+001 9.625010e+001 1.360000e+003
    endloop
  endfacet
  facet normal -0.000000e+000 0.000000e+000 1.000000e+000
    outer loop
      vertex   -6.278686e+001 9.625010e+001 1.360000e+003
      vertex   -7.250000e+001 6.000012e+001 1.360000e+003
      vertex   7.250000e+001 6.000014e+001 1.360000e+003
    endloop
  endfacet
  facet normal 0.000000e+000 0.000000e+000 1.000000e+000
    outer loop
      vertex   7.250000e+001 6.000014e+001 1.360000e+003
      vertex   -7.250000e+001 6.000012e+001 1.360000e+003
      vertex   6.278684e+001 2.375014e+001 1.360000e+003
    endloop
  endfacet
  facet normal 0.000000e+000 0.000000e+000 1.000000e+000
    outer loop
      vertex   6.278684e+001 2.375014e+001 1.360000e+003
      vertex   -7.250000e+001 6.000012e+001 1.360000e+003
      vertex   3.625000e+001 -2.786697e+000 1.360000e+003
    endloop
  endfacet
  facet normal 0.000000e+000 0.000000e+000 1.000000e+000
    outer loop
      vertex   3.625000e+001 -2.786697e+000 1.360000e+003
      vertex   -7.250000e+001 6.000012e+001 1.360000e+003
      vertex   -6.278683e+001 2.375011e+001 1.360000e+003
    endloop
  endfacet
  facet normal 0.000000e+000 -0.000000e+000 1.000000e+000
    outer loop
      vertex   -3.624998e+001 -2.786711e+000 1.360000e+003
      vertex   3.625000e+001 -2.786697e+000 1.360000e+003
      vertex   -6.278683e+001 2.375011e+001 1.360000e+003
    endloop
  endfacet
  facet normal -0.000000e+000 0.000000e+000 1.000000e+000
    outer loop
      vertex   -3.624998e+001 -2.786711e+000 1.360000e+003
      vertex   1.099878e-005 -1.249986e+001 1.360000e+003
      vertex   3.625000e+001 -2.786697e+000 1.360000e+003
    endloop
  endfacet
endsolid